<?xml version="1.0" encoding="UTF-8" standalone="no"?>
<!DOCTYPE svg PUBLIC "-//W3C//DTD SVG 1.1//EN"
 "http://www.w3.org/Graphics/SVG/1.1/DTD/svg11.dtd">
<!-- Generated by graphviz version 5.0.0 (0)
 -->
<!-- Pages: 1 -->
<svg width="1080pt" height="314pt"
 viewBox="0.00 0.00 1080.43 314.00" xmlns="http://www.w3.org/2000/svg" xmlns:xlink="http://www.w3.org/1999/xlink">
<g id="graph0" class="graph" transform="scale(1 1) rotate(0) translate(4 310)">
<polygon fill="white" stroke="transparent" points="-4,4 -4,-310 1076.43,-310 1076.43,4 -4,4"/>
<!-- ResearchProject -->
<g id="node1" class="node">
<title>ResearchProject</title>
<ellipse fill="none" stroke="#558855" cx="527.11" cy="-288" rx="87.18" ry="18"/>
<text text-anchor="middle" x="527.11" y="-284.3" font-family="Times,serif" font-size="14.00">ResearchProject</text>
</g>
<!-- example.org/id/resproj/X -->
<g id="node2" class="node">
<title>example.org/id/resproj/X</title>
<ellipse fill="none" stroke="black" cx="125.44" cy="-153" rx="125.38" ry="18"/>
<text text-anchor="middle" x="125.44" y="-149.3" font-family="Times,serif" font-size="14.00">example.org/id/resproj/X</text>
</g>
<!-- example.org/id/resproj/X&#45;&gt;ResearchProject -->
<g id="edge1" class="edge">
<title>example.org/id/resproj/X&#45;&gt;ResearchProject</title>
<path fill="none" stroke="black" d="M157.34,-170.44C202.21,-194.91 288.71,-238.91 367.88,-261 391.82,-267.68 418.3,-272.99 442.63,-277.06"/>
<polygon fill="black" stroke="black" points="442.12,-280.52 452.55,-278.68 443.24,-273.61 442.12,-280.52"/>
<text text-anchor="middle" x="309.38" y="-257.8" font-family="Times,serif" font-size="14.00">type</text>
</g>
<!-- &quot;Repo description ......&quot; -->
<g id="node3" class="node">
<title>&quot;Repo description ......&quot;</title>
<ellipse fill="none" stroke="black" stroke-width="0" cx="527.11" cy="-234" rx="118.08" ry="18"/>
<text text-anchor="middle" x="527.11" y="-230.3" font-family="Times,serif" font-size="14.00">&quot;Repo description ......&quot;</text>
</g>
<!-- example.org/id/resproj/X&#45;&gt;&quot;Repo description ......&quot; -->
<g id="edge2" class="edge">
<title>example.org/id/resproj/X&#45;&gt;&quot;Repo description ......&quot;</title>
<path fill="none" stroke="black" d="M191.62,-168.37C215.85,-174.01 243.6,-180.39 268.88,-186 312.79,-195.74 323.7,-198.55 367.88,-207 389.72,-211.18 413.31,-215.37 435.45,-219.17"/>
<polygon fill="black" stroke="black" points="435.06,-222.65 445.5,-220.89 436.23,-215.75 435.06,-222.65"/>
<text text-anchor="middle" x="309.38" y="-206.8" font-family="Times,serif" font-size="14.00">description</text>
</g>
<!-- grid.ac/institutes/grid.475727.4 -->
<g id="node4" class="node">
<title>grid.ac/institutes/grid.475727.4</title>
<ellipse fill="none" stroke="#558855" cx="527.11" cy="-180" rx="159.47" ry="18"/>
<text text-anchor="middle" x="527.11" y="-176.3" font-family="Times,serif" font-size="14.00">grid.ac/institutes/grid.475727.4</text>
</g>
<!-- example.org/id/resproj/X&#45;&gt;grid.ac/institutes/grid.475727.4 -->
<g id="edge3" class="edge">
<title>example.org/id/resproj/X&#45;&gt;grid.ac/institutes/grid.475727.4</title>
<path fill="none" stroke="black" d="M239.37,-160.63C283.02,-163.58 333.55,-166.99 379.92,-170.12"/>
<polygon fill="black" stroke="black" points="379.84,-173.63 390.06,-170.81 380.31,-166.64 379.84,-173.63"/>
<text text-anchor="middle" x="309.38" y="-170.8" font-family="Times,serif" font-size="14.00">identifier</text>
</g>
<!-- &quot;Example Data Reposit...&quot; -->
<g id="node5" class="node">
<title>&quot;Example Data Reposit...&quot;</title>
<ellipse fill="none" stroke="black" stroke-width="0" cx="527.11" cy="-126" rx="131.88" ry="18"/>
<text text-anchor="middle" x="527.11" y="-122.3" font-family="Times,serif" font-size="14.00">&quot;Example Data Reposit...&quot;</text>
</g>
<!-- example.org/id/resproj/X&#45;&gt;&quot;Example Data Reposit...&quot; -->
<g id="edge4" class="edge">
<title>example.org/id/resproj/X&#45;&gt;&quot;Example Data Reposit...&quot;</title>
<path fill="none" stroke="black" d="M239.37,-145.37C288.92,-142.02 347.34,-138.08 398.47,-134.62"/>
<polygon fill="black" stroke="black" points="398.85,-138.11 408.59,-133.94 398.38,-131.12 398.85,-138.11"/>
<text text-anchor="middle" x="309.38" y="-145.8" font-family="Times,serif" font-size="14.00">legalName</text>
</g>
<!-- &quot;ExDaRepo&quot; -->
<g id="node6" class="node">
<title>&quot;ExDaRepo&quot;</title>
<ellipse fill="none" stroke="black" stroke-width="0" cx="527.11" cy="-72" rx="67.69" ry="18"/>
<text text-anchor="middle" x="527.11" y="-68.3" font-family="Times,serif" font-size="14.00">&quot;ExDaRepo&quot;</text>
</g>
<!-- example.org/id/resproj/X&#45;&gt;&quot;ExDaRepo&quot; -->
<g id="edge5" class="edge">
<title>example.org/id/resproj/X&#45;&gt;&quot;ExDaRepo&quot;</title>
<path fill="none" stroke="black" d="M189.44,-137.46C214.16,-131.49 242.81,-124.74 268.88,-119 312.72,-109.34 323.75,-107.22 367.88,-99 397.65,-93.45 430.65,-87.75 458.78,-83.03"/>
<polygon fill="black" stroke="black" points="459.63,-86.43 468.91,-81.33 458.47,-79.53 459.63,-86.43"/>
<text text-anchor="middle" x="309.38" y="-122.8" font-family="Times,serif" font-size="14.00">name</text>
</g>
<!-- &quot;https//www.example&#45;d...&quot; -->
<g id="node7" class="node">
<title>&quot;https//www.example&#45;d...&quot;</title>
<ellipse fill="none" stroke="black" stroke-width="0" cx="527.11" cy="-18" rx="131.88" ry="18"/>
<text text-anchor="middle" x="527.11" y="-14.3" font-family="Times,serif" font-size="14.00">&quot;https//www.example&#45;d...&quot;</text>
</g>
<!-- example.org/id/resproj/X&#45;&gt;&quot;https//www.example&#45;d...&quot; -->
<g id="edge6" class="edge">
<title>example.org/id/resproj/X&#45;&gt;&quot;https//www.example&#45;d...&quot;</title>
<path fill="none" stroke="black" d="M157.31,-135.47C202.15,-110.88 288.61,-66.75 367.88,-45 385.53,-40.16 404.55,-36.02 423.06,-32.55"/>
<polygon fill="black" stroke="black" points="423.77,-35.98 432.98,-30.74 422.52,-29.09 423.77,-35.98"/>
<text text-anchor="middle" x="309.38" y="-82.8" font-family="Times,serif" font-size="14.00">url</text>
</g>
<!-- PropertyValue -->
<g id="node8" class="node">
<title>PropertyValue</title>
<ellipse fill="none" stroke="#558855" cx="937.89" cy="-261" rx="77.19" ry="18"/>
<text text-anchor="middle" x="937.89" y="-257.3" font-family="Times,serif" font-size="14.00">PropertyValue</text>
</g>
<!-- grid.ac/institutes/grid.475727.4&#45;&gt;PropertyValue -->
<g id="edge7" class="edge">
<title>grid.ac/institutes/grid.475727.4&#45;&gt;PropertyValue</title>
<path fill="none" stroke="black" d="M631.13,-193.74C649.7,-197.3 668.74,-201.68 686.35,-207 694.73,-209.53 696,-212.36 704.35,-215 755.52,-231.21 814.91,-242.84 860.86,-250.35"/>
<polygon fill="black" stroke="black" points="860.32,-253.81 870.75,-251.94 861.43,-246.9 860.32,-253.81"/>
<text text-anchor="middle" x="744.85" y="-237.8" font-family="Times,serif" font-size="14.00">type</text>
</g>
<!-- &quot;UN Department of Eco...&quot; -->
<g id="node9" class="node">
<title>&quot;UN Department of Eco...&quot;</title>
<ellipse fill="none" stroke="black" stroke-width="0" cx="937.89" cy="-207" rx="134.58" ry="18"/>
<text text-anchor="middle" x="937.89" y="-203.3" font-family="Times,serif" font-size="14.00">&quot;UN Department of Eco...&quot;</text>
</g>
<!-- grid.ac/institutes/grid.475727.4&#45;&gt;&quot;UN Department of Eco...&quot; -->
<g id="edge8" class="edge">
<title>grid.ac/institutes/grid.475727.4&#45;&gt;&quot;UN Department of Eco...&quot;</title>
<path fill="none" stroke="black" d="M665.08,-189.05C710.81,-192.07 761.61,-195.42 806.8,-198.41"/>
<polygon fill="black" stroke="black" points="806.75,-201.91 816.95,-199.08 807.21,-194.93 806.75,-201.91"/>
<text text-anchor="middle" x="744.85" y="-199.8" font-family="Times,serif" font-size="14.00">description</text>
</g>
<!-- &quot;https//registry.iden...&quot; -->
<g id="node10" class="node">
<title>&quot;https//registry.iden...&quot;</title>
<ellipse fill="none" stroke="black" stroke-width="0" cx="937.89" cy="-153" rx="116.98" ry="18"/>
<text text-anchor="middle" x="937.89" y="-149.3" font-family="Times,serif" font-size="14.00">&quot;https//registry.iden...&quot;</text>
</g>
<!-- grid.ac/institutes/grid.475727.4&#45;&gt;&quot;https//registry.iden...&quot; -->
<g id="edge9" class="edge">
<title>grid.ac/institutes/grid.475727.4&#45;&gt;&quot;https//registry.iden...&quot;</title>
<path fill="none" stroke="black" d="M665.08,-170.95C715.34,-167.63 771.71,-163.91 820.04,-160.72"/>
<polygon fill="black" stroke="black" points="820.48,-164.2 830.23,-160.05 820.02,-157.21 820.48,-164.2"/>
<text text-anchor="middle" x="744.85" y="-171.8" font-family="Times,serif" font-size="14.00">propertyID</text>
</g>
<!-- &quot;https//grid.ac/insti...&quot; -->
<g id="node11" class="node">
<title>&quot;https//grid.ac/insti...&quot;</title>
<ellipse fill="none" stroke="black" stroke-width="0" cx="937.89" cy="-99" rx="114.28" ry="18"/>
<text text-anchor="middle" x="937.89" y="-95.3" font-family="Times,serif" font-size="14.00">&quot;https//grid.ac/insti...&quot;</text>
</g>
<!-- grid.ac/institutes/grid.475727.4&#45;&gt;&quot;https//grid.ac/insti...&quot; -->
<g id="edge10" class="edge">
<title>grid.ac/institutes/grid.475727.4&#45;&gt;&quot;https//grid.ac/insti...&quot;</title>
<path fill="none" stroke="black" d="M633.44,-166.5C651.32,-162.94 669.53,-158.5 686.35,-153 694.85,-150.22 695.88,-146.88 704.35,-144 747.33,-129.4 796.49,-119.03 838.5,-111.94"/>
<polygon fill="black" stroke="black" points="839.16,-115.38 848.46,-110.3 838.03,-108.48 839.16,-115.38"/>
<text text-anchor="middle" x="744.85" y="-147.8" font-family="Times,serif" font-size="14.00">url</text>
</g>
</g>
</svg>
