<?xml version="1.0" encoding="utf-8"?>
<!-- Generator: Adobe Illustrator 16.0.4, SVG Export Plug-In . SVG Version: 6.00 Build 0)  -->
<!DOCTYPE svg PUBLIC "-//W3C//DTD SVG 1.1//EN" "http://www.w3.org/Graphics/SVG/1.1/DTD/svg11.dtd">
<svg version="1.1" xmlns="http://www.w3.org/2000/svg" xmlns:xlink="http://www.w3.org/1999/xlink" x="0px" y="0px"
	 width="473.333px" height="444.849px" viewBox="0 0 473.333 444.849" enable-background="new 0 0 473.333 444.849"
	 xml:space="preserve">
<g id="Layer_3">
	<g>
		<path fill="#002271" d="M28.775,365.71c1.319,0.543,2.938,0.844,5.099,0.846c4.26,0.006,6.902-2.211,8.291-9.348l5.193-27.293
			l4.98,0.006l-5.313,27.832c-1.812,9.477-5.776,13.254-13.336,13.244c-2.459-0.004-4.979-0.547-5.998-1.027L28.775,365.71z"/>
		<path fill="#002271" d="M89.679,345.866c-0.008,7.02-2.538,14.756-7.343,19.549c-3.604,3.537-8.287,5.631-13.866,5.623
			c-10.439-0.012-15.35-7.877-15.339-16.457c0.008-7.141,2.838-14.996,7.764-19.85c3.424-3.355,8.466-5.451,13.566-5.443
			C85.319,329.3,89.689,337.226,89.679,345.866z M64.55,337.556c-3.905,3.895-6.193,10.973-6.2,16.611
			c-0.008,6.6,2.924,12.662,10.844,12.672c3.419,0.004,6.722-1.492,9.244-4.008c3.785-3.836,6.014-11.092,6.021-16.732
			c0.007-5.76-1.845-12.602-10.665-12.611C70.195,333.481,67.013,335.038,64.55,337.556z"/>
		<path fill="#002271" d="M103.895,329.983l-7.729,40.43l-4.98-0.008l7.729-40.428L103.895,329.983z"/>
		<path fill="#002271" d="M111.765,330.532c3.061-0.535,6.481-0.832,10.021-0.828c6.78,0.01,11.877,1.936,14.873,5.418
			c2.158,2.283,3.773,5.885,3.827,10.984c-0.009,7.32-2.957,14.576-8.183,19.01c-4.685,3.895-10.566,5.566-18.306,5.559
			c-3.54-0.006-7.199-0.189-9.839-0.494L111.765,330.532z M109.922,366.29c1.799,0.242,3.719,0.303,5.219,0.305
			c6.42,0.008,11.102-1.906,14.466-5.381c3.604-3.717,5.53-9.174,5.537-14.873c0.009-7.199-3.524-12.545-13.604-12.557
			c-1.8-0.002-4.02,0.115-5.521,0.414L109.922,366.29z"/>
		<path fill="#002271" d="M165.085,351.476l-14.7-0.018l-2.778,14.756l16.56,0.021l-0.845,4.258l-21.539-0.025l7.729-40.43
			l20.639,0.025l-0.845,4.258l-15.6-0.018l-2.476,12.957l14.7,0.018L165.085,351.476z"/>
		<path fill="#002271" d="M169.143,364.261c2.158,1.502,5.217,2.586,8.577,2.59c4.56,0.006,8.763-2.689,8.769-7.609
			c0.003-3-1.734-5.221-5.931-7.566c-5.156-2.766-8.032-6.01-8.027-10.389c0.009-7.201,6.254-11.873,13.693-11.863
			c3.9,0.004,6.838,1.209,8.277,2.17l-1.805,4.018c-1.259-0.721-3.777-1.926-7.018-1.869c-4.979-0.006-7.983,3.291-7.988,6.592
			c-0.004,3.299,2.034,5.162,6.231,7.506c4.977,2.646,7.732,5.83,7.727,10.809c-0.008,7.021-5.535,12.473-14.595,12.463
			c-4.08-0.006-8.038-1.33-9.716-2.771L169.143,364.261z"/>
		<path fill="#002271" d="M215.021,330.718c2.461-0.537,5.821-0.893,8.821-0.889c4.02,0.004,7.498,0.969,9.656,2.951
			c1.858,1.621,2.995,3.963,2.992,6.723c-0.007,5.879-4.512,10.254-9.614,11.689l-0.06,0.119c2.819,0.963,4.195,3.965,4.49,8.164
			c0.413,5.641,0.709,9.48,1.247,11.102l-5.16-0.006c-0.239-0.84-0.654-5.102-0.948-9.781c-0.293-5.52-2.331-7.863-6.35-7.867
			l-4.44-0.006l-3.321,17.637l-4.98-0.008L215.021,330.718z M216.439,349.079l4.44,0.004c6.3,0.008,10.384-4.127,10.39-8.986
			c0.005-4.32-3.232-6.244-7.792-6.25c-1.98-0.002-3.301,0.178-4.201,0.416L216.439,349.079z"/>
		<path fill="#002271" d="M258.119,368.929c-2.16,1.258-5.701,2.271-9.602,2.268c-7.68-0.01-11.033-5.232-11.025-11.652
			c0.011-8.76,6.502-18.652,15.861-18.641c5.521,0.006,8.517,3.311,8.512,7.451c-0.01,7.619-8.592,9.648-19.331,9.455
			c-0.241,1.26-0.065,3.961,0.593,5.521c1.137,2.58,3.475,3.904,6.475,3.908c3.42,0.004,6.002-1.074,7.803-2.031L258.119,368.929z
			 M252.628,344.802c-4.739-0.004-8.285,4.611-9.49,9.17c7.8,0.068,13.921-0.943,13.927-5.443
			C257.068,346.128,255.268,344.806,252.628,344.802z"/>
		<path fill="#002271" d="M263.158,365.573c1.379,0.842,3.896,1.805,6.236,1.809c3.36,0.004,5.523-2.152,5.526-4.732
			c0.003-2.281-1.016-3.662-4.014-5.346c-3.357-1.863-5.215-4.445-5.211-7.385c0.006-5.1,4.391-8.996,10.511-8.988
			c2.64,0.004,4.979,0.727,6.058,1.447l-1.384,3.779c-1.02-0.602-2.879-1.324-5.039-1.326c-3-0.004-5.161,1.854-5.164,4.373
			c-0.003,2.1,1.376,3.422,3.954,4.865c3.237,1.863,5.453,4.385,5.449,7.625c-0.007,6.119-4.99,9.533-11.11,9.527
			c-3.119-0.004-5.878-0.969-7.197-1.988L263.158,365.573z"/>
		<path fill="#002271" d="M311.416,353.093c-0.011,8.939-6.382,18.232-16.102,18.221c-7.26-0.01-11.333-5.414-11.325-11.953
			c0.012-9.541,6.683-18.412,16.103-18.4C307.951,340.97,311.423,346.913,311.416,353.093z M289.15,359.187
			c-0.006,4.74,2.569,8.162,6.829,8.168c5.88,0.006,10.329-7.547,10.337-14.328c0.004-3.359-1.55-8.102-6.77-8.107
			C293.306,344.911,289.098,352.526,289.15,359.187z"/>
		<path fill="#002271" d="M313.687,370.675l8.151-42.588l4.979,0.006l-8.211,42.588L313.687,370.675z"/>
		<path fill="#002271" d="M354.262,341.685l-3.925,20.574c-0.604,3.24-1.027,6.059-1.33,8.459l-4.5-0.006l0.787-5.459h-0.12
			c-2.585,3.777-6.428,6.113-10.268,6.107c-3.72-0.004-7.617-1.809-7.609-8.408c0.002-1.379,0.185-2.939,0.546-4.859l3.14-16.436
			l4.979,0.006l-3.079,16.195c-0.362,1.619-0.544,3-0.545,4.26c-0.004,3,1.254,5.041,4.674,5.045
			c3.6,0.004,8.225-4.189,9.433-10.607l2.837-14.877L354.262,341.685z"/>
		<path fill="#002271" d="M368.923,333.903l-1.51,7.799l6.96,0.008l-0.785,3.898l-6.959-0.008l-2.717,14.096
			c-0.302,1.619-0.544,3.119-0.546,4.68c-0.002,1.74,0.837,2.762,2.757,2.764c0.84,0,1.68-0.059,2.34-0.178l-0.245,3.9
			c-0.899,0.359-2.4,0.537-3.841,0.535c-4.439-0.006-6.115-2.709-6.112-5.648c0.003-1.68,0.185-3.359,0.606-5.459l2.897-14.695
			l-4.2-0.006l0.785-3.898l4.14,0.006l1.269-6.539L368.923,333.903z"/>
		<path fill="#002271" d="M372.868,370.747l5.615-29.033l4.979,0.008l-5.614,29.031L372.868,370.747z M379.392,333.616
			c0.003-1.92,1.504-3.357,3.305-3.355c1.8,0.002,2.938,1.322,2.937,3.123c-0.062,1.98-1.444,3.357-3.364,3.355
			C380.529,336.737,379.39,335.415,379.392,333.616z"/>
		<path fill="#002271" d="M413.082,353.216c-0.011,8.939-6.382,18.232-16.102,18.221c-7.26-0.01-11.333-5.414-11.325-11.953
			c0.012-9.541,6.683-18.412,16.103-18.4C409.617,341.093,413.089,347.036,413.082,353.216z M390.816,359.31
			c-0.006,4.74,2.569,8.162,6.829,8.168c5.88,0.006,10.329-7.547,10.337-14.328c0.004-3.359-1.55-8.102-6.77-8.107
			C394.972,345.034,390.764,352.649,390.816,359.31z"/>
		<path fill="#002271" d="M415.323,370.798l3.926-20.574c0.663-3.238,1.026-6.059,1.39-8.457l4.439,0.004l-0.727,5.699h0.12
			c2.585-4.076,6.487-6.352,10.747-6.346c3.479,0.004,7.378,1.988,7.37,8.107c-0.001,1.262-0.244,3.119-0.546,4.68l-3.261,16.916
			l-4.979-0.006l3.2-16.736c0.241-1.139,0.423-2.52,0.425-3.719c0.003-2.941-1.134-5.102-4.554-5.105
			c-3.54-0.004-8.585,4.25-9.913,11.447l-2.657,14.096L415.323,370.798z"/>
		<path fill="#002271" d="M35.068,423.979c2.338,1.441,5.756,2.646,9.356,2.65c5.339,0.006,8.463-2.811,8.468-6.889
			c0.005-3.781-2.153-5.943-7.61-8.049c-6.597-2.35-10.673-5.773-10.666-11.475c0.007-6.299,5.233-10.973,13.093-10.963
			c4.14,0.006,7.138,0.969,8.937,1.992l-1.445,4.258c-1.319-0.723-4.017-1.926-7.677-1.93c-5.52-0.006-7.624,3.291-7.627,6.051
			c-0.004,3.779,2.453,5.643,8.03,7.809c6.836,2.648,10.312,5.953,10.305,11.893c-0.007,6.24-4.634,11.633-14.174,11.621
			c-3.9-0.004-8.158-1.148-10.316-2.592L35.068,423.979z"/>
		<path fill="#002271" d="M84.813,429.319c-1.381,0.717-4.442,1.674-8.342,1.668c-8.76-0.01-14.452-5.957-14.441-14.836
			c0.011-8.939,6.139-15.412,15.618-15.4c3.12,0.004,5.879,0.787,7.318,1.51l-1.205,4.078c-1.259-0.723-3.238-1.385-6.118-1.389
			c-6.66-0.008-10.266,4.908-10.273,10.969c-0.008,6.719,4.307,10.863,10.066,10.871c3,0.004,4.981-0.773,6.481-1.434
			L84.813,429.319z"/>
		<path fill="#002271" d="M95.254,393.212c0.058,1.801-1.264,3.238-3.364,3.236c-1.86-0.002-3.178-1.443-3.176-3.244
			c0.002-1.859,1.384-3.297,3.304-3.295C93.998,389.911,95.257,391.353,95.254,393.212z M89.33,430.403l0.035-29.039l5.28,0.008
			l-0.035,29.039L89.33,430.403z"/>
		<path fill="#002271" d="M105.06,416.864c0.111,7.139,4.667,10.084,9.947,10.092c3.78,0.004,6.06-0.652,8.041-1.49l0.896,3.779
			c-1.861,0.838-5.042,1.795-9.662,1.789c-8.94-0.012-14.272-5.896-14.262-14.656c0.01-8.76,5.179-15.654,13.639-15.645
			c9.479,0.012,11.989,8.355,11.983,13.695c-0.001,1.08-0.123,1.92-0.183,2.459L105.06,416.864z M120.543,413.103
			c0.064-3.359-1.37-8.582-7.309-8.588c-5.34-0.008-7.686,4.91-8.11,8.57L120.543,413.103z"/>
		<path fill="#002271" d="M130.946,409.276c0.004-3-0.053-5.461-0.23-7.861l4.68,0.006l0.294,4.801h0.12
			c1.443-2.758,4.807-5.455,9.606-5.449c4.02,0.006,10.256,2.412,10.244,12.373l-0.021,17.338l-5.28-0.006l0.02-16.738
			c0.006-4.68-1.729-8.582-6.709-8.59c-3.479-0.004-6.183,2.453-7.086,5.393c-0.24,0.66-0.362,1.559-0.363,2.459L136.2,430.46
			l-5.28-0.006L130.946,409.276z"/>
		<path fill="#002271" d="M183.69,429.438c-1.381,0.717-4.442,1.674-8.342,1.67c-8.76-0.012-14.452-5.957-14.441-14.838
			c0.011-8.939,6.138-15.412,15.618-15.4c3.12,0.004,5.878,0.787,7.318,1.51l-1.205,4.078c-1.259-0.723-3.238-1.385-6.118-1.389
			c-6.66-0.008-10.266,4.908-10.273,10.969c-0.008,6.719,4.307,10.865,10.066,10.871c3,0.004,4.981-0.773,6.481-1.432
			L183.69,429.438z"/>
		<path fill="#002271" d="M190.744,416.968c0.111,7.139,4.667,10.086,9.947,10.092c3.78,0.004,6.06-0.652,8.041-1.49l0.896,3.779
			c-1.861,0.838-5.042,1.795-9.662,1.789c-8.939-0.012-14.272-5.896-14.261-14.656c0.01-8.76,5.179-15.654,13.639-15.645
			c9.479,0.012,11.989,8.355,11.983,13.695c-0.001,1.08-0.123,1.92-0.183,2.459L190.744,416.968z M206.228,413.206
			c0.063-3.359-1.37-8.582-7.31-8.588c-5.34-0.008-7.686,4.91-8.11,8.57L206.228,413.206z"/>
		<path fill="#002271" d="M265.33,409.978c-0.018,13.92-8.486,21.289-18.806,21.277c-10.68-0.014-18.169-8.303-18.155-20.543
			c0.016-12.838,8.006-21.229,18.805-21.215C258.214,389.509,265.343,397.978,265.33,409.978z M233.949,410.599
			c-0.01,8.641,4.66,16.387,12.88,16.396c8.278,0.01,12.969-7.605,12.979-16.785c0.01-8.039-4.18-16.443-12.88-16.455
			C238.289,393.745,233.96,401.72,233.949,410.599z"/>
		<path fill="#002271" d="M271.058,411.063c0.005-3.719-0.111-6.719-0.229-9.479l4.74,0.006l0.234,4.98h0.119
			c2.164-3.537,5.587-5.635,10.327-5.629c7.02,0.01,12.291,5.955,12.28,14.775c-0.012,10.439-6.378,15.592-13.218,15.584
			c-3.84-0.006-7.197-1.689-8.934-4.57h-0.12l-0.02,15.779l-5.22-0.008L271.058,411.063z M276.269,418.812
			c-0.001,0.779,0.118,1.5,0.237,2.16c0.955,3.66,4.132,6.184,7.911,6.189c5.58,0.006,8.826-4.551,8.834-11.209
			c0.007-5.82-3.047-10.805-8.626-10.811c-3.6-0.004-6.964,2.572-7.988,6.529c-0.181,0.66-0.361,1.439-0.362,2.16L276.269,418.812z"
			/>
		<path fill="#002271" d="M307.446,417.108c0.111,7.141,4.667,10.086,9.947,10.092c3.78,0.004,6.061-0.652,8.042-1.49l0.895,3.781
			c-1.86,0.838-5.042,1.793-9.661,1.787c-8.939-0.01-14.271-5.896-14.262-14.656c0.011-8.76,5.179-15.652,13.639-15.643
			c9.479,0.012,11.988,8.354,11.982,13.693c-0.002,1.08-0.122,1.92-0.183,2.461L307.446,417.108z M322.929,413.349
			c0.065-3.361-1.369-8.582-7.309-8.59c-5.34-0.006-7.686,4.91-8.11,8.57L322.929,413.349z"/>
		<path fill="#002271" d="M333.332,410.72c0.004-3.42-0.052-6.359-0.229-9.061l4.62,0.006l0.173,5.701h0.24
			c1.325-3.898,4.508-6.355,8.048-6.352c0.6,0.002,1.02,0.062,1.499,0.184l-0.007,4.979c-0.538-0.119-1.078-0.18-1.799-0.182
			c-3.72-0.004-6.363,2.812-7.088,6.771c-0.121,0.719-0.242,1.561-0.243,2.459l-0.019,15.48l-5.22-0.008L333.332,410.72z"/>
		<path fill="#002271" d="M367.859,430.741l-0.416-3.66h-0.18c-1.622,2.277-4.745,4.314-8.885,4.309
			c-5.88-0.008-8.875-4.15-8.87-8.35c0.009-7.02,6.254-10.854,17.474-10.779l0.001-0.6c0.003-2.4-0.652-6.721-6.593-6.729
			c-2.699-0.002-5.521,0.834-7.562,2.152l-1.194-3.482c2.4-1.557,5.883-2.574,9.542-2.568c8.88,0.01,11.032,6.074,11.025,11.893
			l-0.013,10.859c-0.004,2.521,0.113,4.98,0.471,6.961L367.859,430.741z M367.097,415.921c-5.76-0.127-12.301,0.885-12.308,6.525
			c-0.004,3.42,2.273,5.041,4.974,5.045c3.78,0.004,6.183-2.393,7.025-4.852c0.182-0.539,0.302-1.139,0.303-1.68L367.097,415.921z"
			/>
		<path fill="#002271" d="M385.345,393.384l-0.01,8.34l7.56,0.008l-0.005,4.021l-7.56-0.01l-0.019,15.66
			c-0.005,3.6,1.014,5.641,3.953,5.645c1.38,0.002,2.4-0.178,3.06-0.357l0.235,3.961c-1.02,0.418-2.641,0.717-4.681,0.713
			c-2.46-0.002-4.438-0.783-5.696-2.227c-1.498-1.561-2.035-4.141-2.031-7.561l0.02-15.84l-4.5-0.006l0.005-4.02l4.5,0.006
			l0.009-6.959L385.345,393.384z"/>
		<path fill="#002271" d="M423.177,416.048c-0.013,10.74-7.459,15.412-14.479,15.402c-7.859-0.01-13.912-5.775-13.9-14.955
			c0.012-9.721,6.378-15.412,14.418-15.402C417.555,401.103,423.188,407.169,423.177,416.048z M400.138,416.321
			c-0.008,6.359,3.646,11.164,8.806,11.17c5.04,0.006,8.825-4.73,8.833-11.27c0.006-4.92-2.446-11.162-8.686-11.17
			C402.851,405.044,400.145,410.8,400.138,416.321z"/>
		<path fill="#002271" d="M428.65,410.835c0.004-3.42-0.052-6.359-0.229-9.061l4.62,0.006l0.173,5.701h0.24
			c1.325-3.898,4.508-6.355,8.048-6.35c0.6,0,1.02,0.061,1.499,0.182l-0.007,4.979c-0.538-0.119-1.078-0.18-1.799-0.182
			c-3.72-0.004-6.363,2.812-7.088,6.771c-0.121,0.719-0.242,1.561-0.243,2.459l-0.019,15.48l-5.22-0.006L428.65,410.835z"/>
	</g>
	<path fill="#008EB5" d="M418.814,260.929l-6.563,5.076l4.011-6.651l12.516-24.879c0,0,13.332-33.008,13.339-38.28
		c0.007-5.273-4.011-5.915-7.929-7.199c-6.038-1.98-17.438-3.661-26.628-4.386c-14.597-1.151-48.978-1.752-67.777-1.942
		c-12.407-0.125-31.798,1.357-44.621,2.305c-6.563,0.485-22.45,1.94-38.165,4.295c-19.938,2.987-42.963,6.938-42.963,6.938
		l-13.79-149.095c0,0-4.852-24.932-7.554-29.729c-2.703-4.796-13.797-2.893-13.797-2.893l-29.073,8.593l3.358-2.829L200.38,3.491
		l19.537,162.523c0,0,2.508,9.418,8.735,13.739c6.226,4.322,19.439,2.766,19.439,2.766s21.59-2.247,39.714-4.611
		c19.094-2.49,29.408-3.583,49.935-4.081c26.356-0.639,52.078-0.219,69.026,0.429c26.877,1.027,59.916,2.201,63.748,4.602
		s-30.895,54.196-37.631,63.628S418.814,260.929,418.814,260.929z"/>
	<path fill="#008EB5" d="M4.877,248.266c0,0,63.931-19.067,81.971-23.67c18.042-4.602,37.338-10.298,37.338-10.298l16.09-87.015
		l-3.244,7.595c0,0-6.91,20.789-9.797,28.263c-5.538,14.342-8.797,21.645-14.177,30.18c-6.878,10.909-8.164,12.198-8.164,12.198
		s-1.419,1.827-11.094,6.137c-14.2,6.325-81.056,31.672-81.056,31.672L4.877,248.266z"/>
	<path fill="#002271" d="M201.236,299.108c18.571,5.07,30.061,5.443,45.883,2.106c15.823-3.337,25.775-11.44,31.061-21.755
		c5.286-10.313,6.271-19.174,0.038-31.893c-6.107-12.463-11.239-16.261-22.98-23.515c-5.907-3.65-13.896-7.003-29.75-6.747
		c-15.843,0.255-23.771,11.61-23.771,11.61l4.929-1.528c0,0,2.094-2.912,14.558-4.335c12.465-1.424,19.517,4.052,25.392,11.534
		c2.784,3.547,7.866,12.489,8.599,25.238c0.626,10.898-3.872,18.273-8.697,22.657c-5.891,5.352-11.725,7.352-22.12,7.634
		c-9.443,0.257-16.197-0.697-31.633-3.039c-11.91-1.807-20.182-5.895-36.885-10.03c-18.848-4.667-34.504-8.363-58.771-11.316
		c-18.434-2.244-36.113-3.287-60.683-2.946C16.614,263.058,5.735,264.9,5.735,264.9s3.168,7.924,4.13,12.319
		c0.916,4.186,1.9,11.555,1.9,11.555s22.508-6.94,44.639-9.485c18.335-2.108,27.869-2.622,46.719-1.843
		c16.547,0.685,41.716,3.124,55.751,7.085C174.725,289.005,187.853,295.454,201.236,299.108z"/>
	<path fill="#002271" d="M266.146,223.697c0,0,9.597,1.581,16.902,4.644c9.725,4.076,22.29,12.786,32.086,18.925
		c11.014,6.901,39.614,27.028,51.158,32.517c12.52,5.952,27.147,10.385,41.49,11.703c12.986,1.193,43.123-3.128,43.123-3.128
		s0.617-3.94,2.715-10.907c1.655-5.496,5.395-12.905,5.395-12.905s-32.492,7.497-41.719,7.504
		c-8.532,0.006-29.827-2.428-39.438-4.926c-12.336-3.206-28.723-9.469-37.567-13.793c-7.368-3.603-17.03-9.159-29.961-15.979
		c-14.808-7.81-17.223-9.281-25.435-12.319c-3.613-1.337-7.447-1.918-11.62-2.074C269.649,222.823,266.146,223.697,266.146,223.697z
		"/>
	<path fill="#008EB5" d="M420.263,239.326c0,0,14.724-33.184,13.164-40.831c-1.041-5.111-9.466-6.545-17.679-7.49
		c-10.43-1.198-29.231-2.405-42.448-2.867c-8.428-0.294-23.253-0.328-39.111-0.105c-14.445,0.204-29.884,1.407-39.504,2.04
		c-9.448,0.621-30.725,2.846-51.713,6.119c-20.294,3.165-40.319,6.573-49.117,8.302c-17.899,3.516-54.071,11.727-74.91,17.204
		C98.106,227.177,4.085,253.005,4.085,253.005s-0.653,1.49-0.325,3.355c0.225,1.277,0.458,1.748,0.458,1.748
		s68.02-18.927,75.18-20.183c11.794-2.069,73.998-15.884,91.789-17.888c17.79-2.004,72.765-10.225,93.207-10.349
		c22.029-0.134,32.81-0.524,46.254,0.043c17.949,0.756,35.224,1.038,55.838,2.723c11.568,0.944,32.358,3.167,41.758,8.532
		C415.391,225.066,420.263,239.326,420.263,239.326z"/>
</g>
<g id="Derrick_copy">
	<path fill="#008EB5" d="M151.454,201.667c0,0,17.269-10.146,24.464-14.504c7.196-4.356,23.023-16.626,23.023-16.626
		s-10.268-7.329-16.764-11.087c-7.881-4.559-33.536-14.976-33.536-14.976s20.942,13.912,25.971,17.525
		c5.028,3.613,10.291,8.868,10.291,8.868s-3.857,5.278-11.271,10.918c-7.56,5.751-25.359,19.02-25.359,19.02L151.454,201.667z"/>
	<path fill="#008EB5" d="M153.669,163.415c0,0,15.542-9.132,22.018-13.054c6.477-3.92,20.721-14.963,20.721-14.963
		s-9.241-6.596-15.087-9.978c-7.093-4.103-30.183-13.479-30.183-13.479s18.848,12.521,23.374,15.773
		c4.525,3.251,9.261,7.981,9.261,7.981s-3.471,4.75-10.144,9.827c-6.804,5.176-22.823,17.117-22.823,17.117L153.669,163.415z"/>
	<path fill="#008EB5" d="M155.663,128.318c0,0,13.988-8.219,19.816-11.749c5.829-3.528,18.648-13.467,18.648-13.467
		s-8.316-5.936-13.578-8.98c-6.384-3.692-27.165-12.13-27.165-12.13s16.963,11.269,21.037,14.196
		c4.073,2.926,8.335,7.183,8.335,7.183s-3.124,4.275-9.13,8.844c-6.124,4.658-20.541,15.406-20.541,15.406L155.663,128.318z"/>
	<path fill="#008EB5" d="M157.458,96.35c0,0,12.589-7.397,17.834-10.574c5.246-3.175,16.784-12.12,16.784-12.12
		s-7.485-5.342-12.22-8.083c-5.746-3.323-24.448-10.917-24.448-10.917s15.267,10.142,18.933,12.776
		c3.666,2.634,7.502,6.465,7.502,6.465s-2.812,3.848-8.217,7.959c-5.511,4.192-18.487,13.865-18.487,13.865L157.458,96.35z"/>
	<path fill="#008EB5" d="M159.072,66.44c0,0,11.33-6.658,16.051-9.517c4.721-2.858,15.105-10.908,15.105-10.908
		s-6.737-4.808-10.999-7.274c-5.171-2.991-22.003-9.826-22.003-9.826s13.74,9.128,17.04,11.499c3.299,2.37,6.751,5.818,6.751,5.818
		s-2.53,3.463-7.395,7.164c-4.96,3.773-16.638,12.479-16.638,12.479L159.072,66.44z"/>
</g>
</svg>
