<?xml version="1.0" encoding="UTF-8" standalone="no"?>
<!DOCTYPE svg PUBLIC "-//W3C//DTD SVG 1.1//EN"
 "http://www.w3.org/Graphics/SVG/1.1/DTD/svg11.dtd">
<!-- Generated by graphviz version 5.0.0 (0)
 -->
<!-- Pages: 1 -->
<svg width="1056pt" height="290pt"
 viewBox="0.00 0.00 1056.33 290.00" xmlns="http://www.w3.org/2000/svg" xmlns:xlink="http://www.w3.org/1999/xlink">
<g id="graph0" class="graph" transform="scale(1 1) rotate(0) translate(4 286)">
<polygon fill="white" stroke="transparent" points="-4,4 -4,-286 1052.33,-286 1052.33,4 -4,4"/>
<!-- DefinedTerm -->
<g id="node1" class="node">
<title>DefinedTerm</title>
<ellipse fill="none" stroke="#558855" cx="922.24" cy="-264" rx="70.39" ry="18"/>
<text text-anchor="middle" x="922.24" y="-260.3" font-family="Times,serif" font-size="14.00">DefinedTerm</text>
</g>
<!-- purl.org/dc/dcmitype/Image -->
<g id="node2" class="node">
<title>purl.org/dc/dcmitype/Image</title>
<ellipse fill="none" stroke="#558855" cx="468.97" cy="-195" rx="139.98" ry="18"/>
<text text-anchor="middle" x="468.97" y="-191.3" font-family="Times,serif" font-size="14.00">purl.org/dc/dcmitype/Image</text>
</g>
<!-- purl.org/dc/dcmitype/Image&#45;&gt;DefinedTerm -->
<g id="edge1" class="edge">
<title>purl.org/dc/dcmitype/Image&#45;&gt;DefinedTerm</title>
<path fill="none" stroke="black" d="M555.57,-209.22C584.91,-214.01 617.95,-219.33 648.15,-224 716.81,-234.61 795.28,-246.03 850.44,-253.94"/>
<polygon fill="black" stroke="black" points="850.07,-257.43 860.46,-255.38 851.06,-250.5 850.07,-257.43"/>
<text text-anchor="middle" x="713.15" y="-246.8" font-family="Times,serif" font-size="14.00">type</text>
</g>
<!-- &quot;http//purl.org/dc/te...&quot; -->
<g id="node3" class="node">
<title>&quot;http//purl.org/dc/te...&quot;</title>
<ellipse fill="none" stroke="black" stroke-width="0" cx="922.24" cy="-210" rx="116.98" ry="18"/>
<text text-anchor="middle" x="922.24" y="-206.3" font-family="Times,serif" font-size="14.00">&quot;http//purl.org/dc/te...&quot;</text>
</g>
<!-- purl.org/dc/dcmitype/Image&#45;&gt;&quot;http//purl.org/dc/te...&quot; -->
<g id="edge2" class="edge">
<title>purl.org/dc/dcmitype/Image&#45;&gt;&quot;http//purl.org/dc/te...&quot;</title>
<path fill="none" stroke="black" d="M604.45,-199.47C665.59,-201.5 737.47,-203.89 797.29,-205.88"/>
<polygon fill="black" stroke="black" points="797.44,-209.39 807.55,-206.22 797.67,-202.39 797.44,-209.39"/>
<text text-anchor="middle" x="713.15" y="-208.8" font-family="Times,serif" font-size="14.00">inDefinedTermSet</text>
</g>
<!-- &quot;Image&quot; -->
<g id="node4" class="node">
<title>&quot;Image&quot;</title>
<ellipse fill="none" stroke="black" stroke-width="0" cx="922.24" cy="-145" rx="48.19" ry="18"/>
<text text-anchor="middle" x="922.24" y="-141.3" font-family="Times,serif" font-size="14.00">&quot;Image&quot;</text>
</g>
<!-- purl.org/dc/dcmitype/Image&#45;&gt;&quot;Image&quot; -->
<g id="edge3" class="edge">
<title>purl.org/dc/dcmitype/Image&#45;&gt;&quot;Image&quot;</title>
<path fill="none" stroke="black" d="M575.49,-183.31C666.23,-173.25 793.56,-159.15 865.67,-151.16"/>
<polygon fill="black" stroke="black" points="866.35,-154.6 875.9,-150.02 865.58,-147.65 866.35,-154.6"/>
<text text-anchor="middle" x="713.15" y="-177.8" font-family="Times,serif" font-size="14.00">name</text>
</g>
<!-- purl.org/dc/dcmitype/Image&#45;&gt;&quot;Image&quot; -->
<g id="edge4" class="edge">
<title>purl.org/dc/dcmitype/Image&#45;&gt;&quot;Image&quot;</title>
<path fill="none" stroke="black" d="M589.43,-185.87C603.82,-181.65 617.78,-175.87 630.15,-168 642.02,-160.46 635.7,-148.52 648.15,-142 699.33,-115.18 720.38,-141.39 778.15,-142 806.45,-142.3 837.89,-142.92 864.07,-143.53"/>
<polygon fill="black" stroke="black" points="864.12,-147.03 874.2,-143.77 864.29,-140.03 864.12,-147.03"/>
<text text-anchor="middle" x="713.15" y="-145.8" font-family="Times,serif" font-size="14.00">termCode</text>
</g>
<!-- Map -->
<g id="node5" class="node">
<title>Map</title>
<ellipse fill="none" stroke="#558855" cx="468.97" cy="-141" rx="31.4" ry="18"/>
<text text-anchor="middle" x="468.97" y="-137.3" font-family="Times,serif" font-size="14.00">Map</text>
</g>
<!-- example.org/id/XYZ -->
<g id="node6" class="node">
<title>example.org/id/XYZ</title>
<ellipse fill="none" stroke="black" cx="101.39" cy="-114" rx="101.28" ry="18"/>
<text text-anchor="middle" x="101.39" y="-110.3" font-family="Times,serif" font-size="14.00">example.org/id/XYZ</text>
</g>
<!-- example.org/id/XYZ&#45;&gt;purl.org/dc/dcmitype/Image -->
<g id="edge7" class="edge">
<title>example.org/id/XYZ&#45;&gt;purl.org/dc/dcmitype/Image</title>
<path fill="none" stroke="black" d="M157.46,-129.08C177.39,-134.49 200.08,-140.59 220.78,-146 259.37,-156.09 268.75,-159.79 307.78,-168 327.26,-172.1 348.17,-175.99 368.25,-179.47"/>
<polygon fill="black" stroke="black" points="367.89,-182.96 378.34,-181.2 369.08,-176.06 367.89,-182.96"/>
<text text-anchor="middle" x="255.28" y="-166.8" font-family="Times,serif" font-size="14.00">keywords</text>
</g>
<!-- example.org/id/XYZ&#45;&gt;Map -->
<g id="edge5" class="edge">
<title>example.org/id/XYZ&#45;&gt;Map</title>
<path fill="none" stroke="black" d="M195.59,-120.88C270.51,-126.42 372.12,-133.92 427.64,-138.02"/>
<polygon fill="black" stroke="black" points="427.55,-141.52 437.78,-138.77 428.06,-134.54 427.55,-141.52"/>
<text text-anchor="middle" x="255.28" y="-130.8" font-family="Times,serif" font-size="14.00">type</text>
</g>
<!-- &quot;Region X&quot; -->
<g id="node7" class="node">
<title>&quot;Region X&quot;</title>
<ellipse fill="none" stroke="black" stroke-width="0" cx="468.97" cy="-87" rx="61.19" ry="18"/>
<text text-anchor="middle" x="468.97" y="-83.3" font-family="Times,serif" font-size="14.00">&quot;Region X&quot;</text>
</g>
<!-- example.org/id/XYZ&#45;&gt;&quot;Region X&quot; -->
<g id="edge6" class="edge">
<title>example.org/id/XYZ&#45;&gt;&quot;Region X&quot;</title>
<path fill="none" stroke="black" d="M192.87,-106.21C202.3,-105.44 211.73,-104.69 220.78,-104 280.84,-99.4 349.16,-94.74 398.73,-91.47"/>
<polygon fill="black" stroke="black" points="399.27,-94.94 409.02,-90.79 398.81,-87.96 399.27,-94.94"/>
<text text-anchor="middle" x="255.28" y="-107.8" font-family="Times,serif" font-size="14.00">keywords</text>
</g>
<!-- www.wikidata.org/wiki/Q350134 -->
<g id="node8" class="node">
<title>www.wikidata.org/wiki/Q350134</title>
<ellipse fill="none" stroke="#558855" cx="468.97" cy="-33" rx="161.37" ry="18"/>
<text text-anchor="middle" x="468.97" y="-29.3" font-family="Times,serif" font-size="14.00">www.wikidata.org/wiki/Q350134</text>
</g>
<!-- example.org/id/XYZ&#45;&gt;www.wikidata.org/wiki/Q350134 -->
<g id="edge8" class="edge">
<title>example.org/id/XYZ&#45;&gt;www.wikidata.org/wiki/Q350134</title>
<path fill="none" stroke="black" d="M153.8,-98.59C174.54,-92.54 198.73,-85.7 220.78,-80 259.2,-70.08 268.87,-67.75 307.78,-60 326.27,-56.32 346.03,-52.72 365.13,-49.41"/>
<polygon fill="black" stroke="black" points="365.78,-52.85 375.05,-47.71 364.6,-45.95 365.78,-52.85"/>
<text text-anchor="middle" x="255.28" y="-83.8" font-family="Times,serif" font-size="14.00">keywords</text>
</g>
<!-- URL -->
<g id="node9" class="node">
<title>URL</title>
<ellipse fill="none" stroke="#558855" cx="922.24" cy="-72" rx="31.4" ry="18"/>
<text text-anchor="middle" x="922.24" y="-68.3" font-family="Times,serif" font-size="14.00">URL</text>
</g>
<!-- www.wikidata.org/wiki/Q350134&#45;&gt;URL -->
<g id="edge9" class="edge">
<title>www.wikidata.org/wiki/Q350134&#45;&gt;URL</title>
<path fill="none" stroke="black" d="M596.87,-43.97C692.49,-52.23 817.58,-63.04 880.84,-68.51"/>
<polygon fill="black" stroke="black" points="880.92,-72.03 891.18,-69.4 881.52,-65.05 880.92,-72.03"/>
<text text-anchor="middle" x="713.15" y="-62.8" font-family="Times,serif" font-size="14.00">type</text>
</g>
<!-- &quot;https//www.wikidata....&quot; -->
<g id="node10" class="node">
<title>&quot;https//www.wikidata....&quot;</title>
<ellipse fill="none" stroke="black" stroke-width="0" cx="922.24" cy="-18" rx="126.18" ry="18"/>
<text text-anchor="middle" x="922.24" y="-14.3" font-family="Times,serif" font-size="14.00">&quot;https//www.wikidata....&quot;</text>
</g>
<!-- www.wikidata.org/wiki/Q350134&#45;&gt;&quot;https//www.wikidata....&quot; -->
<g id="edge10" class="edge">
<title>www.wikidata.org/wiki/Q350134&#45;&gt;&quot;https//www.wikidata....&quot;</title>
<path fill="none" stroke="black" d="M623.69,-27.89C677.33,-26.11 737.03,-24.12 788.79,-22.4"/>
<polygon fill="black" stroke="black" points="789.15,-25.89 799.03,-22.06 788.92,-18.9 789.15,-25.89"/>
<text text-anchor="middle" x="713.15" y="-29.8" font-family="Times,serif" font-size="14.00">url</text>
</g>
</g>
</svg>
