<svg xmlns="http://www.w3.org/2000/svg" xmlns:xlink="http://www.w3.org/1999/xlink" width="811" height="1064" viewbox="0 0 811 1064"><path transform="translate(423.6739146190578 405.5) translate(-369.6739146190578 -98) rotate(-42.05473179620837)" d="M 59 0 L 294.58632672097747 0" fill="none" stroke="#000000" stroke-width="5"></path><polygon transform="translate(423.6739146190578 405.5) translate(-369.6739146190578 -98) rotate(-42.05473179620837) translate(319.44847733872575 0) rotate(0)" points="-24.8621506177483,0 -27.62461179749811,9.20820393249937 0,0 -27.62461179749811,-9.20820393249937" fill="undefined" stroke="none" stroke-width="5"></polygon><path transform="translate(423.6739146190578 405.5) translate(-369.6739146190578 -98) rotate(-13.796111682338225)" d="M 59 0 L 205.48539127607873 0" fill="none" stroke="#000000" stroke-width="5"></path><polygon transform="translate(423.6739146190578 405.5) translate(-369.6739146190578 -98) rotate(-13.796111682338225) translate(230.34754189382704 0) rotate(0)" points="-24.8621506177483,0 -27.62461179749811,9.20820393249937 0,0 -27.62461179749811,-9.20820393249937" fill="undefined" stroke="none" stroke-width="5"></polygon><path transform="translate(423.6739146190578 405.5) translate(-369.6739146190578 -98) rotate(22.34423223179152)" d="M 59 0 L 219.94905720711122 0" fill="none" stroke="#000000" stroke-width="5"></path><polygon transform="translate(423.6739146190578 405.5) translate(-369.6739146190578 -98) rotate(22.34423223179152) translate(244.81120782485954 0) rotate(0)" points="-24.8621506177483,0 -27.62461179749811,9.20820393249937 0,0 -27.62461179749811,-9.20820393249937" fill="undefined" stroke="none" stroke-width="5"></polygon><path transform="translate(423.6739146190578 405.5) translate(-369.6739146190578 -98) rotate(48.97023020574985)" d="M 59 0 L 344.1971694232684 0" fill="none" stroke="#000000" stroke-width="5"></path><polygon transform="translate(423.6739146190578 405.5) translate(-369.6739146190578 -98) rotate(48.97023020574985) translate(369.0593200410167 0) rotate(0)" points="-24.8621506177483,0 -27.62461179749811,9.20820393249937 0,0 -27.62461179749811,-9.20820393249937" fill="undefined" stroke="none" stroke-width="5"></polygon><path transform="translate(423.6739146190578 405.5) translate(-88.67391461905783 17.5) rotate(0)" d="M 59 0 L 103.81176400130954 0" fill="none" stroke="#000000" stroke-width="5"></path><polygon transform="translate(423.6739146190578 405.5) translate(-88.67391461905783 17.5) rotate(0) translate(128.67391461905783 0) rotate(0)" points="-24.8621506177483,0 -27.62461179749811,9.20820393249937 0,0 -27.62461179749811,-9.20820393249937" fill="undefined" stroke="none" stroke-width="5"></polygon><path transform="translate(423.6739146190578 405.5) translate(99 17.5) rotate(-21.78029829367672)" d="M 59 0 L 168.12644039382906 0" fill="none" stroke="#000000" stroke-width="5"></path><polygon transform="translate(423.6739146190578 405.5) translate(99 17.5) rotate(-21.78029829367672) translate(192.98859101157734 0) rotate(0)" points="-24.8621506177483,0 -27.62461179749811,9.20820393249937 0,0 -27.62461179749811,-9.20820393249937" fill="undefined" stroke="none" stroke-width="5"></polygon><path transform="translate(423.6739146190578 405.5) translate(99 17.5) rotate(25.177535429634784)" d="M 59 0 L 174.70312160572723 0" fill="none" stroke="#000000" stroke-width="5"></path><polygon transform="translate(423.6739146190578 405.5) translate(99 17.5) rotate(25.177535429634784) translate(199.56527222347552 0) rotate(0)" points="-24.8621506177483,0 -27.62461179749811,9.20820393249937 0,0 -27.62461179749811,-9.20820393249937" fill="undefined" stroke="none" stroke-width="5"></polygon><path transform="translate(423.6739146190578 405.5) translate(-88.67391461905783 224.91451109229752) rotate(51.849296102115936)" d="M 59 0 L 219.94905720711117 0" fill="none" stroke="#000000" stroke-width="5"></path><polygon transform="translate(423.6739146190578 405.5) translate(-88.67391461905783 224.91451109229752) rotate(51.849296102115936) translate(244.81120782485948 0) rotate(0)" points="-24.8621506177483,0 -27.62461179749811,9.20820393249937 0,0 -27.62461179749811,-9.20820393249937" fill="undefined" stroke="none" stroke-width="5"></polygon><path transform="translate(423.6739146190578 405.5) translate(99 463.8282021431843) rotate(31.009897123749408)" d="M 59 0 L 189.15840550718963 0" fill="none" stroke="#000000" stroke-width="5"></path><polygon transform="translate(423.6739146190578 405.5) translate(99 463.8282021431843) rotate(31.009897123749408) translate(214.0205561249379 0) rotate(0)" points="-24.8621506177483,0 -27.62461179749811,9.20820393249937 0,0 -27.62461179749811,-9.20820393249937" fill="undefined" stroke="none" stroke-width="5"></polygon><path transform="translate(423.6739146190578 405.5) translate(99 463.8282021431843) rotate(-31.009897123749408)" d="M 59 0 L 189.15840550718963 0" fill="none" stroke="#000000" stroke-width="5"></path><polygon transform="translate(423.6739146190578 405.5) translate(99 463.8282021431843) rotate(-31.009897123749408) translate(214.0205561249379 0) rotate(0)" points="-24.8621506177483,0 -27.62461179749811,9.20820393249937 0,0 -27.62461179749811,-9.20820393249937" fill="undefined" stroke="none" stroke-width="5"></polygon><path transform="translate(423.6739146190578 405.5) translate(99 463.8282021431843) rotate(0)" d="M 59 0 L 150.13784938225172 0" fill="none" stroke="#000000" stroke-width="5"></path><polygon transform="translate(423.6739146190578 405.5) translate(99 463.8282021431843) rotate(0) translate(175 0) rotate(0)" points="-24.8621506177483,0 -27.62461179749811,9.20820393249937 0,0 -27.62461179749811,-9.20820393249937" fill="undefined" stroke="none" stroke-width="5"></polygon><circle transform="translate(423.6739146190578 405.5)" cx="-369.6739146190578" cy="-98" r="52" fill="#a4dd00" stroke="#000000" strokewidth="4"></circle><text xml:space="preserve" transform="translate(423.6739146190578 405.5) translate(-369.6739146190578 -98) translate(0 0)" x="0" y="14" font-family="sans-serif" font-size="50" font-weight="normal" text-anchor="middle" fill="#000000">Resource</text><circle transform="translate(423.6739146190578 405.5)" cx="-88.67391461905783" cy="-351.5" r="52" fill="#73d8ff" stroke="#000000" strokewidth="4"></circle><text xml:space="preserve" transform="translate(423.6739146190578 405.5) translate(-88.67391461905783 -351.5) translate(0 0)" x="0" y="14" font-family="sans-serif" font-size="50" font-weight="normal" text-anchor="middle" fill="#000000">@id</text><circle transform="translate(423.6739146190578 405.5)" cx="-88.67391461905783" cy="-167" r="52" fill="#73d8ff" stroke="#000000" strokewidth="4"></circle><text xml:space="preserve" transform="translate(423.6739146190578 405.5) translate(-88.67391461905783 -167) translate(0 0)" x="0" y="14" font-family="sans-serif" font-size="50" font-weight="normal" text-anchor="middle" fill="#000000">description</text><circle transform="translate(423.6739146190578 405.5)" cx="-88.67391461905783" cy="17.5" r="52" fill="#73d8ff" stroke="#000000" strokewidth="4"></circle><text xml:space="preserve" transform="translate(423.6739146190578 405.5) translate(-88.67391461905783 17.5) translate(0 0)" x="0" y="14" font-family="sans-serif" font-size="50" font-weight="normal" text-anchor="middle" fill="#000000">distribution</text><circle transform="translate(423.6739146190578 405.5)" cx="-88.67391461905783" cy="224.91451109229752" r="52" fill="#73d8ff" stroke="#000000" strokewidth="4"></circle><text xml:space="preserve" transform="translate(423.6739146190578 405.5) translate(-88.67391461905783 224.91451109229752) translate(0 0)" x="0" y="14" font-family="sans-serif" font-size="50" font-weight="normal" text-anchor="middle" fill="#000000">provider</text><circle transform="translate(423.6739146190578 405.5)" cx="99" cy="17.5" r="52" fill="#a4dd00" stroke="#000000" strokewidth="4"></circle><text xml:space="preserve" transform="translate(423.6739146190578 405.5) translate(99 17.5) translate(0 0)" x="0" y="14" font-family="sans-serif" font-size="50" font-weight="normal" text-anchor="middle" fill="#000000">DataDownload</text><circle transform="translate(423.6739146190578 405.5)" cx="333" cy="-76" r="52" fill="#73d8ff" stroke="#000000" strokewidth="4"></circle><text xml:space="preserve" transform="translate(423.6739146190578 405.5) translate(333 -76) translate(0 0)" x="0" y="14" font-family="sans-serif" font-size="50" font-weight="normal" text-anchor="middle" fill="#000000">contentURL</text><circle transform="translate(423.6739146190578 405.5)" cx="333" cy="127.5" r="52" fill="#73d8ff" stroke="#000000" strokewidth="4"></circle><text xml:space="preserve" transform="translate(423.6739146190578 405.5) translate(333 127.5) translate(0 0)" x="0" y="14" font-family="sans-serif" font-size="50" font-weight="normal" text-anchor="middle" fill="#000000">encodingFormat</text><circle transform="translate(423.6739146190578 405.5)" cx="99" cy="463.8282021431843" r="52" fill="#a4dd00" stroke="#000000" strokewidth="4"></circle><text xml:space="preserve" transform="translate(423.6739146190578 405.5) translate(99 463.8282021431843) translate(0 0)" x="0" y="14" font-family="sans-serif" font-size="50" font-weight="normal" text-anchor="middle" fill="#000000">Organization</text><circle transform="translate(423.6739146190578 405.5)" cx="333" cy="604.4846064295529" r="52" fill="#73d8ff" stroke="#000000" strokewidth="4"></circle><text xml:space="preserve" transform="translate(423.6739146190578 405.5) translate(333 604.4846064295529) translate(0 0)" x="0" y="14" font-family="sans-serif" font-size="50" font-weight="normal" text-anchor="middle" fill="#000000">url</text><circle transform="translate(423.6739146190578 405.5)" cx="333" cy="323.1717978568157" r="52" fill="#73d8ff" stroke="#000000" strokewidth="4"></circle><text xml:space="preserve" transform="translate(423.6739146190578 405.5) translate(333 323.1717978568157) translate(0 0)" x="0" y="14" font-family="sans-serif" font-size="50" font-weight="normal" text-anchor="middle" fill="#000000">leagaName</text><circle transform="translate(423.6739146190578 405.5)" cx="333" cy="463.8282021431843" r="52" fill="#73d8ff" stroke="#000000" strokewidth="4"></circle><text xml:space="preserve" transform="translate(423.6739146190578 405.5) translate(333 463.8282021431843) translate(0 0)" x="0" y="14" font-family="sans-serif" font-size="50" font-weight="normal" text-anchor="middle" fill="#000000">description</text></svg>