<?xml version="1.0" encoding="UTF-8" standalone="no"?>
<!DOCTYPE svg PUBLIC "-//W3C//DTD SVG 1.1//EN"
 "http://www.w3.org/Graphics/SVG/1.1/DTD/svg11.dtd">
<!-- Generated by graphviz version 2.43.0 (0)
 -->
<!-- Title: %3 Pages: 1 -->
<svg width="1920pt" height="458pt"
 viewBox="0.00 0.00 1919.99 458.00" xmlns="http://www.w3.org/2000/svg" xmlns:xlink="http://www.w3.org/1999/xlink">
<g id="graph0" class="graph" transform="scale(1 1) rotate(0) translate(4 454)">
<title>%3</title>
<polygon fill="white" stroke="transparent" points="-4,4 -4,-454 1915.99,-454 1915.99,4 -4,4"/>
<text text-anchor="middle" x="955.99" y="-22.8" font-family="Times,serif" font-size="14.00">Model:</text>
<text text-anchor="middle" x="955.99" y="-7.8" font-family="Times,serif" font-size="14.00">https://iode.org/</text>
<!-- Rfile:///home/fils/src/git/odis&#45;arch/schema/prov/graphs/DataSetURI -->
<g id="node1" class="node">
<title>Rfile:///home/fils/src/git/odis&#45;arch/schema/prov/graphs/DataSetURI</title>
<ellipse fill="none" stroke="blue" cx="276.23" cy="-88" rx="244.26" ry="18"/>
<text text-anchor="middle" x="276.23" y="-84.3" font-family="Times,serif" font-size="14.00">file:///home/fils/src/git/odis&#45;arch/schema/prov/graphs/DataSetURI</text>
</g>
<!-- Rschema:Dataset -->
<g id="node2" class="node">
<title>Rschema:Dataset</title>
<ellipse fill="none" stroke="blue" cx="1115.78" cy="-88" rx="66.09" ry="18"/>
<text text-anchor="middle" x="1115.78" y="-84.3" font-family="Times,serif" font-size="14.00">schema:Dataset</text>
</g>
<!-- Rfile:///home/fils/src/git/odis&#45;arch/schema/prov/graphs/DataSetURI&#45;&gt;Rschema:Dataset -->
<g id="edge1" class="edge">
<title>Rfile:///home/fils/src/git/odis&#45;arch/schema/prov/graphs/DataSetURI&#45;&gt;Rschema:Dataset</title>
<path fill="none" stroke="black" stroke-dasharray="1,5" d="M520.61,-88C696.66,-88 923.18,-88 1039.09,-88"/>
<polygon fill="black" stroke="black" points="1039.27,-91.5 1049.27,-88 1039.27,-84.5 1039.27,-91.5"/>
<text text-anchor="middle" x="717.45" y="-91.8" font-family="Times,serif" font-size="14.00">rdfs:type</text>
</g>
<!-- Rfile:///home/fils/src/git/odis&#45;arch/schema/prov/graphs/IDHERE -->
<g id="node3" class="node">
<title>Rfile:///home/fils/src/git/odis&#45;arch/schema/prov/graphs/IDHERE</title>
<ellipse fill="none" stroke="blue" cx="1115.78" cy="-216" rx="233.16" ry="18"/>
<text text-anchor="middle" x="1115.78" y="-212.3" font-family="Times,serif" font-size="14.00">file:///home/fils/src/git/odis&#45;arch/schema/prov/graphs/IDHERE</text>
</g>
<!-- L2019&#45;10&#45;23T14:38:00Z|Datatype: XMLSchema#dateTime -->
<g id="node4" class="node">
<title>L2019&#45;10&#45;23T14:38:00Z|Datatype: XMLSchema#dateTime</title>
<polygon fill="none" stroke="black" points="1670.55,-223 1670.55,-269 1876.55,-269 1876.55,-223 1670.55,-223"/>
<text text-anchor="middle" x="1773.55" y="-253.8" font-family="Times,serif" font-size="14.00">2019&#45;10&#45;23T14:38:00Z</text>
<polyline fill="none" stroke="black" points="1670.55,-246 1876.55,-246 "/>
<text text-anchor="middle" x="1773.55" y="-230.8" font-family="Times,serif" font-size="14.00">Datatype: XMLSchema#dateTime</text>
</g>
<!-- Rfile:///home/fils/src/git/odis&#45;arch/schema/prov/graphs/IDHERE&#45;&gt;L2019&#45;10&#45;23T14:38:00Z|Datatype: XMLSchema#dateTime -->
<g id="edge2" class="edge">
<title>Rfile:///home/fils/src/git/odis&#45;arch/schema/prov/graphs/IDHERE&#45;&gt;L2019&#45;10&#45;23T14:38:00Z|Datatype: XMLSchema#dateTime</title>
<path fill="none" stroke="black" stroke-dasharray="1,5" d="M1317.1,-225.16C1429.75,-230.32 1566.22,-236.56 1660.23,-240.86"/>
<polygon fill="black" stroke="black" points="1660.18,-244.36 1670.33,-241.32 1660.5,-237.37 1660.18,-244.36"/>
<text text-anchor="middle" x="1492.11" y="-242.8" font-family="Times,serif" font-size="14.00">http://www.w3.org/ns/prov#generatedAtTime</text>
</g>
<!-- Rhttps://voc.gleaner.io/id/tool/gleaner -->
<g id="node5" class="node">
<title>Rhttps://voc.gleaner.io/id/tool/gleaner</title>
<ellipse fill="none" stroke="blue" cx="1773.55" cy="-186" rx="138.38" ry="18"/>
<text text-anchor="middle" x="1773.55" y="-182.3" font-family="Times,serif" font-size="14.00">https://voc.gleaner.io/id/tool/gleaner</text>
</g>
<!-- Rfile:///home/fils/src/git/odis&#45;arch/schema/prov/graphs/IDHERE&#45;&gt;Rhttps://voc.gleaner.io/id/tool/gleaner -->
<g id="edge3" class="edge">
<title>Rfile:///home/fils/src/git/odis&#45;arch/schema/prov/graphs/IDHERE&#45;&gt;Rhttps://voc.gleaner.io/id/tool/gleaner</title>
<path fill="none" stroke="black" stroke-dasharray="1,5" d="M1317.1,-206.84C1419.11,-202.17 1540.65,-196.61 1632.5,-192.41"/>
<polygon fill="black" stroke="black" points="1632.88,-195.89 1642.71,-191.94 1632.56,-188.9 1632.88,-195.89"/>
<text text-anchor="middle" x="1492.11" y="-207.8" font-family="Times,serif" font-size="14.00">http://www.w3.org/ns/prov#wasAttributedTo</text>
</g>
<!-- Rfile:///home/fils/src/git/odis&#45;arch/schema/prov/graphs/URIforprovondataset -->
<g id="node6" class="node">
<title>Rfile:///home/fils/src/git/odis&#45;arch/schema/prov/graphs/URIforprovondataset</title>
<ellipse fill="none" stroke="blue" cx="276.23" cy="-186" rx="276.45" ry="18"/>
<text text-anchor="middle" x="276.23" y="-182.3" font-family="Times,serif" font-size="14.00">file:///home/fils/src/git/odis&#45;arch/schema/prov/graphs/URIforprovondataset</text>
</g>
<!-- Rfile:///home/fils/src/git/odis&#45;arch/schema/prov/graphs/URIforprovondataset&#45;&gt;Rfile:///home/fils/src/git/odis&#45;arch/schema/prov/graphs/IDHERE -->
<g id="edge4" class="edge">
<title>Rfile:///home/fils/src/git/odis&#45;arch/schema/prov/graphs/URIforprovondataset&#45;&gt;Rfile:///home/fils/src/git/odis&#45;arch/schema/prov/graphs/IDHERE</title>
<path fill="none" stroke="black" stroke-dasharray="1,5" d="M482.66,-197.96C512.11,-199.46 542.05,-200.86 570.45,-202 671.6,-206.06 783.37,-209.17 879.18,-211.42"/>
<polygon fill="black" stroke="black" points="879.21,-214.92 889.29,-211.66 879.38,-207.92 879.21,-214.92"/>
<text text-anchor="middle" x="717.45" y="-214.8" font-family="Times,serif" font-size="14.00">http://www.w3.org/ns/prov#wasAttributedTo</text>
</g>
<!-- Rfile:///home/fils/src/git/odis&#45;arch/schema/prov/graphs/URIforprovondataset&#45;&gt;Rfile:///home/fils/src/git/odis&#45;arch/schema/prov/graphs/IDHERE -->
<g id="edge5" class="edge">
<title>Rfile:///home/fils/src/git/odis&#45;arch/schema/prov/graphs/URIforprovondataset&#45;&gt;Rfile:///home/fils/src/git/odis&#45;arch/schema/prov/graphs/IDHERE</title>
<path fill="none" stroke="black" stroke-dasharray="1,5" d="M516.74,-177.14C623.31,-175.16 750.26,-175.51 864.45,-183 910.51,-186.02 961.03,-192.14 1004.55,-198.3"/>
<polygon fill="black" stroke="black" points="1004.19,-201.78 1014.59,-199.74 1005.19,-194.85 1004.19,-201.78"/>
<text text-anchor="middle" x="717.45" y="-186.8" font-family="Times,serif" font-size="14.00">http://www.w3.org/ns/prov#wasDerivedFrom</text>
</g>
<!-- LdateDone|Datatype: XMLSchema#dateTime -->
<g id="node7" class="node">
<title>LdateDone|Datatype: XMLSchema#dateTime</title>
<polygon fill="none" stroke="black" points="1012.78,-125 1012.78,-171 1218.78,-171 1218.78,-125 1012.78,-125"/>
<text text-anchor="middle" x="1115.78" y="-155.8" font-family="Times,serif" font-size="14.00">dateDone</text>
<polyline fill="none" stroke="black" points="1012.78,-148 1218.78,-148 "/>
<text text-anchor="middle" x="1115.78" y="-132.8" font-family="Times,serif" font-size="14.00">Datatype: XMLSchema#dateTime</text>
</g>
<!-- Rfile:///home/fils/src/git/odis&#45;arch/schema/prov/graphs/URIforprovondataset&#45;&gt;LdateDone|Datatype: XMLSchema#dateTime -->
<g id="edge6" class="edge">
<title>Rfile:///home/fils/src/git/odis&#45;arch/schema/prov/graphs/URIforprovondataset&#45;&gt;LdateDone|Datatype: XMLSchema#dateTime</title>
<path fill="none" stroke="black" stroke-dasharray="1,5" d="M416.52,-170.49C465.16,-165.66 520.16,-160.86 570.45,-158 719.72,-149.51 892.36,-147.7 1002.49,-147.55"/>
<polygon fill="black" stroke="black" points="1002.62,-151.05 1012.61,-147.54 1002.61,-144.05 1002.62,-151.05"/>
<text text-anchor="middle" x="717.45" y="-161.8" font-family="Times,serif" font-size="14.00">http://www.w3.org/ns/prov#wasGeneratedAtTime</text>
</g>
<!-- Rhttps://voc.gleaner.io/id/nanopub/XID -->
<g id="node8" class="node">
<title>Rhttps://voc.gleaner.io/id/nanopub/XID</title>
<ellipse fill="none" stroke="blue" cx="276.23" cy="-351" rx="144.87" ry="18"/>
<text text-anchor="middle" x="276.23" y="-347.3" font-family="Times,serif" font-size="14.00">https://voc.gleaner.io/id/nanopub/XID</text>
</g>
<!-- Rhttps://voc.gleaner.io/id/nanopub/XID#assertion -->
<g id="node9" class="node">
<title>Rhttps://voc.gleaner.io/id/nanopub/XID#assertion</title>
<ellipse fill="none" stroke="blue" cx="1115.78" cy="-432" rx="180.87" ry="18"/>
<text text-anchor="middle" x="1115.78" y="-428.3" font-family="Times,serif" font-size="14.00">https://voc.gleaner.io/id/nanopub/XID#assertion</text>
</g>
<!-- Rhttps://voc.gleaner.io/id/nanopub/XID&#45;&gt;Rhttps://voc.gleaner.io/id/nanopub/XID#assertion -->
<g id="edge7" class="edge">
<title>Rhttps://voc.gleaner.io/id/nanopub/XID&#45;&gt;Rhttps://voc.gleaner.io/id/nanopub/XID#assertion</title>
<path fill="none" stroke="black" stroke-dasharray="1,5" d="M374.17,-364.34C431.24,-371.92 504.87,-381.21 570.45,-388 700.2,-401.42 847.7,-413.13 956.4,-421.08"/>
<polygon fill="black" stroke="black" points="956.24,-424.58 966.47,-421.82 956.75,-417.6 956.24,-424.58"/>
<text text-anchor="middle" x="717.45" y="-416.8" font-family="Times,serif" font-size="14.00">http://www.nanopub.org/nschema#hasAssertion</text>
</g>
<!-- Rhttps://voc.gleaner.io/id/nanopub/XID#provenance -->
<g id="node10" class="node">
<title>Rhttps://voc.gleaner.io/id/nanopub/XID#provenance</title>
<ellipse fill="none" stroke="blue" cx="1115.78" cy="-378" rx="189.57" ry="18"/>
<text text-anchor="middle" x="1115.78" y="-374.3" font-family="Times,serif" font-size="14.00">https://voc.gleaner.io/id/nanopub/XID#provenance</text>
</g>
<!-- Rhttps://voc.gleaner.io/id/nanopub/XID&#45;&gt;Rhttps://voc.gleaner.io/id/nanopub/XID#provenance -->
<g id="edge8" class="edge">
<title>Rhttps://voc.gleaner.io/id/nanopub/XID&#45;&gt;Rhttps://voc.gleaner.io/id/nanopub/XID#provenance</title>
<path fill="none" stroke="black" stroke-dasharray="1,5" d="M416.94,-355.5C556.3,-360 771.33,-366.93 925.86,-371.91"/>
<polygon fill="black" stroke="black" points="925.84,-375.41 935.95,-372.24 926.07,-368.41 925.84,-375.41"/>
<text text-anchor="middle" x="717.45" y="-372.8" font-family="Times,serif" font-size="14.00">http://www.nanopub.org/nschema#hasProvenance</text>
</g>
<!-- Rhttps://voc.gleaner.io/id/nanopub/XID#pubInfo -->
<g id="node11" class="node">
<title>Rhttps://voc.gleaner.io/id/nanopub/XID#pubInfo</title>
<ellipse fill="none" stroke="blue" cx="1115.78" cy="-324" rx="176.57" ry="18"/>
<text text-anchor="middle" x="1115.78" y="-320.3" font-family="Times,serif" font-size="14.00">https://voc.gleaner.io/id/nanopub/XID#pubInfo</text>
</g>
<!-- Rhttps://voc.gleaner.io/id/nanopub/XID&#45;&gt;Rhttps://voc.gleaner.io/id/nanopub/XID#pubInfo -->
<g id="edge9" class="edge">
<title>Rhttps://voc.gleaner.io/id/nanopub/XID&#45;&gt;Rhttps://voc.gleaner.io/id/nanopub/XID#pubInfo</title>
<path fill="none" stroke="black" stroke-dasharray="1,5" d="M415.94,-346.19C464.78,-344.51 520.05,-342.65 570.45,-341 692.43,-337.02 829.8,-332.73 936.02,-329.45"/>
<polygon fill="black" stroke="black" points="936.31,-332.95 946.2,-329.14 936.1,-325.95 936.31,-332.95"/>
<text text-anchor="middle" x="717.45" y="-344.8" font-family="Times,serif" font-size="14.00">http://www.nanopub.org/nschema#hasPublicationInfo</text>
</g>
<!-- Rhttp://www.nanopub.org/nschema#NanoPublication -->
<g id="node12" class="node">
<title>Rhttp://www.nanopub.org/nschema#NanoPublication</title>
<ellipse fill="none" stroke="blue" cx="1115.78" cy="-270" rx="194.17" ry="18"/>
<text text-anchor="middle" x="1115.78" y="-266.3" font-family="Times,serif" font-size="14.00">http://www.nanopub.org/nschema#NanoPublication</text>
</g>
<!-- Rhttps://voc.gleaner.io/id/nanopub/XID&#45;&gt;Rhttp://www.nanopub.org/nschema#NanoPublication -->
<g id="edge10" class="edge">
<title>Rhttps://voc.gleaner.io/id/nanopub/XID&#45;&gt;Rhttp://www.nanopub.org/nschema#NanoPublication</title>
<path fill="none" stroke="black" stroke-dasharray="1,5" d="M372.17,-337.47C429.5,-329.61 504.08,-319.92 570.45,-313 696.4,-299.87 839.11,-288.74 946.8,-281.09"/>
<polygon fill="black" stroke="black" points="947.06,-284.58 956.79,-280.38 946.56,-277.6 947.06,-284.58"/>
<text text-anchor="middle" x="717.45" y="-316.8" font-family="Times,serif" font-size="14.00">rdfs:type</text>
</g>
</g>
</svg>
