<?xml version="1.0" encoding="UTF-8" standalone="no"?>
<!DOCTYPE svg PUBLIC "-//W3C//DTD SVG 1.1//EN"
 "http://www.w3.org/Graphics/SVG/1.1/DTD/svg11.dtd">
<!-- Generated by graphviz version 2.44.0 (0)
 -->
<!-- Pages: 1 -->
<svg width="2551pt" height="458pt"
 viewBox="0.00 0.00 2550.54 458.00" xmlns="http://www.w3.org/2000/svg" xmlns:xlink="http://www.w3.org/1999/xlink">
<g id="graph0" class="graph" transform="scale(1 1) rotate(0) translate(4 454)">
<polygon fill="white" stroke="transparent" points="-4,4 -4,-454 2546.54,-454 2546.54,4 -4,4"/>
<text text-anchor="middle" x="1271.27" y="-22.8" font-family="Times-Roman" font-size="14.00">Model:</text>
<text text-anchor="middle" x="1271.27" y="-7.8" font-family="Times-Roman" font-size="14.00">https://iode.org/</text>
<!-- Rfile:///home/fils/src/Projects/OIH/odis&#45;arch/schema/prov/graphs/DataSetURI -->
<g id="node1" class="node">
<title>Rfile:///home/fils/src/Projects/OIH/odis&#45;arch/schema/prov/graphs/DataSetURI</title>
<ellipse fill="none" stroke="blue" cx="388.02" cy="-88" rx="346.34" ry="18"/>
<text text-anchor="middle" x="388.02" y="-84.3" font-family="Times-Roman" font-size="14.00">file:///home/fils/src/Projects/OIH/odis&#45;arch/schema/prov/graphs/DataSetURI</text>
</g>
<!-- Rschema:Dataset -->
<g id="node2" class="node">
<title>Rschema:Dataset</title>
<ellipse fill="none" stroke="blue" cx="1516.9" cy="-88" rx="83.39" ry="18"/>
<text text-anchor="middle" x="1516.9" y="-84.3" font-family="Times-Roman" font-size="14.00">schema:Dataset</text>
</g>
<!-- Rfile:///home/fils/src/Projects/OIH/odis&#45;arch/schema/prov/graphs/DataSetURI&#45;&gt;Rschema:Dataset -->
<g id="edge1" class="edge">
<title>Rfile:///home/fils/src/Projects/OIH/odis&#45;arch/schema/prov/graphs/DataSetURI&#45;&gt;Rschema:Dataset</title>
<path fill="none" stroke="black" stroke-dasharray="1,5" d="M734.78,-88C973.84,-88 1274.69,-88 1423.63,-88"/>
<polygon fill="black" stroke="black" points="1423.65,-91.5 1433.65,-88 1423.65,-84.5 1423.65,-91.5"/>
<text text-anchor="middle" x="982.03" y="-91.8" font-family="Times-Roman" font-size="14.00">rdfs:type</text>
</g>
<!-- Rfile:///home/fils/src/Projects/OIH/odis&#45;arch/schema/prov/graphs/IDHERE -->
<g id="node3" class="node">
<title>Rfile:///home/fils/src/Projects/OIH/odis&#45;arch/schema/prov/graphs/IDHERE</title>
<ellipse fill="none" stroke="blue" cx="1516.9" cy="-216" rx="328.74" ry="18"/>
<text text-anchor="middle" x="1516.9" y="-212.3" font-family="Times-Roman" font-size="14.00">file:///home/fils/src/Projects/OIH/odis&#45;arch/schema/prov/graphs/IDHERE</text>
</g>
<!-- L2019&#45;10&#45;23T14:38:00Z|Datatype: XMLSchema#dateTime -->
<g id="node4" class="node">
<title>L2019&#45;10&#45;23T14:38:00Z|Datatype: XMLSchema#dateTime</title>
<polygon fill="none" stroke="black" points="2244.66,-223 2244.66,-269 2494.66,-269 2494.66,-223 2244.66,-223"/>
<text text-anchor="middle" x="2369.66" y="-253.8" font-family="Times-Roman" font-size="14.00">2019&#45;10&#45;23T14:38:00Z</text>
<polyline fill="none" stroke="black" points="2244.66,-246 2494.66,-246 "/>
<text text-anchor="middle" x="2369.66" y="-230.8" font-family="Times-Roman" font-size="14.00">Datatype: XMLSchema#dateTime</text>
</g>
<!-- Rfile:///home/fils/src/Projects/OIH/odis&#45;arch/schema/prov/graphs/IDHERE&#45;&gt;L2019&#45;10&#45;23T14:38:00Z|Datatype: XMLSchema#dateTime -->
<g id="edge2" class="edge">
<title>Rfile:///home/fils/src/Projects/OIH/odis&#45;arch/schema/prov/graphs/IDHERE&#45;&gt;L2019&#45;10&#45;23T14:38:00Z|Datatype: XMLSchema#dateTime</title>
<path fill="none" stroke="black" stroke-dasharray="1,5" d="M1793.82,-225.73C1941.41,-230.93 2116.49,-237.11 2234.33,-241.26"/>
<polygon fill="black" stroke="black" points="2234.36,-244.77 2244.48,-241.62 2234.61,-237.77 2234.36,-244.77"/>
<text text-anchor="middle" x="2021.27" y="-243.8" font-family="Times-Roman" font-size="14.00">http://www.w3.org/ns/prov#generatedAtTime</text>
</g>
<!-- Rhttps://voc.gleaner.io/id/tool/gleaner -->
<g id="node5" class="node">
<title>Rhttps://voc.gleaner.io/id/tool/gleaner</title>
<ellipse fill="none" stroke="blue" cx="2369.66" cy="-186" rx="172.77" ry="18"/>
<text text-anchor="middle" x="2369.66" y="-182.3" font-family="Times-Roman" font-size="14.00">https://voc.gleaner.io/id/tool/gleaner</text>
</g>
<!-- Rfile:///home/fils/src/Projects/OIH/odis&#45;arch/schema/prov/graphs/IDHERE&#45;&gt;Rhttps://voc.gleaner.io/id/tool/gleaner -->
<g id="edge3" class="edge">
<title>Rfile:///home/fils/src/Projects/OIH/odis&#45;arch/schema/prov/graphs/IDHERE&#45;&gt;Rhttps://voc.gleaner.io/id/tool/gleaner</title>
<path fill="none" stroke="black" stroke-dasharray="1,5" d="M1793.82,-206.27C1925.83,-201.62 2079.84,-196.18 2195.21,-192.12"/>
<polygon fill="black" stroke="black" points="2195.67,-195.6 2205.54,-191.75 2195.43,-188.61 2195.67,-195.6"/>
<text text-anchor="middle" x="2021.27" y="-207.8" font-family="Times-Roman" font-size="14.00">http://www.w3.org/ns/prov#wasAttributedTo</text>
</g>
<!-- Rfile:///home/fils/src/Projects/OIH/odis&#45;arch/schema/prov/graphs/URIforprovondataset -->
<g id="node6" class="node">
<title>Rfile:///home/fils/src/Projects/OIH/odis&#45;arch/schema/prov/graphs/URIforprovondataset</title>
<ellipse fill="none" stroke="blue" cx="388.02" cy="-186" rx="388.03" ry="18"/>
<text text-anchor="middle" x="388.02" y="-182.3" font-family="Times-Roman" font-size="14.00">file:///home/fils/src/Projects/OIH/odis&#45;arch/schema/prov/graphs/URIforprovondataset</text>
</g>
<!-- Rfile:///home/fils/src/Projects/OIH/odis&#45;arch/schema/prov/graphs/URIforprovondataset&#45;&gt;Rfile:///home/fils/src/Projects/OIH/odis&#45;arch/schema/prov/graphs/IDHERE -->
<g id="edge4" class="edge">
<title>Rfile:///home/fils/src/Projects/OIH/odis&#45;arch/schema/prov/graphs/URIforprovondataset&#45;&gt;Rfile:///home/fils/src/Projects/OIH/odis&#45;arch/schema/prov/graphs/IDHERE</title>
<path fill="none" stroke="black" stroke-dasharray="1,5" d="M676.35,-198.07C715.88,-199.52 755.96,-200.88 794.03,-202 923.34,-205.81 1065.71,-208.82 1189.6,-211.06"/>
<polygon fill="black" stroke="black" points="1189.56,-214.56 1199.62,-211.24 1189.69,-207.56 1189.56,-214.56"/>
<text text-anchor="middle" x="982.03" y="-214.8" font-family="Times-Roman" font-size="14.00">http://www.w3.org/ns/prov#wasAttributedTo</text>
</g>
<!-- Rfile:///home/fils/src/Projects/OIH/odis&#45;arch/schema/prov/graphs/URIforprovondataset&#45;&gt;Rfile:///home/fils/src/Projects/OIH/odis&#45;arch/schema/prov/graphs/IDHERE -->
<g id="edge5" class="edge">
<title>Rfile:///home/fils/src/Projects/OIH/odis&#45;arch/schema/prov/graphs/URIforprovondataset&#45;&gt;Rfile:///home/fils/src/Projects/OIH/odis&#45;arch/schema/prov/graphs/IDHERE</title>
<path fill="none" stroke="black" stroke-dasharray="1,5" d="M726.04,-177.14C863.77,-175.49 1024.6,-176.08 1170.03,-183 1234.67,-186.08 1305.87,-192.37 1366.78,-198.64"/>
<polygon fill="black" stroke="black" points="1366.55,-202.14 1376.86,-199.69 1367.27,-195.18 1366.55,-202.14"/>
<text text-anchor="middle" x="982.03" y="-186.8" font-family="Times-Roman" font-size="14.00">http://www.w3.org/ns/prov#wasDerivedFrom</text>
</g>
<!-- LdateDone|Datatype: XMLSchema#dateTime -->
<g id="node7" class="node">
<title>LdateDone|Datatype: XMLSchema#dateTime</title>
<polygon fill="none" stroke="black" points="1391.9,-125 1391.9,-171 1641.9,-171 1641.9,-125 1391.9,-125"/>
<text text-anchor="middle" x="1516.9" y="-155.8" font-family="Times-Roman" font-size="14.00">dateDone</text>
<polyline fill="none" stroke="black" points="1391.9,-148 1641.9,-148 "/>
<text text-anchor="middle" x="1516.9" y="-132.8" font-family="Times-Roman" font-size="14.00">Datatype: XMLSchema#dateTime</text>
</g>
<!-- Rfile:///home/fils/src/Projects/OIH/odis&#45;arch/schema/prov/graphs/URIforprovondataset&#45;&gt;LdateDone|Datatype: XMLSchema#dateTime -->
<g id="edge6" class="edge">
<title>Rfile:///home/fils/src/Projects/OIH/odis&#45;arch/schema/prov/graphs/URIforprovondataset&#45;&gt;LdateDone|Datatype: XMLSchema#dateTime</title>
<path fill="none" stroke="black" stroke-dasharray="1,5" d="M582.8,-170.42C649.68,-165.62 725.11,-160.86 794.03,-158 998.72,-149.51 1236.31,-147.79 1381.34,-147.65"/>
<polygon fill="black" stroke="black" points="1381.62,-151.15 1391.62,-147.64 1381.62,-144.15 1381.62,-151.15"/>
<text text-anchor="middle" x="982.03" y="-161.8" font-family="Times-Roman" font-size="14.00">http://www.w3.org/ns/prov#wasGeneratedAtTime</text>
</g>
<!-- Rhttps://voc.gleaner.io/id/nanopub/XID -->
<g id="node8" class="node">
<title>Rhttps://voc.gleaner.io/id/nanopub/XID</title>
<ellipse fill="none" stroke="blue" cx="388.02" cy="-351" rx="178.97" ry="18"/>
<text text-anchor="middle" x="388.02" y="-347.3" font-family="Times-Roman" font-size="14.00">https://voc.gleaner.io/id/nanopub/XID</text>
</g>
<!-- Rhttps://voc.gleaner.io/id/nanopub/XID#assertion -->
<g id="node9" class="node">
<title>Rhttps://voc.gleaner.io/id/nanopub/XID#assertion</title>
<ellipse fill="none" stroke="blue" cx="1516.9" cy="-432" rx="227.46" ry="18"/>
<text text-anchor="middle" x="1516.9" y="-428.3" font-family="Times-Roman" font-size="14.00">https://voc.gleaner.io/id/nanopub/XID#assertion</text>
</g>
<!-- Rhttps://voc.gleaner.io/id/nanopub/XID&#45;&gt;Rhttps://voc.gleaner.io/id/nanopub/XID#assertion -->
<g id="edge7" class="edge">
<title>Rhttps://voc.gleaner.io/id/nanopub/XID&#45;&gt;Rhttps://voc.gleaner.io/id/nanopub/XID#assertion</title>
<path fill="none" stroke="black" stroke-dasharray="1,5" d="M516.17,-363.61C595.92,-371.27 700.92,-380.91 794.03,-388 970.55,-401.44 1171.59,-413.42 1316.6,-421.47"/>
<polygon fill="black" stroke="black" points="1316.77,-424.99 1326.95,-422.05 1317.16,-418 1316.77,-424.99"/>
<text text-anchor="middle" x="982.03" y="-415.8" font-family="Times-Roman" font-size="14.00">http://www.nanopub.org/nschema#hasAssertion</text>
</g>
<!-- Rhttps://voc.gleaner.io/id/nanopub/XID#provenance -->
<g id="node10" class="node">
<title>Rhttps://voc.gleaner.io/id/nanopub/XID#provenance</title>
<ellipse fill="none" stroke="blue" cx="1516.9" cy="-378" rx="239.36" ry="18"/>
<text text-anchor="middle" x="1516.9" y="-374.3" font-family="Times-Roman" font-size="14.00">https://voc.gleaner.io/id/nanopub/XID#provenance</text>
</g>
<!-- Rhttps://voc.gleaner.io/id/nanopub/XID&#45;&gt;Rhttps://voc.gleaner.io/id/nanopub/XID#provenance -->
<g id="edge8" class="edge">
<title>Rhttps://voc.gleaner.io/id/nanopub/XID&#45;&gt;Rhttps://voc.gleaner.io/id/nanopub/XID#provenance</title>
<path fill="none" stroke="black" stroke-dasharray="1,5" d="M562.01,-355.14C753.77,-359.74 1064.24,-367.18 1278.63,-372.31"/>
<polygon fill="black" stroke="black" points="1278.68,-375.82 1288.76,-372.56 1278.85,-368.82 1278.68,-375.82"/>
<text text-anchor="middle" x="982.03" y="-372.8" font-family="Times-Roman" font-size="14.00">http://www.nanopub.org/nschema#hasProvenance</text>
</g>
<!-- Rhttps://voc.gleaner.io/id/nanopub/XID#pubInfo -->
<g id="node11" class="node">
<title>Rhttps://voc.gleaner.io/id/nanopub/XID#pubInfo</title>
<ellipse fill="none" stroke="blue" cx="1516.9" cy="-324" rx="221.76" ry="18"/>
<text text-anchor="middle" x="1516.9" y="-320.3" font-family="Times-Roman" font-size="14.00">https://voc.gleaner.io/id/nanopub/XID#pubInfo</text>
</g>
<!-- Rhttps://voc.gleaner.io/id/nanopub/XID&#45;&gt;Rhttps://voc.gleaner.io/id/nanopub/XID#pubInfo -->
<g id="edge9" class="edge">
<title>Rhttps://voc.gleaner.io/id/nanopub/XID&#45;&gt;Rhttps://voc.gleaner.io/id/nanopub/XID#pubInfo</title>
<path fill="none" stroke="black" stroke-dasharray="1,5" d="M562.01,-346.86C758.33,-342.15 1079.06,-334.47 1293.74,-329.32"/>
<polygon fill="black" stroke="black" points="1293.97,-332.82 1303.88,-329.08 1293.8,-325.82 1293.97,-332.82"/>
<text text-anchor="middle" x="982.03" y="-343.8" font-family="Times-Roman" font-size="14.00">http://www.nanopub.org/nschema#hasPublicationInfo</text>
</g>
<!-- Rhttp://www.nanopub.org/nschema#NanoPublication -->
<g id="node12" class="node">
<title>Rhttp://www.nanopub.org/nschema#NanoPublication</title>
<ellipse fill="none" stroke="blue" cx="1516.9" cy="-270" rx="244.26" ry="18"/>
<text text-anchor="middle" x="1516.9" y="-266.3" font-family="Times-Roman" font-size="14.00">http://www.nanopub.org/nschema#NanoPublication</text>
</g>
<!-- Rhttps://voc.gleaner.io/id/nanopub/XID&#45;&gt;Rhttp://www.nanopub.org/nschema#NanoPublication -->
<g id="edge10" class="edge">
<title>Rhttps://voc.gleaner.io/id/nanopub/XID&#45;&gt;Rhttp://www.nanopub.org/nschema#NanoPublication</title>
<path fill="none" stroke="black" stroke-dasharray="1,5" d="M513.9,-338.18C593.92,-330.23 700.02,-320.21 794.03,-313 965.63,-299.84 1160.45,-288.45 1304.41,-280.7"/>
<polygon fill="black" stroke="black" points="1304.89,-284.18 1314.69,-280.15 1304.51,-277.19 1304.89,-284.18"/>
<text text-anchor="middle" x="982.03" y="-316.8" font-family="Times-Roman" font-size="14.00">rdfs:type</text>
</g>
</g>
</svg>
