<svg height='100px' width='100px'  fill="#B30083" xmlns="http://www.w3.org/2000/svg" xmlns:xlink="http://www.w3.org/1999/xlink" version="1.1" x="0px" y="0px" viewBox="0 0 160 160" style="enable-background:new 0 0 160 160;" xml:space="preserve"><path d="M136.516,78.19c-8.786,0-16.123,6.292-17.759,14.606h-8.228c-14.903,0-27.028-12.125-27.028-27.029v-9.572V17.902  L99.34,36.14c0.692,0.797,1.665,1.205,2.645,1.205c0.813,0,1.631-0.282,2.293-0.857c1.46-1.268,1.615-3.478,0.348-4.938L82.643,6.24  c-0.027-0.031-0.059-0.052-0.086-0.081c-0.058-0.062-0.117-0.122-0.18-0.18c-0.029-0.027-0.051-0.06-0.081-0.087  c-0.027-0.024-0.059-0.039-0.087-0.062c-0.056-0.046-0.113-0.09-0.171-0.132C81.97,5.65,81.9,5.607,81.829,5.564  c-0.068-0.042-0.135-0.084-0.205-0.121c-0.058-0.03-0.115-0.059-0.174-0.085c-0.074-0.034-0.15-0.062-0.226-0.091  c-0.078-0.029-0.154-0.058-0.233-0.082c-0.061-0.018-0.122-0.033-0.183-0.048c-0.078-0.018-0.156-0.032-0.236-0.045  s-0.158-0.027-0.239-0.034c-0.072-0.007-0.143-0.009-0.215-0.011C80.077,5.045,80.04,5.035,80,5.035s-0.077,0.01-0.117,0.012  c-0.072,0.002-0.143,0.004-0.215,0.011c-0.08,0.008-0.159,0.021-0.239,0.034s-0.158,0.027-0.236,0.045  c-0.062,0.015-0.122,0.03-0.183,0.048c-0.079,0.023-0.156,0.052-0.233,0.082C78.7,5.296,78.624,5.324,78.55,5.357  c-0.059,0.027-0.117,0.055-0.174,0.085c-0.07,0.037-0.137,0.079-0.205,0.121C78.1,5.607,78.03,5.65,77.963,5.699  c-0.058,0.042-0.115,0.086-0.171,0.132c-0.028,0.023-0.06,0.038-0.087,0.062c-0.031,0.027-0.052,0.059-0.081,0.087  c-0.062,0.058-0.122,0.117-0.18,0.18c-0.027,0.029-0.06,0.051-0.086,0.081L55.375,31.551c-1.268,1.459-1.112,3.67,0.348,4.938  c0.662,0.575,1.479,0.857,2.293,0.857c0.979,0,1.952-0.408,2.645-1.205L76.5,17.902v38.293v9.572  c0,14.904-12.125,27.029-27.028,27.029h-8.228C39.608,84.482,32.27,78.19,23.484,78.19c-9.983,0-18.105,8.122-18.105,18.106  c0,9.983,8.122,18.105,18.105,18.105c8.786,0,16.123-6.292,17.759-14.605h8.228c11.007,0,20.804-5.257,27.028-13.388V119.1  c-8.313,1.636-14.605,8.974-14.605,17.759c0,9.984,8.122,18.106,18.105,18.106s18.105-8.122,18.105-18.106  c0-8.786-6.292-16.123-14.605-17.759V86.408c6.224,8.131,16.021,13.388,27.028,13.388h8.228c1.636,8.313,8.974,14.605,17.759,14.605  c9.983,0,18.105-8.122,18.105-18.105C154.621,86.312,146.499,78.19,136.516,78.19z M23.484,107.402  c-6.124,0-11.105-4.981-11.105-11.105S17.36,85.19,23.484,85.19S34.59,90.172,34.59,96.296S29.608,107.402,23.484,107.402z   M91.105,136.859c0,6.124-4.981,11.106-11.105,11.106s-11.105-4.982-11.105-11.106S73.876,125.753,80,125.753  S91.105,130.735,91.105,136.859z M136.516,107.402c-6.124,0-11.105-4.981-11.105-11.105s4.981-11.106,11.105-11.106  s11.105,4.982,11.105,11.106S142.64,107.402,136.516,107.402z"></path></svg>