<svg height='100px' width='100px'  fill="#B30083" xmlns="http://www.w3.org/2000/svg" xmlns:xlink="http://www.w3.org/1999/xlink" version="1.1" x="0px" y="0px" viewBox="0 0 64 64" style="enable-background:new 0 0 64 64;" xml:space="preserve"><path d="M3,20h14c0.553,0,1-0.447,1-1v-3c0-2.697-1.789-4.983-4.243-5.736C14.521,9.385,15,8.253,15,7c0-2.757-2.243-5-5-5  S5,4.243,5,7c0,1.253,0.479,2.385,1.243,3.264C3.789,11.017,2,13.303,2,16v3C2,19.553,2.447,20,3,20z M10,4c1.654,0,3,1.346,3,3  s-1.346,3-3,3S7,8.654,7,7S8.346,4,10,4z M4,16c0-2.206,1.794-4,4-4h4c2.206,0,4,1.794,4,4v2H4V16z"></path><path d="M46,16v3c0,0.553,0.447,1,1,1h14c0.553,0,1-0.447,1-1v-3c0-2.697-1.789-4.983-4.243-5.736C58.521,9.385,59,8.253,59,7  c0-2.757-2.243-5-5-5s-5,2.243-5,5c0,1.253,0.479,2.385,1.243,3.264C47.789,11.017,46,13.303,46,16z M54,4c1.654,0,3,1.346,3,3  s-1.346,3-3,3s-3-1.346-3-3S52.346,4,54,4z M48,16c0-2.206,1.794-4,4-4h4c2.206,0,4,1.794,4,4v2H48V16z"></path><path d="M3,62h14c0.553,0,1-0.447,1-1v-3c0-2.697-1.789-4.983-4.243-5.736C14.521,51.385,15,50.253,15,49c0-2.757-2.243-5-5-5  s-5,2.243-5,5c0,1.253,0.479,2.385,1.243,3.264C3.789,53.017,2,55.303,2,58v3C2,61.553,2.447,62,3,62z M10,46c1.654,0,3,1.346,3,3  s-1.346,3-3,3s-3-1.346-3-3S8.346,46,10,46z M4,58c0-2.206,1.794-4,4-4h4c2.206,0,4,1.794,4,4v2H4V58z"></path><path d="M57.757,52.264C58.521,51.385,59,50.253,59,49c0-2.757-2.243-5-5-5s-5,2.243-5,5c0,1.253,0.479,2.385,1.243,3.264  C47.789,53.017,46,55.303,46,58v3c0,0.553,0.447,1,1,1h14c0.553,0,1-0.447,1-1v-3C62,55.303,60.211,53.017,57.757,52.264z M54,46  c1.654,0,3,1.346,3,3s-1.346,3-3,3s-3-1.346-3-3S52.346,46,54,46z M60,60H48v-2c0-2.206,1.794-4,4-4h4c2.206,0,4,1.794,4,4V60z"></path><path d="M27,55h10c0.553,0,1-0.447,1-1V41h3c0.553,0,1-0.447,1-1v-5c0-3.401-2.44-6.241-5.66-6.868C37.366,27.055,38,25.602,38,24  c0-3.309-2.691-6-6-6s-6,2.691-6,6c0,1.602,0.634,3.055,1.66,4.132C24.44,28.759,22,31.599,22,35v5c0,0.553,0.447,1,1,1h3v13  C26,54.553,26.447,55,27,55z M32,20c2.206,0,4,1.794,4,4s-1.794,4-4,4s-4-1.794-4-4S29.794,20,32,20z M24,39v-4c0-2.757,2.243-5,5-5  h6c2.757,0,5,2.243,5,5v4h-2v-5h-2v19h-3V41h-2v12h-3V40v-6h-2v5H24z"></path><path d="M57.707,26.293l-1.414,1.414L59.586,31H46v2h13.586l-3.293,3.293l1.414,1.414l5-5c0.391-0.391,0.391-1.023,0-1.414  L57.707,26.293z"></path><path d="M7.293,37.707l1.414-1.414L5.414,33H18v-2H5.414l3.293-3.293l-1.414-1.414l-5,5c-0.391,0.391-0.391,1.023,0,1.414  L7.293,37.707z"></path><path d="M46,43h-2v1.586l-2.293-2.293l-1.414,1.414L42.586,46H41v2h4c0.553,0,1-0.447,1-1V43z"></path><path d="M23,46h-1.586l2.293-2.293l-1.414-1.414L20,44.586V43h-2v4c0,0.553,0.447,1,1,1h4V46z"></path><path d="M40.707,25.707L43,23.414V25h2v-4c0-0.553-0.447-1-1-1h-4v2h1.586l-2.293,2.293L40.707,25.707z"></path><path d="M24,20h-4c-0.553,0-1,0.447-1,1v4h2v-1.586l2.293,2.293l1.414-1.414L22.414,22H24V20z"></path></svg>