<svg height='100px' width='100px'  fill="#B30083" xmlns:x="http://ns.adobe.com/Extensibility/1.0/" xmlns:i="http://ns.adobe.com/AdobeIllustrator/10.0/" xmlns:graph="http://ns.adobe.com/Graphs/1.0/" xmlns="http://www.w3.org/2000/svg" xmlns:xlink="http://www.w3.org/1999/xlink" version="1.1" x="0px" y="0px" viewBox="0 0 100 100" style="enable-background:new 0 0 100 100;" xml:space="preserve"><g><g i:extraneous="self"><g><path d="M5273.1,2400.1v-2c0-2.8-5-4-9.7-4s-9.7,1.3-9.7,4v2c0,1.8,0.7,3.6,2,4.9l5,4.9c0.3,0.3,0.4,0.6,0.4,1v6.4     c0,0.4,0.2,0.7,0.6,0.8l2.9,0.9c0.5,0.1,1-0.2,1-0.8v-7.2c0-0.4,0.2-0.7,0.4-1l5.1-5C5272.4,2403.7,5273.1,2401.9,5273.1,2400.1z      M5263.4,2400c-4.8,0-7.4-1.3-7.5-1.8v0c0.1-0.5,2.7-1.8,7.5-1.8c4.8,0,7.3,1.3,7.5,1.8C5270.7,2398.7,5268.2,2400,5263.4,2400z"></path><path d="M5268.4,2410.3c-0.6,0-1,0.4-1,1c0,0.6,0.4,1,1,1h4.3c0.6,0,1-0.4,1-1c0-0.6-0.4-1-1-1H5268.4z"></path><path d="M5272.7,2413.7h-4.3c-0.6,0-1,0.4-1,1c0,0.6,0.4,1,1,1h4.3c0.6,0,1-0.4,1-1C5273.7,2414.1,5273.3,2413.7,5272.7,2413.7z"></path><path d="M5272.7,2417h-4.3c-0.6,0-1,0.4-1,1c0,0.6,0.4,1,1,1h4.3c0.6,0,1-0.4,1-1C5273.7,2417.5,5273.3,2417,5272.7,2417z"></path></g><g><path d="M88,10.5H58.7c-3.2,0-5.8,2.6-5.8,5.8v25c0,3.2,2.6,5.8,5.8,5.8H88c3.2,0,5.8-2.6,5.8-5.8v-25     C93.8,13.1,91.2,10.5,88,10.5z M85.9,30.5l-7,6.5c-0.5,0.4-1,0.6-1.6,0.6c-0.6,0-1.3-0.3-1.7-0.8c-0.9-1-0.8-2.5,0.1-3.4l2.5-2.3     H62.5c-1.3,0-2.4-1.1-2.4-2.4c0-1.3,1.1-2.4,2.4-2.4h15.7l-2.5-2.3c-1-0.9-1-2.4-0.1-3.4c0.9-1,2.4-1,3.4-0.1l7,6.5     c0.5,0.5,0.8,1.1,0.8,1.7C86.7,29.4,86.4,30.1,85.9,30.5z"></path><path d="M72.3,57.7c-5.7,1.3-15.9,2.6-19.5,1.5c-1.5-0.7-5.2-4.8-7.2-7c-1.9-2.1-3.7-4-5.4-5.6c-2.9-2.9-5.2-4.9-9.4-6     c-5.1-1.3-17.9-2.8-21.5,5.7c-3.8,8.9-3.2,32.1-3,48.6c0,1.4,0.9,2.6,2.4,2.6c3.5,0,25.7,0,27.3,0s2.3-0.9,2.4-2.2     c0.1-0.9,1-16.6,1.6-27.8c2.6,2.5,5.2,4.6,8.1,5.5c2.7,0.9,5.9,1.2,9.2,1.2c7.8,0,16-1.7,18.1-2.2c3.9-0.9,6.4-4.8,5.5-8.7     C80.1,59.3,76.2,56.8,72.3,57.7z"></path><circle cx="25.1" cy="19.1" r="16.6"></circle></g></g></g></svg>