<?xml version="1.0" encoding="UTF-8" standalone="no"?>
<!DOCTYPE svg PUBLIC "-//W3C//DTD SVG 1.1//EN"
 "http://www.w3.org/Graphics/SVG/1.1/DTD/svg11.dtd">
<!-- Generated by graphviz version 2.43.0 (0)
 -->
<!-- Title: %3 Pages: 1 -->
<svg width="1449pt" height="1407pt"
 viewBox="0.00 0.00 1448.91 1406.51" xmlns="http://www.w3.org/2000/svg" xmlns:xlink="http://www.w3.org/1999/xlink">
<g id="graph0" class="graph" transform="scale(1 1) rotate(0) translate(4 1402.51)">
<title>%3</title>
<polygon fill="white" stroke="transparent" points="-4,4 -4,-1402.51 1444.91,-1402.51 1444.91,4 -4,4"/>
<text text-anchor="middle" x="720.46" y="-22.8" font-family="Times,serif" font-size="14.00">Model:</text>
<text text-anchor="middle" x="720.46" y="-7.8" font-family="Times,serif" font-size="14.00">https://iode.org/</text>
<!-- Rhttps://samples.earth/id/do/bqs2dn2u6s73o70jdup0 -->
<g id="node1" class="node">
<title>Rhttps://samples.earth/id/do/bqs2dn2u6s73o70jdup0</title>
<ellipse fill="none" stroke="blue" cx="721.48" cy="-565.49" rx="190.37" ry="18"/>
<text text-anchor="middle" x="721.48" y="-561.79" font-family="Times,serif" font-size="14.00">https://samples.earth/id/do/bqs2dn2u6s73o70jdup0</text>
</g>
<!-- L\{&quot;geometries&quot;:[\{&quot;coordinates&quot;:[&#45;76,&#45;18],&quot;type&quot;:&quot;Point&quot;\}],&quot;type&quot;:&quot;GeometryCollection&quot;\}|Datatype: http://www.w3.org/1999/02/22&#45;rdf&#45;syntax&#45;ns#JSON -->
<g id="node2" class="node">
<title>L\{&quot;geometries&quot;:[\{&quot;coordinates&quot;:[&#45;76,&#45;18],&quot;type&quot;:&quot;Point&quot;\}],&quot;type&quot;:&quot;GeometryCollection&quot;\}|Datatype: http://www.w3.org/1999/02/22&#45;rdf&#45;syntax&#45;ns#JSON</title>
<polygon fill="none" stroke="black" points="495.15,-592 495.15,-628 1355.15,-628 1355.15,-592 495.15,-592"/>
<text text-anchor="middle" x="747.15" y="-606.3" font-family="Times,serif" font-size="14.00">{&quot;geometries&quot;:[{&quot;coordinates&quot;:[&#45;76,&#45;18],&quot;type&quot;:&quot;Point&quot;}],&quot;type&quot;:&quot;GeometryCollection&quot;}</text>
<polyline fill="none" stroke="black" points="999.15,-592 999.15,-628 "/>
<text text-anchor="middle" x="1177.15" y="-606.3" font-family="Times,serif" font-size="14.00">Datatype: http://www.w3.org/1999/02/22&#45;rdf&#45;syntax&#45;ns#JSON</text>
</g>
<!-- Rhttps://samples.earth/id/do/bqs2dn2u6s73o70jdup0&#45;&gt;L\{&quot;geometries&quot;:[\{&quot;coordinates&quot;:[&#45;76,&#45;18],&quot;type&quot;:&quot;Point&quot;\}],&quot;type&quot;:&quot;GeometryCollection&quot;\}|Datatype: http://www.w3.org/1999/02/22&#45;rdf&#45;syntax&#45;ns#JSON -->
<g id="edge1" class="edge">
<title>Rhttps://samples.earth/id/do/bqs2dn2u6s73o70jdup0&#45;&gt;L\{&quot;geometries&quot;:[\{&quot;coordinates&quot;:[&#45;76,&#45;18],&quot;type&quot;:&quot;Point&quot;\}],&quot;type&quot;:&quot;GeometryCollection&quot;\}|Datatype: http://www.w3.org/1999/02/22&#45;rdf&#45;syntax&#45;ns#JSON</title>
<path fill="none" stroke="black" stroke-dasharray="1,5" d="M797.32,-582.07C808.9,-584.6 820.95,-587.23 832.83,-589.83"/>
<polygon fill="black" stroke="black" points="832.24,-593.28 842.76,-591.99 833.73,-586.44 832.24,-593.28"/>
<text text-anchor="middle" x="904.49" y="-575.82" font-family="Times,serif" font-size="14.00">http://example.com/vocab/json</text>
</g>
<!-- LA fake ID for testing -->
<g id="node3" class="node">
<title>LA fake ID for testing</title>
<polygon fill="none" stroke="black" points="631.05,-342.95 631.05,-378.95 761.05,-378.95 761.05,-342.95 631.05,-342.95"/>
<text text-anchor="middle" x="696.05" y="-357.25" font-family="Times,serif" font-size="14.00">A fake ID for testing</text>
</g>
<!-- Rhttps://samples.earth/id/do/bqs2dn2u6s73o70jdup0&#45;&gt;LA fake ID for testing -->
<g id="edge2" class="edge">
<title>Rhttps://samples.earth/id/do/bqs2dn2u6s73o70jdup0&#45;&gt;LA fake ID for testing</title>
<path fill="none" stroke="black" stroke-dasharray="1,5" d="M719.22,-547.34C714.77,-511.56 704.84,-431.69 699.54,-389.05"/>
<polygon fill="black" stroke="black" points="703,-388.55 698.3,-379.06 696.06,-389.42 703,-388.55"/>
<text text-anchor="middle" x="616.25" y="-466.88" font-family="Times,serif" font-size="14.00">http://igsn.org/core/v1/description</text>
</g>
<!-- B_:b0 -->
<g id="node4" class="node">
<title>B_:b0</title>
<ellipse fill="none" stroke="green" cx="950.14" cy="-358.18" rx="18" ry="18"/>
</g>
<!-- Rhttps://samples.earth/id/do/bqs2dn2u6s73o70jdup0&#45;&gt;B_:b0 -->
<g id="edge3" class="edge">
<title>Rhttps://samples.earth/id/do/bqs2dn2u6s73o70jdup0&#45;&gt;B_:b0</title>
<path fill="none" stroke="black" stroke-dasharray="1,5" d="M741.37,-547.46C784.33,-508.51 885.44,-416.84 929.27,-377.1"/>
<polygon fill="black" stroke="black" points="931.71,-379.62 936.76,-370.31 927,-374.43 931.71,-379.62"/>
<text text-anchor="middle" x="696.81" y="-447.92" font-family="Times,serif" font-size="14.00">http://www.opengis.net/ont/geosparql#hasGeometry</text>
</g>
<!-- Rhttp://igsn.org/core/v1/Sample -->
<g id="node5" class="node">
<title>Rhttp://igsn.org/core/v1/Sample</title>
<ellipse fill="none" stroke="blue" cx="578.5" cy="-715.33" rx="118.08" ry="18"/>
<text text-anchor="middle" x="578.5" y="-711.63" font-family="Times,serif" font-size="14.00">http://igsn.org/core/v1/Sample</text>
</g>
<!-- Rhttps://samples.earth/id/do/bqs2dn2u6s73o70jdup0&#45;&gt;Rhttp://igsn.org/core/v1/Sample -->
<g id="edge4" class="edge">
<title>Rhttps://samples.earth/id/do/bqs2dn2u6s73o70jdup0&#45;&gt;Rhttp://igsn.org/core/v1/Sample</title>
<path fill="none" stroke="black" stroke-dasharray="1,5" d="M639.58,-549.22C589.37,-544.44 528,-548.9 491.95,-588.8 462.3,-621.61 507.61,-665.14 543.06,-691.65"/>
<polygon fill="black" stroke="black" points="541.2,-694.63 551.35,-697.68 545.32,-688.97 541.2,-694.63"/>
<text text-anchor="middle" x="566.48" y="-537.01" font-family="Times,serif" font-size="14.00">rdfs:type</text>
</g>
<!-- B_:b1 -->
<g id="node6" class="node">
<title>B_:b1</title>
<ellipse fill="none" stroke="green" cx="808.3" cy="-858.1" rx="18" ry="18"/>
</g>
<!-- Rhttps://samples.earth/id/do/bqs2dn2u6s73o70jdup0&#45;&gt;B_:b1 -->
<g id="edge5" class="edge">
<title>Rhttps://samples.earth/id/do/bqs2dn2u6s73o70jdup0&#45;&gt;B_:b1</title>
<path fill="none" stroke="black" stroke-dasharray="1,5" d="M639.58,-549.22C589.37,-544.44 528,-548.9 491.95,-588.8 479.32,-602.78 481.44,-615.56 491.95,-631.2 547.22,-713.44 619.55,-655.38 698.38,-715.42 741.44,-748.21 776.52,-801.89 794.73,-833.21"/>
<polygon fill="black" stroke="black" points="791.84,-835.21 799.83,-842.17 797.92,-831.75 791.84,-835.21"/>
<text text-anchor="middle" x="768.4" y="-721.95" font-family="Times,serif" font-size="14.00">schema:spatialCoverage</text>
</g>
<!-- B_:b3 -->
<g id="node7" class="node">
<title>B_:b3</title>
<ellipse fill="none" stroke="green" cx="430.55" cy="-467.26" rx="18" ry="18"/>
</g>
<!-- Rhttps://samples.earth/id/do/bqs2dn2u6s73o70jdup0&#45;&gt;B_:b3 -->
<g id="edge6" class="edge">
<title>Rhttps://samples.earth/id/do/bqs2dn2u6s73o70jdup0&#45;&gt;B_:b3</title>
<path fill="none" stroke="black" stroke-dasharray="1,5" d="M670.14,-548.16C607.98,-527.17 505.64,-492.61 457.36,-476.31"/>
<polygon fill="black" stroke="black" points="458.23,-472.91 447.64,-473.03 455.99,-479.54 458.23,-472.91"/>
<text text-anchor="middle" x="509.31" y="-514.2" font-family="Times,serif" font-size="14.00">schema:subjectOf</text>
</g>
<!-- LPOINT(&#45;76 &#45;18)|Datatype: http://www.opengis.net/ont/geosparql#wktLiteral -->
<g id="node8" class="node">
<title>LPOINT(&#45;76 &#45;18)|Datatype: http://www.opengis.net/ont/geosparql#wktLiteral</title>
<polygon fill="none" stroke="black" points="995.91,-380.94 995.91,-416.94 1440.91,-416.94 1440.91,-380.94 995.91,-380.94"/>
<text text-anchor="middle" x="1048.41" y="-395.24" font-family="Times,serif" font-size="14.00">POINT(&#45;76 &#45;18)</text>
<polyline fill="none" stroke="black" points="1100.91,-380.94 1100.91,-416.94 "/>
<text text-anchor="middle" x="1270.91" y="-395.24" font-family="Times,serif" font-size="14.00">Datatype: http://www.opengis.net/ont/geosparql#wktLiteral</text>
</g>
<!-- B_:b0&#45;&gt;LPOINT(&#45;76 &#45;18)|Datatype: http://www.opengis.net/ont/geosparql#wktLiteral -->
<g id="edge7" class="edge">
<title>B_:b0&#45;&gt;LPOINT(&#45;76 &#45;18)|Datatype: http://www.opengis.net/ont/geosparql#wktLiteral</title>
<path fill="none" stroke="black" stroke-dasharray="1,5" d="M968.16,-360.92C993.55,-364.77 1042.1,-372.15 1089.73,-379.39"/>
<polygon fill="black" stroke="black" points="1089.46,-382.89 1099.87,-380.93 1090.51,-375.97 1089.46,-382.89"/>
<text text-anchor="middle" x="1160.88" y="-359.7" font-family="Times,serif" font-size="14.00">http://www.opengis.net/ont/geosparql#asWKT</text>
</g>
<!-- Rhttp://www.opengis.net/def/crs/OGC/1.3/CRS84 -->
<g id="node9" class="node">
<title>Rhttp://www.opengis.net/def/crs/OGC/1.3/CRS84</title>
<ellipse fill="none" stroke="blue" cx="928" cy="-88" rx="181.97" ry="18"/>
<text text-anchor="middle" x="928" y="-84.3" font-family="Times,serif" font-size="14.00">http://www.opengis.net/def/crs/OGC/1.3/CRS84</text>
</g>
<!-- B_:b0&#45;&gt;Rhttp://www.opengis.net/def/crs/OGC/1.3/CRS84 -->
<g id="edge8" class="edge">
<title>B_:b0&#45;&gt;Rhttp://www.opengis.net/def/crs/OGC/1.3/CRS84</title>
<path fill="none" stroke="black" stroke-dasharray="1,5" d="M948.65,-340.03C944.87,-293.89 934.87,-171.81 930.31,-116.25"/>
<polygon fill="black" stroke="black" points="933.78,-115.75 929.48,-106.07 926.81,-116.32 933.78,-115.75"/>
<text text-anchor="middle" x="825.57" y="-226.85" font-family="Times,serif" font-size="14.00">http://www.opengis.net/ont/geosparql#crs</text>
</g>
<!-- Rhttp://www.opengis.net/ont/sf#Point -->
<g id="node10" class="node">
<title>Rhttp://www.opengis.net/ont/sf#Point</title>
<ellipse fill="none" stroke="blue" cx="1137.23" cy="-185.2" rx="138.38" ry="18"/>
<text text-anchor="middle" x="1137.23" y="-181.5" font-family="Times,serif" font-size="14.00">http://www.opengis.net/ont/sf#Point</text>
</g>
<!-- B_:b0&#45;&gt;Rhttp://www.opengis.net/ont/sf#Point -->
<g id="edge9" class="edge">
<title>B_:b0&#45;&gt;Rhttp://www.opengis.net/ont/sf#Point</title>
<path fill="none" stroke="black" stroke-dasharray="1,5" d="M963.6,-345.74C994.3,-317.35 1069.97,-247.38 1110.54,-209.88"/>
<polygon fill="black" stroke="black" points="1112.96,-212.41 1117.92,-203.05 1108.2,-207.27 1112.96,-212.41"/>
<text text-anchor="middle" x="1016.06" y="-278.38" font-family="Times,serif" font-size="14.00">rdfs:type</text>
</g>
<!-- Rschema:Place -->
<g id="node11" class="node">
<title>Rschema:Place</title>
<ellipse fill="none" stroke="blue" cx="1069.01" cy="-916.49" rx="59.29" ry="18"/>
<text text-anchor="middle" x="1069.01" y="-912.79" font-family="Times,serif" font-size="14.00">schema:Place</text>
</g>
<!-- B_:b1&#45;&gt;Rschema:Place -->
<g id="edge10" class="edge">
<title>B_:b1&#45;&gt;Rschema:Place</title>
<path fill="none" stroke="black" stroke-dasharray="1,5" d="M826.22,-862.11C863.79,-870.53 952.22,-890.33 1011.34,-903.57"/>
<polygon fill="black" stroke="black" points="1010.77,-907.03 1021.29,-905.8 1012.3,-900.2 1010.77,-907.03"/>
<text text-anchor="middle" x="899.54" y="-887.82" font-family="Times,serif" font-size="14.00">rdfs:type</text>
</g>
<!-- B_:b2 -->
<g id="node12" class="node">
<title>B_:b2</title>
<ellipse fill="none" stroke="green" cx="772.92" cy="-1131.84" rx="18" ry="18"/>
</g>
<!-- B_:b1&#45;&gt;B_:b2 -->
<g id="edge11" class="edge">
<title>B_:b1&#45;&gt;B_:b2</title>
<path fill="none" stroke="black" stroke-dasharray="1,5" d="M805.98,-876.06C799.96,-922.66 783.79,-1047.69 776.53,-1103.85"/>
<polygon fill="black" stroke="black" points="773.06,-1103.45 775.25,-1113.81 780,-1104.34 773.06,-1103.45"/>
<text text-anchor="middle" x="758.08" y="-998.97" font-family="Times,serif" font-size="14.00">schema:geo</text>
</g>
<!-- Rschema:DigitalDocument -->
<g id="node16" class="node">
<title>Rschema:DigitalDocument</title>
<ellipse fill="none" stroke="blue" cx="238.03" cy="-292.03" rx="101.28" ry="18"/>
<text text-anchor="middle" x="238.03" y="-288.33" font-family="Times,serif" font-size="14.00">schema:DigitalDocument</text>
</g>
<!-- B_:b3&#45;&gt;Rschema:DigitalDocument -->
<g id="edge15" class="edge">
<title>B_:b3&#45;&gt;Rschema:DigitalDocument</title>
<path fill="none" stroke="black" stroke-dasharray="1,5" d="M417.01,-454.94C385.57,-426.32 307.12,-354.91 265.29,-316.84"/>
<polygon fill="black" stroke="black" points="267.44,-314.06 257.69,-309.92 262.73,-319.24 267.44,-314.06"/>
<text text-anchor="middle" x="312.77" y="-386.16" font-family="Times,serif" font-size="14.00">rdfs:type</text>
</g>
<!-- Lhttps://igsn.org/schema/spatial.schema.json -->
<g id="node17" class="node">
<title>Lhttps://igsn.org/schema/spatial.schema.json</title>
<polygon fill="none" stroke="black" points="275.19,-176.93 275.19,-212.93 529.19,-212.93 529.19,-176.93 275.19,-176.93"/>
<text text-anchor="middle" x="402.19" y="-191.23" font-family="Times,serif" font-size="14.00">https://igsn.org/schema/spatial.schema.json</text>
</g>
<!-- B_:b3&#45;&gt;Lhttps://igsn.org/schema/spatial.schema.json -->
<g id="edge16" class="edge">
<title>B_:b3&#45;&gt;Lhttps://igsn.org/schema/spatial.schema.json</title>
<path fill="none" stroke="black" stroke-dasharray="1,5" d="M428.65,-448.97C423.8,-402.46 410.99,-279.41 405.16,-223.41"/>
<polygon fill="black" stroke="black" points="408.6,-222.73 404.09,-213.14 401.64,-223.45 408.6,-222.73"/>
<text text-anchor="middle" x="360.37" y="-334.85" font-family="Times,serif" font-size="14.00">schema:conformsTo</text>
</g>
<!-- Lapplication/vnd.geo+json -->
<g id="node18" class="node">
<title>Lapplication/vnd.geo+json</title>
<polygon fill="none" stroke="black" points="161.33,-640.05 161.33,-676.05 316.33,-676.05 316.33,-640.05 161.33,-640.05"/>
<text text-anchor="middle" x="238.83" y="-654.35" font-family="Times,serif" font-size="14.00">application/vnd.geo+json</text>
</g>
<!-- B_:b3&#45;&gt;Lapplication/vnd.geo+json -->
<g id="edge17" class="edge">
<title>B_:b3&#45;&gt;Lapplication/vnd.geo+json</title>
<path fill="none" stroke="black" stroke-dasharray="1,5" d="M417.67,-480.07C386.38,-511.22 305.84,-591.37 264.36,-632.64"/>
<polygon fill="black" stroke="black" points="261.71,-630.34 257.09,-639.88 266.65,-635.31 261.71,-630.34"/>
<text text-anchor="middle" x="296.28" y="-563.88" font-family="Times,serif" font-size="14.00">schema:format</text>
</g>
<!-- Lhttps://samples.earth/id/do/bqs2dn2u6s73o70jdup0.geojson -->
<g id="node19" class="node">
<title>Lhttps://samples.earth/id/do/bqs2dn2u6s73o70jdup0.geojson</title>
<polygon fill="none" stroke="black" points="0,-466.27 0,-502.27 339,-502.27 339,-466.27 0,-466.27"/>
<text text-anchor="middle" x="169.5" y="-480.57" font-family="Times,serif" font-size="14.00">https://samples.earth/id/do/bqs2dn2u6s73o70jdup0.geojson</text>
</g>
<!-- B_:b3&#45;&gt;Lhttps://samples.earth/id/do/bqs2dn2u6s73o70jdup0.geojson -->
<g id="edge18" class="edge">
<title>B_:b3&#45;&gt;Lhttps://samples.earth/id/do/bqs2dn2u6s73o70jdup0.geojson</title>
<path fill="none" stroke="black" stroke-dasharray="1,5" d="M412.2,-468.45C397.39,-469.42 374.9,-470.88 349.47,-472.54"/>
<polygon fill="black" stroke="black" points="348.94,-469.07 339.19,-473.21 349.4,-476.05 348.94,-469.07"/>
<text text-anchor="middle" x="375.52" y="-459.64" font-family="Times,serif" font-size="14.00">schema:url</text>
</g>
<!-- Rschema:GeoCoordinates -->
<g id="node13" class="node">
<title>Rschema:GeoCoordinates</title>
<ellipse fill="none" stroke="blue" cx="999.85" cy="-1282.91" rx="96.68" ry="18"/>
<text text-anchor="middle" x="999.85" y="-1279.21" font-family="Times,serif" font-size="14.00">schema:GeoCoordinates</text>
</g>
<!-- B_:b2&#45;&gt;Rschema:GeoCoordinates -->
<g id="edge12" class="edge">
<title>B_:b2&#45;&gt;Rschema:GeoCoordinates</title>
<path fill="none" stroke="black" stroke-dasharray="1,5" d="M788.16,-1141.99C824.06,-1165.89 914.71,-1226.23 964.96,-1259.68"/>
<polygon fill="black" stroke="black" points="963.29,-1262.78 973.55,-1265.4 967.17,-1256.95 963.29,-1262.78"/>
<text text-anchor="middle" x="856.51" y="-1207.6" font-family="Times,serif" font-size="14.00">rdfs:type</text>
</g>
<!-- L&#45;18|Datatype: XMLSchema#integer -->
<g id="node14" class="node">
<title>L&#45;18|Datatype: XMLSchema#integer</title>
<polygon fill="none" stroke="black" points="653.09,-1362.01 653.09,-1398.01 879.09,-1398.01 879.09,-1362.01 653.09,-1362.01"/>
<text text-anchor="middle" x="670.59" y="-1376.31" font-family="Times,serif" font-size="14.00">&#45;18</text>
<polyline fill="none" stroke="black" points="688.09,-1362.01 688.09,-1398.01 "/>
<text text-anchor="middle" x="783.59" y="-1376.31" font-family="Times,serif" font-size="14.00">Datatype: XMLSchema#integer</text>
</g>
<!-- B_:b2&#45;&gt;L&#45;18|Datatype: XMLSchema#integer -->
<g id="edge13" class="edge">
<title>B_:b2&#45;&gt;L&#45;18|Datatype: XMLSchema#integer</title>
<path fill="none" stroke="black" stroke-dasharray="1,5" d="M772.41,-1150.09C771.24,-1192.94 768.28,-1300.22 766.87,-1351.65"/>
<polygon fill="black" stroke="black" points="763.37,-1351.64 766.59,-1361.73 770.37,-1351.83 763.37,-1351.64"/>
<text text-anchor="middle" x="726.51" y="-1259.61" font-family="Times,serif" font-size="14.00">schema:latitude</text>
</g>
<!-- L&#45;76|Datatype: XMLSchema#integer -->
<g id="node15" class="node">
<title>L&#45;76|Datatype: XMLSchema#integer</title>
<polygon fill="none" stroke="black" points="433.29,-1256.63 433.29,-1292.63 659.29,-1292.63 659.29,-1256.63 433.29,-1256.63"/>
<text text-anchor="middle" x="450.79" y="-1270.93" font-family="Times,serif" font-size="14.00">&#45;76</text>
<polyline fill="none" stroke="black" points="468.29,-1256.63 468.29,-1292.63 "/>
<text text-anchor="middle" x="563.79" y="-1270.93" font-family="Times,serif" font-size="14.00">Datatype: XMLSchema#integer</text>
</g>
<!-- B_:b2&#45;&gt;L&#45;76|Datatype: XMLSchema#integer -->
<g id="edge14" class="edge">
<title>B_:b2&#45;&gt;L&#45;76|Datatype: XMLSchema#integer</title>
<path fill="none" stroke="black" stroke-dasharray="1,5" d="M757.34,-1141.66C721.87,-1164 634.25,-1219.21 583.77,-1251.01"/>
<polygon fill="black" stroke="black" points="581.69,-1248.19 575.09,-1256.48 585.42,-1254.11 581.69,-1248.19"/>
<text text-anchor="middle" x="617.69" y="-1202.88" font-family="Times,serif" font-size="14.00">schema:longitude</text>
</g>
</g>
</svg>
