<?xml version="1.0" encoding="UTF-8" standalone="no"?>
<!DOCTYPE svg PUBLIC "-//W3C//DTD SVG 1.1//EN"
 "http://www.w3.org/Graphics/SVG/1.1/DTD/svg11.dtd">
<!-- Generated by graphviz version 2.43.0 (0)
 -->
<!-- Title: %3 Pages: 1 -->
<svg width="897pt" height="858pt"
 viewBox="0.00 0.00 896.75 858.30" xmlns="http://www.w3.org/2000/svg" xmlns:xlink="http://www.w3.org/1999/xlink">
<g id="graph0" class="graph" transform="scale(1 1) rotate(0) translate(4 854.3)">
<title>%3</title>
<polygon fill="white" stroke="transparent" points="-4,4 -4,-854.3 892.75,-854.3 892.75,4 -4,4"/>
<text text-anchor="middle" x="444.38" y="-22.8" font-family="Times,serif" font-size="14.00">Model:</text>
<text text-anchor="middle" x="444.38" y="-7.8" font-family="Times,serif" font-size="14.00">https://iode.org/</text>
<!-- Rhttps://example.org/id/XYZ -->
<g id="node1" class="node">
<title>Rhttps://example.org/id/XYZ</title>
<ellipse fill="none" stroke="blue" cx="260.92" cy="-616.24" rx="109.38" ry="18"/>
<text text-anchor="middle" x="260.92" y="-612.54" font-family="Times,serif" font-size="14.00">https://example.org/id/XYZ</text>
</g>
<!-- Rschema:Dataset -->
<g id="node2" class="node">
<title>Rschema:Dataset</title>
<ellipse fill="none" stroke="blue" cx="234.76" cy="-832.3" rx="66.09" ry="18"/>
<text text-anchor="middle" x="234.76" y="-828.6" font-family="Times,serif" font-size="14.00">schema:Dataset</text>
</g>
<!-- Rhttps://example.org/id/XYZ&#45;&gt;Rschema:Dataset -->
<g id="edge1" class="edge">
<title>Rhttps://example.org/id/XYZ&#45;&gt;Rschema:Dataset</title>
<path fill="none" stroke="black" stroke-dasharray="1,5" d="M258.73,-634.29C254.17,-671.94 243.62,-759.09 238.16,-804.17"/>
<polygon fill="black" stroke="black" points="234.68,-803.8 236.95,-814.15 241.63,-804.64 234.68,-803.8"/>
<text text-anchor="middle" x="223.33" y="-728.16" font-family="Times,serif" font-size="14.00">rdfs:type</text>
</g>
<!-- LData set name -->
<g id="node3" class="node">
<title>LData set name</title>
<polygon fill="none" stroke="black" points="0,-563.72 0,-599.72 95,-599.72 95,-563.72 0,-563.72"/>
<text text-anchor="middle" x="47.5" y="-578.02" font-family="Times,serif" font-size="14.00">Data set name</text>
</g>
<!-- Rhttps://example.org/id/XYZ&#45;&gt;LData set name -->
<g id="edge2" class="edge">
<title>Rhttps://example.org/id/XYZ&#45;&gt;LData set name</title>
<path fill="none" stroke="black" stroke-dasharray="1,5" d="M182.96,-603.63C157.23,-599.46 129.08,-594.91 105.15,-591.04"/>
<polygon fill="black" stroke="black" points="105.6,-587.57 95.17,-589.43 104.48,-594.48 105.6,-587.57"/>
<text text-anchor="middle" x="177.04" y="-585.32" font-family="Times,serif" font-size="14.00">schema:name</text>
</g>
<!-- B_:b0 -->
<g id="node4" class="node">
<title>B_:b0</title>
<ellipse fill="none" stroke="green" cx="454.44" cy="-501.61" rx="18" ry="18"/>
</g>
<!-- Rhttps://example.org/id/XYZ&#45;&gt;B_:b0 -->
<g id="edge3" class="edge">
<title>Rhttps://example.org/id/XYZ&#45;&gt;B_:b0</title>
<path fill="none" stroke="black" stroke-dasharray="1,5" d="M290.31,-598.83C328.55,-576.18 394.67,-537.02 430.19,-515.97"/>
<polygon fill="black" stroke="black" points="432.12,-518.9 438.94,-510.79 428.55,-512.88 432.12,-518.9"/>
<text text-anchor="middle" x="298.09" y="-558.63" font-family="Times,serif" font-size="14.00">schema:spatialCoverage</text>
</g>
<!-- Rschema:Place -->
<g id="node5" class="node">
<title>Rschema:Place</title>
<ellipse fill="none" stroke="blue" cx="614.5" cy="-658.07" rx="59.29" ry="18"/>
<text text-anchor="middle" x="614.5" y="-654.37" font-family="Times,serif" font-size="14.00">schema:Place</text>
</g>
<!-- B_:b0&#45;&gt;Rschema:Place -->
<g id="edge4" class="edge">
<title>B_:b0&#45;&gt;Rschema:Place</title>
<path fill="none" stroke="black" stroke-dasharray="1,5" d="M467.53,-514.42C494.19,-540.47 555.12,-600.04 589.57,-633.71"/>
<polygon fill="black" stroke="black" points="587.31,-636.4 596.91,-640.88 592.21,-631.39 587.31,-636.4"/>
<text text-anchor="middle" x="507.85" y="-581.58" font-family="Times,serif" font-size="14.00">rdfs:type</text>
</g>
<!-- B_:b1 -->
<g id="node6" class="node">
<title>B_:b1</title>
<ellipse fill="none" stroke="green" cx="534.17" cy="-287.57" rx="18" ry="18"/>
</g>
<!-- B_:b0&#45;&gt;B_:b1 -->
<g id="edge5" class="edge">
<title>B_:b0&#45;&gt;B_:b1</title>
<path fill="none" stroke="black" stroke-dasharray="1,5" d="M460.83,-484.46C474.71,-447.18 507.72,-358.58 524.3,-314.06"/>
<polygon fill="black" stroke="black" points="527.65,-315.1 527.86,-304.51 521.09,-312.66 527.65,-315.1"/>
<text text-anchor="middle" x="461.88" y="-398.18" font-family="Times,serif" font-size="14.00">schema:geo</text>
</g>
<!-- Rschema:GeoCoordinates -->
<g id="node7" class="node">
<title>Rschema:GeoCoordinates</title>
<ellipse fill="none" stroke="blue" cx="375.84" cy="-129.97" rx="96.68" ry="18"/>
<text text-anchor="middle" x="375.84" y="-126.27" font-family="Times,serif" font-size="14.00">schema:GeoCoordinates</text>
</g>
<!-- B_:b1&#45;&gt;Rschema:GeoCoordinates -->
<g id="edge6" class="edge">
<title>B_:b1&#45;&gt;Rschema:GeoCoordinates</title>
<path fill="none" stroke="black" stroke-dasharray="1,5" d="M521.21,-274.67C494.98,-248.56 435.2,-189.05 401.03,-155.04"/>
<polygon fill="black" stroke="black" points="403.3,-152.36 393.74,-147.79 398.36,-157.32 403.3,-152.36"/>
<text text-anchor="middle" x="432.99" y="-215.04" font-family="Times,serif" font-size="14.00">rdfs:type</text>
</g>
<!-- L3.9328E1|Datatype: XMLSchema#double -->
<g id="node8" class="node">
<title>L3.9328E1|Datatype: XMLSchema#double</title>
<polygon fill="none" stroke="black" points="628.75,-278.07 628.75,-314.07 888.75,-314.07 888.75,-278.07 628.75,-278.07"/>
<text text-anchor="middle" x="663.25" y="-292.37" font-family="Times,serif" font-size="14.00">3.9328E1</text>
<polyline fill="none" stroke="black" points="697.75,-278.07 697.75,-314.07 "/>
<text text-anchor="middle" x="793.25" y="-292.37" font-family="Times,serif" font-size="14.00">Datatype: XMLSchema#double</text>
</g>
<!-- B_:b1&#45;&gt;L3.9328E1|Datatype: XMLSchema#double -->
<g id="edge7" class="edge">
<title>B_:b1&#45;&gt;L3.9328E1|Datatype: XMLSchema#double</title>
<path fill="none" stroke="black" stroke-dasharray="1,5" d="M552.17,-288.25C567.77,-288.84 591.93,-289.75 618.31,-290.75"/>
<polygon fill="black" stroke="black" points="618.39,-294.26 628.52,-291.14 618.66,-287.26 618.39,-294.26"/>
<text text-anchor="middle" x="590.46" y="-278.5" font-family="Times,serif" font-size="14.00">schema:latitude</text>
</g>
<!-- L1.201633E2|Datatype: XMLSchema#double -->
<g id="node9" class="node">
<title>L1.201633E2|Datatype: XMLSchema#double</title>
<polygon fill="none" stroke="black" points="480.7,-70.5 480.7,-106.5 754.7,-106.5 754.7,-70.5 480.7,-70.5"/>
<text text-anchor="middle" x="522.2" y="-84.8" font-family="Times,serif" font-size="14.00">1.201633E2</text>
<polyline fill="none" stroke="black" points="563.7,-70.5 563.7,-106.5 "/>
<text text-anchor="middle" x="659.2" y="-84.8" font-family="Times,serif" font-size="14.00">Datatype: XMLSchema#double</text>
</g>
<!-- B_:b1&#45;&gt;L1.201633E2|Datatype: XMLSchema#double -->
<g id="edge8" class="edge">
<title>B_:b1&#45;&gt;L1.201633E2|Datatype: XMLSchema#double</title>
<path fill="none" stroke="black" stroke-dasharray="1,5" d="M541.15,-270.94C555.52,-236.68 588.56,-157.94 606.17,-115.99"/>
<polygon fill="black" stroke="black" points="609.45,-117.23 610.09,-106.65 602.99,-114.52 609.45,-117.23"/>
<text text-anchor="middle" x="527.11" y="-192.6" font-family="Times,serif" font-size="14.00">schema:longitude</text>
</g>
</g>
</svg>
