<?xml version="1.0" encoding="UTF-8" standalone="no"?>
<!DOCTYPE svg PUBLIC "-//W3C//DTD SVG 1.1//EN"
 "http://www.w3.org/Graphics/SVG/1.1/DTD/svg11.dtd">
<!-- Generated by graphviz version 2.43.0 (0)
 -->
<!-- Title: %3 Pages: 1 -->
<svg width="1074pt" height="322pt"
 viewBox="0.00 0.00 1073.94 321.50" xmlns="http://www.w3.org/2000/svg" xmlns:xlink="http://www.w3.org/1999/xlink">
<g id="graph0" class="graph" transform="scale(1 1) rotate(0) translate(4 317.5)">
<title>%3</title>
<polygon fill="white" stroke="transparent" points="-4,4 -4,-317.5 1069.94,-317.5 1069.94,4 -4,4"/>
<text text-anchor="middle" x="532.97" y="-22.8" font-family="Times,serif" font-size="14.00">Model:</text>
<text text-anchor="middle" x="532.97" y="-7.8" font-family="Times,serif" font-size="14.00">https://iode.org/</text>
<!-- Rhttps://example.org/id/XYZ -->
<g id="node1" class="node">
<title>Rhttps://example.org/id/XYZ</title>
<ellipse fill="none" stroke="blue" cx="109.19" cy="-240.5" rx="109.38" ry="18"/>
<text text-anchor="middle" x="109.19" y="-236.8" font-family="Times,serif" font-size="14.00">https://example.org/id/XYZ</text>
</g>
<!-- Rschema:Dataset -->
<g id="node2" class="node">
<title>Rschema:Dataset</title>
<ellipse fill="none" stroke="blue" cx="453.67" cy="-295.5" rx="66.09" ry="18"/>
<text text-anchor="middle" x="453.67" y="-291.8" font-family="Times,serif" font-size="14.00">schema:Dataset</text>
</g>
<!-- Rhttps://example.org/id/XYZ&#45;&gt;Rschema:Dataset -->
<g id="edge1" class="edge">
<title>Rhttps://example.org/id/XYZ&#45;&gt;Rschema:Dataset</title>
<path fill="none" stroke="black" stroke-dasharray="1,5" d="M187.91,-252.98C247.76,-262.59 329.61,-275.74 386.39,-284.86"/>
<polygon fill="black" stroke="black" points="385.91,-288.32 396.34,-286.45 387.02,-281.41 385.91,-288.32"/>
<text text-anchor="middle" x="302.88" y="-284.3" font-family="Times,serif" font-size="14.00">rdfs:type</text>
</g>
<!-- LData set name -->
<g id="node3" class="node">
<title>LData set name</title>
<polygon fill="none" stroke="black" points="406.17,-222.5 406.17,-258.5 501.17,-258.5 501.17,-222.5 406.17,-222.5"/>
<text text-anchor="middle" x="453.67" y="-236.8" font-family="Times,serif" font-size="14.00">Data set name</text>
</g>
<!-- Rhttps://example.org/id/XYZ&#45;&gt;LData set name -->
<g id="edge2" class="edge">
<title>Rhttps://example.org/id/XYZ&#45;&gt;LData set name</title>
<path fill="none" stroke="black" stroke-dasharray="1,5" d="M218.55,-240.5C277.34,-240.5 347.61,-240.5 395.73,-240.5"/>
<polygon fill="black" stroke="black" points="395.95,-244 405.95,-240.5 395.95,-237 395.95,-244"/>
<text text-anchor="middle" x="302.88" y="-244.3" font-family="Times,serif" font-size="14.00">schema:name</text>
</g>
<!-- B_:b0 -->
<g id="node4" class="node">
<title>B_:b0</title>
<ellipse fill="none" stroke="green" cx="453.67" cy="-185.5" rx="18" ry="18"/>
</g>
<!-- Rhttps://example.org/id/XYZ&#45;&gt;B_:b0 -->
<g id="edge3" class="edge">
<title>Rhttps://example.org/id/XYZ&#45;&gt;B_:b0</title>
<path fill="none" stroke="black" stroke-dasharray="1,5" d="M187.91,-228.02C263.66,-215.85 374.64,-198.03 425.45,-189.87"/>
<polygon fill="black" stroke="black" points="426.31,-193.28 435.63,-188.24 425.2,-186.37 426.31,-193.28"/>
<text text-anchor="middle" x="302.88" y="-223.3" font-family="Times,serif" font-size="14.00">schema:spatialCoverage</text>
</g>
<!-- Rschema:Place -->
<g id="node5" class="node">
<title>Rschema:Place</title>
<ellipse fill="none" stroke="blue" cx="680.11" cy="-212.5" rx="59.29" ry="18"/>
<text text-anchor="middle" x="680.11" y="-208.8" font-family="Times,serif" font-size="14.00">schema:Place</text>
</g>
<!-- B_:b0&#45;&gt;Rschema:Place -->
<g id="edge4" class="edge">
<title>B_:b0&#45;&gt;Rschema:Place</title>
<path fill="none" stroke="black" stroke-dasharray="1,5" d="M471.91,-187.57C502,-191.19 565.56,-198.84 614.4,-204.71"/>
<polygon fill="black" stroke="black" points="614.23,-208.22 624.58,-205.94 615.07,-201.27 614.23,-208.22"/>
<text text-anchor="middle" x="570.47" y="-206.3" font-family="Times,serif" font-size="14.00">rdfs:type</text>
</g>
<!-- B_:b1 -->
<g id="node6" class="node">
<title>B_:b1</title>
<ellipse fill="none" stroke="green" cx="680.11" cy="-158.5" rx="18" ry="18"/>
</g>
<!-- B_:b0&#45;&gt;B_:b1 -->
<g id="edge5" class="edge">
<title>B_:b0&#45;&gt;B_:b1</title>
<path fill="none" stroke="black" stroke-dasharray="1,5" d="M471.91,-183.43C510.77,-178.75 605.42,-167.37 652.13,-161.75"/>
<polygon fill="black" stroke="black" points="652.61,-165.21 662.12,-160.54 651.78,-158.26 652.61,-165.21"/>
<text text-anchor="middle" x="570.47" y="-178.3" font-family="Times,serif" font-size="14.00">schema:geo</text>
</g>
<!-- Rschema:GeoCoordinates -->
<g id="node7" class="node">
<title>Rschema:GeoCoordinates</title>
<ellipse fill="none" stroke="blue" cx="969.1" cy="-218.5" rx="96.68" ry="18"/>
<text text-anchor="middle" x="969.1" y="-214.8" font-family="Times,serif" font-size="14.00">schema:GeoCoordinates</text>
</g>
<!-- B_:b1&#45;&gt;Rschema:GeoCoordinates -->
<g id="edge6" class="edge">
<title>B_:b1&#45;&gt;Rschema:GeoCoordinates</title>
<path fill="none" stroke="black" stroke-dasharray="1,5" d="M697.69,-162.9C713.08,-166.93 736.64,-172.93 757.26,-177.5 800.72,-187.14 849.5,-196.71 889.18,-204.17"/>
<polygon fill="black" stroke="black" points="888.59,-207.62 899.07,-206.02 889.88,-200.74 888.59,-207.62"/>
<text text-anchor="middle" x="805.76" y="-200.3" font-family="Times,serif" font-size="14.00">rdfs:type</text>
</g>
<!-- L3.9328E1|Datatype: XMLSchema#double -->
<g id="node8" class="node">
<title>L3.9328E1|Datatype: XMLSchema#double</title>
<polygon fill="none" stroke="black" points="873.6,-135.5 873.6,-181.5 1064.6,-181.5 1064.6,-135.5 873.6,-135.5"/>
<text text-anchor="middle" x="969.1" y="-166.3" font-family="Times,serif" font-size="14.00">3.9328E1</text>
<polyline fill="none" stroke="black" points="873.6,-158.5 1064.6,-158.5 "/>
<text text-anchor="middle" x="969.1" y="-143.3" font-family="Times,serif" font-size="14.00">Datatype: XMLSchema#double</text>
</g>
<!-- B_:b1&#45;&gt;L3.9328E1|Datatype: XMLSchema#double -->
<g id="edge7" class="edge">
<title>B_:b1&#45;&gt;L3.9328E1|Datatype: XMLSchema#double</title>
<path fill="none" stroke="black" stroke-dasharray="1,5" d="M698.21,-158.5C730.33,-158.5 802,-158.5 863.41,-158.5"/>
<polygon fill="black" stroke="black" points="863.56,-162 873.56,-158.5 863.56,-155 863.56,-162"/>
<text text-anchor="middle" x="805.76" y="-162.3" font-family="Times,serif" font-size="14.00">schema:latitude</text>
</g>
<!-- L1.201633E2|Datatype: XMLSchema#double -->
<g id="node9" class="node">
<title>L1.201633E2|Datatype: XMLSchema#double</title>
<polygon fill="none" stroke="black" points="873.6,-70.5 873.6,-116.5 1064.6,-116.5 1064.6,-70.5 873.6,-70.5"/>
<text text-anchor="middle" x="969.1" y="-101.3" font-family="Times,serif" font-size="14.00">1.201633E2</text>
<polyline fill="none" stroke="black" points="873.6,-93.5 1064.6,-93.5 "/>
<text text-anchor="middle" x="969.1" y="-78.3" font-family="Times,serif" font-size="14.00">Datatype: XMLSchema#double</text>
</g>
<!-- B_:b1&#45;&gt;L1.201633E2|Datatype: XMLSchema#double -->
<g id="edge8" class="edge">
<title>B_:b1&#45;&gt;L1.201633E2|Datatype: XMLSchema#double</title>
<path fill="none" stroke="black" stroke-dasharray="1,5" d="M697.72,-154.21C713.12,-150.26 736.69,-144.31 757.26,-139.5 791.79,-131.43 829.61,-123.03 863.57,-115.66"/>
<polygon fill="black" stroke="black" points="864.47,-119.05 873.5,-113.51 862.99,-112.21 864.47,-119.05"/>
<text text-anchor="middle" x="805.76" y="-143.3" font-family="Times,serif" font-size="14.00">schema:longitude</text>
</g>
</g>
</svg>
