<?xml version="1.0" encoding="UTF-8" standalone="no"?>
<!DOCTYPE svg PUBLIC "-//W3C//DTD SVG 1.1//EN"
 "http://www.w3.org/Graphics/SVG/1.1/DTD/svg11.dtd">
<!-- Generated by graphviz version 2.43.0 (0)
 -->
<!-- Title: %3 Pages: 1 -->
<svg width="1440pt" height="825pt"
 viewBox="0.00 0.00 1439.52 825.00" xmlns="http://www.w3.org/2000/svg" xmlns:xlink="http://www.w3.org/1999/xlink">
<g id="graph0" class="graph" transform="scale(1 1) rotate(0) translate(4 821)">
<title>%3</title>
<polygon fill="white" stroke="transparent" points="-4,4 -4,-821 1435.52,-821 1435.52,4 -4,4"/>
<text text-anchor="middle" x="715.76" y="-22.8" font-family="Times,serif" font-size="14.00">Model:</text>
<text text-anchor="middle" x="715.76" y="-7.8" font-family="Times,serif" font-size="14.00">https://iode.org/</text>
<!-- Rfile:///home/fils/src/git/odis&#45;arch/schema/thematics/expinst/graphs/ID_value_string -->
<g id="node1" class="node">
<title>Rfile:///home/fils/src/git/odis&#45;arch/schema/thematics/expinst/graphs/ID_value_string</title>
<ellipse fill="none" stroke="blue" cx="739.35" cy="-688.5" rx="304.35" ry="18"/>
<text text-anchor="middle" x="739.35" y="-684.8" font-family="Times,serif" font-size="14.00">file:///home/fils/src/git/odis&#45;arch/schema/thematics/expinst/graphs/ID_value_string</text>
</g>
<!-- Rschema:PropertyValue -->
<g id="node2" class="node">
<title>Rschema:PropertyValue</title>
<ellipse fill="none" stroke="blue" cx="1321.02" cy="-633.5" rx="90.18" ry="18"/>
<text text-anchor="middle" x="1321.02" y="-629.8" font-family="Times,serif" font-size="14.00">schema:PropertyValue</text>
</g>
<!-- Rfile:///home/fils/src/git/odis&#45;arch/schema/thematics/expinst/graphs/ID_value_string&#45;&gt;Rschema:PropertyValue -->
<g id="edge1" class="edge">
<title>Rfile:///home/fils/src/git/odis&#45;arch/schema/thematics/expinst/graphs/ID_value_string&#45;&gt;Rschema:PropertyValue</title>
<path fill="none" stroke="black" stroke-dasharray="1,5" d="M901.05,-673.25C1006.76,-663.22 1141.29,-650.46 1228.97,-642.14"/>
<polygon fill="black" stroke="black" points="1229.54,-645.6 1239.16,-641.17 1228.88,-638.63 1229.54,-645.6"/>
<text text-anchor="middle" x="1127.02" y="-661.3" font-family="Times,serif" font-size="14.00">rdfs:type</text>
</g>
<!-- LOptional description of the ID -->
<g id="node3" class="node">
<title>LOptional description of the ID</title>
<polygon fill="none" stroke="black" points="1230.52,-780.5 1230.52,-816.5 1411.52,-816.5 1411.52,-780.5 1230.52,-780.5"/>
<text text-anchor="middle" x="1321.02" y="-794.8" font-family="Times,serif" font-size="14.00">Optional description of the ID</text>
</g>
<!-- Rfile:///home/fils/src/git/odis&#45;arch/schema/thematics/expinst/graphs/ID_value_string&#45;&gt;LOptional description of the ID -->
<g id="edge2" class="edge">
<title>Rfile:///home/fils/src/git/odis&#45;arch/schema/thematics/expinst/graphs/ID_value_string&#45;&gt;LOptional description of the ID</title>
<path fill="none" stroke="black" stroke-dasharray="1,5" d="M830.92,-705.69C936.53,-725.73 1110.53,-758.75 1220.02,-779.52"/>
<polygon fill="black" stroke="black" points="1219.61,-783.01 1230.08,-781.43 1220.91,-776.13 1219.61,-783.01"/>
<text text-anchor="middle" x="1127.02" y="-775.3" font-family="Times,serif" font-size="14.00">schema:description</text>
</g>
<!-- Lthis can be text or URL.. -->
<g id="node4" class="node">
<title>Lthis can be text or URL..</title>
<polygon fill="none" stroke="black" points="1245.02,-725.5 1245.02,-761.5 1397.02,-761.5 1397.02,-725.5 1245.02,-725.5"/>
<text text-anchor="middle" x="1321.02" y="-739.8" font-family="Times,serif" font-size="14.00">this can be text or URL..</text>
</g>
<!-- Rfile:///home/fils/src/git/odis&#45;arch/schema/thematics/expinst/graphs/ID_value_string&#45;&gt;Lthis can be text or URL.. -->
<g id="edge3" class="edge">
<title>Rfile:///home/fils/src/git/odis&#45;arch/schema/thematics/expinst/graphs/ID_value_string&#45;&gt;Lthis can be text or URL..</title>
<path fill="none" stroke="black" stroke-dasharray="1,5" d="M901.05,-703.75C1009.02,-713.99 1147.04,-727.09 1234.52,-735.39"/>
<polygon fill="black" stroke="black" points="1234.38,-738.89 1244.67,-736.35 1235.04,-731.92 1234.38,-738.89"/>
<text text-anchor="middle" x="1127.02" y="-733.3" font-family="Times,serif" font-size="14.00">schema:propertyID</text>
</g>
<!-- Lhttps://foo.org/linkToPropertyIDPage -->
<g id="node5" class="node">
<title>Lhttps://foo.org/linkToPropertyIDPage</title>
<polygon fill="none" stroke="black" points="1210.52,-670.5 1210.52,-706.5 1431.52,-706.5 1431.52,-670.5 1210.52,-670.5"/>
<text text-anchor="middle" x="1321.02" y="-684.8" font-family="Times,serif" font-size="14.00">https://foo.org/linkToPropertyIDPage</text>
</g>
<!-- Rfile:///home/fils/src/git/odis&#45;arch/schema/thematics/expinst/graphs/ID_value_string&#45;&gt;Lhttps://foo.org/linkToPropertyIDPage -->
<g id="edge4" class="edge">
<title>Rfile:///home/fils/src/git/odis&#45;arch/schema/thematics/expinst/graphs/ID_value_string&#45;&gt;Lhttps://foo.org/linkToPropertyIDPage</title>
<path fill="none" stroke="black" stroke-dasharray="1,5" d="M1043.77,-688.5C1099.28,-688.5 1154.14,-688.5 1200.15,-688.5"/>
<polygon fill="black" stroke="black" points="1200.43,-692 1210.43,-688.5 1200.43,-685 1200.43,-692"/>
<text text-anchor="middle" x="1127.02" y="-692.3" font-family="Times,serif" font-size="14.00">schema:url</text>
</g>
<!-- Rhttps://link.to/PID_like_re3_or_others -->
<g id="node6" class="node">
<title>Rhttps://link.to/PID_like_re3_or_others</title>
<ellipse fill="none" stroke="blue" cx="145.59" cy="-362.5" rx="145.67" ry="18"/>
<text text-anchor="middle" x="145.59" y="-358.8" font-family="Times,serif" font-size="14.00">https://link.to/PID_like_re3_or_others</text>
</g>
<!-- Rhttps://link.to/PID_like_re3_or_others&#45;&gt;Rfile:///home/fils/src/git/odis&#45;arch/schema/thematics/expinst/graphs/ID_value_string -->
<g id="edge11" class="edge">
<title>Rhttps://link.to/PID_like_re3_or_others&#45;&gt;Rfile:///home/fils/src/git/odis&#45;arch/schema/thematics/expinst/graphs/ID_value_string</title>
<path fill="none" stroke="black" stroke-dasharray="1,5" d="M152.56,-380.73C169.05,-427.92 219.98,-554.48 309.17,-613.5 357.62,-645.56 415.63,-665.13 473.11,-676.82"/>
<polygon fill="black" stroke="black" points="472.59,-680.29 483.07,-678.77 473.93,-673.42 472.59,-680.29"/>
<text text-anchor="middle" x="363.17" y="-665.3" font-family="Times,serif" font-size="14.00">schema:identifier</text>
</g>
<!-- Rschema:Organization -->
<g id="node7" class="node">
<title>Rschema:Organization</title>
<ellipse fill="none" stroke="blue" cx="1321.02" cy="-579.5" rx="85.59" ry="18"/>
<text text-anchor="middle" x="1321.02" y="-575.8" font-family="Times,serif" font-size="14.00">schema:Organization</text>
</g>
<!-- Rhttps://link.to/PID_like_re3_or_others&#45;&gt;Rschema:Organization -->
<g id="edge5" class="edge">
<title>Rhttps://link.to/PID_like_re3_or_others&#45;&gt;Rschema:Organization</title>
<path fill="none" stroke="black" stroke-dasharray="1,5" d="M160.58,-380.6C186.58,-413.16 245.55,-481.97 309.17,-522.5 359.58,-554.61 376.5,-558.14 435.17,-569.5 723.71,-625.37 1075.12,-603.33 1234.32,-588.61"/>
<polygon fill="black" stroke="black" points="1234.9,-592.08 1244.53,-587.66 1234.24,-585.11 1234.9,-592.08"/>
<text text-anchor="middle" x="739.35" y="-609.3" font-family="Times,serif" font-size="14.00">rdfs:type</text>
</g>
<!-- B_:b0 -->
<g id="node8" class="node">
<title>B_:b0</title>
<ellipse fill="none" stroke="green" cx="739.35" cy="-416.5" rx="18" ry="18"/>
</g>
<!-- Rhttps://link.to/PID_like_re3_or_others&#45;&gt;B_:b0 -->
<g id="edge6" class="edge">
<title>Rhttps://link.to/PID_like_re3_or_others&#45;&gt;B_:b0</title>
<path fill="none" stroke="black" stroke-dasharray="1,5" d="M249.74,-375.1C269.46,-377.36 289.94,-379.59 309.17,-381.5 460.68,-396.53 642.75,-409.8 710.86,-414.59"/>
<polygon fill="black" stroke="black" points="710.94,-418.11 721.16,-415.31 711.43,-411.12 710.94,-418.11"/>
<text text-anchor="middle" x="363.17" y="-394.3" font-family="Times,serif" font-size="14.00">schema:address</text>
</g>
<!-- B_:b1 -->
<g id="node9" class="node">
<title>B_:b1</title>
<ellipse fill="none" stroke="green" cx="739.35" cy="-362.5" rx="18" ry="18"/>
</g>
<!-- Rhttps://link.to/PID_like_re3_or_others&#45;&gt;B_:b1 -->
<g id="edge7" class="edge">
<title>Rhttps://link.to/PID_like_re3_or_others&#45;&gt;B_:b1</title>
<path fill="none" stroke="black" stroke-dasharray="1,5" d="M291.35,-362.5C432.92,-362.5 637.6,-362.5 710.93,-362.5"/>
<polygon fill="black" stroke="black" points="711.16,-366 721.16,-362.5 711.16,-359 711.16,-366"/>
<text text-anchor="middle" x="363.17" y="-366.3" font-family="Times,serif" font-size="14.00">schema:alumni</text>
</g>
<!-- B_:b2 -->
<g id="node10" class="node">
<title>B_:b2</title>
<ellipse fill="none" stroke="green" cx="739.35" cy="-308.5" rx="18" ry="18"/>
</g>
<!-- Rhttps://link.to/PID_like_re3_or_others&#45;&gt;B_:b2 -->
<g id="edge8" class="edge">
<title>Rhttps://link.to/PID_like_re3_or_others&#45;&gt;B_:b2</title>
<path fill="none" stroke="black" stroke-dasharray="1,5" d="M249.74,-349.9C269.46,-347.64 289.94,-345.41 309.17,-343.5 460.68,-328.47 642.75,-315.2 710.86,-310.41"/>
<polygon fill="black" stroke="black" points="711.43,-313.88 721.16,-309.69 710.94,-306.89 711.43,-313.88"/>
<text text-anchor="middle" x="363.17" y="-347.3" font-family="Times,serif" font-size="14.00">schema:alumni</text>
</g>
<!-- Lsecretariat(at)foo.org -->
<g id="node11" class="node">
<title>Lsecretariat(at)foo.org</title>
<polygon fill="none" stroke="black" points="673.85,-235.5 673.85,-271.5 804.85,-271.5 804.85,-235.5 673.85,-235.5"/>
<text text-anchor="middle" x="739.35" y="-249.8" font-family="Times,serif" font-size="14.00">secretariat(at)foo.org</text>
</g>
<!-- Rhttps://link.to/PID_like_re3_or_others&#45;&gt;Lsecretariat(at)foo.org -->
<g id="edge9" class="edge">
<title>Rhttps://link.to/PID_like_re3_or_others&#45;&gt;Lsecretariat(at)foo.org</title>
<path fill="none" stroke="black" stroke-dasharray="1,5" d="M201.4,-345.86C232.87,-336.42 273.17,-324.53 309.17,-314.5 364.94,-298.97 378.16,-291.53 435.17,-281.5 512.47,-267.9 602.1,-260.66 663.74,-256.97"/>
<polygon fill="black" stroke="black" points="663.99,-260.46 673.77,-256.39 663.58,-253.48 663.99,-260.46"/>
<text text-anchor="middle" x="363.17" y="-318.3" font-family="Times,serif" font-size="14.00">schema:email</text>
</g>
<!-- L( 33 1) 42 68 53 01 -->
<g id="node12" class="node">
<title>L( 33 1) 42 68 53 01</title>
<polygon fill="none" stroke="black" points="678.35,-180.5 678.35,-216.5 800.35,-216.5 800.35,-180.5 678.35,-180.5"/>
<text text-anchor="middle" x="739.35" y="-194.8" font-family="Times,serif" font-size="14.00">( 33 1) 42 68 53 01</text>
</g>
<!-- Rhttps://link.to/PID_like_re3_or_others&#45;&gt;L( 33 1) 42 68 53 01 -->
<g id="edge10" class="edge">
<title>Rhttps://link.to/PID_like_re3_or_others&#45;&gt;L( 33 1) 42 68 53 01</title>
<path fill="none" stroke="black" stroke-dasharray="1,5" d="M172.02,-344.71C203.18,-323.55 258.13,-288.24 309.17,-265.5 427.62,-212.74 580.56,-200.63 668.23,-198.36"/>
<polygon fill="black" stroke="black" points="668.41,-201.86 678.33,-198.14 668.26,-194.86 668.41,-201.86"/>
<text text-anchor="middle" x="363.17" y="-269.3" font-family="Times,serif" font-size="14.00">schema:faxNumber</text>
</g>
<!-- B_:b3 -->
<g id="node13" class="node">
<title>B_:b3</title>
<ellipse fill="none" stroke="green" cx="739.35" cy="-542.5" rx="18" ry="18"/>
</g>
<!-- Rhttps://link.to/PID_like_re3_or_others&#45;&gt;B_:b3 -->
<g id="edge12" class="edge">
<title>Rhttps://link.to/PID_like_re3_or_others&#45;&gt;B_:b3</title>
<path fill="none" stroke="black" stroke-dasharray="1,5" d="M173.8,-380.26C205.54,-400.58 259.95,-434.17 309.17,-458.5 363.33,-485.27 376.59,-494.76 435.17,-509.5 534.85,-534.58 657.69,-540.6 711.24,-542.04"/>
<polygon fill="black" stroke="black" points="711.22,-545.54 721.3,-542.28 711.38,-538.55 711.22,-545.54"/>
<text text-anchor="middle" x="363.17" y="-507.3" font-family="Times,serif" font-size="14.00">schema:member</text>
</g>
<!-- B_:b4 -->
<g id="node14" class="node">
<title>B_:b4</title>
<ellipse fill="none" stroke="green" cx="739.35" cy="-482.5" rx="18" ry="18"/>
</g>
<!-- Rhttps://link.to/PID_like_re3_or_others&#45;&gt;B_:b4 -->
<g id="edge13" class="edge">
<title>Rhttps://link.to/PID_like_re3_or_others&#45;&gt;B_:b4</title>
<path fill="none" stroke="black" stroke-dasharray="1,5" d="M202.95,-379.06C234.21,-388.18 273.8,-399.62 309.17,-409.5 365.04,-425.11 378.28,-432.22 435.17,-443.5 535.98,-463.49 657.77,-475.55 711.1,-480.24"/>
<polygon fill="black" stroke="black" points="710.86,-483.74 721.12,-481.11 711.46,-476.76 710.86,-483.74"/>
<text text-anchor="middle" x="363.17" y="-443.3" font-family="Times,serif" font-size="14.00">schema:member</text>
</g>
<!-- LFoo Inc. -->
<g id="node15" class="node">
<title>LFoo Inc.</title>
<polygon fill="none" stroke="black" points="708.35,-125.5 708.35,-161.5 770.35,-161.5 770.35,-125.5 708.35,-125.5"/>
<text text-anchor="middle" x="739.35" y="-139.8" font-family="Times,serif" font-size="14.00">Foo Inc.</text>
</g>
<!-- Rhttps://link.to/PID_like_re3_or_others&#45;&gt;LFoo Inc. -->
<g id="edge14" class="edge">
<title>Rhttps://link.to/PID_like_re3_or_others&#45;&gt;LFoo Inc.</title>
<path fill="none" stroke="black" stroke-dasharray="1,5" d="M161.24,-344.42C187.63,-313 246.28,-248.18 309.17,-211.5 436.09,-137.49 618.29,-136.73 698.2,-140.61"/>
<polygon fill="black" stroke="black" points="698.16,-144.11 708.33,-141.15 698.54,-137.12 698.16,-144.11"/>
<text text-anchor="middle" x="363.17" y="-215.3" font-family="Times,serif" font-size="14.00">schema:name</text>
</g>
<!-- L( 33 1) 42 68 53 00 -->
<g id="node16" class="node">
<title>L( 33 1) 42 68 53 00</title>
<polygon fill="none" stroke="black" points="678.35,-70.5 678.35,-106.5 800.35,-106.5 800.35,-70.5 678.35,-70.5"/>
<text text-anchor="middle" x="739.35" y="-84.8" font-family="Times,serif" font-size="14.00">( 33 1) 42 68 53 00</text>
</g>
<!-- Rhttps://link.to/PID_like_re3_or_others&#45;&gt;L( 33 1) 42 68 53 00 -->
<g id="edge15" class="edge">
<title>Rhttps://link.to/PID_like_re3_or_others&#45;&gt;L( 33 1) 42 68 53 00</title>
<path fill="none" stroke="black" stroke-dasharray="1,5" d="M155.33,-344.26C176.02,-303.1 232.09,-202.53 309.17,-150.5 417.77,-77.2 577.07,-74.91 667.94,-80.96"/>
<polygon fill="black" stroke="black" points="667.91,-84.46 678.14,-81.69 668.41,-77.48 667.91,-84.46"/>
<text text-anchor="middle" x="363.17" y="-154.3" font-family="Times,serif" font-size="14.00">schema:telephone</text>
</g>
<!-- Rschema:PostalAddress -->
<g id="node17" class="node">
<title>Rschema:PostalAddress</title>
<ellipse fill="none" stroke="blue" cx="1321.02" cy="-359.5" rx="90.18" ry="18"/>
<text text-anchor="middle" x="1321.02" y="-355.8" font-family="Times,serif" font-size="14.00">schema:PostalAddress</text>
</g>
<!-- B_:b0&#45;&gt;Rschema:PostalAddress -->
<g id="edge16" class="edge">
<title>B_:b0&#45;&gt;Rschema:PostalAddress</title>
<path fill="none" stroke="black" stroke-dasharray="1,5" d="M757.45,-415.09C803.63,-411.27 934.67,-400.25 1043.52,-389.5 1106.74,-383.26 1178,-375.51 1232.35,-369.45"/>
<polygon fill="black" stroke="black" points="1232.75,-372.93 1242.29,-368.34 1231.97,-365.97 1232.75,-372.93"/>
<text text-anchor="middle" x="1127.02" y="-390.3" font-family="Times,serif" font-size="14.00">rdfs:type</text>
</g>
<!-- LParis, France -->
<g id="node18" class="node">
<title>LParis, France</title>
<polygon fill="none" stroke="black" points="1277.02,-506.5 1277.02,-542.5 1365.02,-542.5 1365.02,-506.5 1277.02,-506.5"/>
<text text-anchor="middle" x="1321.02" y="-520.8" font-family="Times,serif" font-size="14.00">Paris, France</text>
</g>
<!-- B_:b0&#45;&gt;LParis, France -->
<g id="edge17" class="edge">
<title>B_:b0&#45;&gt;LParis, France</title>
<path fill="none" stroke="black" stroke-dasharray="1,5" d="M757.39,-415.29C805.05,-412.61 942.82,-409.65 1043.52,-455.5 1053.26,-459.94 1051.92,-466.77 1061.52,-471.5 1114.69,-497.69 1134.46,-484.59 1192.52,-496.5 1217.08,-501.54 1244.22,-507.45 1267.13,-512.54"/>
<polygon fill="black" stroke="black" points="1266.48,-515.98 1277,-514.74 1268,-509.15 1266.48,-515.98"/>
<text text-anchor="middle" x="1127.02" y="-500.3" font-family="Times,serif" font-size="14.00">schema:addressLocality</text>
</g>
<!-- LF&#45;75002 -->
<g id="node19" class="node">
<title>LF&#45;75002</title>
<polygon fill="none" stroke="black" points="1290.02,-451.5 1290.02,-487.5 1352.02,-487.5 1352.02,-451.5 1290.02,-451.5"/>
<text text-anchor="middle" x="1321.02" y="-465.8" font-family="Times,serif" font-size="14.00">F&#45;75002</text>
</g>
<!-- B_:b0&#45;&gt;LF&#45;75002 -->
<g id="edge18" class="edge">
<title>B_:b0&#45;&gt;LF&#45;75002</title>
<path fill="none" stroke="black" stroke-dasharray="1,5" d="M757.6,-417.94C817.66,-422.98 1023.06,-440.37 1192.52,-456.5 1221.69,-459.28 1254.59,-462.64 1279.66,-465.25"/>
<polygon fill="black" stroke="black" points="1279.58,-468.76 1289.89,-466.31 1280.31,-461.79 1279.58,-468.76"/>
<text text-anchor="middle" x="1127.02" y="-460.3" font-family="Times,serif" font-size="14.00">schema:postalCode</text>
</g>
<!-- L38 avenue de l&#39;Opera -->
<g id="node20" class="node">
<title>L38 avenue de l&#39;Opera</title>
<polygon fill="none" stroke="black" points="1255.52,-396.5 1255.52,-432.5 1386.52,-432.5 1386.52,-396.5 1255.52,-396.5"/>
<text text-anchor="middle" x="1321.02" y="-410.8" font-family="Times,serif" font-size="14.00">38 avenue de l&#39;Opera</text>
</g>
<!-- B_:b0&#45;&gt;L38 avenue de l&#39;Opera -->
<g id="edge19" class="edge">
<title>B_:b0&#45;&gt;L38 avenue de l&#39;Opera</title>
<path fill="none" stroke="black" stroke-dasharray="1,5" d="M757.38,-416.44C829.1,-416.19 1109.05,-415.23 1245.05,-414.76"/>
<polygon fill="black" stroke="black" points="1245.39,-418.26 1255.38,-414.72 1245.37,-411.26 1245.39,-418.26"/>
<text text-anchor="middle" x="1127.02" y="-418.3" font-family="Times,serif" font-size="14.00">schema:streetAddress</text>
</g>
<!-- Rschema:Person -->
<g id="node21" class="node">
<title>Rschema:Person</title>
<ellipse fill="none" stroke="blue" cx="1321.02" cy="-249.5" rx="63.89" ry="18"/>
<text text-anchor="middle" x="1321.02" y="-245.8" font-family="Times,serif" font-size="14.00">schema:Person</text>
</g>
<!-- B_:b1&#45;&gt;Rschema:Person -->
<g id="edge20" class="edge">
<title>B_:b1&#45;&gt;Rschema:Person</title>
<path fill="none" stroke="black" stroke-dasharray="1,5" d="M757.28,-366.2C806.42,-375.93 951.45,-397.45 1043.52,-335.5 1058.03,-325.73 1047.55,-311.02 1061.52,-300.5 1090.76,-278.49 1184.46,-264.06 1250.61,-256.35"/>
<polygon fill="black" stroke="black" points="1251.02,-259.82 1260.56,-255.21 1250.23,-252.87 1251.02,-259.82"/>
<text text-anchor="middle" x="1127.02" y="-304.3" font-family="Times,serif" font-size="14.00">rdfs:type</text>
</g>
<!-- LJack Dan -->
<g id="node22" class="node">
<title>LJack Dan</title>
<polygon fill="none" stroke="black" points="1287.52,-286.5 1287.52,-322.5 1354.52,-322.5 1354.52,-286.5 1287.52,-286.5"/>
<text text-anchor="middle" x="1321.02" y="-300.8" font-family="Times,serif" font-size="14.00">Jack Dan</text>
</g>
<!-- B_:b1&#45;&gt;LJack Dan -->
<g id="edge21" class="edge">
<title>B_:b1&#45;&gt;LJack Dan</title>
<path fill="none" stroke="black" stroke-dasharray="1,5" d="M757.45,-361.11C803.64,-357.34 934.69,-346.45 1043.52,-335.5 1126.37,-327.17 1223.02,-316 1277.32,-309.59"/>
<polygon fill="black" stroke="black" points="1277.75,-313.07 1287.27,-308.42 1276.93,-306.12 1277.75,-313.07"/>
<text text-anchor="middle" x="1127.02" y="-336.3" font-family="Times,serif" font-size="14.00">schema:name</text>
</g>
<!-- B_:b2&#45;&gt;Rschema:Person -->
<g id="edge22" class="edge">
<title>B_:b2&#45;&gt;Rschema:Person</title>
<path fill="none" stroke="black" stroke-dasharray="1,5" d="M757.21,-312.09C806.16,-321.53 950.71,-342.33 1043.52,-281.5 1057.49,-272.34 1047.15,-257.03 1061.52,-248.5 1111.59,-218.78 1134.3,-248.27 1192.52,-248.5 1210.1,-248.57 1229.04,-248.69 1246.81,-248.83"/>
<polygon fill="black" stroke="black" points="1247.09,-252.33 1257.12,-248.91 1247.14,-245.33 1247.09,-252.33"/>
<text text-anchor="middle" x="1127.02" y="-252.3" font-family="Times,serif" font-size="14.00">rdfs:type</text>
</g>
<!-- LJohn Smith -->
<g id="node23" class="node">
<title>LJohn Smith</title>
<polygon fill="none" stroke="black" points="1281.52,-176.5 1281.52,-212.5 1360.52,-212.5 1360.52,-176.5 1281.52,-176.5"/>
<text text-anchor="middle" x="1321.02" y="-190.8" font-family="Times,serif" font-size="14.00">John Smith</text>
</g>
<!-- B_:b2&#45;&gt;LJohn Smith -->
<g id="edge23" class="edge">
<title>B_:b2&#45;&gt;LJohn Smith</title>
<path fill="none" stroke="black" stroke-dasharray="1,5" d="M756.87,-312.84C806.79,-324.86 957.8,-353.22 1043.52,-281.5 1066.84,-261.99 1038.13,-234.92 1061.52,-215.5 1120.19,-166.8 1214.34,-173.34 1271.37,-183.35"/>
<polygon fill="black" stroke="black" points="1270.75,-186.79 1281.23,-185.18 1272.03,-179.91 1270.75,-186.79"/>
<text text-anchor="middle" x="1127.02" y="-219.3" font-family="Times,serif" font-size="14.00">schema:name</text>
</g>
<!-- B_:b3&#45;&gt;Rschema:Organization -->
<g id="edge24" class="edge">
<title>B_:b3&#45;&gt;Rschema:Organization</title>
<path fill="none" stroke="black" stroke-dasharray="1,5" d="M757.6,-543.51C817.64,-547.06 1023,-559.27 1192.52,-570.5 1204.37,-571.29 1216.84,-572.14 1229.15,-572.99"/>
<polygon fill="black" stroke="black" points="1229.21,-576.5 1239.43,-573.71 1229.7,-569.52 1229.21,-576.5"/>
<text text-anchor="middle" x="1127.02" y="-574.3" font-family="Times,serif" font-size="14.00">rdfs:type</text>
</g>
<!-- B_:b4&#45;&gt;Rschema:Organization -->
<g id="edge25" class="edge">
<title>B_:b4&#45;&gt;Rschema:Organization</title>
<path fill="none" stroke="black" stroke-dasharray="1,5" d="M757.78,-483.83C830.49,-489.52 1109.74,-512.92 1192.52,-542.5 1201.14,-545.58 1202,-549.15 1210.52,-552.5 1222.5,-557.21 1235.55,-561.28 1248.33,-564.73"/>
<polygon fill="black" stroke="black" points="1247.46,-568.12 1258.02,-567.25 1249.22,-561.35 1247.46,-568.12"/>
<text text-anchor="middle" x="1127.02" y="-546.3" font-family="Times,serif" font-size="14.00">rdfs:type</text>
</g>
</g>
</svg>
