<?xml version="1.0" encoding="UTF-8" standalone="no"?>
<!DOCTYPE svg PUBLIC "-//W3C//DTD SVG 1.1//EN"
 "http://www.w3.org/Graphics/SVG/1.1/DTD/svg11.dtd">
<!-- Generated by graphviz version 2.44.0 (0)
 -->
<!-- Pages: 1 -->
<svg width="1845pt" height="828pt"
 viewBox="0.00 0.00 1845.19 827.54" xmlns="http://www.w3.org/2000/svg" xmlns:xlink="http://www.w3.org/1999/xlink">
<g id="graph0" class="graph" transform="scale(1 1) rotate(0) translate(4 823.54)">
<polygon fill="white" stroke="transparent" points="-4,4 -4,-823.54 1841.19,-823.54 1841.19,4 -4,4"/>
<text text-anchor="middle" x="918.6" y="-22.8" font-family="Times-Roman" font-size="14.00">Model:</text>
<text text-anchor="middle" x="918.6" y="-7.8" font-family="Times-Roman" font-size="14.00">https://iode.org/</text>
<!-- Rfile:///home/fils/src/Projects/OIH/odis&#45;arch/schema/thematics/expinst/graphs/ID_value_string -->
<g id="node1" class="node">
<title>Rfile:///home/fils/src/Projects/OIH/odis&#45;arch/schema/thematics/expinst/graphs/ID_value_string</title>
<ellipse fill="none" stroke="blue" cx="945.78" cy="-691.04" rx="424.32" ry="18"/>
<text text-anchor="middle" x="945.78" y="-687.34" font-family="Times-Roman" font-size="14.00">file:///home/fils/src/Projects/OIH/odis&#45;arch/schema/thematics/expinst/graphs/ID_value_string</text>
</g>
<!-- Rschema:PropertyValue -->
<g id="node2" class="node">
<title>Rschema:PropertyValue</title>
<ellipse fill="none" stroke="blue" cx="1704.69" cy="-636.04" rx="111.28" ry="18"/>
<text text-anchor="middle" x="1704.69" y="-632.34" font-family="Times-Roman" font-size="14.00">schema:PropertyValue</text>
</g>
<!-- Rfile:///home/fils/src/Projects/OIH/odis&#45;arch/schema/thematics/expinst/graphs/ID_value_string&#45;&gt;Rschema:PropertyValue -->
<g id="edge1" class="edge">
<title>Rfile:///home/fils/src/Projects/OIH/odis&#45;arch/schema/thematics/expinst/graphs/ID_value_string&#45;&gt;Rschema:PropertyValue</title>
<path fill="none" stroke="black" stroke-dasharray="1,5" d="M1160.65,-675.5C1301.43,-665.27 1479.94,-652.3 1593.03,-644.09"/>
<polygon fill="black" stroke="black" points="1593.37,-647.57 1603.09,-643.35 1592.87,-640.59 1593.37,-647.57"/>
<text text-anchor="middle" x="1471.19" y="-661.84" font-family="Times-Roman" font-size="14.00">rdfs:type</text>
</g>
<!-- LOptional description of the ID -->
<g id="node3" class="node">
<title>LOptional description of the ID</title>
<polygon fill="none" stroke="black" points="1594.19,-783.04 1594.19,-819.04 1815.19,-819.04 1815.19,-783.04 1594.19,-783.04"/>
<text text-anchor="middle" x="1704.69" y="-797.34" font-family="Times-Roman" font-size="14.00">Optional description of the ID</text>
</g>
<!-- Rfile:///home/fils/src/Projects/OIH/odis&#45;arch/schema/thematics/expinst/graphs/ID_value_string&#45;&gt;LOptional description of the ID -->
<g id="edge2" class="edge">
<title>Rfile:///home/fils/src/Projects/OIH/odis&#45;arch/schema/thematics/expinst/graphs/ID_value_string&#45;&gt;LOptional description of the ID</title>
<path fill="none" stroke="black" stroke-dasharray="1,5" d="M1065.88,-708.35C1207.37,-728.91 1442.03,-763.02 1583.84,-783.63"/>
<polygon fill="black" stroke="black" points="1583.49,-787.11 1593.89,-785.09 1584.5,-780.18 1583.49,-787.11"/>
<text text-anchor="middle" x="1471.19" y="-780.84" font-family="Times-Roman" font-size="14.00">schema:description</text>
</g>
<!-- Lthis can be text or URL.. -->
<g id="node4" class="node">
<title>Lthis can be text or URL..</title>
<polygon fill="none" stroke="black" points="1612.19,-728.04 1612.19,-764.04 1797.19,-764.04 1797.19,-728.04 1612.19,-728.04"/>
<text text-anchor="middle" x="1704.69" y="-742.34" font-family="Times-Roman" font-size="14.00">this can be text or URL..</text>
</g>
<!-- Rfile:///home/fils/src/Projects/OIH/odis&#45;arch/schema/thematics/expinst/graphs/ID_value_string&#45;&gt;Lthis can be text or URL.. -->
<g id="edge3" class="edge">
<title>Rfile:///home/fils/src/Projects/OIH/odis&#45;arch/schema/thematics/expinst/graphs/ID_value_string&#45;&gt;Lthis can be text or URL..</title>
<path fill="none" stroke="black" stroke-dasharray="1,5" d="M1160.65,-706.58C1305.14,-717.08 1489.39,-730.47 1601.84,-738.64"/>
<polygon fill="black" stroke="black" points="1601.6,-742.13 1611.83,-739.37 1602.11,-735.15 1601.6,-742.13"/>
<text text-anchor="middle" x="1471.19" y="-737.84" font-family="Times-Roman" font-size="14.00">schema:propertyID</text>
</g>
<!-- Lhttps://foo.org/linkToPropertyIDPage -->
<g id="node5" class="node">
<title>Lhttps://foo.org/linkToPropertyIDPage</title>
<polygon fill="none" stroke="black" points="1572.19,-673.04 1572.19,-709.04 1837.19,-709.04 1837.19,-673.04 1572.19,-673.04"/>
<text text-anchor="middle" x="1704.69" y="-687.34" font-family="Times-Roman" font-size="14.00">https://foo.org/linkToPropertyIDPage</text>
</g>
<!-- Rfile:///home/fils/src/Projects/OIH/odis&#45;arch/schema/thematics/expinst/graphs/ID_value_string&#45;&gt;Lhttps://foo.org/linkToPropertyIDPage -->
<g id="edge4" class="edge">
<title>Rfile:///home/fils/src/Projects/OIH/odis&#45;arch/schema/thematics/expinst/graphs/ID_value_string&#45;&gt;Lhttps://foo.org/linkToPropertyIDPage</title>
<path fill="none" stroke="black" stroke-dasharray="1,5" d="M1370.32,-691.04C1439.22,-691.04 1506.09,-691.04 1561.63,-691.04"/>
<polygon fill="black" stroke="black" points="1561.87,-694.54 1571.87,-691.04 1561.87,-687.54 1561.87,-694.54"/>
<text text-anchor="middle" x="1471.19" y="-694.84" font-family="Times-Roman" font-size="14.00">schema:url</text>
</g>
<!-- Rhttps://link.to/PID_like_re3_or_others -->
<g id="node6" class="node">
<title>Rhttps://link.to/PID_like_re3_or_others</title>
<ellipse fill="none" stroke="blue" cx="174.18" cy="-365.04" rx="174.37" ry="18"/>
<text text-anchor="middle" x="174.18" y="-361.34" font-family="Times-Roman" font-size="14.00">https://link.to/PID_like_re3_or_others</text>
</g>
<!-- Rhttps://link.to/PID_like_re3_or_others&#45;&gt;Rfile:///home/fils/src/Projects/OIH/odis&#45;arch/schema/thematics/expinst/graphs/ID_value_string -->
<g id="edge11" class="edge">
<title>Rhttps://link.to/PID_like_re3_or_others&#45;&gt;Rfile:///home/fils/src/Projects/OIH/odis&#45;arch/schema/thematics/expinst/graphs/ID_value_string</title>
<path fill="none" stroke="black" stroke-dasharray="1,5" d="M182.88,-383.22C204.11,-430.82 268.45,-559.41 366.37,-616.04 421.28,-647.81 483.96,-668.52 547.31,-681.68"/>
<polygon fill="black" stroke="black" points="546.99,-685.18 557.48,-683.73 548.37,-678.32 546.99,-685.18"/>
<text text-anchor="middle" x="434.87" y="-672.84" font-family="Times-Roman" font-size="14.00">schema:identifier</text>
</g>
<!-- Rschema:Organization -->
<g id="node7" class="node">
<title>Rschema:Organization</title>
<ellipse fill="none" stroke="blue" cx="1704.69" cy="-582.04" rx="106.68" ry="18"/>
<text text-anchor="middle" x="1704.69" y="-578.34" font-family="Times-Roman" font-size="14.00">schema:Organization</text>
</g>
<!-- Rhttps://link.to/PID_like_re3_or_others&#45;&gt;Rschema:Organization -->
<g id="edge5" class="edge">
<title>Rhttps://link.to/PID_like_re3_or_others&#45;&gt;Rschema:Organization</title>
<path fill="none" stroke="black" stroke-dasharray="1,5" d="M191.55,-383.05C222.52,-416.09 293.21,-486.63 366.37,-526.04 429.63,-560.13 450.36,-561.06 521.37,-572.04 915.61,-633.03 1392.67,-607.18 1599.59,-591.2"/>
<polygon fill="black" stroke="black" points="1600.14,-594.66 1609.84,-590.4 1599.59,-587.69 1600.14,-594.66"/>
<text text-anchor="middle" x="945.78" y="-613.84" font-family="Times-Roman" font-size="14.00">rdfs:type</text>
</g>
<!-- B_:b0 -->
<g id="node8" class="node">
<title>B_:b0</title>
<ellipse fill="none" stroke="green" cx="945.78" cy="-419.04" rx="18" ry="18"/>
</g>
<!-- Rhttps://link.to/PID_like_re3_or_others&#45;&gt;B_:b0 -->
<g id="edge6" class="edge">
<title>Rhttps://link.to/PID_like_re3_or_others&#45;&gt;B_:b0</title>
<path fill="none" stroke="black" stroke-dasharray="1,5" d="M296.74,-377.84C319.85,-380.07 343.84,-382.24 366.37,-384.04 578.47,-400.99 834.92,-413.83 917.66,-417.78"/>
<polygon fill="black" stroke="black" points="917.58,-421.28 927.73,-418.25 917.91,-414.28 917.58,-421.28"/>
<text text-anchor="middle" x="434.87" y="-396.84" font-family="Times-Roman" font-size="14.00">schema:address</text>
</g>
<!-- B_:b1 -->
<g id="node9" class="node">
<title>B_:b1</title>
<ellipse fill="none" stroke="green" cx="945.78" cy="-365.04" rx="18" ry="18"/>
</g>
<!-- Rhttps://link.to/PID_like_re3_or_others&#45;&gt;B_:b1 -->
<g id="edge7" class="edge">
<title>Rhttps://link.to/PID_like_re3_or_others&#45;&gt;B_:b1</title>
<path fill="none" stroke="black" stroke-dasharray="1,5" d="M348.38,-365.04C538.36,-365.04 828.23,-365.04 917.6,-365.04"/>
<polygon fill="black" stroke="black" points="917.71,-368.54 927.71,-365.04 917.71,-361.54 917.71,-368.54"/>
<text text-anchor="middle" x="434.87" y="-368.84" font-family="Times-Roman" font-size="14.00">schema:alumni</text>
</g>
<!-- B_:b2 -->
<g id="node10" class="node">
<title>B_:b2</title>
<ellipse fill="none" stroke="green" cx="945.78" cy="-311.04" rx="18" ry="18"/>
</g>
<!-- Rhttps://link.to/PID_like_re3_or_others&#45;&gt;B_:b2 -->
<g id="edge8" class="edge">
<title>Rhttps://link.to/PID_like_re3_or_others&#45;&gt;B_:b2</title>
<path fill="none" stroke="black" stroke-dasharray="1,5" d="M296.74,-352.25C319.85,-350.02 343.84,-347.84 366.37,-346.04 578.47,-329.09 834.92,-316.26 917.66,-312.31"/>
<polygon fill="black" stroke="black" points="917.91,-315.8 927.73,-311.83 917.58,-308.81 917.91,-315.8"/>
<text text-anchor="middle" x="434.87" y="-349.84" font-family="Times-Roman" font-size="14.00">schema:alumni</text>
</g>
<!-- Lsecretariat(at)foo.org -->
<g id="node11" class="node">
<title>Lsecretariat(at)foo.org</title>
<polygon fill="none" stroke="black" points="864.28,-238.04 864.28,-274.04 1027.28,-274.04 1027.28,-238.04 864.28,-238.04"/>
<text text-anchor="middle" x="945.78" y="-252.34" font-family="Times-Roman" font-size="14.00">secretariat(at)foo.org</text>
</g>
<!-- Rhttps://link.to/PID_like_re3_or_others&#45;&gt;Lsecretariat(at)foo.org -->
<g id="edge9" class="edge">
<title>Rhttps://link.to/PID_like_re3_or_others&#45;&gt;Lsecretariat(at)foo.org</title>
<path fill="none" stroke="black" stroke-dasharray="1,5" d="M239.65,-348.24C276.65,-338.75 324.03,-326.86 366.37,-317.04 434.98,-301.13 451.6,-293.73 521.37,-284.04 635.31,-268.23 767.79,-261.29 853.79,-258.28"/>
<polygon fill="black" stroke="black" points="854.17,-261.77 864.05,-257.94 853.93,-254.78 854.17,-261.77"/>
<text text-anchor="middle" x="434.87" y="-320.84" font-family="Times-Roman" font-size="14.00">schema:email</text>
</g>
<!-- L( 33 1) 42 68 53 01 -->
<g id="node12" class="node">
<title>L( 33 1) 42 68 53 01</title>
<polygon fill="none" stroke="black" points="869.28,-183.04 869.28,-219.04 1022.28,-219.04 1022.28,-183.04 869.28,-183.04"/>
<text text-anchor="middle" x="945.78" y="-197.34" font-family="Times-Roman" font-size="14.00">( 33 1) 42 68 53 01</text>
</g>
<!-- Rhttps://link.to/PID_like_re3_or_others&#45;&gt;L( 33 1) 42 68 53 01 -->
<g id="edge10" class="edge">
<title>Rhttps://link.to/PID_like_re3_or_others&#45;&gt;L( 33 1) 42 68 53 01</title>
<path fill="none" stroke="black" stroke-dasharray="1,5" d="M204.66,-347.18C241.38,-325.57 306.61,-289.34 366.37,-267.04 532.75,-204.98 743.2,-197.02 858.86,-198.13"/>
<polygon fill="black" stroke="black" points="859.03,-201.63 869.07,-198.26 859.11,-194.63 859.03,-201.63"/>
<text text-anchor="middle" x="434.87" y="-270.84" font-family="Times-Roman" font-size="14.00">schema:faxNumber</text>
</g>
<!-- B_:b3 -->
<g id="node13" class="node">
<title>B_:b3</title>
<ellipse fill="none" stroke="green" cx="945.78" cy="-545.04" rx="18" ry="18"/>
</g>
<!-- Rhttps://link.to/PID_like_re3_or_others&#45;&gt;B_:b3 -->
<g id="edge12" class="edge">
<title>Rhttps://link.to/PID_like_re3_or_others&#45;&gt;B_:b3</title>
<path fill="none" stroke="black" stroke-dasharray="1,5" d="M206.98,-382.83C244.38,-403.33 308.7,-437.23 366.37,-461.04 433.4,-488.72 450.26,-497.79 521.37,-512.04 668.6,-541.56 849.55,-545 917.39,-545.17"/>
<polygon fill="black" stroke="black" points="917.64,-548.67 927.64,-545.17 917.64,-541.67 917.64,-548.67"/>
<text text-anchor="middle" x="434.87" y="-510.84" font-family="Times-Roman" font-size="14.00">schema:member</text>
</g>
<!-- B_:b4 -->
<g id="node14" class="node">
<title>B_:b4</title>
<ellipse fill="none" stroke="green" cx="945.78" cy="-485.04" rx="18" ry="18"/>
</g>
<!-- Rhttps://link.to/PID_like_re3_or_others&#45;&gt;B_:b4 -->
<g id="edge13" class="edge">
<title>Rhttps://link.to/PID_like_re3_or_others&#45;&gt;B_:b4</title>
<path fill="none" stroke="black" stroke-dasharray="1,5" d="M241.45,-381.77C278.2,-390.93 324.75,-402.37 366.37,-412.04 435.06,-428.02 451.68,-435.23 521.37,-446.04 669.94,-469.09 850.1,-480.15 917.55,-483.71"/>
<polygon fill="black" stroke="black" points="917.58,-487.22 927.75,-484.24 917.94,-480.23 917.58,-487.22"/>
<text text-anchor="middle" x="434.87" y="-445.84" font-family="Times-Roman" font-size="14.00">schema:member</text>
</g>
<!-- LFoo Inc. -->
<g id="node15" class="node">
<title>LFoo Inc.</title>
<polygon fill="none" stroke="black" points="910.28,-128.04 910.28,-164.04 981.28,-164.04 981.28,-128.04 910.28,-128.04"/>
<text text-anchor="middle" x="945.78" y="-142.34" font-family="Times-Roman" font-size="14.00">Foo Inc.</text>
</g>
<!-- Rhttps://link.to/PID_like_re3_or_others&#45;&gt;LFoo Inc. -->
<g id="edge14" class="edge">
<title>Rhttps://link.to/PID_like_re3_or_others&#45;&gt;LFoo Inc.</title>
<path fill="none" stroke="black" stroke-dasharray="1,5" d="M192.31,-346.9C223.69,-314.73 293.91,-247.73 366.37,-212.04 547.64,-122.76 798.55,-132.68 899.77,-141.31"/>
<polygon fill="black" stroke="black" points="899.68,-144.81 909.95,-142.21 900.3,-137.84 899.68,-144.81"/>
<text text-anchor="middle" x="434.87" y="-215.84" font-family="Times-Roman" font-size="14.00">schema:name</text>
</g>
<!-- L( 33 1) 42 68 53 00 -->
<g id="node16" class="node">
<title>L( 33 1) 42 68 53 00</title>
<polygon fill="none" stroke="black" points="869.28,-73.04 869.28,-109.04 1022.28,-109.04 1022.28,-73.04 869.28,-73.04"/>
<text text-anchor="middle" x="945.78" y="-87.34" font-family="Times-Roman" font-size="14.00">( 33 1) 42 68 53 00</text>
</g>
<!-- Rhttps://link.to/PID_like_re3_or_others&#45;&gt;L( 33 1) 42 68 53 00 -->
<g id="edge15" class="edge">
<title>Rhttps://link.to/PID_like_re3_or_others&#45;&gt;L( 33 1) 42 68 53 00</title>
<path fill="none" stroke="black" stroke-dasharray="1,5" d="M185.05,-346.83C209.45,-303.75 277.14,-195.42 366.37,-145.04 522.33,-57 740.23,-65.12 859.1,-78.35"/>
<polygon fill="black" stroke="black" points="858.9,-81.86 869.24,-79.52 859.7,-74.9 858.9,-81.86"/>
<text text-anchor="middle" x="434.87" y="-148.84" font-family="Times-Roman" font-size="14.00">schema:telephone</text>
</g>
<!-- Rschema:PostalAddress -->
<g id="node17" class="node">
<title>Rschema:PostalAddress</title>
<ellipse fill="none" stroke="blue" cx="1704.69" cy="-362.04" rx="111.58" ry="18"/>
<text text-anchor="middle" x="1704.69" y="-358.34" font-family="Times-Roman" font-size="14.00">schema:PostalAddress</text>
</g>
<!-- B_:b0&#45;&gt;Rschema:PostalAddress -->
<g id="edge16" class="edge">
<title>B_:b0&#45;&gt;Rschema:PostalAddress</title>
<path fill="none" stroke="black" stroke-dasharray="1,5" d="M964.14,-418.1C1021.86,-414.92 1212.66,-404.15 1370.19,-392.04 1446.53,-386.18 1532.59,-378.41 1598.17,-372.24"/>
<polygon fill="black" stroke="black" points="1598.88,-375.69 1608.51,-371.27 1598.23,-368.72 1598.88,-375.69"/>
<text text-anchor="middle" x="1471.19" y="-392.84" font-family="Times-Roman" font-size="14.00">rdfs:type</text>
</g>
<!-- LParis, France -->
<g id="node18" class="node">
<title>LParis, France</title>
<polygon fill="none" stroke="black" points="1652.69,-509.04 1652.69,-545.04 1756.69,-545.04 1756.69,-509.04 1652.69,-509.04"/>
<text text-anchor="middle" x="1704.69" y="-523.34" font-family="Times-Roman" font-size="14.00">Paris, France</text>
</g>
<!-- B_:b0&#45;&gt;LParis, France -->
<g id="edge17" class="edge">
<title>B_:b0&#45;&gt;LParis, France</title>
<path fill="none" stroke="black" stroke-dasharray="1,5" d="M963.85,-416.96C1023.05,-410.45 1223.91,-394.6 1370.19,-458.04 1380.01,-462.3 1378.5,-469.5 1388.19,-474.04 1455.76,-505.69 1480.63,-486.62 1554.19,-499.04 1583.28,-503.96 1615.46,-509.92 1642.48,-515.07"/>
<polygon fill="black" stroke="black" points="1642.09,-518.56 1652.57,-517 1643.41,-511.68 1642.09,-518.56"/>
<text text-anchor="middle" x="1471.19" y="-502.84" font-family="Times-Roman" font-size="14.00">schema:addressLocality</text>
</g>
<!-- LF&#45;75002 -->
<g id="node19" class="node">
<title>LF&#45;75002</title>
<polygon fill="none" stroke="black" points="1667.19,-454.04 1667.19,-490.04 1742.19,-490.04 1742.19,-454.04 1667.19,-454.04"/>
<text text-anchor="middle" x="1704.69" y="-468.34" font-family="Times-Roman" font-size="14.00">F&#45;75002</text>
</g>
<!-- B_:b0&#45;&gt;LF&#45;75002 -->
<g id="edge18" class="edge">
<title>B_:b0&#45;&gt;LF&#45;75002</title>
<path fill="none" stroke="black" stroke-dasharray="1,5" d="M964.19,-420.06C1036.56,-424.29 1320.79,-441.21 1554.19,-459.04 1588.7,-461.68 1627.65,-465.08 1657.14,-467.74"/>
<polygon fill="black" stroke="black" points="1656.88,-471.23 1667.15,-468.65 1657.51,-464.26 1656.88,-471.23"/>
<text text-anchor="middle" x="1471.19" y="-462.84" font-family="Times-Roman" font-size="14.00">schema:postalCode</text>
</g>
<!-- L38 avenue de l&#39;Opera -->
<g id="node20" class="node">
<title>L38 avenue de l&#39;Opera</title>
<polygon fill="none" stroke="black" points="1621.19,-399.04 1621.19,-435.04 1788.19,-435.04 1788.19,-399.04 1621.19,-399.04"/>
<text text-anchor="middle" x="1704.69" y="-413.34" font-family="Times-Roman" font-size="14.00">38 avenue de l&#39;Opera</text>
</g>
<!-- B_:b0&#45;&gt;L38 avenue de l&#39;Opera -->
<g id="edge19" class="edge">
<title>B_:b0&#45;&gt;L38 avenue de l&#39;Opera</title>
<path fill="none" stroke="black" stroke-dasharray="1,5" d="M964.01,-419C1049.6,-418.77 1432.02,-417.76 1610.89,-417.29"/>
<polygon fill="black" stroke="black" points="1611.08,-420.79 1621.07,-417.26 1611.06,-413.79 1611.08,-420.79"/>
<text text-anchor="middle" x="1471.19" y="-420.84" font-family="Times-Roman" font-size="14.00">schema:streetAddress</text>
</g>
<!-- Rschema:Person -->
<g id="node21" class="node">
<title>Rschema:Person</title>
<ellipse fill="none" stroke="blue" cx="1704.69" cy="-252.04" rx="79.09" ry="18"/>
<text text-anchor="middle" x="1704.69" y="-248.34" font-family="Times-Roman" font-size="14.00">schema:Person</text>
</g>
<!-- B_:b1&#45;&gt;Rschema:Person -->
<g id="edge20" class="edge">
<title>B_:b1&#45;&gt;Rschema:Person</title>
<path fill="none" stroke="black" stroke-dasharray="1,5" d="M964.06,-366.14C1034.82,-370.3 1301.95,-382.73 1370.19,-338.04 1384.83,-328.46 1374.04,-313.32 1388.19,-303.04 1406.98,-289.4 1536.06,-271.8 1623.19,-261.24"/>
<polygon fill="black" stroke="black" points="1623.82,-264.69 1633.33,-260.02 1622.99,-257.74 1623.82,-264.69"/>
<text text-anchor="middle" x="1471.19" y="-306.84" font-family="Times-Roman" font-size="14.00">rdfs:type</text>
</g>
<!-- LJack Dan -->
<g id="node22" class="node">
<title>LJack Dan</title>
<polygon fill="none" stroke="black" points="1666.19,-289.04 1666.19,-325.04 1743.19,-325.04 1743.19,-289.04 1666.19,-289.04"/>
<text text-anchor="middle" x="1704.69" y="-303.34" font-family="Times-Roman" font-size="14.00">Jack Dan</text>
</g>
<!-- B_:b1&#45;&gt;LJack Dan -->
<g id="edge21" class="edge">
<title>B_:b1&#45;&gt;LJack Dan</title>
<path fill="none" stroke="black" stroke-dasharray="1,5" d="M964.14,-364.12C1021.86,-361 1212.68,-350.38 1370.19,-338.04 1471.92,-330.07 1590.89,-318.46 1655.66,-311.95"/>
<polygon fill="black" stroke="black" points="1656.37,-315.4 1665.96,-310.91 1655.66,-308.43 1656.37,-315.4"/>
<text text-anchor="middle" x="1471.19" y="-338.84" font-family="Times-Roman" font-size="14.00">schema:name</text>
</g>
<!-- B_:b2&#45;&gt;Rschema:Person -->
<g id="edge22" class="edge">
<title>B_:b2&#45;&gt;Rschema:Person</title>
<path fill="none" stroke="black" stroke-dasharray="1,5" d="M963.46,-315.24C1023.93,-329.44 1235.11,-370.17 1370.19,-284.04 1384.28,-275.06 1373.83,-259.57 1388.19,-251.04 1451.64,-213.38 1480.42,-250.8 1554.19,-251.04 1573.96,-251.11 1595.19,-251.23 1615.26,-251.35"/>
<polygon fill="black" stroke="black" points="1615.31,-254.86 1625.33,-251.42 1615.35,-247.86 1615.31,-254.86"/>
<text text-anchor="middle" x="1471.19" y="-254.84" font-family="Times-Roman" font-size="14.00">rdfs:type</text>
</g>
<!-- LJohn Smith -->
<g id="node23" class="node">
<title>LJohn Smith</title>
<polygon fill="none" stroke="black" points="1658.69,-179.04 1658.69,-215.04 1750.69,-215.04 1750.69,-179.04 1658.69,-179.04"/>
<text text-anchor="middle" x="1704.69" y="-193.34" font-family="Times-Roman" font-size="14.00">John Smith</text>
</g>
<!-- B_:b2&#45;&gt;LJohn Smith -->
<g id="edge23" class="edge">
<title>B_:b2&#45;&gt;LJohn Smith</title>
<path fill="none" stroke="black" stroke-dasharray="1,5" d="M963.87,-312.49C1035.03,-318.17 1307.12,-336.07 1370.19,-284.04 1394.64,-263.88 1363.68,-235.13 1388.19,-215.04 1461.62,-154.9 1579.88,-167.82 1648.85,-182.52"/>
<polygon fill="black" stroke="black" points="1648.14,-185.95 1658.66,-184.7 1649.65,-179.12 1648.14,-185.95"/>
<text text-anchor="middle" x="1471.19" y="-218.84" font-family="Times-Roman" font-size="14.00">schema:name</text>
</g>
<!-- B_:b3&#45;&gt;Rschema:Organization -->
<g id="edge24" class="edge">
<title>B_:b3&#45;&gt;Rschema:Organization</title>
<path fill="none" stroke="black" stroke-dasharray="1,5" d="M964.18,-545.76C1036.53,-548.74 1320.7,-560.63 1554.19,-573.04 1567.13,-573.73 1580.68,-574.49 1594.14,-575.27"/>
<polygon fill="black" stroke="black" points="1594.2,-578.78 1604.39,-575.87 1594.61,-571.79 1594.2,-578.78"/>
<text text-anchor="middle" x="1471.19" y="-576.84" font-family="Times-Roman" font-size="14.00">rdfs:type</text>
</g>
<!-- B_:b4&#45;&gt;Rschema:Organization -->
<g id="edge25" class="edge">
<title>B_:b4&#45;&gt;Rschema:Organization</title>
<path fill="none" stroke="black" stroke-dasharray="1,5" d="M963.99,-485.81C1050.63,-489.84 1439.54,-509.65 1554.19,-546.04 1562.72,-548.75 1563.74,-552.12 1572.19,-555.04 1586.38,-559.95 1601.75,-564.1 1616.8,-567.56"/>
<polygon fill="black" stroke="black" points="1616.12,-570.99 1626.64,-569.73 1617.63,-564.15 1616.12,-570.99"/>
<text text-anchor="middle" x="1471.19" y="-549.84" font-family="Times-Roman" font-size="14.00">rdfs:type</text>
</g>
</g>
</svg>
