<?xml version="1.0" encoding="UTF-8" standalone="no"?>
<!DOCTYPE svg PUBLIC "-//W3C//DTD SVG 1.1//EN"
 "http://www.w3.org/Graphics/SVG/1.1/DTD/svg11.dtd">
<!-- Generated by graphviz version 2.44.0 (0)
 -->
<!-- Pages: 1 -->
<svg width="2463pt" height="778pt"
 viewBox="0.00 0.00 2462.64 778.00" xmlns="http://www.w3.org/2000/svg" xmlns:xlink="http://www.w3.org/1999/xlink">
<g id="graph0" class="graph" transform="scale(1 1) rotate(0) translate(4 774)">
<polygon fill="white" stroke="transparent" points="-4,4 -4,-774 2458.64,-774 2458.64,4 -4,4"/>
<text text-anchor="middle" x="1227.32" y="-22.8" font-family="Times-Roman" font-size="14.00">Model:</text>
<text text-anchor="middle" x="1227.32" y="-7.8" font-family="Times-Roman" font-size="14.00">https://iode.org/</text>
<!-- Rfile:///home/fils/src/Projects/OIH/odis&#45;arch/schema/thematics/expinst/graphs/ID_for_this_metadata_record -->
<g id="node1" class="node">
<title>Rfile:///home/fils/src/Projects/OIH/odis&#45;arch/schema/thematics/expinst/graphs/ID_for_this_metadata_record</title>
<ellipse fill="none" stroke="blue" cx="482.91" cy="-366" rx="482.81" ry="18"/>
<text text-anchor="middle" x="482.91" y="-362.3" font-family="Times-Roman" font-size="14.00">file:///home/fils/src/Projects/OIH/odis&#45;arch/schema/thematics/expinst/graphs/ID_for_this_metadata_record</text>
</g>
<!-- Rschema:Organization -->
<g id="node2" class="node">
<title>Rschema:Organization</title>
<ellipse fill="none" stroke="blue" cx="2322.14" cy="-693" rx="106.68" ry="18"/>
<text text-anchor="middle" x="2322.14" y="-689.3" font-family="Times-Roman" font-size="14.00">schema:Organization</text>
</g>
<!-- Rfile:///home/fils/src/Projects/OIH/odis&#45;arch/schema/thematics/expinst/graphs/ID_for_this_metadata_record&#45;&gt;Rschema:Organization -->
<g id="edge1" class="edge">
<title>Rfile:///home/fils/src/Projects/OIH/odis&#45;arch/schema/thematics/expinst/graphs/ID_for_this_metadata_record&#45;&gt;Rschema:Organization</title>
<path fill="none" stroke="black" stroke-dasharray="1,5" d="M513.13,-384.1C588.72,-430.37 797.81,-554.9 983.81,-634 1426.18,-822.11 2026.74,-744.76 2241.08,-708.12"/>
<polygon fill="black" stroke="black" points="2241.73,-711.56 2250.99,-706.4 2240.54,-704.66 2241.73,-711.56"/>
<text text-anchor="middle" x="1563.23" y="-758.8" font-family="Times-Roman" font-size="14.00">rdfs:type</text>
</g>
<!-- B_:b0 -->
<g id="node3" class="node">
<title>B_:b0</title>
<ellipse fill="none" stroke="green" cx="1563.23" cy="-528" rx="18" ry="18"/>
</g>
<!-- Rfile:///home/fils/src/Projects/OIH/odis&#45;arch/schema/thematics/expinst/graphs/ID_for_this_metadata_record&#45;&gt;B_:b0 -->
<g id="edge2" class="edge">
<title>Rfile:///home/fils/src/Projects/OIH/odis&#45;arch/schema/thematics/expinst/graphs/ID_for_this_metadata_record&#45;&gt;B_:b0</title>
<path fill="none" stroke="black" stroke-dasharray="1,5" d="M600.33,-383.49C845.86,-420.38 1404.85,-504.36 1534.86,-523.89"/>
<polygon fill="black" stroke="black" points="1534.7,-527.4 1545.11,-525.43 1535.74,-520.48 1534.7,-527.4"/>
<text text-anchor="middle" x="1052.31" y="-464.8" font-family="Times-Roman" font-size="14.00">schema:address</text>
</g>
<!-- B_:b1 -->
<g id="node4" class="node">
<title>B_:b1</title>
<ellipse fill="none" stroke="green" cx="1563.23" cy="-420" rx="18" ry="18"/>
</g>
<!-- Rfile:///home/fils/src/Projects/OIH/odis&#45;arch/schema/thematics/expinst/graphs/ID_for_this_metadata_record&#45;&gt;B_:b1 -->
<g id="edge3" class="edge">
<title>Rfile:///home/fils/src/Projects/OIH/odis&#45;arch/schema/thematics/expinst/graphs/ID_for_this_metadata_record&#45;&gt;B_:b1</title>
<path fill="none" stroke="black" stroke-dasharray="1,5" d="M772.17,-380.44C1045.73,-394.13 1430.19,-413.39 1534.96,-418.63"/>
<polygon fill="black" stroke="black" points="1534.85,-422.13 1545.01,-419.14 1535.2,-415.14 1534.85,-422.13"/>
<text text-anchor="middle" x="1052.31" y="-400.8" font-family="Times-Roman" font-size="14.00">schema:alumni</text>
</g>
<!-- B_:b2 -->
<g id="node5" class="node">
<title>B_:b2</title>
<ellipse fill="none" stroke="green" cx="1563.23" cy="-366" rx="18" ry="18"/>
</g>
<!-- Rfile:///home/fils/src/Projects/OIH/odis&#45;arch/schema/thematics/expinst/graphs/ID_for_this_metadata_record&#45;&gt;B_:b2 -->
<g id="edge4" class="edge">
<title>Rfile:///home/fils/src/Projects/OIH/odis&#45;arch/schema/thematics/expinst/graphs/ID_for_this_metadata_record&#45;&gt;B_:b2</title>
<path fill="none" stroke="black" stroke-dasharray="1,5" d="M965.9,-366C1201.89,-366 1452.64,-366 1534.6,-366"/>
<polygon fill="black" stroke="black" points="1534.81,-369.5 1544.81,-366 1534.81,-362.5 1534.81,-369.5"/>
<text text-anchor="middle" x="1052.31" y="-369.8" font-family="Times-Roman" font-size="14.00">schema:alumni</text>
</g>
<!-- Lsecretariat(at)foo.org -->
<g id="node6" class="node">
<title>Lsecretariat(at)foo.org</title>
<polygon fill="none" stroke="black" points="1481.73,-293 1481.73,-329 1644.73,-329 1644.73,-293 1481.73,-293"/>
<text text-anchor="middle" x="1563.23" y="-307.3" font-family="Times-Roman" font-size="14.00">secretariat(at)foo.org</text>
</g>
<!-- Rfile:///home/fils/src/Projects/OIH/odis&#45;arch/schema/thematics/expinst/graphs/ID_for_this_metadata_record&#45;&gt;Lsecretariat(at)foo.org -->
<g id="edge5" class="edge">
<title>Rfile:///home/fils/src/Projects/OIH/odis&#45;arch/schema/thematics/expinst/graphs/ID_for_this_metadata_record&#45;&gt;Lsecretariat(at)foo.org</title>
<path fill="none" stroke="black" stroke-dasharray="1,5" d="M768.63,-351.48C1002.1,-339.57 1318.14,-323.45 1471.4,-315.63"/>
<polygon fill="black" stroke="black" points="1471.89,-319.11 1481.7,-315.11 1471.53,-312.12 1471.89,-319.11"/>
<text text-anchor="middle" x="1052.31" y="-343.8" font-family="Times-Roman" font-size="14.00">schema:email</text>
</g>
<!-- L( 33 1) 42 68 53 01 -->
<g id="node7" class="node">
<title>L( 33 1) 42 68 53 01</title>
<polygon fill="none" stroke="black" points="1486.73,-238 1486.73,-274 1639.73,-274 1639.73,-238 1486.73,-238"/>
<text text-anchor="middle" x="1563.23" y="-252.3" font-family="Times-Roman" font-size="14.00">( 33 1) 42 68 53 01</text>
</g>
<!-- Rfile:///home/fils/src/Projects/OIH/odis&#45;arch/schema/thematics/expinst/graphs/ID_for_this_metadata_record&#45;&gt;L( 33 1) 42 68 53 01 -->
<g id="edge6" class="edge">
<title>Rfile:///home/fils/src/Projects/OIH/odis&#45;arch/schema/thematics/expinst/graphs/ID_for_this_metadata_record&#45;&gt;L( 33 1) 42 68 53 01</title>
<path fill="none" stroke="black" stroke-dasharray="1,5" d="M605.88,-348.56C737.23,-330.29 952.46,-301.81 1138.81,-284 1255.44,-272.85 1390.57,-264.75 1476.2,-260.21"/>
<polygon fill="black" stroke="black" points="1476.6,-263.69 1486.4,-259.67 1476.23,-256.7 1476.6,-263.69"/>
<text text-anchor="middle" x="1052.31" y="-302.8" font-family="Times-Roman" font-size="14.00">schema:faxNumber</text>
</g>
<!-- Rfile:///home/fils/src/Projects/OIH/odis&#45;arch/schema/thematics/expinst/graphs/ID_value_string -->
<g id="node8" class="node">
<title>Rfile:///home/fils/src/Projects/OIH/odis&#45;arch/schema/thematics/expinst/graphs/ID_value_string</title>
<ellipse fill="none" stroke="blue" cx="1563.23" cy="-201" rx="424.32" ry="18"/>
<text text-anchor="middle" x="1563.23" y="-197.3" font-family="Times-Roman" font-size="14.00">file:///home/fils/src/Projects/OIH/odis&#45;arch/schema/thematics/expinst/graphs/ID_value_string</text>
</g>
<!-- Rfile:///home/fils/src/Projects/OIH/odis&#45;arch/schema/thematics/expinst/graphs/ID_for_this_metadata_record&#45;&gt;Rfile:///home/fils/src/Projects/OIH/odis&#45;arch/schema/thematics/expinst/graphs/ID_value_string -->
<g id="edge7" class="edge">
<title>Rfile:///home/fils/src/Projects/OIH/odis&#45;arch/schema/thematics/expinst/graphs/ID_for_this_metadata_record&#45;&gt;Rfile:///home/fils/src/Projects/OIH/odis&#45;arch/schema/thematics/expinst/graphs/ID_value_string</title>
<path fill="none" stroke="black" stroke-dasharray="1,5" d="M553.13,-348.17C672.02,-318.31 923.03,-258.56 1138.81,-229 1180.29,-223.32 1224.21,-218.78 1267.46,-215.16"/>
<polygon fill="black" stroke="black" points="1267.87,-218.64 1277.55,-214.33 1267.29,-211.66 1267.87,-218.64"/>
<text text-anchor="middle" x="1052.31" y="-255.8" font-family="Times-Roman" font-size="14.00">schema:identifier</text>
</g>
<!-- B_:b3 -->
<g id="node9" class="node">
<title>B_:b3</title>
<ellipse fill="none" stroke="green" cx="1563.23" cy="-657" rx="18" ry="18"/>
</g>
<!-- Rfile:///home/fils/src/Projects/OIH/odis&#45;arch/schema/thematics/expinst/graphs/ID_for_this_metadata_record&#45;&gt;B_:b3 -->
<g id="edge8" class="edge">
<title>Rfile:///home/fils/src/Projects/OIH/odis&#45;arch/schema/thematics/expinst/graphs/ID_for_this_metadata_record&#45;&gt;B_:b3</title>
<path fill="none" stroke="black" stroke-dasharray="1,5" d="M518.53,-384.01C614.13,-432.7 891.09,-566.89 1138.81,-620 1285.76,-651.5 1466.88,-656.3 1534.8,-656.94"/>
<polygon fill="black" stroke="black" points="1535.04,-660.44 1545.06,-657.02 1535.09,-653.45 1535.04,-660.44"/>
<text text-anchor="middle" x="1052.31" y="-618.8" font-family="Times-Roman" font-size="14.00">schema:member</text>
</g>
<!-- B_:b4 -->
<g id="node10" class="node">
<title>B_:b4</title>
<ellipse fill="none" stroke="green" cx="1563.23" cy="-593" rx="18" ry="18"/>
</g>
<!-- Rfile:///home/fils/src/Projects/OIH/odis&#45;arch/schema/thematics/expinst/graphs/ID_for_this_metadata_record&#45;&gt;B_:b4 -->
<g id="edge9" class="edge">
<title>Rfile:///home/fils/src/Projects/OIH/odis&#45;arch/schema/thematics/expinst/graphs/ID_for_this_metadata_record&#45;&gt;B_:b4</title>
<path fill="none" stroke="black" stroke-dasharray="1,5" d="M533.65,-383.92C642.02,-422.16 908.22,-511.79 1138.81,-555 1286.55,-582.68 1467.2,-590.37 1534.9,-592.36"/>
<polygon fill="black" stroke="black" points="1535.03,-595.86 1545.13,-592.64 1535.23,-588.86 1535.03,-595.86"/>
<text text-anchor="middle" x="1052.31" y="-550.8" font-family="Times-Roman" font-size="14.00">schema:member</text>
</g>
<!-- LFoo Inc. -->
<g id="node11" class="node">
<title>LFoo Inc.</title>
<polygon fill="none" stroke="black" points="1527.73,-128 1527.73,-164 1598.73,-164 1598.73,-128 1527.73,-128"/>
<text text-anchor="middle" x="1563.23" y="-142.3" font-family="Times-Roman" font-size="14.00">Foo Inc.</text>
</g>
<!-- Rfile:///home/fils/src/Projects/OIH/odis&#45;arch/schema/thematics/expinst/graphs/ID_for_this_metadata_record&#45;&gt;LFoo Inc. -->
<g id="edge10" class="edge">
<title>Rfile:///home/fils/src/Projects/OIH/odis&#45;arch/schema/thematics/expinst/graphs/ID_for_this_metadata_record&#45;&gt;LFoo Inc.</title>
<path fill="none" stroke="black" stroke-dasharray="1,5" d="M530.64,-347.95C636.78,-307.94 904.96,-212.29 1138.81,-174 1275.43,-151.63 1439.62,-147.01 1517.3,-146.14"/>
<polygon fill="black" stroke="black" points="1517.7,-149.64 1527.67,-146.04 1517.64,-142.64 1517.7,-149.64"/>
<text text-anchor="middle" x="1052.31" y="-206.8" font-family="Times-Roman" font-size="14.00">schema:name</text>
</g>
<!-- L( 33 1) 42 68 53 00 -->
<g id="node12" class="node">
<title>L( 33 1) 42 68 53 00</title>
<polygon fill="none" stroke="black" points="1486.73,-73 1486.73,-109 1639.73,-109 1639.73,-73 1486.73,-73"/>
<text text-anchor="middle" x="1563.23" y="-87.3" font-family="Times-Roman" font-size="14.00">( 33 1) 42 68 53 00</text>
</g>
<!-- Rfile:///home/fils/src/Projects/OIH/odis&#45;arch/schema/thematics/expinst/graphs/ID_for_this_metadata_record&#45;&gt;L( 33 1) 42 68 53 00 -->
<g id="edge11" class="edge">
<title>Rfile:///home/fils/src/Projects/OIH/odis&#45;arch/schema/thematics/expinst/graphs/ID_for_this_metadata_record&#45;&gt;L( 33 1) 42 68 53 00</title>
<path fill="none" stroke="black" stroke-dasharray="1,5" d="M516.65,-348.04C610.17,-297.99 887.89,-158.01 1138.81,-118 1254.67,-99.53 1390.26,-93.59 1476.19,-91.74"/>
<polygon fill="black" stroke="black" points="1476.49,-95.23 1486.41,-91.53 1476.34,-88.24 1476.49,-95.23"/>
<text text-anchor="middle" x="1052.31" y="-154.8" font-family="Times-Roman" font-size="14.00">schema:telephone</text>
</g>
<!-- Rschema:PostalAddress -->
<g id="node17" class="node">
<title>Rschema:PostalAddress</title>
<ellipse fill="none" stroke="blue" cx="2322.14" cy="-473" rx="111.58" ry="18"/>
<text text-anchor="middle" x="2322.14" y="-469.3" font-family="Times-Roman" font-size="14.00">schema:PostalAddress</text>
</g>
<!-- B_:b0&#45;&gt;Rschema:PostalAddress -->
<g id="edge16" class="edge">
<title>B_:b0&#45;&gt;Rschema:PostalAddress</title>
<path fill="none" stroke="black" stroke-dasharray="1,5" d="M1581.46,-526.75C1664.22,-520.73 2024.48,-494.56 2209.93,-481.08"/>
<polygon fill="black" stroke="black" points="2210.26,-484.57 2219.98,-480.35 2209.76,-477.58 2210.26,-484.57"/>
<text text-anchor="middle" x="2088.64" y="-498.8" font-family="Times-Roman" font-size="14.00">rdfs:type</text>
</g>
<!-- LParis, France -->
<g id="node18" class="node">
<title>LParis, France</title>
<polygon fill="none" stroke="black" points="2270.14,-620 2270.14,-656 2374.14,-656 2374.14,-620 2270.14,-620"/>
<text text-anchor="middle" x="2322.14" y="-634.3" font-family="Times-Roman" font-size="14.00">Paris, France</text>
</g>
<!-- B_:b0&#45;&gt;LParis, France -->
<g id="edge17" class="edge">
<title>B_:b0&#45;&gt;LParis, France</title>
<path fill="none" stroke="black" stroke-dasharray="1,5" d="M1581.27,-525.09C1641.24,-515.73 1846.45,-491.18 1987.64,-566 1998.8,-571.92 1994.66,-581.75 2005.64,-588 2070.49,-624.9 2097.95,-601.29 2171.64,-613 2200.68,-617.61 2232.84,-622.96 2259.88,-627.53"/>
<polygon fill="black" stroke="black" points="2259.53,-631.02 2269.97,-629.23 2260.69,-624.11 2259.53,-631.02"/>
<text text-anchor="middle" x="2088.64" y="-616.8" font-family="Times-Roman" font-size="14.00">schema:addressLocality</text>
</g>
<!-- LF&#45;75002 -->
<g id="node19" class="node">
<title>LF&#45;75002</title>
<polygon fill="none" stroke="black" points="2284.64,-565 2284.64,-601 2359.64,-601 2359.64,-565 2284.64,-565"/>
<text text-anchor="middle" x="2322.14" y="-579.3" font-family="Times-Roman" font-size="14.00">F&#45;75002</text>
</g>
<!-- B_:b0&#45;&gt;LF&#45;75002 -->
<g id="edge18" class="edge">
<title>B_:b0&#45;&gt;LF&#45;75002</title>
<path fill="none" stroke="black" stroke-dasharray="1,5" d="M1581.46,-529.25C1675.37,-536.08 2126.61,-568.87 2274.27,-579.59"/>
<polygon fill="black" stroke="black" points="2274.14,-583.09 2284.36,-580.33 2274.64,-576.11 2274.14,-583.09"/>
<text text-anchor="middle" x="2088.64" y="-574.8" font-family="Times-Roman" font-size="14.00">schema:postalCode</text>
</g>
<!-- L38 avenue de l&#39;Opera -->
<g id="node20" class="node">
<title>L38 avenue de l&#39;Opera</title>
<polygon fill="none" stroke="black" points="2238.64,-510 2238.64,-546 2405.64,-546 2405.64,-510 2238.64,-510"/>
<text text-anchor="middle" x="2322.14" y="-524.3" font-family="Times-Roman" font-size="14.00">38 avenue de l&#39;Opera</text>
</g>
<!-- B_:b0&#45;&gt;L38 avenue de l&#39;Opera -->
<g id="edge19" class="edge">
<title>B_:b0&#45;&gt;L38 avenue de l&#39;Opera</title>
<path fill="none" stroke="black" stroke-dasharray="1,5" d="M1581.46,-528C1667.05,-528 2049.46,-528 2228.33,-528"/>
<polygon fill="black" stroke="black" points="2228.52,-531.5 2238.52,-528 2228.52,-524.5 2228.52,-531.5"/>
<text text-anchor="middle" x="2088.64" y="-531.8" font-family="Times-Roman" font-size="14.00">schema:streetAddress</text>
</g>
<!-- Rschema:Person -->
<g id="node21" class="node">
<title>Rschema:Person</title>
<ellipse fill="none" stroke="blue" cx="2322.14" cy="-363" rx="79.09" ry="18"/>
<text text-anchor="middle" x="2322.14" y="-359.3" font-family="Times-Roman" font-size="14.00">schema:Person</text>
</g>
<!-- B_:b1&#45;&gt;Rschema:Person -->
<g id="edge20" class="edge">
<title>B_:b1&#45;&gt;Rschema:Person</title>
<path fill="none" stroke="black" stroke-dasharray="1,5" d="M1581.58,-419.06C1639.3,-415.88 1830.11,-405.11 1987.64,-393 2073.37,-386.41 2171.36,-377.42 2238.83,-371.01"/>
<polygon fill="black" stroke="black" points="2239.35,-374.47 2248.97,-370.04 2238.69,-367.5 2239.35,-374.47"/>
<text text-anchor="middle" x="2088.64" y="-393.8" font-family="Times-Roman" font-size="14.00">rdfs:type</text>
</g>
<!-- LJack Dan -->
<g id="node22" class="node">
<title>LJack Dan</title>
<polygon fill="none" stroke="black" points="2283.64,-400 2283.64,-436 2360.64,-436 2360.64,-400 2283.64,-400"/>
<text text-anchor="middle" x="2322.14" y="-414.3" font-family="Times-Roman" font-size="14.00">Jack Dan</text>
</g>
<!-- B_:b1&#45;&gt;LJack Dan -->
<g id="edge21" class="edge">
<title>B_:b1&#45;&gt;LJack Dan</title>
<path fill="none" stroke="black" stroke-dasharray="1,5" d="M1581.46,-419.95C1675.15,-419.71 2124.55,-418.52 2273.25,-418.13"/>
<polygon fill="black" stroke="black" points="2273.43,-421.63 2283.43,-418.1 2273.42,-414.63 2273.43,-421.63"/>
<text text-anchor="middle" x="2088.64" y="-421.8" font-family="Times-Roman" font-size="14.00">schema:name</text>
</g>
<!-- B_:b2&#45;&gt;Rschema:Person -->
<g id="edge22" class="edge">
<title>B_:b2&#45;&gt;Rschema:Person</title>
<path fill="none" stroke="black" stroke-dasharray="1,5" d="M1581.63,-364.38C1654.01,-357.87 1938.28,-334.55 2171.64,-347 2194.8,-348.24 2219.89,-350.54 2242.79,-353.02"/>
<polygon fill="black" stroke="black" points="2242.47,-356.51 2252.79,-354.14 2243.24,-349.55 2242.47,-356.51"/>
<text text-anchor="middle" x="2088.64" y="-350.8" font-family="Times-Roman" font-size="14.00">rdfs:type</text>
</g>
<!-- LJohn Smith -->
<g id="node23" class="node">
<title>LJohn Smith</title>
<polygon fill="none" stroke="black" points="2276.14,-290 2276.14,-326 2368.14,-326 2368.14,-290 2276.14,-290"/>
<text text-anchor="middle" x="2322.14" y="-304.3" font-family="Times-Roman" font-size="14.00">John Smith</text>
</g>
<!-- B_:b2&#45;&gt;LJohn Smith -->
<g id="edge23" class="edge">
<title>B_:b2&#45;&gt;LJohn Smith</title>
<path fill="none" stroke="black" stroke-dasharray="1,5" d="M1581.18,-368.54C1640.02,-376.63 1839.84,-397.9 1987.64,-339 1997.31,-335.15 1995.94,-327.79 2005.64,-324 2091.7,-290.35 2201.14,-294.06 2265.91,-300.53"/>
<polygon fill="black" stroke="black" points="2265.6,-304.02 2275.91,-301.59 2266.33,-297.06 2265.6,-304.02"/>
<text text-anchor="middle" x="2088.64" y="-327.8" font-family="Times-Roman" font-size="14.00">schema:name</text>
</g>
<!-- Rschema:PropertyValue -->
<g id="node13" class="node">
<title>Rschema:PropertyValue</title>
<ellipse fill="none" stroke="blue" cx="2322.14" cy="-88" rx="111.28" ry="18"/>
<text text-anchor="middle" x="2322.14" y="-84.3" font-family="Times-Roman" font-size="14.00">schema:PropertyValue</text>
</g>
<!-- Rfile:///home/fils/src/Projects/OIH/odis&#45;arch/schema/thematics/expinst/graphs/ID_value_string&#45;&gt;Rschema:PropertyValue -->
<g id="edge12" class="edge">
<title>Rfile:///home/fils/src/Projects/OIH/odis&#45;arch/schema/thematics/expinst/graphs/ID_value_string&#45;&gt;Rschema:PropertyValue</title>
<path fill="none" stroke="black" stroke-dasharray="1,5" d="M1649.82,-218.68C1741.23,-232.64 1886.58,-240.17 1987.64,-174 2002.27,-164.42 1991.48,-149.28 2005.64,-139 2063.28,-97.15 2142.45,-84.45 2207.07,-82.18"/>
<polygon fill="black" stroke="black" points="2207.41,-85.68 2217.31,-81.91 2207.22,-78.68 2207.41,-85.68"/>
<text text-anchor="middle" x="2088.64" y="-142.8" font-family="Times-Roman" font-size="14.00">rdfs:type</text>
</g>
<!-- LOptional description of the ID -->
<g id="node14" class="node">
<title>LOptional description of the ID</title>
<polygon fill="none" stroke="black" points="2211.64,-235 2211.64,-271 2432.64,-271 2432.64,-235 2211.64,-235"/>
<text text-anchor="middle" x="2322.14" y="-249.3" font-family="Times-Roman" font-size="14.00">Optional description of the ID</text>
</g>
<!-- Rfile:///home/fils/src/Projects/OIH/odis&#45;arch/schema/thematics/expinst/graphs/ID_value_string&#45;&gt;LOptional description of the ID -->
<g id="edge13" class="edge">
<title>Rfile:///home/fils/src/Projects/OIH/odis&#45;arch/schema/thematics/expinst/graphs/ID_value_string&#45;&gt;LOptional description of the ID</title>
<path fill="none" stroke="black" stroke-dasharray="1,5" d="M1795.81,-216.07C1858.1,-220.19 1925.44,-224.71 1987.64,-229 2058.55,-233.9 2137.93,-239.6 2201.45,-244.22"/>
<polygon fill="black" stroke="black" points="2201.27,-247.71 2211.5,-244.95 2201.78,-240.73 2201.27,-247.71"/>
<text text-anchor="middle" x="2088.64" y="-244.8" font-family="Times-Roman" font-size="14.00">schema:description</text>
</g>
<!-- Lthis can be text or URL.. -->
<g id="node15" class="node">
<title>Lthis can be text or URL..</title>
<polygon fill="none" stroke="black" points="2229.64,-180 2229.64,-216 2414.64,-216 2414.64,-180 2229.64,-180"/>
<text text-anchor="middle" x="2322.14" y="-194.3" font-family="Times-Roman" font-size="14.00">this can be text or URL..</text>
</g>
<!-- Rfile:///home/fils/src/Projects/OIH/odis&#45;arch/schema/thematics/expinst/graphs/ID_value_string&#45;&gt;Lthis can be text or URL.. -->
<g id="edge14" class="edge">
<title>Rfile:///home/fils/src/Projects/OIH/odis&#45;arch/schema/thematics/expinst/graphs/ID_value_string&#45;&gt;Lthis can be text or URL..</title>
<path fill="none" stroke="black" stroke-dasharray="1,5" d="M1985.84,-199.33C2072.98,-198.98 2157.03,-198.65 2219.18,-198.4"/>
<polygon fill="black" stroke="black" points="2219.37,-201.9 2229.35,-198.36 2219.34,-194.9 2219.37,-201.9"/>
<text text-anchor="middle" x="2088.64" y="-202.8" font-family="Times-Roman" font-size="14.00">schema:propertyID</text>
</g>
<!-- Lhttps://foo.org/linkToPropertyIDPage -->
<g id="node16" class="node">
<title>Lhttps://foo.org/linkToPropertyIDPage</title>
<polygon fill="none" stroke="black" points="2189.64,-125 2189.64,-161 2454.64,-161 2454.64,-125 2189.64,-125"/>
<text text-anchor="middle" x="2322.14" y="-139.3" font-family="Times-Roman" font-size="14.00">https://foo.org/linkToPropertyIDPage</text>
</g>
<!-- Rfile:///home/fils/src/Projects/OIH/odis&#45;arch/schema/thematics/expinst/graphs/ID_value_string&#45;&gt;Lhttps://foo.org/linkToPropertyIDPage -->
<g id="edge15" class="edge">
<title>Rfile:///home/fils/src/Projects/OIH/odis&#45;arch/schema/thematics/expinst/graphs/ID_value_string&#45;&gt;Lhttps://foo.org/linkToPropertyIDPage</title>
<path fill="none" stroke="black" stroke-dasharray="1,5" d="M1811.99,-186.41C1869.67,-182.68 1930.82,-178.45 1987.64,-174 2050.52,-169.07 2119.99,-162.76 2179.18,-157.11"/>
<polygon fill="black" stroke="black" points="2179.72,-160.57 2189.34,-156.14 2179.06,-153.61 2179.72,-160.57"/>
<text text-anchor="middle" x="2088.64" y="-174.8" font-family="Times-Roman" font-size="14.00">schema:url</text>
</g>
<!-- B_:b3&#45;&gt;Rschema:Organization -->
<g id="edge24" class="edge">
<title>B_:b3&#45;&gt;Rschema:Organization</title>
<path fill="none" stroke="black" stroke-dasharray="1,5" d="M1581.46,-657.82C1664.11,-661.75 2023.54,-678.85 2209.2,-687.68"/>
<polygon fill="black" stroke="black" points="2209.12,-691.18 2219.27,-688.15 2209.45,-684.18 2209.12,-691.18"/>
<text text-anchor="middle" x="2088.64" y="-688.8" font-family="Times-Roman" font-size="14.00">rdfs:type</text>
</g>
<!-- B_:b4&#45;&gt;Rschema:Organization -->
<g id="edge25" class="edge">
<title>B_:b4&#45;&gt;Rschema:Organization</title>
<path fill="none" stroke="black" stroke-dasharray="1,5" d="M1581.37,-594.14C1667.71,-600 2055.4,-627.63 2171.64,-659 2179.93,-661.24 2181.41,-663.57 2189.64,-666 2204.91,-670.5 2221.4,-674.53 2237.36,-678"/>
<polygon fill="black" stroke="black" points="2236.71,-681.44 2247.22,-680.1 2238.17,-674.6 2236.71,-681.44"/>
<text text-anchor="middle" x="2088.64" y="-662.8" font-family="Times-Roman" font-size="14.00">rdfs:type</text>
</g>
</g>
</svg>
