<?xml version="1.0" encoding="UTF-8" standalone="no"?>
<!DOCTYPE svg PUBLIC "-//W3C//DTD SVG 1.1//EN"
 "http://www.w3.org/Graphics/SVG/1.1/DTD/svg11.dtd">
<!-- Generated by graphviz version 2.44.0 (0)
 -->
<!-- Pages: 1 -->
<svg width="2480pt" height="417pt"
 viewBox="0.00 0.00 2479.64 416.50" xmlns="http://www.w3.org/2000/svg" xmlns:xlink="http://www.w3.org/1999/xlink">
<g id="graph0" class="graph" transform="scale(1 1) rotate(0) translate(4 412.5)">
<polygon fill="white" stroke="transparent" points="-4,4 -4,-412.5 2475.64,-412.5 2475.64,4 -4,4"/>
<text text-anchor="middle" x="1235.82" y="-22.8" font-family="Times-Roman" font-size="14.00">Model:</text>
<text text-anchor="middle" x="1235.82" y="-7.8" font-family="Times-Roman" font-size="14.00">https://iode.org/</text>
<!-- Rfile:///home/fils/src/Projects/OIH/odis&#45;arch/schema/thematics/expinst/graphs/ID_for_this_metadata_record -->
<g id="node1" class="node">
<title>Rfile:///home/fils/src/Projects/OIH/odis&#45;arch/schema/thematics/expinst/graphs/ID_for_this_metadata_record</title>
<ellipse fill="none" stroke="blue" cx="482.91" cy="-225.5" rx="482.81" ry="18"/>
<text text-anchor="middle" x="482.91" y="-221.8" font-family="Times-Roman" font-size="14.00">file:///home/fils/src/Projects/OIH/odis&#45;arch/schema/thematics/expinst/graphs/ID_for_this_metadata_record</text>
</g>
<!-- Rschema:Person -->
<g id="node2" class="node">
<title>Rschema:Person</title>
<ellipse fill="none" stroke="blue" cx="1554.23" cy="-362.5" rx="79.09" ry="18"/>
<text text-anchor="middle" x="1554.23" y="-358.8" font-family="Times-Roman" font-size="14.00">schema:Person</text>
</g>
<!-- Rfile:///home/fils/src/Projects/OIH/odis&#45;arch/schema/thematics/expinst/graphs/ID_for_this_metadata_record&#45;&gt;Rschema:Person -->
<g id="edge1" class="edge">
<title>Rfile:///home/fils/src/Projects/OIH/odis&#45;arch/schema/thematics/expinst/graphs/ID_for_this_metadata_record&#45;&gt;Rschema:Person</title>
<path fill="none" stroke="black" stroke-dasharray="1,5" d="M570.46,-243.22C694.01,-267.83 928.28,-311.98 1129.81,-335.5 1245.29,-348.98 1379.32,-356.1 1465.14,-359.58"/>
<polygon fill="black" stroke="black" points="1465.23,-363.09 1475.36,-359.99 1465.5,-356.09 1465.23,-363.09"/>
<text text-anchor="middle" x="1047.81" y="-334.3" font-family="Times-Roman" font-size="14.00">rdfs:type</text>
</g>
<!-- Rfile:///home/fils/src/Projects/OIH/odis&#45;arch/schema/thematics/expinst/graphs/ID_value_string -->
<g id="node3" class="node">
<title>Rfile:///home/fils/src/Projects/OIH/odis&#45;arch/schema/thematics/expinst/graphs/ID_value_string</title>
<ellipse fill="none" stroke="blue" cx="1554.23" cy="-308.5" rx="424.32" ry="18"/>
<text text-anchor="middle" x="1554.23" y="-304.8" font-family="Times-Roman" font-size="14.00">file:///home/fils/src/Projects/OIH/odis&#45;arch/schema/thematics/expinst/graphs/ID_value_string</text>
</g>
<!-- Rfile:///home/fils/src/Projects/OIH/odis&#45;arch/schema/thematics/expinst/graphs/ID_for_this_metadata_record&#45;&gt;Rfile:///home/fils/src/Projects/OIH/odis&#45;arch/schema/thematics/expinst/graphs/ID_value_string -->
<g id="edge2" class="edge">
<title>Rfile:///home/fils/src/Projects/OIH/odis&#45;arch/schema/thematics/expinst/graphs/ID_for_this_metadata_record&#45;&gt;Rfile:///home/fils/src/Projects/OIH/odis&#45;arch/schema/thematics/expinst/graphs/ID_value_string</title>
<path fill="none" stroke="black" stroke-dasharray="1,5" d="M663.75,-242.2C793.28,-253.96 972.26,-269.65 1129.81,-281.5 1184.09,-285.58 1242.32,-289.56 1297.69,-293.15"/>
<polygon fill="black" stroke="black" points="1297.79,-296.66 1307.99,-293.81 1298.24,-289.68 1297.79,-296.66"/>
<text text-anchor="middle" x="1047.81" y="-282.3" font-family="Times-Roman" font-size="14.00">schema:identifier</text>
</g>
<!-- LProfessor -->
<g id="node4" class="node">
<title>LProfessor</title>
<polygon fill="none" stroke="black" points="1513.73,-235.5 1513.73,-271.5 1594.73,-271.5 1594.73,-235.5 1513.73,-235.5"/>
<text text-anchor="middle" x="1554.23" y="-249.8" font-family="Times-Roman" font-size="14.00">Professor</text>
</g>
<!-- Rfile:///home/fils/src/Projects/OIH/odis&#45;arch/schema/thematics/expinst/graphs/ID_for_this_metadata_record&#45;&gt;LProfessor -->
<g id="edge3" class="edge">
<title>Rfile:///home/fils/src/Projects/OIH/odis&#45;arch/schema/thematics/expinst/graphs/ID_for_this_metadata_record&#45;&gt;LProfessor</title>
<path fill="none" stroke="black" stroke-dasharray="1,5" d="M878.66,-235.84C1115.6,-242.04 1391.96,-249.28 1503.15,-252.19"/>
<polygon fill="black" stroke="black" points="1503.3,-255.69 1513.39,-252.46 1503.48,-248.7 1503.3,-255.69"/>
<text text-anchor="middle" x="1047.81" y="-245.3" font-family="Times-Roman" font-size="14.00">schema:jobTitle</text>
</g>
<!-- LJane Doe -->
<g id="node5" class="node">
<title>LJane Doe</title>
<polygon fill="none" stroke="black" points="1515.23,-180.5 1515.23,-216.5 1593.23,-216.5 1593.23,-180.5 1515.23,-180.5"/>
<text text-anchor="middle" x="1554.23" y="-194.8" font-family="Times-Roman" font-size="14.00">Jane Doe</text>
</g>
<!-- Rfile:///home/fils/src/Projects/OIH/odis&#45;arch/schema/thematics/expinst/graphs/ID_for_this_metadata_record&#45;&gt;LJane Doe -->
<g id="edge4" class="edge">
<title>Rfile:///home/fils/src/Projects/OIH/odis&#45;arch/schema/thematics/expinst/graphs/ID_for_this_metadata_record&#45;&gt;LJane Doe</title>
<path fill="none" stroke="black" stroke-dasharray="1,5" d="M883.22,-215.42C1120.33,-209.43 1395.46,-202.48 1504.82,-199.72"/>
<polygon fill="black" stroke="black" points="1504.97,-203.22 1514.88,-199.47 1504.8,-196.22 1504.97,-203.22"/>
<text text-anchor="middle" x="1047.81" y="-216.3" font-family="Times-Roman" font-size="14.00">schema:name</text>
</g>
<!-- L(425) 123&#45;4567 -->
<g id="node6" class="node">
<title>L(425) 123&#45;4567</title>
<polygon fill="none" stroke="black" points="1490.73,-125.5 1490.73,-161.5 1617.73,-161.5 1617.73,-125.5 1490.73,-125.5"/>
<text text-anchor="middle" x="1554.23" y="-139.8" font-family="Times-Roman" font-size="14.00">(425) 123&#45;4567</text>
</g>
<!-- Rfile:///home/fils/src/Projects/OIH/odis&#45;arch/schema/thematics/expinst/graphs/ID_for_this_metadata_record&#45;&gt;L(425) 123&#45;4567 -->
<g id="edge5" class="edge">
<title>Rfile:///home/fils/src/Projects/OIH/odis&#45;arch/schema/thematics/expinst/graphs/ID_for_this_metadata_record&#45;&gt;L(425) 123&#45;4567</title>
<path fill="none" stroke="black" stroke-dasharray="1,5" d="M671.79,-208.93C800.64,-197.77 975.52,-183.05 1129.81,-171.5 1252.83,-162.29 1396.06,-153.15 1480.44,-147.93"/>
<polygon fill="black" stroke="black" points="1480.67,-151.42 1490.43,-147.31 1480.24,-144.43 1480.67,-151.42"/>
<text text-anchor="middle" x="1047.81" y="-185.3" font-family="Times-Roman" font-size="14.00">schema:telephone</text>
</g>
<!-- Lhttp://www.janedoe.com -->
<g id="node7" class="node">
<title>Lhttp://www.janedoe.com</title>
<polygon fill="none" stroke="black" points="1461.73,-70.5 1461.73,-106.5 1646.73,-106.5 1646.73,-70.5 1461.73,-70.5"/>
<text text-anchor="middle" x="1554.23" y="-84.8" font-family="Times-Roman" font-size="14.00">http://www.janedoe.com</text>
</g>
<!-- Rfile:///home/fils/src/Projects/OIH/odis&#45;arch/schema/thematics/expinst/graphs/ID_for_this_metadata_record&#45;&gt;Lhttp://www.janedoe.com -->
<g id="edge6" class="edge">
<title>Rfile:///home/fils/src/Projects/OIH/odis&#45;arch/schema/thematics/expinst/graphs/ID_for_this_metadata_record&#45;&gt;Lhttp://www.janedoe.com</title>
<path fill="none" stroke="black" stroke-dasharray="1,5" d="M570.46,-207.78C694.01,-183.17 928.28,-139.02 1129.81,-115.5 1239.42,-102.71 1365.76,-95.64 1451.7,-91.98"/>
<polygon fill="black" stroke="black" points="1451.87,-95.48 1461.71,-91.56 1451.57,-88.48 1451.87,-95.48"/>
<text text-anchor="middle" x="1047.81" y="-137.3" font-family="Times-Roman" font-size="14.00">schema:url</text>
</g>
<!-- Rschema:PropertyValue -->
<g id="node8" class="node">
<title>Rschema:PropertyValue</title>
<ellipse fill="none" stroke="blue" cx="2311.14" cy="-390.5" rx="111.28" ry="18"/>
<text text-anchor="middle" x="2311.14" y="-386.8" font-family="Times-Roman" font-size="14.00">schema:PropertyValue</text>
</g>
<!-- Rfile:///home/fils/src/Projects/OIH/odis&#45;arch/schema/thematics/expinst/graphs/ID_value_string&#45;&gt;Rschema:PropertyValue -->
<g id="edge7" class="edge">
<title>Rfile:///home/fils/src/Projects/OIH/odis&#45;arch/schema/thematics/expinst/graphs/ID_value_string&#45;&gt;Rschema:PropertyValue</title>
<path fill="none" stroke="black" stroke-dasharray="1,5" d="M1914.17,-318.05C1936.23,-322.74 1957.88,-328.49 1978.64,-335.5 1987.75,-338.58 1987.65,-344.09 1996.64,-347.5 2058.31,-370.87 2131.09,-381.77 2190.99,-386.77"/>
<polygon fill="black" stroke="black" points="2191.01,-390.28 2201.25,-387.58 2191.56,-383.3 2191.01,-390.28"/>
<text text-anchor="middle" x="2064.64" y="-383.3" font-family="Times-Roman" font-size="14.00">rdfs:type</text>
</g>
<!-- LOptional description of the ID -->
<g id="node9" class="node">
<title>LOptional description of the ID</title>
<polygon fill="none" stroke="black" points="2200.64,-317.5 2200.64,-353.5 2421.64,-353.5 2421.64,-317.5 2200.64,-317.5"/>
<text text-anchor="middle" x="2311.14" y="-331.8" font-family="Times-Roman" font-size="14.00">Optional description of the ID</text>
</g>
<!-- Rfile:///home/fils/src/Projects/OIH/odis&#45;arch/schema/thematics/expinst/graphs/ID_value_string&#45;&gt;LOptional description of the ID -->
<g id="edge8" class="edge">
<title>Rfile:///home/fils/src/Projects/OIH/odis&#45;arch/schema/thematics/expinst/graphs/ID_value_string&#45;&gt;LOptional description of the ID</title>
<path fill="none" stroke="black" stroke-dasharray="1,5" d="M1879.21,-320.09C1989.69,-324.04 2106.41,-328.21 2190.47,-331.22"/>
<polygon fill="black" stroke="black" points="2190.44,-334.72 2200.56,-331.58 2190.69,-327.73 2190.44,-334.72"/>
<text text-anchor="middle" x="2064.64" y="-332.3" font-family="Times-Roman" font-size="14.00">schema:description</text>
</g>
<!-- LThis can be text or URL for an ID like ORCID -->
<g id="node10" class="node">
<title>LThis can be text or URL for an ID like ORCID</title>
<polygon fill="none" stroke="black" points="2150.64,-262.5 2150.64,-298.5 2471.64,-298.5 2471.64,-262.5 2150.64,-262.5"/>
<text text-anchor="middle" x="2311.14" y="-276.8" font-family="Times-Roman" font-size="14.00">This can be text or URL for an ID like ORCID</text>
</g>
<!-- Rfile:///home/fils/src/Projects/OIH/odis&#45;arch/schema/thematics/expinst/graphs/ID_value_string&#45;&gt;LThis can be text or URL for an ID like ORCID -->
<g id="edge9" class="edge">
<title>Rfile:///home/fils/src/Projects/OIH/odis&#45;arch/schema/thematics/expinst/graphs/ID_value_string&#45;&gt;LThis can be text or URL for an ID like ORCID</title>
<path fill="none" stroke="black" stroke-dasharray="1,5" d="M1874.28,-296.67C1965.74,-293.27 2061.89,-289.71 2140.54,-286.79"/>
<polygon fill="black" stroke="black" points="2140.67,-290.29 2150.53,-286.42 2140.41,-283.29 2140.67,-290.29"/>
<text text-anchor="middle" x="2064.64" y="-295.3" font-family="Times-Roman" font-size="14.00">schema:propertyID</text>
</g>
<!-- Lhttps://foo.org/linkToPropertyIDPage -->
<g id="node11" class="node">
<title>Lhttps://foo.org/linkToPropertyIDPage</title>
<polygon fill="none" stroke="black" points="2178.64,-207.5 2178.64,-243.5 2443.64,-243.5 2443.64,-207.5 2178.64,-207.5"/>
<text text-anchor="middle" x="2311.14" y="-221.8" font-family="Times-Roman" font-size="14.00">https://foo.org/linkToPropertyIDPage</text>
</g>
<!-- Rfile:///home/fils/src/Projects/OIH/odis&#45;arch/schema/thematics/expinst/graphs/ID_value_string&#45;&gt;Lhttps://foo.org/linkToPropertyIDPage -->
<g id="edge10" class="edge">
<title>Rfile:///home/fils/src/Projects/OIH/odis&#45;arch/schema/thematics/expinst/graphs/ID_value_string&#45;&gt;Lhttps://foo.org/linkToPropertyIDPage</title>
<path fill="none" stroke="black" stroke-dasharray="1,5" d="M1920.59,-299.33C1940.48,-294.47 1959.96,-288.58 1978.64,-281.5 1988.12,-277.91 1987.29,-271.42 1996.64,-267.5 2050.15,-245.06 2112.9,-233.99 2168.15,-228.72"/>
<polygon fill="black" stroke="black" points="2168.73,-232.18 2178.37,-227.81 2168.1,-225.21 2168.73,-232.18"/>
<text text-anchor="middle" x="2064.64" y="-271.3" font-family="Times-Roman" font-size="14.00">schema:url</text>
</g>
</g>
</svg>
