<?xml version="1.0" encoding="UTF-8" standalone="no"?>
<!DOCTYPE svg PUBLIC "-//W3C//DTD SVG 1.1//EN"
 "http://www.w3.org/Graphics/SVG/1.1/DTD/svg11.dtd">
<!-- Generated by graphviz version 2.44.0 (0)
 -->
<!-- Pages: 1 -->
<svg width="1550pt" height="483pt"
 viewBox="0.00 0.00 1549.82 483.37" xmlns="http://www.w3.org/2000/svg" xmlns:xlink="http://www.w3.org/1999/xlink">
<g id="graph0" class="graph" transform="scale(1 1) rotate(0) translate(4 479.37)">
<polygon fill="white" stroke="transparent" points="-4,4 -4,-479.37 1545.82,-479.37 1545.82,4 -4,4"/>
<text text-anchor="middle" x="770.91" y="-22.8" font-family="Times-Roman" font-size="14.00">Model:</text>
<text text-anchor="middle" x="770.91" y="-7.8" font-family="Times-Roman" font-size="14.00">https://iode.org/</text>
<!-- Rfile:///home/fils/src/Projects/OIH/odis&#45;arch/schema/thematics/expinst/graphs/ID_value_string -->
<g id="node1" class="node">
<title>Rfile:///home/fils/src/Projects/OIH/odis&#45;arch/schema/thematics/expinst/graphs/ID_value_string</title>
<ellipse fill="none" stroke="blue" cx="624.41" cy="-375.37" rx="424.32" ry="18"/>
<text text-anchor="middle" x="624.41" y="-371.67" font-family="Times-Roman" font-size="14.00">file:///home/fils/src/Projects/OIH/odis&#45;arch/schema/thematics/expinst/graphs/ID_value_string</text>
</g>
<!-- Rschema:PropertyValue -->
<g id="node2" class="node">
<title>Rschema:PropertyValue</title>
<ellipse fill="none" stroke="blue" cx="1381.32" cy="-457.37" rx="111.28" ry="18"/>
<text text-anchor="middle" x="1381.32" y="-453.67" font-family="Times-Roman" font-size="14.00">schema:PropertyValue</text>
</g>
<!-- Rfile:///home/fils/src/Projects/OIH/odis&#45;arch/schema/thematics/expinst/graphs/ID_value_string&#45;&gt;Rschema:PropertyValue -->
<g id="edge1" class="edge">
<title>Rfile:///home/fils/src/Projects/OIH/odis&#45;arch/schema/thematics/expinst/graphs/ID_value_string&#45;&gt;Rschema:PropertyValue</title>
<path fill="none" stroke="black" stroke-dasharray="1,5" d="M780,-392.16C928.99,-408.35 1150.17,-432.37 1278.33,-446.29"/>
<polygon fill="black" stroke="black" points="1278.21,-449.8 1288.53,-447.4 1278.97,-442.84 1278.21,-449.8"/>
<text text-anchor="middle" x="1134.82" y="-441.17" font-family="Times-Roman" font-size="14.00">rdfs:type</text>
</g>
<!-- LOptional description of the ID -->
<g id="node3" class="node">
<title>LOptional description of the ID</title>
<polygon fill="none" stroke="black" points="1270.82,-384.37 1270.82,-420.37 1491.82,-420.37 1491.82,-384.37 1270.82,-384.37"/>
<text text-anchor="middle" x="1381.32" y="-398.67" font-family="Times-Roman" font-size="14.00">Optional description of the ID</text>
</g>
<!-- Rfile:///home/fils/src/Projects/OIH/odis&#45;arch/schema/thematics/expinst/graphs/ID_value_string&#45;&gt;LOptional description of the ID -->
<g id="edge2" class="edge">
<title>Rfile:///home/fils/src/Projects/OIH/odis&#45;arch/schema/thematics/expinst/graphs/ID_value_string&#45;&gt;LOptional description of the ID</title>
<path fill="none" stroke="black" stroke-dasharray="1,5" d="M949.4,-386.96C1059.88,-390.91 1176.6,-395.09 1260.66,-398.09"/>
<polygon fill="black" stroke="black" points="1260.62,-401.59 1270.74,-398.45 1260.87,-394.6 1260.62,-401.59"/>
<text text-anchor="middle" x="1134.82" y="-399.17" font-family="Times-Roman" font-size="14.00">schema:description</text>
</g>
<!-- LThis can be text or URL for an ID like ORCID -->
<g id="node4" class="node">
<title>LThis can be text or URL for an ID like ORCID</title>
<polygon fill="none" stroke="black" points="1220.82,-329.37 1220.82,-365.37 1541.82,-365.37 1541.82,-329.37 1220.82,-329.37"/>
<text text-anchor="middle" x="1381.32" y="-343.67" font-family="Times-Roman" font-size="14.00">This can be text or URL for an ID like ORCID</text>
</g>
<!-- Rfile:///home/fils/src/Projects/OIH/odis&#45;arch/schema/thematics/expinst/graphs/ID_value_string&#45;&gt;LThis can be text or URL for an ID like ORCID -->
<g id="edge3" class="edge">
<title>Rfile:///home/fils/src/Projects/OIH/odis&#45;arch/schema/thematics/expinst/graphs/ID_value_string&#45;&gt;LThis can be text or URL for an ID like ORCID</title>
<path fill="none" stroke="black" stroke-dasharray="1,5" d="M944.47,-363.54C1035.93,-360.15 1132.07,-356.58 1210.73,-353.66"/>
<polygon fill="black" stroke="black" points="1210.86,-357.16 1220.72,-353.29 1210.6,-350.16 1210.86,-357.16"/>
<text text-anchor="middle" x="1134.82" y="-362.17" font-family="Times-Roman" font-size="14.00">schema:propertyID</text>
</g>
<!-- Lhttps://foo.org/linkToPropertyIDPage -->
<g id="node5" class="node">
<title>Lhttps://foo.org/linkToPropertyIDPage</title>
<polygon fill="none" stroke="black" points="1248.82,-274.37 1248.82,-310.37 1513.82,-310.37 1513.82,-274.37 1248.82,-274.37"/>
<text text-anchor="middle" x="1381.32" y="-288.67" font-family="Times-Roman" font-size="14.00">https://foo.org/linkToPropertyIDPage</text>
</g>
<!-- Rfile:///home/fils/src/Projects/OIH/odis&#45;arch/schema/thematics/expinst/graphs/ID_value_string&#45;&gt;Lhttps://foo.org/linkToPropertyIDPage -->
<g id="edge4" class="edge">
<title>Rfile:///home/fils/src/Projects/OIH/odis&#45;arch/schema/thematics/expinst/graphs/ID_value_string&#45;&gt;Lhttps://foo.org/linkToPropertyIDPage</title>
<path fill="none" stroke="black" stroke-dasharray="1,5" d="M990.77,-366.2C1010.67,-361.34 1030.14,-355.45 1048.82,-348.37 1058.3,-344.78 1057.48,-338.29 1066.82,-334.37 1120.34,-311.93 1183.09,-300.86 1238.33,-295.59"/>
<polygon fill="black" stroke="black" points="1238.91,-299.06 1248.56,-294.68 1238.29,-292.08 1238.91,-299.06"/>
<text text-anchor="middle" x="1134.82" y="-338.17" font-family="Times-Roman" font-size="14.00">schema:url</text>
</g>
<!-- B_:b0 -->
<g id="node6" class="node">
<title>B_:b0</title>
<ellipse fill="none" stroke="green" cx="18" cy="-238.37" rx="18" ry="18"/>
</g>
<!-- B_:b0&#45;&gt;Rfile:///home/fils/src/Projects/OIH/odis&#45;arch/schema/thematics/expinst/graphs/ID_value_string -->
<g id="edge6" class="edge">
<title>B_:b0&#45;&gt;Rfile:///home/fils/src/Projects/OIH/odis&#45;arch/schema/thematics/expinst/graphs/ID_value_string</title>
<path fill="none" stroke="black" stroke-dasharray="1,5" d="M22.82,-255.77C27.39,-272.48 36.71,-297.22 54,-311.37 105.8,-353.77 133.87,-337.98 200,-348.37 235.49,-353.95 272.82,-358.38 310,-361.91"/>
<polygon fill="black" stroke="black" points="309.69,-365.39 319.97,-362.83 310.33,-358.42 309.69,-365.39"/>
<text text-anchor="middle" x="118" y="-349.17" font-family="Times-Roman" font-size="14.00">schema:identifier</text>
</g>
<!-- Rschema:Person -->
<g id="node7" class="node">
<title>Rschema:Person</title>
<ellipse fill="none" stroke="blue" cx="624.41" cy="-321.37" rx="79.09" ry="18"/>
<text text-anchor="middle" x="624.41" y="-317.67" font-family="Times-Roman" font-size="14.00">schema:Person</text>
</g>
<!-- B_:b0&#45;&gt;Rschema:Person -->
<g id="edge5" class="edge">
<title>B_:b0&#45;&gt;Rschema:Person</title>
<path fill="none" stroke="black" stroke-dasharray="1,5" d="M29.42,-252.53C35.69,-259.97 44.32,-268.52 54,-273.37 112.62,-302.72 134.79,-287.61 200,-294.37 315.81,-306.37 450.04,-313.85 535.78,-317.81"/>
<polygon fill="black" stroke="black" points="535.85,-321.32 546,-318.28 536.17,-314.32 535.85,-321.32"/>
<text text-anchor="middle" x="118" y="-296.17" font-family="Times-Roman" font-size="14.00">rdfs:type</text>
</g>
<!-- LProfessor -->
<g id="node8" class="node">
<title>LProfessor</title>
<polygon fill="none" stroke="black" points="583.91,-248.37 583.91,-284.37 664.91,-284.37 664.91,-248.37 583.91,-248.37"/>
<text text-anchor="middle" x="624.41" y="-262.67" font-family="Times-Roman" font-size="14.00">Professor</text>
</g>
<!-- B_:b0&#45;&gt;LProfessor -->
<g id="edge7" class="edge">
<title>B_:b0&#45;&gt;LProfessor</title>
<path fill="none" stroke="black" stroke-dasharray="1,5" d="M36.03,-241.75C41.72,-242.76 48.11,-243.76 54,-244.37 245.25,-264.37 474.34,-266.68 573.55,-266.64"/>
<polygon fill="black" stroke="black" points="573.6,-270.14 583.59,-266.62 573.59,-263.14 573.6,-270.14"/>
<text text-anchor="middle" x="118" y="-258.17" font-family="Times-Roman" font-size="14.00">schema:jobTitle</text>
</g>
<!-- LJane Doe -->
<g id="node9" class="node">
<title>LJane Doe</title>
<polygon fill="none" stroke="black" points="585.41,-193.37 585.41,-229.37 663.41,-229.37 663.41,-193.37 585.41,-193.37"/>
<text text-anchor="middle" x="624.41" y="-207.67" font-family="Times-Roman" font-size="14.00">Jane Doe</text>
</g>
<!-- B_:b0&#45;&gt;LJane Doe -->
<g id="edge8" class="edge">
<title>B_:b0&#45;&gt;LJane Doe</title>
<path fill="none" stroke="black" stroke-dasharray="1,5" d="M35.58,-233.31C41.36,-231.76 47.91,-230.24 54,-229.37 245.31,-202.09 476.27,-205.97 574.93,-209.33"/>
<polygon fill="black" stroke="black" points="575.06,-212.84 585.18,-209.7 575.31,-205.84 575.06,-212.84"/>
<text text-anchor="middle" x="118" y="-233.17" font-family="Times-Roman" font-size="14.00">schema:name</text>
</g>
<!-- L(425) 123&#45;4567 -->
<g id="node10" class="node">
<title>L(425) 123&#45;4567</title>
<polygon fill="none" stroke="black" points="560.91,-138.37 560.91,-174.37 687.91,-174.37 687.91,-138.37 560.91,-138.37"/>
<text text-anchor="middle" x="624.41" y="-152.67" font-family="Times-Roman" font-size="14.00">(425) 123&#45;4567</text>
</g>
<!-- B_:b0&#45;&gt;L(425) 123&#45;4567 -->
<g id="edge9" class="edge">
<title>B_:b0&#45;&gt;L(425) 123&#45;4567</title>
<path fill="none" stroke="black" stroke-dasharray="1,5" d="M27.58,-222.84C33.65,-213.47 42.71,-202.23 54,-196.37 111.78,-166.36 135.07,-189.19 200,-184.37 323.02,-175.25 466.25,-166.08 550.63,-160.83"/>
<polygon fill="black" stroke="black" points="550.86,-164.32 560.62,-160.21 550.42,-157.34 550.86,-164.32"/>
<text text-anchor="middle" x="118" y="-200.17" font-family="Times-Roman" font-size="14.00">schema:telephone</text>
</g>
<!-- Lhttp://www.janedoe.com -->
<g id="node11" class="node">
<title>Lhttp://www.janedoe.com</title>
<polygon fill="none" stroke="black" points="531.91,-83.37 531.91,-119.37 716.91,-119.37 716.91,-83.37 531.91,-83.37"/>
<text text-anchor="middle" x="624.41" y="-97.67" font-family="Times-Roman" font-size="14.00">http://www.janedoe.com</text>
</g>
<!-- B_:b0&#45;&gt;Lhttp://www.janedoe.com -->
<g id="edge10" class="edge">
<title>B_:b0&#45;&gt;Lhttp://www.janedoe.com</title>
<path fill="none" stroke="black" stroke-dasharray="1,5" d="M22.31,-220.6C26.55,-202.9 35.67,-176.3 54,-161.37 187.04,-53.07 399.48,-63.52 523.8,-81.83"/>
<polygon fill="black" stroke="black" points="523.29,-85.3 533.71,-83.33 524.34,-78.37 523.29,-85.3"/>
<text text-anchor="middle" x="118" y="-165.17" font-family="Times-Roman" font-size="14.00">schema:url</text>
</g>
</g>
</svg>
