<?xml version="1.0" encoding="UTF-8" standalone="no"?>
<!DOCTYPE svg PUBLIC "-//W3C//DTD SVG 1.1//EN"
 "http://www.w3.org/Graphics/SVG/1.1/DTD/svg11.dtd">
<!-- Generated by graphviz version 2.43.0 (0)
 -->
<!-- Title: %3 Pages: 1 -->
<svg width="1200pt" height="475pt"
 viewBox="0.00 0.00 1200.35 475.29" xmlns="http://www.w3.org/2000/svg" xmlns:xlink="http://www.w3.org/1999/xlink">
<g id="graph0" class="graph" transform="scale(1 1) rotate(0) translate(4 471.29)">
<title>%3</title>
<polygon fill="white" stroke="transparent" points="-4,4 -4,-471.29 1196.35,-471.29 1196.35,4 -4,4"/>
<text text-anchor="middle" x="596.17" y="-22.8" font-family="Times,serif" font-size="14.00">Model:</text>
<text text-anchor="middle" x="596.17" y="-7.8" font-family="Times,serif" font-size="14.00">https://iode.org/</text>
<!-- Rfile:///home/fils/src/git/odis&#45;arch/schema/thematics/expinst/graphs/ID_value_string -->
<g id="node1" class="node">
<title>Rfile:///home/fils/src/git/odis&#45;arch/schema/thematics/expinst/graphs/ID_value_string</title>
<ellipse fill="none" stroke="blue" cx="474.17" cy="-367.29" rx="304.35" ry="18"/>
<text text-anchor="middle" x="474.17" y="-363.59" font-family="Times,serif" font-size="14.00">file:///home/fils/src/git/odis&#45;arch/schema/thematics/expinst/graphs/ID_value_string</text>
</g>
<!-- Rschema:PropertyValue -->
<g id="node2" class="node">
<title>Rschema:PropertyValue</title>
<ellipse fill="none" stroke="blue" cx="1056.35" cy="-449.29" rx="90.18" ry="18"/>
<text text-anchor="middle" x="1056.35" y="-445.59" font-family="Times,serif" font-size="14.00">schema:PropertyValue</text>
</g>
<!-- Rfile:///home/fils/src/git/odis&#45;arch/schema/thematics/expinst/graphs/ID_value_string&#45;&gt;Rschema:PropertyValue -->
<g id="edge1" class="edge">
<title>Rfile:///home/fils/src/git/odis&#45;arch/schema/thematics/expinst/graphs/ID_value_string&#45;&gt;Rschema:PropertyValue</title>
<path fill="none" stroke="black" stroke-dasharray="1,5" d="M592.58,-383.88C705.26,-399.81 872.6,-423.46 972.15,-437.53"/>
<polygon fill="black" stroke="black" points="971.77,-441.01 982.16,-438.94 972.75,-434.08 971.77,-441.01"/>
<text text-anchor="middle" x="849.35" y="-431.09" font-family="Times,serif" font-size="14.00">rdfs:type</text>
</g>
<!-- LOptional description of the ID -->
<g id="node3" class="node">
<title>LOptional description of the ID</title>
<polygon fill="none" stroke="black" points="965.85,-376.29 965.85,-412.29 1146.85,-412.29 1146.85,-376.29 965.85,-376.29"/>
<text text-anchor="middle" x="1056.35" y="-390.59" font-family="Times,serif" font-size="14.00">Optional description of the ID</text>
</g>
<!-- Rfile:///home/fils/src/git/odis&#45;arch/schema/thematics/expinst/graphs/ID_value_string&#45;&gt;LOptional description of the ID -->
<g id="edge2" class="edge">
<title>Rfile:///home/fils/src/git/odis&#45;arch/schema/thematics/expinst/graphs/ID_value_string&#45;&gt;LOptional description of the ID</title>
<path fill="none" stroke="black" stroke-dasharray="1,5" d="M713.66,-378.39C798.24,-382.32 888.86,-386.54 955.51,-389.64"/>
<polygon fill="black" stroke="black" points="955.43,-393.14 965.58,-390.11 955.76,-386.15 955.43,-393.14"/>
<text text-anchor="middle" x="849.35" y="-390.09" font-family="Times,serif" font-size="14.00">schema:description</text>
</g>
<!-- LThis can be text or URL for an ID like ORCID -->
<g id="node4" class="node">
<title>LThis can be text or URL for an ID like ORCID</title>
<polygon fill="none" stroke="black" points="920.35,-321.29 920.35,-357.29 1192.35,-357.29 1192.35,-321.29 920.35,-321.29"/>
<text text-anchor="middle" x="1056.35" y="-335.59" font-family="Times,serif" font-size="14.00">This can be text or URL for an ID like ORCID</text>
</g>
<!-- Rfile:///home/fils/src/git/odis&#45;arch/schema/thematics/expinst/graphs/ID_value_string&#45;&gt;LThis can be text or URL for an ID like ORCID -->
<g id="edge3" class="edge">
<title>Rfile:///home/fils/src/git/odis&#45;arch/schema/thematics/expinst/graphs/ID_value_string&#45;&gt;LThis can be text or URL for an ID like ORCID</title>
<path fill="none" stroke="black" stroke-dasharray="1,5" d="M710.32,-355.94C778.01,-352.67 849.84,-349.21 910.34,-346.29"/>
<polygon fill="black" stroke="black" points="910.51,-349.78 920.33,-345.8 910.18,-342.79 910.51,-349.78"/>
<text text-anchor="middle" x="849.35" y="-355.09" font-family="Times,serif" font-size="14.00">schema:propertyID</text>
</g>
<!-- Lhttps://foo.org/linkToPropertyIDPage -->
<g id="node5" class="node">
<title>Lhttps://foo.org/linkToPropertyIDPage</title>
<polygon fill="none" stroke="black" points="945.85,-266.29 945.85,-302.29 1166.85,-302.29 1166.85,-266.29 945.85,-266.29"/>
<text text-anchor="middle" x="1056.35" y="-280.59" font-family="Times,serif" font-size="14.00">https://foo.org/linkToPropertyIDPage</text>
</g>
<!-- Rfile:///home/fils/src/git/odis&#45;arch/schema/thematics/expinst/graphs/ID_value_string&#45;&gt;Lhttps://foo.org/linkToPropertyIDPage -->
<g id="edge4" class="edge">
<title>Rfile:///home/fils/src/git/odis&#45;arch/schema/thematics/expinst/graphs/ID_value_string&#45;&gt;Lhttps://foo.org/linkToPropertyIDPage</title>
<path fill="none" stroke="black" stroke-dasharray="1,5" d="M721.36,-356.74C740.93,-352.47 760.15,-347.08 778.35,-340.29 787.59,-336.84 787.24,-331.08 796.35,-327.29 839.96,-309.11 890.72,-298.6 935.68,-292.53"/>
<polygon fill="black" stroke="black" points="936.31,-295.98 945.78,-291.23 935.42,-289.04 936.31,-295.98"/>
<text text-anchor="middle" x="849.35" y="-331.09" font-family="Times,serif" font-size="14.00">schema:url</text>
</g>
<!-- B_:b0 -->
<g id="node6" class="node">
<title>B_:b0</title>
<ellipse fill="none" stroke="green" cx="18" cy="-230.29" rx="18" ry="18"/>
</g>
<!-- B_:b0&#45;&gt;Rfile:///home/fils/src/git/odis&#45;arch/schema/thematics/expinst/graphs/ID_value_string -->
<g id="edge6" class="edge">
<title>B_:b0&#45;&gt;Rfile:///home/fils/src/git/odis&#45;arch/schema/thematics/expinst/graphs/ID_value_string</title>
<path fill="none" stroke="black" stroke-dasharray="1,5" d="M23.28,-247.83C28.12,-264.11 37.56,-287.94 54,-302.29 86.05,-330.25 124.97,-348.9 166.03,-361.03"/>
<polygon fill="black" stroke="black" points="165.08,-364.4 175.66,-363.74 166.98,-357.66 165.08,-364.4"/>
<text text-anchor="middle" x="103" y="-356.09" font-family="Times,serif" font-size="14.00">schema:identifier</text>
</g>
<!-- Rschema:Person -->
<g id="node7" class="node">
<title>Rschema:Person</title>
<ellipse fill="none" stroke="blue" cx="474.17" cy="-313.29" rx="63.89" ry="18"/>
<text text-anchor="middle" x="474.17" y="-309.59" font-family="Times,serif" font-size="14.00">schema:Person</text>
</g>
<!-- B_:b0&#45;&gt;Rschema:Person -->
<g id="edge5" class="edge">
<title>B_:b0&#45;&gt;Rschema:Person</title>
<path fill="none" stroke="black" stroke-dasharray="1,5" d="M29.98,-243.78C36.3,-250.65 44.79,-258.54 54,-263.29 100.72,-287.37 117.97,-278.83 170,-286.29 248.91,-297.59 340.09,-304.95 401.69,-309.09"/>
<polygon fill="black" stroke="black" points="401.48,-312.58 411.69,-309.75 401.94,-305.59 401.48,-312.58"/>
<text text-anchor="middle" x="103" y="-287.09" font-family="Times,serif" font-size="14.00">rdfs:type</text>
</g>
<!-- LProfessor -->
<g id="node8" class="node">
<title>LProfessor</title>
<polygon fill="none" stroke="black" points="440.17,-240.29 440.17,-276.29 508.17,-276.29 508.17,-240.29 440.17,-240.29"/>
<text text-anchor="middle" x="474.17" y="-254.59" font-family="Times,serif" font-size="14.00">Professor</text>
</g>
<!-- B_:b0&#45;&gt;LProfessor -->
<g id="edge7" class="edge">
<title>B_:b0&#45;&gt;LProfessor</title>
<path fill="none" stroke="black" stroke-dasharray="1,5" d="M36.03,-233.62C41.73,-234.62 48.12,-235.63 54,-236.29 190.61,-251.53 353.48,-256.25 429.74,-257.69"/>
<polygon fill="black" stroke="black" points="429.86,-261.19 439.92,-257.87 429.98,-254.19 429.86,-261.19"/>
<text text-anchor="middle" x="103" y="-248.09" font-family="Times,serif" font-size="14.00">schema:jobTitle</text>
</g>
<!-- LJane Doe -->
<g id="node9" class="node">
<title>LJane Doe</title>
<polygon fill="none" stroke="black" points="440.67,-185.29 440.67,-221.29 507.67,-221.29 507.67,-185.29 440.67,-185.29"/>
<text text-anchor="middle" x="474.17" y="-199.59" font-family="Times,serif" font-size="14.00">Jane Doe</text>
</g>
<!-- B_:b0&#45;&gt;LJane Doe -->
<g id="edge8" class="edge">
<title>B_:b0&#45;&gt;LJane Doe</title>
<path fill="none" stroke="black" stroke-dasharray="1,5" d="M35.59,-225.27C41.36,-223.72 47.92,-222.19 54,-221.29 190.43,-201.04 354.35,-200.9 430.47,-202.2"/>
<polygon fill="black" stroke="black" points="430.55,-205.7 440.61,-202.39 430.68,-198.7 430.55,-205.7"/>
<text text-anchor="middle" x="103" y="-225.09" font-family="Times,serif" font-size="14.00">schema:name</text>
</g>
<!-- L(425) 123&#45;4567 -->
<g id="node10" class="node">
<title>L(425) 123&#45;4567</title>
<polygon fill="none" stroke="black" points="423.67,-130.29 423.67,-166.29 524.67,-166.29 524.67,-130.29 423.67,-130.29"/>
<text text-anchor="middle" x="474.17" y="-144.59" font-family="Times,serif" font-size="14.00">(425) 123&#45;4567</text>
</g>
<!-- B_:b0&#45;&gt;L(425) 123&#45;4567 -->
<g id="edge9" class="edge">
<title>B_:b0&#45;&gt;L(425) 123&#45;4567</title>
<path fill="none" stroke="black" stroke-dasharray="1,5" d="M28.48,-215.24C34.67,-206.76 43.53,-196.79 54,-191.29 169.89,-130.36 328.62,-133.61 413.64,-141.08"/>
<polygon fill="black" stroke="black" points="413.36,-144.57 423.64,-142 414,-137.6 413.36,-144.57"/>
<text text-anchor="middle" x="103" y="-195.09" font-family="Times,serif" font-size="14.00">schema:telephone</text>
</g>
<!-- Lhttp://www.janedoe.com -->
<g id="node11" class="node">
<title>Lhttp://www.janedoe.com</title>
<polygon fill="none" stroke="black" points="398.67,-75.29 398.67,-111.29 549.67,-111.29 549.67,-75.29 398.67,-75.29"/>
<text text-anchor="middle" x="474.17" y="-89.59" font-family="Times,serif" font-size="14.00">http://www.janedoe.com</text>
</g>
<!-- B_:b0&#45;&gt;Lhttp://www.janedoe.com -->
<g id="edge10" class="edge">
<title>B_:b0&#45;&gt;Lhttp://www.janedoe.com</title>
<path fill="none" stroke="black" stroke-dasharray="1,5" d="M20.33,-212.24C22.95,-190.6 30.77,-154.91 54,-136.29 148.36,-60.65 295.63,-64.77 388.14,-77.17"/>
<polygon fill="black" stroke="black" points="387.92,-80.68 398.31,-78.6 388.89,-73.75 387.92,-80.68"/>
<text text-anchor="middle" x="103" y="-140.09" font-family="Times,serif" font-size="14.00">schema:url</text>
</g>
</g>
</svg>
