<?xml version="1.0" encoding="UTF-8" standalone="no"?>
<!DOCTYPE svg PUBLIC "-//W3C//DTD SVG 1.1//EN"
 "http://www.w3.org/Graphics/SVG/1.1/DTD/svg11.dtd">
<!-- Generated by graphviz version 2.43.0 (0)
 -->
<!-- Title: %3 Pages: 1 -->
<svg width="1077pt" height="471pt"
 viewBox="0.00 0.00 1076.55 471.12" xmlns="http://www.w3.org/2000/svg" xmlns:xlink="http://www.w3.org/1999/xlink">
<g id="graph0" class="graph" transform="scale(1 1) rotate(0) translate(4 467.12)">
<title>%3</title>
<polygon fill="white" stroke="transparent" points="-4,4 -4,-467.12 1072.55,-467.12 1072.55,4 -4,4"/>
<text text-anchor="middle" x="534.28" y="-22.8" font-family="Times,serif" font-size="14.00">Model:</text>
<text text-anchor="middle" x="534.28" y="-7.8" font-family="Times,serif" font-size="14.00">https://iode.org/</text>
<!-- Rfile:///home/fils/src/git/odis&#45;arch/schema/expinst/graphs/ID_value_string -->
<g id="node1" class="node">
<title>Rfile:///home/fils/src/git/odis&#45;arch/schema/expinst/graphs/ID_value_string</title>
<ellipse fill="none" stroke="blue" cx="437.78" cy="-363.12" rx="267.55" ry="18"/>
<text text-anchor="middle" x="437.78" y="-359.42" font-family="Times,serif" font-size="14.00">file:///home/fils/src/git/odis&#45;arch/schema/expinst/graphs/ID_value_string</text>
</g>
<!-- Rschema:PropertyValue -->
<g id="node2" class="node">
<title>Rschema:PropertyValue</title>
<ellipse fill="none" stroke="blue" cx="958.05" cy="-445.12" rx="90.18" ry="18"/>
<text text-anchor="middle" x="958.05" y="-441.42" font-family="Times,serif" font-size="14.00">schema:PropertyValue</text>
</g>
<!-- Rfile:///home/fils/src/git/odis&#45;arch/schema/expinst/graphs/ID_value_string&#45;&gt;Rschema:PropertyValue -->
<g id="edge1" class="edge">
<title>Rfile:///home/fils/src/git/odis&#45;arch/schema/expinst/graphs/ID_value_string&#45;&gt;Rschema:PropertyValue</title>
<path fill="none" stroke="black" stroke-dasharray="1,5" d="M543.35,-379.67C641.72,-395.23 786.91,-418.21 876.56,-432.39"/>
<polygon fill="black" stroke="black" points="876.24,-435.88 886.67,-433.99 877.34,-428.97 876.24,-435.88"/>
<text text-anchor="middle" x="776.55" y="-426.92" font-family="Times,serif" font-size="14.00">rdfs:type</text>
</g>
<!-- LOptional description of the ID -->
<g id="node3" class="node">
<title>LOptional description of the ID</title>
<polygon fill="none" stroke="black" points="867.55,-372.12 867.55,-408.12 1048.55,-408.12 1048.55,-372.12 867.55,-372.12"/>
<text text-anchor="middle" x="958.05" y="-386.42" font-family="Times,serif" font-size="14.00">Optional description of the ID</text>
</g>
<!-- Rfile:///home/fils/src/git/odis&#45;arch/schema/expinst/graphs/ID_value_string&#45;&gt;LOptional description of the ID -->
<g id="edge2" class="edge">
<title>Rfile:///home/fils/src/git/odis&#45;arch/schema/expinst/graphs/ID_value_string&#45;&gt;LOptional description of the ID</title>
<path fill="none" stroke="black" stroke-dasharray="1,5" d="M649.95,-374.13C721.7,-377.86 798.53,-381.87 857.4,-384.93"/>
<polygon fill="black" stroke="black" points="857.26,-388.43 867.43,-385.45 857.63,-381.44 857.26,-388.43"/>
<text text-anchor="middle" x="776.55" y="-385.92" font-family="Times,serif" font-size="14.00">schema:description</text>
</g>
<!-- Lthis can be text or URL.. -->
<g id="node4" class="node">
<title>Lthis can be text or URL..</title>
<polygon fill="none" stroke="black" points="882.05,-317.12 882.05,-353.12 1034.05,-353.12 1034.05,-317.12 882.05,-317.12"/>
<text text-anchor="middle" x="958.05" y="-331.42" font-family="Times,serif" font-size="14.00">this can be text or URL..</text>
</g>
<!-- Rfile:///home/fils/src/git/odis&#45;arch/schema/expinst/graphs/ID_value_string&#45;&gt;Lthis can be text or URL.. -->
<g id="edge3" class="edge">
<title>Rfile:///home/fils/src/git/odis&#45;arch/schema/expinst/graphs/ID_value_string&#45;&gt;Lthis can be text or URL..</title>
<path fill="none" stroke="black" stroke-dasharray="1,5" d="M646.97,-351.88C725.45,-347.64 810.43,-343.04 871.55,-339.74"/>
<polygon fill="black" stroke="black" points="872.11,-343.22 881.91,-339.18 871.73,-336.23 872.11,-343.22"/>
<text text-anchor="middle" x="776.55" y="-350.92" font-family="Times,serif" font-size="14.00">schema:propertyID</text>
</g>
<!-- Lhttps://foo.org/linkToPropertyIDPage -->
<g id="node5" class="node">
<title>Lhttps://foo.org/linkToPropertyIDPage</title>
<polygon fill="none" stroke="black" points="847.55,-262.12 847.55,-298.12 1068.55,-298.12 1068.55,-262.12 847.55,-262.12"/>
<text text-anchor="middle" x="958.05" y="-276.42" font-family="Times,serif" font-size="14.00">https://foo.org/linkToPropertyIDPage</text>
</g>
<!-- Rfile:///home/fils/src/git/odis&#45;arch/schema/expinst/graphs/ID_value_string&#45;&gt;Lhttps://foo.org/linkToPropertyIDPage -->
<g id="edge4" class="edge">
<title>Rfile:///home/fils/src/git/odis&#45;arch/schema/expinst/graphs/ID_value_string&#45;&gt;Lhttps://foo.org/linkToPropertyIDPage</title>
<path fill="none" stroke="black" stroke-dasharray="1,5" d="M650.52,-352.1C669.44,-348.01 688.04,-342.78 705.55,-336.12 714.78,-332.62 714.48,-327 723.55,-323.12 759.13,-307.92 800.01,-298.09 837.52,-291.73"/>
<polygon fill="black" stroke="black" points="838.18,-295.17 847.49,-290.1 837.05,-288.26 838.18,-295.17"/>
<text text-anchor="middle" x="776.55" y="-326.92" font-family="Times,serif" font-size="14.00">schema:url</text>
</g>
<!-- B_:b0 -->
<g id="node6" class="node">
<title>B_:b0</title>
<ellipse fill="none" stroke="green" cx="18" cy="-226.12" rx="18" ry="18"/>
</g>
<!-- B_:b0&#45;&gt;Rfile:///home/fils/src/git/odis&#45;arch/schema/expinst/graphs/ID_value_string -->
<g id="edge6" class="edge">
<title>B_:b0&#45;&gt;Rfile:///home/fils/src/git/odis&#45;arch/schema/expinst/graphs/ID_value_string</title>
<path fill="none" stroke="black" stroke-dasharray="1,5" d="M21.55,-244.07C25.26,-263.31 34.03,-293.37 54,-310.12 115.11,-361.41 202.03,-376.49 277.61,-377.93"/>
<polygon fill="black" stroke="black" points="277.67,-381.43 287.71,-378.04 277.75,-374.43 277.67,-381.43"/>
<text text-anchor="middle" x="103" y="-360.92" font-family="Times,serif" font-size="14.00">schema:identifier</text>
</g>
<!-- Rschema:Person -->
<g id="node7" class="node">
<title>Rschema:Person</title>
<ellipse fill="none" stroke="blue" cx="437.78" cy="-309.12" rx="63.89" ry="18"/>
<text text-anchor="middle" x="437.78" y="-305.42" font-family="Times,serif" font-size="14.00">schema:Person</text>
</g>
<!-- B_:b0&#45;&gt;Rschema:Person -->
<g id="edge5" class="edge">
<title>B_:b0&#45;&gt;Rschema:Person</title>
<path fill="none" stroke="black" stroke-dasharray="1,5" d="M29.98,-239.61C36.3,-246.49 44.79,-254.38 54,-259.12 153.26,-310.28 285.47,-316.03 365.68,-313.8"/>
<polygon fill="black" stroke="black" points="365.8,-317.3 375.68,-313.48 365.57,-310.3 365.8,-317.3"/>
<text text-anchor="middle" x="103" y="-294.92" font-family="Times,serif" font-size="14.00">rdfs:type</text>
</g>
<!-- LProfessor -->
<g id="node8" class="node">
<title>LProfessor</title>
<polygon fill="none" stroke="black" points="403.78,-236.12 403.78,-272.12 471.78,-272.12 471.78,-236.12 403.78,-236.12"/>
<text text-anchor="middle" x="437.78" y="-250.42" font-family="Times,serif" font-size="14.00">Professor</text>
</g>
<!-- B_:b0&#45;&gt;LProfessor -->
<g id="edge7" class="edge">
<title>B_:b0&#45;&gt;LProfessor</title>
<path fill="none" stroke="black" stroke-dasharray="1,5" d="M36.03,-229.44C41.73,-230.44 48.12,-231.45 54,-232.12 176.51,-246.1 322.14,-251.37 393.29,-253.21"/>
<polygon fill="black" stroke="black" points="393.56,-256.72 403.64,-253.47 393.74,-249.72 393.56,-256.72"/>
<text text-anchor="middle" x="103" y="-243.92" font-family="Times,serif" font-size="14.00">schema:jobTitle</text>
</g>
<!-- LJane Doe -->
<g id="node9" class="node">
<title>LJane Doe</title>
<polygon fill="none" stroke="black" points="404.28,-181.12 404.28,-217.12 471.28,-217.12 471.28,-181.12 404.28,-181.12"/>
<text text-anchor="middle" x="437.78" y="-195.42" font-family="Times,serif" font-size="14.00">Jane Doe</text>
</g>
<!-- B_:b0&#45;&gt;LJane Doe -->
<g id="edge8" class="edge">
<title>B_:b0&#45;&gt;LJane Doe</title>
<path fill="none" stroke="black" stroke-dasharray="1,5" d="M35.59,-221.12C41.37,-219.57 47.92,-218.04 54,-217.12 176.18,-198.74 322.54,-197.56 393.69,-198.29"/>
<polygon fill="black" stroke="black" points="394,-201.8 404.04,-198.42 394.08,-194.8 394,-201.8"/>
<text text-anchor="middle" x="103" y="-220.92" font-family="Times,serif" font-size="14.00">schema:name</text>
</g>
<!-- L(425) 123&#45;4567 -->
<g id="node10" class="node">
<title>L(425) 123&#45;4567</title>
<polygon fill="none" stroke="black" points="387.28,-126.12 387.28,-162.12 488.28,-162.12 488.28,-126.12 387.28,-126.12"/>
<text text-anchor="middle" x="437.78" y="-140.42" font-family="Times,serif" font-size="14.00">(425) 123&#45;4567</text>
</g>
<!-- B_:b0&#45;&gt;L(425) 123&#45;4567 -->
<g id="edge9" class="edge">
<title>B_:b0&#45;&gt;L(425) 123&#45;4567</title>
<path fill="none" stroke="black" stroke-dasharray="1,5" d="M28.48,-211.08C34.67,-202.6 43.53,-192.63 54,-187.12 157.52,-132.7 298.26,-132.57 377.04,-137.95"/>
<polygon fill="black" stroke="black" points="377.03,-141.46 387.26,-138.7 377.55,-134.48 377.03,-141.46"/>
<text text-anchor="middle" x="103" y="-190.92" font-family="Times,serif" font-size="14.00">schema:telephone</text>
</g>
<!-- Lhttp://www.janedoe.com -->
<g id="node11" class="node">
<title>Lhttp://www.janedoe.com</title>
<polygon fill="none" stroke="black" points="362.28,-71.12 362.28,-107.12 513.28,-107.12 513.28,-71.12 362.28,-71.12"/>
<text text-anchor="middle" x="437.78" y="-85.42" font-family="Times,serif" font-size="14.00">http://www.janedoe.com</text>
</g>
<!-- B_:b0&#45;&gt;Lhttp://www.janedoe.com -->
<g id="edge10" class="edge">
<title>B_:b0&#45;&gt;Lhttp://www.janedoe.com</title>
<path fill="none" stroke="black" stroke-dasharray="1,5" d="M20.33,-208.08C22.95,-186.43 30.77,-150.75 54,-132.12 137.86,-64.9 267.29,-65.14 352.02,-74.62"/>
<polygon fill="black" stroke="black" points="351.78,-78.12 362.13,-75.82 352.61,-71.17 351.78,-78.12"/>
<text text-anchor="middle" x="103" y="-135.92" font-family="Times,serif" font-size="14.00">schema:url</text>
</g>
</g>
</svg>
