<svg height='100px' width='100px'  fill="#4D4D4D" xmlns="http://www.w3.org/2000/svg" xmlns:xlink="http://www.w3.org/1999/xlink" version="1.1" x="0px" y="0px" viewBox="0 0 100 100" enable-background="new 0 0 100 100" xml:space="preserve"><path fill="#4D4D4D" stroke="#4D4D4D" stroke-width="4" stroke-miterlimit="10" d="M-848.667-260c0.927-3.657-2.188-8.693-6.669-13.687  c-5.398-6.017-11.428-8.418-15.294-7.198c-4.274,1.35-25.529,10.965-21.48,28.34c2.749,11.795,10.29,23.366,24.11,38.378  c9.667,10.5,28.91,26.659,44.429,27.333c15.52,0.675,28.197-12.68,28.564-16.672c0.488-5.286-2.295-10.706-6.972-15.125  c-7.197-6.804-12.082-7.319-15.464-6.129c-2.12,0.747-9.502,8.378-13.55,7.704c-4.049-0.675-11.119-6.254-16.645-12.146  c-5.294-5.645-11.974-13.222-11.748-16.82C-859.159-249.621-849.761-255.684-848.667-260z"></path><path fill="#4D4D4D" stroke="#4D4D4D" stroke-width="3.835" stroke-miterlimit="10" d="M-497.938-193.657  c0,3.4-2.406,6.157-5.375,6.157h-98.313c-2.969,0-5.375-2.757-5.375-6.157v-66.187c0-3.4,2.406-6.157,5.375-6.157h98.313  c2.969,0,5.375,2.757,5.375,6.157V-193.657z"></path><path fill="#4D4D4D" stroke="#4D4D4D" stroke-width="3.8124" stroke-miterlimit="10" d="M-1097.688-203.657  c0,3.4-2.378,6.157-5.312,6.157h-97.156c-2.933,0-5.312-2.757-5.312-6.157v-66.187c0-1.563,0.502-2.99,1.332-4.077  c0.973-1.276,2.395-2.08,3.98-2.08h97.156c2.933,0,5.312,2.757,5.312,6.157V-203.657z"></path><polyline fill="#4D4D4D" stroke="#4D4D4D" stroke-width="3.8124" stroke-linecap="round" stroke-linejoin="round" stroke-miterlimit="10" points="  -1204.135,-273.92 -1151.577,-227.687 -1099.395,-274.356 "></polyline><line fill="#4D4D4D" stroke="#4D4D4D" stroke-width="3.8124" stroke-linecap="round" stroke-linejoin="round" stroke-miterlimit="10" x1="-1169.205" y1="-243.193" x2="-1203.754" y2="-199.139"></line><line fill="#4D4D4D" stroke="#4D4D4D" stroke-width="3.8124" stroke-linecap="round" stroke-linejoin="round" stroke-miterlimit="10" x1="-1133.82" y1="-243.193" x2="-1099.27" y2="-199.139"></line><path fill="#4D4D4D" stroke="#4D4D4D" stroke-width="3.7732" stroke-miterlimit="10" d="M-547.941-215.905  c0,2.991-2.426,5.417-5.417,5.417l0,0c-2.991,0-5.417-2.425-5.417-5.417v-9.5c0-2.992,2.426-5.417,5.417-5.417l0,0  c2.991,0,5.417,2.425,5.417,5.417V-215.905z"></path><path fill="#4D4D4D" stroke="#4D4D4D" stroke-width="3.7732" stroke-miterlimit="10" d="M-527.136-266.667v-2.253  c0-8.284-6.716-16-15-16h-20.667c-8.283,0-15,7.716-15,16v2.253H-527.136z"></path><path fill="#4D4D4D" stroke="#4D4D4D" stroke-width="3.835" stroke-miterlimit="10" d="M-537.795-266.667v-0.575  c0-4.798-3.891-9.688-8.688-9.688h-11.97c-4.799,0-8.689,4.89-8.689,9.688v0.575H-537.795z"></path><path fill="#4D4D4D" stroke="#4D4D4D" stroke-width="3.7732" stroke-miterlimit="10" d="M-512.458-266.667h-80.021  c-8.02,0-14.521-0.284-14.521,8v23.14c0,8.284,9.501,15,17.521,15h30.704v-4.878c0-2.992,2.426-5.417,5.417-5.417  s5.417,2.425,5.417,5.417v4.878h32.483c8.02,0,17.521-6.716,17.521-15v-23.14C-497.938-266.951-504.438-266.667-512.458-266.667z"></path><path fill="#4D4D4D" stroke="#4D4D4D" stroke-width="3.8491" stroke-miterlimit="10" d="M-1093.688,74.908  c0,3.316-2.485,6.006-5.55,6.006h-101.519c-3.065,0-5.55-2.689-5.55-6.006V10.34c0-1.525,0.525-2.918,1.391-3.977  c1.017-1.245,2.503-2.029,4.159-2.029h101.519c3.064,0,5.55,2.689,5.55,6.006V74.908z"></path><rect x="-1160.446" y="85.953" fill="#4D4D4D" stroke="#4D4D4D" stroke-width="3.3945" stroke-linecap="round" stroke-linejoin="round" stroke-miterlimit="10" width="21.595" height="9.104"></rect><rect x="-1180.634" y="101.236" fill="#4D4D4D" stroke="#4D4D4D" stroke-width="3.8491" stroke-linecap="round" stroke-linejoin="round" stroke-miterlimit="10" width="61.637" height="6.504"></rect><path fill="#4D4D4D" stroke="#4D4D4D" stroke-width="3.8124" stroke-miterlimit="10" d="M-790.571,27.669  c3.749,1.998,3.749,5.345,0,7.668l-50.271,18.271c-3.491,1.942-10.657,2.209-14.667,0l-50.271-18.271  c-3.367-2.322-3.367-6.169,0-7.668l51.271-15.271c4.525-2.163,10.677-1.927,14.667,0L-790.571,27.669z"></path><path fill="#4D4D4D" stroke="#4D4D4D" stroke-width="3.8124" stroke-miterlimit="10" d="M-883.125,49.334v22.541  c0,0,6.875,11.5,33.75,11.5c37.333,0,39.375-13.208,39.375-13.208l1-22.792c0,0-24.088,10.284-33.166,12.647  C-844,60.5-850.5,60.708-853.75,59.834C-857.049,58.946-883.125,49.334-883.125,49.334z"></path><path fill="#4D4D4D" stroke="#4D4D4D" stroke-width="3.8124" stroke-linecap="round" stroke-linejoin="round" stroke-miterlimit="10" d="  M-849.1,26.762c0,0-37.124,10.32-41.525,14.988s-2.813,6.5-3.563,15.25"></path><circle fill="#4D4D4D" stroke="#4D4D4D" stroke-width="3.8124" stroke-linecap="round" stroke-linejoin="round" stroke-miterlimit="10" cx="-894.188" cy="62.063" r="5.063"></circle><circle fill="#4D4D4D" stroke="#4D4D4D" stroke-width="3.8124" stroke-linecap="round" stroke-linejoin="round" stroke-miterlimit="10" cx="-894.188" cy="62.063" r="5.063"></circle><path fill="#4D4D4D" stroke="#4D4D4D" stroke-width="3.8124" stroke-linecap="round" stroke-linejoin="round" stroke-miterlimit="10" d="  M-896.333,67.125c0,0-2.666,12.375-5.333,15.875s-6.667,9.501-0.667,10.167s8.833,0.666,10-5.167s0.667-20.875,0.667-20.875  H-896.333z"></path><path fill="#4D4D4D" stroke="#4D4D4D" stroke-width="3.8124" stroke-miterlimit="10" d="M-522.875,71.743"></path><path fill="#4D4D4D" stroke="#4D4D4D" stroke-width="3.8124" stroke-miterlimit="10" d="M-559.704,17.604"></path><path fill="#4D4D4D" stroke="#4D4D4D" stroke-width="3.8124" stroke-miterlimit="10" d="M-575.864,15.61l-29.873,29.873  c-1.87,1.87-1.87,4.901,0,6.771l29.873,29.874c1.871,1.87,4.902,1.87,6.772,0c1.869-1.87,1.869-4.901,0-6.771l-26.488-26.488  l26.488-26.487c1.869-1.87,1.869-4.901,0-6.771C-570.962,13.74-573.993,13.74-575.864,15.61z"></path><path fill="#4D4D4D" stroke="#4D4D4D" stroke-width="3.8124" stroke-miterlimit="10" d="M-538.423,4.283  c2.582,0.569,4.214,3.124,3.645,5.707l-18.896,78.082c-0.569,2.583-3.124,4.215-5.707,3.646l0,0  c-2.582-0.569-4.214-3.124-3.644-5.707l18.896-78.083C-543.561,5.345-541.006,3.713-538.423,4.283L-538.423,4.283z"></path><path fill="#4D4D4D" stroke="#4D4D4D" stroke-width="3.8124" stroke-miterlimit="10" d="M-521.135,15.61l29.873,29.873  c1.87,1.87,1.87,4.901,0,6.771l-29.873,29.874c-1.871,1.87-4.902,1.87-6.772,0c-1.869-1.87-1.869-4.901,0-6.771l26.488-26.488  l-26.488-26.487c-1.869-1.87-1.869-4.901,0-6.771C-526.037,13.74-523.006,13.74-521.135,15.61z"></path><circle fill="#4D4D4D" stroke="#4D4D4D" stroke-width="3.8491" stroke-miterlimit="10" cx="27.582" cy="-223.656" r="25.525"></circle><path fill="#4D4D4D" stroke="#4D4D4D" stroke-width="3.8491" stroke-miterlimit="10" d="M111.593-274.033  c-2.293,5.882-3.654,13.187-3.654,21.107c0,7.77,1.313,14.942,3.527,20.765c3.107-6.361,4.855-13.506,4.855-21.062  C116.321-260.678,114.623-267.736,111.593-274.033z"></path><path fill="#4D4D4D" stroke="#4D4D4D" stroke-width="3.8491" stroke-miterlimit="10" d="M68.269-301.868  c-23.684,0-43.352,17.14-47.313,39.688c18.029,11.48,54.889,20.594,77.583,15.718c7.698-1.655,13.43-3.635,17.741-5.749  c0.018-0.534,0.041-1.066,0.041-1.604C116.321-280.355,94.808-301.868,68.269-301.868z"></path><path fill="#4D4D4D" stroke="#4D4D4D" stroke-width="3.8491" stroke-miterlimit="10" d="M53.106-223.656  c0-9.103-4.77-17.087-11.941-21.605c-8.078,4.285-13.584,12.778-13.584,22.561c0,9.102,4.77,17.087,11.94,21.605  C47.601-205.382,53.106-213.874,53.106-223.656z"></path><path fill="#4D4D4D" stroke="#4D4D4D" stroke-width="3.8491" stroke-miterlimit="10" d="M2.405-223.938  c0,5.68,1.857,10.926,4.996,15.167c1.85-4.399,2.96-10.017,2.96-16.14c0-5.539-0.911-10.663-2.454-14.849  C4.466-235.408,2.405-229.915,2.405-223.938z"></path><circle fill="#4D4D4D" stroke="#4D4D4D" stroke-width="3.8491" stroke-miterlimit="10" cx="27.582" cy="-223.656" r="25.525"></circle><circle fill="#4D4D4D" stroke="#4D4D4D" stroke-width="3.8491" stroke-miterlimit="10" cx="27.582" cy="-223.656" r="25.525"></circle><path fill="#4D4D4D" stroke="#4D4D4D" stroke-width="3.8491" stroke-miterlimit="10" d="M68.269-301.571  c-26.539,0-48.053,21.513-48.053,48.053c0,1.804,0.108,3.582,0.303,5.336c2.244-0.646,4.611-0.998,7.063-0.998  c14.098,0,25.525,11.428,25.525,25.524c0,5.212-1.565,10.056-4.246,14.095c5.938,2.625,12.5,4.094,19.408,4.094  c26.539,0,48.053-21.513,48.053-48.051C116.321-280.059,94.808-301.571,68.269-301.571z"></path><path fill="#4D4D4D" stroke="#4D4D4D" stroke-width="3.8491" stroke-miterlimit="10" d="M76.03-300.643  c-2.527-0.41-5.118-0.632-7.762-0.632c-26.539,0-48.053,21.513-48.053,48.052c0,1.66,0.089,3.296,0.252,4.906  c2.104-0.561,4.313-0.864,6.593-0.864c14.097,0,25.524,11.429,25.524,25.525c0,5.05-1.059,9.931-3.589,13.894  c4.822,2.094,9.654,3.261,15.179,3.701c20.27-6.887,35.156-26.187,35.156-49.816C99.331-274.686,90.042-291.209,76.03-300.643z"></path><path fill="#4D4D4D" stroke="#4D4D4D" stroke-width="3.8491" stroke-miterlimit="10" d="M68.272-280.017  c-7.385-4.396-16.608-11.08-26.753-13.127c-12.847,8.625-21.303,23.284-21.303,39.921c0,1.706,0.094,3.39,0.268,5.05  c2.254-0.65,4.634-1.007,7.097-1.007c14.098,0,25.525,11.428,25.525,25.524c0,1.906-0.216,3.761-0.612,5.547  c4.517-2.164,8.74-4.642,12.462-6.507c12.742-6.39,21.039-16.822,21.039-28.607C85.995-263.952,79.118-273.56,68.272-280.017z"></path><path fill="#4D4D4D" stroke="#4D4D4D" stroke-width="3.7713" stroke-miterlimit="10" d="M-224.815-265.085  c0,15.177-11.275,29.516-25.184,29.516c-13.909,0-25.186-14.339-25.186-29.516c0-15.176,11.276-25.444,25.186-25.444  C-236.091-290.529-224.815-280.261-224.815-265.085z"></path><path fill="#4D4D4D" stroke="#4D4D4D" stroke-width="4" stroke-miterlimit="10" d="M-226.682-236.485  c-5.903,6.933-13.971,11.445-22.867,11.445c-9.053,0-17.248-4.67-23.178-11.81c-13.346,8.13-22.312,23.2-22.312,40.451h90.075  C-204.963-213.393-213.662-228.273-226.682-236.485z"></path><path fill="#4D4D4D" stroke="#4D4D4D" stroke-width="3.8124" stroke-miterlimit="10" d="M-204.362,35.285h-6.249  c-0.822-2.705-1.908-5.293-3.237-7.732l4.306-4.305c1.572-1.573,1.748-3.947,0.391-5.304l-11.792-11.793  c-1.356-1.356-3.731-1.181-5.305,0.392l-4.334,4.335c-2.472-1.336-5.099-2.42-7.84-3.234V1.696c0-2.225-1.556-4.027-3.475-4.027  h-16.677c-1.919,0-3.474,1.803-3.474,4.027v5.947c-2.629,0.781-5.147,1.814-7.528,3.075l-4.176-4.176  c-1.572-1.572-3.947-1.748-5.304-0.392l-11.792,11.793c-1.357,1.356-1.182,3.73,0.391,5.304l4.006,4.006  c-1.481,2.667-2.673,5.516-3.541,8.503h-5.646c-2.225,0-4.027,1.555-4.027,3.474v16.677c0,1.919,1.803,3.474,4.027,3.474h5.779  c0.854,2.816,2.003,5.505,3.407,8.031l-4.006,4.006c-1.573,1.572-1.748,3.947-0.391,5.304l11.792,11.792  c1.356,1.357,3.731,1.183,5.304-0.391l4.175-4.175c2.522,1.336,5.202,2.414,8,3.21v5.813c0,2.225,1.556,4.027,3.475,4.027h16.677  c1.919,0,3.474-1.803,3.474-4.027v-6.081c2.573-0.798,5.038-1.842,7.37-3.102l4.333,4.334c1.573,1.573,3.948,1.748,5.305,0.391  l11.792-11.792c1.357-1.356,1.183-3.731-0.391-5.304l-4.305-4.305c1.406-2.579,2.534-5.328,3.369-8.203h6.116  c2.225,0,4.027-1.555,4.027-3.475V38.76C-200.335,36.84-202.138,35.285-204.362,35.285z M-249.764,71.742  c-13.48,0-24.408-10.928-24.408-24.408c0-13.481,10.928-24.408,24.408-24.408c13.479,0,24.408,10.927,24.408,24.408  C-225.355,60.814-236.284,71.742-249.764,71.742z"></path><path fill="#4D4D4D" stroke="#4D4D4D" stroke-width="3.8491" stroke-miterlimit="10" d="M301.913-271.989  c0,6.025-4.884,10.909-10.91,10.909h-65.801c-6.024,0-10.909-4.884-10.909-10.909v-66.756c0-6.024,4.885-10.909,10.909-10.909  h65.801c6.026,0,10.91,4.885,10.91,10.909V-271.989z"></path><path fill="#4D4D4D" stroke="#4D4D4D" stroke-width="3.8491" stroke-miterlimit="10" d="M244.517-285c0,0.978-0.833,1.771-1.86,1.771  h-8.525c-1.027,0-1.86-0.793-1.86-1.771v-33.197c0-0.978,0.833-1.771,1.86-1.771h8.525c1.027,0,1.86,0.793,1.86,1.771V-285z"></path><circle fill="#4D4D4D" stroke="#4D4D4D" stroke-width="3.8491" stroke-miterlimit="10" cx="238.394" cy="-330.045" r="6.15"></circle><path fill="#4D4D4D" stroke="#4D4D4D" stroke-width="3.8491" stroke-miterlimit="10" d="M283.475-315.541  c-2.082-4.216-6.823-5.312-12.504-5.312c-3.604,0-6.664,1.166-8.139,2.092c-0.003-0.943-0.921-1.1-1.803-1.207h-8.525  c-1.027,0-1.86,0.793-1.86,1.771V-285c0,0.978,0.833,1.771,1.86,1.771h8.525c1.027,0,1.86-0.793,1.86-1.771v-17.046v-5.528  c0.335-1.272,2.715-2.932,6.256-2.902c3.54,0.029,3.854,3.29,3.854,3.29v1.383v5.699V-285c0,0.978,0.832,1.771,1.86,1.771h8.524  c1.028,0,1.861-0.793,1.861-1.771v-20.804c0-0.001,0-0.001,0-0.002C285.243-310.927,284.599-313.267,283.475-315.541z"></path><path fill="#4D4D4D" stroke="#4D4D4D" stroke-width="3.7713" stroke-miterlimit="10" d="M18.185-125.085  c0,15.177-11.275,29.517-25.184,29.517c-13.909,0-25.186-14.339-25.186-29.517c0-15.176,11.276-25.444,25.186-25.444  C6.909-150.529,18.185-140.261,18.185-125.085z"></path><path fill="#4D4D4D" stroke="#4D4D4D" stroke-width="4" stroke-miterlimit="10" d="M16.318-96.485  C10.415-89.553,2.348-85.04-6.549-85.04c-9.053,0-17.248-4.67-23.178-11.81c-13.346,8.131-22.312,23.2-22.312,40.451h90.075  C38.037-73.393,29.338-88.273,16.318-96.485z"></path><path d="M75.644,27.986c0,15.452-11.479,30.053-25.642,30.053c-14.163,0-25.645-14.601-25.645-30.053  c0-15.455,11.481-25.908,25.645-25.908C64.164,2.078,75.644,12.531,75.644,27.986z"></path><path d="M73.744,57.105C67.732,64.164,59.52,68.759,50.46,68.759c-9.217,0-17.561-4.755-23.599-12.024  C13.272,65.013,4.144,80.355,4.144,97.921h91.714C95.857,80.617,87.001,65.467,73.744,57.105z"></path></svg>