<?xml version="1.0" encoding="UTF-8" standalone="no"?>
<!DOCTYPE svg PUBLIC "-//W3C//DTD SVG 1.1//EN"
 "http://www.w3.org/Graphics/SVG/1.1/DTD/svg11.dtd">
<!-- Generated by graphviz version 5.0.0 (0)
 -->
<!-- Pages: 1 -->
<svg width="590pt" height="206pt"
 viewBox="0.00 0.00 590.36 206.00" xmlns="http://www.w3.org/2000/svg" xmlns:xlink="http://www.w3.org/1999/xlink">
<g id="graph0" class="graph" transform="scale(1 1) rotate(0) translate(4 202)">
<polygon fill="white" stroke="transparent" points="-4,4 -4,-202 586.36,-202 586.36,4 -4,4"/>
<!-- CreativeWork -->
<g id="node1" class="node">
<title>CreativeWork</title>
<ellipse fill="none" stroke="#558855" cx="451.07" cy="-180" rx="74.19" ry="18"/>
<text text-anchor="middle" x="451.07" y="-176.3" font-family="Times,serif" font-size="14.00">CreativeWork</text>
</g>
<!-- example.org/id/XYZ -->
<g id="node2" class="node">
<title>example.org/id/XYZ</title>
<ellipse fill="none" stroke="black" cx="101.39" cy="-99" rx="101.28" ry="18"/>
<text text-anchor="middle" x="101.39" y="-95.3" font-family="Times,serif" font-size="14.00">example.org/id/XYZ</text>
</g>
<!-- example.org/id/XYZ&#45;&gt;CreativeWork -->
<g id="edge1" class="edge">
<title>example.org/id/XYZ&#45;&gt;CreativeWork</title>
<path fill="none" stroke="black" d="M153.15,-114.51C174.01,-120.64 198.46,-127.52 220.78,-133 274.34,-146.16 335.57,-158.58 381.27,-167.34"/>
<polygon fill="black" stroke="black" points="380.88,-170.83 391.36,-169.26 382.19,-163.95 380.88,-170.83"/>
<text text-anchor="middle" x="261.28" y="-153.8" font-family="Times,serif" font-size="14.00">type</text>
</g>
<!-- &quot;Description of the c...&quot; -->
<g id="node3" class="node">
<title>&quot;Description of the c...&quot;</title>
<ellipse fill="none" stroke="black" stroke-width="0" cx="451.07" cy="-126" rx="119.68" ry="18"/>
<text text-anchor="middle" x="451.07" y="-122.3" font-family="Times,serif" font-size="14.00">&quot;Description of the c...&quot;</text>
</g>
<!-- example.org/id/XYZ&#45;&gt;&quot;Description of the c...&quot; -->
<g id="edge2" class="edge">
<title>example.org/id/XYZ&#45;&gt;&quot;Description of the c...&quot;</title>
<path fill="none" stroke="black" d="M194.65,-106.16C237.48,-109.49 288.85,-113.48 334.26,-117.01"/>
<polygon fill="black" stroke="black" points="334.21,-120.51 344.46,-117.8 334.76,-113.53 334.21,-120.51"/>
<text text-anchor="middle" x="261.28" y="-117.8" font-family="Times,serif" font-size="14.00">description</text>
</g>
<!-- &quot;Name or title of the...&quot; -->
<g id="node4" class="node">
<title>&quot;Name or title of the...&quot;</title>
<ellipse fill="none" stroke="black" stroke-width="0" cx="451.07" cy="-72" rx="120.48" ry="18"/>
<text text-anchor="middle" x="451.07" y="-68.3" font-family="Times,serif" font-size="14.00">&quot;Name or title of the...&quot;</text>
</g>
<!-- example.org/id/XYZ&#45;&gt;&quot;Name or title of the...&quot; -->
<g id="edge3" class="edge">
<title>example.org/id/XYZ&#45;&gt;&quot;Name or title of the...&quot;</title>
<path fill="none" stroke="black" d="M193.2,-91.23C202.51,-90.47 211.84,-89.71 220.78,-89 257.06,-86.12 296.59,-83.14 332.44,-80.49"/>
<polygon fill="black" stroke="black" points="332.73,-83.98 342.45,-79.75 332.22,-77 332.73,-83.98"/>
<text text-anchor="middle" x="261.28" y="-92.8" font-family="Times,serif" font-size="14.00">name</text>
</g>
<!-- &quot;https//www.sample&#45;da...&quot; -->
<g id="node5" class="node">
<title>&quot;https//www.sample&#45;da...&quot;</title>
<ellipse fill="none" stroke="black" stroke-width="0" cx="451.07" cy="-18" rx="131.08" ry="18"/>
<text text-anchor="middle" x="451.07" y="-14.3" font-family="Times,serif" font-size="14.00">&quot;https//www.sample&#45;da...&quot;</text>
</g>
<!-- example.org/id/XYZ&#45;&gt;&quot;https//www.sample&#45;da...&quot; -->
<g id="edge4" class="edge">
<title>example.org/id/XYZ&#45;&gt;&quot;https//www.sample&#45;da...&quot;</title>
<path fill="none" stroke="black" d="M151.66,-83.36C172.82,-76.93 197.9,-69.67 220.78,-64 266.39,-52.71 317.62,-42.23 360.06,-34.13"/>
<polygon fill="black" stroke="black" points="360.92,-37.53 370.1,-32.23 359.62,-30.65 360.92,-37.53"/>
<text text-anchor="middle" x="261.28" y="-67.8" font-family="Times,serif" font-size="14.00">url</text>
</g>
</g>
</svg>
