<?xml version="1.0" encoding="UTF-8" standalone="no"?>
<!DOCTYPE svg PUBLIC "-//W3C//DTD SVG 1.1//EN"
 "http://www.w3.org/Graphics/SVG/1.1/DTD/svg11.dtd">
<!-- Generated by graphviz version 2.44.0 (0)
 -->
<!-- Pages: 1 -->
<svg width="2116pt" height="933pt"
 viewBox="0.00 0.00 2115.55 933.25" xmlns="http://www.w3.org/2000/svg" xmlns:xlink="http://www.w3.org/1999/xlink">
<g id="graph0" class="graph" transform="scale(1 1) rotate(0) translate(4 929.25)">
<polygon fill="white" stroke="transparent" points="-4,4 -4,-929.25 2111.55,-929.25 2111.55,4 -4,4"/>
<text text-anchor="middle" x="1053.77" y="-22.8" font-family="Times-Roman" font-size="14.00">Model:</text>
<text text-anchor="middle" x="1053.77" y="-7.8" font-family="Times-Roman" font-size="14.00">https://iode.org/</text>
<!-- Rhttp://www.someinstitute.edu -->
<g id="node1" class="node">
<title>Rhttp://www.someinstitute.edu</title>
<ellipse fill="none" stroke="blue" cx="1100.48" cy="-709.25" rx="143.77" ry="18"/>
<text text-anchor="middle" x="1100.48" y="-705.55" font-family="Times-Roman" font-size="14.00">http://www.someinstitute.edu</text>
</g>
<!-- Rschema:Organization -->
<g id="node2" class="node">
<title>Rschema:Organization</title>
<ellipse fill="none" stroke="blue" cx="1568.47" cy="-818.25" rx="106.68" ry="18"/>
<text text-anchor="middle" x="1568.47" y="-814.55" font-family="Times-Roman" font-size="14.00">schema:Organization</text>
</g>
<!-- Rhttp://www.someinstitute.edu&#45;&gt;Rschema:Organization -->
<g id="edge1" class="edge">
<title>Rhttp://www.someinstitute.edu&#45;&gt;Rschema:Organization</title>
<path fill="none" stroke="black" stroke-dasharray="1,5" d="M1157.01,-725.85C1198.2,-737.86 1255.83,-754.07 1306.97,-766.25 1366.06,-780.32 1433.31,-793.68 1484.67,-803.33"/>
<polygon fill="black" stroke="black" points="1484.25,-806.82 1494.73,-805.21 1485.54,-799.94 1484.25,-806.82"/>
<text text-anchor="middle" x="1373.47" y="-797.05" font-family="Times-Roman" font-size="14.00">rdfs:type</text>
</g>
<!-- B_:b2 -->
<g id="node3" class="node">
<title>B_:b2</title>
<ellipse fill="none" stroke="green" cx="1568.47" cy="-764.25" rx="18" ry="18"/>
</g>
<!-- Rhttp://www.someinstitute.edu&#45;&gt;B_:b2 -->
<g id="edge2" class="edge">
<title>Rhttp://www.someinstitute.edu&#45;&gt;B_:b2</title>
<path fill="none" stroke="black" stroke-dasharray="1,5" d="M1205.77,-721.56C1314.06,-734.34 1476.41,-753.5 1540.28,-761.04"/>
<polygon fill="black" stroke="black" points="1540,-764.53 1550.34,-762.23 1540.82,-757.58 1540,-764.53"/>
<text text-anchor="middle" x="1373.47" y="-751.05" font-family="Times-Roman" font-size="14.00">schema:address</text>
</g>
<!-- LSome Institute -->
<g id="node4" class="node">
<title>LSome Institute</title>
<polygon fill="none" stroke="black" points="1509.47,-691.25 1509.47,-727.25 1627.47,-727.25 1627.47,-691.25 1509.47,-691.25"/>
<text text-anchor="middle" x="1568.47" y="-705.55" font-family="Times-Roman" font-size="14.00">Some Institute</text>
</g>
<!-- Rhttp://www.someinstitute.edu&#45;&gt;LSome Institute -->
<g id="edge3" class="edge">
<title>Rhttp://www.someinstitute.edu&#45;&gt;LSome Institute</title>
<path fill="none" stroke="black" stroke-dasharray="1,5" d="M1244.14,-709.25C1328.73,-709.25 1432.1,-709.25 1498.83,-709.25"/>
<polygon fill="black" stroke="black" points="1499.22,-712.75 1509.22,-709.25 1499.22,-705.75 1499.22,-712.75"/>
<text text-anchor="middle" x="1373.47" y="-713.05" font-family="Times-Roman" font-size="14.00">schema:legalName</text>
</g>
<!-- LSI -->
<g id="node5" class="node">
<title>LSI</title>
<polygon fill="none" stroke="black" points="1541.47,-636.25 1541.47,-672.25 1595.47,-672.25 1595.47,-636.25 1541.47,-636.25"/>
<text text-anchor="middle" x="1568.47" y="-650.55" font-family="Times-Roman" font-size="14.00">SI</text>
</g>
<!-- Rhttp://www.someinstitute.edu&#45;&gt;LSI -->
<g id="edge4" class="edge">
<title>Rhttp://www.someinstitute.edu&#45;&gt;LSI</title>
<path fill="none" stroke="black" stroke-dasharray="1,5" d="M1205.77,-696.94C1309.37,-684.71 1462.46,-666.64 1531.44,-658.5"/>
<polygon fill="black" stroke="black" points="1531.86,-661.98 1541.38,-657.33 1531.04,-655.03 1531.86,-661.98"/>
<text text-anchor="middle" x="1373.47" y="-687.05" font-family="Times-Roman" font-size="14.00">schema:name</text>
</g>
<!-- Lhttp://www.someinstitute.edu -->
<g id="node6" class="node">
<title>Lhttp://www.someinstitute.edu</title>
<polygon fill="none" stroke="black" points="1457.97,-581.25 1457.97,-617.25 1678.97,-617.25 1678.97,-581.25 1457.97,-581.25"/>
<text text-anchor="middle" x="1568.47" y="-595.55" font-family="Times-Roman" font-size="14.00">http://www.someinstitute.edu</text>
</g>
<!-- Rhttp://www.someinstitute.edu&#45;&gt;Lhttp://www.someinstitute.edu -->
<g id="edge5" class="edge">
<title>Rhttp://www.someinstitute.edu&#45;&gt;Lhttp://www.someinstitute.edu</title>
<path fill="none" stroke="black" stroke-dasharray="1,5" d="M1239,-704.17C1256.77,-699.39 1273.98,-692.37 1288.97,-682.25 1302.17,-673.33 1294.01,-660.52 1306.97,-651.25 1347.5,-622.26 1400.23,-608.48 1447.64,-602.23"/>
<polygon fill="black" stroke="black" points="1448.17,-605.69 1457.67,-601.01 1447.32,-598.74 1448.17,-605.69"/>
<text text-anchor="middle" x="1373.47" y="-655.05" font-family="Times-Roman" font-size="14.00">schema:url</text>
</g>
<!-- Rschema:PostalAddress -->
<g id="node22" class="node">
<title>Rschema:PostalAddress</title>
<ellipse fill="none" stroke="blue" cx="1995.76" cy="-901.25" rx="111.58" ry="18"/>
<text text-anchor="middle" x="1995.76" y="-897.55" font-family="Times-Roman" font-size="14.00">schema:PostalAddress</text>
</g>
<!-- B_:b2&#45;&gt;Rschema:PostalAddress -->
<g id="edge21" class="edge">
<title>B_:b2&#45;&gt;Rschema:PostalAddress</title>
<path fill="none" stroke="black" stroke-dasharray="1,5" d="M1586.79,-763.49C1610.77,-763.42 1653.93,-767.01 1678.97,-791.25 1700.2,-811.8 1674.85,-835.66 1696.97,-855.25 1749.65,-901.92 1829.22,-912.24 1892.86,-911.53"/>
<polygon fill="black" stroke="black" points="1893,-915.03 1902.93,-911.32 1892.86,-908.03 1893,-915.03"/>
<text text-anchor="middle" x="1781.47" y="-914.05" font-family="Times-Roman" font-size="14.00">rdfs:type</text>
</g>
<!-- LUSA -->
<g id="node23" class="node">
<title>LUSA</title>
<polygon fill="none" stroke="black" points="1968.76,-828.25 1968.76,-864.25 2022.76,-864.25 2022.76,-828.25 1968.76,-828.25"/>
<text text-anchor="middle" x="1995.76" y="-842.55" font-family="Times-Roman" font-size="14.00">USA</text>
</g>
<!-- B_:b2&#45;&gt;LUSA -->
<g id="edge22" class="edge">
<title>B_:b2&#45;&gt;LUSA</title>
<path fill="none" stroke="black" stroke-dasharray="1,5" d="M1586.59,-767.02C1608.52,-770.89 1647.44,-778.86 1678.97,-791.25 1687.48,-794.6 1688.3,-798.3 1696.97,-801.25 1787.63,-832.16 1901.03,-841.87 1958.2,-844.9"/>
<polygon fill="black" stroke="black" points="1958.37,-848.41 1968.53,-845.41 1958.71,-841.42 1958.37,-848.41"/>
<text text-anchor="middle" x="1781.47" y="-840.05" font-family="Times-Roman" font-size="14.00">schema:addressCountry</text>
</g>
<!-- LAnytown -->
<g id="node24" class="node">
<title>LAnytown</title>
<polygon fill="none" stroke="black" points="1957.26,-773.25 1957.26,-809.25 2034.26,-809.25 2034.26,-773.25 1957.26,-773.25"/>
<text text-anchor="middle" x="1995.76" y="-787.55" font-family="Times-Roman" font-size="14.00">Anytown</text>
</g>
<!-- B_:b2&#45;&gt;LAnytown -->
<g id="edge23" class="edge">
<title>B_:b2&#45;&gt;LAnytown</title>
<path fill="none" stroke="black" stroke-dasharray="1,5" d="M1586.67,-765.34C1647.33,-769.19 1852.71,-782.23 1946.88,-788.21"/>
<polygon fill="black" stroke="black" points="1946.78,-791.71 1956.98,-788.85 1947.22,-784.73 1946.78,-791.71"/>
<text text-anchor="middle" x="1781.47" y="-786.05" font-family="Times-Roman" font-size="14.00">schema:addressLocality</text>
</g>
<!-- LST -->
<g id="node25" class="node">
<title>LST</title>
<polygon fill="none" stroke="black" points="1968.76,-718.25 1968.76,-754.25 2022.76,-754.25 2022.76,-718.25 1968.76,-718.25"/>
<text text-anchor="middle" x="1995.76" y="-732.55" font-family="Times-Roman" font-size="14.00">ST</text>
</g>
<!-- B_:b2&#45;&gt;LST -->
<g id="edge24" class="edge">
<title>B_:b2&#45;&gt;LST</title>
<path fill="none" stroke="black" stroke-dasharray="1,5" d="M1586.78,-762.6C1611.29,-760.29 1657.52,-756.08 1696.97,-753.25 1791.1,-746.5 1902.14,-740.75 1958.29,-737.99"/>
<polygon fill="black" stroke="black" points="1958.63,-741.48 1968.45,-737.49 1958.29,-734.49 1958.63,-741.48"/>
<text text-anchor="middle" x="1781.47" y="-757.05" font-family="Times-Roman" font-size="14.00">schema:addressRegion</text>
</g>
<!-- L12345 -->
<g id="node26" class="node">
<title>L12345</title>
<polygon fill="none" stroke="black" points="1964.76,-663.25 1964.76,-699.25 2026.76,-699.25 2026.76,-663.25 1964.76,-663.25"/>
<text text-anchor="middle" x="1995.76" y="-677.55" font-family="Times-Roman" font-size="14.00">12345</text>
</g>
<!-- B_:b2&#45;&gt;L12345 -->
<g id="edge25" class="edge">
<title>B_:b2&#45;&gt;L12345</title>
<path fill="none" stroke="black" stroke-dasharray="1,5" d="M1586.54,-762.29C1608.74,-759.24 1648.31,-752.11 1678.97,-737.25 1688.09,-732.83 1687.63,-727.2 1696.97,-723.25 1783.59,-686.57 1895.8,-680.71 1954.66,-680.47"/>
<polygon fill="black" stroke="black" points="1954.67,-683.97 1964.67,-680.48 1954.68,-676.97 1954.67,-683.97"/>
<text text-anchor="middle" x="1781.47" y="-727.05" font-family="Times-Roman" font-size="14.00">schema:postalCode</text>
</g>
<!-- L234 Main St. -->
<g id="node27" class="node">
<title>L234 Main St.</title>
<polygon fill="none" stroke="black" points="1943.76,-608.25 1943.76,-644.25 2047.76,-644.25 2047.76,-608.25 1943.76,-608.25"/>
<text text-anchor="middle" x="1995.76" y="-622.55" font-family="Times-Roman" font-size="14.00">234 Main St.</text>
</g>
<!-- B_:b2&#45;&gt;L234 Main St. -->
<g id="edge26" class="edge">
<title>B_:b2&#45;&gt;L234 Main St.</title>
<path fill="none" stroke="black" stroke-dasharray="1,5" d="M1586.49,-765.11C1610.5,-765.33 1654.14,-761.99 1678.97,-737.25 1702.33,-713.96 1672.34,-687.2 1696.97,-665.25 1761.39,-607.83 1866.98,-608.35 1933.58,-615.9"/>
<polygon fill="black" stroke="black" points="1933.17,-619.37 1943.52,-617.11 1934.01,-612.43 1933.17,-619.37"/>
<text text-anchor="middle" x="1781.47" y="-669.05" font-family="Times-Roman" font-size="14.00">schema:streetAddress</text>
</g>
<!-- B_:b0 -->
<g id="node7" class="node">
<title>B_:b0</title>
<ellipse fill="none" stroke="green" cx="18" cy="-271.25" rx="18" ry="18"/>
</g>
<!-- Rschema:ItemList -->
<g id="node8" class="node">
<title>Rschema:ItemList</title>
<ellipse fill="none" stroke="blue" cx="463" cy="-462.25" rx="85.29" ry="18"/>
<text text-anchor="middle" x="463" y="-458.55" font-family="Times-Roman" font-size="14.00">schema:ItemList</text>
</g>
<!-- B_:b0&#45;&gt;Rschema:ItemList -->
<g id="edge6" class="edge">
<title>B_:b0&#45;&gt;Rschema:ItemList</title>
<path fill="none" stroke="black" stroke-dasharray="1,5" d="M21.03,-289.07C24.35,-310.18 32.84,-345.15 54,-366.25 137.19,-449.2 277.73,-465.71 370.19,-466.58"/>
<polygon fill="black" stroke="black" points="370.37,-470.08 380.38,-466.62 370.39,-463.08 370.37,-470.08"/>
<text text-anchor="middle" x="139.5" y="-454.05" font-family="Times-Roman" font-size="14.00">rdfs:type</text>
</g>
<!-- B_:b1 -->
<g id="node9" class="node">
<title>B_:b1</title>
<ellipse fill="none" stroke="green" cx="463" cy="-408.25" rx="18" ry="18"/>
</g>
<!-- B_:b0&#45;&gt;B_:b1 -->
<g id="edge7" class="edge">
<title>B_:b0&#45;&gt;B_:b1</title>
<path fill="none" stroke="black" stroke-dasharray="1,5" d="M33.98,-280.31C40.05,-283.73 47.22,-287.47 54,-290.25 192.93,-347.27 369.03,-388.25 435.23,-402.62"/>
<polygon fill="black" stroke="black" points="434.73,-406.09 445.24,-404.77 436.2,-399.25 434.73,-406.09"/>
<text text-anchor="middle" x="139.5" y="-351.05" font-family="Times-Roman" font-size="14.00">schema:itemListElement</text>
</g>
<!-- B_:b3 -->
<g id="node10" class="node">
<title>B_:b3</title>
<ellipse fill="none" stroke="green" cx="463" cy="-271.25" rx="18" ry="18"/>
</g>
<!-- B_:b0&#45;&gt;B_:b3 -->
<g id="edge8" class="edge">
<title>B_:b0&#45;&gt;B_:b3</title>
<path fill="none" stroke="black" stroke-dasharray="1,5" d="M36.09,-271.25C103.51,-271.25 351.31,-271.25 434.53,-271.25"/>
<polygon fill="black" stroke="black" points="434.72,-274.75 444.72,-271.25 434.72,-267.75 434.72,-274.75"/>
<text text-anchor="middle" x="139.5" y="-275.05" font-family="Times-Roman" font-size="14.00">schema:itemListElement</text>
</g>
<!-- L315 -->
<g id="node11" class="node">
<title>L315</title>
<polygon fill="none" stroke="black" points="436,-198.25 436,-234.25 490,-234.25 490,-198.25 436,-198.25"/>
<text text-anchor="middle" x="463" y="-212.55" font-family="Times-Roman" font-size="14.00">315</text>
</g>
<!-- B_:b0&#45;&gt;L315 -->
<g id="edge9" class="edge">
<title>B_:b0&#45;&gt;L315</title>
<path fill="none" stroke="black" stroke-dasharray="1,5" d="M33.4,-261.7C39.5,-258.12 46.85,-254.4 54,-252.25 186.38,-212.36 353.03,-212.3 425.53,-214.57"/>
<polygon fill="black" stroke="black" points="425.41,-218.07 435.53,-214.92 425.66,-211.08 425.41,-218.07"/>
<text text-anchor="middle" x="139.5" y="-256.05" font-family="Times-Roman" font-size="14.00">schema:numberOfItems</text>
</g>
<!-- Lhttp://multivarki.ru?filters%5Bprice%5D%5BLTE%5D=39600 -->
<g id="node12" class="node">
<title>Lhttp://multivarki.ru?filters%5Bprice%5D%5BLTE%5D=39600</title>
<polygon fill="none" stroke="black" points="243,-143.25 243,-179.25 683,-179.25 683,-143.25 243,-143.25"/>
<text text-anchor="middle" x="463" y="-157.55" font-family="Times-Roman" font-size="14.00">http://multivarki.ru?filters%5Bprice%5D%5BLTE%5D=39600</text>
</g>
<!-- B_:b0&#45;&gt;Lhttp://multivarki.ru?filters%5Bprice%5D%5BLTE%5D=39600 -->
<g id="edge10" class="edge">
<title>B_:b0&#45;&gt;Lhttp://multivarki.ru?filters%5Bprice%5D%5BLTE%5D=39600</title>
<path fill="none" stroke="black" stroke-dasharray="1,5" d="M22.85,-253.62C27.38,-237.42 36.6,-214.17 54,-202.25 127.15,-152.13 225.7,-141.07 307.62,-142.93"/>
<polygon fill="black" stroke="black" points="307.68,-146.44 317.78,-143.23 307.89,-139.44 307.68,-146.44"/>
<text text-anchor="middle" x="139.5" y="-206.05" font-family="Times-Roman" font-size="14.00">schema:url</text>
</g>
<!-- B_:b1&#45;&gt;Rhttp://www.someinstitute.edu -->
<g id="edge18" class="edge">
<title>B_:b1&#45;&gt;Rhttp://www.someinstitute.edu</title>
<path fill="none" stroke="black" stroke-dasharray="1,5" d="M480.77,-404.13C522.04,-395.11 629.11,-378.65 683,-435.25 720.49,-474.63 662.58,-640.78 701,-679.25 786.87,-765.25 941.82,-747.6 1031.09,-727.88"/>
<polygon fill="black" stroke="black" points="1031.87,-731.29 1040.85,-725.66 1030.32,-724.47 1031.87,-731.29"/>
<text text-anchor="middle" x="797.5" y="-747.05" font-family="Times-Roman" font-size="14.00">schema:parentOrganization</text>
</g>
<!-- Rschema:ResearchProject -->
<g id="node13" class="node">
<title>Rschema:ResearchProject</title>
<ellipse fill="none" stroke="blue" cx="1100.48" cy="-655.25" rx="120.48" ry="18"/>
<text text-anchor="middle" x="1100.48" y="-651.55" font-family="Times-Roman" font-size="14.00">schema:ResearchProject</text>
</g>
<!-- B_:b1&#45;&gt;Rschema:ResearchProject -->
<g id="edge11" class="edge">
<title>B_:b1&#45;&gt;Rschema:ResearchProject</title>
<path fill="none" stroke="black" stroke-dasharray="1,5" d="M480.69,-404.21C521.79,-395.36 628.48,-379.26 683,-435.25 712.12,-465.16 671.28,-592.93 701,-622.25 738.9,-659.65 874.45,-664.07 977.02,-661.62"/>
<polygon fill="black" stroke="black" points="977.24,-665.11 987.15,-661.35 977.06,-658.12 977.24,-665.11"/>
<text text-anchor="middle" x="797.5" y="-665.05" font-family="Times-Roman" font-size="14.00">rdfs:type</text>
</g>
<!-- Rschema:Service -->
<g id="node14" class="node">
<title>Rschema:Service</title>
<ellipse fill="none" stroke="blue" cx="1100.48" cy="-601.25" rx="81.79" ry="18"/>
<text text-anchor="middle" x="1100.48" y="-597.55" font-family="Times-Roman" font-size="14.00">schema:Service</text>
</g>
<!-- B_:b1&#45;&gt;Rschema:Service -->
<g id="edge12" class="edge">
<title>B_:b1&#45;&gt;Rschema:Service</title>
<path fill="none" stroke="black" stroke-dasharray="1,5" d="M480.84,-404.3C521.8,-395.78 627.38,-380.63 683,-435.25 723.67,-475.19 659.83,-522.82 701,-562.25 743.76,-603.2 906.02,-606.92 1009.83,-604.83"/>
<polygon fill="black" stroke="black" points="1010.09,-608.32 1020,-604.6 1009.93,-601.32 1010.09,-608.32"/>
<text text-anchor="middle" x="797.5" y="-607.05" font-family="Times-Roman" font-size="14.00">rdfs:type</text>
</g>
<!-- LBiological Oceanography -->
<g id="node15" class="node">
<title>LBiological Oceanography</title>
<polygon fill="none" stroke="black" points="1005.98,-528.25 1005.98,-564.25 1194.98,-564.25 1194.98,-528.25 1005.98,-528.25"/>
<text text-anchor="middle" x="1100.48" y="-542.55" font-family="Times-Roman" font-size="14.00">Biological Oceanography</text>
</g>
<!-- B_:b1&#45;&gt;LBiological Oceanography -->
<g id="edge13" class="edge">
<title>B_:b1&#45;&gt;LBiological Oceanography</title>
<path fill="none" stroke="black" stroke-dasharray="1,5" d="M480.71,-404.7C520.95,-397.2 624.21,-384.35 683,-435.25 705.99,-455.15 677.91,-481.47 701,-501.25 743.91,-538.02 892.65,-546.25 995.74,-547.35"/>
<polygon fill="black" stroke="black" points="995.85,-550.85 1005.88,-547.44 995.91,-543.85 995.85,-550.85"/>
<text text-anchor="middle" x="797.5" y="-547.05" font-family="Times-Roman" font-size="14.00">schema:category</text>
</g>
<!-- LChemical Oceanography -->
<g id="node16" class="node">
<title>LChemical Oceanography</title>
<polygon fill="none" stroke="black" points="1006.98,-473.25 1006.98,-509.25 1193.98,-509.25 1193.98,-473.25 1006.98,-473.25"/>
<text text-anchor="middle" x="1100.48" y="-487.55" font-family="Times-Roman" font-size="14.00">Chemical Oceanography</text>
</g>
<!-- B_:b1&#45;&gt;LChemical Oceanography -->
<g id="edge14" class="edge">
<title>B_:b1&#45;&gt;LChemical Oceanography</title>
<path fill="none" stroke="black" stroke-dasharray="1,5" d="M481.24,-408.16C518.85,-408.44 610.7,-411.7 683,-435.25 691.7,-438.08 692.29,-442.45 701,-445.25 798.22,-476.5 914.8,-487.04 996.67,-490.35"/>
<polygon fill="black" stroke="black" points="996.61,-493.85 1006.73,-490.72 996.87,-486.85 996.61,-493.85"/>
<text text-anchor="middle" x="797.5" y="-486.05" font-family="Times-Roman" font-size="14.00">schema:category</text>
</g>
<!-- LThe Sample Data Repository Service... -->
<g id="node17" class="node">
<title>LThe Sample Data Repository Service...</title>
<polygon fill="none" stroke="black" points="959.48,-418.25 959.48,-454.25 1241.48,-454.25 1241.48,-418.25 959.48,-418.25"/>
<text text-anchor="middle" x="1100.48" y="-432.55" font-family="Times-Roman" font-size="14.00">The Sample Data Repository Service...</text>
</g>
<!-- B_:b1&#45;&gt;LThe Sample Data Repository Service... -->
<g id="edge15" class="edge">
<title>B_:b1&#45;&gt;LThe Sample Data Repository Service...</title>
<path fill="none" stroke="black" stroke-dasharray="1,5" d="M481,-409C546.68,-411.89 788.26,-422.54 949.34,-429.63"/>
<polygon fill="black" stroke="black" points="949.2,-433.13 959.35,-430.08 949.51,-426.14 949.2,-433.13"/>
<text text-anchor="middle" x="797.5" y="-430.05" font-family="Times-Roman" font-size="14.00">schema:description</text>
</g>
<!-- LSample Data Repository Office -->
<g id="node18" class="node">
<title>LSample Data Repository Office</title>
<polygon fill="none" stroke="black" points="986.48,-363.25 986.48,-399.25 1214.48,-399.25 1214.48,-363.25 986.48,-363.25"/>
<text text-anchor="middle" x="1100.48" y="-377.55" font-family="Times-Roman" font-size="14.00">Sample Data Repository Office</text>
</g>
<!-- B_:b1&#45;&gt;LSample Data Repository Office -->
<g id="edge16" class="edge">
<title>B_:b1&#45;&gt;LSample Data Repository Office</title>
<path fill="none" stroke="black" stroke-dasharray="1,5" d="M481,-407.53C550.43,-404.58 816.41,-393.28 976.09,-386.49"/>
<polygon fill="black" stroke="black" points="976.6,-389.97 986.45,-386.05 976.31,-382.98 976.6,-389.97"/>
<text text-anchor="middle" x="797.5" y="-401.05" font-family="Times-Roman" font-size="14.00">schema:legalName</text>
</g>
<!-- LSDRO -->
<g id="node19" class="node">
<title>LSDRO</title>
<polygon fill="none" stroke="black" points="1071.98,-308.25 1071.98,-344.25 1128.98,-344.25 1128.98,-308.25 1071.98,-308.25"/>
<text text-anchor="middle" x="1100.48" y="-322.55" font-family="Times-Roman" font-size="14.00">SDRO</text>
</g>
<!-- B_:b1&#45;&gt;LSDRO -->
<g id="edge17" class="edge">
<title>B_:b1&#45;&gt;LSDRO</title>
<path fill="none" stroke="black" stroke-dasharray="1,5" d="M480.91,-405.25C519.72,-398.42 618.2,-381.45 701,-370.25 833.19,-352.36 990.8,-336.6 1061.68,-329.8"/>
<polygon fill="black" stroke="black" points="1062.27,-333.26 1071.89,-328.83 1061.6,-326.29 1062.27,-333.26"/>
<text text-anchor="middle" x="797.5" y="-374.05" font-family="Times-Roman" font-size="14.00">schema:name</text>
</g>
<!-- Rhttps://www.sample&#45;data&#45;repository.org -->
<g id="node20" class="node">
<title>Rhttps://www.sample&#45;data&#45;repository.org</title>
<ellipse fill="none" stroke="blue" cx="1100.48" cy="-271.25" rx="188.47" ry="18"/>
<text text-anchor="middle" x="1100.48" y="-267.55" font-family="Times-Roman" font-size="14.00">https://www.sample&#45;data&#45;repository.org</text>
</g>
<!-- B_:b1&#45;&gt;Rhttps://www.sample&#45;data&#45;repository.org -->
<g id="edge19" class="edge">
<title>B_:b1&#45;&gt;Rhttps://www.sample&#45;data&#45;repository.org</title>
<path fill="none" stroke="black" stroke-dasharray="1,5" d="M480.08,-401.67C517.92,-386.45 615.88,-348.52 701,-328.25 784.93,-308.26 880.58,-294.29 957.13,-285.19"/>
<polygon fill="black" stroke="black" points="957.8,-288.64 967.33,-283.99 956.99,-281.68 957.8,-288.64"/>
<text text-anchor="middle" x="797.5" y="-332.05" font-family="Times-Roman" font-size="14.00">schema:provider</text>
</g>
<!-- Lhttps://www.sample&#45;data&#45;repository.org -->
<g id="node21" class="node">
<title>Lhttps://www.sample&#45;data&#45;repository.org</title>
<polygon fill="none" stroke="black" points="955.48,-198.25 955.48,-234.25 1245.48,-234.25 1245.48,-198.25 955.48,-198.25"/>
<text text-anchor="middle" x="1100.48" y="-212.55" font-family="Times-Roman" font-size="14.00">https://www.sample&#45;data&#45;repository.org</text>
</g>
<!-- B_:b1&#45;&gt;Lhttps://www.sample&#45;data&#45;repository.org -->
<g id="edge20" class="edge">
<title>B_:b1&#45;&gt;Lhttps://www.sample&#45;data&#45;repository.org</title>
<path fill="none" stroke="black" stroke-dasharray="1,5" d="M480.25,-402.9C518.59,-389.71 616.5,-352.7 683,-298.25 693.04,-290.03 689.78,-281.78 701,-275.25 774.18,-232.68 867.27,-217.18 945.06,-212.66"/>
<polygon fill="black" stroke="black" points="945.64,-216.14 955.44,-212.12 945.28,-209.15 945.64,-216.14"/>
<text text-anchor="middle" x="797.5" y="-279.05" font-family="Times-Roman" font-size="14.00">schema:url</text>
</g>
<!-- Rschema:Product -->
<g id="node28" class="node">
<title>Rschema:Product</title>
<ellipse fill="none" stroke="blue" cx="1100.48" cy="-161.25" rx="83.39" ry="18"/>
<text text-anchor="middle" x="1100.48" y="-157.55" font-family="Times-Roman" font-size="14.00">schema:Product</text>
</g>
<!-- B_:b3&#45;&gt;Rschema:Product -->
<g id="edge27" class="edge">
<title>B_:b3&#45;&gt;Rschema:Product</title>
<path fill="none" stroke="black" stroke-dasharray="1,5" d="M480.7,-274.79C520.91,-282.26 624.11,-295.04 683,-244.25 705.7,-224.67 677.56,-197.93 701,-179.25 747.45,-142.23 910.57,-146.74 1013.14,-153.75"/>
<polygon fill="black" stroke="black" points="1012.96,-157.24 1023.18,-154.45 1013.45,-150.26 1012.96,-157.24"/>
<text text-anchor="middle" x="797.5" y="-183.05" font-family="Times-Roman" font-size="14.00">rdfs:type</text>
</g>
<!-- LProduct name -->
<g id="node29" class="node">
<title>LProduct name</title>
<polygon fill="none" stroke="black" points="1043.98,-88.25 1043.98,-124.25 1156.98,-124.25 1156.98,-88.25 1043.98,-88.25"/>
<text text-anchor="middle" x="1100.48" y="-102.55" font-family="Times-Roman" font-size="14.00">Product name</text>
</g>
<!-- B_:b3&#45;&gt;LProduct name -->
<g id="edge28" class="edge">
<title>B_:b3&#45;&gt;LProduct name</title>
<path fill="none" stroke="black" stroke-dasharray="1,5" d="M480.78,-275.15C521.62,-283.53 626.95,-298.43 683,-244.25 719.88,-208.6 663.02,-164.73 701,-130.25 791.42,-48.16 946.16,-67.71 1033.83,-87.87"/>
<polygon fill="black" stroke="black" points="1033.13,-91.3 1043.66,-90.19 1034.74,-84.48 1033.13,-91.3"/>
<text text-anchor="middle" x="797.5" y="-134.05" font-family="Times-Roman" font-size="14.00">schema:name</text>
</g>
</g>
</svg>
