<?xml version="1.0" encoding="UTF-8" standalone="no"?>
<!DOCTYPE svg PUBLIC "-//W3C//DTD SVG 1.1//EN"
 "http://www.w3.org/Graphics/SVG/1.1/DTD/svg11.dtd">
<!-- Generated by graphviz version 2.43.0 (0)
 -->
<!-- Title: %3 Pages: 1 -->
<svg width="1737pt" height="926pt"
 viewBox="0.00 0.00 1736.56 925.97" xmlns="http://www.w3.org/2000/svg" xmlns:xlink="http://www.w3.org/1999/xlink">
<g id="graph0" class="graph" transform="scale(1 1) rotate(0) translate(4 921.97)">
<title>%3</title>
<polygon fill="white" stroke="transparent" points="-4,4 -4,-921.97 1732.56,-921.97 1732.56,4 -4,4"/>
<text text-anchor="middle" x="864.28" y="-22.8" font-family="Times,serif" font-size="14.00">Model:</text>
<text text-anchor="middle" x="864.28" y="-7.8" font-family="Times,serif" font-size="14.00">https://iode.org/</text>
<!-- Rhttp://www.someinstitute.edu -->
<g id="node1" class="node">
<title>Rhttp://www.someinstitute.edu</title>
<ellipse fill="none" stroke="blue" cx="911.44" cy="-707.97" rx="115.08" ry="18"/>
<text text-anchor="middle" x="911.44" y="-704.27" font-family="Times,serif" font-size="14.00">http://www.someinstitute.edu</text>
</g>
<!-- Rschema:Organization -->
<g id="node2" class="node">
<title>Rschema:Organization</title>
<ellipse fill="none" stroke="blue" cx="1292.37" cy="-816.97" rx="85.59" ry="18"/>
<text text-anchor="middle" x="1292.37" y="-813.27" font-family="Times,serif" font-size="14.00">schema:Organization</text>
</g>
<!-- Rhttp://www.someinstitute.edu&#45;&gt;Rschema:Organization -->
<g id="edge1" class="edge">
<title>Rhttp://www.someinstitute.edu&#45;&gt;Rschema:Organization</title>
<path fill="none" stroke="black" stroke-dasharray="1,5" d="M957.86,-724.5C991.57,-736.49 1038.79,-752.68 1080.87,-764.97 1127.94,-778.72 1181.61,-791.94 1222.97,-801.61"/>
<polygon fill="black" stroke="black" points="1222.41,-805.07 1232.95,-803.93 1224,-798.26 1222.41,-805.07"/>
<text text-anchor="middle" x="1133.37" y="-795.77" font-family="Times,serif" font-size="14.00">rdfs:type</text>
</g>
<!-- B_:b2 -->
<g id="node3" class="node">
<title>B_:b2</title>
<ellipse fill="none" stroke="green" cx="1292.37" cy="-762.97" rx="18" ry="18"/>
</g>
<!-- Rhttp://www.someinstitute.edu&#45;&gt;B_:b2 -->
<g id="edge2" class="edge">
<title>Rhttp://www.someinstitute.edu&#45;&gt;B_:b2</title>
<path fill="none" stroke="black" stroke-dasharray="1,5" d="M996.53,-720.18C1081.98,-732.58 1209.35,-751.07 1264.41,-759.06"/>
<polygon fill="black" stroke="black" points="1264.03,-762.54 1274.42,-760.51 1265.03,-755.61 1264.03,-762.54"/>
<text text-anchor="middle" x="1133.37" y="-749.77" font-family="Times,serif" font-size="14.00">schema:address</text>
</g>
<!-- LSome Institute -->
<g id="node4" class="node">
<title>LSome Institute</title>
<polygon fill="none" stroke="black" points="1244.37,-689.97 1244.37,-725.97 1340.37,-725.97 1340.37,-689.97 1244.37,-689.97"/>
<text text-anchor="middle" x="1292.37" y="-704.27" font-family="Times,serif" font-size="14.00">Some Institute</text>
</g>
<!-- Rhttp://www.someinstitute.edu&#45;&gt;LSome Institute -->
<g id="edge3" class="edge">
<title>Rhttp://www.someinstitute.edu&#45;&gt;LSome Institute</title>
<path fill="none" stroke="black" stroke-dasharray="1,5" d="M1026.64,-707.97C1095.02,-707.97 1179.02,-707.97 1233.81,-707.97"/>
<polygon fill="black" stroke="black" points="1234.02,-711.47 1244.02,-707.97 1234.02,-704.47 1234.02,-711.47"/>
<text text-anchor="middle" x="1133.37" y="-711.77" font-family="Times,serif" font-size="14.00">schema:legalName</text>
</g>
<!-- LSI -->
<g id="node5" class="node">
<title>LSI</title>
<polygon fill="none" stroke="black" points="1265.37,-634.97 1265.37,-670.97 1319.37,-670.97 1319.37,-634.97 1265.37,-634.97"/>
<text text-anchor="middle" x="1292.37" y="-649.27" font-family="Times,serif" font-size="14.00">SI</text>
</g>
<!-- Rhttp://www.someinstitute.edu&#45;&gt;LSI -->
<g id="edge4" class="edge">
<title>Rhttp://www.someinstitute.edu&#45;&gt;LSI</title>
<path fill="none" stroke="black" stroke-dasharray="1,5" d="M996.53,-695.77C1077.58,-684 1196.33,-666.77 1255.34,-658.2"/>
<polygon fill="black" stroke="black" points="1255.91,-661.66 1265.3,-656.76 1254.9,-654.73 1255.91,-661.66"/>
<text text-anchor="middle" x="1133.37" y="-685.77" font-family="Times,serif" font-size="14.00">schema:name</text>
</g>
<!-- Lhttp://www.someinstitute.edu -->
<g id="node6" class="node">
<title>Lhttp://www.someinstitute.edu</title>
<polygon fill="none" stroke="black" points="1203.87,-579.97 1203.87,-615.97 1380.87,-615.97 1380.87,-579.97 1203.87,-579.97"/>
<text text-anchor="middle" x="1292.37" y="-594.27" font-family="Times,serif" font-size="14.00">http://www.someinstitute.edu</text>
</g>
<!-- Rhttp://www.someinstitute.edu&#45;&gt;Lhttp://www.someinstitute.edu -->
<g id="edge5" class="edge">
<title>Rhttp://www.someinstitute.edu&#45;&gt;Lhttp://www.someinstitute.edu</title>
<path fill="none" stroke="black" stroke-dasharray="1,5" d="M1017.85,-701.11C1033.88,-696.76 1049.51,-690.34 1062.87,-680.97 1075.92,-671.83 1068.13,-659.53 1080.87,-649.97 1113.22,-625.71 1155.47,-612.66 1193.63,-605.67"/>
<polygon fill="black" stroke="black" points="1194.49,-609.08 1203.75,-603.94 1193.31,-602.18 1194.49,-609.08"/>
<text text-anchor="middle" x="1133.37" y="-653.77" font-family="Times,serif" font-size="14.00">schema:url</text>
</g>
<!-- Rschema:PostalAddress -->
<g id="node22" class="node">
<title>Rschema:PostalAddress</title>
<ellipse fill="none" stroke="blue" cx="1638.22" cy="-899.97" rx="90.18" ry="18"/>
<text text-anchor="middle" x="1638.22" y="-896.27" font-family="Times,serif" font-size="14.00">schema:PostalAddress</text>
</g>
<!-- B_:b2&#45;&gt;Rschema:PostalAddress -->
<g id="edge21" class="edge">
<title>B_:b2&#45;&gt;Rschema:PostalAddress</title>
<path fill="none" stroke="black" stroke-dasharray="1,5" d="M1310.61,-763.63C1330.26,-765.31 1362.06,-771.01 1380.87,-789.97 1400.48,-809.74 1378.37,-831.14 1398.87,-849.97 1436.22,-884.29 1490.91,-897.42 1538.48,-901.69"/>
<polygon fill="black" stroke="black" points="1538.27,-905.18 1548.51,-902.47 1538.82,-898.2 1538.27,-905.18"/>
<text text-anchor="middle" x="1464.37" y="-903.77" font-family="Times,serif" font-size="14.00">rdfs:type</text>
</g>
<!-- LUSA -->
<g id="node23" class="node">
<title>LUSA</title>
<polygon fill="none" stroke="black" points="1611.22,-826.97 1611.22,-862.97 1665.22,-862.97 1665.22,-826.97 1611.22,-826.97"/>
<text text-anchor="middle" x="1638.22" y="-841.27" font-family="Times,serif" font-size="14.00">USA</text>
</g>
<!-- B_:b2&#45;&gt;LUSA -->
<g id="edge22" class="edge">
<title>B_:b2&#45;&gt;LUSA</title>
<path fill="none" stroke="black" stroke-dasharray="1,5" d="M1310.19,-767.05C1328.08,-771.64 1357.04,-779.8 1380.87,-789.97 1389.29,-793.56 1390.27,-796.86 1398.87,-799.97 1467.91,-824.92 1553.44,-836.76 1600.99,-841.77"/>
<polygon fill="black" stroke="black" points="1600.8,-845.27 1611.1,-842.8 1601.51,-838.31 1600.8,-845.27"/>
<text text-anchor="middle" x="1464.37" y="-834.77" font-family="Times,serif" font-size="14.00">schema:addressCountry</text>
</g>
<!-- LAnytown -->
<g id="node24" class="node">
<title>LAnytown</title>
<polygon fill="none" stroke="black" points="1604.72,-771.97 1604.72,-807.97 1671.72,-807.97 1671.72,-771.97 1604.72,-771.97"/>
<text text-anchor="middle" x="1638.22" y="-786.27" font-family="Times,serif" font-size="14.00">Anytown</text>
</g>
<!-- B_:b2&#45;&gt;LAnytown -->
<g id="edge23" class="edge">
<title>B_:b2&#45;&gt;LAnytown</title>
<path fill="none" stroke="black" stroke-dasharray="1,5" d="M1310.42,-764.31C1362.13,-768.37 1518.26,-780.63 1594.45,-786.61"/>
<polygon fill="black" stroke="black" points="1594.41,-790.12 1604.66,-787.42 1594.96,-783.14 1594.41,-790.12"/>
<text text-anchor="middle" x="1464.37" y="-784.77" font-family="Times,serif" font-size="14.00">schema:addressLocality</text>
</g>
<!-- LST -->
<g id="node25" class="node">
<title>LST</title>
<polygon fill="none" stroke="black" points="1611.22,-716.97 1611.22,-752.97 1665.22,-752.97 1665.22,-716.97 1611.22,-716.97"/>
<text text-anchor="middle" x="1638.22" y="-731.27" font-family="Times,serif" font-size="14.00">ST</text>
</g>
<!-- B_:b2&#45;&gt;LST -->
<g id="edge24" class="edge">
<title>B_:b2&#45;&gt;LST</title>
<path fill="none" stroke="black" stroke-dasharray="1,5" d="M1310.53,-761.01C1331.4,-758.66 1367.69,-754.71 1398.87,-751.97 1470.37,-745.7 1554.1,-740.14 1600.86,-737.19"/>
<polygon fill="black" stroke="black" points="1601.33,-740.67 1611.09,-736.55 1600.9,-733.69 1601.33,-740.67"/>
<text text-anchor="middle" x="1464.37" y="-755.77" font-family="Times,serif" font-size="14.00">schema:addressRegion</text>
</g>
<!-- L12345 -->
<g id="node26" class="node">
<title>L12345</title>
<polygon fill="none" stroke="black" points="1611.22,-661.97 1611.22,-697.97 1665.22,-697.97 1665.22,-661.97 1611.22,-661.97"/>
<text text-anchor="middle" x="1638.22" y="-676.27" font-family="Times,serif" font-size="14.00">12345</text>
</g>
<!-- B_:b2&#45;&gt;L12345 -->
<g id="edge25" class="edge">
<title>B_:b2&#45;&gt;L12345</title>
<path fill="none" stroke="black" stroke-dasharray="1,5" d="M1310.11,-759.52C1328.19,-755.41 1357.54,-747.6 1380.87,-735.97 1389.71,-731.57 1389.79,-726.83 1398.87,-722.97 1466.5,-694.22 1552.89,-684.68 1600.89,-681.53"/>
<polygon fill="black" stroke="black" points="1601.32,-685.01 1611.1,-680.92 1600.91,-678.02 1601.32,-685.01"/>
<text text-anchor="middle" x="1464.37" y="-726.77" font-family="Times,serif" font-size="14.00">schema:postalCode</text>
</g>
<!-- L234 Main St. -->
<g id="node27" class="node">
<title>L234 Main St.</title>
<polygon fill="none" stroke="black" points="1593.72,-606.97 1593.72,-642.97 1682.72,-642.97 1682.72,-606.97 1593.72,-606.97"/>
<text text-anchor="middle" x="1638.22" y="-621.27" font-family="Times,serif" font-size="14.00">234 Main St.</text>
</g>
<!-- B_:b2&#45;&gt;L234 Main St. -->
<g id="edge26" class="edge">
<title>B_:b2&#45;&gt;L234 Main St.</title>
<path fill="none" stroke="black" stroke-dasharray="1,5" d="M1310.7,-762.4C1330.42,-760.8 1362.3,-755.17 1380.87,-735.97 1402.01,-714.12 1376.53,-690.6 1398.87,-669.97 1448.57,-624.08 1529.75,-618.06 1583.33,-619.95"/>
<polygon fill="black" stroke="black" points="1583.18,-623.45 1593.33,-620.4 1583.5,-616.45 1583.18,-623.45"/>
<text text-anchor="middle" x="1464.37" y="-673.77" font-family="Times,serif" font-size="14.00">schema:streetAddress</text>
</g>
<!-- B_:b0 -->
<g id="node7" class="node">
<title>B_:b0</title>
<ellipse fill="none" stroke="green" cx="18" cy="-269.97" rx="18" ry="18"/>
</g>
<!-- Rschema:ItemList -->
<g id="node8" class="node">
<title>Rschema:ItemList</title>
<ellipse fill="none" stroke="blue" cx="391.5" cy="-460.97" rx="70.39" ry="18"/>
<text text-anchor="middle" x="391.5" y="-457.27" font-family="Times,serif" font-size="14.00">schema:ItemList</text>
</g>
<!-- B_:b0&#45;&gt;Rschema:ItemList -->
<g id="edge6" class="edge">
<title>B_:b0&#45;&gt;Rschema:ItemList</title>
<path fill="none" stroke="black" stroke-dasharray="1,5" d="M21.77,-287.81C25.72,-307.85 34.75,-340.27 54,-360.97 120.12,-432.1 234.3,-453.43 311.09,-459.39"/>
<polygon fill="black" stroke="black" points="310.98,-462.89 321.2,-460.1 311.47,-455.91 310.98,-462.89"/>
<text text-anchor="middle" x="122.5" y="-438.77" font-family="Times,serif" font-size="14.00">rdfs:type</text>
</g>
<!-- B_:b1 -->
<g id="node9" class="node">
<title>B_:b1</title>
<ellipse fill="none" stroke="green" cx="391.5" cy="-406.97" rx="18" ry="18"/>
</g>
<!-- B_:b0&#45;&gt;B_:b1 -->
<g id="edge7" class="edge">
<title>B_:b0&#45;&gt;B_:b1</title>
<path fill="none" stroke="black" stroke-dasharray="1,5" d="M34.07,-278.84C40.15,-282.23 47.3,-286 54,-288.97 166.42,-338.81 306.97,-382.35 364.32,-399.36"/>
<polygon fill="black" stroke="black" points="363.45,-402.75 374.03,-402.22 365.43,-396.04 363.45,-402.75"/>
<text text-anchor="middle" x="122.5" y="-345.77" font-family="Times,serif" font-size="14.00">schema:itemListElement</text>
</g>
<!-- B_:b3 -->
<g id="node10" class="node">
<title>B_:b3</title>
<ellipse fill="none" stroke="green" cx="391.5" cy="-269.97" rx="18" ry="18"/>
</g>
<!-- B_:b0&#45;&gt;B_:b3 -->
<g id="edge8" class="edge">
<title>B_:b0&#45;&gt;B_:b3</title>
<path fill="none" stroke="black" stroke-dasharray="1,5" d="M36.42,-269.97C95.77,-269.97 290.43,-269.97 362.95,-269.97"/>
<polygon fill="black" stroke="black" points="363.12,-273.47 373.12,-269.97 363.12,-266.47 363.12,-273.47"/>
<text text-anchor="middle" x="122.5" y="-273.77" font-family="Times,serif" font-size="14.00">schema:itemListElement</text>
</g>
<!-- L315 -->
<g id="node11" class="node">
<title>L315</title>
<polygon fill="none" stroke="black" points="364.5,-196.97 364.5,-232.97 418.5,-232.97 418.5,-196.97 364.5,-196.97"/>
<text text-anchor="middle" x="391.5" y="-211.27" font-family="Times,serif" font-size="14.00">315</text>
</g>
<!-- B_:b0&#45;&gt;L315 -->
<g id="edge9" class="edge">
<title>B_:b0&#45;&gt;L315</title>
<path fill="none" stroke="black" stroke-dasharray="1,5" d="M33.42,-260.49C39.53,-256.92 46.87,-253.19 54,-250.97 159.52,-218.1 291.67,-214.1 354.33,-214.29"/>
<polygon fill="black" stroke="black" points="354.46,-217.79 364.48,-214.36 354.51,-210.79 354.46,-217.79"/>
<text text-anchor="middle" x="122.5" y="-254.77" font-family="Times,serif" font-size="14.00">schema:numberOfItems</text>
</g>
<!-- Lhttp://multivarki.ru?filters%5Bprice%5D%5BLTE%5D=39600 -->
<g id="node12" class="node">
<title>Lhttp://multivarki.ru?filters%5Bprice%5D%5BLTE%5D=39600</title>
<polygon fill="none" stroke="black" points="209,-141.97 209,-177.97 574,-177.97 574,-141.97 209,-141.97"/>
<text text-anchor="middle" x="391.5" y="-156.27" font-family="Times,serif" font-size="14.00">http://multivarki.ru?filters%5Bprice%5D%5BLTE%5D=39600</text>
</g>
<!-- B_:b0&#45;&gt;Lhttp://multivarki.ru?filters%5Bprice%5D%5BLTE%5D=39600 -->
<g id="edge10" class="edge">
<title>B_:b0&#45;&gt;Lhttp://multivarki.ru?filters%5Bprice%5D%5BLTE%5D=39600</title>
<path fill="none" stroke="black" stroke-dasharray="1,5" d="M23.33,-252.61C28.14,-237.21 37.48,-215.43 54,-203.97 95.98,-174.84 148.13,-160.4 198.74,-154.04"/>
<polygon fill="black" stroke="black" points="199.31,-157.5 208.84,-152.87 198.51,-150.54 199.31,-157.5"/>
<text text-anchor="middle" x="122.5" y="-207.77" font-family="Times,serif" font-size="14.00">schema:url</text>
</g>
<!-- B_:b1&#45;&gt;Rhttp://www.someinstitute.edu -->
<g id="edge18" class="edge">
<title>B_:b1&#45;&gt;Rhttp://www.someinstitute.edu</title>
<path fill="none" stroke="black" stroke-dasharray="1,5" d="M409.34,-403.44C445.53,-396.94 530.94,-387.67 574,-433.97 610.27,-472.97 554.99,-634.67 592,-672.97 653.36,-736.48 761.11,-734.67 834.09,-724.14"/>
<polygon fill="black" stroke="black" points="834.8,-727.57 844.15,-722.6 833.74,-720.65 834.8,-727.57"/>
<text text-anchor="middle" x="667" y="-732.77" font-family="Times,serif" font-size="14.00">schema:parentOrganization</text>
</g>
<!-- Rschema:ResearchProject -->
<g id="node13" class="node">
<title>Rschema:ResearchProject</title>
<ellipse fill="none" stroke="blue" cx="911.44" cy="-653.97" rx="96.68" ry="18"/>
<text text-anchor="middle" x="911.44" y="-650.27" font-family="Times,serif" font-size="14.00">schema:ResearchProject</text>
</g>
<!-- B_:b1&#45;&gt;Rschema:ResearchProject -->
<g id="edge11" class="edge">
<title>B_:b1&#45;&gt;Rschema:ResearchProject</title>
<path fill="none" stroke="black" stroke-dasharray="1,5" d="M409.27,-403.51C445.32,-397.14 530.46,-388.12 574,-433.97 602.75,-464.25 562.59,-591.34 592,-620.97 621.2,-650.38 724.43,-656.73 805.54,-656.9"/>
<polygon fill="black" stroke="black" points="805.82,-660.4 815.82,-656.89 805.81,-653.4 805.82,-660.4"/>
<text text-anchor="middle" x="667" y="-657.77" font-family="Times,serif" font-size="14.00">rdfs:type</text>
</g>
<!-- Rschema:Service -->
<g id="node14" class="node">
<title>Rschema:Service</title>
<ellipse fill="none" stroke="blue" cx="911.44" cy="-599.97" rx="66.09" ry="18"/>
<text text-anchor="middle" x="911.44" y="-596.27" font-family="Times,serif" font-size="14.00">schema:Service</text>
</g>
<!-- B_:b1&#45;&gt;Rschema:Service -->
<g id="edge12" class="edge">
<title>B_:b1&#45;&gt;Rschema:Service</title>
<path fill="none" stroke="black" stroke-dasharray="1,5" d="M409.42,-403.58C445.38,-397.45 529.76,-389.01 574,-433.97 616.77,-477.43 548.08,-527.68 592,-569.97 625.64,-602.37 752.59,-605.14 835.68,-603.24"/>
<polygon fill="black" stroke="black" points="835.93,-606.73 845.84,-602.97 835.75,-599.73 835.93,-606.73"/>
<text text-anchor="middle" x="667" y="-605.77" font-family="Times,serif" font-size="14.00">rdfs:type</text>
</g>
<!-- LBiological Oceanography -->
<g id="node15" class="node">
<title>LBiological Oceanography</title>
<polygon fill="none" stroke="black" points="833.94,-526.97 833.94,-562.97 988.94,-562.97 988.94,-526.97 833.94,-526.97"/>
<text text-anchor="middle" x="911.44" y="-541.27" font-family="Times,serif" font-size="14.00">Biological Oceanography</text>
</g>
<!-- B_:b1&#45;&gt;LBiological Oceanography -->
<g id="edge13" class="edge">
<title>B_:b1&#45;&gt;LBiological Oceanography</title>
<path fill="none" stroke="black" stroke-dasharray="1,5" d="M409.43,-404.05C444.69,-399 526.64,-392.79 574,-433.97 595.33,-452.52 570.75,-476.34 592,-494.97 654.87,-550.09 752.81,-557.9 823.48,-554.85"/>
<polygon fill="black" stroke="black" points="823.89,-558.34 833.7,-554.33 823.54,-551.35 823.89,-558.34"/>
<text text-anchor="middle" x="667" y="-554.77" font-family="Times,serif" font-size="14.00">schema:category</text>
</g>
<!-- LChemical Oceanography -->
<g id="node16" class="node">
<title>LChemical Oceanography</title>
<polygon fill="none" stroke="black" points="835.44,-471.97 835.44,-507.97 987.44,-507.97 987.44,-471.97 835.44,-471.97"/>
<text text-anchor="middle" x="911.44" y="-486.27" font-family="Times,serif" font-size="14.00">Chemical Oceanography</text>
</g>
<!-- B_:b1&#45;&gt;LChemical Oceanography -->
<g id="edge14" class="edge">
<title>B_:b1&#45;&gt;LChemical Oceanography</title>
<path fill="none" stroke="black" stroke-dasharray="1,5" d="M409.74,-407.49C442.57,-408.92 515.93,-414.25 574,-433.97 582.67,-436.91 583.33,-441.05 592,-443.97 668.37,-469.73 759.8,-481.06 825.06,-486.05"/>
<polygon fill="black" stroke="black" points="825.08,-489.56 835.31,-486.8 825.59,-482.58 825.08,-489.56"/>
<text text-anchor="middle" x="667" y="-479.77" font-family="Times,serif" font-size="14.00">schema:category</text>
</g>
<!-- LThe Sample Data Repository Service... -->
<g id="node17" class="node">
<title>LThe Sample Data Repository Service...</title>
<polygon fill="none" stroke="black" points="796.44,-416.97 796.44,-452.97 1026.44,-452.97 1026.44,-416.97 796.44,-416.97"/>
<text text-anchor="middle" x="911.44" y="-431.27" font-family="Times,serif" font-size="14.00">The Sample Data Repository Service...</text>
</g>
<!-- B_:b1&#45;&gt;LThe Sample Data Repository Service... -->
<g id="edge15" class="edge">
<title>B_:b1&#45;&gt;LThe Sample Data Repository Service...</title>
<path fill="none" stroke="black" stroke-dasharray="1,5" d="M409.73,-407.9C467.41,-411.02 657.3,-421.29 785.93,-428.24"/>
<polygon fill="black" stroke="black" points="786.07,-431.75 796.24,-428.8 786.45,-424.76 786.07,-431.75"/>
<text text-anchor="middle" x="667" y="-428.77" font-family="Times,serif" font-size="14.00">schema:description</text>
</g>
<!-- LSample Data Repository Office -->
<g id="node18" class="node">
<title>LSample Data Repository Office</title>
<polygon fill="none" stroke="black" points="817.44,-361.97 817.44,-397.97 1005.44,-397.97 1005.44,-361.97 817.44,-361.97"/>
<text text-anchor="middle" x="911.44" y="-376.27" font-family="Times,serif" font-size="14.00">Sample Data Repository Office</text>
</g>
<!-- B_:b1&#45;&gt;LSample Data Repository Office -->
<g id="edge16" class="edge">
<title>B_:b1&#45;&gt;LSample Data Repository Office</title>
<path fill="none" stroke="black" stroke-dasharray="1,5" d="M409.73,-406.07C470.66,-402.9 679.1,-392.03 807.04,-385.36"/>
<polygon fill="black" stroke="black" points="807.45,-388.85 817.25,-384.83 807.08,-381.85 807.45,-388.85"/>
<text text-anchor="middle" x="667" y="-398.77" font-family="Times,serif" font-size="14.00">schema:legalName</text>
</g>
<!-- LSDRO -->
<g id="node19" class="node">
<title>LSDRO</title>
<polygon fill="none" stroke="black" points="884.44,-306.97 884.44,-342.97 938.44,-342.97 938.44,-306.97 884.44,-306.97"/>
<text text-anchor="middle" x="911.44" y="-321.27" font-family="Times,serif" font-size="14.00">SDRO</text>
</g>
<!-- B_:b1&#45;&gt;LSDRO -->
<g id="edge17" class="edge">
<title>B_:b1&#45;&gt;LSDRO</title>
<path fill="none" stroke="black" stroke-dasharray="1,5" d="M409.27,-403.61C443.53,-396.8 524.03,-381.07 592,-369.97 694.15,-353.29 815.33,-337.17 874.42,-329.55"/>
<polygon fill="black" stroke="black" points="874.9,-333.02 884.37,-328.27 874.01,-326.07 874.9,-333.02"/>
<text text-anchor="middle" x="667" y="-373.77" font-family="Times,serif" font-size="14.00">schema:name</text>
</g>
<!-- Rhttps://www.sample&#45;data&#45;repository.org -->
<g id="node20" class="node">
<title>Rhttps://www.sample&#45;data&#45;repository.org</title>
<ellipse fill="none" stroke="blue" cx="911.44" cy="-269.97" rx="151.37" ry="18"/>
<text text-anchor="middle" x="911.44" y="-266.27" font-family="Times,serif" font-size="14.00">https://www.sample&#45;data&#45;repository.org</text>
</g>
<!-- B_:b1&#45;&gt;Rhttps://www.sample&#45;data&#45;repository.org -->
<g id="edge19" class="edge">
<title>B_:b1&#45;&gt;Rhttps://www.sample&#45;data&#45;repository.org</title>
<path fill="none" stroke="black" stroke-dasharray="1,5" d="M408.16,-399.53C441.34,-384.06 521.44,-348.15 592,-327.97 659.55,-308.65 737.09,-294.36 798.73,-284.81"/>
<polygon fill="black" stroke="black" points="799.52,-288.23 808.88,-283.25 798.46,-281.31 799.52,-288.23"/>
<text text-anchor="middle" x="667" y="-331.77" font-family="Times,serif" font-size="14.00">schema:provider</text>
</g>
<!-- Lhttps://www.sample&#45;data&#45;repository.org -->
<g id="node21" class="node">
<title>Lhttps://www.sample&#45;data&#45;repository.org</title>
<polygon fill="none" stroke="black" points="794.94,-196.97 794.94,-232.97 1027.94,-232.97 1027.94,-196.97 794.94,-196.97"/>
<text text-anchor="middle" x="911.44" y="-211.27" font-family="Times,serif" font-size="14.00">https://www.sample&#45;data&#45;repository.org</text>
</g>
<!-- B_:b1&#45;&gt;Lhttps://www.sample&#45;data&#45;repository.org -->
<g id="edge20" class="edge">
<title>B_:b1&#45;&gt;Lhttps://www.sample&#45;data&#45;repository.org</title>
<path fill="none" stroke="black" stroke-dasharray="1,5" d="M408.24,-399.72C441.26,-384.05 519.19,-344.56 574,-296.97 583.54,-288.69 581.14,-281.43 592,-274.97 657.32,-236.11 685.3,-257.04 760,-242.97 774,-240.34 788.74,-237.58 803.28,-234.86"/>
<polygon fill="black" stroke="black" points="804.13,-238.26 813.32,-232.99 802.84,-231.38 804.13,-238.26"/>
<text text-anchor="middle" x="667" y="-278.77" font-family="Times,serif" font-size="14.00">schema:url</text>
</g>
<!-- Rschema:Product -->
<g id="node28" class="node">
<title>Rschema:Product</title>
<ellipse fill="none" stroke="blue" cx="911.44" cy="-159.97" rx="67.69" ry="18"/>
<text text-anchor="middle" x="911.44" y="-156.27" font-family="Times,serif" font-size="14.00">schema:Product</text>
</g>
<!-- B_:b3&#45;&gt;Rschema:Product -->
<g id="edge27" class="edge">
<title>B_:b3&#45;&gt;Rschema:Product</title>
<path fill="none" stroke="black" stroke-dasharray="1,5" d="M409.49,-272.96C444.85,-278.13 526.99,-284.55 574,-242.97 596.45,-223.11 568.66,-196.79 592,-177.97 665.95,-118.34 783.8,-130.55 853.5,-145.09"/>
<polygon fill="black" stroke="black" points="852.9,-148.55 863.42,-147.25 854.39,-141.71 852.9,-148.55"/>
<text text-anchor="middle" x="667" y="-181.77" font-family="Times,serif" font-size="14.00">rdfs:type</text>
</g>
<!-- LProduct name -->
<g id="node29" class="node">
<title>LProduct name</title>
<polygon fill="none" stroke="black" points="865.44,-86.97 865.44,-122.97 957.44,-122.97 957.44,-86.97 865.44,-86.97"/>
<text text-anchor="middle" x="911.44" y="-101.27" font-family="Times,serif" font-size="14.00">Product name</text>
</g>
<!-- B_:b3&#45;&gt;LProduct name -->
<g id="edge28" class="edge">
<title>B_:b3&#45;&gt;LProduct name</title>
<path fill="none" stroke="black" stroke-dasharray="1,5" d="M409.39,-273.34C445.3,-279.41 529.58,-287.75 574,-242.97 614.46,-202.19 549.24,-153.34 592,-114.97 663.61,-50.72 784.93,-69.17 855.34,-87.59"/>
<polygon fill="black" stroke="black" points="854.78,-91.07 865.34,-90.3 856.6,-84.31 854.78,-91.07"/>
<text text-anchor="middle" x="667" y="-118.77" font-family="Times,serif" font-size="14.00">schema:name</text>
</g>
</g>
</svg>
