<?xml version="1.0" encoding="UTF-8" standalone="no"?>
<!DOCTYPE svg PUBLIC "-//W3C//DTD SVG 1.1//EN"
 "http://www.w3.org/Graphics/SVG/1.1/DTD/svg11.dtd">
<!-- Generated by graphviz version 2.44.0 (0)
 -->
<!-- Pages: 1 -->
<svg width="3049pt" height="933pt"
 viewBox="0.00 0.00 3049.26 933.25" xmlns="http://www.w3.org/2000/svg" xmlns:xlink="http://www.w3.org/1999/xlink">
<g id="graph0" class="graph" transform="scale(1 1) rotate(0) translate(4 929.25)">
<polygon fill="white" stroke="transparent" points="-4,4 -4,-929.25 3045.26,-929.25 3045.26,4 -4,4"/>
<text text-anchor="middle" x="1520.63" y="-22.8" font-family="Times-Roman" font-size="14.00">Model:</text>
<text text-anchor="middle" x="1520.63" y="-7.8" font-family="Times-Roman" font-size="14.00">https://iode.org/</text>
<!-- Rfile:///home/fils/src/Projects/OIH/odis&#45;arch/schema/thematics/projects/graphs/ID_for_this_metadata_record -->
<g id="node1" class="node">
<title>Rfile:///home/fils/src/Projects/OIH/odis&#45;arch/schema/thematics/projects/graphs/ID_for_this_metadata_record</title>
<ellipse fill="none" stroke="blue" cx="484.86" cy="-271.25" rx="484.71" ry="18"/>
<text text-anchor="middle" x="484.86" y="-267.55" font-family="Times-Roman" font-size="14.00">file:///home/fils/src/Projects/OIH/odis&#45;arch/schema/thematics/projects/graphs/ID_for_this_metadata_record</text>
</g>
<!-- Rschema:ItemList -->
<g id="node2" class="node">
<title>Rschema:ItemList</title>
<ellipse fill="none" stroke="blue" cx="1396.71" cy="-462.25" rx="85.29" ry="18"/>
<text text-anchor="middle" x="1396.71" y="-458.55" font-family="Times-Roman" font-size="14.00">schema:ItemList</text>
</g>
<!-- Rfile:///home/fils/src/Projects/OIH/odis&#45;arch/schema/thematics/projects/graphs/ID_for_this_metadata_record&#45;&gt;Rschema:ItemList -->
<g id="edge1" class="edge">
<title>Rfile:///home/fils/src/Projects/OIH/odis&#45;arch/schema/thematics/projects/graphs/ID_for_this_metadata_record&#45;&gt;Rschema:ItemList</title>
<path fill="none" stroke="black" stroke-dasharray="1,5" d="M550.6,-289.15C672.34,-322.25 944.07,-393.43 1176.71,-435.25 1219.99,-443.03 1268.48,-449.26 1308.81,-453.77"/>
<polygon fill="black" stroke="black" points="1308.56,-457.26 1318.88,-454.88 1309.33,-450.3 1308.56,-457.26"/>
<text text-anchor="middle" x="1073.21" y="-435.05" font-family="Times-Roman" font-size="14.00">rdfs:type</text>
</g>
<!-- B_:b0 -->
<g id="node3" class="node">
<title>B_:b0</title>
<ellipse fill="none" stroke="green" cx="1396.71" cy="-408.25" rx="18" ry="18"/>
</g>
<!-- Rfile:///home/fils/src/Projects/OIH/odis&#45;arch/schema/thematics/projects/graphs/ID_for_this_metadata_record&#45;&gt;B_:b0 -->
<g id="edge2" class="edge">
<title>Rfile:///home/fils/src/Projects/OIH/odis&#45;arch/schema/thematics/projects/graphs/ID_for_this_metadata_record&#45;&gt;B_:b0</title>
<path fill="none" stroke="black" stroke-dasharray="1,5" d="M602.02,-288.74C814.81,-320.78 1255.73,-387.17 1368.82,-404.2"/>
<polygon fill="black" stroke="black" points="1368.31,-407.66 1378.72,-405.69 1369.35,-400.74 1368.31,-407.66"/>
<text text-anchor="middle" x="1073.21" y="-375.05" font-family="Times-Roman" font-size="14.00">schema:itemListElement</text>
</g>
<!-- B_:b2 -->
<g id="node4" class="node">
<title>B_:b2</title>
<ellipse fill="none" stroke="green" cx="1396.71" cy="-271.25" rx="18" ry="18"/>
</g>
<!-- Rfile:///home/fils/src/Projects/OIH/odis&#45;arch/schema/thematics/projects/graphs/ID_for_this_metadata_record&#45;&gt;B_:b2 -->
<g id="edge3" class="edge">
<title>Rfile:///home/fils/src/Projects/OIH/odis&#45;arch/schema/thematics/projects/graphs/ID_for_this_metadata_record&#45;&gt;B_:b2</title>
<path fill="none" stroke="black" stroke-dasharray="1,5" d="M969.76,-271.25C1140,-271.25 1304.81,-271.25 1368.31,-271.25"/>
<polygon fill="black" stroke="black" points="1368.63,-274.75 1378.63,-271.25 1368.63,-267.75 1368.63,-274.75"/>
<text text-anchor="middle" x="1073.21" y="-275.05" font-family="Times-Roman" font-size="14.00">schema:itemListElement</text>
</g>
<!-- L315 -->
<g id="node5" class="node">
<title>L315</title>
<polygon fill="none" stroke="black" points="1369.71,-198.25 1369.71,-234.25 1423.71,-234.25 1423.71,-198.25 1369.71,-198.25"/>
<text text-anchor="middle" x="1396.71" y="-212.55" font-family="Times-Roman" font-size="14.00">315</text>
</g>
<!-- Rfile:///home/fils/src/Projects/OIH/odis&#45;arch/schema/thematics/projects/graphs/ID_for_this_metadata_record&#45;&gt;L315 -->
<g id="edge4" class="edge">
<title>Rfile:///home/fils/src/Projects/OIH/odis&#45;arch/schema/thematics/projects/graphs/ID_for_this_metadata_record&#45;&gt;L315</title>
<path fill="none" stroke="black" stroke-dasharray="1,5" d="M739.61,-255.91C959.24,-242.63 1257.21,-224.62 1359.51,-218.44"/>
<polygon fill="black" stroke="black" points="1359.85,-221.92 1369.62,-217.83 1359.43,-214.94 1359.85,-221.92"/>
<text text-anchor="middle" x="1073.21" y="-244.05" font-family="Times-Roman" font-size="14.00">schema:numberOfItems</text>
</g>
<!-- Lhttp://multivarki.ru?filters%5Bprice%5D%5BLTE%5D=39600 -->
<g id="node6" class="node">
<title>Lhttp://multivarki.ru?filters%5Bprice%5D%5BLTE%5D=39600</title>
<polygon fill="none" stroke="black" points="1176.71,-143.25 1176.71,-179.25 1616.71,-179.25 1616.71,-143.25 1176.71,-143.25"/>
<text text-anchor="middle" x="1396.71" y="-157.55" font-family="Times-Roman" font-size="14.00">http://multivarki.ru?filters%5Bprice%5D%5BLTE%5D=39600</text>
</g>
<!-- Rfile:///home/fils/src/Projects/OIH/odis&#45;arch/schema/thematics/projects/graphs/ID_for_this_metadata_record&#45;&gt;Lhttp://multivarki.ru?filters%5Bprice%5D%5BLTE%5D=39600 -->
<g id="edge5" class="edge">
<title>Rfile:///home/fils/src/Projects/OIH/odis&#45;arch/schema/thematics/projects/graphs/ID_for_this_metadata_record&#45;&gt;Lhttp://multivarki.ru?filters%5Bprice%5D%5BLTE%5D=39600</title>
<path fill="none" stroke="black" stroke-dasharray="1,5" d="M628.27,-254.03C793.35,-234.08 1064.66,-201.27 1236.55,-180.49"/>
<polygon fill="black" stroke="black" points="1237.2,-183.94 1246.7,-179.27 1236.35,-176.99 1237.2,-183.94"/>
<text text-anchor="middle" x="1073.21" y="-213.05" font-family="Times-Roman" font-size="14.00">schema:url</text>
</g>
<!-- Rhttp://www.someinstitute.edu -->
<g id="node7" class="node">
<title>Rhttp://www.someinstitute.edu</title>
<ellipse fill="none" stroke="blue" cx="2034.2" cy="-709.25" rx="143.77" ry="18"/>
<text text-anchor="middle" x="2034.2" y="-705.55" font-family="Times-Roman" font-size="14.00">http://www.someinstitute.edu</text>
</g>
<!-- B_:b0&#45;&gt;Rhttp://www.someinstitute.edu -->
<g id="edge18" class="edge">
<title>B_:b0&#45;&gt;Rhttp://www.someinstitute.edu</title>
<path fill="none" stroke="black" stroke-dasharray="1,5" d="M1414.48,-404.13C1455.75,-395.11 1562.82,-378.65 1616.71,-435.25 1654.21,-474.63 1596.3,-640.78 1634.71,-679.25 1720.59,-765.25 1875.53,-747.6 1964.81,-727.88"/>
<polygon fill="black" stroke="black" points="1965.59,-731.29 1974.56,-725.66 1964.03,-724.47 1965.59,-731.29"/>
<text text-anchor="middle" x="1731.21" y="-747.05" font-family="Times-Roman" font-size="14.00">schema:parentOrganization</text>
</g>
<!-- Rschema:ResearchProject -->
<g id="node13" class="node">
<title>Rschema:ResearchProject</title>
<ellipse fill="none" stroke="blue" cx="2034.2" cy="-655.25" rx="120.48" ry="18"/>
<text text-anchor="middle" x="2034.2" y="-651.55" font-family="Times-Roman" font-size="14.00">schema:ResearchProject</text>
</g>
<!-- B_:b0&#45;&gt;Rschema:ResearchProject -->
<g id="edge11" class="edge">
<title>B_:b0&#45;&gt;Rschema:ResearchProject</title>
<path fill="none" stroke="black" stroke-dasharray="1,5" d="M1414.4,-404.21C1455.5,-395.36 1562.2,-379.26 1616.71,-435.25 1645.84,-465.16 1605,-592.93 1634.71,-622.25 1672.61,-659.65 1808.16,-664.07 1910.73,-661.62"/>
<polygon fill="black" stroke="black" points="1910.96,-665.11 1920.86,-661.35 1910.77,-658.12 1910.96,-665.11"/>
<text text-anchor="middle" x="1731.21" y="-665.05" font-family="Times-Roman" font-size="14.00">rdfs:type</text>
</g>
<!-- Rschema:Service -->
<g id="node14" class="node">
<title>Rschema:Service</title>
<ellipse fill="none" stroke="blue" cx="2034.2" cy="-601.25" rx="81.79" ry="18"/>
<text text-anchor="middle" x="2034.2" y="-597.55" font-family="Times-Roman" font-size="14.00">schema:Service</text>
</g>
<!-- B_:b0&#45;&gt;Rschema:Service -->
<g id="edge12" class="edge">
<title>B_:b0&#45;&gt;Rschema:Service</title>
<path fill="none" stroke="black" stroke-dasharray="1,5" d="M1414.55,-404.3C1455.51,-395.78 1561.09,-380.63 1616.71,-435.25 1657.39,-475.19 1593.54,-522.82 1634.71,-562.25 1677.47,-603.2 1839.73,-606.92 1943.55,-604.83"/>
<polygon fill="black" stroke="black" points="1943.8,-608.32 1953.72,-604.6 1943.64,-601.32 1943.8,-608.32"/>
<text text-anchor="middle" x="1731.21" y="-607.05" font-family="Times-Roman" font-size="14.00">rdfs:type</text>
</g>
<!-- LBiological Oceanography -->
<g id="node15" class="node">
<title>LBiological Oceanography</title>
<polygon fill="none" stroke="black" points="1939.7,-528.25 1939.7,-564.25 2128.7,-564.25 2128.7,-528.25 1939.7,-528.25"/>
<text text-anchor="middle" x="2034.2" y="-542.55" font-family="Times-Roman" font-size="14.00">Biological Oceanography</text>
</g>
<!-- B_:b0&#45;&gt;LBiological Oceanography -->
<g id="edge13" class="edge">
<title>B_:b0&#45;&gt;LBiological Oceanography</title>
<path fill="none" stroke="black" stroke-dasharray="1,5" d="M1414.43,-404.7C1454.66,-397.2 1557.92,-384.35 1616.71,-435.25 1639.7,-455.15 1611.63,-481.47 1634.71,-501.25 1677.63,-538.02 1826.36,-546.25 1929.45,-547.35"/>
<polygon fill="black" stroke="black" points="1929.56,-550.85 1939.59,-547.44 1929.62,-543.85 1929.56,-550.85"/>
<text text-anchor="middle" x="1731.21" y="-547.05" font-family="Times-Roman" font-size="14.00">schema:category</text>
</g>
<!-- LChemical Oceanography -->
<g id="node16" class="node">
<title>LChemical Oceanography</title>
<polygon fill="none" stroke="black" points="1940.7,-473.25 1940.7,-509.25 2127.7,-509.25 2127.7,-473.25 1940.7,-473.25"/>
<text text-anchor="middle" x="2034.2" y="-487.55" font-family="Times-Roman" font-size="14.00">Chemical Oceanography</text>
</g>
<!-- B_:b0&#45;&gt;LChemical Oceanography -->
<g id="edge14" class="edge">
<title>B_:b0&#45;&gt;LChemical Oceanography</title>
<path fill="none" stroke="black" stroke-dasharray="1,5" d="M1414.95,-408.16C1452.56,-408.44 1544.41,-411.7 1616.71,-435.25 1625.42,-438.08 1626,-442.45 1634.71,-445.25 1731.93,-476.5 1848.52,-487.04 1930.39,-490.35"/>
<polygon fill="black" stroke="black" points="1930.32,-493.85 1940.44,-490.72 1930.58,-486.85 1930.32,-493.85"/>
<text text-anchor="middle" x="1731.21" y="-486.05" font-family="Times-Roman" font-size="14.00">schema:category</text>
</g>
<!-- LThe Sample Data Repository Service... -->
<g id="node17" class="node">
<title>LThe Sample Data Repository Service...</title>
<polygon fill="none" stroke="black" points="1893.2,-418.25 1893.2,-454.25 2175.2,-454.25 2175.2,-418.25 1893.2,-418.25"/>
<text text-anchor="middle" x="2034.2" y="-432.55" font-family="Times-Roman" font-size="14.00">The Sample Data Repository Service...</text>
</g>
<!-- B_:b0&#45;&gt;LThe Sample Data Repository Service... -->
<g id="edge15" class="edge">
<title>B_:b0&#45;&gt;LThe Sample Data Repository Service...</title>
<path fill="none" stroke="black" stroke-dasharray="1,5" d="M1414.71,-409C1480.4,-411.89 1721.98,-422.54 1883.05,-429.63"/>
<polygon fill="black" stroke="black" points="1882.92,-433.13 1893.06,-430.08 1883.23,-426.14 1882.92,-433.13"/>
<text text-anchor="middle" x="1731.21" y="-430.05" font-family="Times-Roman" font-size="14.00">schema:description</text>
</g>
<!-- LSample Data Repository Office -->
<g id="node18" class="node">
<title>LSample Data Repository Office</title>
<polygon fill="none" stroke="black" points="1920.2,-363.25 1920.2,-399.25 2148.2,-399.25 2148.2,-363.25 1920.2,-363.25"/>
<text text-anchor="middle" x="2034.2" y="-377.55" font-family="Times-Roman" font-size="14.00">Sample Data Repository Office</text>
</g>
<!-- B_:b0&#45;&gt;LSample Data Repository Office -->
<g id="edge16" class="edge">
<title>B_:b0&#45;&gt;LSample Data Repository Office</title>
<path fill="none" stroke="black" stroke-dasharray="1,5" d="M1414.71,-407.53C1484.15,-404.58 1750.13,-393.28 1909.8,-386.49"/>
<polygon fill="black" stroke="black" points="1910.32,-389.97 1920.16,-386.05 1910.02,-382.98 1910.32,-389.97"/>
<text text-anchor="middle" x="1731.21" y="-401.05" font-family="Times-Roman" font-size="14.00">schema:legalName</text>
</g>
<!-- LSDRO -->
<g id="node19" class="node">
<title>LSDRO</title>
<polygon fill="none" stroke="black" points="2005.7,-308.25 2005.7,-344.25 2062.7,-344.25 2062.7,-308.25 2005.7,-308.25"/>
<text text-anchor="middle" x="2034.2" y="-322.55" font-family="Times-Roman" font-size="14.00">SDRO</text>
</g>
<!-- B_:b0&#45;&gt;LSDRO -->
<g id="edge17" class="edge">
<title>B_:b0&#45;&gt;LSDRO</title>
<path fill="none" stroke="black" stroke-dasharray="1,5" d="M1414.63,-405.25C1453.44,-398.42 1551.92,-381.45 1634.71,-370.25 1766.91,-352.36 1924.52,-336.6 1995.39,-329.8"/>
<polygon fill="black" stroke="black" points="1995.98,-333.26 2005.6,-328.83 1995.32,-326.29 1995.98,-333.26"/>
<text text-anchor="middle" x="1731.21" y="-374.05" font-family="Times-Roman" font-size="14.00">schema:name</text>
</g>
<!-- Rhttps://www.sample&#45;data&#45;repository.org -->
<g id="node20" class="node">
<title>Rhttps://www.sample&#45;data&#45;repository.org</title>
<ellipse fill="none" stroke="blue" cx="2034.2" cy="-271.25" rx="188.47" ry="18"/>
<text text-anchor="middle" x="2034.2" y="-267.55" font-family="Times-Roman" font-size="14.00">https://www.sample&#45;data&#45;repository.org</text>
</g>
<!-- B_:b0&#45;&gt;Rhttps://www.sample&#45;data&#45;repository.org -->
<g id="edge19" class="edge">
<title>B_:b0&#45;&gt;Rhttps://www.sample&#45;data&#45;repository.org</title>
<path fill="none" stroke="black" stroke-dasharray="1,5" d="M1413.79,-401.67C1451.64,-386.45 1549.59,-348.52 1634.71,-328.25 1718.64,-308.26 1814.3,-294.29 1890.85,-285.19"/>
<polygon fill="black" stroke="black" points="1891.52,-288.64 1901.04,-283.99 1890.7,-281.68 1891.52,-288.64"/>
<text text-anchor="middle" x="1731.21" y="-332.05" font-family="Times-Roman" font-size="14.00">schema:provider</text>
</g>
<!-- Lhttps://www.sample&#45;data&#45;repository.org -->
<g id="node21" class="node">
<title>Lhttps://www.sample&#45;data&#45;repository.org</title>
<polygon fill="none" stroke="black" points="1889.2,-198.25 1889.2,-234.25 2179.2,-234.25 2179.2,-198.25 1889.2,-198.25"/>
<text text-anchor="middle" x="2034.2" y="-212.55" font-family="Times-Roman" font-size="14.00">https://www.sample&#45;data&#45;repository.org</text>
</g>
<!-- B_:b0&#45;&gt;Lhttps://www.sample&#45;data&#45;repository.org -->
<g id="edge20" class="edge">
<title>B_:b0&#45;&gt;Lhttps://www.sample&#45;data&#45;repository.org</title>
<path fill="none" stroke="black" stroke-dasharray="1,5" d="M1413.96,-402.9C1452.31,-389.71 1550.22,-352.7 1616.71,-298.25 1626.76,-290.03 1623.49,-281.78 1634.71,-275.25 1707.9,-232.68 1800.98,-217.18 1878.78,-212.66"/>
<polygon fill="black" stroke="black" points="1879.35,-216.14 1889.16,-212.12 1878.99,-209.15 1879.35,-216.14"/>
<text text-anchor="middle" x="1731.21" y="-279.05" font-family="Times-Roman" font-size="14.00">schema:url</text>
</g>
<!-- Rschema:Product -->
<g id="node28" class="node">
<title>Rschema:Product</title>
<ellipse fill="none" stroke="blue" cx="2034.2" cy="-161.25" rx="83.39" ry="18"/>
<text text-anchor="middle" x="2034.2" y="-157.55" font-family="Times-Roman" font-size="14.00">schema:Product</text>
</g>
<!-- B_:b2&#45;&gt;Rschema:Product -->
<g id="edge27" class="edge">
<title>B_:b2&#45;&gt;Rschema:Product</title>
<path fill="none" stroke="black" stroke-dasharray="1,5" d="M1414.41,-274.79C1454.62,-282.26 1557.82,-295.04 1616.71,-244.25 1639.41,-224.67 1611.27,-197.93 1634.71,-179.25 1681.16,-142.23 1844.28,-146.74 1946.86,-153.75"/>
<polygon fill="black" stroke="black" points="1946.68,-157.24 1956.9,-154.45 1947.17,-150.26 1946.68,-157.24"/>
<text text-anchor="middle" x="1731.21" y="-183.05" font-family="Times-Roman" font-size="14.00">rdfs:type</text>
</g>
<!-- LProduct name -->
<g id="node29" class="node">
<title>LProduct name</title>
<polygon fill="none" stroke="black" points="1977.7,-88.25 1977.7,-124.25 2090.7,-124.25 2090.7,-88.25 1977.7,-88.25"/>
<text text-anchor="middle" x="2034.2" y="-102.55" font-family="Times-Roman" font-size="14.00">Product name</text>
</g>
<!-- B_:b2&#45;&gt;LProduct name -->
<g id="edge28" class="edge">
<title>B_:b2&#45;&gt;LProduct name</title>
<path fill="none" stroke="black" stroke-dasharray="1,5" d="M1414.5,-275.15C1455.34,-283.53 1560.66,-298.43 1616.71,-244.25 1653.59,-208.6 1596.74,-164.73 1634.71,-130.25 1725.13,-48.16 1879.87,-67.71 1967.55,-87.87"/>
<polygon fill="black" stroke="black" points="1966.84,-91.3 1977.38,-90.19 1968.45,-84.48 1966.84,-91.3"/>
<text text-anchor="middle" x="1731.21" y="-134.05" font-family="Times-Roman" font-size="14.00">schema:name</text>
</g>
<!-- Rschema:Organization -->
<g id="node8" class="node">
<title>Rschema:Organization</title>
<ellipse fill="none" stroke="blue" cx="2502.18" cy="-818.25" rx="106.68" ry="18"/>
<text text-anchor="middle" x="2502.18" y="-814.55" font-family="Times-Roman" font-size="14.00">schema:Organization</text>
</g>
<!-- Rhttp://www.someinstitute.edu&#45;&gt;Rschema:Organization -->
<g id="edge6" class="edge">
<title>Rhttp://www.someinstitute.edu&#45;&gt;Rschema:Organization</title>
<path fill="none" stroke="black" stroke-dasharray="1,5" d="M2090.73,-725.85C2131.91,-737.86 2189.54,-754.07 2240.68,-766.25 2299.77,-780.32 2367.02,-793.68 2418.39,-803.33"/>
<polygon fill="black" stroke="black" points="2417.97,-806.82 2428.44,-805.21 2419.26,-799.94 2417.97,-806.82"/>
<text text-anchor="middle" x="2307.18" y="-797.05" font-family="Times-Roman" font-size="14.00">rdfs:type</text>
</g>
<!-- B_:b1 -->
<g id="node9" class="node">
<title>B_:b1</title>
<ellipse fill="none" stroke="green" cx="2502.18" cy="-764.25" rx="18" ry="18"/>
</g>
<!-- Rhttp://www.someinstitute.edu&#45;&gt;B_:b1 -->
<g id="edge7" class="edge">
<title>Rhttp://www.someinstitute.edu&#45;&gt;B_:b1</title>
<path fill="none" stroke="black" stroke-dasharray="1,5" d="M2139.48,-721.56C2247.78,-734.34 2410.13,-753.5 2473.99,-761.04"/>
<polygon fill="black" stroke="black" points="2473.71,-764.53 2484.06,-762.23 2474.54,-757.58 2473.71,-764.53"/>
<text text-anchor="middle" x="2307.18" y="-751.05" font-family="Times-Roman" font-size="14.00">schema:address</text>
</g>
<!-- LSome Institute -->
<g id="node10" class="node">
<title>LSome Institute</title>
<polygon fill="none" stroke="black" points="2443.18,-691.25 2443.18,-727.25 2561.18,-727.25 2561.18,-691.25 2443.18,-691.25"/>
<text text-anchor="middle" x="2502.18" y="-705.55" font-family="Times-Roman" font-size="14.00">Some Institute</text>
</g>
<!-- Rhttp://www.someinstitute.edu&#45;&gt;LSome Institute -->
<g id="edge8" class="edge">
<title>Rhttp://www.someinstitute.edu&#45;&gt;LSome Institute</title>
<path fill="none" stroke="black" stroke-dasharray="1,5" d="M2177.86,-709.25C2262.44,-709.25 2365.82,-709.25 2432.54,-709.25"/>
<polygon fill="black" stroke="black" points="2432.93,-712.75 2442.93,-709.25 2432.93,-705.75 2432.93,-712.75"/>
<text text-anchor="middle" x="2307.18" y="-713.05" font-family="Times-Roman" font-size="14.00">schema:legalName</text>
</g>
<!-- LSI -->
<g id="node11" class="node">
<title>LSI</title>
<polygon fill="none" stroke="black" points="2475.18,-636.25 2475.18,-672.25 2529.18,-672.25 2529.18,-636.25 2475.18,-636.25"/>
<text text-anchor="middle" x="2502.18" y="-650.55" font-family="Times-Roman" font-size="14.00">SI</text>
</g>
<!-- Rhttp://www.someinstitute.edu&#45;&gt;LSI -->
<g id="edge9" class="edge">
<title>Rhttp://www.someinstitute.edu&#45;&gt;LSI</title>
<path fill="none" stroke="black" stroke-dasharray="1,5" d="M2139.48,-696.94C2243.09,-684.71 2396.17,-666.64 2465.16,-658.5"/>
<polygon fill="black" stroke="black" points="2465.58,-661.98 2475.1,-657.33 2464.76,-655.03 2465.58,-661.98"/>
<text text-anchor="middle" x="2307.18" y="-687.05" font-family="Times-Roman" font-size="14.00">schema:name</text>
</g>
<!-- Lhttp://www.someinstitute.edu -->
<g id="node12" class="node">
<title>Lhttp://www.someinstitute.edu</title>
<polygon fill="none" stroke="black" points="2391.68,-581.25 2391.68,-617.25 2612.68,-617.25 2612.68,-581.25 2391.68,-581.25"/>
<text text-anchor="middle" x="2502.18" y="-595.55" font-family="Times-Roman" font-size="14.00">http://www.someinstitute.edu</text>
</g>
<!-- Rhttp://www.someinstitute.edu&#45;&gt;Lhttp://www.someinstitute.edu -->
<g id="edge10" class="edge">
<title>Rhttp://www.someinstitute.edu&#45;&gt;Lhttp://www.someinstitute.edu</title>
<path fill="none" stroke="black" stroke-dasharray="1,5" d="M2172.72,-704.17C2190.49,-699.39 2207.69,-692.37 2222.68,-682.25 2235.88,-673.33 2227.72,-660.52 2240.68,-651.25 2281.22,-622.26 2333.95,-608.48 2381.36,-602.23"/>
<polygon fill="black" stroke="black" points="2381.88,-605.69 2391.38,-601.01 2381.04,-598.74 2381.88,-605.69"/>
<text text-anchor="middle" x="2307.18" y="-655.05" font-family="Times-Roman" font-size="14.00">schema:url</text>
</g>
<!-- Rschema:PostalAddress -->
<g id="node22" class="node">
<title>Rschema:PostalAddress</title>
<ellipse fill="none" stroke="blue" cx="2929.47" cy="-901.25" rx="111.58" ry="18"/>
<text text-anchor="middle" x="2929.47" y="-897.55" font-family="Times-Roman" font-size="14.00">schema:PostalAddress</text>
</g>
<!-- B_:b1&#45;&gt;Rschema:PostalAddress -->
<g id="edge21" class="edge">
<title>B_:b1&#45;&gt;Rschema:PostalAddress</title>
<path fill="none" stroke="black" stroke-dasharray="1,5" d="M2520.51,-763.49C2544.48,-763.42 2587.64,-767.01 2612.68,-791.25 2633.91,-811.8 2608.56,-835.66 2630.68,-855.25 2683.37,-901.92 2762.94,-912.24 2826.57,-911.53"/>
<polygon fill="black" stroke="black" points="2826.72,-915.03 2836.64,-911.32 2826.57,-908.03 2826.72,-915.03"/>
<text text-anchor="middle" x="2715.18" y="-914.05" font-family="Times-Roman" font-size="14.00">rdfs:type</text>
</g>
<!-- LUSA -->
<g id="node23" class="node">
<title>LUSA</title>
<polygon fill="none" stroke="black" points="2902.47,-828.25 2902.47,-864.25 2956.47,-864.25 2956.47,-828.25 2902.47,-828.25"/>
<text text-anchor="middle" x="2929.47" y="-842.55" font-family="Times-Roman" font-size="14.00">USA</text>
</g>
<!-- B_:b1&#45;&gt;LUSA -->
<g id="edge22" class="edge">
<title>B_:b1&#45;&gt;LUSA</title>
<path fill="none" stroke="black" stroke-dasharray="1,5" d="M2520.31,-767.02C2542.23,-770.89 2581.15,-778.86 2612.68,-791.25 2621.2,-794.6 2622.02,-798.3 2630.68,-801.25 2721.34,-832.16 2834.74,-841.87 2891.91,-844.9"/>
<polygon fill="black" stroke="black" points="2892.08,-848.41 2902.24,-845.41 2892.43,-841.42 2892.08,-848.41"/>
<text text-anchor="middle" x="2715.18" y="-840.05" font-family="Times-Roman" font-size="14.00">schema:addressCountry</text>
</g>
<!-- LAnytown -->
<g id="node24" class="node">
<title>LAnytown</title>
<polygon fill="none" stroke="black" points="2890.97,-773.25 2890.97,-809.25 2967.97,-809.25 2967.97,-773.25 2890.97,-773.25"/>
<text text-anchor="middle" x="2929.47" y="-787.55" font-family="Times-Roman" font-size="14.00">Anytown</text>
</g>
<!-- B_:b1&#45;&gt;LAnytown -->
<g id="edge23" class="edge">
<title>B_:b1&#45;&gt;LAnytown</title>
<path fill="none" stroke="black" stroke-dasharray="1,5" d="M2520.38,-765.34C2581.04,-769.19 2786.43,-782.23 2880.59,-788.21"/>
<polygon fill="black" stroke="black" points="2880.5,-791.71 2890.7,-788.85 2880.94,-784.73 2880.5,-791.71"/>
<text text-anchor="middle" x="2715.18" y="-786.05" font-family="Times-Roman" font-size="14.00">schema:addressLocality</text>
</g>
<!-- LST -->
<g id="node25" class="node">
<title>LST</title>
<polygon fill="none" stroke="black" points="2902.47,-718.25 2902.47,-754.25 2956.47,-754.25 2956.47,-718.25 2902.47,-718.25"/>
<text text-anchor="middle" x="2929.47" y="-732.55" font-family="Times-Roman" font-size="14.00">ST</text>
</g>
<!-- B_:b1&#45;&gt;LST -->
<g id="edge24" class="edge">
<title>B_:b1&#45;&gt;LST</title>
<path fill="none" stroke="black" stroke-dasharray="1,5" d="M2520.49,-762.6C2545,-760.29 2591.23,-756.08 2630.68,-753.25 2724.82,-746.5 2835.85,-740.75 2892.01,-737.99"/>
<polygon fill="black" stroke="black" points="2892.35,-741.48 2902.16,-737.49 2892,-734.49 2892.35,-741.48"/>
<text text-anchor="middle" x="2715.18" y="-757.05" font-family="Times-Roman" font-size="14.00">schema:addressRegion</text>
</g>
<!-- L12345 -->
<g id="node26" class="node">
<title>L12345</title>
<polygon fill="none" stroke="black" points="2898.47,-663.25 2898.47,-699.25 2960.47,-699.25 2960.47,-663.25 2898.47,-663.25"/>
<text text-anchor="middle" x="2929.47" y="-677.55" font-family="Times-Roman" font-size="14.00">12345</text>
</g>
<!-- B_:b1&#45;&gt;L12345 -->
<g id="edge25" class="edge">
<title>B_:b1&#45;&gt;L12345</title>
<path fill="none" stroke="black" stroke-dasharray="1,5" d="M2520.25,-762.29C2542.45,-759.24 2582.02,-752.11 2612.68,-737.25 2621.8,-732.83 2621.35,-727.2 2630.68,-723.25 2717.31,-686.57 2829.51,-680.71 2888.38,-680.47"/>
<polygon fill="black" stroke="black" points="2888.38,-683.97 2898.39,-680.48 2888.39,-676.97 2888.38,-683.97"/>
<text text-anchor="middle" x="2715.18" y="-727.05" font-family="Times-Roman" font-size="14.00">schema:postalCode</text>
</g>
<!-- L234 Main St. -->
<g id="node27" class="node">
<title>L234 Main St.</title>
<polygon fill="none" stroke="black" points="2877.47,-608.25 2877.47,-644.25 2981.47,-644.25 2981.47,-608.25 2877.47,-608.25"/>
<text text-anchor="middle" x="2929.47" y="-622.55" font-family="Times-Roman" font-size="14.00">234 Main St.</text>
</g>
<!-- B_:b1&#45;&gt;L234 Main St. -->
<g id="edge26" class="edge">
<title>B_:b1&#45;&gt;L234 Main St.</title>
<path fill="none" stroke="black" stroke-dasharray="1,5" d="M2520.2,-765.11C2544.21,-765.33 2587.86,-761.99 2612.68,-737.25 2636.04,-713.96 2606.06,-687.2 2630.68,-665.25 2695.1,-607.83 2800.69,-608.35 2867.29,-615.9"/>
<polygon fill="black" stroke="black" points="2866.88,-619.37 2877.23,-617.11 2867.73,-612.43 2866.88,-619.37"/>
<text text-anchor="middle" x="2715.18" y="-669.05" font-family="Times-Roman" font-size="14.00">schema:streetAddress</text>
</g>
</g>
</svg>
