<?xml version="1.0" encoding="UTF-8" standalone="no"?>
<!DOCTYPE svg PUBLIC "-//W3C//DTD SVG 1.1//EN"
 "http://www.w3.org/Graphics/SVG/1.1/DTD/svg11.dtd">
<!-- Generated by graphviz version 5.0.0 (0)
 -->
<!-- Pages: 1 -->
<svg width="1080pt" height="411pt"
 viewBox="0.00 0.00 1080.43 411.00" xmlns="http://www.w3.org/2000/svg" xmlns:xlink="http://www.w3.org/1999/xlink">
<g id="graph0" class="graph" transform="scale(1 1) rotate(0) translate(4 407)">
<polygon fill="white" stroke="transparent" points="-4,4 -4,-407 1076.43,-407 1076.43,4 -4,4"/>
<!-- PropertyValue -->
<g id="node1" class="node">
<title>PropertyValue</title>
<ellipse fill="none" stroke="#558855" cx="937.89" cy="-358" rx="77.19" ry="18"/>
<text text-anchor="middle" x="937.89" y="-354.3" font-family="Times,serif" font-size="14.00">PropertyValue</text>
</g>
<!-- example.org/id/resproj/X -->
<g id="node2" class="node">
<title>example.org/id/resproj/X</title>
<ellipse fill="none" stroke="black" cx="125.44" cy="-207" rx="125.38" ry="18"/>
<text text-anchor="middle" x="125.44" y="-203.3" font-family="Times,serif" font-size="14.00">example.org/id/resproj/X</text>
</g>
<!-- example.org/id/resproj/X&#45;&gt;PropertyValue -->
<g id="edge1" class="edge">
<title>example.org/id/resproj/X&#45;&gt;PropertyValue</title>
<path fill="none" stroke="black" d="M142.92,-225.11C179.07,-263.07 269.94,-349.08 367.88,-369 542.99,-404.61 754.67,-384.41 863.85,-369.49"/>
<polygon fill="black" stroke="black" points="864.35,-372.96 873.77,-368.11 863.38,-366.02 864.35,-372.96"/>
<text text-anchor="middle" x="527.11" y="-391.8" font-family="Times,serif" font-size="14.00">type</text>
</g>
<!-- ResearchProject -->
<g id="node3" class="node">
<title>ResearchProject</title>
<ellipse fill="none" stroke="#558855" cx="527.11" cy="-342" rx="87.18" ry="18"/>
<text text-anchor="middle" x="527.11" y="-338.3" font-family="Times,serif" font-size="14.00">ResearchProject</text>
</g>
<!-- example.org/id/resproj/X&#45;&gt;ResearchProject -->
<g id="edge2" class="edge">
<title>example.org/id/resproj/X&#45;&gt;ResearchProject</title>
<path fill="none" stroke="black" d="M157.34,-224.44C202.21,-248.91 288.71,-292.91 367.88,-315 391.82,-321.68 418.3,-326.99 442.63,-331.06"/>
<polygon fill="black" stroke="black" points="442.12,-334.52 452.55,-332.68 443.24,-327.61 442.12,-334.52"/>
<text text-anchor="middle" x="309.38" y="-311.8" font-family="Times,serif" font-size="14.00">type</text>
</g>
<!-- &quot;Repo description ......&quot; -->
<g id="node4" class="node">
<title>&quot;Repo description ......&quot;</title>
<ellipse fill="none" stroke="black" stroke-width="0" cx="527.11" cy="-288" rx="118.08" ry="18"/>
<text text-anchor="middle" x="527.11" y="-284.3" font-family="Times,serif" font-size="14.00">&quot;Repo description ......&quot;</text>
</g>
<!-- example.org/id/resproj/X&#45;&gt;&quot;Repo description ......&quot; -->
<g id="edge3" class="edge">
<title>example.org/id/resproj/X&#45;&gt;&quot;Repo description ......&quot;</title>
<path fill="none" stroke="black" d="M191.62,-222.37C215.85,-228.01 243.6,-234.39 268.88,-240 312.79,-249.74 323.7,-252.55 367.88,-261 389.72,-265.18 413.31,-269.37 435.45,-273.17"/>
<polygon fill="black" stroke="black" points="435.06,-276.65 445.5,-274.89 436.23,-269.75 435.06,-276.65"/>
<text text-anchor="middle" x="309.38" y="-260.8" font-family="Times,serif" font-size="14.00">description</text>
</g>
<!-- grid.ac/institutes/grid.475727.4 -->
<g id="node5" class="node">
<title>grid.ac/institutes/grid.475727.4</title>
<ellipse fill="none" stroke="#558855" cx="527.11" cy="-234" rx="159.47" ry="18"/>
<text text-anchor="middle" x="527.11" y="-230.3" font-family="Times,serif" font-size="14.00">grid.ac/institutes/grid.475727.4</text>
</g>
<!-- example.org/id/resproj/X&#45;&gt;grid.ac/institutes/grid.475727.4 -->
<g id="edge4" class="edge">
<title>example.org/id/resproj/X&#45;&gt;grid.ac/institutes/grid.475727.4</title>
<path fill="none" stroke="black" d="M239.37,-214.63C283.02,-217.58 333.55,-220.99 379.92,-224.12"/>
<polygon fill="black" stroke="black" points="379.84,-227.63 390.06,-224.81 380.31,-220.64 379.84,-227.63"/>
<text text-anchor="middle" x="309.38" y="-224.8" font-family="Times,serif" font-size="14.00">identifier</text>
</g>
<!-- &quot;Example Data Reposit...&quot; -->
<g id="node6" class="node">
<title>&quot;Example Data Reposit...&quot;</title>
<ellipse fill="none" stroke="black" stroke-width="0" cx="527.11" cy="-180" rx="131.88" ry="18"/>
<text text-anchor="middle" x="527.11" y="-176.3" font-family="Times,serif" font-size="14.00">&quot;Example Data Reposit...&quot;</text>
</g>
<!-- example.org/id/resproj/X&#45;&gt;&quot;Example Data Reposit...&quot; -->
<g id="edge5" class="edge">
<title>example.org/id/resproj/X&#45;&gt;&quot;Example Data Reposit...&quot;</title>
<path fill="none" stroke="black" d="M239.37,-199.37C288.92,-196.02 347.34,-192.08 398.47,-188.62"/>
<polygon fill="black" stroke="black" points="398.85,-192.11 408.59,-187.94 398.38,-185.12 398.85,-192.11"/>
<text text-anchor="middle" x="309.38" y="-199.8" font-family="Times,serif" font-size="14.00">legalName</text>
</g>
<!-- &quot;ExDaRepo&quot; -->
<g id="node7" class="node">
<title>&quot;ExDaRepo&quot;</title>
<ellipse fill="none" stroke="black" stroke-width="0" cx="527.11" cy="-126" rx="67.69" ry="18"/>
<text text-anchor="middle" x="527.11" y="-122.3" font-family="Times,serif" font-size="14.00">&quot;ExDaRepo&quot;</text>
</g>
<!-- example.org/id/resproj/X&#45;&gt;&quot;ExDaRepo&quot; -->
<g id="edge6" class="edge">
<title>example.org/id/resproj/X&#45;&gt;&quot;ExDaRepo&quot;</title>
<path fill="none" stroke="black" d="M189.44,-191.46C214.16,-185.49 242.81,-178.74 268.88,-173 312.72,-163.34 323.75,-161.22 367.88,-153 397.65,-147.45 430.65,-141.75 458.78,-137.03"/>
<polygon fill="black" stroke="black" points="459.63,-140.43 468.91,-135.33 458.47,-133.53 459.63,-140.43"/>
<text text-anchor="middle" x="309.38" y="-176.8" font-family="Times,serif" font-size="14.00">name</text>
</g>
<!-- &quot;https//dio.org/id/XY...&quot; -->
<g id="node8" class="node">
<title>&quot;https//dio.org/id/XY...&quot;</title>
<ellipse fill="none" stroke="black" stroke-width="0" cx="527.11" cy="-72" rx="116.98" ry="18"/>
<text text-anchor="middle" x="527.11" y="-68.3" font-family="Times,serif" font-size="14.00">&quot;https//dio.org/id/XY...&quot;</text>
</g>
<!-- example.org/id/resproj/X&#45;&gt;&quot;https//dio.org/id/XY...&quot; -->
<g id="edge7" class="edge">
<title>example.org/id/resproj/X&#45;&gt;&quot;https//dio.org/id/XY...&quot;</title>
<path fill="none" stroke="black" d="M157.31,-189.47C202.15,-164.88 288.61,-120.75 367.88,-99 387.19,-93.7 408.13,-89.25 428.26,-85.59"/>
<polygon fill="black" stroke="black" points="429.14,-88.99 438.38,-83.8 427.92,-82.09 429.14,-88.99"/>
<text text-anchor="middle" x="309.38" y="-136.8" font-family="Times,serif" font-size="14.00">url</text>
</g>
<!-- &quot;https//www.example&#45;d...&quot; -->
<g id="node9" class="node">
<title>&quot;https//www.example&#45;d...&quot;</title>
<ellipse fill="none" stroke="black" stroke-width="0" cx="527.11" cy="-18" rx="131.88" ry="18"/>
<text text-anchor="middle" x="527.11" y="-14.3" font-family="Times,serif" font-size="14.00">&quot;https//www.example&#45;d...&quot;</text>
</g>
<!-- example.org/id/resproj/X&#45;&gt;&quot;https//www.example&#45;d...&quot; -->
<g id="edge8" class="edge">
<title>example.org/id/resproj/X&#45;&gt;&quot;https//www.example&#45;d...&quot;</title>
<path fill="none" stroke="black" d="M143.96,-189.18C169.57,-163.89 219.55,-117.29 268.88,-87 309.61,-61.99 322.01,-58.44 367.88,-45 385.03,-39.97 403.51,-35.77 421.59,-32.3"/>
<polygon fill="black" stroke="black" points="422.39,-35.71 431.58,-30.44 421.11,-28.82 422.39,-35.71"/>
<text text-anchor="middle" x="309.38" y="-90.8" font-family="Times,serif" font-size="14.00">url</text>
</g>
<!-- grid.ac/institutes/grid.475727.4&#45;&gt;PropertyValue -->
<g id="edge9" class="edge">
<title>grid.ac/institutes/grid.475727.4&#45;&gt;PropertyValue</title>
<path fill="none" stroke="black" d="M651.72,-245.26C663.92,-249.22 675.71,-254.36 686.35,-261 697.96,-268.25 693.23,-278.01 704.35,-286 750.39,-319.12 812.07,-337.3 860.33,-347.1"/>
<polygon fill="black" stroke="black" points="859.93,-350.59 870.42,-349.07 861.27,-343.72 859.93,-350.59"/>
<text text-anchor="middle" x="744.85" y="-328.8" font-family="Times,serif" font-size="14.00">type</text>
</g>
<!-- &quot;UN Department of Eco...&quot; -->
<g id="node10" class="node">
<title>&quot;UN Department of Eco...&quot;</title>
<ellipse fill="none" stroke="black" stroke-width="0" cx="937.89" cy="-288" rx="134.58" ry="18"/>
<text text-anchor="middle" x="937.89" y="-284.3" font-family="Times,serif" font-size="14.00">&quot;UN Department of Eco...&quot;</text>
</g>
<!-- grid.ac/institutes/grid.475727.4&#45;&gt;&quot;UN Department of Eco...&quot; -->
<g id="edge10" class="edge">
<title>grid.ac/institutes/grid.475727.4&#45;&gt;&quot;UN Department of Eco...&quot;</title>
<path fill="none" stroke="black" d="M631.26,-247.63C692.43,-255.71 769.77,-265.92 831.35,-274.06"/>
<polygon fill="black" stroke="black" points="831.11,-277.56 841.48,-275.4 832.03,-270.62 831.11,-277.56"/>
<text text-anchor="middle" x="744.85" y="-270.8" font-family="Times,serif" font-size="14.00">description</text>
</g>
<!-- &quot;https//registry.iden...&quot; -->
<g id="node11" class="node">
<title>&quot;https//registry.iden...&quot;</title>
<ellipse fill="none" stroke="black" stroke-width="0" cx="937.89" cy="-234" rx="116.98" ry="18"/>
<text text-anchor="middle" x="937.89" y="-230.3" font-family="Times,serif" font-size="14.00">&quot;https//registry.iden...&quot;</text>
</g>
<!-- grid.ac/institutes/grid.475727.4&#45;&gt;&quot;https//registry.iden...&quot; -->
<g id="edge11" class="edge">
<title>grid.ac/institutes/grid.475727.4&#45;&gt;&quot;https//registry.iden...&quot;</title>
<path fill="none" stroke="black" d="M686.45,-234C727.55,-234 771.28,-234 810.5,-234"/>
<polygon fill="black" stroke="black" points="810.64,-237.5 820.64,-234 810.64,-230.5 810.64,-237.5"/>
<text text-anchor="middle" x="744.85" y="-237.8" font-family="Times,serif" font-size="14.00">propertyID</text>
</g>
<!-- &quot;https//grid.ac/insti...&quot; -->
<g id="node12" class="node">
<title>&quot;https//grid.ac/insti...&quot;</title>
<ellipse fill="none" stroke="black" stroke-width="0" cx="937.89" cy="-180" rx="114.28" ry="18"/>
<text text-anchor="middle" x="937.89" y="-176.3" font-family="Times,serif" font-size="14.00">&quot;https//grid.ac/insti...&quot;</text>
</g>
<!-- grid.ac/institutes/grid.475727.4&#45;&gt;&quot;https//grid.ac/insti...&quot; -->
<g id="edge12" class="edge">
<title>grid.ac/institutes/grid.475727.4&#45;&gt;&quot;https//grid.ac/insti...&quot;</title>
<path fill="none" stroke="black" d="M631.26,-220.37C695.25,-211.92 776.94,-201.13 839.77,-192.83"/>
<polygon fill="black" stroke="black" points="840.23,-196.3 849.68,-191.52 839.31,-189.36 840.23,-196.3"/>
<text text-anchor="middle" x="744.85" y="-213.8" font-family="Times,serif" font-size="14.00">url</text>
</g>
</g>
</svg>
