<?xml version="1.0" encoding="UTF-8" standalone="no"?>
<!DOCTYPE svg PUBLIC "-//W3C//DTD SVG 1.1//EN"
 "http://www.w3.org/Graphics/SVG/1.1/DTD/svg11.dtd">
<!-- Generated by graphviz version 2.43.0 (0)
 -->
<!-- Title: %3 Pages: 1 -->
<svg width="1133pt" height="335pt"
 viewBox="0.00 0.00 1133.48 334.50" xmlns="http://www.w3.org/2000/svg" xmlns:xlink="http://www.w3.org/1999/xlink">
<g id="graph0" class="graph" transform="scale(1 1) rotate(0) translate(4 330.5)">
<title>%3</title>
<polygon fill="white" stroke="transparent" points="-4,4 -4,-330.5 1129.48,-330.5 1129.48,4 -4,4"/>
<text text-anchor="middle" x="562.74" y="-22.8" font-family="Times,serif" font-size="14.00">Model:</text>
<text text-anchor="middle" x="562.74" y="-7.8" font-family="Times,serif" font-size="14.00">https://iode.org/</text>
<!-- B_:b0 -->
<g id="node1" class="node">
<title>B_:b0</title>
<ellipse fill="none" stroke="green" cx="18" cy="-253.5" rx="18" ry="18"/>
</g>
<!-- Rschema:Course -->
<g id="node2" class="node">
<title>Rschema:Course</title>
<ellipse fill="none" stroke="blue" cx="503.5" cy="-308.5" rx="64.99" ry="18"/>
<text text-anchor="middle" x="503.5" y="-304.8" font-family="Times,serif" font-size="14.00">schema:Course</text>
</g>
<!-- B_:b0&#45;&gt;Rschema:Course -->
<g id="edge1" class="edge">
<title>B_:b0&#45;&gt;Rschema:Course</title>
<path fill="none" stroke="black" stroke-dasharray="1,5" d="M33.39,-263.08C39.49,-266.66 46.84,-270.37 54,-272.5 181.98,-310.51 338.98,-313.82 429.21,-311.81"/>
<polygon fill="black" stroke="black" points="429.43,-315.31 439.34,-311.56 429.26,-308.31 429.43,-315.31"/>
<text text-anchor="middle" x="127.5" y="-304.3" font-family="Times,serif" font-size="14.00">rdfs:type</text>
</g>
<!-- LIn this course you will get an introduction to the main tools and ideas in the data scientist&#39;s toolbox... -->
<g id="node3" class="node">
<title>LIn this course you will get an introduction to the main tools and ideas in the data scientist&#39;s toolbox...</title>
<polygon fill="none" stroke="black" points="219,-235.5 219,-271.5 788,-271.5 788,-235.5 219,-235.5"/>
<text text-anchor="middle" x="503.5" y="-249.8" font-family="Times,serif" font-size="14.00">In this course you will get an introduction to the main tools and ideas in the data scientist&#39;s toolbox...</text>
</g>
<!-- B_:b0&#45;&gt;LIn this course you will get an introduction to the main tools and ideas in the data scientist&#39;s toolbox... -->
<g id="edge2" class="edge">
<title>B_:b0&#45;&gt;LIn this course you will get an introduction to the main tools and ideas in the data scientist&#39;s toolbox...</title>
<path fill="none" stroke="black" stroke-dasharray="1,5" d="M36.21,-253.5C66.76,-253.5 134.29,-253.5 208.74,-253.5"/>
<polygon fill="black" stroke="black" points="208.81,-257 218.81,-253.5 208.81,-250 208.81,-257"/>
<text text-anchor="middle" x="127.5" y="-257.3" font-family="Times,serif" font-size="14.00">schema:description</text>
</g>
<!-- B_:b1 -->
<g id="node4" class="node">
<title>B_:b1</title>
<ellipse fill="none" stroke="green" cx="503.5" cy="-198.5" rx="18" ry="18"/>
</g>
<!-- B_:b0&#45;&gt;B_:b1 -->
<g id="edge3" class="edge">
<title>B_:b0&#45;&gt;B_:b1</title>
<path fill="none" stroke="black" stroke-dasharray="1,5" d="M33.39,-243.92C39.49,-240.34 46.84,-236.63 54,-234.5 207.89,-188.79 403.73,-193.27 475,-196.81"/>
<polygon fill="black" stroke="black" points="475.17,-200.33 485.34,-197.37 475.54,-193.34 475.17,-200.33"/>
<text text-anchor="middle" x="127.5" y="-238.3" font-family="Times,serif" font-size="14.00">schema:hasCourseInstance</text>
</g>
<!-- Rschema:CourseInstance -->
<g id="node5" class="node">
<title>Rschema:CourseInstance</title>
<ellipse fill="none" stroke="blue" cx="1031.24" cy="-308.5" rx="94.48" ry="18"/>
<text text-anchor="middle" x="1031.24" y="-304.8" font-family="Times,serif" font-size="14.00">schema:CourseInstance</text>
</g>
<!-- B_:b1&#45;&gt;Rschema:CourseInstance -->
<g id="edge4" class="edge">
<title>B_:b1&#45;&gt;Rschema:CourseInstance</title>
<path fill="none" stroke="black" stroke-dasharray="1,5" d="M521.24,-195.21C567.9,-187.01 701.65,-170.12 788,-226.5 801.66,-235.42 792.9,-248.77 806,-258.5 841.05,-284.54 887.13,-297.45 928.4,-303.7"/>
<polygon fill="black" stroke="black" points="928.11,-307.19 938.5,-305.11 929.08,-300.26 928.11,-307.19"/>
<text text-anchor="middle" x="862.5" y="-304.3" font-family="Times,serif" font-size="14.00">rdfs:type</text>
</g>
<!-- LMOOC -->
<g id="node6" class="node">
<title>LMOOC</title>
<polygon fill="none" stroke="black" points="1002.24,-235.5 1002.24,-271.5 1060.24,-271.5 1060.24,-235.5 1002.24,-235.5"/>
<text text-anchor="middle" x="1031.24" y="-249.8" font-family="Times,serif" font-size="14.00">MOOC</text>
</g>
<!-- B_:b1&#45;&gt;LMOOC -->
<g id="edge5" class="edge">
<title>B_:b1&#45;&gt;LMOOC</title>
<path fill="none" stroke="black" stroke-dasharray="1,5" d="M521.44,-200.1C565.44,-204.27 686.92,-215.88 788,-226.5 859.99,-234.07 943.93,-243.58 991.71,-249.05"/>
<polygon fill="black" stroke="black" points="991.58,-252.56 1001.91,-250.23 992.38,-245.61 991.58,-252.56"/>
<text text-anchor="middle" x="862.5" y="-243.3" font-family="Times,serif" font-size="14.00">schema:courseMode</text>
</g>
<!-- Lonline -->
<g id="node7" class="node">
<title>Lonline</title>
<polygon fill="none" stroke="black" points="1004.24,-180.5 1004.24,-216.5 1058.24,-216.5 1058.24,-180.5 1004.24,-180.5"/>
<text text-anchor="middle" x="1031.24" y="-194.8" font-family="Times,serif" font-size="14.00">online</text>
</g>
<!-- B_:b1&#45;&gt;Lonline -->
<g id="edge6" class="edge">
<title>B_:b1&#45;&gt;Lonline</title>
<path fill="none" stroke="black" stroke-dasharray="1,5" d="M521.69,-198.5C595.96,-198.5 890.12,-198.5 993.82,-198.5"/>
<polygon fill="black" stroke="black" points="994.1,-202 1004.1,-198.5 994.1,-195 994.1,-202"/>
<text text-anchor="middle" x="862.5" y="-202.3" font-family="Times,serif" font-size="14.00">schema:courseMode</text>
</g>
<!-- L2019&#45;03&#45;21 -->
<g id="node8" class="node">
<title>L2019&#45;03&#45;21</title>
<polygon fill="none" stroke="black" points="991.24,-125.5 991.24,-161.5 1071.24,-161.5 1071.24,-125.5 991.24,-125.5"/>
<text text-anchor="middle" x="1031.24" y="-139.8" font-family="Times,serif" font-size="14.00">2019&#45;03&#45;21</text>
</g>
<!-- B_:b1&#45;&gt;L2019&#45;03&#45;21 -->
<g id="edge7" class="edge">
<title>B_:b1&#45;&gt;L2019&#45;03&#45;21</title>
<path fill="none" stroke="black" stroke-dasharray="1,5" d="M521.69,-196.7C593.08,-189.23 867.68,-160.51 980.95,-148.66"/>
<polygon fill="black" stroke="black" points="981.49,-152.12 991.07,-147.6 980.76,-145.16 981.49,-152.12"/>
<text text-anchor="middle" x="862.5" y="-169.3" font-family="Times,serif" font-size="14.00">schema:endDate</text>
</g>
<!-- L2019&#45;02&#45;15 -->
<g id="node9" class="node">
<title>L2019&#45;02&#45;15</title>
<polygon fill="none" stroke="black" points="991.24,-70.5 991.24,-106.5 1071.24,-106.5 1071.24,-70.5 991.24,-70.5"/>
<text text-anchor="middle" x="1031.24" y="-84.8" font-family="Times,serif" font-size="14.00">2019&#45;02&#45;15</text>
</g>
<!-- B_:b1&#45;&gt;L2019&#45;02&#45;15 -->
<g id="edge8" class="edge">
<title>B_:b1&#45;&gt;L2019&#45;02&#45;15</title>
<path fill="none" stroke="black" stroke-dasharray="1,5" d="M521.4,-194.96C592.37,-180.11 867.91,-122.46 981.19,-98.76"/>
<polygon fill="black" stroke="black" points="981.92,-102.19 990.99,-96.71 980.49,-95.33 981.92,-102.19"/>
<text text-anchor="middle" x="862.5" y="-137.3" font-family="Times,serif" font-size="14.00">schema:startDate</text>
</g>
</g>
</svg>
