<?xml version="1.0" encoding="UTF-8" standalone="no"?>
<!DOCTYPE svg PUBLIC "-//W3C//DTD SVG 1.1//EN"
 "http://www.w3.org/Graphics/SVG/1.1/DTD/svg11.dtd">
<!-- Generated by graphviz version 2.43.0 (0)
 -->
<!-- Title: %3 Pages: 1 -->
<svg width="541pt" height="480pt"
 viewBox="0.00 0.00 540.74 479.53" xmlns="http://www.w3.org/2000/svg" xmlns:xlink="http://www.w3.org/1999/xlink">
<g id="graph0" class="graph" transform="scale(1 1) rotate(0) translate(4 475.53)">
<title>%3</title>
<polygon fill="white" stroke="transparent" points="-4,4 -4,-475.53 536.74,-475.53 536.74,4 -4,4"/>
<text text-anchor="middle" x="266.37" y="-22.8" font-family="Times,serif" font-size="14.00">Model:</text>
<text text-anchor="middle" x="266.37" y="-7.8" font-family="Times,serif" font-size="14.00">https://iode.org/</text>
<!-- B_:b0 -->
<g id="node1" class="node">
<title>B_:b0</title>
<ellipse fill="none" stroke="green" cx="166.68" cy="-319.96" rx="18" ry="18"/>
</g>
<!-- Rschema:Course -->
<g id="node2" class="node">
<title>Rschema:Course</title>
<ellipse fill="none" stroke="blue" cx="218.62" cy="-453.53" rx="64.99" ry="18"/>
<text text-anchor="middle" x="218.62" y="-449.83" font-family="Times,serif" font-size="14.00">schema:Course</text>
</g>
<!-- B_:b0&#45;&gt;Rschema:Course -->
<g id="edge1" class="edge">
<title>B_:b0&#45;&gt;Rschema:Course</title>
<path fill="none" stroke="black" stroke-dasharray="1,5" d="M173.26,-336.88C181.97,-359.29 197.45,-399.1 207.87,-425.9"/>
<polygon fill="black" stroke="black" points="204.71,-427.42 211.6,-435.47 211.23,-424.88 204.71,-427.42"/>
<text text-anchor="middle" x="167.93" y="-389.98" font-family="Times,serif" font-size="14.00">rdfs:type</text>
</g>
<!-- LF300 -->
<g id="node3" class="node">
<title>LF300</title>
<polygon fill="none" stroke="black" points="13.07,-235.19 13.07,-271.19 67.07,-271.19 67.07,-235.19 13.07,-235.19"/>
<text text-anchor="middle" x="40.07" y="-249.49" font-family="Times,serif" font-size="14.00">F300</text>
</g>
<!-- B_:b0&#45;&gt;LF300 -->
<g id="edge2" class="edge">
<title>B_:b0&#45;&gt;LF300</title>
<path fill="none" stroke="black" stroke-dasharray="1,5" d="M150.64,-311.51C132.12,-301.73 101.04,-285.34 76.54,-272.42"/>
<polygon fill="black" stroke="black" points="78,-269.23 67.52,-267.66 74.73,-275.42 78,-269.23"/>
<text text-anchor="middle" x="54.5" y="-293.34" font-family="Times,serif" font-size="14.00">schema:courseCode</text>
</g>
<!-- LPhysics -->
<g id="node4" class="node">
<title>LPhysics</title>
<polygon fill="none" stroke="black" points="35.02,-394.43 35.02,-430.43 93.02,-430.43 93.02,-394.43 35.02,-394.43"/>
<text text-anchor="middle" x="64.02" y="-408.73" font-family="Times,serif" font-size="14.00">Physics</text>
</g>
<!-- B_:b0&#45;&gt;LPhysics -->
<g id="edge3" class="edge">
<title>B_:b0&#45;&gt;LPhysics</title>
<path fill="none" stroke="black" stroke-dasharray="1,5" d="M153.26,-332.05C137.71,-346.05 111.69,-369.49 91.74,-387.46"/>
<polygon fill="black" stroke="black" points="89.25,-385 84.16,-394.29 93.93,-390.2 89.25,-385"/>
<text text-anchor="middle" x="80.47" y="-367.19" font-family="Times,serif" font-size="14.00">schema:name</text>
</g>
<!-- B_:b1 -->
<g id="node5" class="node">
<title>B_:b1</title>
<ellipse fill="none" stroke="green" cx="276.76" cy="-222.58" rx="18" ry="18"/>
</g>
<!-- B_:b0&#45;&gt;B_:b1 -->
<g id="edge4" class="edge">
<title>B_:b0&#45;&gt;B_:b1</title>
<path fill="none" stroke="black" stroke-dasharray="1,5" d="M180.17,-308.02C198.99,-291.37 233.29,-261.03 255.55,-241.34"/>
<polygon fill="black" stroke="black" points="257.98,-243.86 263.15,-234.61 253.34,-238.62 257.98,-243.86"/>
<text text-anchor="middle" x="175.9" y="-275.35" font-family="Times,serif" font-size="14.00">schema:provider</text>
</g>
<!-- Rschema:CollegeOrUniversity -->
<g id="node6" class="node">
<title>Rschema:CollegeOrUniversity</title>
<ellipse fill="none" stroke="blue" cx="402.69" cy="-291.15" rx="113.98" ry="18"/>
<text text-anchor="middle" x="402.69" y="-287.45" font-family="Times,serif" font-size="14.00">schema:CollegeOrUniversity</text>
</g>
<!-- B_:b1&#45;&gt;Rschema:CollegeOrUniversity -->
<g id="edge5" class="edge">
<title>B_:b1&#45;&gt;Rschema:CollegeOrUniversity</title>
<path fill="none" stroke="black" stroke-dasharray="1,5" d="M292.71,-231.26C310,-240.68 338.29,-256.08 361.85,-268.91"/>
<polygon fill="black" stroke="black" points="360.49,-272.15 370.94,-273.86 363.83,-266.01 360.49,-272.15"/>
<text text-anchor="middle" x="307.35" y="-256.38" font-family="Times,serif" font-size="14.00">rdfs:type</text>
</g>
<!-- LUniversity of Bristol -->
<g id="node7" class="node">
<title>LUniversity of Bristol</title>
<polygon fill="none" stroke="black" points="162.3,-70.5 162.3,-106.5 291.3,-106.5 291.3,-70.5 162.3,-70.5"/>
<text text-anchor="middle" x="226.8" y="-84.8" font-family="Times,serif" font-size="14.00">University of Bristol</text>
</g>
<!-- B_:b1&#45;&gt;LUniversity of Bristol -->
<g id="edge6" class="edge">
<title>B_:b1&#45;&gt;LUniversity of Bristol</title>
<path fill="none" stroke="black" stroke-dasharray="1,5" d="M266.29,-207.54C254.96,-190.37 237.46,-161.01 229.57,-132.88 228.15,-127.81 227.29,-122.29 226.79,-116.91"/>
<polygon fill="black" stroke="black" points="230.29,-116.71 226.23,-106.93 223.3,-117.11 230.29,-116.71"/>
<text text-anchor="middle" x="201.74" y="-163.97" font-family="Times,serif" font-size="14.00">schema:name</text>
</g>
<!-- Rfile:///provider/324/university&#45;of&#45;bristol -->
<g id="node8" class="node">
<title>Rfile:///provider/324/university&#45;of&#45;bristol</title>
<ellipse fill="none" stroke="blue" cx="381.96" cy="-133" rx="150.57" ry="18"/>
<text text-anchor="middle" x="381.96" y="-129.3" font-family="Times,serif" font-size="14.00">file:///provider/324/university&#45;of&#45;bristol</text>
</g>
<!-- B_:b1&#45;&gt;Rfile:///provider/324/university&#45;of&#45;bristol -->
<g id="edge7" class="edge">
<title>B_:b1&#45;&gt;Rfile:///provider/324/university&#45;of&#45;bristol</title>
<path fill="none" stroke="black" stroke-dasharray="1,5" d="M290.51,-210.87C306.34,-197.39 332.78,-174.87 353.17,-157.51"/>
<polygon fill="black" stroke="black" points="355.59,-160.05 360.93,-150.91 351.05,-154.72 355.59,-160.05"/>
<text text-anchor="middle" x="295.42" y="-184.52" font-family="Times,serif" font-size="14.00">schema:url</text>
</g>
</g>
</svg>
