<?xml version="1.0" encoding="UTF-8" standalone="no"?>
<!DOCTYPE svg PUBLIC "-//W3C//DTD SVG 1.1//EN"
 "http://www.w3.org/Graphics/SVG/1.1/DTD/svg11.dtd">
<!-- Generated by graphviz version 2.43.0 (0)
 -->
<!-- Title: %3 Pages: 1 -->
<svg width="799pt" height="868pt"
 viewBox="0.00 0.00 798.99 867.51" xmlns="http://www.w3.org/2000/svg" xmlns:xlink="http://www.w3.org/1999/xlink">
<g id="graph0" class="graph" transform="scale(1 1) rotate(0) translate(4 863.51)">
<title>%3</title>
<polygon fill="white" stroke="transparent" points="-4,4 -4,-863.51 794.99,-863.51 794.99,4 -4,4"/>
<text text-anchor="middle" x="395.49" y="-22.8" font-family="Times,serif" font-size="14.00">Model:</text>
<text text-anchor="middle" x="395.49" y="-7.8" font-family="Times,serif" font-size="14.00">https://iode.org/</text>
<!-- B_:b0 -->
<g id="node1" class="node">
<title>B_:b0</title>
<ellipse fill="none" stroke="green" cx="475" cy="-292.71" rx="18" ry="18"/>
</g>
<!-- Rschema:Course -->
<g id="node2" class="node">
<title>Rschema:Course</title>
<ellipse fill="none" stroke="blue" cx="642.03" cy="-88" rx="64.99" ry="18"/>
<text text-anchor="middle" x="642.03" y="-84.3" font-family="Times,serif" font-size="14.00">schema:Course</text>
</g>
<!-- B_:b0&#45;&gt;Rschema:Course -->
<g id="edge1" class="edge">
<title>B_:b0&#45;&gt;Rschema:Course</title>
<path fill="none" stroke="black" stroke-dasharray="1,5" d="M486.48,-278.64C514.31,-244.52 585.72,-157.01 621.27,-113.44"/>
<polygon fill="black" stroke="black" points="624.07,-115.55 627.68,-105.59 618.64,-111.12 624.07,-115.55"/>
<text text-anchor="middle" x="532.53" y="-195.97" font-family="Times,serif" font-size="14.00">rdfs:type</text>
</g>
<!-- LIn this course you will get an introduction to the main tools and ideas in the data scientist&#39;s toolbox... -->
<g id="node3" class="node">
<title>LIn this course you will get an introduction to the main tools and ideas in the data scientist&#39;s toolbox...</title>
<polygon fill="none" stroke="black" points="0,-94.11 0,-130.11 569,-130.11 569,-94.11 0,-94.11"/>
<text text-anchor="middle" x="284.5" y="-108.41" font-family="Times,serif" font-size="14.00">In this course you will get an introduction to the main tools and ideas in the data scientist&#39;s toolbox...</text>
</g>
<!-- B_:b0&#45;&gt;LIn this course you will get an introduction to the main tools and ideas in the data scientist&#39;s toolbox... -->
<g id="edge2" class="edge">
<title>B_:b0&#45;&gt;LIn this course you will get an introduction to the main tools and ideas in the data scientist&#39;s toolbox...</title>
<path fill="none" stroke="black" stroke-dasharray="1,5" d="M461.9,-280.3C430.88,-250.89 352.42,-176.5 311.02,-137.25"/>
<polygon fill="black" stroke="black" points="313.4,-134.69 303.74,-130.35 308.59,-139.77 313.4,-134.69"/>
<text text-anchor="middle" x="329.94" y="-209.24" font-family="Times,serif" font-size="14.00">schema:description</text>
</g>
<!-- B_:b1 -->
<g id="node4" class="node">
<title>B_:b1</title>
<ellipse fill="none" stroke="green" cx="498.54" cy="-574.58" rx="18" ry="18"/>
</g>
<!-- B_:b0&#45;&gt;B_:b1 -->
<g id="edge3" class="edge">
<title>B_:b0&#45;&gt;B_:b1</title>
<path fill="none" stroke="black" stroke-dasharray="1,5" d="M476.51,-310.77C480.49,-358.48 491.32,-488.19 496.16,-546.05"/>
<polygon fill="black" stroke="black" points="492.69,-546.63 497.01,-556.3 499.67,-546.05 492.69,-546.63"/>
<text text-anchor="middle" x="413.27" y="-437.51" font-family="Times,serif" font-size="14.00">schema:hasCourseInstance</text>
</g>
<!-- Rschema:CourseInstance -->
<g id="node5" class="node">
<title>Rschema:CourseInstance</title>
<ellipse fill="none" stroke="blue" cx="525.83" cy="-841.51" rx="94.48" ry="18"/>
<text text-anchor="middle" x="525.83" y="-837.81" font-family="Times,serif" font-size="14.00">schema:CourseInstance</text>
</g>
<!-- B_:b1&#45;&gt;Rschema:CourseInstance -->
<g id="edge4" class="edge">
<title>B_:b1&#45;&gt;Rschema:CourseInstance</title>
<path fill="none" stroke="black" stroke-dasharray="1,5" d="M500.37,-592.51C505.02,-637.99 517.3,-758.13 522.93,-813.2"/>
<polygon fill="black" stroke="black" points="519.47,-813.71 523.97,-823.31 526.43,-813 519.47,-813.71"/>
<text text-anchor="middle" x="487.65" y="-711.55" font-family="Times,serif" font-size="14.00">rdfs:type</text>
</g>
<!-- LMOOC -->
<g id="node6" class="node">
<title>LMOOC</title>
<polygon fill="none" stroke="black" points="271.84,-742.34 271.84,-778.34 329.84,-778.34 329.84,-742.34 271.84,-742.34"/>
<text text-anchor="middle" x="300.84" y="-756.64" font-family="Times,serif" font-size="14.00">MOOC</text>
</g>
<!-- B_:b1&#45;&gt;LMOOC -->
<g id="edge5" class="edge">
<title>B_:b1&#45;&gt;LMOOC</title>
<path fill="none" stroke="black" stroke-dasharray="1,5" d="M485.26,-587.06C453.15,-617.23 370.78,-694.63 327.82,-734.99"/>
<polygon fill="black" stroke="black" points="325.17,-732.68 320.28,-742.08 329.96,-737.78 325.17,-732.68"/>
<text text-anchor="middle" x="346.36" y="-668.29" font-family="Times,serif" font-size="14.00">schema:courseMode</text>
</g>
<!-- Lonline -->
<g id="node7" class="node">
<title>Lonline</title>
<polygon fill="none" stroke="black" points="208.21,-525.11 208.21,-561.11 262.21,-561.11 262.21,-525.11 208.21,-525.11"/>
<text text-anchor="middle" x="235.21" y="-539.41" font-family="Times,serif" font-size="14.00">online</text>
</g>
<!-- B_:b1&#45;&gt;Lonline -->
<g id="edge6" class="edge">
<title>B_:b1&#45;&gt;Lonline</title>
<path fill="none" stroke="black" stroke-dasharray="1,5" d="M480.44,-572.42C437.67,-567.3 329.65,-554.39 272.3,-547.54"/>
<polygon fill="black" stroke="black" points="272.56,-544.04 262.21,-546.33 271.73,-551 272.56,-544.04"/>
<text text-anchor="middle" x="399.4" y="-548.15" font-family="Times,serif" font-size="14.00">schema:courseMode</text>
</g>
<!-- L2019&#45;03&#45;21 -->
<g id="node8" class="node">
<title>L2019&#45;03&#45;21</title>
<polygon fill="none" stroke="black" points="689.64,-700.9 689.64,-736.9 769.64,-736.9 769.64,-700.9 689.64,-700.9"/>
<text text-anchor="middle" x="729.64" y="-715.2" font-family="Times,serif" font-size="14.00">2019&#45;03&#45;21</text>
</g>
<!-- B_:b1&#45;&gt;L2019&#45;03&#45;21 -->
<g id="edge7" class="edge">
<title>B_:b1&#45;&gt;L2019&#45;03&#45;21</title>
<path fill="none" stroke="black" stroke-dasharray="1,5" d="M514.06,-584.27C550.13,-606.8 640.44,-663.19 692,-695.4"/>
<polygon fill="black" stroke="black" points="690.21,-698.4 700.54,-700.73 693.91,-692.46 690.21,-698.4"/>
<text text-anchor="middle" x="561.98" y="-646.41" font-family="Times,serif" font-size="14.00">schema:endDate</text>
</g>
<!-- L2019&#45;02&#45;15 -->
<g id="node9" class="node">
<title>L2019&#45;02&#45;15</title>
<polygon fill="none" stroke="black" points="710.99,-477.98 710.99,-513.98 790.99,-513.98 790.99,-477.98 710.99,-477.98"/>
<text text-anchor="middle" x="750.99" y="-492.28" font-family="Times,serif" font-size="14.00">2019&#45;02&#45;15</text>
</g>
<!-- B_:b1&#45;&gt;L2019&#45;02&#45;15 -->
<g id="edge8" class="edge">
<title>B_:b1&#45;&gt;L2019&#45;02&#45;15</title>
<path fill="none" stroke="black" stroke-dasharray="1,5" d="M515.89,-569.18C553.59,-557.44 644.17,-529.24 701.25,-511.47"/>
<polygon fill="black" stroke="black" points="702.29,-514.81 710.8,-508.5 700.21,-508.13 702.29,-514.81"/>
<text text-anchor="middle" x="566.51" y="-542.59" font-family="Times,serif" font-size="14.00">schema:startDate</text>
</g>
</g>
</svg>
