<?xml version="1.0" encoding="UTF-8" standalone="no"?>
<!DOCTYPE svg PUBLIC "-//W3C//DTD SVG 1.1//EN"
 "http://www.w3.org/Graphics/SVG/1.1/DTD/svg11.dtd">
<!-- Generated by graphviz version 5.0.0 (0)
 -->
<!-- Pages: 1 -->
<svg width="794pt" height="314pt"
 viewBox="0.00 0.00 793.75 314.00" xmlns="http://www.w3.org/2000/svg" xmlns:xlink="http://www.w3.org/1999/xlink">
<g id="graph0" class="graph" transform="scale(1 1) rotate(0) translate(4 310)">
<polygon fill="white" stroke="transparent" points="-4,4 -4,-310 789.75,-310 789.75,4 -4,4"/>
<!-- Vehicle -->
<g id="node1" class="node">
<title>Vehicle</title>
<ellipse fill="none" stroke="#558855" cx="327.28" cy="-207" rx="44.39" ry="18"/>
<text text-anchor="middle" x="327.28" y="-203.3" font-family="Times,serif" font-size="14.00">Vehicle</text>
</g>
<!-- example.org/id/X -->
<g id="node2" class="node">
<title>example.org/id/X</title>
<ellipse fill="none" stroke="black" cx="89.04" cy="-180" rx="89.08" ry="18"/>
<text text-anchor="middle" x="89.04" y="-176.3" font-family="Times,serif" font-size="14.00">example.org/id/X</text>
</g>
<!-- example.org/id/X&#45;&gt;Vehicle -->
<g id="edge1" class="edge">
<title>example.org/id/X&#45;&gt;Vehicle</title>
<path fill="none" stroke="black" d="M167.07,-188.8C202.15,-192.81 242.76,-197.45 274.18,-201.05"/>
<polygon fill="black" stroke="black" points="274.13,-204.56 284.46,-202.22 274.93,-197.61 274.13,-204.56"/>
<text text-anchor="middle" x="230.58" y="-202.8" font-family="Times,serif" font-size="14.00">type</text>
</g>
<!-- _ -->
<g id="node3" class="node">
<title>_</title>
<ellipse fill="none" stroke="#558855" cx="327.28" cy="-153" rx="27" ry="18"/>
<text text-anchor="middle" x="327.28" y="-149.3" font-family="Times,serif" font-size="14.00">_</text>
</g>
<!-- example.org/id/X&#45;&gt;_ -->
<g id="edge2" class="edge">
<title>example.org/id/X&#45;&gt;_</title>
<path fill="none" stroke="black" d="M167.07,-171.2C208.62,-166.45 257.92,-160.81 290.54,-157.09"/>
<polygon fill="black" stroke="black" points="290.97,-160.56 300.51,-155.95 290.18,-153.6 290.97,-160.56"/>
<text text-anchor="middle" x="230.58" y="-170.8" font-family="Times,serif" font-size="14.00">subjectOf</text>
</g>
<!-- DataDownload -->
<g id="node4" class="node">
<title>DataDownload</title>
<ellipse fill="none" stroke="#558855" cx="655.11" cy="-288" rx="78.79" ry="18"/>
<text text-anchor="middle" x="655.11" y="-284.3" font-family="Times,serif" font-size="14.00">DataDownload</text>
</g>
<!-- _&#45;&gt;DataDownload -->
<g id="edge3" class="edge">
<title>_&#45;&gt;DataDownload</title>
<path fill="none" stroke="black" d="M350.31,-162.86C357.91,-167.19 365.9,-172.91 371.48,-180 387.13,-199.88 370.54,-217.22 389.48,-234 437.89,-276.91 510.99,-289.25 568.1,-291.51"/>
<polygon fill="black" stroke="black" points="568.1,-295.01 578.2,-291.81 568.31,-288.02 568.1,-295.01"/>
<text text-anchor="middle" x="447.98" y="-286.8" font-family="Times,serif" font-size="14.00">type</text>
</g>
<!-- &quot;2019&#45;06&#45;12T144415Z&quot; -->
<g id="node5" class="node">
<title>&quot;2019&#45;06&#45;12T144415Z&quot;</title>
<ellipse fill="none" stroke="black" stroke-width="0" cx="655.11" cy="-234" rx="119.68" ry="18"/>
<text text-anchor="middle" x="655.11" y="-230.3" font-family="Times,serif" font-size="14.00">&quot;2019&#45;06&#45;12T144415Z&quot;</text>
</g>
<!-- _&#45;&gt;&quot;2019&#45;06&#45;12T144415Z&quot; -->
<g id="edge4" class="edge">
<title>_&#45;&gt;&quot;2019&#45;06&#45;12T144415Z&quot;</title>
<path fill="none" stroke="black" d="M347.4,-165.34C359.12,-172.38 374.67,-180.81 389.48,-186 439.67,-203.59 497.59,-215.02 546.42,-222.31"/>
<polygon fill="black" stroke="black" points="545.98,-225.78 556.38,-223.75 546.98,-218.85 545.98,-225.78"/>
<text text-anchor="middle" x="447.98" y="-218.8" font-family="Times,serif" font-size="14.00">dateModified</text>
</g>
<!-- &quot;Metadata describing ...&quot; -->
<g id="node6" class="node">
<title>&quot;Metadata describing ...&quot;</title>
<ellipse fill="none" stroke="black" stroke-width="0" cx="655.11" cy="-180" rx="127.28" ry="18"/>
<text text-anchor="middle" x="655.11" y="-176.3" font-family="Times,serif" font-size="14.00">&quot;Metadata describing ...&quot;</text>
</g>
<!-- _&#45;&gt;&quot;Metadata describing ...&quot; -->
<g id="edge5" class="edge">
<title>_&#45;&gt;&quot;Metadata describing ...&quot;</title>
<path fill="none" stroke="black" d="M354.12,-155.14C392.99,-158.36 468.97,-164.66 534.73,-170.11"/>
<polygon fill="black" stroke="black" points="534.52,-173.6 544.77,-170.94 535.1,-166.63 534.52,-173.6"/>
<text text-anchor="middle" x="447.98" y="-170.8" font-family="Times,serif" font-size="14.00">description</text>
</g>
<!-- &quot;application/xml&quot; -->
<g id="node7" class="node">
<title>&quot;application/xml&quot;</title>
<ellipse fill="none" stroke="black" stroke-width="0" cx="655.11" cy="-126" rx="90.98" ry="18"/>
<text text-anchor="middle" x="655.11" y="-122.3" font-family="Times,serif" font-size="14.00">&quot;application/xml&quot;</text>
</g>
<!-- _&#45;&gt;&quot;application/xml&quot; -->
<g id="edge6" class="edge">
<title>_&#45;&gt;&quot;application/xml&quot;</title>
<path fill="none" stroke="black" d="M352.52,-146.42C363.69,-143.66 377.17,-140.7 389.48,-139 443.51,-131.55 504.27,-128.21 553.93,-126.78"/>
<polygon fill="black" stroke="black" points="554.12,-130.27 564.03,-126.51 553.94,-123.28 554.12,-130.27"/>
<text text-anchor="middle" x="447.98" y="-142.8" font-family="Times,serif" font-size="14.00">encodingFormat</text>
</g>
<!-- &quot;https//foo.org/ship0...&quot; -->
<g id="node8" class="node">
<title>&quot;https//foo.org/ship0...&quot;</title>
<ellipse fill="none" stroke="black" stroke-width="0" cx="655.11" cy="-72" rx="119.68" ry="18"/>
<text text-anchor="middle" x="655.11" y="-68.3" font-family="Times,serif" font-size="14.00">&quot;https//foo.org/ship0...&quot;</text>
</g>
<!-- _&#45;&gt;&quot;https//foo.org/ship0...&quot; -->
<g id="edge7" class="edge">
<title>_&#45;&gt;&quot;https//foo.org/ship0...&quot;</title>
<path fill="none" stroke="black" d="M344.11,-138.28C355.76,-128.33 372.47,-115.81 389.48,-109 432.91,-91.59 483.21,-82.16 528.21,-77.12"/>
<polygon fill="black" stroke="black" points="528.75,-80.58 538.32,-76.05 528.01,-73.62 528.75,-80.58"/>
<text text-anchor="middle" x="447.98" y="-112.8" font-family="Times,serif" font-size="14.00">encodingFormat</text>
</g>
<!-- &quot;external&#45;metadata.xm...&quot; -->
<g id="node9" class="node">
<title>&quot;external&#45;metadata.xm...&quot;</title>
<ellipse fill="none" stroke="black" stroke-width="0" cx="655.11" cy="-18" rx="130.78" ry="18"/>
<text text-anchor="middle" x="655.11" y="-14.3" font-family="Times,serif" font-size="14.00">&quot;external&#45;metadata.xm...&quot;</text>
</g>
<!-- _&#45;&gt;&quot;external&#45;metadata.xm...&quot; -->
<g id="edge8" class="edge">
<title>_&#45;&gt;&quot;external&#45;metadata.xm...&quot;</title>
<path fill="none" stroke="black" d="M334.76,-135.56C343.65,-114.26 361.74,-78.87 389.48,-61 426.23,-37.32 471.64,-25.22 514.41,-19.4"/>
<polygon fill="black" stroke="black" points="514.86,-22.87 524.35,-18.16 513.99,-15.93 514.86,-22.87"/>
<text text-anchor="middle" x="447.98" y="-64.8" font-family="Times,serif" font-size="14.00">name</text>
</g>
</g>
</svg>
