<?xml version="1.0" encoding="UTF-8" standalone="no"?>
<!DOCTYPE svg PUBLIC "-//W3C//DTD SVG 1.1//EN"
 "http://www.w3.org/Graphics/SVG/1.1/DTD/svg11.dtd">
<!-- Generated by graphviz version 5.0.0 (0)
 -->
<!-- Pages: 1 -->
<svg width="891pt" height="206pt"
 viewBox="0.00 0.00 891.24 206.00" xmlns="http://www.w3.org/2000/svg" xmlns:xlink="http://www.w3.org/1999/xlink">
<g id="graph0" class="graph" transform="scale(1 1) rotate(0) translate(4 202)">
<polygon fill="white" stroke="transparent" points="-4,4 -4,-202 887.24,-202 887.24,4 -4,4"/>
<!-- Vehicle -->
<g id="node1" class="node">
<title>Vehicle</title>
<ellipse fill="none" stroke="#558855" cx="400.97" cy="-153" rx="44.39" ry="18"/>
<text text-anchor="middle" x="400.97" y="-149.3" font-family="Times,serif" font-size="14.00">Vehicle</text>
</g>
<!-- example.org/id/X -->
<g id="node2" class="node">
<title>example.org/id/X</title>
<ellipse fill="none" stroke="black" cx="89.04" cy="-126" rx="89.08" ry="18"/>
<text text-anchor="middle" x="89.04" y="-122.3" font-family="Times,serif" font-size="14.00">example.org/id/X</text>
</g>
<!-- example.org/id/X&#45;&gt;Vehicle -->
<g id="edge1" class="edge">
<title>example.org/id/X&#45;&gt;Vehicle</title>
<path fill="none" stroke="black" d="M171.07,-133.06C226.71,-137.91 298.97,-144.2 347.27,-148.41"/>
<polygon fill="black" stroke="black" points="347.24,-151.92 357.5,-149.3 347.84,-144.95 347.24,-151.92"/>
<text text-anchor="middle" x="229.08" y="-143.8" font-family="Times,serif" font-size="14.00">type</text>
</g>
<!-- example.org/id/vessel/X -->
<g id="node3" class="node">
<title>example.org/id/vessel/X</title>
<ellipse fill="none" stroke="#558855" cx="400.97" cy="-99" rx="120.78" ry="18"/>
<text text-anchor="middle" x="400.97" y="-95.3" font-family="Times,serif" font-size="14.00">example.org/id/vessel/X</text>
</g>
<!-- example.org/id/X&#45;&gt;example.org/id/vessel/X -->
<g id="edge2" class="edge">
<title>example.org/id/X&#45;&gt;example.org/id/vessel/X</title>
<path fill="none" stroke="black" d="M169.94,-118.37C178.76,-117.56 187.61,-116.75 196.08,-116 224.65,-113.46 255.47,-110.83 284.29,-108.43"/>
<polygon fill="black" stroke="black" points="284.72,-111.9 294.4,-107.58 284.14,-104.93 284.72,-111.9"/>
<text text-anchor="middle" x="229.08" y="-119.8" font-family="Times,serif" font-size="14.00">identifier</text>
</g>
<!-- PropertyValue -->
<g id="node4" class="node">
<title>PropertyValue</title>
<ellipse fill="none" stroke="#558855" cx="761.05" cy="-180" rx="77.19" ry="18"/>
<text text-anchor="middle" x="761.05" y="-176.3" font-family="Times,serif" font-size="14.00">PropertyValue</text>
</g>
<!-- example.org/id/vessel/X&#45;&gt;PropertyValue -->
<g id="edge3" class="edge">
<title>example.org/id/vessel/X&#45;&gt;PropertyValue</title>
<path fill="none" stroke="black" d="M474.07,-113.4C489.93,-117.08 506.56,-121.33 521.86,-126 530.07,-128.51 531.64,-130.54 539.86,-133 588.5,-147.55 644.47,-159.43 687.8,-167.61"/>
<polygon fill="black" stroke="black" points="687.22,-171.06 697.69,-169.45 688.5,-164.18 687.22,-171.06"/>
<text text-anchor="middle" x="580.36" y="-156.8" font-family="Times,serif" font-size="14.00">type</text>
</g>
<!-- &quot;Vessel ID &quot; -->
<g id="node5" class="node">
<title>&quot;Vessel ID &quot;</title>
<ellipse fill="none" stroke="black" stroke-width="0" cx="761.05" cy="-126" rx="65.79" ry="18"/>
<text text-anchor="middle" x="761.05" y="-122.3" font-family="Times,serif" font-size="14.00">&quot;Vessel ID &quot;</text>
</g>
<!-- example.org/id/vessel/X&#45;&gt;&quot;Vessel ID &quot; -->
<g id="edge4" class="edge">
<title>example.org/id/vessel/X&#45;&gt;&quot;Vessel ID &quot;</title>
<path fill="none" stroke="black" d="M509.41,-107.1C566.96,-111.44 636.33,-116.67 687.49,-120.53"/>
<polygon fill="black" stroke="black" points="687.23,-124.02 697.47,-121.28 687.76,-117.04 687.23,-124.02"/>
<text text-anchor="middle" x="580.36" y="-117.8" font-family="Times,serif" font-size="14.00">description</text>
</g>
<!-- &quot;https//en.wikipedia....&quot; -->
<g id="node6" class="node">
<title>&quot;https//en.wikipedia....&quot;</title>
<ellipse fill="none" stroke="black" stroke-width="0" cx="761.05" cy="-72" rx="120.48" ry="18"/>
<text text-anchor="middle" x="761.05" y="-68.3" font-family="Times,serif" font-size="14.00">&quot;https//en.wikipedia....&quot;</text>
</g>
<!-- example.org/id/vessel/X&#45;&gt;&quot;https//en.wikipedia....&quot; -->
<g id="edge5" class="edge">
<title>example.org/id/vessel/X&#45;&gt;&quot;https//en.wikipedia....&quot;</title>
<path fill="none" stroke="black" d="M509.41,-90.9C551.56,-87.72 600.04,-84.07 643.07,-80.82"/>
<polygon fill="black" stroke="black" points="643.6,-84.29 653.31,-80.05 643.07,-77.31 643.6,-84.29"/>
<text text-anchor="middle" x="580.36" y="-90.8" font-family="Times,serif" font-size="14.00">propertyID</text>
</g>
<!-- &quot;https//example.org/i...&quot; -->
<g id="node7" class="node">
<title>&quot;https//example.org/i...&quot;</title>
<ellipse fill="none" stroke="black" stroke-width="0" cx="761.05" cy="-18" rx="122.38" ry="18"/>
<text text-anchor="middle" x="761.05" y="-14.3" font-family="Times,serif" font-size="14.00">&quot;https//example.org/i...&quot;</text>
</g>
<!-- example.org/id/vessel/X&#45;&gt;&quot;https//example.org/i...&quot; -->
<g id="edge6" class="edge">
<title>example.org/id/vessel/X&#45;&gt;&quot;https//example.org/i...&quot;</title>
<path fill="none" stroke="black" d="M461.23,-83.37C485.54,-77.11 513.99,-69.98 539.86,-64 585.12,-53.53 635.85,-42.86 677.21,-34.44"/>
<polygon fill="black" stroke="black" points="678.13,-37.82 687.24,-32.4 676.74,-30.96 678.13,-37.82"/>
<text text-anchor="middle" x="580.36" y="-67.8" font-family="Times,serif" font-size="14.00">url</text>
</g>
</g>
</svg>
