<?xml version="1.0" encoding="UTF-8" standalone="no"?>
<!DOCTYPE svg PUBLIC "-//W3C//DTD SVG 1.1//EN"
 "http://www.w3.org/Graphics/SVG/1.1/DTD/svg11.dtd">
<!-- Generated by graphviz version 5.0.0 (0)
 -->
<!-- Pages: 1 -->
<svg width="1059pt" height="209pt"
 viewBox="0.00 0.00 1059.33 209.00" xmlns="http://www.w3.org/2000/svg" xmlns:xlink="http://www.w3.org/1999/xlink">
<g id="graph0" class="graph" transform="scale(1 1) rotate(0) translate(4 205)">
<polygon fill="white" stroke="transparent" points="-4,4 -4,-205 1055.33,-205 1055.33,4 -4,4"/>
<!-- CreativeWork -->
<g id="node1" class="node">
<title>CreativeWork</title>
<ellipse fill="none" stroke="#558855" cx="917.44" cy="-183" rx="74.19" ry="18"/>
<text text-anchor="middle" x="917.44" y="-179.3" font-family="Times,serif" font-size="14.00">CreativeWork</text>
</g>
<!-- purl.unep.org/sdg/SDGIO_00020173 -->
<g id="node2" class="node">
<title>purl.unep.org/sdg/SDGIO_00020173</title>
<ellipse fill="none" stroke="#558855" cx="487.17" cy="-122" rx="179.27" ry="18"/>
<text text-anchor="middle" x="487.17" y="-118.3" font-family="Times,serif" font-size="14.00">purl.unep.org/sdg/SDGIO_00020173</text>
</g>
<!-- purl.unep.org/sdg/SDGIO_00020173&#45;&gt;CreativeWork -->
<g id="edge1" class="edge">
<title>purl.unep.org/sdg/SDGIO_00020173&#45;&gt;CreativeWork</title>
<path fill="none" stroke="black" d="M592.9,-136.6C644.84,-143.87 708.5,-152.83 765.55,-161 791,-164.64 818.86,-168.69 843.63,-172.31"/>
<polygon fill="black" stroke="black" points="843.28,-175.79 853.68,-173.78 844.29,-168.87 843.28,-175.79"/>
<text text-anchor="middle" x="725.05" y="-164.8" font-family="Times,serif" font-size="14.00">type</text>
</g>
<!-- &quot;Number of countries ...&quot; -->
<g id="node3" class="node">
<title>&quot;Number of countries ...&quot;</title>
<ellipse fill="none" stroke="black" stroke-width="0" cx="917.44" cy="-126" rx="127.28" ry="18"/>
<text text-anchor="middle" x="917.44" y="-122.3" font-family="Times,serif" font-size="14.00">&quot;Number of countries ...&quot;</text>
</g>
<!-- purl.unep.org/sdg/SDGIO_00020173&#45;&gt;&quot;Number of countries ...&quot; -->
<g id="edge2" class="edge">
<title>purl.unep.org/sdg/SDGIO_00020173&#45;&gt;&quot;Number of countries ...&quot;</title>
<path fill="none" stroke="black" d="M666.85,-122.22C699.68,-122.38 733.65,-122.63 765.55,-123 770.66,-123.06 775.87,-123.13 781.12,-123.2"/>
<polygon fill="black" stroke="black" points="781.24,-126.71 791.29,-123.36 781.34,-119.71 781.24,-126.71"/>
<text text-anchor="middle" x="725.05" y="-126.8" font-family="Times,serif" font-size="14.00">description</text>
</g>
<!-- &quot;UNSD SDG indicator c...&quot; -->
<g id="node4" class="node">
<title>&quot;UNSD SDG indicator c...&quot;</title>
<ellipse fill="none" stroke="black" stroke-width="0" cx="917.44" cy="-72" rx="133.78" ry="18"/>
<text text-anchor="middle" x="917.44" y="-68.3" font-family="Times,serif" font-size="14.00">&quot;UNSD SDG indicator c...&quot;</text>
</g>
<!-- purl.unep.org/sdg/SDGIO_00020173&#45;&gt;&quot;UNSD SDG indicator c...&quot; -->
<g id="edge3" class="edge">
<title>purl.unep.org/sdg/SDGIO_00020173&#45;&gt;&quot;UNSD SDG indicator c...&quot;</title>
<path fill="none" stroke="black" d="M604.91,-108.37C667.44,-101.07 744.04,-92.13 805.64,-84.94"/>
<polygon fill="black" stroke="black" points="806.25,-88.39 815.78,-83.75 805.44,-81.44 806.25,-88.39"/>
<text text-anchor="middle" x="725.05" y="-101.8" font-family="Times,serif" font-size="14.00">name</text>
</g>
<!-- &quot;http//www.ontobee.or...&quot; -->
<g id="node5" class="node">
<title>&quot;http//www.ontobee.or...&quot;</title>
<ellipse fill="none" stroke="black" stroke-width="0" cx="917.44" cy="-18" rx="128.08" ry="18"/>
<text text-anchor="middle" x="917.44" y="-14.3" font-family="Times,serif" font-size="14.00">&quot;http//www.ontobee.or...&quot;</text>
</g>
<!-- purl.unep.org/sdg/SDGIO_00020173&#45;&gt;&quot;http//www.ontobee.or...&quot; -->
<g id="edge4" class="edge">
<title>purl.unep.org/sdg/SDGIO_00020173&#45;&gt;&quot;http//www.ontobee.or...&quot;</title>
<path fill="none" stroke="black" d="M549.02,-105.1C608.58,-88.8 701.98,-63.9 783.55,-45 799.03,-41.41 815.58,-37.84 831.57,-34.52"/>
<polygon fill="black" stroke="black" points="832.34,-37.94 841.43,-32.49 830.93,-31.08 832.34,-37.94"/>
<text text-anchor="middle" x="725.05" y="-71.8" font-family="Times,serif" font-size="14.00">url</text>
</g>
<!-- example.org/id/XYZ -->
<g id="node6" class="node">
<title>example.org/id/XYZ</title>
<ellipse fill="none" stroke="black" cx="101.39" cy="-156" rx="101.28" ry="18"/>
<text text-anchor="middle" x="101.39" y="-152.3" font-family="Times,serif" font-size="14.00">example.org/id/XYZ</text>
</g>
<!-- example.org/id/XYZ&#45;&gt;CreativeWork -->
<g id="edge5" class="edge">
<title>example.org/id/XYZ&#45;&gt;CreativeWork</title>
<path fill="none" stroke="black" d="M195.76,-162.66C204.22,-163.16 212.65,-163.61 220.78,-164 441.68,-174.48 702.34,-179.68 832.97,-181.8"/>
<polygon fill="black" stroke="black" points="833.23,-185.31 843.29,-181.97 833.35,-178.31 833.23,-185.31"/>
<text text-anchor="middle" x="487.17" y="-181.8" font-family="Times,serif" font-size="14.00">type</text>
</g>
<!-- example.org/id/XYZ&#45;&gt;purl.unep.org/sdg/SDGIO_00020173 -->
<g id="edge6" class="edge">
<title>example.org/id/XYZ&#45;&gt;purl.unep.org/sdg/SDGIO_00020173</title>
<path fill="none" stroke="black" d="M192.37,-148.03C236.92,-144.08 291.8,-139.22 342.02,-134.77"/>
<polygon fill="black" stroke="black" points="342.34,-138.26 351.99,-133.89 341.72,-131.28 342.34,-138.26"/>
<text text-anchor="middle" x="255.28" y="-148.8" font-family="Times,serif" font-size="14.00">subjectOf</text>
</g>
</g>
</svg>
