<?xml version="1.0" encoding="UTF-8" standalone="no"?>
<!DOCTYPE svg PUBLIC "-//W3C//DTD SVG 1.1//EN"
 "http://www.w3.org/Graphics/SVG/1.1/DTD/svg11.dtd">
<!-- Generated by graphviz version 5.0.0 (0)
 -->
<!-- Pages: 1 -->
<svg width="941pt" height="492pt"
 viewBox="0.00 0.00 940.94 492.00" xmlns="http://www.w3.org/2000/svg" xmlns:xlink="http://www.w3.org/1999/xlink">
<g id="graph0" class="graph" transform="scale(1 1) rotate(0) translate(4 488)">
<polygon fill="white" stroke="transparent" points="-4,4 -4,-488 936.94,-488 936.94,4 -4,4"/>
<!-- Dataset -->
<g id="node1" class="node">
<title>Dataset</title>
<ellipse fill="none" stroke="#558855" cx="488.37" cy="-331" rx="46.59" ry="18"/>
<text text-anchor="middle" x="488.37" y="-327.3" font-family="Times,serif" font-size="14.00">Dataset</text>
</g>
<!-- example.org/dataset/12345 -->
<g id="node2" class="node">
<title>example.org/dataset/12345</title>
<ellipse fill="none" stroke="black" cx="137.79" cy="-293" rx="137.58" ry="18"/>
<text text-anchor="middle" x="137.79" y="-289.3" font-family="Times,serif" font-size="14.00">example.org/dataset/12345</text>
</g>
<!-- example.org/dataset/12345&#45;&gt;Dataset -->
<g id="edge1" class="edge">
<title>example.org/dataset/12345&#45;&gt;Dataset</title>
<path fill="none" stroke="black" d="M244.32,-304.5C306.56,-311.29 382.73,-319.59 433.03,-325.08"/>
<polygon fill="black" stroke="black" points="432.72,-328.56 443.04,-326.17 433.48,-321.6 432.72,-328.56"/>
<text text-anchor="middle" x="358.58" y="-326.8" font-family="Times,serif" font-size="14.00">type</text>
</g>
<!-- _ -->
<g id="node3" class="node">
<title>_</title>
<ellipse fill="none" stroke="#558855" cx="488.37" cy="-266" rx="27" ry="18"/>
<text text-anchor="middle" x="488.37" y="-262.3" font-family="Times,serif" font-size="14.00">_</text>
</g>
<!-- example.org/dataset/12345&#45;&gt;_ -->
<g id="edge2" class="edge">
<title>example.org/dataset/12345&#45;&gt;_</title>
<path fill="none" stroke="black" d="M256.91,-283.9C308.14,-279.95 368.82,-275.26 423.58,-271 432.49,-270.31 442.11,-269.55 451.1,-268.85"/>
<polygon fill="black" stroke="black" points="451.6,-272.32 461.3,-268.05 451.06,-265.34 451.6,-272.32"/>
<text text-anchor="middle" x="358.58" y="-283.8" font-family="Times,serif" font-size="14.00">variableMeasured</text>
</g>
<!-- example.org/dataset/12345&#45;&gt;_ -->
<g id="edge3" class="edge">
<title>example.org/dataset/12345&#45;&gt;_</title>
<path fill="none" stroke="black" d="M188.67,-276.26C218.69,-267.09 257.88,-256.65 293.58,-252 350.87,-244.54 366.13,-245.77 423.58,-252 433.26,-253.05 443.63,-254.97 453.14,-257.06"/>
<polygon fill="black" stroke="black" points="452.5,-260.51 463.04,-259.36 454.09,-253.69 452.5,-260.51"/>
<text text-anchor="middle" x="358.58" y="-255.8" font-family="Times,serif" font-size="14.00">variableMeasured</text>
</g>
<!-- PropertyValue -->
<g id="node4" class="node">
<title>PropertyValue</title>
<ellipse fill="none" stroke="#558855" cx="792.55" cy="-453" rx="77.19" ry="18"/>
<text text-anchor="middle" x="792.55" y="-449.3" font-family="Times,serif" font-size="14.00">PropertyValue</text>
</g>
<!-- _&#45;&gt;PropertyValue -->
<g id="edge4" class="edge">
<title>_&#45;&gt;PropertyValue</title>
<path fill="none" stroke="black" d="M509.31,-277.61C518.7,-284.14 529.14,-293.17 535.17,-304 563.53,-354.97 510.74,-393.97 553.17,-434 599.05,-477.3 674.46,-475.89 728.17,-467.59"/>
<polygon fill="black" stroke="black" points="728.98,-471 738.27,-465.91 727.83,-464.1 728.98,-471"/>
<text text-anchor="middle" x="593.67" y="-472.8" font-family="Times,serif" font-size="14.00">type</text>
</g>
<!-- _&#45;&gt;PropertyValue -->
<g id="edge9" class="edge">
<title>_&#45;&gt;PropertyValue</title>
<path fill="none" stroke="black" d="M509.02,-277.78C518.33,-284.35 528.79,-293.37 535.17,-304 555.69,-338.24 526.02,-362.73 553.17,-392 578.62,-419.43 598.98,-402.26 634.17,-415 642.4,-417.98 643.84,-420.29 652.17,-423 673.7,-430.02 697.64,-435.85 719.52,-440.45"/>
<polygon fill="black" stroke="black" points="718.92,-443.9 729.42,-442.48 720.32,-437.04 718.92,-443.9"/>
<text text-anchor="middle" x="593.67" y="-418.8" font-family="Times,serif" font-size="14.00">type</text>
</g>
<!-- &quot;Sea State is the cha...&quot; -->
<g id="node5" class="node">
<title>&quot;Sea State is the cha...&quot;</title>
<ellipse fill="none" stroke="black" stroke-width="0" cx="792.55" cy="-396" rx="120.78" ry="18"/>
<text text-anchor="middle" x="792.55" y="-392.3" font-family="Times,serif" font-size="14.00">&quot;Sea State is the cha...&quot;</text>
</g>
<!-- _&#45;&gt;&quot;Sea State is the cha...&quot; -->
<g id="edge5" class="edge">
<title>_&#45;&gt;&quot;Sea State is the cha...&quot;</title>
<path fill="none" stroke="black" d="M508.13,-278.37C517.22,-285.1 527.75,-294.07 535.17,-304 547.32,-320.27 537.6,-332.96 553.17,-346 573.66,-363.16 632.02,-375.56 685.86,-383.72"/>
<polygon fill="black" stroke="black" points="685.45,-387.2 695.85,-385.19 686.47,-380.27 685.45,-387.2"/>
<text text-anchor="middle" x="593.67" y="-376.8" font-family="Times,serif" font-size="14.00">description</text>
</g>
<!-- &quot;Sea State&quot; -->
<g id="node6" class="node">
<title>&quot;Sea State&quot;</title>
<ellipse fill="none" stroke="black" stroke-width="0" cx="792.55" cy="-342" rx="64.19" ry="18"/>
<text text-anchor="middle" x="792.55" y="-338.3" font-family="Times,serif" font-size="14.00">&quot;Sea State&quot;</text>
</g>
<!-- _&#45;&gt;&quot;Sea State&quot; -->
<g id="edge6" class="edge">
<title>_&#45;&gt;&quot;Sea State&quot;</title>
<path fill="none" stroke="black" d="M506.17,-279.64C518.45,-288.88 535.91,-300.53 553.17,-307 606.38,-326.94 670.24,-335.57 718.46,-339.28"/>
<polygon fill="black" stroke="black" points="718.28,-342.78 728.51,-340 718.78,-335.8 718.28,-342.78"/>
<text text-anchor="middle" x="593.67" y="-330.8" font-family="Times,serif" font-size="14.00">name</text>
</g>
<!-- &quot;http//purl.obolibrar...&quot; -->
<g id="node7" class="node">
<title>&quot;http//purl.obolibrar...&quot;</title>
<ellipse fill="none" stroke="black" stroke-width="0" cx="792.55" cy="-288" rx="116.98" ry="18"/>
<text text-anchor="middle" x="792.55" y="-284.3" font-family="Times,serif" font-size="14.00">&quot;http//purl.obolibrar...&quot;</text>
</g>
<!-- _&#45;&gt;&quot;http//purl.obolibrar...&quot; -->
<g id="edge7" class="edge">
<title>_&#45;&gt;&quot;http//purl.obolibrar...&quot;</title>
<path fill="none" stroke="black" d="M513.36,-273.35C525.22,-276.64 539.82,-280.18 553.17,-282 589.63,-286.97 629.52,-289.21 666.05,-290.02"/>
<polygon fill="black" stroke="black" points="666.19,-293.52 676.26,-290.21 666.32,-286.52 666.19,-293.52"/>
<text text-anchor="middle" x="593.67" y="-291.8" font-family="Times,serif" font-size="14.00">propertyID</text>
</g>
<!-- _&#45;&gt;&quot;http//purl.obolibrar...&quot; -->
<g id="edge12" class="edge">
<title>_&#45;&gt;&quot;http//purl.obolibrar...&quot;</title>
<path fill="none" stroke="black" d="M515.43,-264.5C526.99,-263.9 540.75,-263.29 553.17,-263 589.16,-262.15 598.28,-260.17 634.17,-263 658.42,-264.91 684.58,-268.46 708.48,-272.3"/>
<polygon fill="black" stroke="black" points="708.14,-275.79 718.57,-273.96 709.27,-268.88 708.14,-275.79"/>
<text text-anchor="middle" x="593.67" y="-266.8" font-family="Times,serif" font-size="14.00">propertyID</text>
</g>
<!-- &quot;https//gcmd.earthdat...&quot; -->
<g id="node8" class="node">
<title>&quot;https//gcmd.earthdat...&quot;</title>
<ellipse fill="none" stroke="black" stroke-width="0" cx="792.55" cy="-234" rx="126.98" ry="18"/>
<text text-anchor="middle" x="792.55" y="-230.3" font-family="Times,serif" font-size="14.00">&quot;https//gcmd.earthdat...&quot;</text>
</g>
<!-- _&#45;&gt;&quot;https//gcmd.earthdat...&quot; -->
<g id="edge8" class="edge">
<title>_&#45;&gt;&quot;https//gcmd.earthdat...&quot;</title>
<path fill="none" stroke="black" d="M510.99,-255.85C523.11,-250.68 538.66,-244.89 553.17,-242 586.8,-235.3 623.63,-232.09 658.06,-230.83"/>
<polygon fill="black" stroke="black" points="658.29,-234.32 668.18,-230.51 658.07,-227.33 658.29,-234.32"/>
<text text-anchor="middle" x="593.67" y="-245.8" font-family="Times,serif" font-size="14.00">propertyID</text>
</g>
<!-- &quot;The 2&#45;dimensional ho...&quot; -->
<g id="node9" class="node">
<title>&quot;The 2&#45;dimensional ho...&quot;</title>
<ellipse fill="none" stroke="black" stroke-width="0" cx="792.55" cy="-180" rx="127.28" ry="18"/>
<text text-anchor="middle" x="792.55" y="-176.3" font-family="Times,serif" font-size="14.00">&quot;The 2&#45;dimensional ho...&quot;</text>
</g>
<!-- _&#45;&gt;&quot;The 2&#45;dimensional ho...&quot; -->
<g id="edge10" class="edge">
<title>_&#45;&gt;&quot;The 2&#45;dimensional ho...&quot;</title>
<path fill="none" stroke="black" d="M503.51,-250.57C515.5,-238.54 533.8,-222.48 553.17,-214 586.07,-199.59 623.74,-191.02 659.27,-186"/>
<polygon fill="black" stroke="black" points="659.78,-189.46 669.23,-184.68 658.86,-182.52 659.78,-189.46"/>
<text text-anchor="middle" x="593.67" y="-217.8" font-family="Times,serif" font-size="14.00">description</text>
</g>
<!-- &quot;Ocean Surface Stress&quot; -->
<g id="node10" class="node">
<title>&quot;Ocean Surface Stress&quot;</title>
<ellipse fill="none" stroke="black" stroke-width="0" cx="792.55" cy="-126" rx="119.68" ry="18"/>
<text text-anchor="middle" x="792.55" y="-122.3" font-family="Times,serif" font-size="14.00">&quot;Ocean Surface Stress&quot;</text>
</g>
<!-- _&#45;&gt;&quot;Ocean Surface Stress&quot; -->
<g id="edge11" class="edge">
<title>_&#45;&gt;&quot;Ocean Surface Stress&quot;</title>
<path fill="none" stroke="black" d="M496.4,-248.53C505.94,-227.18 525.08,-191.58 553.17,-173 586.43,-150.99 627.64,-138.83 666.39,-132.24"/>
<polygon fill="black" stroke="black" points="667.39,-135.63 676.72,-130.61 666.29,-128.72 667.39,-135.63"/>
<text text-anchor="middle" x="593.67" y="-176.8" font-family="Times,serif" font-size="14.00">name</text>
</g>
<!-- &quot;http//qudt.org/vocab...&quot; -->
<g id="node11" class="node">
<title>&quot;http//qudt.org/vocab...&quot;</title>
<ellipse fill="none" stroke="black" stroke-width="0" cx="792.55" cy="-72" rx="123.48" ry="18"/>
<text text-anchor="middle" x="792.55" y="-68.3" font-family="Times,serif" font-size="14.00">&quot;http//qudt.org/vocab...&quot;</text>
</g>
<!-- _&#45;&gt;&quot;http//qudt.org/vocab...&quot; -->
<g id="edge13" class="edge">
<title>_&#45;&gt;&quot;http//qudt.org/vocab...&quot;</title>
<path fill="none" stroke="black" d="M492.03,-247.69C497.53,-216.63 513.21,-153.81 553.17,-121 583.14,-96.39 622.27,-83.12 660.14,-76.24"/>
<polygon fill="black" stroke="black" points="660.97,-79.65 670.25,-74.54 659.81,-72.74 660.97,-79.65"/>
<text text-anchor="middle" x="593.67" y="-124.8" font-family="Times,serif" font-size="14.00">unitCode</text>
</g>
<!-- &quot;2.000000000000000E&#45;0...&quot; -->
<g id="node12" class="node">
<title>&quot;2.000000000000000E&#45;0...&quot;</title>
<ellipse fill="none" stroke="black" stroke-width="0" cx="792.55" cy="-18" rx="140.28" ry="18"/>
<text text-anchor="middle" x="792.55" y="-14.3" font-family="Times,serif" font-size="14.00">&quot;2.000000000000000E&#45;0...&quot;</text>
</g>
<!-- _&#45;&gt;&quot;2.000000000000000E&#45;0...&quot; -->
<g id="edge14" class="edge">
<title>_&#45;&gt;&quot;2.000000000000000E&#45;0...&quot;</title>
<path fill="none" stroke="black" d="M489.39,-247.78C490.47,-208.13 498.94,-113.66 553.17,-65 577.99,-42.72 610.22,-29.72 642.92,-22.39"/>
<polygon fill="black" stroke="black" points="643.99,-25.75 653.07,-20.3 642.57,-18.89 643.99,-25.75"/>
<text text-anchor="middle" x="593.67" y="-68.8" font-family="Times,serif" font-size="14.00">value</text>
</g>
</g>
</svg>
