<?xml version="1.0" encoding="UTF-8" standalone="no"?>
<!DOCTYPE svg PUBLIC "-//W3C//DTD SVG 1.1//EN"
 "http://www.w3.org/Graphics/SVG/1.1/DTD/svg11.dtd">
<!-- Generated by graphviz version 5.0.0 (0)
 -->
<!-- Pages: 1 -->
<svg width="1075pt" height="588pt"
 viewBox="0.00 0.00 1074.83 588.00" xmlns="http://www.w3.org/2000/svg" xmlns:xlink="http://www.w3.org/1999/xlink">
<g id="graph0" class="graph" transform="scale(1 1) rotate(0) translate(4 584)">
<polygon fill="white" stroke="transparent" points="-4,4 -4,-584 1070.83,-584 1070.83,4 -4,4"/>
<!-- DefinedTerm -->
<g id="node1" class="node">
<title>DefinedTerm</title>
<ellipse fill="none" stroke="#558855" cx="937.49" cy="-562" rx="70.39" ry="18"/>
<text text-anchor="middle" x="937.49" y="-558.3" font-family="Times,serif" font-size="14.00">DefinedTerm</text>
</g>
<!-- purl.org/dc/dcmitype/Image -->
<g id="node2" class="node">
<title>purl.org/dc/dcmitype/Image</title>
<ellipse fill="none" stroke="#558855" cx="480.97" cy="-470" rx="139.98" ry="18"/>
<text text-anchor="middle" x="480.97" y="-466.3" font-family="Times,serif" font-size="14.00">purl.org/dc/dcmitype/Image</text>
</g>
<!-- purl.org/dc/dcmitype/Image&#45;&gt;DefinedTerm -->
<g id="edge1" class="edge">
<title>purl.org/dc/dcmitype/Image&#45;&gt;DefinedTerm</title>
<path fill="none" stroke="black" d="M543.16,-486.24C577.43,-495.04 621.02,-505.78 660.15,-514 730.03,-528.68 810.51,-542.29 866.53,-551.24"/>
<polygon fill="black" stroke="black" points="866.27,-554.74 876.7,-552.85 867.37,-547.83 866.27,-554.74"/>
<text text-anchor="middle" x="725.15" y="-541.8" font-family="Times,serif" font-size="14.00">type</text>
</g>
<!-- &quot;http//purl.org/dc/te...&quot; -->
<g id="node3" class="node">
<title>&quot;http//purl.org/dc/te...&quot;</title>
<ellipse fill="none" stroke="black" stroke-width="0" cx="937.49" cy="-508" rx="116.98" ry="18"/>
<text text-anchor="middle" x="937.49" y="-504.3" font-family="Times,serif" font-size="14.00">&quot;http//purl.org/dc/te...&quot;</text>
</g>
<!-- purl.org/dc/dcmitype/Image&#45;&gt;&quot;http//purl.org/dc/te...&quot; -->
<g id="edge2" class="edge">
<title>purl.org/dc/dcmitype/Image&#45;&gt;&quot;http//purl.org/dc/te...&quot;</title>
<path fill="none" stroke="black" d="M598.72,-479.76C668.17,-485.57 755.81,-492.89 824.41,-498.63"/>
<polygon fill="black" stroke="black" points="824.13,-502.12 834.39,-499.46 824.72,-495.14 824.13,-502.12"/>
<text text-anchor="middle" x="725.15" y="-498.8" font-family="Times,serif" font-size="14.00">inDefinedTermSet</text>
</g>
<!-- &quot;Image&quot; -->
<g id="node4" class="node">
<title>&quot;Image&quot;</title>
<ellipse fill="none" stroke="black" stroke-width="0" cx="937.49" cy="-453" rx="48.19" ry="18"/>
<text text-anchor="middle" x="937.49" y="-449.3" font-family="Times,serif" font-size="14.00">&quot;Image&quot;</text>
</g>
<!-- purl.org/dc/dcmitype/Image&#45;&gt;&quot;Image&quot; -->
<g id="edge3" class="edge">
<title>purl.org/dc/dcmitype/Image&#45;&gt;&quot;Image&quot;</title>
<path fill="none" stroke="black" d="M615.27,-465.01C703.04,-461.73 813.51,-457.6 879.37,-455.14"/>
<polygon fill="black" stroke="black" points="879.69,-458.63 889.55,-454.76 879.43,-451.63 879.69,-458.63"/>
<text text-anchor="middle" x="725.15" y="-466.8" font-family="Times,serif" font-size="14.00">name</text>
</g>
<!-- purl.org/dc/dcmitype/Image&#45;&gt;&quot;Image&quot; -->
<g id="edge4" class="edge">
<title>purl.org/dc/dcmitype/Image&#45;&gt;&quot;Image&quot;</title>
<path fill="none" stroke="black" d="M553.99,-454.56C586.29,-448.39 624.96,-442.04 660.15,-439 717.72,-434.03 732.44,-436.25 790.15,-439 820.33,-440.44 853.89,-443.54 881.25,-446.46"/>
<polygon fill="black" stroke="black" points="881.09,-449.96 891.41,-447.57 881.85,-443.01 881.09,-449.96"/>
<text text-anchor="middle" x="725.15" y="-442.8" font-family="Times,serif" font-size="14.00">termCode</text>
</g>
<!-- PropertyValue -->
<g id="node5" class="node">
<title>PropertyValue</title>
<ellipse fill="none" stroke="#558855" cx="937.49" cy="-396" rx="77.19" ry="18"/>
<text text-anchor="middle" x="937.49" y="-392.3" font-family="Times,serif" font-size="14.00">PropertyValue</text>
</g>
<!-- doi.org/10.5066/F7VX0DMQ -->
<g id="node6" class="node">
<title>doi.org/10.5066/F7VX0DMQ</title>
<ellipse fill="none" stroke="#558855" cx="480.97" cy="-342" rx="141.88" ry="18"/>
<text text-anchor="middle" x="480.97" y="-338.3" font-family="Times,serif" font-size="14.00">doi.org/10.5066/F7VX0DMQ</text>
</g>
<!-- doi.org/10.5066/F7VX0DMQ&#45;&gt;PropertyValue -->
<g id="edge5" class="edge">
<title>doi.org/10.5066/F7VX0DMQ&#45;&gt;PropertyValue</title>
<path fill="none" stroke="black" d="M585.11,-354.25C667.91,-364.09 782.42,-377.7 857.92,-386.66"/>
<polygon fill="black" stroke="black" points="857.96,-390.19 868.3,-387.9 858.79,-383.24 857.96,-390.19"/>
<text text-anchor="middle" x="725.15" y="-381.8" font-family="Times,serif" font-size="14.00">type</text>
</g>
<!-- &quot;https//registry.iden...&quot; -->
<g id="node7" class="node">
<title>&quot;https//registry.iden...&quot;</title>
<ellipse fill="none" stroke="black" stroke-width="0" cx="937.49" cy="-342" rx="116.98" ry="18"/>
<text text-anchor="middle" x="937.49" y="-338.3" font-family="Times,serif" font-size="14.00">&quot;https//registry.iden...&quot;</text>
</g>
<!-- doi.org/10.5066/F7VX0DMQ&#45;&gt;&quot;https//registry.iden...&quot; -->
<g id="edge6" class="edge">
<title>doi.org/10.5066/F7VX0DMQ&#45;&gt;&quot;https//registry.iden...&quot;</title>
<path fill="none" stroke="black" d="M622.67,-342C682.68,-342 752.16,-342 810.47,-342"/>
<polygon fill="black" stroke="black" points="810.47,-345.5 820.47,-342 810.47,-338.5 810.47,-345.5"/>
<text text-anchor="middle" x="725.15" y="-345.8" font-family="Times,serif" font-size="14.00">propertyID</text>
</g>
<!-- &quot;https//doi.org/10.50...&quot; -->
<g id="node8" class="node">
<title>&quot;https//doi.org/10.50...&quot;</title>
<ellipse fill="none" stroke="black" stroke-width="0" cx="937.49" cy="-288" rx="120.48" ry="18"/>
<text text-anchor="middle" x="937.49" y="-284.3" font-family="Times,serif" font-size="14.00">&quot;https//doi.org/10.50...&quot;</text>
</g>
<!-- doi.org/10.5066/F7VX0DMQ&#45;&gt;&quot;https//doi.org/10.50...&quot; -->
<g id="edge7" class="edge">
<title>doi.org/10.5066/F7VX0DMQ&#45;&gt;&quot;https//doi.org/10.50...&quot;</title>
<path fill="none" stroke="black" d="M585.11,-329.75C659.03,-320.96 758.22,-309.18 832.37,-300.37"/>
<polygon fill="black" stroke="black" points="833.14,-303.8 842.66,-299.15 832.31,-296.85 833.14,-303.8"/>
<text text-anchor="middle" x="725.15" y="-322.8" font-family="Times,serif" font-size="14.00">url</text>
</g>
<!-- &quot;doi10.5066/F7VX0DMQ&quot; -->
<g id="node9" class="node">
<title>&quot;doi10.5066/F7VX0DMQ&quot;</title>
<ellipse fill="none" stroke="black" stroke-width="0" cx="937.49" cy="-234" rx="129.18" ry="18"/>
<text text-anchor="middle" x="937.49" y="-230.3" font-family="Times,serif" font-size="14.00">&quot;doi10.5066/F7VX0DMQ&quot;</text>
</g>
<!-- doi.org/10.5066/F7VX0DMQ&#45;&gt;&quot;doi10.5066/F7VX0DMQ&quot; -->
<g id="edge8" class="edge">
<title>doi.org/10.5066/F7VX0DMQ&#45;&gt;&quot;doi10.5066/F7VX0DMQ&quot;</title>
<path fill="none" stroke="black" d="M603.46,-332.95C617.2,-328.68 630.45,-322.86 642.15,-315 654.75,-306.55 647.64,-294.57 660.15,-286 700.57,-258.31 751.77,-244.34 799.08,-237.59"/>
<polygon fill="black" stroke="black" points="799.67,-241.04 809.12,-236.25 798.74,-234.1 799.67,-241.04"/>
<text text-anchor="middle" x="725.15" y="-289.8" font-family="Times,serif" font-size="14.00">value</text>
</g>
<!-- Map -->
<g id="node10" class="node">
<title>Map</title>
<ellipse fill="none" stroke="#558855" cx="480.97" cy="-288" rx="31.4" ry="18"/>
<text text-anchor="middle" x="480.97" y="-284.3" font-family="Times,serif" font-size="14.00">Map</text>
</g>
<!-- example.org/id/XYZ -->
<g id="node11" class="node">
<title>example.org/id/XYZ</title>
<ellipse fill="none" stroke="black" cx="101.39" cy="-207" rx="101.28" ry="18"/>
<text text-anchor="middle" x="101.39" y="-203.3" font-family="Times,serif" font-size="14.00">example.org/id/XYZ</text>
</g>
<!-- example.org/id/XYZ&#45;&gt;purl.org/dc/dcmitype/Image -->
<g id="edge13" class="edge">
<title>example.org/id/XYZ&#45;&gt;purl.org/dc/dcmitype/Image</title>
<path fill="none" stroke="black" d="M117.06,-225.05C138.14,-250.24 179.1,-296.39 220.78,-328 288.28,-379.18 376.51,-423.4 430.66,-448.36"/>
<polygon fill="black" stroke="black" points="429.48,-451.67 440.03,-452.64 432.39,-445.3 429.48,-451.67"/>
<text text-anchor="middle" x="261.28" y="-380.8" font-family="Times,serif" font-size="14.00">keywords</text>
</g>
<!-- example.org/id/XYZ&#45;&gt;doi.org/10.5066/F7VX0DMQ -->
<g id="edge11" class="edge">
<title>example.org/id/XYZ&#45;&gt;doi.org/10.5066/F7VX0DMQ</title>
<path fill="none" stroke="black" d="M129.49,-224.39C153.08,-239.14 188.46,-260.33 220.78,-276 263.33,-296.63 274.22,-302.33 319.78,-315 336.75,-319.72 354.97,-323.74 372.82,-327.12"/>
<polygon fill="black" stroke="black" points="372.22,-330.57 382.69,-328.94 373.49,-323.69 372.22,-330.57"/>
<text text-anchor="middle" x="261.28" y="-312.8" font-family="Times,serif" font-size="14.00">identifier</text>
</g>
<!-- example.org/id/XYZ&#45;&gt;Map -->
<g id="edge9" class="edge">
<title>example.org/id/XYZ&#45;&gt;Map</title>
<path fill="none" stroke="black" d="M156.48,-222.17C176.62,-227.68 199.69,-233.81 220.78,-239 264.55,-249.77 275.54,-252.36 319.78,-261 360.87,-269.02 408.16,-276.82 440.65,-281.95"/>
<polygon fill="black" stroke="black" points="440.23,-285.43 450.66,-283.53 441.32,-278.52 440.23,-285.43"/>
<text text-anchor="middle" x="261.28" y="-260.8" font-family="Times,serif" font-size="14.00">type</text>
</g>
<!-- &quot;Description of the m...&quot; -->
<g id="node12" class="node">
<title>&quot;Description of the m...&quot;</title>
<ellipse fill="none" stroke="black" stroke-width="0" cx="480.97" cy="-234" rx="123.48" ry="18"/>
<text text-anchor="middle" x="480.97" y="-230.3" font-family="Times,serif" font-size="14.00">&quot;Description of the m...&quot;</text>
</g>
<!-- example.org/id/XYZ&#45;&gt;&quot;Description of the m...&quot; -->
<g id="edge10" class="edge">
<title>example.org/id/XYZ&#45;&gt;&quot;Description of the m...&quot;</title>
<path fill="none" stroke="black" d="M195.72,-213.67C245.17,-217.21 306.47,-221.59 359.46,-225.38"/>
<polygon fill="black" stroke="black" points="359.38,-228.89 369.6,-226.11 359.88,-221.9 359.38,-228.89"/>
<text text-anchor="middle" x="261.28" y="-223.8" font-family="Times,serif" font-size="14.00">description</text>
</g>
<!-- &quot;Region X&quot; -->
<g id="node13" class="node">
<title>&quot;Region X&quot;</title>
<ellipse fill="none" stroke="black" stroke-width="0" cx="480.97" cy="-180" rx="61.19" ry="18"/>
<text text-anchor="middle" x="480.97" y="-176.3" font-family="Times,serif" font-size="14.00">&quot;Region X&quot;</text>
</g>
<!-- example.org/id/XYZ&#45;&gt;&quot;Region X&quot; -->
<g id="edge12" class="edge">
<title>example.org/id/XYZ&#45;&gt;&quot;Region X&quot;</title>
<path fill="none" stroke="black" d="M190.93,-198.47C201,-197.59 211.11,-196.75 220.78,-196 285.05,-191.03 358.37,-186.62 410.59,-183.7"/>
<polygon fill="black" stroke="black" points="410.95,-187.18 420.74,-183.13 410.56,-180.19 410.95,-187.18"/>
<text text-anchor="middle" x="261.28" y="-199.8" font-family="Times,serif" font-size="14.00">keywords</text>
</g>
<!-- www.wikidata.org/wiki/Q350134 -->
<g id="node14" class="node">
<title>www.wikidata.org/wiki/Q350134</title>
<ellipse fill="none" stroke="#558855" cx="480.97" cy="-126" rx="161.37" ry="18"/>
<text text-anchor="middle" x="480.97" y="-122.3" font-family="Times,serif" font-size="14.00">www.wikidata.org/wiki/Q350134</text>
</g>
<!-- example.org/id/XYZ&#45;&gt;www.wikidata.org/wiki/Q350134 -->
<g id="edge14" class="edge">
<title>example.org/id/XYZ&#45;&gt;www.wikidata.org/wiki/Q350134</title>
<path fill="none" stroke="black" d="M150.14,-191.11C171.58,-184.33 197.29,-176.69 220.78,-171 269.48,-159.21 324.03,-149.26 370.48,-141.74"/>
<polygon fill="black" stroke="black" points="371.25,-145.16 380.57,-140.13 370.14,-138.25 371.25,-145.16"/>
<text text-anchor="middle" x="261.28" y="-174.8" font-family="Times,serif" font-size="14.00">keywords</text>
</g>
<!-- &quot;Name or title of the...&quot; -->
<g id="node15" class="node">
<title>&quot;Name or title of the...&quot;</title>
<ellipse fill="none" stroke="black" stroke-width="0" cx="480.97" cy="-72" rx="120.48" ry="18"/>
<text text-anchor="middle" x="480.97" y="-68.3" font-family="Times,serif" font-size="14.00">&quot;Name or title of the...&quot;</text>
</g>
<!-- example.org/id/XYZ&#45;&gt;&quot;Name or title of the...&quot; -->
<g id="edge15" class="edge">
<title>example.org/id/XYZ&#45;&gt;&quot;Name or title of the...&quot;</title>
<path fill="none" stroke="black" d="M127.89,-189.45C151.33,-173.83 187.38,-151.03 220.78,-135 262.99,-114.74 274.51,-110.94 319.78,-99 339.47,-93.81 360.79,-89.4 381.26,-85.74"/>
<polygon fill="black" stroke="black" points="381.97,-89.17 391.22,-84 380.77,-82.27 381.97,-89.17"/>
<text text-anchor="middle" x="261.28" y="-138.8" font-family="Times,serif" font-size="14.00">name</text>
</g>
<!-- &quot;https//www.sample&#45;da...&quot; -->
<g id="node16" class="node">
<title>&quot;https//www.sample&#45;da...&quot;</title>
<ellipse fill="none" stroke="black" stroke-width="0" cx="480.97" cy="-18" rx="131.08" ry="18"/>
<text text-anchor="middle" x="480.97" y="-14.3" font-family="Times,serif" font-size="14.00">&quot;https//www.sample&#45;da...&quot;</text>
</g>
<!-- example.org/id/XYZ&#45;&gt;&quot;https//www.sample&#45;da...&quot; -->
<g id="edge16" class="edge">
<title>example.org/id/XYZ&#45;&gt;&quot;https//www.sample&#45;da...&quot;</title>
<path fill="none" stroke="black" d="M115.84,-188.97C136.08,-162.92 176.7,-114.65 220.78,-85 263.35,-56.36 317.41,-39.96 365.13,-30.57"/>
<polygon fill="black" stroke="black" points="366.03,-33.96 375.21,-28.67 364.73,-27.09 366.03,-33.96"/>
<text text-anchor="middle" x="261.28" y="-88.8" font-family="Times,serif" font-size="14.00">url</text>
</g>
<!-- URL -->
<g id="node17" class="node">
<title>URL</title>
<ellipse fill="none" stroke="#558855" cx="937.49" cy="-180" rx="31.4" ry="18"/>
<text text-anchor="middle" x="937.49" y="-176.3" font-family="Times,serif" font-size="14.00">URL</text>
</g>
<!-- www.wikidata.org/wiki/Q350134&#45;&gt;URL -->
<g id="edge17" class="edge">
<title>www.wikidata.org/wiki/Q350134&#45;&gt;URL</title>
<path fill="none" stroke="black" d="M592,-139.07C690.25,-150.75 828.78,-167.2 896.31,-175.23"/>
<polygon fill="black" stroke="black" points="896.18,-178.74 906.53,-176.44 897.01,-171.78 896.18,-178.74"/>
<text text-anchor="middle" x="725.15" y="-165.8" font-family="Times,serif" font-size="14.00">type</text>
</g>
<!-- &quot;North Atlantic Ocean&quot; -->
<g id="node18" class="node">
<title>&quot;North Atlantic Ocean&quot;</title>
<ellipse fill="none" stroke="black" stroke-width="0" cx="937.49" cy="-126" rx="117.78" ry="18"/>
<text text-anchor="middle" x="937.49" y="-122.3" font-family="Times,serif" font-size="14.00">&quot;North Atlantic Ocean&quot;</text>
</g>
<!-- www.wikidata.org/wiki/Q350134&#45;&gt;&quot;North Atlantic Ocean&quot; -->
<g id="edge18" class="edge">
<title>www.wikidata.org/wiki/Q350134&#45;&gt;&quot;North Atlantic Ocean&quot;</title>
<path fill="none" stroke="black" d="M642.22,-126C697.09,-126 757.68,-126 809.55,-126"/>
<polygon fill="black" stroke="black" points="809.81,-129.5 819.81,-126 809.81,-122.5 809.81,-129.5"/>
<text text-anchor="middle" x="725.15" y="-129.8" font-family="Times,serif" font-size="14.00">name</text>
</g>
<!-- &quot;https//www.wikidata....&quot; -->
<g id="node19" class="node">
<title>&quot;https//www.wikidata....&quot;</title>
<ellipse fill="none" stroke="black" stroke-width="0" cx="937.49" cy="-72" rx="126.18" ry="18"/>
<text text-anchor="middle" x="937.49" y="-68.3" font-family="Times,serif" font-size="14.00">&quot;https//www.wikidata....&quot;</text>
</g>
<!-- www.wikidata.org/wiki/Q350134&#45;&gt;&quot;https//www.wikidata....&quot; -->
<g id="edge19" class="edge">
<title>www.wikidata.org/wiki/Q350134&#45;&gt;&quot;https//www.wikidata....&quot;</title>
<path fill="none" stroke="black" d="M592,-112.93C664.26,-104.34 758.31,-93.17 829.88,-84.67"/>
<polygon fill="black" stroke="black" points="830.3,-88.14 839.82,-83.49 829.48,-81.19 830.3,-88.14"/>
<text text-anchor="middle" x="725.15" y="-106.8" font-family="Times,serif" font-size="14.00">url</text>
</g>
</g>
</svg>
