<?xml version="1.0" encoding="UTF-8" standalone="no"?>
<!DOCTYPE svg PUBLIC "-//W3C//DTD SVG 1.1//EN"
 "http://www.w3.org/Graphics/SVG/1.1/DTD/svg11.dtd">
<!-- Generated by graphviz version 5.0.0 (0)
 -->
<!-- Pages: 1 -->
<svg width="811pt" height="266pt"
 viewBox="0.00 0.00 811.25 266.00" xmlns="http://www.w3.org/2000/svg" xmlns:xlink="http://www.w3.org/1999/xlink">
<g id="graph0" class="graph" transform="scale(1 1) rotate(0) translate(4 262)">
<polygon fill="white" stroke="transparent" points="-4,4 -4,-262 807.25,-262 807.25,4 -4,4"/>
<!-- Dataset -->
<g id="node1" class="node">
<title>Dataset</title>
<ellipse fill="none" stroke="#558855" cx="441.87" cy="-240" rx="46.59" ry="18"/>
<text text-anchor="middle" x="441.87" y="-236.3" font-family="Times,serif" font-size="14.00">Dataset</text>
</g>
<!-- example.org/id/XYZ -->
<g id="node2" class="node">
<title>example.org/id/XYZ</title>
<ellipse fill="none" stroke="black" cx="101.39" cy="-186" rx="101.28" ry="18"/>
<text text-anchor="middle" x="101.39" y="-182.3" font-family="Times,serif" font-size="14.00">example.org/id/XYZ</text>
</g>
<!-- example.org/id/XYZ&#45;&gt;Dataset -->
<g id="edge1" class="edge">
<title>example.org/id/XYZ&#45;&gt;Dataset</title>
<path fill="none" stroke="black" d="M177.23,-198.03C191.68,-200.34 206.7,-202.75 220.78,-205 278.03,-214.14 343.65,-224.57 388.24,-231.65"/>
<polygon fill="black" stroke="black" points="387.84,-235.13 398.27,-233.24 388.94,-228.22 387.84,-235.13"/>
<text text-anchor="middle" x="278.78" y="-226.8" font-family="Times,serif" font-size="14.00">type</text>
</g>
<!-- &quot;Data set name&quot; -->
<g id="node3" class="node">
<title>&quot;Data set name&quot;</title>
<ellipse fill="none" stroke="black" stroke-width="0" cx="441.87" cy="-186" rx="87.18" ry="18"/>
<text text-anchor="middle" x="441.87" y="-182.3" font-family="Times,serif" font-size="14.00">&quot;Data set name&quot;</text>
</g>
<!-- example.org/id/XYZ&#45;&gt;&quot;Data set name&quot; -->
<g id="edge2" class="edge">
<title>example.org/id/XYZ&#45;&gt;&quot;Data set name&quot;</title>
<path fill="none" stroke="black" d="M203.03,-186C247.78,-186 300.22,-186 344.47,-186"/>
<polygon fill="black" stroke="black" points="344.65,-189.5 354.65,-186 344.65,-182.5 344.65,-189.5"/>
<text text-anchor="middle" x="278.78" y="-189.8" font-family="Times,serif" font-size="14.00">name</text>
</g>
<!-- _ -->
<g id="node4" class="node">
<title>_</title>
<ellipse fill="none" stroke="#558855" cx="441.87" cy="-99" rx="27" ry="18"/>
<text text-anchor="middle" x="441.87" y="-95.3" font-family="Times,serif" font-size="14.00">_</text>
</g>
<!-- example.org/id/XYZ&#45;&gt;_ -->
<g id="edge3" class="edge">
<title>example.org/id/XYZ&#45;&gt;_</title>
<path fill="none" stroke="black" d="M159.81,-171.24C230.63,-153.04 348.72,-122.69 406.68,-107.79"/>
<polygon fill="black" stroke="black" points="407.63,-111.16 416.44,-105.28 405.89,-104.38 407.63,-111.16"/>
<text text-anchor="middle" x="278.78" y="-158.8" font-family="Times,serif" font-size="14.00">spatialCoverage</text>
</g>
<!-- _&#45;&gt;_ -->
<g id="edge8" class="edge">
<title>_&#45;&gt;_</title>
<path fill="none" stroke="black" d="M421.31,-110.8C409.95,-122.33 416.81,-135 441.87,-135 460.67,-135 469.23,-127.87 467.54,-119.45"/>
<polygon fill="black" stroke="black" points="470.53,-117.63 462.44,-110.8 464.51,-121.19 470.53,-117.63"/>
<text text-anchor="middle" x="441.87" y="-138.8" font-family="Times,serif" font-size="14.00">geo</text>
</g>
<!-- GeoCoordinates -->
<g id="node5" class="node">
<title>GeoCoordinates</title>
<ellipse fill="none" stroke="#558855" cx="718.11" cy="-180" rx="85.29" ry="18"/>
<text text-anchor="middle" x="718.11" y="-176.3" font-family="Times,serif" font-size="14.00">GeoCoordinates</text>
</g>
<!-- _&#45;&gt;GeoCoordinates -->
<g id="edge4" class="edge">
<title>_&#45;&gt;GeoCoordinates</title>
<path fill="none" stroke="black" d="M466.31,-107.33C487.32,-114.69 519.05,-125.54 546.97,-134 581.87,-144.57 621.14,-155.27 653.16,-163.69"/>
<polygon fill="black" stroke="black" points="652.29,-167.08 662.85,-166.22 654.06,-160.3 652.29,-167.08"/>
<text text-anchor="middle" x="580.97" y="-155.8" font-family="Times,serif" font-size="14.00">type</text>
</g>
<!-- &quot;3.9328E1&quot; -->
<g id="node6" class="node">
<title>&quot;3.9328E1&quot;</title>
<ellipse fill="none" stroke="black" stroke-width="0" cx="718.11" cy="-126" rx="64.19" ry="18"/>
<text text-anchor="middle" x="718.11" y="-122.3" font-family="Times,serif" font-size="14.00">&quot;3.9328E1&quot;</text>
</g>
<!-- _&#45;&gt;&quot;3.9328E1&quot; -->
<g id="edge5" class="edge">
<title>_&#45;&gt;&quot;3.9328E1&quot;</title>
<path fill="none" stroke="black" d="M468.67,-101.54C509.05,-105.52 588.57,-113.34 646.81,-119.08"/>
<polygon fill="black" stroke="black" points="646.76,-122.59 657.05,-120.09 647.44,-115.62 646.76,-122.59"/>
<text text-anchor="middle" x="580.97" y="-118.8" font-family="Times,serif" font-size="14.00">latitude</text>
</g>
<!-- &quot;1.201633E2&quot; -->
<g id="node7" class="node">
<title>&quot;1.201633E2&quot;</title>
<ellipse fill="none" stroke="black" stroke-width="0" cx="718.11" cy="-72" rx="76.09" ry="18"/>
<text text-anchor="middle" x="718.11" y="-68.3" font-family="Times,serif" font-size="14.00">&quot;1.201633E2&quot;</text>
</g>
<!-- _&#45;&gt;&quot;1.201633E2&quot; -->
<g id="edge6" class="edge">
<title>_&#45;&gt;&quot;1.201633E2&quot;</title>
<path fill="none" stroke="black" d="M468.67,-96.46C506.91,-92.7 580.26,-85.47 637.38,-79.85"/>
<polygon fill="black" stroke="black" points="637.88,-83.32 647.49,-78.85 637.19,-76.35 637.88,-83.32"/>
<text text-anchor="middle" x="580.97" y="-91.8" font-family="Times,serif" font-size="14.00">longitude</text>
</g>
<!-- Place -->
<g id="node8" class="node">
<title>Place</title>
<ellipse fill="none" stroke="#558855" cx="718.11" cy="-18" rx="36" ry="18"/>
<text text-anchor="middle" x="718.11" y="-14.3" font-family="Times,serif" font-size="14.00">Place</text>
</g>
<!-- _&#45;&gt;Place -->
<g id="edge7" class="edge">
<title>_&#45;&gt;Place</title>
<path fill="none" stroke="black" d="M465.87,-90.5C486.85,-82.87 518.8,-71.58 546.97,-63 590.59,-49.71 641.19,-36.62 675.79,-28.01"/>
<polygon fill="black" stroke="black" points="676.69,-31.4 685.55,-25.6 675,-24.6 676.69,-31.4"/>
<text text-anchor="middle" x="580.97" y="-66.8" font-family="Times,serif" font-size="14.00">type</text>
</g>
</g>
</svg>
