<?xml version="1.0" encoding="UTF-8" standalone="no"?>
<!DOCTYPE svg PUBLIC "-//W3C//DTD SVG 1.1//EN"
 "http://www.w3.org/Graphics/SVG/1.1/DTD/svg11.dtd">
<!-- Generated by graphviz version 5.0.0 (0)
 -->
<!-- Pages: 1 -->
<svg width="1132pt" height="878pt"
 viewBox="0.00 0.00 1131.92 878.00" xmlns="http://www.w3.org/2000/svg" xmlns:xlink="http://www.w3.org/1999/xlink">
<g id="graph0" class="graph" transform="scale(1 1) rotate(0) translate(4 874)">
<polygon fill="white" stroke="transparent" points="-4,4 -4,-874 1127.92,-874 1127.92,4 -4,4"/>
<!-- Organization -->
<g id="node1" class="node">
<title>Organization</title>
<ellipse fill="none" stroke="#558855" cx="989.39" cy="-828" rx="70.69" ry="18"/>
<text text-anchor="middle" x="989.39" y="-824.3" font-family="Times,serif" font-size="14.00">Organization</text>
</g>
<!-- example.org/id/org/1 -->
<g id="node2" class="node">
<title>example.org/id/org/1</title>
<ellipse fill="none" stroke="#558855" cx="546.61" cy="-740" rx="107.48" ry="18"/>
<text text-anchor="middle" x="546.61" y="-736.3" font-family="Times,serif" font-size="14.00">example.org/id/org/1</text>
</g>
<!-- example.org/id/org/1&#45;&gt;Organization -->
<g id="edge1" class="edge">
<title>example.org/id/org/1&#45;&gt;Organization</title>
<path fill="none" stroke="black" d="M614.96,-753.88C647.79,-760.61 687.87,-768.79 723.85,-776 791.54,-789.57 869.04,-804.76 922.58,-815.21"/>
<polygon fill="black" stroke="black" points="922.14,-818.69 932.62,-817.16 923.48,-811.81 922.14,-818.69"/>
<text text-anchor="middle" x="780.35" y="-800.8" font-family="Times,serif" font-size="14.00">type</text>
</g>
<!-- &quot;Org A is a potential...&quot; -->
<g id="node3" class="node">
<title>&quot;Org A is a potential...&quot;</title>
<ellipse fill="none" stroke="black" stroke-width="0" cx="989.39" cy="-774" rx="118.08" ry="18"/>
<text text-anchor="middle" x="989.39" y="-770.3" font-family="Times,serif" font-size="14.00">&quot;Org A is a potential...&quot;</text>
</g>
<!-- example.org/id/org/1&#45;&gt;&quot;Org A is a potential...&quot; -->
<g id="edge2" class="edge">
<title>example.org/id/org/1&#45;&gt;&quot;Org A is a potential...&quot;</title>
<path fill="none" stroke="black" d="M646.03,-746.82C701.99,-750.79 773.36,-755.97 836.85,-761 849.64,-762.01 863.04,-763.11 876.36,-764.22"/>
<polygon fill="black" stroke="black" points="876.25,-767.73 886.51,-765.08 876.84,-760.75 876.25,-767.73"/>
<text text-anchor="middle" x="780.35" y="-764.8" font-family="Times,serif" font-size="14.00">description</text>
</g>
<!-- &quot;Organization A&quot; -->
<g id="node4" class="node">
<title>&quot;Organization A&quot;</title>
<ellipse fill="none" stroke="black" stroke-width="0" cx="989.39" cy="-720" rx="89.08" ry="18"/>
<text text-anchor="middle" x="989.39" y="-716.3" font-family="Times,serif" font-size="14.00">&quot;Organization A&quot;</text>
</g>
<!-- example.org/id/org/1&#45;&gt;&quot;Organization A&quot; -->
<g id="edge3" class="edge">
<title>example.org/id/org/1&#45;&gt;&quot;Organization A&quot;</title>
<path fill="none" stroke="black" d="M636.25,-729.97C664.24,-727.2 695.3,-724.54 723.85,-723 778.88,-720.04 840.43,-719.19 890.31,-719.13"/>
<polygon fill="black" stroke="black" points="890.45,-722.63 900.45,-719.13 890.45,-715.63 890.45,-722.63"/>
<text text-anchor="middle" x="780.35" y="-726.8" font-family="Times,serif" font-size="14.00">name</text>
</g>
<!-- PropertyValue -->
<g id="node5" class="node">
<title>PropertyValue</title>
<ellipse fill="none" stroke="#558855" cx="989.39" cy="-666" rx="77.19" ry="18"/>
<text text-anchor="middle" x="989.39" y="-662.3" font-family="Times,serif" font-size="14.00">PropertyValue</text>
</g>
<!-- grid.ac/institutes/grid.475727.4 -->
<g id="node6" class="node">
<title>grid.ac/institutes/grid.475727.4</title>
<ellipse fill="none" stroke="#558855" cx="546.61" cy="-558" rx="159.47" ry="18"/>
<text text-anchor="middle" x="546.61" y="-554.3" font-family="Times,serif" font-size="14.00">grid.ac/institutes/grid.475727.4</text>
</g>
<!-- grid.ac/institutes/grid.475727.4&#45;&gt;PropertyValue -->
<g id="edge4" class="edge">
<title>grid.ac/institutes/grid.475727.4&#45;&gt;PropertyValue</title>
<path fill="none" stroke="black" d="M600.12,-575.02C635,-586.02 681.92,-600.23 723.85,-611 781.51,-625.81 796.56,-626.88 854.85,-639 876.14,-643.43 899.36,-648.16 920.38,-652.4"/>
<polygon fill="black" stroke="black" points="919.69,-655.83 930.18,-654.38 921.07,-648.97 919.69,-655.83"/>
<text text-anchor="middle" x="780.35" y="-638.8" font-family="Times,serif" font-size="14.00">type</text>
</g>
<!-- &quot;UN Department of Eco...&quot; -->
<g id="node7" class="node">
<title>&quot;UN Department of Eco...&quot;</title>
<ellipse fill="none" stroke="black" stroke-width="0" cx="989.39" cy="-612" rx="134.58" ry="18"/>
<text text-anchor="middle" x="989.39" y="-608.3" font-family="Times,serif" font-size="14.00">&quot;UN Department of Eco...&quot;</text>
</g>
<!-- grid.ac/institutes/grid.475727.4&#45;&gt;&quot;UN Department of Eco...&quot; -->
<g id="edge5" class="edge">
<title>grid.ac/institutes/grid.475727.4&#45;&gt;&quot;UN Department of Eco...&quot;</title>
<path fill="none" stroke="black" d="M655.16,-571.18C723.29,-579.52 811.13,-590.28 879.51,-598.66"/>
<polygon fill="black" stroke="black" points="879.11,-602.14 889.46,-599.88 879.96,-595.19 879.11,-602.14"/>
<text text-anchor="middle" x="780.35" y="-595.8" font-family="Times,serif" font-size="14.00">description</text>
</g>
<!-- &quot;https//registry.iden...&quot; -->
<g id="node8" class="node">
<title>&quot;https//registry.iden...&quot;</title>
<ellipse fill="none" stroke="black" stroke-width="0" cx="989.39" cy="-558" rx="116.98" ry="18"/>
<text text-anchor="middle" x="989.39" y="-554.3" font-family="Times,serif" font-size="14.00">&quot;https//registry.iden...&quot;</text>
</g>
<!-- grid.ac/institutes/grid.475727.4&#45;&gt;&quot;https//registry.iden...&quot; -->
<g id="edge6" class="edge">
<title>grid.ac/institutes/grid.475727.4&#45;&gt;&quot;https//registry.iden...&quot;</title>
<path fill="none" stroke="black" d="M706.12,-558C757.39,-558 813.52,-558 862.12,-558"/>
<polygon fill="black" stroke="black" points="862.38,-561.5 872.38,-558 862.38,-554.5 862.38,-561.5"/>
<text text-anchor="middle" x="780.35" y="-561.8" font-family="Times,serif" font-size="14.00">propertyID</text>
</g>
<!-- &quot;https//grid.ac/insti...&quot; -->
<g id="node9" class="node">
<title>&quot;https//grid.ac/insti...&quot;</title>
<ellipse fill="none" stroke="black" stroke-width="0" cx="989.39" cy="-504" rx="114.28" ry="18"/>
<text text-anchor="middle" x="989.39" y="-500.3" font-family="Times,serif" font-size="14.00">&quot;https//grid.ac/insti...&quot;</text>
</g>
<!-- grid.ac/institutes/grid.475727.4&#45;&gt;&quot;https//grid.ac/insti...&quot; -->
<g id="edge7" class="edge">
<title>grid.ac/institutes/grid.475727.4&#45;&gt;&quot;https//grid.ac/insti...&quot;</title>
<path fill="none" stroke="black" d="M655.16,-544.82C726.32,-536.11 818.99,-524.75 888.54,-516.23"/>
<polygon fill="black" stroke="black" points="889.12,-519.69 898.62,-515 888.27,-512.74 889.12,-519.69"/>
<text text-anchor="middle" x="780.35" y="-538.8" font-family="Times,serif" font-size="14.00">url</text>
</g>
<!-- index.example.org/id/org/x -->
<g id="node10" class="node">
<title>index.example.org/id/org/x</title>
<ellipse fill="none" stroke="black" cx="135.19" cy="-280" rx="135.38" ry="18"/>
<text text-anchor="middle" x="135.19" y="-276.3" font-family="Times,serif" font-size="14.00">index.example.org/id/org/x</text>
</g>
<!-- index.example.org/id/org/x&#45;&gt;Organization -->
<g id="edge8" class="edge">
<title>index.example.org/id/org/x&#45;&gt;Organization</title>
<path fill="none" stroke="black" d="M139.34,-298.05C153.1,-371.06 215.21,-646.33 387.38,-767 550.94,-881.64 803.77,-859.47 922.52,-840.6"/>
<polygon fill="black" stroke="black" points="923.25,-844.03 932.56,-838.96 922.12,-837.12 923.25,-844.03"/>
<text text-anchor="middle" x="546.61" y="-858.8" font-family="Times,serif" font-size="14.00">type</text>
</g>
<!-- index.example.org/id/org/x&#45;&gt;example.org/id/org/1 -->
<g id="edge14" class="edge">
<title>index.example.org/id/org/x&#45;&gt;example.org/id/org/1</title>
<path fill="none" stroke="black" d="M149.99,-298.09C186.9,-346.18 291.62,-480.62 387.38,-585 431.35,-632.94 486.3,-685.2 518.52,-715.14"/>
<polygon fill="black" stroke="black" points="516.49,-718.03 526.2,-722.26 521.25,-712.89 516.49,-718.03"/>
<text text-anchor="middle" x="328.88" y="-564.8" font-family="Times,serif" font-size="14.00">member</text>
</g>
<!-- index.example.org/id/org/x&#45;&gt;grid.ac/institutes/grid.475727.4 -->
<g id="edge12" class="edge">
<title>index.example.org/id/org/x&#45;&gt;grid.ac/institutes/grid.475727.4</title>
<path fill="none" stroke="black" d="M162.42,-297.81C233.69,-346.2 430.88,-480.09 511.05,-534.53"/>
<polygon fill="black" stroke="black" points="509.09,-537.43 519.33,-540.16 513.02,-531.64 509.09,-537.43"/>
<text text-anchor="middle" x="328.88" y="-438.8" font-family="Times,serif" font-size="14.00">identifier</text>
</g>
<!-- _ -->
<g id="node11" class="node">
<title>_</title>
<ellipse fill="none" stroke="#558855" cx="546.61" cy="-342" rx="27" ry="18"/>
<text text-anchor="middle" x="546.61" y="-338.3" font-family="Times,serif" font-size="14.00">_</text>
</g>
<!-- index.example.org/id/org/x&#45;&gt;_ -->
<g id="edge9" class="edge">
<title>index.example.org/id/org/x&#45;&gt;_</title>
<path fill="none" stroke="black" d="M174.37,-297.28C204.61,-310.04 248.29,-326.46 288.38,-334 366.06,-348.62 459.23,-346.85 509.37,-344.37"/>
<polygon fill="black" stroke="black" points="509.6,-347.86 519.4,-343.83 509.23,-340.87 509.6,-347.86"/>
<text text-anchor="middle" x="328.88" y="-346.8" font-family="Times,serif" font-size="14.00">address</text>
</g>
<!-- index.example.org/id/org/x&#45;&gt;_ -->
<g id="edge13" class="edge">
<title>index.example.org/id/org/x&#45;&gt;_</title>
<path fill="none" stroke="black" d="M225.89,-293.4C269.24,-299.89 322.02,-307.82 369.38,-315 418.26,-322.41 474.75,-331.09 510.33,-336.56"/>
<polygon fill="black" stroke="black" points="509.81,-340.02 520.22,-338.09 510.87,-333.1 509.81,-340.02"/>
<text text-anchor="middle" x="328.88" y="-318.8" font-family="Times,serif" font-size="14.00">location</text>
</g>
<!-- &quot;Description of org ....&quot; -->
<g id="node12" class="node">
<title>&quot;Description of org ....&quot;</title>
<ellipse fill="none" stroke="black" stroke-width="0" cx="546.61" cy="-288" rx="118.08" ry="18"/>
<text text-anchor="middle" x="546.61" y="-284.3" font-family="Times,serif" font-size="14.00">&quot;Description of org ....&quot;</text>
</g>
<!-- index.example.org/id/org/x&#45;&gt;&quot;Description of org ....&quot; -->
<g id="edge10" class="edge">
<title>index.example.org/id/org/x&#45;&gt;&quot;Description of org ....&quot;</title>
<path fill="none" stroke="black" d="M270.61,-279.76C302.95,-279.93 337.4,-280.3 369.38,-281 386.52,-281.38 404.6,-281.92 422.38,-282.55"/>
<polygon fill="black" stroke="black" points="422.69,-286.06 432.81,-282.93 422.94,-279.07 422.69,-286.06"/>
<text text-anchor="middle" x="328.88" y="-284.8" font-family="Times,serif" font-size="14.00">description</text>
</g>
<!-- &quot;secretariat(at)examp...&quot; -->
<g id="node13" class="node">
<title>&quot;secretariat(at)examp...&quot;</title>
<ellipse fill="none" stroke="black" stroke-width="0" cx="546.61" cy="-234" rx="126.18" ry="18"/>
<text text-anchor="middle" x="546.61" y="-230.3" font-family="Times,serif" font-size="14.00">&quot;secretariat(at)examp...&quot;</text>
</g>
<!-- index.example.org/id/org/x&#45;&gt;&quot;secretariat(at)examp...&quot; -->
<g id="edge11" class="edge">
<title>index.example.org/id/org/x&#45;&gt;&quot;secretariat(at)examp...&quot;</title>
<path fill="none" stroke="black" d="M230.31,-267.18C249.51,-264.7 269.58,-262.18 288.38,-260 335.01,-254.58 386.47,-249.25 431.04,-244.84"/>
<polygon fill="black" stroke="black" points="431.42,-248.32 441.03,-243.85 430.73,-241.35 431.42,-248.32"/>
<text text-anchor="middle" x="328.88" y="-263.8" font-family="Times,serif" font-size="14.00">email</text>
</g>
<!-- orcid.org/0000&#45;0002&#45;2257&#45;9127 -->
<g id="node14" class="node">
<title>orcid.org/0000&#45;0002&#45;2257&#45;9127</title>
<ellipse fill="none" stroke="#558855" cx="546.61" cy="-180" rx="157.87" ry="18"/>
<text text-anchor="middle" x="546.61" y="-176.3" font-family="Times,serif" font-size="14.00">orcid.org/0000&#45;0002&#45;2257&#45;9127</text>
</g>
<!-- index.example.org/id/org/x&#45;&gt;orcid.org/0000&#45;0002&#45;2257&#45;9127 -->
<g id="edge15" class="edge">
<title>index.example.org/id/org/x&#45;&gt;orcid.org/0000&#45;0002&#45;2257&#45;9127</title>
<path fill="none" stroke="black" d="M186.7,-263.26C216.21,-253.68 254.26,-241.68 288.38,-232 332.03,-219.61 342.97,-216.38 387.38,-207 405.29,-203.22 424.43,-199.6 442.98,-196.31"/>
<polygon fill="black" stroke="black" points="443.68,-199.74 452.92,-194.56 442.47,-192.84 443.68,-199.74"/>
<text text-anchor="middle" x="328.88" y="-235.8" font-family="Times,serif" font-size="14.00">member</text>
</g>
<!-- &quot;Organization X&quot; -->
<g id="node15" class="node">
<title>&quot;Organization X&quot;</title>
<ellipse fill="none" stroke="black" stroke-width="0" cx="546.61" cy="-126" rx="89.08" ry="18"/>
<text text-anchor="middle" x="546.61" y="-122.3" font-family="Times,serif" font-size="14.00">&quot;Organization X&quot;</text>
</g>
<!-- index.example.org/id/org/x&#45;&gt;&quot;Organization X&quot; -->
<g id="edge16" class="edge">
<title>index.example.org/id/org/x&#45;&gt;&quot;Organization X&quot;</title>
<path fill="none" stroke="black" d="M162.62,-262.19C206.9,-233.4 299.83,-177.43 387.38,-153 410.86,-146.45 436.78,-141.22 460.72,-137.17"/>
<polygon fill="black" stroke="black" points="461.55,-140.59 470.85,-135.51 460.42,-133.68 461.55,-140.59"/>
<text text-anchor="middle" x="328.88" y="-191.8" font-family="Times,serif" font-size="14.00">name</text>
</g>
<!-- &quot;( 33 1) 42 68 53 00&quot; -->
<g id="node16" class="node">
<title>&quot;( 33 1) 42 68 53 00&quot;</title>
<ellipse fill="none" stroke="black" stroke-width="0" cx="546.61" cy="-72" rx="108.58" ry="18"/>
<text text-anchor="middle" x="546.61" y="-68.3" font-family="Times,serif" font-size="14.00">&quot;( 33 1) 42 68 53 00&quot;</text>
</g>
<!-- index.example.org/id/org/x&#45;&gt;&quot;( 33 1) 42 68 53 00&quot; -->
<g id="edge17" class="edge">
<title>index.example.org/id/org/x&#45;&gt;&quot;( 33 1) 42 68 53 00&quot;</title>
<path fill="none" stroke="black" d="M151.9,-261.91C177.85,-232.94 232.39,-175.74 288.38,-140 335.46,-109.94 395.47,-93.11 445.68,-83.71"/>
<polygon fill="black" stroke="black" points="446.36,-87.14 455.58,-81.93 445.12,-80.25 446.36,-87.14"/>
<text text-anchor="middle" x="328.88" y="-143.8" font-family="Times,serif" font-size="14.00">telephone</text>
</g>
<!-- &quot;https//example.org/&quot; -->
<g id="node17" class="node">
<title>&quot;https//example.org/&quot;</title>
<ellipse fill="none" stroke="black" stroke-width="0" cx="546.61" cy="-18" rx="110.48" ry="18"/>
<text text-anchor="middle" x="546.61" y="-14.3" font-family="Times,serif" font-size="14.00">&quot;https//example.org/&quot;</text>
</g>
<!-- index.example.org/id/org/x&#45;&gt;&quot;https//example.org/&quot; -->
<g id="edge18" class="edge">
<title>index.example.org/id/org/x&#45;&gt;&quot;https//example.org/&quot;</title>
<path fill="none" stroke="black" d="M145.73,-261.96C166.67,-223.97 220.28,-135.01 288.38,-84 330.75,-52.26 386.87,-35.71 435.88,-27.12"/>
<polygon fill="black" stroke="black" points="436.61,-30.54 445.9,-25.45 435.46,-23.64 436.61,-30.54"/>
<text text-anchor="middle" x="328.88" y="-87.8" font-family="Times,serif" font-size="14.00">url</text>
</g>
<!-- Place -->
<g id="node19" class="node">
<title>Place</title>
<ellipse fill="none" stroke="#558855" cx="989.39" cy="-450" rx="36" ry="18"/>
<text text-anchor="middle" x="989.39" y="-446.3" font-family="Times,serif" font-size="14.00">Place</text>
</g>
<!-- _&#45;&gt;Place -->
<g id="edge20" class="edge">
<title>_&#45;&gt;Place</title>
<path fill="none" stroke="black" d="M571.1,-349.73C604.72,-360.64 668.61,-380.82 723.85,-395 781.51,-409.81 796.56,-410.88 854.85,-423 885.31,-429.33 919.72,-436.29 945.99,-441.55"/>
<polygon fill="black" stroke="black" points="945.49,-445.02 955.98,-443.55 946.87,-438.16 945.49,-445.02"/>
<text text-anchor="middle" x="780.35" y="-422.8" font-family="Times,serif" font-size="14.00">type</text>
</g>
<!-- &quot;38 avenue de l&#39;Opera...&quot; -->
<g id="node20" class="node">
<title>&quot;38 avenue de l&#39;Opera...&quot;</title>
<ellipse fill="none" stroke="black" stroke-width="0" cx="989.39" cy="-396" rx="126.98" ry="18"/>
<text text-anchor="middle" x="989.39" y="-392.3" font-family="Times,serif" font-size="14.00">&quot;38 avenue de l&#39;Opera...&quot;</text>
</g>
<!-- _&#45;&gt;&quot;38 avenue de l&#39;Opera...&quot; -->
<g id="edge21" class="edge">
<title>_&#45;&gt;&quot;38 avenue de l&#39;Opera...&quot;</title>
<path fill="none" stroke="black" d="M573.21,-345.14C632.16,-352.36 780.24,-370.5 882.61,-383.04"/>
<polygon fill="black" stroke="black" points="882.33,-386.53 892.68,-384.27 883.18,-379.58 882.33,-386.53"/>
<text text-anchor="middle" x="780.35" y="-379.8" font-family="Times,serif" font-size="14.00">address</text>
</g>
<!-- &quot;Paris&quot; -->
<g id="node21" class="node">
<title>&quot;Paris&quot;</title>
<ellipse fill="none" stroke="black" stroke-width="0" cx="989.39" cy="-342" rx="42.79" ry="18"/>
<text text-anchor="middle" x="989.39" y="-338.3" font-family="Times,serif" font-size="14.00">&quot;Paris&quot;</text>
</g>
<!-- _&#45;&gt;&quot;Paris&quot; -->
<g id="edge22" class="edge">
<title>_&#45;&gt;&quot;Paris&quot;</title>
<path fill="none" stroke="black" d="M573.86,-342C644.78,-342 841.23,-342 935.97,-342"/>
<polygon fill="black" stroke="black" points="936.18,-345.5 946.18,-342 936.18,-338.5 936.18,-345.5"/>
<text text-anchor="middle" x="780.35" y="-345.8" font-family="Times,serif" font-size="14.00">name</text>
</g>
<!-- PostalAddress -->
<g id="node22" class="node">
<title>PostalAddress</title>
<ellipse fill="none" stroke="#558855" cx="989.39" cy="-288" rx="76.89" ry="18"/>
<text text-anchor="middle" x="989.39" y="-284.3" font-family="Times,serif" font-size="14.00">PostalAddress</text>
</g>
<!-- _&#45;&gt;PostalAddress -->
<g id="edge23" class="edge">
<title>_&#45;&gt;PostalAddress</title>
<path fill="none" stroke="black" d="M573.21,-338.86C637.87,-330.94 809.79,-309.88 910.97,-297.48"/>
<polygon fill="black" stroke="black" points="911.63,-300.93 921.13,-296.24 910.78,-293.98 911.63,-300.93"/>
<text text-anchor="middle" x="780.35" y="-322.8" font-family="Times,serif" font-size="14.00">type</text>
</g>
<!-- &quot;Paris, France&quot; -->
<g id="node23" class="node">
<title>&quot;Paris, France&quot;</title>
<ellipse fill="none" stroke="black" stroke-width="0" cx="989.39" cy="-234" rx="81.49" ry="18"/>
<text text-anchor="middle" x="989.39" y="-230.3" font-family="Times,serif" font-size="14.00">&quot;Paris, France&quot;</text>
</g>
<!-- _&#45;&gt;&quot;Paris, France&quot; -->
<g id="edge24" class="edge">
<title>_&#45;&gt;&quot;Paris, France&quot;</title>
<path fill="none" stroke="black" d="M573.69,-343.6C607.03,-344.37 665.29,-341.33 705.85,-315 717.94,-307.15 711.89,-296.06 723.85,-288 773.14,-254.78 796.6,-272.89 854.85,-261 875.56,-256.77 898.09,-252.2 918.64,-248.05"/>
<polygon fill="black" stroke="black" points="919.44,-251.46 928.55,-246.05 918.05,-244.6 919.44,-251.46"/>
<text text-anchor="middle" x="780.35" y="-291.8" font-family="Times,serif" font-size="14.00">addressLocality</text>
</g>
<!-- &quot;F&#45;75002&quot; -->
<g id="node24" class="node">
<title>&quot;F&#45;75002&quot;</title>
<ellipse fill="none" stroke="black" stroke-width="0" cx="989.39" cy="-180" rx="57.69" ry="18"/>
<text text-anchor="middle" x="989.39" y="-176.3" font-family="Times,serif" font-size="14.00">&quot;F&#45;75002&quot;</text>
</g>
<!-- _&#45;&gt;&quot;F&#45;75002&quot; -->
<g id="edge25" class="edge">
<title>_&#45;&gt;&quot;F&#45;75002&quot;</title>
<path fill="none" stroke="black" d="M573.15,-345.42C607.81,-348.53 669.56,-348.41 705.85,-315 729.48,-293.24 701.48,-268.06 723.85,-245 766.05,-201.48 795.98,-221.46 854.85,-207 878.96,-201.08 905.75,-195.47 928.97,-190.92"/>
<polygon fill="black" stroke="black" points="929.87,-194.31 939.02,-188.97 928.53,-187.44 929.87,-194.31"/>
<text text-anchor="middle" x="780.35" y="-248.8" font-family="Times,serif" font-size="14.00">postalCode</text>
</g>
<!-- &quot;38 avenue de l&#39;Opera&quot; -->
<g id="node25" class="node">
<title>&quot;38 avenue de l&#39;Opera&quot;</title>
<ellipse fill="none" stroke="black" stroke-width="0" cx="989.39" cy="-126" rx="118.08" ry="18"/>
<text text-anchor="middle" x="989.39" y="-122.3" font-family="Times,serif" font-size="14.00">&quot;38 avenue de l&#39;Opera&quot;</text>
</g>
<!-- _&#45;&gt;&quot;38 avenue de l&#39;Opera&quot; -->
<g id="edge26" class="edge">
<title>_&#45;&gt;&quot;38 avenue de l&#39;Opera&quot;</title>
<path fill="none" stroke="black" d="M573.08,-345.9C608.24,-349.69 671.21,-350.51 705.85,-315 744.73,-275.14 687.28,-233 723.85,-191 757.84,-151.96 811.12,-134.42 860.98,-127.13"/>
<polygon fill="black" stroke="black" points="861.46,-130.6 870.9,-125.81 860.53,-123.66 861.46,-130.6"/>
<text text-anchor="middle" x="780.35" y="-194.8" font-family="Times,serif" font-size="14.00">streetAddress</text>
</g>
<!-- Person -->
<g id="node18" class="node">
<title>Person</title>
<ellipse fill="none" stroke="#558855" cx="989.39" cy="-72" rx="42.49" ry="18"/>
<text text-anchor="middle" x="989.39" y="-68.3" font-family="Times,serif" font-size="14.00">Person</text>
</g>
<!-- orcid.org/0000&#45;0002&#45;2257&#45;9127&#45;&gt;Person -->
<g id="edge19" class="edge">
<title>orcid.org/0000&#45;0002&#45;2257&#45;9127&#45;&gt;Person</title>
<path fill="none" stroke="black" d="M679.3,-170.02C688.96,-165.66 697.98,-160.08 705.85,-153 727.81,-133.23 700.88,-107.59 723.85,-89 785.94,-38.75 885.45,-48.82 943.09,-60.52"/>
<polygon fill="black" stroke="black" points="942.49,-63.97 953,-62.64 943.95,-57.13 942.49,-63.97"/>
<text text-anchor="middle" x="780.35" y="-92.8" font-family="Times,serif" font-size="14.00">type</text>
</g>
</g>
</svg>
