<?xml version="1.0" encoding="UTF-8" standalone="no"?>
<!DOCTYPE svg PUBLIC "-//W3C//DTD SVG 1.1//EN"
 "http://www.w3.org/Graphics/SVG/1.1/DTD/svg11.dtd">
<!-- Generated by graphviz version 5.0.0 (0)
 -->
<!-- Pages: 1 -->
<svg width="1113pt" height="476pt"
 viewBox="0.00 0.00 1112.63 476.00" xmlns="http://www.w3.org/2000/svg" xmlns:xlink="http://www.w3.org/1999/xlink">
<g id="graph0" class="graph" transform="scale(1 1) rotate(0) translate(4 472)">
<polygon fill="white" stroke="transparent" points="-4,4 -4,-472 1108.63,-472 1108.63,4 -4,4"/>
<!-- CreativeWork -->
<g id="node1" class="node">
<title>CreativeWork</title>
<ellipse fill="none" stroke="#558855" cx="970.09" cy="-450" rx="74.19" ry="18"/>
<text text-anchor="middle" x="970.09" y="-446.3" font-family="Times,serif" font-size="14.00">CreativeWork</text>
</g>
<!-- purl.unep.org/sdg/SDGIO_00020173 -->
<g id="node2" class="node">
<title>purl.unep.org/sdg/SDGIO_00020173</title>
<ellipse fill="none" stroke="#558855" cx="503.17" cy="-342" rx="179.27" ry="18"/>
<text text-anchor="middle" x="503.17" y="-338.3" font-family="Times,serif" font-size="14.00">purl.unep.org/sdg/SDGIO_00020173</text>
</g>
<!-- purl.unep.org/sdg/SDGIO_00020173&#45;&gt;CreativeWork -->
<g id="edge1" class="edge">
<title>purl.unep.org/sdg/SDGIO_00020173&#45;&gt;CreativeWork</title>
<path fill="none" stroke="black" d="M563.66,-359.04C602.48,-369.91 654.35,-383.98 700.55,-395 760.16,-409.21 775.52,-410.71 835.55,-423 857.35,-427.47 881.17,-432.3 902.58,-436.62"/>
<polygon fill="black" stroke="black" points="902.05,-440.08 912.55,-438.63 903.44,-433.22 902.05,-440.08"/>
<text text-anchor="middle" x="759.05" y="-422.8" font-family="Times,serif" font-size="14.00">type</text>
</g>
<!-- &quot;Number of countries ...&quot; -->
<g id="node3" class="node">
<title>&quot;Number of countries ...&quot;</title>
<ellipse fill="none" stroke="black" stroke-width="0" cx="970.09" cy="-396" rx="127.28" ry="18"/>
<text text-anchor="middle" x="970.09" y="-392.3" font-family="Times,serif" font-size="14.00">&quot;Number of countries ...&quot;</text>
</g>
<!-- purl.unep.org/sdg/SDGIO_00020173&#45;&gt;&quot;Number of countries ...&quot; -->
<g id="edge2" class="edge">
<title>purl.unep.org/sdg/SDGIO_00020173&#45;&gt;&quot;Number of countries ...&quot;</title>
<path fill="none" stroke="black" d="M621.19,-355.59C694.79,-364.14 789.09,-375.09 860.94,-383.44"/>
<polygon fill="black" stroke="black" points="860.59,-386.92 870.92,-384.6 861.4,-379.97 860.59,-386.92"/>
<text text-anchor="middle" x="759.05" y="-379.8" font-family="Times,serif" font-size="14.00">description</text>
</g>
<!-- &quot;UNSD SDG indicator c...&quot; -->
<g id="node4" class="node">
<title>&quot;UNSD SDG indicator c...&quot;</title>
<ellipse fill="none" stroke="black" stroke-width="0" cx="970.09" cy="-342" rx="133.78" ry="18"/>
<text text-anchor="middle" x="970.09" y="-338.3" font-family="Times,serif" font-size="14.00">&quot;UNSD SDG indicator c...&quot;</text>
</g>
<!-- purl.unep.org/sdg/SDGIO_00020173&#45;&gt;&quot;UNSD SDG indicator c...&quot; -->
<g id="edge3" class="edge">
<title>purl.unep.org/sdg/SDGIO_00020173&#45;&gt;&quot;UNSD SDG indicator c...&quot;</title>
<path fill="none" stroke="black" d="M682.59,-342C729.96,-342 780.51,-342 825.75,-342"/>
<polygon fill="black" stroke="black" points="825.92,-345.5 835.92,-342 825.92,-338.5 825.92,-345.5"/>
<text text-anchor="middle" x="759.05" y="-345.8" font-family="Times,serif" font-size="14.00">name</text>
</g>
<!-- &quot;http//www.ontobee.or...&quot; -->
<g id="node5" class="node">
<title>&quot;http//www.ontobee.or...&quot;</title>
<ellipse fill="none" stroke="black" stroke-width="0" cx="970.09" cy="-288" rx="128.08" ry="18"/>
<text text-anchor="middle" x="970.09" y="-284.3" font-family="Times,serif" font-size="14.00">&quot;http//www.ontobee.or...&quot;</text>
</g>
<!-- purl.unep.org/sdg/SDGIO_00020173&#45;&gt;&quot;http//www.ontobee.or...&quot; -->
<g id="edge4" class="edge">
<title>purl.unep.org/sdg/SDGIO_00020173&#45;&gt;&quot;http//www.ontobee.or...&quot;</title>
<path fill="none" stroke="black" d="M621.19,-328.41C694.79,-319.86 789.09,-308.91 860.94,-300.56"/>
<polygon fill="black" stroke="black" points="861.4,-304.03 870.92,-299.4 860.59,-297.08 861.4,-304.03"/>
<text text-anchor="middle" x="759.05" y="-321.8" font-family="Times,serif" font-size="14.00">url</text>
</g>
<!-- example.org/id/XYZ -->
<g id="node6" class="node">
<title>example.org/id/XYZ</title>
<ellipse fill="none" stroke="black" cx="101.39" cy="-215" rx="101.28" ry="18"/>
<text text-anchor="middle" x="101.39" y="-211.3" font-family="Times,serif" font-size="14.00">example.org/id/XYZ</text>
</g>
<!-- example.org/id/XYZ&#45;&gt;CreativeWork -->
<g id="edge5" class="edge">
<title>example.org/id/XYZ&#45;&gt;CreativeWork</title>
<path fill="none" stroke="black" d="M121.69,-232.88C158.14,-265.57 240.92,-334.76 323.78,-369 513.84,-447.54 760.09,-455.33 886.38,-453.28"/>
<polygon fill="black" stroke="black" points="886.81,-456.77 896.74,-453.08 886.68,-449.77 886.81,-456.77"/>
<text text-anchor="middle" x="503.17" y="-449.8" font-family="Times,serif" font-size="14.00">type</text>
</g>
<!-- example.org/id/XYZ&#45;&gt;purl.unep.org/sdg/SDGIO_00020173 -->
<g id="edge6" class="edge">
<title>example.org/id/XYZ&#45;&gt;purl.unep.org/sdg/SDGIO_00020173</title>
<path fill="none" stroke="black" d="M151.81,-230.7C224.03,-253.64 358.46,-296.35 438.16,-321.67"/>
<polygon fill="black" stroke="black" points="437.48,-325.12 448.07,-324.82 439.6,-318.45 437.48,-325.12"/>
<text text-anchor="middle" x="263.28" y="-281.8" font-family="Times,serif" font-size="14.00">citation</text>
</g>
<!-- &quot;Description of the r...&quot; -->
<g id="node7" class="node">
<title>&quot;Description of the r...&quot;</title>
<ellipse fill="none" stroke="black" stroke-width="0" cx="503.17" cy="-234" rx="118.08" ry="18"/>
<text text-anchor="middle" x="503.17" y="-230.3" font-family="Times,serif" font-size="14.00">&quot;Description of the r...&quot;</text>
</g>
<!-- example.org/id/XYZ&#45;&gt;&quot;Description of the r...&quot; -->
<g id="edge7" class="edge">
<title>example.org/id/XYZ&#45;&gt;&quot;Description of the r...&quot;</title>
<path fill="none" stroke="black" d="M199.42,-219.61C253.71,-222.19 321.9,-225.43 379.82,-228.19"/>
<polygon fill="black" stroke="black" points="379.98,-231.7 390.14,-228.68 380.31,-224.7 379.98,-231.7"/>
<text text-anchor="middle" x="263.28" y="-227.8" font-family="Times,serif" font-size="14.00">description</text>
</g>
<!-- _ -->
<g id="node8" class="node">
<title>_</title>
<ellipse fill="none" stroke="#558855" cx="503.17" cy="-180" rx="27" ry="18"/>
<text text-anchor="middle" x="503.17" y="-176.3" font-family="Times,serif" font-size="14.00">_</text>
</g>
<!-- example.org/id/XYZ&#45;&gt;_ -->
<g id="edge8" class="edge">
<title>example.org/id/XYZ&#45;&gt;_</title>
<path fill="none" stroke="black" d="M187.08,-205.38C198.4,-204.18 209.87,-203.03 220.78,-202 308.82,-193.73 412.57,-186.18 466.13,-182.45"/>
<polygon fill="black" stroke="black" points="466.42,-185.94 476.15,-181.76 465.93,-178.96 466.42,-185.94"/>
<text text-anchor="middle" x="263.28" y="-205.8" font-family="Times,serif" font-size="14.00">distribution</text>
</g>
<!-- ror.org/050bms902 -->
<g id="node9" class="node">
<title>ror.org/050bms902</title>
<ellipse fill="none" stroke="#558855" cx="503.17" cy="-99" rx="100.18" ry="18"/>
<text text-anchor="middle" x="503.17" y="-95.3" font-family="Times,serif" font-size="14.00">ror.org/050bms902</text>
</g>
<!-- example.org/id/XYZ&#45;&gt;ror.org/050bms902 -->
<g id="edge9" class="edge">
<title>example.org/id/XYZ&#45;&gt;ror.org/050bms902</title>
<path fill="none" stroke="black" d="M148.89,-199.07C170.64,-191.78 196.95,-183.18 220.78,-176 293.63,-154.05 377.88,-131.34 435.07,-116.33"/>
<polygon fill="black" stroke="black" points="436.28,-119.63 445.06,-113.71 434.5,-112.86 436.28,-119.63"/>
<text text-anchor="middle" x="263.28" y="-179.8" font-family="Times,serif" font-size="14.00">maintainer</text>
</g>
<!-- &quot;Name or title of the...&quot; -->
<g id="node10" class="node">
<title>&quot;Name or title of the...&quot;</title>
<ellipse fill="none" stroke="black" stroke-width="0" cx="503.17" cy="-45" rx="120.48" ry="18"/>
<text text-anchor="middle" x="503.17" y="-41.3" font-family="Times,serif" font-size="14.00">&quot;Name or title of the...&quot;</text>
</g>
<!-- example.org/id/XYZ&#45;&gt;&quot;Name or title of the...&quot; -->
<g id="edge10" class="edge">
<title>example.org/id/XYZ&#45;&gt;&quot;Name or title of the...&quot;</title>
<path fill="none" stroke="black" d="M122.6,-197.15C159.55,-165.67 241.79,-100.9 323.78,-72 344.28,-64.78 366.76,-59.49 388.66,-55.61"/>
<polygon fill="black" stroke="black" points="389.38,-59.04 398.67,-53.93 388.22,-52.13 389.38,-59.04"/>
<text text-anchor="middle" x="263.28" y="-126.8" font-family="Times,serif" font-size="14.00">name</text>
</g>
<!-- DataDownload -->
<g id="node13" class="node">
<title>DataDownload</title>
<ellipse fill="none" stroke="#558855" cx="970.09" cy="-234" rx="78.79" ry="18"/>
<text text-anchor="middle" x="970.09" y="-230.3" font-family="Times,serif" font-size="14.00">DataDownload</text>
</g>
<!-- _&#45;&gt;DataDownload -->
<g id="edge13" class="edge">
<title>_&#45;&gt;DataDownload</title>
<path fill="none" stroke="black" d="M529.82,-182.98C597.41,-190.83 782.49,-212.33 889.61,-224.77"/>
<polygon fill="black" stroke="black" points="889.39,-228.27 899.73,-225.94 890.2,-221.31 889.39,-228.27"/>
<text text-anchor="middle" x="759.05" y="-217.8" font-family="Times,serif" font-size="14.00">type</text>
</g>
<!-- &quot;https//www.sample&#45;da...&quot; -->
<g id="node14" class="node">
<title>&quot;https//www.sample&#45;da...&quot;</title>
<ellipse fill="none" stroke="black" stroke-width="0" cx="970.09" cy="-180" rx="131.08" ry="18"/>
<text text-anchor="middle" x="970.09" y="-176.3" font-family="Times,serif" font-size="14.00">&quot;https//www.sample&#45;da...&quot;</text>
</g>
<!-- _&#45;&gt;&quot;https//www.sample&#45;da...&quot; -->
<g id="edge14" class="edge">
<title>_&#45;&gt;&quot;https//www.sample&#45;da...&quot;</title>
<path fill="none" stroke="black" d="M530.49,-180C586.88,-180 722.77,-180 828.47,-180"/>
<polygon fill="black" stroke="black" points="828.6,-183.5 838.6,-180 828.6,-176.5 828.6,-183.5"/>
<text text-anchor="middle" x="759.05" y="-183.8" font-family="Times,serif" font-size="14.00">contentUrl</text>
</g>
<!-- &quot;text/tab&#45;separated&#45;v...&quot; -->
<g id="node15" class="node">
<title>&quot;text/tab&#45;separated&#45;v...&quot;</title>
<ellipse fill="none" stroke="black" stroke-width="0" cx="970.09" cy="-126" rx="120.78" ry="18"/>
<text text-anchor="middle" x="970.09" y="-122.3" font-family="Times,serif" font-size="14.00">&quot;text/tab&#45;separated&#45;v...&quot;</text>
</g>
<!-- _&#45;&gt;&quot;text/tab&#45;separated&#45;v...&quot; -->
<g id="edge15" class="edge">
<title>_&#45;&gt;&quot;text/tab&#45;separated&#45;v...&quot;</title>
<path fill="none" stroke="black" d="M529.82,-177.02C592.31,-169.76 755.23,-150.84 864.11,-138.19"/>
<polygon fill="black" stroke="black" points="864.62,-141.66 874.15,-137.03 863.81,-134.7 864.62,-141.66"/>
<text text-anchor="middle" x="759.05" y="-159.8" font-family="Times,serif" font-size="14.00">encodingFormat</text>
</g>
<!-- Organization -->
<g id="node11" class="node">
<title>Organization</title>
<ellipse fill="none" stroke="#558855" cx="970.09" cy="-72" rx="70.69" ry="18"/>
<text text-anchor="middle" x="970.09" y="-68.3" font-family="Times,serif" font-size="14.00">Organization</text>
</g>
<!-- ror.org/050bms902&#45;&gt;Organization -->
<g id="edge11" class="edge">
<title>ror.org/050bms902&#45;&gt;Organization</title>
<path fill="none" stroke="black" d="M598.53,-93.52C684.56,-88.52 810.18,-81.23 890.78,-76.55"/>
<polygon fill="black" stroke="black" points="891.09,-80.04 900.87,-75.96 890.68,-73.05 891.09,-80.04"/>
<text text-anchor="middle" x="759.05" y="-90.8" font-family="Times,serif" font-size="14.00">type</text>
</g>
<!-- &quot;UN Department of Eco...&quot; -->
<g id="node12" class="node">
<title>&quot;UN Department of Eco...&quot;</title>
<ellipse fill="none" stroke="black" stroke-width="0" cx="970.09" cy="-18" rx="134.58" ry="18"/>
<text text-anchor="middle" x="970.09" y="-14.3" font-family="Times,serif" font-size="14.00">&quot;UN Department of Eco...&quot;</text>
</g>
<!-- ror.org/050bms902&#45;&gt;&quot;UN Department of Eco...&quot; -->
<g id="edge12" class="edge">
<title>ror.org/050bms902&#45;&gt;&quot;UN Department of Eco...&quot;</title>
<path fill="none" stroke="black" d="M594.58,-91.66C623.23,-87.67 654.68,-81.5 682.55,-72 691.21,-69.05 691.91,-65.01 700.55,-62 746.9,-45.88 799.85,-35.59 846.41,-29.07"/>
<polygon fill="black" stroke="black" points="847.12,-32.5 856.55,-27.69 846.17,-25.57 847.12,-32.5"/>
<text text-anchor="middle" x="759.05" y="-65.8" font-family="Times,serif" font-size="14.00">description</text>
</g>
</g>
</svg>
