<?xml version="1.0" encoding="UTF-8" standalone="no"?>
<!DOCTYPE svg PUBLIC "-//W3C//DTD SVG 1.1//EN"
 "http://www.w3.org/Graphics/SVG/1.1/DTD/svg11.dtd">
<!-- Generated by graphviz version 5.0.0 (0)
 -->
<!-- Pages: 1 -->
<svg width="1120pt" height="370pt"
 viewBox="0.00 0.00 1120.43 370.00" xmlns="http://www.w3.org/2000/svg" xmlns:xlink="http://www.w3.org/1999/xlink">
<g id="graph0" class="graph" transform="scale(1 1) rotate(0) translate(4 366)">
<polygon fill="white" stroke="transparent" points="-4,4 -4,-366 1116.43,-366 1116.43,4 -4,4"/>
<!-- CreativeWork -->
<g id="node1" class="node">
<title>CreativeWork</title>
<ellipse fill="none" stroke="#558855" cx="980.49" cy="-181" rx="74.19" ry="18"/>
<text text-anchor="middle" x="980.49" y="-177.3" font-family="Times,serif" font-size="14.00">CreativeWork</text>
</g>
<!-- dx.doi.org/10.1038/sdata.2016.18 -->
<g id="node2" class="node">
<title>dx.doi.org/10.1038/sdata.2016.18</title>
<ellipse fill="none" stroke="#558855" cx="563.87" cy="-237" rx="167.87" ry="18"/>
<text text-anchor="middle" x="563.87" y="-233.3" font-family="Times,serif" font-size="14.00">dx.doi.org/10.1038/sdata.2016.18</text>
</g>
<!-- dx.doi.org/10.1038/sdata.2016.18&#45;&gt;CreativeWork -->
<g id="edge1" class="edge">
<title>dx.doi.org/10.1038/sdata.2016.18&#45;&gt;CreativeWork</title>
<path fill="none" stroke="black" d="M668.96,-222.94C742.51,-213.01 839.32,-199.93 905.17,-191.04"/>
<polygon fill="black" stroke="black" points="906.02,-194.46 915.46,-189.65 905.08,-187.52 906.02,-194.46"/>
<text text-anchor="middle" x="790.05" y="-213.8" font-family="Times,serif" font-size="14.00">type</text>
</g>
<!-- &quot;FAIR Principles defi...&quot; -->
<g id="node3" class="node">
<title>&quot;FAIR Principles defi...&quot;</title>
<ellipse fill="none" stroke="black" stroke-width="0" cx="980.49" cy="-344" rx="119.68" ry="18"/>
<text text-anchor="middle" x="980.49" y="-340.3" font-family="Times,serif" font-size="14.00">&quot;FAIR Principles defi...&quot;</text>
</g>
<!-- dx.doi.org/10.1038/sdata.2016.18&#45;&gt;&quot;FAIR Principles defi...&quot; -->
<g id="edge2" class="edge">
<title>dx.doi.org/10.1038/sdata.2016.18&#45;&gt;&quot;FAIR Principles defi...&quot;</title>
<path fill="none" stroke="black" d="M620.53,-253.97C677.51,-271.04 768.76,-297.55 848.55,-317 863.96,-320.76 880.47,-324.43 896.39,-327.8"/>
<polygon fill="black" stroke="black" points="895.71,-331.23 906.22,-329.85 897.15,-324.38 895.71,-331.23"/>
<text text-anchor="middle" x="790.05" y="-314.8" font-family="Times,serif" font-size="14.00">description</text>
</g>
<!-- &quot;FAIR data principles&quot; -->
<g id="node4" class="node">
<title>&quot;FAIR data principles&quot;</title>
<ellipse fill="none" stroke="black" stroke-width="0" cx="980.49" cy="-290" rx="113.98" ry="18"/>
<text text-anchor="middle" x="980.49" y="-286.3" font-family="Times,serif" font-size="14.00">&quot;FAIR data principles&quot;</text>
</g>
<!-- dx.doi.org/10.1038/sdata.2016.18&#45;&gt;&quot;FAIR data principles&quot; -->
<g id="edge3" class="edge">
<title>dx.doi.org/10.1038/sdata.2016.18&#45;&gt;&quot;FAIR data principles&quot;</title>
<path fill="none" stroke="black" d="M672.45,-250.75C737.13,-259.02 818.82,-269.46 881.68,-277.5"/>
<polygon fill="black" stroke="black" points="881.23,-280.97 891.6,-278.76 882.12,-274.03 881.23,-280.97"/>
<text text-anchor="middle" x="790.05" y="-272.8" font-family="Times,serif" font-size="14.00">name</text>
</g>
<!-- &quot;https//www.nature.co...&quot; -->
<g id="node5" class="node">
<title>&quot;https//www.nature.co...&quot;</title>
<ellipse fill="none" stroke="black" stroke-width="0" cx="980.49" cy="-236" rx="128.08" ry="18"/>
<text text-anchor="middle" x="980.49" y="-232.3" font-family="Times,serif" font-size="14.00">&quot;https//www.nature.co...&quot;</text>
</g>
<!-- dx.doi.org/10.1038/sdata.2016.18&#45;&gt;&quot;https//www.nature.co...&quot; -->
<g id="edge4" class="edge">
<title>dx.doi.org/10.1038/sdata.2016.18&#45;&gt;&quot;https//www.nature.co...&quot;</title>
<path fill="none" stroke="black" d="M731.72,-236.6C768.28,-236.51 806.58,-236.42 841.84,-236.33"/>
<polygon fill="black" stroke="black" points="842.2,-239.83 852.19,-236.31 842.18,-232.83 842.2,-239.83"/>
<text text-anchor="middle" x="790.05" y="-239.8" font-family="Times,serif" font-size="14.00">url</text>
</g>
<!-- Organization -->
<g id="node6" class="node">
<title>Organization</title>
<ellipse fill="none" stroke="#558855" cx="563.87" cy="-180" rx="70.69" ry="18"/>
<text text-anchor="middle" x="563.87" y="-176.3" font-family="Times,serif" font-size="14.00">Organization</text>
</g>
<!-- example.org/id/org/x -->
<g id="node7" class="node">
<title>example.org/id/org/x</title>
<ellipse fill="none" stroke="black" cx="106.59" cy="-180" rx="106.68" ry="18"/>
<text text-anchor="middle" x="106.59" y="-176.3" font-family="Times,serif" font-size="14.00">example.org/id/org/x</text>
</g>
<!-- example.org/id/org/x&#45;&gt;dx.doi.org/10.1038/sdata.2016.18 -->
<g id="edge6" class="edge">
<title>example.org/id/org/x&#45;&gt;dx.doi.org/10.1038/sdata.2016.18</title>
<path fill="none" stroke="black" d="M184.66,-192.32C200.05,-194.64 216.12,-196.98 231.18,-199 297.71,-207.92 371.92,-216.55 433.25,-223.32"/>
<polygon fill="black" stroke="black" points="433.04,-226.82 443.37,-224.43 433.81,-219.86 433.04,-226.82"/>
<text text-anchor="middle" x="304.68" y="-219.8" font-family="Times,serif" font-size="14.00">publishingPrinciples</text>
</g>
<!-- example.org/id/org/x&#45;&gt;Organization -->
<g id="edge5" class="edge">
<title>example.org/id/org/x&#45;&gt;Organization</title>
<path fill="none" stroke="black" d="M213.18,-180C295.35,-180 407.63,-180 482.56,-180"/>
<polygon fill="black" stroke="black" points="482.88,-183.5 492.88,-180 482.88,-176.5 482.88,-183.5"/>
<text text-anchor="middle" x="304.68" y="-183.8" font-family="Times,serif" font-size="14.00">type</text>
</g>
<!-- sdgs.un.org/goals/goal14 -->
<g id="node8" class="node">
<title>sdgs.un.org/goals/goal14</title>
<ellipse fill="none" stroke="#558855" cx="563.87" cy="-123" rx="126.98" ry="18"/>
<text text-anchor="middle" x="563.87" y="-119.3" font-family="Times,serif" font-size="14.00">sdgs.un.org/goals/goal14</text>
</g>
<!-- example.org/id/org/x&#45;&gt;sdgs.un.org/goals/goal14 -->
<g id="edge7" class="edge">
<title>example.org/id/org/x&#45;&gt;sdgs.un.org/goals/goal14</title>
<path fill="none" stroke="black" d="M184.66,-167.68C200.05,-165.36 216.12,-163.02 231.18,-161 304.25,-151.2 386.59,-141.76 450.95,-134.74"/>
<polygon fill="black" stroke="black" points="451.56,-138.19 461.12,-133.63 450.8,-131.23 451.56,-138.19"/>
<text text-anchor="middle" x="304.68" y="-164.8" font-family="Times,serif" font-size="14.00">publishingPrinciples</text>
</g>
<!-- sdgs.un.org/goals/goal14&#45;&gt;CreativeWork -->
<g id="edge8" class="edge">
<title>sdgs.un.org/goals/goal14&#45;&gt;CreativeWork</title>
<path fill="none" stroke="black" d="M654.83,-135.59C729.97,-146.1 835.78,-160.9 905.93,-170.71"/>
<polygon fill="black" stroke="black" points="905.62,-174.2 916.01,-172.12 906.59,-167.27 905.62,-174.2"/>
<text text-anchor="middle" x="790.05" y="-161.8" font-family="Times,serif" font-size="14.00">type</text>
</g>
<!-- &quot;Conserve and sustain...&quot; -->
<g id="node9" class="node">
<title>&quot;Conserve and sustain...&quot;</title>
<ellipse fill="none" stroke="black" stroke-width="0" cx="980.49" cy="-126" rx="128.08" ry="18"/>
<text text-anchor="middle" x="980.49" y="-122.3" font-family="Times,serif" font-size="14.00">&quot;Conserve and sustain...&quot;</text>
</g>
<!-- sdgs.un.org/goals/goal14&#45;&gt;&quot;Conserve and sustain...&quot; -->
<g id="edge9" class="edge">
<title>sdgs.un.org/goals/goal14&#45;&gt;&quot;Conserve and sustain...&quot;</title>
<path fill="none" stroke="black" d="M690.89,-123.23C735.06,-123.37 785,-123.61 830.55,-124 834.51,-124.03 838.53,-124.07 842.59,-124.11"/>
<polygon fill="black" stroke="black" points="842.7,-127.61 852.74,-124.21 842.77,-120.61 842.7,-127.61"/>
<text text-anchor="middle" x="790.05" y="-127.8" font-family="Times,serif" font-size="14.00">description</text>
</g>
<!-- &quot;Sustainable Developm...&quot; -->
<g id="node10" class="node">
<title>&quot;Sustainable Developm...&quot;</title>
<ellipse fill="none" stroke="black" stroke-width="0" cx="980.49" cy="-72" rx="131.88" ry="18"/>
<text text-anchor="middle" x="980.49" y="-68.3" font-family="Times,serif" font-size="14.00">&quot;Sustainable Developm...&quot;</text>
</g>
<!-- sdgs.un.org/goals/goal14&#45;&gt;&quot;Sustainable Developm...&quot; -->
<g id="edge10" class="edge">
<title>sdgs.un.org/goals/goal14&#45;&gt;&quot;Sustainable Developm...&quot;</title>
<path fill="none" stroke="black" d="M660.25,-111.27C723.48,-103.49 806.55,-93.27 872.1,-85.21"/>
<polygon fill="black" stroke="black" points="872.55,-88.68 882.05,-83.99 871.7,-81.73 872.55,-88.68"/>
<text text-anchor="middle" x="790.05" y="-102.8" font-family="Times,serif" font-size="14.00">name</text>
</g>
<!-- &quot;https//sdgs.un.org/g...&quot; -->
<g id="node11" class="node">
<title>&quot;https//sdgs.un.org/g...&quot;</title>
<ellipse fill="none" stroke="black" stroke-width="0" cx="980.49" cy="-18" rx="122.38" ry="18"/>
<text text-anchor="middle" x="980.49" y="-14.3" font-family="Times,serif" font-size="14.00">&quot;https//sdgs.un.org/g...&quot;</text>
</g>
<!-- sdgs.un.org/goals/goal14&#45;&gt;&quot;https//sdgs.un.org/g...&quot; -->
<g id="edge11" class="edge">
<title>sdgs.un.org/goals/goal14&#45;&gt;&quot;https//sdgs.un.org/g...&quot;</title>
<path fill="none" stroke="black" d="M619.5,-106.81C676.42,-90.21 768.32,-64.19 848.55,-45 863.74,-41.37 879.98,-37.78 895.68,-34.46"/>
<polygon fill="black" stroke="black" points="896.83,-37.8 905.9,-32.33 895.4,-30.95 896.83,-37.8"/>
<text text-anchor="middle" x="790.05" y="-71.8" font-family="Times,serif" font-size="14.00">url</text>
</g>
</g>
</svg>
