<?xml version="1.0" encoding="UTF-8" standalone="no"?>
<!DOCTYPE svg PUBLIC "-//W3C//DTD SVG 1.1//EN"
 "http://www.w3.org/Graphics/SVG/1.1/DTD/svg11.dtd">
<!-- Generated by graphviz version 5.0.0 (0)
 -->
<!-- Pages: 1 -->
<svg width="1066pt" height="692pt"
 viewBox="0.00 0.00 1066.33 692.00" xmlns="http://www.w3.org/2000/svg" xmlns:xlink="http://www.w3.org/1999/xlink">
<g id="graph0" class="graph" transform="scale(1 1) rotate(0) translate(4 688)">
<polygon fill="white" stroke="transparent" points="-4,4 -4,-688 1062.33,-688 1062.33,4 -4,4"/>
<!-- CreativeWork -->
<g id="node1" class="node">
<title>CreativeWork</title>
<ellipse fill="none" stroke="#558855" cx="924.44" cy="-666" rx="74.19" ry="18"/>
<text text-anchor="middle" x="924.44" y="-662.3" font-family="Times,serif" font-size="14.00">CreativeWork</text>
</g>
<!-- purl.unep.org/sdg/SDGIO_00020173 -->
<g id="node2" class="node">
<title>purl.unep.org/sdg/SDGIO_00020173</title>
<ellipse fill="none" stroke="#558855" cx="494.17" cy="-558" rx="179.27" ry="18"/>
<text text-anchor="middle" x="494.17" y="-554.3" font-family="Times,serif" font-size="14.00">purl.unep.org/sdg/SDGIO_00020173</text>
</g>
<!-- purl.unep.org/sdg/SDGIO_00020173&#45;&gt;CreativeWork -->
<g id="edge1" class="edge">
<title>purl.unep.org/sdg/SDGIO_00020173&#45;&gt;CreativeWork</title>
<path fill="none" stroke="black" d="M552.88,-575.06C612.21,-592.31 707.4,-619.18 790.55,-639 811.51,-644 834.47,-648.87 855.32,-653.07"/>
<polygon fill="black" stroke="black" points="854.87,-656.55 865.36,-655.08 856.24,-649.69 854.87,-656.55"/>
<text text-anchor="middle" x="732.05" y="-636.8" font-family="Times,serif" font-size="14.00">type</text>
</g>
<!-- &quot;Number of countries ...&quot; -->
<g id="node3" class="node">
<title>&quot;Number of countries ...&quot;</title>
<ellipse fill="none" stroke="black" stroke-width="0" cx="924.44" cy="-612" rx="127.28" ry="18"/>
<text text-anchor="middle" x="924.44" y="-608.3" font-family="Times,serif" font-size="14.00">&quot;Number of countries ...&quot;</text>
</g>
<!-- purl.unep.org/sdg/SDGIO_00020173&#45;&gt;&quot;Number of countries ...&quot; -->
<g id="edge2" class="edge">
<title>purl.unep.org/sdg/SDGIO_00020173&#45;&gt;&quot;Number of countries ...&quot;</title>
<path fill="none" stroke="black" d="M606.57,-572.05C672.09,-580.31 754.42,-590.69 818.74,-598.8"/>
<polygon fill="black" stroke="black" points="818.55,-602.3 828.91,-600.08 819.42,-595.36 818.55,-602.3"/>
<text text-anchor="middle" x="732.05" y="-594.8" font-family="Times,serif" font-size="14.00">description</text>
</g>
<!-- &quot;UNSD SDG indicator c...&quot; -->
<g id="node4" class="node">
<title>&quot;UNSD SDG indicator c...&quot;</title>
<ellipse fill="none" stroke="black" stroke-width="0" cx="924.44" cy="-558" rx="133.78" ry="18"/>
<text text-anchor="middle" x="924.44" y="-554.3" font-family="Times,serif" font-size="14.00">&quot;UNSD SDG indicator c...&quot;</text>
</g>
<!-- purl.unep.org/sdg/SDGIO_00020173&#45;&gt;&quot;UNSD SDG indicator c...&quot; -->
<g id="edge3" class="edge">
<title>purl.unep.org/sdg/SDGIO_00020173&#45;&gt;&quot;UNSD SDG indicator c...&quot;</title>
<path fill="none" stroke="black" d="M673.69,-558C709.2,-558 746.06,-558 780.21,-558"/>
<polygon fill="black" stroke="black" points="780.23,-561.5 790.23,-558 780.23,-554.5 780.23,-561.5"/>
<text text-anchor="middle" x="732.05" y="-561.8" font-family="Times,serif" font-size="14.00">name</text>
</g>
<!-- &quot;http//www.ontobee.or...&quot; -->
<g id="node5" class="node">
<title>&quot;http//www.ontobee.or...&quot;</title>
<ellipse fill="none" stroke="black" stroke-width="0" cx="924.44" cy="-504" rx="128.08" ry="18"/>
<text text-anchor="middle" x="924.44" y="-500.3" font-family="Times,serif" font-size="14.00">&quot;http//www.ontobee.or...&quot;</text>
</g>
<!-- purl.unep.org/sdg/SDGIO_00020173&#45;&gt;&quot;http//www.ontobee.or...&quot; -->
<g id="edge4" class="edge">
<title>purl.unep.org/sdg/SDGIO_00020173&#45;&gt;&quot;http//www.ontobee.or...&quot;</title>
<path fill="none" stroke="black" d="M606.57,-543.95C671.97,-535.71 754.13,-525.35 818.4,-517.24"/>
<polygon fill="black" stroke="black" points="819.07,-520.69 828.55,-515.96 818.19,-513.74 819.07,-520.69"/>
<text text-anchor="middle" x="732.05" y="-535.8" font-family="Times,serif" font-size="14.00">url</text>
</g>
<!-- PropertyValue -->
<g id="node6" class="node">
<title>PropertyValue</title>
<ellipse fill="none" stroke="#558855" cx="924.44" cy="-288" rx="77.19" ry="18"/>
<text text-anchor="middle" x="924.44" y="-284.3" font-family="Times,serif" font-size="14.00">PropertyValue</text>
</g>
<!-- doi.org/10.5066/F7VX0DMQ -->
<g id="node7" class="node">
<title>doi.org/10.5066/F7VX0DMQ</title>
<ellipse fill="none" stroke="#558855" cx="494.17" cy="-366" rx="141.88" ry="18"/>
<text text-anchor="middle" x="494.17" y="-362.3" font-family="Times,serif" font-size="14.00">doi.org/10.5066/F7VX0DMQ</text>
</g>
<!-- doi.org/10.5066/F7VX0DMQ&#45;&gt;PropertyValue -->
<g id="edge5" class="edge">
<title>doi.org/10.5066/F7VX0DMQ&#45;&gt;PropertyValue</title>
<path fill="none" stroke="black" d="M617.41,-357.09C636.75,-352.98 656.11,-347.18 673.55,-339 683.24,-334.46 681.86,-327.54 691.55,-323 736.71,-301.84 791.74,-292.91 836.86,-289.36"/>
<polygon fill="black" stroke="black" points="837.19,-292.85 846.91,-288.65 836.69,-285.87 837.19,-292.85"/>
<text text-anchor="middle" x="732.05" y="-326.8" font-family="Times,serif" font-size="14.00">type</text>
</g>
<!-- &quot;https//registry.iden...&quot; -->
<g id="node8" class="node">
<title>&quot;https//registry.iden...&quot;</title>
<ellipse fill="none" stroke="black" stroke-width="0" cx="924.44" cy="-396" rx="116.98" ry="18"/>
<text text-anchor="middle" x="924.44" y="-392.3" font-family="Times,serif" font-size="14.00">&quot;https//registry.iden...&quot;</text>
</g>
<!-- doi.org/10.5066/F7VX0DMQ&#45;&gt;&quot;https//registry.iden...&quot; -->
<g id="edge6" class="edge">
<title>doi.org/10.5066/F7VX0DMQ&#45;&gt;&quot;https//registry.iden...&quot;</title>
<path fill="none" stroke="black" d="M623.99,-373.23C670.79,-376.03 724.07,-379.43 772.55,-383 785.51,-383.95 799.08,-385.03 812.55,-386.13"/>
<polygon fill="black" stroke="black" points="812.57,-389.64 822.82,-386.98 813.15,-382.67 812.57,-389.64"/>
<text text-anchor="middle" x="732.05" y="-386.8" font-family="Times,serif" font-size="14.00">propertyID</text>
</g>
<!-- &quot;https//doi.org/10.50...&quot; -->
<g id="node9" class="node">
<title>&quot;https//doi.org/10.50...&quot;</title>
<ellipse fill="none" stroke="black" stroke-width="0" cx="924.44" cy="-450" rx="120.48" ry="18"/>
<text text-anchor="middle" x="924.44" y="-446.3" font-family="Times,serif" font-size="14.00">&quot;https//doi.org/10.50...&quot;</text>
</g>
<!-- doi.org/10.5066/F7VX0DMQ&#45;&gt;&quot;https//doi.org/10.50...&quot; -->
<g id="edge7" class="edge">
<title>doi.org/10.5066/F7VX0DMQ&#45;&gt;&quot;https//doi.org/10.50...&quot;</title>
<path fill="none" stroke="black" d="M572.23,-381.11C647.82,-395.94 762.74,-418.48 840.35,-433.7"/>
<polygon fill="black" stroke="black" points="840.08,-437.22 850.57,-435.71 841.43,-430.35 840.08,-437.22"/>
<text text-anchor="middle" x="732.05" y="-420.8" font-family="Times,serif" font-size="14.00">url</text>
</g>
<!-- &quot;doi10.5066/F7VX0DMQ&quot; -->
<g id="node10" class="node">
<title>&quot;doi10.5066/F7VX0DMQ&quot;</title>
<ellipse fill="none" stroke="black" stroke-width="0" cx="924.44" cy="-342" rx="129.18" ry="18"/>
<text text-anchor="middle" x="924.44" y="-338.3" font-family="Times,serif" font-size="14.00">&quot;doi10.5066/F7VX0DMQ&quot;</text>
</g>
<!-- doi.org/10.5066/F7VX0DMQ&#45;&gt;&quot;doi10.5066/F7VX0DMQ&quot; -->
<g id="edge8" class="edge">
<title>doi.org/10.5066/F7VX0DMQ&#45;&gt;&quot;doi10.5066/F7VX0DMQ&quot;</title>
<path fill="none" stroke="black" d="M595.68,-353.42C626.4,-350.07 660.32,-346.87 691.55,-345 721.61,-343.2 753.9,-342.2 784.55,-341.68"/>
<polygon fill="black" stroke="black" points="784.93,-345.17 794.88,-341.52 784.82,-338.17 784.93,-345.17"/>
<text text-anchor="middle" x="732.05" y="-348.8" font-family="Times,serif" font-size="14.00">value</text>
</g>
<!-- example.org/id/XYZ -->
<g id="node11" class="node">
<title>example.org/id/XYZ</title>
<ellipse fill="none" stroke="black" cx="101.39" cy="-331" rx="101.28" ry="18"/>
<text text-anchor="middle" x="101.39" y="-327.3" font-family="Times,serif" font-size="14.00">example.org/id/XYZ</text>
</g>
<!-- example.org/id/XYZ&#45;&gt;CreativeWork -->
<g id="edge9" class="edge">
<title>example.org/id/XYZ&#45;&gt;CreativeWork</title>
<path fill="none" stroke="black" d="M110.6,-349.06C127.44,-384.74 168.75,-465.56 220.78,-520 255.87,-556.72 267.81,-565.67 314.78,-585 491.74,-657.84 719.82,-668.36 840.3,-668.14"/>
<polygon fill="black" stroke="black" points="840.58,-671.63 850.56,-668.09 840.55,-664.63 840.58,-671.63"/>
<text text-anchor="middle" x="494.17" y="-664.8" font-family="Times,serif" font-size="14.00">type</text>
</g>
<!-- example.org/id/XYZ&#45;&gt;purl.unep.org/sdg/SDGIO_00020173 -->
<g id="edge15" class="edge">
<title>example.org/id/XYZ&#45;&gt;purl.unep.org/sdg/SDGIO_00020173</title>
<path fill="none" stroke="black" d="M113.99,-349.16C133,-377.55 173.45,-432.45 220.78,-464 276.25,-500.97 347.77,-524.92 403.61,-539.39"/>
<polygon fill="black" stroke="black" points="402.93,-542.83 413.49,-541.89 404.65,-536.04 402.93,-542.83"/>
<text text-anchor="middle" x="258.78" y="-504.8" font-family="Times,serif" font-size="14.00">subjectOf</text>
</g>
<!-- example.org/id/XYZ&#45;&gt;doi.org/10.5066/F7VX0DMQ -->
<g id="edge10" class="edge">
<title>example.org/id/XYZ&#45;&gt;doi.org/10.5066/F7VX0DMQ</title>
<path fill="none" stroke="black" d="M192.53,-339.07C244.52,-343.73 310.68,-349.66 367.69,-354.76"/>
<polygon fill="black" stroke="black" points="367.59,-358.27 377.86,-355.67 368.21,-351.29 367.59,-358.27"/>
<text text-anchor="middle" x="258.78" y="-350.8" font-family="Times,serif" font-size="14.00">identifier</text>
</g>
<!-- example.org/id/XYZ&#45;&gt;&quot;https//doi.org/10.50...&quot; -->
<g id="edge14" class="edge">
<title>example.org/id/XYZ&#45;&gt;&quot;https//doi.org/10.50...&quot;</title>
<path fill="none" stroke="black" d="M148.63,-347.04C191.27,-361.22 256.58,-381.4 314.78,-393 479.3,-425.78 672.68,-439.81 796.58,-445.75"/>
<polygon fill="black" stroke="black" points="796.7,-449.26 806.86,-446.23 797.03,-442.27 796.7,-449.26"/>
<text text-anchor="middle" x="494.17" y="-440.8" font-family="Times,serif" font-size="14.00">sameAs</text>
</g>
<!-- &quot;https//example.org/i...&quot; -->
<g id="node12" class="node">
<title>&quot;https//example.org/i...&quot;</title>
<ellipse fill="none" stroke="black" stroke-width="0" cx="494.17" cy="-312" rx="122.38" ry="18"/>
<text text-anchor="middle" x="494.17" y="-308.3" font-family="Times,serif" font-size="14.00">&quot;https//example.org/i...&quot;</text>
</g>
<!-- example.org/id/XYZ&#45;&gt;&quot;https//example.org/i...&quot; -->
<g id="edge11" class="edge">
<title>example.org/id/XYZ&#45;&gt;&quot;https//example.org/i...&quot;</title>
<path fill="none" stroke="black" d="M192.21,-322.93C201.85,-322.21 211.52,-321.54 220.78,-321 267.11,-318.28 317.92,-316.32 362.98,-314.94"/>
<polygon fill="black" stroke="black" points="363.21,-318.44 373.1,-314.64 363,-311.44 363.21,-318.44"/>
<text text-anchor="middle" x="258.78" y="-324.8" font-family="Times,serif" font-size="14.00">isBasedOn</text>
</g>
<!-- www.sample&#45;data&#45;repository.org -->
<g id="node13" class="node">
<title>www.sample&#45;data&#45;repository.org</title>
<ellipse fill="none" stroke="#558855" cx="494.17" cy="-207" rx="160.57" ry="18"/>
<text text-anchor="middle" x="494.17" y="-203.3" font-family="Times,serif" font-size="14.00">www.sample&#45;data&#45;repository.org</text>
</g>
<!-- example.org/id/XYZ&#45;&gt;www.sample&#45;data&#45;repository.org -->
<g id="edge12" class="edge">
<title>example.org/id/XYZ&#45;&gt;www.sample&#45;data&#45;repository.org</title>
<path fill="none" stroke="black" d="M151.88,-315.3C222.59,-292.86 352.51,-251.63 430.05,-227.03"/>
<polygon fill="black" stroke="black" points="431.23,-230.33 439.7,-223.96 429.11,-223.65 431.23,-230.33"/>
<text text-anchor="middle" x="258.78" y="-293.8" font-family="Times,serif" font-size="14.00">provider</text>
</g>
<!-- example.org/id/XYZ&#45;&gt;www.sample&#45;data&#45;repository.org -->
<g id="edge13" class="edge">
<title>example.org/id/XYZ&#45;&gt;www.sample&#45;data&#45;repository.org</title>
<path fill="none" stroke="black" d="M123.13,-313.41C145.66,-295.3 183.45,-267.69 220.78,-253 262.7,-236.5 310.53,-225.92 354.29,-219.13"/>
<polygon fill="black" stroke="black" points="355.06,-222.55 364.44,-217.61 354.03,-215.63 355.06,-222.55"/>
<text text-anchor="middle" x="258.78" y="-256.8" font-family="Times,serif" font-size="14.00">publisher</text>
</g>
<!-- &quot;https//example.org/u...&quot; -->
<g id="node14" class="node">
<title>&quot;https//example.org/u...&quot;</title>
<ellipse fill="none" stroke="black" stroke-width="0" cx="494.17" cy="-153" rx="124.58" ry="18"/>
<text text-anchor="middle" x="494.17" y="-149.3" font-family="Times,serif" font-size="14.00">&quot;https//example.org/u...&quot;</text>
</g>
<!-- example.org/id/XYZ&#45;&gt;&quot;https//example.org/u...&quot; -->
<g id="edge16" class="edge">
<title>example.org/id/XYZ&#45;&gt;&quot;https//example.org/u...&quot;</title>
<path fill="none" stroke="black" d="M115.66,-312.89C135.67,-286.82 176.02,-238.77 220.78,-211 264.79,-183.69 319.66,-169.08 368.6,-161.33"/>
<polygon fill="black" stroke="black" points="369.25,-164.77 378.62,-159.82 368.21,-157.85 369.25,-164.77"/>
<text text-anchor="middle" x="258.78" y="-214.8" font-family="Times,serif" font-size="14.00">url</text>
</g>
<!-- Organization -->
<g id="node15" class="node">
<title>Organization</title>
<ellipse fill="none" stroke="#558855" cx="924.44" cy="-234" rx="70.69" ry="18"/>
<text text-anchor="middle" x="924.44" y="-230.3" font-family="Times,serif" font-size="14.00">Organization</text>
</g>
<!-- www.sample&#45;data&#45;repository.org&#45;&gt;Organization -->
<g id="edge17" class="edge">
<title>www.sample&#45;data&#45;repository.org&#45;&gt;Organization</title>
<path fill="none" stroke="black" d="M634.51,-215.78C704.42,-220.19 786.49,-225.37 845.26,-229.07"/>
<polygon fill="black" stroke="black" points="845.39,-232.59 855.59,-229.72 845.83,-225.6 845.39,-232.59"/>
<text text-anchor="middle" x="732.05" y="-226.8" font-family="Times,serif" font-size="14.00">type</text>
</g>
<!-- &quot;Sample Data Reposito...&quot; -->
<g id="node16" class="node">
<title>&quot;Sample Data Reposito...&quot;</title>
<ellipse fill="none" stroke="black" stroke-width="0" cx="924.44" cy="-180" rx="131.08" ry="18"/>
<text text-anchor="middle" x="924.44" y="-176.3" font-family="Times,serif" font-size="14.00">&quot;Sample Data Reposito...&quot;</text>
</g>
<!-- www.sample&#45;data&#45;repository.org&#45;&gt;&quot;Sample Data Reposito...&quot; -->
<g id="edge18" class="edge">
<title>www.sample&#45;data&#45;repository.org&#45;&gt;&quot;Sample Data Reposito...&quot;</title>
<path fill="none" stroke="black" d="M634.51,-198.22C686.01,-194.97 744.12,-191.3 794.65,-188.12"/>
<polygon fill="black" stroke="black" points="794.89,-191.61 804.65,-187.49 794.45,-184.63 794.89,-191.61"/>
<text text-anchor="middle" x="732.05" y="-197.8" font-family="Times,serif" font-size="14.00">legalName</text>
</g>
<!-- &quot;SDRO&quot; -->
<g id="node17" class="node">
<title>&quot;SDRO&quot;</title>
<ellipse fill="none" stroke="black" stroke-width="0" cx="924.44" cy="-126" rx="47.39" ry="18"/>
<text text-anchor="middle" x="924.44" y="-122.3" font-family="Times,serif" font-size="14.00">&quot;SDRO&quot;</text>
</g>
<!-- www.sample&#45;data&#45;repository.org&#45;&gt;&quot;SDRO&quot; -->
<g id="edge19" class="edge">
<title>www.sample&#45;data&#45;repository.org&#45;&gt;&quot;SDRO&quot;</title>
<path fill="none" stroke="black" d="M612,-194.7C632.77,-190.99 653.99,-186.2 673.55,-180 682.08,-177.3 683.08,-173.88 691.55,-171 750.33,-151.02 820.69,-138.93 868.37,-132.39"/>
<polygon fill="black" stroke="black" points="869.04,-135.83 878.48,-131.04 868.11,-128.9 869.04,-135.83"/>
<text text-anchor="middle" x="732.05" y="-174.8" font-family="Times,serif" font-size="14.00">name</text>
</g>
<!-- &quot;http//www.re3data.or...&quot; -->
<g id="node18" class="node">
<title>&quot;http//www.re3data.or...&quot;</title>
<ellipse fill="none" stroke="black" stroke-width="0" cx="924.44" cy="-72" rx="126.98" ry="18"/>
<text text-anchor="middle" x="924.44" y="-68.3" font-family="Times,serif" font-size="14.00">&quot;http//www.re3data.or...&quot;</text>
</g>
<!-- www.sample&#45;data&#45;repository.org&#45;&gt;&quot;http//www.re3data.or...&quot; -->
<g id="edge20" class="edge">
<title>www.sample&#45;data&#45;repository.org&#45;&gt;&quot;http//www.re3data.or...&quot;</title>
<path fill="none" stroke="black" d="M639.74,-199.14C651.94,-194.43 663.45,-188.18 673.55,-180 691.25,-165.65 675.14,-147.81 691.55,-132 724.95,-99.82 745.74,-110.97 790.55,-99 805.1,-95.11 820.68,-91.48 835.87,-88.22"/>
<polygon fill="black" stroke="black" points="836.71,-91.62 845.77,-86.13 835.27,-84.77 836.71,-91.62"/>
<text text-anchor="middle" x="732.05" y="-135.8" font-family="Times,serif" font-size="14.00">sameAs</text>
</g>
<!-- &quot;https//www.sample&#45;da...&quot; -->
<g id="node19" class="node">
<title>&quot;https//www.sample&#45;da...&quot;</title>
<ellipse fill="none" stroke="black" stroke-width="0" cx="924.44" cy="-18" rx="131.08" ry="18"/>
<text text-anchor="middle" x="924.44" y="-14.3" font-family="Times,serif" font-size="14.00">&quot;https//www.sample&#45;da...&quot;</text>
</g>
<!-- www.sample&#45;data&#45;repository.org&#45;&gt;&quot;https//www.sample&#45;da...&quot; -->
<g id="edge21" class="edge">
<title>www.sample&#45;data&#45;repository.org&#45;&gt;&quot;https//www.sample&#45;da...&quot;</title>
<path fill="none" stroke="black" d="M643,-200.15C654.23,-195.16 664.64,-188.59 673.55,-180 704.49,-150.18 664.29,-118.22 691.55,-85 716.97,-54.01 755.76,-36.83 794.39,-27.46"/>
<polygon fill="black" stroke="black" points="795.22,-30.86 804.2,-25.24 793.67,-24.03 795.22,-30.86"/>
<text text-anchor="middle" x="732.05" y="-88.8" font-family="Times,serif" font-size="14.00">url</text>
</g>
</g>
</svg>
