<?xml version="1.0" encoding="UTF-8" standalone="no"?>
<!DOCTYPE svg PUBLIC "-//W3C//DTD SVG 1.1//EN"
 "http://www.w3.org/Graphics/SVG/1.1/DTD/svg11.dtd">
<!-- Generated by graphviz version 5.0.0 (0)
 -->
<!-- Pages: 1 -->
<svg width="1004pt" height="260pt"
 viewBox="0.00 0.00 1004.43 260.00" xmlns="http://www.w3.org/2000/svg" xmlns:xlink="http://www.w3.org/1999/xlink">
<g id="graph0" class="graph" transform="scale(1 1) rotate(0) translate(4 256)">
<polygon fill="white" stroke="transparent" points="-4,4 -4,-256 1000.43,-256 1000.43,4 -4,4"/>
<!-- CreativeWork -->
<g id="node1" class="node">
<title>CreativeWork</title>
<ellipse fill="none" stroke="#558855" cx="460.32" cy="-180" rx="74.19" ry="18"/>
<text text-anchor="middle" x="460.32" y="-176.3" font-family="Times,serif" font-size="14.00">CreativeWork</text>
</g>
<!-- example.org/id/XYZ -->
<g id="node2" class="node">
<title>example.org/id/XYZ</title>
<ellipse fill="none" stroke="black" cx="101.39" cy="-153" rx="101.28" ry="18"/>
<text text-anchor="middle" x="101.39" y="-149.3" font-family="Times,serif" font-size="14.00">example.org/id/XYZ</text>
</g>
<!-- example.org/id/XYZ&#45;&gt;CreativeWork -->
<g id="edge1" class="edge">
<title>example.org/id/XYZ&#45;&gt;CreativeWork</title>
<path fill="none" stroke="black" d="M195.24,-160.02C252.19,-164.33 324.39,-169.79 378.9,-173.92"/>
<polygon fill="black" stroke="black" points="378.97,-177.43 389.21,-174.7 379.5,-170.45 378.97,-177.43"/>
<text text-anchor="middle" x="251.28" y="-169.8" font-family="Times,serif" font-size="14.00">type</text>
</g>
<!-- www.sample&#45;data&#45;repository.org -->
<g id="node3" class="node">
<title>www.sample&#45;data&#45;repository.org</title>
<ellipse fill="none" stroke="#558855" cx="460.32" cy="-126" rx="160.57" ry="18"/>
<text text-anchor="middle" x="460.32" y="-122.3" font-family="Times,serif" font-size="14.00">www.sample&#45;data&#45;repository.org</text>
</g>
<!-- example.org/id/XYZ&#45;&gt;www.sample&#45;data&#45;repository.org -->
<g id="edge2" class="edge">
<title>example.org/id/XYZ&#45;&gt;www.sample&#45;data&#45;repository.org</title>
<path fill="none" stroke="black" d="M192.88,-145.23C202.3,-144.46 211.73,-143.7 220.78,-143 250.53,-140.68 282.38,-138.33 312.8,-136.14"/>
<polygon fill="black" stroke="black" points="313.34,-139.61 323.06,-135.4 312.84,-132.63 313.34,-139.61"/>
<text text-anchor="middle" x="251.28" y="-146.8" font-family="Times,serif" font-size="14.00">provider</text>
</g>
<!-- Organization -->
<g id="node4" class="node">
<title>Organization</title>
<ellipse fill="none" stroke="#558855" cx="865.14" cy="-234" rx="70.69" ry="18"/>
<text text-anchor="middle" x="865.14" y="-230.3" font-family="Times,serif" font-size="14.00">Organization</text>
</g>
<!-- www.sample&#45;data&#45;repository.org&#45;&gt;Organization -->
<g id="edge3" class="edge">
<title>www.sample&#45;data&#45;repository.org&#45;&gt;Organization</title>
<path fill="none" stroke="black" d="M586.34,-137.3C598.5,-141.26 610.24,-146.39 620.85,-153 632.47,-160.24 627.72,-170.03 638.85,-178 674.74,-203.7 691.08,-196.06 733.85,-207 754.43,-212.26 777.04,-217.23 797.56,-221.43"/>
<polygon fill="black" stroke="black" points="796.95,-224.88 807.45,-223.43 798.34,-218.02 796.95,-224.88"/>
<text text-anchor="middle" x="677.35" y="-205.8" font-family="Times,serif" font-size="14.00">type</text>
</g>
<!-- &quot;Sample Data Reposito...&quot; -->
<g id="node5" class="node">
<title>&quot;Sample Data Reposito...&quot;</title>
<ellipse fill="none" stroke="black" stroke-width="0" cx="865.14" cy="-180" rx="131.08" ry="18"/>
<text text-anchor="middle" x="865.14" y="-176.3" font-family="Times,serif" font-size="14.00">&quot;Sample Data Reposito...&quot;</text>
</g>
<!-- www.sample&#45;data&#45;repository.org&#45;&gt;&quot;Sample Data Reposito...&quot; -->
<g id="edge4" class="edge">
<title>www.sample&#45;data&#45;repository.org&#45;&gt;&quot;Sample Data Reposito...&quot;</title>
<path fill="none" stroke="black" d="M564.01,-139.77C624.29,-147.85 700.24,-158.03 760.66,-166.13"/>
<polygon fill="black" stroke="black" points="760.22,-169.6 770.6,-167.46 761.15,-162.66 760.22,-169.6"/>
<text text-anchor="middle" x="677.35" y="-162.8" font-family="Times,serif" font-size="14.00">legalName</text>
</g>
<!-- &quot;SDRO&quot; -->
<g id="node6" class="node">
<title>&quot;SDRO&quot;</title>
<ellipse fill="none" stroke="black" stroke-width="0" cx="865.14" cy="-126" rx="47.39" ry="18"/>
<text text-anchor="middle" x="865.14" y="-122.3" font-family="Times,serif" font-size="14.00">&quot;SDRO&quot;</text>
</g>
<!-- www.sample&#45;data&#45;repository.org&#45;&gt;&quot;SDRO&quot; -->
<g id="edge5" class="edge">
<title>www.sample&#45;data&#45;repository.org&#45;&gt;&quot;SDRO&quot;</title>
<path fill="none" stroke="black" d="M621.1,-126C686.79,-126 758.66,-126 807.08,-126"/>
<polygon fill="black" stroke="black" points="807.35,-129.5 817.35,-126 807.35,-122.5 807.35,-129.5"/>
<text text-anchor="middle" x="677.35" y="-129.8" font-family="Times,serif" font-size="14.00">name</text>
</g>
<!-- &quot;http//www.re3data.or...&quot; -->
<g id="node7" class="node">
<title>&quot;http//www.re3data.or...&quot;</title>
<ellipse fill="none" stroke="black" stroke-width="0" cx="865.14" cy="-72" rx="126.98" ry="18"/>
<text text-anchor="middle" x="865.14" y="-68.3" font-family="Times,serif" font-size="14.00">&quot;http//www.re3data.or...&quot;</text>
</g>
<!-- www.sample&#45;data&#45;repository.org&#45;&gt;&quot;http//www.re3data.or...&quot; -->
<g id="edge6" class="edge">
<title>www.sample&#45;data&#45;repository.org&#45;&gt;&quot;http//www.re3data.or...&quot;</title>
<path fill="none" stroke="black" d="M564.01,-112.23C624.84,-104.08 701.64,-93.78 762.32,-85.65"/>
<polygon fill="black" stroke="black" points="762.85,-89.11 772.29,-84.31 761.92,-82.17 762.85,-89.11"/>
<text text-anchor="middle" x="677.35" y="-103.8" font-family="Times,serif" font-size="14.00">sameAs</text>
</g>
<!-- &quot;https//www.sample&#45;da...&quot; -->
<g id="node8" class="node">
<title>&quot;https//www.sample&#45;da...&quot;</title>
<ellipse fill="none" stroke="black" stroke-width="0" cx="865.14" cy="-18" rx="131.08" ry="18"/>
<text text-anchor="middle" x="865.14" y="-14.3" font-family="Times,serif" font-size="14.00">&quot;https//www.sample&#45;da...&quot;</text>
</g>
<!-- www.sample&#45;data&#45;repository.org&#45;&gt;&quot;https//www.sample&#45;da...&quot; -->
<g id="edge7" class="edge">
<title>www.sample&#45;data&#45;repository.org&#45;&gt;&quot;https//www.sample&#45;da...&quot;</title>
<path fill="none" stroke="black" d="M513.7,-108.96C568.3,-91.54 656.53,-64.37 733.85,-45 748.05,-41.44 763.21,-37.99 777.97,-34.81"/>
<polygon fill="black" stroke="black" points="779.06,-38.16 788.12,-32.66 777.61,-31.31 779.06,-38.16"/>
<text text-anchor="middle" x="677.35" y="-72.8" font-family="Times,serif" font-size="14.00">url</text>
</g>
</g>
</svg>
