<?xml version="1.0" encoding="UTF-8" standalone="no"?>
<!DOCTYPE svg PUBLIC "-//W3C//DTD SVG 1.1//EN"
 "http://www.w3.org/Graphics/SVG/1.1/DTD/svg11.dtd">
<!-- Generated by graphviz version 5.0.0 (0)
 -->
<!-- Pages: 1 -->
<svg width="1011pt" height="260pt"
 viewBox="0.00 0.00 1011.43 260.00" xmlns="http://www.w3.org/2000/svg" xmlns:xlink="http://www.w3.org/1999/xlink">
<g id="graph0" class="graph" transform="scale(1 1) rotate(0) translate(4 256)">
<polygon fill="white" stroke="transparent" points="-4,4 -4,-256 1007.43,-256 1007.43,4 -4,4"/>
<!-- CreativeWork -->
<g id="node1" class="node">
<title>CreativeWork</title>
<ellipse fill="none" stroke="#558855" cx="467.32" cy="-180" rx="74.19" ry="18"/>
<text text-anchor="middle" x="467.32" y="-176.3" font-family="Times,serif" font-size="14.00">CreativeWork</text>
</g>
<!-- example.org/id/XYZ -->
<g id="node2" class="node">
<title>example.org/id/XYZ</title>
<ellipse fill="none" stroke="black" cx="101.39" cy="-153" rx="101.28" ry="18"/>
<text text-anchor="middle" x="101.39" y="-149.3" font-family="Times,serif" font-size="14.00">example.org/id/XYZ</text>
</g>
<!-- example.org/id/XYZ&#45;&gt;CreativeWork -->
<g id="edge1" class="edge">
<title>example.org/id/XYZ&#45;&gt;CreativeWork</title>
<path fill="none" stroke="black" d="M195.17,-159.88C254.05,-164.25 329.48,-169.85 385.83,-174.03"/>
<polygon fill="black" stroke="black" points="385.89,-177.54 396.12,-174.79 386.41,-170.56 385.89,-177.54"/>
<text text-anchor="middle" x="254.78" y="-169.8" font-family="Times,serif" font-size="14.00">type</text>
</g>
<!-- www.sample&#45;data&#45;repository.org -->
<g id="node3" class="node">
<title>www.sample&#45;data&#45;repository.org</title>
<ellipse fill="none" stroke="#558855" cx="467.32" cy="-126" rx="160.57" ry="18"/>
<text text-anchor="middle" x="467.32" y="-122.3" font-family="Times,serif" font-size="14.00">www.sample&#45;data&#45;repository.org</text>
</g>
<!-- example.org/id/XYZ&#45;&gt;www.sample&#45;data&#45;repository.org -->
<g id="edge2" class="edge">
<title>example.org/id/XYZ&#45;&gt;www.sample&#45;data&#45;repository.org</title>
<path fill="none" stroke="black" d="M192.87,-145.22C202.3,-144.45 211.73,-143.7 220.78,-143 252.54,-140.56 286.62,-138.1 318.98,-135.84"/>
<polygon fill="black" stroke="black" points="319.23,-139.33 328.96,-135.14 318.74,-132.35 319.23,-139.33"/>
<text text-anchor="middle" x="254.78" y="-146.8" font-family="Times,serif" font-size="14.00">publisher</text>
</g>
<!-- Organization -->
<g id="node4" class="node">
<title>Organization</title>
<ellipse fill="none" stroke="#558855" cx="872.14" cy="-234" rx="70.69" ry="18"/>
<text text-anchor="middle" x="872.14" y="-230.3" font-family="Times,serif" font-size="14.00">Organization</text>
</g>
<!-- www.sample&#45;data&#45;repository.org&#45;&gt;Organization -->
<g id="edge3" class="edge">
<title>www.sample&#45;data&#45;repository.org&#45;&gt;Organization</title>
<path fill="none" stroke="black" d="M593.34,-137.3C605.5,-141.26 617.24,-146.39 627.85,-153 639.47,-160.24 634.72,-170.03 645.85,-178 681.74,-203.7 698.08,-196.06 740.85,-207 761.43,-212.26 784.04,-217.23 804.56,-221.43"/>
<polygon fill="black" stroke="black" points="803.95,-224.88 814.45,-223.43 805.34,-218.02 803.95,-224.88"/>
<text text-anchor="middle" x="684.35" y="-205.8" font-family="Times,serif" font-size="14.00">type</text>
</g>
<!-- &quot;Sample Data Reposito...&quot; -->
<g id="node5" class="node">
<title>&quot;Sample Data Reposito...&quot;</title>
<ellipse fill="none" stroke="black" stroke-width="0" cx="872.14" cy="-180" rx="131.08" ry="18"/>
<text text-anchor="middle" x="872.14" y="-176.3" font-family="Times,serif" font-size="14.00">&quot;Sample Data Reposito...&quot;</text>
</g>
<!-- www.sample&#45;data&#45;repository.org&#45;&gt;&quot;Sample Data Reposito...&quot; -->
<g id="edge4" class="edge">
<title>www.sample&#45;data&#45;repository.org&#45;&gt;&quot;Sample Data Reposito...&quot;</title>
<path fill="none" stroke="black" d="M571.01,-139.77C631.29,-147.85 707.24,-158.03 767.66,-166.13"/>
<polygon fill="black" stroke="black" points="767.22,-169.6 777.6,-167.46 768.15,-162.66 767.22,-169.6"/>
<text text-anchor="middle" x="684.35" y="-162.8" font-family="Times,serif" font-size="14.00">legalName</text>
</g>
<!-- &quot;SDRO&quot; -->
<g id="node6" class="node">
<title>&quot;SDRO&quot;</title>
<ellipse fill="none" stroke="black" stroke-width="0" cx="872.14" cy="-126" rx="47.39" ry="18"/>
<text text-anchor="middle" x="872.14" y="-122.3" font-family="Times,serif" font-size="14.00">&quot;SDRO&quot;</text>
</g>
<!-- www.sample&#45;data&#45;repository.org&#45;&gt;&quot;SDRO&quot; -->
<g id="edge5" class="edge">
<title>www.sample&#45;data&#45;repository.org&#45;&gt;&quot;SDRO&quot;</title>
<path fill="none" stroke="black" d="M628.1,-126C693.79,-126 765.66,-126 814.08,-126"/>
<polygon fill="black" stroke="black" points="814.35,-129.5 824.35,-126 814.35,-122.5 814.35,-129.5"/>
<text text-anchor="middle" x="684.35" y="-129.8" font-family="Times,serif" font-size="14.00">name</text>
</g>
<!-- &quot;http//www.re3data.or...&quot; -->
<g id="node7" class="node">
<title>&quot;http//www.re3data.or...&quot;</title>
<ellipse fill="none" stroke="black" stroke-width="0" cx="872.14" cy="-72" rx="126.98" ry="18"/>
<text text-anchor="middle" x="872.14" y="-68.3" font-family="Times,serif" font-size="14.00">&quot;http//www.re3data.or...&quot;</text>
</g>
<!-- www.sample&#45;data&#45;repository.org&#45;&gt;&quot;http//www.re3data.or...&quot; -->
<g id="edge6" class="edge">
<title>www.sample&#45;data&#45;repository.org&#45;&gt;&quot;http//www.re3data.or...&quot;</title>
<path fill="none" stroke="black" d="M571.01,-112.23C631.84,-104.08 708.64,-93.78 769.32,-85.65"/>
<polygon fill="black" stroke="black" points="769.85,-89.11 779.29,-84.31 768.92,-82.17 769.85,-89.11"/>
<text text-anchor="middle" x="684.35" y="-103.8" font-family="Times,serif" font-size="14.00">sameAs</text>
</g>
<!-- &quot;https//www.sample&#45;da...&quot; -->
<g id="node8" class="node">
<title>&quot;https//www.sample&#45;da...&quot;</title>
<ellipse fill="none" stroke="black" stroke-width="0" cx="872.14" cy="-18" rx="131.08" ry="18"/>
<text text-anchor="middle" x="872.14" y="-14.3" font-family="Times,serif" font-size="14.00">&quot;https//www.sample&#45;da...&quot;</text>
</g>
<!-- www.sample&#45;data&#45;repository.org&#45;&gt;&quot;https//www.sample&#45;da...&quot; -->
<g id="edge7" class="edge">
<title>www.sample&#45;data&#45;repository.org&#45;&gt;&quot;https//www.sample&#45;da...&quot;</title>
<path fill="none" stroke="black" d="M520.7,-108.96C575.3,-91.54 663.53,-64.37 740.85,-45 755.05,-41.44 770.21,-37.99 784.97,-34.81"/>
<polygon fill="black" stroke="black" points="786.06,-38.16 795.12,-32.66 784.61,-31.31 786.06,-38.16"/>
<text text-anchor="middle" x="684.35" y="-72.8" font-family="Times,serif" font-size="14.00">url</text>
</g>
</g>
</svg>
