<?xml version="1.0" encoding="UTF-8" standalone="no"?>
<!DOCTYPE svg PUBLIC "-//W3C//DTD SVG 1.1//EN"
 "http://www.w3.org/Graphics/SVG/1.1/DTD/svg11.dtd">
<!-- Generated by graphviz version 5.0.0 (0)
 -->
<!-- Pages: 1 -->
<svg width="542pt" height="98pt"
 viewBox="0.00 0.00 542.26 98.00" xmlns="http://www.w3.org/2000/svg" xmlns:xlink="http://www.w3.org/1999/xlink">
<g id="graph0" class="graph" transform="scale(1 1) rotate(0) translate(4 94)">
<polygon fill="white" stroke="transparent" points="-4,4 -4,-94 538.26,-94 538.26,4 -4,4"/>
<!-- CreativeWork -->
<g id="node1" class="node">
<title>CreativeWork</title>
<ellipse fill="none" stroke="#558855" cx="414.02" cy="-72" rx="74.19" ry="18"/>
<text text-anchor="middle" x="414.02" y="-68.3" font-family="Times,serif" font-size="14.00">CreativeWork</text>
</g>
<!-- example.org/id/XYZ -->
<g id="node2" class="node">
<title>example.org/id/XYZ</title>
<ellipse fill="none" stroke="black" cx="101.39" cy="-45" rx="101.28" ry="18"/>
<text text-anchor="middle" x="101.39" y="-41.3" font-family="Times,serif" font-size="14.00">example.org/id/XYZ</text>
</g>
<!-- example.org/id/XYZ&#45;&gt;CreativeWork -->
<g id="edge1" class="edge">
<title>example.org/id/XYZ&#45;&gt;CreativeWork</title>
<path fill="none" stroke="black" d="M192.66,-52.85C237.27,-56.72 290.61,-61.36 333.65,-65.1"/>
<polygon fill="black" stroke="black" points="333.52,-68.6 343.79,-65.98 334.13,-61.63 333.52,-68.6"/>
<text text-anchor="middle" x="248.28" y="-62.8" font-family="Times,serif" font-size="14.00">type</text>
</g>
<!-- &quot;https//doi.org/10.50...&quot; -->
<g id="node3" class="node">
<title>&quot;https//doi.org/10.50...&quot;</title>
<ellipse fill="none" stroke="black" stroke-width="0" cx="414.02" cy="-18" rx="120.48" ry="18"/>
<text text-anchor="middle" x="414.02" y="-14.3" font-family="Times,serif" font-size="14.00">&quot;https//doi.org/10.50...&quot;</text>
</g>
<!-- example.org/id/XYZ&#45;&gt;&quot;https//doi.org/10.50...&quot; -->
<g id="edge2" class="edge">
<title>example.org/id/XYZ&#45;&gt;&quot;https//doi.org/10.50...&quot;</title>
<path fill="none" stroke="black" d="M192.66,-37.15C226,-34.26 264.22,-30.93 299.37,-27.88"/>
<polygon fill="black" stroke="black" points="300.02,-31.34 309.68,-26.98 299.41,-24.36 300.02,-31.34"/>
<text text-anchor="middle" x="248.28" y="-36.8" font-family="Times,serif" font-size="14.00">sameAs</text>
</g>
</g>
</svg>
