<?xml version="1.0" encoding="UTF-8" standalone="no"?>
<!DOCTYPE svg PUBLIC "-//W3C//DTD SVG 1.1//EN"
 "http://www.w3.org/Graphics/SVG/1.1/DTD/svg11.dtd">
<!-- Generated by graphviz version 5.0.0 (0)
 -->
<!-- Pages: 1 -->
<svg width="849pt" height="597pt"
 viewBox="0.00 0.00 849.34 597.49" xmlns="http://www.w3.org/2000/svg" xmlns:xlink="http://www.w3.org/1999/xlink">
<g id="graph0" class="graph" transform="scale(1 1) rotate(0) translate(4 593.49)">
<polygon fill="white" stroke="transparent" points="-4,4 -4,-593.49 845.34,-593.49 845.34,4 -4,4"/>
<!-- Dataset -->
<g id="node1" class="node">
<title>Dataset</title>
<ellipse fill="none" stroke="#558855" cx="399.37" cy="-480.49" rx="46.59" ry="18"/>
<text text-anchor="middle" x="399.37" y="-476.79" font-family="Times,serif" font-size="14.00">Dataset</text>
</g>
<!-- example.org/dataset/12345 -->
<g id="node2" class="node">
<title>example.org/dataset/12345</title>
<ellipse fill="none" stroke="black" cx="137.79" cy="-387.49" rx="137.58" ry="18"/>
<text text-anchor="middle" x="137.79" y="-383.79" font-family="Times,serif" font-size="14.00">example.org/dataset/12345</text>
</g>
<!-- example.org/dataset/12345&#45;&gt;Dataset -->
<g id="edge1" class="edge">
<title>example.org/dataset/12345&#45;&gt;Dataset</title>
<path fill="none" stroke="black" d="M186.1,-404.44C234.29,-421.71 308.39,-448.25 355.08,-464.98"/>
<polygon fill="black" stroke="black" points="354.01,-468.32 364.61,-468.39 356.37,-461.73 354.01,-468.32"/>
<text text-anchor="middle" x="314.08" y="-459.29" font-family="Times,serif" font-size="14.00">type</text>
</g>
<!-- _ -->
<g id="node3" class="node">
<title>_</title>
<ellipse fill="none" stroke="#558855" cx="399.37" cy="-294.49" rx="27" ry="18"/>
<text text-anchor="middle" x="399.37" y="-290.79" font-family="Times,serif" font-size="14.00">_</text>
</g>
<!-- example.org/dataset/12345&#45;&gt;_ -->
<g id="edge2" class="edge">
<title>example.org/dataset/12345&#45;&gt;_</title>
<path fill="none" stroke="black" d="M186.1,-370.54C238.03,-351.93 320.05,-322.55 365.43,-306.29"/>
<polygon fill="black" stroke="black" points="366.84,-309.51 375.07,-302.84 364.48,-302.92 366.84,-309.51"/>
<text text-anchor="middle" x="314.08" y="-333.29" font-family="Times,serif" font-size="14.00">about</text>
</g>
<!-- _&#45;&gt;_ -->
<g id="edge10" class="edge">
<title>_&#45;&gt;_</title>
<path fill="none" stroke="black" d="M395.57,-312.64C394.99,-322.03 396.25,-330.49 399.37,-330.49 401.27,-330.49 402.48,-327.35 403.01,-322.77"/>
<polygon fill="black" stroke="black" points="406.51,-322.7 403.17,-312.64 399.51,-322.59 406.51,-322.7"/>
<text text-anchor="middle" x="399.37" y="-334.29" font-family="Times,serif" font-size="14.00">potentialAction</text>
</g>
<!-- _&#45;&gt;_ -->
<g id="edge11" class="edge">
<title>_&#45;&gt;_</title>
<path fill="none" stroke="black" d="M393.11,-312.19C389.66,-329.49 391.74,-348.49 399.37,-348.49 405.51,-348.49 408.06,-336.18 407.02,-322.36"/>
<polygon fill="black" stroke="black" points="410.45,-321.62 405.63,-312.19 403.52,-322.57 410.45,-321.62"/>
<text text-anchor="middle" x="399.37" y="-352.29" font-family="Times,serif" font-size="14.00">potentialAction</text>
</g>
<!-- _&#45;&gt;_ -->
<g id="edge17" class="edge">
<title>_&#45;&gt;_</title>
<path fill="none" stroke="black" d="M391.61,-311.84C384.3,-336.31 386.88,-366.49 399.37,-366.49 410.2,-366.49 413.58,-343.79 409.52,-321.81"/>
<polygon fill="black" stroke="black" points="412.87,-320.75 407.13,-311.84 406.06,-322.38 412.87,-320.75"/>
<text text-anchor="middle" x="399.37" y="-370.29" font-family="Times,serif" font-size="14.00">instrument</text>
</g>
<!-- _&#45;&gt;_ -->
<g id="edge20" class="edge">
<title>_&#45;&gt;_</title>
<path fill="none" stroke="black" d="M390.57,-311.72C378.96,-342.95 381.9,-384.49 399.37,-384.49 415.07,-384.49 419.03,-350.96 411.26,-321.5"/>
<polygon fill="black" stroke="black" points="414.52,-320.2 408.18,-311.72 407.85,-322.31 414.52,-320.2"/>
<text text-anchor="middle" x="399.37" y="-388.29" font-family="Times,serif" font-size="14.00">instrument</text>
</g>
<!-- Thing -->
<g id="node4" class="node">
<title>Thing</title>
<ellipse fill="none" stroke="#558855" cx="702.25" cy="-560.49" rx="37.09" ry="18"/>
<text text-anchor="middle" x="702.25" y="-556.79" font-family="Times,serif" font-size="14.00">Thing</text>
</g>
<!-- _&#45;&gt;Thing -->
<g id="edge3" class="edge">
<title>_&#45;&gt;Thing</title>
<path fill="none" stroke="black" d="M405.9,-312.02C414.98,-341.19 433.35,-401.62 446.17,-453.49 455.64,-491.82 434.62,-514.29 464.17,-540.49 517.48,-587.77 606.59,-580.41 659.05,-570.58"/>
<polygon fill="black" stroke="black" points="659.91,-573.98 669.04,-568.6 658.55,-567.12 659.91,-573.98"/>
<text text-anchor="middle" x="504.67" y="-578.29" font-family="Times,serif" font-size="14.00">type</text>
</g>
<!-- _&#45;&gt;Thing -->
<g id="edge12" class="edge">
<title>_&#45;&gt;Thing</title>
<path fill="none" stroke="black" d="M405.3,-312.27C419,-361.38 456.96,-495.75 464.17,-502.49 491.18,-527.74 510.68,-508.16 545.17,-521.49 553.7,-524.79 554.59,-528.29 563.17,-531.49 593.19,-542.69 628.58,-550.01 656.01,-554.5"/>
<polygon fill="black" stroke="black" points="655.69,-557.99 666.11,-556.08 656.77,-551.08 655.69,-557.99"/>
<text text-anchor="middle" x="504.67" y="-525.29" font-family="Times,serif" font-size="14.00">type</text>
</g>
<!-- &quot;A high precision 3D ...&quot; -->
<g id="node5" class="node">
<title>&quot;A high precision 3D ...&quot;</title>
<ellipse fill="none" stroke="black" stroke-width="0" cx="702.25" cy="-504.49" rx="122.38" ry="18"/>
<text text-anchor="middle" x="702.25" y="-500.79" font-family="Times,serif" font-size="14.00">&quot;A high precision 3D ...&quot;</text>
</g>
<!-- _&#45;&gt;&quot;A high precision 3D ...&quot; -->
<g id="edge4" class="edge">
<title>_&#45;&gt;&quot;A high precision 3D ...&quot;</title>
<path fill="none" stroke="black" d="M401.46,-312.46C404.61,-347.62 416.86,-425.49 464.17,-464.49 474.88,-473.32 538.5,-483.78 597.14,-491.79"/>
<polygon fill="black" stroke="black" points="596.88,-495.28 607.26,-493.15 597.81,-488.34 596.88,-495.28"/>
<text text-anchor="middle" x="504.67" y="-487.29" font-family="Times,serif" font-size="14.00">description</text>
</g>
<!-- &quot;Metek uSonic&#45;3 Scien...&quot; -->
<g id="node6" class="node">
<title>&quot;Metek uSonic&#45;3 Scien...&quot;</title>
<ellipse fill="none" stroke="black" stroke-width="0" cx="702.25" cy="-450.49" rx="128.88" ry="18"/>
<text text-anchor="middle" x="702.25" y="-446.79" font-family="Times,serif" font-size="14.00">&quot;Metek uSonic&#45;3 Scien...&quot;</text>
</g>
<!-- _&#45;&gt;&quot;Metek uSonic&#45;3 Scien...&quot; -->
<g id="edge5" class="edge">
<title>_&#45;&gt;&quot;Metek uSonic&#45;3 Scien...&quot;</title>
<path fill="none" stroke="black" d="M403.37,-312.61C409.28,-341.96 425.38,-399.34 464.17,-426.49 481.23,-438.43 521.52,-444.69 564.15,-447.89"/>
<polygon fill="black" stroke="black" points="563.92,-451.39 574.14,-448.59 564.41,-444.4 563.92,-451.39"/>
<text text-anchor="middle" x="504.67" y="-449.29" font-family="Times,serif" font-size="14.00">name</text>
</g>
<!-- &quot;http//vocab.nerc.ac....&quot; -->
<g id="node7" class="node">
<title>&quot;http//vocab.nerc.ac....&quot;</title>
<ellipse fill="none" stroke="black" stroke-width="0" cx="702.25" cy="-396.49" rx="120.48" ry="18"/>
<text text-anchor="middle" x="702.25" y="-392.79" font-family="Times,serif" font-size="14.00">&quot;http//vocab.nerc.ac....&quot;</text>
</g>
<!-- _&#45;&gt;&quot;http//vocab.nerc.ac....&quot; -->
<g id="edge6" class="edge">
<title>_&#45;&gt;&quot;http//vocab.nerc.ac....&quot;</title>
<path fill="none" stroke="black" d="M406.85,-312.12C415.93,-333.96 434.71,-370.27 464.17,-386.49 508.97,-411.16 566.07,-414.25 613.01,-410.9"/>
<polygon fill="black" stroke="black" points="613.49,-414.37 623.17,-410.06 612.91,-407.39 613.49,-414.37"/>
<text text-anchor="middle" x="504.67" y="-413.29" font-family="Times,serif" font-size="14.00">url</text>
</g>
<!-- _&#45;&gt;&quot;http//vocab.nerc.ac....&quot; -->
<g id="edge15" class="edge">
<title>_&#45;&gt;&quot;http//vocab.nerc.ac....&quot;</title>
<path fill="none" stroke="black" d="M416.36,-308.82C428.66,-319.19 446.5,-332.84 464.17,-341.49 490.61,-354.44 558.54,-369.59 614.95,-380.71"/>
<polygon fill="black" stroke="black" points="614.48,-384.19 624.97,-382.67 615.82,-377.31 614.48,-384.19"/>
<text text-anchor="middle" x="504.67" y="-368.29" font-family="Times,serif" font-size="14.00">url</text>
</g>
<!-- Event -->
<g id="node8" class="node">
<title>Event</title>
<ellipse fill="none" stroke="#558855" cx="702.25" cy="-342.49" rx="38.19" ry="18"/>
<text text-anchor="middle" x="702.25" y="-338.79" font-family="Times,serif" font-size="14.00">Event</text>
</g>
<!-- _&#45;&gt;Event -->
<g id="edge7" class="edge">
<title>_&#45;&gt;Event</title>
<path fill="none" stroke="black" d="M424.46,-301.21C436.35,-304.35 450.94,-307.95 464.17,-310.49 529.72,-323.09 606.4,-332.48 654.41,-337.73"/>
<polygon fill="black" stroke="black" points="654.18,-341.22 664.5,-338.81 654.93,-334.26 654.18,-341.22"/>
<text text-anchor="middle" x="504.67" y="-326.29" font-family="Times,serif" font-size="14.00">type</text>
</g>
<!-- &quot;describe the activit...&quot; -->
<g id="node9" class="node">
<title>&quot;describe the activit...&quot;</title>
<ellipse fill="none" stroke="black" stroke-width="0" cx="702.25" cy="-288.49" rx="118.08" ry="18"/>
<text text-anchor="middle" x="702.25" y="-284.79" font-family="Times,serif" font-size="14.00">&quot;describe the activit...&quot;</text>
</g>
<!-- _&#45;&gt;&quot;describe the activit...&quot; -->
<g id="edge8" class="edge">
<title>_&#45;&gt;&quot;describe the activit...&quot;</title>
<path fill="none" stroke="black" d="M426.55,-293.97C459.72,-293.31 519.26,-292.12 574.44,-291.02"/>
<polygon fill="black" stroke="black" points="574.76,-294.51 584.69,-290.81 574.62,-287.51 574.76,-294.51"/>
<text text-anchor="middle" x="504.67" y="-296.29" font-family="Times,serif" font-size="14.00">description</text>
</g>
<!-- &quot;Measurement of sea s...&quot; -->
<g id="node10" class="node">
<title>&quot;Measurement of sea s...&quot;</title>
<ellipse fill="none" stroke="black" stroke-width="0" cx="702.25" cy="-234.49" rx="130.78" ry="18"/>
<text text-anchor="middle" x="702.25" y="-230.79" font-family="Times,serif" font-size="14.00">&quot;Measurement of sea s...&quot;</text>
</g>
<!-- _&#45;&gt;&quot;Measurement of sea s...&quot; -->
<g id="edge9" class="edge">
<title>_&#45;&gt;&quot;Measurement of sea s...&quot;</title>
<path fill="none" stroke="black" d="M423.11,-285.57C435.16,-281.12 450.3,-275.96 464.17,-272.49 505.91,-262.03 552.55,-253.83 593.34,-247.76"/>
<polygon fill="black" stroke="black" points="593.91,-251.21 603.3,-246.3 592.9,-244.29 593.91,-251.21"/>
<text text-anchor="middle" x="504.67" y="-276.29" font-family="Times,serif" font-size="14.00">name</text>
</g>
<!-- _&#45;&gt;&quot;Measurement of sea s...&quot; -->
<g id="edge18" class="edge">
<title>_&#45;&gt;&quot;Measurement of sea s...&quot;</title>
<path fill="none" stroke="black" d="M412.24,-278.48C423.73,-264.43 442.56,-244.95 464.17,-236.49 508.89,-218.98 562.09,-217.02 606.76,-220.07"/>
<polygon fill="black" stroke="black" points="606.5,-223.56 616.74,-220.84 607.04,-216.58 606.5,-223.56"/>
<text text-anchor="middle" x="504.67" y="-240.29" font-family="Times,serif" font-size="14.00">name</text>
</g>
<!-- &quot;The WaMoS II 500 rad...&quot; -->
<g id="node11" class="node">
<title>&quot;The WaMoS II 500 rad...&quot;</title>
<ellipse fill="none" stroke="black" stroke-width="0" cx="702.25" cy="-180.49" rx="131.88" ry="18"/>
<text text-anchor="middle" x="702.25" y="-176.79" font-family="Times,serif" font-size="14.00">&quot;The WaMoS II 500 rad...&quot;</text>
</g>
<!-- _&#45;&gt;&quot;The WaMoS II 500 rad...&quot; -->
<g id="edge13" class="edge">
<title>_&#45;&gt;&quot;The WaMoS II 500 rad...&quot;</title>
<path fill="none" stroke="black" d="M406.7,-277.07C415.72,-255.02 434.55,-217.82 464.17,-200.49 499.67,-179.72 543.41,-172.08 583.62,-170.5"/>
<polygon fill="black" stroke="black" points="583.86,-174 593.76,-170.23 583.67,-167 583.86,-174"/>
<text text-anchor="middle" x="504.67" y="-204.29" font-family="Times,serif" font-size="14.00">description</text>
</g>
<!-- &quot;OceanWaveS WaMoS II ...&quot; -->
<g id="node12" class="node">
<title>&quot;OceanWaveS WaMoS II ...&quot;</title>
<ellipse fill="none" stroke="black" stroke-width="0" cx="702.25" cy="-126.49" rx="139.18" ry="18"/>
<text text-anchor="middle" x="702.25" y="-122.79" font-family="Times,serif" font-size="14.00">&quot;OceanWaveS WaMoS II ...&quot;</text>
</g>
<!-- _&#45;&gt;&quot;OceanWaveS WaMoS II ...&quot; -->
<g id="edge14" class="edge">
<title>_&#45;&gt;&quot;OceanWaveS WaMoS II ...&quot;</title>
<path fill="none" stroke="black" d="M402.9,-276.37C408.21,-245.72 423.6,-184.09 464.17,-154.49 494.31,-132.49 532.58,-122.51 569.53,-118.8"/>
<polygon fill="black" stroke="black" points="570.24,-122.25 579.9,-117.92 569.64,-115.28 570.24,-122.25"/>
<text text-anchor="middle" x="504.67" y="-158.29" font-family="Times,serif" font-size="14.00">name</text>
</g>
<!-- Action -->
<g id="node13" class="node">
<title>Action</title>
<ellipse fill="none" stroke="#558855" cx="702.25" cy="-72.49" rx="40.09" ry="18"/>
<text text-anchor="middle" x="702.25" y="-68.79" font-family="Times,serif" font-size="14.00">Action</text>
</g>
<!-- _&#45;&gt;Action -->
<g id="edge16" class="edge">
<title>_&#45;&gt;Action</title>
<path fill="none" stroke="black" d="M400.49,-276.3C401.8,-237.69 410.75,-147.51 464.17,-103.49 478.4,-91.76 587.16,-81.37 652.32,-76.12"/>
<polygon fill="black" stroke="black" points="652.69,-79.6 662.39,-75.32 652.14,-72.62 652.69,-79.6"/>
<text text-anchor="middle" x="504.67" y="-107.29" font-family="Times,serif" font-size="14.00">type</text>
</g>
<!-- _&#45;&gt;Action -->
<g id="edge19" class="edge">
<title>_&#45;&gt;Action</title>
<path fill="none" stroke="black" d="M402.63,-276.61C409.23,-227.63 430.15,-93.26 464.17,-67.49 492.94,-45.69 593.54,-56.1 654.06,-64.82"/>
<polygon fill="black" stroke="black" points="653.74,-68.31 664.14,-66.31 654.76,-61.39 653.74,-68.31"/>
<text text-anchor="middle" x="504.67" y="-71.29" font-family="Times,serif" font-size="14.00">type</text>
</g>
<!-- &quot;Measurement of ocean...&quot; -->
<g id="node14" class="node">
<title>&quot;Measurement of ocean...&quot;</title>
<ellipse fill="none" stroke="black" stroke-width="0" cx="702.25" cy="-18.49" rx="133.78" ry="18"/>
<text text-anchor="middle" x="702.25" y="-14.79" font-family="Times,serif" font-size="14.00">&quot;Measurement of ocean...&quot;</text>
</g>
<!-- _&#45;&gt;&quot;Measurement of ocean...&quot; -->
<g id="edge21" class="edge">
<title>_&#45;&gt;&quot;Measurement of ocean...&quot;</title>
<path fill="none" stroke="black" d="M402.13,-276.21C407.7,-222.51 426.81,-66.98 464.17,-35.49 506.45,0.16 569.44,3.14 619.87,-2.11"/>
<polygon fill="black" stroke="black" points="619.76,-5.62 630.1,-3.31 620.57,1.33 619.76,-5.62"/>
<text text-anchor="middle" x="504.67" y="-39.29" font-family="Times,serif" font-size="14.00">name</text>
</g>
</g>
</svg>
