<?xml version="1.0" encoding="UTF-8" standalone="no"?>
<!DOCTYPE svg PUBLIC "-//W3C//DTD SVG 1.1//EN"
 "http://www.w3.org/Graphics/SVG/1.1/DTD/svg11.dtd">
<!-- Generated by graphviz version 5.0.0 (0)
 -->
<!-- Pages: 1 -->
<svg width="912pt" height="314pt"
 viewBox="0.00 0.00 911.94 314.00" xmlns="http://www.w3.org/2000/svg" xmlns:xlink="http://www.w3.org/1999/xlink">
<g id="graph0" class="graph" transform="scale(1 1) rotate(0) translate(4 310)">
<polygon fill="white" stroke="transparent" points="-4,4 -4,-310 907.94,-310 907.94,4 -4,4"/>
<!-- Dataset -->
<g id="node1" class="node">
<title>Dataset</title>
<ellipse fill="none" stroke="#558855" cx="474.37" cy="-273" rx="46.59" ry="18"/>
<text text-anchor="middle" x="474.37" y="-269.3" font-family="Times,serif" font-size="14.00">Dataset</text>
</g>
<!-- example.org/dataset/12345 -->
<g id="node2" class="node">
<title>example.org/dataset/12345</title>
<ellipse fill="none" stroke="black" cx="137.79" cy="-213" rx="137.58" ry="18"/>
<text text-anchor="middle" x="137.79" y="-209.3" font-family="Times,serif" font-size="14.00">example.org/dataset/12345</text>
</g>
<!-- example.org/dataset/12345&#45;&gt;Dataset -->
<g id="edge1" class="edge">
<title>example.org/dataset/12345&#45;&gt;Dataset</title>
<path fill="none" stroke="black" d="M219.78,-227.52C282.46,-238.77 367.41,-254 421.31,-263.66"/>
<polygon fill="black" stroke="black" points="420.87,-267.14 431.33,-265.46 422.1,-260.25 420.87,-267.14"/>
<text text-anchor="middle" x="351.58" y="-264.8" font-family="Times,serif" font-size="14.00">type</text>
</g>
<!-- _ -->
<g id="node3" class="node">
<title>_</title>
<ellipse fill="none" stroke="#558855" cx="474.37" cy="-153" rx="27" ry="18"/>
<text text-anchor="middle" x="474.37" y="-149.3" font-family="Times,serif" font-size="14.00">_</text>
</g>
<!-- example.org/dataset/12345&#45;&gt;_ -->
<g id="edge2" class="edge">
<title>example.org/dataset/12345&#45;&gt;_</title>
<path fill="none" stroke="black" d="M219.78,-198.48C289.44,-185.98 386.59,-168.56 438.08,-159.33"/>
<polygon fill="black" stroke="black" points="438.82,-162.75 448.05,-157.54 437.59,-155.86 438.82,-162.75"/>
<text text-anchor="middle" x="351.58" y="-187.8" font-family="Times,serif" font-size="14.00">spatialCoverage</text>
</g>
<!-- _&#45;&gt;_ -->
<g id="edge4" class="edge">
<title>_&#45;&gt;_</title>
<path fill="none" stroke="black" d="M465.16,-170.04C463.28,-179.86 466.35,-189 474.37,-189 479.39,-189 482.47,-185.43 483.61,-180.35"/>
<polygon fill="black" stroke="black" points="487.11,-180.03 483.59,-170.04 480.11,-180.05 487.11,-180.03"/>
<text text-anchor="middle" x="474.37" y="-192.8" font-family="Times,serif" font-size="14.00">additionalProperty</text>
</g>
<!-- _&#45;&gt;_ -->
<g id="edge5" class="edge">
<title>_&#45;&gt;_</title>
<path fill="none" stroke="black" d="M460.06,-168.48C449.9,-186.33 454.67,-207 474.37,-207 490.69,-207 496.76,-192.82 492.6,-177.81"/>
<polygon fill="black" stroke="black" points="495.78,-176.35 488.69,-168.48 489.33,-179.05 495.78,-176.35"/>
<text text-anchor="middle" x="474.37" y="-210.8" font-family="Times,serif" font-size="14.00">geo</text>
</g>
<!-- Place -->
<g id="node4" class="node">
<title>Place</title>
<ellipse fill="none" stroke="#558855" cx="770.06" cy="-288" rx="36" ry="18"/>
<text text-anchor="middle" x="770.06" y="-284.3" font-family="Times,serif" font-size="14.00">Place</text>
</g>
<!-- _&#45;&gt;Place -->
<g id="edge3" class="edge">
<title>_&#45;&gt;Place</title>
<path fill="none" stroke="black" d="M486.55,-169.43C498.1,-185.31 517.44,-209.09 539.17,-224 595.77,-262.86 675.42,-278.22 724.56,-284.23"/>
<polygon fill="black" stroke="black" points="724.23,-287.72 734.57,-285.38 725.03,-280.76 724.23,-287.72"/>
<text text-anchor="middle" x="578.67" y="-263.8" font-family="Times,serif" font-size="14.00">type</text>
</g>
<!-- PropertyValue -->
<g id="node5" class="node">
<title>PropertyValue</title>
<ellipse fill="none" stroke="#558855" cx="770.06" cy="-234" rx="77.19" ry="18"/>
<text text-anchor="middle" x="770.06" y="-230.3" font-family="Times,serif" font-size="14.00">PropertyValue</text>
</g>
<!-- _&#45;&gt;PropertyValue -->
<g id="edge6" class="edge">
<title>_&#45;&gt;PropertyValue</title>
<path fill="none" stroke="black" d="M495.56,-164.23C507.87,-170.71 524.09,-178.62 539.17,-184 589.42,-201.92 648.24,-214.57 693.8,-222.66"/>
<polygon fill="black" stroke="black" points="693.45,-226.16 703.9,-224.42 694.65,-219.26 693.45,-226.16"/>
<text text-anchor="middle" x="578.67" y="-208.8" font-family="Times,serif" font-size="14.00">type</text>
</g>
<!-- &quot;http//dbpedia.org/re...&quot; -->
<g id="node6" class="node">
<title>&quot;http//dbpedia.org/re...&quot;</title>
<ellipse fill="none" stroke="black" stroke-width="0" cx="770.06" cy="-180" rx="122.38" ry="18"/>
<text text-anchor="middle" x="770.06" y="-176.3" font-family="Times,serif" font-size="14.00">&quot;http//dbpedia.org/re...&quot;</text>
</g>
<!-- _&#45;&gt;&quot;http//dbpedia.org/re...&quot; -->
<g id="edge7" class="edge">
<title>_&#45;&gt;&quot;http//dbpedia.org/re...&quot;</title>
<path fill="none" stroke="black" d="M501.18,-155.37C535.77,-158.55 599.39,-164.4 655.95,-169.6"/>
<polygon fill="black" stroke="black" points="655.78,-173.1 666.05,-170.53 656.42,-166.13 655.78,-173.1"/>
<text text-anchor="middle" x="578.67" y="-168.8" font-family="Times,serif" font-size="14.00">propertyID</text>
</g>
<!-- &quot;http//www.w3.org/200...&quot; -->
<g id="node7" class="node">
<title>&quot;http//www.w3.org/200...&quot;</title>
<ellipse fill="none" stroke="black" stroke-width="0" cx="770.06" cy="-126" rx="131.88" ry="18"/>
<text text-anchor="middle" x="770.06" y="-122.3" font-family="Times,serif" font-size="14.00">&quot;http//www.w3.org/200...&quot;</text>
</g>
<!-- _&#45;&gt;&quot;http//www.w3.org/200...&quot; -->
<g id="edge8" class="edge">
<title>_&#45;&gt;&quot;http//www.w3.org/200...&quot;</title>
<path fill="none" stroke="black" d="M500.08,-147.12C511.85,-144.54 526.17,-141.71 539.17,-140 569.09,-136.06 601.34,-133.23 631.96,-131.19"/>
<polygon fill="black" stroke="black" points="632.52,-134.66 642.27,-130.53 632.07,-127.68 632.52,-134.66"/>
<text text-anchor="middle" x="578.67" y="-143.8" font-family="Times,serif" font-size="14.00">value</text>
</g>
<!-- GeoShape -->
<g id="node8" class="node">
<title>GeoShape</title>
<ellipse fill="none" stroke="#558855" cx="770.06" cy="-72" rx="57.69" ry="18"/>
<text text-anchor="middle" x="770.06" y="-68.3" font-family="Times,serif" font-size="14.00">GeoShape</text>
</g>
<!-- _&#45;&gt;GeoShape -->
<g id="edge9" class="edge">
<title>_&#45;&gt;GeoShape</title>
<path fill="none" stroke="black" d="M492.54,-139.67C504.86,-130.77 522.21,-119.54 539.17,-113 592.38,-92.47 656.53,-82.12 703.53,-76.97"/>
<polygon fill="black" stroke="black" points="704,-80.43 713.58,-75.91 703.27,-73.47 704,-80.43"/>
<text text-anchor="middle" x="578.67" y="-116.8" font-family="Times,serif" font-size="14.00">type</text>
</g>
<!-- &quot;142.014 10.161667,14...&quot; -->
<g id="node9" class="node">
<title>&quot;142.014 10.161667,14...&quot;</title>
<ellipse fill="none" stroke="black" stroke-width="0" cx="770.06" cy="-18" rx="133.78" ry="18"/>
<text text-anchor="middle" x="770.06" y="-14.3" font-family="Times,serif" font-size="14.00">&quot;142.014 10.161667,14...&quot;</text>
</g>
<!-- _&#45;&gt;&quot;142.014 10.161667,14...&quot; -->
<g id="edge10" class="edge">
<title>_&#45;&gt;&quot;142.014 10.161667,14...&quot;</title>
<path fill="none" stroke="black" d="M484.31,-136.11C494.95,-117.64 514.44,-88.47 539.17,-72 571.19,-50.67 610.64,-37.72 647.76,-29.87"/>
<polygon fill="black" stroke="black" points="648.53,-33.29 657.65,-27.89 647.16,-26.43 648.53,-33.29"/>
<text text-anchor="middle" x="578.67" y="-75.8" font-family="Times,serif" font-size="14.00">polygon</text>
</g>
</g>
</svg>
