<?xml version="1.0" encoding="UTF-8" standalone="no"?>
<!DOCTYPE svg PUBLIC "-//W3C//DTD SVG 1.1//EN"
 "http://www.w3.org/Graphics/SVG/1.1/DTD/svg11.dtd">
<!-- Generated by graphviz version 2.44.0 (0)
 -->
<!-- Pages: 1 -->
<svg width="2542pt" height="677pt"
 viewBox="0.00 0.00 2541.64 676.50" xmlns="http://www.w3.org/2000/svg" xmlns:xlink="http://www.w3.org/1999/xlink">
<g id="graph0" class="graph" transform="scale(1 1) rotate(0) translate(4 672.5)">
<polygon fill="white" stroke="transparent" points="-4,4 -4,-672.5 2537.64,-672.5 2537.64,4 -4,4"/>
<text text-anchor="middle" x="1266.82" y="-22.8" font-family="Times-Roman" font-size="14.00">Model:</text>
<text text-anchor="middle" x="1266.82" y="-7.8" font-family="Times-Roman" font-size="14.00">https://iode.org/</text>
<!-- Rfile:///home/fils/src/Projects/OIH/odis&#45;arch/schema/thematics/vessels/graphs/ID_for_this_metadata_record -->
<g id="node1" class="node">
<title>Rfile:///home/fils/src/Projects/OIH/odis&#45;arch/schema/thematics/vessels/graphs/ID_for_this_metadata_record</title>
<ellipse fill="none" stroke="blue" cx="482.91" cy="-470.5" rx="482.81" ry="18"/>
<text text-anchor="middle" x="482.91" y="-466.8" font-family="Times-Roman" font-size="14.00">file:///home/fils/src/Projects/OIH/odis&#45;arch/schema/thematics/vessels/graphs/ID_for_this_metadata_record</text>
</g>
<!-- Rschema:Vehicle -->
<g id="node2" class="node">
<title>Rschema:Vehicle</title>
<ellipse fill="none" stroke="blue" cx="1612.23" cy="-554.5" rx="80.69" ry="18"/>
<text text-anchor="middle" x="1612.23" y="-550.8" font-family="Times-Roman" font-size="14.00">schema:Vehicle</text>
</g>
<!-- Rfile:///home/fils/src/Projects/OIH/odis&#45;arch/schema/thematics/vessels/graphs/ID_for_this_metadata_record&#45;&gt;Rschema:Vehicle -->
<g id="edge1" class="edge">
<title>Rfile:///home/fils/src/Projects/OIH/odis&#45;arch/schema/thematics/vessels/graphs/ID_for_this_metadata_record&#45;&gt;Rschema:Vehicle</title>
<path fill="none" stroke="black" stroke-dasharray="1,5" d="M676.54,-486.99C817.97,-498.88 1014.78,-514.98 1187.81,-527.5 1303.95,-535.9 1438.1,-544.22 1523.74,-549.36"/>
<polygon fill="black" stroke="black" points="1523.75,-552.87 1533.94,-549.97 1524.16,-545.88 1523.75,-552.87"/>
<text text-anchor="middle" x="1076.81" y="-529.3" font-family="Times-Roman" font-size="14.00">rdfs:type</text>
</g>
<!-- Rfile:///home/fils/src/Projects/OIH/odis&#45;arch/schema/thematics/vessels/graphs/ID_value_string -->
<g id="node3" class="node">
<title>Rfile:///home/fils/src/Projects/OIH/odis&#45;arch/schema/thematics/vessels/graphs/ID_value_string</title>
<ellipse fill="none" stroke="blue" cx="1612.23" cy="-500.5" rx="424.32" ry="18"/>
<text text-anchor="middle" x="1612.23" y="-496.8" font-family="Times-Roman" font-size="14.00">file:///home/fils/src/Projects/OIH/odis&#45;arch/schema/thematics/vessels/graphs/ID_value_string</text>
</g>
<!-- Rfile:///home/fils/src/Projects/OIH/odis&#45;arch/schema/thematics/vessels/graphs/ID_for_this_metadata_record&#45;&gt;Rfile:///home/fils/src/Projects/OIH/odis&#45;arch/schema/thematics/vessels/graphs/ID_value_string -->
<g id="edge2" class="edge">
<title>Rfile:///home/fils/src/Projects/OIH/odis&#45;arch/schema/thematics/vessels/graphs/ID_for_this_metadata_record&#45;&gt;Rfile:///home/fils/src/Projects/OIH/odis&#45;arch/schema/thematics/vessels/graphs/ID_value_string</title>
<path fill="none" stroke="black" stroke-dasharray="1,5" d="M844.33,-482.45C891.25,-483.89 938.68,-485.27 983.81,-486.5 1060.32,-488.58 1142.08,-490.57 1220.45,-492.37"/>
<polygon fill="black" stroke="black" points="1220.41,-495.87 1230.49,-492.6 1220.57,-488.87 1220.41,-495.87"/>
<text text-anchor="middle" x="1076.81" y="-494.3" font-family="Times-Roman" font-size="14.00">schema:additionalProperty</text>
</g>
<!-- Rfile:///home/fils/src/Projects/OIH/odis&#45;arch/schema/thematics/vessels/graphs/ID_for_this_metadata_record&#45;&gt;Rfile:///home/fils/src/Projects/OIH/odis&#45;arch/schema/thematics/vessels/graphs/ID_value_string -->
<g id="edge3" class="edge">
<title>Rfile:///home/fils/src/Projects/OIH/odis&#45;arch/schema/thematics/vessels/graphs/ID_for_this_metadata_record&#45;&gt;Rfile:///home/fils/src/Projects/OIH/odis&#45;arch/schema/thematics/vessels/graphs/ID_value_string</title>
<path fill="none" stroke="black" stroke-dasharray="1,5" d="M924.01,-463.14C1005.74,-463.32 1090.38,-464.53 1169.81,-467.5 1253.12,-470.61 1345.1,-477.01 1423.43,-483.35"/>
<polygon fill="black" stroke="black" points="1423.15,-486.84 1433.4,-484.17 1423.72,-479.87 1423.15,-486.84"/>
<text text-anchor="middle" x="1076.81" y="-471.3" font-family="Times-Roman" font-size="14.00">schema:identifier</text>
</g>
<!-- LJOIDES Resolution -->
<g id="node4" class="node">
<title>LJOIDES Resolution</title>
<polygon fill="none" stroke="black" points="1541.23,-414.5 1541.23,-450.5 1683.23,-450.5 1683.23,-414.5 1541.23,-414.5"/>
<text text-anchor="middle" x="1612.23" y="-428.8" font-family="Times-Roman" font-size="14.00">JOIDES Resolution</text>
</g>
<!-- Rfile:///home/fils/src/Projects/OIH/odis&#45;arch/schema/thematics/vessels/graphs/ID_for_this_metadata_record&#45;&gt;LJOIDES Resolution -->
<g id="edge4" class="edge">
<title>Rfile:///home/fils/src/Projects/OIH/odis&#45;arch/schema/thematics/vessels/graphs/ID_for_this_metadata_record&#45;&gt;LJOIDES Resolution</title>
<path fill="none" stroke="black" stroke-dasharray="1,5" d="M743.94,-455.35C821.13,-451.3 905.86,-447.27 983.81,-444.5 1180.33,-437.51 1411.61,-434.41 1530.96,-433.19"/>
<polygon fill="black" stroke="black" points="1531.14,-436.69 1541.11,-433.09 1531.07,-429.69 1531.14,-436.69"/>
<text text-anchor="middle" x="1076.81" y="-448.3" font-family="Times-Roman" font-size="14.00">schema:name</text>
</g>
<!-- B_:b0 -->
<g id="node5" class="node">
<title>B_:b0</title>
<ellipse fill="none" stroke="green" cx="1612.23" cy="-253.5" rx="18" ry="18"/>
</g>
<!-- Rfile:///home/fils/src/Projects/OIH/odis&#45;arch/schema/thematics/vessels/graphs/ID_for_this_metadata_record&#45;&gt;B_:b0 -->
<g id="edge5" class="edge">
<title>Rfile:///home/fils/src/Projects/OIH/odis&#45;arch/schema/thematics/vessels/graphs/ID_for_this_metadata_record&#45;&gt;B_:b0</title>
<path fill="none" stroke="black" stroke-dasharray="1,5" d="M575.68,-452.83C814.4,-406.88 1445.81,-285.34 1584.18,-258.71"/>
<polygon fill="black" stroke="black" points="1585.16,-262.08 1594.32,-256.76 1583.84,-255.21 1585.16,-262.08"/>
<text text-anchor="middle" x="1076.81" y="-372.3" font-family="Times-Roman" font-size="14.00">schema:subjectOf</text>
</g>
<!-- Rschema:PropertyValue -->
<g id="node6" class="node">
<title>Rschema:PropertyValue</title>
<ellipse fill="none" stroke="blue" cx="2388.64" cy="-638.5" rx="111.28" ry="18"/>
<text text-anchor="middle" x="2388.64" y="-634.8" font-family="Times-Roman" font-size="14.00">schema:PropertyValue</text>
</g>
<!-- Rfile:///home/fils/src/Projects/OIH/odis&#45;arch/schema/thematics/vessels/graphs/ID_value_string&#45;&gt;Rschema:PropertyValue -->
<g id="edge6" class="edge">
<title>Rfile:///home/fils/src/Projects/OIH/odis&#45;arch/schema/thematics/vessels/graphs/ID_value_string&#45;&gt;Rschema:PropertyValue</title>
<path fill="none" stroke="black" stroke-dasharray="1,5" d="M1681.74,-482.68C1773.54,-463.24 1936.48,-444.9 2036.64,-527.5 2061.09,-547.67 2030.82,-575.59 2054.64,-596.5 2121.13,-654.88 2225.92,-658.78 2300.16,-652.29"/>
<polygon fill="black" stroke="black" points="2300.81,-655.74 2310.43,-651.31 2300.14,-648.78 2300.81,-655.74"/>
<text text-anchor="middle" x="2140.14" y="-657.3" font-family="Times-Roman" font-size="14.00">rdfs:type</text>
</g>
<!-- LAny additional properties for the vessel -->
<g id="node7" class="node">
<title>LAny additional properties for the vessel</title>
<polygon fill="none" stroke="black" points="2243.64,-565.5 2243.64,-601.5 2533.64,-601.5 2533.64,-565.5 2243.64,-565.5"/>
<text text-anchor="middle" x="2388.64" y="-579.8" font-family="Times-Roman" font-size="14.00">Any additional properties for the vessel</text>
</g>
<!-- Rfile:///home/fils/src/Projects/OIH/odis&#45;arch/schema/thematics/vessels/graphs/ID_value_string&#45;&gt;LAny additional properties for the vessel -->
<g id="edge7" class="edge">
<title>Rfile:///home/fils/src/Projects/OIH/odis&#45;arch/schema/thematics/vessels/graphs/ID_value_string&#45;&gt;LAny additional properties for the vessel</title>
<path fill="none" stroke="black" stroke-dasharray="1,5" d="M1975.53,-509.83C1996.45,-514.61 2016.97,-520.44 2036.64,-527.5 2045.93,-530.83 2045.46,-536.87 2054.64,-540.5 2110.63,-562.66 2175.65,-573.94 2233.3,-579.51"/>
<polygon fill="black" stroke="black" points="2233.32,-583.03 2243.6,-580.45 2233.96,-576.06 2233.32,-583.03"/>
<text text-anchor="middle" x="2140.14" y="-581.3" font-family="Times-Roman" font-size="14.00">schema:description</text>
</g>
<!-- LVessel ID  -->
<g id="node8" class="node">
<title>LVessel ID </title>
<polygon fill="none" stroke="black" points="2348.64,-510.5 2348.64,-546.5 2428.64,-546.5 2428.64,-510.5 2348.64,-510.5"/>
<text text-anchor="middle" x="2388.64" y="-524.8" font-family="Times-Roman" font-size="14.00">Vessel ID</text>
</g>
<!-- Rfile:///home/fils/src/Projects/OIH/odis&#45;arch/schema/thematics/vessels/graphs/ID_value_string&#45;&gt;LVessel ID  -->
<g id="edge8" class="edge">
<title>Rfile:///home/fils/src/Projects/OIH/odis&#45;arch/schema/thematics/vessels/graphs/ID_value_string&#45;&gt;LVessel ID </title>
<path fill="none" stroke="black" stroke-dasharray="1,5" d="M1935.76,-512.16C2089.32,-517.71 2256.85,-523.77 2338.02,-526.71"/>
<polygon fill="black" stroke="black" points="2338.3,-530.22 2348.42,-527.08 2338.55,-523.22 2338.3,-530.22"/>
<text text-anchor="middle" x="2140.14" y="-525.3" font-family="Times-Roman" font-size="14.00">schema:description</text>
</g>
<!-- Lthis can be text or URL.. -->
<g id="node9" class="node">
<title>Lthis can be text or URL..</title>
<polygon fill="none" stroke="black" points="2296.14,-455.5 2296.14,-491.5 2481.14,-491.5 2481.14,-455.5 2296.14,-455.5"/>
<text text-anchor="middle" x="2388.64" y="-469.8" font-family="Times-Roman" font-size="14.00">this can be text or URL..</text>
</g>
<!-- Rfile:///home/fils/src/Projects/OIH/odis&#45;arch/schema/thematics/vessels/graphs/ID_value_string&#45;&gt;Lthis can be text or URL.. -->
<g id="edge9" class="edge">
<title>Rfile:///home/fils/src/Projects/OIH/odis&#45;arch/schema/thematics/vessels/graphs/ID_value_string&#45;&gt;Lthis can be text or URL..</title>
<path fill="none" stroke="black" stroke-dasharray="1,5" d="M1940.52,-489.09C2064.94,-484.75 2197.81,-480.12 2286.07,-477.04"/>
<polygon fill="black" stroke="black" points="2286.2,-480.54 2296.07,-476.69 2285.95,-473.54 2286.2,-480.54"/>
<text text-anchor="middle" x="2140.14" y="-488.3" font-family="Times-Roman" font-size="14.00">schema:propertyID</text>
</g>
<!-- Lhttps://foo.org/linkToPropertyIDPage -->
<g id="node10" class="node">
<title>Lhttps://foo.org/linkToPropertyIDPage</title>
<polygon fill="none" stroke="black" points="2256.14,-400.5 2256.14,-436.5 2521.14,-436.5 2521.14,-400.5 2256.14,-400.5"/>
<text text-anchor="middle" x="2388.64" y="-414.8" font-family="Times-Roman" font-size="14.00">https://foo.org/linkToPropertyIDPage</text>
</g>
<!-- Rfile:///home/fils/src/Projects/OIH/odis&#45;arch/schema/thematics/vessels/graphs/ID_value_string&#45;&gt;Lhttps://foo.org/linkToPropertyIDPage -->
<g id="edge10" class="edge">
<title>Rfile:///home/fils/src/Projects/OIH/odis&#45;arch/schema/thematics/vessels/graphs/ID_value_string&#45;&gt;Lhttps://foo.org/linkToPropertyIDPage</title>
<path fill="none" stroke="black" stroke-dasharray="1,5" d="M1795.69,-484.26C1870.41,-477.35 1957.72,-468.95 2036.64,-460.5 2105.57,-453.12 2182.01,-444.08 2245.91,-436.27"/>
<polygon fill="black" stroke="black" points="2246.55,-439.72 2256.05,-435.03 2245.7,-432.77 2246.55,-439.72"/>
<text text-anchor="middle" x="2140.14" y="-461.3" font-family="Times-Roman" font-size="14.00">schema:url</text>
</g>
<!-- Rschema:DataDownload -->
<g id="node11" class="node">
<title>Rschema:DataDownload</title>
<ellipse fill="none" stroke="blue" cx="2388.64" cy="-363.5" rx="114.28" ry="18"/>
<text text-anchor="middle" x="2388.64" y="-359.8" font-family="Times-Roman" font-size="14.00">schema:DataDownload</text>
</g>
<!-- B_:b0&#45;&gt;Rschema:DataDownload -->
<g id="edge11" class="edge">
<title>B_:b0&#45;&gt;Rschema:DataDownload</title>
<path fill="none" stroke="black" stroke-dasharray="1,5" d="M1630.12,-255.9C1716.29,-268.14 2109.91,-324.05 2293.21,-350.09"/>
<polygon fill="black" stroke="black" points="2292.72,-353.55 2303.11,-351.49 2293.7,-346.62 2292.72,-353.55"/>
<text text-anchor="middle" x="2140.14" y="-343.3" font-family="Times-Roman" font-size="14.00">rdfs:type</text>
</g>
<!-- L2019&#45;06&#45;12T14:44:15Z -->
<g id="node12" class="node">
<title>L2019&#45;06&#45;12T14:44:15Z</title>
<polygon fill="none" stroke="black" points="2298.64,-290.5 2298.64,-326.5 2478.64,-326.5 2478.64,-290.5 2298.64,-290.5"/>
<text text-anchor="middle" x="2388.64" y="-304.8" font-family="Times-Roman" font-size="14.00">2019&#45;06&#45;12T14:44:15Z</text>
</g>
<!-- B_:b0&#45;&gt;L2019&#45;06&#45;12T14:44:15Z -->
<g id="edge12" class="edge">
<title>B_:b0&#45;&gt;L2019&#45;06&#45;12T14:44:15Z</title>
<path fill="none" stroke="black" stroke-dasharray="1,5" d="M1630.49,-254.73C1716.66,-260.85 2103.52,-288.32 2288.5,-301.46"/>
<polygon fill="black" stroke="black" points="2288.28,-304.95 2298.51,-302.17 2288.78,-297.97 2288.28,-304.95"/>
<text text-anchor="middle" x="2140.14" y="-300.3" font-family="Times-Roman" font-size="14.00">schema:dateModified</text>
</g>
<!-- LMetadata describing the vessel -->
<g id="node13" class="node">
<title>LMetadata describing the vessel</title>
<polygon fill="none" stroke="black" points="2272.14,-235.5 2272.14,-271.5 2505.14,-271.5 2505.14,-235.5 2272.14,-235.5"/>
<text text-anchor="middle" x="2388.64" y="-249.8" font-family="Times-Roman" font-size="14.00">Metadata describing the vessel</text>
</g>
<!-- B_:b0&#45;&gt;LMetadata describing the vessel -->
<g id="edge13" class="edge">
<title>B_:b0&#45;&gt;LMetadata describing the vessel</title>
<path fill="none" stroke="black" stroke-dasharray="1,5" d="M1630.49,-253.5C1712.71,-253.5 2068.62,-253.5 2261.78,-253.5"/>
<polygon fill="black" stroke="black" points="2261.99,-257 2271.99,-253.5 2261.99,-250 2261.99,-257"/>
<text text-anchor="middle" x="2140.14" y="-257.3" font-family="Times-Roman" font-size="14.00">schema:description</text>
</g>
<!-- Lapplication/xml -->
<g id="node14" class="node">
<title>Lapplication/xml</title>
<polygon fill="none" stroke="black" points="2327.64,-180.5 2327.64,-216.5 2449.64,-216.5 2449.64,-180.5 2327.64,-180.5"/>
<text text-anchor="middle" x="2388.64" y="-194.8" font-family="Times-Roman" font-size="14.00">application/xml</text>
</g>
<!-- B_:b0&#45;&gt;Lapplication/xml -->
<g id="edge14" class="edge">
<title>B_:b0&#45;&gt;Lapplication/xml</title>
<path fill="none" stroke="black" stroke-dasharray="1,5" d="M1630.49,-252.27C1721.47,-245.81 2147.59,-215.55 2317.47,-203.48"/>
<polygon fill="black" stroke="black" points="2317.83,-206.97 2327.56,-202.77 2317.33,-199.98 2317.83,-206.97"/>
<text text-anchor="middle" x="2140.14" y="-224.3" font-family="Times-Roman" font-size="14.00">schema:encodingFormat</text>
</g>
<!-- Lhttps://foo.org/ship01 -->
<g id="node15" class="node">
<title>Lhttps://foo.org/ship01</title>
<polygon fill="none" stroke="black" points="2305.14,-125.5 2305.14,-161.5 2472.14,-161.5 2472.14,-125.5 2305.14,-125.5"/>
<text text-anchor="middle" x="2388.64" y="-139.8" font-family="Times-Roman" font-size="14.00">https://foo.org/ship01</text>
</g>
<!-- B_:b0&#45;&gt;Lhttps://foo.org/ship01 -->
<g id="edge15" class="edge">
<title>B_:b0&#45;&gt;Lhttps://foo.org/ship01</title>
<path fill="none" stroke="black" stroke-dasharray="1,5" d="M1630.47,-251.03C1689.59,-242.56 1889.47,-213.94 2054.64,-190.5 2135.74,-178.99 2227.96,-165.98 2294.76,-156.57"/>
<polygon fill="black" stroke="black" points="2295.43,-160.01 2304.84,-155.15 2294.45,-153.08 2295.43,-160.01"/>
<text text-anchor="middle" x="2140.14" y="-194.3" font-family="Times-Roman" font-size="14.00">schema:encodingFormat</text>
</g>
<!-- Lexternal&#45;metadata.xml -->
<g id="node16" class="node">
<title>Lexternal&#45;metadata.xml</title>
<polygon fill="none" stroke="black" points="2301.64,-70.5 2301.64,-106.5 2475.64,-106.5 2475.64,-70.5 2301.64,-70.5"/>
<text text-anchor="middle" x="2388.64" y="-84.8" font-family="Times-Roman" font-size="14.00">external&#45;metadata.xml</text>
</g>
<!-- B_:b0&#45;&gt;Lexternal&#45;metadata.xml -->
<g id="edge16" class="edge">
<title>B_:b0&#45;&gt;Lexternal&#45;metadata.xml</title>
<path fill="none" stroke="black" stroke-dasharray="1,5" d="M1629.98,-249.09C1688.31,-233.82 1887.99,-182.24 2054.64,-147.5 2134.05,-130.95 2224.73,-115.08 2291.4,-103.97"/>
<polygon fill="black" stroke="black" points="2292.18,-107.39 2301.47,-102.3 2291.03,-100.49 2292.18,-107.39"/>
<text text-anchor="middle" x="2140.14" y="-151.3" font-family="Times-Roman" font-size="14.00">schema:name</text>
</g>
</g>
</svg>
