<svg height='100px' width='100px'  fill="#333333" xmlns="http://www.w3.org/2000/svg" xmlns:xlink="http://www.w3.org/1999/xlink" version="1.1" x="0px" y="0px" viewBox="0 0 100 100" enable-background="new 0 0 100 100" xml:space="preserve"><g><g><g><path fill="none" d="M27.761,73.793c-0.012-0.014-0.024-0.028-0.036-0.041c-0.451,0.488-0.873,0.982-1.204,1.596     c-0.026,0.048-0.06,0.08-0.096,0.103c0.386,0.46,0.773,0.902,1.123,1.319c0.405-0.517,0.817-1.05,1.332-1.45     c0.179-0.139,0.417,0.029,0.315,0.243c-0.301,0.63-0.776,1.181-1.225,1.722c0.256,0.322,0.477,0.623,0.637,0.897     c0.263,0.449,0.428,0.893,0.533,1.336c0.389-0.49,0.786-0.971,1.211-1.445c0.107-0.119,0.298,0.036,0.218,0.168     c-0.414,0.686-0.846,1.335-1.307,1.98c0.09,0.887-0.017,1.767-0.094,2.652c0.921-1.311,1.931-2.602,3.118-3.64     c-0.522-0.816-1.022-1.647-1.655-2.395C29.73,75.772,28.697,74.826,27.761,73.793z"></path><path fill="none" d="M26.094,71.598c-0.472-0.782-0.835-1.614-1.041-2.54c-1.438,1.192-1.147,2.689-0.26,4.185     C25.134,72.656,25.572,72.061,26.094,71.598z"></path><path fill="none" d="M13.354,31.081c1.945-2.5,3.934-4.966,5.966-7.395c2.031-2.428,4.105-4.82,6.221-7.174     c1.494-1.662,2.981-3.479,4.596-5.106c-3.174,1.584-6.103,3.566-8.599,5.947c-5.728,5.464-10.106,12.363-12.759,19.84     C10.101,35.039,11.822,33.051,13.354,31.081z"></path><path fill="none" d="M25.332,59.953c0.267-0.907,0.138-1.749,0.562-2.646c0.406-0.857,1.056-1.558,1.734-2.205     c2.361-2.253,4.688-3.542,5.805-6.837c0.044-0.129,0.083-0.257,0.124-0.386c-1.54,1.767-3.203,3.452-4.759,5.171     c-2.531,2.795-5.109,5.543-7.688,8.294c-0.047,0.05-0.098,0.047-0.144,0.027C22.479,62.727,24.376,63.202,25.332,59.953z"></path><path fill="none" d="M25.136,73.782c0.278,0.41,0.59,0.816,0.912,1.213c0.328-0.607,0.746-1.226,1.258-1.724     c-0.304-0.36-0.585-0.726-0.844-1.101c-0.124,0.106-0.252,0.208-0.367,0.327C25.721,72.884,25.409,73.319,25.136,73.782z"></path><path fill="none" d="M61.786,51.424c2.599-3.776,5.474-7.626,8.692-11.077c-1.03,0.256-2.056,0.527-3.069,0.866     c-0.019,0.006-0.038,0.013-0.057,0.02c-1.445,1.74-3.091,3.357-4.59,5.013c-0.26,0.288-0.683-0.138-0.425-0.425     c1.192-1.329,2.355-2.74,3.578-4.082c-1.143,0.421-2.278,0.892-3.34,1.46c-1.328,0.711-1.623,0.919-1.889,2.527     c-0.276,1.668-0.092,1.452,0.486,2.671C61.65,49.401,61.811,50.411,61.786,51.424z"></path><path fill="none" d="M42.732,91.163c0.407-0.411,0.75-0.881,1.146-1.3c-0.202-0.819-0.545-1.493-0.995-2.087     c-0.523,0.568-1.116,1.09-1.644,1.638c-0.734,0.761-1.432,1.552-2.114,2.359c0.765,0.15,1.532,0.282,2.303,0.393     C41.899,91.88,42.342,91.557,42.732,91.163z"></path><path fill="none" d="M42.393,92.295c0.763,0.092,1.528,0.162,2.295,0.216c-0.525-0.692-0.55-1.172-0.676-2.013     C43.657,91.208,43.052,91.812,42.393,92.295z"></path><path fill="none" d="M88.414,68.69c-1.035,1.28-2.103,2.532-3.18,3.777c0.401,0.35,0.846,0.633,1.4,0.757     c1.497-2.205,2.766-4.546,3.789-6.995C89.792,67.088,89.056,67.897,88.414,68.69z"></path><path d="M94.991,49.866c-0.116-5.726-1.462-11.552-3.813-16.989c0.016-0.019,0.033-0.038,0.049-0.057     c0.318-0.384-0.029-0.838-0.419-0.762C84.733,18.691,72.56,7.866,57.634,7.061c-1.001-0.054-0.998,1.503,0,1.557     C70.889,9.329,81.87,18.451,88.05,29.943c-0.072,0.004-0.144,0.024-0.204,0.075c-4.92,4.161-9.137,9.557-13.433,14.354     c-4.376,4.887-8.658,9.86-12.897,14.865c-0.261,0.308,0.178,0.755,0.447,0.447c4.413-5.061,8.901-10.053,13.416-15.024     c4.259-4.689,9.124-9.129,12.952-14.172c0.437,0.839,0.853,1.686,1.239,2.547c-4.839,4.205-9.104,9.4-13.335,14.16     c-4.608,5.184-9.011,10.552-13.287,16.012c-0.283,0.361,0.216,0.877,0.512,0.512c4.367-5.379,8.892-10.622,13.526-15.773     c4.212-4.681,8.942-9.013,13.074-13.767c1.344,3.225,2.322,6.569,2.875,9.915c1.146,6.932,0.499,13.733-1.672,19.939     c-0.116-0.054-0.262-0.048-0.395,0.066c-1.315,1.13-2.281,2.786-3.346,4.14c-0.957,1.217-1.943,2.41-2.937,3.597     c-0.399-0.432-0.791-0.88-1.242-1.248c2.843-4.151,6.151-7.847,9.283-11.823c0.22-0.279-0.114-0.624-0.392-0.392     c-3.816,3.176-6.866,7.493-9.492,11.809c-0.025-0.013-0.046-0.032-0.071-0.044c-1.003-0.5-1.652-0.357-2.523-1.226     c-0.118-0.118-0.217-0.236-0.307-0.355c3.282-4.66,7.037-8.792,10.815-13.051c0.283-0.319-0.152-0.758-0.469-0.469     c-4.105,3.742-7.569,8.322-10.688,12.926c-0.324-0.773-0.227-1.597-0.102-2.595c0.037-0.296-0.293-0.592-0.574-0.574     c-0.278,0.017-0.555,0.035-0.833,0.052c1.986-2.599,4.069-5.115,6.244-7.564c2.49-2.804,5.318-5.348,7.721-8.216     c0.376-0.448-0.183-0.985-0.632-0.632c-5.609,4.401-10.213,10.639-14.392,16.477c-1.605,0.1-3.21,0.2-4.815,0.3     c3.36-3.748,6.694-7.519,9.988-11.326c3.177-3.672,6.564-7.309,9.35-11.291c0.207-0.296-0.252-0.64-0.496-0.383     c-3.439,3.619-6.454,7.703-9.657,11.533c-3.219,3.848-6.483,7.656-9.789,11.429c-0.021,0.024-0.016,0.051-0.026,0.077     c-0.809,0.05-1.618,0.101-2.427,0.151c-2.765,0.172-9.935,1.86-10.141-2.238c-0.092-1.842,0.514-3.684,1.194-5.52     c3.377-4.33,6.911-8.533,10.637-12.569c4.05-4.387,8.58-8.301,12.649-12.651c0.334-0.358-0.157-0.809-0.523-0.523     c-4.876,3.804-9.165,8.687-13.295,13.269c-3.009,3.339-5.897,6.783-8.675,10.315c0.359-1.024,0.657-2.045,0.799-3.064     c0.107,0.005,0.217-0.031,0.293-0.143c2.238-3.273,4.653-6.417,7.283-9.385c0.901-1.017,1.847-1.983,2.804-2.938     c0.02-0.005,0.039-0.01,0.059-0.014c0.538-0.125,1.182-0.17,1.556-0.646c0.272-0.346,0.313-0.805,0.32-1.257     c1.025-1.003,2.048-2.008,3.04-3.049c0.19-0.199-0.07-0.581-0.308-0.399c-0.904,0.689-1.778,1.432-2.638,2.199     c0.241-1.674,0.927-3.303,2.021-4.593c2.705-3.189,7.163-3.706,10.795-1.894c0.396,0.198,0.743-0.379,0.35-0.599     c-5.25-2.937-11.79-0.548-13.704,5.248c-0.251,0.76-0.252,1.539-0.463,2.29c-0.077,0.275-0.146,0.49-0.217,0.675     c-0.363,0.346-0.72,0.697-1.075,1.054c-0.109,0.049-0.228,0.1-0.363,0.155c-1.018,0.421-2.122,0.689-3.228,0.962     c0.161-0.216,0.338-0.422,0.49-0.642c0.121-0.175-0.134-0.338-0.278-0.215c-0.403,0.346-0.783,0.725-1.165,1.1     c-0.612,0.161-1.218,0.335-1.8,0.557c-2.115,0.805-5.942,1.934-6.461,4.575c-0.267,1.361,0.613,2.308,1.127,3.473     c0.972,2.201,0.285,4.314-0.516,6.458c-0.374,1.002-0.832,2.141-1.21,3.327c-0.091,0.12-0.185,0.238-0.276,0.358     c-0.116,0.153-0.063,0.3,0.05,0.392c-0.538,1.92-0.783,3.919-0.06,5.647c1.163,2.78,4.876,1.8,7.21,1.656     c3.578-0.22,7.156-0.441,10.734-0.661c-0.037,0.052-0.076,0.106-0.114,0.159c-0.29,0.406,0.376,0.784,0.665,0.389     c0.151-0.206,0.308-0.406,0.46-0.61c0.367-0.023,0.734-0.045,1.101-0.068c-0.153,1.714-0.013,3.654,1.669,4.542     c0.722,0.381,1.546,0.316,2.285,0.653c-0.354,0.596-0.702,1.19-1.042,1.779c-0.194,0.336,0.32,0.636,0.519,0.303     c0.352-0.589,0.719-1.164,1.092-1.733c0.434,0.361,0.798,0.839,1.173,1.231c0.639,0.67,1.225,1.183,2.059,1.461     c-3.211,4.436-7.369,8.276-12.329,11.252c-8.504,5.103-18.467,7.637-28.264,7.087c0.146-0.166,0.205-0.428,0.032-0.648     c-0.741-0.941-0.309-2.175-0.684-3.218c-0.242-0.67-0.711-1.207-1.214-1.705c0.051-0.207-0.152-0.394-0.36-0.354     c-0.116-0.11-0.233-0.221-0.347-0.33c-0.378-0.363-0.755-0.691-1.134-1.004c0.026-0.03,0.055-0.058,0.08-0.088     c0.213-0.258-0.053-0.67-0.374-0.484c-0.078,0.045-0.152,0.102-0.229,0.151c-0.455-0.351-0.915-0.675-1.385-0.983     c0.255-0.254,0.504-0.513,0.738-0.787c0.185-0.215-0.045-0.542-0.308-0.399c-0.393,0.212-0.767,0.469-1.133,0.743     c-0.913-0.558-1.868-1.077-2.904-1.625c-1.267-0.67-2.154-1.725-2.962-2.866c-0.002-0.007-0.009-0.01-0.011-0.017     c-0.772-1.092-1.473-2.26-2.365-3.245c-0.792-0.875-1.667-1.709-2.466-2.59c0.005-0.005,0.01-0.01,0.015-0.015     c0.193-0.207-0.053-0.552-0.308-0.399c-0.014,0.009-0.026,0.022-0.041,0.031c-0.314-0.363-0.612-0.735-0.881-1.125     c0.067-0.06,0.14-0.115,0.204-0.179c0.176-0.176-0.002-0.56-0.262-0.451c-0.087,0.037-0.17,0.085-0.254,0.13     c-0.504-0.833-0.886-1.737-1.021-2.782c-0.039-0.301-0.338-0.557-0.641-0.368c-2.267,1.408-2.09,4.165-0.808,6.229     c1.247,2.008,3.547,3.395,4.182,5.776c0.027,0.103,0.034,0.204,0.054,0.306c-0.012,0.016-0.024,0.03-0.035,0.046     c-0.113,0.153-0.028,0.301,0.107,0.365c0.118,1.09-0.105,2.16-0.174,3.232c-0.075,0.111-0.152,0.223-0.226,0.333     c-0.153,0.226,0.009,0.439,0.216,0.491c0.022,0.509,0.106,1.02,0.312,1.535c0.163,0.406,0.824,0.24,0.669-0.184     c-0.23-0.629-0.309-1.249-0.32-1.865c1.11-1.539,2.376-2.944,3.525-4.445c0.224,0.332,0.457,0.656,0.713,0.967     c0.216,0.262,0.453,0.497,0.7,0.72c-1.845,1.515-3.391,3.644-4.848,5.512c-0.223,0.286,0.177,0.692,0.403,0.403     c1.519-1.94,3.335-3.658,4.836-5.597c0.585,0.465,1.226,0.861,1.895,1.224c-0.685,0.602-1.286,1.318-1.91,1.974     c-0.874,0.919-1.748,1.838-2.622,2.757c-0.308,0.324,0.184,0.816,0.49,0.49c0.87-0.923,1.739-1.846,2.609-2.77     c0.66-0.7,1.391-1.383,1.974-2.158c0.476,0.248,0.954,0.495,1.428,0.749c-1.542,1.368-2.826,3.176-3.889,4.807     c-0.277,0.425,0.402,0.818,0.679,0.397c0.781-1.187,1.641-2.313,2.606-3.358c0.448-0.485,0.932-0.934,1.41-1.388     c0.448,0.267,0.879,0.557,1.284,0.881c-1.699,1.315-3.114,3.279-4.287,4.965c-0.29,0.417,0.39,0.808,0.679,0.397     c0.74-1.054,1.539-2.059,2.415-3.003c0.585-0.631,1.249-1.198,1.858-1.81c0.466,0.403,0.904,0.797,1.294,1.214     c-0.609,0.512-1.152,1.139-1.672,1.712c-0.784,0.863-1.524,1.764-2.237,2.686c-0.021,0.028-0.031,0.057-0.043,0.087     c-3.08-0.659-6.107-1.63-9.021-2.968C21.181,84.893,14.09,78.618,9.957,70.539c-3.332-6.513-4.463-13.9-3.855-21.142     c0.243,0.468,0.585,0.891,1.038,1.203c0.802,0.553,1.443,0.386,2.346,0.407c1.474,0.035,2.641,0.308,3.546,1.486     c0.455,0.592,0.698,1.195,1.241,1.736c1.402,1.397,2.797,2.328,3.836,4.108c0.715,1.226,1.24,2.65,2.336,3.608     c1.354,1.184,3.788,1.774,5.007,0.098c0.596-0.82,0.495-1.807,0.635-2.751c0.353-2.395,2.014-3.695,3.777-5.113     c2.396-1.928,3.737-3.828,4.622-6.764c0.114-0.377,0.229-0.736,0.348-1.088c0.29-0.368,0.594-0.728,0.865-1.107     c0.173-0.242-0.015-0.483-0.249-0.538c0.526-1.253,1.162-2.418,2.056-3.665c0.594-0.829,1.382-1.75,1.311-2.856     c-0.089-1.373-1.213-2.283-1.689-3.534c0.234-0.244,0.48-0.478,0.71-0.726c0.242-0.262-0.085-0.755-0.402-0.52     c-0.174,0.129-0.342,0.269-0.513,0.402c-0.001-0.012-0.005-0.023-0.006-0.035c-0.191-2.702,1.682-4.936,3.302-6.863     c0.157-0.187,0.189-0.557-0.087-0.675c-1.837-0.79-3.724-0.428-5.364-1.566c0.085-0.099,0.178-0.192,0.262-0.292     c0.241-0.284-0.118-0.632-0.403-0.403c-0.119,0.096-0.234,0.199-0.352,0.295c-0.087-0.08-0.174-0.161-0.259-0.253     c-1.32-1.421-1.757-3.23-1.444-4.927c0.066-0.092,0.137-0.182,0.202-0.274c0.1-0.141,0.057-0.286-0.042-0.385     c0.374-1.216,1.14-2.336,2.265-3.16c0.26-0.191,0.335-0.526,0.1-0.778c-0.817-0.873-1.199-1.531-1.558-2.672     c-0.193-0.613-1.16-0.351-0.966,0.266c0.327,1.041,0.796,1.889,1.47,2.693c-1.311,1.133-2.215,2.67-2.486,4.325     c-4.074,4.149-7.642,8.915-11.381,13.352c-3.981,4.724-7.97,9.441-11.957,14.161c-0.299,0.353,0.208,0.868,0.512,0.512     c4.121-4.813,8.24-9.629,12.367-14.438c3.441-4.01,7.175-7.916,10.391-12.135c0.041,0.623,0.171,1.25,0.411,1.868     c0.357,0.919,0.947,1.756,1.672,2.434c-3.947,3.359-7.446,7.367-10.925,11.179c-3.827,4.193-7.476,8.549-11.024,12.978     c-0.263,0.328,0.194,0.799,0.469,0.469c3.623-4.365,7.376-8.612,11.215-12.788c3.536-3.845,7.399-7.434,10.852-11.351     c0.033,0.024,0.061,0.054,0.094,0.078c1.616,1.159,3.242,0.882,4.938,1.386c-1.358,1.653-2.704,3.435-3.022,5.599     c-0.102,0.693-0.076,1.331,0.037,1.96c-3.056,2.494-5.803,5.539-8.464,8.397c-3.253,3.495-6.259,7.215-9.176,10.992     c-0.131,0.169,0.102,0.411,0.24,0.24c2.892-3.604,5.979-7.027,9.161-10.375c2.721-2.863,5.72-5.473,8.49-8.282     c0.052,0.157,0.097,0.313,0.16,0.472c0.102,0.26,0.382,0.488,0.459,0.746c0.093,1.127,0.185,2.254,0.278,3.381     c-0.452,0.589-0.907,1.175-1.366,1.759c-0.842,1.24-1.318,2.575-1.74,3.947c-2.261,2.245-4.262,4.84-6.336,7.236     c-2.367,2.735-4.685,5.507-7.007,8.28c-0.046,0.055-0.037,0.114-0.012,0.164c-0.629-0.581-1.189-1.304-1.578-1.969     c-0.625-1.071-1.131-2.215-1.971-3.145c-1.078-1.194-2.669-1.95-3.529-3.344c-0.417-0.676-0.477-1.656-1.097-2.204     c-0.602-0.533-1.204-0.455-1.94-0.419c-1.148,0.056-1.757,0.501-2.891,0.016c-0.909-0.388-1.476-1.064-1.681-1.871     c0.158-1.478,0.381-2.948,0.68-4.4c0.01-0.049,0.023-0.097,0.033-0.145c4.088-5.174,8.244-10.293,12.469-15.357     c4.365-5.233,9.135-10.225,13.29-15.619c0.217-0.282-0.243-0.614-0.484-0.374c-5.009,4.983-9.433,10.765-13.909,16.227     c-3.77,4.6-7.459,9.265-11.104,13.965c0.351-1.505,0.768-2.997,1.256-4.468c2.182-2.245,3.938-4.974,5.885-7.419     c1.971-2.476,3.987-4.916,6.046-7.32c2.058-2.403,4.158-4.769,6.3-7.097c1.805-1.962,3.84-3.824,5.527-5.903     c7.228-3.113,15.502-4.222,22.978-3.069c0.318,0.049,0.46-0.431,0.135-0.49c-10.056-1.841-21.706,0.417-30.155,6.314     c-7.843,5.474-13.66,14.092-16.981,22.966c-0.99,2.645-1.767,5.385-2.306,8.171c-0.108,0.14-0.219,0.278-0.327,0.418     c-0.116,0.151,0.03,0.328,0.188,0.36c-1.065,6.03-1,12.256,0.518,18.201c2.306,9.03,8.04,16.776,15.603,22.139     c13.8,9.785,31.935,10.627,47.216,3.887C84.942,82.346,95.346,67.41,94.991,49.866z M60.687,45.725     c0.266-1.608,0.561-1.816,1.889-2.527c1.063-0.568,2.197-1.039,3.34-1.46c-1.222,1.342-2.386,2.752-3.578,4.082     c-0.257,0.287,0.165,0.713,0.425,0.425c1.499-1.657,3.145-3.273,4.59-5.013c0.019-0.006,0.038-0.013,0.057-0.02     c1.013-0.339,2.038-0.61,3.069-0.866c-3.218,3.451-6.094,7.301-8.692,11.077c0.025-1.013-0.136-2.023-0.613-3.028     C60.595,47.178,60.411,47.393,60.687,45.725z M27.306,73.271c-0.512,0.498-0.93,1.116-1.258,1.724     c-0.323-0.397-0.634-0.804-0.912-1.213c0.273-0.463,0.585-0.897,0.959-1.285c0.114-0.118,0.242-0.22,0.367-0.327     C26.721,72.545,27.002,72.911,27.306,73.271z M25.052,69.058c0.206,0.927,0.57,1.759,1.041,2.54     c-0.522,0.463-0.96,1.058-1.301,1.644C23.906,71.747,23.614,70.25,25.052,69.058z M29.168,82.872     c0.077-0.885,0.184-1.765,0.094-2.652c0.461-0.646,0.893-1.294,1.307-1.98c0.08-0.133-0.111-0.287-0.218-0.168     c-0.424,0.474-0.822,0.955-1.211,1.445c-0.105-0.443-0.27-0.888-0.533-1.336c-0.16-0.273-0.381-0.575-0.637-0.897     c0.449-0.541,0.924-1.092,1.225-1.722c0.102-0.214-0.136-0.381-0.315-0.243c-0.516,0.4-0.927,0.933-1.332,1.45     c-0.35-0.416-0.737-0.859-1.123-1.319c0.037-0.024,0.07-0.055,0.096-0.103c0.331-0.613,0.753-1.108,1.204-1.596     c0.012,0.014,0.024,0.028,0.036,0.041c0.936,1.034,1.969,1.979,2.871,3.044c0.632,0.747,1.132,1.579,1.655,2.395     C31.099,80.27,30.089,81.561,29.168,82.872z M21.11,61.343c2.579-2.751,5.157-5.498,7.688-8.294     c1.556-1.718,3.219-3.404,4.759-5.171c-0.042,0.129-0.081,0.257-0.124,0.386c-1.117,3.295-3.444,4.584-5.805,6.837     c-0.678,0.647-1.328,1.348-1.734,2.205c-0.425,0.897-0.295,1.739-0.562,2.646c-0.956,3.25-2.853,2.774-4.366,1.418     C21.011,61.39,21.063,61.393,21.11,61.343z M21.539,17.353c2.496-2.381,5.425-4.362,8.599-5.947     c-1.615,1.627-3.102,3.445-4.596,5.106c-2.117,2.354-4.19,4.746-6.221,7.174c-2.032,2.43-4.022,4.895-5.966,7.395     c-1.532,1.97-3.253,3.958-4.574,6.112C11.433,29.716,15.811,22.817,21.539,17.353z M44.012,90.498     c0.126,0.841,0.151,1.322,0.676,2.013c-0.767-0.054-1.532-0.124-2.295-0.216C43.052,91.812,43.657,91.208,44.012,90.498z      M41.239,89.414c0.529-0.548,1.121-1.069,1.644-1.638c0.45,0.595,0.793,1.268,0.995,2.087c-0.396,0.419-0.739,0.89-1.146,1.3     c-0.39,0.394-0.833,0.717-1.305,1.002c-0.771-0.11-1.538-0.242-2.303-0.393C39.807,90.966,40.505,90.174,41.239,89.414z      M85.234,72.467c1.077-1.245,2.145-2.497,3.18-3.777c0.642-0.793,1.378-1.602,2.009-2.461c-1.024,2.449-2.293,4.79-3.789,6.995     C86.08,73.1,85.635,72.817,85.234,72.467z"></path><path d="M15.804,51.878c3.383-4.467,6.994-8.776,10.833-12.859c3.662-3.895,7.655-7.397,11.483-11.115     c0.329-0.319-0.122-0.947-0.504-0.654c-8.653,6.645-16.004,15.492-22.278,24.355C15.134,51.893,15.598,52.149,15.804,51.878z"></path><path d="M19.538,58.594c2.16-2.804,4.455-5.492,6.899-8.053c2.225-2.332,4.932-4.399,6.953-6.89     c0.232-0.286-0.06-0.767-0.42-0.545c-2.83,1.749-5.278,4.652-7.487,7.11c-2.308,2.57-4.459,5.266-6.49,8.059     C18.751,58.608,19.296,58.909,19.538,58.594z"></path><path d="M69.47,64.579c3.076-3.771,6.233-7.47,9.457-11.114c3.208-3.626,6.774-7.053,9.761-10.859     c0.326-0.415-0.176-0.948-0.589-0.589c-3.626,3.16-6.77,7.078-9.898,10.722c-3.174,3.698-6.241,7.489-9.245,11.327     C68.675,64.428,69.173,64.944,69.47,64.579z"></path></g></g></g></svg>