<svg height='100px' width='100px'  fill="#B30083" xmlns="http://www.w3.org/2000/svg" xmlns:xlink="http://www.w3.org/1999/xlink" version="1.1" x="0px" y="0px" viewBox="0 0 100 100" enable-background="new 0 0 100 100" xml:space="preserve"><path fill="#B30083" d="M66.2,30.2l-0.1-0.1c-1.2-2.6-3.5-7.3-4.7-9.5c-0.8-1.4-1-3.7-1.1-5.2c1.9-0.4,3.4-2.1,3.4-4.2  c0-2.4-1.9-4.3-4.3-4.3H40.7c-2.4,0-4.3,1.9-4.3,4.3c0,2,1.5,3.8,3.4,4.2c-0.1,1.5-0.3,3.8-1.1,5.2c-1.3,2.3-3.8,7.4-4.8,9.5  c-0.1,0.1-0.2,0.3-0.3,0.6h-0.1V31c-0.8,1.6-2.2,5.3-2.2,10.5l0,43.1c0.1,3.1,2.1,8.9,8.7,8.9H60c6.6,0,8.6-5.9,8.7-9v-43  C68.7,35,66.6,30.9,66.2,30.2z M60,91.5H40.1c-5.1,0-6.6-4.6-6.7-7v-43c0-4,0.9-7.1,1.6-8.8h30.2c0.7,1.7,1.6,4.7,1.6,8.8l0,42.9  C66.7,84.8,66.4,91.5,60,91.5z M40.7,9h18.7c1.3,0,2.3,1,2.3,2.3c0,0.9-0.6,1.7-1.3,2.1c-0.3,0.1-0.6,0.2-0.9,0.2h-0.1H40.8h-0.1  c-0.3,0-0.6-0.1-0.9-0.2c-0.8-0.4-1.3-1.1-1.3-2.1C38.4,10,39.5,9,40.7,9z M41.8,15.5h16.5c0.1,1.5,0.3,4.3,1.3,6.1  c0.9,1.5,2.5,4.9,4.6,9.1H35.9c1.1-2.2,3.4-7,4.6-9.1C41.5,19.8,41.8,17.1,41.8,15.5z"></path></svg>