<svg height='100px' width='100px'  fill="#B30083" xmlns="http://www.w3.org/2000/svg" data-name="Layer 1" viewBox="0 0 128 128" x="0px" y="0px"><title>miscellaneous 53 final</title><path d="M17,26H78.50391a2,2,0,0,0,0-4H17a2,2,0,0,0,0,4Z"></path><path d="M81,44a2.0001,2.0001,0,0,0-2-2H17.49609a2,2,0,0,0,0,4H79A2.0001,2.0001,0,0,0,81,44Z"></path><path d="M15.49609,104a2.0001,2.0001,0,0,0,2,2h46.282a38.14069,38.14069,0,0,1-2.66571-4H17.49609A2.0001,2.0001,0,0,0,15.49609,104Z"></path><path d="M56.02539,82H17.49609a2,2,0,0,0,0,4H56.12946C56.05164,85.009,56,84.01068,56,83,56,82.66467,56.01672,82.33331,56.02539,82Z"></path><path d="M62.35022,62H17.49609a2,2,0,0,0,0,4H60.03A38.019,38.019,0,0,1,62.35022,62Z"></path><path d="M8,128H88a8.00782,8.00782,0,0,0,7.93811-7.04919Q94.97507,120.99942,94,121c-.7124,0-1.41919-.02362-2.122-.0625A3.99359,3.99359,0,0,1,88,124H8a4,4,0,0,1-4-4V8A4,4,0,0,1,8,4H88a4,4,0,0,1,4,4V45.05316q.99371-.05182,2-.05316,1.00635,0,2,.05316V8a8.009,8.009,0,0,0-8-8H8A8.009,8.009,0,0,0,0,8V120A8.009,8.009,0,0,0,8,128Z"></path><path d="M94,49a34,34,0,1,0,34,34A34.03833,34.03833,0,0,0,94,49Zm0,64a30,30,0,1,1,30-30A30.03406,30.03406,0,0,1,94,113Z"></path><path d="M104.32617,62.70752l-.68164-.334a7.02785,7.02785,0,0,0-9.32227,3.11865L82.2168,89.34814c-.01044.02057-.01508.043-.02472.06378a1.97224,1.97224,0,0,0-.0791.204c-.019.05634-.03766.11206-.05151.16962a1.97025,1.97025,0,0,0-.03522.20251c-.00885.06586-.01642.131-.01868.19733-.00092.02722-.00775.0528-.00757.08026l.07227,11.74658a2.00054,2.00054,0,0,0,1.10059,1.77393,2.04127,2.04127,0,0,0,2.08008-.17139l9.59082-7.0127a1.9876,1.9876,0,0,0,.22791-.20465c.0188-.01874.04047-.033.05859-.05261a1.9714,1.9714,0,0,0,.28882-.41284c.00769-.01428.01984-.02435.02722-.03888l12.042-23.73193a6.99762,6.99762,0,0,0-3.16211-9.45361ZM86.04785,98.07764,86.01971,93.47l3.79053,1.85712Zm6.72461-5.75342-6.07129-2.97461,8.2373-16.23291,6.07129,2.97412Zm11.14941-21.97314-1.102,2.17249-6.07135-2.9743,1.14014-2.2475a3.0152,3.0152,0,0,1,3.99609-1.33643l.68164.334A3.02881,3.02881,0,0,1,103.92188,70.35107Z"></path></svg>