<svg height='100px' width='100px'  fill="#FFFFFF" xmlns="http://www.w3.org/2000/svg" viewBox="0 0 25 25" x="0px" y="0px"><title>Interface, magnifier, search, seo, find, user, zoom</title><g data-name="Search"><path d="M22.44,19.7324l-4.586-4.5859a.5.5,0,0,0-.707,0L16.5,15.793l-1.3624-1.3625a7.5257,7.5257,0,1,0-.7071.7071L15.793,16.5l-.6465.6465a.5.5,0,0,0,0,.707l4.5859,4.586A1.9142,1.9142,0,0,0,22.44,19.7324ZM3,9.5A6.5,6.5,0,1,1,9.5,16,6.5075,6.5075,0,0,1,3,9.5ZM21.7324,21.7324a.9152.9152,0,0,1-1.2929,0L16.207,17.5,17.5,16.207,21.7324,20.44A.9152.9152,0,0,1,21.7324,21.7324Z"></path></g></svg>