<?xml version="1.0" encoding="UTF-8" standalone="no"?>
<!DOCTYPE svg PUBLIC "-//W3C//DTD SVG 1.1//EN"
 "http://www.w3.org/Graphics/SVG/1.1/DTD/svg11.dtd">
<!-- Generated by graphviz version 5.0.0 (0)
 -->
<!-- Pages: 1 -->
<svg width="970pt" height="206pt"
 viewBox="0.00 0.00 969.83 206.00" xmlns="http://www.w3.org/2000/svg" xmlns:xlink="http://www.w3.org/1999/xlink">
<g id="graph0" class="graph" transform="scale(1 1) rotate(0) translate(4 202)">
<polygon fill="white" stroke="transparent" points="-4,4 -4,-202 965.83,-202 965.83,4 -4,4"/>
<!-- PropertyValue -->
<g id="node1" class="node">
<title>PropertyValue</title>
<ellipse fill="none" stroke="#558855" cx="832.5" cy="-180" rx="77.19" ry="18"/>
<text text-anchor="middle" x="832.5" y="-176.3" font-family="Times,serif" font-size="14.00">PropertyValue</text>
</g>
<!-- doi.org/10.5066/F7VX0DMQ -->
<g id="node2" class="node">
<title>doi.org/10.5066/F7VX0DMQ</title>
<ellipse fill="none" stroke="#558855" cx="446.47" cy="-99" rx="141.88" ry="18"/>
<text text-anchor="middle" x="446.47" y="-95.3" font-family="Times,serif" font-size="14.00">doi.org/10.5066/F7VX0DMQ</text>
</g>
<!-- doi.org/10.5066/F7VX0DMQ&#45;&gt;PropertyValue -->
<g id="edge1" class="edge">
<title>doi.org/10.5066/F7VX0DMQ&#45;&gt;PropertyValue</title>
<path fill="none" stroke="black" d="M519.34,-114.48C546.53,-120.32 577.76,-127 606.16,-133 659.23,-144.22 719.37,-156.75 764.16,-166.06"/>
<polygon fill="black" stroke="black" points="763.55,-169.5 774.05,-168.11 764.97,-162.65 763.55,-169.5"/>
<text text-anchor="middle" x="645.66" y="-151.8" font-family="Times,serif" font-size="14.00">type</text>
</g>
<!-- &quot;https//registry.iden...&quot; -->
<g id="node3" class="node">
<title>&quot;https//registry.iden...&quot;</title>
<ellipse fill="none" stroke="black" stroke-width="0" cx="832.5" cy="-126" rx="116.98" ry="18"/>
<text text-anchor="middle" x="832.5" y="-122.3" font-family="Times,serif" font-size="14.00">&quot;https//registry.iden...&quot;</text>
</g>
<!-- doi.org/10.5066/F7VX0DMQ&#45;&gt;&quot;https//registry.iden...&quot; -->
<g id="edge2" class="edge">
<title>doi.org/10.5066/F7VX0DMQ&#45;&gt;&quot;https//registry.iden...&quot;</title>
<path fill="none" stroke="black" d="M570.83,-107.67C617.22,-110.93 669.76,-114.63 715.46,-117.84"/>
<polygon fill="black" stroke="black" points="715.48,-121.35 725.7,-118.56 715.97,-114.37 715.48,-121.35"/>
<text text-anchor="middle" x="645.66" y="-117.8" font-family="Times,serif" font-size="14.00">propertyID</text>
</g>
<!-- &quot;https//doi.org/10.50...&quot; -->
<g id="node4" class="node">
<title>&quot;https//doi.org/10.50...&quot;</title>
<ellipse fill="none" stroke="black" stroke-width="0" cx="832.5" cy="-72" rx="120.48" ry="18"/>
<text text-anchor="middle" x="832.5" y="-68.3" font-family="Times,serif" font-size="14.00">&quot;https//doi.org/10.50...&quot;</text>
</g>
<!-- doi.org/10.5066/F7VX0DMQ&#45;&gt;&quot;https//doi.org/10.50...&quot; -->
<g id="edge3" class="edge">
<title>doi.org/10.5066/F7VX0DMQ&#45;&gt;&quot;https//doi.org/10.50...&quot;</title>
<path fill="none" stroke="black" d="M570.83,-90.33C616.4,-87.12 667.91,-83.5 713.04,-80.33"/>
<polygon fill="black" stroke="black" points="713.44,-83.81 723.17,-79.62 712.95,-76.83 713.44,-83.81"/>
<text text-anchor="middle" x="645.66" y="-90.8" font-family="Times,serif" font-size="14.00">url</text>
</g>
<!-- &quot;doi10.5066/F7VX0DMQ&quot; -->
<g id="node5" class="node">
<title>&quot;doi10.5066/F7VX0DMQ&quot;</title>
<ellipse fill="none" stroke="black" stroke-width="0" cx="832.5" cy="-18" rx="129.18" ry="18"/>
<text text-anchor="middle" x="832.5" y="-14.3" font-family="Times,serif" font-size="14.00">&quot;doi10.5066/F7VX0DMQ&quot;</text>
</g>
<!-- doi.org/10.5066/F7VX0DMQ&#45;&gt;&quot;doi10.5066/F7VX0DMQ&quot; -->
<g id="edge4" class="edge">
<title>doi.org/10.5066/F7VX0DMQ&#45;&gt;&quot;doi10.5066/F7VX0DMQ&quot;</title>
<path fill="none" stroke="black" d="M536.79,-85.05C554.01,-81.46 571.78,-77.14 588.16,-72 596.51,-69.38 597.82,-66.67 606.16,-64 647.44,-50.79 694.22,-40.51 734.43,-33.05"/>
<polygon fill="black" stroke="black" points="735.29,-36.45 744.5,-31.22 734.03,-29.57 735.29,-36.45"/>
<text text-anchor="middle" x="645.66" y="-67.8" font-family="Times,serif" font-size="14.00">value</text>
</g>
<!-- Map -->
<g id="node6" class="node">
<title>Map</title>
<ellipse fill="none" stroke="#558855" cx="446.47" cy="-45" rx="31.4" ry="18"/>
<text text-anchor="middle" x="446.47" y="-41.3" font-family="Times,serif" font-size="14.00">Map</text>
</g>
<!-- example.org/id/XYZ -->
<g id="node7" class="node">
<title>example.org/id/XYZ</title>
<ellipse fill="none" stroke="black" cx="101.39" cy="-64" rx="101.28" ry="18"/>
<text text-anchor="middle" x="101.39" y="-60.3" font-family="Times,serif" font-size="14.00">example.org/id/XYZ</text>
</g>
<!-- example.org/id/XYZ&#45;&gt;doi.org/10.5066/F7VX0DMQ -->
<g id="edge6" class="edge">
<title>example.org/id/XYZ&#45;&gt;doi.org/10.5066/F7VX0DMQ</title>
<path fill="none" stroke="black" d="M189.85,-72.92C231.01,-77.12 280.75,-82.2 325.37,-86.75"/>
<polygon fill="black" stroke="black" points="325.1,-90.24 335.4,-87.77 325.81,-83.27 325.1,-90.24"/>
<text text-anchor="middle" x="253.78" y="-85.8" font-family="Times,serif" font-size="14.00">identifier</text>
</g>
<!-- example.org/id/XYZ&#45;&gt;Map -->
<g id="edge5" class="edge">
<title>example.org/id/XYZ&#45;&gt;Map</title>
<path fill="none" stroke="black" d="M192.21,-55.99C201.85,-55.26 211.52,-54.58 220.78,-54 285.17,-49.99 360.06,-47.41 405.06,-46.08"/>
<polygon fill="black" stroke="black" points="405.39,-49.57 415.28,-45.79 405.19,-42.58 405.39,-49.57"/>
<text text-anchor="middle" x="253.78" y="-57.8" font-family="Times,serif" font-size="14.00">type</text>
</g>
</g>
</svg>
