<?xml version="1.0" encoding="UTF-8" standalone="no"?>
<!DOCTYPE svg PUBLIC "-//W3C//DTD SVG 1.1//EN"
 "http://www.w3.org/Graphics/SVG/1.1/DTD/svg11.dtd">
<!-- Generated by graphviz version 2.44.0 (0)
 -->
<!-- Pages: 1 -->
<svg width="1612pt" height="665pt"
 viewBox="0.00 0.00 1611.82 664.50" xmlns="http://www.w3.org/2000/svg" xmlns:xlink="http://www.w3.org/1999/xlink">
<g id="graph0" class="graph" transform="scale(1 1) rotate(0) translate(4 660.5)">
<polygon fill="white" stroke="transparent" points="-4,4 -4,-660.5 1607.82,-660.5 1607.82,4 -4,4"/>
<text text-anchor="middle" x="801.91" y="-22.8" font-family="Times-Roman" font-size="14.00">Model:</text>
<text text-anchor="middle" x="801.91" y="-7.8" font-family="Times-Roman" font-size="14.00">https://iode.org/</text>
<!-- Rfile:///home/fils/src/Projects/OIH/odis&#45;arch/schema/thematics/vessels/graphs/ID_value_string -->
<g id="node1" class="node">
<title>Rfile:///home/fils/src/Projects/OIH/odis&#45;arch/schema/thematics/vessels/graphs/ID_value_string</title>
<ellipse fill="none" stroke="blue" cx="682.41" cy="-500.5" rx="424.32" ry="18"/>
<text text-anchor="middle" x="682.41" y="-496.8" font-family="Times-Roman" font-size="14.00">file:///home/fils/src/Projects/OIH/odis&#45;arch/schema/thematics/vessels/graphs/ID_value_string</text>
</g>
<!-- Rschema:PropertyValue -->
<g id="node2" class="node">
<title>Rschema:PropertyValue</title>
<ellipse fill="none" stroke="blue" cx="1458.82" cy="-638.5" rx="111.28" ry="18"/>
<text text-anchor="middle" x="1458.82" y="-634.8" font-family="Times-Roman" font-size="14.00">schema:PropertyValue</text>
</g>
<!-- Rfile:///home/fils/src/Projects/OIH/odis&#45;arch/schema/thematics/vessels/graphs/ID_value_string&#45;&gt;Rschema:PropertyValue -->
<g id="edge1" class="edge">
<title>Rfile:///home/fils/src/Projects/OIH/odis&#45;arch/schema/thematics/vessels/graphs/ID_value_string&#45;&gt;Rschema:PropertyValue</title>
<path fill="none" stroke="black" stroke-dasharray="1,5" d="M772.06,-518.11C861.09,-535.61 1002.29,-562.91 1124.82,-584.5 1206.84,-598.95 1300.49,-614.01 1367.54,-624.54"/>
<polygon fill="black" stroke="black" points="1367.23,-628.04 1377.65,-626.13 1368.31,-621.12 1367.23,-628.04"/>
<text text-anchor="middle" x="1210.32" y="-615.3" font-family="Times-Roman" font-size="14.00">rdfs:type</text>
</g>
<!-- LAny additional properties for the vessel -->
<g id="node3" class="node">
<title>LAny additional properties for the vessel</title>
<polygon fill="none" stroke="black" points="1313.82,-565.5 1313.82,-601.5 1603.82,-601.5 1603.82,-565.5 1313.82,-565.5"/>
<text text-anchor="middle" x="1458.82" y="-579.8" font-family="Times-Roman" font-size="14.00">Any additional properties for the vessel</text>
</g>
<!-- Rfile:///home/fils/src/Projects/OIH/odis&#45;arch/schema/thematics/vessels/graphs/ID_value_string&#45;&gt;LAny additional properties for the vessel -->
<g id="edge2" class="edge">
<title>Rfile:///home/fils/src/Projects/OIH/odis&#45;arch/schema/thematics/vessels/graphs/ID_value_string&#45;&gt;LAny additional properties for the vessel</title>
<path fill="none" stroke="black" stroke-dasharray="1,5" d="M839.66,-517.25C974.79,-531.73 1169.06,-552.55 1303.6,-566.97"/>
<polygon fill="black" stroke="black" points="1303.27,-570.45 1313.58,-568.04 1304.01,-563.49 1303.27,-570.45"/>
<text text-anchor="middle" x="1210.32" y="-569.3" font-family="Times-Roman" font-size="14.00">schema:description</text>
</g>
<!-- LVessel ID  -->
<g id="node4" class="node">
<title>LVessel ID </title>
<polygon fill="none" stroke="black" points="1418.82,-510.5 1418.82,-546.5 1498.82,-546.5 1498.82,-510.5 1418.82,-510.5"/>
<text text-anchor="middle" x="1458.82" y="-524.8" font-family="Times-Roman" font-size="14.00">Vessel ID</text>
</g>
<!-- Rfile:///home/fils/src/Projects/OIH/odis&#45;arch/schema/thematics/vessels/graphs/ID_value_string&#45;&gt;LVessel ID  -->
<g id="edge3" class="edge">
<title>Rfile:///home/fils/src/Projects/OIH/odis&#45;arch/schema/thematics/vessels/graphs/ID_value_string&#45;&gt;LVessel ID </title>
<path fill="none" stroke="black" stroke-dasharray="1,5" d="M1005.95,-512.16C1159.51,-517.71 1327.04,-523.77 1408.21,-526.71"/>
<polygon fill="black" stroke="black" points="1408.49,-530.22 1418.61,-527.08 1408.74,-523.22 1408.49,-530.22"/>
<text text-anchor="middle" x="1210.32" y="-525.3" font-family="Times-Roman" font-size="14.00">schema:description</text>
</g>
<!-- Lthis can be text or URL.. -->
<g id="node5" class="node">
<title>Lthis can be text or URL..</title>
<polygon fill="none" stroke="black" points="1366.32,-455.5 1366.32,-491.5 1551.32,-491.5 1551.32,-455.5 1366.32,-455.5"/>
<text text-anchor="middle" x="1458.82" y="-469.8" font-family="Times-Roman" font-size="14.00">this can be text or URL..</text>
</g>
<!-- Rfile:///home/fils/src/Projects/OIH/odis&#45;arch/schema/thematics/vessels/graphs/ID_value_string&#45;&gt;Lthis can be text or URL.. -->
<g id="edge4" class="edge">
<title>Rfile:///home/fils/src/Projects/OIH/odis&#45;arch/schema/thematics/vessels/graphs/ID_value_string&#45;&gt;Lthis can be text or URL..</title>
<path fill="none" stroke="black" stroke-dasharray="1,5" d="M1010.71,-489.09C1135.12,-484.75 1267.99,-480.12 1356.25,-477.04"/>
<polygon fill="black" stroke="black" points="1356.38,-480.54 1366.25,-476.69 1356.14,-473.54 1356.38,-480.54"/>
<text text-anchor="middle" x="1210.32" y="-488.3" font-family="Times-Roman" font-size="14.00">schema:propertyID</text>
</g>
<!-- Lhttps://foo.org/linkToPropertyIDPage -->
<g id="node6" class="node">
<title>Lhttps://foo.org/linkToPropertyIDPage</title>
<polygon fill="none" stroke="black" points="1326.32,-400.5 1326.32,-436.5 1591.32,-436.5 1591.32,-400.5 1326.32,-400.5"/>
<text text-anchor="middle" x="1458.82" y="-414.8" font-family="Times-Roman" font-size="14.00">https://foo.org/linkToPropertyIDPage</text>
</g>
<!-- Rfile:///home/fils/src/Projects/OIH/odis&#45;arch/schema/thematics/vessels/graphs/ID_value_string&#45;&gt;Lhttps://foo.org/linkToPropertyIDPage -->
<g id="edge5" class="edge">
<title>Rfile:///home/fils/src/Projects/OIH/odis&#45;arch/schema/thematics/vessels/graphs/ID_value_string&#45;&gt;Lhttps://foo.org/linkToPropertyIDPage</title>
<path fill="none" stroke="black" stroke-dasharray="1,5" d="M841.53,-483.76C980.93,-469 1182.18,-447.69 1316.35,-433.48"/>
<polygon fill="black" stroke="black" points="1316.72,-436.96 1326.3,-432.43 1315.98,-430 1316.72,-436.96"/>
<text text-anchor="middle" x="1210.32" y="-455.3" font-family="Times-Roman" font-size="14.00">schema:url</text>
</g>
<!-- B_:b0 -->
<g id="node7" class="node">
<title>B_:b0</title>
<ellipse fill="none" stroke="green" cx="18" cy="-424.5" rx="18" ry="18"/>
</g>
<!-- B_:b0&#45;&gt;Rfile:///home/fils/src/Projects/OIH/odis&#45;arch/schema/thematics/vessels/graphs/ID_value_string -->
<g id="edge7" class="edge">
<title>B_:b0&#45;&gt;Rfile:///home/fils/src/Projects/OIH/odis&#45;arch/schema/thematics/vessels/graphs/ID_value_string</title>
<path fill="none" stroke="black" stroke-dasharray="1,5" d="M24.97,-441.39C30.42,-454.03 39.81,-470.46 54,-478.5 227.13,-576.57 472.39,-545.96 598.87,-520.32"/>
<polygon fill="black" stroke="black" points="599.8,-523.7 608.88,-518.25 598.38,-516.85 599.8,-523.7"/>
<text text-anchor="middle" x="147" y="-539.3" font-family="Times-Roman" font-size="14.00">schema:additionalProperty</text>
</g>
<!-- B_:b0&#45;&gt;Rfile:///home/fils/src/Projects/OIH/odis&#45;arch/schema/thematics/vessels/graphs/ID_value_string -->
<g id="edge8" class="edge">
<title>B_:b0&#45;&gt;Rfile:///home/fils/src/Projects/OIH/odis&#45;arch/schema/thematics/vessels/graphs/ID_value_string</title>
<path fill="none" stroke="black" stroke-dasharray="1,5" d="M34.27,-432.82C40.25,-435.72 47.29,-438.7 54,-440.5 59.39,-441.95 313.04,-465.95 496.13,-483.15"/>
<polygon fill="black" stroke="black" points="495.88,-486.64 506.16,-484.09 496.53,-479.67 495.88,-486.64"/>
<text text-anchor="middle" x="147" y="-461.3" font-family="Times-Roman" font-size="14.00">schema:identifier</text>
</g>
<!-- Rschema:Vehicle -->
<g id="node8" class="node">
<title>Rschema:Vehicle</title>
<ellipse fill="none" stroke="blue" cx="682.41" cy="-424.5" rx="80.69" ry="18"/>
<text text-anchor="middle" x="682.41" y="-420.8" font-family="Times-Roman" font-size="14.00">schema:Vehicle</text>
</g>
<!-- B_:b0&#45;&gt;Rschema:Vehicle -->
<g id="edge6" class="edge">
<title>B_:b0&#45;&gt;Rschema:Vehicle</title>
<path fill="none" stroke="black" stroke-dasharray="1,5" d="M36.04,-424.5C113.22,-424.5 433.11,-424.5 591.6,-424.5"/>
<polygon fill="black" stroke="black" points="591.8,-428 601.8,-424.5 591.8,-421 591.8,-428"/>
<text text-anchor="middle" x="147" y="-428.3" font-family="Times-Roman" font-size="14.00">rdfs:type</text>
</g>
<!-- LJOIDES Resolution -->
<g id="node9" class="node">
<title>LJOIDES Resolution</title>
<polygon fill="none" stroke="black" points="611.41,-351.5 611.41,-387.5 753.41,-387.5 753.41,-351.5 611.41,-351.5"/>
<text text-anchor="middle" x="682.41" y="-365.8" font-family="Times-Roman" font-size="14.00">JOIDES Resolution</text>
</g>
<!-- B_:b0&#45;&gt;LJOIDES Resolution -->
<g id="edge9" class="edge">
<title>B_:b0&#45;&gt;LJOIDES Resolution</title>
<path fill="none" stroke="black" stroke-dasharray="1,5" d="M33.37,-414.84C39.47,-411.25 46.82,-407.54 54,-405.5 244.16,-351.37 479.5,-355.83 600.76,-363.06"/>
<polygon fill="black" stroke="black" points="600.87,-366.58 611.07,-363.7 601.3,-359.59 600.87,-366.58"/>
<text text-anchor="middle" x="147" y="-409.3" font-family="Times-Roman" font-size="14.00">schema:name</text>
</g>
<!-- B_:b1 -->
<g id="node10" class="node">
<title>B_:b1</title>
<ellipse fill="none" stroke="green" cx="682.41" cy="-253.5" rx="18" ry="18"/>
</g>
<!-- B_:b0&#45;&gt;B_:b1 -->
<g id="edge10" class="edge">
<title>B_:b0&#45;&gt;B_:b1</title>
<path fill="none" stroke="black" stroke-dasharray="1,5" d="M22.39,-406.82C26.66,-389.61 35.78,-364.1 54,-350.5 244.96,-207.97 560.84,-236.99 654.47,-249.47"/>
<polygon fill="black" stroke="black" points="654.14,-252.95 664.52,-250.86 655.1,-246.02 654.14,-252.95"/>
<text text-anchor="middle" x="147" y="-354.3" font-family="Times-Roman" font-size="14.00">schema:subjectOf</text>
</g>
<!-- Rschema:DataDownload -->
<g id="node11" class="node">
<title>Rschema:DataDownload</title>
<ellipse fill="none" stroke="blue" cx="1458.82" cy="-363.5" rx="114.28" ry="18"/>
<text text-anchor="middle" x="1458.82" y="-359.8" font-family="Times-Roman" font-size="14.00">schema:DataDownload</text>
</g>
<!-- B_:b1&#45;&gt;Rschema:DataDownload -->
<g id="edge11" class="edge">
<title>B_:b1&#45;&gt;Rschema:DataDownload</title>
<path fill="none" stroke="black" stroke-dasharray="1,5" d="M700.31,-255.9C786.48,-268.14 1180.1,-324.05 1363.4,-350.09"/>
<polygon fill="black" stroke="black" points="1362.9,-353.55 1373.3,-351.49 1363.89,-346.62 1362.9,-353.55"/>
<text text-anchor="middle" x="1210.32" y="-343.3" font-family="Times-Roman" font-size="14.00">rdfs:type</text>
</g>
<!-- L2019&#45;06&#45;12T14:44:15Z -->
<g id="node12" class="node">
<title>L2019&#45;06&#45;12T14:44:15Z</title>
<polygon fill="none" stroke="black" points="1368.82,-290.5 1368.82,-326.5 1548.82,-326.5 1548.82,-290.5 1368.82,-290.5"/>
<text text-anchor="middle" x="1458.82" y="-304.8" font-family="Times-Roman" font-size="14.00">2019&#45;06&#45;12T14:44:15Z</text>
</g>
<!-- B_:b1&#45;&gt;L2019&#45;06&#45;12T14:44:15Z -->
<g id="edge12" class="edge">
<title>B_:b1&#45;&gt;L2019&#45;06&#45;12T14:44:15Z</title>
<path fill="none" stroke="black" stroke-dasharray="1,5" d="M700.67,-254.73C786.85,-260.85 1173.71,-288.32 1358.69,-301.46"/>
<polygon fill="black" stroke="black" points="1358.47,-304.95 1368.69,-302.17 1358.97,-297.97 1358.47,-304.95"/>
<text text-anchor="middle" x="1210.32" y="-300.3" font-family="Times-Roman" font-size="14.00">schema:dateModified</text>
</g>
<!-- LMetadata describing the vessel -->
<g id="node13" class="node">
<title>LMetadata describing the vessel</title>
<polygon fill="none" stroke="black" points="1342.32,-235.5 1342.32,-271.5 1575.32,-271.5 1575.32,-235.5 1342.32,-235.5"/>
<text text-anchor="middle" x="1458.82" y="-249.8" font-family="Times-Roman" font-size="14.00">Metadata describing the vessel</text>
</g>
<!-- B_:b1&#45;&gt;LMetadata describing the vessel -->
<g id="edge13" class="edge">
<title>B_:b1&#45;&gt;LMetadata describing the vessel</title>
<path fill="none" stroke="black" stroke-dasharray="1,5" d="M700.67,-253.5C782.89,-253.5 1138.8,-253.5 1331.97,-253.5"/>
<polygon fill="black" stroke="black" points="1332.18,-257 1342.18,-253.5 1332.18,-250 1332.18,-257"/>
<text text-anchor="middle" x="1210.32" y="-257.3" font-family="Times-Roman" font-size="14.00">schema:description</text>
</g>
<!-- Lapplication/xml -->
<g id="node14" class="node">
<title>Lapplication/xml</title>
<polygon fill="none" stroke="black" points="1397.82,-180.5 1397.82,-216.5 1519.82,-216.5 1519.82,-180.5 1397.82,-180.5"/>
<text text-anchor="middle" x="1458.82" y="-194.8" font-family="Times-Roman" font-size="14.00">application/xml</text>
</g>
<!-- B_:b1&#45;&gt;Lapplication/xml -->
<g id="edge14" class="edge">
<title>B_:b1&#45;&gt;Lapplication/xml</title>
<path fill="none" stroke="black" stroke-dasharray="1,5" d="M700.67,-252.27C791.65,-245.81 1217.78,-215.55 1387.66,-203.48"/>
<polygon fill="black" stroke="black" points="1388.02,-206.97 1397.74,-202.77 1387.52,-199.98 1388.02,-206.97"/>
<text text-anchor="middle" x="1210.32" y="-224.3" font-family="Times-Roman" font-size="14.00">schema:encodingFormat</text>
</g>
<!-- Lhttps://foo.org/ship01 -->
<g id="node15" class="node">
<title>Lhttps://foo.org/ship01</title>
<polygon fill="none" stroke="black" points="1375.32,-125.5 1375.32,-161.5 1542.32,-161.5 1542.32,-125.5 1375.32,-125.5"/>
<text text-anchor="middle" x="1458.82" y="-139.8" font-family="Times-Roman" font-size="14.00">https://foo.org/ship01</text>
</g>
<!-- B_:b1&#45;&gt;Lhttps://foo.org/ship01 -->
<g id="edge15" class="edge">
<title>B_:b1&#45;&gt;Lhttps://foo.org/ship01</title>
<path fill="none" stroke="black" stroke-dasharray="1,5" d="M700.66,-251.03C759.77,-242.56 959.66,-213.94 1124.82,-190.5 1205.93,-178.99 1298.15,-165.98 1364.95,-156.57"/>
<polygon fill="black" stroke="black" points="1365.61,-160.01 1375.03,-155.15 1364.64,-153.08 1365.61,-160.01"/>
<text text-anchor="middle" x="1210.32" y="-194.3" font-family="Times-Roman" font-size="14.00">schema:encodingFormat</text>
</g>
<!-- Lexternal&#45;metadata.xml -->
<g id="node16" class="node">
<title>Lexternal&#45;metadata.xml</title>
<polygon fill="none" stroke="black" points="1371.82,-70.5 1371.82,-106.5 1545.82,-106.5 1545.82,-70.5 1371.82,-70.5"/>
<text text-anchor="middle" x="1458.82" y="-84.8" font-family="Times-Roman" font-size="14.00">external&#45;metadata.xml</text>
</g>
<!-- B_:b1&#45;&gt;Lexternal&#45;metadata.xml -->
<g id="edge16" class="edge">
<title>B_:b1&#45;&gt;Lexternal&#45;metadata.xml</title>
<path fill="none" stroke="black" stroke-dasharray="1,5" d="M700.17,-249.09C758.5,-233.82 958.17,-182.24 1124.82,-147.5 1204.23,-130.95 1294.92,-115.08 1361.58,-103.97"/>
<polygon fill="black" stroke="black" points="1362.36,-107.39 1371.65,-102.3 1361.22,-100.49 1362.36,-107.39"/>
<text text-anchor="middle" x="1210.32" y="-151.3" font-family="Times-Roman" font-size="14.00">schema:name</text>
</g>
</g>
</svg>
