<?xml version="1.0" encoding="UTF-8" standalone="no"?>
<!DOCTYPE svg PUBLIC "-//W3C//DTD SVG 1.1//EN"
 "http://www.w3.org/Graphics/SVG/1.1/DTD/svg11.dtd">
<!-- Generated by graphviz version 2.43.0 (0)
 -->
<!-- Title: %3 Pages: 1 -->
<svg width="1134pt" height="356pt"
 viewBox="0.00 0.00 1134.25 356.15" xmlns="http://www.w3.org/2000/svg" xmlns:xlink="http://www.w3.org/1999/xlink">
<g id="graph0" class="graph" transform="scale(1 1) rotate(0) translate(4 352.15)">
<title>%3</title>
<polygon fill="white" stroke="transparent" points="-4,4 -4,-352.15 1130.25,-352.15 1130.25,4 -4,4"/>
<text text-anchor="middle" x="563.13" y="-22.8" font-family="Times,serif" font-size="14.00">Model:</text>
<text text-anchor="middle" x="563.13" y="-7.8" font-family="Times,serif" font-size="14.00">https://iode.org/</text>
<!-- Rfile:///home/fils/src/git/odis&#45;arch/schema/vessels/graphs/ID_value_string -->
<g id="node1" class="node">
<title>Rfile:///home/fils/src/git/odis&#45;arch/schema/vessels/graphs/ID_value_string</title>
<ellipse fill="none" stroke="blue" cx="485.13" cy="-220.15" rx="267.25" ry="18"/>
<text text-anchor="middle" x="485.13" y="-216.45" font-family="Times,serif" font-size="14.00">file:///home/fils/src/git/odis&#45;arch/schema/vessels/graphs/ID_value_string</text>
</g>
<!-- Rschema:PropertyValue -->
<g id="node2" class="node">
<title>Rschema:PropertyValue</title>
<ellipse fill="none" stroke="blue" cx="1010.25" cy="-330.15" rx="90.18" ry="18"/>
<text text-anchor="middle" x="1010.25" y="-326.45" font-family="Times,serif" font-size="14.00">schema:PropertyValue</text>
</g>
<!-- Rfile:///home/fils/src/git/odis&#45;arch/schema/vessels/graphs/ID_value_string&#45;&gt;Rschema:PropertyValue -->
<g id="edge1" class="edge">
<title>Rfile:///home/fils/src/git/odis&#45;arch/schema/vessels/graphs/ID_value_string&#45;&gt;Rschema:PropertyValue</title>
<path fill="none" stroke="black" stroke-dasharray="1,5" d="M567.58,-237.27C668.95,-258.59 840.49,-294.66 937.26,-315.01"/>
<polygon fill="black" stroke="black" points="936.74,-318.48 947.24,-317.11 938.18,-311.63 936.74,-318.48"/>
<text text-anchor="middle" x="823.25" y="-303.95" font-family="Times,serif" font-size="14.00">rdfs:type</text>
</g>
<!-- LAny additional properties for the vessel -->
<g id="node3" class="node">
<title>LAny additional properties for the vessel</title>
<polygon fill="none" stroke="black" points="894.25,-257.15 894.25,-293.15 1126.25,-293.15 1126.25,-257.15 894.25,-257.15"/>
<text text-anchor="middle" x="1010.25" y="-271.45" font-family="Times,serif" font-size="14.00">Any additional properties for the vessel</text>
</g>
<!-- Rfile:///home/fils/src/git/odis&#45;arch/schema/vessels/graphs/ID_value_string&#45;&gt;LAny additional properties for the vessel -->
<g id="edge2" class="edge">
<title>Rfile:///home/fils/src/git/odis&#45;arch/schema/vessels/graphs/ID_value_string&#45;&gt;LAny additional properties for the vessel</title>
<path fill="none" stroke="black" stroke-dasharray="1,5" d="M630.11,-235.29C709.71,-243.65 807.66,-253.95 884.06,-261.98"/>
<polygon fill="black" stroke="black" points="883.9,-265.49 894.21,-263.05 884.63,-258.53 883.9,-265.49"/>
<text text-anchor="middle" x="823.25" y="-263.95" font-family="Times,serif" font-size="14.00">schema:description</text>
</g>
<!-- LVessel ID  -->
<g id="node4" class="node">
<title>LVessel ID </title>
<polygon fill="none" stroke="black" points="975.75,-202.15 975.75,-238.15 1044.75,-238.15 1044.75,-202.15 975.75,-202.15"/>
<text text-anchor="middle" x="1010.25" y="-216.45" font-family="Times,serif" font-size="14.00">Vessel ID</text>
</g>
<!-- Rfile:///home/fils/src/git/odis&#45;arch/schema/vessels/graphs/ID_value_string&#45;&gt;LVessel ID  -->
<g id="edge3" class="edge">
<title>Rfile:///home/fils/src/git/odis&#45;arch/schema/vessels/graphs/ID_value_string&#45;&gt;LVessel ID </title>
<path fill="none" stroke="black" stroke-dasharray="1,5" d="M752.29,-220.15C835.06,-220.15 917.22,-220.15 965.59,-220.15"/>
<polygon fill="black" stroke="black" points="965.68,-223.65 975.68,-220.15 965.68,-216.65 965.68,-223.65"/>
<text text-anchor="middle" x="823.25" y="-223.95" font-family="Times,serif" font-size="14.00">schema:description</text>
</g>
<!-- Lthis can be text or URL.. -->
<g id="node5" class="node">
<title>Lthis can be text or URL..</title>
<polygon fill="none" stroke="black" points="934.25,-147.15 934.25,-183.15 1086.25,-183.15 1086.25,-147.15 934.25,-147.15"/>
<text text-anchor="middle" x="1010.25" y="-161.45" font-family="Times,serif" font-size="14.00">this can be text or URL..</text>
</g>
<!-- Rfile:///home/fils/src/git/odis&#45;arch/schema/vessels/graphs/ID_value_string&#45;&gt;Lthis can be text or URL.. -->
<g id="edge4" class="edge">
<title>Rfile:///home/fils/src/git/odis&#45;arch/schema/vessels/graphs/ID_value_string&#45;&gt;Lthis can be text or URL..</title>
<path fill="none" stroke="black" stroke-dasharray="1,5" d="M630.11,-205.01C724.52,-195.08 844.74,-182.44 924.2,-174.09"/>
<polygon fill="black" stroke="black" points="924.59,-177.57 934.17,-173.04 923.86,-170.61 924.59,-177.57"/>
<text text-anchor="middle" x="823.25" y="-192.95" font-family="Times,serif" font-size="14.00">schema:propertyID</text>
</g>
<!-- Lhttps://foo.org/linkToPropertyIDPage -->
<g id="node6" class="node">
<title>Lhttps://foo.org/linkToPropertyIDPage</title>
<polygon fill="none" stroke="black" points="899.75,-92.15 899.75,-128.15 1120.75,-128.15 1120.75,-92.15 899.75,-92.15"/>
<text text-anchor="middle" x="1010.25" y="-106.45" font-family="Times,serif" font-size="14.00">https://foo.org/linkToPropertyIDPage</text>
</g>
<!-- Rfile:///home/fils/src/git/odis&#45;arch/schema/vessels/graphs/ID_value_string&#45;&gt;Lhttps://foo.org/linkToPropertyIDPage -->
<g id="edge5" class="edge">
<title>Rfile:///home/fils/src/git/odis&#45;arch/schema/vessels/graphs/ID_value_string&#45;&gt;Lhttps://foo.org/linkToPropertyIDPage</title>
<path fill="none" stroke="black" stroke-dasharray="1,5" d="M686.28,-208.2C709.39,-202.04 731.93,-193.61 752.25,-182.15 763.26,-175.94 759.45,-166.7 770.25,-160.15 805.91,-138.5 849.47,-126.1 889.59,-119.05"/>
<polygon fill="black" stroke="black" points="890.42,-122.46 899.71,-117.37 889.27,-115.55 890.42,-122.46"/>
<text text-anchor="middle" x="823.25" y="-163.95" font-family="Times,serif" font-size="14.00">schema:url</text>
</g>
<!-- B_:b0 -->
<g id="node7" class="node">
<title>B_:b0</title>
<ellipse fill="none" stroke="green" cx="18" cy="-174.15" rx="18" ry="18"/>
</g>
<!-- B_:b0&#45;&gt;Rfile:///home/fils/src/git/odis&#45;arch/schema/vessels/graphs/ID_value_string -->
<g id="edge7" class="edge">
<title>B_:b0&#45;&gt;Rfile:///home/fils/src/git/odis&#45;arch/schema/vessels/graphs/ID_value_string</title>
<path fill="none" stroke="black" stroke-dasharray="1,5" d="M29.21,-188.75C35.42,-196.33 44.05,-204.88 54,-209.15 158.54,-254.02 290.91,-249.4 381.02,-238.29"/>
<polygon fill="black" stroke="black" points="381.49,-241.76 390.97,-237.01 380.6,-234.81 381.49,-241.76"/>
<text text-anchor="middle" x="127" y="-244.95" font-family="Times,serif" font-size="14.00">schema:additionalProperty</text>
</g>
<!-- B_:b0&#45;&gt;Rfile:///home/fils/src/git/odis&#45;arch/schema/vessels/graphs/ID_value_string -->
<g id="edge8" class="edge">
<title>B_:b0&#45;&gt;Rfile:///home/fils/src/git/odis&#45;arch/schema/vessels/graphs/ID_value_string</title>
<path fill="none" stroke="black" stroke-dasharray="1,5" d="M35.98,-175.55C68.04,-178.22 139.71,-184.3 200,-190.15 243.4,-194.36 290.49,-199.21 333.63,-203.77"/>
<polygon fill="black" stroke="black" points="333.32,-207.26 343.63,-204.83 334.06,-200.3 333.32,-207.26"/>
<text text-anchor="middle" x="127" y="-193.95" font-family="Times,serif" font-size="14.00">schema:identifier</text>
</g>
<!-- Rschema:Vehicle -->
<g id="node8" class="node">
<title>Rschema:Vehicle</title>
<ellipse fill="none" stroke="blue" cx="485.13" cy="-155.15" rx="66.09" ry="18"/>
<text text-anchor="middle" x="485.13" y="-151.45" font-family="Times,serif" font-size="14.00">schema:Vehicle</text>
</g>
<!-- B_:b0&#45;&gt;Rschema:Vehicle -->
<g id="edge6" class="edge">
<title>B_:b0&#45;&gt;Rschema:Vehicle</title>
<path fill="none" stroke="black" stroke-dasharray="1,5" d="M33.72,-164.61C39.75,-161.24 46.96,-157.86 54,-156.15 178.81,-125.78 330.08,-135.77 415.91,-145.59"/>
<polygon fill="black" stroke="black" points="415.7,-149.09 426.05,-146.79 416.52,-142.14 415.7,-149.09"/>
<text text-anchor="middle" x="127" y="-159.95" font-family="Times,serif" font-size="14.00">rdfs:type</text>
</g>
<!-- LJOIDES Resolution -->
<g id="node9" class="node">
<title>LJOIDES Resolution</title>
<polygon fill="none" stroke="black" points="423.13,-82.15 423.13,-118.15 547.13,-118.15 547.13,-82.15 423.13,-82.15"/>
<text text-anchor="middle" x="485.13" y="-96.45" font-family="Times,serif" font-size="14.00">JOIDES Resolution</text>
</g>
<!-- B_:b0&#45;&gt;LJOIDES Resolution -->
<g id="edge9" class="edge">
<title>B_:b0&#45;&gt;LJOIDES Resolution</title>
<path fill="none" stroke="black" stroke-dasharray="1,5" d="M24.6,-157.21C29.93,-144.06 39.33,-126.68 54,-118.15 165.77,-53.11 322.92,-67.76 413.07,-84.09"/>
<polygon fill="black" stroke="black" points="412.44,-87.54 422.92,-85.93 413.73,-80.66 412.44,-87.54"/>
<text text-anchor="middle" x="127" y="-121.95" font-family="Times,serif" font-size="14.00">schema:name</text>
</g>
</g>
</svg>
