<?xml version="1.0" encoding="UTF-8" standalone="no"?>
<!DOCTYPE svg PUBLIC "-//W3C//DTD SVG 1.1//EN"
 "http://www.w3.org/Graphics/SVG/1.1/DTD/svg11.dtd">
<!-- Generated by graphviz version 2.43.0 (0)
 -->
<!-- Title: %3 Pages: 1 -->
<svg width="1207pt" height="360pt"
 viewBox="0.00 0.00 1207.05 359.66" xmlns="http://www.w3.org/2000/svg" xmlns:xlink="http://www.w3.org/1999/xlink">
<g id="graph0" class="graph" transform="scale(1 1) rotate(0) translate(4 355.66)">
<title>%3</title>
<polygon fill="white" stroke="transparent" points="-4,4 -4,-355.66 1203.05,-355.66 1203.05,4 -4,4"/>
<text text-anchor="middle" x="599.52" y="-22.8" font-family="Times,serif" font-size="14.00">Model:</text>
<text text-anchor="middle" x="599.52" y="-7.8" font-family="Times,serif" font-size="14.00">https://iode.org/</text>
<!-- Rfile:///home/fils/src/git/odis&#45;arch/schema/thematics/vessels/graphs/ID_value_string -->
<g id="node1" class="node">
<title>Rfile:///home/fils/src/git/odis&#45;arch/schema/thematics/vessels/graphs/ID_value_string</title>
<ellipse fill="none" stroke="blue" cx="521.52" cy="-223.66" rx="303.55" ry="18"/>
<text text-anchor="middle" x="521.52" y="-219.96" font-family="Times,serif" font-size="14.00">file:///home/fils/src/git/odis&#45;arch/schema/thematics/vessels/graphs/ID_value_string</text>
</g>
<!-- Rschema:PropertyValue -->
<g id="node2" class="node">
<title>Rschema:PropertyValue</title>
<ellipse fill="none" stroke="blue" cx="1083.05" cy="-333.66" rx="90.18" ry="18"/>
<text text-anchor="middle" x="1083.05" y="-329.96" font-family="Times,serif" font-size="14.00">schema:PropertyValue</text>
</g>
<!-- Rfile:///home/fils/src/git/odis&#45;arch/schema/thematics/vessels/graphs/ID_value_string&#45;&gt;Rschema:PropertyValue -->
<g id="edge1" class="edge">
<title>Rfile:///home/fils/src/git/odis&#45;arch/schema/thematics/vessels/graphs/ID_value_string&#45;&gt;Rschema:PropertyValue</title>
<path fill="none" stroke="black" stroke-dasharray="1,5" d="M610.26,-240.9C719.79,-262.44 905.21,-298.89 1007.96,-319.09"/>
<polygon fill="black" stroke="black" points="1007.45,-322.56 1017.94,-321.05 1008.8,-315.69 1007.45,-322.56"/>
<text text-anchor="middle" x="896.05" y="-310.46" font-family="Times,serif" font-size="14.00">rdfs:type</text>
</g>
<!-- LAny additional properties for the vessel -->
<g id="node3" class="node">
<title>LAny additional properties for the vessel</title>
<polygon fill="none" stroke="black" points="967.05,-260.66 967.05,-296.66 1199.05,-296.66 1199.05,-260.66 967.05,-260.66"/>
<text text-anchor="middle" x="1083.05" y="-274.96" font-family="Times,serif" font-size="14.00">Any additional properties for the vessel</text>
</g>
<!-- Rfile:///home/fils/src/git/odis&#45;arch/schema/thematics/vessels/graphs/ID_value_string&#45;&gt;LAny additional properties for the vessel -->
<g id="edge2" class="edge">
<title>Rfile:///home/fils/src/git/odis&#45;arch/schema/thematics/vessels/graphs/ID_value_string&#45;&gt;LAny additional properties for the vessel</title>
<path fill="none" stroke="black" stroke-dasharray="1,5" d="M679.13,-239.05C766.8,-247.67 874.64,-258.27 956.68,-266.33"/>
<polygon fill="black" stroke="black" points="956.51,-269.83 966.81,-267.33 957.2,-262.87 956.51,-269.83"/>
<text text-anchor="middle" x="896.05" y="-268.46" font-family="Times,serif" font-size="14.00">schema:description</text>
</g>
<!-- LVessel ID  -->
<g id="node4" class="node">
<title>LVessel ID </title>
<polygon fill="none" stroke="black" points="1048.55,-205.66 1048.55,-241.66 1117.55,-241.66 1117.55,-205.66 1048.55,-205.66"/>
<text text-anchor="middle" x="1083.05" y="-219.96" font-family="Times,serif" font-size="14.00">Vessel ID</text>
</g>
<!-- Rfile:///home/fils/src/git/odis&#45;arch/schema/thematics/vessels/graphs/ID_value_string&#45;&gt;LVessel ID  -->
<g id="edge3" class="edge">
<title>Rfile:///home/fils/src/git/odis&#45;arch/schema/thematics/vessels/graphs/ID_value_string&#45;&gt;LVessel ID </title>
<path fill="none" stroke="black" stroke-dasharray="1,5" d="M825.21,-223.66C909,-223.66 990.02,-223.66 1037.95,-223.66"/>
<polygon fill="black" stroke="black" points="1038.25,-227.16 1048.25,-223.66 1038.25,-220.16 1038.25,-227.16"/>
<text text-anchor="middle" x="896.05" y="-227.46" font-family="Times,serif" font-size="14.00">schema:description</text>
</g>
<!-- Lthis can be text or URL.. -->
<g id="node5" class="node">
<title>Lthis can be text or URL..</title>
<polygon fill="none" stroke="black" points="1007.05,-150.66 1007.05,-186.66 1159.05,-186.66 1159.05,-150.66 1007.05,-150.66"/>
<text text-anchor="middle" x="1083.05" y="-164.96" font-family="Times,serif" font-size="14.00">this can be text or URL..</text>
</g>
<!-- Rfile:///home/fils/src/git/odis&#45;arch/schema/thematics/vessels/graphs/ID_value_string&#45;&gt;Lthis can be text or URL.. -->
<g id="edge4" class="edge">
<title>Rfile:///home/fils/src/git/odis&#45;arch/schema/thematics/vessels/graphs/ID_value_string&#45;&gt;Lthis can be text or URL..</title>
<path fill="none" stroke="black" stroke-dasharray="1,5" d="M679.13,-208.26C781.96,-198.15 912.52,-185.32 996.68,-177.05"/>
<polygon fill="black" stroke="black" points="997.1,-180.52 1006.71,-176.06 996.41,-173.56 997.1,-180.52"/>
<text text-anchor="middle" x="896.05" y="-194.46" font-family="Times,serif" font-size="14.00">schema:propertyID</text>
</g>
<!-- Lhttps://foo.org/linkToPropertyIDPage -->
<g id="node6" class="node">
<title>Lhttps://foo.org/linkToPropertyIDPage</title>
<polygon fill="none" stroke="black" points="972.55,-95.66 972.55,-131.66 1193.55,-131.66 1193.55,-95.66 972.55,-95.66"/>
<text text-anchor="middle" x="1083.05" y="-109.96" font-family="Times,serif" font-size="14.00">https://foo.org/linkToPropertyIDPage</text>
</g>
<!-- Rfile:///home/fils/src/git/odis&#45;arch/schema/thematics/vessels/graphs/ID_value_string&#45;&gt;Lhttps://foo.org/linkToPropertyIDPage -->
<g id="edge5" class="edge">
<title>Rfile:///home/fils/src/git/odis&#45;arch/schema/thematics/vessels/graphs/ID_value_string&#45;&gt;Lhttps://foo.org/linkToPropertyIDPage</title>
<path fill="none" stroke="black" stroke-dasharray="1,5" d="M759.23,-212.38C782.3,-205.9 804.67,-197.21 825.05,-185.66 836.34,-179.25 832.01,-169.49 843.05,-162.66 878.48,-140.71 921.99,-128.39 962.13,-121.55"/>
<polygon fill="black" stroke="black" points="962.94,-124.97 972.26,-119.93 961.83,-118.05 962.94,-124.97"/>
<text text-anchor="middle" x="896.05" y="-166.46" font-family="Times,serif" font-size="14.00">schema:url</text>
</g>
<!-- B_:b0 -->
<g id="node7" class="node">
<title>B_:b0</title>
<ellipse fill="none" stroke="green" cx="18" cy="-177.66" rx="18" ry="18"/>
</g>
<!-- B_:b0&#45;&gt;Rfile:///home/fils/src/git/odis&#45;arch/schema/thematics/vessels/graphs/ID_value_string -->
<g id="edge7" class="edge">
<title>B_:b0&#45;&gt;Rfile:///home/fils/src/git/odis&#45;arch/schema/thematics/vessels/graphs/ID_value_string</title>
<path fill="none" stroke="black" stroke-dasharray="1,5" d="M29.21,-192.27C35.41,-199.85 44.05,-208.39 54,-212.66 171.43,-262.93 321.18,-255.45 418.89,-242.28"/>
<polygon fill="black" stroke="black" points="419.64,-245.71 429.06,-240.87 418.68,-238.78 419.64,-245.71"/>
<text text-anchor="middle" x="127" y="-250.46" font-family="Times,serif" font-size="14.00">schema:additionalProperty</text>
</g>
<!-- B_:b0&#45;&gt;Rfile:///home/fils/src/git/odis&#45;arch/schema/thematics/vessels/graphs/ID_value_string -->
<g id="edge8" class="edge">
<title>B_:b0&#45;&gt;Rfile:///home/fils/src/git/odis&#45;arch/schema/thematics/vessels/graphs/ID_value_string</title>
<path fill="none" stroke="black" stroke-dasharray="1,5" d="M35.97,-179.13C68.03,-181.91 139.68,-188.17 200,-193.66 248.46,-198.06 301.02,-202.94 349.3,-207.46"/>
<polygon fill="black" stroke="black" points="349.25,-210.98 359.53,-208.42 349.9,-204.01 349.25,-210.98"/>
<text text-anchor="middle" x="127" y="-197.46" font-family="Times,serif" font-size="14.00">schema:identifier</text>
</g>
<!-- Rschema:Vehicle -->
<g id="node8" class="node">
<title>Rschema:Vehicle</title>
<ellipse fill="none" stroke="blue" cx="521.52" cy="-158.66" rx="66.09" ry="18"/>
<text text-anchor="middle" x="521.52" y="-154.96" font-family="Times,serif" font-size="14.00">schema:Vehicle</text>
</g>
<!-- B_:b0&#45;&gt;Rschema:Vehicle -->
<g id="edge6" class="edge">
<title>B_:b0&#45;&gt;Rschema:Vehicle</title>
<path fill="none" stroke="black" stroke-dasharray="1,5" d="M33.72,-168.12C39.75,-164.75 46.96,-161.37 54,-159.66 192.44,-125.99 360.89,-138.11 452.75,-149"/>
<polygon fill="black" stroke="black" points="452.41,-152.48 462.75,-150.22 453.25,-145.53 452.41,-152.48"/>
<text text-anchor="middle" x="127" y="-163.46" font-family="Times,serif" font-size="14.00">rdfs:type</text>
</g>
<!-- LJOIDES Resolution -->
<g id="node9" class="node">
<title>LJOIDES Resolution</title>
<polygon fill="none" stroke="black" points="459.52,-85.66 459.52,-121.66 583.52,-121.66 583.52,-85.66 459.52,-85.66"/>
<text text-anchor="middle" x="521.52" y="-99.96" font-family="Times,serif" font-size="14.00">JOIDES Resolution</text>
</g>
<!-- B_:b0&#45;&gt;LJOIDES Resolution -->
<g id="edge9" class="edge">
<title>B_:b0&#45;&gt;LJOIDES Resolution</title>
<path fill="none" stroke="black" stroke-dasharray="1,5" d="M24.59,-160.71C29.92,-147.55 39.32,-130.17 54,-121.66 177.77,-49.9 352.64,-68.54 449.31,-87.03"/>
<polygon fill="black" stroke="black" points="448.78,-90.49 459.27,-88.99 450.13,-83.62 448.78,-90.49"/>
<text text-anchor="middle" x="127" y="-125.46" font-family="Times,serif" font-size="14.00">schema:name</text>
</g>
</g>
</svg>
