<?xml version="1.0" encoding="UTF-8" standalone="no"?>
<!DOCTYPE svg PUBLIC "-//W3C//DTD SVG 1.1//EN"
 "http://www.w3.org/Graphics/SVG/1.1/DTD/svg11.dtd">
<!-- Generated by graphviz version 5.0.0 (0)
 -->
<!-- Pages: 1 -->
<svg width="1077pt" height="314pt"
 viewBox="0.00 0.00 1076.93 314.00" xmlns="http://www.w3.org/2000/svg" xmlns:xlink="http://www.w3.org/1999/xlink">
<g id="graph0" class="graph" transform="scale(1 1) rotate(0) translate(4 310)">
<polygon fill="white" stroke="transparent" points="-4,4 -4,-310 1072.93,-310 1072.93,4 -4,4"/>
<!-- Course -->
<g id="node1" class="node">
<title>Course</title>
<ellipse fill="none" stroke="#558855" cx="523.61" cy="-288" rx="43.59" ry="18"/>
<text text-anchor="middle" x="523.61" y="-284.3" font-family="Times,serif" font-size="14.00">Course</text>
</g>
<!-- example.org/id/course/2 -->
<g id="node2" class="node">
<title>example.org/id/course/2</title>
<ellipse fill="none" stroke="black" cx="122.19" cy="-180" rx="122.38" ry="18"/>
<text text-anchor="middle" x="122.19" y="-176.3" font-family="Times,serif" font-size="14.00">example.org/id/course/2</text>
</g>
<!-- example.org/id/course/2&#45;&gt;Course -->
<g id="edge1" class="edge">
<title>example.org/id/course/2&#45;&gt;Course</title>
<path fill="none" stroke="black" d="M170.46,-196.55C197.36,-205.91 231.71,-217.75 262.38,-228 307.57,-243.1 318.11,-249.63 364.38,-261 399.88,-269.72 440.54,-276.6 471.76,-281.22"/>
<polygon fill="black" stroke="black" points="471.56,-284.73 481.96,-282.71 472.57,-277.8 471.56,-284.73"/>
<text text-anchor="middle" x="304.38" y="-258.8" font-family="Times,serif" font-size="14.00">type</text>
</g>
<!-- &quot;SD100&quot; -->
<g id="node3" class="node">
<title>&quot;SD100&quot;</title>
<ellipse fill="none" stroke="black" stroke-width="0" cx="523.61" cy="-234" rx="50.89" ry="18"/>
<text text-anchor="middle" x="523.61" y="-230.3" font-family="Times,serif" font-size="14.00">&quot;SD100&quot;</text>
</g>
<!-- example.org/id/course/2&#45;&gt;&quot;SD100&quot; -->
<g id="edge2" class="edge">
<title>example.org/id/course/2&#45;&gt;&quot;SD100&quot;</title>
<path fill="none" stroke="black" d="M212.29,-192.19C228.93,-194.46 246.19,-196.81 262.38,-199 332.26,-208.47 412.7,-219.27 465.43,-226.34"/>
<polygon fill="black" stroke="black" points="465.22,-229.85 475.6,-227.71 466.15,-222.91 465.22,-229.85"/>
<text text-anchor="middle" x="304.38" y="-212.8" font-family="Times,serif" font-size="14.00">courseCode</text>
</g>
<!-- &quot;An introduction to a...&quot; -->
<g id="node4" class="node">
<title>&quot;An introduction to a...&quot;</title>
<ellipse fill="none" stroke="black" stroke-width="0" cx="523.61" cy="-180" rx="120.78" ry="18"/>
<text text-anchor="middle" x="523.61" y="-176.3" font-family="Times,serif" font-size="14.00">&quot;An introduction to a...&quot;</text>
</g>
<!-- example.org/id/course/2&#45;&gt;&quot;An introduction to a...&quot; -->
<g id="edge3" class="edge">
<title>example.org/id/course/2&#45;&gt;&quot;An introduction to a...&quot;</title>
<path fill="none" stroke="black" d="M244.39,-180C291.21,-180 344.89,-180 392.53,-180"/>
<polygon fill="black" stroke="black" points="392.6,-183.5 402.6,-180 392.6,-176.5 392.6,-183.5"/>
<text text-anchor="middle" x="304.38" y="-183.8" font-family="Times,serif" font-size="14.00">description</text>
</g>
<!-- &quot;Structured Data&quot; -->
<g id="node5" class="node">
<title>&quot;Structured Data&quot;</title>
<ellipse fill="none" stroke="black" stroke-width="0" cx="523.61" cy="-126" rx="94.78" ry="18"/>
<text text-anchor="middle" x="523.61" y="-122.3" font-family="Times,serif" font-size="14.00">&quot;Structured Data&quot;</text>
</g>
<!-- example.org/id/course/2&#45;&gt;&quot;Structured Data&quot; -->
<g id="edge4" class="edge">
<title>example.org/id/course/2&#45;&gt;&quot;Structured Data&quot;</title>
<path fill="none" stroke="black" d="M212.29,-167.81C228.93,-165.54 246.19,-163.19 262.38,-161 320.19,-153.17 385.23,-144.42 435.83,-137.63"/>
<polygon fill="black" stroke="black" points="436.3,-141.1 445.75,-136.3 435.37,-134.16 436.3,-141.1"/>
<text text-anchor="middle" x="304.38" y="-164.8" font-family="Times,serif" font-size="14.00">name</text>
</g>
<!-- grid.ac/institutes/grid.475727.4 -->
<g id="node6" class="node">
<title>grid.ac/institutes/grid.475727.4</title>
<ellipse fill="none" stroke="#558855" cx="523.61" cy="-72" rx="159.47" ry="18"/>
<text text-anchor="middle" x="523.61" y="-68.3" font-family="Times,serif" font-size="14.00">grid.ac/institutes/grid.475727.4</text>
</g>
<!-- example.org/id/course/2&#45;&gt;grid.ac/institutes/grid.475727.4 -->
<g id="edge5" class="edge">
<title>example.org/id/course/2&#45;&gt;grid.ac/institutes/grid.475727.4</title>
<path fill="none" stroke="black" d="M169.13,-163.38C196.2,-153.7 231.14,-141.39 262.38,-131 307.46,-116 318.19,-110.13 364.38,-99 381.02,-94.99 398.8,-91.35 416.19,-88.13"/>
<polygon fill="black" stroke="black" points="417.16,-91.51 426.38,-86.28 415.92,-84.62 417.16,-91.51"/>
<text text-anchor="middle" x="304.38" y="-134.8" font-family="Times,serif" font-size="14.00">provider</text>
</g>
<!-- Organization -->
<g id="node7" class="node">
<title>Organization</title>
<ellipse fill="none" stroke="#558855" cx="934.39" cy="-126" rx="70.69" ry="18"/>
<text text-anchor="middle" x="934.39" y="-122.3" font-family="Times,serif" font-size="14.00">Organization</text>
</g>
<!-- grid.ac/institutes/grid.475727.4&#45;&gt;Organization -->
<g id="edge6" class="edge">
<title>grid.ac/institutes/grid.475727.4&#45;&gt;Organization</title>
<path fill="none" stroke="black" d="M627.77,-85.63C700.5,-95.24 796.13,-107.87 860.9,-116.42"/>
<polygon fill="black" stroke="black" points="860.65,-119.92 871.03,-117.76 861.57,-112.98 860.65,-119.92"/>
<text text-anchor="middle" x="741.35" y="-108.8" font-family="Times,serif" font-size="14.00">type</text>
</g>
<!-- &quot;UN Department of Eco...&quot; -->
<g id="node8" class="node">
<title>&quot;UN Department of Eco...&quot;</title>
<ellipse fill="none" stroke="black" stroke-width="0" cx="934.39" cy="-72" rx="134.58" ry="18"/>
<text text-anchor="middle" x="934.39" y="-68.3" font-family="Times,serif" font-size="14.00">&quot;UN Department of Eco...&quot;</text>
</g>
<!-- grid.ac/institutes/grid.475727.4&#45;&gt;&quot;UN Department of Eco...&quot; -->
<g id="edge7" class="edge">
<title>grid.ac/institutes/grid.475727.4&#45;&gt;&quot;UN Department of Eco...&quot;</title>
<path fill="none" stroke="black" d="M682.95,-72C718.1,-72 755.17,-72 789.7,-72"/>
<polygon fill="black" stroke="black" points="789.84,-75.5 799.84,-72 789.84,-68.5 789.84,-75.5"/>
<text text-anchor="middle" x="741.35" y="-75.8" font-family="Times,serif" font-size="14.00">description</text>
</g>
<!-- &quot;Example University&quot; -->
<g id="node9" class="node">
<title>&quot;Example University&quot;</title>
<ellipse fill="none" stroke="black" stroke-width="0" cx="934.39" cy="-18" rx="111.58" ry="18"/>
<text text-anchor="middle" x="934.39" y="-14.3" font-family="Times,serif" font-size="14.00">&quot;Example University&quot;</text>
</g>
<!-- grid.ac/institutes/grid.475727.4&#45;&gt;&quot;Example University&quot; -->
<g id="edge8" class="edge">
<title>grid.ac/institutes/grid.475727.4&#45;&gt;&quot;Example University&quot;</title>
<path fill="none" stroke="black" d="M627.77,-58.37C692.2,-49.86 774.59,-38.98 837.59,-30.66"/>
<polygon fill="black" stroke="black" points="838.07,-34.12 847.52,-29.34 837.15,-27.18 838.07,-34.12"/>
<text text-anchor="middle" x="741.35" y="-51.8" font-family="Times,serif" font-size="14.00">name</text>
</g>
</g>
</svg>
