<?xml version="1.0" encoding="UTF-8" standalone="no"?>
<!DOCTYPE svg PUBLIC "-//W3C//DTD SVG 1.1//EN"
 "http://www.w3.org/Graphics/SVG/1.1/DTD/svg11.dtd">
<!-- Generated by graphviz version 5.0.0 (0)
 -->
<!-- Pages: 1 -->
<svg width="1136pt" height="872pt"
 viewBox="0.00 0.00 1135.93 872.00" xmlns="http://www.w3.org/2000/svg" xmlns:xlink="http://www.w3.org/1999/xlink">
<g id="graph0" class="graph" transform="scale(1 1) rotate(0) translate(4 868)">
<polygon fill="white" stroke="transparent" points="-4,4 -4,-868 1131.93,-868 1131.93,4 -4,4"/>
<!-- Course -->
<g id="node1" class="node">
<title>Course</title>
<ellipse fill="none" stroke="#558855" cx="575.61" cy="-699" rx="43.59" ry="18"/>
<text text-anchor="middle" x="575.61" y="-695.3" font-family="Times,serif" font-size="14.00">Course</text>
</g>
<!-- example.org/id/course/2 -->
<g id="node2" class="node">
<title>example.org/id/course/2</title>
<ellipse fill="none" stroke="black" cx="122.19" cy="-515" rx="122.38" ry="18"/>
<text text-anchor="middle" x="122.19" y="-511.3" font-family="Times,serif" font-size="14.00">example.org/id/course/2</text>
</g>
<!-- example.org/id/course/2&#45;&gt;Course -->
<g id="edge1" class="edge">
<title>example.org/id/course/2&#45;&gt;Course</title>
<path fill="none" stroke="black" d="M138.85,-532.89C162.81,-559.1 211.2,-607.7 262.38,-634 346.47,-677.21 457.29,-691.69 521.77,-696.55"/>
<polygon fill="black" stroke="black" points="521.88,-700.07 532.1,-697.28 522.37,-693.08 521.88,-700.07"/>
<text text-anchor="middle" x="330.38" y="-681.8" font-family="Times,serif" font-size="14.00">type</text>
</g>
<!-- &quot;SD100&quot; -->
<g id="node3" class="node">
<title>&quot;SD100&quot;</title>
<ellipse fill="none" stroke="black" stroke-width="0" cx="575.61" cy="-645" rx="50.89" ry="18"/>
<text text-anchor="middle" x="575.61" y="-641.3" font-family="Times,serif" font-size="14.00">&quot;SD100&quot;</text>
</g>
<!-- example.org/id/course/2&#45;&gt;&quot;SD100&quot; -->
<g id="edge2" class="edge">
<title>example.org/id/course/2&#45;&gt;&quot;SD100&quot;</title>
<path fill="none" stroke="black" d="M157.12,-532.33C184.9,-546.04 225.49,-564.97 262.38,-578 348.91,-608.57 454.09,-627.62 517.62,-637.27"/>
<polygon fill="black" stroke="black" points="517.42,-640.77 527.83,-638.79 518.45,-633.85 517.42,-640.77"/>
<text text-anchor="middle" x="330.38" y="-618.8" font-family="Times,serif" font-size="14.00">courseCode</text>
</g>
<!-- &quot;An introduction to a...&quot; -->
<g id="node4" class="node">
<title>&quot;An introduction to a...&quot;</title>
<ellipse fill="none" stroke="black" stroke-width="0" cx="575.61" cy="-591" rx="120.78" ry="18"/>
<text text-anchor="middle" x="575.61" y="-587.3" font-family="Times,serif" font-size="14.00">&quot;An introduction to a...&quot;</text>
</g>
<!-- example.org/id/course/2&#45;&gt;&quot;An introduction to a...&quot; -->
<g id="edge3" class="edge">
<title>example.org/id/course/2&#45;&gt;&quot;An introduction to a...&quot;</title>
<path fill="none" stroke="black" d="M203.37,-528.5C282.3,-541.79 402.61,-562.04 484.73,-575.87"/>
<polygon fill="black" stroke="black" points="484.35,-579.35 494.8,-577.56 485.52,-572.45 484.35,-579.35"/>
<text text-anchor="middle" x="330.38" y="-562.8" font-family="Times,serif" font-size="14.00">description</text>
</g>
<!-- _ -->
<g id="node5" class="node">
<title>_</title>
<ellipse fill="none" stroke="#558855" cx="575.61" cy="-504" rx="27" ry="18"/>
<text text-anchor="middle" x="575.61" y="-500.3" font-family="Times,serif" font-size="14.00">_</text>
</g>
<!-- example.org/id/course/2&#45;&gt;_ -->
<g id="edge4" class="edge">
<title>example.org/id/course/2&#45;&gt;_</title>
<path fill="none" stroke="black" d="M244.45,-514.58C292.4,-514.18 347.99,-513.42 398.38,-512 446.79,-510.64 502.65,-507.91 538.27,-506.02"/>
<polygon fill="black" stroke="black" points="538.85,-509.49 548.65,-505.46 538.47,-502.5 538.85,-509.49"/>
<text text-anchor="middle" x="330.38" y="-517.8" font-family="Times,serif" font-size="14.00">hasCourseInstance</text>
</g>
<!-- example.org/id/course/2&#45;&gt;_ -->
<g id="edge5" class="edge">
<title>example.org/id/course/2&#45;&gt;_</title>
<path fill="none" stroke="black" d="M198.42,-500.9C219.08,-497.64 241.53,-494.64 262.38,-493 362.15,-485.16 480.31,-494.34 538.51,-500.07"/>
<polygon fill="black" stroke="black" points="538.36,-503.58 548.67,-501.1 539.07,-496.61 538.36,-503.58"/>
<text text-anchor="middle" x="330.38" y="-496.8" font-family="Times,serif" font-size="14.00">hasCourseInstance</text>
</g>
<!-- &quot;Structured Data&quot; -->
<g id="node6" class="node">
<title>&quot;Structured Data&quot;</title>
<ellipse fill="none" stroke="black" stroke-width="0" cx="575.61" cy="-450" rx="94.78" ry="18"/>
<text text-anchor="middle" x="575.61" y="-446.3" font-family="Times,serif" font-size="14.00">&quot;Structured Data&quot;</text>
</g>
<!-- example.org/id/course/2&#45;&gt;&quot;Structured Data&quot; -->
<g id="edge6" class="edge">
<title>example.org/id/course/2&#45;&gt;&quot;Structured Data&quot;</title>
<path fill="none" stroke="black" d="M166.04,-498.08C193.2,-488.13 229.32,-476.3 262.38,-470 330.99,-456.92 409.46,-451.94 470.56,-450.21"/>
<polygon fill="black" stroke="black" points="470.7,-453.71 480.6,-449.95 470.52,-446.71 470.7,-453.71"/>
<text text-anchor="middle" x="330.38" y="-473.8" font-family="Times,serif" font-size="14.00">name</text>
</g>
<!-- grid.ac/institutes/grid.475727.4 -->
<g id="node7" class="node">
<title>grid.ac/institutes/grid.475727.4</title>
<ellipse fill="none" stroke="#558855" cx="575.61" cy="-126" rx="159.47" ry="18"/>
<text text-anchor="middle" x="575.61" y="-122.3" font-family="Times,serif" font-size="14.00">grid.ac/institutes/grid.475727.4</text>
</g>
<!-- example.org/id/course/2&#45;&gt;grid.ac/institutes/grid.475727.4 -->
<g id="edge7" class="edge">
<title>example.org/id/course/2&#45;&gt;grid.ac/institutes/grid.475727.4</title>
<path fill="none" stroke="black" d="M143.76,-497.27C216.53,-434.57 461.92,-223.11 546.04,-150.63"/>
<polygon fill="black" stroke="black" points="548.37,-153.23 553.66,-144.05 543.8,-147.93 548.37,-153.23"/>
<text text-anchor="middle" x="330.38" y="-392.8" font-family="Times,serif" font-size="14.00">provider</text>
</g>
<!-- &quot;JSON&#45;LD&quot; -->
<g id="node8" class="node">
<title>&quot;JSON&#45;LD&quot;</title>
<ellipse fill="none" stroke="black" stroke-width="0" cx="575.61" cy="-72" rx="60.39" ry="18"/>
<text text-anchor="middle" x="575.61" y="-68.3" font-family="Times,serif" font-size="14.00">&quot;JSON&#45;LD&quot;</text>
</g>
<!-- example.org/id/course/2&#45;&gt;&quot;JSON&#45;LD&quot; -->
<g id="edge8" class="edge">
<title>example.org/id/course/2&#45;&gt;&quot;JSON&#45;LD&quot;</title>
<path fill="none" stroke="black" d="M129.3,-496.77C153.09,-429.04 246.72,-191.12 416.38,-99 443.33,-84.37 476.34,-77.33 505.23,-74.05"/>
<polygon fill="black" stroke="black" points="505.66,-77.53 515.26,-73.05 504.96,-70.56 505.66,-77.53"/>
<text text-anchor="middle" x="330.38" y="-239.8" font-family="Times,serif" font-size="14.00">teaches</text>
</g>
<!-- _&#45;&gt;_ -->
<g id="edge23" class="edge">
<title>_&#45;&gt;_</title>
<path fill="none" stroke="black" d="M550.88,-511.6C522.47,-524 530.71,-540 575.61,-540 614.9,-540 626.13,-527.75 609.28,-516.38"/>
<polygon fill="black" stroke="black" points="610.81,-513.23 600.35,-511.6 607.51,-519.4 610.81,-513.23"/>
<text text-anchor="middle" x="575.61" y="-543.8" font-family="Times,serif" font-size="14.00">attendee</text>
</g>
<!-- CourseInstance -->
<g id="node12" class="node">
<title>CourseInstance</title>
<ellipse fill="none" stroke="#558855" cx="993.39" cy="-831" rx="83.39" ry="18"/>
<text text-anchor="middle" x="993.39" y="-827.3" font-family="Times,serif" font-size="14.00">CourseInstance</text>
</g>
<!-- _&#45;&gt;CourseInstance -->
<g id="edge12" class="edge">
<title>_&#45;&gt;CourseInstance</title>
<path fill="none" stroke="black" d="M602.72,-505.61C638.95,-509.37 703.51,-521.95 734.85,-564 767.87,-608.31 713.91,-772.8 752.85,-812 797.69,-857.14 874.11,-855.24 928.58,-846.33"/>
<polygon fill="black" stroke="black" points="929.24,-849.76 938.48,-844.59 928.03,-842.87 929.24,-849.76"/>
<text text-anchor="middle" x="796.85" y="-852.8" font-family="Times,serif" font-size="14.00">type</text>
</g>
<!-- _&#45;&gt;CourseInstance -->
<g id="edge22" class="edge">
<title>_&#45;&gt;CourseInstance</title>
<path fill="none" stroke="black" d="M602.65,-505.66C638.78,-509.49 703.24,-522.15 734.85,-564 763.08,-601.37 721.9,-738.84 752.85,-774 779.29,-804.03 802.81,-780.59 840.85,-793 849.17,-795.72 850.54,-798.25 858.85,-801 878.15,-807.39 899.46,-812.85 919.29,-817.31"/>
<polygon fill="black" stroke="black" points="918.67,-820.75 929.19,-819.47 920.17,-813.92 918.67,-820.75"/>
<text text-anchor="middle" x="796.85" y="-796.8" font-family="Times,serif" font-size="14.00">type</text>
</g>
<!-- &quot;MOOC2&quot; -->
<g id="node13" class="node">
<title>&quot;MOOC2&quot;</title>
<ellipse fill="none" stroke="black" stroke-width="0" cx="993.39" cy="-774" rx="55.79" ry="18"/>
<text text-anchor="middle" x="993.39" y="-770.3" font-family="Times,serif" font-size="14.00">&quot;MOOC2&quot;</text>
</g>
<!-- _&#45;&gt;&quot;MOOC2&quot; -->
<g id="edge13" class="edge">
<title>_&#45;&gt;&quot;MOOC2&quot;</title>
<path fill="none" stroke="black" d="M602.54,-505.74C638.54,-509.67 702.85,-522.45 734.85,-564 758.3,-594.45 726.41,-708.11 752.85,-736 764.91,-748.71 862.56,-760.96 929.39,-767.97"/>
<polygon fill="black" stroke="black" points="929.12,-771.46 939.43,-769.01 929.84,-764.5 929.12,-771.46"/>
<text text-anchor="middle" x="796.85" y="-759.8" font-family="Times,serif" font-size="14.00">courseMode</text>
</g>
<!-- &quot;online&quot; -->
<g id="node14" class="node">
<title>&quot;online&quot;</title>
<ellipse fill="none" stroke="black" stroke-width="0" cx="993.39" cy="-720" rx="48.19" ry="18"/>
<text text-anchor="middle" x="993.39" y="-716.3" font-family="Times,serif" font-size="14.00">&quot;online&quot;</text>
</g>
<!-- _&#45;&gt;&quot;online&quot; -->
<g id="edge14" class="edge">
<title>_&#45;&gt;&quot;online&quot;</title>
<path fill="none" stroke="black" d="M602.68,-505.91C638.54,-510.03 702.34,-523.04 734.85,-564 772.21,-611.06 709.48,-656.41 752.85,-698 778.12,-722.23 873.04,-724.16 935.54,-722.6"/>
<polygon fill="black" stroke="black" points="935.76,-726.1 945.65,-722.32 935.56,-719.1 935.76,-726.1"/>
<text text-anchor="middle" x="796.85" y="-723.8" font-family="Times,serif" font-size="14.00">courseMode</text>
</g>
<!-- _&#45;&gt;&quot;online&quot; -->
<g id="edge25" class="edge">
<title>_&#45;&gt;&quot;online&quot;</title>
<path fill="none" stroke="black" d="M602.6,-506.25C638.08,-510.78 701.1,-524.25 734.85,-564 760.97,-594.76 725.59,-623.24 752.85,-653 780.4,-683.07 804.57,-660.38 840.85,-679 849.87,-683.63 849.64,-688.77 858.85,-693 883.03,-704.1 911.75,-710.66 936.35,-714.52"/>
<polygon fill="black" stroke="black" points="935.85,-717.99 946.26,-715.97 936.87,-711.06 935.85,-717.99"/>
<text text-anchor="middle" x="796.85" y="-682.8" font-family="Times,serif" font-size="14.00">courseMode</text>
</g>
<!-- &quot;2019&#45;05&#45;21&quot; -->
<g id="node15" class="node">
<title>&quot;2019&#45;05&#45;21&quot;</title>
<ellipse fill="none" stroke="black" stroke-width="0" cx="993.39" cy="-666" rx="72.29" ry="18"/>
<text text-anchor="middle" x="993.39" y="-662.3" font-family="Times,serif" font-size="14.00">&quot;2019&#45;05&#45;21&quot;</text>
</g>
<!-- _&#45;&gt;&quot;2019&#45;05&#45;21&quot; -->
<g id="edge15" class="edge">
<title>_&#45;&gt;&quot;2019&#45;05&#45;21&quot;</title>
<path fill="none" stroke="black" d="M602.25,-507.95C636.17,-514.34 696.19,-529.88 734.85,-564 747.67,-575.31 740.07,-586.64 752.85,-598 790.61,-631.55 810.37,-624.83 858.85,-639 879.34,-644.99 901.97,-650.11 922.7,-654.23"/>
<polygon fill="black" stroke="black" points="922.21,-657.7 932.7,-656.17 923.55,-650.83 922.21,-657.7"/>
<text text-anchor="middle" x="796.85" y="-637.8" font-family="Times,serif" font-size="14.00">endDate</text>
</g>
<!-- &quot;2019&#45;04&#45;15&quot; -->
<g id="node16" class="node">
<title>&quot;2019&#45;04&#45;15&quot;</title>
<ellipse fill="none" stroke="black" stroke-width="0" cx="993.39" cy="-612" rx="72.29" ry="18"/>
<text text-anchor="middle" x="993.39" y="-608.3" font-family="Times,serif" font-size="14.00">&quot;2019&#45;04&#45;15&quot;</text>
</g>
<!-- _&#45;&gt;&quot;2019&#45;04&#45;15&quot; -->
<g id="edge16" class="edge">
<title>_&#45;&gt;&quot;2019&#45;04&#45;15&quot;</title>
<path fill="none" stroke="black" d="M600.21,-511.57C648.42,-526.87 761.89,-561.96 858.85,-585 880.31,-590.1 903.85,-595.06 925.11,-599.32"/>
<polygon fill="black" stroke="black" points="924.53,-602.77 935.02,-601.28 925.89,-595.9 924.53,-602.77"/>
<text text-anchor="middle" x="796.85" y="-582.8" font-family="Times,serif" font-size="14.00">startDate</text>
</g>
<!-- Person -->
<g id="node17" class="node">
<title>Person</title>
<ellipse fill="none" stroke="#558855" cx="993.39" cy="-558" rx="42.49" ry="18"/>
<text text-anchor="middle" x="993.39" y="-554.3" font-family="Times,serif" font-size="14.00">Person</text>
</g>
<!-- _&#45;&gt;Person -->
<g id="edge17" class="edge">
<title>_&#45;&gt;Person</title>
<path fill="none" stroke="black" d="M602.31,-507.34C669.92,-516.12 853.68,-539.98 942.71,-551.55"/>
<polygon fill="black" stroke="black" points="942.46,-555.04 952.83,-552.86 943.36,-548.1 942.46,-555.04"/>
<text text-anchor="middle" x="796.85" y="-540.8" font-family="Times,serif" font-size="14.00">type</text>
</g>
<!-- &quot;Professor&quot; -->
<g id="node18" class="node">
<title>&quot;Professor&quot;</title>
<ellipse fill="none" stroke="black" stroke-width="0" cx="993.39" cy="-504" rx="63.89" ry="18"/>
<text text-anchor="middle" x="993.39" y="-500.3" font-family="Times,serif" font-size="14.00">&quot;Professor&quot;</text>
</g>
<!-- _&#45;&gt;&quot;Professor&quot; -->
<g id="edge18" class="edge">
<title>_&#45;&gt;&quot;Professor&quot;</title>
<path fill="none" stroke="black" d="M602.62,-504C664.97,-504 824.79,-504 919.29,-504"/>
<polygon fill="black" stroke="black" points="919.35,-507.5 929.35,-504 919.35,-500.5 919.35,-507.5"/>
<text text-anchor="middle" x="796.85" y="-507.8" font-family="Times,serif" font-size="14.00">jobTitle</text>
</g>
<!-- &quot;Jane Doe&quot; -->
<g id="node19" class="node">
<title>&quot;Jane Doe&quot;</title>
<ellipse fill="none" stroke="black" stroke-width="0" cx="993.39" cy="-450" rx="60.39" ry="18"/>
<text text-anchor="middle" x="993.39" y="-446.3" font-family="Times,serif" font-size="14.00">&quot;Jane Doe&quot;</text>
</g>
<!-- _&#45;&gt;&quot;Jane Doe&quot; -->
<g id="edge19" class="edge">
<title>_&#45;&gt;&quot;Jane Doe&quot;</title>
<path fill="none" stroke="black" d="M602.31,-500.66C666.3,-492.35 834.35,-470.53 927.64,-458.41"/>
<polygon fill="black" stroke="black" points="928.34,-461.85 937.81,-457.09 927.44,-454.91 928.34,-461.85"/>
<text text-anchor="middle" x="796.85" y="-483.8" font-family="Times,serif" font-size="14.00">name</text>
</g>
<!-- &quot;(425) 123&#45;4567&quot; -->
<g id="node20" class="node">
<title>&quot;(425) 123&#45;4567&quot;</title>
<ellipse fill="none" stroke="black" stroke-width="0" cx="993.39" cy="-396" rx="90.98" ry="18"/>
<text text-anchor="middle" x="993.39" y="-392.3" font-family="Times,serif" font-size="14.00">&quot;(425) 123&#45;4567&quot;</text>
</g>
<!-- _&#45;&gt;&quot;(425) 123&#45;4567&quot; -->
<g id="edge20" class="edge">
<title>_&#45;&gt;&quot;(425) 123&#45;4567&quot;</title>
<path fill="none" stroke="black" d="M602.62,-505.49C635.88,-506.14 694.07,-502.98 734.85,-477 746.7,-469.45 741.34,-459.07 752.85,-451 792.74,-423.02 811.39,-434.06 858.85,-423 877.68,-418.61 898.1,-414.27 917.18,-410.4"/>
<polygon fill="black" stroke="black" points="917.91,-413.83 927.02,-408.42 916.52,-406.96 917.91,-413.83"/>
<text text-anchor="middle" x="796.85" y="-454.8" font-family="Times,serif" font-size="14.00">telephone</text>
</g>
<!-- &quot;http//www.janedoe.co...&quot; -->
<g id="node21" class="node">
<title>&quot;http//www.janedoe.co...&quot;</title>
<ellipse fill="none" stroke="black" stroke-width="0" cx="993.39" cy="-342" rx="128.08" ry="18"/>
<text text-anchor="middle" x="993.39" y="-338.3" font-family="Times,serif" font-size="14.00">&quot;http//www.janedoe.co...&quot;</text>
</g>
<!-- _&#45;&gt;&quot;http//www.janedoe.co...&quot; -->
<g id="edge21" class="edge">
<title>_&#45;&gt;&quot;http//www.janedoe.co...&quot;</title>
<path fill="none" stroke="black" d="M602.15,-507.42C636.81,-510.53 698.56,-510.41 734.85,-477 758.48,-455.24 731.21,-430.74 752.85,-407 786.56,-370.01 810.64,-382.44 858.85,-369 873.01,-365.05 888.17,-361.43 903,-358.21"/>
<polygon fill="black" stroke="black" points="904.15,-361.54 913.21,-356.04 902.7,-354.69 904.15,-361.54"/>
<text text-anchor="middle" x="796.85" y="-410.8" font-family="Times,serif" font-size="14.00">url</text>
</g>
<!-- &quot;MOOC1&quot; -->
<g id="node22" class="node">
<title>&quot;MOOC1&quot;</title>
<ellipse fill="none" stroke="black" stroke-width="0" cx="993.39" cy="-288" rx="55.79" ry="18"/>
<text text-anchor="middle" x="993.39" y="-284.3" font-family="Times,serif" font-size="14.00">&quot;MOOC1&quot;</text>
</g>
<!-- _&#45;&gt;&quot;MOOC1&quot; -->
<g id="edge24" class="edge">
<title>_&#45;&gt;&quot;MOOC1&quot;</title>
<path fill="none" stroke="black" d="M602.08,-507.89C637.23,-511.68 700.19,-512.49 734.85,-477 773.45,-437.47 718.03,-396.9 752.85,-354 794.43,-302.76 871.86,-289.19 927.44,-286.57"/>
<polygon fill="black" stroke="black" points="927.68,-290.06 937.55,-286.2 927.43,-283.07 927.68,-290.06"/>
<text text-anchor="middle" x="796.85" y="-357.8" font-family="Times,serif" font-size="14.00">courseMode</text>
</g>
<!-- &quot;2019&#45;03&#45;21&quot; -->
<g id="node23" class="node">
<title>&quot;2019&#45;03&#45;21&quot;</title>
<ellipse fill="none" stroke="black" stroke-width="0" cx="993.39" cy="-234" rx="72.29" ry="18"/>
<text text-anchor="middle" x="993.39" y="-230.3" font-family="Times,serif" font-size="14.00">&quot;2019&#45;03&#45;21&quot;</text>
</g>
<!-- _&#45;&gt;&quot;2019&#45;03&#45;21&quot; -->
<g id="edge26" class="edge">
<title>_&#45;&gt;&quot;2019&#45;03&#45;21&quot;</title>
<path fill="none" stroke="black" d="M602.05,-508.11C637.46,-512.23 701.05,-513.5 734.85,-477 764.42,-445.07 723.75,-314.35 752.85,-282 793.02,-237.34 862.05,-227.4 915.72,-227.44"/>
<polygon fill="black" stroke="black" points="915.85,-230.94 925.9,-227.56 915.94,-223.94 915.85,-230.94"/>
<text text-anchor="middle" x="796.85" y="-285.8" font-family="Times,serif" font-size="14.00">endDate</text>
</g>
<!-- &quot;2019&#45;02&#45;15&quot; -->
<g id="node24" class="node">
<title>&quot;2019&#45;02&#45;15&quot;</title>
<ellipse fill="none" stroke="black" stroke-width="0" cx="993.39" cy="-180" rx="72.29" ry="18"/>
<text text-anchor="middle" x="993.39" y="-176.3" font-family="Times,serif" font-size="14.00">&quot;2019&#45;02&#45;15&quot;</text>
</g>
<!-- _&#45;&gt;&quot;2019&#45;02&#45;15&quot; -->
<g id="edge27" class="edge">
<title>_&#45;&gt;&quot;2019&#45;02&#45;15&quot;</title>
<path fill="none" stroke="black" d="M602.16,-508.22C637.71,-512.46 701.47,-513.89 734.85,-477 773.71,-434.05 713.66,-259.64 752.85,-217 794.72,-171.45 867.5,-166.02 921.88,-169.64"/>
<polygon fill="black" stroke="black" points="921.91,-173.16 932.16,-170.45 922.46,-166.18 921.91,-173.16"/>
<text text-anchor="middle" x="796.85" y="-220.8" font-family="Times,serif" font-size="14.00">startDate</text>
</g>
<!-- Organization -->
<g id="node9" class="node">
<title>Organization</title>
<ellipse fill="none" stroke="#558855" cx="993.39" cy="-126" rx="70.69" ry="18"/>
<text text-anchor="middle" x="993.39" y="-122.3" font-family="Times,serif" font-size="14.00">Organization</text>
</g>
<!-- grid.ac/institutes/grid.475727.4&#45;&gt;Organization -->
<g id="edge9" class="edge">
<title>grid.ac/institutes/grid.475727.4&#45;&gt;Organization</title>
<path fill="none" stroke="black" d="M734.99,-126C795.53,-126 862.02,-126 912.26,-126"/>
<polygon fill="black" stroke="black" points="912.4,-129.5 922.4,-126 912.4,-122.5 912.4,-129.5"/>
<text text-anchor="middle" x="796.85" y="-129.8" font-family="Times,serif" font-size="14.00">type</text>
</g>
<!-- &quot;UN Department of Eco...&quot; -->
<g id="node10" class="node">
<title>&quot;UN Department of Eco...&quot;</title>
<ellipse fill="none" stroke="black" stroke-width="0" cx="993.39" cy="-72" rx="134.58" ry="18"/>
<text text-anchor="middle" x="993.39" y="-68.3" font-family="Times,serif" font-size="14.00">&quot;UN Department of Eco...&quot;</text>
</g>
<!-- grid.ac/institutes/grid.475727.4&#45;&gt;&quot;UN Department of Eco...&quot; -->
<g id="edge10" class="edge">
<title>grid.ac/institutes/grid.475727.4&#45;&gt;&quot;UN Department of Eco...&quot;</title>
<path fill="none" stroke="black" d="M680.73,-112.48C743.4,-104.34 823,-94 886.07,-85.81"/>
<polygon fill="black" stroke="black" points="886.58,-89.27 896.04,-84.51 885.67,-82.33 886.58,-89.27"/>
<text text-anchor="middle" x="796.85" y="-105.8" font-family="Times,serif" font-size="14.00">description</text>
</g>
<!-- &quot;Example University&quot; -->
<g id="node11" class="node">
<title>&quot;Example University&quot;</title>
<ellipse fill="none" stroke="black" stroke-width="0" cx="993.39" cy="-18" rx="111.58" ry="18"/>
<text text-anchor="middle" x="993.39" y="-14.3" font-family="Times,serif" font-size="14.00">&quot;Example University&quot;</text>
</g>
<!-- grid.ac/institutes/grid.475727.4&#45;&gt;&quot;Example University&quot; -->
<g id="edge11" class="edge">
<title>grid.ac/institutes/grid.475727.4&#45;&gt;&quot;Example University&quot;</title>
<path fill="none" stroke="black" d="M700.75,-114.81C712.79,-110.82 724.39,-105.66 734.85,-99 746.7,-91.45 741.34,-81.07 752.85,-73 792.74,-45.02 811.39,-56.06 858.85,-45 875.51,-41.12 893.41,-37.28 910.52,-33.76"/>
<polygon fill="black" stroke="black" points="911.39,-37.16 920.49,-31.73 909.99,-30.3 911.39,-37.16"/>
<text text-anchor="middle" x="796.85" y="-76.8" font-family="Times,serif" font-size="14.00">name</text>
</g>
</g>
</svg>
