<?xml version="1.0" encoding="UTF-8" standalone="no"?>
<!DOCTYPE svg PUBLIC "-//W3C//DTD SVG 1.1//EN"
 "http://www.w3.org/Graphics/SVG/1.1/DTD/svg11.dtd">
<!-- Generated by graphviz version 2.43.0 (0)
 -->
<!-- Title: %3 Pages: 1 -->
<svg width="1422pt" height="1949pt"
 viewBox="0.00 0.00 1421.79 1948.78" xmlns="http://www.w3.org/2000/svg" xmlns:xlink="http://www.w3.org/1999/xlink">
<g id="graph0" class="graph" transform="scale(1 1) rotate(0) translate(4 1944.78)">
<title>%3</title>
<polygon fill="white" stroke="transparent" points="-4,4 -4,-1944.78 1417.79,-1944.78 1417.79,4 -4,4"/>
<text text-anchor="middle" x="706.9" y="-22.8" font-family="Times,serif" font-size="14.00">Model:</text>
<text text-anchor="middle" x="706.9" y="-7.8" font-family="Times,serif" font-size="14.00">https://iode.org/</text>
<!-- Rhttp://www.someinstitute.edu -->
<g id="node1" class="node">
<title>Rhttp://www.someinstitute.edu</title>
<ellipse fill="none" stroke="blue" cx="851.29" cy="-1327.31" rx="115.08" ry="18"/>
<text text-anchor="middle" x="851.29" y="-1323.61" font-family="Times,serif" font-size="14.00">http://www.someinstitute.edu</text>
</g>
<!-- Rschema:Organization -->
<g id="node2" class="node">
<title>Rschema:Organization</title>
<ellipse fill="none" stroke="blue" cx="1181.13" cy="-1182.42" rx="85.59" ry="18"/>
<text text-anchor="middle" x="1181.13" y="-1178.72" font-family="Times,serif" font-size="14.00">schema:Organization</text>
</g>
<!-- Rhttp://www.someinstitute.edu&#45;&gt;Rschema:Organization -->
<g id="edge1" class="edge">
<title>Rhttp://www.someinstitute.edu&#45;&gt;Rschema:Organization</title>
<path fill="none" stroke="black" stroke-dasharray="1,5" d="M890.09,-1310.26C951.12,-1283.45 1069.3,-1231.54 1134.73,-1202.8"/>
<polygon fill="black" stroke="black" points="1136.24,-1205.96 1143.99,-1198.73 1133.42,-1199.55 1136.24,-1205.96"/>
<text text-anchor="middle" x="992.38" y="-1258.37" font-family="Times,serif" font-size="14.00">rdfs:type</text>
</g>
<!-- B_:b2 -->
<g id="node3" class="node">
<title>B_:b2</title>
<ellipse fill="none" stroke="green" cx="1048.06" cy="-1618.3" rx="18" ry="18"/>
</g>
<!-- Rhttp://www.someinstitute.edu&#45;&gt;B_:b2 -->
<g id="edge2" class="edge">
<title>Rhttp://www.someinstitute.edu&#45;&gt;B_:b2</title>
<path fill="none" stroke="black" stroke-dasharray="1,5" d="M863.6,-1345.51C897.79,-1396.07 993.91,-1538.22 1032.11,-1594.72"/>
<polygon fill="black" stroke="black" points="1029.43,-1597 1037.93,-1603.33 1035.23,-1593.08 1029.43,-1597"/>
<text text-anchor="middle" x="907.61" y="-1478" font-family="Times,serif" font-size="14.00">schema:address</text>
</g>
<!-- LSome Institute -->
<g id="node4" class="node">
<title>LSome Institute</title>
<polygon fill="none" stroke="black" points="653.45,-1536.42 653.45,-1572.42 749.45,-1572.42 749.45,-1536.42 653.45,-1536.42"/>
<text text-anchor="middle" x="701.45" y="-1550.72" font-family="Times,serif" font-size="14.00">Some Institute</text>
</g>
<!-- Rhttp://www.someinstitute.edu&#45;&gt;LSome Institute -->
<g id="edge3" class="edge">
<title>Rhttp://www.someinstitute.edu&#45;&gt;LSome Institute</title>
<path fill="none" stroke="black" stroke-dasharray="1,5" d="M839.28,-1345.51C812.92,-1385.46 749.9,-1480.98 719.06,-1527.73"/>
<polygon fill="black" stroke="black" points="716.1,-1525.86 713.51,-1536.13 721.94,-1529.71 716.1,-1525.86"/>
<text text-anchor="middle" x="723.78" y="-1444.79" font-family="Times,serif" font-size="14.00">schema:legalName</text>
</g>
<!-- LSI -->
<g id="node5" class="node">
<title>LSI</title>
<polygon fill="none" stroke="black" points="1069.46,-1293.97 1069.46,-1329.97 1123.46,-1329.97 1123.46,-1293.97 1069.46,-1293.97"/>
<text text-anchor="middle" x="1096.46" y="-1308.27" font-family="Times,serif" font-size="14.00">SI</text>
</g>
<!-- Rhttp://www.someinstitute.edu&#45;&gt;LSI -->
<g id="edge4" class="edge">
<title>Rhttp://www.someinstitute.edu&#45;&gt;LSI</title>
<path fill="none" stroke="black" stroke-dasharray="1,5" d="M958.11,-1320.62C994.22,-1318.36 1032.19,-1315.99 1059.2,-1314.3"/>
<polygon fill="black" stroke="black" points="1059.58,-1317.78 1069.34,-1313.67 1059.14,-1310.8 1059.58,-1317.78"/>
<text text-anchor="middle" x="1013.69" y="-1305.95" font-family="Times,serif" font-size="14.00">schema:name</text>
</g>
<!-- Lhttp://www.someinstitute.edu -->
<g id="node6" class="node">
<title>Lhttp://www.someinstitute.edu</title>
<polygon fill="none" stroke="black" points="468.43,-1511.72 468.43,-1547.72 645.43,-1547.72 645.43,-1511.72 468.43,-1511.72"/>
<text text-anchor="middle" x="556.93" y="-1526.02" font-family="Times,serif" font-size="14.00">http://www.someinstitute.edu</text>
</g>
<!-- Rhttp://www.someinstitute.edu&#45;&gt;Lhttp://www.someinstitute.edu -->
<g id="edge5" class="edge">
<title>Rhttp://www.someinstitute.edu&#45;&gt;Lhttp://www.someinstitute.edu</title>
<path fill="none" stroke="black" stroke-dasharray="1,5" d="M825.68,-1344.91C772.75,-1381.31 651.27,-1464.84 591.47,-1505.97"/>
<polygon fill="black" stroke="black" points="589.37,-1503.16 583.11,-1511.71 593.33,-1508.93 589.37,-1503.16"/>
<text text-anchor="middle" x="673.87" y="-1417.13" font-family="Times,serif" font-size="14.00">schema:url</text>
</g>
<!-- Rschema:PostalAddress -->
<g id="node22" class="node">
<title>Rschema:PostalAddress</title>
<ellipse fill="none" stroke="blue" cx="802.64" cy="-1864.78" rx="90.18" ry="18"/>
<text text-anchor="middle" x="802.64" y="-1861.08" font-family="Times,serif" font-size="14.00">schema:PostalAddress</text>
</g>
<!-- B_:b2&#45;&gt;Rschema:PostalAddress -->
<g id="edge21" class="edge">
<title>B_:b2&#45;&gt;Rschema:PostalAddress</title>
<path fill="none" stroke="black" stroke-dasharray="1,5" d="M1035.21,-1631.21C996.29,-1670.29 879.22,-1787.87 827.58,-1839.74"/>
<polygon fill="black" stroke="black" points="825.02,-1837.34 820.45,-1846.89 829.98,-1842.28 825.02,-1837.34"/>
<text text-anchor="middle" x="903.56" y="-1742.61" font-family="Times,serif" font-size="14.00">rdfs:type</text>
</g>
<!-- LUSA -->
<g id="node23" class="node">
<title>LUSA</title>
<polygon fill="none" stroke="black" points="1095,-1884.12 1095,-1920.12 1149,-1920.12 1149,-1884.12 1095,-1884.12"/>
<text text-anchor="middle" x="1122" y="-1898.42" font-family="Times,serif" font-size="14.00">USA</text>
</g>
<!-- B_:b2&#45;&gt;LUSA -->
<g id="edge22" class="edge">
<title>B_:b2&#45;&gt;LUSA</title>
<path fill="none" stroke="black" stroke-dasharray="1,5" d="M1052.68,-1636.05C1065.15,-1683.92 1099.55,-1815.96 1114.69,-1874.06"/>
<polygon fill="black" stroke="black" points="1111.37,-1875.22 1117.28,-1884.01 1118.14,-1873.45 1111.37,-1875.22"/>
<text text-anchor="middle" x="1020.09" y="-1749.25" font-family="Times,serif" font-size="14.00">schema:addressCountry</text>
</g>
<!-- LAnytown -->
<g id="node24" class="node">
<title>LAnytown</title>
<polygon fill="none" stroke="black" points="1245.36,-1786.01 1245.36,-1822.01 1312.36,-1822.01 1312.36,-1786.01 1245.36,-1786.01"/>
<text text-anchor="middle" x="1278.86" y="-1800.31" font-family="Times,serif" font-size="14.00">Anytown</text>
</g>
<!-- B_:b2&#45;&gt;LAnytown -->
<g id="edge23" class="edge">
<title>B_:b2&#45;&gt;LAnytown</title>
<path fill="none" stroke="black" stroke-dasharray="1,5" d="M1062.15,-1629.64C1098.77,-1659.1 1197.6,-1738.63 1248.16,-1779.31"/>
<polygon fill="black" stroke="black" points="1246.15,-1782.19 1256.13,-1785.73 1250.54,-1776.73 1246.15,-1782.19"/>
<text text-anchor="middle" x="1093.64" y="-1711.48" font-family="Times,serif" font-size="14.00">schema:addressLocality</text>
</g>
<!-- LST -->
<g id="node25" class="node">
<title>LST</title>
<polygon fill="none" stroke="black" points="920.3,-1904.28 920.3,-1940.28 974.3,-1940.28 974.3,-1904.28 920.3,-1904.28"/>
<text text-anchor="middle" x="947.3" y="-1918.58" font-family="Times,serif" font-size="14.00">ST</text>
</g>
<!-- B_:b2&#45;&gt;LST -->
<g id="edge24" class="edge">
<title>B_:b2&#45;&gt;LST</title>
<path fill="none" stroke="black" stroke-dasharray="1,5" d="M1042.35,-1635.51C1025.7,-1685.74 977.08,-1832.42 956.58,-1894.27"/>
<polygon fill="black" stroke="black" points="953.15,-1893.52 953.32,-1904.11 959.79,-1895.72 953.15,-1893.52"/>
<text text-anchor="middle" x="935.46" y="-1773.25" font-family="Times,serif" font-size="14.00">schema:addressRegion</text>
</g>
<!-- L12345 -->
<g id="node26" class="node">
<title>L12345</title>
<polygon fill="none" stroke="black" points="1354.89,-1483.84 1354.89,-1519.84 1408.89,-1519.84 1408.89,-1483.84 1354.89,-1483.84"/>
<text text-anchor="middle" x="1381.89" y="-1498.14" font-family="Times,serif" font-size="14.00">12345</text>
</g>
<!-- B_:b2&#45;&gt;L12345 -->
<g id="edge25" class="edge">
<title>B_:b2&#45;&gt;L12345</title>
<path fill="none" stroke="black" stroke-dasharray="1,5" d="M1065.07,-1612.36C1116.85,-1594.3 1273.33,-1539.71 1345.14,-1514.66"/>
<polygon fill="black" stroke="black" points="1346.41,-1517.93 1354.7,-1511.33 1344.1,-1511.32 1346.41,-1517.93"/>
<text text-anchor="middle" x="1156.77" y="-1565.68" font-family="Times,serif" font-size="14.00">schema:postalCode</text>
</g>
<!-- L234 Main St. -->
<g id="node27" class="node">
<title>L234 Main St.</title>
<polygon fill="none" stroke="black" points="1324.79,-1637.68 1324.79,-1673.68 1413.79,-1673.68 1413.79,-1637.68 1324.79,-1637.68"/>
<text text-anchor="middle" x="1369.29" y="-1651.98" font-family="Times,serif" font-size="14.00">234 Main St.</text>
</g>
<!-- B_:b2&#45;&gt;L234 Main St. -->
<g id="edge26" class="edge">
<title>B_:b2&#45;&gt;L234 Main St.</title>
<path fill="none" stroke="black" stroke-dasharray="1,5" d="M1066.25,-1620.42C1113.4,-1625.9 1241.04,-1640.76 1314.75,-1649.33"/>
<polygon fill="black" stroke="black" points="1314.45,-1652.82 1324.78,-1650.5 1315.26,-1645.87 1314.45,-1652.82"/>
<text text-anchor="middle" x="1136.01" y="-1639.26" font-family="Times,serif" font-size="14.00">schema:streetAddress</text>
</g>
<!-- B_:b0 -->
<g id="node7" class="node">
<title>B_:b0</title>
<ellipse fill="none" stroke="green" cx="565.42" cy="-642.67" rx="18" ry="18"/>
</g>
<!-- Rschema:ItemList -->
<g id="node8" class="node">
<title>Rschema:ItemList</title>
<ellipse fill="none" stroke="blue" cx="847.34" cy="-417.85" rx="70.39" ry="18"/>
<text text-anchor="middle" x="847.34" y="-414.15" font-family="Times,serif" font-size="14.00">schema:ItemList</text>
</g>
<!-- B_:b0&#45;&gt;Rschema:ItemList -->
<g id="edge6" class="edge">
<title>B_:b0&#45;&gt;Rschema:ItemList</title>
<path fill="none" stroke="black" stroke-dasharray="1,5" d="M579.79,-631.21C623.83,-596.08 757.6,-489.41 817.63,-441.54"/>
<polygon fill="black" stroke="black" points="819.96,-444.16 825.59,-435.19 815.59,-438.69 819.96,-444.16"/>
<text text-anchor="middle" x="678.31" y="-536.9" font-family="Times,serif" font-size="14.00">rdfs:type</text>
</g>
<!-- B_:b1 -->
<g id="node9" class="node">
<title>B_:b1</title>
<ellipse fill="none" stroke="green" cx="670.67" cy="-1005.18" rx="18" ry="18"/>
</g>
<!-- B_:b0&#45;&gt;B_:b1 -->
<g id="edge7" class="edge">
<title>B_:b0&#45;&gt;B_:b1</title>
<path fill="none" stroke="black" stroke-dasharray="1,5" d="M570.5,-660.15C587.45,-718.54 642.19,-907.07 662.76,-977.93"/>
<polygon fill="black" stroke="black" points="659.5,-979.25 665.65,-987.87 666.22,-977.3 659.5,-979.25"/>
<text text-anchor="middle" x="549.57" y="-827.81" font-family="Times,serif" font-size="14.00">schema:itemListElement</text>
</g>
<!-- B_:b3 -->
<g id="node10" class="node">
<title>B_:b3</title>
<ellipse fill="none" stroke="green" cx="365.18" cy="-394.17" rx="18" ry="18"/>
</g>
<!-- B_:b0&#45;&gt;B_:b3 -->
<g id="edge8" class="edge">
<title>B_:b0&#45;&gt;B_:b3</title>
<path fill="none" stroke="black" stroke-dasharray="1,5" d="M554.08,-628.59C520.84,-587.34 423.46,-466.49 383.06,-416.36"/>
<polygon fill="black" stroke="black" points="385.65,-413.99 376.65,-408.4 380.2,-418.38 385.65,-413.99"/>
<text text-anchor="middle" x="396.85" y="-522.28" font-family="Times,serif" font-size="14.00">schema:itemListElement</text>
</g>
<!-- L315 -->
<g id="node11" class="node">
<title>L315</title>
<polygon fill="none" stroke="black" points="642.69,-355.51 642.69,-391.51 696.69,-391.51 696.69,-355.51 642.69,-355.51"/>
<text text-anchor="middle" x="669.69" y="-369.81" font-family="Times,serif" font-size="14.00">315</text>
</g>
<!-- B_:b0&#45;&gt;L315 -->
<g id="edge9" class="edge">
<title>B_:b0&#45;&gt;L315</title>
<path fill="none" stroke="black" stroke-dasharray="1,5" d="M571.94,-625.83C589.4,-580.76 637.34,-457.02 658.92,-401.32"/>
<polygon fill="black" stroke="black" points="662.28,-402.34 662.63,-391.75 655.75,-399.81 662.28,-402.34"/>
<text text-anchor="middle" x="550.75" y="-512.67" font-family="Times,serif" font-size="14.00">schema:numberOfItems</text>
</g>
<!-- Lhttp://multivarki.ru?filters%5Bprice%5D%5BLTE%5D=39600 -->
<g id="node12" class="node">
<title>Lhttp://multivarki.ru?filters%5Bprice%5D%5BLTE%5D=39600</title>
<polygon fill="none" stroke="black" points="50.57,-618.62 50.57,-654.62 415.57,-654.62 415.57,-618.62 50.57,-618.62"/>
<text text-anchor="middle" x="233.07" y="-632.92" font-family="Times,serif" font-size="14.00">http://multivarki.ru?filters%5Bprice%5D%5BLTE%5D=39600</text>
</g>
<!-- B_:b0&#45;&gt;Lhttp://multivarki.ru?filters%5Bprice%5D%5BLTE%5D=39600 -->
<g id="edge10" class="edge">
<title>B_:b0&#45;&gt;Lhttp://multivarki.ru?filters%5Bprice%5D%5BLTE%5D=39600</title>
<path fill="none" stroke="black" stroke-dasharray="1,5" d="M547.08,-642.33C522.39,-641.88 475.78,-641.03 425.88,-640.13"/>
<polygon fill="black" stroke="black" points="425.92,-636.63 415.86,-639.94 425.8,-643.63 425.92,-636.63"/>
<text text-anchor="middle" x="450.72" y="-644.93" font-family="Times,serif" font-size="14.00">schema:url</text>
</g>
<!-- B_:b1&#45;&gt;Rhttp://www.someinstitute.edu -->
<g id="edge18" class="edge">
<title>B_:b1&#45;&gt;Rhttp://www.someinstitute.edu</title>
<path fill="none" stroke="black" stroke-dasharray="1,5" d="M679.63,-1021.16C708.6,-1072.82 799.97,-1235.79 836.24,-1300.47"/>
<polygon fill="black" stroke="black" points="833.23,-1302.26 841.18,-1309.28 839.34,-1298.84 833.23,-1302.26"/>
<text text-anchor="middle" x="685.47" y="-1169.14" font-family="Times,serif" font-size="14.00">schema:parentOrganization</text>
</g>
<!-- Rschema:ResearchProject -->
<g id="node13" class="node">
<title>Rschema:ResearchProject</title>
<ellipse fill="none" stroke="blue" cx="997.6" cy="-881.43" rx="96.68" ry="18"/>
<text text-anchor="middle" x="997.6" y="-877.73" font-family="Times,serif" font-size="14.00">schema:ResearchProject</text>
</g>
<!-- B_:b1&#45;&gt;Rschema:ResearchProject -->
<g id="edge11" class="edge">
<title>B_:b1&#45;&gt;Rschema:ResearchProject</title>
<path fill="none" stroke="black" stroke-dasharray="1,5" d="M687.79,-998.7C735.19,-980.76 869.63,-929.87 944.9,-901.37"/>
<polygon fill="black" stroke="black" points="946.56,-904.49 954.67,-897.68 944.08,-897.94 946.56,-904.49"/>
<text text-anchor="middle" x="796.98" y="-951.9" font-family="Times,serif" font-size="14.00">rdfs:type</text>
</g>
<!-- Rschema:Service -->
<g id="node14" class="node">
<title>Rschema:Service</title>
<ellipse fill="none" stroke="blue" cx="894.59" cy="-1001.42" rx="66.09" ry="18"/>
<text text-anchor="middle" x="894.59" y="-997.72" font-family="Times,serif" font-size="14.00">schema:Service</text>
</g>
<!-- B_:b1&#45;&gt;Rschema:Service -->
<g id="edge12" class="edge">
<title>B_:b1&#45;&gt;Rschema:Service</title>
<path fill="none" stroke="black" stroke-dasharray="1,5" d="M689,-1004.88C716.96,-1004.41 771.91,-1003.48 817.96,-1002.71"/>
<polygon fill="black" stroke="black" points="818.3,-1006.2 828.24,-1002.53 818.19,-999.2 818.3,-1006.2"/>
<text text-anchor="middle" x="734.23" y="-1007.5" font-family="Times,serif" font-size="14.00">rdfs:type</text>
</g>
<!-- LBiological Oceanography -->
<g id="node15" class="node">
<title>LBiological Oceanography</title>
<polygon fill="none" stroke="black" points="477.5,-1181.51 477.5,-1217.51 632.5,-1217.51 632.5,-1181.51 477.5,-1181.51"/>
<text text-anchor="middle" x="555" y="-1195.81" font-family="Times,serif" font-size="14.00">Biological Oceanography</text>
</g>
<!-- B_:b1&#45;&gt;LBiological Oceanography -->
<g id="edge13" class="edge">
<title>B_:b1&#45;&gt;LBiological Oceanography</title>
<path fill="none" stroke="black" stroke-dasharray="1,5" d="M661.4,-1020.76C641.72,-1053.83 595.53,-1131.42 570.99,-1172.65"/>
<polygon fill="black" stroke="black" points="567.92,-1170.96 565.82,-1181.34 573.94,-1174.54 567.92,-1170.96"/>
<text text-anchor="middle" x="659.61" y="-1104.86" font-family="Times,serif" font-size="14.00">schema:category</text>
</g>
<!-- LChemical Oceanography -->
<g id="node16" class="node">
<title>LChemical Oceanography</title>
<polygon fill="none" stroke="black" points="659.56,-779.25 659.56,-815.25 811.56,-815.25 811.56,-779.25 659.56,-779.25"/>
<text text-anchor="middle" x="735.56" y="-793.55" font-family="Times,serif" font-size="14.00">Chemical Oceanography</text>
</g>
<!-- B_:b1&#45;&gt;LChemical Oceanography -->
<g id="edge14" class="edge">
<title>B_:b1&#45;&gt;LChemical Oceanography</title>
<path fill="none" stroke="black" stroke-dasharray="1,5" d="M676.09,-987.81C687.34,-951.76 713.31,-868.54 726.9,-824.98"/>
<polygon fill="black" stroke="black" points="730.28,-825.9 729.92,-815.31 723.6,-823.82 730.28,-825.9"/>
<text text-anchor="middle" x="657.1" y="-905.07" font-family="Times,serif" font-size="14.00">schema:category</text>
</g>
<!-- LThe Sample Data Repository Service... -->
<g id="node17" class="node">
<title>LThe Sample Data Repository Service...</title>
<polygon fill="none" stroke="black" points="819.69,-754.68 819.69,-790.68 1049.69,-790.68 1049.69,-754.68 819.69,-754.68"/>
<text text-anchor="middle" x="934.69" y="-768.98" font-family="Times,serif" font-size="14.00">The Sample Data Repository Service...</text>
</g>
<!-- B_:b1&#45;&gt;LThe Sample Data Repository Service... -->
<g id="edge15" class="edge">
<title>B_:b1&#45;&gt;LThe Sample Data Repository Service...</title>
<path fill="none" stroke="black" stroke-dasharray="1,5" d="M684.5,-993.01C725.96,-956.5 849.88,-847.37 906.23,-797.74"/>
<polygon fill="black" stroke="black" points="908.85,-800.1 914.04,-790.87 904.22,-794.85 908.85,-800.1"/>
<text text-anchor="middle" x="746.42" y="-880.6" font-family="Times,serif" font-size="14.00">schema:description</text>
</g>
<!-- LSample Data Repository Office -->
<g id="node18" class="node">
<title>LSample Data Repository Office</title>
<polygon fill="none" stroke="black" points="277.31,-1198.16 277.31,-1234.16 465.31,-1234.16 465.31,-1198.16 277.31,-1198.16"/>
<text text-anchor="middle" x="371.31" y="-1212.46" font-family="Times,serif" font-size="14.00">Sample Data Repository Office</text>
</g>
<!-- B_:b1&#45;&gt;LSample Data Repository Office -->
<g id="edge16" class="edge">
<title>B_:b1&#45;&gt;LSample Data Repository Office</title>
<path fill="none" stroke="black" stroke-dasharray="1,5" d="M655.78,-1015.7C632.01,-1032.47 584.03,-1066.31 543.35,-1094.99 495.45,-1128.75 440.03,-1167.78 405.32,-1192.21"/>
<polygon fill="black" stroke="black" points="403.12,-1189.48 396.96,-1198.1 407.15,-1195.21 403.12,-1189.48"/>
<text text-anchor="middle" x="579.03" y="-1095.64" font-family="Times,serif" font-size="14.00">schema:legalName</text>
</g>
<!-- LSDRO -->
<g id="node19" class="node">
<title>LSDRO</title>
<polygon fill="none" stroke="black" points="298.54,-969.72 298.54,-1005.72 352.54,-1005.72 352.54,-969.72 298.54,-969.72"/>
<text text-anchor="middle" x="325.54" y="-984.02" font-family="Times,serif" font-size="14.00">SDRO</text>
</g>
<!-- B_:b1&#45;&gt;LSDRO -->
<g id="edge17" class="edge">
<title>B_:b1&#45;&gt;LSDRO</title>
<path fill="none" stroke="black" stroke-dasharray="1,5" d="M652.6,-1004.27C598.53,-1001.53 437.2,-993.37 363.28,-989.63"/>
<polygon fill="black" stroke="black" points="363.2,-986.12 353.04,-989.11 362.85,-993.11 363.2,-986.12"/>
<text text-anchor="middle" x="464.81" y="-1000.49" font-family="Times,serif" font-size="14.00">schema:name</text>
</g>
<!-- Rhttps://www.sample&#45;data&#45;repository.org -->
<g id="node20" class="node">
<title>Rhttps://www.sample&#45;data&#45;repository.org</title>
<ellipse fill="none" stroke="blue" cx="390.32" cy="-1094.85" rx="151.37" ry="18"/>
<text text-anchor="middle" x="390.32" y="-1091.15" font-family="Times,serif" font-size="14.00">https://www.sample&#45;data&#45;repository.org</text>
</g>
<!-- B_:b1&#45;&gt;Rhttps://www.sample&#45;data&#45;repository.org -->
<g id="edge19" class="edge">
<title>B_:b1&#45;&gt;Rhttps://www.sample&#45;data&#45;repository.org</title>
<path fill="none" stroke="black" stroke-dasharray="1,5" d="M653.13,-1010.79C613.91,-1023.34 517.48,-1054.18 452.99,-1074.81"/>
<polygon fill="black" stroke="black" points="451.78,-1071.52 443.32,-1077.9 453.91,-1078.19 451.78,-1071.52"/>
<text text-anchor="middle" x="502.57" y="-1048.2" font-family="Times,serif" font-size="14.00">schema:provider</text>
</g>
<!-- Lhttps://www.sample&#45;data&#45;repository.org -->
<g id="node21" class="node">
<title>Lhttps://www.sample&#45;data&#45;repository.org</title>
<polygon fill="none" stroke="black" points="358,-869.54 358,-905.54 591,-905.54 591,-869.54 358,-869.54"/>
<text text-anchor="middle" x="474.5" y="-883.84" font-family="Times,serif" font-size="14.00">https://www.sample&#45;data&#45;repository.org</text>
</g>
<!-- B_:b1&#45;&gt;Lhttps://www.sample&#45;data&#45;repository.org -->
<g id="edge20" class="edge">
<title>B_:b1&#45;&gt;Lhttps://www.sample&#45;data&#45;repository.org</title>
<path fill="none" stroke="black" stroke-dasharray="1,5" d="M654.95,-995.76C624.56,-977.53 556.95,-936.98 513.66,-911.02"/>
<polygon fill="black" stroke="black" points="515.19,-907.86 504.82,-905.72 511.59,-913.86 515.19,-907.86"/>
<text text-anchor="middle" x="549.41" y="-954.55" font-family="Times,serif" font-size="14.00">schema:url</text>
</g>
<!-- Rschema:Product -->
<g id="node28" class="node">
<title>Rschema:Product</title>
<ellipse fill="none" stroke="blue" cx="67.59" cy="-299.13" rx="67.69" ry="18"/>
<text text-anchor="middle" x="67.59" y="-295.43" font-family="Times,serif" font-size="14.00">schema:Product</text>
</g>
<!-- B_:b3&#45;&gt;Rschema:Product -->
<g id="edge27" class="edge">
<title>B_:b3&#45;&gt;Rschema:Product</title>
<path fill="none" stroke="black" stroke-dasharray="1,5" d="M347.9,-388.65C304.45,-374.77 189.26,-337.99 120.82,-316.13"/>
<polygon fill="black" stroke="black" points="121.67,-312.73 111.08,-313.02 119.54,-319.39 121.67,-312.73"/>
<text text-anchor="middle" x="205.1" y="-354.67" font-family="Times,serif" font-size="14.00">rdfs:type</text>
</g>
<!-- LProduct name -->
<g id="node29" class="node">
<title>LProduct name</title>
<polygon fill="none" stroke="black" points="355.28,-70.5 355.28,-106.5 447.28,-106.5 447.28,-70.5 355.28,-70.5"/>
<text text-anchor="middle" x="401.28" y="-84.8" font-family="Times,serif" font-size="14.00">Product name</text>
</g>
<!-- B_:b3&#45;&gt;LProduct name -->
<g id="edge28" class="edge">
<title>B_:b3&#45;&gt;LProduct name</title>
<path fill="none" stroke="black" stroke-dasharray="1,5" d="M367.33,-375.96C373.39,-324.68 390.63,-178.72 397.94,-116.81"/>
<polygon fill="black" stroke="black" points="401.45,-116.95 399.15,-106.61 394.5,-116.13 401.45,-116.95"/>
<text text-anchor="middle" x="345.22" y="-245.26" font-family="Times,serif" font-size="14.00">schema:name</text>
</g>
</g>
</svg>
