<?xml version="1.0" encoding="UTF-8" standalone="no"?>
<!DOCTYPE svg PUBLIC "-//W3C//DTD SVG 1.1//EN"
 "http://www.w3.org/Graphics/SVG/1.1/DTD/svg11.dtd">
<!-- Generated by graphviz version 2.43.0 (0)
 -->
<!-- Title: %3 Pages: 1 -->
<svg width="1183pt" height="720pt"
 viewBox="0.00 0.00 1182.55 719.50" xmlns="http://www.w3.org/2000/svg" xmlns:xlink="http://www.w3.org/1999/xlink">
<g id="graph0" class="graph" transform="scale(1 1) rotate(0) translate(4 715.5)">
<title>%3</title>
<polygon fill="white" stroke="transparent" points="-4,4 -4,-715.5 1178.55,-715.5 1178.55,4 -4,4"/>
<text text-anchor="middle" x="587.27" y="-22.8" font-family="Times,serif" font-size="14.00">Model:</text>
<text text-anchor="middle" x="587.27" y="-7.8" font-family="Times,serif" font-size="14.00">https://iode.org/</text>
<!-- Rhttps://dx.doi.org/10.13039/10000001 -->
<g id="node1" class="node">
<title>Rhttps://dx.doi.org/10.13039/10000001</title>
<ellipse fill="none" stroke="blue" cx="535.07" cy="-583.5" rx="144.87" ry="18"/>
<text text-anchor="middle" x="535.07" y="-579.8" font-family="Times,serif" font-size="14.00">https://dx.doi.org/10.13039/10000001</text>
</g>
<!-- Rschema:FundingAgency -->
<g id="node2" class="node">
<title>Rschema:FundingAgency</title>
<ellipse fill="none" stroke="blue" cx="1029.55" cy="-693.5" rx="96.68" ry="18"/>
<text text-anchor="middle" x="1029.55" y="-689.8" font-family="Times,serif" font-size="14.00">schema:FundingAgency</text>
</g>
<!-- Rhttps://dx.doi.org/10.13039/10000001&#45;&gt;Rschema:FundingAgency -->
<g id="edge1" class="edge">
<title>Rhttps://dx.doi.org/10.13039/10000001&#45;&gt;Rschema:FundingAgency</title>
<path fill="none" stroke="black" stroke-dasharray="1,5" d="M595.19,-599.99C636.13,-611.18 691.97,-625.97 741.55,-637.5 804.71,-652.19 820.9,-654.08 884.55,-666.5 905.78,-670.64 928.79,-675.01 950.06,-679"/>
<polygon fill="black" stroke="black" points="949.55,-682.47 960.02,-680.86 950.84,-675.58 949.55,-682.47"/>
<text text-anchor="middle" x="804.05" y="-665.3" font-family="Times,serif" font-size="14.00">rdfs:type</text>
</g>
<!-- LNSF -->
<g id="node3" class="node">
<title>LNSF</title>
<polygon fill="none" stroke="black" points="1002.55,-620.5 1002.55,-656.5 1056.55,-656.5 1056.55,-620.5 1002.55,-620.5"/>
<text text-anchor="middle" x="1029.55" y="-634.8" font-family="Times,serif" font-size="14.00">NSF</text>
</g>
<!-- Rhttps://dx.doi.org/10.13039/10000001&#45;&gt;LNSF -->
<g id="edge2" class="edge">
<title>Rhttps://dx.doi.org/10.13039/10000001&#45;&gt;LNSF</title>
<path fill="none" stroke="black" stroke-dasharray="1,5" d="M643.53,-595.5C753.87,-607.82 919.38,-626.31 992.09,-634.43"/>
<polygon fill="black" stroke="black" points="991.8,-637.92 1002.13,-635.55 992.58,-630.96 991.8,-637.92"/>
<text text-anchor="middle" x="804.05" y="-622.3" font-family="Times,serif" font-size="14.00">schema:alternateName</text>
</g>
<!-- LNational Science Foundation -->
<g id="node4" class="node">
<title>LNational Science Foundation</title>
<polygon fill="none" stroke="black" points="942.55,-565.5 942.55,-601.5 1116.55,-601.5 1116.55,-565.5 942.55,-565.5"/>
<text text-anchor="middle" x="1029.55" y="-579.8" font-family="Times,serif" font-size="14.00">National Science Foundation</text>
</g>
<!-- Rhttps://dx.doi.org/10.13039/10000001&#45;&gt;LNational Science Foundation -->
<g id="edge3" class="edge">
<title>Rhttps://dx.doi.org/10.13039/10000001&#45;&gt;LNational Science Foundation</title>
<path fill="none" stroke="black" stroke-dasharray="1,5" d="M680.17,-583.5C761.2,-583.5 860.17,-583.5 931.89,-583.5"/>
<polygon fill="black" stroke="black" points="932.26,-587 942.26,-583.5 932.26,-580 932.26,-587"/>
<text text-anchor="middle" x="804.05" y="-587.3" font-family="Times,serif" font-size="14.00">schema:legalName</text>
</g>
<!-- Lhttps://www.nsf.gov/ -->
<g id="node5" class="node">
<title>Lhttps://www.nsf.gov/</title>
<polygon fill="none" stroke="black" points="964.05,-510.5 964.05,-546.5 1095.05,-546.5 1095.05,-510.5 964.05,-510.5"/>
<text text-anchor="middle" x="1029.55" y="-524.8" font-family="Times,serif" font-size="14.00">https://www.nsf.gov/</text>
</g>
<!-- Rhttps://dx.doi.org/10.13039/10000001&#45;&gt;Lhttps://www.nsf.gov/ -->
<g id="edge4" class="edge">
<title>Rhttps://dx.doi.org/10.13039/10000001&#45;&gt;Lhttps://www.nsf.gov/</title>
<path fill="none" stroke="black" stroke-dasharray="1,5" d="M643.53,-571.5C737.4,-561.01 871.22,-546.07 953.84,-536.84"/>
<polygon fill="black" stroke="black" points="954.36,-540.31 963.9,-535.72 953.58,-533.35 954.36,-540.31"/>
<text text-anchor="middle" x="804.05" y="-562.3" font-family="Times,serif" font-size="14.00">schema:url</text>
</g>
<!-- Rhttps://great.research.org -->
<g id="node6" class="node">
<title>Rhttps://great.research.org</title>
<ellipse fill="none" stroke="blue" cx="98.79" cy="-308.5" rx="98.58" ry="18"/>
<text text-anchor="middle" x="98.79" y="-304.8" font-family="Times,serif" font-size="14.00">https://great.research.org</text>
</g>
<!-- Rhttps://great.research.org&#45;&gt;Rhttps://dx.doi.org/10.13039/10000001 -->
<g id="edge9" class="edge">
<title>Rhttps://great.research.org&#45;&gt;Rhttps://dx.doi.org/10.13039/10000001</title>
<path fill="none" stroke="black" stroke-dasharray="1,5" d="M108.53,-326.46C125.08,-358.71 164.03,-426.71 215.58,-465.5 284.74,-517.54 379.29,-548.7 447.38,-565.81"/>
<polygon fill="black" stroke="black" points="446.69,-569.24 457.23,-568.23 448.36,-562.44 446.69,-569.24"/>
<text text-anchor="middle" x="272.08" y="-527.3" font-family="Times,serif" font-size="14.00">schema:funder</text>
</g>
<!-- Rschema:ResearchProject -->
<g id="node7" class="node">
<title>Rschema:ResearchProject</title>
<ellipse fill="none" stroke="blue" cx="535.07" cy="-471.5" rx="96.68" ry="18"/>
<text text-anchor="middle" x="535.07" y="-467.8" font-family="Times,serif" font-size="14.00">schema:ResearchProject</text>
</g>
<!-- Rhttps://great.research.org&#45;&gt;Rschema:ResearchProject -->
<g id="edge5" class="edge">
<title>Rhttps://great.research.org&#45;&gt;Rschema:ResearchProject</title>
<path fill="none" stroke="black" stroke-dasharray="1,5" d="M116.05,-326.55C136.99,-348.72 175.47,-386.04 215.58,-407.5 282.02,-443.05 365.85,-458.92 430.83,-465.98"/>
<polygon fill="black" stroke="black" points="430.79,-469.49 441.09,-467.04 431.51,-462.53 430.79,-469.49"/>
<text text-anchor="middle" x="272.08" y="-450.3" font-family="Times,serif" font-size="14.00">rdfs:type</text>
</g>
<!-- Rschema:Service -->
<g id="node8" class="node">
<title>Rschema:Service</title>
<ellipse fill="none" stroke="blue" cx="535.07" cy="-417.5" rx="66.09" ry="18"/>
<text text-anchor="middle" x="535.07" y="-413.8" font-family="Times,serif" font-size="14.00">schema:Service</text>
</g>
<!-- Rhttps://great.research.org&#45;&gt;Rschema:Service -->
<g id="edge6" class="edge">
<title>Rhttps://great.research.org&#45;&gt;Rschema:Service</title>
<path fill="none" stroke="black" stroke-dasharray="1,5" d="M133.6,-325.35C156.35,-336.2 187.26,-350 215.58,-359.5 297.77,-387.07 396.54,-402.47 462.07,-410.36"/>
<polygon fill="black" stroke="black" points="461.96,-413.87 472.3,-411.56 462.77,-406.92 461.96,-413.87"/>
<text text-anchor="middle" x="272.08" y="-392.3" font-family="Times,serif" font-size="14.00">rdfs:type</text>
</g>
<!-- Rhttps://www.example&#45;data&#45;repository.org/about&#45;us -->
<g id="node9" class="node">
<title>Rhttps://www.example&#45;data&#45;repository.org/about&#45;us</title>
<ellipse fill="none" stroke="blue" cx="535.07" cy="-363.5" rx="188.47" ry="18"/>
<text text-anchor="middle" x="535.07" y="-359.8" font-family="Times,serif" font-size="14.00">https://www.example&#45;data&#45;repository.org/about&#45;us</text>
</g>
<!-- Rhttps://great.research.org&#45;&gt;Rhttps://www.example&#45;data&#45;repository.org/about&#45;us -->
<g id="edge7" class="edge">
<title>Rhttps://great.research.org&#45;&gt;Rhttps://www.example&#45;data&#45;repository.org/about&#45;us</title>
<path fill="none" stroke="black" stroke-dasharray="1,5" d="M171.36,-320.82C185.97,-323.17 201.26,-325.52 215.58,-327.5 274.34,-335.64 339.38,-343.24 395.29,-349.34"/>
<polygon fill="black" stroke="black" points="394.94,-352.82 405.26,-350.42 395.7,-345.86 394.94,-352.82"/>
<text text-anchor="middle" x="272.08" y="-344.3" font-family="Times,serif" font-size="14.00">schema:contactPoint</text>
</g>
<!-- LRepo description ...  -->
<g id="node10" class="node">
<title>LRepo description ... </title>
<polygon fill="none" stroke="black" points="473.07,-290.5 473.07,-326.5 597.07,-326.5 597.07,-290.5 473.07,-290.5"/>
<text text-anchor="middle" x="535.07" y="-304.8" font-family="Times,serif" font-size="14.00">Repo description ...</text>
</g>
<!-- Rhttps://great.research.org&#45;&gt;LRepo description ...  -->
<g id="edge8" class="edge">
<title>Rhttps://great.research.org&#45;&gt;LRepo description ... </title>
<path fill="none" stroke="black" stroke-dasharray="1,5" d="M197.79,-308.5C278.27,-308.5 390.36,-308.5 462.57,-308.5"/>
<polygon fill="black" stroke="black" points="462.93,-312 472.93,-308.5 462.93,-305 462.93,-312"/>
<text text-anchor="middle" x="272.08" y="-312.3" font-family="Times,serif" font-size="14.00">schema:description</text>
</g>
<!-- LExample Data Repository -->
<g id="node11" class="node">
<title>LExample Data Repository</title>
<polygon fill="none" stroke="black" points="456.07,-235.5 456.07,-271.5 614.07,-271.5 614.07,-235.5 456.07,-235.5"/>
<text text-anchor="middle" x="535.07" y="-249.8" font-family="Times,serif" font-size="14.00">Example Data Repository</text>
</g>
<!-- Rhttps://great.research.org&#45;&gt;LExample Data Repository -->
<g id="edge10" class="edge">
<title>Rhttps://great.research.org&#45;&gt;LExample Data Repository</title>
<path fill="none" stroke="black" stroke-dasharray="1,5" d="M171.36,-296.18C185.97,-293.83 201.26,-291.48 215.58,-289.5 293.28,-278.74 381.97,-268.92 445.99,-262.26"/>
<polygon fill="black" stroke="black" points="446.47,-265.73 456.05,-261.22 445.74,-258.77 446.47,-265.73"/>
<text text-anchor="middle" x="272.08" y="-293.3" font-family="Times,serif" font-size="14.00">schema:legalName</text>
</g>
<!-- B_:b0 -->
<g id="node12" class="node">
<title>B_:b0</title>
<ellipse fill="none" stroke="green" cx="535.07" cy="-198.5" rx="18" ry="18"/>
</g>
<!-- Rhttps://great.research.org&#45;&gt;B_:b0 -->
<g id="edge11" class="edge">
<title>Rhttps://great.research.org&#45;&gt;B_:b0</title>
<path fill="none" stroke="black" stroke-dasharray="1,5" d="M133.04,-291.46C155.81,-280.32 186.96,-266.1 215.58,-256.5 319.99,-221.48 451.14,-206.09 506.94,-200.8"/>
<polygon fill="black" stroke="black" points="507.42,-204.27 517.06,-199.87 506.79,-197.3 507.42,-204.27"/>
<text text-anchor="middle" x="272.08" y="-260.3" font-family="Times,serif" font-size="14.00">schema:logo</text>
</g>
<!-- LExDaRepo -->
<g id="node13" class="node">
<title>LExDaRepo</title>
<polygon fill="none" stroke="black" points="497.07,-125.5 497.07,-161.5 573.07,-161.5 573.07,-125.5 497.07,-125.5"/>
<text text-anchor="middle" x="535.07" y="-139.8" font-family="Times,serif" font-size="14.00">ExDaRepo</text>
</g>
<!-- Rhttps://great.research.org&#45;&gt;LExDaRepo -->
<g id="edge12" class="edge">
<title>Rhttps://great.research.org&#45;&gt;LExDaRepo</title>
<path fill="none" stroke="black" stroke-dasharray="1,5" d="M115.59,-290.42C136.34,-267.78 174.92,-229.33 215.58,-207.5 303.37,-160.37 421.66,-147.81 486.55,-144.55"/>
<polygon fill="black" stroke="black" points="487.05,-148.03 496.88,-144.09 486.73,-141.04 487.05,-148.03"/>
<text text-anchor="middle" x="272.08" y="-211.3" font-family="Times,serif" font-size="14.00">schema:name</text>
</g>
<!-- Lhttps://www.example&#45;data&#45;repository.org -->
<g id="node14" class="node">
<title>Lhttps://www.example&#45;data&#45;repository.org</title>
<polygon fill="none" stroke="black" points="415.07,-70.5 415.07,-106.5 655.07,-106.5 655.07,-70.5 415.07,-70.5"/>
<text text-anchor="middle" x="535.07" y="-84.8" font-family="Times,serif" font-size="14.00">https://www.example&#45;data&#45;repository.org</text>
</g>
<!-- Rhttps://great.research.org&#45;&gt;Lhttps://www.example&#45;data&#45;repository.org -->
<g id="edge13" class="edge">
<title>Rhttps://great.research.org&#45;&gt;Lhttps://www.example&#45;data&#45;repository.org</title>
<path fill="none" stroke="black" stroke-dasharray="1,5" d="M107.66,-290.42C123.2,-256.97 161.08,-185.43 215.58,-148.5 270.73,-111.13 343,-95.49 404.75,-89.48"/>
<polygon fill="black" stroke="black" points="405.32,-92.94 414.96,-88.56 404.69,-85.97 405.32,-92.94"/>
<text text-anchor="middle" x="272.08" y="-152.3" font-family="Times,serif" font-size="14.00">schema:url</text>
</g>
<!-- Rschema:ContactPoint -->
<g id="node15" class="node">
<title>Rschema:ContactPoint</title>
<ellipse fill="none" stroke="blue" cx="1029.55" cy="-473.5" rx="85.59" ry="18"/>
<text text-anchor="middle" x="1029.55" y="-469.8" font-family="Times,serif" font-size="14.00">schema:ContactPoint</text>
</g>
<!-- Rhttps://www.example&#45;data&#45;repository.org/about&#45;us&#45;&gt;Rschema:ContactPoint -->
<g id="edge14" class="edge">
<title>Rhttps://www.example&#45;data&#45;repository.org/about&#45;us&#45;&gt;Rschema:ContactPoint</title>
<path fill="none" stroke="black" stroke-dasharray="1,5" d="M688.44,-374.06C700.81,-378.27 712.7,-383.66 723.55,-390.5 735.75,-398.2 729.58,-409.46 741.55,-417.5 795.38,-453.66 820.9,-434.08 884.55,-446.5 907.17,-450.91 931.82,-455.59 954.23,-459.78"/>
<polygon fill="black" stroke="black" points="953.88,-463.28 964.35,-461.67 955.17,-456.4 953.88,-463.28"/>
<text text-anchor="middle" x="804.05" y="-447.3" font-family="Times,serif" font-size="14.00">rdfs:type</text>
</g>
<!-- Lcustomer support -->
<g id="node16" class="node">
<title>Lcustomer support</title>
<polygon fill="none" stroke="black" points="974.05,-400.5 974.05,-436.5 1085.05,-436.5 1085.05,-400.5 974.05,-400.5"/>
<text text-anchor="middle" x="1029.55" y="-414.8" font-family="Times,serif" font-size="14.00">customer support</text>
</g>
<!-- Rhttps://www.example&#45;data&#45;repository.org/about&#45;us&#45;&gt;Lcustomer support -->
<g id="edge15" class="edge">
<title>Rhttps://www.example&#45;data&#45;repository.org/about&#45;us&#45;&gt;Lcustomer support</title>
<path fill="none" stroke="black" stroke-dasharray="1,5" d="M658.44,-377.17C755.22,-387.97 886.53,-402.64 963.92,-411.28"/>
<polygon fill="black" stroke="black" points="963.69,-414.78 974.02,-412.41 964.47,-407.82 963.69,-414.78"/>
<text text-anchor="middle" x="804.05" y="-402.3" font-family="Times,serif" font-size="14.00">schema:contactType</text>
</g>
<!-- Linfo@example&#45;data&#45;repository.org -->
<g id="node17" class="node">
<title>Linfo@example&#45;data&#45;repository.org</title>
<polygon fill="none" stroke="black" points="927.05,-345.5 927.05,-381.5 1132.05,-381.5 1132.05,-345.5 927.05,-345.5"/>
<text text-anchor="middle" x="1029.55" y="-359.8" font-family="Times,serif" font-size="14.00">info@example&#45;data&#45;repository.org</text>
</g>
<!-- Rhttps://www.example&#45;data&#45;repository.org/about&#45;us&#45;&gt;Linfo@example&#45;data&#45;repository.org -->
<g id="edge16" class="edge">
<title>Rhttps://www.example&#45;data&#45;repository.org/about&#45;us&#45;&gt;Linfo@example&#45;data&#45;repository.org</title>
<path fill="none" stroke="black" stroke-dasharray="1,5" d="M723.66,-363.5C788.79,-363.5 859.74,-363.5 916.79,-363.5"/>
<polygon fill="black" stroke="black" points="916.91,-367 926.91,-363.5 916.91,-360 916.91,-367"/>
<text text-anchor="middle" x="804.05" y="-367.3" font-family="Times,serif" font-size="14.00">schema:email</text>
</g>
<!-- LSupport -->
<g id="node18" class="node">
<title>LSupport</title>
<polygon fill="none" stroke="black" points="1000.05,-290.5 1000.05,-326.5 1059.05,-326.5 1059.05,-290.5 1000.05,-290.5"/>
<text text-anchor="middle" x="1029.55" y="-304.8" font-family="Times,serif" font-size="14.00">Support</text>
</g>
<!-- Rhttps://www.example&#45;data&#45;repository.org/about&#45;us&#45;&gt;LSupport -->
<g id="edge17" class="edge">
<title>Rhttps://www.example&#45;data&#45;repository.org/about&#45;us&#45;&gt;LSupport</title>
<path fill="none" stroke="black" stroke-dasharray="1,5" d="M658.44,-349.83C767.09,-337.7 919.26,-320.71 989.81,-312.83"/>
<polygon fill="black" stroke="black" points="990.46,-316.28 1000.01,-311.69 989.69,-309.32 990.46,-316.28"/>
<text text-anchor="middle" x="804.05" y="-342.3" font-family="Times,serif" font-size="14.00">schema:name</text>
</g>
<!-- Lhttps://www.example&#45;data&#45;repository.org/about&#45;us -->
<g id="node19" class="node">
<title>Lhttps://www.example&#45;data&#45;repository.org/about&#45;us</title>
<polygon fill="none" stroke="black" points="884.55,-235.5 884.55,-271.5 1174.55,-271.5 1174.55,-235.5 884.55,-235.5"/>
<text text-anchor="middle" x="1029.55" y="-249.8" font-family="Times,serif" font-size="14.00">https://www.example&#45;data&#45;repository.org/about&#45;us</text>
</g>
<!-- Rhttps://www.example&#45;data&#45;repository.org/about&#45;us&#45;&gt;Lhttps://www.example&#45;data&#45;repository.org/about&#45;us -->
<g id="edge18" class="edge">
<title>Rhttps://www.example&#45;data&#45;repository.org/about&#45;us&#45;&gt;Lhttps://www.example&#45;data&#45;repository.org/about&#45;us</title>
<path fill="none" stroke="black" stroke-dasharray="1,5" d="M689.04,-352.97C701.21,-348.74 712.9,-343.35 723.55,-336.5 735.99,-328.5 729.29,-316.78 741.55,-308.5 780.41,-282.23 828.65,-267.76 874.41,-260"/>
<polygon fill="black" stroke="black" points="875.11,-263.43 884.44,-258.39 874.01,-256.52 875.11,-263.43"/>
<text text-anchor="middle" x="804.05" y="-312.3" font-family="Times,serif" font-size="14.00">schema:url</text>
</g>
<!-- Rschema:ImageObject -->
<g id="node20" class="node">
<title>Rschema:ImageObject</title>
<ellipse fill="none" stroke="blue" cx="1029.55" cy="-198.5" rx="85.59" ry="18"/>
<text text-anchor="middle" x="1029.55" y="-194.8" font-family="Times,serif" font-size="14.00">schema:ImageObject</text>
</g>
<!-- B_:b0&#45;&gt;Rschema:ImageObject -->
<g id="edge19" class="edge">
<title>B_:b0&#45;&gt;Rschema:ImageObject</title>
<path fill="none" stroke="black" stroke-dasharray="1,5" d="M553.3,-198.5C612.77,-198.5 812.31,-198.5 933.11,-198.5"/>
<polygon fill="black" stroke="black" points="933.47,-202 943.47,-198.5 933.47,-195 933.47,-202"/>
<text text-anchor="middle" x="804.05" y="-202.3" font-family="Times,serif" font-size="14.00">rdfs:type</text>
</g>
<!-- Lhttps://www.example&#45;data&#45;repository.org/logo.jpg -->
<g id="node21" class="node">
<title>Lhttps://www.example&#45;data&#45;repository.org/logo.jpg</title>
<polygon fill="none" stroke="black" points="885.05,-125.5 885.05,-161.5 1174.05,-161.5 1174.05,-125.5 885.05,-125.5"/>
<text text-anchor="middle" x="1029.55" y="-139.8" font-family="Times,serif" font-size="14.00">https://www.example&#45;data&#45;repository.org/logo.jpg</text>
</g>
<!-- B_:b0&#45;&gt;Lhttps://www.example&#45;data&#45;repository.org/logo.jpg -->
<g id="edge20" class="edge">
<title>B_:b0&#45;&gt;Lhttps://www.example&#45;data&#45;repository.org/logo.jpg</title>
<path fill="none" stroke="black" stroke-dasharray="1,5" d="M553.02,-196.61C603.4,-190.98 756.12,-173.93 875.04,-160.64"/>
<polygon fill="black" stroke="black" points="875.44,-164.12 884.98,-159.53 874.66,-157.16 875.44,-164.12"/>
<text text-anchor="middle" x="804.05" y="-177.3" font-family="Times,serif" font-size="14.00">schema:url</text>
</g>
</g>
</svg>
