<?xml version="1.0" encoding="UTF-8" standalone="no"?>
<!DOCTYPE svg PUBLIC "-//W3C//DTD SVG 1.1//EN"
 "http://www.w3.org/Graphics/SVG/1.1/DTD/svg11.dtd">
<!-- Generated by graphviz version 2.40.1 (20161225.0304)
 -->
<!-- Title: %3 Pages: 1 -->
<svg width="720pt" height="309pt"
 viewBox="0.00 0.00 720.00 308.63" xmlns="http://www.w3.org/2000/svg" xmlns:xlink="http://www.w3.org/1999/xlink">
<g id="graph0" class="graph" transform="scale(.5726 .5726) rotate(0) translate(4 535)">
<title>%3</title>
<polygon fill="#ffffff" stroke="transparent" points="-4,4 -4,-535 1253.4221,-535 1253.4221,4 -4,4"/>
<!-- schema.org/Dataset -->
<g id="node1" class="node">
<title>schema.org/Dataset</title>
<ellipse fill="none" stroke="#558855" cx="517.1194" cy="-396" rx="82.5854" ry="18"/>
<text text-anchor="middle" x="517.1194" y="-392.3" font-family="Times,serif" font-size="14.00" fill="#000000">schema.org/Dataset</text>
</g>
<!-- example.org/id/XYZ -->
<g id="node2" class="node">
<title>example.org/id/XYZ</title>
<ellipse fill="none" stroke="#000000" cx="89.0421" cy="-277" rx="89.0842" ry="18"/>
<text text-anchor="middle" x="89.0421" y="-273.3" font-family="Times,serif" font-size="14.00" fill="#000000">example.org/id/XYZ</text>
</g>
<!-- example.org/id/XYZ&#45;&gt;schema.org/Dataset -->
<g id="edge1" class="edge">
<title>example.org/id/XYZ&#45;&gt;schema.org/Dataset</title>
<path fill="none" stroke="#000000" d="M113.325,-294.6131C134.2564,-308.9586 165.8016,-328.6345 196.0842,-340 271.5031,-368.3058 362.3374,-382.4482 428.1095,-389.426"/>
<polygon fill="#000000" stroke="#000000" points="428.1394,-392.9473 438.4442,-390.4854 428.8533,-385.9838 428.1394,-392.9473"/>
<text text-anchor="middle" x="264.0842" y="-377.8" font-family="Times,serif" font-size="14.00" fill="#000000">type</text>
</g>
<!-- &quot;Description of the dataset to aid in sea...&quot; -->
<g id="node3" class="node">
<title>&quot;Description of the dataset to aid in sea...&quot;</title>
<ellipse fill="none" stroke="#000000" stroke-width="0" cx="517.1194" cy="-342" rx="167.0704" ry="18"/>
<text text-anchor="middle" x="517.1194" y="-338.3" font-family="Times,serif" font-size="14.00" fill="#000000">&quot;Description of the dataset to aid in sea...&quot;</text>
</g>
<!-- example.org/id/XYZ&#45;&gt;&quot;Description of the dataset to aid in sea...&quot; -->
<g id="edge2" class="edge">
<title>example.org/id/XYZ&#45;&gt;&quot;Description of the dataset to aid in sea...&quot;</title>
<path fill="none" stroke="#000000" d="M144.6447,-291.1595C161.1294,-295.0389 179.2701,-298.9977 196.0842,-302 257.6297,-312.9896 326.3483,-321.9848 384.3666,-328.6423"/>
<polygon fill="#000000" stroke="#000000" points="383.9937,-332.1223 394.325,-329.7742 384.7843,-325.1671 383.9937,-332.1223"/>
<text text-anchor="middle" x="264.0842" y="-324.8" font-family="Times,serif" font-size="14.00" fill="#000000">schema.org/description</text>
</g>
<!-- _ -->
<g id="node4" class="node">
<title>_</title>
<ellipse fill="none" stroke="#558855" cx="517.1194" cy="-288" rx="27" ry="18"/>
<text text-anchor="middle" x="517.1194" y="-284.3" font-family="Times,serif" font-size="14.00" fill="#000000">_</text>
</g>
<!-- example.org/id/XYZ&#45;&gt;_ -->
<g id="edge3" class="edge">
<title>example.org/id/XYZ&#45;&gt;_</title>
<path fill="none" stroke="#000000" d="M177.4803,-279.2725C270.6698,-281.6672 413.0144,-285.3249 479.9224,-287.0442"/>
<polygon fill="#000000" stroke="#000000" points="479.9072,-290.5448 489.9939,-287.303 480.0871,-283.5472 479.9072,-290.5448"/>
<text text-anchor="middle" x="264.0842" y="-286.8" font-family="Times,serif" font-size="14.00" fill="#000000">schema.org/distribution</text>
</g>
<!-- example.org/id/XYZ&#45;&gt;_ -->
<g id="edge6" class="edge">
<title>example.org/id/XYZ&#45;&gt;_</title>
<path fill="none" stroke="#000000" d="M155.0845,-264.8442C168.6013,-262.8267 182.7658,-261.051 196.0842,-260 256.3413,-255.2449 271.8101,-255.4654 332.0842,-260 384.3531,-263.9323 444.2298,-274.0287 481.3664,-280.9582"/>
<polygon fill="#000000" stroke="#000000" points="480.7363,-284.401 491.2127,-282.8209 482.0376,-277.523 480.7363,-284.401"/>
<text text-anchor="middle" x="264.0842" y="-263.8" font-family="Times,serif" font-size="14.00" fill="#000000">schema.org/subjectOf</text>
</g>
<!-- link.to/PID_like_re3_or_others -->
<g id="node5" class="node">
<title>link.to/PID_like_re3_or_others</title>
<ellipse fill="none" stroke="#558855" cx="517.1194" cy="-103" rx="128.0773" ry="18"/>
<text text-anchor="middle" x="517.1194" y="-99.3" font-family="Times,serif" font-size="14.00" fill="#000000">link.to/PID_like_re3_or_others</text>
</g>
<!-- example.org/id/XYZ&#45;&gt;link.to/PID_like_re3_or_others -->
<g id="edge4" class="edge">
<title>example.org/id/XYZ&#45;&gt;link.to/PID_like_re3_or_others</title>
<path fill="none" stroke="#000000" d="M128.9302,-260.7868C206.8533,-229.1134 379.2161,-159.0534 465.6256,-123.9306"/>
<polygon fill="#000000" stroke="#000000" points="467.0255,-127.1397 474.9715,-120.1318 464.3896,-120.655 467.0255,-127.1397"/>
<text text-anchor="middle" x="264.0842" y="-233.8" font-family="Times,serif" font-size="14.00" fill="#000000">schema.org/maintainer</text>
</g>
<!-- &quot;Name or title of the document&quot; -->
<g id="node6" class="node">
<title>&quot;Name or title of the document&quot;</title>
<ellipse fill="none" stroke="#000000" stroke-width="0" cx="517.1194" cy="-49" rx="129.9769" ry="18"/>
<text text-anchor="middle" x="517.1194" y="-45.3" font-family="Times,serif" font-size="14.00" fill="#000000">&quot;Name or title of the document&quot;</text>
</g>
<!-- example.org/id/XYZ&#45;&gt;&quot;Name or title of the document&quot; -->
<g id="edge5" class="edge">
<title>example.org/id/XYZ&#45;&gt;&quot;Name or title of the document&quot;</title>
<path fill="none" stroke="#000000" d="M102.3729,-259.0368C121.2389,-234.4794 157.7254,-190.0531 196.0842,-160 257.4557,-111.9172 276.3217,-101.2491 350.0842,-76 367.2818,-70.1132 385.9248,-65.4947 404.3096,-61.8754"/>
<polygon fill="#000000" stroke="#000000" points="405.0057,-65.306 414.1873,-60.0192 403.7129,-58.4264 405.0057,-65.306"/>
<text text-anchor="middle" x="264.0842" y="-163.8" font-family="Times,serif" font-size="14.00" fill="#000000">schema.org/name</text>
</g>
<!-- schema.org/DataDownload -->
<g id="node9" class="node">
<title>schema.org/DataDownload</title>
<ellipse fill="none" stroke="#558855" cx="1066.7884" cy="-505" rx="112.3801" ry="18"/>
<text text-anchor="middle" x="1066.7884" y="-501.3" font-family="Times,serif" font-size="14.00" fill="#000000">schema.org/DataDownload</text>
</g>
<!-- _&#45;&gt;schema.org/DataDownload -->
<g id="edge9" class="edge">
<title>_&#45;&gt;schema.org/DataDownload</title>
<path fill="none" stroke="#000000" d="M543.5555,-283.4918C580.7509,-278.822 648.0169,-276.8036 684.1546,-315 710.4147,-342.7562 674.432,-459.7043 702.1546,-486 737.7653,-519.7779 863.7195,-519.643 957.6869,-514.2638"/>
<polygon fill="#000000" stroke="#000000" points="958.0526,-517.7482 967.8253,-513.6563 957.6338,-510.7608 958.0526,-517.7482"/>
<text text-anchor="middle" x="784.1546" y="-519.8" font-family="Times,serif" font-size="14.00" fill="#000000">type</text>
</g>
<!-- _&#45;&gt;schema.org/DataDownload -->
<g id="edge12" class="edge">
<title>_&#45;&gt;schema.org/DataDownload</title>
<path fill="none" stroke="#000000" d="M543.3709,-283.6696C580.3418,-279.2161 647.3368,-277.4587 684.1546,-315 724.0715,-355.7015 662.0552,-401.4782 702.1546,-442 754.0163,-494.4081 796.3826,-443.1648 866.1546,-467 874.8148,-469.9585 875.4955,-474.0378 884.1546,-477 907.3623,-484.9392 933.0001,-490.6337 957.5457,-494.7162"/>
<polygon fill="#000000" stroke="#000000" points="957.1951,-498.2043 967.6198,-496.3135 958.2913,-491.2906 957.1951,-498.2043"/>
<text text-anchor="middle" x="784.1546" y="-470.8" font-family="Times,serif" font-size="14.00" fill="#000000">type</text>
</g>
<!-- &quot;https//www.sample&#45;data&#45;repository.org/da...&quot; -->
<g id="node10" class="node">
<title>&quot;https//www.sample&#45;data&#45;repository.org/da...&quot;</title>
<ellipse fill="none" stroke="#000000" stroke-width="0" cx="1066.7884" cy="-450" rx="181.168" ry="18"/>
<text text-anchor="middle" x="1066.7884" y="-446.3" font-family="Times,serif" font-size="14.00" fill="#000000">&quot;https//www.sample&#45;data&#45;repository.org/da...&quot;</text>
</g>
<!-- _&#45;&gt;&quot;https//www.sample&#45;data&#45;repository.org/da...&quot; -->
<g id="edge10" class="edge">
<title>_&#45;&gt;&quot;https//www.sample&#45;data&#45;repository.org/da...&quot;</title>
<path fill="none" stroke="#000000" d="M543.7405,-284.1451C580.2316,-280.4653 645.6384,-279.8538 684.1546,-315 707.8834,-336.6527 678.9252,-362.8122 702.1546,-385 719.7152,-401.7733 843.5173,-421.3843 942.063,-434.6436"/>
<polygon fill="#000000" stroke="#000000" points="941.7462,-438.1322 952.1215,-435.9868 942.6728,-431.1938 941.7462,-438.1322"/>
<text text-anchor="middle" x="784.1546" y="-426.8" font-family="Times,serif" font-size="14.00" fill="#000000">schema.org/contentUrl</text>
</g>
<!-- &quot;text/tab&#45;separated&#45;values&quot; -->
<g id="node11" class="node">
<title>&quot;text/tab&#45;separated&#45;values&quot;</title>
<ellipse fill="none" stroke="#000000" stroke-width="0" cx="1066.7884" cy="-396" rx="109.381" ry="18"/>
<text text-anchor="middle" x="1066.7884" y="-392.3" font-family="Times,serif" font-size="14.00" fill="#000000">&quot;text/tab&#45;separated&#45;values&quot;</text>
</g>
<!-- _&#45;&gt;&quot;text/tab&#45;separated&#45;values&quot; -->
<g id="edge11" class="edge">
<title>_&#45;&gt;&quot;text/tab&#45;separated&#45;values&quot;</title>
<path fill="none" stroke="#000000" d="M544.2474,-286.1422C579.2935,-285.0569 640.9233,-287.7301 684.1546,-315 696.0418,-322.4984 690.2389,-333.5469 702.1546,-341 771.54,-384.3998 803.2295,-356.7932 884.1546,-369 913.6393,-373.4475 945.8133,-378.2282 974.8282,-382.5126"/>
<polygon fill="#000000" stroke="#000000" points="974.546,-386.0087 984.9498,-384.0059 975.5678,-379.0837 974.546,-386.0087"/>
<text text-anchor="middle" x="784.1546" y="-369.8" font-family="Times,serif" font-size="14.00" fill="#000000">schema.org/encodingFormat</text>
</g>
<!-- &quot;2019&#45;06&#45;12T144415Z&quot; -->
<g id="node12" class="node">
<title>&quot;2019&#45;06&#45;12T144415Z&quot;</title>
<ellipse fill="none" stroke="#000000" stroke-width="0" cx="1066.7884" cy="-342" rx="104.7816" ry="18"/>
<text text-anchor="middle" x="1066.7884" y="-338.3" font-family="Times,serif" font-size="14.00" fill="#000000">&quot;2019&#45;06&#45;12T144415Z&quot;</text>
</g>
<!-- _&#45;&gt;&quot;2019&#45;06&#45;12T144415Z&quot; -->
<g id="edge13" class="edge">
<title>_&#45;&gt;&quot;2019&#45;06&#45;12T144415Z&quot;</title>
<path fill="none" stroke="#000000" d="M544.0802,-290.825C580.1006,-294.5863 645.9184,-301.4139 702.1546,-307 790.8519,-315.8107 891.725,-325.4649 964.8548,-332.3981"/>
<polygon fill="#000000" stroke="#000000" points="964.6999,-335.899 974.9855,-333.358 965.3602,-328.9302 964.6999,-335.899"/>
<text text-anchor="middle" x="784.1546" y="-325.8" font-family="Times,serif" font-size="14.00" fill="#000000">schema.org/dateModified</text>
</g>
<!-- &quot;EML metadata describing the dataset&quot; -->
<g id="node13" class="node">
<title>&quot;EML metadata describing the dataset&quot;</title>
<ellipse fill="none" stroke="#000000" stroke-width="0" cx="1066.7884" cy="-288" rx="155.1726" ry="18"/>
<text text-anchor="middle" x="1066.7884" y="-284.3" font-family="Times,serif" font-size="14.00" fill="#000000">&quot;EML metadata describing the dataset&quot;</text>
</g>
<!-- _&#45;&gt;&quot;EML metadata describing the dataset&quot; -->
<g id="edge14" class="edge">
<title>_&#45;&gt;&quot;EML metadata describing the dataset&quot;</title>
<path fill="none" stroke="#000000" d="M544.3775,-288C608.6005,-288 773.6084,-288 901.1496,-288"/>
<polygon fill="#000000" stroke="#000000" points="901.4264,-291.5001 911.4263,-288 901.4263,-284.5001 901.4264,-291.5001"/>
<text text-anchor="middle" x="784.1546" y="-291.8" font-family="Times,serif" font-size="14.00" fill="#000000">schema.org/description</text>
</g>
<!-- &quot;application/xml&quot; -->
<g id="node14" class="node">
<title>&quot;application/xml&quot;</title>
<ellipse fill="none" stroke="#000000" stroke-width="0" cx="1066.7884" cy="-234" rx="76.8869" ry="18"/>
<text text-anchor="middle" x="1066.7884" y="-230.3" font-family="Times,serif" font-size="14.00" fill="#000000">&quot;application/xml&quot;</text>
</g>
<!-- _&#45;&gt;&quot;application/xml&quot; -->
<g id="edge15" class="edge">
<title>_&#45;&gt;&quot;application/xml&quot;</title>
<path fill="none" stroke="#000000" d="M544.0802,-285.175C580.1006,-281.4137 645.9184,-274.5861 702.1546,-269 799.4648,-259.3338 911.4301,-248.6522 985.337,-241.6624"/>
<polygon fill="#000000" stroke="#000000" points="985.8813,-245.1267 995.5076,-240.7011 985.2226,-238.1577 985.8813,-245.1267"/>
<text text-anchor="middle" x="784.1546" y="-272.8" font-family="Times,serif" font-size="14.00" fill="#000000">schema.org/encodingFormat</text>
</g>
<!-- &quot;https//eml.ecoinformatics.org/eml&#45;2.2.0&quot; -->
<g id="node15" class="node">
<title>&quot;https//eml.ecoinformatics.org/eml&#45;2.2.0&quot;</title>
<ellipse fill="none" stroke="#000000" stroke-width="0" cx="1066.7884" cy="-180" rx="165.1707" ry="18"/>
<text text-anchor="middle" x="1066.7884" y="-176.3" font-family="Times,serif" font-size="14.00" fill="#000000">&quot;https//eml.ecoinformatics.org/eml&#45;2.2.0&quot;</text>
</g>
<!-- _&#45;&gt;&quot;https//eml.ecoinformatics.org/eml&#45;2.2.0&quot; -->
<g id="edge16" class="edge">
<title>_&#45;&gt;&quot;https//eml.ecoinformatics.org/eml&#45;2.2.0&quot;</title>
<path fill="none" stroke="#000000" d="M541.3881,-279.7611C576.4898,-268.1104 643.6406,-246.8156 702.1546,-234 782.0352,-216.5046 803.2626,-218.9796 884.1546,-207 908.2592,-203.4302 934.1541,-199.5995 958.65,-195.9776"/>
<polygon fill="#000000" stroke="#000000" points="959.3065,-199.4187 968.687,-194.4937 958.2826,-192.494 959.3065,-199.4187"/>
<text text-anchor="middle" x="784.1546" y="-237.8" font-family="Times,serif" font-size="14.00" fill="#000000">schema.org/encodingFormat</text>
</g>
<!-- &quot;eml&#45;metadata.xml&quot; -->
<g id="node16" class="node">
<title>&quot;eml&#45;metadata.xml&quot;</title>
<ellipse fill="none" stroke="#000000" stroke-width="0" cx="1066.7884" cy="-126" rx="85.2851" ry="18"/>
<text text-anchor="middle" x="1066.7884" y="-122.3" font-family="Times,serif" font-size="14.00" fill="#000000">&quot;eml&#45;metadata.xml&quot;</text>
</g>
<!-- _&#45;&gt;&quot;eml&#45;metadata.xml&quot; -->
<g id="edge17" class="edge">
<title>_&#45;&gt;&quot;eml&#45;metadata.xml&quot;</title>
<path fill="none" stroke="#000000" d="M536.5148,-275.3059C569.2934,-254.4203 638.3267,-212.8527 702.1546,-190 792.3107,-157.7208 901.0355,-141.3363 976.1769,-133.2787"/>
<polygon fill="#000000" stroke="#000000" points="976.9686,-136.7152 986.5513,-132.1962 976.2421,-129.753 976.9686,-136.7152"/>
<text text-anchor="middle" x="784.1546" y="-193.8" font-family="Times,serif" font-size="14.00" fill="#000000">schema.org/name</text>
</g>
<!-- schema.org/Organization -->
<g id="node7" class="node">
<title>schema.org/Organization</title>
<ellipse fill="none" stroke="#558855" cx="1066.7884" cy="-72" rx="103.9815" ry="18"/>
<text text-anchor="middle" x="1066.7884" y="-68.3" font-family="Times,serif" font-size="14.00" fill="#000000">schema.org/Organization</text>
</g>
<!-- link.to/PID_like_re3_or_others&#45;&gt;schema.org/Organization -->
<g id="edge7" class="edge">
<title>link.to/PID_like_re3_or_others&#45;&gt;schema.org/Organization</title>
<path fill="none" stroke="#000000" d="M628.629,-94.0387C652.8595,-92.238 678.3591,-90.4546 702.1546,-89 786.8847,-83.8205 882.7761,-79.407 954.9512,-76.3759"/>
<polygon fill="#000000" stroke="#000000" points="955.1292,-79.8716 964.9744,-75.9575 954.8371,-72.8777 955.1292,-79.8716"/>
<text text-anchor="middle" x="784.1546" y="-92.8" font-family="Times,serif" font-size="14.00" fill="#000000">type</text>
</g>
<!-- &quot;Organization or Person who maintains the...&quot; -->
<g id="node8" class="node">
<title>&quot;Organization or Person who maintains the...&quot;</title>
<ellipse fill="none" stroke="#000000" stroke-width="0" cx="1066.7884" cy="-18" rx="182.7677" ry="18"/>
<text text-anchor="middle" x="1066.7884" y="-14.3" font-family="Times,serif" font-size="14.00" fill="#000000">&quot;Organization or Person who maintains the...&quot;</text>
</g>
<!-- link.to/PID_like_re3_or_others&#45;&gt;&quot;Organization or Person who maintains the...&quot; -->
<g id="edge8" class="edge">
<title>link.to/PID_like_re3_or_others&#45;&gt;&quot;Organization or Person who maintains the...&quot;</title>
<path fill="none" stroke="#000000" d="M627.4164,-93.7417C646.8632,-89.7262 666.5115,-84.0381 684.1546,-76 693.6311,-71.6825 692.5877,-65.1133 702.1546,-61 755.464,-38.0793 816.9685,-26.0224 874.0986,-20.0013"/>
<polygon fill="#000000" stroke="#000000" points="874.7354,-23.4553 884.3391,-18.981 874.0414,-16.4898 874.7354,-23.4553"/>
<text text-anchor="middle" x="784.1546" y="-64.8" font-family="Times,serif" font-size="14.00" fill="#000000">schema.org/description</text>
</g>
</g>
</svg>
