<?xml version="1.0" encoding="UTF-8" standalone="no"?>
<!DOCTYPE svg PUBLIC "-//W3C//DTD SVG 1.1//EN"
 "http://www.w3.org/Graphics/SVG/1.1/DTD/svg11.dtd">
<!-- Generated by graphviz version 5.0.0 (0)
 -->
<!-- Pages: 1 -->
<svg width="1006pt" height="206pt"
 viewBox="0.00 0.00 1005.93 206.00" xmlns="http://www.w3.org/2000/svg" xmlns:xlink="http://www.w3.org/1999/xlink">
<g id="graph0" class="graph" transform="scale(1 1) rotate(0) translate(4 202)">
<polygon fill="white" stroke="transparent" points="-4,4 -4,-202 1001.93,-202 1001.93,4 -4,4"/>
<!-- _ -->
<g id="node1" class="node">
<title>_</title>
<ellipse fill="none" stroke="#558855" cx="421.87" cy="-126" rx="27" ry="18"/>
<text text-anchor="middle" x="421.87" y="-122.3" font-family="Times,serif" font-size="14.00">_</text>
</g>
<!-- &quot;POINT(&#45;76 &#45;18)&quot; -->
<g id="node5" class="node">
<title>&quot;POINT(&#45;76 &#45;18)&quot;</title>
<ellipse fill="none" stroke="black" stroke-width="0" cx="796.45" cy="-180" rx="89.08" ry="18"/>
<text text-anchor="middle" x="796.45" y="-176.3" font-family="Times,serif" font-size="14.00">&quot;POINT(&#45;76 &#45;18)&quot;</text>
</g>
<!-- _&#45;&gt;&quot;POINT(&#45;76 &#45;18)&quot; -->
<g id="edge4" class="edge">
<title>_&#45;&gt;&quot;POINT(&#45;76 &#45;18)&quot;</title>
<path fill="none" stroke="black" d="M448.05,-130.97C469.1,-135.03 499.92,-140.77 526.97,-145 587.61,-154.48 656.25,-163.4 708.94,-169.86"/>
<polygon fill="black" stroke="black" points="708.57,-173.34 718.92,-171.07 709.42,-166.39 708.57,-173.34"/>
<text text-anchor="middle" x="551.97" y="-154.8" font-family="Times,serif" font-size="14.00">asWKT</text>
</g>
<!-- www.opengis.net/def/crs/OGC/1.3/CRS84 -->
<g id="node6" class="node">
<title>www.opengis.net/def/crs/OGC/1.3/CRS84</title>
<ellipse fill="none" stroke="#558855" cx="796.45" cy="-126" rx="201.46" ry="18"/>
<text text-anchor="middle" x="796.45" y="-122.3" font-family="Times,serif" font-size="14.00">www.opengis.net/def/crs/OGC/1.3/CRS84</text>
</g>
<!-- _&#45;&gt;www.opengis.net/def/crs/OGC/1.3/CRS84 -->
<g id="edge5" class="edge">
<title>_&#45;&gt;www.opengis.net/def/crs/OGC/1.3/CRS84</title>
<path fill="none" stroke="black" d="M449.07,-126C478.78,-126 530.17,-126 584.41,-126"/>
<polygon fill="black" stroke="black" points="584.57,-129.5 594.57,-126 584.57,-122.5 584.57,-129.5"/>
<text text-anchor="middle" x="551.97" y="-129.8" font-family="Times,serif" font-size="14.00">crs</text>
</g>
<!-- Point -->
<g id="node7" class="node">
<title>Point</title>
<ellipse fill="none" stroke="#558855" cx="796.45" cy="-72" rx="34.39" ry="18"/>
<text text-anchor="middle" x="796.45" y="-68.3" font-family="Times,serif" font-size="14.00">Point</text>
</g>
<!-- _&#45;&gt;Point -->
<g id="edge6" class="edge">
<title>_&#45;&gt;Point</title>
<path fill="none" stroke="black" d="M448.05,-121.03C469.1,-116.97 499.92,-111.23 526.97,-107 606.43,-94.58 699.6,-83.13 752.66,-76.9"/>
<polygon fill="black" stroke="black" points="753.2,-80.36 762.72,-75.72 752.38,-73.41 753.2,-80.36"/>
<text text-anchor="middle" x="551.97" y="-110.8" font-family="Times,serif" font-size="14.00">type</text>
</g>
<!-- example.org/id/XYZ -->
<g id="node2" class="node">
<title>example.org/id/XYZ</title>
<ellipse fill="none" stroke="black" cx="101.39" cy="-72" rx="101.28" ry="18"/>
<text text-anchor="middle" x="101.39" y="-68.3" font-family="Times,serif" font-size="14.00">example.org/id/XYZ</text>
</g>
<!-- example.org/id/XYZ&#45;&gt;_ -->
<g id="edge1" class="edge">
<title>example.org/id/XYZ&#45;&gt;_</title>
<path fill="none" stroke="black" d="M175.46,-84.39C241.12,-95.52 334.77,-111.4 385.28,-119.97"/>
<polygon fill="black" stroke="black" points="384.94,-123.46 395.38,-121.68 386.11,-116.56 384.94,-123.46"/>
<text text-anchor="middle" x="268.78" y="-109.8" font-family="Times,serif" font-size="14.00">hasGeometry</text>
</g>
<!-- Dataset -->
<g id="node3" class="node">
<title>Dataset</title>
<ellipse fill="none" stroke="#558855" cx="421.87" cy="-72" rx="46.59" ry="18"/>
<text text-anchor="middle" x="421.87" y="-68.3" font-family="Times,serif" font-size="14.00">Dataset</text>
</g>
<!-- example.org/id/XYZ&#45;&gt;Dataset -->
<g id="edge2" class="edge">
<title>example.org/id/XYZ&#45;&gt;Dataset</title>
<path fill="none" stroke="black" d="M203.16,-72C256.59,-72 320.21,-72 364.84,-72"/>
<polygon fill="black" stroke="black" points="364.9,-75.5 374.9,-72 364.9,-68.5 364.9,-75.5"/>
<text text-anchor="middle" x="268.78" y="-75.8" font-family="Times,serif" font-size="14.00">type</text>
</g>
<!-- &quot;Data set name&quot; -->
<g id="node4" class="node">
<title>&quot;Data set name&quot;</title>
<ellipse fill="none" stroke="black" stroke-width="0" cx="421.87" cy="-18" rx="87.18" ry="18"/>
<text text-anchor="middle" x="421.87" y="-14.3" font-family="Times,serif" font-size="14.00">&quot;Data set name&quot;</text>
</g>
<!-- example.org/id/XYZ&#45;&gt;&quot;Data set name&quot; -->
<g id="edge3" class="edge">
<title>example.org/id/XYZ&#45;&gt;&quot;Data set name&quot;</title>
<path fill="none" stroke="black" d="M175.46,-59.61C225.9,-51.06 292.86,-39.71 344.09,-31.02"/>
<polygon fill="black" stroke="black" points="344.84,-34.44 354.12,-29.32 343.67,-27.54 344.84,-34.44"/>
<text text-anchor="middle" x="268.78" y="-54.8" font-family="Times,serif" font-size="14.00">name</text>
</g>
</g>
</svg>
