<?xml version="1.0" encoding="UTF-8" standalone="no"?>
<!DOCTYPE svg PUBLIC "-//W3C//DTD SVG 1.1//EN"
 "http://www.w3.org/Graphics/SVG/1.1/DTD/svg11.dtd">
<!-- Generated by graphviz version 5.0.0 (0)
 -->
<!-- Pages: 1 -->
<svg width="1135pt" height="260pt"
 viewBox="0.00 0.00 1135.32 260.00" xmlns="http://www.w3.org/2000/svg" xmlns:xlink="http://www.w3.org/1999/xlink">
<g id="graph0" class="graph" transform="scale(1 1) rotate(0) translate(4 256)">
<polygon fill="white" stroke="transparent" points="-4,4 -4,-256 1131.32,-256 1131.32,4 -4,4"/>
<!-- CreativeWork -->
<g id="node1" class="node">
<title>CreativeWork</title>
<ellipse fill="none" stroke="#558855" cx="514.26" cy="-180" rx="74.19" ry="18"/>
<text text-anchor="middle" x="514.26" y="-176.3" font-family="Times,serif" font-size="14.00">CreativeWork</text>
</g>
<!-- example.org/id/XYZ -->
<g id="node2" class="node">
<title>example.org/id/XYZ</title>
<ellipse fill="none" stroke="black" cx="101.39" cy="-153" rx="101.28" ry="18"/>
<text text-anchor="middle" x="101.39" y="-149.3" font-family="Times,serif" font-size="14.00">example.org/id/XYZ</text>
</g>
<!-- example.org/id/XYZ&#45;&gt;CreativeWork -->
<g id="edge1" class="edge">
<title>example.org/id/XYZ&#45;&gt;CreativeWork</title>
<path fill="none" stroke="black" d="M196.65,-159.19C267.86,-163.87 364.58,-170.23 432.31,-174.68"/>
<polygon fill="black" stroke="black" points="432.3,-178.19 442.51,-175.35 432.76,-171.2 432.3,-178.19"/>
<text text-anchor="middle" x="244.78" y="-166.8" font-family="Times,serif" font-size="14.00">type</text>
</g>
<!-- www.sample&#45;data&#45;repository.org/person/51317 -->
<g id="node3" class="node">
<title>www.sample&#45;data&#45;repository.org/person/51317</title>
<ellipse fill="none" stroke="#558855" cx="514.26" cy="-126" rx="227.46" ry="18"/>
<text text-anchor="middle" x="514.26" y="-122.3" font-family="Times,serif" font-size="14.00">www.sample&#45;data&#45;repository.org/person/51317</text>
</g>
<!-- example.org/id/XYZ&#45;&gt;www.sample&#45;data&#45;repository.org/person/51317 -->
<g id="edge2" class="edge">
<title>example.org/id/XYZ&#45;&gt;www.sample&#45;data&#45;repository.org/person/51317</title>
<path fill="none" stroke="black" d="M188.67,-143.75C199.47,-142.74 210.38,-141.79 220.78,-141 248.22,-138.91 277.13,-137.03 305.66,-135.37"/>
<polygon fill="black" stroke="black" points="305.95,-138.86 315.73,-134.79 305.55,-131.87 305.95,-138.86"/>
<text text-anchor="middle" x="244.78" y="-144.8" font-family="Times,serif" font-size="14.00">author</text>
</g>
<!-- Person -->
<g id="node4" class="node">
<title>Person</title>
<ellipse fill="none" stroke="#558855" cx="996.03" cy="-234" rx="42.49" ry="18"/>
<text text-anchor="middle" x="996.03" y="-230.3" font-family="Times,serif" font-size="14.00">Person</text>
</g>
<!-- www.sample&#45;data&#45;repository.org/person/51317&#45;&gt;Person -->
<g id="edge3" class="edge">
<title>www.sample&#45;data&#45;repository.org/person/51317&#45;&gt;Person</title>
<path fill="none" stroke="black" d="M705.64,-135.79C718.32,-140.31 730.5,-145.96 741.74,-153 754.28,-160.85 747.71,-172.39 759.74,-181 798.84,-208.98 817.86,-196.34 864.74,-207 892.06,-213.21 922.74,-219.6 947.46,-224.6"/>
<polygon fill="black" stroke="black" points="946.82,-228.04 957.32,-226.58 948.21,-221.18 946.82,-228.04"/>
<text text-anchor="middle" x="803.24" y="-206.8" font-family="Times,serif" font-size="14.00">type</text>
</g>
<!-- &quot;Passow&quot; -->
<g id="node5" class="node">
<title>&quot;Passow&quot;</title>
<ellipse fill="none" stroke="black" stroke-width="0" cx="996.03" cy="-180" rx="53.89" ry="18"/>
<text text-anchor="middle" x="996.03" y="-176.3" font-family="Times,serif" font-size="14.00">&quot;Passow&quot;</text>
</g>
<!-- www.sample&#45;data&#45;repository.org/person/51317&#45;&gt;&quot;Passow&quot; -->
<g id="edge4" class="edge">
<title>www.sample&#45;data&#45;repository.org/person/51317&#45;&gt;&quot;Passow&quot;</title>
<path fill="none" stroke="black" d="M646.04,-140.72C740.06,-151.3 862.48,-165.08 934.54,-173.19"/>
<polygon fill="black" stroke="black" points="934.46,-176.7 944.79,-174.35 935.25,-169.75 934.46,-176.7"/>
<text text-anchor="middle" x="803.24" y="-165.8" font-family="Times,serif" font-size="14.00">familyName</text>
</g>
<!-- &quot;Uta&quot; -->
<g id="node6" class="node">
<title>&quot;Uta&quot;</title>
<ellipse fill="none" stroke="black" stroke-width="0" cx="996.03" cy="-126" rx="36.29" ry="18"/>
<text text-anchor="middle" x="996.03" y="-122.3" font-family="Times,serif" font-size="14.00">&quot;Uta&quot;</text>
</g>
<!-- www.sample&#45;data&#45;repository.org/person/51317&#45;&gt;&quot;Uta&quot; -->
<g id="edge5" class="edge">
<title>www.sample&#45;data&#45;repository.org/person/51317&#45;&gt;&quot;Uta&quot;</title>
<path fill="none" stroke="black" d="M741.8,-126C820.23,-126 900.58,-126 949.15,-126"/>
<polygon fill="black" stroke="black" points="949.31,-129.5 959.31,-126 949.31,-122.5 949.31,-129.5"/>
<text text-anchor="middle" x="803.24" y="-129.8" font-family="Times,serif" font-size="14.00">givenName</text>
</g>
<!-- &quot;Dr Uta Passow&quot; -->
<g id="node7" class="node">
<title>&quot;Dr Uta Passow&quot;</title>
<ellipse fill="none" stroke="black" stroke-width="0" cx="996.03" cy="-72" rx="88.28" ry="18"/>
<text text-anchor="middle" x="996.03" y="-68.3" font-family="Times,serif" font-size="14.00">&quot;Dr Uta Passow&quot;</text>
</g>
<!-- www.sample&#45;data&#45;repository.org/person/51317&#45;&gt;&quot;Dr Uta Passow&quot; -->
<g id="edge6" class="edge">
<title>www.sample&#45;data&#45;repository.org/person/51317&#45;&gt;&quot;Dr Uta Passow&quot;</title>
<path fill="none" stroke="black" d="M646.04,-111.28C729.39,-101.9 835.05,-90.01 908.17,-81.78"/>
<polygon fill="black" stroke="black" points="908.71,-85.24 918.26,-80.64 907.93,-78.28 908.71,-85.24"/>
<text text-anchor="middle" x="803.24" y="-100.8" font-family="Times,serif" font-size="14.00">name</text>
</g>
<!-- &quot;https//www.sample&#45;da...&quot; -->
<g id="node8" class="node">
<title>&quot;https//www.sample&#45;da...&quot;</title>
<ellipse fill="none" stroke="black" stroke-width="0" cx="996.03" cy="-18" rx="131.08" ry="18"/>
<text text-anchor="middle" x="996.03" y="-14.3" font-family="Times,serif" font-size="14.00">&quot;https//www.sample&#45;da...&quot;</text>
</g>
<!-- www.sample&#45;data&#45;repository.org/person/51317&#45;&gt;&quot;https//www.sample&#45;da...&quot; -->
<g id="edge7" class="edge">
<title>www.sample&#45;data&#45;repository.org/person/51317&#45;&gt;&quot;https//www.sample&#45;da...&quot;</title>
<path fill="none" stroke="black" d="M586.77,-108.91C657.33,-92.17 768.32,-66.16 864.74,-45 879.83,-41.69 895.92,-38.27 911.46,-35.02"/>
<polygon fill="black" stroke="black" points="912.51,-38.37 921.58,-32.91 911.08,-31.52 912.51,-38.37"/>
<text text-anchor="middle" x="803.24" y="-69.8" font-family="Times,serif" font-size="14.00">url</text>
</g>
</g>
</svg>
