<?xml version="1.0" encoding="UTF-8" standalone="no"?>
<!DOCTYPE svg PUBLIC "-//W3C//DTD SVG 1.1//EN"
 "http://www.w3.org/Graphics/SVG/1.1/DTD/svg11.dtd">
<!-- Generated by graphviz version 5.0.0 (0)
 -->
<!-- Pages: 1 -->
<svg width="714pt" height="98pt"
 viewBox="0.00 0.00 713.85 98.00" xmlns="http://www.w3.org/2000/svg" xmlns:xlink="http://www.w3.org/1999/xlink">
<g id="graph0" class="graph" transform="scale(1 1) rotate(0) translate(4 94)">
<polygon fill="white" stroke="transparent" points="-4,4 -4,-94 709.85,-94 709.85,4 -4,4"/>
<!-- Dataset -->
<g id="node1" class="node">
<title>Dataset</title>
<ellipse fill="none" stroke="#558855" cx="575.21" cy="-72" rx="46.59" ry="18"/>
<text text-anchor="middle" x="575.21" y="-68.3" font-family="Times,serif" font-size="14.00">Dataset</text>
</g>
<!-- example.org/dataset/12345 -->
<g id="node2" class="node">
<title>example.org/dataset/12345</title>
<ellipse fill="none" stroke="black" cx="137.79" cy="-45" rx="137.58" ry="18"/>
<text text-anchor="middle" x="137.79" y="-41.3" font-family="Times,serif" font-size="14.00">example.org/dataset/12345</text>
</g>
<!-- example.org/dataset/12345&#45;&gt;Dataset -->
<g id="edge1" class="edge">
<title>example.org/dataset/12345&#45;&gt;Dataset</title>
<path fill="none" stroke="black" d="M262.69,-52.68C346.99,-57.91 454.5,-64.58 518.65,-68.55"/>
<polygon fill="black" stroke="black" points="518.75,-72.07 528.95,-69.19 519.19,-65.08 518.75,-72.07"/>
<text text-anchor="middle" x="360.08" y="-65.8" font-family="Times,serif" font-size="14.00">type</text>
</g>
<!-- &quot;2012&#45;09&#45;20/2016&#45;01&#45;2...&quot; -->
<g id="node3" class="node">
<title>&quot;2012&#45;09&#45;20/2016&#45;01&#45;2...&quot;</title>
<ellipse fill="none" stroke="black" stroke-width="0" cx="575.21" cy="-18" rx="130.78" ry="18"/>
<text text-anchor="middle" x="575.21" y="-14.3" font-family="Times,serif" font-size="14.00">&quot;2012&#45;09&#45;20/2016&#45;01&#45;2...&quot;</text>
</g>
<!-- example.org/dataset/12345&#45;&gt;&quot;2012&#45;09&#45;20/2016&#45;01&#45;2...&quot; -->
<g id="edge2" class="edge">
<title>example.org/dataset/12345&#45;&gt;&quot;2012&#45;09&#45;20/2016&#45;01&#45;2...&quot;</title>
<path fill="none" stroke="black" d="M262.69,-37.32C319.84,-33.77 387.67,-29.57 445.41,-25.99"/>
<polygon fill="black" stroke="black" points="445.93,-29.46 455.7,-25.35 445.5,-22.47 445.93,-29.46"/>
<text text-anchor="middle" x="360.08" y="-37.8" font-family="Times,serif" font-size="14.00">temporalCoverage</text>
</g>
</g>
</svg>
