<?xml version="1.0" encoding="UTF-8" standalone="no"?>
<!DOCTYPE svg PUBLIC "-//W3C//DTD SVG 1.1//EN"
 "http://www.w3.org/Graphics/SVG/1.1/DTD/svg11.dtd">
<!-- Generated by graphviz version 5.0.0 (0)
 -->
<!-- Pages: 1 -->
<svg width="1045pt" height="209pt"
 viewBox="0.00 0.00 1045.33 209.00" xmlns="http://www.w3.org/2000/svg" xmlns:xlink="http://www.w3.org/1999/xlink">
<g id="graph0" class="graph" transform="scale(1 1) rotate(0) translate(4 205)">
<polygon fill="white" stroke="transparent" points="-4,4 -4,-205 1041.33,-205 1041.33,4 -4,4"/>
<!-- CreativeWork -->
<g id="node1" class="node">
<title>CreativeWork</title>
<ellipse fill="none" stroke="#558855" cx="903.44" cy="-183" rx="74.19" ry="18"/>
<text text-anchor="middle" x="903.44" y="-179.3" font-family="Times,serif" font-size="14.00">CreativeWork</text>
</g>
<!-- purl.unep.org/sdg/SDGIO_00020173 -->
<g id="node2" class="node">
<title>purl.unep.org/sdg/SDGIO_00020173</title>
<ellipse fill="none" stroke="#558855" cx="473.17" cy="-122" rx="179.27" ry="18"/>
<text text-anchor="middle" x="473.17" y="-118.3" font-family="Times,serif" font-size="14.00">purl.unep.org/sdg/SDGIO_00020173</text>
</g>
<!-- purl.unep.org/sdg/SDGIO_00020173&#45;&gt;CreativeWork -->
<g id="edge1" class="edge">
<title>purl.unep.org/sdg/SDGIO_00020173&#45;&gt;CreativeWork</title>
<path fill="none" stroke="black" d="M578.9,-136.6C630.84,-143.87 694.5,-152.83 751.55,-161 777,-164.64 804.86,-168.69 829.63,-172.31"/>
<polygon fill="black" stroke="black" points="829.28,-175.79 839.68,-173.78 830.29,-168.87 829.28,-175.79"/>
<text text-anchor="middle" x="711.05" y="-164.8" font-family="Times,serif" font-size="14.00">type</text>
</g>
<!-- &quot;Number of countries ...&quot; -->
<g id="node3" class="node">
<title>&quot;Number of countries ...&quot;</title>
<ellipse fill="none" stroke="black" stroke-width="0" cx="903.44" cy="-126" rx="127.28" ry="18"/>
<text text-anchor="middle" x="903.44" y="-122.3" font-family="Times,serif" font-size="14.00">&quot;Number of countries ...&quot;</text>
</g>
<!-- purl.unep.org/sdg/SDGIO_00020173&#45;&gt;&quot;Number of countries ...&quot; -->
<g id="edge2" class="edge">
<title>purl.unep.org/sdg/SDGIO_00020173&#45;&gt;&quot;Number of countries ...&quot;</title>
<path fill="none" stroke="black" d="M652.85,-122.22C685.68,-122.38 719.65,-122.63 751.55,-123 756.66,-123.06 761.87,-123.13 767.12,-123.2"/>
<polygon fill="black" stroke="black" points="767.24,-126.71 777.29,-123.36 767.34,-119.71 767.24,-126.71"/>
<text text-anchor="middle" x="711.05" y="-126.8" font-family="Times,serif" font-size="14.00">description</text>
</g>
<!-- &quot;UNSD SDG indicator c...&quot; -->
<g id="node4" class="node">
<title>&quot;UNSD SDG indicator c...&quot;</title>
<ellipse fill="none" stroke="black" stroke-width="0" cx="903.44" cy="-72" rx="133.78" ry="18"/>
<text text-anchor="middle" x="903.44" y="-68.3" font-family="Times,serif" font-size="14.00">&quot;UNSD SDG indicator c...&quot;</text>
</g>
<!-- purl.unep.org/sdg/SDGIO_00020173&#45;&gt;&quot;UNSD SDG indicator c...&quot; -->
<g id="edge3" class="edge">
<title>purl.unep.org/sdg/SDGIO_00020173&#45;&gt;&quot;UNSD SDG indicator c...&quot;</title>
<path fill="none" stroke="black" d="M590.91,-108.37C653.44,-101.07 730.04,-92.13 791.64,-84.94"/>
<polygon fill="black" stroke="black" points="792.25,-88.39 801.78,-83.75 791.44,-81.44 792.25,-88.39"/>
<text text-anchor="middle" x="711.05" y="-101.8" font-family="Times,serif" font-size="14.00">name</text>
</g>
<!-- &quot;http//www.ontobee.or...&quot; -->
<g id="node5" class="node">
<title>&quot;http//www.ontobee.or...&quot;</title>
<ellipse fill="none" stroke="black" stroke-width="0" cx="903.44" cy="-18" rx="128.08" ry="18"/>
<text text-anchor="middle" x="903.44" y="-14.3" font-family="Times,serif" font-size="14.00">&quot;http//www.ontobee.or...&quot;</text>
</g>
<!-- purl.unep.org/sdg/SDGIO_00020173&#45;&gt;&quot;http//www.ontobee.or...&quot; -->
<g id="edge4" class="edge">
<title>purl.unep.org/sdg/SDGIO_00020173&#45;&gt;&quot;http//www.ontobee.or...&quot;</title>
<path fill="none" stroke="black" d="M535.02,-105.1C594.58,-88.8 687.98,-63.9 769.55,-45 785.03,-41.41 801.58,-37.84 817.57,-34.52"/>
<polygon fill="black" stroke="black" points="818.34,-37.94 827.43,-32.49 816.93,-31.08 818.34,-37.94"/>
<text text-anchor="middle" x="711.05" y="-71.8" font-family="Times,serif" font-size="14.00">url</text>
</g>
<!-- example.org/id/XYZ -->
<g id="node6" class="node">
<title>example.org/id/XYZ</title>
<ellipse fill="none" stroke="black" cx="101.39" cy="-156" rx="101.28" ry="18"/>
<text text-anchor="middle" x="101.39" y="-152.3" font-family="Times,serif" font-size="14.00">example.org/id/XYZ</text>
</g>
<!-- example.org/id/XYZ&#45;&gt;CreativeWork -->
<g id="edge5" class="edge">
<title>example.org/id/XYZ&#45;&gt;CreativeWork</title>
<path fill="none" stroke="black" d="M195.76,-162.66C204.22,-163.15 212.65,-163.61 220.78,-164 436.38,-174.28 690.61,-179.56 819.11,-181.74"/>
<polygon fill="black" stroke="black" points="819.21,-185.24 829.27,-181.91 819.33,-178.24 819.21,-185.24"/>
<text text-anchor="middle" x="473.17" y="-181.8" font-family="Times,serif" font-size="14.00">type</text>
</g>
<!-- example.org/id/XYZ&#45;&gt;purl.unep.org/sdg/SDGIO_00020173 -->
<g id="edge6" class="edge">
<title>example.org/id/XYZ&#45;&gt;purl.unep.org/sdg/SDGIO_00020173</title>
<path fill="none" stroke="black" d="M191.9,-147.77C233.32,-143.96 283.54,-139.34 329.95,-135.08"/>
<polygon fill="black" stroke="black" points="330.47,-138.54 340.1,-134.14 329.83,-131.57 330.47,-138.54"/>
<text text-anchor="middle" x="248.28" y="-148.8" font-family="Times,serif" font-size="14.00">citation</text>
</g>
</g>
</svg>
