<?xml version="1.0" encoding="UTF-8" standalone="no"?>
<!DOCTYPE svg PUBLIC "-//W3C//DTD SVG 1.1//EN"
 "http://www.w3.org/Graphics/SVG/1.1/DTD/svg11.dtd">
<!-- Generated by graphviz version 5.0.0 (0)
 -->
<!-- Pages: 1 -->
<svg width="728pt" height="109pt"
 viewBox="0.00 0.00 728.15 109.00" xmlns="http://www.w3.org/2000/svg" xmlns:xlink="http://www.w3.org/1999/xlink">
<g id="graph0" class="graph" transform="scale(1 1) rotate(0) translate(4 105)">
<polygon fill="white" stroke="transparent" points="-4,4 -4,-105 724.15,-105 724.15,4 -4,4"/>
<!-- Dataset -->
<g id="node1" class="node">
<title>Dataset</title>
<ellipse fill="none" stroke="#558855" cx="601.87" cy="-83" rx="46.59" ry="18"/>
<text text-anchor="middle" x="601.87" y="-79.3" font-family="Times,serif" font-size="14.00">Dataset</text>
</g>
<!-- example.org/dataset/12345 -->
<g id="node2" class="node">
<title>example.org/dataset/12345</title>
<ellipse fill="none" stroke="black" cx="137.79" cy="-45" rx="137.58" ry="18"/>
<text text-anchor="middle" x="137.79" y="-41.3" font-family="Times,serif" font-size="14.00">example.org/dataset/12345</text>
</g>
<!-- example.org/dataset/12345&#45;&gt;Dataset -->
<g id="edge1" class="edge">
<title>example.org/dataset/12345&#45;&gt;Dataset</title>
<path fill="none" stroke="black" d="M254.79,-54.54C347.8,-62.19 474.19,-72.58 545.66,-78.46"/>
<polygon fill="black" stroke="black" points="545.54,-81.96 555.79,-79.29 546.12,-74.99 545.54,-81.96"/>
<text text-anchor="middle" x="379.58" y="-74.8" font-family="Times,serif" font-size="14.00">type</text>
</g>
<!-- &quot;http//dx.doi.org/10....&quot; -->
<g id="node3" class="node">
<title>&quot;http//dx.doi.org/10....&quot;</title>
<ellipse fill="none" stroke="black" stroke-width="0" cx="601.87" cy="-18" rx="118.08" ry="18"/>
<text text-anchor="middle" x="601.87" y="-14.3" font-family="Times,serif" font-size="14.00">&quot;http//dx.doi.org/10....&quot;</text>
</g>
<!-- example.org/dataset/12345&#45;&gt;&quot;http//dx.doi.org/10....&quot; -->
<g id="edge2" class="edge">
<title>example.org/dataset/12345&#45;&gt;&quot;http//dx.doi.org/10....&quot;</title>
<path fill="none" stroke="black" d="M263.83,-37.69C331.33,-33.75 414.24,-28.91 480.93,-25.01"/>
<polygon fill="black" stroke="black" points="481.29,-28.49 491.07,-24.42 480.88,-21.5 481.29,-28.49"/>
<text text-anchor="middle" x="379.58" y="-38.8" font-family="Times,serif" font-size="14.00">measurementTechnique</text>
</g>
<!-- example.org/dataset/12345&#45;&gt;&quot;http//dx.doi.org/10....&quot; -->
<g id="edge3" class="edge">
<title>example.org/dataset/12345&#45;&gt;&quot;http//dx.doi.org/10....&quot;</title>
<path fill="none" stroke="black" d="M191.19,-28.37C220.88,-19.81 258.92,-10.3 293.58,-6 369.44,3.41 389.21,-2.62 465.58,-6 474.22,-6.38 483.16,-6.9 492.15,-7.51"/>
<polygon fill="black" stroke="black" points="492.07,-11.01 502.29,-8.23 492.56,-4.03 492.07,-11.01"/>
<text text-anchor="middle" x="379.58" y="-9.8" font-family="Times,serif" font-size="14.00">measurementTechnique</text>
</g>
</g>
</svg>
