<?xml version="1.0" encoding="UTF-8" standalone="no"?>
<!DOCTYPE svg PUBLIC "-//W3C//DTD SVG 1.1//EN"
 "http://www.w3.org/Graphics/SVG/1.1/DTD/svg11.dtd">
<!-- Generated by graphviz version 5.0.0 (0)
 -->
<!-- Pages: 1 -->
<svg width="824pt" height="324pt"
 viewBox="0.00 0.00 823.85 324.00" xmlns="http://www.w3.org/2000/svg" xmlns:xlink="http://www.w3.org/1999/xlink">
<g id="graph0" class="graph" transform="scale(1 1) rotate(0) translate(4 320)">
<polygon fill="white" stroke="transparent" points="-4,4 -4,-320 819.85,-320 819.85,4 -4,4"/>
<!-- Person -->
<g id="node1" class="node">
<title>Person</title>
<ellipse fill="none" stroke="#558855" cx="332.03" cy="-227" rx="42.49" ry="18"/>
<text text-anchor="middle" x="332.03" y="-223.3" font-family="Times,serif" font-size="14.00">Person</text>
</g>
<!-- example.org/id/x -->
<g id="node2" class="node">
<title>example.org/id/x</title>
<ellipse fill="none" stroke="black" cx="88.39" cy="-189" rx="88.28" ry="18"/>
<text text-anchor="middle" x="88.39" y="-185.3" font-family="Times,serif" font-size="14.00">example.org/id/x</text>
</g>
<!-- example.org/id/x&#45;&gt;Person -->
<g id="edge1" class="edge">
<title>example.org/id/x&#45;&gt;Person</title>
<path fill="none" stroke="black" d="M158.96,-199.94C198.3,-206.13 246.53,-213.71 281.92,-219.28"/>
<polygon fill="black" stroke="black" points="281.57,-222.77 292,-220.86 282.66,-215.85 281.57,-222.77"/>
<text text-anchor="middle" x="233.28" y="-219.8" font-family="Times,serif" font-size="14.00">type</text>
</g>
<!-- _ -->
<g id="node3" class="node">
<title>_</title>
<ellipse fill="none" stroke="#558855" cx="332.03" cy="-162" rx="27" ry="18"/>
<text text-anchor="middle" x="332.03" y="-158.3" font-family="Times,serif" font-size="14.00">_</text>
</g>
<!-- example.org/id/x&#45;&gt;_ -->
<g id="edge2" class="edge">
<title>example.org/id/x&#45;&gt;_</title>
<path fill="none" stroke="black" d="M166.18,-180.42C209.33,-175.6 261.15,-169.81 295.03,-166.02"/>
<polygon fill="black" stroke="black" points="295.81,-169.46 305.36,-164.87 295.03,-162.5 295.81,-169.46"/>
<text text-anchor="middle" x="233.28" y="-180.8" font-family="Times,serif" font-size="14.00">nationality</text>
</g>
<!-- example.org/id/x&#45;&gt;_ -->
<g id="edge3" class="edge">
<title>example.org/id/x&#45;&gt;_</title>
<path fill="none" stroke="black" d="M124.6,-172.4C144.68,-163.85 170.59,-154.33 194.78,-150 228.47,-143.97 237.73,-146.59 271.78,-150 279.86,-150.81 288.47,-152.23 296.54,-153.81"/>
<polygon fill="black" stroke="black" points="295.9,-157.25 306.41,-155.87 297.33,-150.4 295.9,-157.25"/>
<text text-anchor="middle" x="233.28" y="-153.8" font-family="Times,serif" font-size="14.00">nationality</text>
</g>
<!-- DefinedTerm -->
<g id="node4" class="node">
<title>DefinedTerm</title>
<ellipse fill="none" stroke="#558855" cx="678.06" cy="-292" rx="70.39" ry="18"/>
<text text-anchor="middle" x="678.06" y="-288.3" font-family="Times,serif" font-size="14.00">DefinedTerm</text>
</g>
<!-- _&#45;&gt;DefinedTerm -->
<g id="edge4" class="edge">
<title>_&#45;&gt;DefinedTerm</title>
<path fill="none" stroke="black" d="M351.04,-175.15C359.1,-181.82 368.14,-190.52 374.28,-200 388.01,-221.24 372.78,-237.88 392.28,-254 451.91,-303.3 543.83,-306.81 607.02,-301.92"/>
<polygon fill="black" stroke="black" points="607.64,-305.38 617.3,-301.03 607.03,-298.4 607.64,-305.38"/>
<text text-anchor="middle" x="457.28" y="-304.8" font-family="Times,serif" font-size="14.00">type</text>
</g>
<!-- &quot;UN/LOCODE Code List ...&quot; -->
<g id="node5" class="node">
<title>&quot;UN/LOCODE Code List ...&quot;</title>
<ellipse fill="none" stroke="black" stroke-width="0" cx="678.06" cy="-238" rx="137.58" ry="18"/>
<text text-anchor="middle" x="678.06" y="-234.3" font-family="Times,serif" font-size="14.00">&quot;UN/LOCODE Code List ...&quot;</text>
</g>
<!-- _&#45;&gt;&quot;UN/LOCODE Code List ...&quot; -->
<g id="edge5" class="edge">
<title>_&#45;&gt;&quot;UN/LOCODE Code List ...&quot;</title>
<path fill="none" stroke="black" d="M348.22,-176.87C359.43,-186.88 375.59,-199.42 392.28,-206 435.31,-222.96 484.65,-231.82 530.03,-236.23"/>
<polygon fill="black" stroke="black" points="529.99,-239.74 540.26,-237.15 530.62,-232.77 529.99,-239.74"/>
<text text-anchor="middle" x="457.28" y="-238.8" font-family="Times,serif" font-size="14.00">inDefinedTermSet</text>
</g>
<!-- &quot;Fiji&quot; -->
<g id="node6" class="node">
<title>&quot;Fiji&quot;</title>
<ellipse fill="none" stroke="black" stroke-width="0" cx="678.06" cy="-183" rx="34.39" ry="18"/>
<text text-anchor="middle" x="678.06" y="-179.3" font-family="Times,serif" font-size="14.00">&quot;Fiji&quot;</text>
</g>
<!-- _&#45;&gt;&quot;Fiji&quot; -->
<g id="edge6" class="edge">
<title>_&#45;&gt;&quot;Fiji&quot;</title>
<path fill="none" stroke="black" d="M356.68,-169.82C367.42,-173 380.36,-176.31 392.28,-178 476.91,-189.98 577.1,-188.06 633.24,-185.55"/>
<polygon fill="black" stroke="black" points="633.71,-189.03 643.53,-185.06 633.38,-182.04 633.71,-189.03"/>
<text text-anchor="middle" x="457.28" y="-190.8" font-family="Times,serif" font-size="14.00">name</text>
</g>
<!-- _&#45;&gt;&quot;Fiji&quot; -->
<g id="edge10" class="edge">
<title>_&#45;&gt;&quot;Fiji&quot;</title>
<path fill="none" stroke="black" d="M358.98,-160.4C369.33,-159.84 381.36,-159.28 392.28,-159 450.04,-157.54 464.67,-154.56 522.28,-159 560.89,-161.98 604.44,-169.07 635.49,-174.77"/>
<polygon fill="black" stroke="black" points="635.04,-178.25 645.51,-176.65 636.32,-171.37 635.04,-178.25"/>
<text text-anchor="middle" x="457.28" y="-162.8" font-family="Times,serif" font-size="14.00">name</text>
</g>
<!-- &quot;FJ&quot; -->
<g id="node7" class="node">
<title>&quot;FJ&quot;</title>
<ellipse fill="none" stroke="black" stroke-width="0" cx="678.06" cy="-126" rx="29.5" ry="18"/>
<text text-anchor="middle" x="678.06" y="-122.3" font-family="Times,serif" font-size="14.00">&quot;FJ&quot;</text>
</g>
<!-- _&#45;&gt;&quot;FJ&quot; -->
<g id="edge7" class="edge">
<title>_&#45;&gt;&quot;FJ&quot;</title>
<path fill="none" stroke="black" d="M353.81,-151.05C364.9,-145.77 378.98,-139.96 392.28,-137 478.71,-117.77 583.48,-120.05 638.7,-123.16"/>
<polygon fill="black" stroke="black" points="638.55,-126.66 648.74,-123.77 638.97,-119.67 638.55,-126.66"/>
<text text-anchor="middle" x="457.28" y="-140.8" font-family="Times,serif" font-size="14.00">termCode</text>
</g>
<!-- &quot;https//unece.org/tra...&quot; -->
<g id="node8" class="node">
<title>&quot;https//unece.org/tra...&quot;</title>
<ellipse fill="none" stroke="black" stroke-width="0" cx="678.06" cy="-72" rx="120.78" ry="18"/>
<text text-anchor="middle" x="678.06" y="-68.3" font-family="Times,serif" font-size="14.00">&quot;https//unece.org/tra...&quot;</text>
</g>
<!-- _&#45;&gt;&quot;https//unece.org/tra...&quot; -->
<g id="edge8" class="edge">
<title>_&#45;&gt;&quot;https//unece.org/tra...&quot;</title>
<path fill="none" stroke="black" d="M344.42,-145.98C355.11,-132.32 372.38,-113.45 392.28,-104 440.63,-81.04 498.63,-71.73 549.64,-68.64"/>
<polygon fill="black" stroke="black" points="549.94,-72.13 559.74,-68.11 549.57,-65.14 549.94,-72.13"/>
<text text-anchor="middle" x="457.28" y="-107.8" font-family="Times,serif" font-size="14.00">url</text>
</g>
<!-- Country -->
<g id="node9" class="node">
<title>Country</title>
<ellipse fill="none" stroke="#558855" cx="678.06" cy="-18" rx="48.19" ry="18"/>
<text text-anchor="middle" x="678.06" y="-14.3" font-family="Times,serif" font-size="14.00">Country</text>
</g>
<!-- _&#45;&gt;Country -->
<g id="edge9" class="edge">
<title>_&#45;&gt;Country</title>
<path fill="none" stroke="black" d="M337.24,-144.24C344.14,-119.34 360.41,-74.69 392.28,-53 460.99,-6.23 561.1,-5.56 622.5,-10.76"/>
<polygon fill="black" stroke="black" points="622.48,-14.28 632.76,-11.72 623.12,-7.31 622.48,-14.28"/>
<text text-anchor="middle" x="457.28" y="-56.8" font-family="Times,serif" font-size="14.00">type</text>
</g>
</g>
</svg>
