<?xml version="1.0" encoding="UTF-8" standalone="no"?>
<!DOCTYPE svg PUBLIC "-//W3C//DTD SVG 1.1//EN"
 "http://www.w3.org/Graphics/SVG/1.1/DTD/svg11.dtd">
<!-- Generated by graphviz version 5.0.0 (0)
 -->
<!-- Pages: 1 -->
<svg width="1065pt" height="209pt"
 viewBox="0.00 0.00 1065.43 209.00" xmlns="http://www.w3.org/2000/svg" xmlns:xlink="http://www.w3.org/1999/xlink">
<g id="graph0" class="graph" transform="scale(1 1) rotate(0) translate(4 205)">
<polygon fill="white" stroke="transparent" points="-4,4 -4,-205 1061.43,-205 1061.43,4 -4,4"/>
<!-- PropertyValue -->
<g id="node1" class="node">
<title>PropertyValue</title>
<ellipse fill="none" stroke="#558855" cx="922.89" cy="-183" rx="77.19" ry="18"/>
<text text-anchor="middle" x="922.89" y="-179.3" font-family="Times,serif" font-size="14.00">PropertyValue</text>
</g>
<!-- example.org/id/resproj/X -->
<g id="node2" class="node">
<title>example.org/id/resproj/X</title>
<ellipse fill="none" stroke="black" cx="125.44" cy="-133" rx="125.38" ry="18"/>
<text text-anchor="middle" x="125.44" y="-129.3" font-family="Times,serif" font-size="14.00">example.org/id/resproj/X</text>
</g>
<!-- example.org/id/resproj/X&#45;&gt;PropertyValue -->
<g id="edge1" class="edge">
<title>example.org/id/resproj/X&#45;&gt;PropertyValue</title>
<path fill="none" stroke="black" d="M216.04,-145.47C233.54,-147.76 251.77,-150.05 268.88,-152 470.69,-175.06 709.48,-181.03 834.91,-182.53"/>
<polygon fill="black" stroke="black" points="835.18,-186.04 845.22,-182.65 835.26,-179.04 835.18,-186.04"/>
<text text-anchor="middle" x="512.11" y="-181.8" font-family="Times,serif" font-size="14.00">type</text>
</g>
<!-- ResearchProject -->
<g id="node3" class="node">
<title>ResearchProject</title>
<ellipse fill="none" stroke="#558855" cx="512.11" cy="-133" rx="87.18" ry="18"/>
<text text-anchor="middle" x="512.11" y="-129.3" font-family="Times,serif" font-size="14.00">ResearchProject</text>
</g>
<!-- example.org/id/resproj/X&#45;&gt;ResearchProject -->
<g id="edge2" class="edge">
<title>example.org/id/resproj/X&#45;&gt;ResearchProject</title>
<path fill="none" stroke="black" d="M251.07,-133C304.24,-133 365.33,-133 414.93,-133"/>
<polygon fill="black" stroke="black" points="415.01,-136.5 425.01,-133 415.01,-129.5 415.01,-136.5"/>
<text text-anchor="middle" x="301.88" y="-136.8" font-family="Times,serif" font-size="14.00">type</text>
</g>
<!-- grid.ac/institutes/grid.475727.4 -->
<g id="node4" class="node">
<title>grid.ac/institutes/grid.475727.4</title>
<ellipse fill="none" stroke="#558855" cx="512.11" cy="-79" rx="159.47" ry="18"/>
<text text-anchor="middle" x="512.11" y="-75.3" font-family="Times,serif" font-size="14.00">grid.ac/institutes/grid.475727.4</text>
</g>
<!-- example.org/id/resproj/X&#45;&gt;grid.ac/institutes/grid.475727.4 -->
<g id="edge3" class="edge">
<title>example.org/id/resproj/X&#45;&gt;grid.ac/institutes/grid.475727.4</title>
<path fill="none" stroke="black" d="M215.66,-120.48C271.05,-112.7 342.64,-102.65 401.47,-94.39"/>
<polygon fill="black" stroke="black" points="402.13,-97.83 411.55,-92.98 401.16,-90.9 402.13,-97.83"/>
<text text-anchor="middle" x="301.88" y="-115.8" font-family="Times,serif" font-size="14.00">identifier</text>
</g>
<!-- grid.ac/institutes/grid.475727.4&#45;&gt;PropertyValue -->
<g id="edge4" class="edge">
<title>grid.ac/institutes/grid.475727.4&#45;&gt;PropertyValue</title>
<path fill="none" stroke="black" d="M634.52,-90.69C647.41,-94.55 659.95,-99.54 671.35,-106 682.04,-112.06 678.93,-120.48 689.35,-127 727.91,-151.15 744.15,-142.23 788.35,-153 810.17,-158.32 834.09,-163.8 855.57,-168.59"/>
<polygon fill="black" stroke="black" points="855.06,-172.07 865.58,-170.82 856.58,-165.23 855.06,-172.07"/>
<text text-anchor="middle" x="729.85" y="-152.8" font-family="Times,serif" font-size="14.00">type</text>
</g>
<!-- &quot;UN Department of Eco...&quot; -->
<g id="node5" class="node">
<title>&quot;UN Department of Eco...&quot;</title>
<ellipse fill="none" stroke="black" stroke-width="0" cx="922.89" cy="-126" rx="134.58" ry="18"/>
<text text-anchor="middle" x="922.89" y="-122.3" font-family="Times,serif" font-size="14.00">&quot;UN Department of Eco...&quot;</text>
</g>
<!-- grid.ac/institutes/grid.475727.4&#45;&gt;&quot;UN Department of Eco...&quot; -->
<g id="edge5" class="edge">
<title>grid.ac/institutes/grid.475727.4&#45;&gt;&quot;UN Department of Eco...&quot;</title>
<path fill="none" stroke="black" d="M624.27,-91.78C681.93,-98.41 752.17,-106.49 809.94,-113.13"/>
<polygon fill="black" stroke="black" points="809.87,-116.64 820.2,-114.31 810.67,-109.69 809.87,-116.64"/>
<text text-anchor="middle" x="729.85" y="-111.8" font-family="Times,serif" font-size="14.00">description</text>
</g>
<!-- &quot;https//registry.iden...&quot; -->
<g id="node6" class="node">
<title>&quot;https//registry.iden...&quot;</title>
<ellipse fill="none" stroke="black" stroke-width="0" cx="922.89" cy="-72" rx="116.98" ry="18"/>
<text text-anchor="middle" x="922.89" y="-68.3" font-family="Times,serif" font-size="14.00">&quot;https//registry.iden...&quot;</text>
</g>
<!-- grid.ac/institutes/grid.475727.4&#45;&gt;&quot;https//registry.iden...&quot; -->
<g id="edge6" class="edge">
<title>grid.ac/institutes/grid.475727.4&#45;&gt;&quot;https//registry.iden...&quot;</title>
<path fill="none" stroke="black" d="M669.7,-76.32C711.64,-75.6 756.44,-74.83 796.46,-74.15"/>
<polygon fill="black" stroke="black" points="796.59,-77.65 806.53,-73.98 796.47,-70.65 796.59,-77.65"/>
<text text-anchor="middle" x="729.85" y="-78.8" font-family="Times,serif" font-size="14.00">propertyID</text>
</g>
<!-- &quot;https//grid.ac/insti...&quot; -->
<g id="node7" class="node">
<title>&quot;https//grid.ac/insti...&quot;</title>
<ellipse fill="none" stroke="black" stroke-width="0" cx="922.89" cy="-18" rx="114.28" ry="18"/>
<text text-anchor="middle" x="922.89" y="-14.3" font-family="Times,serif" font-size="14.00">&quot;https//grid.ac/insti...&quot;</text>
</g>
<!-- grid.ac/institutes/grid.475727.4&#45;&gt;&quot;https//grid.ac/insti...&quot; -->
<g id="edge7" class="edge">
<title>grid.ac/institutes/grid.475727.4&#45;&gt;&quot;https//grid.ac/insti...&quot;</title>
<path fill="none" stroke="black" d="M608.95,-64.7C675.39,-54.78 763.39,-41.65 829.14,-31.84"/>
<polygon fill="black" stroke="black" points="829.72,-35.29 839.09,-30.36 828.68,-28.37 829.72,-35.29"/>
<text text-anchor="middle" x="729.85" y="-55.8" font-family="Times,serif" font-size="14.00">url</text>
</g>
</g>
</svg>
