<?xml version="1.0" encoding="UTF-8" standalone="no"?>
<!DOCTYPE svg PUBLIC "-//W3C//DTD SVG 1.1//EN"
 "http://www.w3.org/Graphics/SVG/1.1/DTD/svg11.dtd">
<!-- Generated by graphviz version 5.0.0 (0)
 -->
<!-- Pages: 1 -->
<svg width="1169pt" height="1092pt"
 viewBox="0.00 0.00 1169.32 1092.00" xmlns="http://www.w3.org/2000/svg" xmlns:xlink="http://www.w3.org/1999/xlink">
<g id="graph0" class="graph" transform="scale(1 1) rotate(0) translate(4 1088)">
<polygon fill="white" stroke="transparent" points="-4,4 -4,-1088 1165.32,-1088 1165.32,4 -4,4"/>
<!-- Organization -->
<g id="node1" class="node">
<title>Organization</title>
<ellipse fill="none" stroke="#558855" cx="1030.03" cy="-990" rx="70.69" ry="18"/>
<text text-anchor="middle" x="1030.03" y="-986.3" font-family="Times,serif" font-size="14.00">Organization</text>
</g>
<!-- www.foo.org/orgID -->
<g id="node2" class="node">
<title>www.foo.org/orgID</title>
<ellipse fill="none" stroke="#558855" cx="548.26" cy="-1050" rx="98.28" ry="18"/>
<text text-anchor="middle" x="548.26" y="-1046.3" font-family="Times,serif" font-size="14.00">www.foo.org/orgID</text>
</g>
<!-- www.foo.org/orgID&#45;&gt;Organization -->
<g id="edge1" class="edge">
<title>www.foo.org/orgID&#45;&gt;Organization</title>
<path fill="none" stroke="black" d="M646.25,-1048.27C712.62,-1045.94 802.43,-1040.52 880.74,-1028 912.06,-1022.99 946.41,-1014.39 974.15,-1006.64"/>
<polygon fill="black" stroke="black" points="975.39,-1009.93 984.05,-1003.83 973.48,-1003.2 975.39,-1009.93"/>
<text text-anchor="middle" x="837.24" y="-1041.8" font-family="Times,serif" font-size="14.00">type</text>
</g>
<!-- &quot;Some Institute&quot; -->
<g id="node3" class="node">
<title>&quot;Some Institute&quot;</title>
<ellipse fill="none" stroke="black" stroke-width="0" cx="1030.03" cy="-1066" rx="88.28" ry="18"/>
<text text-anchor="middle" x="1030.03" y="-1062.3" font-family="Times,serif" font-size="14.00">&quot;Some Institute&quot;</text>
</g>
<!-- www.foo.org/orgID&#45;&gt;&quot;Some Institute&quot; -->
<g id="edge2" class="edge">
<title>www.foo.org/orgID&#45;&gt;&quot;Some Institute&quot;</title>
<path fill="none" stroke="black" d="M638.32,-1057.23C684.63,-1060.64 742.2,-1064.32 793.74,-1066 839.1,-1067.48 889.4,-1067.68 931.81,-1067.43"/>
<polygon fill="black" stroke="black" points="931.88,-1070.92 941.85,-1067.36 931.83,-1063.92 931.88,-1070.92"/>
<text text-anchor="middle" x="837.24" y="-1070.8" font-family="Times,serif" font-size="14.00">legalName</text>
</g>
<!-- PropertyValue -->
<g id="node4" class="node">
<title>PropertyValue</title>
<ellipse fill="none" stroke="#558855" cx="1030.03" cy="-774" rx="77.19" ry="18"/>
<text text-anchor="middle" x="1030.03" y="-770.3" font-family="Times,serif" font-size="14.00">PropertyValue</text>
</g>
<!-- doi.org/10.5066/F7VX0DMQ -->
<g id="node5" class="node">
<title>doi.org/10.5066/F7VX0DMQ</title>
<ellipse fill="none" stroke="#558855" cx="548.26" cy="-822" rx="141.88" ry="18"/>
<text text-anchor="middle" x="548.26" y="-818.3" font-family="Times,serif" font-size="14.00">doi.org/10.5066/F7VX0DMQ</text>
</g>
<!-- doi.org/10.5066/F7VX0DMQ&#45;&gt;PropertyValue -->
<g id="edge3" class="edge">
<title>doi.org/10.5066/F7VX0DMQ&#45;&gt;PropertyValue</title>
<path fill="none" stroke="black" d="M660.23,-810.9C748.31,-802.09 869.36,-789.97 948.38,-782.07"/>
<polygon fill="black" stroke="black" points="949.16,-785.51 958.76,-781.03 948.46,-778.54 949.16,-785.51"/>
<text text-anchor="middle" x="837.24" y="-799.8" font-family="Times,serif" font-size="14.00">type</text>
</g>
<!-- &quot;https//registry.iden...&quot; -->
<g id="node6" class="node">
<title>&quot;https//registry.iden...&quot;</title>
<ellipse fill="none" stroke="black" stroke-width="0" cx="1030.03" cy="-936" rx="116.98" ry="18"/>
<text text-anchor="middle" x="1030.03" y="-932.3" font-family="Times,serif" font-size="14.00">&quot;https//registry.iden...&quot;</text>
</g>
<!-- doi.org/10.5066/F7VX0DMQ&#45;&gt;&quot;https//registry.iden...&quot; -->
<g id="edge4" class="edge">
<title>doi.org/10.5066/F7VX0DMQ&#45;&gt;&quot;https//registry.iden...&quot;</title>
<path fill="none" stroke="black" d="M585.99,-839.37C633.01,-860.76 717.51,-896.43 793.74,-914 829.83,-922.32 869.72,-927.51 906.24,-930.74"/>
<polygon fill="black" stroke="black" points="906.19,-934.24 916.45,-931.6 906.78,-927.27 906.19,-934.24"/>
<text text-anchor="middle" x="837.24" y="-930.8" font-family="Times,serif" font-size="14.00">propertyID</text>
</g>
<!-- &quot;https//doi.org/10.50...&quot; -->
<g id="node7" class="node">
<title>&quot;https//doi.org/10.50...&quot;</title>
<ellipse fill="none" stroke="black" stroke-width="0" cx="1030.03" cy="-882" rx="120.48" ry="18"/>
<text text-anchor="middle" x="1030.03" y="-878.3" font-family="Times,serif" font-size="14.00">&quot;https//doi.org/10.50...&quot;</text>
</g>
<!-- doi.org/10.5066/F7VX0DMQ&#45;&gt;&quot;https//doi.org/10.50...&quot; -->
<g id="edge5" class="edge">
<title>doi.org/10.5066/F7VX0DMQ&#45;&gt;&quot;https//doi.org/10.50...&quot;</title>
<path fill="none" stroke="black" d="M655.33,-833.84C720.43,-841.26 805.46,-851.24 880.74,-861 897.66,-863.19 915.65,-865.64 933.05,-868.07"/>
<polygon fill="black" stroke="black" points="932.82,-871.57 943.21,-869.5 933.8,-864.64 932.82,-871.57"/>
<text text-anchor="middle" x="837.24" y="-864.8" font-family="Times,serif" font-size="14.00">url</text>
</g>
<!-- &quot;doi10.5066/F7VX0DMQ&quot; -->
<g id="node8" class="node">
<title>&quot;doi10.5066/F7VX0DMQ&quot;</title>
<ellipse fill="none" stroke="black" stroke-width="0" cx="1030.03" cy="-828" rx="129.18" ry="18"/>
<text text-anchor="middle" x="1030.03" y="-824.3" font-family="Times,serif" font-size="14.00">&quot;doi10.5066/F7VX0DMQ&quot;</text>
</g>
<!-- doi.org/10.5066/F7VX0DMQ&#45;&gt;&quot;doi10.5066/F7VX0DMQ&quot; -->
<g id="edge6" class="edge">
<title>doi.org/10.5066/F7VX0DMQ&#45;&gt;&quot;doi10.5066/F7VX0DMQ&quot;</title>
<path fill="none" stroke="black" d="M690,-821.47C748.94,-821.5 818.17,-821.85 880.74,-823 885.21,-823.08 889.75,-823.18 894.34,-823.28"/>
<polygon fill="black" stroke="black" points="894.36,-826.78 904.44,-823.52 894.53,-819.78 894.36,-826.78"/>
<text text-anchor="middle" x="837.24" y="-826.8" font-family="Times,serif" font-size="14.00">value</text>
</g>
<!-- CreativeWork -->
<g id="node9" class="node">
<title>CreativeWork</title>
<ellipse fill="none" stroke="#558855" cx="548.26" cy="-608" rx="74.19" ry="18"/>
<text text-anchor="middle" x="548.26" y="-604.3" font-family="Times,serif" font-size="14.00">CreativeWork</text>
</g>
<!-- example.org/id/XYZ -->
<g id="node10" class="node">
<title>example.org/id/XYZ</title>
<ellipse fill="none" stroke="black" cx="101.39" cy="-557" rx="101.28" ry="18"/>
<text text-anchor="middle" x="101.39" y="-553.3" font-family="Times,serif" font-size="14.00">example.org/id/XYZ</text>
</g>
<!-- example.org/id/XYZ&#45;&gt;www.foo.org/orgID -->
<g id="edge9" class="edge">
<title>example.org/id/XYZ&#45;&gt;www.foo.org/orgID</title>
<path fill="none" stroke="black" d="M105.04,-575.46C116.15,-645.25 165.78,-894.39 320.78,-1001 356.3,-1025.43 401.77,-1037.99 442.64,-1044.34"/>
<polygon fill="black" stroke="black" points="442.24,-1047.82 452.64,-1045.79 443.25,-1040.9 442.24,-1047.82"/>
<text text-anchor="middle" x="261.78" y="-988.8" font-family="Times,serif" font-size="14.00">contributor</text>
</g>
<!-- example.org/id/XYZ&#45;&gt;doi.org/10.5066/F7VX0DMQ -->
<g id="edge11" class="edge">
<title>example.org/id/XYZ&#45;&gt;doi.org/10.5066/F7VX0DMQ</title>
<path fill="none" stroke="black" d="M122.96,-574.77C145.96,-594.2 184.71,-625.68 220.78,-649 316.15,-710.66 435.76,-769.78 500.47,-800.38"/>
<polygon fill="black" stroke="black" points="499.07,-803.59 509.6,-804.68 502.05,-797.25 499.07,-803.59"/>
<text text-anchor="middle" x="261.78" y="-699.8" font-family="Times,serif" font-size="14.00">identifier</text>
</g>
<!-- example.org/id/XYZ&#45;&gt;CreativeWork -->
<g id="edge7" class="edge">
<title>example.org/id/XYZ&#45;&gt;CreativeWork</title>
<path fill="none" stroke="black" d="M186.14,-566.96C197.78,-568.32 209.58,-569.7 220.78,-571 306.17,-580.89 404.15,-591.95 470.32,-599.39"/>
<polygon fill="black" stroke="black" points="470.33,-602.91 480.66,-600.55 471.11,-595.95 470.33,-602.91"/>
<text text-anchor="middle" x="261.78" y="-583.8" font-family="Times,serif" font-size="14.00">type</text>
</g>
<!-- www.sample&#45;data&#45;repository.org/person/51317 -->
<g id="node11" class="node">
<title>www.sample&#45;data&#45;repository.org/person/51317</title>
<ellipse fill="none" stroke="#558855" cx="548.26" cy="-489" rx="227.46" ry="18"/>
<text text-anchor="middle" x="548.26" y="-485.3" font-family="Times,serif" font-size="14.00">www.sample&#45;data&#45;repository.org/person/51317</text>
</g>
<!-- example.org/id/XYZ&#45;&gt;www.sample&#45;data&#45;repository.org/person/51317 -->
<g id="edge8" class="edge">
<title>example.org/id/XYZ&#45;&gt;www.sample&#45;data&#45;repository.org/person/51317</title>
<path fill="none" stroke="black" d="M157.8,-541.95C177.57,-536.98 200.06,-531.76 220.78,-528 275.77,-518.02 336.45,-509.97 390.43,-503.83"/>
<polygon fill="black" stroke="black" points="390.88,-507.3 400.43,-502.71 390.1,-500.35 390.88,-507.3"/>
<text text-anchor="middle" x="261.78" y="-531.8" font-family="Times,serif" font-size="14.00">author</text>
</g>
<!-- &quot;Description of the c...&quot; -->
<g id="node12" class="node">
<title>&quot;Description of the c...&quot;</title>
<ellipse fill="none" stroke="black" stroke-width="0" cx="548.26" cy="-435" rx="119.68" ry="18"/>
<text text-anchor="middle" x="548.26" y="-431.3" font-family="Times,serif" font-size="14.00">&quot;Description of the c...&quot;</text>
</g>
<!-- example.org/id/XYZ&#45;&gt;&quot;Description of the c...&quot; -->
<g id="edge10" class="edge">
<title>example.org/id/XYZ&#45;&gt;&quot;Description of the c...&quot;</title>
<path fill="none" stroke="black" d="M132.95,-539.67C156.51,-526.69 190.14,-509.02 220.78,-496 263.99,-477.64 275,-472.39 320.78,-462 356.26,-453.95 395.43,-448.2 431.09,-444.14"/>
<polygon fill="black" stroke="black" points="431.49,-447.61 441.05,-443.03 430.72,-440.65 431.49,-447.61"/>
<text text-anchor="middle" x="261.78" y="-499.8" font-family="Times,serif" font-size="14.00">description</text>
</g>
<!-- _ -->
<g id="node13" class="node">
<title>_</title>
<ellipse fill="none" stroke="#558855" cx="548.26" cy="-234" rx="27" ry="18"/>
<text text-anchor="middle" x="548.26" y="-230.3" font-family="Times,serif" font-size="14.00">_</text>
</g>
<!-- example.org/id/XYZ&#45;&gt;_ -->
<g id="edge12" class="edge">
<title>example.org/id/XYZ&#45;&gt;_</title>
<path fill="none" stroke="black" d="M119.6,-539.23C141.92,-516.62 182.54,-476.89 220.78,-447 325.05,-365.51 460.51,-284.24 518.68,-250.39"/>
<polygon fill="black" stroke="black" points="520.44,-253.42 527.34,-245.38 516.93,-247.36 520.44,-253.42"/>
<text text-anchor="middle" x="261.78" y="-450.8" font-family="Times,serif" font-size="14.00">keywords</text>
</g>
<!-- &quot;http//spdx.org/licen...&quot; -->
<g id="node14" class="node">
<title>&quot;http//spdx.org/licen...&quot;</title>
<ellipse fill="none" stroke="black" stroke-width="0" cx="548.26" cy="-180" rx="118.88" ry="18"/>
<text text-anchor="middle" x="548.26" y="-176.3" font-family="Times,serif" font-size="14.00">&quot;http//spdx.org/licen...&quot;</text>
</g>
<!-- example.org/id/XYZ&#45;&gt;&quot;http//spdx.org/licen...&quot; -->
<g id="edge13" class="edge">
<title>example.org/id/XYZ&#45;&gt;&quot;http//spdx.org/licen...&quot;</title>
<path fill="none" stroke="black" d="M107.52,-538.88C125.41,-479.42 191.09,-289.36 320.78,-207 351.57,-187.45 389.51,-178.47 425.48,-174.99"/>
<polygon fill="black" stroke="black" points="425.89,-178.47 435.56,-174.15 425.31,-171.49 425.89,-178.47"/>
<text text-anchor="middle" x="261.78" y="-301.8" font-family="Times,serif" font-size="14.00">license</text>
</g>
<!-- &quot;Name or title of the...&quot; -->
<g id="node15" class="node">
<title>&quot;Name or title of the...&quot;</title>
<ellipse fill="none" stroke="black" stroke-width="0" cx="548.26" cy="-126" rx="120.48" ry="18"/>
<text text-anchor="middle" x="548.26" y="-122.3" font-family="Times,serif" font-size="14.00">&quot;Name or title of the...&quot;</text>
</g>
<!-- example.org/id/XYZ&#45;&gt;&quot;Name or title of the...&quot; -->
<g id="edge14" class="edge">
<title>example.org/id/XYZ&#45;&gt;&quot;Name or title of the...&quot;</title>
<path fill="none" stroke="black" d="M103.48,-538.97C107.81,-482.09 128.46,-304.03 220.78,-200 270.69,-143.76 353.55,-125.46 423.3,-121.12"/>
<polygon fill="black" stroke="black" points="423.69,-124.61 433.49,-120.58 423.32,-117.62 423.69,-124.61"/>
<text text-anchor="middle" x="261.78" y="-203.8" font-family="Times,serif" font-size="14.00">name</text>
</g>
<!-- www.repositoryB.org -->
<g id="node16" class="node">
<title>www.repositoryB.org</title>
<ellipse fill="none" stroke="#558855" cx="548.26" cy="-664" rx="109.38" ry="18"/>
<text text-anchor="middle" x="548.26" y="-660.3" font-family="Times,serif" font-size="14.00">www.repositoryB.org</text>
</g>
<!-- example.org/id/XYZ&#45;&gt;www.repositoryB.org -->
<g id="edge15" class="edge">
<title>example.org/id/XYZ&#45;&gt;www.repositoryB.org</title>
<path fill="none" stroke="black" d="M141.07,-573.69C184.13,-591.59 256.18,-619.52 320.78,-635 359.09,-644.18 401.78,-650.6 439.68,-655.02"/>
<polygon fill="black" stroke="black" points="439.39,-658.51 449.72,-656.16 440.18,-651.56 439.39,-658.51"/>
<text text-anchor="middle" x="261.78" y="-633.8" font-family="Times,serif" font-size="14.00">provider</text>
</g>
<!-- www.publishingrus.org -->
<g id="node17" class="node">
<title>www.publishingrus.org</title>
<ellipse fill="none" stroke="#558855" cx="548.26" cy="-974" rx="118.08" ry="18"/>
<text text-anchor="middle" x="548.26" y="-970.3" font-family="Times,serif" font-size="14.00">www.publishingrus.org</text>
</g>
<!-- example.org/id/XYZ&#45;&gt;www.publishingrus.org -->
<g id="edge16" class="edge">
<title>example.org/id/XYZ&#45;&gt;www.publishingrus.org</title>
<path fill="none" stroke="black" d="M112.27,-575.18C139.77,-624.47 221.72,-762.73 320.78,-849 373.97,-895.32 447.12,-931.84 495.73,-953.16"/>
<polygon fill="black" stroke="black" points="494.55,-956.47 505.11,-957.22 497.33,-950.04 494.55,-956.47"/>
<text text-anchor="middle" x="261.78" y="-832.8" font-family="Times,serif" font-size="14.00">publisher</text>
</g>
<!-- &quot;https//www.sample&#45;da...&quot; -->
<g id="node18" class="node">
<title>&quot;https//www.sample&#45;da...&quot;</title>
<ellipse fill="none" stroke="black" stroke-width="0" cx="1030.03" cy="-558" rx="131.08" ry="18"/>
<text text-anchor="middle" x="1030.03" y="-554.3" font-family="Times,serif" font-size="14.00">&quot;https//www.sample&#45;da...&quot;</text>
</g>
<!-- example.org/id/XYZ&#45;&gt;&quot;https//www.sample&#45;da...&quot; -->
<g id="edge17" class="edge">
<title>example.org/id/XYZ&#45;&gt;&quot;https//www.sample&#45;da...&quot;</title>
<path fill="none" stroke="black" d="M202.88,-557.11C368.5,-557.29 699.24,-557.64 888.14,-557.85"/>
<polygon fill="black" stroke="black" points="888.42,-561.35 898.42,-557.86 888.43,-554.35 888.42,-561.35"/>
<text text-anchor="middle" x="548.26" y="-560.8" font-family="Times,serif" font-size="14.00">url</text>
</g>
<!-- www.sample&#45;data&#45;repository.org/person/51317&#45;&gt;&quot;https//www.sample&#45;da...&quot; -->
<g id="edge29" class="edge">
<title>www.sample&#45;data&#45;repository.org/person/51317&#45;&gt;&quot;https//www.sample&#45;da...&quot;</title>
<path fill="none" stroke="black" d="M690.75,-503.05C749.66,-509.57 818.66,-518.09 880.74,-528 903.23,-531.59 927.5,-536.19 949.77,-540.71"/>
<polygon fill="black" stroke="black" points="949.34,-544.19 959.84,-542.77 950.75,-537.34 949.34,-544.19"/>
<text text-anchor="middle" x="837.24" y="-531.8" font-family="Times,serif" font-size="14.00">url</text>
</g>
<!-- Person -->
<g id="node22" class="node">
<title>Person</title>
<ellipse fill="none" stroke="#558855" cx="1030.03" cy="-450" rx="42.49" ry="18"/>
<text text-anchor="middle" x="1030.03" y="-446.3" font-family="Times,serif" font-size="14.00">Person</text>
</g>
<!-- www.sample&#45;data&#45;repository.org/person/51317&#45;&gt;Person -->
<g id="edge25" class="edge">
<title>www.sample&#45;data&#45;repository.org/person/51317&#45;&gt;Person</title>
<path fill="none" stroke="black" d="M701.83,-475.67C732.27,-473.08 764.02,-470.41 793.74,-468 857.27,-462.84 930.49,-457.3 978.15,-453.75"/>
<polygon fill="black" stroke="black" points="978.5,-457.24 988.22,-453.01 977.98,-450.26 978.5,-457.24"/>
<text text-anchor="middle" x="837.24" y="-471.8" font-family="Times,serif" font-size="14.00">type</text>
</g>
<!-- &quot;Passow&quot; -->
<g id="node23" class="node">
<title>&quot;Passow&quot;</title>
<ellipse fill="none" stroke="black" stroke-width="0" cx="1030.03" cy="-396" rx="53.89" ry="18"/>
<text text-anchor="middle" x="1030.03" y="-392.3" font-family="Times,serif" font-size="14.00">&quot;Passow&quot;</text>
</g>
<!-- www.sample&#45;data&#45;repository.org/person/51317&#45;&gt;&quot;Passow&quot; -->
<g id="edge26" class="edge">
<title>www.sample&#45;data&#45;repository.org/person/51317&#45;&gt;&quot;Passow&quot;</title>
<path fill="none" stroke="black" d="M733.78,-478.51C748.38,-474.25 762.56,-468.83 775.74,-462 786.36,-456.5 783.34,-447.9 793.74,-442 846.65,-412.02 915.81,-401.28 965.43,-397.58"/>
<polygon fill="black" stroke="black" points="965.97,-401.05 975.71,-396.89 965.5,-394.07 965.97,-401.05"/>
<text text-anchor="middle" x="837.24" y="-445.8" font-family="Times,serif" font-size="14.00">familyName</text>
</g>
<!-- &quot;Uta&quot; -->
<g id="node24" class="node">
<title>&quot;Uta&quot;</title>
<ellipse fill="none" stroke="black" stroke-width="0" cx="1030.03" cy="-342" rx="36.29" ry="18"/>
<text text-anchor="middle" x="1030.03" y="-338.3" font-family="Times,serif" font-size="14.00">&quot;Uta&quot;</text>
</g>
<!-- www.sample&#45;data&#45;repository.org/person/51317&#45;&gt;&quot;Uta&quot; -->
<g id="edge27" class="edge">
<title>www.sample&#45;data&#45;repository.org/person/51317&#45;&gt;&quot;Uta&quot;</title>
<path fill="none" stroke="black" d="M748.38,-480.31C758.19,-475.35 767.41,-469.32 775.74,-462 800.2,-440.52 770.25,-413.53 793.74,-391 828.15,-358 852.06,-378.73 898.74,-369 927.86,-362.93 960.65,-356.14 986.05,-350.88"/>
<polygon fill="black" stroke="black" points="987.01,-354.26 996.09,-348.8 985.59,-347.4 987.01,-354.26"/>
<text text-anchor="middle" x="837.24" y="-394.8" font-family="Times,serif" font-size="14.00">givenName</text>
</g>
<!-- &quot;Dr Uta Passow&quot; -->
<g id="node25" class="node">
<title>&quot;Dr Uta Passow&quot;</title>
<ellipse fill="none" stroke="black" stroke-width="0" cx="1030.03" cy="-504" rx="88.28" ry="18"/>
<text text-anchor="middle" x="1030.03" y="-500.3" font-family="Times,serif" font-size="14.00">&quot;Dr Uta Passow&quot;</text>
</g>
<!-- www.sample&#45;data&#45;repository.org/person/51317&#45;&gt;&quot;Dr Uta Passow&quot; -->
<g id="edge28" class="edge">
<title>www.sample&#45;data&#45;repository.org/person/51317&#45;&gt;&quot;Dr Uta Passow&quot;</title>
<path fill="none" stroke="black" d="M774.45,-486.92C810.03,-487.39 846.4,-488.33 880.74,-490 900.63,-490.97 921.96,-492.62 942.08,-494.46"/>
<polygon fill="black" stroke="black" points="941.88,-497.95 952.16,-495.4 942.53,-490.98 941.88,-497.95"/>
<text text-anchor="middle" x="837.24" y="-493.8" font-family="Times,serif" font-size="14.00">name</text>
</g>
<!-- _&#45;&gt;_ -->
<g id="edge35" class="edge">
<title>_&#45;&gt;_</title>
<path fill="none" stroke="black" d="M522.34,-239.67C478.18,-252.28 486.82,-270 548.26,-270 604.67,-270 616.57,-255.06 583.99,-242.87"/>
<polygon fill="black" stroke="black" points="584.78,-239.44 574.18,-239.67 582.61,-246.1 584.78,-239.44"/>
<text text-anchor="middle" x="548.26" y="-273.8" font-family="Times,serif" font-size="14.00">inDefinedTermSet</text>
</g>
<!-- DefinedTermSet -->
<g id="node26" class="node">
<title>DefinedTermSet</title>
<ellipse fill="none" stroke="#558855" cx="1030.03" cy="-126" rx="85.59" ry="18"/>
<text text-anchor="middle" x="1030.03" y="-122.3" font-family="Times,serif" font-size="14.00">DefinedTermSet</text>
</g>
<!-- _&#45;&gt;DefinedTermSet -->
<g id="edge30" class="edge">
<title>_&#45;&gt;DefinedTermSet</title>
<path fill="none" stroke="black" d="M574.71,-237.68C619.25,-242.76 712.61,-247.2 775.74,-207 788.54,-198.85 781.44,-186.87 793.74,-178 832.66,-149.95 851.92,-163.42 898.74,-153 917.75,-148.77 938.37,-144.4 957.48,-140.43"/>
<polygon fill="black" stroke="black" points="958.23,-143.85 967.31,-138.4 956.81,-137 958.23,-143.85"/>
<text text-anchor="middle" x="837.24" y="-181.8" font-family="Times,serif" font-size="14.00">type</text>
</g>
<!-- &quot;Description of the s...&quot; -->
<g id="node27" class="node">
<title>&quot;Description of the s...&quot;</title>
<ellipse fill="none" stroke="black" stroke-width="0" cx="1030.03" cy="-72" rx="119.68" ry="18"/>
<text text-anchor="middle" x="1030.03" y="-68.3" font-family="Times,serif" font-size="14.00">&quot;Description of the s...&quot;</text>
</g>
<!-- _&#45;&gt;&quot;Description of the s...&quot; -->
<g id="edge31" class="edge">
<title>_&#45;&gt;&quot;Description of the s...&quot;</title>
<path fill="none" stroke="black" d="M574.28,-239.23C620.25,-247.27 718.68,-256.94 775.74,-207 799.92,-185.85 772.14,-160.77 793.74,-137 827.12,-100.27 850.99,-112.51 898.74,-99 912.92,-94.99 928.12,-91.3 942.95,-88.02"/>
<polygon fill="black" stroke="black" points="944.11,-91.35 953.15,-85.82 942.63,-84.51 944.11,-91.35"/>
<text text-anchor="middle" x="837.24" y="-140.8" font-family="Times,serif" font-size="14.00">description</text>
</g>
<!-- &quot;Name of the set&quot; -->
<g id="node28" class="node">
<title>&quot;Name of the set&quot;</title>
<ellipse fill="none" stroke="black" stroke-width="0" cx="1030.03" cy="-18" rx="93.68" ry="18"/>
<text text-anchor="middle" x="1030.03" y="-14.3" font-family="Times,serif" font-size="14.00">&quot;Name of the set&quot;</text>
</g>
<!-- _&#45;&gt;&quot;Name of the set&quot; -->
<g id="edge32" class="edge">
<title>_&#45;&gt;&quot;Name of the set&quot;</title>
<path fill="none" stroke="black" d="M574.07,-239.65C620.57,-248.63 721.1,-260.14 775.74,-207 815.03,-168.79 759.42,-127.73 793.74,-85 825.46,-45.51 878.69,-28.27 926.51,-21.12"/>
<polygon fill="black" stroke="black" points="927.19,-24.56 936.62,-19.75 926.24,-17.63 927.19,-24.56"/>
<text text-anchor="middle" x="837.24" y="-88.8" font-family="Times,serif" font-size="14.00">name</text>
</g>
<!-- &quot;url for the set&quot; -->
<g id="node29" class="node">
<title>&quot;url for the set&quot;</title>
<ellipse fill="none" stroke="black" stroke-width="0" cx="1030.03" cy="-288" rx="83.69" ry="18"/>
<text text-anchor="middle" x="1030.03" y="-284.3" font-family="Times,serif" font-size="14.00">&quot;url for the set&quot;</text>
</g>
<!-- _&#45;&gt;&quot;url for the set&quot; -->
<g id="edge33" class="edge">
<title>_&#45;&gt;&quot;url for the set&quot;</title>
<path fill="none" stroke="black" d="M575.06,-236.9C643.85,-244.65 834.02,-266.05 945.2,-278.56"/>
<polygon fill="black" stroke="black" points="945.04,-282.07 955.37,-279.71 945.83,-275.11 945.04,-282.07"/>
<text text-anchor="middle" x="837.24" y="-273.8" font-family="Times,serif" font-size="14.00">url</text>
</g>
<!-- DefinedTerm -->
<g id="node30" class="node">
<title>DefinedTerm</title>
<ellipse fill="none" stroke="#558855" cx="1030.03" cy="-234" rx="70.39" ry="18"/>
<text text-anchor="middle" x="1030.03" y="-230.3" font-family="Times,serif" font-size="14.00">DefinedTerm</text>
</g>
<!-- _&#45;&gt;DefinedTerm -->
<g id="edge34" class="edge">
<title>_&#45;&gt;DefinedTerm</title>
<path fill="none" stroke="black" d="M575.4,-234C645.37,-234 839.11,-234 949.44,-234"/>
<polygon fill="black" stroke="black" points="949.52,-237.5 959.52,-234 949.52,-230.5 949.52,-237.5"/>
<text text-anchor="middle" x="837.24" y="-237.8" font-family="Times,serif" font-size="14.00">type</text>
</g>
<!-- &quot;A code that identifi...&quot; -->
<g id="node31" class="node">
<title>&quot;A code that identifi...&quot;</title>
<ellipse fill="none" stroke="black" stroke-width="0" cx="1030.03" cy="-180" rx="116.18" ry="18"/>
<text text-anchor="middle" x="1030.03" y="-176.3" font-family="Times,serif" font-size="14.00">&quot;A code that identifi...&quot;</text>
</g>
<!-- _&#45;&gt;&quot;A code that identifi...&quot; -->
<g id="edge36" class="edge">
<title>_&#45;&gt;&quot;A code that identifi...&quot;</title>
<path fill="none" stroke="black" d="M575.06,-231.1C639.86,-223.8 812.36,-204.39 925.08,-191.7"/>
<polygon fill="black" stroke="black" points="925.57,-195.17 935.12,-190.57 924.79,-188.21 925.57,-195.17"/>
<text text-anchor="middle" x="837.24" y="-208.8" font-family="Times,serif" font-size="14.00">termCode</text>
</g>
<!-- www.repositoryB.org&#45;&gt;Organization -->
<g id="edge20" class="edge">
<title>www.repositoryB.org&#45;&gt;Organization</title>
<path fill="none" stroke="black" d="M600.36,-679.84C652.61,-698.73 732.1,-735.47 775.74,-795 797.54,-824.74 767.62,-849.97 793.74,-876 821.78,-903.93 852.15,-867.63 880.74,-895 903.33,-916.62 876.04,-941.5 898.74,-963 912.46,-975.99 930.72,-983.44 949.21,-987.56"/>
<polygon fill="black" stroke="black" points="948.69,-991.02 959.17,-989.47 950.01,-984.15 948.69,-991.02"/>
<text text-anchor="middle" x="837.24" y="-898.8" font-family="Times,serif" font-size="14.00">type</text>
</g>
<!-- www.repositoryB.org&#45;&gt;&quot;https//www.sample&#45;da...&quot; -->
<g id="edge24" class="edge">
<title>www.repositoryB.org&#45;&gt;&quot;https//www.sample&#45;da...&quot;</title>
<path fill="none" stroke="black" d="M654.43,-668.28C694.84,-665.55 739.84,-656.83 775.74,-635 787.75,-627.7 782.1,-616.88 793.74,-609 833.39,-582.17 851.97,-595.19 898.74,-585 913.92,-581.69 930.12,-578.26 945.76,-574.99"/>
<polygon fill="black" stroke="black" points="946.85,-578.34 955.93,-572.88 945.43,-571.49 946.85,-578.34"/>
<text text-anchor="middle" x="837.24" y="-612.8" font-family="Times,serif" font-size="14.00">url</text>
</g>
<!-- &quot;Sample Data Reposito...&quot; -->
<g id="node19" class="node">
<title>&quot;Sample Data Reposito...&quot;</title>
<ellipse fill="none" stroke="black" stroke-width="0" cx="1030.03" cy="-612" rx="131.08" ry="18"/>
<text text-anchor="middle" x="1030.03" y="-608.3" font-family="Times,serif" font-size="14.00">&quot;Sample Data Reposito...&quot;</text>
</g>
<!-- www.repositoryB.org&#45;&gt;&quot;Sample Data Reposito...&quot; -->
<g id="edge21" class="edge">
<title>www.repositoryB.org&#45;&gt;&quot;Sample Data Reposito...&quot;</title>
<path fill="none" stroke="black" d="M640.07,-654.16C718.51,-645.66 832.19,-633.33 916.42,-624.21"/>
<polygon fill="black" stroke="black" points="916.97,-627.67 926.54,-623.11 916.22,-620.71 916.97,-627.67"/>
<text text-anchor="middle" x="837.24" y="-639.8" font-family="Times,serif" font-size="14.00">legalName</text>
</g>
<!-- &quot;SDRO&quot; -->
<g id="node20" class="node">
<title>&quot;SDRO&quot;</title>
<ellipse fill="none" stroke="black" stroke-width="0" cx="1030.03" cy="-720" rx="47.39" ry="18"/>
<text text-anchor="middle" x="1030.03" y="-716.3" font-family="Times,serif" font-size="14.00">&quot;SDRO&quot;</text>
</g>
<!-- www.repositoryB.org&#45;&gt;&quot;SDRO&quot; -->
<g id="edge22" class="edge">
<title>www.repositoryB.org&#45;&gt;&quot;SDRO&quot;</title>
<path fill="none" stroke="black" d="M637.82,-674.34C736.22,-685.82 892.06,-704.01 974.2,-713.6"/>
<polygon fill="black" stroke="black" points="973.98,-717.1 984.32,-714.78 974.8,-710.15 973.98,-717.1"/>
<text text-anchor="middle" x="837.24" y="-704.8" font-family="Times,serif" font-size="14.00">name</text>
</g>
<!-- &quot;http//www.re3data.or...&quot; -->
<g id="node21" class="node">
<title>&quot;http//www.re3data.or...&quot;</title>
<ellipse fill="none" stroke="black" stroke-width="0" cx="1030.03" cy="-666" rx="126.98" ry="18"/>
<text text-anchor="middle" x="1030.03" y="-662.3" font-family="Times,serif" font-size="14.00">&quot;http//www.re3data.or...&quot;</text>
</g>
<!-- www.repositoryB.org&#45;&gt;&quot;http//www.re3data.or...&quot; -->
<g id="edge23" class="edge">
<title>www.repositoryB.org&#45;&gt;&quot;http//www.re3data.or...&quot;</title>
<path fill="none" stroke="black" d="M657.53,-664.45C727.21,-664.74 818.36,-665.12 892.93,-665.43"/>
<polygon fill="black" stroke="black" points="893.32,-668.93 903.34,-665.48 893.35,-661.93 893.32,-668.93"/>
<text text-anchor="middle" x="837.24" y="-668.8" font-family="Times,serif" font-size="14.00">sameAs</text>
</g>
<!-- www.publishingrus.org&#45;&gt;Organization -->
<g id="edge18" class="edge">
<title>www.publishingrus.org&#45;&gt;Organization</title>
<path fill="none" stroke="black" d="M665.54,-971.57C729.16,-970.95 809.33,-971.29 880.74,-975 905.27,-976.27 932.01,-978.67 955.93,-981.17"/>
<polygon fill="black" stroke="black" points="955.68,-984.67 966,-982.25 956.43,-977.71 955.68,-984.67"/>
<text text-anchor="middle" x="837.24" y="-978.8" font-family="Times,serif" font-size="14.00">type</text>
</g>
<!-- www.publishingrus.org&#45;&gt;&quot;Some Institute&quot; -->
<g id="edge19" class="edge">
<title>www.publishingrus.org&#45;&gt;&quot;Some Institute&quot;</title>
<path fill="none" stroke="black" d="M664.78,-977.34C729.23,-981.4 810.45,-990.17 880.74,-1009 889.2,-1011.27 890.64,-1013.68 898.74,-1017 924,-1027.35 952.33,-1038.11 976.1,-1046.89"/>
<polygon fill="black" stroke="black" points="975.06,-1050.24 985.65,-1050.41 977.47,-1043.67 975.06,-1050.24"/>
<text text-anchor="middle" x="837.24" y="-1012.8" font-family="Times,serif" font-size="14.00">legalName</text>
</g>
</g>
</svg>
