<?xml version="1.0" encoding="UTF-8" standalone="no"?>
<!DOCTYPE svg PUBLIC "-//W3C//DTD SVG 1.1//EN"
 "http://www.w3.org/Graphics/SVG/1.1/DTD/svg11.dtd">
<!-- Generated by graphviz version 2.44.0 (0)
 -->
<!-- Pages: 1 -->
<svg width="1820pt" height="334pt"
 viewBox="0.00 0.00 1820.37 334.00" xmlns="http://www.w3.org/2000/svg" xmlns:xlink="http://www.w3.org/1999/xlink">
<g id="graph0" class="graph" transform="scale(1 1) rotate(0) translate(4 330)">
<polygon fill="white" stroke="transparent" points="-4,4 -4,-330 1816.37,-330 1816.37,4 -4,4"/>
<text text-anchor="middle" x="906.18" y="-22.8" font-family="Times-Roman" font-size="14.00">Model:</text>
<text text-anchor="middle" x="906.18" y="-7.8" font-family="Times-Roman" font-size="14.00">https://iode.org/</text>
<!-- Rfile:///home/fils/src/Projects/OIH/odis&#45;arch/schema/thematics/training/graphs/ID_for_this_metadata_record -->
<g id="node1" class="node">
<title>Rfile:///home/fils/src/Projects/OIH/odis&#45;arch/schema/thematics/training/graphs/ID_for_this_metadata_record</title>
<ellipse fill="none" stroke="blue" cx="484.86" cy="-225" rx="484.71" ry="18"/>
<text text-anchor="middle" x="484.86" y="-221.3" font-family="Times-Roman" font-size="14.00">file:///home/fils/src/Projects/OIH/odis&#45;arch/schema/thematics/training/graphs/ID_for_this_metadata_record</text>
</g>
<!-- Rschema:Course -->
<g id="node2" class="node">
<title>Rschema:Course</title>
<ellipse fill="none" stroke="blue" cx="1227.31" cy="-308" rx="80.69" ry="18"/>
<text text-anchor="middle" x="1227.31" y="-304.3" font-family="Times-Roman" font-size="14.00">schema:Course</text>
</g>
<!-- Rfile:///home/fils/src/Projects/OIH/odis&#45;arch/schema/thematics/training/graphs/ID_for_this_metadata_record&#45;&gt;Rschema:Course -->
<g id="edge1" class="edge">
<title>Rfile:///home/fils/src/Projects/OIH/odis&#45;arch/schema/thematics/training/graphs/ID_for_this_metadata_record&#45;&gt;Rschema:Course</title>
<path fill="none" stroke="black" stroke-dasharray="1,5" d="M638.38,-242.1C791.97,-259.31 1023.1,-285.22 1144.76,-298.86"/>
<polygon fill="black" stroke="black" points="1144.43,-302.34 1154.75,-299.98 1145.21,-295.39 1144.43,-302.34"/>
<text text-anchor="middle" x="1058.21" y="-298.8" font-family="Times-Roman" font-size="14.00">rdfs:type</text>
</g>
<!-- LF300 -->
<g id="node3" class="node">
<title>LF300</title>
<polygon fill="none" stroke="black" points="1200.31,-235 1200.31,-271 1254.31,-271 1254.31,-235 1200.31,-235"/>
<text text-anchor="middle" x="1227.31" y="-249.3" font-family="Times-Roman" font-size="14.00">F300</text>
</g>
<!-- Rfile:///home/fils/src/Projects/OIH/odis&#45;arch/schema/thematics/training/graphs/ID_for_this_metadata_record&#45;&gt;LF300 -->
<g id="edge2" class="edge">
<title>Rfile:///home/fils/src/Projects/OIH/odis&#45;arch/schema/thematics/training/graphs/ID_for_this_metadata_record&#45;&gt;LF300</title>
<path fill="none" stroke="black" stroke-dasharray="1,5" d="M825.2,-237.83C970.39,-243.32 1121.96,-249.05 1189.75,-251.62"/>
<polygon fill="black" stroke="black" points="1189.78,-255.12 1199.9,-252 1190.04,-248.13 1189.78,-255.12"/>
<text text-anchor="middle" x="1058.21" y="-251.8" font-family="Times-Roman" font-size="14.00">schema:courseCode</text>
</g>
<!-- LPhysics -->
<g id="node4" class="node">
<title>LPhysics</title>
<polygon fill="none" stroke="black" points="1193.31,-180 1193.31,-216 1261.31,-216 1261.31,-180 1193.31,-180"/>
<text text-anchor="middle" x="1227.31" y="-194.3" font-family="Times-Roman" font-size="14.00">Physics</text>
</g>
<!-- Rfile:///home/fils/src/Projects/OIH/odis&#45;arch/schema/thematics/training/graphs/ID_for_this_metadata_record&#45;&gt;LPhysics -->
<g id="edge3" class="edge">
<title>Rfile:///home/fils/src/Projects/OIH/odis&#45;arch/schema/thematics/training/graphs/ID_for_this_metadata_record&#45;&gt;LPhysics</title>
<path fill="none" stroke="black" stroke-dasharray="1,5" d="M831.42,-212.4C970.15,-207.34 1113.51,-202.11 1183.14,-199.57"/>
<polygon fill="black" stroke="black" points="1183.4,-203.07 1193.27,-199.2 1183.15,-196.07 1183.4,-203.07"/>
<text text-anchor="middle" x="1058.21" y="-208.8" font-family="Times-Roman" font-size="14.00">schema:name</text>
</g>
<!-- B_:b0 -->
<g id="node5" class="node">
<title>B_:b0</title>
<ellipse fill="none" stroke="green" cx="1227.31" cy="-143" rx="18" ry="18"/>
</g>
<!-- Rfile:///home/fils/src/Projects/OIH/odis&#45;arch/schema/thematics/training/graphs/ID_for_this_metadata_record&#45;&gt;B_:b0 -->
<g id="edge4" class="edge">
<title>Rfile:///home/fils/src/Projects/OIH/odis&#45;arch/schema/thematics/training/graphs/ID_for_this_metadata_record&#45;&gt;B_:b0</title>
<path fill="none" stroke="black" stroke-dasharray="1,5" d="M640.18,-207.91C821.84,-187.79 1110.12,-155.87 1199.19,-146"/>
<polygon fill="black" stroke="black" points="1199.72,-149.47 1209.27,-144.89 1198.95,-142.51 1199.72,-149.47"/>
<text text-anchor="middle" x="1058.21" y="-170.8" font-family="Times-Roman" font-size="14.00">schema:provider</text>
</g>
<!-- Rschema:CollegeOrUniversity -->
<g id="node6" class="node">
<title>Rschema:CollegeOrUniversity</title>
<ellipse fill="none" stroke="blue" cx="1627.13" cy="-198" rx="139.18" ry="18"/>
<text text-anchor="middle" x="1627.13" y="-194.3" font-family="Times-Roman" font-size="14.00">schema:CollegeOrUniversity</text>
</g>
<!-- B_:b0&#45;&gt;Rschema:CollegeOrUniversity -->
<g id="edge5" class="edge">
<title>B_:b0&#45;&gt;Rschema:CollegeOrUniversity</title>
<path fill="none" stroke="black" stroke-dasharray="1,5" d="M1245.17,-146.67C1264.57,-150.8 1297.42,-157.53 1325.9,-162 1385.46,-171.36 1452.01,-179.56 1507.29,-185.77"/>
<polygon fill="black" stroke="black" points="1507.15,-189.28 1517.48,-186.9 1507.92,-182.32 1507.15,-189.28"/>
<text text-anchor="middle" x="1374.9" y="-177.8" font-family="Times-Roman" font-size="14.00">rdfs:type</text>
</g>
<!-- LUniversity of Bristol -->
<g id="node7" class="node">
<title>LUniversity of Bristol</title>
<polygon fill="none" stroke="black" points="1550.13,-125 1550.13,-161 1704.13,-161 1704.13,-125 1550.13,-125"/>
<text text-anchor="middle" x="1627.13" y="-139.3" font-family="Times-Roman" font-size="14.00">University of Bristol</text>
</g>
<!-- B_:b0&#45;&gt;LUniversity of Bristol -->
<g id="edge6" class="edge">
<title>B_:b0&#45;&gt;LUniversity of Bristol</title>
<path fill="none" stroke="black" stroke-dasharray="1,5" d="M1245.4,-143C1295.34,-143 1443.52,-143 1539.61,-143"/>
<polygon fill="black" stroke="black" points="1539.9,-146.5 1549.9,-143 1539.9,-139.5 1539.9,-146.5"/>
<text text-anchor="middle" x="1374.9" y="-146.8" font-family="Times-Roman" font-size="14.00">schema:name</text>
</g>
<!-- Rfile:///provider/324/university&#45;of&#45;bristol -->
<g id="node8" class="node">
<title>Rfile:///provider/324/university&#45;of&#45;bristol</title>
<ellipse fill="none" stroke="blue" cx="1627.13" cy="-88" rx="185.47" ry="18"/>
<text text-anchor="middle" x="1627.13" y="-84.3" font-family="Times-Roman" font-size="14.00">file:///provider/324/university&#45;of&#45;bristol</text>
</g>
<!-- B_:b0&#45;&gt;Rfile:///provider/324/university&#45;of&#45;bristol -->
<g id="edge7" class="edge">
<title>B_:b0&#45;&gt;Rfile:///provider/324/university&#45;of&#45;bristol</title>
<path fill="none" stroke="black" stroke-dasharray="1,5" d="M1245.17,-139.33C1264.57,-135.2 1297.42,-128.47 1325.9,-124 1379.14,-115.64 1437.96,-108.19 1489.32,-102.27"/>
<polygon fill="black" stroke="black" points="1489.95,-105.72 1499.49,-101.11 1489.16,-98.77 1489.95,-105.72"/>
<text text-anchor="middle" x="1374.9" y="-127.8" font-family="Times-Roman" font-size="14.00">schema:url</text>
</g>
</g>
</svg>
