<?xml version="1.0" encoding="UTF-8" standalone="no"?>
<!DOCTYPE svg PUBLIC "-//W3C//DTD SVG 1.1//EN"
 "http://www.w3.org/Graphics/SVG/1.1/DTD/svg11.dtd">
<!-- Generated by graphviz version 5.0.0 (0)
 -->
<!-- Pages: 1 -->
<svg width="1457pt" height="584pt"
 viewBox="0.00 0.00 1457.20 584.00" xmlns="http://www.w3.org/2000/svg" xmlns:xlink="http://www.w3.org/1999/xlink">
<g id="graph0" class="graph" transform="scale(1 1) rotate(0) translate(4 580)">
<polygon fill="white" stroke="transparent" points="-4,4 -4,-580 1453.2,-580 1453.2,4 -4,4"/>
<!-- &quot;{&quot;geometries&quot;[{&quot;coor...&quot; -->
<g id="node1" class="node">
<title>&quot;{&quot;geometries&quot;[{&quot;coor...&quot;</title>
<ellipse fill="none" stroke="black" stroke-width="0" cx="799.2" cy="-429" rx="128.08" ry="18"/>
<text text-anchor="middle" x="799.2" y="-425.3" font-family="Times,serif" font-size="14.00">&quot;{&quot;geometries&quot;[{&quot;coor...&quot;</text>
</g>
<!-- samples.earth/id/do/bqs2dn2u6s73o70jdup0 -->
<g id="node2" class="node">
<title>samples.earth/id/do/bqs2dn2u6s73o70jdup0</title>
<ellipse fill="none" stroke="black" cx="217.08" cy="-318" rx="217.16" ry="18"/>
<text text-anchor="middle" x="217.08" y="-314.3" font-family="Times,serif" font-size="14.00">samples.earth/id/do/bqs2dn2u6s73o70jdup0</text>
</g>
<!-- samples.earth/id/do/bqs2dn2u6s73o70jdup0&#45;&gt;&quot;{&quot;geometries&quot;[{&quot;coor...&quot; -->
<g id="edge1" class="edge">
<title>samples.earth/id/do/bqs2dn2u6s73o70jdup0&#45;&gt;&quot;{&quot;geometries&quot;[{&quot;coor...&quot;</title>
<path fill="none" stroke="black" d="M275.83,-335.34C322.94,-348.99 391.39,-367.69 452.16,-380 530.22,-395.81 619.21,-408.29 687.39,-416.69"/>
<polygon fill="black" stroke="black" points="687.37,-420.22 697.72,-417.96 688.22,-413.27 687.37,-420.22"/>
<text text-anchor="middle" x="552.66" y="-414.8" font-family="Times,serif" font-size="14.00">example.com/vocab/json</text>
</g>
<!-- &quot;A fake ID for testin...&quot; -->
<g id="node3" class="node">
<title>&quot;A fake ID for testin...&quot;</title>
<ellipse fill="none" stroke="black" stroke-width="0" cx="799.2" cy="-375" rx="116.18" ry="18"/>
<text text-anchor="middle" x="799.2" y="-371.3" font-family="Times,serif" font-size="14.00">&quot;A fake ID for testin...&quot;</text>
</g>
<!-- samples.earth/id/do/bqs2dn2u6s73o70jdup0&#45;&gt;&quot;A fake ID for testin...&quot; -->
<g id="edge2" class="edge">
<title>samples.earth/id/do/bqs2dn2u6s73o70jdup0&#45;&gt;&quot;A fake ID for testin...&quot;</title>
<path fill="none" stroke="black" d="M353.29,-332.03C385.68,-335.34 420.15,-338.83 452.16,-342 531.28,-349.83 620.6,-358.34 688.68,-364.76"/>
<polygon fill="black" stroke="black" points="688.71,-368.27 698.99,-365.73 689.36,-361.3 688.71,-368.27"/>
<text text-anchor="middle" x="552.66" y="-364.8" font-family="Times,serif" font-size="14.00">igsn.org/core/v1/description</text>
</g>
<!-- _ -->
<g id="node4" class="node">
<title>_</title>
<ellipse fill="none" stroke="#558855" cx="799.2" cy="-288" rx="27" ry="18"/>
<text text-anchor="middle" x="799.2" y="-284.3" font-family="Times,serif" font-size="14.00">_</text>
</g>
<!-- samples.earth/id/do/bqs2dn2u6s73o70jdup0&#45;&gt;_ -->
<g id="edge3" class="edge">
<title>samples.earth/id/do/bqs2dn2u6s73o70jdup0&#45;&gt;_</title>
<path fill="none" stroke="black" d="M421.82,-324.04C494.93,-324.24 577.87,-322.21 653.16,-315 691.2,-311.36 734.16,-302.79 763.38,-296.28"/>
<polygon fill="black" stroke="black" points="764.52,-299.61 773.5,-293.98 762.97,-292.78 764.52,-299.61"/>
<text text-anchor="middle" x="552.66" y="-326.8" font-family="Times,serif" font-size="14.00">hasGeometry</text>
</g>
<!-- samples.earth/id/do/bqs2dn2u6s73o70jdup0&#45;&gt;_ -->
<g id="edge5" class="edge">
<title>samples.earth/id/do/bqs2dn2u6s73o70jdup0&#45;&gt;_</title>
<path fill="none" stroke="black" d="M351.34,-303.83C384.26,-300.79 419.46,-297.91 452.16,-296 565.01,-289.4 698.86,-288.18 761.91,-288"/>
<polygon fill="black" stroke="black" points="762.14,-291.5 772.13,-287.97 762.12,-284.5 762.14,-291.5"/>
<text text-anchor="middle" x="552.66" y="-299.8" font-family="Times,serif" font-size="14.00">spatialCoverage</text>
</g>
<!-- samples.earth/id/do/bqs2dn2u6s73o70jdup0&#45;&gt;_ -->
<g id="edge6" class="edge">
<title>samples.earth/id/do/bqs2dn2u6s73o70jdup0&#45;&gt;_</title>
<path fill="none" stroke="black" d="M283.62,-300.86C330.25,-289.57 394.59,-275.84 452.16,-270 541.04,-260.98 564,-264.49 653.16,-270 690.72,-272.32 733.43,-277.99 762.72,-282.35"/>
<polygon fill="black" stroke="black" points="762.46,-285.86 772.87,-283.89 763.51,-278.93 762.46,-285.86"/>
<text text-anchor="middle" x="552.66" y="-273.8" font-family="Times,serif" font-size="14.00">subjectOf</text>
</g>
<!-- igsn.org/core/v1/Sample -->
<g id="node5" class="node">
<title>igsn.org/core/v1/Sample</title>
<ellipse fill="none" stroke="#558855" cx="799.2" cy="-223" rx="123.48" ry="18"/>
<text text-anchor="middle" x="799.2" y="-219.3" font-family="Times,serif" font-size="14.00">igsn.org/core/v1/Sample</text>
</g>
<!-- samples.earth/id/do/bqs2dn2u6s73o70jdup0&#45;&gt;igsn.org/core/v1/Sample -->
<g id="edge4" class="edge">
<title>samples.earth/id/do/bqs2dn2u6s73o70jdup0&#45;&gt;igsn.org/core/v1/Sample</title>
<path fill="none" stroke="black" d="M263.45,-300.29C310.03,-282.97 384.98,-257.43 452.16,-245 521.83,-232.11 600.59,-226.43 665.35,-224.04"/>
<polygon fill="black" stroke="black" points="665.74,-227.53 675.62,-223.69 665.5,-220.53 665.74,-227.53"/>
<text text-anchor="middle" x="552.66" y="-248.8" font-family="Times,serif" font-size="14.00">type</text>
</g>
<!-- _&#45;&gt;_ -->
<g id="edge8" class="edge">
<title>_&#45;&gt;_</title>
<path fill="none" stroke="black" d="M775.67,-297.04C754.85,-309.2 762.69,-324 799.2,-324 829.72,-324 840.21,-313.66 830.67,-303.16"/>
<polygon fill="black" stroke="black" points="832.79,-300.38 822.73,-297.04 828.51,-305.92 832.79,-300.38"/>
<text text-anchor="middle" x="799.2" y="-327.8" font-family="Times,serif" font-size="14.00">geo</text>
</g>
<!-- Place -->
<g id="node6" class="node">
<title>Place</title>
<ellipse fill="none" stroke="#558855" cx="1247.72" cy="-558" rx="36" ry="18"/>
<text text-anchor="middle" x="1247.72" y="-554.3" font-family="Times,serif" font-size="14.00">Place</text>
</g>
<!-- _&#45;&gt;Place -->
<g id="edge7" class="edge">
<title>_&#45;&gt;Place</title>
<path fill="none" stroke="black" d="M825.6,-292.46C855.15,-299.08 902.97,-314.53 927.24,-348 964.84,-399.86 905.99,-440.37 945.24,-491 1005.7,-568.99 1135.06,-569.47 1202.99,-563.58"/>
<polygon fill="black" stroke="black" points="1203.33,-567.06 1212.95,-562.63 1202.67,-560.09 1203.33,-567.06"/>
<text text-anchor="middle" x="986.74" y="-548.8" font-family="Times,serif" font-size="14.00">type</text>
</g>
<!-- GeoCoordinates -->
<g id="node7" class="node">
<title>GeoCoordinates</title>
<ellipse fill="none" stroke="#558855" cx="1247.72" cy="-504" rx="85.29" ry="18"/>
<text text-anchor="middle" x="1247.72" y="-500.3" font-family="Times,serif" font-size="14.00">GeoCoordinates</text>
</g>
<!-- _&#45;&gt;GeoCoordinates -->
<g id="edge9" class="edge">
<title>_&#45;&gt;GeoCoordinates</title>
<path fill="none" stroke="black" d="M825.44,-292.84C854.6,-299.8 901.82,-315.55 927.24,-348 952.13,-379.77 919.34,-406.05 945.24,-437 976.22,-474.03 999.52,-464.8 1046.24,-477 1081.96,-486.33 1122.15,-492.55 1157.12,-496.64"/>
<polygon fill="black" stroke="black" points="1156.98,-500.15 1167.31,-497.79 1157.76,-493.19 1156.98,-500.15"/>
<text text-anchor="middle" x="986.74" y="-475.8" font-family="Times,serif" font-size="14.00">type</text>
</g>
<!-- &quot;&#45;18&quot; -->
<g id="node8" class="node">
<title>&quot;&#45;18&quot;</title>
<ellipse fill="none" stroke="black" stroke-width="0" cx="1247.72" cy="-450" rx="34.39" ry="18"/>
<text text-anchor="middle" x="1247.72" y="-446.3" font-family="Times,serif" font-size="14.00">&quot;&#45;18&quot;</text>
</g>
<!-- _&#45;&gt;&quot;&#45;18&quot; -->
<g id="edge10" class="edge">
<title>_&#45;&gt;&quot;&#45;18&quot;</title>
<path fill="none" stroke="black" d="M824.72,-294.37C852.54,-302.68 897.87,-319.6 927.24,-348 939.81,-360.16 932.28,-371.25 945.24,-383 981.01,-415.43 999.52,-410.8 1046.24,-423 1099.22,-436.84 1162.04,-443.84 1203.05,-447.19"/>
<polygon fill="black" stroke="black" points="1203.01,-450.7 1213.25,-447.99 1203.55,-443.72 1203.01,-450.7"/>
<text text-anchor="middle" x="986.74" y="-421.8" font-family="Times,serif" font-size="14.00">latitude</text>
</g>
<!-- &quot;&#45;76&quot; -->
<g id="node9" class="node">
<title>&quot;&#45;76&quot;</title>
<ellipse fill="none" stroke="black" stroke-width="0" cx="1247.72" cy="-396" rx="34.39" ry="18"/>
<text text-anchor="middle" x="1247.72" y="-392.3" font-family="Times,serif" font-size="14.00">&quot;&#45;76&quot;</text>
</g>
<!-- _&#45;&gt;&quot;&#45;76&quot; -->
<g id="edge11" class="edge">
<title>_&#45;&gt;&quot;&#45;76&quot;</title>
<path fill="none" stroke="black" d="M822.87,-297.03C865.77,-313.77 962.09,-349.66 1046.24,-369 1099.61,-381.27 1162.34,-388.61 1203.23,-392.47"/>
<polygon fill="black" stroke="black" points="1203.11,-395.98 1213.39,-393.4 1203.75,-389.01 1203.11,-395.98"/>
<text text-anchor="middle" x="986.74" y="-367.8" font-family="Times,serif" font-size="14.00">longitude</text>
</g>
<!-- &quot;POINT(&#45;76 &#45;18)&quot; -->
<g id="node10" class="node">
<title>&quot;POINT(&#45;76 &#45;18)&quot;</title>
<ellipse fill="none" stroke="black" stroke-width="0" cx="1247.72" cy="-342" rx="89.08" ry="18"/>
<text text-anchor="middle" x="1247.72" y="-338.3" font-family="Times,serif" font-size="14.00">&quot;POINT(&#45;76 &#45;18)&quot;</text>
</g>
<!-- _&#45;&gt;&quot;POINT(&#45;76 &#45;18)&quot; -->
<g id="edge12" class="edge">
<title>_&#45;&gt;&quot;POINT(&#45;76 &#45;18)&quot;</title>
<path fill="none" stroke="black" d="M825.86,-291.48C854.84,-295.38 903.4,-301.83 945.24,-307 1017.29,-315.9 1099.11,-325.36 1159.32,-332.2"/>
<polygon fill="black" stroke="black" points="1159.21,-335.71 1169.54,-333.36 1160,-328.75 1159.21,-335.71"/>
<text text-anchor="middle" x="986.74" y="-319.8" font-family="Times,serif" font-size="14.00">asWKT</text>
</g>
<!-- www.opengis.net/def/crs/OGC/1.3/CRS84 -->
<g id="node11" class="node">
<title>www.opengis.net/def/crs/OGC/1.3/CRS84</title>
<ellipse fill="none" stroke="#558855" cx="1247.72" cy="-288" rx="201.46" ry="18"/>
<text text-anchor="middle" x="1247.72" y="-284.3" font-family="Times,serif" font-size="14.00">www.opengis.net/def/crs/OGC/1.3/CRS84</text>
</g>
<!-- _&#45;&gt;www.opengis.net/def/crs/OGC/1.3/CRS84 -->
<g id="edge13" class="edge">
<title>_&#45;&gt;www.opengis.net/def/crs/OGC/1.3/CRS84</title>
<path fill="none" stroke="black" d="M826.46,-288C868.14,-288 953.2,-288 1035.96,-288"/>
<polygon fill="black" stroke="black" points="1036.04,-291.5 1046.04,-288 1036.04,-284.5 1036.04,-291.5"/>
<text text-anchor="middle" x="986.74" y="-291.8" font-family="Times,serif" font-size="14.00">crs</text>
</g>
<!-- Point -->
<g id="node12" class="node">
<title>Point</title>
<ellipse fill="none" stroke="#558855" cx="1247.72" cy="-234" rx="34.39" ry="18"/>
<text text-anchor="middle" x="1247.72" y="-230.3" font-family="Times,serif" font-size="14.00">Point</text>
</g>
<!-- _&#45;&gt;Point -->
<g id="edge14" class="edge">
<title>_&#45;&gt;Point</title>
<path fill="none" stroke="black" d="M825.86,-284.52C854.84,-280.62 903.4,-274.17 945.24,-269 1037.24,-257.63 1145.18,-245.36 1203.7,-238.79"/>
<polygon fill="black" stroke="black" points="1204.14,-242.27 1213.69,-237.67 1203.36,-235.31 1204.14,-242.27"/>
<text text-anchor="middle" x="986.74" y="-272.8" font-family="Times,serif" font-size="14.00">type</text>
</g>
<!-- DigitalDocument -->
<g id="node13" class="node">
<title>DigitalDocument</title>
<ellipse fill="none" stroke="#558855" cx="1247.72" cy="-180" rx="89.08" ry="18"/>
<text text-anchor="middle" x="1247.72" y="-176.3" font-family="Times,serif" font-size="14.00">DigitalDocument</text>
</g>
<!-- _&#45;&gt;DigitalDocument -->
<g id="edge15" class="edge">
<title>_&#45;&gt;DigitalDocument</title>
<path fill="none" stroke="black" d="M825.11,-282.25C851.13,-275.85 892.87,-264.48 927.24,-250 935.67,-246.45 936.85,-243.66 945.24,-240 988.52,-221.11 1000.2,-217.53 1046.24,-207 1081.76,-198.88 1121.42,-192.9 1156.03,-188.67"/>
<polygon fill="black" stroke="black" points="1156.61,-192.13 1166.12,-187.47 1155.78,-185.18 1156.61,-192.13"/>
<text text-anchor="middle" x="986.74" y="-243.8" font-family="Times,serif" font-size="14.00">type</text>
</g>
<!-- &quot;https//igsn.org/sche...&quot; -->
<g id="node14" class="node">
<title>&quot;https//igsn.org/sche...&quot;</title>
<ellipse fill="none" stroke="black" stroke-width="0" cx="1247.72" cy="-126" rx="120.48" ry="18"/>
<text text-anchor="middle" x="1247.72" y="-122.3" font-family="Times,serif" font-size="14.00">&quot;https//igsn.org/sche...&quot;</text>
</g>
<!-- _&#45;&gt;&quot;https//igsn.org/sche...&quot; -->
<g id="edge16" class="edge">
<title>_&#45;&gt;&quot;https//igsn.org/sche...&quot;</title>
<path fill="none" stroke="black" d="M826.43,-287.13C854.95,-284.78 900.09,-276.73 927.24,-250 946.17,-231.36 927.13,-212.44 945.24,-193 978.14,-157.67 999.52,-165.2 1046.24,-153 1074.13,-145.72 1104.74,-140.33 1133.46,-136.37"/>
<polygon fill="black" stroke="black" points="1134.09,-139.82 1143.54,-135.03 1133.16,-132.88 1134.09,-139.82"/>
<text text-anchor="middle" x="986.74" y="-196.8" font-family="Times,serif" font-size="14.00">conformsTo</text>
</g>
<!-- &quot;application/vnd.geo+...&quot; -->
<g id="node15" class="node">
<title>&quot;application/vnd.geo+...&quot;</title>
<ellipse fill="none" stroke="black" stroke-width="0" cx="1247.72" cy="-72" rx="126.98" ry="18"/>
<text text-anchor="middle" x="1247.72" y="-68.3" font-family="Times,serif" font-size="14.00">&quot;application/vnd.geo+...&quot;</text>
</g>
<!-- _&#45;&gt;&quot;application/vnd.geo+...&quot; -->
<g id="edge17" class="edge">
<title>_&#45;&gt;&quot;application/vnd.geo+...&quot;</title>
<path fill="none" stroke="black" d="M826.39,-287.89C855.54,-286.26 901.88,-278.89 927.24,-250 960.21,-212.44 913.92,-177.95 945.24,-139 975.49,-101.37 999.52,-111.2 1046.24,-99 1072.95,-92.02 1102.15,-86.79 1129.8,-82.88"/>
<polygon fill="black" stroke="black" points="1130.48,-86.32 1139.92,-81.5 1129.53,-79.38 1130.48,-86.32"/>
<text text-anchor="middle" x="986.74" y="-142.8" font-family="Times,serif" font-size="14.00">format</text>
</g>
<!-- &quot;https//samples.earth...&quot; -->
<g id="node16" class="node">
<title>&quot;https//samples.earth...&quot;</title>
<ellipse fill="none" stroke="black" stroke-width="0" cx="1247.72" cy="-18" rx="124.28" ry="18"/>
<text text-anchor="middle" x="1247.72" y="-14.3" font-family="Times,serif" font-size="14.00">&quot;https//samples.earth...&quot;</text>
</g>
<!-- _&#45;&gt;&quot;https//samples.earth...&quot; -->
<g id="edge18" class="edge">
<title>_&#45;&gt;&quot;https//samples.earth...&quot;</title>
<path fill="none" stroke="black" d="M826.4,-288.14C855.79,-286.75 902.56,-279.63 927.24,-250 974.45,-193.31 900.53,-143.67 945.24,-85 986.42,-30.96 1060.71,-14 1125.23,-10.66"/>
<polygon fill="black" stroke="black" points="1125.65,-14.14 1135.49,-10.23 1125.36,-7.15 1125.65,-14.14"/>
<text text-anchor="middle" x="986.74" y="-88.8" font-family="Times,serif" font-size="14.00">url</text>
</g>
</g>
</svg>
