<?xml version="1.0" encoding="UTF-8"?>
<!DOCTYPE svg PUBLIC "-//W3C//DTD SVG 1.1//EN" "http://www.w3.org/Graphics/SVG/1.1/DTD/svg11.dtd">
<svg version="1.1" xmlns="http://www.w3.org/2000/svg" xmlns:xlink="http://www.w3.org/1999/xlink" x="0" y="0" width="500" height="110" viewBox="0, 0, 500, 110">
  <g id="Layer_1">
    <path d="M0,-0 L500,-0 L500,110 L0,110 z" fill="#990000"/>
    <g>
      <path d="M35.336,69.617 Q35.692,72.663 36.879,73.889 Q38.936,76.144 44.631,76.144 Q47.954,76.183 49.932,75.155 Q51.87,74.166 51.87,72.188 Q51.87,70.329 50.288,69.301 Q48.666,68.351 38.54,65.899 Q31.222,64.079 28.216,61.35 Q25.171,58.7 25.21,53.597 Q25.21,47.664 29.917,43.313 Q34.585,39.041 43.089,39.041 Q51.158,39.041 56.26,42.245 Q61.284,45.528 62.075,53.4 L50.802,53.4 Q50.565,51.224 49.576,49.958 Q47.677,47.664 43.247,47.664 Q39.568,47.704 38.026,48.811 Q36.404,49.958 36.444,51.501 Q36.444,53.479 38.105,54.309 Q39.766,55.259 49.853,57.434 Q56.537,59.056 59.939,62.22 Q63.262,65.503 63.262,70.329 Q63.262,76.737 58.515,80.771 Q53.689,84.885 43.761,84.846 Q33.556,84.885 28.77,80.534 Q23.905,76.262 23.905,69.617 z" fill="#510000"/>
      <path d="M35.336,62.866 Q35.692,65.912 36.879,67.138 Q38.936,69.393 44.631,69.393 Q47.954,69.432 49.932,68.404 Q51.87,67.415 51.87,65.437 Q51.87,63.578 50.288,62.55 Q48.666,61.601 38.54,59.148 Q31.222,57.329 28.216,54.599 Q25.171,51.949 25.21,46.847 Q25.21,40.914 29.917,36.563 Q34.585,32.291 43.089,32.291 Q51.158,32.291 56.26,35.495 Q61.284,38.778 62.075,46.649 L50.802,46.649 Q50.565,44.473 49.576,43.208 Q47.677,40.914 43.247,40.914 Q39.568,40.953 38.026,42.061 Q36.404,43.208 36.444,44.75 Q36.444,46.728 38.105,47.559 Q39.766,48.508 49.853,50.684 Q56.537,52.305 59.939,55.47 Q63.262,58.753 63.262,63.578 Q63.262,69.986 58.515,74.021 Q53.689,78.134 43.761,78.095 Q33.556,78.134 28.77,73.783 Q23.905,69.512 23.905,62.866 z" fill="#FFFFFF"/>
    </g>
    <g>
      <path d="M96.057,54.742 Q95.741,52.369 94.435,50.391 Q92.497,47.781 88.542,47.781 Q82.806,47.82 80.75,53.437 Q79.602,56.483 79.642,61.427 Q79.602,66.173 80.75,69.061 Q82.767,74.48 88.344,74.44 Q92.299,74.44 93.961,72.304 Q95.622,70.168 95.978,66.767 L107.488,66.767 Q107.053,71.948 103.77,76.497 Q98.43,83.933 88.067,83.894 Q77.664,83.894 72.759,77.723 Q67.815,71.553 67.855,61.704 Q67.855,50.628 73.274,44.418 Q78.653,38.248 88.225,38.248 Q96.334,38.287 101.516,41.887 Q106.658,45.565 107.607,54.742 z" fill="#510000"/>
      <path d="M96.057,47.992 Q95.741,45.618 94.435,43.64 Q92.497,41.03 88.542,41.03 Q82.806,41.069 80.75,46.686 Q79.602,49.732 79.642,54.676 Q79.602,59.423 80.75,62.31 Q82.767,67.729 88.344,67.69 Q92.299,67.69 93.961,65.554 Q95.622,63.418 95.978,60.016 L107.488,60.016 Q107.053,65.198 103.77,69.747 Q98.43,77.183 88.067,77.143 Q77.664,77.143 72.759,70.973 Q67.815,64.802 67.855,54.953 Q67.855,43.878 73.274,37.668 Q78.653,31.497 88.225,31.497 Q96.334,31.537 101.516,35.136 Q106.658,38.815 107.607,47.992 z" fill="#FFFFFF"/>
    </g>
    <g>
      <path d="M147.17,40.564 Q150.414,41.948 152.51,44.796 Q154.251,47.249 154.686,49.741 Q155.081,52.351 155.081,58.087 L155.081,83.402 L143.571,83.402 L143.571,57.177 Q143.571,53.696 142.384,51.56 Q140.841,48.554 136.53,48.554 Q132.06,48.554 129.766,51.521 Q127.432,54.566 127.432,60.064 L127.432,83.402 L116.199,83.402 L116.199,25.296 L127.432,25.296 L127.432,45.904 Q129.845,42.186 133.128,40.643 Q136.332,39.18 139.892,39.18 Q143.848,39.219 147.17,40.564 z" fill="#510000"/>
      <path d="M147.17,33.813 Q150.414,35.198 152.51,38.046 Q154.251,40.498 154.686,42.99 Q155.081,45.601 155.081,51.336 L155.081,76.651 L143.571,76.651 L143.571,50.426 Q143.571,46.945 142.384,44.809 Q140.841,41.803 136.53,41.803 Q132.06,41.803 129.766,44.77 Q127.432,47.816 127.432,53.314 L127.432,76.651 L116.199,76.651 L116.199,18.545 L127.432,18.545 L127.432,39.153 Q129.845,35.435 133.128,33.892 Q136.332,32.429 139.892,32.429 Q143.848,32.468 147.17,33.813 z" fill="#FFFFFF"/>
    </g>
    <g>
      <path d="M178.902,50.888 Q176.687,53.34 176.173,57.533 L193.695,57.533 Q193.379,53.103 191.006,50.73 Q188.553,48.435 184.954,48.435 Q181.038,48.475 178.902,50.888 z M194.645,41.157 Q198.956,43.214 201.764,47.526 Q204.256,51.402 205.047,56.425 Q205.443,59.392 205.403,64.969 L175.896,64.969 Q176.093,71.456 179.97,74.067 Q182.264,75.688 185.587,75.688 Q189.028,75.688 191.243,73.711 Q192.43,72.643 193.339,70.744 L204.85,70.744 Q204.415,74.621 200.855,78.536 Q195.317,84.826 185.349,84.826 Q177.082,84.826 170.833,79.525 Q164.543,74.265 164.543,62.279 Q164.543,51.125 170.239,45.113 Q175.856,39.14 184.954,39.14 Q190.294,39.14 194.645,41.157 z" fill="#510000"/>
      <path d="M178.902,44.137 Q176.687,46.589 176.173,50.782 L193.695,50.782 Q193.379,46.352 191.006,43.979 Q188.553,41.685 184.954,41.685 Q181.038,41.724 178.902,44.137 z M194.645,34.407 Q198.956,36.463 201.764,40.775 Q204.256,44.651 205.047,49.675 Q205.443,52.641 205.403,58.219 L175.896,58.219 Q176.093,64.705 179.97,67.316 Q182.264,68.938 185.587,68.938 Q189.028,68.938 191.243,66.96 Q192.43,65.892 193.339,63.993 L204.85,63.993 Q204.415,67.87 200.855,71.786 Q195.317,78.075 185.349,78.075 Q177.082,78.075 170.833,72.775 Q164.543,67.514 164.543,55.529 Q164.543,44.374 170.239,38.362 Q175.856,32.389 184.954,32.389 Q190.294,32.389 194.645,34.407 z" fill="#FFFFFF"/>
    </g>
    <g>
      <path d="M266.88,40.445 Q269.649,41.592 271.904,44.322 Q273.684,46.616 274.356,49.859 Q274.752,52.074 274.752,56.228 L274.672,83.402 L263.122,83.402 L263.122,55.951 Q263.083,53.538 262.331,51.916 Q260.828,48.91 256.794,48.91 Q252.087,48.95 250.346,52.786 Q249.437,54.883 249.437,57.731 L249.437,83.402 L238.084,83.402 L238.084,57.731 Q238.045,53.894 237.293,52.153 Q235.869,49.029 231.716,49.029 Q226.89,49.029 225.229,52.153 Q224.319,53.973 224.319,57.454 L224.319,83.402 L212.888,83.402 L212.888,40.366 L223.845,40.366 L223.845,46.655 Q225.902,43.293 227.8,41.869 Q231.044,39.338 236.304,39.338 Q241.209,39.338 244.294,41.513 Q246.707,43.57 248.013,46.695 Q250.188,42.898 253.511,41.118 Q256.991,39.338 261.263,39.338 Q264.072,39.338 266.88,40.445 z" fill="#510000"/>
      <path d="M266.88,33.695 Q269.649,34.842 271.904,37.571 Q273.684,39.865 274.356,43.109 Q274.752,45.324 274.752,49.477 L274.672,76.651 L263.122,76.651 L263.122,49.2 Q263.083,46.787 262.331,45.166 Q260.828,42.159 256.794,42.159 Q252.087,42.199 250.346,46.036 Q249.437,48.132 249.437,50.98 L249.437,76.651 L238.084,76.651 L238.084,50.98 Q238.045,47.143 237.293,45.403 Q235.869,42.278 231.716,42.278 Q226.89,42.278 225.229,45.403 Q224.319,47.222 224.319,50.703 L224.319,76.651 L212.888,76.651 L212.888,33.616 L223.845,33.616 L223.845,39.905 Q225.902,36.543 227.8,35.119 Q231.044,32.587 236.304,32.587 Q241.209,32.587 244.294,34.763 Q246.707,36.819 248.013,39.944 Q250.188,36.147 253.511,34.367 Q256.991,32.587 261.263,32.587 Q264.072,32.587 266.88,33.695 z" fill="#FFFFFF"/>
    </g>
    <g>
      <path d="M309.907,62.418 Q308.839,63.091 307.771,63.486 Q306.624,63.921 304.765,64.277 L302.234,64.752 Q298.674,65.424 297.131,66.294 Q294.52,67.837 294.52,71.081 Q294.52,74.008 296.142,75.234 Q297.685,76.539 300.019,76.539 Q303.618,76.539 306.743,74.403 Q309.749,72.267 309.907,66.611 z M303.064,57.157 Q306.15,56.762 307.534,56.168 Q309.947,55.18 309.947,52.965 Q309.947,50.314 308.127,49.286 Q306.268,48.297 302.708,48.297 Q298.713,48.337 297.052,50.275 Q295.865,51.778 295.47,54.23 L284.592,54.23 Q284.948,48.614 287.757,44.935 Q292.187,39.239 303.104,39.239 Q310.145,39.279 315.682,42.047 Q321.18,44.895 321.18,52.648 L321.18,72.425 Q321.18,74.522 321.259,77.409 Q321.378,79.664 321.932,80.415 Q322.446,81.207 323.593,81.721 L323.593,83.382 L311.331,83.382 Q310.777,82.077 310.619,80.93 Q310.421,79.822 310.303,78.319 Q307.929,80.89 304.923,82.631 Q301.245,84.727 296.696,84.727 Q290.802,84.766 287.045,81.365 Q283.168,78.042 283.208,71.911 Q283.208,63.961 289.339,60.401 Q292.701,58.463 299.227,57.632 z" fill="#510000"/>
      <path d="M309.907,55.667 Q308.839,56.34 307.771,56.735 Q306.624,57.17 304.765,57.526 L302.234,58.001 Q298.674,58.674 297.131,59.544 Q294.52,61.086 294.52,64.33 Q294.52,67.257 296.142,68.483 Q297.685,69.788 300.019,69.788 Q303.618,69.788 306.743,67.652 Q309.749,65.517 309.907,59.86 z M303.064,50.407 Q306.15,50.011 307.534,49.418 Q309.947,48.429 309.947,46.214 Q309.947,43.564 308.127,42.535 Q306.268,41.546 302.708,41.546 Q298.713,41.586 297.052,43.524 Q295.865,45.027 295.47,47.48 L284.592,47.48 Q284.948,41.863 287.757,38.184 Q292.187,32.488 303.104,32.488 Q310.145,32.528 315.682,35.297 Q321.18,38.145 321.18,45.897 L321.18,65.675 Q321.18,67.771 321.259,70.659 Q321.378,72.913 321.932,73.665 Q322.446,74.456 323.593,74.97 L323.593,76.631 L311.331,76.631 Q310.777,75.326 310.619,74.179 Q310.421,73.071 310.303,71.568 Q307.929,74.139 304.923,75.88 Q301.245,77.976 296.696,77.976 Q290.802,78.016 287.045,74.614 Q283.168,71.292 283.208,65.161 Q283.208,57.21 289.339,53.65 Q292.701,51.712 299.227,50.881 z" fill="#FFFFFF"/>
    </g>
    <g>
      <path d="M331.552,71.614 L343.537,71.614 L343.537,83.402 L331.552,83.402 z" fill="#510000"/>
      <path d="M331.552,64.864 L343.537,64.864 L343.537,76.651 L331.552,76.651 z" fill="#FFFFFF"/>
    </g>
    <g>
      <path d="M387.509,71.911 Q390.159,68.43 390.159,61.904 Q390.159,55.456 387.509,51.896 Q384.819,48.416 379.914,48.416 Q374.97,48.416 372.32,51.896 Q369.63,55.456 369.63,61.904 Q369.63,68.43 372.32,71.911 Q374.97,75.431 379.914,75.431 Q384.819,75.431 387.509,71.911 z M396.527,78.121 Q391.029,84.885 379.954,84.885 Q368.839,84.885 363.38,78.121 Q357.922,71.436 357.922,61.904 Q357.922,52.608 363.38,45.726 Q368.839,38.922 379.954,38.883 Q391.029,38.922 396.527,45.726 Q401.986,52.608 401.986,61.904 Q401.986,71.436 396.527,78.121 z" fill="#510000"/>
      <path d="M387.509,65.16 Q390.159,61.68 390.159,55.153 Q390.159,48.706 387.509,45.146 Q384.819,41.665 379.914,41.665 Q374.97,41.665 372.32,45.146 Q369.63,48.706 369.63,55.153 Q369.63,61.68 372.32,65.16 Q374.97,68.681 379.914,68.681 Q384.819,68.681 387.509,65.16 z M396.527,71.37 Q391.029,78.134 379.954,78.134 Q368.839,78.134 363.38,71.37 Q357.922,64.686 357.922,55.153 Q357.922,45.858 363.38,38.975 Q368.839,32.172 379.954,32.132 Q391.029,32.172 396.527,38.975 Q401.986,45.858 401.986,55.153 Q401.986,64.686 396.527,71.37 z" fill="#FFFFFF"/>
    </g>
    <g>
      <path d="M430.355,39.259 Q430.513,39.338 431.304,39.338 L431.304,50.888 Q430.236,50.809 429.406,50.73 Q428.575,50.69 428.061,50.69 Q421.218,50.69 418.924,55.12 Q417.618,57.652 417.618,62.794 L417.618,83.402 L406.266,83.402 L406.266,40.287 L417.025,40.287 L417.025,47.802 Q419.596,43.531 421.574,41.909 Q424.699,39.259 429.801,39.259 Q430.078,39.259 430.355,39.259 z" fill="#510000"/>
      <path d="M430.355,32.508 Q430.513,32.587 431.304,32.587 L431.304,44.137 Q430.236,44.058 429.406,43.979 Q428.575,43.939 428.061,43.939 Q421.218,43.939 418.924,48.369 Q417.618,50.901 417.618,56.043 L417.618,76.651 L406.266,76.651 L406.266,33.536 L417.025,33.536 L417.025,41.052 Q419.596,36.78 421.574,35.158 Q424.699,32.508 429.801,32.508 Q430.078,32.508 430.355,32.508 z" fill="#FFFFFF"/>
    </g>
    <g>
      <path d="M460.483,71.12 Q463.212,68.154 463.212,61.627 Q463.173,55.536 460.641,52.292 Q457.991,49.088 453.68,49.088 Q447.746,49.088 445.492,54.665 Q444.305,57.672 444.305,61.983 Q444.305,65.78 445.571,68.668 Q447.865,74.126 453.798,74.126 Q457.754,74.166 460.483,71.12 z M456.646,40.228 Q460.72,41.968 463.291,46.478 L463.291,40.267 L474.248,40.267 L474.248,81.167 Q474.208,89.553 471.44,93.745 Q466.614,101.063 452.928,101.023 Q444.661,101.063 439.44,97.78 Q434.179,94.576 433.665,88.089 L445.927,88.089 Q446.401,90.067 447.469,90.937 Q449.249,92.48 453.6,92.48 Q459.652,92.519 461.749,88.405 Q463.094,85.795 463.094,79.624 L463.094,76.856 Q461.432,79.664 459.613,81.009 Q456.211,83.58 450.871,83.58 Q442.525,83.619 437.62,77.726 Q432.636,71.911 432.636,61.943 Q432.597,52.371 437.423,45.766 Q442.209,39.239 450.99,39.239 Q454.194,39.239 456.646,40.228 z" fill="#510000"/>
      <path d="M460.483,64.369 Q463.212,61.403 463.212,54.876 Q463.173,48.785 460.641,45.541 Q457.991,42.338 453.68,42.338 Q447.746,42.338 445.492,47.915 Q444.305,50.921 444.305,55.232 Q444.305,59.03 445.571,61.917 Q447.865,67.376 453.798,67.376 Q457.754,67.415 460.483,64.369 z M456.646,33.477 Q460.72,35.218 463.291,39.727 L463.291,33.517 L474.248,33.517 L474.248,74.416 Q474.208,82.802 471.44,86.995 Q466.614,94.312 452.928,94.273 Q444.661,94.312 439.44,91.029 Q434.179,87.825 433.665,81.338 L445.927,81.338 Q446.401,83.316 447.469,84.186 Q449.249,85.729 453.6,85.729 Q459.652,85.769 461.749,81.655 Q463.094,79.044 463.094,72.874 L463.094,70.105 Q461.432,72.913 459.613,74.258 Q456.211,76.829 450.871,76.829 Q442.525,76.869 437.62,70.975 Q432.636,65.161 432.636,55.193 Q432.597,45.621 437.423,39.015 Q442.209,32.488 450.99,32.488 Q454.194,32.488 456.646,33.477 z" fill="#FFFFFF"/>
    </g>
  </g>
</svg>
