<?xml version="1.0" encoding="UTF-8" standalone="no"?>
<!DOCTYPE svg PUBLIC "-//W3C//DTD SVG 1.1//EN"
 "http://www.w3.org/Graphics/SVG/1.1/DTD/svg11.dtd">
<!-- Generated by graphviz version 2.44.0 (0)
 -->
<!-- Pages: 1 -->
<svg width="889pt" height="280pt"
 viewBox="0.00 0.00 888.58 279.50" xmlns="http://www.w3.org/2000/svg" xmlns:xlink="http://www.w3.org/1999/xlink">
<g id="graph0" class="graph" transform="scale(1 1) rotate(0) translate(4 275.5)">
<polygon fill="white" stroke="transparent" points="-4,4 -4,-275.5 884.58,-275.5 884.58,4 -4,4"/>
<text text-anchor="middle" x="440.29" y="-22.8" font-family="Times-Roman" font-size="14.00">Model:</text>
<text text-anchor="middle" x="440.29" y="-7.8" font-family="Times-Roman" font-size="14.00">https://iode.org/</text>
<!-- Rhttps://example.org/id/XYZ -->
<g id="node1" class="node">
<title>Rhttps://example.org/id/XYZ</title>
<ellipse fill="none" stroke="blue" cx="131.29" cy="-170.5" rx="131.08" ry="18"/>
<text text-anchor="middle" x="131.29" y="-166.8" font-family="Times-Roman" font-size="14.00">https://example.org/id/XYZ</text>
</g>
<!-- Rschema:Map -->
<g id="node2" class="node">
<title>Rschema:Map</title>
<ellipse fill="none" stroke="blue" cx="657.58" cy="-253.5" rx="67.69" ry="18"/>
<text text-anchor="middle" x="657.58" y="-249.8" font-family="Times-Roman" font-size="14.00">schema:Map</text>
</g>
<!-- Rhttps://example.org/id/XYZ&#45;&gt;Rschema:Map -->
<g id="edge1" class="edge">
<title>Rhttps://example.org/id/XYZ&#45;&gt;Rschema:Map</title>
<path fill="none" stroke="black" stroke-dasharray="1,5" d="M197.78,-186.12C223.51,-191.98 253.35,-198.44 280.58,-203.5 385.45,-222.98 508.14,-237.82 584.11,-246.1"/>
<polygon fill="black" stroke="black" points="583.74,-249.58 594.06,-247.18 584.49,-242.62 583.74,-249.58"/>
<text text-anchor="middle" x="348.58" y="-228.3" font-family="Times-Roman" font-size="14.00">rdfs:type</text>
</g>
<!-- LDescription of the map to aid in searching -->
<g id="node3" class="node">
<title>LDescription of the map to aid in searching</title>
<polygon fill="none" stroke="black" points="503.58,-180.5 503.58,-216.5 811.58,-216.5 811.58,-180.5 503.58,-180.5"/>
<text text-anchor="middle" x="657.58" y="-194.8" font-family="Times-Roman" font-size="14.00">Description of the map to aid in searching</text>
</g>
<!-- Rhttps://example.org/id/XYZ&#45;&gt;LDescription of the map to aid in searching -->
<g id="edge2" class="edge">
<title>Rhttps://example.org/id/XYZ&#45;&gt;LDescription of the map to aid in searching</title>
<path fill="none" stroke="black" stroke-dasharray="1,5" d="M253.89,-176.99C324.96,-180.79 415.6,-185.63 492.89,-189.76"/>
<polygon fill="black" stroke="black" points="493.04,-193.27 503.21,-190.31 493.41,-186.28 493.04,-193.27"/>
<text text-anchor="middle" x="348.58" y="-188.3" font-family="Times-Roman" font-size="14.00">schema:description</text>
</g>
<!-- LName or title of the document -->
<g id="node4" class="node">
<title>LName or title of the document</title>
<polygon fill="none" stroke="black" points="544.58,-125.5 544.58,-161.5 770.58,-161.5 770.58,-125.5 544.58,-125.5"/>
<text text-anchor="middle" x="657.58" y="-139.8" font-family="Times-Roman" font-size="14.00">Name or title of the document</text>
</g>
<!-- Rhttps://example.org/id/XYZ&#45;&gt;LName or title of the document -->
<g id="edge3" class="edge">
<title>Rhttps://example.org/id/XYZ&#45;&gt;LName or title of the document</title>
<path fill="none" stroke="black" stroke-dasharray="1,5" d="M251.26,-163.15C261.18,-162.57 271.05,-162.02 280.58,-161.5 365.18,-156.91 460.53,-152.35 534.04,-148.97"/>
<polygon fill="black" stroke="black" points="534.44,-152.46 544.27,-148.5 534.12,-145.46 534.44,-152.46"/>
<text text-anchor="middle" x="348.58" y="-165.3" font-family="Times-Roman" font-size="14.00">schema:name</text>
</g>
<!-- Lhttps://www.sample&#45;data&#45;repository.org/creativework/map.pdf -->
<g id="node5" class="node">
<title>Lhttps://www.sample&#45;data&#45;repository.org/creativework/map.pdf</title>
<polygon fill="none" stroke="black" points="434.58,-70.5 434.58,-106.5 880.58,-106.5 880.58,-70.5 434.58,-70.5"/>
<text text-anchor="middle" x="657.58" y="-84.8" font-family="Times-Roman" font-size="14.00">https://www.sample&#45;data&#45;repository.org/creativework/map.pdf</text>
</g>
<!-- Rhttps://example.org/id/XYZ&#45;&gt;Lhttps://www.sample&#45;data&#45;repository.org/creativework/map.pdf -->
<g id="edge4" class="edge">
<title>Rhttps://example.org/id/XYZ&#45;&gt;Lhttps://www.sample&#45;data&#45;repository.org/creativework/map.pdf</title>
<path fill="none" stroke="black" stroke-dasharray="1,5" d="M193.32,-154.61C219.98,-148.05 251.69,-140.77 280.58,-135.5 341.57,-124.37 408.62,-115.07 469,-107.75"/>
<polygon fill="black" stroke="black" points="469.51,-111.21 479.02,-106.55 468.68,-104.26 469.51,-111.21"/>
<text text-anchor="middle" x="348.58" y="-139.3" font-family="Times-Roman" font-size="14.00">schema:url</text>
</g>
</g>
</svg>
