<?xml version="1.0" encoding="UTF-8" standalone="no"?>
<!DOCTYPE svg PUBLIC "-//W3C//DTD SVG 1.1//EN"
 "http://www.w3.org/Graphics/SVG/1.1/DTD/svg11.dtd">
<!-- Generated by graphviz version 2.44.0 (0)
 -->
<!-- Pages: 1 -->
<svg width="1310pt" height="322pt"
 viewBox="0.00 0.00 1309.73 321.50" xmlns="http://www.w3.org/2000/svg" xmlns:xlink="http://www.w3.org/1999/xlink">
<g id="graph0" class="graph" transform="scale(1 1) rotate(0) translate(4 317.5)">
<polygon fill="white" stroke="transparent" points="-4,4 -4,-317.5 1305.73,-317.5 1305.73,4 -4,4"/>
<text text-anchor="middle" x="650.86" y="-22.8" font-family="Times-Roman" font-size="14.00">Model:</text>
<text text-anchor="middle" x="650.86" y="-7.8" font-family="Times-Roman" font-size="14.00">https://iode.org/</text>
<!-- Rhttps://example.org/id/XYZ -->
<g id="node1" class="node">
<title>Rhttps://example.org/id/XYZ</title>
<ellipse fill="none" stroke="blue" cx="131.29" cy="-240.5" rx="131.08" ry="18"/>
<text text-anchor="middle" x="131.29" y="-236.8" font-family="Times-Roman" font-size="14.00">https://example.org/id/XYZ</text>
</g>
<!-- Rschema:Dataset -->
<g id="node2" class="node">
<title>Rschema:Dataset</title>
<ellipse fill="none" stroke="blue" cx="552.77" cy="-295.5" rx="83.39" ry="18"/>
<text text-anchor="middle" x="552.77" y="-291.8" font-family="Times-Roman" font-size="14.00">schema:Dataset</text>
</g>
<!-- Rhttps://example.org/id/XYZ&#45;&gt;Rschema:Dataset -->
<g id="edge1" class="edge">
<title>Rhttps://example.org/id/XYZ&#45;&gt;Rschema:Dataset</title>
<path fill="none" stroke="black" stroke-dasharray="1,5" d="M226.69,-252.88C300.26,-262.52 401.32,-275.77 471.13,-284.93"/>
<polygon fill="black" stroke="black" points="470.83,-288.42 481.2,-286.25 471.74,-281.48 470.83,-288.42"/>
<text text-anchor="middle" x="366.08" y="-285.3" font-family="Times-Roman" font-size="14.00">rdfs:type</text>
</g>
<!-- LData set name -->
<g id="node3" class="node">
<title>LData set name</title>
<polygon fill="none" stroke="black" points="493.77,-222.5 493.77,-258.5 611.77,-258.5 611.77,-222.5 493.77,-222.5"/>
<text text-anchor="middle" x="552.77" y="-236.8" font-family="Times-Roman" font-size="14.00">Data set name</text>
</g>
<!-- Rhttps://example.org/id/XYZ&#45;&gt;LData set name -->
<g id="edge2" class="edge">
<title>Rhttps://example.org/id/XYZ&#45;&gt;LData set name</title>
<path fill="none" stroke="black" stroke-dasharray="1,5" d="M262.72,-240.5C335.81,-240.5 423.98,-240.5 483.57,-240.5"/>
<polygon fill="black" stroke="black" points="483.61,-244 493.61,-240.5 483.61,-237 483.61,-244"/>
<text text-anchor="middle" x="366.08" y="-244.3" font-family="Times-Roman" font-size="14.00">schema:name</text>
</g>
<!-- B_:b0 -->
<g id="node4" class="node">
<title>B_:b0</title>
<ellipse fill="none" stroke="green" cx="552.77" cy="-185.5" rx="18" ry="18"/>
</g>
<!-- Rhttps://example.org/id/XYZ&#45;&gt;B_:b0 -->
<g id="edge3" class="edge">
<title>Rhttps://example.org/id/XYZ&#45;&gt;B_:b0</title>
<path fill="none" stroke="black" stroke-dasharray="1,5" d="M226.69,-228.12C322.67,-215.54 465.42,-196.82 524.58,-189.07"/>
<polygon fill="black" stroke="black" points="525.16,-192.52 534.62,-187.75 524.25,-185.58 525.16,-192.52"/>
<text text-anchor="middle" x="366.08" y="-223.3" font-family="Times-Roman" font-size="14.00">schema:spatialCoverage</text>
</g>
<!-- Rschema:Place -->
<g id="node5" class="node">
<title>Rschema:Place</title>
<ellipse fill="none" stroke="blue" cx="829.11" cy="-212.5" rx="72.29" ry="18"/>
<text text-anchor="middle" x="829.11" y="-208.8" font-family="Times-Roman" font-size="14.00">schema:Place</text>
</g>
<!-- B_:b0&#45;&gt;Rschema:Place -->
<g id="edge4" class="edge">
<title>B_:b0&#45;&gt;Rschema:Place</title>
<path fill="none" stroke="black" stroke-dasharray="1,5" d="M570.93,-187.19C606.32,-190.67 689.3,-198.84 751.5,-204.96"/>
<polygon fill="black" stroke="black" points="751.39,-208.47 761.68,-205.96 752.07,-201.5 751.39,-208.47"/>
<text text-anchor="middle" x="696.46" y="-206.3" font-family="Times-Roman" font-size="14.00">rdfs:type</text>
</g>
<!-- B_:b1 -->
<g id="node6" class="node">
<title>B_:b1</title>
<ellipse fill="none" stroke="green" cx="829.11" cy="-158.5" rx="18" ry="18"/>
</g>
<!-- B_:b0&#45;&gt;B_:b1 -->
<g id="edge5" class="edge">
<title>B_:b0&#45;&gt;B_:b1</title>
<path fill="none" stroke="black" stroke-dasharray="1,5" d="M570.93,-183.81C617.12,-179.27 744.37,-166.74 800.68,-161.2"/>
<polygon fill="black" stroke="black" points="801.34,-164.65 810.95,-160.19 800.66,-157.68 801.34,-164.65"/>
<text text-anchor="middle" x="696.46" y="-178.3" font-family="Times-Roman" font-size="14.00">schema:geo</text>
</g>
<!-- Rschema:GeoCoordinates -->
<g id="node7" class="node">
<title>Rschema:GeoCoordinates</title>
<ellipse fill="none" stroke="blue" cx="1181.49" cy="-218.5" rx="120.48" ry="18"/>
<text text-anchor="middle" x="1181.49" y="-214.8" font-family="Times-Roman" font-size="14.00">schema:GeoCoordinates</text>
</g>
<!-- B_:b1&#45;&gt;Rschema:GeoCoordinates -->
<g id="edge6" class="edge">
<title>B_:b1&#45;&gt;Rschema:GeoCoordinates</title>
<path fill="none" stroke="black" stroke-dasharray="1,5" d="M846.81,-162.34C864.68,-166.39 893.89,-172.81 919.25,-177.5 973.52,-187.53 1034.43,-197.19 1083.77,-204.6"/>
<polygon fill="black" stroke="black" points="1083.39,-208.08 1093.8,-206.1 1084.43,-201.16 1083.39,-208.08"/>
<text text-anchor="middle" x="981.25" y="-201.3" font-family="Times-Roman" font-size="14.00">rdfs:type</text>
</g>
<!-- L3.9328E1|Datatype: XMLSchema#double -->
<g id="node8" class="node">
<title>L3.9328E1|Datatype: XMLSchema#double</title>
<polygon fill="none" stroke="black" points="1064.99,-135.5 1064.99,-181.5 1297.99,-181.5 1297.99,-135.5 1064.99,-135.5"/>
<text text-anchor="middle" x="1181.49" y="-166.3" font-family="Times-Roman" font-size="14.00">3.9328E1</text>
<polyline fill="none" stroke="black" points="1064.99,-158.5 1297.99,-158.5 "/>
<text text-anchor="middle" x="1181.49" y="-143.3" font-family="Times-Roman" font-size="14.00">Datatype: XMLSchema#double</text>
</g>
<!-- B_:b1&#45;&gt;L3.9328E1|Datatype: XMLSchema#double -->
<g id="edge7" class="edge">
<title>B_:b1&#45;&gt;L3.9328E1|Datatype: XMLSchema#double</title>
<path fill="none" stroke="black" stroke-dasharray="1,5" d="M847.48,-158.5C885.08,-158.5 976.86,-158.5 1054.57,-158.5"/>
<polygon fill="black" stroke="black" points="1054.94,-162 1064.94,-158.5 1054.94,-155 1054.94,-162"/>
<text text-anchor="middle" x="981.25" y="-162.3" font-family="Times-Roman" font-size="14.00">schema:latitude</text>
</g>
<!-- L1.201633E2|Datatype: XMLSchema#double -->
<g id="node9" class="node">
<title>L1.201633E2|Datatype: XMLSchema#double</title>
<polygon fill="none" stroke="black" points="1064.99,-70.5 1064.99,-116.5 1297.99,-116.5 1297.99,-70.5 1064.99,-70.5"/>
<text text-anchor="middle" x="1181.49" y="-101.3" font-family="Times-Roman" font-size="14.00">1.201633E2</text>
<polyline fill="none" stroke="black" points="1064.99,-93.5 1297.99,-93.5 "/>
<text text-anchor="middle" x="1181.49" y="-78.3" font-family="Times-Roman" font-size="14.00">Datatype: XMLSchema#double</text>
</g>
<!-- B_:b1&#45;&gt;L1.201633E2|Datatype: XMLSchema#double -->
<g id="edge8" class="edge">
<title>B_:b1&#45;&gt;L1.201633E2|Datatype: XMLSchema#double</title>
<path fill="none" stroke="black" stroke-dasharray="1,5" d="M846.83,-154.75C864.71,-150.78 893.93,-144.43 919.25,-139.5 963.39,-130.91 1011.86,-122.18 1054.94,-114.67"/>
<polygon fill="black" stroke="black" points="1055.65,-118.1 1064.91,-112.94 1054.45,-111.2 1055.65,-118.1"/>
<text text-anchor="middle" x="981.25" y="-143.3" font-family="Times-Roman" font-size="14.00">schema:longitude</text>
</g>
</g>
</svg>
