<?xml version="1.0" encoding="UTF-8" standalone="no"?>
<!DOCTYPE svg PUBLIC "-//W3C//DTD SVG 1.1//EN"
 "http://www.w3.org/Graphics/SVG/1.1/DTD/svg11.dtd">
<!-- Generated by graphviz version 2.43.0 (0)
 -->
<!-- Title: %3 Pages: 1 -->
<svg width="1325pt" height="610pt"
 viewBox="0.00 0.00 1325.24 609.50" xmlns="http://www.w3.org/2000/svg" xmlns:xlink="http://www.w3.org/1999/xlink">
<g id="graph0" class="graph" transform="scale(1 1) rotate(0) translate(4 605.5)">
<title>%3</title>
<polygon fill="white" stroke="transparent" points="-4,4 -4,-605.5 1321.24,-605.5 1321.24,4 -4,4"/>
<text text-anchor="middle" x="658.62" y="-22.8" font-family="Times,serif" font-size="14.00">Model:</text>
<text text-anchor="middle" x="658.62" y="-7.8" font-family="Times,serif" font-size="14.00">https://iode.org/</text>
<!-- Rhttps://us&#45;central1&#45;top&#45;operand&#45;112611.cloudfunctions.net/function&#45;1 -->
<g id="node1" class="node">
<title>Rhttps://us&#45;central1&#45;top&#45;operand&#45;112611.cloudfunctions.net/function&#45;1</title>
<ellipse fill="none" stroke="blue" cx="255.43" cy="-477.5" rx="255.35" ry="18"/>
<text text-anchor="middle" x="255.43" y="-473.8" font-family="Times,serif" font-size="14.00">https://us&#45;central1&#45;top&#45;operand&#45;112611.cloudfunctions.net/function&#45;1</text>
</g>
<!-- Rschema:Action -->
<g id="node2" class="node">
<title>Rschema:Action</title>
<ellipse fill="none" stroke="blue" cx="689.55" cy="-568.5" rx="63.89" ry="18"/>
<text text-anchor="middle" x="689.55" y="-564.8" font-family="Times,serif" font-size="14.00">schema:Action</text>
</g>
<!-- Rhttps://us&#45;central1&#45;top&#45;operand&#45;112611.cloudfunctions.net/function&#45;1&#45;&gt;Rschema:Action -->
<g id="edge1" class="edge">
<title>Rhttps://us&#45;central1&#45;top&#45;operand&#45;112611.cloudfunctions.net/function&#45;1&#45;&gt;Rschema:Action</title>
<path fill="none" stroke="black" stroke-dasharray="1,5" d="M337.45,-494.56C421.88,-512.34 552.23,-539.79 628.09,-555.77"/>
<polygon fill="black" stroke="black" points="627.46,-559.21 637.97,-557.85 628.9,-552.36 627.46,-559.21"/>
<text text-anchor="middle" x="568.35" y="-554.3" font-family="Times,serif" font-size="14.00">rdfs:type</text>
</g>
<!-- B_:b0 -->
<g id="node3" class="node">
<title>B_:b0</title>
<ellipse fill="none" stroke="green" cx="689.55" cy="-514.5" rx="18" ry="18"/>
</g>
<!-- Rhttps://us&#45;central1&#45;top&#45;operand&#45;112611.cloudfunctions.net/function&#45;1&#45;&gt;B_:b0 -->
<g id="edge2" class="edge">
<title>Rhttps://us&#45;central1&#45;top&#45;operand&#45;112611.cloudfunctions.net/function&#45;1&#45;&gt;B_:b0</title>
<path fill="none" stroke="black" stroke-dasharray="1,5" d="M418.56,-491.38C508.99,-499.13 612.88,-508.02 661.19,-512.16"/>
<polygon fill="black" stroke="black" points="661.18,-515.67 671.44,-513.04 661.77,-508.69 661.18,-515.67"/>
<text text-anchor="middle" x="568.35" y="-510.3" font-family="Times,serif" font-size="14.00">schema:object</text>
</g>
<!-- B_:b1 -->
<g id="node4" class="node">
<title>B_:b1</title>
<ellipse fill="none" stroke="green" cx="689.55" cy="-432.5" rx="18" ry="18"/>
</g>
<!-- Rhttps://us&#45;central1&#45;top&#45;operand&#45;112611.cloudfunctions.net/function&#45;1&#45;&gt;B_:b1 -->
<g id="edge3" class="edge">
<title>Rhttps://us&#45;central1&#45;top&#45;operand&#45;112611.cloudfunctions.net/function&#45;1&#45;&gt;B_:b1</title>
<path fill="none" stroke="black" stroke-dasharray="1,5" d="M399.42,-462.61C493.95,-452.77 609.62,-440.72 661.33,-435.33"/>
<polygon fill="black" stroke="black" points="661.77,-438.81 671.36,-434.29 661.05,-431.85 661.77,-438.81"/>
<text text-anchor="middle" x="568.35" y="-451.3" font-family="Times,serif" font-size="14.00">schema:result</text>
</g>
<!-- B_:b2 -->
<g id="node5" class="node">
<title>B_:b2</title>
<ellipse fill="none" stroke="green" cx="689.55" cy="-226.5" rx="18" ry="18"/>
</g>
<!-- Rhttps://us&#45;central1&#45;top&#45;operand&#45;112611.cloudfunctions.net/function&#45;1&#45;&gt;B_:b2 -->
<g id="edge4" class="edge">
<title>Rhttps://us&#45;central1&#45;top&#45;operand&#45;112611.cloudfunctions.net/function&#45;1&#45;&gt;B_:b2</title>
<path fill="none" stroke="black" stroke-dasharray="1,5" d="M287.5,-459.45C369.55,-411.79 590.71,-283.33 664.33,-240.57"/>
<polygon fill="black" stroke="black" points="666.44,-243.39 673.33,-235.34 662.93,-237.34 666.44,-243.39"/>
<text text-anchor="middle" x="568.35" y="-318.3" font-family="Times,serif" font-size="14.00">schema:target</text>
</g>
<!-- Rschema:ImageObject -->
<g id="node6" class="node">
<title>Rschema:ImageObject</title>
<ellipse fill="none" stroke="blue" cx="1120.74" cy="-583.5" rx="85.59" ry="18"/>
<text text-anchor="middle" x="1120.74" y="-579.8" font-family="Times,serif" font-size="14.00">schema:ImageObject</text>
</g>
<!-- B_:b0&#45;&gt;Rschema:ImageObject -->
<g id="edge5" class="edge">
<title>B_:b0&#45;&gt;Rschema:ImageObject</title>
<path fill="none" stroke="black" stroke-dasharray="1,5" d="M706.68,-520.7C722.8,-526.65 748.39,-535.46 771.24,-540.5 857.63,-559.57 958.06,-570.83 1028.85,-577.02"/>
<polygon fill="black" stroke="black" points="1028.82,-580.53 1039.08,-577.89 1029.41,-573.55 1028.82,-580.53"/>
<text text-anchor="middle" x="838.74" y="-566.3" font-family="Times,serif" font-size="14.00">rdfs:type</text>
</g>
<!-- LA JPEG or PNG to analyze the RGB counts -->
<g id="node7" class="node">
<title>LA JPEG or PNG to analyze the RGB counts</title>
<polygon fill="none" stroke="black" points="992.74,-510.5 992.74,-546.5 1248.74,-546.5 1248.74,-510.5 992.74,-510.5"/>
<text text-anchor="middle" x="1120.74" y="-524.8" font-family="Times,serif" font-size="14.00">A JPEG or PNG to analyze the RGB counts</text>
</g>
<!-- B_:b0&#45;&gt;LA JPEG or PNG to analyze the RGB counts -->
<g id="edge6" class="edge">
<title>B_:b0&#45;&gt;LA JPEG or PNG to analyze the RGB counts</title>
<path fill="none" stroke="black" stroke-dasharray="1,5" d="M707.64,-515.06C753.24,-516.55 881.25,-520.72 982.61,-524.03"/>
<polygon fill="black" stroke="black" points="982.54,-527.53 992.65,-524.35 982.77,-520.53 982.54,-527.53"/>
<text text-anchor="middle" x="838.74" y="-525.3" font-family="Times,serif" font-size="14.00">schema:description</text>
</g>
<!-- Rschema:DataDownload -->
<g id="node8" class="node">
<title>Rschema:DataDownload</title>
<ellipse fill="none" stroke="blue" cx="1120.74" cy="-473.5" rx="92.88" ry="18"/>
<text text-anchor="middle" x="1120.74" y="-469.8" font-family="Times,serif" font-size="14.00">schema:DataDownload</text>
</g>
<!-- B_:b1&#45;&gt;Rschema:DataDownload -->
<g id="edge7" class="edge">
<title>B_:b1&#45;&gt;Rschema:DataDownload</title>
<path fill="none" stroke="black" stroke-dasharray="1,5" d="M707.14,-436.42C723.38,-440.1 748.88,-445.49 771.24,-448.5 854.33,-459.67 949.27,-466.07 1019.06,-469.59"/>
<polygon fill="black" stroke="black" points="1019.01,-473.09 1029.17,-470.09 1019.35,-466.1 1019.01,-473.09"/>
<text text-anchor="middle" x="838.74" y="-465.3" font-family="Times,serif" font-size="14.00">rdfs:type</text>
</g>
<!-- La simple text result for the RGB counts -->
<g id="node9" class="node">
<title>La simple text result for the RGB counts</title>
<polygon fill="none" stroke="black" points="1005.24,-400.5 1005.24,-436.5 1236.24,-436.5 1236.24,-400.5 1005.24,-400.5"/>
<text text-anchor="middle" x="1120.74" y="-414.8" font-family="Times,serif" font-size="14.00">a simple text result for the RGB counts</text>
</g>
<!-- B_:b1&#45;&gt;La simple text result for the RGB counts -->
<g id="edge8" class="edge">
<title>B_:b1&#45;&gt;La simple text result for the RGB counts</title>
<path fill="none" stroke="black" stroke-dasharray="1,5" d="M707.64,-431.94C755.09,-430.39 891.76,-425.94 994.8,-422.58"/>
<polygon fill="black" stroke="black" points="995.1,-426.07 1004.98,-422.24 994.87,-419.07 995.1,-426.07"/>
<text text-anchor="middle" x="838.74" y="-433.3" font-family="Times,serif" font-size="14.00">schema:description</text>
</g>
<!-- Ltext/plain -->
<g id="node10" class="node">
<title>Ltext/plain</title>
<polygon fill="none" stroke="black" points="1086.74,-345.5 1086.74,-381.5 1154.74,-381.5 1154.74,-345.5 1086.74,-345.5"/>
<text text-anchor="middle" x="1120.74" y="-359.8" font-family="Times,serif" font-size="14.00">text/plain</text>
</g>
<!-- B_:b1&#45;&gt;Ltext/plain -->
<g id="edge9" class="edge">
<title>B_:b1&#45;&gt;Ltext/plain</title>
<path fill="none" stroke="black" stroke-dasharray="1,5" d="M706.68,-426.3C722.8,-420.35 748.39,-411.54 771.24,-406.5 879.74,-382.55 1010.38,-370.91 1076.65,-366.19"/>
<polygon fill="black" stroke="black" points="1076.99,-369.67 1086.72,-365.49 1076.5,-362.69 1076.99,-369.67"/>
<text text-anchor="middle" x="838.74" y="-410.3" font-family="Times,serif" font-size="14.00">schema:encodingFormat</text>
</g>
<!-- Rschema:EntryPoint -->
<g id="node11" class="node">
<title>Rschema:EntryPoint</title>
<ellipse fill="none" stroke="blue" cx="1120.74" cy="-308.5" rx="77.99" ry="18"/>
<text text-anchor="middle" x="1120.74" y="-304.8" font-family="Times,serif" font-size="14.00">schema:EntryPoint</text>
</g>
<!-- B_:b2&#45;&gt;Rschema:EntryPoint -->
<g id="edge10" class="edge">
<title>B_:b2&#45;&gt;Rschema:EntryPoint</title>
<path fill="none" stroke="black" stroke-dasharray="1,5" d="M706.26,-233.98C722.26,-241.29 747.96,-252.22 771.24,-258.5 859.84,-282.39 964.36,-295.45 1035.67,-302.17"/>
<polygon fill="black" stroke="black" points="1035.67,-305.69 1045.95,-303.12 1036.31,-298.72 1035.67,-305.69"/>
<text text-anchor="middle" x="838.74" y="-289.3" font-family="Times,serif" font-size="14.00">rdfs:type</text>
</g>
<!-- Limage/jpeg -->
<g id="node12" class="node">
<title>Limage/jpeg</title>
<polygon fill="none" stroke="black" points="1082.24,-235.5 1082.24,-271.5 1159.24,-271.5 1159.24,-235.5 1082.24,-235.5"/>
<text text-anchor="middle" x="1120.74" y="-249.8" font-family="Times,serif" font-size="14.00">image/jpeg</text>
</g>
<!-- B_:b2&#45;&gt;Limage/jpeg -->
<g id="edge11" class="edge">
<title>B_:b2&#45;&gt;Limage/jpeg</title>
<path fill="none" stroke="black" stroke-dasharray="1,5" d="M707.64,-227.58C768.65,-231.41 977.14,-244.53 1072.03,-250.5"/>
<polygon fill="black" stroke="black" points="1072.01,-254 1082.21,-251.14 1072.45,-247.02 1072.01,-254"/>
<text text-anchor="middle" x="838.74" y="-243.3" font-family="Times,serif" font-size="14.00">schema:contentType</text>
</g>
<!-- Limage/png -->
<g id="node13" class="node">
<title>Limage/png</title>
<polygon fill="none" stroke="black" points="1083.74,-180.5 1083.74,-216.5 1157.74,-216.5 1157.74,-180.5 1083.74,-180.5"/>
<text text-anchor="middle" x="1120.74" y="-194.8" font-family="Times,serif" font-size="14.00">image/png</text>
</g>
<!-- B_:b2&#45;&gt;Limage/png -->
<g id="edge12" class="edge">
<title>B_:b2&#45;&gt;Limage/png</title>
<path fill="none" stroke="black" stroke-dasharray="1,5" d="M707.46,-222.9C723.72,-219.59 749.05,-214.86 771.24,-212.5 878.98,-201.04 1006.36,-198.76 1073.3,-198.43"/>
<polygon fill="black" stroke="black" points="1073.52,-201.93 1083.51,-198.39 1073.49,-194.93 1073.52,-201.93"/>
<text text-anchor="middle" x="838.74" y="-216.3" font-family="Times,serif" font-size="14.00">schema:contentType</text>
</g>
<!-- LPOST -->
<g id="node14" class="node">
<title>LPOST</title>
<polygon fill="none" stroke="black" points="1093.74,-125.5 1093.74,-161.5 1147.74,-161.5 1147.74,-125.5 1093.74,-125.5"/>
<text text-anchor="middle" x="1120.74" y="-139.8" font-family="Times,serif" font-size="14.00">POST</text>
</g>
<!-- B_:b2&#45;&gt;LPOST -->
<g id="edge13" class="edge">
<title>B_:b2&#45;&gt;LPOST</title>
<path fill="none" stroke="black" stroke-dasharray="1,5" d="M704.98,-216.65C720.58,-206.52 746.54,-191.19 771.24,-183.5 881.4,-149.19 1019.38,-143.76 1083.67,-143.25"/>
<polygon fill="black" stroke="black" points="1083.72,-146.75 1093.7,-143.21 1083.69,-139.75 1083.72,-146.75"/>
<text text-anchor="middle" x="838.74" y="-187.3" font-family="Times,serif" font-size="14.00">schema:httpMethod</text>
</g>
<!-- Lhttps://us&#45;central1&#45;top&#45;operand&#45;112611.cloudfunctions.net/function&#45;1 -->
<g id="node15" class="node">
<title>Lhttps://us&#45;central1&#45;top&#45;operand&#45;112611.cloudfunctions.net/function&#45;1</title>
<polygon fill="none" stroke="black" points="924.24,-70.5 924.24,-106.5 1317.24,-106.5 1317.24,-70.5 924.24,-70.5"/>
<text text-anchor="middle" x="1120.74" y="-84.8" font-family="Times,serif" font-size="14.00">https://us&#45;central1&#45;top&#45;operand&#45;112611.cloudfunctions.net/function&#45;1</text>
</g>
<!-- B_:b2&#45;&gt;Lhttps://us&#45;central1&#45;top&#45;operand&#45;112611.cloudfunctions.net/function&#45;1 -->
<g id="edge14" class="edge">
<title>B_:b2&#45;&gt;Lhttps://us&#45;central1&#45;top&#45;operand&#45;112611.cloudfunctions.net/function&#45;1</title>
<path fill="none" stroke="black" stroke-dasharray="1,5" d="M699.49,-211.06C712.42,-190.28 738.44,-153.93 771.24,-136.5 814.64,-113.44 865.18,-100.14 914.09,-92.73"/>
<polygon fill="black" stroke="black" points="914.77,-96.17 924.17,-91.29 913.77,-89.24 914.77,-96.17"/>
<text text-anchor="middle" x="838.74" y="-140.3" font-family="Times,serif" font-size="14.00">schema:urlTemplate</text>
</g>
</g>
</svg>
