<svg height='100px' width='100px'  fill="#B30083" xmlns="http://www.w3.org/2000/svg" xmlns:xlink="http://www.w3.org/1999/xlink" version="1.1" x="0px" y="0px" viewBox="0 0 100 100" style="enable-background:new 0 0 100 100;" xml:space="preserve"><path d="M67,15.3H33c-1.7,0-3,1.3-3,3v4c0,1.7,1.3,3,3,3h34c1.7,0,3-1.3,3-3v-4C70,16.7,68.7,15.3,67,15.3z M68,22.3  c0,0.6-0.4,1-1,1H33c-0.6,0-1-0.4-1-1v-4c0-0.6,0.4-1,1-1h34c0.6,0,1,0.4,1,1V22.3z"></path><path d="M64.2,18.4c-1.1,0-1.9,0.9-1.9,1.9c0,1.1,0.9,1.9,2,1.9c1.1,0,1.9-0.9,1.9-2C66.2,19.3,65.3,18.4,64.2,18.4z M64.2,20.4  C64.2,20.4,64.2,20.4,64.2,20.4v-0.1V20.4z"></path><path d="M53.8,19.3h-19c-0.6,0-1,0.4-1,1s0.4,1,1,1h19c0.6,0,1-0.4,1-1S54.4,19.3,53.8,19.3z"></path><path d="M60,19.3h-2.7c-0.6,0-1,0.4-1,1s0.4,1,1,1H60c0.6,0,1-0.4,1-1S60.5,19.3,60,19.3z"></path><path d="M49,28v2.7c0,0.6,0.4,1,1,1s1-0.4,1-1V28c0-0.6-0.4-1-1-1S49,27.5,49,28z"></path><path d="M67,3.3H33c-1.7,0-3,1.3-3,3v4c0,1.7,1.3,3,3,3h34c1.7,0,3-1.3,3-3v-4C70,4.7,68.7,3.3,67,3.3z M68,10.3c0,0.6-0.4,1-1,1H33  c-0.6,0-1-0.4-1-1v-4c0-0.6,0.4-1,1-1h34c0.6,0,1,0.4,1,1V10.3z"></path><path d="M65.9,8.1c-0.2-1.1-1.2-1.8-2.3-1.6c-0.5,0.1-1,0.4-1.2,0.8C62,7.7,61.9,8.2,62,8.7c0.2,0.9,1,1.6,1.9,1.6  c0.1,0,0.2,0,0.3,0c0.5-0.1,1-0.4,1.3-0.8C65.8,9.1,66,8.6,65.9,8.1z"></path><path d="M53.6,7.3h-19c-0.6,0-1,0.4-1,1s0.4,1,1,1h19c0.6,0,1-0.4,1-1S54.2,7.3,53.6,7.3z"></path><path d="M59.3,7.3h-2.7c-0.6,0-1,0.4-1,1s0.4,1,1,1h2.7c0.6,0,1-0.4,1-1S59.9,7.3,59.3,7.3z"></path><path d="M2.5,87.2v3.2c3.4,0,5,1.3,6.9,2.8c2.1,1.6,4.4,3.5,8.9,3.5s6.9-1.9,8.9-3.5c1.9-1.5,3.5-2.8,6.9-2.8c3.4,0,5,1.3,6.9,2.8  c2.1,1.6,4.4,3.5,8.9,3.5s6.8-1.9,8.9-3.5c1.9-1.5,3.5-2.8,6.9-2.8c3.4,0,5,1.3,6.9,2.8c2.1,1.6,4.4,3.5,8.9,3.5s6.8-1.9,8.9-3.5  c1.9-1.5,3.5-2.8,6.9-2.8v-3.2c-4.5,0-6.8,1.9-8.9,3.5c-1.9,1.5-3.5,2.8-6.9,2.8s-5-1.3-6.9-2.8c-2.1-1.6-4.4-3.5-8.9-3.5  S59,89,56.9,90.7c-1.9,1.5-3.5,2.8-6.9,2.8s-5-1.3-6.9-2.8c-2.1-1.6-4.4-3.5-8.9-3.5c-4.5,0-6.8,1.9-8.9,3.5  c-1.9,1.5-3.5,2.8-6.9,2.8s-5-1.3-6.9-2.8C9.3,89,7,87.2,2.5,87.2z"></path><path d="M2.5,79.1v3.2c3.4,0,5,1.3,6.9,2.8c2.1,1.6,4.4,3.5,8.9,3.5s6.9-1.9,8.9-3.5c1.9-1.5,3.5-2.8,6.9-2.8c3.4,0,5,1.3,6.9,2.8  c2.1,1.6,4.4,3.5,8.9,3.5s6.8-1.9,8.9-3.5c1.9-1.5,3.5-2.8,6.9-2.8c3.4,0,5,1.3,6.9,2.8c2.1,1.6,4.4,3.5,8.9,3.5s6.8-1.9,8.9-3.5  c1.9-1.5,3.5-2.8,6.9-2.8v-3.2c-4.5,0-6.8,1.9-8.9,3.5c-1.9,1.5-3.5,2.8-6.9,2.8s-5-1.3-6.9-2.8c-2.1-1.6-4.4-3.5-8.9-3.5  s-6.8,1.9-8.9,3.5c-1.9,1.5-3.5,2.8-6.9,2.8s-5-1.3-6.9-2.8c-2.1-1.6-4.4-3.5-8.9-3.5c-4.5,0-6.8,1.9-8.9,3.5  c-1.9,1.5-3.5,2.8-6.9,2.8s-5-1.3-6.9-2.8C9.3,80.9,7,79.1,2.5,79.1z"></path><path d="M2.5,70.9v3.2c3.4,0,5,1.3,6.9,2.8c2.1,1.6,4.4,3.5,8.9,3.5s6.9-1.9,8.9-3.5c1.9-1.5,3.5-2.8,6.9-2.8c3.4,0,5,1.3,6.9,2.8  c2.1,1.6,4.4,3.5,8.9,3.5s6.8-1.9,8.9-3.5c1.9-1.5,3.5-2.8,6.9-2.8c3.4,0,5,1.3,6.9,2.8c2.1,1.6,4.4,3.5,8.9,3.5s6.8-1.9,8.9-3.5  c1.9-1.5,3.5-2.8,6.9-2.8v-3.2c-4.5,0-6.8,1.9-8.9,3.5c-1.9,1.5-3.5,2.8-6.9,2.8s-5-1.3-6.9-2.8c-2.1-1.6-4.4-3.5-8.9-3.5  s-6.8,1.9-8.9,3.5C55,76,53.4,77.3,50,77.3s-5-1.3-6.9-2.8c-2.1-1.6-4.4-3.5-8.9-3.5c-4.5,0-6.8,1.9-8.9,3.5  c-1.9,1.5-3.5,2.8-6.9,2.8s-5-1.3-6.9-2.8C9.3,72.8,7,70.9,2.5,70.9z"></path><path d="M71.4,66.4v-0.2V66.4C71.3,66.4,71.3,66.4,71.4,66.4z"></path><path d="M13.8,63.1c0.7,0,1.3-0.6,1.3-1.3v-7.8c0-0.7-0.6-1.3-1.3-1.3c-0.7,0-1.3,0.6-1.3,1.3v7.8C12.5,62.5,13.1,63.1,13.8,63.1z"></path><path d="M19,63.1c0.7,0,1.3-0.6,1.3-1.3v-7.8c0-0.7-0.6-1.3-1.3-1.3c-0.7,0-1.3,0.6-1.3,1.3v7.8C17.7,62.5,18.3,63.1,19,63.1z"></path><path d="M22.8,55.4v5.2c0,1.4,1.2,2.6,2.6,2.6H28c1.4,0,2.6-1.2,2.6-2.6v-5.2c0-1.4-1.2-2.6-2.6-2.6h-2.6  C24,52.8,22.8,53.9,22.8,55.4z M28,60.5h-2.6v-5.2H28V60.5z"></path><path d="M35.8,50.2h3.8c0.9,1.8,2.3,3.4,3.9,4.5v7.1c0,0.7,0.6,1.3,1.3,1.3c0.7,0,1.3-0.6,1.3-1.3V56c0.8,0.3,1.7,0.5,2.6,0.6v5.2  c0,0.7,0.6,1.3,1.3,1.3c0.7,0,1.3-0.6,1.3-1.3v-5.2c0.9-0.1,1.8-0.3,2.6-0.6v5.9c0,0.7,0.6,1.3,1.3,1.3c0.7,0,1.3-0.6,1.3-1.3v-7.1  c1.7-1.1,3-2.7,3.9-4.5h3.8c1.4,0,2.6-1.2,2.6-2.6v-5.2c0-1.4-1.2-2.6-2.6-2.6h-3.8c-2-4-6-6.5-10.4-6.5c-4.4,0-8.5,2.5-10.4,6.5  h-3.8c-1.4,0-2.6,1.2-2.6,2.6v5.2C33.2,49,34.3,50.2,35.8,50.2z M61.3,42.4h2.9v5.2h-2.9C61.7,45.9,61.7,44.1,61.3,42.4z M50,36  c5,0,9.1,4.1,9.1,9.1c0,5-4.1,9.1-9.1,9.1c-5,0-9-4.1-9.1-9.1C40.9,40,45,36,50,36z M35.8,42.4h2.9c-0.4,1.7-0.4,3.5,0,5.2h-2.9  V42.4z"></path><path d="M75.9,63.1c0.7,0,1.3-0.6,1.3-1.3v-7.8c0-0.7-0.6-1.3-1.3-1.3c-0.7,0-1.3,0.6-1.3,1.3v7.8C74.6,62.5,75.1,63.1,75.9,63.1z"></path><path d="M70.7,63.1c0.7,0,1.3-0.6,1.3-1.3v-7.8c0-0.7-0.6-1.3-1.3-1.3c-0.7,0-1.3,0.6-1.3,1.3v7.8C69.4,62.5,70,63.1,70.7,63.1z"></path><path d="M64.2,52.8h-2.6c-1.4,0-2.6,1.2-2.6,2.6v5.2c0,1.4,1.2,2.6,2.6,2.6h2.6c1.4,0,2.6-1.2,2.6-2.6v-5.2  C66.8,53.9,65.7,52.8,64.2,52.8z M64.2,60.5h-2.6v-5.2h2.6V60.5z"></path><path d="M35.8,63.1h2.6c1.4,0,2.6-1.2,2.6-2.6v-5.2c0-1.4-1.2-2.6-2.6-2.6h-2.6c-1.4,0-2.6,1.2-2.6,2.6v5.2  C33.2,62,34.3,63.1,35.8,63.1z M35.8,55.4h2.6v5.2h-2.6V55.4z"></path><path d="M79.7,55.4v5.2c0,1.4,1.2,2.6,2.6,2.6h2.6c1.4,0,2.6-1.2,2.6-2.6v-5.2c0-1.4-1.2-2.6-2.6-2.6h-2.6  C80.9,52.8,79.7,53.9,79.7,55.4z M84.9,60.5h-2.6v-5.2h2.6V60.5z"></path><path d="M15.1,67c0-0.7-0.6-1.3-1.3-1.3c-0.7,0-1.3,0.6-1.3,1.3v6.1c0.8,0.6,1.6,1.1,2.6,1.5V67z"></path><path d="M20.2,74.9c0-0.1,0-0.1,0-0.2V67c0-0.7-0.6-1.3-1.3-1.3c-0.7,0-1.3,0.6-1.3,1.3v7.8c0,0.1,0,0.2,0.1,0.3c0.2,0,0.4,0,0.6,0  C19,75.1,19.7,75,20.2,74.9z"></path><path d="M25.4,72.1v-3.8H28v2c0.8-0.4,1.6-0.8,2.6-1.1v-0.9c0-1.4-1.2-2.6-2.6-2.6h-2.6c-1.4,0-2.6,1.2-2.6,2.6v5.2  c0,0.2,0,0.3,0,0.5c0.8-0.5,1.6-1.1,2.4-1.7C25.3,72.2,25.4,72.2,25.4,72.1z"></path><path d="M56.5,67c0-0.7-0.6-1.3-1.3-1.3c-0.7,0-1.3,0.6-1.3,1.3v7.3c1-0.4,1.8-1,2.6-1.7V67z"></path><path d="M40.9,67c0-0.7-0.6-1.3-1.3-1.3c-0.7,0-1.3,0.6-1.3,1.3v2.4c1,0.3,1.8,0.8,2.6,1.3V67z"></path><path d="M35.8,68.8V67c0-0.7-0.6-1.3-1.3-1.3c-0.7,0-1.3,0.6-1.3,1.3v1.8c0.3,0,0.6-0.1,1-0.1C34.7,68.7,35.3,68.8,35.8,68.8z"></path><path d="M87.5,67c0-0.7-0.6-1.3-1.3-1.3c-0.7,0-1.3,0.6-1.3,1.3v7.6c1-0.4,1.8-0.9,2.6-1.5V67z"></path><path d="M72,67c0-0.7-0.6-1.3-1.3-1.3c-0.7,0-1.3,0.6-1.3,1.3v2.2c1,0.3,1.8,0.6,2.6,1.1V67z"></path><path d="M61.6,68.3h2.6v0.5c0.5-0.1,1-0.1,1.6-0.1c0.3,0,0.6,0,1,0.1v-0.5c0-1.4-1.2-2.6-2.6-2.6h-2.6c-1.4,0-2.6,1.2-2.6,2.6v2.4  c0.8-0.5,1.6-0.9,2.6-1.3V68.3z"></path><path d="M50.7,75c0.3-0.4,0.6-1,0.6-1.6v-5.2c0-1.4-1.2-2.6-2.6-2.6h-2.6c-1.4,0-2.6,1.2-2.6,2.6v4.3c1.7,1.4,3.3,2.5,6.5,2.5  C50.3,75.1,50.5,75.1,50.7,75z M48.7,73.5h-2.6v-5.2h2.6V73.5z"></path><path d="M81.7,75.1C81.7,75.1,81.7,75.1,81.7,75.1c0.4-0.4,0.7-1,0.7-1.6v-5.2c0-1.4-1.2-2.6-2.6-2.6h-2.6c-1.4,0-2.6,1.2-2.6,2.6  v3.8c0.1,0,0.1,0.1,0.2,0.1C76.6,73.8,78.3,75.1,81.7,75.1z M77.2,68.3h2.6v5.2h-2.6V68.3z"></path><path d="M13.8,50.2c0.7,0,1.3-0.6,1.3-1.3v-7.8c0-0.7-0.6-1.3-1.3-1.3c-0.7,0-1.3,0.6-1.3,1.3v7.8C12.5,49.6,13.1,50.2,13.8,50.2z"></path><path d="M29.3,50.2c0.7,0,1.3-0.6,1.3-1.3v-7.8c0-0.7-0.6-1.3-1.3-1.3c-0.7,0-1.3,0.6-1.3,1.3v7.8C28,49.6,28.6,50.2,29.3,50.2z"></path><path d="M20.3,50.2h2.6c1.4,0,2.6-1.2,2.6-2.6v-5.2c0-1.4-1.2-2.6-2.6-2.6h-2.6c-1.4,0-2.6,1.2-2.6,2.6v5.2  C17.7,49,18.8,50.2,20.3,50.2z M20.3,42.4h2.6v5.2h-2.6V42.4z"></path><path d="M86.2,50.2c0.7,0,1.3-0.6,1.3-1.3v-7.8c0-0.7-0.6-1.3-1.3-1.3c-0.7,0-1.3,0.6-1.3,1.3v7.8C84.9,49.6,85.5,50.2,86.2,50.2z"></path><path d="M70.7,50.2c0.7,0,1.3-0.6,1.3-1.3v-7.8c0-0.7-0.6-1.3-1.3-1.3c-0.7,0-1.3,0.6-1.3,1.3v7.8C69.4,49.6,70,50.2,70.7,50.2z"></path><path d="M77.2,50.2h2.6c1.4,0,2.6-1.2,2.6-2.6v-5.2c0-1.4-1.2-2.6-2.6-2.6h-2.6c-1.4,0-2.6,1.2-2.6,2.6v5.2  C74.6,49,75.7,50.2,77.2,50.2z M77.2,42.4h2.6v5.2h-2.6V42.4z"></path><path d="M48.7,50.2h2.6c1.4,0,2.6-1.2,2.6-2.6v-5.2c0-1.4-1.2-2.6-2.6-2.6h-2.6c-1.4,0-2.6,1.2-2.6,2.6v5.2  C46.1,49,47.3,50.2,48.7,50.2z M48.7,42.4h2.6v5.2h-2.6V42.4z"></path></svg>