<?xml version="1.0" encoding="UTF-8" standalone="no"?>
<!DOCTYPE svg PUBLIC "-//W3C//DTD SVG 1.1//EN"
 "http://www.w3.org/Graphics/SVG/1.1/DTD/svg11.dtd">
<!-- Generated by graphviz version 2.44.0 (0)
 -->
<!-- Pages: 1 -->
<svg width="2881pt" height="593pt"
 viewBox="0.00 0.00 2880.73 592.83" xmlns="http://www.w3.org/2000/svg" xmlns:xlink="http://www.w3.org/1999/xlink">
<g id="graph0" class="graph" transform="scale(1 1) rotate(0) translate(4 588.83)">
<polygon fill="white" stroke="transparent" points="-4,4 -4,-588.83 2876.73,-588.83 2876.73,4 -4,4"/>
<text text-anchor="middle" x="1436.37" y="-22.8" font-family="Times-Roman" font-size="14.00">Model:</text>
<text text-anchor="middle" x="1436.37" y="-7.8" font-family="Times-Roman" font-size="14.00">https://iode.org/</text>
<!-- Rhttps://www.marinetraining.eu/node/4607 -->
<g id="node1" class="node">
<title>Rhttps://www.marinetraining.eu/node/4607</title>
<ellipse fill="none" stroke="blue" cx="200.18" cy="-441.83" rx="200.36" ry="18"/>
<text text-anchor="middle" x="200.18" y="-438.13" font-family="Times-Roman" font-size="14.00">https://www.marinetraining.eu/node/4607</text>
</g>
<!-- Rschema:Course -->
<g id="node2" class="node">
<title>Rschema:Course</title>
<ellipse fill="none" stroke="blue" cx="708.96" cy="-566.83" rx="80.69" ry="18"/>
<text text-anchor="middle" x="708.96" y="-563.13" font-family="Times-Roman" font-size="14.00">schema:Course</text>
</g>
<!-- Rhttps://www.marinetraining.eu/node/4607&#45;&gt;Rschema:Course -->
<g id="edge1" class="edge">
<title>Rhttps://www.marinetraining.eu/node/4607&#45;&gt;Rschema:Course</title>
<path fill="none" stroke="black" stroke-dasharray="1,5" d="M245.46,-459.48C288.9,-476.24 357.32,-501.13 418.36,-516.83 488.55,-534.88 570,-548.29 628.61,-556.65"/>
<polygon fill="black" stroke="black" points="628.15,-560.12 638.54,-558.05 629.13,-553.19 628.15,-560.12"/>
<text text-anchor="middle" x="514.36" y="-556.63" font-family="Times-Roman" font-size="14.00">rdfs:type</text>
</g>
<!-- LMTP&#45;C&#45;4607 -->
<g id="node3" class="node">
<title>LMTP&#45;C&#45;4607</title>
<polygon fill="none" stroke="black" points="658.46,-493.83 658.46,-529.83 759.46,-529.83 759.46,-493.83 658.46,-493.83"/>
<text text-anchor="middle" x="708.96" y="-508.13" font-family="Times-Roman" font-size="14.00">MTP&#45;C&#45;4607</text>
</g>
<!-- Rhttps://www.marinetraining.eu/node/4607&#45;&gt;LMTP&#45;C&#45;4607 -->
<g id="edge2" class="edge">
<title>Rhttps://www.marinetraining.eu/node/4607&#45;&gt;LMTP&#45;C&#45;4607</title>
<path fill="none" stroke="black" stroke-dasharray="1,5" d="M303.61,-457.26C339.84,-462.63 380.9,-468.61 418.36,-473.83 497.72,-484.88 589.44,-496.76 648.03,-504.24"/>
<polygon fill="black" stroke="black" points="647.86,-507.75 658.22,-505.54 648.74,-500.81 647.86,-507.75"/>
<text text-anchor="middle" x="514.36" y="-501.63" font-family="Times-Roman" font-size="14.00">schema:courseCode</text>
</g>
<!-- L&lt;p&gt;&lt;b&gt;Catch the wave of offshore wind &amp; acquire a broad knowledge from a technological and multidisciplinary perspec&lt;/b&gt;&lt;/p&gt; -->
<g id="node4" class="node">
<title>L&lt;p&gt;&lt;b&gt;Catch the wave of offshore wind &amp; acquire a broad knowledge from a technological and multidisciplinary perspec&lt;/b&gt;&lt;/p&gt;</title>
<polygon fill="none" stroke="black" points="961.55,-462.83 961.55,-498.83 1913.55,-498.83 1913.55,-462.83 961.55,-462.83"/>
<text text-anchor="middle" x="1437.55" y="-477.13" font-family="Times-Roman" font-size="14.00">L&lt;p&gt;&lt;b&gt;Catch the wave of offshore wind &amp; acquire a broad knowledge from a technological and multidisciplinary perspec&lt;/b&gt;&lt;/p&gt;</text>
</g>
<!-- Rhttps://www.marinetraining.eu/node/4607&#45;&gt;L&lt;p&gt;&lt;b&gt;Catch the wave of offshore wind &amp; acquire a broad knowledge from a technological and multidisciplinary perspec&lt;/b&gt;&lt;/p&gt; -->
<g id="edge3" class="edge">
<title>Rhttps://www.marinetraining.eu/node/4607&#45;&gt;L&lt;p&gt;&lt;b&gt;Catch the wave of offshore wind &amp; acquire a broad knowledge from a technological and multidisciplinary perspec&lt;/b&gt;&lt;/p&gt;</title>
<path fill="none" stroke="black" stroke-dasharray="1,5" d="M389.48,-447.77C538.77,-452.48 754.31,-459.29 951.06,-465.5"/>
<polygon fill="black" stroke="black" points="951.2,-469.01 961.31,-465.82 951.42,-462.01 951.2,-469.01"/>
<text text-anchor="middle" x="708.96" y="-464.63" font-family="Times-Roman" font-size="14.00">schema:description</text>
</g>
<!-- B_:b0 -->
<g id="node5" class="node">
<title>B_:b0</title>
<ellipse fill="none" stroke="green" cx="708.96" cy="-333.83" rx="18" ry="18"/>
</g>
<!-- Rhttps://www.marinetraining.eu/node/4607&#45;&gt;B_:b0 -->
<g id="edge4" class="edge">
<title>Rhttps://www.marinetraining.eu/node/4607&#45;&gt;B_:b0</title>
<path fill="none" stroke="black" stroke-dasharray="1,5" d="M278.98,-425.25C394.81,-400.56 606.95,-355.35 681.33,-339.5"/>
<polygon fill="black" stroke="black" points="682.23,-342.89 691.28,-337.38 680.77,-336.04 682.23,-342.89"/>
<text text-anchor="middle" x="514.36" y="-398.63" font-family="Times-Roman" font-size="14.00">schema:hasCourseInstance</text>
</g>
<!-- LOffshore wind energy -->
<g id="node6" class="node">
<title>LOffshore wind energy</title>
<polygon fill="none" stroke="black" points="1354.55,-132.83 1354.55,-168.83 1520.55,-168.83 1520.55,-132.83 1354.55,-132.83"/>
<text text-anchor="middle" x="1437.55" y="-147.13" font-family="Times-Roman" font-size="14.00">Offshore wind energy</text>
</g>
<!-- Rhttps://www.marinetraining.eu/node/4607&#45;&gt;LOffshore wind energy -->
<g id="edge5" class="edge">
<title>Rhttps://www.marinetraining.eu/node/4607&#45;&gt;LOffshore wind energy</title>
<path fill="none" stroke="black" stroke-dasharray="1,5" d="M229.35,-423.93C313.22,-371.79 570.24,-220.26 807.55,-165.83 994.21,-123.01 1220.21,-131.8 1344.13,-141.6"/>
<polygon fill="black" stroke="black" points="1344.08,-145.11 1354.33,-142.43 1344.65,-138.13 1344.08,-145.11"/>
<text text-anchor="middle" x="708.96" y="-224.63" font-family="Times-Roman" font-size="14.00">schema:name</text>
</g>
<!-- B_:b4 -->
<g id="node7" class="node">
<title>B_:b4</title>
<ellipse fill="none" stroke="green" cx="1437.55" cy="-95.83" rx="18" ry="18"/>
</g>
<!-- Rhttps://www.marinetraining.eu/node/4607&#45;&gt;B_:b4 -->
<g id="edge6" class="edge">
<title>Rhttps://www.marinetraining.eu/node/4607&#45;&gt;B_:b4</title>
<path fill="none" stroke="black" stroke-dasharray="1,5" d="M214.96,-423.69C246.63,-383.15 328.82,-284.3 418.36,-227.83 756.81,-14.4 1284.58,-73.77 1409.43,-91.63"/>
<polygon fill="black" stroke="black" points="1409.21,-95.14 1419.62,-93.12 1410.23,-88.21 1409.21,-95.14"/>
<text text-anchor="middle" x="708.96" y="-133.63" font-family="Times-Roman" font-size="14.00">schema:provider</text>
</g>
<!-- B_:b0&#45;&gt;L&lt;p&gt;&lt;b&gt;Catch the wave of offshore wind &amp; acquire a broad knowledge from a technological and multidisciplinary perspec&lt;/b&gt;&lt;/p&gt; -->
<g id="edge8" class="edge">
<title>B_:b0&#45;&gt;L&lt;p&gt;&lt;b&gt;Catch the wave of offshore wind &amp; acquire a broad knowledge from a technological and multidisciplinary perspec&lt;/b&gt;&lt;/p&gt;</title>
<path fill="none" stroke="black" stroke-dasharray="1,5" d="M722.23,-346.35C739.58,-363.23 773.01,-392.89 807.55,-407.83 863.82,-432.16 890.54,-400.03 943.55,-430.83 954.47,-437.17 950.3,-447.08 961.55,-452.83 1070.21,-508.29 1211.57,-509.08 1311.75,-499.82"/>
<polygon fill="black" stroke="black" points="1312.31,-503.28 1321.92,-498.83 1311.63,-496.32 1312.31,-503.28"/>
<text text-anchor="middle" x="875.55" y="-434.63" font-family="Times-Roman" font-size="14.00">schema:description</text>
</g>
<!-- B_:b0&#45;&gt;LOffshore wind energy -->
<g id="edge11" class="edge">
<title>B_:b0&#45;&gt;LOffshore wind energy</title>
<path fill="none" stroke="black" stroke-dasharray="1,5" d="M715.79,-316.76C727.54,-285.31 757.32,-218.8 807.55,-189.83 852.8,-163.72 1180.67,-154.86 1344.25,-152.04"/>
<polygon fill="black" stroke="black" points="1344.36,-155.54 1354.3,-151.87 1344.24,-148.54 1344.36,-155.54"/>
<text text-anchor="middle" x="875.55" y="-193.63" font-family="Times-Roman" font-size="14.00">schema:name</text>
</g>
<!-- Rschema:CourseInstance -->
<g id="node8" class="node">
<title>Rschema:CourseInstance</title>
<ellipse fill="none" stroke="blue" cx="1437.55" cy="-315.83" rx="118.88" ry="18"/>
<text text-anchor="middle" x="1437.55" y="-312.13" font-family="Times-Roman" font-size="14.00">schema:CourseInstance</text>
</g>
<!-- B_:b0&#45;&gt;Rschema:CourseInstance -->
<g id="edge7" class="edge">
<title>B_:b0&#45;&gt;Rschema:CourseInstance</title>
<path fill="none" stroke="black" stroke-dasharray="1,5" d="M726.77,-330C746.12,-325.8 778.94,-319.32 807.55,-316.83 983.11,-301.51 1187.29,-305.11 1314.24,-309.86"/>
<polygon fill="black" stroke="black" points="1314.25,-313.36 1324.38,-310.25 1314.52,-306.37 1314.25,-313.36"/>
<text text-anchor="middle" x="875.55" y="-320.63" font-family="Times-Roman" font-size="14.00">rdfs:type</text>
</g>
<!-- L2021&#45;05&#45;25 -->
<g id="node9" class="node">
<title>L2021&#45;05&#45;25</title>
<polygon fill="none" stroke="black" points="1388.05,-242.83 1388.05,-278.83 1487.05,-278.83 1487.05,-242.83 1388.05,-242.83"/>
<text text-anchor="middle" x="1437.55" y="-257.13" font-family="Times-Roman" font-size="14.00">2021&#45;05&#45;25</text>
</g>
<!-- B_:b0&#45;&gt;L2021&#45;05&#45;25 -->
<g id="edge9" class="edge">
<title>B_:b0&#45;&gt;L2021&#45;05&#45;25</title>
<path fill="none" stroke="black" stroke-dasharray="1,5" d="M724.9,-325.15C743.54,-314.83 776.73,-298.09 807.55,-290.83 1012.64,-242.52 1265.44,-249.94 1377.87,-256.57"/>
<polygon fill="black" stroke="black" points="1377.79,-260.07 1387.98,-257.18 1378.21,-253.08 1377.79,-260.07"/>
<text text-anchor="middle" x="875.55" y="-294.63" font-family="Times-Roman" font-size="14.00">schema:endDate</text>
</g>
<!-- B_:b1 -->
<g id="node10" class="node">
<title>B_:b1</title>
<ellipse fill="none" stroke="green" cx="1437.55" cy="-425.83" rx="18" ry="18"/>
</g>
<!-- B_:b0&#45;&gt;B_:b1 -->
<g id="edge10" class="edge">
<title>B_:b0&#45;&gt;B_:b1</title>
<path fill="none" stroke="black" stroke-dasharray="1,5" d="M726.41,-339.37C745.71,-345.76 778.73,-356.34 807.55,-363.83 867.37,-379.37 883.53,-378.1 943.55,-392.83 951.61,-394.8 953.36,-396.46 961.55,-397.83 1129.74,-425.82 1335.5,-426.87 1408.91,-426.23"/>
<polygon fill="black" stroke="black" points="1409.19,-429.73 1419.15,-426.12 1409.11,-422.73 1409.19,-429.73"/>
<text text-anchor="middle" x="875.55" y="-396.63" font-family="Times-Roman" font-size="14.00">schema:location</text>
</g>
<!-- B_:b3 -->
<g id="node11" class="node">
<title>B_:b3</title>
<ellipse fill="none" stroke="green" cx="1437.55" cy="-205.83" rx="18" ry="18"/>
</g>
<!-- B_:b0&#45;&gt;B_:b3 -->
<g id="edge12" class="edge">
<title>B_:b0&#45;&gt;B_:b3</title>
<path fill="none" stroke="black" stroke-dasharray="1,5" d="M720.85,-320.06C737.28,-300.42 770.46,-264.95 807.55,-248.83 1023.14,-155.12 1319.7,-188.38 1409.64,-201.52"/>
<polygon fill="black" stroke="black" points="1409.15,-204.99 1419.56,-203.01 1410.19,-198.07 1409.15,-204.99"/>
<text text-anchor="middle" x="875.55" y="-252.63" font-family="Times-Roman" font-size="14.00">schema:organizer</text>
</g>
<!-- L2020&#45;10&#45;13 -->
<g id="node12" class="node">
<title>L2020&#45;10&#45;13</title>
<polygon fill="none" stroke="black" points="1388.05,-352.83 1388.05,-388.83 1487.05,-388.83 1487.05,-352.83 1388.05,-352.83"/>
<text text-anchor="middle" x="1437.55" y="-367.13" font-family="Times-Roman" font-size="14.00">2020&#45;10&#45;13</text>
</g>
<!-- B_:b0&#45;&gt;L2020&#45;10&#45;13 -->
<g id="edge13" class="edge">
<title>B_:b0&#45;&gt;L2020&#45;10&#45;13</title>
<path fill="none" stroke="black" stroke-dasharray="1,5" d="M727.2,-334.7C816.06,-339.23 1224.06,-360.01 1377.76,-367.83"/>
<polygon fill="black" stroke="black" points="1377.78,-371.34 1387.94,-368.35 1378.13,-364.35 1377.78,-371.34"/>
<text text-anchor="middle" x="875.55" y="-348.63" font-family="Times-Roman" font-size="14.00">schema:startDate</text>
</g>
<!-- Rschema:Organization -->
<g id="node20" class="node">
<title>Rschema:Organization</title>
<ellipse fill="none" stroke="blue" cx="2170.14" cy="-108.83" rx="106.68" ry="18"/>
<text text-anchor="middle" x="2170.14" y="-105.13" font-family="Times-Roman" font-size="14.00">schema:Organization</text>
</g>
<!-- B_:b4&#45;&gt;Rschema:Organization -->
<g id="edge24" class="edge">
<title>B_:b4&#45;&gt;Rschema:Organization</title>
<path fill="none" stroke="black" stroke-dasharray="1,5" d="M1455.95,-95.06C1528.32,-92.03 1812.5,-81.67 2045.55,-94.83 2054.99,-95.36 2064.82,-96.12 2074.62,-97.01"/>
<polygon fill="black" stroke="black" points="2074.53,-100.52 2084.82,-97.99 2075.2,-93.55 2074.53,-100.52"/>
<text text-anchor="middle" x="1988.55" y="-98.63" font-family="Times-Roman" font-size="14.00">rdfs:type</text>
</g>
<!-- LGhent University -->
<g id="node21" class="node">
<title>LGhent University</title>
<polygon fill="none" stroke="black" points="2103.14,-174.83 2103.14,-210.83 2237.14,-210.83 2237.14,-174.83 2103.14,-174.83"/>
<text text-anchor="middle" x="2170.14" y="-189.13" font-family="Times-Roman" font-size="14.00">Ghent University</text>
</g>
<!-- B_:b4&#45;&gt;LGhent University -->
<g id="edge25" class="edge">
<title>B_:b4&#45;&gt;LGhent University</title>
<path fill="none" stroke="black" stroke-dasharray="1,5" d="M1455.7,-95.79C1542.1,-95.74 1929.98,-97.33 2045.55,-128.83 2054.26,-131.2 2094.92,-152.61 2127.26,-170.03"/>
<polygon fill="black" stroke="black" points="2125.66,-173.14 2136.13,-174.82 2128.99,-166.98 2125.66,-173.14"/>
<text text-anchor="middle" x="1988.55" y="-132.63" font-family="Times-Roman" font-size="14.00">schema:name</text>
</g>
<!-- Rschema:Place -->
<g id="node13" class="node">
<title>Rschema:Place</title>
<ellipse fill="none" stroke="blue" cx="2170.14" cy="-425.83" rx="72.29" ry="18"/>
<text text-anchor="middle" x="2170.14" y="-422.13" font-family="Times-Roman" font-size="14.00">schema:Place</text>
</g>
<!-- B_:b1&#45;&gt;Rschema:Place -->
<g id="edge14" class="edge">
<title>B_:b1&#45;&gt;Rschema:Place</title>
<path fill="none" stroke="black" stroke-dasharray="1,5" d="M1455.89,-425.83C1541.23,-425.83 1919.29,-425.83 2087.71,-425.83"/>
<polygon fill="black" stroke="black" points="2087.77,-429.33 2097.77,-425.83 2087.77,-422.33 2087.77,-429.33"/>
<text text-anchor="middle" x="1988.55" y="-429.63" font-family="Times-Roman" font-size="14.00">rdfs:type</text>
</g>
<!-- B_:b2 -->
<g id="node14" class="node">
<title>B_:b2</title>
<ellipse fill="none" stroke="green" cx="2170.14" cy="-370.83" rx="18" ry="18"/>
</g>
<!-- B_:b1&#45;&gt;B_:b2 -->
<g id="edge15" class="edge">
<title>B_:b1&#45;&gt;B_:b2</title>
<path fill="none" stroke="black" stroke-dasharray="1,5" d="M1455.82,-425.1C1517.82,-422.42 1734.89,-412.52 1913.55,-397.83 1996.92,-390.97 2095.25,-379.68 2141.92,-374.12"/>
<polygon fill="black" stroke="black" points="2142.6,-377.56 2152.12,-372.9 2141.77,-370.61 2142.6,-377.56"/>
<text text-anchor="middle" x="1988.55" y="-400.63" font-family="Times-Roman" font-size="14.00">schema:address</text>
</g>
<!-- LBlueBridge, Ostend Science Park, Wetenschapspark 1 -->
<g id="node15" class="node">
<title>LBlueBridge, Ostend Science Park, Wetenschapspark 1</title>
<polygon fill="none" stroke="black" points="2481.73,-461.83 2481.73,-497.83 2872.73,-497.83 2872.73,-461.83 2481.73,-461.83"/>
<text text-anchor="middle" x="2677.23" y="-476.13" font-family="Times-Roman" font-size="14.00">BlueBridge, Ostend Science Park, Wetenschapspark 1</text>
</g>
<!-- B_:b1&#45;&gt;LBlueBridge, Ostend Science Park, Wetenschapspark 1 -->
<g id="edge16" class="edge">
<title>B_:b1&#45;&gt;LBlueBridge, Ostend Science Park, Wetenschapspark 1</title>
<path fill="none" stroke="black" stroke-dasharray="1,5" d="M1455.74,-426.69C1544.17,-431.14 1956.87,-451.74 2294.73,-465.83 2352.05,-468.22 2414.21,-470.59 2471.4,-472.69"/>
<polygon fill="black" stroke="black" points="2471.53,-476.19 2481.65,-473.06 2471.78,-469.2 2471.53,-476.19"/>
<text text-anchor="middle" x="2170.14" y="-468.63" font-family="Times-Roman" font-size="14.00">schema:name</text>
</g>
<!-- B_:b3&#45;&gt;Rschema:Organization -->
<g id="edge22" class="edge">
<title>B_:b3&#45;&gt;Rschema:Organization</title>
<path fill="none" stroke="black" stroke-dasharray="1,5" d="M1455.91,-205.83C1518.18,-205.63 1736.07,-203.05 1913.55,-177.83 1973.11,-169.36 1987.48,-163.56 2045.55,-147.83 2067.3,-141.93 2090.94,-134.68 2111.67,-128.04"/>
<polygon fill="black" stroke="black" points="2112.84,-131.34 2121.28,-124.94 2110.69,-124.68 2112.84,-131.34"/>
<text text-anchor="middle" x="1988.55" y="-179.63" font-family="Times-Roman" font-size="14.00">rdfs:type</text>
</g>
<!-- B_:b3&#45;&gt;LGhent University -->
<g id="edge23" class="edge">
<title>B_:b3&#45;&gt;LGhent University</title>
<path fill="none" stroke="black" stroke-dasharray="1,5" d="M1455.89,-205.52C1542.14,-203.98 1927.38,-197.13 2093.03,-194.18"/>
<polygon fill="black" stroke="black" points="2093.2,-197.68 2103.14,-194 2093.08,-190.68 2093.2,-197.68"/>
<text text-anchor="middle" x="1988.55" y="-201.63" font-family="Times-Roman" font-size="14.00">schema:name</text>
</g>
<!-- B_:b2&#45;&gt;LBlueBridge, Ostend Science Park, Wetenschapspark 1 -->
<g id="edge21" class="edge">
<title>B_:b2&#45;&gt;LBlueBridge, Ostend Science Park, Wetenschapspark 1</title>
<path fill="none" stroke="black" stroke-dasharray="1,5" d="M2188.49,-371.63C2210.86,-373.45 2250.05,-379.4 2276.73,-398.83 2288.69,-407.53 2282.27,-418.86 2294.73,-426.83 2296.05,-427.67 2426.28,-445.65 2534.21,-460.44"/>
<polygon fill="black" stroke="black" points="2533.86,-463.92 2544.25,-461.81 2534.81,-456.99 2533.86,-463.92"/>
<text text-anchor="middle" x="2379.23" y="-454.63" font-family="Times-Roman" font-size="14.00">schema:streetAddress</text>
</g>
<!-- Rschema:PostalAddress -->
<g id="node16" class="node">
<title>Rschema:PostalAddress</title>
<ellipse fill="none" stroke="blue" cx="2677.23" cy="-369.83" rx="111.58" ry="18"/>
<text text-anchor="middle" x="2677.23" y="-366.13" font-family="Times-Roman" font-size="14.00">schema:PostalAddress</text>
</g>
<!-- B_:b2&#45;&gt;Rschema:PostalAddress -->
<g id="edge17" class="edge">
<title>B_:b2&#45;&gt;Rschema:PostalAddress</title>
<path fill="none" stroke="black" stroke-dasharray="1,5" d="M2188.24,-370.79C2244.9,-370.68 2430.08,-370.31 2555.32,-370.07"/>
<polygon fill="black" stroke="black" points="2555.37,-373.57 2565.36,-370.05 2555.35,-366.57 2555.37,-373.57"/>
<text text-anchor="middle" x="2379.23" y="-374.63" font-family="Times-Roman" font-size="14.00">rdfs:type</text>
</g>
<!-- LBE -->
<g id="node17" class="node">
<title>LBE</title>
<polygon fill="none" stroke="black" points="2650.23,-296.83 2650.23,-332.83 2704.23,-332.83 2704.23,-296.83 2650.23,-296.83"/>
<text text-anchor="middle" x="2677.23" y="-311.13" font-family="Times-Roman" font-size="14.00">BE</text>
</g>
<!-- B_:b2&#45;&gt;LBE -->
<g id="edge18" class="edge">
<title>B_:b2&#45;&gt;LBE</title>
<path fill="none" stroke="black" stroke-dasharray="1,5" d="M2188.29,-367.88C2212.12,-363.86 2256.6,-356.6 2294.73,-351.83 2421.02,-336.01 2571.56,-323.17 2639.61,-317.69"/>
<polygon fill="black" stroke="black" points="2640.12,-321.16 2649.81,-316.88 2639.56,-314.19 2640.12,-321.16"/>
<text text-anchor="middle" x="2379.23" y="-355.63" font-family="Times-Roman" font-size="14.00">schema:addressCountry</text>
</g>
<!-- LOostende -->
<g id="node18" class="node">
<title>LOostende</title>
<polygon fill="none" stroke="black" points="2635.73,-241.83 2635.73,-277.83 2718.73,-277.83 2718.73,-241.83 2635.73,-241.83"/>
<text text-anchor="middle" x="2677.23" y="-256.13" font-family="Times-Roman" font-size="14.00">Oostende</text>
</g>
<!-- B_:b2&#45;&gt;LOostende -->
<g id="edge19" class="edge">
<title>B_:b2&#45;&gt;LOostende</title>
<path fill="none" stroke="black" stroke-dasharray="1,5" d="M2186.22,-362.33C2208.99,-349.89 2253.84,-326.9 2294.73,-314.83 2410.12,-280.77 2551.61,-267.42 2625.62,-262.49"/>
<polygon fill="black" stroke="black" points="2625.85,-265.98 2635.6,-261.85 2625.4,-259 2625.85,-265.98"/>
<text text-anchor="middle" x="2379.23" y="-318.63" font-family="Times-Roman" font-size="14.00">schema:addressLocality</text>
</g>
<!-- L8400 -->
<g id="node19" class="node">
<title>L8400</title>
<polygon fill="none" stroke="black" points="2650.23,-406.83 2650.23,-442.83 2704.23,-442.83 2704.23,-406.83 2650.23,-406.83"/>
<text text-anchor="middle" x="2677.23" y="-421.13" font-family="Times-Roman" font-size="14.00">8400</text>
</g>
<!-- B_:b2&#45;&gt;L8400 -->
<g id="edge20" class="edge">
<title>B_:b2&#45;&gt;L8400</title>
<path fill="none" stroke="black" stroke-dasharray="1,5" d="M2188.29,-373.8C2212.11,-377.86 2256.59,-385.15 2294.73,-389.83 2421,-405.31 2571.55,-417.19 2639.61,-422.21"/>
<polygon fill="black" stroke="black" points="2639.58,-425.72 2649.81,-422.96 2640.09,-418.74 2639.58,-425.72"/>
<text text-anchor="middle" x="2379.23" y="-411.63" font-family="Times-Roman" font-size="14.00">schema:postalCode</text>
</g>
</g>
</svg>
