<?xml version="1.0" encoding="UTF-8" standalone="no"?>
<!DOCTYPE svg PUBLIC "-//W3C//DTD SVG 1.1//EN"
 "http://www.w3.org/Graphics/SVG/1.1/DTD/svg11.dtd">
<!-- Generated by graphviz version 5.0.0 (0)
 -->
<!-- Pages: 1 -->
<svg width="1181pt" height="1127pt"
 viewBox="0.00 0.00 1181.03 1127.00" xmlns="http://www.w3.org/2000/svg" xmlns:xlink="http://www.w3.org/1999/xlink">
<g id="graph0" class="graph" transform="scale(1 1) rotate(0) translate(4 1123)">
<polygon fill="white" stroke="transparent" points="-4,4 -4,-1123 1177.03,-1123 1177.03,4 -4,4"/>
<!-- CreativeWork -->
<g id="node1" class="node">
<title>CreativeWork</title>
<ellipse fill="none" stroke="#558855" cx="1038.49" cy="-882" rx="74.19" ry="18"/>
<text text-anchor="middle" x="1038.49" y="-878.3" font-family="Times,serif" font-size="14.00">CreativeWork</text>
</g>
<!-- purl.unep.org/sdg/SDGIO_00020173 -->
<g id="node2" class="node">
<title>purl.unep.org/sdg/SDGIO_00020173</title>
<ellipse fill="none" stroke="#558855" cx="575.57" cy="-995" rx="179.27" ry="18"/>
<text text-anchor="middle" x="575.57" y="-991.3" font-family="Times,serif" font-size="14.00">purl.unep.org/sdg/SDGIO_00020173</text>
</g>
<!-- purl.unep.org/sdg/SDGIO_00020173&#45;&gt;CreativeWork -->
<g id="edge1" class="edge">
<title>purl.unep.org/sdg/SDGIO_00020173&#45;&gt;CreativeWork</title>
<path fill="none" stroke="black" d="M708.06,-982.86C765.36,-973.44 831.68,-956.71 885.95,-927 895.87,-921.57 893.98,-914.35 903.95,-909 920.64,-900.04 939.97,-894.05 958.64,-890.04"/>
<polygon fill="black" stroke="black" points="959.49,-893.44 968.62,-888.06 958.13,-886.57 959.49,-893.44"/>
<text text-anchor="middle" x="829.45" y="-972.8" font-family="Times,serif" font-size="14.00">type</text>
</g>
<!-- &quot;Number of countries ...&quot; -->
<g id="node3" class="node">
<title>&quot;Number of countries ...&quot;</title>
<ellipse fill="none" stroke="black" stroke-width="0" cx="1038.49" cy="-1101" rx="127.28" ry="18"/>
<text text-anchor="middle" x="1038.49" y="-1097.3" font-family="Times,serif" font-size="14.00">&quot;Number of countries ...&quot;</text>
</g>
<!-- purl.unep.org/sdg/SDGIO_00020173&#45;&gt;&quot;Number of countries ...&quot; -->
<g id="edge2" class="edge">
<title>purl.unep.org/sdg/SDGIO_00020173&#45;&gt;&quot;Number of countries ...&quot;</title>
<path fill="none" stroke="black" d="M636.95,-1011.92C675.68,-1022.54 727.12,-1036.22 772.95,-1047 830.82,-1060.61 845.7,-1062.11 903.95,-1074 920.17,-1077.31 937.5,-1080.83 954.12,-1084.19"/>
<polygon fill="black" stroke="black" points="953.86,-1087.71 964.36,-1086.27 955.25,-1080.85 953.86,-1087.71"/>
<text text-anchor="middle" x="829.45" y="-1073.8" font-family="Times,serif" font-size="14.00">description</text>
</g>
<!-- &quot;UNSD SDG indicator c...&quot; -->
<g id="node4" class="node">
<title>&quot;UNSD SDG indicator c...&quot;</title>
<ellipse fill="none" stroke="black" stroke-width="0" cx="1038.49" cy="-1047" rx="133.78" ry="18"/>
<text text-anchor="middle" x="1038.49" y="-1043.3" font-family="Times,serif" font-size="14.00">&quot;UNSD SDG indicator c...&quot;</text>
</g>
<!-- purl.unep.org/sdg/SDGIO_00020173&#45;&gt;&quot;UNSD SDG indicator c...&quot; -->
<g id="edge3" class="edge">
<title>purl.unep.org/sdg/SDGIO_00020173&#45;&gt;&quot;UNSD SDG indicator c...&quot;</title>
<path fill="none" stroke="black" d="M695.56,-1008.43C766.37,-1016.41 855.66,-1026.49 925.24,-1034.34"/>
<polygon fill="black" stroke="black" points="925.03,-1037.83 935.36,-1035.48 925.81,-1030.88 925.03,-1037.83"/>
<text text-anchor="middle" x="829.45" y="-1031.8" font-family="Times,serif" font-size="14.00">name</text>
</g>
<!-- &quot;http//www.ontobee.or...&quot; -->
<g id="node5" class="node">
<title>&quot;http//www.ontobee.or...&quot;</title>
<ellipse fill="none" stroke="black" stroke-width="0" cx="1038.49" cy="-993" rx="128.08" ry="18"/>
<text text-anchor="middle" x="1038.49" y="-989.3" font-family="Times,serif" font-size="14.00">&quot;http//www.ontobee.or...&quot;</text>
</g>
<!-- purl.unep.org/sdg/SDGIO_00020173&#45;&gt;&quot;http//www.ontobee.or...&quot; -->
<g id="edge4" class="edge">
<title>purl.unep.org/sdg/SDGIO_00020173&#45;&gt;&quot;http//www.ontobee.or...&quot;</title>
<path fill="none" stroke="black" d="M755.1,-994.23C803.24,-994.02 854.56,-993.79 900.07,-993.6"/>
<polygon fill="black" stroke="black" points="900.31,-997.1 910.29,-993.55 900.28,-990.1 900.31,-997.1"/>
<text text-anchor="middle" x="829.45" y="-997.8" font-family="Times,serif" font-size="14.00">url</text>
</g>
<!-- dx.doi.org/10.1038/sdata.2016.18 -->
<g id="node6" class="node">
<title>dx.doi.org/10.1038/sdata.2016.18</title>
<ellipse fill="none" stroke="#558855" cx="575.57" cy="-843" rx="167.87" ry="18"/>
<text text-anchor="middle" x="575.57" y="-839.3" font-family="Times,serif" font-size="14.00">dx.doi.org/10.1038/sdata.2016.18</text>
</g>
<!-- dx.doi.org/10.1038/sdata.2016.18&#45;&gt;CreativeWork -->
<g id="edge5" class="edge">
<title>dx.doi.org/10.1038/sdata.2016.18&#45;&gt;CreativeWork</title>
<path fill="none" stroke="black" d="M707.72,-854.1C788.34,-860.92 889.01,-869.44 957.77,-875.26"/>
<polygon fill="black" stroke="black" points="957.85,-878.77 968.11,-876.13 958.44,-871.8 957.85,-878.77"/>
<text text-anchor="middle" x="829.45" y="-871.8" font-family="Times,serif" font-size="14.00">type</text>
</g>
<!-- &quot;FAIR Principles defi...&quot; -->
<g id="node7" class="node">
<title>&quot;FAIR Principles defi...&quot;</title>
<ellipse fill="none" stroke="black" stroke-width="0" cx="1038.49" cy="-828" rx="119.68" ry="18"/>
<text text-anchor="middle" x="1038.49" y="-824.3" font-family="Times,serif" font-size="14.00">&quot;FAIR Principles defi...&quot;</text>
</g>
<!-- dx.doi.org/10.1038/sdata.2016.18&#45;&gt;&quot;FAIR Principles defi...&quot; -->
<g id="edge6" class="edge">
<title>dx.doi.org/10.1038/sdata.2016.18&#45;&gt;&quot;FAIR Principles defi...&quot;</title>
<path fill="none" stroke="black" d="M736.16,-837.81C793.34,-835.95 856.97,-833.87 910.96,-832.12"/>
<polygon fill="black" stroke="black" points="911.4,-835.61 921.28,-831.78 911.17,-828.61 911.4,-835.61"/>
<text text-anchor="middle" x="829.45" y="-839.8" font-family="Times,serif" font-size="14.00">description</text>
</g>
<!-- &quot;FAIR data principles&quot; -->
<g id="node8" class="node">
<title>&quot;FAIR data principles&quot;</title>
<ellipse fill="none" stroke="black" stroke-width="0" cx="1038.49" cy="-774" rx="113.98" ry="18"/>
<text text-anchor="middle" x="1038.49" y="-770.3" font-family="Times,serif" font-size="14.00">&quot;FAIR data principles&quot;</text>
</g>
<!-- dx.doi.org/10.1038/sdata.2016.18&#45;&gt;&quot;FAIR data principles&quot; -->
<g id="edge7" class="edge">
<title>dx.doi.org/10.1038/sdata.2016.18&#45;&gt;&quot;FAIR data principles&quot;</title>
<path fill="none" stroke="black" d="M611.27,-825.28C649.66,-806.75 713.91,-778.89 772.95,-768 826.94,-758.04 888.18,-758.69 938.13,-762.21"/>
<polygon fill="black" stroke="black" points="938.05,-765.71 948.28,-762.98 938.58,-758.73 938.05,-765.71"/>
<text text-anchor="middle" x="829.45" y="-771.8" font-family="Times,serif" font-size="14.00">name</text>
</g>
<!-- &quot;https//www.nature.co...&quot; -->
<g id="node9" class="node">
<title>&quot;https//www.nature.co...&quot;</title>
<ellipse fill="none" stroke="black" stroke-width="0" cx="1038.49" cy="-936" rx="128.08" ry="18"/>
<text text-anchor="middle" x="1038.49" y="-932.3" font-family="Times,serif" font-size="14.00">&quot;https//www.nature.co...&quot;</text>
</g>
<!-- dx.doi.org/10.1038/sdata.2016.18&#45;&gt;&quot;https//www.nature.co...&quot; -->
<g id="edge8" class="edge">
<title>dx.doi.org/10.1038/sdata.2016.18&#45;&gt;&quot;https//www.nature.co...&quot;</title>
<path fill="none" stroke="black" d="M646.87,-859.42C684.25,-867.98 731.02,-878.42 772.95,-887 830.86,-898.85 896.17,-910.96 947.41,-920.17"/>
<polygon fill="black" stroke="black" points="947,-923.66 957.46,-921.98 948.24,-916.77 947,-923.66"/>
<text text-anchor="middle" x="829.45" y="-911.8" font-family="Times,serif" font-size="14.00">url</text>
</g>
<!-- Organization -->
<g id="node10" class="node">
<title>Organization</title>
<ellipse fill="none" stroke="#558855" cx="1038.49" cy="-720" rx="70.69" ry="18"/>
<text text-anchor="middle" x="1038.49" y="-716.3" font-family="Times,serif" font-size="14.00">Organization</text>
</g>
<!-- example.org/id/org/x -->
<g id="node11" class="node">
<title>example.org/id/org/x</title>
<ellipse fill="none" stroke="black" cx="106.59" cy="-353" rx="106.68" ry="18"/>
<text text-anchor="middle" x="106.59" y="-349.3" font-family="Times,serif" font-size="14.00">example.org/id/org/x</text>
</g>
<!-- example.org/id/org/x&#45;&gt;purl.unep.org/sdg/SDGIO_00020173 -->
<g id="edge18" class="edge">
<title>example.org/id/org/x&#45;&gt;purl.unep.org/sdg/SDGIO_00020173</title>
<path fill="none" stroke="black" d="M107.09,-371.04C106.12,-439.53 111.45,-686.95 231.18,-832 296.65,-911.31 409.65,-954.46 488.06,-976.09"/>
<polygon fill="black" stroke="black" points="487.36,-979.53 497.93,-978.75 489.18,-972.77 487.36,-979.53"/>
<text text-anchor="middle" x="304.68" y="-936.8" font-family="Times,serif" font-size="14.00">subjectOf</text>
</g>
<!-- example.org/id/org/x&#45;&gt;dx.doi.org/10.1038/sdata.2016.18 -->
<g id="edge16" class="edge">
<title>example.org/id/org/x&#45;&gt;dx.doi.org/10.1038/sdata.2016.18</title>
<path fill="none" stroke="black" d="M107.92,-371.08C110.04,-431.51 125.13,-628.62 231.18,-734 285.94,-788.42 367.72,-815.7 437.74,-829.36"/>
<polygon fill="black" stroke="black" points="437.5,-832.88 447.98,-831.28 438.79,-826 437.5,-832.88"/>
<text text-anchor="middle" x="304.68" y="-816.8" font-family="Times,serif" font-size="14.00">publishingPrinciples</text>
</g>
<!-- example.org/id/org/x&#45;&gt;Organization -->
<g id="edge9" class="edge">
<title>example.org/id/org/x&#45;&gt;Organization</title>
<path fill="none" stroke="black" d="M116.78,-370.96C134.51,-403.92 176.59,-474.34 231.18,-514 437.85,-664.16 522.42,-656.07 772.95,-706 834.05,-718.18 904.56,-721.39 957.42,-721.71"/>
<polygon fill="black" stroke="black" points="957.73,-725.21 967.74,-721.74 957.75,-718.21 957.73,-725.21"/>
<text text-anchor="middle" x="575.57" y="-704.8" font-family="Times,serif" font-size="14.00">type</text>
</g>
<!-- _ -->
<g id="node12" class="node">
<title>_</title>
<ellipse fill="none" stroke="#558855" cx="575.57" cy="-504" rx="27" ry="18"/>
<text text-anchor="middle" x="575.57" y="-500.3" font-family="Times,serif" font-size="14.00">_</text>
</g>
<!-- example.org/id/org/x&#45;&gt;_ -->
<g id="edge10" class="edge">
<title>example.org/id/org/x&#45;&gt;_</title>
<path fill="none" stroke="black" d="M157.12,-369.02C252.68,-399.92 460.18,-467.01 541.2,-493.21"/>
<polygon fill="black" stroke="black" points="540.3,-496.6 550.89,-496.34 542.45,-489.94 540.3,-496.6"/>
<text text-anchor="middle" x="304.68" y="-440.8" font-family="Times,serif" font-size="14.00">address</text>
</g>
<!-- example.org/id/org/x&#45;&gt;_ -->
<g id="edge14" class="edge">
<title>example.org/id/org/x&#45;&gt;_</title>
<path fill="none" stroke="black" d="M123.09,-371.06C144.67,-394.88 186.23,-436.1 231.18,-456 335.46,-502.17 473.46,-506.29 538.16,-505.32"/>
<polygon fill="black" stroke="black" points="538.34,-508.81 548.26,-505.11 538.19,-501.81 538.34,-508.81"/>
<text text-anchor="middle" x="304.68" y="-498.8" font-family="Times,serif" font-size="14.00">member</text>
</g>
<!-- &quot;Description of org ....&quot; -->
<g id="node13" class="node">
<title>&quot;Description of org ....&quot;</title>
<ellipse fill="none" stroke="black" stroke-width="0" cx="575.57" cy="-299" rx="118.08" ry="18"/>
<text text-anchor="middle" x="575.57" y="-295.3" font-family="Times,serif" font-size="14.00">&quot;Description of org ....&quot;</text>
</g>
<!-- example.org/id/org/x&#45;&gt;&quot;Description of org ....&quot; -->
<g id="edge11" class="edge">
<title>example.org/id/org/x&#45;&gt;&quot;Description of org ....&quot;</title>
<path fill="none" stroke="black" d="M184.31,-340.58C199.81,-338.25 216,-335.94 231.18,-334 308.36,-324.14 395.58,-315.28 462.8,-308.94"/>
<polygon fill="black" stroke="black" points="463.36,-312.4 472.99,-307.98 462.71,-305.43 463.36,-312.4"/>
<text text-anchor="middle" x="304.68" y="-337.8" font-family="Times,serif" font-size="14.00">description</text>
</g>
<!-- &quot;secretariat(at)examp...&quot; -->
<g id="node14" class="node">
<title>&quot;secretariat(at)examp...&quot;</title>
<ellipse fill="none" stroke="black" stroke-width="0" cx="575.57" cy="-245" rx="126.18" ry="18"/>
<text text-anchor="middle" x="575.57" y="-241.3" font-family="Times,serif" font-size="14.00">&quot;secretariat(at)examp...&quot;</text>
</g>
<!-- example.org/id/org/x&#45;&gt;&quot;secretariat(at)examp...&quot; -->
<g id="edge12" class="edge">
<title>example.org/id/org/x&#45;&gt;&quot;secretariat(at)examp...&quot;</title>
<path fill="none" stroke="black" d="M139.75,-335.88C164.19,-323.57 198.98,-307.52 231.18,-298 304.5,-276.32 389.39,-263.12 456.42,-255.31"/>
<polygon fill="black" stroke="black" points="457.06,-258.76 466.59,-254.15 456.26,-251.81 457.06,-258.76"/>
<text text-anchor="middle" x="304.68" y="-301.8" font-family="Times,serif" font-size="14.00">email</text>
</g>
<!-- grid.ac/institutes/grid.475727.4 -->
<g id="node15" class="node">
<title>grid.ac/institutes/grid.475727.4</title>
<ellipse fill="none" stroke="#558855" cx="575.57" cy="-180" rx="159.47" ry="18"/>
<text text-anchor="middle" x="575.57" y="-176.3" font-family="Times,serif" font-size="14.00">grid.ac/institutes/grid.475727.4</text>
</g>
<!-- example.org/id/org/x&#45;&gt;grid.ac/institutes/grid.475727.4 -->
<g id="edge13" class="edge">
<title>example.org/id/org/x&#45;&gt;grid.ac/institutes/grid.475727.4</title>
<path fill="none" stroke="black" d="M123.18,-334.96C144.88,-311.1 186.56,-269.55 231.18,-248 293.91,-217.71 369.3,-200.91 433.44,-191.6"/>
<polygon fill="black" stroke="black" points="434.22,-195.02 443.64,-190.16 433.25,-188.09 434.22,-195.02"/>
<text text-anchor="middle" x="304.68" y="-251.8" font-family="Times,serif" font-size="14.00">identifier</text>
</g>
<!-- &quot;Organization X&quot; -->
<g id="node16" class="node">
<title>&quot;Organization X&quot;</title>
<ellipse fill="none" stroke="black" stroke-width="0" cx="575.57" cy="-126" rx="89.08" ry="18"/>
<text text-anchor="middle" x="575.57" y="-122.3" font-family="Times,serif" font-size="14.00">&quot;Organization X&quot;</text>
</g>
<!-- example.org/id/org/x&#45;&gt;&quot;Organization X&quot; -->
<g id="edge15" class="edge">
<title>example.org/id/org/x&#45;&gt;&quot;Organization X&quot;</title>
<path fill="none" stroke="black" d="M114.99,-334.96C130.62,-299.28 170.64,-219.91 231.18,-182 305.26,-135.61 405.29,-123.77 478.28,-122.25"/>
<polygon fill="black" stroke="black" points="478.45,-125.74 488.39,-122.1 478.34,-118.75 478.45,-125.74"/>
<text text-anchor="middle" x="304.68" y="-185.8" font-family="Times,serif" font-size="14.00">name</text>
</g>
<!-- sdgs.un.org/goals/goal14 -->
<g id="node17" class="node">
<title>sdgs.un.org/goals/goal14</title>
<ellipse fill="none" stroke="#558855" cx="575.57" cy="-353" rx="126.98" ry="18"/>
<text text-anchor="middle" x="575.57" y="-349.3" font-family="Times,serif" font-size="14.00">sdgs.un.org/goals/goal14</text>
</g>
<!-- example.org/id/org/x&#45;&gt;sdgs.un.org/goals/goal14 -->
<g id="edge17" class="edge">
<title>example.org/id/org/x&#45;&gt;sdgs.un.org/goals/goal14</title>
<path fill="none" stroke="black" d="M213.26,-353C279.94,-353 366.73,-353 438.53,-353"/>
<polygon fill="black" stroke="black" points="438.56,-356.5 448.56,-353 438.56,-349.5 438.56,-356.5"/>
<text text-anchor="middle" x="304.68" y="-356.8" font-family="Times,serif" font-size="14.00">publishingPrinciples</text>
</g>
<!-- &quot;( 33 1) 42 68 53 00&quot; -->
<g id="node18" class="node">
<title>&quot;( 33 1) 42 68 53 00&quot;</title>
<ellipse fill="none" stroke="black" stroke-width="0" cx="575.57" cy="-72" rx="108.58" ry="18"/>
<text text-anchor="middle" x="575.57" y="-68.3" font-family="Times,serif" font-size="14.00">&quot;( 33 1) 42 68 53 00&quot;</text>
</g>
<!-- example.org/id/org/x&#45;&gt;&quot;( 33 1) 42 68 53 00&quot; -->
<g id="edge19" class="edge">
<title>example.org/id/org/x&#45;&gt;&quot;( 33 1) 42 68 53 00&quot;</title>
<path fill="none" stroke="black" d="M110.96,-334.75C120.49,-288.74 152.27,-167.81 231.18,-113 303.12,-63.04 404.58,-56.7 478.56,-60.5"/>
<polygon fill="black" stroke="black" points="478.62,-64.01 488.81,-61.1 479.03,-57.02 478.62,-64.01"/>
<text text-anchor="middle" x="304.68" y="-116.8" font-family="Times,serif" font-size="14.00">telephone</text>
</g>
<!-- _&#45;&gt;Organization -->
<g id="edge28" class="edge">
<title>_&#45;&gt;Organization</title>
<path fill="none" stroke="black" d="M592.05,-518.88C623.59,-548.44 698.65,-615 772.95,-653 827.15,-680.72 844.93,-678.06 903.95,-693 925.43,-698.44 949.06,-703.51 970.41,-707.76"/>
<polygon fill="black" stroke="black" points="969.87,-711.22 980.36,-709.71 971.22,-704.35 969.87,-711.22"/>
<text text-anchor="middle" x="829.45" y="-691.8" font-family="Times,serif" font-size="14.00">type</text>
</g>
<!-- &quot;Org A is a potential...&quot; -->
<g id="node26" class="node">
<title>&quot;Org A is a potential...&quot;</title>
<ellipse fill="none" stroke="black" stroke-width="0" cx="1038.49" cy="-504" rx="118.08" ry="18"/>
<text text-anchor="middle" x="1038.49" y="-500.3" font-family="Times,serif" font-size="14.00">&quot;Org A is a potential...&quot;</text>
</g>
<!-- _&#45;&gt;&quot;Org A is a potential...&quot; -->
<g id="edge29" class="edge">
<title>_&#45;&gt;&quot;Org A is a potential...&quot;</title>
<path fill="none" stroke="black" d="M602.67,-504C660.69,-504 803.63,-504 909.87,-504"/>
<polygon fill="black" stroke="black" points="910.04,-507.5 920.04,-504 910.04,-500.5 910.04,-507.5"/>
<text text-anchor="middle" x="829.45" y="-507.8" font-family="Times,serif" font-size="14.00">description</text>
</g>
<!-- &quot;Organization A&quot; -->
<g id="node27" class="node">
<title>&quot;Organization A&quot;</title>
<ellipse fill="none" stroke="black" stroke-width="0" cx="1038.49" cy="-450" rx="89.08" ry="18"/>
<text text-anchor="middle" x="1038.49" y="-446.3" font-family="Times,serif" font-size="14.00">&quot;Organization A&quot;</text>
</g>
<!-- _&#45;&gt;&quot;Organization A&quot; -->
<g id="edge30" class="edge">
<title>_&#45;&gt;&quot;Organization A&quot;</title>
<path fill="none" stroke="black" d="M602.33,-500.98C667.99,-493.29 843.93,-472.68 950.91,-460.14"/>
<polygon fill="black" stroke="black" points="951.52,-463.6 961.04,-458.96 950.7,-456.64 951.52,-463.6"/>
<text text-anchor="middle" x="829.45" y="-483.8" font-family="Times,serif" font-size="14.00">name</text>
</g>
<!-- PostalAddress -->
<g id="node28" class="node">
<title>PostalAddress</title>
<ellipse fill="none" stroke="#558855" cx="1038.49" cy="-396" rx="76.89" ry="18"/>
<text text-anchor="middle" x="1038.49" y="-392.3" font-family="Times,serif" font-size="14.00">PostalAddress</text>
</g>
<!-- _&#45;&gt;PostalAddress -->
<g id="edge31" class="edge">
<title>_&#45;&gt;PostalAddress</title>
<path fill="none" stroke="black" d="M600.62,-496.84C637.51,-485.99 710.38,-465.03 772.95,-450 830.75,-436.11 845.7,-434.89 903.95,-423 925.36,-418.63 948.7,-413.9 969.8,-409.63"/>
<polygon fill="black" stroke="black" points="970.53,-413.06 979.64,-407.65 969.14,-406.2 970.53,-413.06"/>
<text text-anchor="middle" x="829.45" y="-453.8" font-family="Times,serif" font-size="14.00">type</text>
</g>
<!-- &quot;Paris, France&quot; -->
<g id="node29" class="node">
<title>&quot;Paris, France&quot;</title>
<ellipse fill="none" stroke="black" stroke-width="0" cx="1038.49" cy="-666" rx="81.49" ry="18"/>
<text text-anchor="middle" x="1038.49" y="-662.3" font-family="Times,serif" font-size="14.00">&quot;Paris, France&quot;</text>
</g>
<!-- _&#45;&gt;&quot;Paris, France&quot; -->
<g id="edge32" class="edge">
<title>_&#45;&gt;&quot;Paris, France&quot;</title>
<path fill="none" stroke="black" d="M596.7,-515.23C631.73,-534.45 706.48,-574.07 772.95,-600 829.54,-622.08 845.01,-624.3 903.95,-639 923.78,-643.95 945.43,-648.63 965.42,-652.66"/>
<polygon fill="black" stroke="black" points="964.91,-656.13 975.4,-654.65 966.27,-649.26 964.91,-656.13"/>
<text text-anchor="middle" x="829.45" y="-637.8" font-family="Times,serif" font-size="14.00">addressLocality</text>
</g>
<!-- &quot;F&#45;75002&quot; -->
<g id="node30" class="node">
<title>&quot;F&#45;75002&quot;</title>
<ellipse fill="none" stroke="black" stroke-width="0" cx="1038.49" cy="-612" rx="57.69" ry="18"/>
<text text-anchor="middle" x="1038.49" y="-608.3" font-family="Times,serif" font-size="14.00">&quot;F&#45;75002&quot;</text>
</g>
<!-- _&#45;&gt;&quot;F&#45;75002&quot; -->
<g id="edge33" class="edge">
<title>_&#45;&gt;&quot;F&#45;75002&quot;</title>
<path fill="none" stroke="black" d="M600.65,-510.94C637.57,-521.48 710.48,-541.9 772.95,-557 830.82,-570.98 845.66,-572.88 903.95,-585 928.56,-590.12 955.75,-595.64 979.14,-600.35"/>
<polygon fill="black" stroke="black" points="978.76,-603.84 989.25,-602.38 980.14,-596.98 978.76,-603.84"/>
<text text-anchor="middle" x="829.45" y="-584.8" font-family="Times,serif" font-size="14.00">postalCode</text>
</g>
<!-- &quot;38 avenue de l&#39;Opera&quot; -->
<g id="node31" class="node">
<title>&quot;38 avenue de l&#39;Opera&quot;</title>
<ellipse fill="none" stroke="black" stroke-width="0" cx="1038.49" cy="-558" rx="118.08" ry="18"/>
<text text-anchor="middle" x="1038.49" y="-554.3" font-family="Times,serif" font-size="14.00">&quot;38 avenue de l&#39;Opera&quot;</text>
</g>
<!-- _&#45;&gt;&quot;38 avenue de l&#39;Opera&quot; -->
<g id="edge34" class="edge">
<title>_&#45;&gt;&quot;38 avenue de l&#39;Opera&quot;</title>
<path fill="none" stroke="black" d="M602.33,-507.02C664.59,-514.31 826.01,-533.22 933.77,-545.85"/>
<polygon fill="black" stroke="black" points="933.69,-549.36 944.03,-547.05 934.5,-542.41 933.69,-549.36"/>
<text text-anchor="middle" x="829.45" y="-541.8" font-family="Times,serif" font-size="14.00">streetAddress</text>
</g>
<!-- PropertyValue -->
<g id="node19" class="node">
<title>PropertyValue</title>
<ellipse fill="none" stroke="#558855" cx="1038.49" cy="-126" rx="77.19" ry="18"/>
<text text-anchor="middle" x="1038.49" y="-122.3" font-family="Times,serif" font-size="14.00">PropertyValue</text>
</g>
<!-- grid.ac/institutes/grid.475727.4&#45;&gt;PropertyValue -->
<g id="edge20" class="edge">
<title>grid.ac/institutes/grid.475727.4&#45;&gt;PropertyValue</title>
<path fill="none" stroke="black" d="M686.67,-167.1C770.48,-157.28 883.8,-144.01 958.69,-135.23"/>
<polygon fill="black" stroke="black" points="959.47,-138.66 968.99,-134.02 958.65,-131.71 959.47,-138.66"/>
<text text-anchor="middle" x="829.45" y="-159.8" font-family="Times,serif" font-size="14.00">type</text>
</g>
<!-- &quot;UN Department of Eco...&quot; -->
<g id="node20" class="node">
<title>&quot;UN Department of Eco...&quot;</title>
<ellipse fill="none" stroke="black" stroke-width="0" cx="1038.49" cy="-72" rx="134.58" ry="18"/>
<text text-anchor="middle" x="1038.49" y="-68.3" font-family="Times,serif" font-size="14.00">&quot;UN Department of Eco...&quot;</text>
</g>
<!-- grid.ac/institutes/grid.475727.4&#45;&gt;&quot;UN Department of Eco...&quot; -->
<g id="edge21" class="edge">
<title>grid.ac/institutes/grid.475727.4&#45;&gt;&quot;UN Department of Eco...&quot;</title>
<path fill="none" stroke="black" d="M714.74,-171.05C728.95,-166.68 742.66,-160.82 754.95,-153 767.12,-145.26 760.99,-134.06 772.95,-126 822.25,-92.78 845.7,-110.89 903.95,-99 919.88,-95.75 936.88,-92.3 953.23,-88.99"/>
<polygon fill="black" stroke="black" points="954.2,-92.36 963.31,-86.95 952.82,-85.5 954.2,-92.36"/>
<text text-anchor="middle" x="829.45" y="-129.8" font-family="Times,serif" font-size="14.00">description</text>
</g>
<!-- &quot;https//registry.iden...&quot; -->
<g id="node21" class="node">
<title>&quot;https//registry.iden...&quot;</title>
<ellipse fill="none" stroke="black" stroke-width="0" cx="1038.49" cy="-18" rx="116.98" ry="18"/>
<text text-anchor="middle" x="1038.49" y="-14.3" font-family="Times,serif" font-size="14.00">&quot;https//registry.iden...&quot;</text>
</g>
<!-- grid.ac/institutes/grid.475727.4&#45;&gt;&quot;https//registry.iden...&quot; -->
<g id="edge22" class="edge">
<title>grid.ac/institutes/grid.475727.4&#45;&gt;&quot;https//registry.iden...&quot;</title>
<path fill="none" stroke="black" d="M722.96,-172.89C734.64,-167.99 745.54,-161.5 754.95,-153 778.79,-131.47 750.59,-106.06 772.95,-83 815.15,-39.48 845.08,-59.46 903.95,-45 919.83,-41.1 936.88,-37.33 953.3,-33.92"/>
<polygon fill="black" stroke="black" points="954.34,-37.28 963.43,-31.84 952.93,-30.42 954.34,-37.28"/>
<text text-anchor="middle" x="829.45" y="-86.8" font-family="Times,serif" font-size="14.00">propertyID</text>
</g>
<!-- &quot;https//grid.ac/insti...&quot; -->
<g id="node22" class="node">
<title>&quot;https//grid.ac/insti...&quot;</title>
<ellipse fill="none" stroke="black" stroke-width="0" cx="1038.49" cy="-180" rx="114.28" ry="18"/>
<text text-anchor="middle" x="1038.49" y="-176.3" font-family="Times,serif" font-size="14.00">&quot;https//grid.ac/insti...&quot;</text>
</g>
<!-- grid.ac/institutes/grid.475727.4&#45;&gt;&quot;https//grid.ac/insti...&quot; -->
<g id="edge23" class="edge">
<title>grid.ac/institutes/grid.475727.4&#45;&gt;&quot;https//grid.ac/insti...&quot;</title>
<path fill="none" stroke="black" d="M734.87,-180C793.36,-180 858.74,-180 913.73,-180"/>
<polygon fill="black" stroke="black" points="913.87,-183.5 923.87,-180 913.87,-176.5 913.87,-183.5"/>
<text text-anchor="middle" x="829.45" y="-183.8" font-family="Times,serif" font-size="14.00">url</text>
</g>
<!-- sdgs.un.org/goals/goal14&#45;&gt;CreativeWork -->
<g id="edge24" class="edge">
<title>sdgs.un.org/goals/goal14&#45;&gt;CreativeWork</title>
<path fill="none" stroke="black" d="M620.16,-369.85C662.74,-388.86 725.34,-424.2 754.95,-477 788.27,-536.41 730.07,-730.07 772.95,-783 805.73,-823.46 846.54,-779.96 885.95,-814 901.01,-827.01 888.45,-842.51 903.95,-855 918.47,-866.7 936.71,-873.75 955,-877.92"/>
<polygon fill="black" stroke="black" points="954.35,-881.36 964.85,-879.89 955.73,-874.49 954.35,-881.36"/>
<text text-anchor="middle" x="829.45" y="-817.8" font-family="Times,serif" font-size="14.00">type</text>
</g>
<!-- &quot;Conserve and sustain...&quot; -->
<g id="node23" class="node">
<title>&quot;Conserve and sustain...&quot;</title>
<ellipse fill="none" stroke="black" stroke-width="0" cx="1038.49" cy="-288" rx="128.08" ry="18"/>
<text text-anchor="middle" x="1038.49" y="-284.3" font-family="Times,serif" font-size="14.00">&quot;Conserve and sustain...&quot;</text>
</g>
<!-- sdgs.un.org/goals/goal14&#45;&gt;&quot;Conserve and sustain...&quot; -->
<g id="edge25" class="edge">
<title>sdgs.un.org/goals/goal14&#45;&gt;&quot;Conserve and sustain...&quot;</title>
<path fill="none" stroke="black" d="M666.26,-340.35C743.99,-329.39 856.35,-313.54 937.07,-302.16"/>
<polygon fill="black" stroke="black" points="937.83,-305.59 947.25,-300.73 936.86,-298.66 937.83,-305.59"/>
<text text-anchor="middle" x="829.45" y="-327.8" font-family="Times,serif" font-size="14.00">description</text>
</g>
<!-- &quot;Sustainable Developm...&quot; -->
<g id="node24" class="node">
<title>&quot;Sustainable Developm...&quot;</title>
<ellipse fill="none" stroke="black" stroke-width="0" cx="1038.49" cy="-234" rx="131.88" ry="18"/>
<text text-anchor="middle" x="1038.49" y="-230.3" font-family="Times,serif" font-size="14.00">&quot;Sustainable Developm...&quot;</text>
</g>
<!-- sdgs.un.org/goals/goal14&#45;&gt;&quot;Sustainable Developm...&quot; -->
<g id="edge26" class="edge">
<title>sdgs.un.org/goals/goal14&#45;&gt;&quot;Sustainable Developm...&quot;</title>
<path fill="none" stroke="black" d="M700.53,-349.73C719.98,-345 738.92,-337.51 754.95,-326 769.16,-315.79 759.14,-301.73 772.95,-291 820.12,-254.36 845.56,-273.59 903.95,-261 919.65,-257.62 936.42,-254.13 952.58,-250.83"/>
<polygon fill="black" stroke="black" points="953.45,-254.22 962.55,-248.8 952.06,-247.36 953.45,-254.22"/>
<text text-anchor="middle" x="829.45" y="-294.8" font-family="Times,serif" font-size="14.00">name</text>
</g>
<!-- &quot;https//sdgs.un.org/g...&quot; -->
<g id="node25" class="node">
<title>&quot;https//sdgs.un.org/g...&quot;</title>
<ellipse fill="none" stroke="black" stroke-width="0" cx="1038.49" cy="-342" rx="122.38" ry="18"/>
<text text-anchor="middle" x="1038.49" y="-338.3" font-family="Times,serif" font-size="14.00">&quot;https//sdgs.un.org/g...&quot;</text>
</g>
<!-- sdgs.un.org/goals/goal14&#45;&gt;&quot;https//sdgs.un.org/g...&quot; -->
<g id="edge27" class="edge">
<title>sdgs.un.org/goals/goal14&#45;&gt;&quot;https//sdgs.un.org/g...&quot;</title>
<path fill="none" stroke="black" d="M700.69,-350.04C764.6,-348.51 842.48,-346.65 907.24,-345.11"/>
<polygon fill="black" stroke="black" points="907.61,-348.6 917.52,-344.86 907.44,-341.6 907.61,-348.6"/>
<text text-anchor="middle" x="829.45" y="-351.8" font-family="Times,serif" font-size="14.00">url</text>
</g>
</g>
</svg>
