<?xml version="1.0" encoding="UTF-8" standalone="no"?>
<!DOCTYPE svg PUBLIC "-//W3C//DTD SVG 1.1//EN"
 "http://www.w3.org/Graphics/SVG/1.1/DTD/svg11.dtd">
<!-- Generated by graphviz version 5.0.0 (0)
 -->
<!-- Pages: 1 -->
<svg width="1070pt" height="206pt"
 viewBox="0.00 0.00 1069.73 206.00" xmlns="http://www.w3.org/2000/svg" xmlns:xlink="http://www.w3.org/1999/xlink">
<g id="graph0" class="graph" transform="scale(1 1) rotate(0) translate(4 202)">
<polygon fill="white" stroke="transparent" points="-4,4 -4,-202 1065.73,-202 1065.73,4 -4,4"/>
<!-- CreativeWork -->
<g id="node1" class="node">
<title>CreativeWork</title>
<ellipse fill="none" stroke="#558855" cx="927.84" cy="-180" rx="74.19" ry="18"/>
<text text-anchor="middle" x="927.84" y="-176.3" font-family="Times,serif" font-size="14.00">CreativeWork</text>
</g>
<!-- purl.unep.org/sdg/SDGIO_00020173 -->
<g id="node2" class="node">
<title>purl.unep.org/sdg/SDGIO_00020173</title>
<ellipse fill="none" stroke="#558855" cx="497.57" cy="-99" rx="179.27" ry="18"/>
<text text-anchor="middle" x="497.57" y="-95.3" font-family="Times,serif" font-size="14.00">purl.unep.org/sdg/SDGIO_00020173</text>
</g>
<!-- purl.unep.org/sdg/SDGIO_00020173&#45;&gt;CreativeWork -->
<g id="edge1" class="edge">
<title>purl.unep.org/sdg/SDGIO_00020173&#45;&gt;CreativeWork</title>
<path fill="none" stroke="black" d="M582.67,-114.91C663.4,-130.18 783.82,-152.95 858.72,-167.12"/>
<polygon fill="black" stroke="black" points="858.5,-170.64 868.98,-169.06 859.81,-163.76 858.5,-170.64"/>
<text text-anchor="middle" x="735.45" y="-152.8" font-family="Times,serif" font-size="14.00">type</text>
</g>
<!-- &quot;Number of countries ...&quot; -->
<g id="node3" class="node">
<title>&quot;Number of countries ...&quot;</title>
<ellipse fill="none" stroke="black" stroke-width="0" cx="927.84" cy="-126" rx="127.28" ry="18"/>
<text text-anchor="middle" x="927.84" y="-122.3" font-family="Times,serif" font-size="14.00">&quot;Number of countries ...&quot;</text>
</g>
<!-- purl.unep.org/sdg/SDGIO_00020173&#45;&gt;&quot;Number of countries ...&quot; -->
<g id="edge2" class="edge">
<title>purl.unep.org/sdg/SDGIO_00020173&#45;&gt;&quot;Number of countries ...&quot;</title>
<path fill="none" stroke="black" d="M649.86,-108.54C699.3,-111.66 753.65,-115.08 801.01,-118.07"/>
<polygon fill="black" stroke="black" points="800.8,-121.56 811,-118.7 801.24,-114.58 800.8,-121.56"/>
<text text-anchor="middle" x="735.45" y="-118.8" font-family="Times,serif" font-size="14.00">description</text>
</g>
<!-- &quot;UNSD SDG indicator c...&quot; -->
<g id="node4" class="node">
<title>&quot;UNSD SDG indicator c...&quot;</title>
<ellipse fill="none" stroke="black" stroke-width="0" cx="927.84" cy="-72" rx="133.78" ry="18"/>
<text text-anchor="middle" x="927.84" y="-68.3" font-family="Times,serif" font-size="14.00">&quot;UNSD SDG indicator c...&quot;</text>
</g>
<!-- purl.unep.org/sdg/SDGIO_00020173&#45;&gt;&quot;UNSD SDG indicator c...&quot; -->
<g id="edge3" class="edge">
<title>purl.unep.org/sdg/SDGIO_00020173&#45;&gt;&quot;UNSD SDG indicator c...&quot;</title>
<path fill="none" stroke="black" d="M649.86,-89.46C697.63,-86.45 749.98,-83.15 796.18,-80.24"/>
<polygon fill="black" stroke="black" points="796.48,-83.73 806.24,-79.6 796.04,-76.74 796.48,-83.73"/>
<text text-anchor="middle" x="735.45" y="-89.8" font-family="Times,serif" font-size="14.00">name</text>
</g>
<!-- &quot;http//www.ontobee.or...&quot; -->
<g id="node5" class="node">
<title>&quot;http//www.ontobee.or...&quot;</title>
<ellipse fill="none" stroke="black" stroke-width="0" cx="927.84" cy="-18" rx="128.08" ry="18"/>
<text text-anchor="middle" x="927.84" y="-14.3" font-family="Times,serif" font-size="14.00">&quot;http//www.ontobee.or...&quot;</text>
</g>
<!-- purl.unep.org/sdg/SDGIO_00020173&#45;&gt;&quot;http//www.ontobee.or...&quot; -->
<g id="edge4" class="edge">
<title>purl.unep.org/sdg/SDGIO_00020173&#45;&gt;&quot;http//www.ontobee.or...&quot;</title>
<path fill="none" stroke="black" d="M620.16,-85.83C639.4,-82.25 658.88,-77.73 676.95,-72 685.48,-69.3 686.48,-65.88 694.95,-63 736.02,-49.04 782.74,-38.93 823.43,-31.88"/>
<polygon fill="black" stroke="black" points="824.09,-35.32 833.37,-30.2 822.92,-28.42 824.09,-35.32"/>
<text text-anchor="middle" x="735.45" y="-66.8" font-family="Times,serif" font-size="14.00">url</text>
</g>
<!-- Organization -->
<g id="node6" class="node">
<title>Organization</title>
<ellipse fill="none" stroke="#558855" cx="497.57" cy="-45" rx="70.69" ry="18"/>
<text text-anchor="middle" x="497.57" y="-41.3" font-family="Times,serif" font-size="14.00">Organization</text>
</g>
<!-- example.org/id/org/x -->
<g id="node7" class="node">
<title>example.org/id/org/x</title>
<ellipse fill="none" stroke="black" cx="106.59" cy="-64" rx="106.68" ry="18"/>
<text text-anchor="middle" x="106.59" y="-60.3" font-family="Times,serif" font-size="14.00">example.org/id/org/x</text>
</g>
<!-- example.org/id/org/x&#45;&gt;purl.unep.org/sdg/SDGIO_00020173 -->
<g id="edge6" class="edge">
<title>example.org/id/org/x&#45;&gt;purl.unep.org/sdg/SDGIO_00020173</title>
<path fill="none" stroke="black" d="M201.25,-72.43C246.78,-76.52 302.48,-81.54 353.2,-86.1"/>
<polygon fill="black" stroke="black" points="353,-89.6 363.27,-87.01 353.63,-82.62 353,-89.6"/>
<text text-anchor="middle" x="265.68" y="-83.8" font-family="Times,serif" font-size="14.00">subjectOf</text>
</g>
<!-- example.org/id/org/x&#45;&gt;Organization -->
<g id="edge5" class="edge">
<title>example.org/id/org/x&#45;&gt;Organization</title>
<path fill="none" stroke="black" d="M202.03,-55.9C211.87,-55.19 221.72,-54.54 231.18,-54 293.31,-50.43 363.72,-48.13 416.39,-46.74"/>
<polygon fill="black" stroke="black" points="416.77,-50.23 426.68,-46.48 416.59,-43.24 416.77,-50.23"/>
<text text-anchor="middle" x="265.68" y="-57.8" font-family="Times,serif" font-size="14.00">type</text>
</g>
</g>
</svg>
