<?xml version="1.0" encoding="UTF-8" standalone="no"?>
<!DOCTYPE svg PUBLIC "-//W3C//DTD SVG 1.1//EN"
 "http://www.w3.org/Graphics/SVG/1.1/DTD/svg11.dtd">
<!-- Generated by graphviz version 5.0.0 (0)
 -->
<!-- Pages: 1 -->
<svg width="927pt" height="314pt"
 viewBox="0.00 0.00 926.94 314.00" xmlns="http://www.w3.org/2000/svg" xmlns:xlink="http://www.w3.org/1999/xlink">
<g id="graph0" class="graph" transform="scale(1 1) rotate(0) translate(4 310)">
<polygon fill="white" stroke="transparent" points="-4,4 -4,-310 922.94,-310 922.94,4 -4,4"/>
<!-- CreativeWork -->
<g id="node1" class="node">
<title>CreativeWork</title>
<ellipse fill="none" stroke="#558855" cx="425.07" cy="-212" rx="74.19" ry="18"/>
<text text-anchor="middle" x="425.07" y="-208.3" font-family="Times,serif" font-size="14.00">CreativeWork</text>
</g>
<!-- example.org/id/XYZ -->
<g id="node2" class="node">
<title>example.org/id/XYZ</title>
<ellipse fill="none" stroke="black" cx="101.39" cy="-158" rx="101.28" ry="18"/>
<text text-anchor="middle" x="101.39" y="-154.3" font-family="Times,serif" font-size="14.00">example.org/id/XYZ</text>
</g>
<!-- example.org/id/XYZ&#45;&gt;CreativeWork -->
<g id="edge1" class="edge">
<title>example.org/id/XYZ&#45;&gt;CreativeWork</title>
<path fill="none" stroke="black" d="M175.79,-170.32C229.18,-179.28 301.05,-191.35 353.72,-200.19"/>
<polygon fill="black" stroke="black" points="353.21,-203.65 363.65,-201.86 354.37,-196.75 353.21,-203.65"/>
<text text-anchor="middle" x="254.78" y="-191.8" font-family="Times,serif" font-size="14.00">type</text>
</g>
<!-- www.repositoryB.org -->
<g id="node3" class="node">
<title>www.repositoryB.org</title>
<ellipse fill="none" stroke="#558855" cx="425.07" cy="-158" rx="109.38" ry="18"/>
<text text-anchor="middle" x="425.07" y="-154.3" font-family="Times,serif" font-size="14.00">www.repositoryB.org</text>
</g>
<!-- example.org/id/XYZ&#45;&gt;www.repositoryB.org -->
<g id="edge2" class="edge">
<title>example.org/id/XYZ&#45;&gt;www.repositoryB.org</title>
<path fill="none" stroke="black" d="M202.85,-158C235.34,-158 271.68,-158 305.37,-158"/>
<polygon fill="black" stroke="black" points="305.73,-161.5 315.73,-158 305.73,-154.5 305.73,-161.5"/>
<text text-anchor="middle" x="254.78" y="-161.8" font-family="Times,serif" font-size="14.00">provider</text>
</g>
<!-- www.publishingrus.org -->
<g id="node4" class="node">
<title>www.publishingrus.org</title>
<ellipse fill="none" stroke="#558855" cx="425.07" cy="-61" rx="118.08" ry="18"/>
<text text-anchor="middle" x="425.07" y="-57.3" font-family="Times,serif" font-size="14.00">www.publishingrus.org</text>
</g>
<!-- example.org/id/XYZ&#45;&gt;www.publishingrus.org -->
<g id="edge3" class="edge">
<title>example.org/id/XYZ&#45;&gt;www.publishingrus.org</title>
<path fill="none" stroke="black" d="M153.72,-142.52C210.01,-125.55 300.38,-98.3 360.96,-80.03"/>
<polygon fill="black" stroke="black" points="362.22,-83.31 370.79,-77.07 360.2,-76.6 362.22,-83.31"/>
<text text-anchor="middle" x="254.78" y="-124.8" font-family="Times,serif" font-size="14.00">publisher</text>
</g>
<!-- Organization -->
<g id="node5" class="node">
<title>Organization</title>
<ellipse fill="none" stroke="#558855" cx="787.65" cy="-72" rx="70.69" ry="18"/>
<text text-anchor="middle" x="787.65" y="-68.3" font-family="Times,serif" font-size="14.00">Organization</text>
</g>
<!-- www.repositoryB.org&#45;&gt;Organization -->
<g id="edge6" class="edge">
<title>www.repositoryB.org&#45;&gt;Organization</title>
<path fill="none" stroke="black" d="M480.91,-142.48C505.46,-135.66 534.8,-127.7 561.36,-121 603.38,-110.39 614.03,-108.29 656.36,-99 677.59,-94.34 700.82,-89.46 721.71,-85.15"/>
<polygon fill="black" stroke="black" points="722.66,-88.53 731.75,-83.08 721.25,-81.67 722.66,-88.53"/>
<text text-anchor="middle" x="599.86" y="-124.8" font-family="Times,serif" font-size="14.00">type</text>
</g>
<!-- &quot;Sample Data Reposito...&quot; -->
<g id="node7" class="node">
<title>&quot;Sample Data Reposito...&quot;</title>
<ellipse fill="none" stroke="black" stroke-width="0" cx="787.65" cy="-180" rx="131.08" ry="18"/>
<text text-anchor="middle" x="787.65" y="-176.3" font-family="Times,serif" font-size="14.00">&quot;Sample Data Reposito...&quot;</text>
</g>
<!-- www.repositoryB.org&#45;&gt;&quot;Sample Data Reposito...&quot; -->
<g id="edge7" class="edge">
<title>www.repositoryB.org&#45;&gt;&quot;Sample Data Reposito...&quot;</title>
<path fill="none" stroke="black" d="M527.95,-164.22C568.15,-166.67 614.81,-169.52 657.34,-172.11"/>
<polygon fill="black" stroke="black" points="657.29,-175.61 667.49,-172.73 657.72,-168.63 657.29,-175.61"/>
<text text-anchor="middle" x="599.86" y="-173.8" font-family="Times,serif" font-size="14.00">legalName</text>
</g>
<!-- &quot;SDRO&quot; -->
<g id="node8" class="node">
<title>&quot;SDRO&quot;</title>
<ellipse fill="none" stroke="black" stroke-width="0" cx="787.65" cy="-126" rx="47.39" ry="18"/>
<text text-anchor="middle" x="787.65" y="-122.3" font-family="Times,serif" font-size="14.00">&quot;SDRO&quot;</text>
</g>
<!-- www.repositoryB.org&#45;&gt;&quot;SDRO&quot; -->
<g id="edge8" class="edge">
<title>www.repositoryB.org&#45;&gt;&quot;SDRO&quot;</title>
<path fill="none" stroke="black" d="M521.75,-149.51C588.53,-143.58 675.34,-135.88 731.04,-130.93"/>
<polygon fill="black" stroke="black" points="731.42,-134.42 741.07,-130.05 730.8,-127.44 731.42,-134.42"/>
<text text-anchor="middle" x="599.86" y="-148.8" font-family="Times,serif" font-size="14.00">name</text>
</g>
<!-- &quot;http//www.re3data.or...&quot; -->
<g id="node9" class="node">
<title>&quot;http//www.re3data.or...&quot;</title>
<ellipse fill="none" stroke="black" stroke-width="0" cx="787.65" cy="-288" rx="126.98" ry="18"/>
<text text-anchor="middle" x="787.65" y="-284.3" font-family="Times,serif" font-size="14.00">&quot;http//www.re3data.or...&quot;</text>
</g>
<!-- www.repositoryB.org&#45;&gt;&quot;http//www.re3data.or...&quot; -->
<g id="edge9" class="edge">
<title>www.repositoryB.org&#45;&gt;&quot;http//www.re3data.or...&quot;</title>
<path fill="none" stroke="black" d="M513.48,-168.69C524.27,-172.64 534.57,-177.93 543.36,-185 557.92,-196.71 547.74,-210.2 561.36,-223 594.5,-254.15 612.82,-247.89 656.36,-261 669.62,-264.99 683.82,-268.6 697.78,-271.77"/>
<polygon fill="black" stroke="black" points="697.37,-275.27 707.89,-274.01 698.88,-268.43 697.37,-275.27"/>
<text text-anchor="middle" x="599.86" y="-258.8" font-family="Times,serif" font-size="14.00">sameAs</text>
</g>
<!-- &quot;https//www.sample&#45;da...&quot; -->
<g id="node10" class="node">
<title>&quot;https//www.sample&#45;da...&quot;</title>
<ellipse fill="none" stroke="black" stroke-width="0" cx="787.65" cy="-234" rx="131.08" ry="18"/>
<text text-anchor="middle" x="787.65" y="-230.3" font-family="Times,serif" font-size="14.00">&quot;https//www.sample&#45;da...&quot;</text>
</g>
<!-- www.repositoryB.org&#45;&gt;&quot;https//www.sample&#45;da...&quot; -->
<g id="edge10" class="edge">
<title>www.repositoryB.org&#45;&gt;&quot;https//www.sample&#45;da...&quot;</title>
<path fill="none" stroke="black" d="M489.56,-172.63C521.05,-179.87 553.94,-187.41 561.36,-189 607.3,-198.85 658.67,-209.16 700.74,-217.43"/>
<polygon fill="black" stroke="black" points="700.19,-220.89 710.67,-219.38 701.53,-214.02 700.19,-220.89"/>
<text text-anchor="middle" x="599.86" y="-207.8" font-family="Times,serif" font-size="14.00">url</text>
</g>
<!-- www.publishingrus.org&#45;&gt;Organization -->
<g id="edge4" class="edge">
<title>www.publishingrus.org&#45;&gt;Organization</title>
<path fill="none" stroke="black" d="M543.45,-60.24C574.33,-60.4 607.61,-60.89 638.36,-62 661.61,-62.84 686.87,-64.33 709.85,-65.9"/>
<polygon fill="black" stroke="black" points="709.67,-69.4 719.89,-66.61 710.16,-62.41 709.67,-69.4"/>
<text text-anchor="middle" x="599.86" y="-65.8" font-family="Times,serif" font-size="14.00">type</text>
</g>
<!-- &quot;Some Institute&quot; -->
<g id="node6" class="node">
<title>&quot;Some Institute&quot;</title>
<ellipse fill="none" stroke="black" stroke-width="0" cx="787.65" cy="-18" rx="88.28" ry="18"/>
<text text-anchor="middle" x="787.65" y="-14.3" font-family="Times,serif" font-size="14.00">&quot;Some Institute&quot;</text>
</g>
<!-- www.publishingrus.org&#45;&gt;&quot;Some Institute&quot; -->
<g id="edge5" class="edge">
<title>www.publishingrus.org&#45;&gt;&quot;Some Institute&quot;</title>
<path fill="none" stroke="black" d="M508.63,-48.19C526.02,-45.66 544.28,-43.13 561.36,-41 605.78,-35.45 655.26,-30.29 696.5,-26.27"/>
<polygon fill="black" stroke="black" points="696.91,-29.74 706.53,-25.3 696.24,-22.78 696.91,-29.74"/>
<text text-anchor="middle" x="599.86" y="-44.8" font-family="Times,serif" font-size="14.00">legalName</text>
</g>
</g>
</svg>
