<?xml version="1.0" encoding="UTF-8" standalone="no"?>
<!DOCTYPE svg PUBLIC "-//W3C//DTD SVG 1.1//EN"
 "http://www.w3.org/Graphics/SVG/1.1/DTD/svg11.dtd">
<!-- Generated by graphviz version 2.43.0 (0)
 -->
<!-- Title: %3 Pages: 1 -->
<svg width="1132pt" height="795pt"
 viewBox="0.00 0.00 1131.92 795.00" xmlns="http://www.w3.org/2000/svg" xmlns:xlink="http://www.w3.org/1999/xlink">
<g id="graph0" class="graph" transform="scale(1 1) rotate(0) translate(4 791)">
<title>%3</title>
<polygon fill="white" stroke="transparent" points="-4,4 -4,-791 1127.92,-791 1127.92,4 -4,4"/>
<!-- Organization -->
<g id="node1" class="node">
<title>Organization</title>
<ellipse fill="none" stroke="#558855" cx="989.39" cy="-747" rx="70.69" ry="18"/>
<text text-anchor="middle" x="989.39" y="-743.3" font-family="Times,serif" font-size="14.00">Organization</text>
</g>
<!-- example.org/id/org/1 -->
<g id="node2" class="node">
<title>example.org/id/org/1</title>
<ellipse fill="none" stroke="#558855" cx="546.61" cy="-659" rx="107.48" ry="18"/>
<text text-anchor="middle" x="546.61" y="-655.3" font-family="Times,serif" font-size="14.00">example.org/id/org/1</text>
</g>
<!-- example.org/id/org/1&#45;&gt;Organization -->
<g id="edge1" class="edge">
<title>example.org/id/org/1&#45;&gt;Organization</title>
<path fill="none" stroke="black" d="M614.96,-672.88C647.79,-679.61 687.87,-687.79 723.85,-695 791.54,-708.57 869.04,-723.76 922.58,-734.21"/>
<polygon fill="black" stroke="black" points="922.14,-737.69 932.62,-736.16 923.48,-730.81 922.14,-737.69"/>
<text text-anchor="middle" x="780.35" y="-719.8" font-family="Times,serif" font-size="14.00">type</text>
</g>
<!-- &quot;Org A is a potential...&quot; -->
<g id="node3" class="node">
<title>&quot;Org A is a potential...&quot;</title>
<ellipse fill="none" stroke="black" stroke-width="0" cx="989.39" cy="-693" rx="118.08" ry="18"/>
<text text-anchor="middle" x="989.39" y="-689.3" font-family="Times,serif" font-size="14.00">&quot;Org A is a potential...&quot;</text>
</g>
<!-- example.org/id/org/1&#45;&gt;&quot;Org A is a potential...&quot; -->
<g id="edge2" class="edge">
<title>example.org/id/org/1&#45;&gt;&quot;Org A is a potential...&quot;</title>
<path fill="none" stroke="black" d="M646.03,-665.82C701.99,-669.79 773.36,-674.97 836.85,-680 849.64,-681.01 863.04,-682.11 876.36,-683.22"/>
<polygon fill="black" stroke="black" points="876.25,-686.73 886.51,-684.08 876.84,-679.75 876.25,-686.73"/>
<text text-anchor="middle" x="780.35" y="-683.8" font-family="Times,serif" font-size="14.00">description</text>
</g>
<!-- &quot;Organization A&quot; -->
<g id="node4" class="node">
<title>&quot;Organization A&quot;</title>
<ellipse fill="none" stroke="black" stroke-width="0" cx="989.39" cy="-639" rx="89.08" ry="18"/>
<text text-anchor="middle" x="989.39" y="-635.3" font-family="Times,serif" font-size="14.00">&quot;Organization A&quot;</text>
</g>
<!-- example.org/id/org/1&#45;&gt;&quot;Organization A&quot; -->
<g id="edge3" class="edge">
<title>example.org/id/org/1&#45;&gt;&quot;Organization A&quot;</title>
<path fill="none" stroke="black" d="M636.25,-648.97C664.24,-646.2 695.3,-643.54 723.85,-642 778.88,-639.04 840.43,-638.19 890.31,-638.13"/>
<polygon fill="black" stroke="black" points="890.45,-641.63 900.45,-638.13 890.45,-634.63 890.45,-641.63"/>
<text text-anchor="middle" x="780.35" y="-645.8" font-family="Times,serif" font-size="14.00">name</text>
</g>
<!-- PropertyValue -->
<g id="node5" class="node">
<title>PropertyValue</title>
<ellipse fill="none" stroke="#558855" cx="989.39" cy="-585" rx="77.19" ry="18"/>
<text text-anchor="middle" x="989.39" y="-581.3" font-family="Times,serif" font-size="14.00">PropertyValue</text>
</g>
<!-- grid.ac/institutes/grid.475727.4 -->
<g id="node6" class="node">
<title>grid.ac/institutes/grid.475727.4</title>
<ellipse fill="none" stroke="#558855" cx="546.61" cy="-477" rx="159.47" ry="18"/>
<text text-anchor="middle" x="546.61" y="-473.3" font-family="Times,serif" font-size="14.00">grid.ac/institutes/grid.475727.4</text>
</g>
<!-- grid.ac/institutes/grid.475727.4&#45;&gt;PropertyValue -->
<g id="edge4" class="edge">
<title>grid.ac/institutes/grid.475727.4&#45;&gt;PropertyValue</title>
<path fill="none" stroke="black" d="M600.12,-494.02C635,-505.02 681.92,-519.23 723.85,-530 781.51,-544.81 796.56,-545.88 854.85,-558 876.14,-562.43 899.36,-567.16 920.38,-571.4"/>
<polygon fill="black" stroke="black" points="919.69,-574.83 930.18,-573.38 921.07,-567.97 919.69,-574.83"/>
<text text-anchor="middle" x="780.35" y="-557.8" font-family="Times,serif" font-size="14.00">type</text>
</g>
<!-- &quot;UN Department of Eco...&quot; -->
<g id="node7" class="node">
<title>&quot;UN Department of Eco...&quot;</title>
<ellipse fill="none" stroke="black" stroke-width="0" cx="989.39" cy="-531" rx="134.58" ry="18"/>
<text text-anchor="middle" x="989.39" y="-527.3" font-family="Times,serif" font-size="14.00">&quot;UN Department of Eco...&quot;</text>
</g>
<!-- grid.ac/institutes/grid.475727.4&#45;&gt;&quot;UN Department of Eco...&quot; -->
<g id="edge5" class="edge">
<title>grid.ac/institutes/grid.475727.4&#45;&gt;&quot;UN Department of Eco...&quot;</title>
<path fill="none" stroke="black" d="M655.16,-490.18C723.29,-498.52 811.13,-509.28 879.51,-517.66"/>
<polygon fill="black" stroke="black" points="879.11,-521.14 889.46,-518.88 879.96,-514.19 879.11,-521.14"/>
<text text-anchor="middle" x="780.35" y="-514.8" font-family="Times,serif" font-size="14.00">description</text>
</g>
<!-- &quot;https//registry.iden...&quot; -->
<g id="node8" class="node">
<title>&quot;https//registry.iden...&quot;</title>
<ellipse fill="none" stroke="black" stroke-width="0" cx="989.39" cy="-477" rx="116.98" ry="18"/>
<text text-anchor="middle" x="989.39" y="-473.3" font-family="Times,serif" font-size="14.00">&quot;https//registry.iden...&quot;</text>
</g>
<!-- grid.ac/institutes/grid.475727.4&#45;&gt;&quot;https//registry.iden...&quot; -->
<g id="edge6" class="edge">
<title>grid.ac/institutes/grid.475727.4&#45;&gt;&quot;https//registry.iden...&quot;</title>
<path fill="none" stroke="black" d="M706.12,-477C757.39,-477 813.52,-477 862.12,-477"/>
<polygon fill="black" stroke="black" points="862.38,-480.5 872.38,-477 862.38,-473.5 862.38,-480.5"/>
<text text-anchor="middle" x="780.35" y="-480.8" font-family="Times,serif" font-size="14.00">propertyID</text>
</g>
<!-- &quot;https//grid.ac/insti...&quot; -->
<g id="node9" class="node">
<title>&quot;https//grid.ac/insti...&quot;</title>
<ellipse fill="none" stroke="black" stroke-width="0" cx="989.39" cy="-423" rx="114.28" ry="18"/>
<text text-anchor="middle" x="989.39" y="-419.3" font-family="Times,serif" font-size="14.00">&quot;https//grid.ac/insti...&quot;</text>
</g>
<!-- grid.ac/institutes/grid.475727.4&#45;&gt;&quot;https//grid.ac/insti...&quot; -->
<g id="edge7" class="edge">
<title>grid.ac/institutes/grid.475727.4&#45;&gt;&quot;https//grid.ac/insti...&quot;</title>
<path fill="none" stroke="black" d="M655.16,-463.82C726.32,-455.11 818.99,-443.75 888.54,-435.23"/>
<polygon fill="black" stroke="black" points="889.12,-438.69 898.62,-434 888.27,-431.74 889.12,-438.69"/>
<text text-anchor="middle" x="780.35" y="-457.8" font-family="Times,serif" font-size="14.00">url</text>
</g>
<!-- index.example.org/id/org/x -->
<g id="node10" class="node">
<title>index.example.org/id/org/x</title>
<ellipse fill="none" stroke="black" cx="135.19" cy="-261" rx="135.38" ry="18"/>
<text text-anchor="middle" x="135.19" y="-257.3" font-family="Times,serif" font-size="14.00">index.example.org/id/org/x</text>
</g>
<!-- index.example.org/id/org/x&#45;&gt;Organization -->
<g id="edge8" class="edge">
<title>index.example.org/id/org/x&#45;&gt;Organization</title>
<path fill="none" stroke="black" d="M140.75,-279C158.73,-345.96 231.54,-582.14 387.38,-686 552.95,-796.35 803.2,-776.64 921.68,-759.04"/>
<polygon fill="black" stroke="black" points="922.34,-762.48 931.7,-757.51 921.29,-755.56 922.34,-762.48"/>
<text text-anchor="middle" x="546.61" y="-775.8" font-family="Times,serif" font-size="14.00">type</text>
</g>
<!-- index.example.org/id/org/x&#45;&gt;example.org/id/org/1 -->
<g id="edge13" class="edge">
<title>index.example.org/id/org/x&#45;&gt;example.org/id/org/1</title>
<path fill="none" stroke="black" d="M154.58,-278.87C220.31,-342.78 443.82,-560.05 519.96,-634.07"/>
<polygon fill="black" stroke="black" points="517.67,-636.71 527.28,-641.17 522.54,-631.69 517.67,-636.71"/>
<text text-anchor="middle" x="328.88" y="-486.8" font-family="Times,serif" font-size="14.00">member</text>
</g>
<!-- index.example.org/id/org/x&#45;&gt;grid.ac/institutes/grid.475727.4 -->
<g id="edge12" class="edge">
<title>index.example.org/id/org/x&#45;&gt;grid.ac/institutes/grid.475727.4</title>
<path fill="none" stroke="black" d="M169.35,-278.49C243.22,-317.47 421.25,-411.39 503.12,-454.58"/>
<polygon fill="black" stroke="black" points="501.67,-457.77 512.14,-459.34 504.93,-451.58 501.67,-457.77"/>
<text text-anchor="middle" x="328.88" y="-384.8" font-family="Times,serif" font-size="14.00">identifier</text>
</g>
<!-- _ -->
<g id="node11" class="node">
<title>_</title>
<ellipse fill="none" stroke="#558855" cx="546.61" cy="-342" rx="27" ry="18"/>
<text text-anchor="middle" x="546.61" y="-338.3" font-family="Times,serif" font-size="14.00">_</text>
</g>
<!-- index.example.org/id/org/x&#45;&gt;_ -->
<g id="edge9" class="edge">
<title>index.example.org/id/org/x&#45;&gt;_</title>
<path fill="none" stroke="black" d="M204.31,-276.53C230.56,-282.43 260.84,-289.14 288.38,-295 332.28,-304.34 343.25,-306.78 387.38,-315 429.34,-322.82 477.74,-330.95 509.85,-336.22"/>
<polygon fill="black" stroke="black" points="509.65,-339.73 520.08,-337.89 510.78,-332.82 509.65,-339.73"/>
<text text-anchor="middle" x="328.88" y="-314.8" font-family="Times,serif" font-size="14.00">address</text>
</g>
<!-- &quot;Description of org ....&quot; -->
<g id="node12" class="node">
<title>&quot;Description of org ....&quot;</title>
<ellipse fill="none" stroke="black" stroke-width="0" cx="546.61" cy="-288" rx="118.08" ry="18"/>
<text text-anchor="middle" x="546.61" y="-284.3" font-family="Times,serif" font-size="14.00">&quot;Description of org ....&quot;</text>
</g>
<!-- index.example.org/id/org/x&#45;&gt;&quot;Description of org ....&quot; -->
<g id="edge10" class="edge">
<title>index.example.org/id/org/x&#45;&gt;&quot;Description of org ....&quot;</title>
<path fill="none" stroke="black" d="M256.54,-268.94C310.51,-272.5 373.95,-276.68 427.64,-280.22"/>
<polygon fill="black" stroke="black" points="427.68,-283.73 437.89,-280.9 428.14,-276.75 427.68,-283.73"/>
<text text-anchor="middle" x="328.88" y="-279.8" font-family="Times,serif" font-size="14.00">description</text>
</g>
<!-- &quot;secretariat(at)examp...&quot; -->
<g id="node13" class="node">
<title>&quot;secretariat(at)examp...&quot;</title>
<ellipse fill="none" stroke="black" stroke-width="0" cx="546.61" cy="-234" rx="126.18" ry="18"/>
<text text-anchor="middle" x="546.61" y="-230.3" font-family="Times,serif" font-size="14.00">&quot;secretariat(at)examp...&quot;</text>
</g>
<!-- index.example.org/id/org/x&#45;&gt;&quot;secretariat(at)examp...&quot; -->
<g id="edge11" class="edge">
<title>index.example.org/id/org/x&#45;&gt;&quot;secretariat(at)examp...&quot;</title>
<path fill="none" stroke="black" d="M256.54,-253.06C308.51,-249.64 369.28,-245.63 421.65,-242.18"/>
<polygon fill="black" stroke="black" points="421.92,-245.67 431.66,-241.51 421.45,-238.68 421.92,-245.67"/>
<text text-anchor="middle" x="328.88" y="-253.8" font-family="Times,serif" font-size="14.00">email</text>
</g>
<!-- orcid.org/0000&#45;0002&#45;2257&#45;9127 -->
<g id="node14" class="node">
<title>orcid.org/0000&#45;0002&#45;2257&#45;9127</title>
<ellipse fill="none" stroke="#558855" cx="546.61" cy="-180" rx="157.87" ry="18"/>
<text text-anchor="middle" x="546.61" y="-176.3" font-family="Times,serif" font-size="14.00">orcid.org/0000&#45;0002&#45;2257&#45;9127</text>
</g>
<!-- index.example.org/id/org/x&#45;&gt;orcid.org/0000&#45;0002&#45;2257&#45;9127 -->
<g id="edge14" class="edge">
<title>index.example.org/id/org/x&#45;&gt;orcid.org/0000&#45;0002&#45;2257&#45;9127</title>
<path fill="none" stroke="black" d="M201.99,-245.32C228.75,-239.08 259.99,-231.99 288.38,-226 339.97,-215.12 397.74,-204.64 445.45,-196.43"/>
<polygon fill="black" stroke="black" points="446.2,-199.85 455.47,-194.72 445.02,-192.96 446.2,-199.85"/>
<text text-anchor="middle" x="328.88" y="-229.8" font-family="Times,serif" font-size="14.00">member</text>
</g>
<!-- &quot;Organization X&quot; -->
<g id="node15" class="node">
<title>&quot;Organization X&quot;</title>
<ellipse fill="none" stroke="black" stroke-width="0" cx="546.61" cy="-126" rx="89.08" ry="18"/>
<text text-anchor="middle" x="546.61" y="-122.3" font-family="Times,serif" font-size="14.00">&quot;Organization X&quot;</text>
</g>
<!-- index.example.org/id/org/x&#45;&gt;&quot;Organization X&quot; -->
<g id="edge15" class="edge">
<title>index.example.org/id/org/x&#45;&gt;&quot;Organization X&quot;</title>
<path fill="none" stroke="black" d="M168.85,-243.46C215.78,-219.08 305.66,-175.42 387.38,-153 410.89,-146.55 436.82,-141.35 460.76,-137.31"/>
<polygon fill="black" stroke="black" points="461.59,-140.72 470.89,-135.65 460.45,-133.81 461.59,-140.72"/>
<text text-anchor="middle" x="328.88" y="-187.8" font-family="Times,serif" font-size="14.00">name</text>
</g>
<!-- &quot;( 33 1) 42 68 53 00&quot; -->
<g id="node16" class="node">
<title>&quot;( 33 1) 42 68 53 00&quot;</title>
<ellipse fill="none" stroke="black" stroke-width="0" cx="546.61" cy="-72" rx="108.58" ry="18"/>
<text text-anchor="middle" x="546.61" y="-68.3" font-family="Times,serif" font-size="14.00">&quot;( 33 1) 42 68 53 00&quot;</text>
</g>
<!-- index.example.org/id/org/x&#45;&gt;&quot;( 33 1) 42 68 53 00&quot; -->
<g id="edge16" class="edge">
<title>index.example.org/id/org/x&#45;&gt;&quot;( 33 1) 42 68 53 00&quot;</title>
<path fill="none" stroke="black" d="M155.08,-243.07C182.65,-217.6 236.31,-170.66 288.38,-140 329.41,-115.83 341.62,-112.2 387.38,-99 407.49,-93.2 429.42,-88.48 450.37,-84.7"/>
<polygon fill="black" stroke="black" points="450.99,-88.15 460.24,-82.98 449.78,-81.25 450.99,-88.15"/>
<text text-anchor="middle" x="328.88" y="-143.8" font-family="Times,serif" font-size="14.00">telephone</text>
</g>
<!-- &quot;https//example.org/&quot; -->
<g id="node17" class="node">
<title>&quot;https//example.org/&quot;</title>
<ellipse fill="none" stroke="black" stroke-width="0" cx="546.61" cy="-18" rx="110.48" ry="18"/>
<text text-anchor="middle" x="546.61" y="-14.3" font-family="Times,serif" font-size="14.00">&quot;https//example.org/&quot;</text>
</g>
<!-- index.example.org/id/org/x&#45;&gt;&quot;https//example.org/&quot; -->
<g id="edge17" class="edge">
<title>index.example.org/id/org/x&#45;&gt;&quot;https//example.org/&quot;</title>
<path fill="none" stroke="black" d="M147.43,-243.05C170.1,-208.16 224.64,-130.59 288.38,-85 332.1,-53.73 389.28,-37.04 438.63,-28.14"/>
<polygon fill="black" stroke="black" points="439.45,-31.56 448.71,-26.41 438.26,-24.66 439.45,-31.56"/>
<text text-anchor="middle" x="328.88" y="-88.8" font-family="Times,serif" font-size="14.00">url</text>
</g>
<!-- PostalAddress -->
<g id="node19" class="node">
<title>PostalAddress</title>
<ellipse fill="none" stroke="#558855" cx="989.39" cy="-369" rx="76.89" ry="18"/>
<text text-anchor="middle" x="989.39" y="-365.3" font-family="Times,serif" font-size="14.00">PostalAddress</text>
</g>
<!-- _&#45;&gt;PostalAddress -->
<g id="edge19" class="edge">
<title>_&#45;&gt;PostalAddress</title>
<path fill="none" stroke="black" d="M573.54,-343.59C637.14,-347.48 803.1,-357.65 904.79,-363.88"/>
<polygon fill="black" stroke="black" points="904.84,-367.39 915.04,-364.51 905.27,-360.4 904.84,-367.39"/>
<text text-anchor="middle" x="780.35" y="-362.8" font-family="Times,serif" font-size="14.00">type</text>
</g>
<!-- &quot;Paris, France&quot; -->
<g id="node20" class="node">
<title>&quot;Paris, France&quot;</title>
<ellipse fill="none" stroke="black" stroke-width="0" cx="989.39" cy="-315" rx="81.49" ry="18"/>
<text text-anchor="middle" x="989.39" y="-311.3" font-family="Times,serif" font-size="14.00">&quot;Paris, France&quot;</text>
</g>
<!-- _&#45;&gt;&quot;Paris, France&quot; -->
<g id="edge20" class="edge">
<title>_&#45;&gt;&quot;Paris, France&quot;</title>
<path fill="none" stroke="black" d="M573.54,-340.41C636.31,-336.57 798.8,-326.61 900.79,-320.37"/>
<polygon fill="black" stroke="black" points="901,-323.86 910.77,-319.75 900.57,-316.87 901,-323.86"/>
<text text-anchor="middle" x="780.35" y="-333.8" font-family="Times,serif" font-size="14.00">addressLocality</text>
</g>
<!-- &quot;F&#45;75002&quot; -->
<g id="node21" class="node">
<title>&quot;F&#45;75002&quot;</title>
<ellipse fill="none" stroke="black" stroke-width="0" cx="989.39" cy="-261" rx="57.69" ry="18"/>
<text text-anchor="middle" x="989.39" y="-257.3" font-family="Times,serif" font-size="14.00">&quot;F&#45;75002&quot;</text>
</g>
<!-- _&#45;&gt;&quot;F&#45;75002&quot; -->
<g id="edge21" class="edge">
<title>_&#45;&gt;&quot;F&#45;75002&quot;</title>
<path fill="none" stroke="black" d="M573.49,-340.27C605.39,-337.54 660.89,-330.8 705.85,-315 714.48,-311.96 715.21,-308.02 723.85,-305 789.19,-282.18 867.86,-271.03 922.34,-265.68"/>
<polygon fill="black" stroke="black" points="922.93,-269.14 932.56,-264.72 922.27,-262.17 922.93,-269.14"/>
<text text-anchor="middle" x="780.35" y="-308.8" font-family="Times,serif" font-size="14.00">postalCode</text>
</g>
<!-- &quot;38 avenue de l&#39;Opera&quot; -->
<g id="node22" class="node">
<title>&quot;38 avenue de l&#39;Opera&quot;</title>
<ellipse fill="none" stroke="black" stroke-width="0" cx="989.39" cy="-207" rx="118.08" ry="18"/>
<text text-anchor="middle" x="989.39" y="-203.3" font-family="Times,serif" font-size="14.00">&quot;38 avenue de l&#39;Opera&quot;</text>
</g>
<!-- _&#45;&gt;&quot;38 avenue de l&#39;Opera&quot; -->
<g id="edge22" class="edge">
<title>_&#45;&gt;&quot;38 avenue de l&#39;Opera&quot;</title>
<path fill="none" stroke="black" d="M573.46,-345.15C607.9,-347.85 668.79,-347.13 705.85,-315 725.6,-297.87 704.31,-276.37 723.85,-259 761.31,-225.68 813.75,-211.14 862.06,-205.49"/>
<polygon fill="black" stroke="black" points="862.72,-208.94 872.31,-204.42 862,-201.98 862.72,-208.94"/>
<text text-anchor="middle" x="780.35" y="-262.8" font-family="Times,serif" font-size="14.00">streetAddress</text>
</g>
<!-- Person -->
<g id="node18" class="node">
<title>Person</title>
<ellipse fill="none" stroke="#558855" cx="989.39" cy="-153" rx="42.49" ry="18"/>
<text text-anchor="middle" x="989.39" y="-149.3" font-family="Times,serif" font-size="14.00">Person</text>
</g>
<!-- orcid.org/0000&#45;0002&#45;2257&#45;9127&#45;&gt;Person -->
<g id="edge18" class="edge">
<title>orcid.org/0000&#45;0002&#45;2257&#45;9127&#45;&gt;Person</title>
<path fill="none" stroke="black" d="M686.17,-171.51C771.59,-166.28 876.12,-159.88 937.19,-156.14"/>
<polygon fill="black" stroke="black" points="937.57,-159.62 947.33,-155.51 937.14,-152.63 937.57,-159.62"/>
<text text-anchor="middle" x="780.35" y="-171.8" font-family="Times,serif" font-size="14.00">type</text>
</g>
</g>
</svg>