<?xml version="1.0" encoding="UTF-8" standalone="no"?>
<!DOCTYPE svg PUBLIC "-//W3C//DTD SVG 1.1//EN"
 "http://www.w3.org/Graphics/SVG/1.1/DTD/svg11.dtd">
<!-- Generated by graphviz version 2.43.0 (0)
 -->
<!-- Title: %3 Pages: 1 -->
<svg width="1507pt" height="584pt"
 viewBox="0.00 0.00 1506.60 584.00" xmlns="http://www.w3.org/2000/svg" xmlns:xlink="http://www.w3.org/1999/xlink">
<g id="graph0" class="graph" transform="scale(1 1) rotate(0) translate(4 580)">
<title>%3</title>
<polygon fill="white" stroke="transparent" points="-4,4 -4,-580 1502.6,-580 1502.6,4 -4,4"/>
<!-- &quot;{&quot;geometries&quot;[{&quot;coordinat...&quot; -->
<g id="node1" class="node">
<title>&quot;{&quot;geometries&quot;[{&quot;coordinat...&quot;</title>
<ellipse fill="none" stroke="black" stroke-width="0" cx="823.9" cy="-429" rx="152.97" ry="18"/>
<text text-anchor="middle" x="823.9" y="-425.3" font-family="Times,serif" font-size="14.00">&quot;{&quot;geometries&quot;[{&quot;coordinat...&quot;</text>
</g>
<!-- samples.earth/id/do/bqs2dn2u6s73o70jdup0 -->
<g id="node2" class="node">
<title>samples.earth/id/do/bqs2dn2u6s73o70jdup0</title>
<ellipse fill="none" stroke="black" cx="217.08" cy="-318" rx="217.16" ry="18"/>
<text text-anchor="middle" x="217.08" y="-314.3" font-family="Times,serif" font-size="14.00">samples.earth/id/do/bqs2dn2u6s73o70jdup0</text>
</g>
<!-- samples.earth/id/do/bqs2dn2u6s73o70jdup0&#45;&gt;&quot;{&quot;geometries&quot;[{&quot;coordinat...&quot; -->
<g id="edge1" class="edge">
<title>samples.earth/id/do/bqs2dn2u6s73o70jdup0&#45;&gt;&quot;{&quot;geometries&quot;[{&quot;coordinat...&quot;</title>
<path fill="none" stroke="black" d="M279.28,-335.35C326.27,-348.2 392.93,-365.42 452.16,-377 535.17,-393.23 629.58,-406.4 702.35,-415.42"/>
<polygon fill="black" stroke="black" points="702.12,-418.92 712.48,-416.67 702.98,-411.97 702.12,-418.92"/>
<text text-anchor="middle" x="552.66" y="-410.8" font-family="Times,serif" font-size="14.00">example.com/vocab/json</text>
</g>
<!-- &quot;A fake ID for testing&quot; -->
<g id="node3" class="node">
<title>&quot;A fake ID for testing&quot;</title>
<ellipse fill="none" stroke="black" stroke-width="0" cx="823.9" cy="-375" rx="113.98" ry="18"/>
<text text-anchor="middle" x="823.9" y="-371.3" font-family="Times,serif" font-size="14.00">&quot;A fake ID for testing&quot;</text>
</g>
<!-- samples.earth/id/do/bqs2dn2u6s73o70jdup0&#45;&gt;&quot;A fake ID for testing&quot; -->
<g id="edge2" class="edge">
<title>samples.earth/id/do/bqs2dn2u6s73o70jdup0&#45;&gt;&quot;A fake ID for testing&quot;</title>
<path fill="none" stroke="black" d="M357.01,-331.8C388.3,-334.87 421.37,-338.08 452.16,-341 540.35,-349.38 640.37,-358.53 714.28,-365.23"/>
<polygon fill="black" stroke="black" points="714.26,-368.74 724.53,-366.15 714.89,-361.77 714.26,-368.74"/>
<text text-anchor="middle" x="552.66" y="-361.8" font-family="Times,serif" font-size="14.00">igsn.org/core/v1/description</text>
</g>
<!-- _ -->
<g id="node4" class="node">
<title>_</title>
<ellipse fill="none" stroke="#558855" cx="823.9" cy="-288" rx="27" ry="18"/>
<text text-anchor="middle" x="823.9" y="-284.3" font-family="Times,serif" font-size="14.00">_</text>
</g>
<!-- samples.earth/id/do/bqs2dn2u6s73o70jdup0&#45;&gt;_ -->
<g id="edge3" class="edge">
<title>samples.earth/id/do/bqs2dn2u6s73o70jdup0&#45;&gt;_</title>
<path fill="none" stroke="black" d="M425.84,-322.94C497.92,-322.96 579.2,-321.1 653.16,-315 700.19,-311.12 753.89,-301.73 788.07,-295.12"/>
<polygon fill="black" stroke="black" points="788.88,-298.53 798.02,-293.17 787.53,-291.66 788.88,-298.53"/>
<text text-anchor="middle" x="552.66" y="-325.8" font-family="Times,serif" font-size="14.00">hasGeometry</text>
</g>
<!-- samples.earth/id/do/bqs2dn2u6s73o70jdup0&#45;&gt;_ -->
<g id="edge5" class="edge">
<title>samples.earth/id/do/bqs2dn2u6s73o70jdup0&#45;&gt;_</title>
<path fill="none" stroke="black" d="M351.03,-303.83C384.04,-300.77 419.36,-297.89 452.16,-296 574.54,-288.94 719.96,-287.96 786.45,-287.92"/>
<polygon fill="black" stroke="black" points="786.8,-291.42 796.8,-287.92 786.8,-284.42 786.8,-291.42"/>
<text text-anchor="middle" x="552.66" y="-299.8" font-family="Times,serif" font-size="14.00">spatialCoverage</text>
</g>
<!-- samples.earth/id/do/bqs2dn2u6s73o70jdup0&#45;&gt;_ -->
<g id="edge6" class="edge">
<title>samples.earth/id/do/bqs2dn2u6s73o70jdup0&#45;&gt;_</title>
<path fill="none" stroke="black" d="M283.62,-300.86C330.25,-289.57 394.59,-275.84 452.16,-270 541.04,-260.98 563.95,-265.28 653.16,-270 699.69,-272.46 753.09,-278.69 787.38,-283.13"/>
<polygon fill="black" stroke="black" points="787,-286.61 797.37,-284.44 787.91,-279.67 787,-286.61"/>
<text text-anchor="middle" x="552.66" y="-273.8" font-family="Times,serif" font-size="14.00">subjectOf</text>
</g>
<!-- igsn.org/core/v1/Sample -->
<g id="node5" class="node">
<title>igsn.org/core/v1/Sample</title>
<ellipse fill="none" stroke="#558855" cx="823.9" cy="-223" rx="123.48" ry="18"/>
<text text-anchor="middle" x="823.9" y="-219.3" font-family="Times,serif" font-size="14.00">igsn.org/core/v1/Sample</text>
</g>
<!-- samples.earth/id/do/bqs2dn2u6s73o70jdup0&#45;&gt;igsn.org/core/v1/Sample -->
<g id="edge4" class="edge">
<title>samples.earth/id/do/bqs2dn2u6s73o70jdup0&#45;&gt;igsn.org/core/v1/Sample</title>
<path fill="none" stroke="black" d="M263.01,-300.39C309.54,-283.02 384.74,-257.32 452.16,-245 530.15,-230.75 618.74,-225.11 689.76,-223.1"/>
<polygon fill="black" stroke="black" points="690.21,-226.59 700.11,-222.83 690.02,-219.59 690.21,-226.59"/>
<text text-anchor="middle" x="552.66" y="-248.8" font-family="Times,serif" font-size="14.00">type</text>
</g>
<!-- _&#45;&gt;_ -->
<g id="edge8" class="edge">
<title>_&#45;&gt;_</title>
<path fill="none" stroke="black" d="M799.29,-295.96C772.84,-308.31 781.04,-324 823.9,-324 861.06,-324 872.17,-312.2 857.21,-301.01"/>
<polygon fill="black" stroke="black" points="858.91,-297.95 848.51,-295.96 855.4,-304 858.91,-297.95"/>
<text text-anchor="middle" x="823.9" y="-327.8" font-family="Times,serif" font-size="14.00">geo</text>
</g>
<!-- Place -->
<g id="node6" class="node">
<title>Place</title>
<ellipse fill="none" stroke="#558855" cx="1297.12" cy="-558" rx="36" ry="18"/>
<text text-anchor="middle" x="1297.12" y="-554.3" font-family="Times,serif" font-size="14.00">Place</text>
</g>
<!-- _&#45;&gt;Place -->
<g id="edge7" class="edge">
<title>_&#45;&gt;Place</title>
<path fill="none" stroke="black" d="M850.84,-290.34C885.47,-294.94 945.99,-308.49 976.63,-348 1015.9,-398.62 955.39,-440.37 994.63,-491 1055.1,-568.99 1184.45,-569.47 1252.39,-563.58"/>
<polygon fill="black" stroke="black" points="1252.72,-567.06 1262.35,-562.63 1252.06,-560.09 1252.72,-567.06"/>
<text text-anchor="middle" x="1036.13" y="-548.8" font-family="Times,serif" font-size="14.00">type</text>
</g>
<!-- GeoCoordinates -->
<g id="node7" class="node">
<title>GeoCoordinates</title>
<ellipse fill="none" stroke="#558855" cx="1297.12" cy="-504" rx="85.29" ry="18"/>
<text text-anchor="middle" x="1297.12" y="-500.3" font-family="Times,serif" font-size="14.00">GeoCoordinates</text>
</g>
<!-- _&#45;&gt;GeoCoordinates -->
<g id="edge9" class="edge">
<title>_&#45;&gt;GeoCoordinates</title>
<path fill="none" stroke="black" d="M850.72,-290.72C884.91,-295.75 944.63,-309.77 976.63,-348 1002.54,-378.95 968.74,-406.05 994.63,-437 1025.61,-474.03 1048.92,-464.8 1095.63,-477 1131.36,-486.33 1171.55,-492.55 1206.51,-496.64"/>
<polygon fill="black" stroke="black" points="1206.37,-500.15 1216.7,-497.79 1207.16,-493.19 1206.37,-500.15"/>
<text text-anchor="middle" x="1036.13" y="-475.8" font-family="Times,serif" font-size="14.00">type</text>
</g>
<!-- &quot;&#45;18&quot; -->
<g id="node8" class="node">
<title>&quot;&#45;18&quot;</title>
<ellipse fill="none" stroke="black" stroke-width="0" cx="1297.12" cy="-450" rx="34.39" ry="18"/>
<text text-anchor="middle" x="1297.12" y="-446.3" font-family="Times,serif" font-size="14.00">&quot;&#45;18&quot;</text>
</g>
<!-- _&#45;&gt;&quot;&#45;18&quot; -->
<g id="edge10" class="edge">
<title>_&#45;&gt;&quot;&#45;18&quot;</title>
<path fill="none" stroke="black" d="M850.33,-292.4C883.01,-299.22 939.91,-315.12 976.63,-348 989.37,-359.41 981.95,-370.54 994.63,-382 1030.58,-414.48 1048.81,-410.56 1095.63,-423 1148.56,-437.06 1211.39,-444.01 1252.42,-447.3"/>
<polygon fill="black" stroke="black" points="1252.39,-450.8 1262.62,-448.07 1252.92,-443.82 1252.39,-450.8"/>
<text text-anchor="middle" x="1036.13" y="-421.8" font-family="Times,serif" font-size="14.00">latitude</text>
</g>
<!-- &quot;&#45;76&quot; -->
<g id="node9" class="node">
<title>&quot;&#45;76&quot;</title>
<ellipse fill="none" stroke="black" stroke-width="0" cx="1297.12" cy="-396" rx="34.39" ry="18"/>
<text text-anchor="middle" x="1297.12" y="-392.3" font-family="Times,serif" font-size="14.00">&quot;&#45;76&quot;</text>
</g>
<!-- _&#45;&gt;&quot;&#45;76&quot; -->
<g id="edge11" class="edge">
<title>_&#45;&gt;&quot;&#45;76&quot;</title>
<path fill="none" stroke="black" d="M848.11,-296.3C894.53,-312.58 1002.35,-348.89 1095.63,-369 1149.17,-380.54 1211.86,-388.04 1252.7,-392.14"/>
<polygon fill="black" stroke="black" points="1252.56,-395.64 1262.85,-393.13 1253.24,-388.67 1252.56,-395.64"/>
<text text-anchor="middle" x="1036.13" y="-366.8" font-family="Times,serif" font-size="14.00">longitude</text>
</g>
<!-- &quot;POINT(&#45;76 &#45;18)&quot; -->
<g id="node10" class="node">
<title>&quot;POINT(&#45;76 &#45;18)&quot;</title>
<ellipse fill="none" stroke="black" stroke-width="0" cx="1297.12" cy="-342" rx="89.08" ry="18"/>
<text text-anchor="middle" x="1297.12" y="-338.3" font-family="Times,serif" font-size="14.00">&quot;POINT(&#45;76 &#45;18)&quot;</text>
</g>
<!-- _&#45;&gt;&quot;POINT(&#45;76 &#45;18)&quot; -->
<g id="edge12" class="edge">
<title>_&#45;&gt;&quot;POINT(&#45;76 &#45;18)&quot;</title>
<path fill="none" stroke="black" d="M850.57,-290.94C917.43,-298.6 1099.35,-319.45 1208.96,-332.01"/>
<polygon fill="black" stroke="black" points="1208.67,-335.5 1219.01,-333.16 1209.47,-328.55 1208.67,-335.5"/>
<text text-anchor="middle" x="1036.13" y="-319.8" font-family="Times,serif" font-size="14.00">asWKT</text>
</g>
<!-- www.opengis.net/def/crs/OGC/1.3/CRS84 -->
<g id="node11" class="node">
<title>www.opengis.net/def/crs/OGC/1.3/CRS84</title>
<ellipse fill="none" stroke="#558855" cx="1297.12" cy="-288" rx="201.46" ry="18"/>
<text text-anchor="middle" x="1297.12" y="-284.3" font-family="Times,serif" font-size="14.00">www.opengis.net/def/crs/OGC/1.3/CRS84</text>
</g>
<!-- _&#45;&gt;www.opengis.net/def/crs/OGC/1.3/CRS84 -->
<g id="edge13" class="edge">
<title>_&#45;&gt;www.opengis.net/def/crs/OGC/1.3/CRS84</title>
<path fill="none" stroke="black" d="M850.9,-288C896.14,-288 993.31,-288 1085.35,-288"/>
<polygon fill="black" stroke="black" points="1085.39,-291.5 1095.39,-288 1085.39,-284.5 1085.39,-291.5"/>
<text text-anchor="middle" x="1036.13" y="-291.8" font-family="Times,serif" font-size="14.00">crs</text>
</g>
<!-- Point -->
<g id="node12" class="node">
<title>Point</title>
<ellipse fill="none" stroke="#558855" cx="1297.12" cy="-234" rx="34.39" ry="18"/>
<text text-anchor="middle" x="1297.12" y="-230.3" font-family="Times,serif" font-size="14.00">Point</text>
</g>
<!-- _&#45;&gt;Point -->
<g id="edge14" class="edge">
<title>_&#45;&gt;Point</title>
<path fill="none" stroke="black" d="M850.57,-285.06C927.56,-276.24 1157.14,-249.93 1253.15,-238.92"/>
<polygon fill="black" stroke="black" points="1253.57,-242.4 1263.1,-237.78 1252.77,-235.44 1253.57,-242.4"/>
<text text-anchor="middle" x="1036.13" y="-270.8" font-family="Times,serif" font-size="14.00">type</text>
</g>
<!-- DigitalDocument -->
<g id="node13" class="node">
<title>DigitalDocument</title>
<ellipse fill="none" stroke="#558855" cx="1297.12" cy="-180" rx="89.08" ry="18"/>
<text text-anchor="middle" x="1297.12" y="-176.3" font-family="Times,serif" font-size="14.00">DigitalDocument</text>
</g>
<!-- _&#45;&gt;DigitalDocument -->
<g id="edge15" class="edge">
<title>_&#45;&gt;DigitalDocument</title>
<path fill="none" stroke="black" d="M850.23,-283.76C880.87,-278.15 933.7,-266.96 976.63,-250 985.15,-246.64 986.25,-243.66 994.63,-240 1037.92,-221.11 1049.6,-217.53 1095.63,-207 1131.16,-198.88 1170.82,-192.9 1205.43,-188.67"/>
<polygon fill="black" stroke="black" points="1206.01,-192.13 1215.52,-187.47 1205.18,-185.18 1206.01,-192.13"/>
<text text-anchor="middle" x="1036.13" y="-243.8" font-family="Times,serif" font-size="14.00">type</text>
</g>
<!-- &quot;https//igsn.org/schema/sp...&quot; -->
<g id="node14" class="node">
<title>&quot;https//igsn.org/schema/sp...&quot;</title>
<ellipse fill="none" stroke="black" stroke-width="0" cx="1297.12" cy="-126" rx="148.37" ry="18"/>
<text text-anchor="middle" x="1297.12" y="-122.3" font-family="Times,serif" font-size="14.00">&quot;https//igsn.org/schema/sp...&quot;</text>
</g>
<!-- _&#45;&gt;&quot;https//igsn.org/schema/sp...&quot; -->
<g id="edge16" class="edge">
<title>_&#45;&gt;&quot;https//igsn.org/schema/sp...&quot;</title>
<path fill="none" stroke="black" d="M851.04,-288.77C884.49,-288.3 942.23,-282.39 976.63,-250 995.98,-231.79 976.53,-212.44 994.63,-193 1027.54,-157.67 1048.92,-165.2 1095.63,-153 1119.08,-146.88 1144.45,-142.09 1169,-138.37"/>
<polygon fill="black" stroke="black" points="1169.71,-141.8 1179.1,-136.89 1168.7,-134.88 1169.71,-141.8"/>
<text text-anchor="middle" x="1036.13" y="-196.8" font-family="Times,serif" font-size="14.00">conformsTo</text>
</g>
<!-- &quot;application/vnd.geo+json&quot; -->
<g id="node15" class="node">
<title>&quot;application/vnd.geo+json&quot;</title>
<ellipse fill="none" stroke="black" stroke-width="0" cx="1297.12" cy="-72" rx="137.28" ry="18"/>
<text text-anchor="middle" x="1297.12" y="-68.3" font-family="Times,serif" font-size="14.00">&quot;application/vnd.geo+json&quot;</text>
</g>
<!-- _&#45;&gt;&quot;application/vnd.geo+json&quot; -->
<g id="edge17" class="edge">
<title>_&#45;&gt;&quot;application/vnd.geo+json&quot;</title>
<path fill="none" stroke="black" d="M850.91,-289.5C885.04,-289.93 944.39,-285.1 976.63,-250 1010.45,-213.2 963.32,-177.95 994.63,-139 1024.89,-101.37 1048.92,-111.2 1095.63,-99 1120.72,-92.45 1148.01,-87.43 1174.14,-83.61"/>
<polygon fill="black" stroke="black" points="1174.68,-87.06 1184.09,-82.2 1173.7,-80.13 1174.68,-87.06"/>
<text text-anchor="middle" x="1036.13" y="-142.8" font-family="Times,serif" font-size="14.00">format</text>
</g>
<!-- &quot;https//samples.earth/id/d...&quot; -->
<g id="node16" class="node">
<title>&quot;https//samples.earth/id/d...&quot;</title>
<ellipse fill="none" stroke="black" stroke-width="0" cx="1297.12" cy="-18" rx="144.87" ry="18"/>
<text text-anchor="middle" x="1297.12" y="-14.3" font-family="Times,serif" font-size="14.00">&quot;https//samples.earth/id/d...&quot;</text>
</g>
<!-- _&#45;&gt;&quot;https//samples.earth/id/d...&quot; -->
<g id="edge18" class="edge">
<title>_&#45;&gt;&quot;https//samples.earth/id/d...&quot;</title>
<path fill="none" stroke="black" d="M850.89,-289.74C885.28,-290.48 945.23,-286.03 976.63,-250 1025.11,-194.4 949.92,-143.67 994.63,-85 1031.04,-37.23 1093.31,-18.44 1151.84,-12.41"/>
<polygon fill="black" stroke="black" points="1152.31,-15.88 1161.95,-11.49 1151.68,-8.91 1152.31,-15.88"/>
<text text-anchor="middle" x="1036.13" y="-88.8" font-family="Times,serif" font-size="14.00">url</text>
</g>
</g>
</svg>