<?xml version="1.0" encoding="UTF-8" standalone="no"?>
<!DOCTYPE svg PUBLIC "-//W3C//DTD SVG 1.1//EN"
 "http://www.w3.org/Graphics/SVG/1.1/DTD/svg11.dtd">
<!-- Generated by graphviz version 2.43.0 (0)
 -->
<!-- Title: %3 Pages: 1 -->
<svg width="1037pt" height="612pt"
 viewBox="0.00 0.00 1036.53 611.96" xmlns="http://www.w3.org/2000/svg" xmlns:xlink="http://www.w3.org/1999/xlink">
<g id="graph0" class="graph" transform="scale(1 1) rotate(0) translate(4 607.96)">
<title>%3</title>
<polygon fill="white" stroke="transparent" points="-4,4 -4,-607.96 1032.53,-607.96 1032.53,4 -4,4"/>
<!-- Dataset -->
<g id="node1" class="node">
<title>Dataset</title>
<ellipse fill="none" stroke="#558855" cx="531.96" cy="-482.96" rx="46.59" ry="18"/>
<text text-anchor="middle" x="531.96" y="-479.26" font-family="Times,serif" font-size="14.00">Dataset</text>
</g>
<!-- example.org/permanentUrlToThisJsonDoc -->
<g id="node2" class="node">
<title>example.org/permanentUrlToThisJsonDoc</title>
<ellipse fill="none" stroke="black" cx="204.08" cy="-389.96" rx="204.16" ry="18"/>
<text text-anchor="middle" x="204.08" y="-386.26" font-family="Times,serif" font-size="14.00">example.org/permanentUrlToThisJsonDoc</text>
</g>
<!-- example.org/permanentUrlToThisJsonDoc&#45;&gt;Dataset -->
<g id="edge1" class="edge">
<title>example.org/permanentUrlToThisJsonDoc&#45;&gt;Dataset</title>
<path fill="none" stroke="black" d="M265.61,-407.23C328.64,-425.22 426.06,-453.02 483.67,-469.46"/>
<polygon fill="black" stroke="black" points="483.02,-472.92 493.6,-472.29 484.94,-466.18 483.02,-472.92"/>
<text text-anchor="middle" x="446.66" y="-465.76" font-family="Times,serif" font-size="14.00">type</text>
</g>
<!-- _ -->
<g id="node3" class="node">
<title>_</title>
<ellipse fill="none" stroke="#558855" cx="531.96" cy="-296.96" rx="27" ry="18"/>
<text text-anchor="middle" x="531.96" y="-293.26" font-family="Times,serif" font-size="14.00">_</text>
</g>
<!-- example.org/permanentUrlToThisJsonDoc&#45;&gt;_ -->
<g id="edge2" class="edge">
<title>example.org/permanentUrlToThisJsonDoc&#45;&gt;_</title>
<path fill="none" stroke="black" d="M265.61,-372.68C333.74,-353.24 442.05,-322.33 496.83,-306.7"/>
<polygon fill="black" stroke="black" points="498.07,-309.98 506.73,-303.87 496.15,-303.25 498.07,-309.98"/>
<text text-anchor="middle" x="446.66" y="-327.76" font-family="Times,serif" font-size="14.00">about</text>
</g>
<!-- _&#45;&gt;_ -->
<g id="edge6" class="edge">
<title>_&#45;&gt;_</title>
<path fill="none" stroke="black" d="M528.16,-315.11C527.58,-324.5 528.84,-332.96 531.96,-332.96 533.86,-332.96 535.07,-329.82 535.6,-325.24"/>
<polygon fill="black" stroke="black" points="539.1,-325.16 535.76,-315.11 532.1,-325.05 539.1,-325.16"/>
<text text-anchor="middle" x="531.96" y="-336.76" font-family="Times,serif" font-size="14.00">potentialAction</text>
</g>
<!-- _&#45;&gt;_ -->
<g id="edge7" class="edge">
<title>_&#45;&gt;_</title>
<path fill="none" stroke="black" d="M525.7,-314.66C522.24,-331.95 524.33,-350.96 531.96,-350.96 538.1,-350.96 540.65,-338.65 539.61,-324.83"/>
<polygon fill="black" stroke="black" points="543.04,-324.09 538.22,-314.66 536.1,-325.04 543.04,-324.09"/>
<text text-anchor="middle" x="531.96" y="-354.76" font-family="Times,serif" font-size="14.00">potentialAction</text>
</g>
<!-- _&#45;&gt;_ -->
<g id="edge17" class="edge">
<title>_&#45;&gt;_</title>
<path fill="none" stroke="black" d="M524.2,-314.31C516.88,-338.77 519.47,-368.96 531.96,-368.96 542.79,-368.96 546.17,-346.26 542.11,-324.28"/>
<polygon fill="black" stroke="black" points="545.45,-323.22 539.72,-314.31 538.65,-324.85 545.45,-323.22"/>
<text text-anchor="middle" x="531.96" y="-372.76" font-family="Times,serif" font-size="14.00">instrument</text>
</g>
<!-- _&#45;&gt;_ -->
<g id="edge20" class="edge">
<title>_&#45;&gt;_</title>
<path fill="none" stroke="black" d="M523.16,-314.19C511.55,-345.42 514.49,-386.96 531.96,-386.96 547.66,-386.96 551.62,-353.43 543.85,-323.97"/>
<polygon fill="black" stroke="black" points="547.11,-322.67 540.76,-314.19 540.43,-324.78 547.11,-322.67"/>
<text text-anchor="middle" x="531.96" y="-390.76" font-family="Times,serif" font-size="14.00">instrument</text>
</g>
<!-- Event -->
<g id="node4" class="node">
<title>Event</title>
<ellipse fill="none" stroke="#558855" cx="862.14" cy="-578.96" rx="38.19" ry="18"/>
<text text-anchor="middle" x="862.14" y="-575.26" font-family="Times,serif" font-size="14.00">Event</text>
</g>
<!-- _&#45;&gt;Event -->
<g id="edge3" class="edge">
<title>_&#45;&gt;Event</title>
<path fill="none" stroke="black" d="M538.59,-314.46C547.84,-343.59 566.42,-403.97 578.76,-455.96 588.77,-498.2 564.8,-522.57 596.76,-551.96 656.5,-606.91 759,-599.08 817.27,-588.81"/>
<polygon fill="black" stroke="black" points="818.08,-592.22 827.27,-586.95 816.79,-585.34 818.08,-592.22"/>
<text text-anchor="middle" x="637.26" y="-592.76" font-family="Times,serif" font-size="14.00">type</text>
</g>
<!-- &quot;describe the activity, mi...&quot; -->
<g id="node5" class="node">
<title>&quot;describe the activity, mi...&quot;</title>
<ellipse fill="none" stroke="black" stroke-width="0" cx="862.14" cy="-524.96" rx="139.98" ry="18"/>
<text text-anchor="middle" x="862.14" y="-521.26" font-family="Times,serif" font-size="14.00">&quot;describe the activity, mi...&quot;</text>
</g>
<!-- _&#45;&gt;&quot;describe the activity, mi...&quot; -->
<g id="edge4" class="edge">
<title>_&#45;&gt;&quot;describe the activity, mi...&quot;</title>
<path fill="none" stroke="black" d="M537.96,-314.62C551.68,-362.72 589.31,-492.92 596.76,-498.96 643.12,-536.56 710.2,-542.79 765.18,-539.75"/>
<polygon fill="black" stroke="black" points="765.55,-543.23 775.3,-539.08 765.09,-536.25 765.55,-543.23"/>
<text text-anchor="middle" x="637.26" y="-536.76" font-family="Times,serif" font-size="14.00">description</text>
</g>
<!-- &quot;Measurement of sea state&quot; -->
<g id="node6" class="node">
<title>&quot;Measurement of sea state&quot;</title>
<ellipse fill="none" stroke="black" stroke-width="0" cx="862.14" cy="-466.96" rx="140.28" ry="18"/>
<text text-anchor="middle" x="862.14" y="-463.26" font-family="Times,serif" font-size="14.00">&quot;Measurement of sea state&quot;</text>
</g>
<!-- _&#45;&gt;&quot;Measurement of sea state&quot; -->
<g id="edge5" class="edge">
<title>_&#45;&gt;&quot;Measurement of sea state&quot;</title>
<path fill="none" stroke="black" d="M533.59,-315.11C535.94,-350.93 546.81,-430.22 596.76,-464.96 620.22,-481.28 683.43,-482.19 742.16,-478.83"/>
<polygon fill="black" stroke="black" points="742.53,-482.31 752.3,-478.2 742.1,-475.32 742.53,-482.31"/>
<text text-anchor="middle" x="637.26" y="-483.76" font-family="Times,serif" font-size="14.00">name</text>
</g>
<!-- _&#45;&gt;&quot;Measurement of sea state&quot; -->
<g id="edge18" class="edge">
<title>_&#45;&gt;&quot;Measurement of sea state&quot;</title>
<path fill="none" stroke="black" d="M536.58,-315.07C543.21,-343.24 560.16,-397.09 596.76,-423.96 609.41,-433.25 682.31,-444.71 748.36,-453.46"/>
<polygon fill="black" stroke="black" points="748.1,-456.95 758.47,-454.78 749.01,-450.01 748.1,-456.95"/>
<text text-anchor="middle" x="637.26" y="-445.76" font-family="Times,serif" font-size="14.00">name</text>
</g>
<!-- Thing -->
<g id="node7" class="node">
<title>Thing</title>
<ellipse fill="none" stroke="#558855" cx="862.14" cy="-407.96" rx="37.09" ry="18"/>
<text text-anchor="middle" x="862.14" y="-404.26" font-family="Times,serif" font-size="14.00">Thing</text>
</g>
<!-- _&#45;&gt;Thing -->
<g id="edge8" class="edge">
<title>_&#45;&gt;Thing</title>
<path fill="none" stroke="black" d="M539.52,-314.45C548.68,-336.14 567.54,-372.3 596.76,-388.96 632.81,-409.51 749.28,-410.53 814.97,-409.34"/>
<polygon fill="black" stroke="black" points="815.13,-412.84 825.06,-409.14 814.99,-405.84 815.13,-412.84"/>
<text text-anchor="middle" x="637.26" y="-408.76" font-family="Times,serif" font-size="14.00">type</text>
</g>
<!-- _&#45;&gt;Thing -->
<g id="edge12" class="edge">
<title>_&#45;&gt;Thing</title>
<path fill="none" stroke="black" d="M548.7,-311.27C561.02,-321.83 578.98,-335.88 596.76,-344.96 630.31,-362.09 642.48,-356.73 677.76,-369.96 685.95,-373.03 687.39,-375.38 695.76,-377.96 735.43,-390.18 782.09,-398.08 815.72,-402.69"/>
<polygon fill="black" stroke="black" points="815.34,-406.17 825.71,-404.02 816.26,-399.23 815.34,-406.17"/>
<text text-anchor="middle" x="637.26" y="-373.76" font-family="Times,serif" font-size="14.00">type</text>
</g>
<!-- &quot;A high precision 3D sonic...&quot; -->
<g id="node8" class="node">
<title>&quot;A high precision 3D sonic...&quot;</title>
<ellipse fill="none" stroke="black" stroke-width="0" cx="862.14" cy="-350.96" rx="146.47" ry="18"/>
<text text-anchor="middle" x="862.14" y="-347.26" font-family="Times,serif" font-size="14.00">&quot;A high precision 3D sonic...&quot;</text>
</g>
<!-- _&#45;&gt;&quot;A high precision 3D sonic...&quot; -->
<g id="edge9" class="edge">
<title>_&#45;&gt;&quot;A high precision 3D sonic...&quot;</title>
<path fill="none" stroke="black" d="M557.06,-303.63C568.95,-306.75 583.53,-310.36 596.76,-312.96 645.5,-322.55 699.76,-330.77 746.37,-337.08"/>
<polygon fill="black" stroke="black" points="746.12,-340.58 756.5,-338.44 747.05,-333.64 746.12,-340.58"/>
<text text-anchor="middle" x="637.26" y="-329.76" font-family="Times,serif" font-size="14.00">description</text>
</g>
<!-- &quot;Metek uSonic&#45;3 Scientific...&quot; -->
<g id="node9" class="node">
<title>&quot;Metek uSonic&#45;3 Scientific...&quot;</title>
<ellipse fill="none" stroke="black" stroke-width="0" cx="862.14" cy="-296.96" rx="146.47" ry="18"/>
<text text-anchor="middle" x="862.14" y="-293.26" font-family="Times,serif" font-size="14.00">&quot;Metek uSonic&#45;3 Scientific...&quot;</text>
</g>
<!-- _&#45;&gt;&quot;Metek uSonic&#45;3 Scientific...&quot; -->
<g id="edge10" class="edge">
<title>_&#45;&gt;&quot;Metek uSonic&#45;3 Scientific...&quot;</title>
<path fill="none" stroke="black" d="M558.99,-296.96C591.31,-296.96 649.1,-296.96 705.55,-296.96"/>
<polygon fill="black" stroke="black" points="705.7,-300.46 715.7,-296.96 705.7,-293.46 705.7,-300.46"/>
<text text-anchor="middle" x="637.26" y="-300.76" font-family="Times,serif" font-size="14.00">name</text>
</g>
<!-- &quot;http//vocab.nerc.ac.uk/co...&quot; -->
<g id="node10" class="node">
<title>&quot;http//vocab.nerc.ac.uk/co...&quot;</title>
<ellipse fill="none" stroke="black" stroke-width="0" cx="862.14" cy="-242.96" rx="144.07" ry="18"/>
<text text-anchor="middle" x="862.14" y="-239.26" font-family="Times,serif" font-size="14.00">&quot;http//vocab.nerc.ac.uk/co...&quot;</text>
</g>
<!-- _&#45;&gt;&quot;http//vocab.nerc.ac.uk/co...&quot; -->
<g id="edge11" class="edge">
<title>_&#45;&gt;&quot;http//vocab.nerc.ac.uk/co...&quot;</title>
<path fill="none" stroke="black" d="M556.36,-289.02C568.33,-285.21 583.19,-280.86 596.76,-277.96 642.43,-268.2 693.16,-260.69 737.86,-255.19"/>
<polygon fill="black" stroke="black" points="738.39,-258.65 747.9,-253.97 737.55,-251.7 738.39,-258.65"/>
<text text-anchor="middle" x="637.26" y="-281.76" font-family="Times,serif" font-size="14.00">url</text>
</g>
<!-- _&#45;&gt;&quot;http//vocab.nerc.ac.uk/co...&quot; -->
<g id="edge15" class="edge">
<title>_&#45;&gt;&quot;http//vocab.nerc.ac.uk/co...&quot;</title>
<path fill="none" stroke="black" d="M546.04,-281.27C557.8,-268.49 576.32,-251.38 596.76,-243.96 649.64,-224.74 712.49,-223.7 763.65,-227.83"/>
<polygon fill="black" stroke="black" points="763.44,-231.33 773.71,-228.72 764.06,-224.35 763.44,-231.33"/>
<text text-anchor="middle" x="637.26" y="-247.76" font-family="Times,serif" font-size="14.00">url</text>
</g>
<!-- &quot;The WaMoS II 500 radar is...&quot; -->
<g id="node11" class="node">
<title>&quot;The WaMoS II 500 radar is...&quot;</title>
<ellipse fill="none" stroke="black" stroke-width="0" cx="862.14" cy="-188.96" rx="152.97" ry="18"/>
<text text-anchor="middle" x="862.14" y="-185.26" font-family="Times,serif" font-size="14.00">&quot;The WaMoS II 500 radar is...&quot;</text>
</g>
<!-- _&#45;&gt;&quot;The WaMoS II 500 radar is...&quot; -->
<g id="edge13" class="edge">
<title>_&#45;&gt;&quot;The WaMoS II 500 radar is...&quot;</title>
<path fill="none" stroke="black" d="M539.84,-279.66C549.23,-258.61 568.22,-223.93 596.76,-207.96 640.34,-183.56 694.48,-176.44 742.4,-176.32"/>
<polygon fill="black" stroke="black" points="742.5,-179.82 752.53,-176.4 742.56,-172.82 742.5,-179.82"/>
<text text-anchor="middle" x="637.26" y="-211.76" font-family="Times,serif" font-size="14.00">description</text>
</g>
<!-- &quot;OceanWaveS WaMoS II 500 w...&quot; -->
<g id="node12" class="node">
<title>&quot;OceanWaveS WaMoS II 500 w...&quot;</title>
<ellipse fill="none" stroke="black" stroke-width="0" cx="862.14" cy="-134.96" rx="166.27" ry="18"/>
<text text-anchor="middle" x="862.14" y="-131.26" font-family="Times,serif" font-size="14.00">&quot;OceanWaveS WaMoS II 500 w...&quot;</text>
</g>
<!-- _&#45;&gt;&quot;OceanWaveS WaMoS II 500 w...&quot; -->
<g id="edge14" class="edge">
<title>_&#45;&gt;&quot;OceanWaveS WaMoS II 500 w...&quot;</title>
<path fill="none" stroke="black" d="M535.79,-279.07C541.52,-249.46 557.43,-190.79 596.76,-162.96 633.1,-137.23 679.61,-126.91 723.45,-124.05"/>
<polygon fill="black" stroke="black" points="723.84,-127.54 733.64,-123.52 723.47,-120.55 723.84,-127.54"/>
<text text-anchor="middle" x="637.26" y="-166.76" font-family="Times,serif" font-size="14.00">name</text>
</g>
<!-- Action -->
<g id="node13" class="node">
<title>Action</title>
<ellipse fill="none" stroke="#558855" cx="862.14" cy="-80.96" rx="40.09" ry="18"/>
<text text-anchor="middle" x="862.14" y="-77.26" font-family="Times,serif" font-size="14.00">Action</text>
</g>
<!-- _&#45;&gt;Action -->
<g id="edge16" class="edge">
<title>_&#45;&gt;Action</title>
<path fill="none" stroke="black" d="M533.2,-278.87C534.76,-240.96 544.19,-153.18 596.76,-110.96 628.81,-85.21 744.08,-80.77 811.37,-80.44"/>
<polygon fill="black" stroke="black" points="811.74,-83.94 821.74,-80.43 811.73,-76.94 811.74,-83.94"/>
<text text-anchor="middle" x="637.26" y="-114.76" font-family="Times,serif" font-size="14.00">type</text>
</g>
<!-- _&#45;&gt;Action -->
<g id="edge19" class="edge">
<title>_&#45;&gt;Action</title>
<path fill="none" stroke="black" d="M535.21,-279C541.77,-229.81 562.62,-94.85 596.76,-68.96 629.85,-43.85 748.1,-60.2 814.7,-71.97"/>
<polygon fill="black" stroke="black" points="814.46,-75.48 824.92,-73.81 815.7,-68.59 814.46,-75.48"/>
<text text-anchor="middle" x="637.26" y="-72.76" font-family="Times,serif" font-size="14.00">type</text>
</g>
<!-- &quot;Measurement of ocean stre...&quot; -->
<g id="node14" class="node">
<title>&quot;Measurement of ocean stre...&quot;</title>
<ellipse fill="none" stroke="black" stroke-width="0" cx="862.14" cy="-26.96" rx="155.17" ry="18"/>
<text text-anchor="middle" x="862.14" y="-23.26" font-family="Times,serif" font-size="14.00">&quot;Measurement of ocean stre...&quot;</text>
</g>
<!-- _&#45;&gt;&quot;Measurement of ocean stre...&quot; -->
<g id="edge21" class="edge">
<title>_&#45;&gt;&quot;Measurement of ocean stre...&quot;</title>
<path fill="none" stroke="black" d="M534.6,-278.86C539.9,-224.92 558.48,-67.07 596.76,-35.96 650.74,7.93 733.41,3.03 791.92,-8.29"/>
<polygon fill="black" stroke="black" points="791.32,-11.74 801.82,-10.31 792.72,-4.88 791.32,-11.74"/>
<text text-anchor="middle" x="637.26" y="-39.76" font-family="Times,serif" font-size="14.00">name</text>
</g>
</g>
</svg>