<?xml version="1.0" encoding="UTF-8" standalone="no"?>
<!DOCTYPE svg PUBLIC "-//W3C//DTD SVG 1.1//EN"
 "http://www.w3.org/Graphics/SVG/1.1/DTD/svg11.dtd">
<!-- Generated by graphviz version 2.43.0 (0)
 -->
<!-- Title: %3 Pages: 1 -->
<svg width="1183pt" height="314pt"
 viewBox="0.00 0.00 1183.12 314.00" xmlns="http://www.w3.org/2000/svg" xmlns:xlink="http://www.w3.org/1999/xlink">
<g id="graph0" class="graph" transform="scale(1 1) rotate(0) translate(4 310)">
<title>%3</title>
<polygon fill="white" stroke="transparent" points="-4,4 -4,-310 1179.12,-310 1179.12,4 -4,4"/>
<!-- ResearchProject -->
<g id="node1" class="node">
<title>ResearchProject</title>
<ellipse fill="none" stroke="#558855" cx="657.1" cy="-288" rx="87.18" ry="18"/>
<text text-anchor="middle" x="657.1" y="-284.3" font-family="Times,serif" font-size="14.00">ResearchProject</text>
</g>
<!-- example.org/permanentUrlToThisJsonDoc -->
<g id="node2" class="node">
<title>example.org/permanentUrlToThisJsonDoc</title>
<ellipse fill="none" stroke="black" cx="204.08" cy="-153" rx="204.16" ry="18"/>
<text text-anchor="middle" x="204.08" y="-149.3" font-family="Times,serif" font-size="14.00">example.org/permanentUrlToThisJsonDoc</text>
</g>
<!-- example.org/permanentUrlToThisJsonDoc&#45;&gt;ResearchProject -->
<g id="edge1" class="edge">
<title>example.org/permanentUrlToThisJsonDoc&#45;&gt;ResearchProject</title>
<path fill="none" stroke="black" d="M251.18,-170.54C312.9,-193.56 426.1,-234.18 525.16,-261 543.21,-265.88 562.85,-270.37 581.31,-274.22"/>
<polygon fill="black" stroke="black" points="580.63,-277.65 591.13,-276.23 582.04,-270.79 580.63,-277.65"/>
<text text-anchor="middle" x="466.66" y="-256.8" font-family="Times,serif" font-size="14.00">type</text>
</g>
<!-- &quot;Repo description ......&quot; -->
<g id="node3" class="node">
<title>&quot;Repo description ......&quot;</title>
<ellipse fill="none" stroke="black" stroke-width="0" cx="657.1" cy="-234" rx="118.08" ry="18"/>
<text text-anchor="middle" x="657.1" y="-230.3" font-family="Times,serif" font-size="14.00">&quot;Repo description ......&quot;</text>
</g>
<!-- example.org/permanentUrlToThisJsonDoc&#45;&gt;&quot;Repo description ......&quot; -->
<g id="edge2" class="edge">
<title>example.org/permanentUrlToThisJsonDoc&#45;&gt;&quot;Repo description ......&quot;</title>
<path fill="none" stroke="black" d="M295,-169.15C374.97,-183.51 491.12,-204.37 569.94,-218.53"/>
<polygon fill="black" stroke="black" points="569.38,-221.98 579.84,-220.3 570.62,-215.09 569.38,-221.98"/>
<text text-anchor="middle" x="466.66" y="-208.8" font-family="Times,serif" font-size="14.00">description</text>
</g>
<!-- _ -->
<g id="node4" class="node">
<title>_</title>
<ellipse fill="none" stroke="#558855" cx="657.1" cy="-180" rx="27" ry="18"/>
<text text-anchor="middle" x="657.1" y="-176.3" font-family="Times,serif" font-size="14.00">_</text>
</g>
<!-- example.org/permanentUrlToThisJsonDoc&#45;&gt;_ -->
<g id="edge3" class="edge">
<title>example.org/permanentUrlToThisJsonDoc&#45;&gt;_</title>
<path fill="none" stroke="black" d="M373.35,-163.07C463.28,-168.46 566.21,-174.62 619.63,-177.82"/>
<polygon fill="black" stroke="black" points="619.75,-181.33 629.95,-178.43 620.17,-174.34 619.75,-181.33"/>
<text text-anchor="middle" x="466.66" y="-173.8" font-family="Times,serif" font-size="14.00">identifier</text>
</g>
<!-- &quot;Example Data Reposit...&quot; -->
<g id="node5" class="node">
<title>&quot;Example Data Reposit...&quot;</title>
<ellipse fill="none" stroke="black" stroke-width="0" cx="657.1" cy="-126" rx="131.88" ry="18"/>
<text text-anchor="middle" x="657.1" y="-122.3" font-family="Times,serif" font-size="14.00">&quot;Example Data Reposit...&quot;</text>
</g>
<!-- example.org/permanentUrlToThisJsonDoc&#45;&gt;&quot;Example Data Reposit...&quot; -->
<g id="edge4" class="edge">
<title>example.org/permanentUrlToThisJsonDoc&#45;&gt;&quot;Example Data Reposit...&quot;</title>
<path fill="none" stroke="black" d="M373.35,-142.93C423.83,-139.91 478.41,-136.64 526.02,-133.79"/>
<polygon fill="black" stroke="black" points="526.3,-137.28 536.07,-133.19 525.88,-130.29 526.3,-137.28"/>
<text text-anchor="middle" x="466.66" y="-142.8" font-family="Times,serif" font-size="14.00">legalName</text>
</g>
<!-- &quot;ExDaRepo&quot; -->
<g id="node6" class="node">
<title>&quot;ExDaRepo&quot;</title>
<ellipse fill="none" stroke="black" stroke-width="0" cx="657.1" cy="-72" rx="67.69" ry="18"/>
<text text-anchor="middle" x="657.1" y="-68.3" font-family="Times,serif" font-size="14.00">&quot;ExDaRepo&quot;</text>
</g>
<!-- example.org/permanentUrlToThisJsonDoc&#45;&gt;&quot;ExDaRepo&quot; -->
<g id="edge5" class="edge">
<title>example.org/permanentUrlToThisJsonDoc&#45;&gt;&quot;ExDaRepo&quot;</title>
<path fill="none" stroke="black" d="M295,-136.85C382.18,-121.19 512.38,-97.81 590.3,-83.82"/>
<polygon fill="black" stroke="black" points="591.25,-87.2 600.48,-81.99 590.01,-80.31 591.25,-87.2"/>
<text text-anchor="middle" x="466.66" y="-115.8" font-family="Times,serif" font-size="14.00">name</text>
</g>
<!-- &quot;https//www.example&#45;d...&quot; -->
<g id="node7" class="node">
<title>&quot;https//www.example&#45;d...&quot;</title>
<ellipse fill="none" stroke="black" stroke-width="0" cx="657.1" cy="-18" rx="131.88" ry="18"/>
<text text-anchor="middle" x="657.1" y="-14.3" font-family="Times,serif" font-size="14.00">&quot;https//www.example&#45;d...&quot;</text>
</g>
<!-- example.org/permanentUrlToThisJsonDoc&#45;&gt;&quot;https//www.example&#45;d...&quot; -->
<g id="edge6" class="edge">
<title>example.org/permanentUrlToThisJsonDoc&#45;&gt;&quot;https//www.example&#45;d...&quot;</title>
<path fill="none" stroke="black" d="M251.18,-135.46C312.9,-112.44 426.1,-71.82 525.16,-45 539,-41.25 553.78,-37.75 568.24,-34.58"/>
<polygon fill="black" stroke="black" points="569.15,-37.96 578.19,-32.44 567.67,-31.12 569.15,-37.96"/>
<text text-anchor="middle" x="466.66" y="-77.8" font-family="Times,serif" font-size="14.00">url</text>
</g>
<!-- PropertyValue -->
<g id="node8" class="node">
<title>PropertyValue</title>
<ellipse fill="none" stroke="#558855" cx="1040.58" cy="-261" rx="77.19" ry="18"/>
<text text-anchor="middle" x="1040.58" y="-257.3" font-family="Times,serif" font-size="14.00">PropertyValue</text>
</g>
<!-- _&#45;&gt;PropertyValue -->
<g id="edge7" class="edge">
<title>_&#45;&gt;PropertyValue</title>
<path fill="none" stroke="black" d="M683.51,-183.94C710.12,-188.37 752.98,-196.35 789.04,-207 797.27,-209.43 798.8,-211.59 807.04,-214 859.33,-229.33 919.67,-241.37 965.79,-249.42"/>
<polygon fill="black" stroke="black" points="965.25,-252.88 975.7,-251.13 966.44,-245.98 965.25,-252.88"/>
<text text-anchor="middle" x="847.54" y="-236.8" font-family="Times,serif" font-size="14.00">type</text>
</g>
<!-- &quot;UN Department of Eco...&quot; -->
<g id="node9" class="node">
<title>&quot;UN Department of Eco...&quot;</title>
<ellipse fill="none" stroke="black" stroke-width="0" cx="1040.58" cy="-207" rx="134.58" ry="18"/>
<text text-anchor="middle" x="1040.58" y="-203.3" font-family="Times,serif" font-size="14.00">&quot;UN Department of Eco...&quot;</text>
</g>
<!-- _&#45;&gt;&quot;UN Department of Eco...&quot; -->
<g id="edge8" class="edge">
<title>_&#45;&gt;&quot;UN Department of Eco...&quot;</title>
<path fill="none" stroke="black" d="M684.02,-181.83C730.14,-185.1 829.31,-192.12 911.23,-197.92"/>
<polygon fill="black" stroke="black" points="911.16,-201.42 921.38,-198.63 911.65,-194.44 911.16,-201.42"/>
<text text-anchor="middle" x="847.54" y="-198.8" font-family="Times,serif" font-size="14.00">description</text>
</g>
<!-- &quot;https//registry.iden...&quot; -->
<g id="node10" class="node">
<title>&quot;https//registry.iden...&quot;</title>
<ellipse fill="none" stroke="black" stroke-width="0" cx="1040.58" cy="-153" rx="116.98" ry="18"/>
<text text-anchor="middle" x="1040.58" y="-149.3" font-family="Times,serif" font-size="14.00">&quot;https//registry.iden...&quot;</text>
</g>
<!-- _&#45;&gt;&quot;https//registry.iden...&quot; -->
<g id="edge9" class="edge">
<title>_&#45;&gt;&quot;https//registry.iden...&quot;</title>
<path fill="none" stroke="black" d="M684.02,-178.17C732.53,-174.73 839.7,-167.15 923.78,-161.2"/>
<polygon fill="black" stroke="black" points="924.18,-164.68 933.91,-160.48 923.69,-157.69 924.18,-164.68"/>
<text text-anchor="middle" x="847.54" y="-171.8" font-family="Times,serif" font-size="14.00">propertyID</text>
</g>
<!-- &quot;https//grid.ac/insti...&quot; -->
<g id="node11" class="node">
<title>&quot;https//grid.ac/insti...&quot;</title>
<ellipse fill="none" stroke="black" stroke-width="0" cx="1040.58" cy="-99" rx="114.28" ry="18"/>
<text text-anchor="middle" x="1040.58" y="-95.3" font-family="Times,serif" font-size="14.00">&quot;https//grid.ac/insti...&quot;</text>
</g>
<!-- _&#45;&gt;&quot;https//grid.ac/insti...&quot; -->
<g id="edge10" class="edge">
<title>_&#45;&gt;&quot;https//grid.ac/insti...&quot;</title>
<path fill="none" stroke="black" d="M683.62,-176.4C710.32,-172.26 753.24,-164.5 789.04,-153 797.38,-150.32 798.69,-147.64 807.04,-145 851.62,-130.88 902.45,-120.23 945.19,-112.75"/>
<polygon fill="black" stroke="black" points="946.04,-116.16 955.3,-111.02 944.85,-109.26 946.04,-116.16"/>
<text text-anchor="middle" x="847.54" y="-148.8" font-family="Times,serif" font-size="14.00">url</text>
</g>
</g>
</svg>