<?xml version="1.0" encoding="UTF-8" standalone="no"?>
<!DOCTYPE svg PUBLIC "-//W3C//DTD SVG 1.1//EN"
 "http://www.w3.org/Graphics/SVG/1.1/DTD/svg11.dtd">
<!-- Generated by graphviz version 2.43.0 (0)
 -->
<!-- Title: %3 Pages: 1 -->
<svg width="1096pt" height="492pt"
 viewBox="0.00 0.00 1095.63 492.00" xmlns="http://www.w3.org/2000/svg" xmlns:xlink="http://www.w3.org/1999/xlink">
<g id="graph0" class="graph" transform="scale(1 1) rotate(0) translate(4 488)">
<title>%3</title>
<polygon fill="white" stroke="transparent" points="-4,4 -4,-488 1091.63,-488 1091.63,4 -4,4"/>
<!-- Dataset -->
<g id="node1" class="node">
<title>Dataset</title>
<ellipse fill="none" stroke="#558855" cx="620.96" cy="-331" rx="46.59" ry="18"/>
<text text-anchor="middle" x="620.96" y="-327.3" font-family="Times,serif" font-size="14.00">Dataset</text>
</g>
<!-- example.org/permanentUrlToThisJsonDoc -->
<g id="node2" class="node">
<title>example.org/permanentUrlToThisJsonDoc</title>
<ellipse fill="none" stroke="black" cx="204.08" cy="-293" rx="204.16" ry="18"/>
<text text-anchor="middle" x="204.08" y="-289.3" font-family="Times,serif" font-size="14.00">example.org/permanentUrlToThisJsonDoc</text>
</g>
<!-- example.org/permanentUrlToThisJsonDoc&#45;&gt;Dataset -->
<g id="edge1" class="edge">
<title>example.org/permanentUrlToThisJsonDoc&#45;&gt;Dataset</title>
<path fill="none" stroke="black" d="M346.41,-305.94C421.57,-312.83 509.67,-320.9 565.15,-325.98"/>
<polygon fill="black" stroke="black" points="564.84,-329.47 575.12,-326.89 565.48,-322.5 564.84,-329.47"/>
<text text-anchor="middle" x="491.16" y="-327.8" font-family="Times,serif" font-size="14.00">type</text>
</g>
<!-- _ -->
<g id="node3" class="node">
<title>_</title>
<ellipse fill="none" stroke="#558855" cx="620.96" cy="-266" rx="27" ry="18"/>
<text text-anchor="middle" x="620.96" y="-262.3" font-family="Times,serif" font-size="14.00">_</text>
</g>
<!-- example.org/permanentUrlToThisJsonDoc&#45;&gt;_ -->
<g id="edge2" class="edge">
<title>example.org/permanentUrlToThisJsonDoc&#45;&gt;_</title>
<path fill="none" stroke="black" d="M373.87,-282.96C431.69,-279.38 496.77,-275.19 556.16,-271 565.08,-270.37 574.7,-269.64 583.7,-268.94"/>
<polygon fill="black" stroke="black" points="584.2,-272.41 593.89,-268.14 583.65,-265.43 584.2,-272.41"/>
<text text-anchor="middle" x="491.16" y="-282.8" font-family="Times,serif" font-size="14.00">variableMeasured</text>
</g>
<!-- example.org/permanentUrlToThisJsonDoc&#45;&gt;_ -->
<g id="edge3" class="edge">
<title>example.org/permanentUrlToThisJsonDoc&#45;&gt;_</title>
<path fill="none" stroke="black" d="M277.3,-276.14C320.27,-266.99 376.02,-256.61 426.16,-252 483.7,-246.71 498.72,-245.77 556.16,-252 565.85,-253.05 576.22,-254.97 585.73,-257.06"/>
<polygon fill="black" stroke="black" points="585.09,-260.51 595.63,-259.36 586.68,-253.69 585.09,-260.51"/>
<text text-anchor="middle" x="491.16" y="-255.8" font-family="Times,serif" font-size="14.00">variableMeasured</text>
</g>
<!-- PropertyValue -->
<g id="node4" class="node">
<title>PropertyValue</title>
<ellipse fill="none" stroke="#558855" cx="936.19" cy="-453" rx="77.19" ry="18"/>
<text text-anchor="middle" x="936.19" y="-449.3" font-family="Times,serif" font-size="14.00">PropertyValue</text>
</g>
<!-- _&#45;&gt;PropertyValue -->
<g id="edge4" class="edge">
<title>_&#45;&gt;PropertyValue</title>
<path fill="none" stroke="black" d="M641.9,-277.61C651.29,-284.14 661.73,-293.17 667.76,-304 696.12,-354.97 643.26,-394.04 685.76,-434 735.01,-480.31 816.58,-477.33 872.96,-467.88"/>
<polygon fill="black" stroke="black" points="873.61,-471.32 882.83,-466.11 872.38,-464.43 873.61,-471.32"/>
<text text-anchor="middle" x="726.26" y="-472.8" font-family="Times,serif" font-size="14.00">type</text>
</g>
<!-- _&#45;&gt;PropertyValue -->
<g id="edge9" class="edge">
<title>_&#45;&gt;PropertyValue</title>
<path fill="none" stroke="black" d="M641.61,-277.77C650.93,-284.34 661.39,-293.36 667.76,-304 688.46,-338.64 658.17,-363.54 685.76,-393 711.25,-420.23 731.61,-402.5 766.76,-415 775,-417.93 776.41,-420.35 784.76,-423 809.07,-430.72 836.26,-436.87 860.76,-441.53"/>
<polygon fill="black" stroke="black" points="860.25,-445 870.72,-443.38 861.52,-438.11 860.25,-445"/>
<text text-anchor="middle" x="726.26" y="-418.8" font-family="Times,serif" font-size="14.00">type</text>
</g>
<!-- &quot;Sea State is the characte...&quot; -->
<g id="node5" class="node">
<title>&quot;Sea State is the characte...&quot;</title>
<ellipse fill="none" stroke="black" stroke-width="0" cx="936.19" cy="-396" rx="144.87" ry="18"/>
<text text-anchor="middle" x="936.19" y="-392.3" font-family="Times,serif" font-size="14.00">&quot;Sea State is the characte...&quot;</text>
</g>
<!-- _&#45;&gt;&quot;Sea State is the characte...&quot; -->
<g id="edge5" class="edge">
<title>_&#45;&gt;&quot;Sea State is the characte...&quot;</title>
<path fill="none" stroke="black" d="M640.76,-278.34C649.85,-285.06 660.38,-294.04 667.76,-304 680.08,-320.65 669.86,-333.71 685.76,-347 705.71,-363.69 760.19,-375.4 813.17,-383.18"/>
<polygon fill="black" stroke="black" points="812.99,-386.69 823.38,-384.63 813.97,-379.76 812.99,-386.69"/>
<text text-anchor="middle" x="726.26" y="-377.8" font-family="Times,serif" font-size="14.00">description</text>
</g>
<!-- &quot;Sea State&quot; -->
<g id="node6" class="node">
<title>&quot;Sea State&quot;</title>
<ellipse fill="none" stroke="black" stroke-width="0" cx="936.19" cy="-342" rx="64.19" ry="18"/>
<text text-anchor="middle" x="936.19" y="-338.3" font-family="Times,serif" font-size="14.00">&quot;Sea State&quot;</text>
</g>
<!-- _&#45;&gt;&quot;Sea State&quot; -->
<g id="edge6" class="edge">
<title>_&#45;&gt;&quot;Sea State&quot;</title>
<path fill="none" stroke="black" d="M638.74,-279.68C651.02,-288.93 668.47,-300.59 685.76,-307 742.52,-328.06 810.85,-336.58 861.63,-339.96"/>
<polygon fill="black" stroke="black" points="861.67,-343.47 871.86,-340.59 862.1,-336.48 861.67,-343.47"/>
<text text-anchor="middle" x="726.26" y="-331.8" font-family="Times,serif" font-size="14.00">name</text>
</g>
<!-- &quot;http//purl.obolibrary.org...&quot; -->
<g id="node7" class="node">
<title>&quot;http//purl.obolibrary.org...&quot;</title>
<ellipse fill="none" stroke="black" stroke-width="0" cx="936.19" cy="-288" rx="140.28" ry="18"/>
<text text-anchor="middle" x="936.19" y="-284.3" font-family="Times,serif" font-size="14.00">&quot;http//purl.obolibrary.org...&quot;</text>
</g>
<!-- _&#45;&gt;&quot;http//purl.obolibrary.org...&quot; -->
<g id="edge7" class="edge">
<title>_&#45;&gt;&quot;http//purl.obolibrary.org...&quot;</title>
<path fill="none" stroke="black" d="M645.95,-273.36C657.81,-276.65 672.4,-280.19 685.76,-282 718.14,-286.4 753.1,-288.72 786.31,-289.81"/>
<polygon fill="black" stroke="black" points="786.45,-293.32 796.55,-290.12 786.66,-286.32 786.45,-293.32"/>
<text text-anchor="middle" x="726.26" y="-291.8" font-family="Times,serif" font-size="14.00">propertyID</text>
</g>
<!-- _&#45;&gt;&quot;http//purl.obolibrary.org...&quot; -->
<g id="edge12" class="edge">
<title>_&#45;&gt;&quot;http//purl.obolibrary.org...&quot;</title>
<path fill="none" stroke="black" d="M648.02,-264.5C659.58,-263.9 673.34,-263.29 685.76,-263 721.75,-262.15 730.85,-260.35 766.76,-263 791.76,-264.85 818.69,-268.21 843.51,-271.89"/>
<polygon fill="black" stroke="black" points="843.23,-275.39 853.65,-273.42 844.28,-268.47 843.23,-275.39"/>
<text text-anchor="middle" x="726.26" y="-266.8" font-family="Times,serif" font-size="14.00">propertyID</text>
</g>
<!-- &quot;https//gcmd.earthdata.nas...&quot; -->
<g id="node8" class="node">
<title>&quot;https//gcmd.earthdata.nas...&quot;</title>
<ellipse fill="none" stroke="black" stroke-width="0" cx="936.19" cy="-234" rx="151.37" ry="18"/>
<text text-anchor="middle" x="936.19" y="-230.3" font-family="Times,serif" font-size="14.00">&quot;https//gcmd.earthdata.nas...&quot;</text>
</g>
<!-- _&#45;&gt;&quot;https//gcmd.earthdata.nas...&quot; -->
<g id="edge8" class="edge">
<title>_&#45;&gt;&quot;https//gcmd.earthdata.nas...&quot;</title>
<path fill="none" stroke="black" d="M643.58,-255.84C655.7,-250.67 671.25,-244.88 685.76,-242 714.96,-236.2 746.47,-232.94 776.93,-231.27"/>
<polygon fill="black" stroke="black" points="777.4,-234.75 787.22,-230.77 777.06,-227.76 777.4,-234.75"/>
<text text-anchor="middle" x="726.26" y="-245.8" font-family="Times,serif" font-size="14.00">propertyID</text>
</g>
<!-- &quot;The 2&#45;dimensional horizon...&quot; -->
<g id="node9" class="node">
<title>&quot;The 2&#45;dimensional horizon...&quot;</title>
<ellipse fill="none" stroke="black" stroke-width="0" cx="936.19" cy="-180" rx="150.57" ry="18"/>
<text text-anchor="middle" x="936.19" y="-176.3" font-family="Times,serif" font-size="14.00">&quot;The 2&#45;dimensional horizon...&quot;</text>
</g>
<!-- _&#45;&gt;&quot;The 2&#45;dimensional horizon...&quot; -->
<g id="edge10" class="edge">
<title>_&#45;&gt;&quot;The 2&#45;dimensional horizon...&quot;</title>
<path fill="none" stroke="black" d="M636.09,-250.54C648.07,-238.49 666.36,-222.42 685.76,-214 715.91,-200.91 749.88,-192.57 782.82,-187.33"/>
<polygon fill="black" stroke="black" points="783.63,-190.75 793,-185.8 782.59,-183.82 783.63,-190.75"/>
<text text-anchor="middle" x="726.26" y="-217.8" font-family="Times,serif" font-size="14.00">description</text>
</g>
<!-- &quot;Ocean Surface Stress&quot; -->
<g id="node10" class="node">
<title>&quot;Ocean Surface Stress&quot;</title>
<ellipse fill="none" stroke="black" stroke-width="0" cx="936.19" cy="-126" rx="119.68" ry="18"/>
<text text-anchor="middle" x="936.19" y="-122.3" font-family="Times,serif" font-size="14.00">&quot;Ocean Surface Stress&quot;</text>
</g>
<!-- _&#45;&gt;&quot;Ocean Surface Stress&quot; -->
<g id="edge11" class="edge">
<title>_&#45;&gt;&quot;Ocean Surface Stress&quot;</title>
<path fill="none" stroke="black" d="M628.74,-248.68C638.14,-227.09 657.25,-190.76 685.76,-172 721.51,-148.47 766.08,-136.17 807.61,-129.98"/>
<polygon fill="black" stroke="black" points="808.11,-133.44 817.53,-128.6 807.15,-126.51 808.11,-133.44"/>
<text text-anchor="middle" x="726.26" y="-175.8" font-family="Times,serif" font-size="14.00">name</text>
</g>
<!-- &quot;http//qudt.org/vocab/unit...&quot; -->
<g id="node11" class="node">
<title>&quot;http//qudt.org/vocab/unit...&quot;</title>
<ellipse fill="none" stroke="black" stroke-width="0" cx="936.19" cy="-72" rx="144.87" ry="18"/>
<text text-anchor="middle" x="936.19" y="-68.3" font-family="Times,serif" font-size="14.00">&quot;http//qudt.org/vocab/unit...&quot;</text>
</g>
<!-- _&#45;&gt;&quot;http//qudt.org/vocab/unit...&quot; -->
<g id="edge13" class="edge">
<title>_&#45;&gt;&quot;http//qudt.org/vocab/unit...&quot;</title>
<path fill="none" stroke="black" d="M624.61,-247.69C630.12,-216.63 645.8,-153.81 685.76,-121 713.5,-98.22 748.8,-84.96 784.06,-77.49"/>
<polygon fill="black" stroke="black" points="784.86,-80.9 793.99,-75.53 783.5,-74.03 784.86,-80.9"/>
<text text-anchor="middle" x="726.26" y="-124.8" font-family="Times,serif" font-size="14.00">unitCode</text>
</g>
<!-- &quot;2.000000000000000E&#45;01&quot; -->
<g id="node12" class="node">
<title>&quot;2.000000000000000E&#45;01&quot;</title>
<ellipse fill="none" stroke="black" stroke-width="0" cx="936.19" cy="-18" rx="137.58" ry="18"/>
<text text-anchor="middle" x="936.19" y="-14.3" font-family="Times,serif" font-size="14.00">&quot;2.000000000000000E&#45;01&quot;</text>
</g>
<!-- _&#45;&gt;&quot;2.000000000000000E&#45;01&quot; -->
<g id="edge14" class="edge">
<title>_&#45;&gt;&quot;2.000000000000000E&#45;01&quot;</title>
<path fill="none" stroke="black" d="M621.9,-247.95C622.82,-208.21 630.95,-112.78 685.76,-64 713.99,-38.87 751.33,-25.42 788.5,-18.65"/>
<polygon fill="black" stroke="black" points="789.16,-22.08 798.45,-16.99 788.01,-15.18 789.16,-22.08"/>
<text text-anchor="middle" x="726.26" y="-67.8" font-family="Times,serif" font-size="14.00">value</text>
</g>
</g>
</svg>