<?xml version="1.0" encoding="UTF-8" standalone="no"?>
<!DOCTYPE svg PUBLIC "-//W3C//DTD SVG 1.1//EN"
 "http://www.w3.org/Graphics/SVG/1.1/DTD/svg11.dtd">
<!-- Generated by graphviz version 2.43.0 (0)
 -->
<!-- Title: %3 Pages: 1 -->
<svg width="947pt" height="530pt"
 viewBox="0.00 0.00 947.14 530.00" xmlns="http://www.w3.org/2000/svg" xmlns:xlink="http://www.w3.org/1999/xlink">
<g id="graph0" class="graph" transform="scale(1 1) rotate(0) translate(4 526)">
<title>%3</title>
<polygon fill="white" stroke="transparent" points="-4,4 -4,-526 943.14,-526 943.14,4 -4,4"/>
<!-- Vehicle -->
<g id="node1" class="node">
<title>Vehicle</title>
<ellipse fill="none" stroke="#558855" cx="403.97" cy="-450" rx="44.39" ry="18"/>
<text text-anchor="middle" x="403.97" y="-446.3" font-family="Times,serif" font-size="14.00">Vehicle</text>
</g>
<!-- example.org/id/X -->
<g id="node2" class="node">
<title>example.org/id/X</title>
<ellipse fill="none" stroke="black" cx="89.04" cy="-369" rx="89.08" ry="18"/>
<text text-anchor="middle" x="89.04" y="-365.3" font-family="Times,serif" font-size="14.00">example.org/id/X</text>
</g>
<!-- example.org/id/X&#45;&gt;Vehicle -->
<g id="edge1" class="edge">
<title>example.org/id/X&#45;&gt;Vehicle</title>
<path fill="none" stroke="black" d="M136.83,-384.28C155.22,-390.09 176.57,-396.61 196.08,-402 249.77,-416.82 312.13,-430.86 354.24,-439.88"/>
<polygon fill="black" stroke="black" points="353.71,-443.35 364.22,-442.01 355.17,-436.5 353.71,-443.35"/>
<text text-anchor="middle" x="230.58" y="-422.8" font-family="Times,serif" font-size="14.00">type</text>
</g>
<!-- example.org/id/vessel/X -->
<g id="node3" class="node">
<title>example.org/id/vessel/X</title>
<ellipse fill="none" stroke="#558855" cx="403.97" cy="-396" rx="120.78" ry="18"/>
<text text-anchor="middle" x="403.97" y="-392.3" font-family="Times,serif" font-size="14.00">example.org/id/vessel/X</text>
</g>
<!-- example.org/id/X&#45;&gt;example.org/id/vessel/X -->
<g id="edge2" class="edge">
<title>example.org/id/X&#45;&gt;example.org/id/vessel/X</title>
<path fill="none" stroke="black" d="M171.44,-376.02C207.19,-379.11 249.78,-382.78 288.62,-386.13"/>
<polygon fill="black" stroke="black" points="288.68,-389.65 298.94,-387.02 289.28,-382.68 288.68,-389.65"/>
<text text-anchor="middle" x="230.58" y="-386.8" font-family="Times,serif" font-size="14.00">identifier</text>
</g>
<!-- &quot;JOIDES Resolution&quot; -->
<g id="node4" class="node">
<title>&quot;JOIDES Resolution&quot;</title>
<ellipse fill="none" stroke="black" stroke-width="0" cx="403.97" cy="-342" rx="106.68" ry="18"/>
<text text-anchor="middle" x="403.97" y="-338.3" font-family="Times,serif" font-size="14.00">&quot;JOIDES Resolution&quot;</text>
</g>
<!-- example.org/id/X&#45;&gt;&quot;JOIDES Resolution&quot; -->
<g id="edge3" class="edge">
<title>example.org/id/X&#45;&gt;&quot;JOIDES Resolution&quot;</title>
<path fill="none" stroke="black" d="M169.94,-361.36C178.76,-360.55 187.61,-359.75 196.08,-359 228.8,-356.11 264.45,-353.13 296.78,-350.48"/>
<polygon fill="black" stroke="black" points="297.48,-353.93 307.16,-349.63 296.91,-346.96 297.48,-353.93"/>
<text text-anchor="middle" x="230.58" y="-362.8" font-family="Times,serif" font-size="14.00">name</text>
</g>
<!-- _ -->
<g id="node5" class="node">
<title>_</title>
<ellipse fill="none" stroke="#558855" cx="403.97" cy="-180" rx="27" ry="18"/>
<text text-anchor="middle" x="403.97" y="-176.3" font-family="Times,serif" font-size="14.00">_</text>
</g>
<!-- example.org/id/X&#45;&gt;_ -->
<g id="edge4" class="edge">
<title>example.org/id/X&#45;&gt;_</title>
<path fill="none" stroke="black" d="M118.36,-351.89C177.77,-316.01 314.83,-233.23 374.43,-197.24"/>
<polygon fill="black" stroke="black" points="376.56,-200.04 383.31,-191.88 372.94,-194.05 376.56,-200.04"/>
<text text-anchor="middle" x="230.58" y="-305.8" font-family="Times,serif" font-size="14.00">subjectOf</text>
</g>
<!-- PropertyValue -->
<g id="node6" class="node">
<title>PropertyValue</title>
<ellipse fill="none" stroke="#558855" cx="808.5" cy="-504" rx="77.19" ry="18"/>
<text text-anchor="middle" x="808.5" y="-500.3" font-family="Times,serif" font-size="14.00">PropertyValue</text>
</g>
<!-- example.org/id/vessel/X&#45;&gt;PropertyValue -->
<g id="edge5" class="edge">
<title>example.org/id/vessel/X&#45;&gt;PropertyValue</title>
<path fill="none" stroke="black" d="M493.89,-408.08C504.86,-411.81 515.49,-416.68 524.86,-423 536.51,-430.86 531.15,-441.24 542.86,-449 595.53,-483.89 665.98,-497.29 720.96,-502.16"/>
<polygon fill="black" stroke="black" points="720.78,-505.66 731.03,-502.97 721.35,-498.68 720.78,-505.66"/>
<text text-anchor="middle" x="601.36" y="-496.8" font-family="Times,serif" font-size="14.00">type</text>
</g>
<!-- &quot;Vessel ID &quot; -->
<g id="node7" class="node">
<title>&quot;Vessel ID &quot;</title>
<ellipse fill="none" stroke="black" stroke-width="0" cx="808.5" cy="-450" rx="65.79" ry="18"/>
<text text-anchor="middle" x="808.5" y="-446.3" font-family="Times,serif" font-size="14.00">&quot;Vessel ID &quot;</text>
</g>
<!-- example.org/id/vessel/X&#45;&gt;&quot;Vessel ID &quot; -->
<g id="edge6" class="edge">
<title>example.org/id/vessel/X&#45;&gt;&quot;Vessel ID &quot;</title>
<path fill="none" stroke="black" d="M493.24,-408.23C509.73,-410.5 526.82,-412.83 542.86,-415 609.42,-423.99 685.42,-434.01 738.85,-441.02"/>
<polygon fill="black" stroke="black" points="738.52,-444.51 748.89,-442.34 739.43,-437.57 738.52,-444.51"/>
<text text-anchor="middle" x="601.36" y="-433.8" font-family="Times,serif" font-size="14.00">description</text>
</g>
<!-- &quot;https//en.wikipedia....&quot; -->
<g id="node8" class="node">
<title>&quot;https//en.wikipedia....&quot;</title>
<ellipse fill="none" stroke="black" stroke-width="0" cx="808.5" cy="-396" rx="120.48" ry="18"/>
<text text-anchor="middle" x="808.5" y="-392.3" font-family="Times,serif" font-size="14.00">&quot;https//en.wikipedia....&quot;</text>
</g>
<!-- example.org/id/vessel/X&#45;&gt;&quot;https//en.wikipedia....&quot; -->
<g id="edge7" class="edge">
<title>example.org/id/vessel/X&#45;&gt;&quot;https//en.wikipedia....&quot;</title>
<path fill="none" stroke="black" d="M524.93,-396C573.16,-396 628.88,-396 678.03,-396"/>
<polygon fill="black" stroke="black" points="678.09,-399.5 688.09,-396 678.09,-392.5 678.09,-399.5"/>
<text text-anchor="middle" x="601.36" y="-399.8" font-family="Times,serif" font-size="14.00">propertyID</text>
</g>
<!-- &quot;https//example.org/i...&quot; -->
<g id="node9" class="node">
<title>&quot;https//example.org/i...&quot;</title>
<ellipse fill="none" stroke="black" stroke-width="0" cx="808.5" cy="-342" rx="122.38" ry="18"/>
<text text-anchor="middle" x="808.5" y="-338.3" font-family="Times,serif" font-size="14.00">&quot;https//example.org/i...&quot;</text>
</g>
<!-- example.org/id/vessel/X&#45;&gt;&quot;https//example.org/i...&quot; -->
<g id="edge8" class="edge">
<title>example.org/id/vessel/X&#45;&gt;&quot;https//example.org/i...&quot;</title>
<path fill="none" stroke="black" d="M493.24,-383.77C509.73,-381.5 526.82,-379.17 542.86,-377 596.89,-369.7 657.15,-361.72 706.51,-355.23"/>
<polygon fill="black" stroke="black" points="707.09,-358.68 716.54,-353.91 706.17,-351.74 707.09,-358.68"/>
<text text-anchor="middle" x="601.36" y="-380.8" font-family="Times,serif" font-size="14.00">url</text>
</g>
<!-- DataDownload -->
<g id="node10" class="node">
<title>DataDownload</title>
<ellipse fill="none" stroke="#558855" cx="808.5" cy="-288" rx="78.79" ry="18"/>
<text text-anchor="middle" x="808.5" y="-284.3" font-family="Times,serif" font-size="14.00">DataDownload</text>
</g>
<!-- _&#45;&gt;DataDownload -->
<g id="edge9" class="edge">
<title>_&#45;&gt;DataDownload</title>
<path fill="none" stroke="black" d="M427.04,-189.76C453.95,-201.37 501.03,-220.7 542.86,-233 606.3,-251.65 680.09,-266.43 733.61,-275.96"/>
<polygon fill="black" stroke="black" points="733.24,-279.45 743.69,-277.73 734.45,-272.55 733.24,-279.45"/>
<text text-anchor="middle" x="601.36" y="-264.8" font-family="Times,serif" font-size="14.00">type</text>
</g>
<!-- &quot;2019&#45;06&#45;12T144415Z&quot; -->
<g id="node11" class="node">
<title>&quot;2019&#45;06&#45;12T144415Z&quot;</title>
<ellipse fill="none" stroke="black" stroke-width="0" cx="808.5" cy="-234" rx="119.68" ry="18"/>
<text text-anchor="middle" x="808.5" y="-230.3" font-family="Times,serif" font-size="14.00">&quot;2019&#45;06&#45;12T144415Z&quot;</text>
</g>
<!-- _&#45;&gt;&quot;2019&#45;06&#45;12T144415Z&quot; -->
<g id="edge10" class="edge">
<title>_&#45;&gt;&quot;2019&#45;06&#45;12T144415Z&quot;</title>
<path fill="none" stroke="black" d="M430.64,-183.58C458.32,-187.43 503.71,-193.71 542.86,-199 597.32,-206.35 658.11,-214.4 707.68,-220.93"/>
<polygon fill="black" stroke="black" points="707.39,-224.42 717.76,-222.25 708.3,-217.48 707.39,-224.42"/>
<text text-anchor="middle" x="601.36" y="-217.8" font-family="Times,serif" font-size="14.00">dateModified</text>
</g>
<!-- &quot;Metadata describing ...&quot; -->
<g id="node12" class="node">
<title>&quot;Metadata describing ...&quot;</title>
<ellipse fill="none" stroke="black" stroke-width="0" cx="808.5" cy="-180" rx="127.28" ry="18"/>
<text text-anchor="middle" x="808.5" y="-176.3" font-family="Times,serif" font-size="14.00">&quot;Metadata describing ...&quot;</text>
</g>
<!-- _&#45;&gt;&quot;Metadata describing ...&quot; -->
<g id="edge11" class="edge">
<title>_&#45;&gt;&quot;Metadata describing ...&quot;</title>
<path fill="none" stroke="black" d="M431.07,-180C478.92,-180 583.74,-180 670.64,-180"/>
<polygon fill="black" stroke="black" points="670.88,-183.5 680.88,-180 670.88,-176.5 670.88,-183.5"/>
<text text-anchor="middle" x="601.36" y="-183.8" font-family="Times,serif" font-size="14.00">description</text>
</g>
<!-- &quot;application/xml&quot; -->
<g id="node13" class="node">
<title>&quot;application/xml&quot;</title>
<ellipse fill="none" stroke="black" stroke-width="0" cx="808.5" cy="-126" rx="90.98" ry="18"/>
<text text-anchor="middle" x="808.5" y="-122.3" font-family="Times,serif" font-size="14.00">&quot;application/xml&quot;</text>
</g>
<!-- _&#45;&gt;&quot;application/xml&quot; -->
<g id="edge12" class="edge">
<title>_&#45;&gt;&quot;application/xml&quot;</title>
<path fill="none" stroke="black" d="M430.64,-176.42C458.32,-172.57 503.71,-166.29 542.86,-161 602.71,-152.92 670.2,-144 722.05,-137.18"/>
<polygon fill="black" stroke="black" points="722.74,-140.62 732.2,-135.85 721.83,-133.68 722.74,-140.62"/>
<text text-anchor="middle" x="601.36" y="-164.8" font-family="Times,serif" font-size="14.00">encodingFormat</text>
</g>
<!-- &quot;https//foo.org/ship0...&quot; -->
<g id="node14" class="node">
<title>&quot;https//foo.org/ship0...&quot;</title>
<ellipse fill="none" stroke="black" stroke-width="0" cx="808.5" cy="-72" rx="119.68" ry="18"/>
<text text-anchor="middle" x="808.5" y="-68.3" font-family="Times,serif" font-size="14.00">&quot;https//foo.org/ship0...&quot;</text>
</g>
<!-- _&#45;&gt;&quot;https//foo.org/ship0...&quot; -->
<g id="edge13" class="edge">
<title>_&#45;&gt;&quot;https//foo.org/ship0...&quot;</title>
<path fill="none" stroke="black" d="M427.01,-170C453.89,-158.13 500.95,-138.38 542.86,-126 599.36,-109.31 664.13,-96 715.46,-86.76"/>
<polygon fill="black" stroke="black" points="716.3,-90.17 725.54,-84.97 715.08,-83.28 716.3,-90.17"/>
<text text-anchor="middle" x="601.36" y="-129.8" font-family="Times,serif" font-size="14.00">encodingFormat</text>
</g>
<!-- &quot;external&#45;metadata.xm...&quot; -->
<g id="node15" class="node">
<title>&quot;external&#45;metadata.xm...&quot;</title>
<ellipse fill="none" stroke="black" stroke-width="0" cx="808.5" cy="-18" rx="130.78" ry="18"/>
<text text-anchor="middle" x="808.5" y="-14.3" font-family="Times,serif" font-size="14.00">&quot;external&#45;metadata.xm...&quot;</text>
</g>
<!-- _&#45;&gt;&quot;external&#45;metadata.xm...&quot; -->
<g id="edge14" class="edge">
<title>_&#45;&gt;&quot;external&#45;metadata.xm...&quot;</title>
<path fill="none" stroke="black" d="M420.18,-165.49C444.26,-143.31 493.52,-101.13 542.86,-78 591.95,-54.99 650.38,-40.55 699.83,-31.61"/>
<polygon fill="black" stroke="black" points="700.67,-35.02 709.92,-29.84 699.46,-28.12 700.67,-35.02"/>
<text text-anchor="middle" x="601.36" y="-81.8" font-family="Times,serif" font-size="14.00">name</text>
</g>
</g>
</svg>