<?xml version="1.0" encoding="UTF-8" standalone="no"?>
<!DOCTYPE svg PUBLIC "-//W3C//DTD SVG 1.1//EN"
 "http://www.w3.org/Graphics/SVG/1.1/DTD/svg11.dtd">
<!-- Generated by graphviz version 2.43.0 (0)
 -->
<!-- Title: %3 Pages: 1 -->
<svg width="1141pt" height="206pt"
 viewBox="0.00 0.00 1140.82 206.00" xmlns="http://www.w3.org/2000/svg" xmlns:xlink="http://www.w3.org/1999/xlink">
<g id="graph0" class="graph" transform="scale(1 1) rotate(0) translate(4 202)">
<title>%3</title>
<polygon fill="white" stroke="transparent" points="-4,4 -4,-202 1136.82,-202 1136.82,4 -4,4"/>
<!-- PropertyValue -->
<g id="node1" class="node">
<title>PropertyValue</title>
<ellipse fill="none" stroke="#558855" cx="970.33" cy="-180" rx="77.19" ry="18"/>
<text text-anchor="middle" x="970.33" y="-176.3" font-family="Times,serif" font-size="14.00">PropertyValue</text>
</g>
<!-- grid.ac/institutes/grid.475727.4 -->
<g id="node2" class="node">
<title>grid.ac/institutes/grid.475727.4</title>
<ellipse fill="none" stroke="#558855" cx="531.61" cy="-99" rx="159.47" ry="18"/>
<text text-anchor="middle" x="531.61" y="-95.3" font-family="Times,serif" font-size="14.00">grid.ac/institutes/grid.475727.4</text>
</g>
<!-- grid.ac/institutes/grid.475727.4&#45;&gt;PropertyValue -->
<g id="edge1" class="edge">
<title>grid.ac/institutes/grid.475727.4&#45;&gt;PropertyValue</title>
<path fill="none" stroke="black" d="M609.62,-114.71C664.75,-125.81 740.77,-140.82 807.85,-153 836.62,-158.23 868.34,-163.61 896,-168.18"/>
<polygon fill="black" stroke="black" points="895.55,-171.66 905.99,-169.83 896.69,-164.75 895.55,-171.66"/>
<text text-anchor="middle" x="749.35" y="-151.8" font-family="Times,serif" font-size="14.00">type</text>
</g>
<!-- &quot;UN Department of Economic...&quot; -->
<g id="node3" class="node">
<title>&quot;UN Department of Economic...&quot;</title>
<ellipse fill="none" stroke="black" stroke-width="0" cx="970.33" cy="-126" rx="162.47" ry="18"/>
<text text-anchor="middle" x="970.33" y="-122.3" font-family="Times,serif" font-size="14.00">&quot;UN Department of Economic...&quot;</text>
</g>
<!-- grid.ac/institutes/grid.475727.4&#45;&gt;&quot;UN Department of Economic...&quot; -->
<g id="edge2" class="edge">
<title>grid.ac/institutes/grid.475727.4&#45;&gt;&quot;UN Department of Economic...&quot;</title>
<path fill="none" stroke="black" d="M671.69,-107.6C718.32,-110.48 770.52,-113.71 818.03,-116.65"/>
<polygon fill="black" stroke="black" points="817.9,-120.14 828.09,-117.27 818.33,-113.16 817.9,-120.14"/>
<text text-anchor="middle" x="749.35" y="-117.8" font-family="Times,serif" font-size="14.00">description</text>
</g>
<!-- &quot;https//registry.identifie...&quot; -->
<g id="node4" class="node">
<title>&quot;https//registry.identifie...&quot;</title>
<ellipse fill="none" stroke="black" stroke-width="0" cx="970.33" cy="-72" rx="135.38" ry="18"/>
<text text-anchor="middle" x="970.33" y="-68.3" font-family="Times,serif" font-size="14.00">&quot;https//registry.identifie...&quot;</text>
</g>
<!-- grid.ac/institutes/grid.475727.4&#45;&gt;&quot;https//registry.identifie...&quot; -->
<g id="edge3" class="edge">
<title>grid.ac/institutes/grid.475727.4&#45;&gt;&quot;https//registry.identifie...&quot;</title>
<path fill="none" stroke="black" d="M671.69,-90.4C724.71,-87.12 784.94,-83.4 837.28,-80.16"/>
<polygon fill="black" stroke="black" points="837.53,-83.66 847.3,-79.54 837.1,-76.67 837.53,-83.66"/>
<text text-anchor="middle" x="749.35" y="-90.8" font-family="Times,serif" font-size="14.00">propertyID</text>
</g>
<!-- &quot;https//grid.ac/institutes...&quot; -->
<g id="node5" class="node">
<title>&quot;https//grid.ac/institutes...&quot;</title>
<ellipse fill="none" stroke="black" stroke-width="0" cx="970.33" cy="-18" rx="137.58" ry="18"/>
<text text-anchor="middle" x="970.33" y="-14.3" font-family="Times,serif" font-size="14.00">&quot;https//grid.ac/institutes...&quot;</text>
</g>
<!-- grid.ac/institutes/grid.475727.4&#45;&gt;&quot;https//grid.ac/institutes...&quot; -->
<g id="edge4" class="edge">
<title>grid.ac/institutes/grid.475727.4&#45;&gt;&quot;https//grid.ac/institutes...&quot;</title>
<path fill="none" stroke="black" d="M635.62,-85.26C654.2,-81.7 673.24,-77.32 690.85,-72 699.23,-69.47 700.49,-66.62 708.85,-64 756.3,-49.12 810.23,-38.59 856.65,-31.4"/>
<polygon fill="black" stroke="black" points="857.38,-34.83 866.75,-29.88 856.34,-27.91 857.38,-34.83"/>
<text text-anchor="middle" x="749.35" y="-67.8" font-family="Times,serif" font-size="14.00">url</text>
</g>
<!-- Organization -->
<g id="node6" class="node">
<title>Organization</title>
<ellipse fill="none" stroke="#558855" cx="531.61" cy="-45" rx="70.69" ry="18"/>
<text text-anchor="middle" x="531.61" y="-41.3" font-family="Times,serif" font-size="14.00">Organization</text>
</g>
<!-- index.example.org/id/org/x -->
<g id="node7" class="node">
<title>index.example.org/id/org/x</title>
<ellipse fill="none" stroke="black" cx="135.19" cy="-64" rx="135.38" ry="18"/>
<text text-anchor="middle" x="135.19" y="-60.3" font-family="Times,serif" font-size="14.00">index.example.org/id/org/x</text>
</g>
<!-- index.example.org/id/org/x&#45;&gt;grid.ac/institutes/grid.475727.4 -->
<g id="edge6" class="edge">
<title>index.example.org/id/org/x&#45;&gt;grid.ac/institutes/grid.475727.4</title>
<path fill="none" stroke="black" d="M248.16,-73.94C294.09,-78.01 347.65,-82.76 395.71,-87.03"/>
<polygon fill="black" stroke="black" points="395.61,-90.53 405.88,-87.93 396.23,-83.56 395.61,-90.53"/>
<text text-anchor="middle" x="321.38" y="-85.8" font-family="Times,serif" font-size="14.00">identifier</text>
</g>
<!-- index.example.org/id/org/x&#45;&gt;Organization -->
<g id="edge5" class="edge">
<title>index.example.org/id/org/x&#45;&gt;Organization</title>
<path fill="none" stroke="black" d="M255.8,-55.82C266.81,-55.16 277.8,-54.54 288.38,-54 342.61,-51.21 403.71,-48.95 450.98,-47.39"/>
<polygon fill="black" stroke="black" points="451.27,-50.88 461.15,-47.06 451.04,-43.88 451.27,-50.88"/>
<text text-anchor="middle" x="321.38" y="-57.8" font-family="Times,serif" font-size="14.00">type</text>
</g>
</g>
</svg>