<?xml version="1.0" encoding="UTF-8" standalone="no"?>
<!DOCTYPE svg PUBLIC "-//W3C//DTD SVG 1.1//EN"
 "http://www.w3.org/Graphics/SVG/1.1/DTD/svg11.dtd">
<!-- Generated by graphviz version 2.43.0 (0)
 -->
<!-- Title: %3 Pages: 1 -->
<svg width="802pt" height="98pt"
 viewBox="0.00 0.00 802.24 98.00" xmlns="http://www.w3.org/2000/svg" xmlns:xlink="http://www.w3.org/1999/xlink">
<g id="graph0" class="graph" transform="scale(1 1) rotate(0) translate(4 94)">
<title>%3</title>
<polygon fill="white" stroke="transparent" points="-4,4 -4,-94 798.24,-94 798.24,4 -4,4"/>
<!-- CreativeWork -->
<g id="node1" class="node">
<title>CreativeWork</title>
<ellipse fill="none" stroke="#558855" cx="646.7" cy="-72" rx="74.19" ry="18"/>
<text text-anchor="middle" x="646.7" y="-68.3" font-family="Times,serif" font-size="14.00">CreativeWork</text>
</g>
<!-- example.org/permanentUrlToThisJsonDoc -->
<g id="node2" class="node">
<title>example.org/permanentUrlToThisJsonDoc</title>
<ellipse fill="none" stroke="black" cx="204.08" cy="-45" rx="204.16" ry="18"/>
<text text-anchor="middle" x="204.08" y="-41.3" font-family="Times,serif" font-size="14.00">example.org/permanentUrlToThisJsonDoc</text>
</g>
<!-- example.org/permanentUrlToThisJsonDoc&#45;&gt;CreativeWork -->
<g id="edge1" class="edge">
<title>example.org/permanentUrlToThisJsonDoc&#45;&gt;CreativeWork</title>
<path fill="none" stroke="black" d="M372.29,-55.25C438.16,-59.28 510.76,-63.73 564.59,-67.03"/>
<polygon fill="black" stroke="black" points="564.56,-70.53 574.75,-67.65 564.99,-63.55 564.56,-70.53"/>
<text text-anchor="middle" x="453.66" y="-64.8" font-family="Times,serif" font-size="14.00">type</text>
</g>
<!-- &quot;https//doi.org/10.5066/F7...&quot; -->
<g id="node3" class="node">
<title>&quot;https//doi.org/10.5066/F7...&quot;</title>
<ellipse fill="none" stroke="black" stroke-width="0" cx="646.7" cy="-18" rx="147.57" ry="18"/>
<text text-anchor="middle" x="646.7" y="-14.3" font-family="Times,serif" font-size="14.00">&quot;https//doi.org/10.5066/F7...&quot;</text>
</g>
<!-- example.org/permanentUrlToThisJsonDoc&#45;&gt;&quot;https//doi.org/10.5066/F7...&quot; -->
<g id="edge2" class="edge">
<title>example.org/permanentUrlToThisJsonDoc&#45;&gt;&quot;https//doi.org/10.5066/F7...&quot;</title>
<path fill="none" stroke="black" d="M372.29,-34.75C415.9,-32.08 462.46,-29.23 504.58,-26.65"/>
<polygon fill="black" stroke="black" points="504.85,-30.14 514.61,-26.03 504.42,-23.15 504.85,-30.14"/>
<text text-anchor="middle" x="453.66" y="-33.8" font-family="Times,serif" font-size="14.00">sameAs</text>
</g>
</g>
</svg>