<?xml version="1.0" encoding="UTF-8" standalone="no"?>
<!DOCTYPE svg PUBLIC "-//W3C//DTD SVG 1.1//EN"
 "http://www.w3.org/Graphics/SVG/1.1/DTD/svg11.dtd">
<!-- Generated by graphviz version 2.43.0 (0)
 -->
<!-- Title: %3 Pages: 1 -->
<svg width="1017pt" height="266pt"
 viewBox="0.00 0.00 1016.63 266.00" xmlns="http://www.w3.org/2000/svg" xmlns:xlink="http://www.w3.org/1999/xlink">
<g id="graph0" class="graph" transform="scale(1 1) rotate(0) translate(4 262)">
<title>%3</title>
<polygon fill="white" stroke="transparent" points="-4,4 -4,-262 1012.63,-262 1012.63,4 -4,4"/>
<!-- Dataset -->
<g id="node1" class="node">
<title>Dataset</title>
<ellipse fill="none" stroke="#558855" cx="647.26" cy="-240" rx="46.59" ry="18"/>
<text text-anchor="middle" x="647.26" y="-236.3" font-family="Times,serif" font-size="14.00">Dataset</text>
</g>
<!-- example.org/permanentUrlToThisJsonDoc -->
<g id="node2" class="node">
<title>example.org/permanentUrlToThisJsonDoc</title>
<ellipse fill="none" stroke="black" cx="204.08" cy="-186" rx="204.16" ry="18"/>
<text text-anchor="middle" x="204.08" y="-182.3" font-family="Times,serif" font-size="14.00">example.org/permanentUrlToThisJsonDoc</text>
</g>
<!-- example.org/permanentUrlToThisJsonDoc&#45;&gt;Dataset -->
<g id="edge1" class="edge">
<title>example.org/permanentUrlToThisJsonDoc&#45;&gt;Dataset</title>
<path fill="none" stroke="black" d="M324.18,-200.58C411.51,-211.27 525.97,-225.28 592.29,-233.39"/>
<polygon fill="black" stroke="black" points="592.16,-236.9 602.51,-234.65 593.01,-229.96 592.16,-236.9"/>
<text text-anchor="middle" x="484.16" y="-229.8" font-family="Times,serif" font-size="14.00">type</text>
</g>
<!-- &quot;Data set name&quot; -->
<g id="node3" class="node">
<title>&quot;Data set name&quot;</title>
<ellipse fill="none" stroke="black" stroke-width="0" cx="647.26" cy="-186" rx="87.18" ry="18"/>
<text text-anchor="middle" x="647.26" y="-182.3" font-family="Times,serif" font-size="14.00">&quot;Data set name&quot;</text>
</g>
<!-- example.org/permanentUrlToThisJsonDoc&#45;&gt;&quot;Data set name&quot; -->
<g id="edge2" class="edge">
<title>example.org/permanentUrlToThisJsonDoc&#45;&gt;&quot;Data set name&quot;</title>
<path fill="none" stroke="black" d="M408.24,-186C457.65,-186 508.23,-186 549.99,-186"/>
<polygon fill="black" stroke="black" points="550.13,-189.5 560.13,-186 550.13,-182.5 550.13,-189.5"/>
<text text-anchor="middle" x="484.16" y="-189.8" font-family="Times,serif" font-size="14.00">name</text>
</g>
<!-- _ -->
<g id="node4" class="node">
<title>_</title>
<ellipse fill="none" stroke="#558855" cx="647.26" cy="-99" rx="27" ry="18"/>
<text text-anchor="middle" x="647.26" y="-95.3" font-family="Times,serif" font-size="14.00">_</text>
</g>
<!-- example.org/permanentUrlToThisJsonDoc&#45;&gt;_ -->
<g id="edge3" class="edge">
<title>example.org/permanentUrlToThisJsonDoc&#45;&gt;_</title>
<path fill="none" stroke="black" d="M288.32,-169.58C385.47,-150.43 541.63,-119.63 611.04,-105.94"/>
<polygon fill="black" stroke="black" points="611.89,-109.34 621.03,-103.98 610.54,-102.48 611.89,-109.34"/>
<text text-anchor="middle" x="484.16" y="-142.8" font-family="Times,serif" font-size="14.00">spatialCoverage</text>
</g>
<!-- _&#45;&gt;_ -->
<g id="edge8" class="edge">
<title>_&#45;&gt;_</title>
<path fill="none" stroke="black" d="M626.69,-110.8C615.34,-122.33 622.19,-135 647.26,-135 666.06,-135 674.61,-127.87 672.92,-119.45"/>
<polygon fill="black" stroke="black" points="675.92,-117.63 667.82,-110.8 669.89,-121.19 675.92,-117.63"/>
<text text-anchor="middle" x="647.26" y="-138.8" font-family="Times,serif" font-size="14.00">geo</text>
</g>
<!-- GeoCoordinates -->
<g id="node5" class="node">
<title>GeoCoordinates</title>
<ellipse fill="none" stroke="#558855" cx="923.49" cy="-180" rx="85.29" ry="18"/>
<text text-anchor="middle" x="923.49" y="-176.3" font-family="Times,serif" font-size="14.00">GeoCoordinates</text>
</g>
<!-- _&#45;&gt;GeoCoordinates -->
<g id="edge4" class="edge">
<title>_&#45;&gt;GeoCoordinates</title>
<path fill="none" stroke="black" d="M671.69,-107.33C692.7,-114.69 724.43,-125.54 752.35,-134 787.25,-144.57 826.52,-155.27 858.54,-163.69"/>
<polygon fill="black" stroke="black" points="857.67,-167.08 868.23,-166.22 859.44,-160.3 857.67,-167.08"/>
<text text-anchor="middle" x="786.35" y="-155.8" font-family="Times,serif" font-size="14.00">type</text>
</g>
<!-- &quot;3.9328E1&quot; -->
<g id="node6" class="node">
<title>&quot;3.9328E1&quot;</title>
<ellipse fill="none" stroke="black" stroke-width="0" cx="923.49" cy="-126" rx="64.19" ry="18"/>
<text text-anchor="middle" x="923.49" y="-122.3" font-family="Times,serif" font-size="14.00">&quot;3.9328E1&quot;</text>
</g>
<!-- _&#45;&gt;&quot;3.9328E1&quot; -->
<g id="edge5" class="edge">
<title>_&#45;&gt;&quot;3.9328E1&quot;</title>
<path fill="none" stroke="black" d="M674.06,-101.54C714.43,-105.52 793.95,-113.34 852.19,-119.08"/>
<polygon fill="black" stroke="black" points="852.14,-122.59 862.43,-120.09 852.83,-115.62 852.14,-122.59"/>
<text text-anchor="middle" x="786.35" y="-118.8" font-family="Times,serif" font-size="14.00">latitude</text>
</g>
<!-- &quot;1.201633E2&quot; -->
<g id="node7" class="node">
<title>&quot;1.201633E2&quot;</title>
<ellipse fill="none" stroke="black" stroke-width="0" cx="923.49" cy="-72" rx="76.09" ry="18"/>
<text text-anchor="middle" x="923.49" y="-68.3" font-family="Times,serif" font-size="14.00">&quot;1.201633E2&quot;</text>
</g>
<!-- _&#45;&gt;&quot;1.201633E2&quot; -->
<g id="edge6" class="edge">
<title>_&#45;&gt;&quot;1.201633E2&quot;</title>
<path fill="none" stroke="black" d="M674.06,-96.46C712.29,-92.7 785.64,-85.47 842.77,-79.85"/>
<polygon fill="black" stroke="black" points="843.26,-83.32 852.87,-78.85 842.57,-76.35 843.26,-83.32"/>
<text text-anchor="middle" x="786.35" y="-91.8" font-family="Times,serif" font-size="14.00">longitude</text>
</g>
<!-- Place -->
<g id="node8" class="node">
<title>Place</title>
<ellipse fill="none" stroke="#558855" cx="923.49" cy="-18" rx="36" ry="18"/>
<text text-anchor="middle" x="923.49" y="-14.3" font-family="Times,serif" font-size="14.00">Place</text>
</g>
<!-- _&#45;&gt;Place -->
<g id="edge7" class="edge">
<title>_&#45;&gt;Place</title>
<path fill="none" stroke="black" d="M671.25,-90.5C692.23,-82.87 724.18,-71.58 752.35,-63 795.98,-49.71 846.57,-36.62 881.18,-28.01"/>
<polygon fill="black" stroke="black" points="882.07,-31.4 890.93,-25.6 880.39,-24.6 882.07,-31.4"/>
<text text-anchor="middle" x="786.35" y="-66.8" font-family="Times,serif" font-size="14.00">type</text>
</g>
</g>
</svg>