<?xml version="1.0" encoding="UTF-8" standalone="no"?>
<!DOCTYPE svg PUBLIC "-//W3C//DTD SVG 1.1//EN"
 "http://www.w3.org/Graphics/SVG/1.1/DTD/svg11.dtd">
<!-- Generated by graphviz version 2.43.0 (0)
 -->
<!-- Title: %3 Pages: 1 -->
<svg width="1217pt" height="260pt"
 viewBox="0.00 0.00 1216.81 260.00" xmlns="http://www.w3.org/2000/svg" xmlns:xlink="http://www.w3.org/1999/xlink">
<g id="graph0" class="graph" transform="scale(1 1) rotate(0) translate(4 256)">
<title>%3</title>
<polygon fill="white" stroke="transparent" points="-4,4 -4,-256 1212.81,-256 1212.81,4 -4,4"/>
<!-- CreativeWork -->
<g id="node1" class="node">
<title>CreativeWork</title>
<ellipse fill="none" stroke="#558855" cx="672.7" cy="-180" rx="74.19" ry="18"/>
<text text-anchor="middle" x="672.7" y="-176.3" font-family="Times,serif" font-size="14.00">CreativeWork</text>
</g>
<!-- example.org/permanentUrlToThisJsonDoc -->
<g id="node2" class="node">
<title>example.org/permanentUrlToThisJsonDoc</title>
<ellipse fill="none" stroke="black" cx="204.08" cy="-153" rx="204.16" ry="18"/>
<text text-anchor="middle" x="204.08" y="-149.3" font-family="Times,serif" font-size="14.00">example.org/permanentUrlToThisJsonDoc</text>
</g>
<!-- example.org/permanentUrlToThisJsonDoc&#45;&gt;CreativeWork -->
<g id="edge1" class="edge">
<title>example.org/permanentUrlToThisJsonDoc&#45;&gt;CreativeWork</title>
<path fill="none" stroke="black" d="M375.19,-162.84C448.56,-167.09 530.96,-171.86 590.23,-175.29"/>
<polygon fill="black" stroke="black" points="590.1,-178.78 600.28,-175.87 590.5,-171.8 590.1,-178.78"/>
<text text-anchor="middle" x="460.16" y="-172.8" font-family="Times,serif" font-size="14.00">type</text>
</g>
<!-- www.sample&#45;data&#45;repository.org -->
<g id="node3" class="node">
<title>www.sample&#45;data&#45;repository.org</title>
<ellipse fill="none" stroke="#558855" cx="672.7" cy="-126" rx="160.57" ry="18"/>
<text text-anchor="middle" x="672.7" y="-122.3" font-family="Times,serif" font-size="14.00">www.sample&#45;data&#45;repository.org</text>
</g>
<!-- example.org/permanentUrlToThisJsonDoc&#45;&gt;www.sample&#45;data&#45;repository.org -->
<g id="edge2" class="edge">
<title>example.org/permanentUrlToThisJsonDoc&#45;&gt;www.sample&#45;data&#45;repository.org</title>
<path fill="none" stroke="black" d="M375.19,-143.16C422.39,-140.43 473.32,-137.48 519.42,-134.81"/>
<polygon fill="black" stroke="black" points="519.71,-138.3 529.49,-134.23 519.31,-131.31 519.71,-138.3"/>
<text text-anchor="middle" x="460.16" y="-142.8" font-family="Times,serif" font-size="14.00">publisher</text>
</g>
<!-- Organization -->
<g id="node4" class="node">
<title>Organization</title>
<ellipse fill="none" stroke="#558855" cx="1077.52" cy="-234" rx="70.69" ry="18"/>
<text text-anchor="middle" x="1077.52" y="-230.3" font-family="Times,serif" font-size="14.00">Organization</text>
</g>
<!-- www.sample&#45;data&#45;repository.org&#45;&gt;Organization -->
<g id="edge3" class="edge">
<title>www.sample&#45;data&#45;repository.org&#45;&gt;Organization</title>
<path fill="none" stroke="black" d="M798.72,-137.3C810.88,-141.26 822.63,-146.39 833.24,-153 844.86,-160.24 840.1,-170.03 851.24,-178 887.13,-203.7 903.47,-196.06 946.24,-207 966.81,-212.26 989.42,-217.23 1009.94,-221.43"/>
<polygon fill="black" stroke="black" points="1009.33,-224.88 1019.83,-223.43 1010.72,-218.02 1009.33,-224.88"/>
<text text-anchor="middle" x="889.74" y="-205.8" font-family="Times,serif" font-size="14.00">type</text>
</g>
<!-- &quot;Sample Data Reposito...&quot; -->
<g id="node5" class="node">
<title>&quot;Sample Data Reposito...&quot;</title>
<ellipse fill="none" stroke="black" stroke-width="0" cx="1077.52" cy="-180" rx="131.08" ry="18"/>
<text text-anchor="middle" x="1077.52" y="-176.3" font-family="Times,serif" font-size="14.00">&quot;Sample Data Reposito...&quot;</text>
</g>
<!-- www.sample&#45;data&#45;repository.org&#45;&gt;&quot;Sample Data Reposito...&quot; -->
<g id="edge4" class="edge">
<title>www.sample&#45;data&#45;repository.org&#45;&gt;&quot;Sample Data Reposito...&quot;</title>
<path fill="none" stroke="black" d="M776.39,-139.77C836.67,-147.85 912.63,-158.03 973.04,-166.13"/>
<polygon fill="black" stroke="black" points="972.61,-169.6 982.98,-167.46 973.54,-162.66 972.61,-169.6"/>
<text text-anchor="middle" x="889.74" y="-162.8" font-family="Times,serif" font-size="14.00">legalName</text>
</g>
<!-- &quot;SDRO&quot; -->
<g id="node6" class="node">
<title>&quot;SDRO&quot;</title>
<ellipse fill="none" stroke="black" stroke-width="0" cx="1077.52" cy="-126" rx="47.39" ry="18"/>
<text text-anchor="middle" x="1077.52" y="-122.3" font-family="Times,serif" font-size="14.00">&quot;SDRO&quot;</text>
</g>
<!-- www.sample&#45;data&#45;repository.org&#45;&gt;&quot;SDRO&quot; -->
<g id="edge5" class="edge">
<title>www.sample&#45;data&#45;repository.org&#45;&gt;&quot;SDRO&quot;</title>
<path fill="none" stroke="black" d="M833.48,-126C899.18,-126 971.04,-126 1019.46,-126"/>
<polygon fill="black" stroke="black" points="1019.73,-129.5 1029.73,-126 1019.73,-122.5 1019.73,-129.5"/>
<text text-anchor="middle" x="889.74" y="-129.8" font-family="Times,serif" font-size="14.00">name</text>
</g>
<!-- &quot;http//www.re3data.or...&quot; -->
<g id="node7" class="node">
<title>&quot;http//www.re3data.or...&quot;</title>
<ellipse fill="none" stroke="black" stroke-width="0" cx="1077.52" cy="-72" rx="126.98" ry="18"/>
<text text-anchor="middle" x="1077.52" y="-68.3" font-family="Times,serif" font-size="14.00">&quot;http//www.re3data.or...&quot;</text>
</g>
<!-- www.sample&#45;data&#45;repository.org&#45;&gt;&quot;http//www.re3data.or...&quot; -->
<g id="edge6" class="edge">
<title>www.sample&#45;data&#45;repository.org&#45;&gt;&quot;http//www.re3data.or...&quot;</title>
<path fill="none" stroke="black" d="M776.39,-112.23C837.22,-104.08 914.02,-93.78 974.7,-85.65"/>
<polygon fill="black" stroke="black" points="975.23,-89.11 984.68,-84.31 974.3,-82.17 975.23,-89.11"/>
<text text-anchor="middle" x="889.74" y="-103.8" font-family="Times,serif" font-size="14.00">sameAs</text>
</g>
<!-- &quot;https//www.sample&#45;da...&quot; -->
<g id="node8" class="node">
<title>&quot;https//www.sample&#45;da...&quot;</title>
<ellipse fill="none" stroke="black" stroke-width="0" cx="1077.52" cy="-18" rx="131.08" ry="18"/>
<text text-anchor="middle" x="1077.52" y="-14.3" font-family="Times,serif" font-size="14.00">&quot;https//www.sample&#45;da...&quot;</text>
</g>
<!-- www.sample&#45;data&#45;repository.org&#45;&gt;&quot;https//www.sample&#45;da...&quot; -->
<g id="edge7" class="edge">
<title>www.sample&#45;data&#45;repository.org&#45;&gt;&quot;https//www.sample&#45;da...&quot;</title>
<path fill="none" stroke="black" d="M726.08,-108.96C780.68,-91.54 868.91,-64.37 946.24,-45 960.44,-41.44 975.59,-37.99 990.36,-34.81"/>
<polygon fill="black" stroke="black" points="991.45,-38.16 1000.5,-32.66 989.99,-31.31 991.45,-38.16"/>
<text text-anchor="middle" x="889.74" y="-72.8" font-family="Times,serif" font-size="14.00">url</text>
</g>
</g>
</svg>