<?xml version="1.0" encoding="UTF-8" standalone="no"?>
<!DOCTYPE svg PUBLIC "-//W3C//DTD SVG 1.1//EN"
 "http://www.w3.org/Graphics/SVG/1.1/DTD/svg11.dtd">
<!-- Generated by graphviz version 2.43.0 (0)
 -->
<!-- Title: %3 Pages: 1 -->
<svg width="1211pt" height="206pt"
 viewBox="0.00 0.00 1211.31 206.00" xmlns="http://www.w3.org/2000/svg" xmlns:xlink="http://www.w3.org/1999/xlink">
<g id="graph0" class="graph" transform="scale(1 1) rotate(0) translate(4 202)">
<title>%3</title>
<polygon fill="white" stroke="transparent" points="-4,4 -4,-202 1207.31,-202 1207.31,4 -4,4"/>
<!-- _ -->
<g id="node1" class="node">
<title>_</title>
<ellipse fill="none" stroke="#558855" cx="627.26" cy="-126" rx="27" ry="18"/>
<text text-anchor="middle" x="627.26" y="-122.3" font-family="Times,serif" font-size="14.00">_</text>
</g>
<!-- &quot;POINT(&#45;76 &#45;18)&quot; -->
<g id="node5" class="node">
<title>&quot;POINT(&#45;76 &#45;18)&quot;</title>
<ellipse fill="none" stroke="black" stroke-width="0" cx="1001.83" cy="-180" rx="89.08" ry="18"/>
<text text-anchor="middle" x="1001.83" y="-176.3" font-family="Times,serif" font-size="14.00">&quot;POINT(&#45;76 &#45;18)&quot;</text>
</g>
<!-- _&#45;&gt;&quot;POINT(&#45;76 &#45;18)&quot; -->
<g id="edge4" class="edge">
<title>_&#45;&gt;&quot;POINT(&#45;76 &#45;18)&quot;</title>
<path fill="none" stroke="black" d="M653.44,-130.97C674.48,-135.03 705.31,-140.77 732.35,-145 792.99,-154.48 861.63,-163.4 914.32,-169.86"/>
<polygon fill="black" stroke="black" points="913.95,-173.34 924.3,-171.07 914.8,-166.39 913.95,-173.34"/>
<text text-anchor="middle" x="757.35" y="-154.8" font-family="Times,serif" font-size="14.00">asWKT</text>
</g>
<!-- www.opengis.net/def/crs/OGC/1.3/CRS84 -->
<g id="node6" class="node">
<title>www.opengis.net/def/crs/OGC/1.3/CRS84</title>
<ellipse fill="none" stroke="#558855" cx="1001.83" cy="-126" rx="201.46" ry="18"/>
<text text-anchor="middle" x="1001.83" y="-122.3" font-family="Times,serif" font-size="14.00">www.opengis.net/def/crs/OGC/1.3/CRS84</text>
</g>
<!-- _&#45;&gt;www.opengis.net/def/crs/OGC/1.3/CRS84 -->
<g id="edge5" class="edge">
<title>_&#45;&gt;www.opengis.net/def/crs/OGC/1.3/CRS84</title>
<path fill="none" stroke="black" d="M654.45,-126C684.16,-126 735.55,-126 789.79,-126"/>
<polygon fill="black" stroke="black" points="789.95,-129.5 799.95,-126 789.95,-122.5 789.95,-129.5"/>
<text text-anchor="middle" x="757.35" y="-129.8" font-family="Times,serif" font-size="14.00">crs</text>
</g>
<!-- Point -->
<g id="node7" class="node">
<title>Point</title>
<ellipse fill="none" stroke="#558855" cx="1001.83" cy="-72" rx="34.39" ry="18"/>
<text text-anchor="middle" x="1001.83" y="-68.3" font-family="Times,serif" font-size="14.00">Point</text>
</g>
<!-- _&#45;&gt;Point -->
<g id="edge6" class="edge">
<title>_&#45;&gt;Point</title>
<path fill="none" stroke="black" d="M653.44,-121.03C674.48,-116.97 705.31,-111.23 732.35,-107 811.81,-94.58 904.98,-83.13 958.04,-76.9"/>
<polygon fill="black" stroke="black" points="958.58,-80.36 968.1,-75.72 957.77,-73.41 958.58,-80.36"/>
<text text-anchor="middle" x="757.35" y="-110.8" font-family="Times,serif" font-size="14.00">type</text>
</g>
<!-- example.org/permanentUrlToThisJsonDoc -->
<g id="node2" class="node">
<title>example.org/permanentUrlToThisJsonDoc</title>
<ellipse fill="none" stroke="black" cx="204.08" cy="-72" rx="204.16" ry="18"/>
<text text-anchor="middle" x="204.08" y="-68.3" font-family="Times,serif" font-size="14.00">example.org/permanentUrlToThisJsonDoc</text>
</g>
<!-- example.org/permanentUrlToThisJsonDoc&#45;&gt;_ -->
<g id="edge1" class="edge">
<title>example.org/permanentUrlToThisJsonDoc&#45;&gt;_</title>
<path fill="none" stroke="black" d="M320.45,-86.79C410.97,-98.4 531.22,-113.82 590.34,-121.39"/>
<polygon fill="black" stroke="black" points="589.94,-124.87 600.3,-122.67 590.83,-117.93 589.94,-124.87"/>
<text text-anchor="middle" x="474.16" y="-114.8" font-family="Times,serif" font-size="14.00">hasGeometry</text>
</g>
<!-- Dataset -->
<g id="node3" class="node">
<title>Dataset</title>
<ellipse fill="none" stroke="#558855" cx="627.26" cy="-72" rx="46.59" ry="18"/>
<text text-anchor="middle" x="627.26" y="-68.3" font-family="Times,serif" font-size="14.00">Dataset</text>
</g>
<!-- example.org/permanentUrlToThisJsonDoc&#45;&gt;Dataset -->
<g id="edge2" class="edge">
<title>example.org/permanentUrlToThisJsonDoc&#45;&gt;Dataset</title>
<path fill="none" stroke="black" d="M408.27,-72C467.93,-72 528.38,-72 570.44,-72"/>
<polygon fill="black" stroke="black" points="570.46,-75.5 580.46,-72 570.46,-68.5 570.46,-75.5"/>
<text text-anchor="middle" x="474.16" y="-75.8" font-family="Times,serif" font-size="14.00">type</text>
</g>
<!-- &quot;Data set name&quot; -->
<g id="node4" class="node">
<title>&quot;Data set name&quot;</title>
<ellipse fill="none" stroke="black" stroke-width="0" cx="627.26" cy="-18" rx="87.18" ry="18"/>
<text text-anchor="middle" x="627.26" y="-14.3" font-family="Times,serif" font-size="14.00">&quot;Data set name&quot;</text>
</g>
<!-- example.org/permanentUrlToThisJsonDoc&#45;&gt;&quot;Data set name&quot; -->
<g id="edge3" class="edge">
<title>example.org/permanentUrlToThisJsonDoc&#45;&gt;&quot;Data set name&quot;</title>
<path fill="none" stroke="black" d="M320.45,-57.21C390.84,-48.18 479.21,-36.85 542.83,-28.7"/>
<polygon fill="black" stroke="black" points="543.35,-32.16 552.83,-27.41 542.46,-25.22 543.35,-32.16"/>
<text text-anchor="middle" x="474.16" y="-47.8" font-family="Times,serif" font-size="14.00">name</text>
</g>
</g>
</svg>