<?xml version="1.0" encoding="UTF-8" standalone="no"?>
<!DOCTYPE svg PUBLIC "-//W3C//DTD SVG 1.1//EN"
 "http://www.w3.org/Graphics/SVG/1.1/DTD/svg11.dtd">
<!-- Generated by graphviz version 2.43.0 (0)
 -->
<!-- Title: %3 Pages: 1 -->
<svg width="1325pt" height="1238pt"
 viewBox="0.00 0.00 1324.61 1237.90" xmlns="http://www.w3.org/2000/svg" xmlns:xlink="http://www.w3.org/1999/xlink">
<g id="graph0" class="graph" transform="scale(1 1) rotate(0) translate(4 1233.9)">
<title>%3</title>
<polygon fill="white" stroke="transparent" points="-4,4 -4,-1233.9 1320.61,-1233.9 1320.61,4 -4,4"/>
<!-- Course -->
<g id="node1" class="node">
<title>Course</title>
<ellipse fill="none" stroke="#558855" cx="1178.82" cy="-1211.9" rx="43.59" ry="18"/>
<text text-anchor="middle" x="1178.82" y="-1208.2" font-family="Times,serif" font-size="14.00">Course</text>
</g>
<!-- example.org/id/course/x -->
<g id="node2" class="node">
<title>example.org/id/course/x</title>
<ellipse fill="none" stroke="#558855" cx="717.1" cy="-1130.9" rx="122.38" ry="18"/>
<text text-anchor="middle" x="717.1" y="-1127.2" font-family="Times,serif" font-size="14.00">example.org/id/course/x</text>
</g>
<!-- example.org/id/course/x&#45;&gt;Course -->
<g id="edge1" class="edge">
<title>example.org/id/course/x&#45;&gt;Course</title>
<path fill="none" stroke="black" d="M786.5,-1145.74C818.75,-1152.54 857.8,-1160.49 893.04,-1166.9 974.63,-1181.73 1069.9,-1196.22 1126.97,-1204.59"/>
<polygon fill="black" stroke="black" points="1126.76,-1208.09 1137.17,-1206.08 1127.78,-1201.17 1126.76,-1208.09"/>
<text text-anchor="middle" x="958.04" y="-1191.7" font-family="Times,serif" font-size="14.00">type</text>
</g>
<!-- &quot;In this course ...&quot; -->
<g id="node3" class="node">
<title>&quot;In this course ...&quot;</title>
<ellipse fill="none" stroke="black" stroke-width="0" cx="1178.82" cy="-1157.9" rx="94.78" ry="18"/>
<text text-anchor="middle" x="1178.82" y="-1154.2" font-family="Times,serif" font-size="14.00">&quot;In this course ...&quot;</text>
</g>
<!-- example.org/id/course/x&#45;&gt;&quot;In this course ...&quot; -->
<g id="edge2" class="edge">
<title>example.org/id/course/x&#45;&gt;&quot;In this course ...&quot;</title>
<path fill="none" stroke="black" d="M830.86,-1137.52C906.39,-1141.96 1004.95,-1147.75 1077.71,-1152.02"/>
<polygon fill="black" stroke="black" points="1077.61,-1155.52 1087.8,-1152.61 1078.02,-1148.53 1077.61,-1155.52"/>
<text text-anchor="middle" x="958.04" y="-1151.7" font-family="Times,serif" font-size="14.00">description</text>
</g>
<!-- &quot;URL to the course&quot; -->
<g id="node4" class="node">
<title>&quot;URL to the course&quot;</title>
<ellipse fill="none" stroke="black" stroke-width="0" cx="1178.82" cy="-1103.9" rx="103.98" ry="18"/>
<text text-anchor="middle" x="1178.82" y="-1100.2" font-family="Times,serif" font-size="14.00">&quot;URL to the course&quot;</text>
</g>
<!-- example.org/id/course/x&#45;&gt;&quot;URL to the course&quot; -->
<g id="edge3" class="edge">
<title>example.org/id/course/x&#45;&gt;&quot;URL to the course&quot;</title>
<path fill="none" stroke="black" d="M830.86,-1124.28C903.72,-1120 998.02,-1114.46 1069.91,-1110.24"/>
<polygon fill="black" stroke="black" points="1070.12,-1113.73 1079.9,-1109.65 1069.71,-1106.74 1070.12,-1113.73"/>
<text text-anchor="middle" x="958.04" y="-1123.7" font-family="Times,serif" font-size="14.00">url</text>
</g>
<!-- Person -->
<g id="node5" class="node">
<title>Person</title>
<ellipse fill="none" stroke="#558855" cx="717.1" cy="-968.9" rx="42.49" ry="18"/>
<text text-anchor="middle" x="717.1" y="-965.2" font-family="Times,serif" font-size="14.00">Person</text>
</g>
<!-- example.org/permanentUrlToThisJsonDoc -->
<g id="node6" class="node">
<title>example.org/permanentUrlToThisJsonDoc</title>
<ellipse fill="none" stroke="black" cx="204.08" cy="-566.9" rx="204.16" ry="18"/>
<text text-anchor="middle" x="204.08" y="-563.2" font-family="Times,serif" font-size="14.00">example.org/permanentUrlToThisJsonDoc</text>
</g>
<!-- example.org/permanentUrlToThisJsonDoc&#45;&gt;example.org/id/course/x -->
<g id="edge7" class="edge">
<title>example.org/permanentUrlToThisJsonDoc&#45;&gt;example.org/id/course/x</title>
<path fill="none" stroke="black" d="M212,-585.13C234.88,-643.61 313.18,-829.47 426.16,-946.9 498.11,-1021.68 606.26,-1079.83 668.12,-1109.4"/>
<polygon fill="black" stroke="black" points="666.73,-1112.61 677.27,-1113.72 669.73,-1106.29 666.73,-1112.61"/>
<text text-anchor="middle" x="483.66" y="-1038.7" font-family="Times,serif" font-size="14.00">knowsAbout</text>
</g>
<!-- example.org/permanentUrlToThisJsonDoc&#45;&gt;Person -->
<g id="edge4" class="edge">
<title>example.org/permanentUrlToThisJsonDoc&#45;&gt;Person</title>
<path fill="none" stroke="black" d="M215.71,-585.04C253.31,-647.34 387.09,-853.6 559.16,-941.9 591.79,-958.64 632.74,-965.28 664.63,-967.79"/>
<polygon fill="black" stroke="black" points="664.43,-971.29 674.64,-968.47 664.9,-964.31 664.43,-971.29"/>
<text text-anchor="middle" x="483.66" y="-931.7" font-family="Times,serif" font-size="14.00">type</text>
</g>
<!-- orcid.org/0000&#45;0002&#45;2257&#45;9127 -->
<g id="node7" class="node">
<title>orcid.org/0000&#45;0002&#45;2257&#45;9127</title>
<ellipse fill="none" stroke="#558855" cx="717.1" cy="-914.9" rx="157.87" ry="18"/>
<text text-anchor="middle" x="717.1" y="-911.2" font-family="Times,serif" font-size="14.00">orcid.org/0000&#45;0002&#45;2257&#45;9127</text>
</g>
<!-- example.org/permanentUrlToThisJsonDoc&#45;&gt;orcid.org/0000&#45;0002&#45;2257&#45;9127 -->
<g id="edge5" class="edge">
<title>example.org/permanentUrlToThisJsonDoc&#45;&gt;orcid.org/0000&#45;0002&#45;2257&#45;9127</title>
<path fill="none" stroke="black" d="M231.48,-584.88C316.8,-642.98 585.17,-825.74 681.36,-891.24"/>
<polygon fill="black" stroke="black" points="679.62,-894.29 689.86,-897.03 683.56,-888.51 679.62,-894.29"/>
<text text-anchor="middle" x="483.66" y="-795.7" font-family="Times,serif" font-size="14.00">identifier</text>
</g>
<!-- &quot;Professor&quot; -->
<g id="node8" class="node">
<title>&quot;Professor&quot;</title>
<ellipse fill="none" stroke="black" stroke-width="0" cx="717.1" cy="-680.9" rx="63.89" ry="18"/>
<text text-anchor="middle" x="717.1" y="-677.2" font-family="Times,serif" font-size="14.00">&quot;Professor&quot;</text>
</g>
<!-- example.org/permanentUrlToThisJsonDoc&#45;&gt;&quot;Professor&quot; -->
<g id="edge6" class="edge">
<title>example.org/permanentUrlToThisJsonDoc&#45;&gt;&quot;Professor&quot;</title>
<path fill="none" stroke="black" d="M242.05,-584.64C285.19,-604.5 359.15,-635.97 426.16,-651.9 498.86,-669.18 584.19,-676.17 643.37,-679"/>
<polygon fill="black" stroke="black" points="643.22,-682.49 653.37,-679.45 643.54,-675.5 643.22,-682.49"/>
<text text-anchor="middle" x="483.66" y="-673.7" font-family="Times,serif" font-size="14.00">jobTitle</text>
</g>
<!-- _ -->
<g id="node9" class="node">
<title>_</title>
<ellipse fill="none" stroke="#558855" cx="717.1" cy="-490.9" rx="27" ry="18"/>
<text text-anchor="middle" x="717.1" y="-487.2" font-family="Times,serif" font-size="14.00">_</text>
</g>
<!-- example.org/permanentUrlToThisJsonDoc&#45;&gt;_ -->
<g id="edge8" class="edge">
<title>example.org/permanentUrlToThisJsonDoc&#45;&gt;_</title>
<path fill="none" stroke="black" d="M243.57,-584.66C307.03,-611.39 436.95,-655.38 541.16,-620.9 605.08,-599.75 664.65,-545.2 695.04,-513.9"/>
<polygon fill="black" stroke="black" points="697.76,-516.13 702.13,-506.47 692.69,-511.29 697.76,-516.13"/>
<text text-anchor="middle" x="483.66" y="-636.7" font-family="Times,serif" font-size="14.00">knowsAbout</text>
</g>
<!-- example.org/permanentUrlToThisJsonDoc&#45;&gt;_ -->
<g id="edge9" class="edge">
<title>example.org/permanentUrlToThisJsonDoc&#45;&gt;_</title>
<path fill="none" stroke="black" d="M285.1,-583.44C353.99,-594.68 455.53,-604.04 541.16,-582.9 598.11,-568.84 657,-532.54 689.85,-509.97"/>
<polygon fill="black" stroke="black" points="692.21,-512.59 698.4,-503.99 688.2,-506.85 692.21,-512.59"/>
<text text-anchor="middle" x="483.66" y="-598.7" font-family="Times,serif" font-size="14.00">knowsAbout</text>
</g>
<!-- example.org/permanentUrlToThisJsonDoc&#45;&gt;_ -->
<g id="edge10" class="edge">
<title>example.org/permanentUrlToThisJsonDoc&#45;&gt;_</title>
<path fill="none" stroke="black" d="M400.2,-561.87C446.65,-558.55 495.88,-553.25 541.16,-544.9 592.09,-535.51 649.05,-516.2 683.73,-503.4"/>
<polygon fill="black" stroke="black" points="685.18,-506.59 693.33,-499.82 682.73,-500.04 685.18,-506.59"/>
<text text-anchor="middle" x="483.66" y="-562.7" font-family="Times,serif" font-size="14.00">knowsLanguage</text>
</g>
<!-- example.org/permanentUrlToThisJsonDoc&#45;&gt;_ -->
<g id="edge12" class="edge">
<title>example.org/permanentUrlToThisJsonDoc&#45;&gt;_</title>
<path fill="none" stroke="black" d="M287.03,-550.42C328.6,-542.39 379.95,-532.97 426.16,-525.9 517.08,-511.99 624.74,-500.22 679.75,-494.54"/>
<polygon fill="black" stroke="black" points="680.44,-497.99 690.03,-493.49 679.73,-491.02 680.44,-497.99"/>
<text text-anchor="middle" x="483.66" y="-529.7" font-family="Times,serif" font-size="14.00">nationality</text>
</g>
<!-- example.org/permanentUrlToThisJsonDoc&#45;&gt;_ -->
<g id="edge13" class="edge">
<title>example.org/permanentUrlToThisJsonDoc&#45;&gt;_</title>
<path fill="none" stroke="black" d="M243.99,-549.1C287.36,-530.32 360.11,-501.94 426.16,-490.9 516.65,-475.78 625.25,-482.19 680.31,-487.13"/>
<polygon fill="black" stroke="black" points="679.98,-490.62 690.27,-488.07 680.64,-483.65 679.98,-490.62"/>
<text text-anchor="middle" x="483.66" y="-494.7" font-family="Times,serif" font-size="14.00">nationality</text>
</g>
<!-- example.org/permanentUrlToThisJsonDoc&#45;&gt;_ -->
<g id="edge16" class="edge">
<title>example.org/permanentUrlToThisJsonDoc&#45;&gt;_</title>
<path fill="none" stroke="black" d="M232.58,-548.87C273,-523.54 351.76,-478.67 426.16,-461.9 517.26,-441.36 627.74,-465.52 682.28,-480.6"/>
<polygon fill="black" stroke="black" points="681.53,-484.02 692.11,-483.38 683.44,-477.29 681.53,-484.02"/>
<text text-anchor="middle" x="483.66" y="-465.7" font-family="Times,serif" font-size="14.00">workLocation</text>
</g>
<!-- &quot;Jane Doe&quot; -->
<g id="node10" class="node">
<title>&quot;Jane Doe&quot;</title>
<ellipse fill="none" stroke="black" stroke-width="0" cx="717.1" cy="-422.9" rx="60.39" ry="18"/>
<text text-anchor="middle" x="717.1" y="-419.2" font-family="Times,serif" font-size="14.00">&quot;Jane Doe&quot;</text>
</g>
<!-- example.org/permanentUrlToThisJsonDoc&#45;&gt;&quot;Jane Doe&quot; -->
<g id="edge11" class="edge">
<title>example.org/permanentUrlToThisJsonDoc&#45;&gt;&quot;Jane Doe&quot;</title>
<path fill="none" stroke="black" d="M226.54,-548.99C264.15,-518.85 345.63,-458.92 426.16,-434.9 500.33,-412.78 589.88,-412.89 649.65,-416.51"/>
<polygon fill="black" stroke="black" points="649.51,-420.01 659.72,-417.17 649.97,-413.02 649.51,-420.01"/>
<text text-anchor="middle" x="483.66" y="-438.7" font-family="Times,serif" font-size="14.00">name</text>
</g>
<!-- &quot;(425) 123&#45;4567&quot; -->
<g id="node11" class="node">
<title>&quot;(425) 123&#45;4567&quot;</title>
<ellipse fill="none" stroke="black" stroke-width="0" cx="717.1" cy="-368.9" rx="90.98" ry="18"/>
<text text-anchor="middle" x="717.1" y="-365.2" font-family="Times,serif" font-size="14.00">&quot;(425) 123&#45;4567&quot;</text>
</g>
<!-- example.org/permanentUrlToThisJsonDoc&#45;&gt;&quot;(425) 123&#45;4567&quot; -->
<g id="edge14" class="edge">
<title>example.org/permanentUrlToThisJsonDoc&#45;&gt;&quot;(425) 123&#45;4567&quot;</title>
<path fill="none" stroke="black" d="M221.54,-548.72C255.61,-512.47 338.12,-431.65 426.16,-396.9 486.96,-372.91 560.26,-366 617.95,-365.05"/>
<polygon fill="black" stroke="black" points="618.21,-368.55 628.17,-364.94 618.13,-361.55 618.21,-368.55"/>
<text text-anchor="middle" x="483.66" y="-400.7" font-family="Times,serif" font-size="14.00">telephone</text>
</g>
<!-- &quot;http//www.janedoe.co...&quot; -->
<g id="node12" class="node">
<title>&quot;http//www.janedoe.co...&quot;</title>
<ellipse fill="none" stroke="black" stroke-width="0" cx="717.1" cy="-314.9" rx="128.08" ry="18"/>
<text text-anchor="middle" x="717.1" y="-311.2" font-family="Times,serif" font-size="14.00">&quot;http//www.janedoe.co...&quot;</text>
</g>
<!-- example.org/permanentUrlToThisJsonDoc&#45;&gt;&quot;http//www.janedoe.co...&quot; -->
<g id="edge15" class="edge">
<title>example.org/permanentUrlToThisJsonDoc&#45;&gt;&quot;http//www.janedoe.co...&quot;</title>
<path fill="none" stroke="black" d="M217.18,-548.72C246.91,-505.75 328.26,-398.03 426.16,-350.9 473.09,-328.31 529.01,-318.05 579.17,-313.86"/>
<polygon fill="black" stroke="black" points="579.74,-317.33 589.45,-313.08 579.21,-310.35 579.74,-317.33"/>
<text text-anchor="middle" x="483.66" y="-354.7" font-family="Times,serif" font-size="14.00">url</text>
</g>
<!-- PropertyValue -->
<g id="node13" class="node">
<title>PropertyValue</title>
<ellipse fill="none" stroke="#558855" cx="1178.82" cy="-1049.9" rx="77.19" ry="18"/>
<text text-anchor="middle" x="1178.82" y="-1046.2" font-family="Times,serif" font-size="14.00">PropertyValue</text>
</g>
<!-- orcid.org/0000&#45;0002&#45;2257&#45;9127&#45;&gt;PropertyValue -->
<g id="edge17" class="edge">
<title>orcid.org/0000&#45;0002&#45;2257&#45;9127&#45;&gt;PropertyValue</title>
<path fill="none" stroke="black" d="M848.05,-925.14C857.83,-929.43 867,-934.92 875.04,-941.9 894.77,-959.04 873.38,-980.66 893.04,-997.9 948.15,-1046.25 1032.92,-1056.39 1095.66,-1056.15"/>
<polygon fill="black" stroke="black" points="1095.97,-1059.65 1105.93,-1056.02 1095.88,-1052.65 1095.97,-1059.65"/>
<text text-anchor="middle" x="958.04" y="-1053.7" font-family="Times,serif" font-size="14.00">type</text>
</g>
<!-- &quot;Optional description...&quot; -->
<g id="node14" class="node">
<title>&quot;Optional description...&quot;</title>
<ellipse fill="none" stroke="black" stroke-width="0" cx="1178.82" cy="-995.9" rx="122.68" ry="18"/>
<text text-anchor="middle" x="1178.82" y="-992.2" font-family="Times,serif" font-size="14.00">&quot;Optional description...&quot;</text>
</g>
<!-- orcid.org/0000&#45;0002&#45;2257&#45;9127&#45;&gt;&quot;Optional description...&quot; -->
<g id="edge18" class="edge">
<title>orcid.org/0000&#45;0002&#45;2257&#45;9127&#45;&gt;&quot;Optional description...&quot;</title>
<path fill="none" stroke="black" d="M822.14,-928.37C840.01,-931.94 858.22,-936.38 875.04,-941.9 883.53,-944.69 884.52,-948.17 893.04,-950.9 947.22,-968.27 1009.44,-979.08 1061.87,-985.74"/>
<polygon fill="black" stroke="black" points="1061.53,-989.23 1071.88,-986.98 1062.38,-982.28 1061.53,-989.23"/>
<text text-anchor="middle" x="958.04" y="-982.7" font-family="Times,serif" font-size="14.00">description</text>
</g>
<!-- &quot;https//registry.iden...&quot; -->
<g id="node15" class="node">
<title>&quot;https//registry.iden...&quot;</title>
<ellipse fill="none" stroke="black" stroke-width="0" cx="1178.82" cy="-941.9" rx="116.98" ry="18"/>
<text text-anchor="middle" x="1178.82" y="-938.2" font-family="Times,serif" font-size="14.00">&quot;https//registry.iden...&quot;</text>
</g>
<!-- orcid.org/0000&#45;0002&#45;2257&#45;9127&#45;&gt;&quot;https//registry.iden...&quot; -->
<g id="edge19" class="edge">
<title>orcid.org/0000&#45;0002&#45;2257&#45;9127&#45;&gt;&quot;https//registry.iden...&quot;</title>
<path fill="none" stroke="black" d="M857.9,-923.11C922.22,-926.89 997.7,-931.32 1059.19,-934.93"/>
<polygon fill="black" stroke="black" points="1059.13,-938.43 1069.32,-935.53 1059.54,-931.45 1059.13,-938.43"/>
<text text-anchor="middle" x="958.04" y="-935.7" font-family="Times,serif" font-size="14.00">propertyID</text>
</g>
<!-- &quot;https//orcid.org/000...&quot; -->
<g id="node16" class="node">
<title>&quot;https//orcid.org/000...&quot;</title>
<ellipse fill="none" stroke="black" stroke-width="0" cx="1178.82" cy="-887.9" rx="120.78" ry="18"/>
<text text-anchor="middle" x="1178.82" y="-884.2" font-family="Times,serif" font-size="14.00">&quot;https//orcid.org/000...&quot;</text>
</g>
<!-- orcid.org/0000&#45;0002&#45;2257&#45;9127&#45;&gt;&quot;https//orcid.org/000...&quot; -->
<g id="edge20" class="edge">
<title>orcid.org/0000&#45;0002&#45;2257&#45;9127&#45;&gt;&quot;https//orcid.org/000...&quot;</title>
<path fill="none" stroke="black" d="M857.9,-906.69C921.09,-902.98 995.06,-898.63 1055.94,-895.06"/>
<polygon fill="black" stroke="black" points="1056.21,-898.55 1065.99,-894.47 1055.8,-891.56 1056.21,-898.55"/>
<text text-anchor="middle" x="958.04" y="-907.7" font-family="Times,serif" font-size="14.00">url</text>
</g>
<!-- Place -->
<g id="node17" class="node">
<title>Place</title>
<ellipse fill="none" stroke="#558855" cx="1178.82" cy="-833.9" rx="36" ry="18"/>
<text text-anchor="middle" x="1178.82" y="-830.2" font-family="Times,serif" font-size="14.00">Place</text>
</g>
<!-- _&#45;&gt;Place -->
<g id="edge21" class="edge">
<title>_&#45;&gt;Place</title>
<path fill="none" stroke="black" d="M736.53,-503.61C770.51,-528.18 842.54,-585.83 875.04,-653.9 888.93,-683 870.25,-775.08 893.04,-797.9 956.92,-861.87 1073.26,-853.26 1135.64,-842.81"/>
<polygon fill="black" stroke="black" points="1136.3,-846.24 1145.54,-841.05 1135.08,-839.35 1136.3,-846.24"/>
<text text-anchor="middle" x="958.04" y="-851.7" font-family="Times,serif" font-size="14.00">type</text>
</g>
<!-- &quot;54 Ocean Drive, 2352...&quot; -->
<g id="node18" class="node">
<title>&quot;54 Ocean Drive, 2352...&quot;</title>
<ellipse fill="none" stroke="black" stroke-width="0" cx="1178.82" cy="-779.9" rx="129.18" ry="18"/>
<text text-anchor="middle" x="1178.82" y="-776.2" font-family="Times,serif" font-size="14.00">&quot;54 Ocean Drive, 2352...&quot;</text>
</g>
<!-- _&#45;&gt;&quot;54 Ocean Drive, 2352...&quot; -->
<g id="edge22" class="edge">
<title>_&#45;&gt;&quot;54 Ocean Drive, 2352...&quot;</title>
<path fill="none" stroke="black" d="M735.73,-504.02C768.38,-529.28 838.28,-588.04 875.04,-653.9 890.69,-681.95 869.68,-701.85 893.04,-723.9 932.71,-761.35 989.76,-777.14 1042.4,-782.89"/>
<polygon fill="black" stroke="black" points="1042.23,-786.39 1052.52,-783.88 1042.91,-779.42 1042.23,-786.39"/>
<text text-anchor="middle" x="958.04" y="-782.7" font-family="Times,serif" font-size="14.00">address</text>
</g>
<!-- &quot;Place name&quot; -->
<g id="node19" class="node">
<title>&quot;Place name&quot;</title>
<ellipse fill="none" stroke="black" stroke-width="0" cx="1178.82" cy="-725.9" rx="72.59" ry="18"/>
<text text-anchor="middle" x="1178.82" y="-722.2" font-family="Times,serif" font-size="14.00">&quot;Place name&quot;</text>
</g>
<!-- _&#45;&gt;&quot;Place name&quot; -->
<g id="edge23" class="edge">
<title>_&#45;&gt;&quot;Place name&quot;</title>
<path fill="none" stroke="black" d="M729.99,-506.8C755.83,-540.2 820.64,-617.97 893.04,-658.9 956.88,-694.99 1039.31,-711.69 1099.04,-719.38"/>
<polygon fill="black" stroke="black" points="1098.82,-722.88 1109.17,-720.63 1099.68,-715.93 1098.82,-722.88"/>
<text text-anchor="middle" x="958.04" y="-708.7" font-family="Times,serif" font-size="14.00">name</text>
</g>
<!-- Language -->
<g id="node20" class="node">
<title>Language</title>
<ellipse fill="none" stroke="#558855" cx="1178.82" cy="-671.9" rx="55.79" ry="18"/>
<text text-anchor="middle" x="1178.82" y="-668.2" font-family="Times,serif" font-size="14.00">Language</text>
</g>
<!-- _&#45;&gt;Language -->
<g id="edge24" class="edge">
<title>_&#45;&gt;Language</title>
<path fill="none" stroke="black" d="M734.88,-504.66C764.85,-528.57 830.3,-577.91 893.04,-605.9 955.16,-633.61 974.75,-629.64 1041.04,-644.9 1066.85,-650.84 1095.59,-656.64 1120.03,-661.32"/>
<polygon fill="black" stroke="black" points="1119.39,-664.77 1129.87,-663.2 1120.7,-657.89 1119.39,-664.77"/>
<text text-anchor="middle" x="958.04" y="-643.7" font-family="Times,serif" font-size="14.00">type</text>
</g>
<!-- &quot;es&quot; -->
<g id="node21" class="node">
<title>&quot;es&quot;</title>
<ellipse fill="none" stroke="black" stroke-width="0" cx="1178.82" cy="-617.9" rx="29.8" ry="18"/>
<text text-anchor="middle" x="1178.82" y="-614.2" font-family="Times,serif" font-size="14.00">&quot;es&quot;</text>
</g>
<!-- _&#45;&gt;&quot;es&quot; -->
<g id="edge25" class="edge">
<title>_&#45;&gt;&quot;es&quot;</title>
<path fill="none" stroke="black" d="M739.77,-500.83C772.42,-515.47 836.43,-542.94 893.04,-559.9 957.41,-579.19 975.18,-577.5 1041.04,-590.9 1074.48,-597.7 1112.57,-605.2 1140.05,-610.57"/>
<polygon fill="black" stroke="black" points="1139.55,-614.03 1150.03,-612.51 1140.89,-607.16 1139.55,-614.03"/>
<text text-anchor="middle" x="958.04" y="-590.7" font-family="Times,serif" font-size="14.00">alternateName</text>
</g>
<!-- &quot;Spanish&quot; -->
<g id="node22" class="node">
<title>&quot;Spanish&quot;</title>
<ellipse fill="none" stroke="black" stroke-width="0" cx="1178.82" cy="-563.9" rx="56.59" ry="18"/>
<text text-anchor="middle" x="1178.82" y="-560.2" font-family="Times,serif" font-size="14.00">&quot;Spanish&quot;</text>
</g>
<!-- _&#45;&gt;&quot;Spanish&quot; -->
<g id="edge26" class="edge">
<title>_&#45;&gt;&quot;Spanish&quot;</title>
<path fill="none" stroke="black" d="M743.26,-495.59C777.22,-501.88 839.6,-513.23 893.04,-521.9 969.94,-534.38 1058.79,-547.24 1116.51,-555.38"/>
<polygon fill="black" stroke="black" points="1116.18,-558.87 1126.57,-556.8 1117.15,-551.94 1116.18,-558.87"/>
<text text-anchor="middle" x="958.04" y="-544.7" font-family="Times,serif" font-size="14.00">name</text>
</g>
<!-- DefinedTerm -->
<g id="node23" class="node">
<title>DefinedTerm</title>
<ellipse fill="none" stroke="#558855" cx="1178.82" cy="-509.9" rx="70.39" ry="18"/>
<text text-anchor="middle" x="1178.82" y="-506.2" font-family="Times,serif" font-size="14.00">DefinedTerm</text>
</g>
<!-- _&#45;&gt;DefinedTerm -->
<g id="edge27" class="edge">
<title>_&#45;&gt;DefinedTerm</title>
<path fill="none" stroke="black" d="M744.13,-491.97C811.41,-494.76 993.17,-502.27 1098.81,-506.63"/>
<polygon fill="black" stroke="black" points="1098.96,-510.14 1109.1,-507.06 1099.25,-503.15 1098.96,-510.14"/>
<text text-anchor="middle" x="958.04" y="-506.7" font-family="Times,serif" font-size="14.00">type</text>
</g>
<!-- &quot;UN/LOCODE Code List ...&quot; -->
<g id="node24" class="node">
<title>&quot;UN/LOCODE Code List ...&quot;</title>
<ellipse fill="none" stroke="black" stroke-width="0" cx="1178.82" cy="-455.9" rx="137.58" ry="18"/>
<text text-anchor="middle" x="1178.82" y="-452.2" font-family="Times,serif" font-size="14.00">&quot;UN/LOCODE Code List ...&quot;</text>
</g>
<!-- _&#45;&gt;&quot;UN/LOCODE Code List ...&quot; -->
<g id="edge28" class="edge">
<title>_&#45;&gt;&quot;UN/LOCODE Code List ...&quot;</title>
<path fill="none" stroke="black" d="M744.13,-488.92C801.77,-484.53 943.44,-473.74 1049.28,-465.69"/>
<polygon fill="black" stroke="black" points="1049.7,-469.16 1059.4,-464.91 1049.17,-462.18 1049.7,-469.16"/>
<text text-anchor="middle" x="958.04" y="-480.7" font-family="Times,serif" font-size="14.00">inDefinedTermSet</text>
</g>
<!-- &quot;Fiji&quot; -->
<g id="node25" class="node">
<title>&quot;Fiji&quot;</title>
<ellipse fill="none" stroke="black" stroke-width="0" cx="1178.82" cy="-401.9" rx="34.39" ry="18"/>
<text text-anchor="middle" x="1178.82" y="-398.2" font-family="Times,serif" font-size="14.00">&quot;Fiji&quot;</text>
</g>
<!-- _&#45;&gt;&quot;Fiji&quot; -->
<g id="edge29" class="edge">
<title>_&#45;&gt;&quot;Fiji&quot;</title>
<path fill="none" stroke="black" d="M742.6,-484.43C776.32,-475.65 839,-459.83 893.04,-448.9 978.4,-431.63 1079.12,-416.15 1135,-407.98"/>
<polygon fill="black" stroke="black" points="1135.83,-411.4 1145.23,-406.5 1134.83,-404.47 1135.83,-411.4"/>
<text text-anchor="middle" x="958.04" y="-452.7" font-family="Times,serif" font-size="14.00">name</text>
</g>
<!-- _&#45;&gt;&quot;Fiji&quot; -->
<g id="edge35" class="edge">
<title>_&#45;&gt;&quot;Fiji&quot;</title>
<path fill="none" stroke="black" d="M744.11,-490.89C778.15,-489.5 837.82,-482.21 875.04,-449.9 890.68,-436.32 875.89,-418.53 893.04,-406.9 931.23,-380.99 1065.14,-390.21 1134.88,-397.1"/>
<polygon fill="black" stroke="black" points="1134.78,-400.61 1145.09,-398.14 1135.49,-393.64 1134.78,-400.61"/>
<text text-anchor="middle" x="958.04" y="-410.7" font-family="Times,serif" font-size="14.00">name</text>
</g>
<!-- &quot;FJ&quot; -->
<g id="node26" class="node">
<title>&quot;FJ&quot;</title>
<ellipse fill="none" stroke="black" stroke-width="0" cx="1178.82" cy="-347.9" rx="29.5" ry="18"/>
<text text-anchor="middle" x="1178.82" y="-344.2" font-family="Times,serif" font-size="14.00">&quot;FJ&quot;</text>
</g>
<!-- _&#45;&gt;&quot;FJ&quot; -->
<g id="edge30" class="edge">
<title>_&#45;&gt;&quot;FJ&quot;</title>
<path fill="none" stroke="black" d="M744.11,-491.83C778.99,-491.59 840.5,-485.64 875.04,-449.9 900.36,-423.69 865.48,-393.75 893.04,-369.9 962.9,-309.44 1081.92,-325.33 1141.54,-338.46"/>
<polygon fill="black" stroke="black" points="1141.08,-341.95 1151.61,-340.78 1142.65,-335.13 1141.08,-341.95"/>
<text text-anchor="middle" x="958.04" y="-373.7" font-family="Times,serif" font-size="14.00">termCode</text>
</g>
<!-- &quot;https//unece.org/tra...&quot; -->
<g id="node27" class="node">
<title>&quot;https//unece.org/tra...&quot;</title>
<ellipse fill="none" stroke="black" stroke-width="0" cx="1178.82" cy="-293.9" rx="120.78" ry="18"/>
<text text-anchor="middle" x="1178.82" y="-290.2" font-family="Times,serif" font-size="14.00">&quot;https//unece.org/tra...&quot;</text>
</g>
<!-- _&#45;&gt;&quot;https//unece.org/tra...&quot; -->
<g id="edge31" class="edge">
<title>_&#45;&gt;&quot;https//unece.org/tra...&quot;</title>
<path fill="none" stroke="black" d="M744.02,-492.3C779.37,-492.65 842.07,-487.47 875.04,-449.9 917.29,-401.75 845.97,-350.36 893.04,-306.9 917.46,-284.34 994.69,-281.88 1062.57,-284.64"/>
<polygon fill="black" stroke="black" points="1062.79,-288.15 1072.94,-285.1 1063.11,-281.16 1062.79,-288.15"/>
<text text-anchor="middle" x="958.04" y="-310.7" font-family="Times,serif" font-size="14.00">url</text>
</g>
<!-- Text -->
<g id="node28" class="node">
<title>Text</title>
<ellipse fill="none" stroke="#558855" cx="1178.82" cy="-239.9" rx="30.59" ry="18"/>
<text text-anchor="middle" x="1178.82" y="-236.2" font-family="Times,serif" font-size="14.00">Text</text>
</g>
<!-- _&#45;&gt;Text -->
<g id="edge32" class="edge">
<title>_&#45;&gt;Text</title>
<path fill="none" stroke="black" d="M744.17,-492.43C779.7,-492.93 842.6,-487.93 875.04,-449.9 901.84,-418.47 863.69,-293.97 893.04,-264.9 958.87,-199.69 1080.15,-216.29 1140.99,-230.07"/>
<polygon fill="black" stroke="black" points="1140.38,-233.52 1150.92,-232.41 1141.99,-226.71 1140.38,-233.52"/>
<text text-anchor="middle" x="958.04" y="-268.7" font-family="Times,serif" font-size="14.00">type</text>
</g>
<!-- &quot;Invasive species in ...&quot; -->
<g id="node29" class="node">
<title>&quot;Invasive species in ...&quot;</title>
<ellipse fill="none" stroke="black" stroke-width="0" cx="1178.82" cy="-185.9" rx="118.08" ry="18"/>
<text text-anchor="middle" x="1178.82" y="-182.2" font-family="Times,serif" font-size="14.00">&quot;Invasive species in ...&quot;</text>
</g>
<!-- _&#45;&gt;&quot;Invasive species in ...&quot; -->
<g id="edge33" class="edge">
<title>_&#45;&gt;&quot;Invasive species in ...&quot;</title>
<path fill="none" stroke="black" d="M744,-492.53C779.64,-493.21 842.99,-488.44 875.04,-449.9 910.64,-407.07 853.2,-238.83 893.04,-199.9 917.16,-176.32 996.32,-173.88 1065.08,-176.75"/>
<polygon fill="black" stroke="black" points="1064.99,-180.25 1075.14,-177.21 1065.31,-173.26 1064.99,-180.25"/>
<text text-anchor="middle" x="958.04" y="-203.7" font-family="Times,serif" font-size="14.00">description</text>
</g>
<!-- Country -->
<g id="node30" class="node">
<title>Country</title>
<ellipse fill="none" stroke="#558855" cx="1178.82" cy="-131.9" rx="48.19" ry="18"/>
<text text-anchor="middle" x="1178.82" y="-128.2" font-family="Times,serif" font-size="14.00">Country</text>
</g>
<!-- _&#45;&gt;Country -->
<g id="edge34" class="edge">
<title>_&#45;&gt;Country</title>
<path fill="none" stroke="black" d="M744.06,-492.58C779.76,-493.31 843.19,-488.61 875.04,-449.9 916.47,-399.52 847.52,-203.63 893.04,-156.9 953.85,-94.47 1065.24,-105.92 1129.2,-119.28"/>
<polygon fill="black" stroke="black" points="1128.53,-122.71 1139.04,-121.42 1130.02,-115.87 1128.53,-122.71"/>
<text text-anchor="middle" x="958.04" y="-160.7" font-family="Times,serif" font-size="14.00">type</text>
</g>
<!-- URL -->
<g id="node31" class="node">
<title>URL</title>
<ellipse fill="none" stroke="#558855" cx="1178.82" cy="-77.9" rx="31.4" ry="18"/>
<text text-anchor="middle" x="1178.82" y="-74.2" font-family="Times,serif" font-size="14.00">URL</text>
</g>
<!-- _&#45;&gt;URL -->
<g id="edge36" class="edge">
<title>_&#45;&gt;URL</title>
<path fill="none" stroke="black" d="M744.12,-492.63C779.89,-493.42 843.41,-488.79 875.04,-449.9 900.23,-418.91 864.73,-119.08 893.04,-90.9 926.4,-57.68 1067.44,-66.65 1137.7,-73.46"/>
<polygon fill="black" stroke="black" points="1137.64,-76.97 1147.94,-74.48 1138.34,-70 1137.64,-76.97"/>
<text text-anchor="middle" x="958.04" y="-94.7" font-family="Times,serif" font-size="14.00">type</text>
</g>
<!-- &quot;https//www.wikidata....&quot; -->
<g id="node32" class="node">
<title>&quot;https//www.wikidata....&quot;</title>
<ellipse fill="none" stroke="black" stroke-width="0" cx="1178.82" cy="-23.9" rx="126.18" ry="18"/>
<text text-anchor="middle" x="1178.82" y="-20.2" font-family="Times,serif" font-size="14.00">&quot;https//www.wikidata....&quot;</text>
</g>
<!-- _&#45;&gt;&quot;https//www.wikidata....&quot; -->
<g id="edge37" class="edge">
<title>_&#45;&gt;&quot;https//www.wikidata....&quot;</title>
<path fill="none" stroke="black" d="M744.15,-492.65C779.96,-493.47 843.52,-488.87 875.04,-449.9 903.08,-415.22 862.18,-81.1 893.04,-48.9 946.25,6.63 1039.39,4.1 1104.62,-6.56"/>
<polygon fill="black" stroke="black" points="1104.39,-10.07 1114.84,-8.33 1105.58,-3.17 1104.39,-10.07"/>
<text text-anchor="middle" x="958.04" y="-52.7" font-family="Times,serif" font-size="14.00">url</text>
</g>
</g>
</svg>