<?xml version="1.0" encoding="UTF-8" standalone="no"?>
<!DOCTYPE svg PUBLIC "-//W3C//DTD SVG 1.1//EN"
 "http://www.w3.org/Graphics/SVG/1.1/DTD/svg11.dtd">
<!-- Generated by graphviz version 2.43.0 (0)
 -->
<!-- Title: %3 Pages: 1 -->
<svg width="1241pt" height="314pt"
 viewBox="0.00 0.00 1240.71 314.00" xmlns="http://www.w3.org/2000/svg" xmlns:xlink="http://www.w3.org/1999/xlink">
<g id="graph0" class="graph" transform="scale(1 1) rotate(0) translate(4 310)">
<title>%3</title>
<polygon fill="white" stroke="transparent" points="-4,4 -4,-310 1236.71,-310 1236.71,4 -4,4"/>
<!-- Course -->
<g id="node1" class="node">
<title>Course</title>
<ellipse fill="none" stroke="#558855" cx="687.4" cy="-288" rx="43.59" ry="18"/>
<text text-anchor="middle" x="687.4" y="-284.3" font-family="Times,serif" font-size="14.00">Course</text>
</g>
<!-- example.org/permanentUrlToThisJsonDoc -->
<g id="node2" class="node">
<title>example.org/permanentUrlToThisJsonDoc</title>
<ellipse fill="none" stroke="black" cx="204.08" cy="-180" rx="204.16" ry="18"/>
<text text-anchor="middle" x="204.08" y="-176.3" font-family="Times,serif" font-size="14.00">example.org/permanentUrlToThisJsonDoc</text>
</g>
<!-- example.org/permanentUrlToThisJsonDoc&#45;&gt;Course -->
<g id="edge1" class="edge">
<title>example.org/permanentUrlToThisJsonDoc&#45;&gt;Course</title>
<path fill="none" stroke="black" d="M267.59,-197.19C332.44,-214.66 436.92,-241.81 528.16,-261 564.06,-268.55 604.87,-275.47 636.06,-280.42"/>
<polygon fill="black" stroke="black" points="635.82,-283.93 646.24,-282.02 636.91,-277.01 635.82,-283.93"/>
<text text-anchor="middle" x="468.16" y="-258.8" font-family="Times,serif" font-size="14.00">type</text>
</g>
<!-- &quot;SD100&quot; -->
<g id="node3" class="node">
<title>&quot;SD100&quot;</title>
<ellipse fill="none" stroke="black" stroke-width="0" cx="687.4" cy="-234" rx="50.89" ry="18"/>
<text text-anchor="middle" x="687.4" y="-230.3" font-family="Times,serif" font-size="14.00">&quot;SD100&quot;</text>
</g>
<!-- example.org/permanentUrlToThisJsonDoc&#45;&gt;&quot;SD100&quot; -->
<g id="edge2" class="edge">
<title>example.org/permanentUrlToThisJsonDoc&#45;&gt;&quot;SD100&quot;</title>
<path fill="none" stroke="black" d="M330.91,-194.12C427.21,-204.92 555.55,-219.32 628.75,-227.53"/>
<polygon fill="black" stroke="black" points="628.38,-231.01 638.71,-228.65 629.16,-224.06 628.38,-231.01"/>
<text text-anchor="middle" x="468.16" y="-216.8" font-family="Times,serif" font-size="14.00">courseCode</text>
</g>
<!-- &quot;An introduction to a...&quot; -->
<g id="node4" class="node">
<title>&quot;An introduction to a...&quot;</title>
<ellipse fill="none" stroke="black" stroke-width="0" cx="687.4" cy="-180" rx="120.78" ry="18"/>
<text text-anchor="middle" x="687.4" y="-176.3" font-family="Times,serif" font-size="14.00">&quot;An introduction to a...&quot;</text>
</g>
<!-- example.org/permanentUrlToThisJsonDoc&#45;&gt;&quot;An introduction to a...&quot; -->
<g id="edge3" class="edge">
<title>example.org/permanentUrlToThisJsonDoc&#45;&gt;&quot;An introduction to a...&quot;</title>
<path fill="none" stroke="black" d="M408.51,-180C458.48,-180 510.64,-180 556.1,-180"/>
<polygon fill="black" stroke="black" points="556.3,-183.5 566.3,-180 556.3,-176.5 556.3,-183.5"/>
<text text-anchor="middle" x="468.16" y="-183.8" font-family="Times,serif" font-size="14.00">description</text>
</g>
<!-- &quot;Structured Data&quot; -->
<g id="node5" class="node">
<title>&quot;Structured Data&quot;</title>
<ellipse fill="none" stroke="black" stroke-width="0" cx="687.4" cy="-126" rx="94.78" ry="18"/>
<text text-anchor="middle" x="687.4" y="-122.3" font-family="Times,serif" font-size="14.00">&quot;Structured Data&quot;</text>
</g>
<!-- example.org/permanentUrlToThisJsonDoc&#45;&gt;&quot;Structured Data&quot; -->
<g id="edge4" class="edge">
<title>example.org/permanentUrlToThisJsonDoc&#45;&gt;&quot;Structured Data&quot;</title>
<path fill="none" stroke="black" d="M330.91,-165.88C413.65,-156.6 520.03,-144.67 594.78,-136.28"/>
<polygon fill="black" stroke="black" points="595.56,-139.71 605.11,-135.12 594.78,-132.76 595.56,-139.71"/>
<text text-anchor="middle" x="468.16" y="-157.8" font-family="Times,serif" font-size="14.00">name</text>
</g>
<!-- grid.ac/institutes/grid.475727.4 -->
<g id="node6" class="node">
<title>grid.ac/institutes/grid.475727.4</title>
<ellipse fill="none" stroke="#558855" cx="687.4" cy="-72" rx="159.47" ry="18"/>
<text text-anchor="middle" x="687.4" y="-68.3" font-family="Times,serif" font-size="14.00">grid.ac/institutes/grid.475727.4</text>
</g>
<!-- example.org/permanentUrlToThisJsonDoc&#45;&gt;grid.ac/institutes/grid.475727.4 -->
<g id="edge5" class="edge">
<title>example.org/permanentUrlToThisJsonDoc&#45;&gt;grid.ac/institutes/grid.475727.4</title>
<path fill="none" stroke="black" d="M267.59,-162.81C332.44,-145.34 436.92,-118.19 528.16,-99 546.08,-95.23 565.22,-91.62 583.78,-88.33"/>
<polygon fill="black" stroke="black" points="584.47,-91.76 593.72,-86.59 583.26,-84.87 584.47,-91.76"/>
<text text-anchor="middle" x="468.16" y="-124.8" font-family="Times,serif" font-size="14.00">provider</text>
</g>
<!-- Organization -->
<g id="node7" class="node">
<title>Organization</title>
<ellipse fill="none" stroke="#558855" cx="1098.17" cy="-126" rx="70.69" ry="18"/>
<text text-anchor="middle" x="1098.17" y="-122.3" font-family="Times,serif" font-size="14.00">Organization</text>
</g>
<!-- grid.ac/institutes/grid.475727.4&#45;&gt;Organization -->
<g id="edge6" class="edge">
<title>grid.ac/institutes/grid.475727.4&#45;&gt;Organization</title>
<path fill="none" stroke="black" d="M791.55,-85.63C864.29,-95.24 959.92,-107.87 1024.69,-116.42"/>
<polygon fill="black" stroke="black" points="1024.44,-119.92 1034.81,-117.76 1025.36,-112.98 1024.44,-119.92"/>
<text text-anchor="middle" x="905.14" y="-108.8" font-family="Times,serif" font-size="14.00">type</text>
</g>
<!-- &quot;UN Department of Eco...&quot; -->
<g id="node8" class="node">
<title>&quot;UN Department of Eco...&quot;</title>
<ellipse fill="none" stroke="black" stroke-width="0" cx="1098.17" cy="-72" rx="134.58" ry="18"/>
<text text-anchor="middle" x="1098.17" y="-68.3" font-family="Times,serif" font-size="14.00">&quot;UN Department of Eco...&quot;</text>
</g>
<!-- grid.ac/institutes/grid.475727.4&#45;&gt;&quot;UN Department of Eco...&quot; -->
<g id="edge7" class="edge">
<title>grid.ac/institutes/grid.475727.4&#45;&gt;&quot;UN Department of Eco...&quot;</title>
<path fill="none" stroke="black" d="M846.73,-72C881.89,-72 918.96,-72 953.48,-72"/>
<polygon fill="black" stroke="black" points="953.63,-75.5 963.63,-72 953.63,-68.5 953.63,-75.5"/>
<text text-anchor="middle" x="905.14" y="-75.8" font-family="Times,serif" font-size="14.00">description</text>
</g>
<!-- &quot;Example University&quot; -->
<g id="node9" class="node">
<title>&quot;Example University&quot;</title>
<ellipse fill="none" stroke="black" stroke-width="0" cx="1098.17" cy="-18" rx="111.58" ry="18"/>
<text text-anchor="middle" x="1098.17" y="-14.3" font-family="Times,serif" font-size="14.00">&quot;Example University&quot;</text>
</g>
<!-- grid.ac/institutes/grid.475727.4&#45;&gt;&quot;Example University&quot; -->
<g id="edge8" class="edge">
<title>grid.ac/institutes/grid.475727.4&#45;&gt;&quot;Example University&quot;</title>
<path fill="none" stroke="black" d="M791.55,-58.37C855.98,-49.86 938.37,-38.98 1001.37,-30.66"/>
<polygon fill="black" stroke="black" points="1001.85,-34.12 1011.31,-29.34 1000.94,-27.18 1001.85,-34.12"/>
<text text-anchor="middle" x="905.14" y="-51.8" font-family="Times,serif" font-size="14.00">name</text>
</g>
</g>
</svg>