<?xml version="1.0" encoding="UTF-8" standalone="no"?>
<!DOCTYPE svg PUBLIC "-//W3C//DTD SVG 1.1//EN"
 "http://www.w3.org/Graphics/SVG/1.1/DTD/svg11.dtd">
<!-- Generated by graphviz version 2.43.0 (0)
 -->
<!-- Title: %3 Pages: 1 -->
<svg width="1212pt" height="206pt"
 viewBox="0.00 0.00 1211.61 206.00" xmlns="http://www.w3.org/2000/svg" xmlns:xlink="http://www.w3.org/1999/xlink">
<g id="graph0" class="graph" transform="scale(1 1) rotate(0) translate(4 202)">
<title>%3</title>
<polygon fill="white" stroke="transparent" points="-4,4 -4,-202 1207.61,-202 1207.61,4 -4,4"/>
<!-- PropertyValue -->
<g id="node1" class="node">
<title>PropertyValue</title>
<ellipse fill="none" stroke="#558855" cx="1056.08" cy="-180" rx="77.19" ry="18"/>
<text text-anchor="middle" x="1056.08" y="-176.3" font-family="Times,serif" font-size="14.00">PropertyValue</text>
</g>
<!-- doi.org/10.5066/F7VX0DMQ -->
<g id="node2" class="node">
<title>doi.org/10.5066/F7VX0DMQ</title>
<ellipse fill="none" stroke="#558855" cx="651.85" cy="-99" rx="141.88" ry="18"/>
<text text-anchor="middle" x="651.85" y="-95.3" font-family="Times,serif" font-size="14.00">doi.org/10.5066/F7VX0DMQ</text>
</g>
<!-- doi.org/10.5066/F7VX0DMQ&#45;&gt;PropertyValue -->
<g id="edge1" class="edge">
<title>doi.org/10.5066/F7VX0DMQ&#45;&gt;PropertyValue</title>
<path fill="none" stroke="black" d="M723.55,-114.54C774.82,-125.66 845.86,-140.77 908.54,-153 933.2,-157.81 960.24,-162.86 984.3,-167.27"/>
<polygon fill="black" stroke="black" points="983.95,-170.77 994.42,-169.12 985.21,-163.88 983.95,-170.77"/>
<text text-anchor="middle" x="851.04" y="-151.8" font-family="Times,serif" font-size="14.00">type</text>
</g>
<!-- &quot;https//registry.identifie...&quot; -->
<g id="node3" class="node">
<title>&quot;https//registry.identifie...&quot;</title>
<ellipse fill="none" stroke="black" stroke-width="0" cx="1056.08" cy="-126" rx="135.38" ry="18"/>
<text text-anchor="middle" x="1056.08" y="-122.3" font-family="Times,serif" font-size="14.00">&quot;https//registry.identifie...&quot;</text>
</g>
<!-- doi.org/10.5066/F7VX0DMQ&#45;&gt;&quot;https//registry.identifie...&quot; -->
<g id="edge2" class="edge">
<title>doi.org/10.5066/F7VX0DMQ&#45;&gt;&quot;https//registry.identifie...&quot;</title>
<path fill="none" stroke="black" d="M777.36,-107.36C824.21,-110.5 877.58,-114.09 924.93,-117.26"/>
<polygon fill="black" stroke="black" points="924.73,-120.76 934.94,-117.94 925.2,-113.77 924.73,-120.76"/>
<text text-anchor="middle" x="851.04" y="-117.8" font-family="Times,serif" font-size="14.00">propertyID</text>
</g>
<!-- &quot;https//doi.org/10.5066/F7...&quot; -->
<g id="node4" class="node">
<title>&quot;https//doi.org/10.5066/F7...&quot;</title>
<ellipse fill="none" stroke="black" stroke-width="0" cx="1056.08" cy="-72" rx="147.57" ry="18"/>
<text text-anchor="middle" x="1056.08" y="-68.3" font-family="Times,serif" font-size="14.00">&quot;https//doi.org/10.5066/F7...&quot;</text>
</g>
<!-- doi.org/10.5066/F7VX0DMQ&#45;&gt;&quot;https//doi.org/10.5066/F7...&quot; -->
<g id="edge3" class="edge">
<title>doi.org/10.5066/F7VX0DMQ&#45;&gt;&quot;https//doi.org/10.5066/F7...&quot;</title>
<path fill="none" stroke="black" d="M777.36,-90.64C821.34,-87.69 871.05,-84.35 916.14,-81.33"/>
<polygon fill="black" stroke="black" points="916.55,-84.81 926.29,-80.65 916.08,-77.82 916.55,-84.81"/>
<text text-anchor="middle" x="851.04" y="-90.8" font-family="Times,serif" font-size="14.00">url</text>
</g>
<!-- &quot;doi10.5066/F7VX0DMQ&quot; -->
<g id="node5" class="node">
<title>&quot;doi10.5066/F7VX0DMQ&quot;</title>
<ellipse fill="none" stroke="black" stroke-width="0" cx="1056.08" cy="-18" rx="129.18" ry="18"/>
<text text-anchor="middle" x="1056.08" y="-14.3" font-family="Times,serif" font-size="14.00">&quot;doi10.5066/F7VX0DMQ&quot;</text>
</g>
<!-- doi.org/10.5066/F7VX0DMQ&#45;&gt;&quot;doi10.5066/F7VX0DMQ&quot; -->
<g id="edge4" class="edge">
<title>doi.org/10.5066/F7VX0DMQ&#45;&gt;&quot;doi10.5066/F7VX0DMQ&quot;</title>
<path fill="none" stroke="black" d="M742.18,-85.05C759.4,-81.46 777.16,-77.14 793.54,-72 801.89,-69.38 803.19,-66.64 811.54,-64 856.55,-49.79 907.71,-39.31 951.48,-31.97"/>
<polygon fill="black" stroke="black" points="952.27,-35.39 961.57,-30.32 951.13,-28.48 952.27,-35.39"/>
<text text-anchor="middle" x="851.04" y="-67.8" font-family="Times,serif" font-size="14.00">value</text>
</g>
<!-- CreativeWork -->
<g id="node6" class="node">
<title>CreativeWork</title>
<ellipse fill="none" stroke="#558855" cx="651.85" cy="-45" rx="74.19" ry="18"/>
<text text-anchor="middle" x="651.85" y="-41.3" font-family="Times,serif" font-size="14.00">CreativeWork</text>
</g>
<!-- example.org/permanentUrlToThisJsonDoc -->
<g id="node7" class="node">
<title>example.org/permanentUrlToThisJsonDoc</title>
<ellipse fill="none" stroke="black" cx="204.08" cy="-64" rx="204.16" ry="18"/>
<text text-anchor="middle" x="204.08" y="-60.3" font-family="Times,serif" font-size="14.00">example.org/permanentUrlToThisJsonDoc</text>
</g>
<!-- example.org/permanentUrlToThisJsonDoc&#45;&gt;doi.org/10.5066/F7VX0DMQ -->
<g id="edge6" class="edge">
<title>example.org/permanentUrlToThisJsonDoc&#45;&gt;doi.org/10.5066/F7VX0DMQ</title>
<path fill="none" stroke="black" d="M357.24,-75.95C410.45,-80.12 469.65,-84.77 520.87,-88.79"/>
<polygon fill="black" stroke="black" points="520.76,-92.3 531.01,-89.59 521.31,-85.32 520.76,-92.3"/>
<text text-anchor="middle" x="459.16" y="-88.8" font-family="Times,serif" font-size="14.00">identifier</text>
</g>
<!-- example.org/permanentUrlToThisJsonDoc&#45;&gt;CreativeWork -->
<g id="edge5" class="edge">
<title>example.org/permanentUrlToThisJsonDoc&#45;&gt;CreativeWork</title>
<path fill="none" stroke="black" d="M385.76,-55.75C399.43,-55.15 413.02,-54.56 426.16,-54 473.29,-51.99 525.97,-49.87 568.48,-48.2"/>
<polygon fill="black" stroke="black" points="568.64,-51.69 578.5,-47.8 568.37,-44.7 568.64,-51.69"/>
<text text-anchor="middle" x="459.16" y="-57.8" font-family="Times,serif" font-size="14.00">type</text>
</g>
</g>
</svg>