<?xml version="1.0" encoding="UTF-8" standalone="no"?>
<!DOCTYPE svg PUBLIC "-//W3C//DTD SVG 1.1//EN"
 "http://www.w3.org/Graphics/SVG/1.1/DTD/svg11.dtd">
<!-- Generated by graphviz version 2.43.0 (0)
 -->
<!-- Title: %3 Pages: 1 -->
<svg width="1323pt" height="209pt"
 viewBox="0.00 0.00 1323.20 209.00" xmlns="http://www.w3.org/2000/svg" xmlns:xlink="http://www.w3.org/1999/xlink">
<g id="graph0" class="graph" transform="scale(1 1) rotate(0) translate(4 205)">
<title>%3</title>
<polygon fill="white" stroke="transparent" points="-4,4 -4,-205 1319.2,-205 1319.2,4 -4,4"/>
<!-- CreativeWork -->
<g id="node1" class="node">
<title>CreativeWork</title>
<ellipse fill="none" stroke="#558855" cx="1152.07" cy="-183" rx="74.19" ry="18"/>
<text text-anchor="middle" x="1152.07" y="-179.3" font-family="Times,serif" font-size="14.00">CreativeWork</text>
</g>
<!-- purl.unep.org/sdg/SDGIO_00020173 -->
<g id="node2" class="node">
<title>purl.unep.org/sdg/SDGIO_00020173</title>
<ellipse fill="none" stroke="#558855" cx="692.55" cy="-122" rx="179.27" ry="18"/>
<text text-anchor="middle" x="692.55" y="-118.3" font-family="Times,serif" font-size="14.00">purl.unep.org/sdg/SDGIO_00020173</text>
</g>
<!-- purl.unep.org/sdg/SDGIO_00020173&#45;&gt;CreativeWork -->
<g id="edge1" class="edge">
<title>purl.unep.org/sdg/SDGIO_00020173&#45;&gt;CreativeWork</title>
<path fill="none" stroke="black" d="M801.1,-136.34C885.75,-147.63 1001.52,-163.06 1076.3,-173.03"/>
<polygon fill="black" stroke="black" points="1076.2,-176.55 1086.57,-174.4 1077.12,-169.61 1076.2,-176.55"/>
<text text-anchor="middle" x="930.43" y="-160.8" font-family="Times,serif" font-size="14.00">type</text>
</g>
<!-- &quot;Number of countries makin...&quot; -->
<g id="node3" class="node">
<title>&quot;Number of countries makin...&quot;</title>
<ellipse fill="none" stroke="black" stroke-width="0" cx="1152.07" cy="-126" rx="155.17" ry="18"/>
<text text-anchor="middle" x="1152.07" y="-122.3" font-family="Times,serif" font-size="14.00">&quot;Number of countries makin...&quot;</text>
</g>
<!-- purl.unep.org/sdg/SDGIO_00020173&#45;&gt;&quot;Number of countries makin...&quot; -->
<g id="edge2" class="edge">
<title>purl.unep.org/sdg/SDGIO_00020173&#45;&gt;&quot;Number of countries makin...&quot;</title>
<path fill="none" stroke="black" d="M872.24,-122.3C905.06,-122.45 939.03,-122.68 970.93,-123 976.5,-123.06 982.17,-123.12 987.9,-123.19"/>
<polygon fill="black" stroke="black" points="988.21,-126.69 998.25,-123.32 988.3,-119.69 988.21,-126.69"/>
<text text-anchor="middle" x="930.43" y="-126.8" font-family="Times,serif" font-size="14.00">description</text>
</g>
<!-- &quot;UNSD SDG indicator codeC1...&quot; -->
<g id="node4" class="node">
<title>&quot;UNSD SDG indicator codeC1...&quot;</title>
<ellipse fill="none" stroke="black" stroke-width="0" cx="1152.07" cy="-72" rx="163.27" ry="18"/>
<text text-anchor="middle" x="1152.07" y="-68.3" font-family="Times,serif" font-size="14.00">&quot;UNSD SDG indicator codeC1...&quot;</text>
</g>
<!-- purl.unep.org/sdg/SDGIO_00020173&#45;&gt;&quot;UNSD SDG indicator codeC1...&quot; -->
<g id="edge3" class="edge">
<title>purl.unep.org/sdg/SDGIO_00020173&#45;&gt;&quot;UNSD SDG indicator codeC1...&quot;</title>
<path fill="none" stroke="black" d="M814.65,-108.76C879.75,-101.65 959.91,-92.89 1025.65,-85.71"/>
<polygon fill="black" stroke="black" points="1026.09,-89.18 1035.65,-84.61 1025.33,-82.22 1026.09,-89.18"/>
<text text-anchor="middle" x="930.43" y="-102.8" font-family="Times,serif" font-size="14.00">name</text>
</g>
<!-- &quot;http//www.ontobee.org/ont...&quot; -->
<g id="node5" class="node">
<title>&quot;http//www.ontobee.org/ont...&quot;</title>
<ellipse fill="none" stroke="black" stroke-width="0" cx="1152.07" cy="-18" rx="152.97" ry="18"/>
<text text-anchor="middle" x="1152.07" y="-14.3" font-family="Times,serif" font-size="14.00">&quot;http//www.ontobee.org/ont...&quot;</text>
</g>
<!-- purl.unep.org/sdg/SDGIO_00020173&#45;&gt;&quot;http//www.ontobee.org/ont...&quot; -->
<g id="edge4" class="edge">
<title>purl.unep.org/sdg/SDGIO_00020173&#45;&gt;&quot;http//www.ontobee.org/ont...&quot;</title>
<path fill="none" stroke="black" d="M752.3,-105.02C811.65,-88.26 906.13,-62.65 988.93,-45 1007.71,-41 1027.81,-37.23 1047.25,-33.86"/>
<polygon fill="black" stroke="black" points="1048.08,-37.27 1057.34,-32.13 1046.9,-30.37 1048.08,-37.27"/>
<text text-anchor="middle" x="930.43" y="-70.8" font-family="Times,serif" font-size="14.00">url</text>
</g>
<!-- example.org/permanentUrlToThisJsonDoc -->
<g id="node6" class="node">
<title>example.org/permanentUrlToThisJsonDoc</title>
<ellipse fill="none" stroke="black" cx="204.08" cy="-156" rx="204.16" ry="18"/>
<text text-anchor="middle" x="204.08" y="-152.3" font-family="Times,serif" font-size="14.00">example.org/permanentUrlToThisJsonDoc</text>
</g>
<!-- example.org/permanentUrlToThisJsonDoc&#45;&gt;CreativeWork -->
<g id="edge5" class="edge">
<title>example.org/permanentUrlToThisJsonDoc&#45;&gt;CreativeWork</title>
<path fill="none" stroke="black" d="M397.7,-161.75C534.93,-165.81 723.77,-171.35 889.93,-176 949.54,-177.67 1016.8,-179.47 1068.13,-180.83"/>
<polygon fill="black" stroke="black" points="1068.09,-184.33 1078.18,-181.09 1068.28,-177.33 1068.09,-184.33"/>
<text text-anchor="middle" x="692.55" y="-178.8" font-family="Times,serif" font-size="14.00">type</text>
</g>
<!-- example.org/permanentUrlToThisJsonDoc&#45;&gt;purl.unep.org/sdg/SDGIO_00020173 -->
<g id="edge6" class="edge">
<title>example.org/permanentUrlToThisJsonDoc&#45;&gt;purl.unep.org/sdg/SDGIO_00020173</title>
<path fill="none" stroke="black" d="M364.71,-144.84C419.34,-141.03 480.38,-136.76 534.79,-132.96"/>
<polygon fill="black" stroke="black" points="535.13,-136.44 544.86,-132.25 534.64,-129.46 535.13,-136.44"/>
<text text-anchor="middle" x="460.66" y="-143.8" font-family="Times,serif" font-size="14.00">subjectOf</text>
</g>
</g>
</svg>