<?xml version="1.0" encoding="UTF-8" standalone="no"?>
<!DOCTYPE svg PUBLIC "-//W3C//DTD SVG 1.1//EN"
 "http://www.w3.org/Graphics/SVG/1.1/DTD/svg11.dtd">
<!-- Generated by graphviz version 2.43.0 (0)
 -->
<!-- Title: %3 Pages: 1 -->
<svg width="1175pt" height="206pt"
 viewBox="0.00 0.00 1175.22 206.00" xmlns="http://www.w3.org/2000/svg" xmlns:xlink="http://www.w3.org/1999/xlink">
<g id="graph0" class="graph" transform="scale(1 1) rotate(0) translate(4 202)">
<title>%3</title>
<polygon fill="white" stroke="transparent" points="-4,4 -4,-202 1171.22,-202 1171.22,4 -4,4"/>
<!-- PropertyValue -->
<g id="node1" class="node">
<title>PropertyValue</title>
<ellipse fill="none" stroke="#558855" cx="1037.88" cy="-180" rx="77.19" ry="18"/>
<text text-anchor="middle" x="1037.88" y="-176.3" font-family="Times,serif" font-size="14.00">PropertyValue</text>
</g>
<!-- doi.org/10.5066/F7VX0DMQ -->
<g id="node2" class="node">
<title>doi.org/10.5066/F7VX0DMQ</title>
<ellipse fill="none" stroke="#558855" cx="651.85" cy="-99" rx="141.88" ry="18"/>
<text text-anchor="middle" x="651.85" y="-95.3" font-family="Times,serif" font-size="14.00">doi.org/10.5066/F7VX0DMQ</text>
</g>
<!-- doi.org/10.5066/F7VX0DMQ&#45;&gt;PropertyValue -->
<g id="edge1" class="edge">
<title>doi.org/10.5066/F7VX0DMQ&#45;&gt;PropertyValue</title>
<path fill="none" stroke="black" d="M724.72,-114.48C751.91,-120.32 783.15,-127 811.54,-133 864.61,-144.22 924.75,-156.75 969.55,-166.06"/>
<polygon fill="black" stroke="black" points="968.93,-169.5 979.44,-168.11 970.36,-162.65 968.93,-169.5"/>
<text text-anchor="middle" x="851.04" y="-151.8" font-family="Times,serif" font-size="14.00">type</text>
</g>
<!-- &quot;https//registry.iden...&quot; -->
<g id="node3" class="node">
<title>&quot;https//registry.iden...&quot;</title>
<ellipse fill="none" stroke="black" stroke-width="0" cx="1037.88" cy="-126" rx="116.98" ry="18"/>
<text text-anchor="middle" x="1037.88" y="-122.3" font-family="Times,serif" font-size="14.00">&quot;https//registry.iden...&quot;</text>
</g>
<!-- doi.org/10.5066/F7VX0DMQ&#45;&gt;&quot;https//registry.iden...&quot; -->
<g id="edge2" class="edge">
<title>doi.org/10.5066/F7VX0DMQ&#45;&gt;&quot;https//registry.iden...&quot;</title>
<path fill="none" stroke="black" d="M776.21,-107.67C822.6,-110.93 875.14,-114.63 920.84,-117.84"/>
<polygon fill="black" stroke="black" points="920.87,-121.35 931.09,-118.56 921.36,-114.37 920.87,-121.35"/>
<text text-anchor="middle" x="851.04" y="-117.8" font-family="Times,serif" font-size="14.00">propertyID</text>
</g>
<!-- &quot;https//doi.org/10.50...&quot; -->
<g id="node4" class="node">
<title>&quot;https//doi.org/10.50...&quot;</title>
<ellipse fill="none" stroke="black" stroke-width="0" cx="1037.88" cy="-72" rx="120.48" ry="18"/>
<text text-anchor="middle" x="1037.88" y="-68.3" font-family="Times,serif" font-size="14.00">&quot;https//doi.org/10.50...&quot;</text>
</g>
<!-- doi.org/10.5066/F7VX0DMQ&#45;&gt;&quot;https//doi.org/10.50...&quot; -->
<g id="edge3" class="edge">
<title>doi.org/10.5066/F7VX0DMQ&#45;&gt;&quot;https//doi.org/10.50...&quot;</title>
<path fill="none" stroke="black" d="M776.21,-90.33C821.78,-87.12 873.3,-83.5 918.42,-80.33"/>
<polygon fill="black" stroke="black" points="918.82,-83.81 928.55,-79.62 918.33,-76.83 918.82,-83.81"/>
<text text-anchor="middle" x="851.04" y="-90.8" font-family="Times,serif" font-size="14.00">url</text>
</g>
<!-- &quot;doi10.5066/F7VX0DMQ&quot; -->
<g id="node5" class="node">
<title>&quot;doi10.5066/F7VX0DMQ&quot;</title>
<ellipse fill="none" stroke="black" stroke-width="0" cx="1037.88" cy="-18" rx="129.18" ry="18"/>
<text text-anchor="middle" x="1037.88" y="-14.3" font-family="Times,serif" font-size="14.00">&quot;doi10.5066/F7VX0DMQ&quot;</text>
</g>
<!-- doi.org/10.5066/F7VX0DMQ&#45;&gt;&quot;doi10.5066/F7VX0DMQ&quot; -->
<g id="edge4" class="edge">
<title>doi.org/10.5066/F7VX0DMQ&#45;&gt;&quot;doi10.5066/F7VX0DMQ&quot;</title>
<path fill="none" stroke="black" d="M742.18,-85.05C759.4,-81.46 777.16,-77.14 793.54,-72 801.89,-69.38 803.2,-66.67 811.54,-64 852.82,-50.79 899.61,-40.51 939.81,-33.05"/>
<polygon fill="black" stroke="black" points="940.67,-36.45 949.88,-31.22 939.41,-29.57 940.67,-36.45"/>
<text text-anchor="middle" x="851.04" y="-67.8" font-family="Times,serif" font-size="14.00">value</text>
</g>
<!-- Map -->
<g id="node6" class="node">
<title>Map</title>
<ellipse fill="none" stroke="#558855" cx="651.85" cy="-45" rx="31.4" ry="18"/>
<text text-anchor="middle" x="651.85" y="-41.3" font-family="Times,serif" font-size="14.00">Map</text>
</g>
<!-- example.org/permanentUrlToThisJsonDoc -->
<g id="node7" class="node">
<title>example.org/permanentUrlToThisJsonDoc</title>
<ellipse fill="none" stroke="black" cx="204.08" cy="-64" rx="204.16" ry="18"/>
<text text-anchor="middle" x="204.08" y="-60.3" font-family="Times,serif" font-size="14.00">example.org/permanentUrlToThisJsonDoc</text>
</g>
<!-- example.org/permanentUrlToThisJsonDoc&#45;&gt;doi.org/10.5066/F7VX0DMQ -->
<g id="edge6" class="edge">
<title>example.org/permanentUrlToThisJsonDoc&#45;&gt;doi.org/10.5066/F7VX0DMQ</title>
<path fill="none" stroke="black" d="M357.24,-75.95C410.45,-80.12 469.65,-84.77 520.87,-88.79"/>
<polygon fill="black" stroke="black" points="520.76,-92.3 531.01,-89.59 521.31,-85.32 520.76,-92.3"/>
<text text-anchor="middle" x="459.16" y="-88.8" font-family="Times,serif" font-size="14.00">identifier</text>
</g>
<!-- example.org/permanentUrlToThisJsonDoc&#45;&gt;Map -->
<g id="edge5" class="edge">
<title>example.org/permanentUrlToThisJsonDoc&#45;&gt;Map</title>
<path fill="none" stroke="black" d="M385.76,-55.75C399.43,-55.15 413.02,-54.56 426.16,-54 490.62,-51.25 565.49,-48.3 610.46,-46.55"/>
<polygon fill="black" stroke="black" points="610.83,-50.04 620.68,-46.16 610.56,-43.05 610.83,-50.04"/>
<text text-anchor="middle" x="459.16" y="-57.8" font-family="Times,serif" font-size="14.00">type</text>
</g>
</g>
</svg>