<?xml version="1.0" encoding="UTF-8" standalone="no"?>
<!DOCTYPE svg PUBLIC "-//W3C//DTD SVG 1.1//EN"
 "http://www.w3.org/Graphics/SVG/1.1/DTD/svg11.dtd">
<!-- Generated by graphviz version 2.43.0 (0)
 -->
<!-- Title: %3 Pages: 1 -->
<svg width="796pt" height="206pt"
 viewBox="0.00 0.00 795.74 206.00" xmlns="http://www.w3.org/2000/svg" xmlns:xlink="http://www.w3.org/1999/xlink">
<g id="graph0" class="graph" transform="scale(1 1) rotate(0) translate(4 202)">
<title>%3</title>
<polygon fill="white" stroke="transparent" points="-4,4 -4,-202 791.74,-202 791.74,4 -4,4"/>
<!-- CreativeWork -->
<g id="node1" class="node">
<title>CreativeWork</title>
<ellipse fill="none" stroke="#558855" cx="656.45" cy="-180" rx="74.19" ry="18"/>
<text text-anchor="middle" x="656.45" y="-176.3" font-family="Times,serif" font-size="14.00">CreativeWork</text>
</g>
<!-- example.org/permanentUrlToThisJsonDoc -->
<g id="node2" class="node">
<title>example.org/permanentUrlToThisJsonDoc</title>
<ellipse fill="none" stroke="black" cx="204.08" cy="-99" rx="204.16" ry="18"/>
<text text-anchor="middle" x="204.08" y="-95.3" font-family="Times,serif" font-size="14.00">example.org/permanentUrlToThisJsonDoc</text>
</g>
<!-- example.org/permanentUrlToThisJsonDoc&#45;&gt;CreativeWork -->
<g id="edge1" class="edge">
<title>example.org/permanentUrlToThisJsonDoc&#45;&gt;CreativeWork</title>
<path fill="none" stroke="black" d="M294.87,-115.15C380.58,-130.56 507.91,-153.46 586.09,-167.53"/>
<polygon fill="black" stroke="black" points="585.85,-171.04 596.31,-169.36 587.09,-164.15 585.85,-171.04"/>
<text text-anchor="middle" x="466.66" y="-154.8" font-family="Times,serif" font-size="14.00">type</text>
</g>
<!-- &quot;Description of the c...&quot; -->
<g id="node3" class="node">
<title>&quot;Description of the c...&quot;</title>
<ellipse fill="none" stroke="black" stroke-width="0" cx="656.45" cy="-126" rx="119.68" ry="18"/>
<text text-anchor="middle" x="656.45" y="-122.3" font-family="Times,serif" font-size="14.00">&quot;Description of the c...&quot;</text>
</g>
<!-- example.org/permanentUrlToThisJsonDoc&#45;&gt;&quot;Description of the c...&quot; -->
<g id="edge2" class="edge">
<title>example.org/permanentUrlToThisJsonDoc&#45;&gt;&quot;Description of the c...&quot;</title>
<path fill="none" stroke="black" d="M373.42,-109.09C427.07,-112.31 485.32,-115.8 534.87,-118.77"/>
<polygon fill="black" stroke="black" points="534.8,-122.27 544.99,-119.38 535.22,-115.29 534.8,-122.27"/>
<text text-anchor="middle" x="466.66" y="-119.8" font-family="Times,serif" font-size="14.00">description</text>
</g>
<!-- &quot;Name or title of the...&quot; -->
<g id="node4" class="node">
<title>&quot;Name or title of the...&quot;</title>
<ellipse fill="none" stroke="black" stroke-width="0" cx="656.45" cy="-72" rx="120.48" ry="18"/>
<text text-anchor="middle" x="656.45" y="-68.3" font-family="Times,serif" font-size="14.00">&quot;Name or title of the...&quot;</text>
</g>
<!-- example.org/permanentUrlToThisJsonDoc&#45;&gt;&quot;Name or title of the...&quot; -->
<g id="edge3" class="edge">
<title>example.org/permanentUrlToThisJsonDoc&#45;&gt;&quot;Name or title of the...&quot;</title>
<path fill="none" stroke="black" d="M373.42,-88.91C426.95,-85.7 485.06,-82.21 534.55,-79.25"/>
<polygon fill="black" stroke="black" points="534.88,-82.73 544.65,-78.64 534.46,-75.75 534.88,-82.73"/>
<text text-anchor="middle" x="466.66" y="-88.8" font-family="Times,serif" font-size="14.00">name</text>
</g>
<!-- &quot;https//www.sample&#45;da...&quot; -->
<g id="node5" class="node">
<title>&quot;https//www.sample&#45;da...&quot;</title>
<ellipse fill="none" stroke="black" stroke-width="0" cx="656.45" cy="-18" rx="131.08" ry="18"/>
<text text-anchor="middle" x="656.45" y="-14.3" font-family="Times,serif" font-size="14.00">&quot;https//www.sample&#45;da...&quot;</text>
</g>
<!-- example.org/permanentUrlToThisJsonDoc&#45;&gt;&quot;https//www.sample&#45;da...&quot; -->
<g id="edge4" class="edge">
<title>example.org/permanentUrlToThisJsonDoc&#45;&gt;&quot;https//www.sample&#45;da...&quot;</title>
<path fill="none" stroke="black" d="M294.87,-82.85C373.62,-68.69 487.5,-48.21 566.12,-34.07"/>
<polygon fill="black" stroke="black" points="566.78,-37.5 576,-32.29 565.54,-30.61 566.78,-37.5"/>
<text text-anchor="middle" x="466.66" y="-61.8" font-family="Times,serif" font-size="14.00">url</text>
</g>
</g>
</svg>