<?xml version="1.0" encoding="UTF-8" standalone="no"?>
<!DOCTYPE svg PUBLIC "-//W3C//DTD SVG 1.1//EN"
 "http://www.w3.org/Graphics/SVG/1.1/DTD/svg11.dtd">
<!-- Generated by graphviz version 2.43.0 (0)
 -->
<!-- Title: %3 Pages: 1 -->
<svg width="1309pt" height="209pt"
 viewBox="0.00 0.00 1309.20 209.00" xmlns="http://www.w3.org/2000/svg" xmlns:xlink="http://www.w3.org/1999/xlink">
<g id="graph0" class="graph" transform="scale(1 1) rotate(0) translate(4 205)">
<title>%3</title>
<polygon fill="white" stroke="transparent" points="-4,4 -4,-205 1305.2,-205 1305.2,4 -4,4"/>
<!-- CreativeWork -->
<g id="node1" class="node">
<title>CreativeWork</title>
<ellipse fill="none" stroke="#558855" cx="1138.07" cy="-183" rx="74.19" ry="18"/>
<text text-anchor="middle" x="1138.07" y="-179.3" font-family="Times,serif" font-size="14.00">CreativeWork</text>
</g>
<!-- purl.unep.org/sdg/SDGIO_00020173 -->
<g id="node2" class="node">
<title>purl.unep.org/sdg/SDGIO_00020173</title>
<ellipse fill="none" stroke="#558855" cx="678.55" cy="-122" rx="179.27" ry="18"/>
<text text-anchor="middle" x="678.55" y="-118.3" font-family="Times,serif" font-size="14.00">purl.unep.org/sdg/SDGIO_00020173</text>
</g>
<!-- purl.unep.org/sdg/SDGIO_00020173&#45;&gt;CreativeWork -->
<g id="edge1" class="edge">
<title>purl.unep.org/sdg/SDGIO_00020173&#45;&gt;CreativeWork</title>
<path fill="none" stroke="black" d="M787.1,-136.34C871.75,-147.63 987.52,-163.06 1062.3,-173.03"/>
<polygon fill="black" stroke="black" points="1062.2,-176.55 1072.57,-174.4 1063.12,-169.61 1062.2,-176.55"/>
<text text-anchor="middle" x="916.43" y="-160.8" font-family="Times,serif" font-size="14.00">type</text>
</g>
<!-- &quot;Number of countries makin...&quot; -->
<g id="node3" class="node">
<title>&quot;Number of countries makin...&quot;</title>
<ellipse fill="none" stroke="black" stroke-width="0" cx="1138.07" cy="-126" rx="155.17" ry="18"/>
<text text-anchor="middle" x="1138.07" y="-122.3" font-family="Times,serif" font-size="14.00">&quot;Number of countries makin...&quot;</text>
</g>
<!-- purl.unep.org/sdg/SDGIO_00020173&#45;&gt;&quot;Number of countries makin...&quot; -->
<g id="edge2" class="edge">
<title>purl.unep.org/sdg/SDGIO_00020173&#45;&gt;&quot;Number of countries makin...&quot;</title>
<path fill="none" stroke="black" d="M858.24,-122.3C891.06,-122.45 925.03,-122.68 956.93,-123 962.5,-123.06 968.17,-123.12 973.9,-123.19"/>
<polygon fill="black" stroke="black" points="974.21,-126.69 984.25,-123.32 974.3,-119.69 974.21,-126.69"/>
<text text-anchor="middle" x="916.43" y="-126.8" font-family="Times,serif" font-size="14.00">description</text>
</g>
<!-- &quot;UNSD SDG indicator codeC1...&quot; -->
<g id="node4" class="node">
<title>&quot;UNSD SDG indicator codeC1...&quot;</title>
<ellipse fill="none" stroke="black" stroke-width="0" cx="1138.07" cy="-72" rx="163.27" ry="18"/>
<text text-anchor="middle" x="1138.07" y="-68.3" font-family="Times,serif" font-size="14.00">&quot;UNSD SDG indicator codeC1...&quot;</text>
</g>
<!-- purl.unep.org/sdg/SDGIO_00020173&#45;&gt;&quot;UNSD SDG indicator codeC1...&quot; -->
<g id="edge3" class="edge">
<title>purl.unep.org/sdg/SDGIO_00020173&#45;&gt;&quot;UNSD SDG indicator codeC1...&quot;</title>
<path fill="none" stroke="black" d="M800.65,-108.76C865.75,-101.65 945.91,-92.89 1011.65,-85.71"/>
<polygon fill="black" stroke="black" points="1012.09,-89.18 1021.65,-84.61 1011.33,-82.22 1012.09,-89.18"/>
<text text-anchor="middle" x="916.43" y="-102.8" font-family="Times,serif" font-size="14.00">name</text>
</g>
<!-- &quot;http//www.ontobee.org/ont...&quot; -->
<g id="node5" class="node">
<title>&quot;http//www.ontobee.org/ont...&quot;</title>
<ellipse fill="none" stroke="black" stroke-width="0" cx="1138.07" cy="-18" rx="152.97" ry="18"/>
<text text-anchor="middle" x="1138.07" y="-14.3" font-family="Times,serif" font-size="14.00">&quot;http//www.ontobee.org/ont...&quot;</text>
</g>
<!-- purl.unep.org/sdg/SDGIO_00020173&#45;&gt;&quot;http//www.ontobee.org/ont...&quot; -->
<g id="edge4" class="edge">
<title>purl.unep.org/sdg/SDGIO_00020173&#45;&gt;&quot;http//www.ontobee.org/ont...&quot;</title>
<path fill="none" stroke="black" d="M738.3,-105.02C797.65,-88.26 892.13,-62.65 974.93,-45 993.71,-41 1013.81,-37.23 1033.25,-33.86"/>
<polygon fill="black" stroke="black" points="1034.08,-37.27 1043.34,-32.13 1032.9,-30.37 1034.08,-37.27"/>
<text text-anchor="middle" x="916.43" y="-70.8" font-family="Times,serif" font-size="14.00">url</text>
</g>
<!-- example.org/permanentUrlToThisJsonDoc -->
<g id="node6" class="node">
<title>example.org/permanentUrlToThisJsonDoc</title>
<ellipse fill="none" stroke="black" cx="204.08" cy="-156" rx="204.16" ry="18"/>
<text text-anchor="middle" x="204.08" y="-152.3" font-family="Times,serif" font-size="14.00">example.org/permanentUrlToThisJsonDoc</text>
</g>
<!-- example.org/permanentUrlToThisJsonDoc&#45;&gt;CreativeWork -->
<g id="edge5" class="edge">
<title>example.org/permanentUrlToThisJsonDoc&#45;&gt;CreativeWork</title>
<path fill="none" stroke="black" d="M397.01,-161.88C531.16,-165.94 714.47,-171.43 875.93,-176 935.54,-177.69 1002.8,-179.49 1054.13,-180.84"/>
<polygon fill="black" stroke="black" points="1054.09,-184.34 1064.18,-181.1 1054.28,-177.34 1054.09,-184.34"/>
<text text-anchor="middle" x="678.55" y="-178.8" font-family="Times,serif" font-size="14.00">type</text>
</g>
<!-- example.org/permanentUrlToThisJsonDoc&#45;&gt;purl.unep.org/sdg/SDGIO_00020173 -->
<g id="edge6" class="edge">
<title>example.org/permanentUrlToThisJsonDoc&#45;&gt;purl.unep.org/sdg/SDGIO_00020173</title>
<path fill="none" stroke="black" d="M362.73,-144.65C414.06,-140.96 470.96,-136.87 522.12,-133.18"/>
<polygon fill="black" stroke="black" points="522.55,-136.66 532.27,-132.45 522.05,-129.68 522.55,-136.66"/>
<text text-anchor="middle" x="453.66" y="-143.8" font-family="Times,serif" font-size="14.00">citation</text>
</g>
</g>
</svg>