<?xml version="1.0" encoding="UTF-8" standalone="no"?>
<!DOCTYPE svg PUBLIC "-//W3C//DTD SVG 1.1//EN"
 "http://www.w3.org/Graphics/SVG/1.1/DTD/svg11.dtd">
<!-- Generated by graphviz version 2.43.0 (0)
 -->
<!-- Title: %3 Pages: 1 -->
<svg width="1300pt" height="872pt"
 viewBox="0.00 0.00 1299.71 872.00" xmlns="http://www.w3.org/2000/svg" xmlns:xlink="http://www.w3.org/1999/xlink">
<g id="graph0" class="graph" transform="scale(1 1) rotate(0) translate(4 868)">
<title>%3</title>
<polygon fill="white" stroke="transparent" points="-4,4 -4,-868 1295.71,-868 1295.71,4 -4,4"/>
<!-- Course -->
<g id="node1" class="node">
<title>Course</title>
<ellipse fill="none" stroke="#558855" cx="739.4" cy="-699" rx="43.59" ry="18"/>
<text text-anchor="middle" x="739.4" y="-695.3" font-family="Times,serif" font-size="14.00">Course</text>
</g>
<!-- example.org/permanentUrlToThisJsonDoc -->
<g id="node2" class="node">
<title>example.org/permanentUrlToThisJsonDoc</title>
<ellipse fill="none" stroke="black" cx="204.08" cy="-515" rx="204.16" ry="18"/>
<text text-anchor="middle" x="204.08" y="-511.3" font-family="Times,serif" font-size="14.00">example.org/permanentUrlToThisJsonDoc</text>
</g>
<!-- example.org/permanentUrlToThisJsonDoc&#45;&gt;Course -->
<g id="edge1" class="edge">
<title>example.org/permanentUrlToThisJsonDoc&#45;&gt;Course</title>
<path fill="none" stroke="black" d="M233.34,-532.98C274.38,-558.4 353.53,-604.9 426.16,-633 492.01,-658.48 511.09,-657.38 580.16,-672 616.05,-679.59 656.86,-686.52 688.05,-691.45"/>
<polygon fill="black" stroke="black" points="687.82,-694.96 698.24,-693.05 688.9,-688.04 687.82,-694.96"/>
<text text-anchor="middle" x="494.16" y="-671.8" font-family="Times,serif" font-size="14.00">type</text>
</g>
<!-- &quot;SD100&quot; -->
<g id="node3" class="node">
<title>&quot;SD100&quot;</title>
<ellipse fill="none" stroke="black" stroke-width="0" cx="739.4" cy="-645" rx="50.89" ry="18"/>
<text text-anchor="middle" x="739.4" y="-641.3" font-family="Times,serif" font-size="14.00">&quot;SD100&quot;</text>
</g>
<!-- example.org/permanentUrlToThisJsonDoc&#45;&gt;&quot;SD100&quot; -->
<g id="edge2" class="edge">
<title>example.org/permanentUrlToThisJsonDoc&#45;&gt;&quot;SD100&quot;</title>
<path fill="none" stroke="black" d="M257.92,-532.47C302.51,-546.92 368.16,-567.51 426.16,-583 493.98,-601.11 511.32,-604.31 580.16,-618 614.05,-624.74 652.23,-631.28 682.6,-636.24"/>
<polygon fill="black" stroke="black" points="682.15,-639.71 692.58,-637.86 683.27,-632.8 682.15,-639.71"/>
<text text-anchor="middle" x="494.16" y="-617.8" font-family="Times,serif" font-size="14.00">courseCode</text>
</g>
<!-- &quot;An introduction to a...&quot; -->
<g id="node4" class="node">
<title>&quot;An introduction to a...&quot;</title>
<ellipse fill="none" stroke="black" stroke-width="0" cx="739.4" cy="-591" rx="120.78" ry="18"/>
<text text-anchor="middle" x="739.4" y="-587.3" font-family="Times,serif" font-size="14.00">&quot;An introduction to a...&quot;</text>
</g>
<!-- example.org/permanentUrlToThisJsonDoc&#45;&gt;&quot;An introduction to a...&quot; -->
<g id="edge3" class="edge">
<title>example.org/permanentUrlToThisJsonDoc&#45;&gt;&quot;An introduction to a...&quot;</title>
<path fill="none" stroke="black" d="M312.37,-530.29C408.63,-544.01 548.66,-563.96 641.57,-577.2"/>
<polygon fill="black" stroke="black" points="641.14,-580.68 651.54,-578.62 642.13,-573.75 641.14,-580.68"/>
<text text-anchor="middle" x="494.16" y="-567.8" font-family="Times,serif" font-size="14.00">description</text>
</g>
<!-- _ -->
<g id="node5" class="node">
<title>_</title>
<ellipse fill="none" stroke="#558855" cx="739.4" cy="-504" rx="27" ry="18"/>
<text text-anchor="middle" x="739.4" y="-500.3" font-family="Times,serif" font-size="14.00">_</text>
</g>
<!-- example.org/permanentUrlToThisJsonDoc&#45;&gt;_ -->
<g id="edge4" class="edge">
<title>example.org/permanentUrlToThisJsonDoc&#45;&gt;_</title>
<path fill="none" stroke="black" d="M408.57,-514.59C458.79,-514.13 512.43,-513.34 562.16,-512 610.58,-510.7 666.43,-507.95 702.06,-506.04"/>
<polygon fill="black" stroke="black" points="702.64,-509.52 712.43,-505.48 702.26,-502.53 702.64,-509.52"/>
<text text-anchor="middle" x="494.16" y="-517.8" font-family="Times,serif" font-size="14.00">hasCourseInstance</text>
</g>
<!-- example.org/permanentUrlToThisJsonDoc&#45;&gt;_ -->
<g id="edge5" class="edge">
<title>example.org/permanentUrlToThisJsonDoc&#45;&gt;_</title>
<path fill="none" stroke="black" d="M327.42,-500.64C359.5,-497.47 394.09,-494.59 426.16,-493 486.53,-490 501.75,-491.12 562.16,-493 610.62,-494.51 666.46,-498.35 702.07,-501.07"/>
<polygon fill="black" stroke="black" points="702.2,-504.59 712.44,-501.87 702.74,-497.61 702.2,-504.59"/>
<text text-anchor="middle" x="494.16" y="-496.8" font-family="Times,serif" font-size="14.00">hasCourseInstance</text>
</g>
<!-- &quot;Structured Data&quot; -->
<g id="node6" class="node">
<title>&quot;Structured Data&quot;</title>
<ellipse fill="none" stroke="black" stroke-width="0" cx="739.4" cy="-450" rx="94.78" ry="18"/>
<text text-anchor="middle" x="739.4" y="-446.3" font-family="Times,serif" font-size="14.00">&quot;Structured Data&quot;</text>
</g>
<!-- example.org/permanentUrlToThisJsonDoc&#45;&gt;&quot;Structured Data&quot; -->
<g id="edge6" class="edge">
<title>example.org/permanentUrlToThisJsonDoc&#45;&gt;&quot;Structured Data&quot;</title>
<path fill="none" stroke="black" d="M279.16,-498.25C321.92,-489.17 376.83,-478.51 426.16,-472 495.95,-462.79 575.06,-457.27 636.19,-454.06"/>
<polygon fill="black" stroke="black" points="636.42,-457.55 646.22,-453.54 636.06,-450.56 636.42,-457.55"/>
<text text-anchor="middle" x="494.16" y="-475.8" font-family="Times,serif" font-size="14.00">name</text>
</g>
<!-- grid.ac/institutes/grid.475727.4 -->
<g id="node7" class="node">
<title>grid.ac/institutes/grid.475727.4</title>
<ellipse fill="none" stroke="#558855" cx="739.4" cy="-126" rx="159.47" ry="18"/>
<text text-anchor="middle" x="739.4" y="-122.3" font-family="Times,serif" font-size="14.00">grid.ac/institutes/grid.475727.4</text>
</g>
<!-- example.org/permanentUrlToThisJsonDoc&#45;&gt;grid.ac/institutes/grid.475727.4 -->
<g id="edge7" class="edge">
<title>example.org/permanentUrlToThisJsonDoc&#45;&gt;grid.ac/institutes/grid.475727.4</title>
<path fill="none" stroke="black" d="M229.74,-497.02C316.44,-433.78 607.37,-221.57 705.65,-149.89"/>
<polygon fill="black" stroke="black" points="707.99,-152.51 714.01,-143.79 703.87,-146.86 707.99,-152.51"/>
<text text-anchor="middle" x="494.16" y="-346.8" font-family="Times,serif" font-size="14.00">provider</text>
</g>
<!-- &quot;JSON&#45;LD&quot; -->
<g id="node8" class="node">
<title>&quot;JSON&#45;LD&quot;</title>
<ellipse fill="none" stroke="black" stroke-width="0" cx="739.4" cy="-72" rx="60.39" ry="18"/>
<text text-anchor="middle" x="739.4" y="-68.3" font-family="Times,serif" font-size="14.00">&quot;JSON&#45;LD&quot;</text>
</g>
<!-- example.org/permanentUrlToThisJsonDoc&#45;&gt;&quot;JSON&#45;LD&quot; -->
<g id="edge8" class="edge">
<title>example.org/permanentUrlToThisJsonDoc&#45;&gt;&quot;JSON&#45;LD&quot;</title>
<path fill="none" stroke="black" d="M214.62,-496.91C251.15,-429.71 389.81,-193.41 580.16,-99 607.52,-85.43 640.45,-78.53 669.17,-75.08"/>
<polygon fill="black" stroke="black" points="669.57,-78.55 679.14,-73.99 668.82,-71.6 669.57,-78.55"/>
<text text-anchor="middle" x="494.16" y="-208.8" font-family="Times,serif" font-size="14.00">teaches</text>
</g>
<!-- _&#45;&gt;_ -->
<g id="edge13" class="edge">
<title>_&#45;&gt;_</title>
<path fill="none" stroke="black" d="M714.67,-511.6C686.25,-524 694.5,-540 739.4,-540 778.69,-540 789.91,-527.75 773.07,-516.38"/>
<polygon fill="black" stroke="black" points="774.6,-513.23 764.13,-511.6 771.3,-519.4 774.6,-513.23"/>
<text text-anchor="middle" x="739.4" y="-543.8" font-family="Times,serif" font-size="14.00">attendee</text>
</g>
<!-- CourseInstance -->
<g id="node12" class="node">
<title>CourseInstance</title>
<ellipse fill="none" stroke="#558855" cx="1157.17" cy="-831" rx="83.39" ry="18"/>
<text text-anchor="middle" x="1157.17" y="-827.3" font-family="Times,serif" font-size="14.00">CourseInstance</text>
</g>
<!-- _&#45;&gt;CourseInstance -->
<g id="edge12" class="edge">
<title>_&#45;&gt;CourseInstance</title>
<path fill="none" stroke="black" d="M766.51,-505.61C802.73,-509.37 867.3,-521.95 898.64,-564 931.65,-608.31 877.69,-772.8 916.64,-812 961.47,-857.14 1037.9,-855.24 1092.37,-846.33"/>
<polygon fill="black" stroke="black" points="1093.02,-849.76 1102.27,-844.59 1091.81,-842.87 1093.02,-849.76"/>
<text text-anchor="middle" x="960.64" y="-852.8" font-family="Times,serif" font-size="14.00">type</text>
</g>
<!-- _&#45;&gt;CourseInstance -->
<g id="edge18" class="edge">
<title>_&#45;&gt;CourseInstance</title>
<path fill="none" stroke="black" d="M766.43,-505.66C802.57,-509.49 867.03,-522.15 898.64,-564 926.87,-601.37 885.69,-738.84 916.64,-774 943.07,-804.03 966.6,-780.59 1004.64,-793 1012.96,-795.72 1014.32,-798.25 1022.64,-801 1041.93,-807.39 1063.25,-812.85 1083.07,-817.31"/>
<polygon fill="black" stroke="black" points="1082.46,-820.75 1092.98,-819.47 1083.96,-813.92 1082.46,-820.75"/>
<text text-anchor="middle" x="960.64" y="-796.8" font-family="Times,serif" font-size="14.00">type</text>
</g>
<!-- &quot;MOOC1&quot; -->
<g id="node13" class="node">
<title>&quot;MOOC1&quot;</title>
<ellipse fill="none" stroke="black" stroke-width="0" cx="1157.17" cy="-774" rx="55.79" ry="18"/>
<text text-anchor="middle" x="1157.17" y="-770.3" font-family="Times,serif" font-size="14.00">&quot;MOOC1&quot;</text>
</g>
<!-- _&#45;&gt;&quot;MOOC1&quot; -->
<g id="edge14" class="edge">
<title>_&#45;&gt;&quot;MOOC1&quot;</title>
<path fill="none" stroke="black" d="M766.33,-505.74C802.33,-509.67 866.63,-522.45 898.64,-564 922.09,-594.45 890.19,-708.11 916.64,-736 928.69,-748.71 1026.34,-760.96 1093.18,-767.97"/>
<polygon fill="black" stroke="black" points="1092.91,-771.46 1103.21,-769.01 1093.63,-764.5 1092.91,-771.46"/>
<text text-anchor="middle" x="960.64" y="-759.8" font-family="Times,serif" font-size="14.00">courseMode</text>
</g>
<!-- &quot;online&quot; -->
<g id="node14" class="node">
<title>&quot;online&quot;</title>
<ellipse fill="none" stroke="black" stroke-width="0" cx="1157.17" cy="-720" rx="48.19" ry="18"/>
<text text-anchor="middle" x="1157.17" y="-716.3" font-family="Times,serif" font-size="14.00">&quot;online&quot;</text>
</g>
<!-- _&#45;&gt;&quot;online&quot; -->
<g id="edge15" class="edge">
<title>_&#45;&gt;&quot;online&quot;</title>
<path fill="none" stroke="black" d="M766.46,-505.91C802.32,-510.03 866.12,-523.04 898.64,-564 936,-611.06 873.26,-656.41 916.64,-698 941.9,-722.23 1036.82,-724.16 1099.32,-722.6"/>
<polygon fill="black" stroke="black" points="1099.54,-726.1 1109.44,-722.32 1099.34,-719.1 1099.54,-726.1"/>
<text text-anchor="middle" x="960.64" y="-723.8" font-family="Times,serif" font-size="14.00">courseMode</text>
</g>
<!-- _&#45;&gt;&quot;online&quot; -->
<g id="edge20" class="edge">
<title>_&#45;&gt;&quot;online&quot;</title>
<path fill="none" stroke="black" d="M766.39,-506.25C801.86,-510.78 864.88,-524.25 898.64,-564 924.76,-594.76 889.38,-623.24 916.64,-653 944.18,-683.07 968.35,-660.38 1004.64,-679 1013.65,-683.63 1013.42,-688.77 1022.64,-693 1046.82,-704.1 1075.54,-710.66 1100.13,-714.52"/>
<polygon fill="black" stroke="black" points="1099.64,-717.99 1110.04,-715.97 1100.65,-711.06 1099.64,-717.99"/>
<text text-anchor="middle" x="960.64" y="-682.8" font-family="Times,serif" font-size="14.00">courseMode</text>
</g>
<!-- &quot;2019&#45;03&#45;21&quot; -->
<g id="node15" class="node">
<title>&quot;2019&#45;03&#45;21&quot;</title>
<ellipse fill="none" stroke="black" stroke-width="0" cx="1157.17" cy="-666" rx="72.29" ry="18"/>
<text text-anchor="middle" x="1157.17" y="-662.3" font-family="Times,serif" font-size="14.00">&quot;2019&#45;03&#45;21&quot;</text>
</g>
<!-- _&#45;&gt;&quot;2019&#45;03&#45;21&quot; -->
<g id="edge16" class="edge">
<title>_&#45;&gt;&quot;2019&#45;03&#45;21&quot;</title>
<path fill="none" stroke="black" d="M766.03,-507.95C799.96,-514.34 859.98,-529.88 898.64,-564 911.45,-575.31 903.85,-586.64 916.64,-598 954.39,-631.55 974.15,-624.83 1022.64,-639 1043.12,-644.99 1065.76,-650.11 1086.48,-654.23"/>
<polygon fill="black" stroke="black" points="1086,-657.7 1096.48,-656.17 1087.33,-650.83 1086,-657.7"/>
<text text-anchor="middle" x="960.64" y="-637.8" font-family="Times,serif" font-size="14.00">endDate</text>
</g>
<!-- &quot;2019&#45;02&#45;15&quot; -->
<g id="node16" class="node">
<title>&quot;2019&#45;02&#45;15&quot;</title>
<ellipse fill="none" stroke="black" stroke-width="0" cx="1157.17" cy="-612" rx="72.29" ry="18"/>
<text text-anchor="middle" x="1157.17" y="-608.3" font-family="Times,serif" font-size="14.00">&quot;2019&#45;02&#45;15&quot;</text>
</g>
<!-- _&#45;&gt;&quot;2019&#45;02&#45;15&quot; -->
<g id="edge17" class="edge">
<title>_&#45;&gt;&quot;2019&#45;02&#45;15&quot;</title>
<path fill="none" stroke="black" d="M763.99,-511.57C812.21,-526.87 925.67,-561.96 1022.64,-585 1044.09,-590.1 1067.63,-595.06 1088.89,-599.32"/>
<polygon fill="black" stroke="black" points="1088.31,-602.77 1098.8,-601.28 1089.67,-595.9 1088.31,-602.77"/>
<text text-anchor="middle" x="960.64" y="-582.8" font-family="Times,serif" font-size="14.00">startDate</text>
</g>
<!-- &quot;MOOC2&quot; -->
<g id="node17" class="node">
<title>&quot;MOOC2&quot;</title>
<ellipse fill="none" stroke="black" stroke-width="0" cx="1157.17" cy="-558" rx="55.79" ry="18"/>
<text text-anchor="middle" x="1157.17" y="-554.3" font-family="Times,serif" font-size="14.00">&quot;MOOC2&quot;</text>
</g>
<!-- _&#45;&gt;&quot;MOOC2&quot; -->
<g id="edge19" class="edge">
<title>_&#45;&gt;&quot;MOOC2&quot;</title>
<path fill="none" stroke="black" d="M766.09,-507.34C830.94,-515.76 1002.63,-538.06 1095.12,-550.07"/>
<polygon fill="black" stroke="black" points="1094.81,-553.56 1105.18,-551.38 1095.71,-546.62 1094.81,-553.56"/>
<text text-anchor="middle" x="960.64" y="-540.8" font-family="Times,serif" font-size="14.00">courseMode</text>
</g>
<!-- &quot;2019&#45;05&#45;21&quot; -->
<g id="node18" class="node">
<title>&quot;2019&#45;05&#45;21&quot;</title>
<ellipse fill="none" stroke="black" stroke-width="0" cx="1157.17" cy="-504" rx="72.29" ry="18"/>
<text text-anchor="middle" x="1157.17" y="-500.3" font-family="Times,serif" font-size="14.00">&quot;2019&#45;05&#45;21&quot;</text>
</g>
<!-- _&#45;&gt;&quot;2019&#45;05&#45;21&quot; -->
<g id="edge21" class="edge">
<title>_&#45;&gt;&quot;2019&#45;05&#45;21&quot;</title>
<path fill="none" stroke="black" d="M766.41,-504C826.96,-504 979.43,-504 1074.73,-504"/>
<polygon fill="black" stroke="black" points="1074.91,-507.5 1084.91,-504 1074.91,-500.5 1074.91,-507.5"/>
<text text-anchor="middle" x="960.64" y="-507.8" font-family="Times,serif" font-size="14.00">endDate</text>
</g>
<!-- &quot;2019&#45;04&#45;15&quot; -->
<g id="node19" class="node">
<title>&quot;2019&#45;04&#45;15&quot;</title>
<ellipse fill="none" stroke="black" stroke-width="0" cx="1157.17" cy="-450" rx="72.29" ry="18"/>
<text text-anchor="middle" x="1157.17" y="-446.3" font-family="Times,serif" font-size="14.00">&quot;2019&#45;04&#45;15&quot;</text>
</g>
<!-- _&#45;&gt;&quot;2019&#45;04&#45;15&quot; -->
<g id="edge22" class="edge">
<title>_&#45;&gt;&quot;2019&#45;04&#45;15&quot;</title>
<path fill="none" stroke="black" d="M766.09,-500.66C828.1,-492.61 987.81,-471.87 1082.53,-459.56"/>
<polygon fill="black" stroke="black" points="1083.16,-463.01 1092.62,-458.25 1082.26,-456.07 1083.16,-463.01"/>
<text text-anchor="middle" x="960.64" y="-483.8" font-family="Times,serif" font-size="14.00">startDate</text>
</g>
<!-- Person -->
<g id="node20" class="node">
<title>Person</title>
<ellipse fill="none" stroke="#558855" cx="1157.17" cy="-396" rx="42.49" ry="18"/>
<text text-anchor="middle" x="1157.17" y="-392.3" font-family="Times,serif" font-size="14.00">Person</text>
</g>
<!-- _&#45;&gt;Person -->
<g id="edge23" class="edge">
<title>_&#45;&gt;Person</title>
<path fill="none" stroke="black" d="M766.4,-505.49C799.67,-506.14 857.85,-502.98 898.64,-477 910.49,-469.45 905.13,-459.07 916.64,-451 956.53,-423.02 975.18,-434.06 1022.64,-423 1050.78,-416.44 1082.47,-410 1107.92,-405.05"/>
<polygon fill="black" stroke="black" points="1108.9,-408.42 1118.06,-403.09 1107.57,-401.55 1108.9,-408.42"/>
<text text-anchor="middle" x="960.64" y="-454.8" font-family="Times,serif" font-size="14.00">type</text>
</g>
<!-- &quot;Professor&quot; -->
<g id="node21" class="node">
<title>&quot;Professor&quot;</title>
<ellipse fill="none" stroke="black" stroke-width="0" cx="1157.17" cy="-342" rx="63.89" ry="18"/>
<text text-anchor="middle" x="1157.17" y="-338.3" font-family="Times,serif" font-size="14.00">&quot;Professor&quot;</text>
</g>
<!-- _&#45;&gt;&quot;Professor&quot; -->
<g id="edge24" class="edge">
<title>_&#45;&gt;&quot;Professor&quot;</title>
<path fill="none" stroke="black" d="M765.94,-507.42C800.59,-510.53 862.34,-510.41 898.64,-477 922.27,-455.24 895,-430.74 916.64,-407 950.35,-370.01 974.43,-382.44 1022.64,-369 1045.06,-362.75 1069.98,-357.31 1092.17,-352.99"/>
<polygon fill="black" stroke="black" points="1092.98,-356.4 1102.15,-351.08 1091.67,-349.52 1092.98,-356.4"/>
<text text-anchor="middle" x="960.64" y="-410.8" font-family="Times,serif" font-size="14.00">jobTitle</text>
</g>
<!-- &quot;Jane Doe&quot; -->
<g id="node22" class="node">
<title>&quot;Jane Doe&quot;</title>
<ellipse fill="none" stroke="black" stroke-width="0" cx="1157.17" cy="-288" rx="60.39" ry="18"/>
<text text-anchor="middle" x="1157.17" y="-284.3" font-family="Times,serif" font-size="14.00">&quot;Jane Doe&quot;</text>
</g>
<!-- _&#45;&gt;&quot;Jane Doe&quot; -->
<g id="edge25" class="edge">
<title>_&#45;&gt;&quot;Jane Doe&quot;</title>
<path fill="none" stroke="black" d="M765.86,-507.89C801.01,-511.68 863.98,-512.49 898.64,-477 937.24,-437.47 881.82,-396.9 916.64,-354 957.13,-304.1 1031.62,-289.93 1086.82,-286.8"/>
<polygon fill="black" stroke="black" points="1087.06,-290.29 1096.89,-286.34 1086.74,-283.3 1087.06,-290.29"/>
<text text-anchor="middle" x="960.64" y="-357.8" font-family="Times,serif" font-size="14.00">name</text>
</g>
<!-- &quot;(425) 123&#45;4567&quot; -->
<g id="node23" class="node">
<title>&quot;(425) 123&#45;4567&quot;</title>
<ellipse fill="none" stroke="black" stroke-width="0" cx="1157.17" cy="-234" rx="90.98" ry="18"/>
<text text-anchor="middle" x="1157.17" y="-230.3" font-family="Times,serif" font-size="14.00">&quot;(425) 123&#45;4567&quot;</text>
</g>
<!-- _&#45;&gt;&quot;(425) 123&#45;4567&quot; -->
<g id="edge26" class="edge">
<title>_&#45;&gt;&quot;(425) 123&#45;4567&quot;</title>
<path fill="none" stroke="black" d="M765.83,-508.11C801.24,-512.23 864.84,-513.5 898.64,-477 928.2,-445.07 887.53,-314.35 916.64,-282 952.53,-242.1 1011.46,-229.92 1061.88,-227.8"/>
<polygon fill="black" stroke="black" points="1062.28,-231.29 1072.17,-227.5 1062.08,-224.29 1062.28,-231.29"/>
<text text-anchor="middle" x="960.64" y="-285.8" font-family="Times,serif" font-size="14.00">telephone</text>
</g>
<!-- &quot;http//www.janedoe.co...&quot; -->
<g id="node24" class="node">
<title>&quot;http//www.janedoe.co...&quot;</title>
<ellipse fill="none" stroke="black" stroke-width="0" cx="1157.17" cy="-180" rx="128.08" ry="18"/>
<text text-anchor="middle" x="1157.17" y="-176.3" font-family="Times,serif" font-size="14.00">&quot;http//www.janedoe.co...&quot;</text>
</g>
<!-- _&#45;&gt;&quot;http//www.janedoe.co...&quot; -->
<g id="edge27" class="edge">
<title>_&#45;&gt;&quot;http//www.janedoe.co...&quot;</title>
<path fill="none" stroke="black" d="M765.95,-508.22C801.5,-512.46 865.26,-513.89 898.64,-477 937.49,-434.05 877.44,-259.64 916.64,-217 949.14,-181.64 1000.26,-170.46 1046.95,-168.92"/>
<polygon fill="black" stroke="black" points="1047.22,-172.41 1057.15,-168.73 1047.09,-165.42 1047.22,-172.41"/>
<text text-anchor="middle" x="960.64" y="-220.8" font-family="Times,serif" font-size="14.00">url</text>
</g>
<!-- Organization -->
<g id="node9" class="node">
<title>Organization</title>
<ellipse fill="none" stroke="#558855" cx="1157.17" cy="-126" rx="70.69" ry="18"/>
<text text-anchor="middle" x="1157.17" y="-122.3" font-family="Times,serif" font-size="14.00">Organization</text>
</g>
<!-- grid.ac/institutes/grid.475727.4&#45;&gt;Organization -->
<g id="edge9" class="edge">
<title>grid.ac/institutes/grid.475727.4&#45;&gt;Organization</title>
<path fill="none" stroke="black" d="M898.77,-126C959.32,-126 1025.81,-126 1076.05,-126"/>
<polygon fill="black" stroke="black" points="1076.19,-129.5 1086.19,-126 1076.19,-122.5 1076.19,-129.5"/>
<text text-anchor="middle" x="960.64" y="-129.8" font-family="Times,serif" font-size="14.00">type</text>
</g>
<!-- &quot;UN Department of Eco...&quot; -->
<g id="node10" class="node">
<title>&quot;UN Department of Eco...&quot;</title>
<ellipse fill="none" stroke="black" stroke-width="0" cx="1157.17" cy="-72" rx="134.58" ry="18"/>
<text text-anchor="middle" x="1157.17" y="-68.3" font-family="Times,serif" font-size="14.00">&quot;UN Department of Eco...&quot;</text>
</g>
<!-- grid.ac/institutes/grid.475727.4&#45;&gt;&quot;UN Department of Eco...&quot; -->
<g id="edge10" class="edge">
<title>grid.ac/institutes/grid.475727.4&#45;&gt;&quot;UN Department of Eco...&quot;</title>
<path fill="none" stroke="black" d="M844.51,-112.48C907.19,-104.34 986.79,-94 1049.85,-85.81"/>
<polygon fill="black" stroke="black" points="1050.36,-89.27 1059.83,-84.51 1049.46,-82.33 1050.36,-89.27"/>
<text text-anchor="middle" x="960.64" y="-105.8" font-family="Times,serif" font-size="14.00">description</text>
</g>
<!-- &quot;Example University&quot; -->
<g id="node11" class="node">
<title>&quot;Example University&quot;</title>
<ellipse fill="none" stroke="black" stroke-width="0" cx="1157.17" cy="-18" rx="111.58" ry="18"/>
<text text-anchor="middle" x="1157.17" y="-14.3" font-family="Times,serif" font-size="14.00">&quot;Example University&quot;</text>
</g>
<!-- grid.ac/institutes/grid.475727.4&#45;&gt;&quot;Example University&quot; -->
<g id="edge11" class="edge">
<title>grid.ac/institutes/grid.475727.4&#45;&gt;&quot;Example University&quot;</title>
<path fill="none" stroke="black" d="M864.54,-114.81C876.57,-110.82 888.18,-105.66 898.64,-99 910.49,-91.45 905.13,-81.07 916.64,-73 956.53,-45.02 975.18,-56.06 1022.64,-45 1039.29,-41.12 1057.19,-37.28 1074.31,-33.76"/>
<polygon fill="black" stroke="black" points="1075.18,-37.16 1084.28,-31.73 1073.78,-30.3 1075.18,-37.16"/>
<text text-anchor="middle" x="960.64" y="-76.8" font-family="Times,serif" font-size="14.00">name</text>
</g>
</g>
</svg>