<?xml version="1.0" encoding="UTF-8" standalone="no"?>
<!DOCTYPE svg PUBLIC "-//W3C//DTD SVG 1.1//EN"
 "http://www.w3.org/Graphics/SVG/1.1/DTD/svg11.dtd">
<!-- Generated by graphviz version 2.43.0 (0)
 -->
<!-- Title: %3 Pages: 1 -->
<svg width="840pt" height="206pt"
 viewBox="0.00 0.00 839.94 206.00" xmlns="http://www.w3.org/2000/svg" xmlns:xlink="http://www.w3.org/1999/xlink">
<g id="graph0" class="graph" transform="scale(1 1) rotate(0) translate(4 202)">
<title>%3</title>
<polygon fill="white" stroke="transparent" points="-4,4 -4,-202 835.94,-202 835.94,4 -4,4"/>
<!-- CreativeWork -->
<g id="node1" class="node">
<title>CreativeWork</title>
<ellipse fill="none" stroke="#558855" cx="678.55" cy="-180" rx="74.19" ry="18"/>
<text text-anchor="middle" x="678.55" y="-176.3" font-family="Times,serif" font-size="14.00">CreativeWork</text>
</g>
<!-- example.org/permanentUrlToThisJsonDoc -->
<g id="node2" class="node">
<title>example.org/permanentUrlToThisJsonDoc</title>
<ellipse fill="none" stroke="black" cx="204.08" cy="-99" rx="204.16" ry="18"/>
<text text-anchor="middle" x="204.08" y="-95.3" font-family="Times,serif" font-size="14.00">example.org/permanentUrlToThisJsonDoc</text>
</g>
<!-- example.org/permanentUrlToThisJsonDoc&#45;&gt;CreativeWork -->
<g id="edge1" class="edge">
<title>example.org/permanentUrlToThisJsonDoc&#45;&gt;CreativeWork</title>
<path fill="none" stroke="black" d="M298.43,-115C389.3,-130.58 525.36,-153.91 607.38,-167.97"/>
<polygon fill="black" stroke="black" points="606.9,-171.44 617.35,-169.68 608.09,-164.54 606.9,-171.44"/>
<text text-anchor="middle" x="466.66" y="-152.8" font-family="Times,serif" font-size="14.00">type</text>
</g>
<!-- &quot;Description of the creati...&quot; -->
<g id="node3" class="node">
<title>&quot;Description of the creati...&quot;</title>
<ellipse fill="none" stroke="black" stroke-width="0" cx="678.55" cy="-126" rx="141.88" ry="18"/>
<text text-anchor="middle" x="678.55" y="-122.3" font-family="Times,serif" font-size="14.00">&quot;Description of the creati...&quot;</text>
</g>
<!-- example.org/permanentUrlToThisJsonDoc&#45;&gt;&quot;Description of the creati...&quot; -->
<g id="edge2" class="edge">
<title>example.org/permanentUrlToThisJsonDoc&#45;&gt;&quot;Description of the creati...&quot;</title>
<path fill="none" stroke="black" d="M375.65,-108.75C429.3,-111.81 487.86,-115.16 539,-118.08"/>
<polygon fill="black" stroke="black" points="538.95,-121.58 549.13,-118.66 539.34,-114.6 538.95,-121.58"/>
<text text-anchor="middle" x="466.66" y="-118.8" font-family="Times,serif" font-size="14.00">description</text>
</g>
<!-- &quot;Name or title of the docu...&quot; -->
<g id="node4" class="node">
<title>&quot;Name or title of the docu...&quot;</title>
<ellipse fill="none" stroke="black" stroke-width="0" cx="678.55" cy="-72" rx="144.87" ry="18"/>
<text text-anchor="middle" x="678.55" y="-68.3" font-family="Times,serif" font-size="14.00">&quot;Name or title of the docu...&quot;</text>
</g>
<!-- example.org/permanentUrlToThisJsonDoc&#45;&gt;&quot;Name or title of the docu...&quot; -->
<g id="edge3" class="edge">
<title>example.org/permanentUrlToThisJsonDoc&#45;&gt;&quot;Name or title of the docu...&quot;</title>
<path fill="none" stroke="black" d="M375.65,-89.25C428.44,-86.24 485.97,-82.95 536.52,-80.06"/>
<polygon fill="black" stroke="black" points="536.75,-83.55 546.53,-79.49 536.35,-76.56 536.75,-83.55"/>
<text text-anchor="middle" x="466.66" y="-89.8" font-family="Times,serif" font-size="14.00">name</text>
</g>
<!-- &quot;https//www.sample&#45;data&#45;re...&quot; -->
<g id="node5" class="node">
<title>&quot;https//www.sample&#45;data&#45;re...&quot;</title>
<ellipse fill="none" stroke="black" stroke-width="0" cx="678.55" cy="-18" rx="153.27" ry="18"/>
<text text-anchor="middle" x="678.55" y="-14.3" font-family="Times,serif" font-size="14.00">&quot;https//www.sample&#45;data&#45;re...&quot;</text>
</g>
<!-- example.org/permanentUrlToThisJsonDoc&#45;&gt;&quot;https//www.sample&#45;data&#45;re...&quot; -->
<g id="edge4" class="edge">
<title>example.org/permanentUrlToThisJsonDoc&#45;&gt;&quot;https//www.sample&#45;data&#45;re...&quot;</title>
<path fill="none" stroke="black" d="M298.43,-83C380.22,-68.97 498.61,-48.68 581.27,-34.51"/>
<polygon fill="black" stroke="black" points="581.9,-37.95 591.16,-32.81 580.72,-31.05 581.9,-37.95"/>
<text text-anchor="middle" x="466.66" y="-63.8" font-family="Times,serif" font-size="14.00">url</text>
</g>
</g>
</svg>