<?xml version="1.0" encoding="UTF-8" standalone="no"?>
<!DOCTYPE svg PUBLIC "-//W3C//DTD SVG 1.1//EN"
 "http://www.w3.org/Graphics/SVG/1.1/DTD/svg11.dtd">
<!-- Generated by graphviz version 2.43.0 (0)
 -->
<!-- Title: %3 Pages: 1 -->
<svg width="1281pt" height="314pt"
 viewBox="0.00 0.00 1280.61 314.00" xmlns="http://www.w3.org/2000/svg" xmlns:xlink="http://www.w3.org/1999/xlink">
<g id="graph0" class="graph" transform="scale(1 1) rotate(0) translate(4 310)">
<title>%3</title>
<polygon fill="white" stroke="transparent" points="-4,4 -4,-310 1276.61,-310 1276.61,4 -4,4"/>
<!-- ResearchProject -->
<g id="node1" class="node">
<title>ResearchProject</title>
<ellipse fill="none" stroke="#558855" cx="677.9" cy="-288" rx="87.18" ry="18"/>
<text text-anchor="middle" x="677.9" y="-284.3" font-family="Times,serif" font-size="14.00">ResearchProject</text>
</g>
<!-- example.org/permanentUrlToThisJsonDoc -->
<g id="node2" class="node">
<title>example.org/permanentUrlToThisJsonDoc</title>
<ellipse fill="none" stroke="black" cx="204.08" cy="-153" rx="204.16" ry="18"/>
<text text-anchor="middle" x="204.08" y="-149.3" font-family="Times,serif" font-size="14.00">example.org/permanentUrlToThisJsonDoc</text>
</g>
<!-- example.org/permanentUrlToThisJsonDoc&#45;&gt;ResearchProject -->
<g id="edge1" class="edge">
<title>example.org/permanentUrlToThisJsonDoc&#45;&gt;ResearchProject</title>
<path fill="none" stroke="black" d="M250.03,-170.55C311.38,-193.95 425.17,-235.39 525.16,-261 547.97,-266.84 573.02,-271.86 596.08,-275.92"/>
<polygon fill="black" stroke="black" points="595.72,-279.41 606.17,-277.67 596.92,-272.52 595.72,-279.41"/>
<text text-anchor="middle" x="466.66" y="-256.8" font-family="Times,serif" font-size="14.00">type</text>
</g>
<!-- &quot;Repo description ... &quot; -->
<g id="node3" class="node">
<title>&quot;Repo description ... &quot;</title>
<ellipse fill="none" stroke="black" stroke-width="0" cx="677.9" cy="-234" rx="112.38" ry="18"/>
<text text-anchor="middle" x="677.9" y="-230.3" font-family="Times,serif" font-size="14.00">&quot;Repo description ... &quot;</text>
</g>
<!-- example.org/permanentUrlToThisJsonDoc&#45;&gt;&quot;Repo description ... &quot; -->
<g id="edge2" class="edge">
<title>example.org/permanentUrlToThisJsonDoc&#45;&gt;&quot;Repo description ... &quot;</title>
<path fill="none" stroke="black" d="M298.3,-169C383.33,-183.6 507.98,-205 590.73,-219.21"/>
<polygon fill="black" stroke="black" points="590.17,-222.66 600.61,-220.9 591.35,-215.76 590.17,-222.66"/>
<text text-anchor="middle" x="466.66" y="-206.8" font-family="Times,serif" font-size="14.00">description</text>
</g>
<!-- _ -->
<g id="node4" class="node">
<title>_</title>
<ellipse fill="none" stroke="#558855" cx="677.9" cy="-180" rx="27" ry="18"/>
<text text-anchor="middle" x="677.9" y="-176.3" font-family="Times,serif" font-size="14.00">_</text>
</g>
<!-- example.org/permanentUrlToThisJsonDoc&#45;&gt;_ -->
<g id="edge3" class="edge">
<title>example.org/permanentUrlToThisJsonDoc&#45;&gt;_</title>
<path fill="none" stroke="black" d="M375.75,-162.77C472.17,-168.28 584.37,-174.71 640.7,-177.93"/>
<polygon fill="black" stroke="black" points="640.7,-181.43 650.88,-178.51 641.1,-174.45 640.7,-181.43"/>
<text text-anchor="middle" x="466.66" y="-172.8" font-family="Times,serif" font-size="14.00">identifier</text>
</g>
<!-- &quot;Example Data Repository&quot; -->
<g id="node5" class="node">
<title>&quot;Example Data Repository&quot;</title>
<ellipse fill="none" stroke="black" stroke-width="0" cx="677.9" cy="-126" rx="137.58" ry="18"/>
<text text-anchor="middle" x="677.9" y="-122.3" font-family="Times,serif" font-size="14.00">&quot;Example Data Repository&quot;</text>
</g>
<!-- example.org/permanentUrlToThisJsonDoc&#45;&gt;&quot;Example Data Repository&quot; -->
<g id="edge4" class="edge">
<title>example.org/permanentUrlToThisJsonDoc&#45;&gt;&quot;Example Data Repository&quot;</title>
<path fill="none" stroke="black" d="M375.75,-143.23C430.17,-140.12 489.61,-136.72 541.2,-133.77"/>
<polygon fill="black" stroke="black" points="541.63,-137.25 551.41,-133.18 541.23,-130.26 541.63,-137.25"/>
<text text-anchor="middle" x="466.66" y="-143.8" font-family="Times,serif" font-size="14.00">legalName</text>
</g>
<!-- &quot;ExDaRepo&quot; -->
<g id="node6" class="node">
<title>&quot;ExDaRepo&quot;</title>
<ellipse fill="none" stroke="black" stroke-width="0" cx="677.9" cy="-72" rx="67.69" ry="18"/>
<text text-anchor="middle" x="677.9" y="-68.3" font-family="Times,serif" font-size="14.00">&quot;ExDaRepo&quot;</text>
</g>
<!-- example.org/permanentUrlToThisJsonDoc&#45;&gt;&quot;ExDaRepo&quot; -->
<g id="edge5" class="edge">
<title>example.org/permanentUrlToThisJsonDoc&#45;&gt;&quot;ExDaRepo&quot;</title>
<path fill="none" stroke="black" d="M298.3,-137C390.37,-121.19 528.89,-97.41 610.38,-83.42"/>
<polygon fill="black" stroke="black" points="611.25,-86.82 620.51,-81.68 610.06,-79.92 611.25,-86.82"/>
<text text-anchor="middle" x="466.66" y="-117.8" font-family="Times,serif" font-size="14.00">name</text>
</g>
<!-- &quot;https//www.example&#45;data&#45;r...&quot; -->
<g id="node7" class="node">
<title>&quot;https//www.example&#45;data&#45;r...&quot;</title>
<ellipse fill="none" stroke="black" stroke-width="0" cx="677.9" cy="-18" rx="152.97" ry="18"/>
<text text-anchor="middle" x="677.9" y="-14.3" font-family="Times,serif" font-size="14.00">&quot;https//www.example&#45;data&#45;r...&quot;</text>
</g>
<!-- example.org/permanentUrlToThisJsonDoc&#45;&gt;&quot;https//www.example&#45;data&#45;r...&quot; -->
<g id="edge6" class="edge">
<title>example.org/permanentUrlToThisJsonDoc&#45;&gt;&quot;https//www.example&#45;data&#45;r...&quot;</title>
<path fill="none" stroke="black" d="M250.03,-135.45C311.38,-112.05 425.17,-70.61 525.16,-45 540.83,-40.99 557.56,-37.36 573.98,-34.17"/>
<polygon fill="black" stroke="black" points="574.98,-37.54 584.15,-32.24 573.67,-30.66 574.98,-37.54"/>
<text text-anchor="middle" x="466.66" y="-76.8" font-family="Times,serif" font-size="14.00">url</text>
</g>
<!-- PropertyValue -->
<g id="node8" class="node">
<title>PropertyValue</title>
<ellipse fill="none" stroke="#558855" cx="1110.12" cy="-261" rx="77.19" ry="18"/>
<text text-anchor="middle" x="1110.12" y="-257.3" font-family="Times,serif" font-size="14.00">PropertyValue</text>
</g>
<!-- _&#45;&gt;PropertyValue -->
<g id="edge7" class="edge">
<title>_&#45;&gt;PropertyValue</title>
<path fill="none" stroke="black" d="M704.75,-183.04C735.23,-186.98 787.23,-194.82 830.64,-207 838.9,-209.32 840.4,-211.59 848.64,-214 908.69,-231.6 978.55,-243.78 1030.81,-251.32"/>
<polygon fill="black" stroke="black" points="1030.62,-254.82 1041.01,-252.76 1031.6,-247.89 1030.62,-254.82"/>
<text text-anchor="middle" x="889.14" y="-236.8" font-family="Times,serif" font-size="14.00">type</text>
</g>
<!-- &quot;UN Department of Economic...&quot; -->
<g id="node9" class="node">
<title>&quot;UN Department of Economic...&quot;</title>
<ellipse fill="none" stroke="black" stroke-width="0" cx="1110.12" cy="-207" rx="162.47" ry="18"/>
<text text-anchor="middle" x="1110.12" y="-203.3" font-family="Times,serif" font-size="14.00">&quot;UN Department of Economic...&quot;</text>
</g>
<!-- _&#45;&gt;&quot;UN Department of Economic...&quot; -->
<g id="edge8" class="edge">
<title>_&#45;&gt;&quot;UN Department of Economic...&quot;</title>
<path fill="none" stroke="black" d="M704.84,-181.63C754.23,-184.73 865.14,-191.69 958.32,-197.54"/>
<polygon fill="black" stroke="black" points="958.23,-201.04 968.43,-198.17 958.67,-194.05 958.23,-201.04"/>
<text text-anchor="middle" x="889.14" y="-198.8" font-family="Times,serif" font-size="14.00">description</text>
</g>
<!-- &quot;https//registry.identifie...&quot; -->
<g id="node10" class="node">
<title>&quot;https//registry.identifie...&quot;</title>
<ellipse fill="none" stroke="black" stroke-width="0" cx="1110.12" cy="-153" rx="135.38" ry="18"/>
<text text-anchor="middle" x="1110.12" y="-149.3" font-family="Times,serif" font-size="14.00">&quot;https//registry.identifie...&quot;</text>
</g>
<!-- _&#45;&gt;&quot;https//registry.identifie...&quot; -->
<g id="edge9" class="edge">
<title>_&#45;&gt;&quot;https//registry.identifie...&quot;</title>
<path fill="none" stroke="black" d="M704.84,-178.37C757.66,-175.06 880.83,-167.33 977.44,-161.26"/>
<polygon fill="black" stroke="black" points="977.83,-164.75 987.59,-160.63 977.39,-157.76 977.83,-164.75"/>
<text text-anchor="middle" x="889.14" y="-171.8" font-family="Times,serif" font-size="14.00">propertyID</text>
</g>
<!-- &quot;https//grid.ac/institutes...&quot; -->
<g id="node11" class="node">
<title>&quot;https//grid.ac/institutes...&quot;</title>
<ellipse fill="none" stroke="black" stroke-width="0" cx="1110.12" cy="-99" rx="137.58" ry="18"/>
<text text-anchor="middle" x="1110.12" y="-95.3" font-family="Times,serif" font-size="14.00">&quot;https//grid.ac/institutes...&quot;</text>
</g>
<!-- _&#45;&gt;&quot;https//grid.ac/institutes...&quot; -->
<g id="edge10" class="edge">
<title>_&#45;&gt;&quot;https//grid.ac/institutes...&quot;</title>
<path fill="none" stroke="black" d="M704.85,-177.32C735.43,-173.72 787.53,-166.2 830.64,-153 839.01,-150.44 840.28,-147.62 848.64,-145 896.09,-130.12 950.02,-119.59 996.44,-112.4"/>
<polygon fill="black" stroke="black" points="997.17,-115.83 1006.54,-110.88 996.12,-108.91 997.17,-115.83"/>
<text text-anchor="middle" x="889.14" y="-148.8" font-family="Times,serif" font-size="14.00">url</text>
</g>
</g>
</svg>