<?xml version="1.0" encoding="UTF-8" standalone="no"?>
<!DOCTYPE svg PUBLIC "-//W3C//DTD SVG 1.1//EN"
 "http://www.w3.org/Graphics/SVG/1.1/DTD/svg11.dtd">
<!-- Generated by graphviz version 2.43.0 (0)
 -->
<!-- Title: %3 Pages: 1 -->
<svg width="1378pt" height="1239pt"
 viewBox="0.00 0.00 1377.91 1238.86" xmlns="http://www.w3.org/2000/svg" xmlns:xlink="http://www.w3.org/1999/xlink">
<g id="graph0" class="graph" transform="scale(1 1) rotate(0) translate(4 1234.86)">
<title>%3</title>
<polygon fill="white" stroke="transparent" points="-4,4 -4,-1234.86 1373.91,-1234.86 1373.91,4 -4,4"/>
<!-- Course -->
<g id="node1" class="node">
<title>Course</title>
<ellipse fill="none" stroke="#558855" cx="1205.47" cy="-1212.86" rx="43.59" ry="18"/>
<text text-anchor="middle" x="1205.47" y="-1209.16" font-family="Times,serif" font-size="14.00">Course</text>
</g>
<!-- example.org/id/course/x -->
<g id="node2" class="node">
<title>example.org/id/course/x</title>
<ellipse fill="none" stroke="#558855" cx="717.1" cy="-1131.86" rx="122.38" ry="18"/>
<text text-anchor="middle" x="717.1" y="-1128.16" font-family="Times,serif" font-size="14.00">example.org/id/course/x</text>
</g>
<!-- example.org/id/course/x&#45;&gt;Course -->
<g id="edge1" class="edge">
<title>example.org/id/course/x&#45;&gt;Course</title>
<path fill="none" stroke="black" d="M787.75,-1146.63C819.75,-1153.21 858.25,-1160.81 893.04,-1166.86 984.41,-1182.73 1091.48,-1197.77 1153.29,-1206.11"/>
<polygon fill="black" stroke="black" points="1153.18,-1209.62 1163.55,-1207.49 1154.11,-1202.69 1153.18,-1209.62"/>
<text text-anchor="middle" x="958.04" y="-1190.66" font-family="Times,serif" font-size="14.00">type</text>
</g>
<!-- &quot;In this course ...&quot; -->
<g id="node3" class="node">
<title>&quot;In this course ...&quot;</title>
<ellipse fill="none" stroke="black" stroke-width="0" cx="1205.47" cy="-1158.86" rx="94.78" ry="18"/>
<text text-anchor="middle" x="1205.47" y="-1155.16" font-family="Times,serif" font-size="14.00">&quot;In this course ...&quot;</text>
</g>
<!-- example.org/id/course/x&#45;&gt;&quot;In this course ...&quot; -->
<g id="edge2" class="edge">
<title>example.org/id/course/x&#45;&gt;&quot;In this course ...&quot;</title>
<path fill="none" stroke="black" d="M831.83,-1138.17C914.34,-1142.75 1024.93,-1148.89 1104.16,-1153.29"/>
<polygon fill="black" stroke="black" points="1103.97,-1156.78 1114.15,-1153.84 1104.36,-1149.79 1103.97,-1156.78"/>
<text text-anchor="middle" x="958.04" y="-1151.66" font-family="Times,serif" font-size="14.00">description</text>
</g>
<!-- &quot;URL to the course&quot; -->
<g id="node4" class="node">
<title>&quot;URL to the course&quot;</title>
<ellipse fill="none" stroke="black" stroke-width="0" cx="1205.47" cy="-1104.86" rx="103.98" ry="18"/>
<text text-anchor="middle" x="1205.47" y="-1101.16" font-family="Times,serif" font-size="14.00">&quot;URL to the course&quot;</text>
</g>
<!-- example.org/id/course/x&#45;&gt;&quot;URL to the course&quot; -->
<g id="edge3" class="edge">
<title>example.org/id/course/x&#45;&gt;&quot;URL to the course&quot;</title>
<path fill="none" stroke="black" d="M831.83,-1125.54C911.49,-1121.12 1017.31,-1115.24 1095.83,-1110.89"/>
<polygon fill="black" stroke="black" points="1096.44,-1114.36 1106.23,-1110.31 1096.05,-1107.37 1096.44,-1114.36"/>
<text text-anchor="middle" x="958.04" y="-1124.66" font-family="Times,serif" font-size="14.00">url</text>
</g>
<!-- Person -->
<g id="node5" class="node">
<title>Person</title>
<ellipse fill="none" stroke="#558855" cx="717.1" cy="-969.86" rx="42.49" ry="18"/>
<text text-anchor="middle" x="717.1" y="-966.16" font-family="Times,serif" font-size="14.00">Person</text>
</g>
<!-- example.org/permanentUrlToThisJsonDoc -->
<g id="node6" class="node">
<title>example.org/permanentUrlToThisJsonDoc</title>
<ellipse fill="none" stroke="black" cx="204.08" cy="-567.86" rx="204.16" ry="18"/>
<text text-anchor="middle" x="204.08" y="-564.16" font-family="Times,serif" font-size="14.00">example.org/permanentUrlToThisJsonDoc</text>
</g>
<!-- example.org/permanentUrlToThisJsonDoc&#45;&gt;example.org/id/course/x -->
<g id="edge7" class="edge">
<title>example.org/permanentUrlToThisJsonDoc&#45;&gt;example.org/id/course/x</title>
<path fill="none" stroke="black" d="M212,-586.09C234.88,-644.56 313.18,-830.43 426.16,-947.86 498.11,-1022.63 606.26,-1080.79 668.12,-1110.36"/>
<polygon fill="black" stroke="black" points="666.73,-1113.57 677.27,-1114.68 669.73,-1107.24 666.73,-1113.57"/>
<text text-anchor="middle" x="483.66" y="-1039.66" font-family="Times,serif" font-size="14.00">knowsAbout</text>
</g>
<!-- example.org/permanentUrlToThisJsonDoc&#45;&gt;Person -->
<g id="edge4" class="edge">
<title>example.org/permanentUrlToThisJsonDoc&#45;&gt;Person</title>
<path fill="none" stroke="black" d="M215.71,-585.99C253.31,-648.29 387.09,-854.56 559.16,-942.86 591.79,-959.6 632.74,-966.24 664.63,-968.75"/>
<polygon fill="black" stroke="black" points="664.43,-972.25 674.64,-969.43 664.9,-965.26 664.43,-972.25"/>
<text text-anchor="middle" x="483.66" y="-932.66" font-family="Times,serif" font-size="14.00">type</text>
</g>
<!-- orcid.org/0000&#45;0002&#45;2257&#45;9127 -->
<g id="node7" class="node">
<title>orcid.org/0000&#45;0002&#45;2257&#45;9127</title>
<ellipse fill="none" stroke="#558855" cx="717.1" cy="-915.86" rx="157.87" ry="18"/>
<text text-anchor="middle" x="717.1" y="-912.16" font-family="Times,serif" font-size="14.00">orcid.org/0000&#45;0002&#45;2257&#45;9127</text>
</g>
<!-- example.org/permanentUrlToThisJsonDoc&#45;&gt;orcid.org/0000&#45;0002&#45;2257&#45;9127 -->
<g id="edge5" class="edge">
<title>example.org/permanentUrlToThisJsonDoc&#45;&gt;orcid.org/0000&#45;0002&#45;2257&#45;9127</title>
<path fill="none" stroke="black" d="M231.48,-585.83C316.8,-643.94 585.17,-826.69 681.36,-892.2"/>
<polygon fill="black" stroke="black" points="679.62,-895.25 689.86,-897.99 683.56,-889.46 679.62,-895.25"/>
<text text-anchor="middle" x="483.66" y="-796.66" font-family="Times,serif" font-size="14.00">identifier</text>
</g>
<!-- &quot;Professor&quot; -->
<g id="node8" class="node">
<title>&quot;Professor&quot;</title>
<ellipse fill="none" stroke="black" stroke-width="0" cx="717.1" cy="-681.86" rx="63.89" ry="18"/>
<text text-anchor="middle" x="717.1" y="-678.16" font-family="Times,serif" font-size="14.00">&quot;Professor&quot;</text>
</g>
<!-- example.org/permanentUrlToThisJsonDoc&#45;&gt;&quot;Professor&quot; -->
<g id="edge6" class="edge">
<title>example.org/permanentUrlToThisJsonDoc&#45;&gt;&quot;Professor&quot;</title>
<path fill="none" stroke="black" d="M242.05,-585.6C285.19,-605.45 359.15,-636.93 426.16,-652.86 498.86,-670.13 584.19,-677.13 643.37,-679.95"/>
<polygon fill="black" stroke="black" points="643.22,-683.45 653.37,-680.4 643.54,-676.46 643.22,-683.45"/>
<text text-anchor="middle" x="483.66" y="-674.66" font-family="Times,serif" font-size="14.00">jobTitle</text>
</g>
<!-- _ -->
<g id="node9" class="node">
<title>_</title>
<ellipse fill="none" stroke="#558855" cx="717.1" cy="-491.86" rx="27" ry="18"/>
<text text-anchor="middle" x="717.1" y="-488.16" font-family="Times,serif" font-size="14.00">_</text>
</g>
<!-- example.org/permanentUrlToThisJsonDoc&#45;&gt;_ -->
<g id="edge8" class="edge">
<title>example.org/permanentUrlToThisJsonDoc&#45;&gt;_</title>
<path fill="none" stroke="black" d="M243.57,-585.61C307.03,-612.35 436.95,-656.34 541.16,-621.86 605.08,-600.71 664.65,-546.16 695.04,-514.85"/>
<polygon fill="black" stroke="black" points="697.76,-517.08 702.13,-507.43 692.69,-512.25 697.76,-517.08"/>
<text text-anchor="middle" x="483.66" y="-637.66" font-family="Times,serif" font-size="14.00">knowsAbout</text>
</g>
<!-- example.org/permanentUrlToThisJsonDoc&#45;&gt;_ -->
<g id="edge9" class="edge">
<title>example.org/permanentUrlToThisJsonDoc&#45;&gt;_</title>
<path fill="none" stroke="black" d="M285.1,-584.39C353.99,-595.63 455.53,-605 541.16,-583.86 598.11,-569.79 657,-533.5 689.85,-510.92"/>
<polygon fill="black" stroke="black" points="692.21,-513.55 698.4,-504.95 688.2,-507.81 692.21,-513.55"/>
<text text-anchor="middle" x="483.66" y="-599.66" font-family="Times,serif" font-size="14.00">knowsAbout</text>
</g>
<!-- example.org/permanentUrlToThisJsonDoc&#45;&gt;_ -->
<g id="edge10" class="edge">
<title>example.org/permanentUrlToThisJsonDoc&#45;&gt;_</title>
<path fill="none" stroke="black" d="M400.2,-562.83C446.65,-559.5 495.88,-554.21 541.16,-545.86 592.09,-536.46 649.05,-517.15 683.73,-504.36"/>
<polygon fill="black" stroke="black" points="685.18,-507.55 693.33,-500.77 682.73,-500.99 685.18,-507.55"/>
<text text-anchor="middle" x="483.66" y="-563.66" font-family="Times,serif" font-size="14.00">knowsLanguage</text>
</g>
<!-- example.org/permanentUrlToThisJsonDoc&#45;&gt;_ -->
<g id="edge12" class="edge">
<title>example.org/permanentUrlToThisJsonDoc&#45;&gt;_</title>
<path fill="none" stroke="black" d="M287.03,-551.38C328.6,-543.35 379.95,-533.92 426.16,-526.86 517.08,-512.95 624.74,-501.18 679.75,-495.5"/>
<polygon fill="black" stroke="black" points="680.44,-498.94 690.03,-494.44 679.73,-491.98 680.44,-498.94"/>
<text text-anchor="middle" x="483.66" y="-530.66" font-family="Times,serif" font-size="14.00">nationality</text>
</g>
<!-- example.org/permanentUrlToThisJsonDoc&#45;&gt;_ -->
<g id="edge13" class="edge">
<title>example.org/permanentUrlToThisJsonDoc&#45;&gt;_</title>
<path fill="none" stroke="black" d="M243.99,-550.06C287.36,-531.27 360.11,-502.89 426.16,-491.86 516.65,-476.74 625.25,-483.14 680.31,-488.09"/>
<polygon fill="black" stroke="black" points="679.98,-491.58 690.27,-489.02 680.64,-484.61 679.98,-491.58"/>
<text text-anchor="middle" x="483.66" y="-495.66" font-family="Times,serif" font-size="14.00">nationality</text>
</g>
<!-- example.org/permanentUrlToThisJsonDoc&#45;&gt;_ -->
<g id="edge16" class="edge">
<title>example.org/permanentUrlToThisJsonDoc&#45;&gt;_</title>
<path fill="none" stroke="black" d="M232.58,-549.82C273,-524.5 351.76,-479.63 426.16,-462.86 517.26,-442.32 627.74,-466.48 682.28,-481.55"/>
<polygon fill="black" stroke="black" points="681.53,-484.98 692.11,-484.34 683.44,-478.25 681.53,-484.98"/>
<text text-anchor="middle" x="483.66" y="-466.66" font-family="Times,serif" font-size="14.00">workLocation</text>
</g>
<!-- &quot;Jane Doe&quot; -->
<g id="node10" class="node">
<title>&quot;Jane Doe&quot;</title>
<ellipse fill="none" stroke="black" stroke-width="0" cx="717.1" cy="-423.86" rx="60.39" ry="18"/>
<text text-anchor="middle" x="717.1" y="-420.16" font-family="Times,serif" font-size="14.00">&quot;Jane Doe&quot;</text>
</g>
<!-- example.org/permanentUrlToThisJsonDoc&#45;&gt;&quot;Jane Doe&quot; -->
<g id="edge11" class="edge">
<title>example.org/permanentUrlToThisJsonDoc&#45;&gt;&quot;Jane Doe&quot;</title>
<path fill="none" stroke="black" d="M226.54,-549.95C264.15,-519.8 345.63,-459.87 426.16,-435.86 500.33,-413.74 589.88,-413.84 649.65,-417.47"/>
<polygon fill="black" stroke="black" points="649.51,-420.96 659.72,-418.13 649.97,-413.98 649.51,-420.96"/>
<text text-anchor="middle" x="483.66" y="-439.66" font-family="Times,serif" font-size="14.00">name</text>
</g>
<!-- &quot;(425) 123&#45;4567&quot; -->
<g id="node11" class="node">
<title>&quot;(425) 123&#45;4567&quot;</title>
<ellipse fill="none" stroke="black" stroke-width="0" cx="717.1" cy="-369.86" rx="90.98" ry="18"/>
<text text-anchor="middle" x="717.1" y="-366.16" font-family="Times,serif" font-size="14.00">&quot;(425) 123&#45;4567&quot;</text>
</g>
<!-- example.org/permanentUrlToThisJsonDoc&#45;&gt;&quot;(425) 123&#45;4567&quot; -->
<g id="edge14" class="edge">
<title>example.org/permanentUrlToThisJsonDoc&#45;&gt;&quot;(425) 123&#45;4567&quot;</title>
<path fill="none" stroke="black" d="M221.54,-549.68C255.61,-513.42 338.12,-432.6 426.16,-397.86 486.96,-373.86 560.26,-366.96 617.95,-366"/>
<polygon fill="black" stroke="black" points="618.21,-369.5 628.17,-365.89 618.13,-362.5 618.21,-369.5"/>
<text text-anchor="middle" x="483.66" y="-401.66" font-family="Times,serif" font-size="14.00">telephone</text>
</g>
<!-- &quot;http//www.janedoe.com&quot; -->
<g id="node12" class="node">
<title>&quot;http//www.janedoe.com&quot;</title>
<ellipse fill="none" stroke="black" stroke-width="0" cx="717.1" cy="-315.86" rx="128.08" ry="18"/>
<text text-anchor="middle" x="717.1" y="-312.16" font-family="Times,serif" font-size="14.00">&quot;http//www.janedoe.com&quot;</text>
</g>
<!-- example.org/permanentUrlToThisJsonDoc&#45;&gt;&quot;http//www.janedoe.com&quot; -->
<g id="edge15" class="edge">
<title>example.org/permanentUrlToThisJsonDoc&#45;&gt;&quot;http//www.janedoe.com&quot;</title>
<path fill="none" stroke="black" d="M217.18,-549.67C246.91,-506.71 328.26,-398.99 426.16,-351.86 473.09,-329.27 529.01,-319 579.17,-314.82"/>
<polygon fill="black" stroke="black" points="579.74,-318.28 589.45,-314.04 579.21,-311.3 579.74,-318.28"/>
<text text-anchor="middle" x="483.66" y="-355.66" font-family="Times,serif" font-size="14.00">url</text>
</g>
<!-- PropertyValue -->
<g id="node13" class="node">
<title>PropertyValue</title>
<ellipse fill="none" stroke="#558855" cx="1205.47" cy="-1050.86" rx="77.19" ry="18"/>
<text text-anchor="middle" x="1205.47" y="-1047.16" font-family="Times,serif" font-size="14.00">PropertyValue</text>
</g>
<!-- orcid.org/0000&#45;0002&#45;2257&#45;9127&#45;&gt;PropertyValue -->
<g id="edge17" class="edge">
<title>orcid.org/0000&#45;0002&#45;2257&#45;9127&#45;&gt;PropertyValue</title>
<path fill="none" stroke="black" d="M847.59,-926.02C857.53,-930.32 866.86,-935.83 875.04,-942.86 894.23,-959.34 873.93,-980.27 893.04,-996.86 956.34,-1051.79 1054.97,-1060.4 1124.23,-1058.4"/>
<polygon fill="black" stroke="black" points="1124.37,-1061.9 1134.23,-1058.03 1124.11,-1054.9 1124.37,-1061.9"/>
<text text-anchor="middle" x="958.04" y="-1053.66" font-family="Times,serif" font-size="14.00">type</text>
</g>
<!-- &quot;Optional description of t...&quot; -->
<g id="node14" class="node">
<title>&quot;Optional description of t...&quot;</title>
<ellipse fill="none" stroke="black" stroke-width="0" cx="1205.47" cy="-996.86" rx="141.88" ry="18"/>
<text text-anchor="middle" x="1205.47" y="-993.16" font-family="Times,serif" font-size="14.00">&quot;Optional description of t...&quot;</text>
</g>
<!-- orcid.org/0000&#45;0002&#45;2257&#45;9127&#45;&gt;&quot;Optional description of t...&quot; -->
<g id="edge18" class="edge">
<title>orcid.org/0000&#45;0002&#45;2257&#45;9127&#45;&gt;&quot;Optional description of t...&quot;</title>
<path fill="none" stroke="black" d="M819.85,-929.57C838.4,-933.14 857.44,-937.52 875.04,-942.86 883.41,-945.39 884.63,-948.42 893.04,-950.86 952.08,-967.99 1019.38,-978.95 1076.26,-985.85"/>
<polygon fill="black" stroke="black" points="1076.05,-989.35 1086.39,-987.05 1076.88,-982.4 1076.05,-989.35"/>
<text text-anchor="middle" x="958.04" y="-981.66" font-family="Times,serif" font-size="14.00">description</text>
</g>
<!-- &quot;https//registry.identifie...&quot; -->
<g id="node15" class="node">
<title>&quot;https//registry.identifie...&quot;</title>
<ellipse fill="none" stroke="black" stroke-width="0" cx="1205.47" cy="-942.86" rx="135.38" ry="18"/>
<text text-anchor="middle" x="1205.47" y="-939.16" font-family="Times,serif" font-size="14.00">&quot;https//registry.identifie...&quot;</text>
</g>
<!-- orcid.org/0000&#45;0002&#45;2257&#45;9127&#45;&gt;&quot;https//registry.identifie...&quot; -->
<g id="edge19" class="edge">
<title>orcid.org/0000&#45;0002&#45;2257&#45;9127&#45;&gt;&quot;https//registry.identifie...&quot;</title>
<path fill="none" stroke="black" d="M859.43,-923.7C925.72,-927.38 1004.34,-931.75 1069.77,-935.38"/>
<polygon fill="black" stroke="black" points="1069.98,-938.89 1080.16,-935.95 1070.37,-931.91 1069.98,-938.89"/>
<text text-anchor="middle" x="958.04" y="-935.66" font-family="Times,serif" font-size="14.00">propertyID</text>
</g>
<!-- &quot;https//orcid.org/0000&#45;000...&quot; -->
<g id="node16" class="node">
<title>&quot;https//orcid.org/0000&#45;000...&quot;</title>
<ellipse fill="none" stroke="black" stroke-width="0" cx="1205.47" cy="-888.86" rx="147.57" ry="18"/>
<text text-anchor="middle" x="1205.47" y="-885.16" font-family="Times,serif" font-size="14.00">&quot;https//orcid.org/0000&#45;000...&quot;</text>
</g>
<!-- orcid.org/0000&#45;0002&#45;2257&#45;9127&#45;&gt;&quot;https//orcid.org/0000&#45;000...&quot; -->
<g id="edge20" class="edge">
<title>orcid.org/0000&#45;0002&#45;2257&#45;9127&#45;&gt;&quot;https//orcid.org/0000&#45;000...&quot;</title>
<path fill="none" stroke="black" d="M859.43,-908.01C922.66,-904.5 997.1,-900.37 1060.63,-896.84"/>
<polygon fill="black" stroke="black" points="1060.93,-900.33 1070.72,-896.28 1060.55,-893.34 1060.93,-900.33"/>
<text text-anchor="middle" x="958.04" y="-908.66" font-family="Times,serif" font-size="14.00">url</text>
</g>
<!-- Place -->
<g id="node17" class="node">
<title>Place</title>
<ellipse fill="none" stroke="#558855" cx="1205.47" cy="-834.86" rx="36" ry="18"/>
<text text-anchor="middle" x="1205.47" y="-831.16" font-family="Times,serif" font-size="14.00">Place</text>
</g>
<!-- _&#45;&gt;Place -->
<g id="edge21" class="edge">
<title>_&#45;&gt;Place</title>
<path fill="none" stroke="black" d="M736.55,-504.55C770.57,-529.11 842.66,-586.74 875.04,-654.86 889.26,-684.78 869.39,-779.65 893.04,-802.86 965.02,-873.51 1096.29,-858.55 1163.07,-844.96"/>
<polygon fill="black" stroke="black" points="1164.16,-848.31 1173.22,-842.81 1162.71,-841.46 1164.16,-848.31"/>
<text text-anchor="middle" x="958.04" y="-857.66" font-family="Times,serif" font-size="14.00">type</text>
</g>
<!-- &quot;54 Ocean Drive, 23521 Oce...&quot; -->
<g id="node18" class="node">
<title>&quot;54 Ocean Drive, 23521 Oce...&quot;</title>
<ellipse fill="none" stroke="black" stroke-width="0" cx="1205.47" cy="-780.86" rx="155.17" ry="18"/>
<text text-anchor="middle" x="1205.47" y="-777.16" font-family="Times,serif" font-size="14.00">&quot;54 Ocean Drive, 23521 Oce...&quot;</text>
</g>
<!-- _&#45;&gt;&quot;54 Ocean Drive, 23521 Oce...&quot; -->
<g id="edge22" class="edge">
<title>_&#45;&gt;&quot;54 Ocean Drive, 23521 Oce...&quot;</title>
<path fill="none" stroke="black" d="M735.77,-504.95C768.49,-530.18 838.5,-588.87 875.04,-654.86 891.01,-683.71 868.97,-704.3 893.04,-726.86 936.47,-767.57 999.02,-783.48 1056.68,-788.29"/>
<polygon fill="black" stroke="black" points="1056.78,-791.8 1067.01,-789.04 1057.29,-784.82 1056.78,-791.8"/>
<text text-anchor="middle" x="958.04" y="-787.66" font-family="Times,serif" font-size="14.00">address</text>
</g>
<!-- &quot;Place name&quot; -->
<g id="node19" class="node">
<title>&quot;Place name&quot;</title>
<ellipse fill="none" stroke="black" stroke-width="0" cx="1205.47" cy="-726.86" rx="72.59" ry="18"/>
<text text-anchor="middle" x="1205.47" y="-723.16" font-family="Times,serif" font-size="14.00">&quot;Place name&quot;</text>
</g>
<!-- _&#45;&gt;&quot;Place name&quot; -->
<g id="edge23" class="edge">
<title>_&#45;&gt;&quot;Place name&quot;</title>
<path fill="none" stroke="black" d="M729.39,-507.9C754.54,-542.38 818.87,-623.76 893.04,-664.86 964.21,-704.3 1056.84,-718.87 1122.53,-724.14"/>
<polygon fill="black" stroke="black" points="1122.6,-727.65 1132.83,-724.9 1123.12,-720.67 1122.6,-727.65"/>
<text text-anchor="middle" x="958.04" y="-711.66" font-family="Times,serif" font-size="14.00">name</text>
</g>
<!-- Language -->
<g id="node20" class="node">
<title>Language</title>
<ellipse fill="none" stroke="#558855" cx="1205.47" cy="-672.86" rx="55.79" ry="18"/>
<text text-anchor="middle" x="1205.47" y="-669.16" font-family="Times,serif" font-size="14.00">Language</text>
</g>
<!-- _&#45;&gt;Language -->
<g id="edge24" class="edge">
<title>_&#45;&gt;Language</title>
<path fill="none" stroke="black" d="M734.88,-505.61C764.85,-529.52 830.3,-578.87 893.04,-606.86 974.25,-643.08 1076.39,-659.84 1141.08,-667.3"/>
<polygon fill="black" stroke="black" points="1140.81,-670.79 1151.13,-668.41 1141.58,-663.83 1140.81,-670.79"/>
<text text-anchor="middle" x="958.04" y="-649.66" font-family="Times,serif" font-size="14.00">type</text>
</g>
<!-- &quot;es&quot; -->
<g id="node21" class="node">
<title>&quot;es&quot;</title>
<ellipse fill="none" stroke="black" stroke-width="0" cx="1205.47" cy="-618.86" rx="29.8" ry="18"/>
<text text-anchor="middle" x="1205.47" y="-615.16" font-family="Times,serif" font-size="14.00">&quot;es&quot;</text>
</g>
<!-- _&#45;&gt;&quot;es&quot; -->
<g id="edge25" class="edge">
<title>_&#45;&gt;&quot;es&quot;</title>
<path fill="none" stroke="black" d="M740.11,-501.48C772.92,-515.56 836.83,-541.92 893.04,-558.86 957.56,-578.29 974.88,-579.02 1041.04,-591.86 1083.71,-600.13 1132.96,-608.05 1166.15,-613.14"/>
<polygon fill="black" stroke="black" points="1165.92,-616.65 1176.33,-614.69 1166.98,-609.73 1165.92,-616.65"/>
<text text-anchor="middle" x="958.04" y="-591.66" font-family="Times,serif" font-size="14.00">alternateName</text>
</g>
<!-- &quot;Spanish&quot; -->
<g id="node22" class="node">
<title>&quot;Spanish&quot;</title>
<ellipse fill="none" stroke="black" stroke-width="0" cx="1205.47" cy="-564.86" rx="56.59" ry="18"/>
<text text-anchor="middle" x="1205.47" y="-561.16" font-family="Times,serif" font-size="14.00">&quot;Spanish&quot;</text>
</g>
<!-- _&#45;&gt;&quot;Spanish&quot; -->
<g id="edge26" class="edge">
<title>_&#45;&gt;&quot;Spanish&quot;</title>
<path fill="none" stroke="black" d="M743.26,-496.44C777.21,-502.55 839.59,-513.59 893.04,-521.86 979.39,-535.22 1079.53,-548.68 1142.44,-556.9"/>
<polygon fill="black" stroke="black" points="1142.23,-560.4 1152.6,-558.22 1143.13,-553.46 1142.23,-560.4"/>
<text text-anchor="middle" x="958.04" y="-543.66" font-family="Times,serif" font-size="14.00">name</text>
</g>
<!-- DefinedTerm -->
<g id="node23" class="node">
<title>DefinedTerm</title>
<ellipse fill="none" stroke="#558855" cx="1205.47" cy="-510.86" rx="70.39" ry="18"/>
<text text-anchor="middle" x="1205.47" y="-507.16" font-family="Times,serif" font-size="14.00">DefinedTerm</text>
</g>
<!-- _&#45;&gt;DefinedTerm -->
<g id="edge27" class="edge">
<title>_&#45;&gt;DefinedTerm</title>
<path fill="none" stroke="black" d="M744.25,-492.88C815.24,-495.65 1013.7,-503.4 1125.44,-507.77"/>
<polygon fill="black" stroke="black" points="1125.51,-511.27 1135.64,-508.17 1125.78,-504.28 1125.51,-511.27"/>
<text text-anchor="middle" x="958.04" y="-506.66" font-family="Times,serif" font-size="14.00">type</text>
</g>
<!-- &quot;UN/LOCODE Code List by Co...&quot; -->
<g id="node24" class="node">
<title>&quot;UN/LOCODE Code List by Co...&quot;</title>
<ellipse fill="none" stroke="black" stroke-width="0" cx="1205.47" cy="-456.86" rx="164.37" ry="18"/>
<text text-anchor="middle" x="1205.47" y="-453.16" font-family="Times,serif" font-size="14.00">&quot;UN/LOCODE Code List by Co...&quot;</text>
</g>
<!-- _&#45;&gt;&quot;UN/LOCODE Code List by Co...&quot; -->
<g id="edge28" class="edge">
<title>_&#45;&gt;&quot;UN/LOCODE Code List by Co...&quot;</title>
<path fill="none" stroke="black" d="M744.25,-489.97C802.43,-485.79 946.23,-475.44 1057.74,-467.41"/>
<polygon fill="black" stroke="black" points="1058.02,-470.9 1067.74,-466.69 1057.52,-463.92 1058.02,-470.9"/>
<text text-anchor="middle" x="958.04" y="-481.66" font-family="Times,serif" font-size="14.00">inDefinedTermSet</text>
</g>
<!-- &quot;Fiji&quot; -->
<g id="node25" class="node">
<title>&quot;Fiji&quot;</title>
<ellipse fill="none" stroke="black" stroke-width="0" cx="1205.47" cy="-402.86" rx="34.39" ry="18"/>
<text text-anchor="middle" x="1205.47" y="-399.16" font-family="Times,serif" font-size="14.00">&quot;Fiji&quot;</text>
</g>
<!-- _&#45;&gt;&quot;Fiji&quot; -->
<g id="edge29" class="edge">
<title>_&#45;&gt;&quot;Fiji&quot;</title>
<path fill="none" stroke="black" d="M742.6,-485.48C776.31,-476.86 838.99,-461.34 893.04,-450.86 988.28,-432.38 1101.03,-416.47 1161.32,-408.43"/>
<polygon fill="black" stroke="black" points="1162.14,-411.85 1171.6,-407.07 1161.22,-404.91 1162.14,-411.85"/>
<text text-anchor="middle" x="958.04" y="-454.66" font-family="Times,serif" font-size="14.00">name</text>
</g>
<!-- _&#45;&gt;&quot;Fiji&quot; -->
<g id="edge35" class="edge">
<title>_&#45;&gt;&quot;Fiji&quot;</title>
<path fill="none" stroke="black" d="M744.37,-491.78C778.4,-490.32 837.79,-482.91 875.04,-450.86 890.43,-437.61 876.19,-420.2 893.04,-408.86 935.66,-380.15 1086.66,-390.76 1161.61,-398.13"/>
<polygon fill="black" stroke="black" points="1161.37,-401.62 1171.67,-399.15 1162.07,-394.66 1161.37,-401.62"/>
<text text-anchor="middle" x="958.04" y="-412.66" font-family="Times,serif" font-size="14.00">name</text>
</g>
<!-- &quot;FJ&quot; -->
<g id="node26" class="node">
<title>&quot;FJ&quot;</title>
<ellipse fill="none" stroke="black" stroke-width="0" cx="1205.47" cy="-348.86" rx="29.5" ry="18"/>
<text text-anchor="middle" x="1205.47" y="-345.16" font-family="Times,serif" font-size="14.00">&quot;FJ&quot;</text>
</g>
<!-- _&#45;&gt;&quot;FJ&quot; -->
<g id="edge30" class="edge">
<title>_&#45;&gt;&quot;FJ&quot;</title>
<path fill="none" stroke="black" d="M744.11,-492.79C778.99,-492.54 840.5,-486.6 875.04,-450.86 900.36,-424.65 865.4,-394.61 893.04,-370.86 971.11,-303.75 1104.76,-324.11 1168.54,-339.08"/>
<polygon fill="black" stroke="black" points="1167.98,-342.55 1178.53,-341.52 1169.64,-335.75 1167.98,-342.55"/>
<text text-anchor="middle" x="958.04" y="-374.66" font-family="Times,serif" font-size="14.00">termCode</text>
</g>
<!-- &quot;https//unece.org/trade/ce...&quot; -->
<g id="node27" class="node">
<title>&quot;https//unece.org/trade/ce...&quot;</title>
<ellipse fill="none" stroke="black" stroke-width="0" cx="1205.47" cy="-294.86" rx="145.67" ry="18"/>
<text text-anchor="middle" x="1205.47" y="-291.16" font-family="Times,serif" font-size="14.00">&quot;https//unece.org/trade/ce...&quot;</text>
</g>
<!-- _&#45;&gt;&quot;https//unece.org/trade/ce...&quot; -->
<g id="edge31" class="edge">
<title>_&#45;&gt;&quot;https//unece.org/trade/ce...&quot;</title>
<path fill="none" stroke="black" d="M744.02,-493.26C779.38,-493.62 842.08,-488.44 875.04,-450.86 917.56,-402.36 845.51,-350.46 893.04,-306.86 919.69,-282.4 1003.46,-280.21 1077.41,-283.71"/>
<polygon fill="black" stroke="black" points="1077.61,-287.23 1087.78,-284.24 1077.97,-280.23 1077.61,-287.23"/>
<text text-anchor="middle" x="958.04" y="-310.66" font-family="Times,serif" font-size="14.00">url</text>
</g>
<!-- Text -->
<g id="node28" class="node">
<title>Text</title>
<ellipse fill="none" stroke="#558855" cx="1205.47" cy="-240.86" rx="30.59" ry="18"/>
<text text-anchor="middle" x="1205.47" y="-237.16" font-family="Times,serif" font-size="14.00">Text</text>
</g>
<!-- _&#45;&gt;Text -->
<g id="edge32" class="edge">
<title>_&#45;&gt;Text</title>
<path fill="none" stroke="black" d="M744.18,-493.39C779.71,-493.9 842.62,-488.9 875.04,-450.86 902.11,-419.08 863.19,-293.04 893.04,-263.86 930.61,-227.11 1089.9,-232.83 1165,-237.77"/>
<polygon fill="black" stroke="black" points="1164.79,-241.26 1175.01,-238.46 1165.27,-234.28 1164.79,-241.26"/>
<text text-anchor="middle" x="958.04" y="-267.66" font-family="Times,serif" font-size="14.00">type</text>
</g>
<!-- &quot;Invasive species in brack...&quot; -->
<g id="node29" class="node">
<title>&quot;Invasive species in brack...&quot;</title>
<ellipse fill="none" stroke="black" stroke-width="0" cx="1205.47" cy="-186.86" rx="144.07" ry="18"/>
<text text-anchor="middle" x="1205.47" y="-183.16" font-family="Times,serif" font-size="14.00">&quot;Invasive species in brack...&quot;</text>
</g>
<!-- _&#45;&gt;&quot;Invasive species in brack...&quot; -->
<g id="edge33" class="edge">
<title>_&#45;&gt;&quot;Invasive species in brack...&quot;</title>
<path fill="none" stroke="black" d="M744.28,-493.47C779.93,-494.09 842.99,-489.21 875.04,-450.86 908.47,-410.83 856.51,-254.09 893.04,-216.86 952.4,-156.33 1055.14,-158.46 1126.3,-169.34"/>
<polygon fill="black" stroke="black" points="1126.13,-172.85 1136.56,-171 1127.25,-165.94 1126.13,-172.85"/>
<text text-anchor="middle" x="958.04" y="-220.66" font-family="Times,serif" font-size="14.00">description</text>
</g>
<!-- Country -->
<g id="node30" class="node">
<title>Country</title>
<ellipse fill="none" stroke="#558855" cx="1205.47" cy="-132.86" rx="48.19" ry="18"/>
<text text-anchor="middle" x="1205.47" y="-129.16" font-family="Times,serif" font-size="14.00">Country</text>
</g>
<!-- _&#45;&gt;Country -->
<g id="edge34" class="edge">
<title>_&#45;&gt;Country</title>
<path fill="none" stroke="black" d="M744.07,-493.55C779.79,-494.29 843.24,-489.61 875.04,-450.86 918.1,-398.37 844.61,-193.45 893.04,-145.86 927.94,-111.55 1069,-119.23 1148.77,-126.69"/>
<polygon fill="black" stroke="black" points="1148.84,-130.22 1159.13,-127.69 1149.52,-123.25 1148.84,-130.22"/>
<text text-anchor="middle" x="958.04" y="-149.66" font-family="Times,serif" font-size="14.00">type</text>
</g>
<!-- URL -->
<g id="node31" class="node">
<title>URL</title>
<ellipse fill="none" stroke="#558855" cx="1205.47" cy="-78.86" rx="31.4" ry="18"/>
<text text-anchor="middle" x="1205.47" y="-75.16" font-family="Times,serif" font-size="14.00">URL</text>
</g>
<!-- _&#45;&gt;URL -->
<g id="edge36" class="edge">
<title>_&#45;&gt;URL</title>
<path fill="none" stroke="black" d="M744.11,-493.58C779.88,-494.36 843.39,-489.72 875.04,-450.86 899.55,-420.75 865.89,-129.61 893.04,-101.86 929.69,-64.37 1088.72,-70.4 1164.29,-75.59"/>
<polygon fill="black" stroke="black" points="1164.16,-79.08 1174.38,-76.31 1164.66,-72.1 1164.16,-79.08"/>
<text text-anchor="middle" x="958.04" y="-105.66" font-family="Times,serif" font-size="14.00">type</text>
</g>
<!-- &quot;https//www.wikidata.org/w...&quot; -->
<g id="node32" class="node">
<title>&quot;https//www.wikidata.org/w...&quot;</title>
<ellipse fill="none" stroke="black" stroke-width="0" cx="1205.47" cy="-24.86" rx="151.37" ry="18"/>
<text text-anchor="middle" x="1205.47" y="-21.16" font-family="Times,serif" font-size="14.00">&quot;https//www.wikidata.org/w...&quot;</text>
</g>
<!-- _&#45;&gt;&quot;https//www.wikidata.org/w...&quot; -->
<g id="edge37" class="edge">
<title>_&#45;&gt;&quot;https//www.wikidata.org/w...&quot;</title>
<path fill="none" stroke="black" d="M744.15,-493.61C779.95,-494.42 843.51,-489.82 875.04,-450.86 902.81,-416.53 862.56,-85.81 893.04,-53.86 952.18,8.17 1056.77,4.74 1128.29,-7.01"/>
<polygon fill="black" stroke="black" points="1127.7,-10.46 1138.15,-8.72 1128.9,-3.57 1127.7,-10.46"/>
<text text-anchor="middle" x="958.04" y="-57.66" font-family="Times,serif" font-size="14.00">url</text>
</g>
</g>
</svg>