<?xml version="1.0" encoding="UTF-8" standalone="no"?>
<!DOCTYPE svg PUBLIC "-//W3C//DTD SVG 1.1//EN"
 "http://www.w3.org/Graphics/SVG/1.1/DTD/svg11.dtd">
<!-- Generated by graphviz version 2.43.0 (0)
 -->
<!-- Title: %3 Pages: 1 -->
<svg width="1312pt" height="290pt"
 viewBox="0.00 0.00 1312.41 290.00" xmlns="http://www.w3.org/2000/svg" xmlns:xlink="http://www.w3.org/1999/xlink">
<g id="graph0" class="graph" transform="scale(1 1) rotate(0) translate(4 286)">
<title>%3</title>
<polygon fill="white" stroke="transparent" points="-4,4 -4,-286 1308.41,-286 1308.41,4 -4,4"/>
<!-- DefinedTerm -->
<g id="node1" class="node">
<title>DefinedTerm</title>
<ellipse fill="none" stroke="#558855" cx="1152.97" cy="-264" rx="70.39" ry="18"/>
<text text-anchor="middle" x="1152.97" y="-260.3" font-family="Times,serif" font-size="14.00">DefinedTerm</text>
</g>
<!-- purl.org/dc/dcmitype/Image -->
<g id="node2" class="node">
<title>purl.org/dc/dcmitype/Image</title>
<ellipse fill="none" stroke="#558855" cx="674.35" cy="-195" rx="139.98" ry="18"/>
<text text-anchor="middle" x="674.35" y="-191.3" font-family="Times,serif" font-size="14.00">purl.org/dc/dcmitype/Image</text>
</g>
<!-- purl.org/dc/dcmitype/Image&#45;&gt;DefinedTerm -->
<g id="edge1" class="edge">
<title>purl.org/dc/dcmitype/Image&#45;&gt;DefinedTerm</title>
<path fill="none" stroke="black" d="M762.3,-209.01C791.3,-213.59 823.79,-218.62 853.54,-223 930.81,-234.38 1019.51,-246.44 1079.99,-254.51"/>
<polygon fill="black" stroke="black" points="1079.82,-258.02 1090.19,-255.87 1080.74,-251.08 1079.82,-258.02"/>
<text text-anchor="middle" x="918.54" y="-243.8" font-family="Times,serif" font-size="14.00">type</text>
</g>
<!-- &quot;http//purl.org/dc/terms/D...&quot; -->
<g id="node3" class="node">
<title>&quot;http//purl.org/dc/terms/D...&quot;</title>
<ellipse fill="none" stroke="black" stroke-width="0" cx="1152.97" cy="-210" rx="144.87" ry="18"/>
<text text-anchor="middle" x="1152.97" y="-206.3" font-family="Times,serif" font-size="14.00">&quot;http//purl.org/dc/terms/D...&quot;</text>
</g>
<!-- purl.org/dc/dcmitype/Image&#45;&gt;&quot;http//purl.org/dc/terms/D...&quot; -->
<g id="edge2" class="edge">
<title>purl.org/dc/dcmitype/Image&#45;&gt;&quot;http//purl.org/dc/terms/D...&quot;</title>
<path fill="none" stroke="black" d="M810.34,-199.25C870.04,-201.13 940.48,-203.34 1001.84,-205.28"/>
<polygon fill="black" stroke="black" points="1001.9,-208.78 1012,-205.59 1002.12,-201.78 1001.9,-208.78"/>
<text text-anchor="middle" x="918.54" y="-207.8" font-family="Times,serif" font-size="14.00">inDefinedTermSet</text>
</g>
<!-- &quot;Image&quot; -->
<g id="node4" class="node">
<title>&quot;Image&quot;</title>
<ellipse fill="none" stroke="black" stroke-width="0" cx="1152.97" cy="-145" rx="48.19" ry="18"/>
<text text-anchor="middle" x="1152.97" y="-141.3" font-family="Times,serif" font-size="14.00">&quot;Image&quot;</text>
</g>
<!-- purl.org/dc/dcmitype/Image&#45;&gt;&quot;Image&quot; -->
<g id="edge3" class="edge">
<title>purl.org/dc/dcmitype/Image&#45;&gt;&quot;Image&quot;</title>
<path fill="none" stroke="black" d="M783.2,-183.69C880.38,-173.49 1019.38,-158.91 1095.97,-150.87"/>
<polygon fill="black" stroke="black" points="1096.77,-154.31 1106.35,-149.79 1096.04,-147.35 1096.77,-154.31"/>
<text text-anchor="middle" x="918.54" y="-178.8" font-family="Times,serif" font-size="14.00">name</text>
</g>
<!-- purl.org/dc/dcmitype/Image&#45;&gt;&quot;Image&quot; -->
<g id="edge4" class="edge">
<title>purl.org/dc/dcmitype/Image&#45;&gt;&quot;Image&quot;</title>
<path fill="none" stroke="black" d="M793.55,-185.41C808.3,-181.28 822.69,-175.64 835.54,-168 846.69,-161.36 841.87,-150.69 853.54,-145 934.06,-105.77 1041.92,-119.52 1103.48,-132.59"/>
<polygon fill="black" stroke="black" points="1102.8,-136.02 1113.32,-134.76 1104.3,-129.19 1102.8,-136.02"/>
<text text-anchor="middle" x="918.54" y="-148.8" font-family="Times,serif" font-size="14.00">termCode</text>
</g>
<!-- Map -->
<g id="node5" class="node">
<title>Map</title>
<ellipse fill="none" stroke="#558855" cx="674.35" cy="-141" rx="31.4" ry="18"/>
<text text-anchor="middle" x="674.35" y="-137.3" font-family="Times,serif" font-size="14.00">Map</text>
</g>
<!-- example.org/permanentUrlToThisJsonDoc -->
<g id="node6" class="node">
<title>example.org/permanentUrlToThisJsonDoc</title>
<ellipse fill="none" stroke="black" cx="204.08" cy="-114" rx="204.16" ry="18"/>
<text text-anchor="middle" x="204.08" y="-110.3" font-family="Times,serif" font-size="14.00">example.org/permanentUrlToThisJsonDoc</text>
</g>
<!-- example.org/permanentUrlToThisJsonDoc&#45;&gt;purl.org/dc/dcmitype/Image -->
<g id="edge7" class="edge">
<title>example.org/permanentUrlToThisJsonDoc&#45;&gt;purl.org/dc/dcmitype/Image</title>
<path fill="none" stroke="black" d="M296.05,-130.11C357.38,-140.92 440.11,-155.44 513.16,-168 534.16,-171.61 556.71,-175.44 578.07,-179.05"/>
<polygon fill="black" stroke="black" points="577.68,-182.53 588.12,-180.74 578.84,-175.63 577.68,-182.53"/>
<text text-anchor="middle" x="460.66" y="-166.8" font-family="Times,serif" font-size="14.00">keywords</text>
</g>
<!-- example.org/permanentUrlToThisJsonDoc&#45;&gt;Map -->
<g id="edge5" class="edge">
<title>example.org/permanentUrlToThisJsonDoc&#45;&gt;Map</title>
<path fill="none" stroke="black" d="M375.46,-123.82C468.52,-129.19 576.12,-135.39 633.09,-138.68"/>
<polygon fill="black" stroke="black" points="632.94,-142.18 643.13,-139.26 633.35,-135.19 632.94,-142.18"/>
<text text-anchor="middle" x="460.66" y="-133.8" font-family="Times,serif" font-size="14.00">type</text>
</g>
<!-- &quot;Region X&quot; -->
<g id="node7" class="node">
<title>&quot;Region X&quot;</title>
<ellipse fill="none" stroke="black" stroke-width="0" cx="674.35" cy="-87" rx="61.19" ry="18"/>
<text text-anchor="middle" x="674.35" y="-83.3" font-family="Times,serif" font-size="14.00">&quot;Region X&quot;</text>
</g>
<!-- example.org/permanentUrlToThisJsonDoc&#45;&gt;&quot;Region X&quot; -->
<g id="edge6" class="edge">
<title>example.org/permanentUrlToThisJsonDoc&#45;&gt;&quot;Region X&quot;</title>
<path fill="none" stroke="black" d="M375.46,-104.18C454.44,-99.62 543.9,-94.46 603.99,-91"/>
<polygon fill="black" stroke="black" points="604.34,-94.49 614.12,-90.42 603.93,-87.5 604.34,-94.49"/>
<text text-anchor="middle" x="460.66" y="-103.8" font-family="Times,serif" font-size="14.00">keywords</text>
</g>
<!-- www.wikidata.org/wiki/Q350134 -->
<g id="node8" class="node">
<title>www.wikidata.org/wiki/Q350134</title>
<ellipse fill="none" stroke="#558855" cx="674.35" cy="-33" rx="161.37" ry="18"/>
<text text-anchor="middle" x="674.35" y="-29.3" font-family="Times,serif" font-size="14.00">www.wikidata.org/wiki/Q350134</text>
</g>
<!-- example.org/permanentUrlToThisJsonDoc&#45;&gt;www.wikidata.org/wiki/Q350134 -->
<g id="edge8" class="edge">
<title>example.org/permanentUrlToThisJsonDoc&#45;&gt;www.wikidata.org/wiki/Q350134</title>
<path fill="none" stroke="black" d="M296.05,-97.89C357.38,-87.08 440.11,-72.56 513.16,-60 532.78,-56.63 553.76,-53.06 573.85,-49.67"/>
<polygon fill="black" stroke="black" points="574.67,-53.08 583.95,-47.96 573.5,-46.18 574.67,-53.08"/>
<text text-anchor="middle" x="460.66" y="-77.8" font-family="Times,serif" font-size="14.00">keywords</text>
</g>
<!-- URL -->
<g id="node9" class="node">
<title>URL</title>
<ellipse fill="none" stroke="#558855" cx="1152.97" cy="-72" rx="31.4" ry="18"/>
<text text-anchor="middle" x="1152.97" y="-68.3" font-family="Times,serif" font-size="14.00">URL</text>
</g>
<!-- www.wikidata.org/wiki/Q350134&#45;&gt;URL -->
<g id="edge9" class="edge">
<title>www.wikidata.org/wiki/Q350134&#45;&gt;URL</title>
<path fill="none" stroke="black" d="M804.96,-43.61C907.79,-52.02 1044.99,-63.25 1111.89,-68.72"/>
<polygon fill="black" stroke="black" points="1111.75,-72.22 1122.01,-69.55 1112.32,-65.24 1111.75,-72.22"/>
<text text-anchor="middle" x="918.54" y="-60.8" font-family="Times,serif" font-size="14.00">type</text>
</g>
<!-- &quot;https//www.wikidata.org/w...&quot; -->
<g id="node10" class="node">
<title>&quot;https//www.wikidata.org/w...&quot;</title>
<ellipse fill="none" stroke="black" stroke-width="0" cx="1152.97" cy="-18" rx="151.37" ry="18"/>
<text text-anchor="middle" x="1152.97" y="-14.3" font-family="Times,serif" font-size="14.00">&quot;https//www.wikidata.org/w...&quot;</text>
</g>
<!-- www.wikidata.org/wiki/Q350134&#45;&gt;&quot;https//www.wikidata.org/w...&quot; -->
<g id="edge10" class="edge">
<title>www.wikidata.org/wiki/Q350134&#45;&gt;&quot;https//www.wikidata.org/w...&quot;</title>
<path fill="none" stroke="black" d="M829.77,-28.14C883.02,-26.46 942.69,-24.59 996.07,-22.91"/>
<polygon fill="black" stroke="black" points="996.42,-26.4 1006.31,-22.58 996.2,-19.4 996.42,-26.4"/>
<text text-anchor="middle" x="918.54" y="-30.8" font-family="Times,serif" font-size="14.00">url</text>
</g>
</g>
</svg>