<?xml version="1.0" encoding="UTF-8" standalone="no"?>
<!DOCTYPE svg PUBLIC "-//W3C//DTD SVG 1.1//EN"
 "http://www.w3.org/Graphics/SVG/1.1/DTD/svg11.dtd">
<!-- Generated by graphviz version 2.43.0 (0)
 -->
<!-- Title: %3 Pages: 1 -->
<svg width="1255pt" height="260pt"
 viewBox="0.00 0.00 1255.31 260.00" xmlns="http://www.w3.org/2000/svg" xmlns:xlink="http://www.w3.org/1999/xlink">
<g id="graph0" class="graph" transform="scale(1 1) rotate(0) translate(4 256)">
<title>%3</title>
<polygon fill="white" stroke="transparent" points="-4,4 -4,-256 1251.31,-256 1251.31,4 -4,4"/>
<!-- CreativeWork -->
<g id="node1" class="node">
<title>CreativeWork</title>
<ellipse fill="none" stroke="#558855" cx="665.7" cy="-180" rx="74.19" ry="18"/>
<text text-anchor="middle" x="665.7" y="-176.3" font-family="Times,serif" font-size="14.00">CreativeWork</text>
</g>
<!-- example.org/permanentUrlToThisJsonDoc -->
<g id="node2" class="node">
<title>example.org/permanentUrlToThisJsonDoc</title>
<ellipse fill="none" stroke="black" cx="204.08" cy="-153" rx="204.16" ry="18"/>
<text text-anchor="middle" x="204.08" y="-149.3" font-family="Times,serif" font-size="14.00">example.org/permanentUrlToThisJsonDoc</text>
</g>
<!-- example.org/permanentUrlToThisJsonDoc&#45;&gt;CreativeWork -->
<g id="edge1" class="edge">
<title>example.org/permanentUrlToThisJsonDoc&#45;&gt;CreativeWork</title>
<path fill="none" stroke="black" d="M374.27,-162.94C445.62,-167.13 525.37,-171.82 583.22,-175.21"/>
<polygon fill="black" stroke="black" points="583.21,-178.72 593.4,-175.81 583.62,-171.73 583.21,-178.72"/>
<text text-anchor="middle" x="456.66" y="-171.8" font-family="Times,serif" font-size="14.00">type</text>
</g>
<!-- www.sample&#45;data&#45;repository.org -->
<g id="node3" class="node">
<title>www.sample&#45;data&#45;repository.org</title>
<ellipse fill="none" stroke="#558855" cx="665.7" cy="-126" rx="160.57" ry="18"/>
<text text-anchor="middle" x="665.7" y="-122.3" font-family="Times,serif" font-size="14.00">www.sample&#45;data&#45;repository.org</text>
</g>
<!-- example.org/permanentUrlToThisJsonDoc&#45;&gt;www.sample&#45;data&#45;repository.org -->
<g id="edge2" class="edge">
<title>example.org/permanentUrlToThisJsonDoc&#45;&gt;www.sample&#45;data&#45;repository.org</title>
<path fill="none" stroke="black" d="M374.27,-143.06C419.72,-140.39 468.58,-137.52 513.01,-134.91"/>
<polygon fill="black" stroke="black" points="513.24,-138.4 523.02,-134.32 512.83,-131.42 513.24,-138.4"/>
<text text-anchor="middle" x="456.66" y="-142.8" font-family="Times,serif" font-size="14.00">provider</text>
</g>
<!-- Organization -->
<g id="node4" class="node">
<title>Organization</title>
<ellipse fill="none" stroke="#558855" cx="1093.27" cy="-234" rx="70.69" ry="18"/>
<text text-anchor="middle" x="1093.27" y="-230.3" font-family="Times,serif" font-size="14.00">Organization</text>
</g>
<!-- www.sample&#45;data&#45;repository.org&#45;&gt;Organization -->
<g id="edge3" class="edge">
<title>www.sample&#45;data&#45;repository.org&#45;&gt;Organization</title>
<path fill="none" stroke="black" d="M790.63,-137.48C803.14,-141.39 815.25,-146.46 826.24,-153 837.39,-159.64 833.6,-168.55 844.24,-176 880.61,-201.48 896.15,-196.23 939.24,-207 965.69,-213.62 995.12,-219.22 1021.04,-223.57"/>
<polygon fill="black" stroke="black" points="1020.72,-227.07 1031.16,-225.24 1021.86,-220.16 1020.72,-227.07"/>
<text text-anchor="middle" x="882.74" y="-205.8" font-family="Times,serif" font-size="14.00">type</text>
</g>
<!-- &quot;Sample Data Repository Of...&quot; -->
<g id="node5" class="node">
<title>&quot;Sample Data Repository Of...&quot;</title>
<ellipse fill="none" stroke="black" stroke-width="0" cx="1093.27" cy="-180" rx="154.07" ry="18"/>
<text text-anchor="middle" x="1093.27" y="-176.3" font-family="Times,serif" font-size="14.00">&quot;Sample Data Repository Of...&quot;</text>
</g>
<!-- www.sample&#45;data&#45;repository.org&#45;&gt;&quot;Sample Data Repository Of...&quot; -->
<g id="edge4" class="edge">
<title>www.sample&#45;data&#45;repository.org&#45;&gt;&quot;Sample Data Repository Of...&quot;</title>
<path fill="none" stroke="black" d="M772.72,-139.45C835.23,-147.38 914.33,-157.42 978.19,-165.52"/>
<polygon fill="black" stroke="black" points="977.95,-169.02 988.31,-166.81 978.83,-162.08 977.95,-169.02"/>
<text text-anchor="middle" x="882.74" y="-160.8" font-family="Times,serif" font-size="14.00">legalName</text>
</g>
<!-- &quot;SDRO&quot; -->
<g id="node6" class="node">
<title>&quot;SDRO&quot;</title>
<ellipse fill="none" stroke="black" stroke-width="0" cx="1093.27" cy="-126" rx="47.39" ry="18"/>
<text text-anchor="middle" x="1093.27" y="-122.3" font-family="Times,serif" font-size="14.00">&quot;SDRO&quot;</text>
</g>
<!-- www.sample&#45;data&#45;repository.org&#45;&gt;&quot;SDRO&quot; -->
<g id="edge5" class="edge">
<title>www.sample&#45;data&#45;repository.org&#45;&gt;&quot;SDRO&quot;</title>
<path fill="none" stroke="black" d="M826.38,-126C899.79,-126 982.21,-126 1035.55,-126"/>
<polygon fill="black" stroke="black" points="1035.82,-129.5 1045.82,-126 1035.82,-122.5 1035.82,-129.5"/>
<text text-anchor="middle" x="882.74" y="-129.8" font-family="Times,serif" font-size="14.00">name</text>
</g>
<!-- &quot;http//www.re3data.org/rep...&quot; -->
<g id="node7" class="node">
<title>&quot;http//www.re3data.org/rep...&quot;</title>
<ellipse fill="none" stroke="black" stroke-width="0" cx="1093.27" cy="-72" rx="152.17" ry="18"/>
<text text-anchor="middle" x="1093.27" y="-68.3" font-family="Times,serif" font-size="14.00">&quot;http//www.re3data.org/rep...&quot;</text>
</g>
<!-- www.sample&#45;data&#45;repository.org&#45;&gt;&quot;http//www.re3data.org/rep...&quot; -->
<g id="edge6" class="edge">
<title>www.sample&#45;data&#45;repository.org&#45;&gt;&quot;http//www.re3data.org/rep...&quot;</title>
<path fill="none" stroke="black" d="M772.72,-112.55C835.34,-104.6 914.62,-94.54 978.55,-86.43"/>
<polygon fill="black" stroke="black" points="979.19,-89.88 988.67,-85.15 978.31,-82.93 979.19,-89.88"/>
<text text-anchor="middle" x="882.74" y="-105.8" font-family="Times,serif" font-size="14.00">sameAs</text>
</g>
<!-- &quot;https//www.sample&#45;data&#45;re...&quot; -->
<g id="node8" class="node">
<title>&quot;https//www.sample&#45;data&#45;re...&quot;</title>
<ellipse fill="none" stroke="black" stroke-width="0" cx="1093.27" cy="-18" rx="153.27" ry="18"/>
<text text-anchor="middle" x="1093.27" y="-14.3" font-family="Times,serif" font-size="14.00">&quot;https//www.sample&#45;data&#45;re...&quot;</text>
</g>
<!-- www.sample&#45;data&#45;repository.org&#45;&gt;&quot;https//www.sample&#45;data&#45;re...&quot; -->
<g id="edge7" class="edge">
<title>www.sample&#45;data&#45;repository.org&#45;&gt;&quot;https//www.sample&#45;data&#45;re...&quot;</title>
<path fill="none" stroke="black" d="M717.72,-108.93C772.12,-91.18 861.05,-63.45 939.24,-45 955.7,-41.11 973.28,-37.51 990.43,-34.29"/>
<polygon fill="black" stroke="black" points="991.28,-37.69 1000.48,-32.44 990.01,-30.81 991.28,-37.69"/>
<text text-anchor="middle" x="882.74" y="-71.8" font-family="Times,serif" font-size="14.00">url</text>
</g>
</g>
</svg>