<?xml version="1.0" encoding="UTF-8" standalone="no"?>
<!DOCTYPE svg PUBLIC "-//W3C//DTD SVG 1.1//EN"
 "http://www.w3.org/Graphics/SVG/1.1/DTD/svg11.dtd">
<!-- Generated by graphviz version 2.43.0 (0)
 -->
<!-- Title: %3 Pages: 1 -->
<svg width="1272pt" height="692pt"
 viewBox="0.00 0.00 1271.71 692.00" xmlns="http://www.w3.org/2000/svg" xmlns:xlink="http://www.w3.org/1999/xlink">
<g id="graph0" class="graph" transform="scale(1 1) rotate(0) translate(4 688)">
<title>%3</title>
<polygon fill="white" stroke="transparent" points="-4,4 -4,-688 1267.71,-688 1267.71,4 -4,4"/>
<!-- CreativeWork -->
<g id="node1" class="node">
<title>CreativeWork</title>
<ellipse fill="none" stroke="#558855" cx="1129.82" cy="-666" rx="74.19" ry="18"/>
<text text-anchor="middle" x="1129.82" y="-662.3" font-family="Times,serif" font-size="14.00">CreativeWork</text>
</g>
<!-- purl.unep.org/sdg/SDGIO_00020173 -->
<g id="node2" class="node">
<title>purl.unep.org/sdg/SDGIO_00020173</title>
<ellipse fill="none" stroke="#558855" cx="699.55" cy="-558" rx="179.27" ry="18"/>
<text text-anchor="middle" x="699.55" y="-554.3" font-family="Times,serif" font-size="14.00">purl.unep.org/sdg/SDGIO_00020173</text>
</g>
<!-- purl.unep.org/sdg/SDGIO_00020173&#45;&gt;CreativeWork -->
<g id="edge1" class="edge">
<title>purl.unep.org/sdg/SDGIO_00020173&#45;&gt;CreativeWork</title>
<path fill="none" stroke="black" d="M758.26,-575.06C817.59,-592.31 912.78,-619.18 995.93,-639 1016.89,-644 1039.85,-648.87 1060.7,-653.07"/>
<polygon fill="black" stroke="black" points="1060.25,-656.55 1070.75,-655.08 1061.62,-649.69 1060.25,-656.55"/>
<text text-anchor="middle" x="937.43" y="-636.8" font-family="Times,serif" font-size="14.00">type</text>
</g>
<!-- &quot;Number of countries ...&quot; -->
<g id="node3" class="node">
<title>&quot;Number of countries ...&quot;</title>
<ellipse fill="none" stroke="black" stroke-width="0" cx="1129.82" cy="-612" rx="127.28" ry="18"/>
<text text-anchor="middle" x="1129.82" y="-608.3" font-family="Times,serif" font-size="14.00">&quot;Number of countries ...&quot;</text>
</g>
<!-- purl.unep.org/sdg/SDGIO_00020173&#45;&gt;&quot;Number of countries ...&quot; -->
<g id="edge2" class="edge">
<title>purl.unep.org/sdg/SDGIO_00020173&#45;&gt;&quot;Number of countries ...&quot;</title>
<path fill="none" stroke="black" d="M811.95,-572.05C877.47,-580.31 959.81,-590.69 1024.13,-598.8"/>
<polygon fill="black" stroke="black" points="1023.93,-602.3 1034.29,-600.08 1024.8,-595.36 1023.93,-602.3"/>
<text text-anchor="middle" x="937.43" y="-594.8" font-family="Times,serif" font-size="14.00">description</text>
</g>
<!-- &quot;UNSD SDG indicator c...&quot; -->
<g id="node4" class="node">
<title>&quot;UNSD SDG indicator c...&quot;</title>
<ellipse fill="none" stroke="black" stroke-width="0" cx="1129.82" cy="-558" rx="133.78" ry="18"/>
<text text-anchor="middle" x="1129.82" y="-554.3" font-family="Times,serif" font-size="14.00">&quot;UNSD SDG indicator c...&quot;</text>
</g>
<!-- purl.unep.org/sdg/SDGIO_00020173&#45;&gt;&quot;UNSD SDG indicator c...&quot; -->
<g id="edge3" class="edge">
<title>purl.unep.org/sdg/SDGIO_00020173&#45;&gt;&quot;UNSD SDG indicator c...&quot;</title>
<path fill="none" stroke="black" d="M879.07,-558C914.59,-558 951.44,-558 985.59,-558"/>
<polygon fill="black" stroke="black" points="985.62,-561.5 995.62,-558 985.62,-554.5 985.62,-561.5"/>
<text text-anchor="middle" x="937.43" y="-561.8" font-family="Times,serif" font-size="14.00">name</text>
</g>
<!-- &quot;http//www.ontobee.or...&quot; -->
<g id="node5" class="node">
<title>&quot;http//www.ontobee.or...&quot;</title>
<ellipse fill="none" stroke="black" stroke-width="0" cx="1129.82" cy="-504" rx="128.08" ry="18"/>
<text text-anchor="middle" x="1129.82" y="-500.3" font-family="Times,serif" font-size="14.00">&quot;http//www.ontobee.or...&quot;</text>
</g>
<!-- purl.unep.org/sdg/SDGIO_00020173&#45;&gt;&quot;http//www.ontobee.or...&quot; -->
<g id="edge4" class="edge">
<title>purl.unep.org/sdg/SDGIO_00020173&#45;&gt;&quot;http//www.ontobee.or...&quot;</title>
<path fill="none" stroke="black" d="M811.95,-543.95C877.35,-535.71 959.51,-525.35 1023.78,-517.24"/>
<polygon fill="black" stroke="black" points="1024.45,-520.69 1033.93,-515.96 1023.58,-513.74 1024.45,-520.69"/>
<text text-anchor="middle" x="937.43" y="-535.8" font-family="Times,serif" font-size="14.00">url</text>
</g>
<!-- PropertyValue -->
<g id="node6" class="node">
<title>PropertyValue</title>
<ellipse fill="none" stroke="#558855" cx="1129.82" cy="-288" rx="77.19" ry="18"/>
<text text-anchor="middle" x="1129.82" y="-284.3" font-family="Times,serif" font-size="14.00">PropertyValue</text>
</g>
<!-- doi.org/10.5066/F7VX0DMQ -->
<g id="node7" class="node">
<title>doi.org/10.5066/F7VX0DMQ</title>
<ellipse fill="none" stroke="#558855" cx="699.55" cy="-366" rx="141.88" ry="18"/>
<text text-anchor="middle" x="699.55" y="-362.3" font-family="Times,serif" font-size="14.00">doi.org/10.5066/F7VX0DMQ</text>
</g>
<!-- doi.org/10.5066/F7VX0DMQ&#45;&gt;PropertyValue -->
<g id="edge5" class="edge">
<title>doi.org/10.5066/F7VX0DMQ&#45;&gt;PropertyValue</title>
<path fill="none" stroke="black" d="M822.79,-357.09C842.13,-352.98 861.49,-347.18 878.93,-339 888.62,-334.46 887.24,-327.54 896.93,-323 942.09,-301.84 997.12,-292.91 1042.24,-289.36"/>
<polygon fill="black" stroke="black" points="1042.57,-292.85 1052.3,-288.65 1042.07,-285.87 1042.57,-292.85"/>
<text text-anchor="middle" x="937.43" y="-326.8" font-family="Times,serif" font-size="14.00">type</text>
</g>
<!-- &quot;https//registry.iden...&quot; -->
<g id="node8" class="node">
<title>&quot;https//registry.iden...&quot;</title>
<ellipse fill="none" stroke="black" stroke-width="0" cx="1129.82" cy="-396" rx="116.98" ry="18"/>
<text text-anchor="middle" x="1129.82" y="-392.3" font-family="Times,serif" font-size="14.00">&quot;https//registry.iden...&quot;</text>
</g>
<!-- doi.org/10.5066/F7VX0DMQ&#45;&gt;&quot;https//registry.iden...&quot; -->
<g id="edge6" class="edge">
<title>doi.org/10.5066/F7VX0DMQ&#45;&gt;&quot;https//registry.iden...&quot;</title>
<path fill="none" stroke="black" d="M829.37,-373.23C876.17,-376.03 929.45,-379.43 977.93,-383 990.89,-383.95 1004.46,-385.03 1017.93,-386.13"/>
<polygon fill="black" stroke="black" points="1017.95,-389.64 1028.21,-386.98 1018.53,-382.67 1017.95,-389.64"/>
<text text-anchor="middle" x="937.43" y="-386.8" font-family="Times,serif" font-size="14.00">propertyID</text>
</g>
<!-- &quot;https//doi.org/10.50...&quot; -->
<g id="node9" class="node">
<title>&quot;https//doi.org/10.50...&quot;</title>
<ellipse fill="none" stroke="black" stroke-width="0" cx="1129.82" cy="-450" rx="120.48" ry="18"/>
<text text-anchor="middle" x="1129.82" y="-446.3" font-family="Times,serif" font-size="14.00">&quot;https//doi.org/10.50...&quot;</text>
</g>
<!-- doi.org/10.5066/F7VX0DMQ&#45;&gt;&quot;https//doi.org/10.50...&quot; -->
<g id="edge7" class="edge">
<title>doi.org/10.5066/F7VX0DMQ&#45;&gt;&quot;https//doi.org/10.50...&quot;</title>
<path fill="none" stroke="black" d="M777.61,-381.11C853.21,-395.94 968.12,-418.48 1045.73,-433.7"/>
<polygon fill="black" stroke="black" points="1045.46,-437.22 1055.95,-435.71 1046.81,-430.35 1045.46,-437.22"/>
<text text-anchor="middle" x="937.43" y="-420.8" font-family="Times,serif" font-size="14.00">url</text>
</g>
<!-- &quot;doi10.5066/F7VX0DMQ&quot; -->
<g id="node10" class="node">
<title>&quot;doi10.5066/F7VX0DMQ&quot;</title>
<ellipse fill="none" stroke="black" stroke-width="0" cx="1129.82" cy="-342" rx="129.18" ry="18"/>
<text text-anchor="middle" x="1129.82" y="-338.3" font-family="Times,serif" font-size="14.00">&quot;doi10.5066/F7VX0DMQ&quot;</text>
</g>
<!-- doi.org/10.5066/F7VX0DMQ&#45;&gt;&quot;doi10.5066/F7VX0DMQ&quot; -->
<g id="edge8" class="edge">
<title>doi.org/10.5066/F7VX0DMQ&#45;&gt;&quot;doi10.5066/F7VX0DMQ&quot;</title>
<path fill="none" stroke="black" d="M801.06,-353.42C831.78,-350.07 865.7,-346.87 896.93,-345 926.99,-343.2 959.28,-342.2 989.93,-341.68"/>
<polygon fill="black" stroke="black" points="990.31,-345.17 1000.26,-341.52 990.2,-338.17 990.31,-345.17"/>
<text text-anchor="middle" x="937.43" y="-348.8" font-family="Times,serif" font-size="14.00">value</text>
</g>
<!-- example.org/permanentUrlToThisJsonDoc -->
<g id="node11" class="node">
<title>example.org/permanentUrlToThisJsonDoc</title>
<ellipse fill="none" stroke="black" cx="204.08" cy="-331" rx="204.16" ry="18"/>
<text text-anchor="middle" x="204.08" y="-327.3" font-family="Times,serif" font-size="14.00">example.org/permanentUrlToThisJsonDoc</text>
</g>
<!-- example.org/permanentUrlToThisJsonDoc&#45;&gt;CreativeWork -->
<g id="edge9" class="edge">
<title>example.org/permanentUrlToThisJsonDoc&#45;&gt;CreativeWork</title>
<path fill="none" stroke="black" d="M220.97,-349.26C263.8,-397.12 387.38,-526.53 520.16,-585 695.78,-662.33 925.35,-670.96 1046.18,-669.27"/>
<polygon fill="black" stroke="black" points="1046.52,-672.76 1056.46,-669.1 1046.41,-665.76 1046.52,-672.76"/>
<text text-anchor="middle" x="699.55" y="-667.8" font-family="Times,serif" font-size="14.00">type</text>
</g>
<!-- example.org/permanentUrlToThisJsonDoc&#45;&gt;purl.unep.org/sdg/SDGIO_00020173 -->
<g id="edge15" class="edge">
<title>example.org/permanentUrlToThisJsonDoc&#45;&gt;purl.unep.org/sdg/SDGIO_00020173</title>
<path fill="none" stroke="black" d="M230.97,-349.04C271.28,-376.54 352.1,-429.41 426.16,-464 492.55,-495 572.12,-521.3 628.07,-538.13"/>
<polygon fill="black" stroke="black" points="627.3,-541.55 637.89,-541.05 629.3,-534.84 627.3,-541.55"/>
<text text-anchor="middle" x="464.16" y="-497.8" font-family="Times,serif" font-size="14.00">subjectOf</text>
</g>
<!-- example.org/permanentUrlToThisJsonDoc&#45;&gt;doi.org/10.5066/F7VX0DMQ -->
<g id="edge10" class="edge">
<title>example.org/permanentUrlToThisJsonDoc&#45;&gt;doi.org/10.5066/F7VX0DMQ</title>
<path fill="none" stroke="black" d="M363.59,-342.24C428.6,-346.85 503.02,-352.13 565.17,-356.54"/>
<polygon fill="black" stroke="black" points="565.21,-360.05 575.43,-357.27 565.7,-353.07 565.21,-360.05"/>
<text text-anchor="middle" x="464.16" y="-354.8" font-family="Times,serif" font-size="14.00">identifier</text>
</g>
<!-- example.org/permanentUrlToThisJsonDoc&#45;&gt;&quot;https//doi.org/10.50...&quot; -->
<g id="edge14" class="edge">
<title>example.org/permanentUrlToThisJsonDoc&#45;&gt;&quot;https//doi.org/10.50...&quot;</title>
<path fill="none" stroke="black" d="M280.86,-347.69C344.49,-361.28 437.94,-380.24 520.16,-393 686.71,-418.85 729.03,-421.36 896.93,-436 932.04,-439.06 970.19,-441.66 1005.23,-443.76"/>
<polygon fill="black" stroke="black" points="1005.32,-447.27 1015.5,-444.37 1005.73,-440.29 1005.32,-447.27"/>
<text text-anchor="middle" x="699.55" y="-437.8" font-family="Times,serif" font-size="14.00">sameAs</text>
</g>
<!-- &quot;https//example.org/i...&quot; -->
<g id="node12" class="node">
<title>&quot;https//example.org/i...&quot;</title>
<ellipse fill="none" stroke="black" stroke-width="0" cx="699.55" cy="-312" rx="122.38" ry="18"/>
<text text-anchor="middle" x="699.55" y="-308.3" font-family="Times,serif" font-size="14.00">&quot;https//example.org/i...&quot;</text>
</g>
<!-- example.org/permanentUrlToThisJsonDoc&#45;&gt;&quot;https//example.org/i...&quot; -->
<g id="edge11" class="edge">
<title>example.org/permanentUrlToThisJsonDoc&#45;&gt;&quot;https//example.org/i...&quot;</title>
<path fill="none" stroke="black" d="M385.15,-322.67C399.03,-322.09 412.82,-321.52 426.16,-321 472.87,-319.17 524.08,-317.42 569.37,-315.95"/>
<polygon fill="black" stroke="black" points="569.66,-319.44 579.54,-315.62 569.44,-312.44 569.66,-319.44"/>
<text text-anchor="middle" x="464.16" y="-324.8" font-family="Times,serif" font-size="14.00">isBasedOn</text>
</g>
<!-- www.sample&#45;data&#45;repository.org -->
<g id="node13" class="node">
<title>www.sample&#45;data&#45;repository.org</title>
<ellipse fill="none" stroke="#558855" cx="699.55" cy="-207" rx="160.57" ry="18"/>
<text text-anchor="middle" x="699.55" y="-203.3" font-family="Times,serif" font-size="14.00">www.sample&#45;data&#45;repository.org</text>
</g>
<!-- example.org/permanentUrlToThisJsonDoc&#45;&gt;www.sample&#45;data&#45;repository.org -->
<g id="edge12" class="edge">
<title>example.org/permanentUrlToThisJsonDoc&#45;&gt;www.sample&#45;data&#45;repository.org</title>
<path fill="none" stroke="black" d="M272.66,-314.02C364.31,-290.99 527.52,-249.98 623.08,-225.96"/>
<polygon fill="black" stroke="black" points="624.12,-229.31 632.96,-223.48 622.41,-222.52 624.12,-229.31"/>
<text text-anchor="middle" x="464.16" y="-275.8" font-family="Times,serif" font-size="14.00">provider</text>
</g>
<!-- example.org/permanentUrlToThisJsonDoc&#45;&gt;www.sample&#45;data&#45;repository.org -->
<g id="edge13" class="edge">
<title>example.org/permanentUrlToThisJsonDoc&#45;&gt;www.sample&#45;data&#45;repository.org</title>
<path fill="none" stroke="black" d="M238.86,-313.2C281.33,-291.66 357.07,-256.07 426.16,-238 464.79,-227.9 507.35,-221.09 547.12,-216.5"/>
<polygon fill="black" stroke="black" points="547.62,-219.97 557.17,-215.38 546.84,-213.01 547.62,-219.97"/>
<text text-anchor="middle" x="464.16" y="-241.8" font-family="Times,serif" font-size="14.00">publisher</text>
</g>
<!-- &quot;https//example.org/u...&quot; -->
<g id="node14" class="node">
<title>&quot;https//example.org/u...&quot;</title>
<ellipse fill="none" stroke="black" stroke-width="0" cx="699.55" cy="-153" rx="124.58" ry="18"/>
<text text-anchor="middle" x="699.55" y="-149.3" font-family="Times,serif" font-size="14.00">&quot;https//example.org/u...&quot;</text>
</g>
<!-- example.org/permanentUrlToThisJsonDoc&#45;&gt;&quot;https//example.org/u...&quot; -->
<g id="edge16" class="edge">
<title>example.org/permanentUrlToThisJsonDoc&#45;&gt;&quot;https//example.org/u...&quot;</title>
<path fill="none" stroke="black" d="M230.39,-313.1C270.25,-285.68 350.86,-233.28 426.16,-203 466.07,-186.95 477.97,-188.34 520.16,-180 545.12,-175.07 572.2,-170.55 597.54,-166.68"/>
<polygon fill="black" stroke="black" points="598.16,-170.12 607.53,-165.17 597.12,-163.2 598.16,-170.12"/>
<text text-anchor="middle" x="464.16" y="-206.8" font-family="Times,serif" font-size="14.00">url</text>
</g>
<!-- Organization -->
<g id="node15" class="node">
<title>Organization</title>
<ellipse fill="none" stroke="#558855" cx="1129.82" cy="-234" rx="70.69" ry="18"/>
<text text-anchor="middle" x="1129.82" y="-230.3" font-family="Times,serif" font-size="14.00">Organization</text>
</g>
<!-- www.sample&#45;data&#45;repository.org&#45;&gt;Organization -->
<g id="edge17" class="edge">
<title>www.sample&#45;data&#45;repository.org&#45;&gt;Organization</title>
<path fill="none" stroke="black" d="M839.89,-215.78C909.8,-220.19 991.87,-225.37 1050.64,-229.07"/>
<polygon fill="black" stroke="black" points="1050.77,-232.59 1060.97,-229.72 1051.21,-225.6 1050.77,-232.59"/>
<text text-anchor="middle" x="937.43" y="-226.8" font-family="Times,serif" font-size="14.00">type</text>
</g>
<!-- &quot;Sample Data Reposito...&quot; -->
<g id="node16" class="node">
<title>&quot;Sample Data Reposito...&quot;</title>
<ellipse fill="none" stroke="black" stroke-width="0" cx="1129.82" cy="-180" rx="131.08" ry="18"/>
<text text-anchor="middle" x="1129.82" y="-176.3" font-family="Times,serif" font-size="14.00">&quot;Sample Data Reposito...&quot;</text>
</g>
<!-- www.sample&#45;data&#45;repository.org&#45;&gt;&quot;Sample Data Reposito...&quot; -->
<g id="edge18" class="edge">
<title>www.sample&#45;data&#45;repository.org&#45;&gt;&quot;Sample Data Reposito...&quot;</title>
<path fill="none" stroke="black" d="M839.89,-198.22C891.4,-194.97 949.5,-191.3 1000.03,-188.12"/>
<polygon fill="black" stroke="black" points="1000.27,-191.61 1010.03,-187.49 999.83,-184.63 1000.27,-191.61"/>
<text text-anchor="middle" x="937.43" y="-197.8" font-family="Times,serif" font-size="14.00">legalName</text>
</g>
<!-- &quot;SDRO&quot; -->
<g id="node17" class="node">
<title>&quot;SDRO&quot;</title>
<ellipse fill="none" stroke="black" stroke-width="0" cx="1129.82" cy="-126" rx="47.39" ry="18"/>
<text text-anchor="middle" x="1129.82" y="-122.3" font-family="Times,serif" font-size="14.00">&quot;SDRO&quot;</text>
</g>
<!-- www.sample&#45;data&#45;repository.org&#45;&gt;&quot;SDRO&quot; -->
<g id="edge19" class="edge">
<title>www.sample&#45;data&#45;repository.org&#45;&gt;&quot;SDRO&quot;</title>
<path fill="none" stroke="black" d="M817.39,-194.7C838.15,-190.99 859.37,-186.2 878.93,-180 887.46,-177.3 888.46,-173.88 896.93,-171 955.71,-151.02 1026.07,-138.93 1073.75,-132.39"/>
<polygon fill="black" stroke="black" points="1074.42,-135.83 1083.87,-131.04 1073.49,-128.9 1074.42,-135.83"/>
<text text-anchor="middle" x="937.43" y="-174.8" font-family="Times,serif" font-size="14.00">name</text>
</g>
<!-- &quot;http//www.re3data.or...&quot; -->
<g id="node18" class="node">
<title>&quot;http//www.re3data.or...&quot;</title>
<ellipse fill="none" stroke="black" stroke-width="0" cx="1129.82" cy="-72" rx="126.98" ry="18"/>
<text text-anchor="middle" x="1129.82" y="-68.3" font-family="Times,serif" font-size="14.00">&quot;http//www.re3data.or...&quot;</text>
</g>
<!-- www.sample&#45;data&#45;repository.org&#45;&gt;&quot;http//www.re3data.or...&quot; -->
<g id="edge20" class="edge">
<title>www.sample&#45;data&#45;repository.org&#45;&gt;&quot;http//www.re3data.or...&quot;</title>
<path fill="none" stroke="black" d="M845.12,-199.14C857.32,-194.43 868.83,-188.18 878.93,-180 896.63,-165.65 880.53,-147.81 896.93,-132 930.33,-99.82 951.12,-110.97 995.93,-99 1010.48,-95.11 1026.06,-91.48 1041.25,-88.22"/>
<polygon fill="black" stroke="black" points="1042.09,-91.62 1051.15,-86.13 1040.65,-84.77 1042.09,-91.62"/>
<text text-anchor="middle" x="937.43" y="-135.8" font-family="Times,serif" font-size="14.00">sameAs</text>
</g>
<!-- &quot;https//www.sample&#45;da...&quot; -->
<g id="node19" class="node">
<title>&quot;https//www.sample&#45;da...&quot;</title>
<ellipse fill="none" stroke="black" stroke-width="0" cx="1129.82" cy="-18" rx="131.08" ry="18"/>
<text text-anchor="middle" x="1129.82" y="-14.3" font-family="Times,serif" font-size="14.00">&quot;https//www.sample&#45;da...&quot;</text>
</g>
<!-- www.sample&#45;data&#45;repository.org&#45;&gt;&quot;https//www.sample&#45;da...&quot; -->
<g id="edge21" class="edge">
<title>www.sample&#45;data&#45;repository.org&#45;&gt;&quot;https//www.sample&#45;da...&quot;</title>
<path fill="none" stroke="black" d="M848.39,-200.15C859.62,-195.16 870.02,-188.59 878.93,-180 909.88,-150.18 869.68,-118.22 896.93,-85 922.35,-54.01 961.15,-36.83 999.77,-27.46"/>
<polygon fill="black" stroke="black" points="1000.6,-30.86 1009.58,-25.24 999.06,-24.03 1000.6,-30.86"/>
<text text-anchor="middle" x="937.43" y="-88.8" font-family="Times,serif" font-size="14.00">url</text>
</g>
</g>
</svg>