<?xml version="1.0" encoding="UTF-8" standalone="no"?>
<!DOCTYPE svg PUBLIC "-//W3C//DTD SVG 1.1//EN"
 "http://www.w3.org/Graphics/SVG/1.1/DTD/svg11.dtd">
<!-- Generated by graphviz version 2.43.0 (0)
 -->
<!-- Title: %3 Pages: 1 -->
<svg width="1262pt" height="260pt"
 viewBox="0.00 0.00 1262.31 260.00" xmlns="http://www.w3.org/2000/svg" xmlns:xlink="http://www.w3.org/1999/xlink">
<g id="graph0" class="graph" transform="scale(1 1) rotate(0) translate(4 256)">
<title>%3</title>
<polygon fill="white" stroke="transparent" points="-4,4 -4,-256 1258.31,-256 1258.31,4 -4,4"/>
<!-- CreativeWork -->
<g id="node1" class="node">
<title>CreativeWork</title>
<ellipse fill="none" stroke="#558855" cx="672.7" cy="-180" rx="74.19" ry="18"/>
<text text-anchor="middle" x="672.7" y="-176.3" font-family="Times,serif" font-size="14.00">CreativeWork</text>
</g>
<!-- example.org/permanentUrlToThisJsonDoc -->
<g id="node2" class="node">
<title>example.org/permanentUrlToThisJsonDoc</title>
<ellipse fill="none" stroke="black" cx="204.08" cy="-153" rx="204.16" ry="18"/>
<text text-anchor="middle" x="204.08" y="-149.3" font-family="Times,serif" font-size="14.00">example.org/permanentUrlToThisJsonDoc</text>
</g>
<!-- example.org/permanentUrlToThisJsonDoc&#45;&gt;CreativeWork -->
<g id="edge1" class="edge">
<title>example.org/permanentUrlToThisJsonDoc&#45;&gt;CreativeWork</title>
<path fill="none" stroke="black" d="M375.19,-162.84C448.56,-167.09 530.96,-171.86 590.23,-175.29"/>
<polygon fill="black" stroke="black" points="590.1,-178.78 600.28,-175.87 590.5,-171.8 590.1,-178.78"/>
<text text-anchor="middle" x="460.16" y="-172.8" font-family="Times,serif" font-size="14.00">type</text>
</g>
<!-- www.sample&#45;data&#45;repository.org -->
<g id="node3" class="node">
<title>www.sample&#45;data&#45;repository.org</title>
<ellipse fill="none" stroke="#558855" cx="672.7" cy="-126" rx="160.57" ry="18"/>
<text text-anchor="middle" x="672.7" y="-122.3" font-family="Times,serif" font-size="14.00">www.sample&#45;data&#45;repository.org</text>
</g>
<!-- example.org/permanentUrlToThisJsonDoc&#45;&gt;www.sample&#45;data&#45;repository.org -->
<g id="edge2" class="edge">
<title>example.org/permanentUrlToThisJsonDoc&#45;&gt;www.sample&#45;data&#45;repository.org</title>
<path fill="none" stroke="black" d="M375.19,-143.16C422.39,-140.43 473.32,-137.48 519.42,-134.81"/>
<polygon fill="black" stroke="black" points="519.71,-138.3 529.49,-134.23 519.31,-131.31 519.71,-138.3"/>
<text text-anchor="middle" x="460.16" y="-142.8" font-family="Times,serif" font-size="14.00">publisher</text>
</g>
<!-- Organization -->
<g id="node4" class="node">
<title>Organization</title>
<ellipse fill="none" stroke="#558855" cx="1100.27" cy="-234" rx="70.69" ry="18"/>
<text text-anchor="middle" x="1100.27" y="-230.3" font-family="Times,serif" font-size="14.00">Organization</text>
</g>
<!-- www.sample&#45;data&#45;repository.org&#45;&gt;Organization -->
<g id="edge3" class="edge">
<title>www.sample&#45;data&#45;repository.org&#45;&gt;Organization</title>
<path fill="none" stroke="black" d="M797.63,-137.48C810.14,-141.39 822.25,-146.46 833.24,-153 844.39,-159.64 840.6,-168.55 851.24,-176 887.61,-201.48 903.15,-196.23 946.24,-207 972.69,-213.62 1002.12,-219.22 1028.04,-223.57"/>
<polygon fill="black" stroke="black" points="1027.72,-227.07 1038.16,-225.24 1028.86,-220.16 1027.72,-227.07"/>
<text text-anchor="middle" x="889.74" y="-205.8" font-family="Times,serif" font-size="14.00">type</text>
</g>
<!-- &quot;Sample Data Repository Of...&quot; -->
<g id="node5" class="node">
<title>&quot;Sample Data Repository Of...&quot;</title>
<ellipse fill="none" stroke="black" stroke-width="0" cx="1100.27" cy="-180" rx="154.07" ry="18"/>
<text text-anchor="middle" x="1100.27" y="-176.3" font-family="Times,serif" font-size="14.00">&quot;Sample Data Repository Of...&quot;</text>
</g>
<!-- www.sample&#45;data&#45;repository.org&#45;&gt;&quot;Sample Data Repository Of...&quot; -->
<g id="edge4" class="edge">
<title>www.sample&#45;data&#45;repository.org&#45;&gt;&quot;Sample Data Repository Of...&quot;</title>
<path fill="none" stroke="black" d="M779.72,-139.45C842.23,-147.38 921.33,-157.42 985.19,-165.52"/>
<polygon fill="black" stroke="black" points="984.95,-169.02 995.31,-166.81 985.83,-162.08 984.95,-169.02"/>
<text text-anchor="middle" x="889.74" y="-160.8" font-family="Times,serif" font-size="14.00">legalName</text>
</g>
<!-- &quot;SDRO&quot; -->
<g id="node6" class="node">
<title>&quot;SDRO&quot;</title>
<ellipse fill="none" stroke="black" stroke-width="0" cx="1100.27" cy="-126" rx="47.39" ry="18"/>
<text text-anchor="middle" x="1100.27" y="-122.3" font-family="Times,serif" font-size="14.00">&quot;SDRO&quot;</text>
</g>
<!-- www.sample&#45;data&#45;repository.org&#45;&gt;&quot;SDRO&quot; -->
<g id="edge5" class="edge">
<title>www.sample&#45;data&#45;repository.org&#45;&gt;&quot;SDRO&quot;</title>
<path fill="none" stroke="black" d="M833.38,-126C906.79,-126 989.21,-126 1042.55,-126"/>
<polygon fill="black" stroke="black" points="1042.82,-129.5 1052.82,-126 1042.82,-122.5 1042.82,-129.5"/>
<text text-anchor="middle" x="889.74" y="-129.8" font-family="Times,serif" font-size="14.00">name</text>
</g>
<!-- &quot;http//www.re3data.org/rep...&quot; -->
<g id="node7" class="node">
<title>&quot;http//www.re3data.org/rep...&quot;</title>
<ellipse fill="none" stroke="black" stroke-width="0" cx="1100.27" cy="-72" rx="152.17" ry="18"/>
<text text-anchor="middle" x="1100.27" y="-68.3" font-family="Times,serif" font-size="14.00">&quot;http//www.re3data.org/rep...&quot;</text>
</g>
<!-- www.sample&#45;data&#45;repository.org&#45;&gt;&quot;http//www.re3data.org/rep...&quot; -->
<g id="edge6" class="edge">
<title>www.sample&#45;data&#45;repository.org&#45;&gt;&quot;http//www.re3data.org/rep...&quot;</title>
<path fill="none" stroke="black" d="M779.72,-112.55C842.34,-104.6 921.62,-94.54 985.55,-86.43"/>
<polygon fill="black" stroke="black" points="986.19,-89.88 995.67,-85.15 985.31,-82.93 986.19,-89.88"/>
<text text-anchor="middle" x="889.74" y="-105.8" font-family="Times,serif" font-size="14.00">sameAs</text>
</g>
<!-- &quot;https//www.sample&#45;data&#45;re...&quot; -->
<g id="node8" class="node">
<title>&quot;https//www.sample&#45;data&#45;re...&quot;</title>
<ellipse fill="none" stroke="black" stroke-width="0" cx="1100.27" cy="-18" rx="153.27" ry="18"/>
<text text-anchor="middle" x="1100.27" y="-14.3" font-family="Times,serif" font-size="14.00">&quot;https//www.sample&#45;data&#45;re...&quot;</text>
</g>
<!-- www.sample&#45;data&#45;repository.org&#45;&gt;&quot;https//www.sample&#45;data&#45;re...&quot; -->
<g id="edge7" class="edge">
<title>www.sample&#45;data&#45;repository.org&#45;&gt;&quot;https//www.sample&#45;data&#45;re...&quot;</title>
<path fill="none" stroke="black" d="M724.72,-108.93C779.12,-91.18 868.05,-63.45 946.24,-45 962.7,-41.11 980.28,-37.51 997.43,-34.29"/>
<polygon fill="black" stroke="black" points="998.28,-37.69 1007.48,-32.44 997.01,-30.81 998.28,-37.69"/>
<text text-anchor="middle" x="889.74" y="-71.8" font-family="Times,serif" font-size="14.00">url</text>
</g>
</g>
</svg>