<?xml version="1.0" encoding="UTF-8" standalone="no"?>
<!DOCTYPE svg PUBLIC "-//W3C//DTD SVG 1.1//EN"
 "http://www.w3.org/Graphics/SVG/1.1/DTD/svg11.dtd">
<!-- Generated by graphviz version 2.43.0 (0)
 -->
<!-- Title: %3 Pages: 1 -->
<svg width="1109pt" height="325pt"
 viewBox="0.00 0.00 1108.53 325.00" xmlns="http://www.w3.org/2000/svg" xmlns:xlink="http://www.w3.org/1999/xlink">
<g id="graph0" class="graph" transform="scale(1 1) rotate(0) translate(4 321)">
<title>%3</title>
<polygon fill="white" stroke="transparent" points="-4,4 -4,-321 1104.53,-321 1104.53,4 -4,4"/>
<!-- Person -->
<g id="node1" class="node">
<title>Person</title>
<ellipse fill="none" stroke="#558855" cx="563.41" cy="-227" rx="42.49" ry="18"/>
<text text-anchor="middle" x="563.41" y="-223.3" font-family="Times,serif" font-size="14.00">Person</text>
</g>
<!-- example.org/permanentUrlToThisJsonDoc -->
<g id="node2" class="node">
<title>example.org/permanentUrlToThisJsonDoc</title>
<ellipse fill="none" stroke="black" cx="204.08" cy="-189" rx="204.16" ry="18"/>
<text text-anchor="middle" x="204.08" y="-185.3" font-family="Times,serif" font-size="14.00">example.org/permanentUrlToThisJsonDoc</text>
</g>
<!-- example.org/permanentUrlToThisJsonDoc&#45;&gt;Person -->
<g id="edge1" class="edge">
<title>example.org/permanentUrlToThisJsonDoc&#45;&gt;Person</title>
<path fill="none" stroke="black" d="M335.1,-202.83C396.5,-209.36 466.21,-216.77 512.06,-221.65"/>
<polygon fill="black" stroke="black" points="511.72,-225.13 522.03,-222.71 512.46,-218.17 511.72,-225.13"/>
<text text-anchor="middle" x="464.66" y="-223.8" font-family="Times,serif" font-size="14.00">type</text>
</g>
<!-- _ -->
<g id="node3" class="node">
<title>_</title>
<ellipse fill="none" stroke="#558855" cx="563.41" cy="-162" rx="27" ry="18"/>
<text text-anchor="middle" x="563.41" y="-158.3" font-family="Times,serif" font-size="14.00">_</text>
</g>
<!-- example.org/permanentUrlToThisJsonDoc&#45;&gt;_ -->
<g id="edge2" class="edge">
<title>example.org/permanentUrlToThisJsonDoc&#45;&gt;_</title>
<path fill="none" stroke="black" d="M362.9,-177.66C408.19,-174.33 457.64,-170.6 503.16,-167 510.66,-166.41 518.69,-165.75 526.35,-165.1"/>
<polygon fill="black" stroke="black" points="526.79,-168.58 536.46,-164.25 526.2,-161.6 526.79,-168.58"/>
<text text-anchor="middle" x="464.66" y="-175.8" font-family="Times,serif" font-size="14.00">nationality</text>
</g>
<!-- example.org/permanentUrlToThisJsonDoc&#45;&gt;_ -->
<g id="edge3" class="edge">
<title>example.org/permanentUrlToThisJsonDoc&#45;&gt;_</title>
<path fill="none" stroke="black" d="M264.94,-171.8C325.06,-156.64 420.41,-138.35 503.16,-148 511.52,-148.97 520.41,-150.7 528.7,-152.61"/>
<polygon fill="black" stroke="black" points="527.88,-156.01 538.42,-155 529.54,-149.21 527.88,-156.01"/>
<text text-anchor="middle" x="464.66" y="-151.8" font-family="Times,serif" font-size="14.00">nationality</text>
</g>
<!-- DefinedTerm -->
<g id="node4" class="node">
<title>DefinedTerm</title>
<ellipse fill="none" stroke="#558855" cx="936.09" cy="-292" rx="70.39" ry="18"/>
<text text-anchor="middle" x="936.09" y="-288.3" font-family="Times,serif" font-size="14.00">DefinedTerm</text>
</g>
<!-- _&#45;&gt;DefinedTerm -->
<g id="edge4" class="edge">
<title>_&#45;&gt;DefinedTerm</title>
<path fill="none" stroke="black" d="M582.42,-175.15C590.48,-181.82 599.52,-190.52 605.66,-200 619.39,-221.24 604.07,-237.99 623.66,-254 691.75,-309.66 797.84,-310.22 866.9,-303.05"/>
<polygon fill="black" stroke="black" points="867.69,-306.49 877.24,-301.89 866.91,-299.53 867.69,-306.49"/>
<text text-anchor="middle" x="688.66" y="-305.8" font-family="Times,serif" font-size="14.00">type</text>
</g>
<!-- &quot;UN/LOCODE Code List by Co...&quot; -->
<g id="node5" class="node">
<title>&quot;UN/LOCODE Code List by Co...&quot;</title>
<ellipse fill="none" stroke="black" stroke-width="0" cx="936.09" cy="-238" rx="164.37" ry="18"/>
<text text-anchor="middle" x="936.09" y="-234.3" font-family="Times,serif" font-size="14.00">&quot;UN/LOCODE Code List by Co...&quot;</text>
</g>
<!-- _&#45;&gt;&quot;UN/LOCODE Code List by Co...&quot; -->
<g id="edge5" class="edge">
<title>_&#45;&gt;&quot;UN/LOCODE Code List by Co...&quot;</title>
<path fill="none" stroke="black" d="M579.58,-176.91C590.79,-186.95 606.94,-199.5 623.66,-206 666.73,-222.73 715.54,-231.88 761.52,-236.64"/>
<polygon fill="black" stroke="black" points="761.3,-240.13 771.6,-237.62 761.98,-233.17 761.3,-240.13"/>
<text text-anchor="middle" x="688.66" y="-238.8" font-family="Times,serif" font-size="14.00">inDefinedTermSet</text>
</g>
<!-- &quot;Fiji&quot; -->
<g id="node6" class="node">
<title>&quot;Fiji&quot;</title>
<ellipse fill="none" stroke="black" stroke-width="0" cx="936.09" cy="-183" rx="34.39" ry="18"/>
<text text-anchor="middle" x="936.09" y="-179.3" font-family="Times,serif" font-size="14.00">&quot;Fiji&quot;</text>
</g>
<!-- _&#45;&gt;&quot;Fiji&quot; -->
<g id="edge6" class="edge">
<title>_&#45;&gt;&quot;Fiji&quot;</title>
<path fill="none" stroke="black" d="M588.06,-169.83C598.79,-173.01 611.73,-176.32 623.66,-178 718.37,-191.34 830.88,-188.63 891.38,-185.68"/>
<polygon fill="black" stroke="black" points="891.89,-189.16 901.7,-185.15 891.53,-182.17 891.89,-189.16"/>
<text text-anchor="middle" x="688.66" y="-190.8" font-family="Times,serif" font-size="14.00">name</text>
</g>
<!-- _&#45;&gt;&quot;Fiji&quot; -->
<g id="edge10" class="edge">
<title>_&#45;&gt;&quot;Fiji&quot;</title>
<path fill="none" stroke="black" d="M590.35,-160.4C600.71,-159.84 612.74,-159.28 623.66,-159 681.42,-157.54 696,-155.2 753.66,-159 801.56,-162.15 856.11,-169.94 892.79,-175.8"/>
<polygon fill="black" stroke="black" points="892.67,-179.33 903.1,-177.47 893.79,-172.42 892.67,-179.33"/>
<text text-anchor="middle" x="688.66" y="-162.8" font-family="Times,serif" font-size="14.00">name</text>
</g>
<!-- &quot;FJ&quot; -->
<g id="node7" class="node">
<title>&quot;FJ&quot;</title>
<ellipse fill="none" stroke="black" stroke-width="0" cx="936.09" cy="-126" rx="29.5" ry="18"/>
<text text-anchor="middle" x="936.09" y="-122.3" font-family="Times,serif" font-size="14.00">&quot;FJ&quot;</text>
</g>
<!-- _&#45;&gt;&quot;FJ&quot; -->
<g id="edge7" class="edge">
<title>_&#45;&gt;&quot;FJ&quot;</title>
<path fill="none" stroke="black" d="M585.18,-151.04C596.28,-145.75 610.36,-139.94 623.66,-137 720.09,-115.71 837.35,-119.19 896.7,-122.94"/>
<polygon fill="black" stroke="black" points="896.53,-126.43 906.75,-123.61 897,-119.45 896.53,-126.43"/>
<text text-anchor="middle" x="688.66" y="-140.8" font-family="Times,serif" font-size="14.00">termCode</text>
</g>
<!-- &quot;https//unece.org/trade/ce...&quot; -->
<g id="node8" class="node">
<title>&quot;https//unece.org/trade/ce...&quot;</title>
<ellipse fill="none" stroke="black" stroke-width="0" cx="936.09" cy="-72" rx="145.67" ry="18"/>
<text text-anchor="middle" x="936.09" y="-68.3" font-family="Times,serif" font-size="14.00">&quot;https//unece.org/trade/ce...&quot;</text>
</g>
<!-- _&#45;&gt;&quot;https//unece.org/trade/ce...&quot; -->
<g id="edge8" class="edge">
<title>_&#45;&gt;&quot;https//unece.org/trade/ce...&quot;</title>
<path fill="none" stroke="black" d="M575.71,-145.64C586.33,-131.71 603.57,-112.49 623.66,-103 674.42,-79.02 734.93,-69.35 789.06,-66.34"/>
<polygon fill="black" stroke="black" points="789.27,-69.84 799.09,-65.86 788.93,-62.84 789.27,-69.84"/>
<text text-anchor="middle" x="688.66" y="-106.8" font-family="Times,serif" font-size="14.00">url</text>
</g>
<!-- Country -->
<g id="node9" class="node">
<title>Country</title>
<ellipse fill="none" stroke="#558855" cx="936.09" cy="-18" rx="48.19" ry="18"/>
<text text-anchor="middle" x="936.09" y="-14.3" font-family="Times,serif" font-size="14.00">Country</text>
</g>
<!-- _&#45;&gt;Country -->
<g id="edge9" class="edge">
<title>_&#45;&gt;Country</title>
<path fill="none" stroke="black" d="M568.53,-144.02C575.32,-118.83 591.45,-73.69 623.66,-52 701.27,0.27 815.22,-2.36 881.62,-9.71"/>
<polygon fill="black" stroke="black" points="881.51,-13.22 891.85,-10.92 882.33,-6.27 881.51,-13.22"/>
<text text-anchor="middle" x="688.66" y="-55.8" font-family="Times,serif" font-size="14.00">type</text>
</g>
</g>
</svg>