<?xml version="1.0" encoding="UTF-8" standalone="no"?>
<!DOCTYPE svg PUBLIC "-//W3C//DTD SVG 1.1//EN"
 "http://www.w3.org/Graphics/SVG/1.1/DTD/svg11.dtd">
<!-- Generated by graphviz version 2.43.0 (0)
 -->
<!-- Title: %3 Pages: 1 -->
<svg width="1134pt" height="206pt"
 viewBox="0.00 0.00 1134.32 206.00" xmlns="http://www.w3.org/2000/svg" xmlns:xlink="http://www.w3.org/1999/xlink">
<g id="graph0" class="graph" transform="scale(1 1) rotate(0) translate(4 202)">
<title>%3</title>
<polygon fill="white" stroke="transparent" points="-4,4 -4,-202 1130.32,-202 1130.32,4 -4,4"/>
<!-- ResearchProject -->
<g id="node1" class="node">
<title>ResearchProject</title>
<ellipse fill="none" stroke="#558855" cx="597.26" cy="-153" rx="87.18" ry="18"/>
<text text-anchor="middle" x="597.26" y="-149.3" font-family="Times,serif" font-size="14.00">ResearchProject</text>
</g>
<!-- example.org/permanentUrlToThisJsonDoc -->
<g id="node2" class="node">
<title>example.org/permanentUrlToThisJsonDoc</title>
<ellipse fill="none" stroke="black" cx="204.08" cy="-126" rx="204.16" ry="18"/>
<text text-anchor="middle" x="204.08" y="-122.3" font-family="Times,serif" font-size="14.00">example.org/permanentUrlToThisJsonDoc</text>
</g>
<!-- example.org/permanentUrlToThisJsonDoc&#45;&gt;ResearchProject -->
<g id="edge1" class="edge">
<title>example.org/permanentUrlToThisJsonDoc&#45;&gt;ResearchProject</title>
<path fill="none" stroke="black" d="M365.32,-137.06C412.68,-140.33 462.91,-143.8 504.38,-146.66"/>
<polygon fill="black" stroke="black" points="504.24,-150.16 514.46,-147.35 504.72,-143.17 504.24,-150.16"/>
<text text-anchor="middle" x="459.16" y="-148.8" font-family="Times,serif" font-size="14.00">type</text>
</g>
<!-- _ -->
<g id="node3" class="node">
<title>_</title>
<ellipse fill="none" stroke="#558855" cx="597.26" cy="-99" rx="27" ry="18"/>
<text text-anchor="middle" x="597.26" y="-95.3" font-family="Times,serif" font-size="14.00">_</text>
</g>
<!-- example.org/permanentUrlToThisJsonDoc&#45;&gt;_ -->
<g id="edge2" class="edge">
<title>example.org/permanentUrlToThisJsonDoc&#45;&gt;_</title>
<path fill="none" stroke="black" d="M365.32,-114.94C437.2,-109.98 515.67,-104.56 560.14,-101.49"/>
<polygon fill="black" stroke="black" points="560.42,-104.98 570.15,-100.8 559.94,-98 560.42,-104.98"/>
<text text-anchor="middle" x="459.16" y="-113.8" font-family="Times,serif" font-size="14.00">identifier</text>
</g>
<!-- PropertyValue -->
<g id="node4" class="node">
<title>PropertyValue</title>
<ellipse fill="none" stroke="#558855" cx="963.83" cy="-180" rx="77.19" ry="18"/>
<text text-anchor="middle" x="963.83" y="-176.3" font-family="Times,serif" font-size="14.00">PropertyValue</text>
</g>
<!-- _&#45;&gt;PropertyValue -->
<g id="edge3" class="edge">
<title>_&#45;&gt;PropertyValue</title>
<path fill="none" stroke="black" d="M622.18,-106.6C647.91,-114.72 687.18,-126.99 702.35,-131 764.2,-147.35 835.71,-160.4 888.13,-168.9"/>
<polygon fill="black" stroke="black" points="887.6,-172.36 898.02,-170.49 888.7,-165.45 887.6,-172.36"/>
<text text-anchor="middle" x="742.85" y="-152.8" font-family="Times,serif" font-size="14.00">type</text>
</g>
<!-- &quot;UN Department of Economic...&quot; -->
<g id="node5" class="node">
<title>&quot;UN Department of Economic...&quot;</title>
<ellipse fill="none" stroke="black" stroke-width="0" cx="963.83" cy="-126" rx="162.47" ry="18"/>
<text text-anchor="middle" x="963.83" y="-122.3" font-family="Times,serif" font-size="14.00">&quot;UN Department of Economic...&quot;</text>
</g>
<!-- _&#45;&gt;&quot;UN Department of Economic...&quot; -->
<g id="edge4" class="edge">
<title>_&#45;&gt;&quot;UN Department of Economic...&quot;</title>
<path fill="none" stroke="black" d="M624.18,-100.92C664.58,-103.91 745.45,-109.9 818.03,-115.28"/>
<polygon fill="black" stroke="black" points="817.98,-118.78 828.22,-116.03 818.5,-111.8 817.98,-118.78"/>
<text text-anchor="middle" x="742.85" y="-115.8" font-family="Times,serif" font-size="14.00">description</text>
</g>
<!-- &quot;https//registry.identifie...&quot; -->
<g id="node6" class="node">
<title>&quot;https//registry.identifie...&quot;</title>
<ellipse fill="none" stroke="black" stroke-width="0" cx="963.83" cy="-72" rx="135.38" ry="18"/>
<text text-anchor="middle" x="963.83" y="-68.3" font-family="Times,serif" font-size="14.00">&quot;https//registry.identifie...&quot;</text>
</g>
<!-- _&#45;&gt;&quot;https//registry.identifie...&quot; -->
<g id="edge5" class="edge">
<title>_&#45;&gt;&quot;https//registry.identifie...&quot;</title>
<path fill="none" stroke="black" d="M623.88,-95.63C644.93,-92.97 675.53,-89.32 702.35,-87 742.39,-83.54 785.97,-80.68 825.82,-78.41"/>
<polygon fill="black" stroke="black" points="826.08,-81.9 835.87,-77.85 825.69,-74.92 826.08,-81.9"/>
<text text-anchor="middle" x="742.85" y="-90.8" font-family="Times,serif" font-size="14.00">propertyID</text>
</g>
<!-- &quot;https//grid.ac/institutes...&quot; -->
<g id="node7" class="node">
<title>&quot;https//grid.ac/institutes...&quot;</title>
<ellipse fill="none" stroke="black" stroke-width="0" cx="963.83" cy="-18" rx="137.58" ry="18"/>
<text text-anchor="middle" x="963.83" y="-14.3" font-family="Times,serif" font-size="14.00">&quot;https//grid.ac/institutes...&quot;</text>
</g>
<!-- _&#45;&gt;&quot;https//grid.ac/institutes...&quot; -->
<g id="edge6" class="edge">
<title>_&#45;&gt;&quot;https//grid.ac/institutes...&quot;</title>
<path fill="none" stroke="black" d="M620.65,-89.78C641.49,-81.5 673.59,-69.52 702.35,-62 751.64,-49.11 807.21,-39.12 854.32,-31.94"/>
<polygon fill="black" stroke="black" points="854.87,-35.4 864.24,-30.45 853.83,-28.48 854.87,-35.4"/>
<text text-anchor="middle" x="742.85" y="-65.8" font-family="Times,serif" font-size="14.00">url</text>
</g>
</g>
</svg>