<?xml version="1.0" encoding="UTF-8" standalone="no"?>
<!DOCTYPE svg PUBLIC "-//W3C//DTD SVG 1.1//EN"
 "http://www.w3.org/Graphics/SVG/1.1/DTD/svg11.dtd">
<!-- Generated by graphviz version 2.43.0 (0)
 -->
<!-- Title: %3 Pages: 1 -->
<svg width="1210pt" height="260pt"
 viewBox="0.00 0.00 1209.81 260.00" xmlns="http://www.w3.org/2000/svg" xmlns:xlink="http://www.w3.org/1999/xlink">
<g id="graph0" class="graph" transform="scale(1 1) rotate(0) translate(4 256)">
<title>%3</title>
<polygon fill="white" stroke="transparent" points="-4,4 -4,-256 1205.81,-256 1205.81,4 -4,4"/>
<!-- CreativeWork -->
<g id="node1" class="node">
<title>CreativeWork</title>
<ellipse fill="none" stroke="#558855" cx="665.7" cy="-180" rx="74.19" ry="18"/>
<text text-anchor="middle" x="665.7" y="-176.3" font-family="Times,serif" font-size="14.00">CreativeWork</text>
</g>
<!-- example.org/permanentUrlToThisJsonDoc -->
<g id="node2" class="node">
<title>example.org/permanentUrlToThisJsonDoc</title>
<ellipse fill="none" stroke="black" cx="204.08" cy="-153" rx="204.16" ry="18"/>
<text text-anchor="middle" x="204.08" y="-149.3" font-family="Times,serif" font-size="14.00">example.org/permanentUrlToThisJsonDoc</text>
</g>
<!-- example.org/permanentUrlToThisJsonDoc&#45;&gt;CreativeWork -->
<g id="edge1" class="edge">
<title>example.org/permanentUrlToThisJsonDoc&#45;&gt;CreativeWork</title>
<path fill="none" stroke="black" d="M374.27,-162.94C445.62,-167.13 525.37,-171.82 583.22,-175.21"/>
<polygon fill="black" stroke="black" points="583.21,-178.72 593.4,-175.81 583.62,-171.73 583.21,-178.72"/>
<text text-anchor="middle" x="456.66" y="-171.8" font-family="Times,serif" font-size="14.00">type</text>
</g>
<!-- www.sample&#45;data&#45;repository.org -->
<g id="node3" class="node">
<title>www.sample&#45;data&#45;repository.org</title>
<ellipse fill="none" stroke="#558855" cx="665.7" cy="-126" rx="160.57" ry="18"/>
<text text-anchor="middle" x="665.7" y="-122.3" font-family="Times,serif" font-size="14.00">www.sample&#45;data&#45;repository.org</text>
</g>
<!-- example.org/permanentUrlToThisJsonDoc&#45;&gt;www.sample&#45;data&#45;repository.org -->
<g id="edge2" class="edge">
<title>example.org/permanentUrlToThisJsonDoc&#45;&gt;www.sample&#45;data&#45;repository.org</title>
<path fill="none" stroke="black" d="M374.27,-143.06C419.72,-140.39 468.58,-137.52 513.01,-134.91"/>
<polygon fill="black" stroke="black" points="513.24,-138.4 523.02,-134.32 512.83,-131.42 513.24,-138.4"/>
<text text-anchor="middle" x="456.66" y="-142.8" font-family="Times,serif" font-size="14.00">provider</text>
</g>
<!-- Organization -->
<g id="node4" class="node">
<title>Organization</title>
<ellipse fill="none" stroke="#558855" cx="1070.52" cy="-234" rx="70.69" ry="18"/>
<text text-anchor="middle" x="1070.52" y="-230.3" font-family="Times,serif" font-size="14.00">Organization</text>
</g>
<!-- www.sample&#45;data&#45;repository.org&#45;&gt;Organization -->
<g id="edge3" class="edge">
<title>www.sample&#45;data&#45;repository.org&#45;&gt;Organization</title>
<path fill="none" stroke="black" d="M791.72,-137.3C803.88,-141.26 815.63,-146.39 826.24,-153 837.86,-160.24 833.1,-170.03 844.24,-178 880.13,-203.7 896.47,-196.06 939.24,-207 959.81,-212.26 982.42,-217.23 1002.94,-221.43"/>
<polygon fill="black" stroke="black" points="1002.33,-224.88 1012.83,-223.43 1003.72,-218.02 1002.33,-224.88"/>
<text text-anchor="middle" x="882.74" y="-205.8" font-family="Times,serif" font-size="14.00">type</text>
</g>
<!-- &quot;Sample Data Reposito...&quot; -->
<g id="node5" class="node">
<title>&quot;Sample Data Reposito...&quot;</title>
<ellipse fill="none" stroke="black" stroke-width="0" cx="1070.52" cy="-180" rx="131.08" ry="18"/>
<text text-anchor="middle" x="1070.52" y="-176.3" font-family="Times,serif" font-size="14.00">&quot;Sample Data Reposito...&quot;</text>
</g>
<!-- www.sample&#45;data&#45;repository.org&#45;&gt;&quot;Sample Data Reposito...&quot; -->
<g id="edge4" class="edge">
<title>www.sample&#45;data&#45;repository.org&#45;&gt;&quot;Sample Data Reposito...&quot;</title>
<path fill="none" stroke="black" d="M769.39,-139.77C829.67,-147.85 905.63,-158.03 966.04,-166.13"/>
<polygon fill="black" stroke="black" points="965.61,-169.6 975.98,-167.46 966.54,-162.66 965.61,-169.6"/>
<text text-anchor="middle" x="882.74" y="-162.8" font-family="Times,serif" font-size="14.00">legalName</text>
</g>
<!-- &quot;SDRO&quot; -->
<g id="node6" class="node">
<title>&quot;SDRO&quot;</title>
<ellipse fill="none" stroke="black" stroke-width="0" cx="1070.52" cy="-126" rx="47.39" ry="18"/>
<text text-anchor="middle" x="1070.52" y="-122.3" font-family="Times,serif" font-size="14.00">&quot;SDRO&quot;</text>
</g>
<!-- www.sample&#45;data&#45;repository.org&#45;&gt;&quot;SDRO&quot; -->
<g id="edge5" class="edge">
<title>www.sample&#45;data&#45;repository.org&#45;&gt;&quot;SDRO&quot;</title>
<path fill="none" stroke="black" d="M826.48,-126C892.18,-126 964.04,-126 1012.46,-126"/>
<polygon fill="black" stroke="black" points="1012.73,-129.5 1022.73,-126 1012.73,-122.5 1012.73,-129.5"/>
<text text-anchor="middle" x="882.74" y="-129.8" font-family="Times,serif" font-size="14.00">name</text>
</g>
<!-- &quot;http//www.re3data.or...&quot; -->
<g id="node7" class="node">
<title>&quot;http//www.re3data.or...&quot;</title>
<ellipse fill="none" stroke="black" stroke-width="0" cx="1070.52" cy="-72" rx="126.98" ry="18"/>
<text text-anchor="middle" x="1070.52" y="-68.3" font-family="Times,serif" font-size="14.00">&quot;http//www.re3data.or...&quot;</text>
</g>
<!-- www.sample&#45;data&#45;repository.org&#45;&gt;&quot;http//www.re3data.or...&quot; -->
<g id="edge6" class="edge">
<title>www.sample&#45;data&#45;repository.org&#45;&gt;&quot;http//www.re3data.or...&quot;</title>
<path fill="none" stroke="black" d="M769.39,-112.23C830.22,-104.08 907.02,-93.78 967.7,-85.65"/>
<polygon fill="black" stroke="black" points="968.23,-89.11 977.68,-84.31 967.3,-82.17 968.23,-89.11"/>
<text text-anchor="middle" x="882.74" y="-103.8" font-family="Times,serif" font-size="14.00">sameAs</text>
</g>
<!-- &quot;https//www.sample&#45;da...&quot; -->
<g id="node8" class="node">
<title>&quot;https//www.sample&#45;da...&quot;</title>
<ellipse fill="none" stroke="black" stroke-width="0" cx="1070.52" cy="-18" rx="131.08" ry="18"/>
<text text-anchor="middle" x="1070.52" y="-14.3" font-family="Times,serif" font-size="14.00">&quot;https//www.sample&#45;da...&quot;</text>
</g>
<!-- www.sample&#45;data&#45;repository.org&#45;&gt;&quot;https//www.sample&#45;da...&quot; -->
<g id="edge7" class="edge">
<title>www.sample&#45;data&#45;repository.org&#45;&gt;&quot;https//www.sample&#45;da...&quot;</title>
<path fill="none" stroke="black" d="M719.08,-108.96C773.68,-91.54 861.91,-64.37 939.24,-45 953.44,-41.44 968.59,-37.99 983.36,-34.81"/>
<polygon fill="black" stroke="black" points="984.45,-38.16 993.5,-32.66 982.99,-31.31 984.45,-38.16"/>
<text text-anchor="middle" x="882.74" y="-72.8" font-family="Times,serif" font-size="14.00">url</text>
</g>
</g>
</svg>