<?xml version="1.0" encoding="UTF-8" standalone="no"?>
<!DOCTYPE svg PUBLIC "-//W3C//DTD SVG 1.1//EN"
 "http://www.w3.org/Graphics/SVG/1.1/DTD/svg11.dtd">
<!-- Generated by graphviz version 2.43.0 (0)
 -->
<!-- Title: %3 Pages: 1 -->
<svg width="593pt" height="152pt"
 viewBox="0.00 0.00 593.47 152.00" xmlns="http://www.w3.org/2000/svg" xmlns:xlink="http://www.w3.org/1999/xlink">
<g id="graph0" class="graph" transform="scale(1 1) rotate(0) translate(4 148)">
<title>%3</title>
<polygon fill="white" stroke="transparent" points="-4,4 -4,-148 589.47,-148 589.47,4 -4,4"/>
<!-- &quot;Die Königin&quot; -->
<g id="node1" class="node">
<title>&quot;Die Königin&quot;</title>
<ellipse fill="none" stroke="black" stroke-width="0" cx="502.92" cy="-126" rx="73.39" ry="18"/>
<text text-anchor="middle" x="502.92" y="-122.3" font-family="Times,serif" font-size="14.00">&quot;Die Königin&quot;</text>
</g>
<!-- example.com/queen -->
<g id="node2" class="node">
<title>example.com/queen</title>
<ellipse fill="none" stroke="black" cx="102.69" cy="-72" rx="102.88" ry="18"/>
<text text-anchor="middle" x="102.69" y="-68.3" font-family="Times,serif" font-size="14.00">example.com/queen</text>
</g>
<!-- example.com/queen&#45;&gt;&quot;Die Königin&quot; -->
<g id="edge1" class="edge">
<title>example.com/queen&#45;&gt;&quot;Die Königin&quot;</title>
<path fill="none" stroke="black" d="M178.34,-84.23C193.24,-86.57 208.8,-88.93 223.38,-91 291.86,-100.74 370.02,-110.43 426.08,-117.14"/>
<polygon fill="black" stroke="black" points="425.93,-120.65 436.28,-118.36 426.76,-113.7 425.93,-120.65"/>
<text text-anchor="middle" x="312.88" y="-116.8" font-family="Times,serif" font-size="14.00">example.com/vocab/label</text>
</g>
<!-- &quot;Ihre Majestät&quot; -->
<g id="node3" class="node">
<title>&quot;Ihre Majestät&quot;</title>
<ellipse fill="none" stroke="black" stroke-width="0" cx="502.92" cy="-72" rx="82.59" ry="18"/>
<text text-anchor="middle" x="502.92" y="-68.3" font-family="Times,serif" font-size="14.00">&quot;Ihre Majestät&quot;</text>
</g>
<!-- example.com/queen&#45;&gt;&quot;Ihre Majestät&quot; -->
<g id="edge2" class="edge">
<title>example.com/queen&#45;&gt;&quot;Ihre Majestät&quot;</title>
<path fill="none" stroke="black" d="M205.47,-72C268.56,-72 348.93,-72 410.08,-72"/>
<polygon fill="black" stroke="black" points="410.1,-75.5 420.1,-72 410.1,-68.5 410.1,-75.5"/>
<text text-anchor="middle" x="312.88" y="-75.8" font-family="Times,serif" font-size="14.00">example.com/vocab/label</text>
</g>
<!-- &quot;The Queen&quot; -->
<g id="node4" class="node">
<title>&quot;The Queen&quot;</title>
<ellipse fill="none" stroke="black" stroke-width="0" cx="502.92" cy="-18" rx="69.59" ry="18"/>
<text text-anchor="middle" x="502.92" y="-14.3" font-family="Times,serif" font-size="14.00">&quot;The Queen&quot;</text>
</g>
<!-- example.com/queen&#45;&gt;&quot;The Queen&quot; -->
<g id="edge3" class="edge">
<title>example.com/queen&#45;&gt;&quot;The Queen&quot;</title>
<path fill="none" stroke="black" d="M178.34,-59.77C193.24,-57.43 208.8,-55.07 223.38,-53 293,-43.1 372.61,-33.25 428.85,-26.53"/>
<polygon fill="black" stroke="black" points="429.55,-29.97 439.07,-25.31 428.72,-23.02 429.55,-29.97"/>
<text text-anchor="middle" x="312.88" y="-56.8" font-family="Times,serif" font-size="14.00">example.com/vocab/label</text>
</g>
</g>
</svg>