<?xml version="1.0" encoding="UTF-8" standalone="no"?>
<!DOCTYPE svg PUBLIC "-//W3C//DTD SVG 1.1//EN"
 "http://www.w3.org/Graphics/SVG/1.1/DTD/svg11.dtd">
<!-- Generated by graphviz version 2.43.0 (0)
 -->
<!-- Title: %3 Pages: 1 -->
<svg width="1433pt" height="1127pt"
 viewBox="0.00 0.00 1433.20 1127.00" xmlns="http://www.w3.org/2000/svg" xmlns:xlink="http://www.w3.org/1999/xlink">
<g id="graph0" class="graph" transform="scale(1 1) rotate(0) translate(4 1123)">
<title>%3</title>
<polygon fill="white" stroke="transparent" points="-4,4 -4,-1123 1429.2,-1123 1429.2,4 -4,4"/>
<!-- CreativeWork -->
<g id="node1" class="node">
<title>CreativeWork</title>
<ellipse fill="none" stroke="#558855" cx="1262.07" cy="-882" rx="74.19" ry="18"/>
<text text-anchor="middle" x="1262.07" y="-878.3" font-family="Times,serif" font-size="14.00">CreativeWork</text>
</g>
<!-- purl.unep.org/sdg/SDGIO_00020173 -->
<g id="node2" class="node">
<title>purl.unep.org/sdg/SDGIO_00020173</title>
<ellipse fill="none" stroke="#558855" cx="770.55" cy="-995" rx="179.27" ry="18"/>
<text text-anchor="middle" x="770.55" y="-991.3" font-family="Times,serif" font-size="14.00">purl.unep.org/sdg/SDGIO_00020173</text>
</g>
<!-- purl.unep.org/sdg/SDGIO_00020173&#45;&gt;CreativeWork -->
<g id="edge1" class="edge">
<title>purl.unep.org/sdg/SDGIO_00020173&#45;&gt;CreativeWork</title>
<path fill="none" stroke="black" d="M888.33,-981.42C948.2,-971.24 1020.94,-953.74 1080.93,-924 1090.26,-919.38 1089.47,-913.34 1098.93,-909 1123.77,-897.61 1152.72,-890.96 1179.22,-887.11"/>
<polygon fill="black" stroke="black" points="1179.8,-890.56 1189.24,-885.76 1178.87,-883.62 1179.8,-890.56"/>
<text text-anchor="middle" x="1024.43" y="-965.8" font-family="Times,serif" font-size="14.00">type</text>
</g>
<!-- &quot;Number of countries makin...&quot; -->
<g id="node3" class="node">
<title>&quot;Number of countries makin...&quot;</title>
<ellipse fill="none" stroke="black" stroke-width="0" cx="1262.07" cy="-1101" rx="155.17" ry="18"/>
<text text-anchor="middle" x="1262.07" y="-1097.3" font-family="Times,serif" font-size="14.00">&quot;Number of countries makin...&quot;</text>
</g>
<!-- purl.unep.org/sdg/SDGIO_00020173&#45;&gt;&quot;Number of countries makin...&quot; -->
<g id="edge2" class="edge">
<title>purl.unep.org/sdg/SDGIO_00020173&#45;&gt;&quot;Number of countries makin...&quot;</title>
<path fill="none" stroke="black" d="M833.73,-1011.89C872.27,-1022.17 922.86,-1035.33 967.93,-1046 1025.87,-1059.71 1040.44,-1062.88 1098.93,-1074 1118.48,-1077.71 1139.4,-1081.41 1159.51,-1084.82"/>
<polygon fill="black" stroke="black" points="1159.17,-1088.31 1169.62,-1086.52 1160.34,-1081.41 1159.17,-1088.31"/>
<text text-anchor="middle" x="1024.43" y="-1073.8" font-family="Times,serif" font-size="14.00">description</text>
</g>
<!-- &quot;UNSD SDG indicator codeC1...&quot; -->
<g id="node4" class="node">
<title>&quot;UNSD SDG indicator codeC1...&quot;</title>
<ellipse fill="none" stroke="black" stroke-width="0" cx="1262.07" cy="-1047" rx="163.27" ry="18"/>
<text text-anchor="middle" x="1262.07" y="-1043.3" font-family="Times,serif" font-size="14.00">&quot;UNSD SDG indicator codeC1...&quot;</text>
</g>
<!-- purl.unep.org/sdg/SDGIO_00020173&#45;&gt;&quot;UNSD SDG indicator codeC1...&quot; -->
<g id="edge3" class="edge">
<title>purl.unep.org/sdg/SDGIO_00020173&#45;&gt;&quot;UNSD SDG indicator codeC1...&quot;</title>
<path fill="none" stroke="black" d="M894.44,-1008.05C967.47,-1015.81 1059.94,-1025.64 1133.74,-1033.47"/>
<polygon fill="black" stroke="black" points="1133.71,-1036.99 1144.03,-1034.57 1134.45,-1030.03 1133.71,-1036.99"/>
<text text-anchor="middle" x="1024.43" y="-1030.8" font-family="Times,serif" font-size="14.00">name</text>
</g>
<!-- &quot;http//www.ontobee.org/ont...&quot; -->
<g id="node5" class="node">
<title>&quot;http//www.ontobee.org/ont...&quot;</title>
<ellipse fill="none" stroke="black" stroke-width="0" cx="1262.07" cy="-993" rx="152.97" ry="18"/>
<text text-anchor="middle" x="1262.07" y="-989.3" font-family="Times,serif" font-size="14.00">&quot;http//www.ontobee.org/ont...&quot;</text>
</g>
<!-- purl.unep.org/sdg/SDGIO_00020173&#45;&gt;&quot;http//www.ontobee.org/ont...&quot; -->
<g id="edge4" class="edge">
<title>purl.unep.org/sdg/SDGIO_00020173&#45;&gt;&quot;http//www.ontobee.org/ont...&quot;</title>
<path fill="none" stroke="black" d="M950.01,-994.27C998.73,-994.07 1051.25,-993.86 1099,-993.66"/>
<polygon fill="black" stroke="black" points="1099.13,-997.16 1109.12,-993.62 1099.1,-990.16 1099.13,-997.16"/>
<text text-anchor="middle" x="1024.43" y="-997.8" font-family="Times,serif" font-size="14.00">url</text>
</g>
<!-- dx.doi.org/10.1038/sdata.2016.18 -->
<g id="node6" class="node">
<title>dx.doi.org/10.1038/sdata.2016.18</title>
<ellipse fill="none" stroke="#558855" cx="770.55" cy="-843" rx="167.87" ry="18"/>
<text text-anchor="middle" x="770.55" y="-839.3" font-family="Times,serif" font-size="14.00">dx.doi.org/10.1038/sdata.2016.18</text>
</g>
<!-- dx.doi.org/10.1038/sdata.2016.18&#45;&gt;CreativeWork -->
<g id="edge5" class="edge">
<title>dx.doi.org/10.1038/sdata.2016.18&#45;&gt;CreativeWork</title>
<path fill="none" stroke="black" d="M905.63,-853.68C993.9,-860.72 1106.5,-869.69 1181.04,-875.62"/>
<polygon fill="black" stroke="black" points="1181.06,-879.14 1191.3,-876.44 1181.61,-872.16 1181.06,-879.14"/>
<text text-anchor="middle" x="1024.43" y="-870.8" font-family="Times,serif" font-size="14.00">type</text>
</g>
<!-- &quot;FAIR Principles definitio...&quot; -->
<g id="node7" class="node">
<title>&quot;FAIR Principles definitio...&quot;</title>
<ellipse fill="none" stroke="black" stroke-width="0" cx="1262.07" cy="-828" rx="140.28" ry="18"/>
<text text-anchor="middle" x="1262.07" y="-824.3" font-family="Times,serif" font-size="14.00">&quot;FAIR Principles definitio...&quot;</text>
</g>
<!-- dx.doi.org/10.1038/sdata.2016.18&#45;&gt;&quot;FAIR Principles definitio...&quot; -->
<g id="edge6" class="edge">
<title>dx.doi.org/10.1038/sdata.2016.18&#45;&gt;&quot;FAIR Principles definitio...&quot;</title>
<path fill="none" stroke="black" d="M932.17,-838.08C991.08,-836.27 1057.38,-834.24 1114.95,-832.48"/>
<polygon fill="black" stroke="black" points="1115.33,-835.97 1125.22,-832.16 1115.11,-828.97 1115.33,-835.97"/>
<text text-anchor="middle" x="1024.43" y="-839.8" font-family="Times,serif" font-size="14.00">description</text>
</g>
<!-- &quot;FAIR data principles&quot; -->
<g id="node8" class="node">
<title>&quot;FAIR data principles&quot;</title>
<ellipse fill="none" stroke="black" stroke-width="0" cx="1262.07" cy="-774" rx="113.98" ry="18"/>
<text text-anchor="middle" x="1262.07" y="-770.3" font-family="Times,serif" font-size="14.00">&quot;FAIR data principles&quot;</text>
</g>
<!-- dx.doi.org/10.1038/sdata.2016.18&#45;&gt;&quot;FAIR data principles&quot; -->
<g id="edge7" class="edge">
<title>dx.doi.org/10.1038/sdata.2016.18&#45;&gt;&quot;FAIR data principles&quot;</title>
<path fill="none" stroke="black" d="M806.25,-825.28C844.64,-806.75 908.89,-778.89 967.93,-768 1031.8,-756.22 1104.82,-757.67 1162,-762.09"/>
<polygon fill="black" stroke="black" points="1161.88,-765.59 1172.13,-762.92 1162.44,-758.62 1161.88,-765.59"/>
<text text-anchor="middle" x="1024.43" y="-771.8" font-family="Times,serif" font-size="14.00">name</text>
</g>
<!-- &quot;https//www.nature.com/art...&quot; -->
<g id="node9" class="node">
<title>&quot;https//www.nature.com/art...&quot;</title>
<ellipse fill="none" stroke="black" stroke-width="0" cx="1262.07" cy="-936" rx="153.27" ry="18"/>
<text text-anchor="middle" x="1262.07" y="-932.3" font-family="Times,serif" font-size="14.00">&quot;https//www.nature.com/art...&quot;</text>
</g>
<!-- dx.doi.org/10.1038/sdata.2016.18&#45;&gt;&quot;https//www.nature.com/art...&quot; -->
<g id="edge8" class="edge">
<title>dx.doi.org/10.1038/sdata.2016.18&#45;&gt;&quot;https//www.nature.com/art...&quot;</title>
<path fill="none" stroke="black" d="M842.76,-859.34C879.98,-867.69 926.33,-877.8 967.93,-886 1025.93,-897.44 1040.67,-899.03 1098.93,-909 1119.45,-912.51 1141.44,-916.21 1162.4,-919.71"/>
<polygon fill="black" stroke="black" points="1161.83,-923.16 1172.27,-921.36 1162.98,-916.26 1161.83,-923.16"/>
<text text-anchor="middle" x="1024.43" y="-908.8" font-family="Times,serif" font-size="14.00">url</text>
</g>
<!-- Organization -->
<g id="node10" class="node">
<title>Organization</title>
<ellipse fill="none" stroke="#558855" cx="1262.07" cy="-720" rx="70.69" ry="18"/>
<text text-anchor="middle" x="1262.07" y="-716.3" font-family="Times,serif" font-size="14.00">Organization</text>
</g>
<!-- example.org/permanentUrlToThisJsonDoc -->
<g id="node11" class="node">
<title>example.org/permanentUrlToThisJsonDoc</title>
<ellipse fill="none" stroke="black" cx="204.08" cy="-353" rx="204.16" ry="18"/>
<text text-anchor="middle" x="204.08" y="-349.3" font-family="Times,serif" font-size="14.00">example.org/permanentUrlToThisJsonDoc</text>
</g>
<!-- example.org/permanentUrlToThisJsonDoc&#45;&gt;purl.unep.org/sdg/SDGIO_00020173 -->
<g id="edge18" class="edge">
<title>example.org/permanentUrlToThisJsonDoc&#45;&gt;purl.unep.org/sdg/SDGIO_00020173</title>
<path fill="none" stroke="black" d="M209.07,-371.22C224.8,-439.29 288.57,-681.97 426.16,-823 502.7,-901.45 622.51,-950.06 698.48,-974.82"/>
<polygon fill="black" stroke="black" points="697.85,-978.29 708.44,-978.01 699.98,-971.62 697.85,-978.29"/>
<text text-anchor="middle" x="499.66" y="-926.8" font-family="Times,serif" font-size="14.00">subjectOf</text>
</g>
<!-- example.org/permanentUrlToThisJsonDoc&#45;&gt;dx.doi.org/10.1038/sdata.2016.18 -->
<g id="edge16" class="edge">
<title>example.org/permanentUrlToThisJsonDoc&#45;&gt;dx.doi.org/10.1038/sdata.2016.18</title>
<path fill="none" stroke="black" d="M210.41,-371.27C229.15,-432.31 297.92,-631.1 426.16,-734 490.46,-785.59 579.57,-812.95 650.9,-827.36"/>
<polygon fill="black" stroke="black" points="650.36,-830.82 660.85,-829.3 651.7,-823.95 650.36,-830.82"/>
<text text-anchor="middle" x="499.66" y="-807.8" font-family="Times,serif" font-size="14.00">publishingPrinciples</text>
</g>
<!-- example.org/permanentUrlToThisJsonDoc&#45;&gt;Organization -->
<g id="edge9" class="edge">
<title>example.org/permanentUrlToThisJsonDoc&#45;&gt;Organization</title>
<path fill="none" stroke="black" d="M225.35,-371.08C262.72,-403.64 346,-472.69 426.16,-515 651.95,-634.18 717.38,-656.95 967.93,-706 1039.3,-719.97 1122.22,-722.72 1181.62,-722.41"/>
<polygon fill="black" stroke="black" points="1181.71,-725.91 1191.68,-722.33 1181.65,-718.91 1181.71,-725.91"/>
<text text-anchor="middle" x="770.55" y="-704.8" font-family="Times,serif" font-size="14.00">type</text>
</g>
<!-- _ -->
<g id="node12" class="node">
<title>_</title>
<ellipse fill="none" stroke="#558855" cx="770.55" cy="-504" rx="27" ry="18"/>
<text text-anchor="middle" x="770.55" y="-500.3" font-family="Times,serif" font-size="14.00">_</text>
</g>
<!-- example.org/permanentUrlToThisJsonDoc&#45;&gt;_ -->
<g id="edge10" class="edge">
<title>example.org/permanentUrlToThisJsonDoc&#45;&gt;_</title>
<path fill="none" stroke="black" d="M269.01,-370.1C388.8,-402.15 643.25,-470.21 735.36,-494.85"/>
<polygon fill="black" stroke="black" points="734.7,-498.3 745.27,-497.51 736.51,-491.54 734.7,-498.3"/>
<text text-anchor="middle" x="499.66" y="-453.8" font-family="Times,serif" font-size="14.00">address</text>
</g>
<!-- example.org/permanentUrlToThisJsonDoc&#45;&gt;_ -->
<g id="edge14" class="edge">
<title>example.org/permanentUrlToThisJsonDoc&#45;&gt;_</title>
<path fill="none" stroke="black" d="M231.22,-370.99C271.19,-397.49 350.83,-446.32 426.16,-469 534.38,-501.57 669.51,-505.15 733.17,-504.77"/>
<polygon fill="black" stroke="black" points="733.51,-508.27 743.48,-504.67 733.45,-501.27 733.51,-508.27"/>
<text text-anchor="middle" x="499.66" y="-499.8" font-family="Times,serif" font-size="14.00">member</text>
</g>
<!-- &quot;Description of org ...&quot; -->
<g id="node13" class="node">
<title>&quot;Description of org ...&quot;</title>
<ellipse fill="none" stroke="black" stroke-width="0" cx="770.55" cy="-299" rx="115.08" ry="18"/>
<text text-anchor="middle" x="770.55" y="-295.3" font-family="Times,serif" font-size="14.00">&quot;Description of org ...&quot;</text>
</g>
<!-- example.org/permanentUrlToThisJsonDoc&#45;&gt;&quot;Description of org ...&quot; -->
<g id="edge11" class="edge">
<title>example.org/permanentUrlToThisJsonDoc&#45;&gt;&quot;Description of org ...&quot;</title>
<path fill="none" stroke="black" d="M343.17,-339.79C441.32,-330.4 571.27,-317.97 661.8,-309.31"/>
<polygon fill="black" stroke="black" points="662.19,-312.79 671.81,-308.35 661.52,-305.82 662.19,-312.79"/>
<text text-anchor="middle" x="499.66" y="-333.8" font-family="Times,serif" font-size="14.00">description</text>
</g>
<!-- &quot;secretariat(at)example.or...&quot; -->
<g id="node14" class="node">
<title>&quot;secretariat(at)example.or...&quot;</title>
<ellipse fill="none" stroke="black" stroke-width="0" cx="770.55" cy="-245" rx="145.67" ry="18"/>
<text text-anchor="middle" x="770.55" y="-241.3" font-family="Times,serif" font-size="14.00">&quot;secretariat(at)example.or...&quot;</text>
</g>
<!-- example.org/permanentUrlToThisJsonDoc&#45;&gt;&quot;secretariat(at)example.or...&quot; -->
<g id="edge12" class="edge">
<title>example.org/permanentUrlToThisJsonDoc&#45;&gt;&quot;secretariat(at)example.or...&quot;</title>
<path fill="none" stroke="black" d="M269.6,-335.84C313.54,-324.51 373.12,-309.8 426.16,-299 498.98,-284.17 517.76,-283.56 591.16,-272 615.64,-268.15 642.02,-264.1 666.79,-260.34"/>
<polygon fill="black" stroke="black" points="667.57,-263.76 676.93,-258.8 666.52,-256.84 667.57,-263.76"/>
<text text-anchor="middle" x="499.66" y="-302.8" font-family="Times,serif" font-size="14.00">email</text>
</g>
<!-- grid.ac/institutes/grid.475727.4 -->
<g id="node15" class="node">
<title>grid.ac/institutes/grid.475727.4</title>
<ellipse fill="none" stroke="#558855" cx="770.55" cy="-180" rx="159.47" ry="18"/>
<text text-anchor="middle" x="770.55" y="-176.3" font-family="Times,serif" font-size="14.00">grid.ac/institutes/grid.475727.4</text>
</g>
<!-- example.org/permanentUrlToThisJsonDoc&#45;&gt;grid.ac/institutes/grid.475727.4 -->
<g id="edge13" class="edge">
<title>example.org/permanentUrlToThisJsonDoc&#45;&gt;grid.ac/institutes/grid.475727.4</title>
<path fill="none" stroke="black" d="M240.27,-335.1C283.23,-313.83 358.52,-278.41 426.16,-256 497.6,-232.33 517.69,-234.28 591.16,-218 621.44,-211.29 654.65,-204.15 684.13,-197.9"/>
<polygon fill="black" stroke="black" points="684.92,-201.31 693.97,-195.81 683.47,-194.46 684.92,-201.31"/>
<text text-anchor="middle" x="499.66" y="-259.8" font-family="Times,serif" font-size="14.00">identifier</text>
</g>
<!-- &quot;Organization X&quot; -->
<g id="node16" class="node">
<title>&quot;Organization X&quot;</title>
<ellipse fill="none" stroke="black" stroke-width="0" cx="770.55" cy="-126" rx="89.08" ry="18"/>
<text text-anchor="middle" x="770.55" y="-122.3" font-family="Times,serif" font-size="14.00">&quot;Organization X&quot;</text>
</g>
<!-- example.org/permanentUrlToThisJsonDoc&#45;&gt;&quot;Organization X&quot; -->
<g id="edge15" class="edge">
<title>example.org/permanentUrlToThisJsonDoc&#45;&gt;&quot;Organization X&quot;</title>
<path fill="none" stroke="black" d="M226.63,-335.07C264.69,-304.18 347.25,-240.65 426.16,-203 495.32,-170 516.42,-169.89 591.16,-153 620.82,-146.3 653.63,-140.8 682.94,-136.55"/>
<polygon fill="black" stroke="black" points="683.74,-139.97 693.15,-135.1 682.75,-133.04 683.74,-139.97"/>
<text text-anchor="middle" x="499.66" y="-206.8" font-family="Times,serif" font-size="14.00">name</text>
</g>
<!-- sdgs.un.org/goals/goal14 -->
<g id="node17" class="node">
<title>sdgs.un.org/goals/goal14</title>
<ellipse fill="none" stroke="#558855" cx="770.55" cy="-353" rx="126.98" ry="18"/>
<text text-anchor="middle" x="770.55" y="-349.3" font-family="Times,serif" font-size="14.00">sdgs.un.org/goals/goal14</text>
</g>
<!-- example.org/permanentUrlToThisJsonDoc&#45;&gt;sdgs.un.org/goals/goal14 -->
<g id="edge17" class="edge">
<title>example.org/permanentUrlToThisJsonDoc&#45;&gt;sdgs.un.org/goals/goal14</title>
<path fill="none" stroke="black" d="M408.47,-353C483.14,-353 565.82,-353 633.21,-353"/>
<polygon fill="black" stroke="black" points="633.46,-356.5 643.46,-353 633.46,-349.5 633.46,-356.5"/>
<text text-anchor="middle" x="499.66" y="-356.8" font-family="Times,serif" font-size="14.00">publishingPrinciples</text>
</g>
<!-- &quot;( 33 1) 42 68 53 00&quot; -->
<g id="node18" class="node">
<title>&quot;( 33 1) 42 68 53 00&quot;</title>
<ellipse fill="none" stroke="black" stroke-width="0" cx="770.55" cy="-72" rx="108.58" ry="18"/>
<text text-anchor="middle" x="770.55" y="-68.3" font-family="Times,serif" font-size="14.00">&quot;( 33 1) 42 68 53 00&quot;</text>
</g>
<!-- example.org/permanentUrlToThisJsonDoc&#45;&gt;&quot;( 33 1) 42 68 53 00&quot; -->
<g id="edge19" class="edge">
<title>example.org/permanentUrlToThisJsonDoc&#45;&gt;&quot;( 33 1) 42 68 53 00&quot;</title>
<path fill="none" stroke="black" d="M218.02,-334.97C248.92,-293.29 331.58,-189.89 426.16,-138 495.92,-99.73 584.24,-83.35 653.85,-76.47"/>
<polygon fill="black" stroke="black" points="654.35,-79.94 663.98,-75.53 653.69,-72.97 654.35,-79.94"/>
<text text-anchor="middle" x="499.66" y="-141.8" font-family="Times,serif" font-size="14.00">telephone</text>
</g>
<!-- _&#45;&gt;Organization -->
<g id="edge28" class="edge">
<title>_&#45;&gt;Organization</title>
<path fill="none" stroke="black" d="M787.03,-518.88C818.58,-548.44 893.63,-615 967.93,-653 1022.13,-680.72 1039.67,-679.08 1098.93,-693 1128.13,-699.86 1160.68,-705.63 1188.91,-710.06"/>
<polygon fill="black" stroke="black" points="1188.68,-713.57 1199.1,-711.63 1189.75,-706.65 1188.68,-713.57"/>
<text text-anchor="middle" x="1024.43" y="-691.8" font-family="Times,serif" font-size="14.00">type</text>
</g>
<!-- &quot;Org A is a potential pare...&quot; -->
<g id="node26" class="node">
<title>&quot;Org A is a potential pare...&quot;</title>
<ellipse fill="none" stroke="black" stroke-width="0" cx="1262.07" cy="-504" rx="142.17" ry="18"/>
<text text-anchor="middle" x="1262.07" y="-500.3" font-family="Times,serif" font-size="14.00">&quot;Org A is a potential pare...&quot;</text>
</g>
<!-- _&#45;&gt;&quot;Org A is a potential pare...&quot; -->
<g id="edge29" class="edge">
<title>_&#45;&gt;&quot;Org A is a potential pare...&quot;</title>
<path fill="none" stroke="black" d="M797.87,-504C855.75,-504 997.83,-504 1109.49,-504"/>
<polygon fill="black" stroke="black" points="1109.51,-507.5 1119.51,-504 1109.51,-500.5 1109.51,-507.5"/>
<text text-anchor="middle" x="1024.43" y="-507.8" font-family="Times,serif" font-size="14.00">description</text>
</g>
<!-- &quot;Organization A&quot; -->
<g id="node27" class="node">
<title>&quot;Organization A&quot;</title>
<ellipse fill="none" stroke="black" stroke-width="0" cx="1262.07" cy="-450" rx="89.08" ry="18"/>
<text text-anchor="middle" x="1262.07" y="-446.3" font-family="Times,serif" font-size="14.00">&quot;Organization A&quot;</text>
</g>
<!-- _&#45;&gt;&quot;Organization A&quot; -->
<g id="edge30" class="edge">
<title>_&#45;&gt;&quot;Organization A&quot;</title>
<path fill="none" stroke="black" d="M797.52,-501.13C866.98,-493.47 1059.44,-472.24 1173.35,-459.68"/>
<polygon fill="black" stroke="black" points="1173.89,-463.14 1183.44,-458.56 1173.12,-456.18 1173.89,-463.14"/>
<text text-anchor="middle" x="1024.43" y="-484.8" font-family="Times,serif" font-size="14.00">name</text>
</g>
<!-- PostalAddress -->
<g id="node28" class="node">
<title>PostalAddress</title>
<ellipse fill="none" stroke="#558855" cx="1262.07" cy="-396" rx="76.89" ry="18"/>
<text text-anchor="middle" x="1262.07" y="-392.3" font-family="Times,serif" font-size="14.00">PostalAddress</text>
</g>
<!-- _&#45;&gt;PostalAddress -->
<g id="edge31" class="edge">
<title>_&#45;&gt;PostalAddress</title>
<path fill="none" stroke="black" d="M795.63,-497.06C832.56,-486.52 905.46,-466.1 967.93,-451 1025.8,-437.02 1040.44,-434.12 1098.93,-423 1127.9,-417.5 1159.89,-412.04 1187.75,-407.48"/>
<polygon fill="black" stroke="black" points="1188.5,-410.91 1197.81,-405.85 1187.38,-404 1188.5,-410.91"/>
<text text-anchor="middle" x="1024.43" y="-454.8" font-family="Times,serif" font-size="14.00">type</text>
</g>
<!-- &quot;Paris, France&quot; -->
<g id="node29" class="node">
<title>&quot;Paris, France&quot;</title>
<ellipse fill="none" stroke="black" stroke-width="0" cx="1262.07" cy="-666" rx="81.49" ry="18"/>
<text text-anchor="middle" x="1262.07" y="-662.3" font-family="Times,serif" font-size="14.00">&quot;Paris, France&quot;</text>
</g>
<!-- _&#45;&gt;&quot;Paris, France&quot; -->
<g id="edge32" class="edge">
<title>_&#45;&gt;&quot;Paris, France&quot;</title>
<path fill="none" stroke="black" d="M792.04,-515.01C827.29,-533.69 901.98,-572.05 967.93,-598 1024.7,-620.34 1039.59,-624.84 1098.93,-639 1125.88,-645.43 1155.71,-650.87 1182.36,-655.14"/>
<polygon fill="black" stroke="black" points="1181.99,-658.62 1192.41,-656.72 1183.07,-651.71 1181.99,-658.62"/>
<text text-anchor="middle" x="1024.43" y="-637.8" font-family="Times,serif" font-size="14.00">addressLocality</text>
</g>
<!-- &quot;F&#45;75002&quot; -->
<g id="node30" class="node">
<title>&quot;F&#45;75002&quot;</title>
<ellipse fill="none" stroke="black" stroke-width="0" cx="1262.07" cy="-612" rx="57.69" ry="18"/>
<text text-anchor="middle" x="1262.07" y="-608.3" font-family="Times,serif" font-size="14.00">&quot;F&#45;75002&quot;</text>
</g>
<!-- _&#45;&gt;&quot;F&#45;75002&quot; -->
<g id="edge33" class="edge">
<title>_&#45;&gt;&quot;F&#45;75002&quot;</title>
<path fill="none" stroke="black" d="M795.59,-510.85C849.49,-526 984.26,-562.77 1098.93,-585 1132.16,-591.44 1169.39,-597.71 1199.79,-602.58"/>
<polygon fill="black" stroke="black" points="1199.4,-606.06 1209.83,-604.18 1200.5,-599.15 1199.4,-606.06"/>
<text text-anchor="middle" x="1024.43" y="-582.8" font-family="Times,serif" font-size="14.00">postalCode</text>
</g>
<!-- &quot;38 avenue de l&#39;Opera&quot; -->
<g id="node31" class="node">
<title>&quot;38 avenue de l&#39;Opera&quot;</title>
<ellipse fill="none" stroke="black" stroke-width="0" cx="1262.07" cy="-558" rx="118.08" ry="18"/>
<text text-anchor="middle" x="1262.07" y="-554.3" font-family="Times,serif" font-size="14.00">&quot;38 avenue de l&#39;Opera&quot;</text>
</g>
<!-- _&#45;&gt;&quot;38 avenue de l&#39;Opera&quot; -->
<g id="edge34" class="edge">
<title>_&#45;&gt;&quot;38 avenue de l&#39;Opera&quot;</title>
<path fill="none" stroke="black" d="M797.52,-506.87C863.48,-514.14 1040.35,-533.65 1155.55,-546.36"/>
<polygon fill="black" stroke="black" points="1155.48,-549.87 1165.81,-547.49 1156.25,-542.92 1155.48,-549.87"/>
<text text-anchor="middle" x="1024.43" y="-540.8" font-family="Times,serif" font-size="14.00">streetAddress</text>
</g>
<!-- PropertyValue -->
<g id="node19" class="node">
<title>PropertyValue</title>
<ellipse fill="none" stroke="#558855" cx="1262.07" cy="-126" rx="77.19" ry="18"/>
<text text-anchor="middle" x="1262.07" y="-122.3" font-family="Times,serif" font-size="14.00">PropertyValue</text>
</g>
<!-- grid.ac/institutes/grid.475727.4&#45;&gt;PropertyValue -->
<g id="edge20" class="edge">
<title>grid.ac/institutes/grid.475727.4&#45;&gt;PropertyValue</title>
<path fill="none" stroke="black" d="M885.08,-167.48C976.09,-157.44 1101.46,-143.61 1181.9,-134.73"/>
<polygon fill="black" stroke="black" points="1182.41,-138.2 1191.97,-133.62 1181.65,-131.24 1182.41,-138.2"/>
<text text-anchor="middle" x="1024.43" y="-160.8" font-family="Times,serif" font-size="14.00">type</text>
</g>
<!-- &quot;UN Department of Economic...&quot; -->
<g id="node20" class="node">
<title>&quot;UN Department of Economic...&quot;</title>
<ellipse fill="none" stroke="black" stroke-width="0" cx="1262.07" cy="-72" rx="162.47" ry="18"/>
<text text-anchor="middle" x="1262.07" y="-68.3" font-family="Times,serif" font-size="14.00">&quot;UN Department of Economic...&quot;</text>
</g>
<!-- grid.ac/institutes/grid.475727.4&#45;&gt;&quot;UN Department of Economic...&quot; -->
<g id="edge21" class="edge">
<title>grid.ac/institutes/grid.475727.4&#45;&gt;&quot;UN Department of Economic...&quot;</title>
<path fill="none" stroke="black" d="M909.13,-170.98C923.52,-166.63 937.44,-160.79 949.93,-153 961.86,-145.56 956.24,-134.8 967.93,-127 1017.47,-93.98 1040.44,-110.12 1098.93,-99 1118,-95.38 1138.38,-91.77 1158.03,-88.43"/>
<polygon fill="black" stroke="black" points="1158.63,-91.88 1167.91,-86.77 1157.47,-84.98 1158.63,-91.88"/>
<text text-anchor="middle" x="1024.43" y="-130.8" font-family="Times,serif" font-size="14.00">description</text>
</g>
<!-- &quot;https//registry.identifie...&quot; -->
<g id="node21" class="node">
<title>&quot;https//registry.identifie...&quot;</title>
<ellipse fill="none" stroke="black" stroke-width="0" cx="1262.07" cy="-18" rx="135.38" ry="18"/>
<text text-anchor="middle" x="1262.07" y="-14.3" font-family="Times,serif" font-size="14.00">&quot;https//registry.identifie...&quot;</text>
</g>
<!-- grid.ac/institutes/grid.475727.4&#45;&gt;&quot;https//registry.identifie...&quot; -->
<g id="edge22" class="edge">
<title>grid.ac/institutes/grid.475727.4&#45;&gt;&quot;https//registry.identifie...&quot;</title>
<path fill="none" stroke="black" d="M917.97,-172.92C929.64,-168.02 940.53,-161.52 949.93,-153 974.05,-131.14 945.23,-105.33 967.93,-82 1010.13,-38.65 1039.89,-58.21 1098.93,-45 1118.68,-40.58 1139.92,-36.54 1160.32,-33.01"/>
<polygon fill="black" stroke="black" points="1160.98,-36.44 1170.25,-31.31 1159.81,-29.54 1160.98,-36.44"/>
<text text-anchor="middle" x="1024.43" y="-85.8" font-family="Times,serif" font-size="14.00">propertyID</text>
</g>
<!-- &quot;https//grid.ac/institutes...&quot; -->
<g id="node22" class="node">
<title>&quot;https//grid.ac/institutes...&quot;</title>
<ellipse fill="none" stroke="black" stroke-width="0" cx="1262.07" cy="-180" rx="137.58" ry="18"/>
<text text-anchor="middle" x="1262.07" y="-176.3" font-family="Times,serif" font-size="14.00">&quot;https//grid.ac/institutes...&quot;</text>
</g>
<!-- grid.ac/institutes/grid.475727.4&#45;&gt;&quot;https//grid.ac/institutes...&quot; -->
<g id="edge23" class="edge">
<title>grid.ac/institutes/grid.475727.4&#45;&gt;&quot;https//grid.ac/institutes...&quot;</title>
<path fill="none" stroke="black" d="M929.8,-180C988.83,-180 1055.56,-180 1113.58,-180"/>
<polygon fill="black" stroke="black" points="1113.94,-183.5 1123.94,-180 1113.94,-176.5 1113.94,-183.5"/>
<text text-anchor="middle" x="1024.43" y="-183.8" font-family="Times,serif" font-size="14.00">url</text>
</g>
<!-- sdgs.un.org/goals/goal14&#45;&gt;CreativeWork -->
<g id="edge24" class="edge">
<title>sdgs.un.org/goals/goal14&#45;&gt;CreativeWork</title>
<path fill="none" stroke="black" d="M815.14,-369.85C857.72,-388.86 920.32,-424.2 949.93,-477 983.25,-536.41 925.05,-730.07 967.93,-783 1000.71,-823.46 1041.52,-779.96 1080.93,-814 1095.99,-827.01 1083.22,-842.78 1098.93,-855 1121.3,-872.4 1150.71,-880.36 1178.34,-883.59"/>
<polygon fill="black" stroke="black" points="1178.12,-887.09 1188.42,-884.58 1178.8,-880.12 1178.12,-887.09"/>
<text text-anchor="middle" x="1024.43" y="-817.8" font-family="Times,serif" font-size="14.00">type</text>
</g>
<!-- &quot;Conserve and sustainably ...&quot; -->
<g id="node23" class="node">
<title>&quot;Conserve and sustainably ...&quot;</title>
<ellipse fill="none" stroke="black" stroke-width="0" cx="1262.07" cy="-288" rx="150.57" ry="18"/>
<text text-anchor="middle" x="1262.07" y="-284.3" font-family="Times,serif" font-size="14.00">&quot;Conserve and sustainably ...&quot;</text>
</g>
<!-- sdgs.un.org/goals/goal14&#45;&gt;&quot;Conserve and sustainably ...&quot; -->
<g id="edge25" class="edge">
<title>sdgs.un.org/goals/goal14&#45;&gt;&quot;Conserve and sustainably ...&quot;</title>
<path fill="none" stroke="black" d="M863.62,-340.77C945.01,-329.97 1063.9,-314.18 1150.43,-302.69"/>
<polygon fill="black" stroke="black" points="1151.1,-306.13 1160.55,-301.35 1150.18,-299.19 1151.1,-306.13"/>
<text text-anchor="middle" x="1024.43" y="-329.8" font-family="Times,serif" font-size="14.00">description</text>
</g>
<!-- &quot;Sustainable Development G...&quot; -->
<g id="node24" class="node">
<title>&quot;Sustainable Development G...&quot;</title>
<ellipse fill="none" stroke="black" stroke-width="0" cx="1262.07" cy="-234" rx="157.07" ry="18"/>
<text text-anchor="middle" x="1262.07" y="-230.3" font-family="Times,serif" font-size="14.00">&quot;Sustainable Development G...&quot;</text>
</g>
<!-- sdgs.un.org/goals/goal14&#45;&gt;&quot;Sustainable Development G...&quot; -->
<g id="edge26" class="edge">
<title>sdgs.un.org/goals/goal14&#45;&gt;&quot;Sustainable Development G...&quot;</title>
<path fill="none" stroke="black" d="M895.28,-349.4C914.76,-344.7 933.77,-337.32 949.93,-326 963.62,-316.42 954.69,-303.18 967.93,-293 1015.44,-256.47 1040.22,-273.04 1098.93,-261 1117.74,-257.14 1137.86,-253.45 1157.3,-250.1"/>
<polygon fill="black" stroke="black" points="1158.12,-253.51 1167.39,-248.38 1156.95,-246.61 1158.12,-253.51"/>
<text text-anchor="middle" x="1024.43" y="-296.8" font-family="Times,serif" font-size="14.00">name</text>
</g>
<!-- &quot;https//sdgs.un.org/goals/...&quot; -->
<g id="node25" class="node">
<title>&quot;https//sdgs.un.org/goals/...&quot;</title>
<ellipse fill="none" stroke="black" stroke-width="0" cx="1262.07" cy="-342" rx="143.77" ry="18"/>
<text text-anchor="middle" x="1262.07" y="-338.3" font-family="Times,serif" font-size="14.00">&quot;https//sdgs.un.org/goals/...&quot;</text>
</g>
<!-- sdgs.un.org/goals/goal14&#45;&gt;&quot;https//sdgs.un.org/goals/...&quot; -->
<g id="edge27" class="edge">
<title>sdgs.un.org/goals/goal14&#45;&gt;&quot;https//sdgs.un.org/goals/...&quot;</title>
<path fill="none" stroke="black" d="M896.02,-350.2C961.22,-348.74 1041.58,-346.93 1110.29,-345.39"/>
<polygon fill="black" stroke="black" points="1110.42,-348.89 1120.34,-345.16 1110.26,-341.89 1110.42,-348.89"/>
<text text-anchor="middle" x="1024.43" y="-351.8" font-family="Times,serif" font-size="14.00">url</text>
</g>
</g>
</svg>