<?xml version="1.0" encoding="UTF-8" standalone="no"?>
<!DOCTYPE svg PUBLIC "-//W3C//DTD SVG 1.1//EN"
 "http://www.w3.org/Graphics/SVG/1.1/DTD/svg11.dtd">
<!-- Generated by graphviz version 2.43.0 (0)
 -->
<!-- Title: %3 Pages: 1 -->
<svg width="1375pt" height="476pt"
 viewBox="0.00 0.00 1375.20 476.00" xmlns="http://www.w3.org/2000/svg" xmlns:xlink="http://www.w3.org/1999/xlink">
<g id="graph0" class="graph" transform="scale(1 1) rotate(0) translate(4 472)">
<title>%3</title>
<polygon fill="white" stroke="transparent" points="-4,4 -4,-472 1371.2,-472 1371.2,4 -4,4"/>
<!-- CreativeWork -->
<g id="node1" class="node">
<title>CreativeWork</title>
<ellipse fill="none" stroke="#558855" cx="1204.07" cy="-450" rx="74.19" ry="18"/>
<text text-anchor="middle" x="1204.07" y="-446.3" font-family="Times,serif" font-size="14.00">CreativeWork</text>
</g>
<!-- purl.unep.org/sdg/SDGIO_00020173 -->
<g id="node2" class="node">
<title>purl.unep.org/sdg/SDGIO_00020173</title>
<ellipse fill="none" stroke="#558855" cx="708.55" cy="-342" rx="179.27" ry="18"/>
<text text-anchor="middle" x="708.55" y="-338.3" font-family="Times,serif" font-size="14.00">purl.unep.org/sdg/SDGIO_00020173</text>
</g>
<!-- purl.unep.org/sdg/SDGIO_00020173&#45;&gt;CreativeWork -->
<g id="edge1" class="edge">
<title>purl.unep.org/sdg/SDGIO_00020173&#45;&gt;CreativeWork</title>
<path fill="none" stroke="black" d="M770.4,-358.91C809.09,-369.46 860.32,-383.07 905.93,-394 965.61,-408.3 980.65,-411.51 1040.93,-423 1070.27,-428.59 1102.71,-434.12 1130.82,-438.71"/>
<polygon fill="black" stroke="black" points="1130.54,-442.21 1140.97,-440.35 1131.66,-435.3 1130.54,-442.21"/>
<text text-anchor="middle" x="964.43" y="-422.8" font-family="Times,serif" font-size="14.00">type</text>
</g>
<!-- &quot;Number of countries makin...&quot; -->
<g id="node3" class="node">
<title>&quot;Number of countries makin...&quot;</title>
<ellipse fill="none" stroke="black" stroke-width="0" cx="1204.07" cy="-396" rx="155.17" ry="18"/>
<text text-anchor="middle" x="1204.07" y="-392.3" font-family="Times,serif" font-size="14.00">&quot;Number of countries makin...&quot;</text>
</g>
<!-- purl.unep.org/sdg/SDGIO_00020173&#45;&gt;&quot;Number of countries makin...&quot; -->
<g id="edge2" class="edge">
<title>purl.unep.org/sdg/SDGIO_00020173&#45;&gt;&quot;Number of countries makin...&quot;</title>
<path fill="none" stroke="black" d="M830.59,-355.24C906.52,-363.55 1004.11,-374.23 1080.36,-382.57"/>
<polygon fill="black" stroke="black" points="1080.17,-386.07 1090.49,-383.68 1080.93,-379.12 1080.17,-386.07"/>
<text text-anchor="middle" x="964.43" y="-378.8" font-family="Times,serif" font-size="14.00">description</text>
</g>
<!-- &quot;UNSD SDG indicator codeC1...&quot; -->
<g id="node4" class="node">
<title>&quot;UNSD SDG indicator codeC1...&quot;</title>
<ellipse fill="none" stroke="black" stroke-width="0" cx="1204.07" cy="-342" rx="163.27" ry="18"/>
<text text-anchor="middle" x="1204.07" y="-338.3" font-family="Times,serif" font-size="14.00">&quot;UNSD SDG indicator codeC1...&quot;</text>
</g>
<!-- purl.unep.org/sdg/SDGIO_00020173&#45;&gt;&quot;UNSD SDG indicator codeC1...&quot; -->
<g id="edge3" class="edge">
<title>purl.unep.org/sdg/SDGIO_00020173&#45;&gt;&quot;UNSD SDG indicator codeC1...&quot;</title>
<path fill="none" stroke="black" d="M888.07,-342C934.48,-342 984.38,-342 1030.48,-342"/>
<polygon fill="black" stroke="black" points="1030.56,-345.5 1040.56,-342 1030.56,-338.5 1030.56,-345.5"/>
<text text-anchor="middle" x="964.43" y="-345.8" font-family="Times,serif" font-size="14.00">name</text>
</g>
<!-- &quot;http//www.ontobee.org/ont...&quot; -->
<g id="node5" class="node">
<title>&quot;http//www.ontobee.org/ont...&quot;</title>
<ellipse fill="none" stroke="black" stroke-width="0" cx="1204.07" cy="-288" rx="152.97" ry="18"/>
<text text-anchor="middle" x="1204.07" y="-284.3" font-family="Times,serif" font-size="14.00">&quot;http//www.ontobee.org/ont...&quot;</text>
</g>
<!-- purl.unep.org/sdg/SDGIO_00020173&#45;&gt;&quot;http//www.ontobee.org/ont...&quot; -->
<g id="edge4" class="edge">
<title>purl.unep.org/sdg/SDGIO_00020173&#45;&gt;&quot;http//www.ontobee.org/ont...&quot;</title>
<path fill="none" stroke="black" d="M830.59,-328.76C906.79,-320.42 1004.82,-309.69 1081.18,-301.34"/>
<polygon fill="black" stroke="black" points="1081.77,-304.79 1091.33,-300.23 1081.01,-297.83 1081.77,-304.79"/>
<text text-anchor="middle" x="964.43" y="-322.8" font-family="Times,serif" font-size="14.00">url</text>
</g>
<!-- example.org/permanentUrlToThisJsonDoc -->
<g id="node6" class="node">
<title>example.org/permanentUrlToThisJsonDoc</title>
<ellipse fill="none" stroke="black" cx="204.08" cy="-215" rx="204.16" ry="18"/>
<text text-anchor="middle" x="204.08" y="-211.3" font-family="Times,serif" font-size="14.00">example.org/permanentUrlToThisJsonDoc</text>
</g>
<!-- example.org/permanentUrlToThisJsonDoc&#45;&gt;CreativeWork -->
<g id="edge5" class="edge">
<title>example.org/permanentUrlToThisJsonDoc&#45;&gt;CreativeWork</title>
<path fill="none" stroke="black" d="M235.68,-232.98C291.87,-265.21 416.14,-332.82 529.16,-369 691.15,-420.85 736.91,-417.07 905.93,-436 977.86,-444.06 1060.08,-447.49 1119.77,-448.94"/>
<polygon fill="black" stroke="black" points="1119.82,-452.44 1129.9,-449.18 1119.98,-445.45 1119.82,-452.44"/>
<text text-anchor="middle" x="708.55" y="-436.8" font-family="Times,serif" font-size="14.00">type</text>
</g>
<!-- example.org/permanentUrlToThisJsonDoc&#45;&gt;purl.unep.org/sdg/SDGIO_00020173 -->
<g id="edge6" class="edge">
<title>example.org/permanentUrlToThisJsonDoc&#45;&gt;purl.unep.org/sdg/SDGIO_00020173</title>
<path fill="none" stroke="black" d="M272.33,-232C365.53,-255.55 533.52,-298.01 631.28,-322.72"/>
<polygon fill="black" stroke="black" points="630.55,-326.15 641.1,-325.21 632.26,-319.36 630.55,-326.15"/>
<text text-anchor="middle" x="468.66" y="-292.8" font-family="Times,serif" font-size="14.00">citation</text>
</g>
<!-- &quot;Description of the resour...&quot; -->
<g id="node7" class="node">
<title>&quot;Description of the resour...&quot;</title>
<ellipse fill="none" stroke="black" stroke-width="0" cx="708.55" cy="-234" rx="143.77" ry="18"/>
<text text-anchor="middle" x="708.55" y="-230.3" font-family="Times,serif" font-size="14.00">&quot;Description of the resour...&quot;</text>
</g>
<!-- example.org/permanentUrlToThisJsonDoc&#45;&gt;&quot;Description of the resour...&quot; -->
<g id="edge7" class="edge">
<title>example.org/permanentUrlToThisJsonDoc&#45;&gt;&quot;Description of the resour...&quot;</title>
<path fill="none" stroke="black" d="M391.82,-222.06C447.55,-224.17 507.82,-226.45 560.62,-228.44"/>
<polygon fill="black" stroke="black" points="560.61,-231.95 570.73,-228.83 560.87,-224.95 560.61,-231.95"/>
<text text-anchor="middle" x="468.66" y="-229.8" font-family="Times,serif" font-size="14.00">description</text>
</g>
<!-- _ -->
<g id="node8" class="node">
<title>_</title>
<ellipse fill="none" stroke="#558855" cx="708.55" cy="-180" rx="27" ry="18"/>
<text text-anchor="middle" x="708.55" y="-176.3" font-family="Times,serif" font-size="14.00">_</text>
</g>
<!-- example.org/permanentUrlToThisJsonDoc&#45;&gt;_ -->
<g id="edge8" class="edge">
<title>example.org/permanentUrlToThisJsonDoc&#45;&gt;_</title>
<path fill="none" stroke="black" d="M364.76,-203.88C473.14,-196.33 607.87,-186.94 671.31,-182.52"/>
<polygon fill="black" stroke="black" points="671.85,-186 681.58,-181.81 671.36,-179.01 671.85,-186"/>
<text text-anchor="middle" x="468.66" y="-202.8" font-family="Times,serif" font-size="14.00">distribution</text>
</g>
<!-- ror.org/050bms902 -->
<g id="node9" class="node">
<title>ror.org/050bms902</title>
<ellipse fill="none" stroke="#558855" cx="708.55" cy="-99" rx="100.18" ry="18"/>
<text text-anchor="middle" x="708.55" y="-95.3" font-family="Times,serif" font-size="14.00">ror.org/050bms902</text>
</g>
<!-- example.org/permanentUrlToThisJsonDoc&#45;&gt;ror.org/050bms902 -->
<g id="edge9" class="edge">
<title>example.org/permanentUrlToThisJsonDoc&#45;&gt;ror.org/050bms902</title>
<path fill="none" stroke="black" d="M277.88,-198.19C373.76,-176.06 541.3,-137.38 636.37,-115.43"/>
<polygon fill="black" stroke="black" points="637.22,-118.83 646.18,-113.17 635.65,-112.01 637.22,-118.83"/>
<text text-anchor="middle" x="468.66" y="-166.8" font-family="Times,serif" font-size="14.00">maintainer</text>
</g>
<!-- &quot;Name or title of the docu...&quot; -->
<g id="node10" class="node">
<title>&quot;Name or title of the docu...&quot;</title>
<ellipse fill="none" stroke="black" stroke-width="0" cx="708.55" cy="-45" rx="144.87" ry="18"/>
<text text-anchor="middle" x="708.55" y="-41.3" font-family="Times,serif" font-size="14.00">&quot;Name or title of the docu...&quot;</text>
</g>
<!-- example.org/permanentUrlToThisJsonDoc&#45;&gt;&quot;Name or title of the docu...&quot; -->
<g id="edge10" class="edge">
<title>example.org/permanentUrlToThisJsonDoc&#45;&gt;&quot;Name or title of the docu...&quot;</title>
<path fill="none" stroke="black" d="M237.58,-197.17C294.75,-166.6 417.85,-104.36 529.16,-72 548.08,-66.5 568.46,-62.08 588.45,-58.53"/>
<polygon fill="black" stroke="black" points="589.27,-61.94 598.54,-56.8 588.09,-55.04 589.27,-61.94"/>
<text text-anchor="middle" x="468.66" y="-110.8" font-family="Times,serif" font-size="14.00">name</text>
</g>
<!-- DataDownload -->
<g id="node13" class="node">
<title>DataDownload</title>
<ellipse fill="none" stroke="#558855" cx="1204.07" cy="-234" rx="78.79" ry="18"/>
<text text-anchor="middle" x="1204.07" y="-230.3" font-family="Times,serif" font-size="14.00">DataDownload</text>
</g>
<!-- _&#45;&gt;DataDownload -->
<g id="edge13" class="edge">
<title>_&#45;&gt;DataDownload</title>
<path fill="none" stroke="black" d="M735.39,-182.83C806.72,-190.63 1008.6,-212.72 1122.43,-225.18"/>
<polygon fill="black" stroke="black" points="1122.16,-228.67 1132.49,-226.28 1122.93,-221.71 1122.16,-228.67"/>
<text text-anchor="middle" x="964.43" y="-216.8" font-family="Times,serif" font-size="14.00">type</text>
</g>
<!-- &quot;https//www.sample&#45;data&#45;re...&quot; -->
<g id="node14" class="node">
<title>&quot;https//www.sample&#45;data&#45;re...&quot;</title>
<ellipse fill="none" stroke="black" stroke-width="0" cx="1204.07" cy="-180" rx="153.27" ry="18"/>
<text text-anchor="middle" x="1204.07" y="-176.3" font-family="Times,serif" font-size="14.00">&quot;https//www.sample&#45;data&#45;re...&quot;</text>
</g>
<!-- _&#45;&gt;&quot;https//www.sample&#45;data&#45;re...&quot; -->
<g id="edge14" class="edge">
<title>_&#45;&gt;&quot;https//www.sample&#45;data&#45;re...&quot;</title>
<path fill="none" stroke="black" d="M735.73,-180C792.16,-180 929.11,-180 1040.26,-180"/>
<polygon fill="black" stroke="black" points="1040.59,-183.5 1050.59,-180 1040.59,-176.5 1040.59,-183.5"/>
<text text-anchor="middle" x="964.43" y="-183.8" font-family="Times,serif" font-size="14.00">contentUrl</text>
</g>
<!-- &quot;text/tab&#45;separated&#45;values&quot; -->
<g id="node15" class="node">
<title>&quot;text/tab&#45;separated&#45;values&quot;</title>
<ellipse fill="none" stroke="black" stroke-width="0" cx="1204.07" cy="-126" rx="137.58" ry="18"/>
<text text-anchor="middle" x="1204.07" y="-122.3" font-family="Times,serif" font-size="14.00">&quot;text/tab&#45;separated&#45;values&quot;</text>
</g>
<!-- _&#45;&gt;&quot;text/tab&#45;separated&#45;values&quot; -->
<g id="edge15" class="edge">
<title>_&#45;&gt;&quot;text/tab&#45;separated&#45;values&quot;</title>
<path fill="none" stroke="black" d="M735.39,-177.17C799.95,-170.11 971.45,-151.34 1087.82,-138.61"/>
<polygon fill="black" stroke="black" points="1088.29,-142.08 1097.85,-137.51 1087.53,-135.12 1088.29,-142.08"/>
<text text-anchor="middle" x="964.43" y="-160.8" font-family="Times,serif" font-size="14.00">encodingFormat</text>
</g>
<!-- Organization -->
<g id="node11" class="node">
<title>Organization</title>
<ellipse fill="none" stroke="#558855" cx="1204.07" cy="-72" rx="70.69" ry="18"/>
<text text-anchor="middle" x="1204.07" y="-68.3" font-family="Times,serif" font-size="14.00">Organization</text>
</g>
<!-- ror.org/050bms902&#45;&gt;Organization -->
<g id="edge11" class="edge">
<title>ror.org/050bms902&#45;&gt;Organization</title>
<path fill="none" stroke="black" d="M804.41,-93.81C897.46,-88.72 1037.68,-81.05 1124.63,-76.29"/>
<polygon fill="black" stroke="black" points="1124.91,-79.78 1134.7,-75.74 1124.53,-72.79 1124.91,-79.78"/>
<text text-anchor="middle" x="964.43" y="-90.8" font-family="Times,serif" font-size="14.00">type</text>
</g>
<!-- &quot;UN Department of Economic...&quot; -->
<g id="node12" class="node">
<title>&quot;UN Department of Economic...&quot;</title>
<ellipse fill="none" stroke="black" stroke-width="0" cx="1204.07" cy="-18" rx="162.47" ry="18"/>
<text text-anchor="middle" x="1204.07" y="-14.3" font-family="Times,serif" font-size="14.00">&quot;UN Department of Economic...&quot;</text>
</g>
<!-- ror.org/050bms902&#45;&gt;&quot;UN Department of Economic...&quot; -->
<g id="edge12" class="edge">
<title>ror.org/050bms902&#45;&gt;&quot;UN Department of Economic...&quot;</title>
<path fill="none" stroke="black" d="M798.81,-91.06C827.69,-87.03 859.57,-80.99 887.93,-72 896.46,-69.3 897.41,-65.7 905.93,-63 956.06,-47.11 1012.76,-36.76 1063.11,-30.04"/>
<polygon fill="black" stroke="black" points="1063.62,-33.51 1073.09,-28.75 1062.72,-26.57 1063.62,-33.51"/>
<text text-anchor="middle" x="964.43" y="-66.8" font-family="Times,serif" font-size="14.00">description</text>
</g>
</g>
</svg>