<?xml version="1.0" encoding="UTF-8" standalone="no"?>
<!DOCTYPE svg PUBLIC "-//W3C//DTD SVG 1.1//EN"
 "http://www.w3.org/Graphics/SVG/1.1/DTD/svg11.dtd">
<!-- Generated by graphviz version 2.43.0 (0)
 -->
<!-- Title: %3 Pages: 1 -->
<svg width="1341pt" height="260pt"
 viewBox="0.00 0.00 1340.70 260.00" xmlns="http://www.w3.org/2000/svg" xmlns:xlink="http://www.w3.org/1999/xlink">
<g id="graph0" class="graph" transform="scale(1 1) rotate(0) translate(4 256)">
<title>%3</title>
<polygon fill="white" stroke="transparent" points="-4,4 -4,-256 1336.7,-256 1336.7,4 -4,4"/>
<!-- CreativeWork -->
<g id="node1" class="node">
<title>CreativeWork</title>
<ellipse fill="none" stroke="#558855" cx="719.64" cy="-180" rx="74.19" ry="18"/>
<text text-anchor="middle" x="719.64" y="-176.3" font-family="Times,serif" font-size="14.00">CreativeWork</text>
</g>
<!-- example.org/permanentUrlToThisJsonDoc -->
<g id="node2" class="node">
<title>example.org/permanentUrlToThisJsonDoc</title>
<ellipse fill="none" stroke="black" cx="204.08" cy="-153" rx="204.16" ry="18"/>
<text text-anchor="middle" x="204.08" y="-149.3" font-family="Times,serif" font-size="14.00">example.org/permanentUrlToThisJsonDoc</text>
</g>
<!-- example.org/permanentUrlToThisJsonDoc&#45;&gt;CreativeWork -->
<g id="edge1" class="edge">
<title>example.org/permanentUrlToThisJsonDoc&#45;&gt;CreativeWork</title>
<path fill="none" stroke="black" d="M379.67,-162.18C466.65,-166.75 567.71,-172.06 636.7,-175.69"/>
<polygon fill="black" stroke="black" points="636.89,-179.21 647.06,-176.24 637.26,-172.22 636.89,-179.21"/>
<text text-anchor="middle" x="450.16" y="-169.8" font-family="Times,serif" font-size="14.00">type</text>
</g>
<!-- www.sample&#45;data&#45;repository.org/person/51317 -->
<g id="node3" class="node">
<title>www.sample&#45;data&#45;repository.org/person/51317</title>
<ellipse fill="none" stroke="#558855" cx="719.64" cy="-126" rx="227.46" ry="18"/>
<text text-anchor="middle" x="719.64" y="-122.3" font-family="Times,serif" font-size="14.00">www.sample&#45;data&#45;repository.org/person/51317</text>
</g>
<!-- example.org/permanentUrlToThisJsonDoc&#45;&gt;www.sample&#45;data&#45;repository.org/person/51317 -->
<g id="edge2" class="edge">
<title>example.org/permanentUrlToThisJsonDoc&#45;&gt;www.sample&#45;data&#45;repository.org/person/51317</title>
<path fill="none" stroke="black" d="M379.67,-143.82C424.64,-141.46 473.37,-138.9 519.48,-136.47"/>
<polygon fill="black" stroke="black" points="519.79,-139.96 529.59,-135.94 519.42,-132.97 519.79,-139.96"/>
<text text-anchor="middle" x="450.16" y="-144.8" font-family="Times,serif" font-size="14.00">author</text>
</g>
<!-- Person -->
<g id="node4" class="node">
<title>Person</title>
<ellipse fill="none" stroke="#558855" cx="1201.41" cy="-234" rx="42.49" ry="18"/>
<text text-anchor="middle" x="1201.41" y="-230.3" font-family="Times,serif" font-size="14.00">Person</text>
</g>
<!-- www.sample&#45;data&#45;repository.org/person/51317&#45;&gt;Person -->
<g id="edge3" class="edge">
<title>www.sample&#45;data&#45;repository.org/person/51317&#45;&gt;Person</title>
<path fill="none" stroke="black" d="M911.02,-135.79C923.7,-140.31 935.88,-145.96 947.12,-153 959.67,-160.85 953.09,-172.39 965.12,-181 1004.22,-208.98 1023.24,-196.34 1070.12,-207 1097.44,-213.21 1128.12,-219.6 1152.84,-224.6"/>
<polygon fill="black" stroke="black" points="1152.21,-228.04 1162.7,-226.58 1153.59,-221.18 1152.21,-228.04"/>
<text text-anchor="middle" x="1008.62" y="-206.8" font-family="Times,serif" font-size="14.00">type</text>
</g>
<!-- &quot;Passow&quot; -->
<g id="node5" class="node">
<title>&quot;Passow&quot;</title>
<ellipse fill="none" stroke="black" stroke-width="0" cx="1201.41" cy="-180" rx="53.89" ry="18"/>
<text text-anchor="middle" x="1201.41" y="-176.3" font-family="Times,serif" font-size="14.00">&quot;Passow&quot;</text>
</g>
<!-- www.sample&#45;data&#45;repository.org/person/51317&#45;&gt;&quot;Passow&quot; -->
<g id="edge4" class="edge">
<title>www.sample&#45;data&#45;repository.org/person/51317&#45;&gt;&quot;Passow&quot;</title>
<path fill="none" stroke="black" d="M851.43,-140.72C945.44,-151.3 1067.86,-165.08 1139.92,-173.19"/>
<polygon fill="black" stroke="black" points="1139.85,-176.7 1150.17,-174.35 1140.63,-169.75 1139.85,-176.7"/>
<text text-anchor="middle" x="1008.62" y="-165.8" font-family="Times,serif" font-size="14.00">familyName</text>
</g>
<!-- &quot;Uta&quot; -->
<g id="node6" class="node">
<title>&quot;Uta&quot;</title>
<ellipse fill="none" stroke="black" stroke-width="0" cx="1201.41" cy="-126" rx="36.29" ry="18"/>
<text text-anchor="middle" x="1201.41" y="-122.3" font-family="Times,serif" font-size="14.00">&quot;Uta&quot;</text>
</g>
<!-- www.sample&#45;data&#45;repository.org/person/51317&#45;&gt;&quot;Uta&quot; -->
<g id="edge5" class="edge">
<title>www.sample&#45;data&#45;repository.org/person/51317&#45;&gt;&quot;Uta&quot;</title>
<path fill="none" stroke="black" d="M947.18,-126C1025.62,-126 1105.96,-126 1154.53,-126"/>
<polygon fill="black" stroke="black" points="1154.7,-129.5 1164.7,-126 1154.69,-122.5 1154.7,-129.5"/>
<text text-anchor="middle" x="1008.62" y="-129.8" font-family="Times,serif" font-size="14.00">givenName</text>
</g>
<!-- &quot;Dr Uta Passow&quot; -->
<g id="node7" class="node">
<title>&quot;Dr Uta Passow&quot;</title>
<ellipse fill="none" stroke="black" stroke-width="0" cx="1201.41" cy="-72" rx="88.28" ry="18"/>
<text text-anchor="middle" x="1201.41" y="-68.3" font-family="Times,serif" font-size="14.00">&quot;Dr Uta Passow&quot;</text>
</g>
<!-- www.sample&#45;data&#45;repository.org/person/51317&#45;&gt;&quot;Dr Uta Passow&quot; -->
<g id="edge6" class="edge">
<title>www.sample&#45;data&#45;repository.org/person/51317&#45;&gt;&quot;Dr Uta Passow&quot;</title>
<path fill="none" stroke="black" d="M851.43,-111.28C934.77,-101.9 1040.43,-90.01 1113.55,-81.78"/>
<polygon fill="black" stroke="black" points="1114.1,-85.24 1123.64,-80.64 1113.31,-78.28 1114.1,-85.24"/>
<text text-anchor="middle" x="1008.62" y="-100.8" font-family="Times,serif" font-size="14.00">name</text>
</g>
<!-- &quot;https//www.sample&#45;da...&quot; -->
<g id="node8" class="node">
<title>&quot;https//www.sample&#45;da...&quot;</title>
<ellipse fill="none" stroke="black" stroke-width="0" cx="1201.41" cy="-18" rx="131.08" ry="18"/>
<text text-anchor="middle" x="1201.41" y="-14.3" font-family="Times,serif" font-size="14.00">&quot;https//www.sample&#45;da...&quot;</text>
</g>
<!-- www.sample&#45;data&#45;repository.org/person/51317&#45;&gt;&quot;https//www.sample&#45;da...&quot; -->
<g id="edge7" class="edge">
<title>www.sample&#45;data&#45;repository.org/person/51317&#45;&gt;&quot;https//www.sample&#45;da...&quot;</title>
<path fill="none" stroke="black" d="M792.15,-108.91C862.71,-92.17 973.7,-66.16 1070.12,-45 1085.21,-41.69 1101.3,-38.27 1116.84,-35.02"/>
<polygon fill="black" stroke="black" points="1117.89,-38.37 1126.96,-32.91 1116.46,-31.52 1117.89,-38.37"/>
<text text-anchor="middle" x="1008.62" y="-69.8" font-family="Times,serif" font-size="14.00">url</text>
</g>
</g>
</svg>