<?xml version="1.0" encoding="UTF-8" standalone="no"?>
<!DOCTYPE svg PUBLIC "-//W3C//DTD SVG 1.1//EN"
 "http://www.w3.org/Graphics/SVG/1.1/DTD/svg11.dtd">
<!-- Generated by graphviz version 2.43.0 (0)
 -->
<!-- Title: %3 Pages: 1 -->
<svg width="1093pt" height="1076pt"
 viewBox="0.00 0.00 1093.23 1075.84" xmlns="http://www.w3.org/2000/svg" xmlns:xlink="http://www.w3.org/1999/xlink">
<g id="graph0" class="graph" transform="scale(1 1) rotate(0) translate(4 1071.84)">
<title>%3</title>
<polygon fill="white" stroke="transparent" points="-4,4 -4,-1071.84 1089.23,-1071.84 1089.23,4 -4,4"/>
<!-- Course -->
<g id="node1" class="node">
<title>Course</title>
<ellipse fill="none" stroke="#558855" cx="947.44" cy="-1049.84" rx="43.59" ry="18"/>
<text text-anchor="middle" x="947.44" y="-1046.14" font-family="Times,serif" font-size="14.00">Course</text>
</g>
<!-- example.org/id/course/x -->
<g id="node2" class="node">
<title>example.org/id/course/x</title>
<ellipse fill="none" stroke="#558855" cx="485.72" cy="-968.84" rx="122.38" ry="18"/>
<text text-anchor="middle" x="485.72" y="-965.14" font-family="Times,serif" font-size="14.00">example.org/id/course/x</text>
</g>
<!-- example.org/id/course/x&#45;&gt;Course -->
<g id="edge1" class="edge">
<title>example.org/id/course/x&#45;&gt;Course</title>
<path fill="none" stroke="black" d="M555.12,-983.68C587.37,-990.48 626.42,-998.43 661.66,-1004.84 743.25,-1019.67 838.52,-1034.15 895.59,-1042.53"/>
<polygon fill="black" stroke="black" points="895.38,-1046.03 905.79,-1044.02 896.4,-1039.11 895.38,-1046.03"/>
<text text-anchor="middle" x="726.66" y="-1029.64" font-family="Times,serif" font-size="14.00">type</text>
</g>
<!-- &quot;In this course ...&quot; -->
<g id="node3" class="node">
<title>&quot;In this course ...&quot;</title>
<ellipse fill="none" stroke="black" stroke-width="0" cx="947.44" cy="-995.84" rx="94.78" ry="18"/>
<text text-anchor="middle" x="947.44" y="-992.14" font-family="Times,serif" font-size="14.00">&quot;In this course ...&quot;</text>
</g>
<!-- example.org/id/course/x&#45;&gt;&quot;In this course ...&quot; -->
<g id="edge2" class="edge">
<title>example.org/id/course/x&#45;&gt;&quot;In this course ...&quot;</title>
<path fill="none" stroke="black" d="M599.48,-975.46C675.01,-979.9 773.57,-985.68 846.33,-989.96"/>
<polygon fill="black" stroke="black" points="846.23,-993.46 856.42,-990.55 846.64,-986.47 846.23,-993.46"/>
<text text-anchor="middle" x="726.66" y="-989.64" font-family="Times,serif" font-size="14.00">description</text>
</g>
<!-- &quot;URL to the course&quot; -->
<g id="node4" class="node">
<title>&quot;URL to the course&quot;</title>
<ellipse fill="none" stroke="black" stroke-width="0" cx="947.44" cy="-941.84" rx="103.98" ry="18"/>
<text text-anchor="middle" x="947.44" y="-938.14" font-family="Times,serif" font-size="14.00">&quot;URL to the course&quot;</text>
</g>
<!-- example.org/id/course/x&#45;&gt;&quot;URL to the course&quot; -->
<g id="edge3" class="edge">
<title>example.org/id/course/x&#45;&gt;&quot;URL to the course&quot;</title>
<path fill="none" stroke="black" d="M599.48,-962.22C672.34,-957.94 766.64,-952.4 838.53,-948.18"/>
<polygon fill="black" stroke="black" points="838.74,-951.67 848.52,-947.59 838.33,-944.68 838.74,-951.67"/>
<text text-anchor="middle" x="726.66" y="-961.64" font-family="Times,serif" font-size="14.00">url</text>
</g>
<!-- Person -->
<g id="node5" class="node">
<title>Person</title>
<ellipse fill="none" stroke="#558855" cx="485.72" cy="-806.84" rx="42.49" ry="18"/>
<text text-anchor="middle" x="485.72" y="-803.14" font-family="Times,serif" font-size="14.00">Person</text>
</g>
<!-- example.org/id/x -->
<g id="node6" class="node">
<title>example.org/id/x</title>
<ellipse fill="none" stroke="black" cx="88.39" cy="-519.84" rx="88.28" ry="18"/>
<text text-anchor="middle" x="88.39" y="-516.14" font-family="Times,serif" font-size="14.00">example.org/id/x</text>
</g>
<!-- example.org/id/x&#45;&gt;example.org/id/course/x -->
<g id="edge7" class="edge">
<title>example.org/id/x&#45;&gt;example.org/id/course/x</title>
<path fill="none" stroke="black" d="M92.32,-538.02C100.64,-584.79 128.31,-711.2 194.78,-790.84 259.14,-867.93 365.9,-921.14 430.35,-948.18"/>
<polygon fill="black" stroke="black" points="429.35,-951.55 439.93,-952.14 432.03,-945.08 429.35,-951.55"/>
<text text-anchor="middle" x="252.28" y="-888.64" font-family="Times,serif" font-size="14.00">knowsAbout</text>
</g>
<!-- example.org/id/x&#45;&gt;Person -->
<g id="edge4" class="edge">
<title>example.org/id/x&#45;&gt;Person</title>
<path fill="none" stroke="black" d="M95.74,-537.8C109.15,-573.62 143.41,-654.86 194.78,-705.84 242.8,-753.48 263.99,-757.34 327.78,-779.84 362.1,-791.94 402.62,-798.74 433.88,-802.48"/>
<polygon fill="black" stroke="black" points="433.78,-805.99 444.11,-803.64 434.57,-799.04 433.78,-805.99"/>
<text text-anchor="middle" x="252.28" y="-775.64" font-family="Times,serif" font-size="14.00">type</text>
</g>
<!-- orcid.org/0000&#45;0002&#45;2257&#45;9127 -->
<g id="node7" class="node">
<title>orcid.org/0000&#45;0002&#45;2257&#45;9127</title>
<ellipse fill="none" stroke="#558855" cx="485.72" cy="-752.84" rx="157.87" ry="18"/>
<text text-anchor="middle" x="485.72" y="-749.14" font-family="Times,serif" font-size="14.00">orcid.org/0000&#45;0002&#45;2257&#45;9127</text>
</g>
<!-- example.org/id/x&#45;&gt;orcid.org/0000&#45;0002&#45;2257&#45;9127 -->
<g id="edge5" class="edge">
<title>example.org/id/x&#45;&gt;orcid.org/0000&#45;0002&#45;2257&#45;9127</title>
<path fill="none" stroke="black" d="M103.81,-537.84C122.73,-560.54 157.9,-599.62 194.78,-624.84 266.68,-673.99 360.51,-711.29 421.66,-732.61"/>
<polygon fill="black" stroke="black" points="420.6,-735.94 431.19,-735.89 422.88,-729.33 420.6,-735.94"/>
<text text-anchor="middle" x="252.28" y="-690.64" font-family="Times,serif" font-size="14.00">identifier</text>
</g>
<!-- &quot;Professor&quot; -->
<g id="node8" class="node">
<title>&quot;Professor&quot;</title>
<ellipse fill="none" stroke="black" stroke-width="0" cx="485.72" cy="-614.84" rx="63.89" ry="18"/>
<text text-anchor="middle" x="485.72" y="-611.14" font-family="Times,serif" font-size="14.00">&quot;Professor&quot;</text>
</g>
<!-- example.org/id/x&#45;&gt;&quot;Professor&quot; -->
<g id="edge6" class="edge">
<title>example.org/id/x&#45;&gt;&quot;Professor&quot;</title>
<path fill="none" stroke="black" d="M112.69,-537.44C133.18,-551.93 164.38,-571.68 194.78,-581.84 266.1,-605.67 352.17,-612.96 411.92,-614.88"/>
<polygon fill="black" stroke="black" points="411.93,-618.38 422.02,-615.16 412.12,-611.38 411.93,-618.38"/>
<text text-anchor="middle" x="252.28" y="-609.64" font-family="Times,serif" font-size="14.00">jobTitle</text>
</g>
<!-- _ -->
<g id="node9" class="node">
<title>_</title>
<ellipse fill="none" stroke="#558855" cx="485.72" cy="-455.84" rx="27" ry="18"/>
<text text-anchor="middle" x="485.72" y="-452.14" font-family="Times,serif" font-size="14.00">_</text>
</g>
<!-- example.org/id/x&#45;&gt;_ -->
<g id="edge8" class="edge">
<title>example.org/id/x&#45;&gt;_</title>
<path fill="none" stroke="black" d="M128.18,-536.03C147.77,-543.36 172.14,-551.18 194.78,-554.84 245.24,-563 260.36,-567.85 309.78,-554.84 368.02,-539.5 427.24,-499.85 459.65,-475.64"/>
<polygon fill="black" stroke="black" points="461.83,-478.38 467.68,-469.55 457.6,-472.8 461.83,-478.38"/>
<text text-anchor="middle" x="252.28" y="-566.64" font-family="Times,serif" font-size="14.00">knowsAbout</text>
</g>
<!-- example.org/id/x&#45;&gt;_ -->
<g id="edge9" class="edge">
<title>example.org/id/x&#45;&gt;_</title>
<path fill="none" stroke="black" d="M173.19,-524.99C214.59,-525.94 265.13,-524.71 309.78,-516.84 361.97,-507.64 419.43,-485.02 453.77,-470.06"/>
<polygon fill="black" stroke="black" points="455.51,-473.12 463.24,-465.87 452.67,-466.72 455.51,-473.12"/>
<text text-anchor="middle" x="252.28" y="-528.64" font-family="Times,serif" font-size="14.00">knowsAbout</text>
</g>
<!-- example.org/id/x&#45;&gt;_ -->
<g id="edge10" class="edge">
<title>example.org/id/x&#45;&gt;_</title>
<path fill="none" stroke="black" d="M149.18,-506.69C164.05,-503.6 179.97,-500.46 194.78,-497.84 285.88,-481.75 393.88,-467.32 448.78,-460.32"/>
<polygon fill="black" stroke="black" points="449.56,-463.75 459.04,-459.02 448.68,-456.8 449.56,-463.75"/>
<text text-anchor="middle" x="252.28" y="-501.64" font-family="Times,serif" font-size="14.00">knowsLanguage</text>
</g>
<!-- example.org/id/x&#45;&gt;_ -->
<g id="edge12" class="edge">
<title>example.org/id/x&#45;&gt;_</title>
<path fill="none" stroke="black" d="M112.61,-502.37C133.04,-488.14 164.22,-469.09 194.78,-460.84 283.59,-436.85 393.33,-444.56 448.88,-450.94"/>
<polygon fill="black" stroke="black" points="448.58,-454.43 458.93,-452.14 449.42,-447.48 448.58,-454.43"/>
<text text-anchor="middle" x="252.28" y="-464.64" font-family="Times,serif" font-size="14.00">nationality</text>
</g>
<!-- example.org/id/x&#45;&gt;_ -->
<g id="edge13" class="edge">
<title>example.org/id/x&#45;&gt;_</title>
<path fill="none" stroke="black" d="M102.63,-501.76C120.56,-479 154.92,-441.03 194.78,-425.84 240.57,-408.39 382.98,-434.5 449.64,-448.26"/>
<polygon fill="black" stroke="black" points="449.16,-451.73 459.66,-450.35 450.59,-444.88 449.16,-451.73"/>
<text text-anchor="middle" x="252.28" y="-429.64" font-family="Times,serif" font-size="14.00">nationality</text>
</g>
<!-- &quot;Jane Doe&quot; -->
<g id="node10" class="node">
<title>&quot;Jane Doe&quot;</title>
<ellipse fill="none" stroke="black" stroke-width="0" cx="485.72" cy="-394.84" rx="60.39" ry="18"/>
<text text-anchor="middle" x="485.72" y="-391.14" font-family="Times,serif" font-size="14.00">&quot;Jane Doe&quot;</text>
</g>
<!-- example.org/id/x&#45;&gt;&quot;Jane Doe&quot; -->
<g id="edge11" class="edge">
<title>example.org/id/x&#45;&gt;&quot;Jane Doe&quot;</title>
<path fill="none" stroke="black" d="M98.78,-501.95C114.42,-474.31 148.7,-422.16 194.78,-400.84 268.76,-366.61 365.11,-373.28 425.97,-382.8"/>
<polygon fill="black" stroke="black" points="425.72,-386.31 436.16,-384.47 426.86,-379.4 425.72,-386.31"/>
<text text-anchor="middle" x="252.28" y="-404.64" font-family="Times,serif" font-size="14.00">name</text>
</g>
<!-- &quot;(425) 123&#45;4567&quot; -->
<g id="node11" class="node">
<title>&quot;(425) 123&#45;4567&quot;</title>
<ellipse fill="none" stroke="black" stroke-width="0" cx="485.72" cy="-340.84" rx="90.98" ry="18"/>
<text text-anchor="middle" x="485.72" y="-337.14" font-family="Times,serif" font-size="14.00">&quot;(425) 123&#45;4567&quot;</text>
</g>
<!-- example.org/id/x&#45;&gt;&quot;(425) 123&#45;4567&quot; -->
<g id="edge14" class="edge">
<title>example.org/id/x&#45;&gt;&quot;(425) 123&#45;4567&quot;</title>
<path fill="none" stroke="black" d="M94.86,-501.71C106.59,-466.38 137.84,-388.87 194.78,-355.84 260.14,-317.92 348.37,-319.27 410.28,-326.9"/>
<polygon fill="black" stroke="black" points="409.99,-330.39 420.36,-328.22 410.91,-323.45 409.99,-330.39"/>
<text text-anchor="middle" x="252.28" y="-359.64" font-family="Times,serif" font-size="14.00">telephone</text>
</g>
<!-- &quot;http//www.janedoe.co...&quot; -->
<g id="node12" class="node">
<title>&quot;http//www.janedoe.co...&quot;</title>
<ellipse fill="none" stroke="black" stroke-width="0" cx="485.72" cy="-286.84" rx="128.08" ry="18"/>
<text text-anchor="middle" x="485.72" y="-283.14" font-family="Times,serif" font-size="14.00">&quot;http//www.janedoe.co...&quot;</text>
</g>
<!-- example.org/id/x&#45;&gt;&quot;http//www.janedoe.co...&quot; -->
<g id="edge15" class="edge">
<title>example.org/id/x&#45;&gt;&quot;http//www.janedoe.co...&quot;</title>
<path fill="none" stroke="black" d="M92.1,-501.72C99.57,-458.9 124.77,-351.57 194.78,-304.84 254.98,-264.66 338.81,-263.87 400.84,-270.94"/>
<polygon fill="black" stroke="black" points="400.64,-274.44 411,-272.18 401.5,-267.49 400.64,-274.44"/>
<text text-anchor="middle" x="252.28" y="-308.64" font-family="Times,serif" font-size="14.00">url</text>
</g>
<!-- PropertyValue -->
<g id="node13" class="node">
<title>PropertyValue</title>
<ellipse fill="none" stroke="#558855" cx="947.44" cy="-887.84" rx="77.19" ry="18"/>
<text text-anchor="middle" x="947.44" y="-884.14" font-family="Times,serif" font-size="14.00">PropertyValue</text>
</g>
<!-- orcid.org/0000&#45;0002&#45;2257&#45;9127&#45;&gt;PropertyValue -->
<g id="edge16" class="edge">
<title>orcid.org/0000&#45;0002&#45;2257&#45;9127&#45;&gt;PropertyValue</title>
<path fill="none" stroke="black" d="M616.67,-763.08C626.45,-767.37 635.62,-772.86 643.66,-779.84 663.4,-796.98 642.01,-818.6 661.66,-835.84 716.77,-884.19 801.55,-894.32 864.28,-894.09"/>
<polygon fill="black" stroke="black" points="864.59,-897.59 874.55,-893.96 864.5,-890.59 864.59,-897.59"/>
<text text-anchor="middle" x="726.66" y="-891.64" font-family="Times,serif" font-size="14.00">type</text>
</g>
<!-- &quot;Optional description...&quot; -->
<g id="node14" class="node">
<title>&quot;Optional description...&quot;</title>
<ellipse fill="none" stroke="black" stroke-width="0" cx="947.44" cy="-833.84" rx="122.68" ry="18"/>
<text text-anchor="middle" x="947.44" y="-830.14" font-family="Times,serif" font-size="14.00">&quot;Optional description...&quot;</text>
</g>
<!-- orcid.org/0000&#45;0002&#45;2257&#45;9127&#45;&gt;&quot;Optional description...&quot; -->
<g id="edge17" class="edge">
<title>orcid.org/0000&#45;0002&#45;2257&#45;9127&#45;&gt;&quot;Optional description...&quot;</title>
<path fill="none" stroke="black" d="M590.77,-766.31C608.63,-769.88 626.84,-774.32 643.66,-779.84 652.15,-782.63 653.14,-786.11 661.66,-788.84 715.84,-806.21 778.06,-817.02 830.49,-823.68"/>
<polygon fill="black" stroke="black" points="830.15,-827.17 840.5,-824.92 831,-820.22 830.15,-827.17"/>
<text text-anchor="middle" x="726.66" y="-820.64" font-family="Times,serif" font-size="14.00">description</text>
</g>
<!-- &quot;https//registry.iden...&quot; -->
<g id="node15" class="node">
<title>&quot;https//registry.iden...&quot;</title>
<ellipse fill="none" stroke="black" stroke-width="0" cx="947.44" cy="-779.84" rx="116.98" ry="18"/>
<text text-anchor="middle" x="947.44" y="-776.14" font-family="Times,serif" font-size="14.00">&quot;https//registry.iden...&quot;</text>
</g>
<!-- orcid.org/0000&#45;0002&#45;2257&#45;9127&#45;&gt;&quot;https//registry.iden...&quot; -->
<g id="edge18" class="edge">
<title>orcid.org/0000&#45;0002&#45;2257&#45;9127&#45;&gt;&quot;https//registry.iden...&quot;</title>
<path fill="none" stroke="black" d="M626.53,-761.05C690.84,-764.83 766.32,-769.26 827.81,-772.87"/>
<polygon fill="black" stroke="black" points="827.75,-776.37 837.94,-773.47 828.17,-769.39 827.75,-776.37"/>
<text text-anchor="middle" x="726.66" y="-773.64" font-family="Times,serif" font-size="14.00">propertyID</text>
</g>
<!-- &quot;https//orcid.org/000...&quot; -->
<g id="node16" class="node">
<title>&quot;https//orcid.org/000...&quot;</title>
<ellipse fill="none" stroke="black" stroke-width="0" cx="947.44" cy="-725.84" rx="120.78" ry="18"/>
<text text-anchor="middle" x="947.44" y="-722.14" font-family="Times,serif" font-size="14.00">&quot;https//orcid.org/000...&quot;</text>
</g>
<!-- orcid.org/0000&#45;0002&#45;2257&#45;9127&#45;&gt;&quot;https//orcid.org/000...&quot; -->
<g id="edge19" class="edge">
<title>orcid.org/0000&#45;0002&#45;2257&#45;9127&#45;&gt;&quot;https//orcid.org/000...&quot;</title>
<path fill="none" stroke="black" d="M626.53,-744.63C689.71,-740.92 763.68,-736.57 824.57,-733"/>
<polygon fill="black" stroke="black" points="824.83,-736.49 834.61,-732.41 824.42,-729.5 824.83,-736.49"/>
<text text-anchor="middle" x="726.66" y="-745.64" font-family="Times,serif" font-size="14.00">url</text>
</g>
<!-- DefinedTerm -->
<g id="node17" class="node">
<title>DefinedTerm</title>
<ellipse fill="none" stroke="#558855" cx="947.44" cy="-671.84" rx="70.39" ry="18"/>
<text text-anchor="middle" x="947.44" y="-668.14" font-family="Times,serif" font-size="14.00">DefinedTerm</text>
</g>
<!-- _&#45;&gt;DefinedTerm -->
<g id="edge20" class="edge">
<title>_&#45;&gt;DefinedTerm</title>
<path fill="none" stroke="black" d="M506.28,-467.68C538.89,-488.32 604.65,-533.89 643.66,-587.84 656.28,-605.29 644.68,-619.58 661.66,-632.84 721.91,-679.91 812.06,-684.61 874.73,-680.79"/>
<polygon fill="black" stroke="black" points="875.2,-684.27 884.93,-680.08 874.71,-677.28 875.2,-684.27"/>
<text text-anchor="middle" x="726.66" y="-682.64" font-family="Times,serif" font-size="14.00">type</text>
</g>
<!-- &quot;UN/LOCODE Code List ...&quot; -->
<g id="node18" class="node">
<title>&quot;UN/LOCODE Code List ...&quot;</title>
<ellipse fill="none" stroke="black" stroke-width="0" cx="947.44" cy="-617.84" rx="137.58" ry="18"/>
<text text-anchor="middle" x="947.44" y="-614.14" font-family="Times,serif" font-size="14.00">&quot;UN/LOCODE Code List ...&quot;</text>
</g>
<!-- _&#45;&gt;&quot;UN/LOCODE Code List ...&quot; -->
<g id="edge21" class="edge">
<title>_&#45;&gt;&quot;UN/LOCODE Code List ...&quot;</title>
<path fill="none" stroke="black" d="M501.42,-471.01C529.55,-498.99 594.25,-558.28 661.66,-584.84 704.91,-601.88 754.5,-610.88 800.06,-615.44"/>
<polygon fill="black" stroke="black" points="799.74,-618.92 810.02,-616.37 800.39,-611.95 799.74,-618.92"/>
<text text-anchor="middle" x="726.66" y="-617.64" font-family="Times,serif" font-size="14.00">inDefinedTermSet</text>
</g>
<!-- &quot;Fiji&quot; -->
<g id="node19" class="node">
<title>&quot;Fiji&quot;</title>
<ellipse fill="none" stroke="black" stroke-width="0" cx="947.44" cy="-563.84" rx="34.39" ry="18"/>
<text text-anchor="middle" x="947.44" y="-560.14" font-family="Times,serif" font-size="14.00">&quot;Fiji&quot;</text>
</g>
<!-- _&#45;&gt;&quot;Fiji&quot; -->
<g id="edge22" class="edge">
<title>_&#45;&gt;&quot;Fiji&quot;</title>
<path fill="none" stroke="black" d="M505.01,-468.89C535.67,-489.96 600.15,-530.8 661.66,-547.84 744.77,-570.85 846.61,-569.96 903.22,-567.03"/>
<polygon fill="black" stroke="black" points="903.46,-570.53 913.25,-566.47 903.07,-563.54 903.46,-570.53"/>
<text text-anchor="middle" x="726.66" y="-569.64" font-family="Times,serif" font-size="14.00">name</text>
</g>
<!-- _&#45;&gt;&quot;Fiji&quot; -->
<g id="edge28" class="edge">
<title>_&#45;&gt;&quot;Fiji&quot;</title>
<path fill="none" stroke="black" d="M509.92,-464.02C543.16,-475.47 606.42,-496.29 661.66,-508.84 718.66,-521.79 735.56,-512.38 791.66,-528.84 800.06,-531.3 801.31,-534.2 809.66,-536.84 840.56,-546.62 876.55,-553.55 903.86,-557.95"/>
<polygon fill="black" stroke="black" points="903.45,-561.42 913.87,-559.5 904.53,-554.51 903.45,-561.42"/>
<text text-anchor="middle" x="726.66" y="-532.64" font-family="Times,serif" font-size="14.00">name</text>
</g>
<!-- &quot;FJ&quot; -->
<g id="node20" class="node">
<title>&quot;FJ&quot;</title>
<ellipse fill="none" stroke="black" stroke-width="0" cx="947.44" cy="-509.84" rx="29.5" ry="18"/>
<text text-anchor="middle" x="947.44" y="-506.14" font-family="Times,serif" font-size="14.00">&quot;FJ&quot;</text>
</g>
<!-- _&#45;&gt;&quot;FJ&quot; -->
<g id="edge23" class="edge">
<title>_&#45;&gt;&quot;FJ&quot;</title>
<path fill="none" stroke="black" d="M512.42,-458.86C589.27,-467.88 817.58,-494.7 908.48,-505.38"/>
<polygon fill="black" stroke="black" points="908.28,-508.88 918.62,-506.57 909.09,-501.93 908.28,-508.88"/>
<text text-anchor="middle" x="726.66" y="-493.64" font-family="Times,serif" font-size="14.00">termCode</text>
</g>
<!-- &quot;https//unece.org/tra...&quot; -->
<g id="node21" class="node">
<title>&quot;https//unece.org/tra...&quot;</title>
<ellipse fill="none" stroke="black" stroke-width="0" cx="947.44" cy="-455.84" rx="120.78" ry="18"/>
<text text-anchor="middle" x="947.44" y="-452.14" font-family="Times,serif" font-size="14.00">&quot;https//unece.org/tra...&quot;</text>
</g>
<!-- _&#45;&gt;&quot;https//unece.org/tra...&quot; -->
<g id="edge24" class="edge">
<title>_&#45;&gt;&quot;https//unece.org/tra...&quot;</title>
<path fill="none" stroke="black" d="M512.75,-455.84C570.12,-455.84 710.7,-455.84 816.38,-455.84"/>
<polygon fill="black" stroke="black" points="816.49,-459.34 826.49,-455.84 816.49,-452.34 816.49,-459.34"/>
<text text-anchor="middle" x="726.66" y="-459.64" font-family="Times,serif" font-size="14.00">url</text>
</g>
<!-- URL -->
<g id="node22" class="node">
<title>URL</title>
<ellipse fill="none" stroke="#558855" cx="947.44" cy="-401.84" rx="31.4" ry="18"/>
<text text-anchor="middle" x="947.44" y="-398.14" font-family="Times,serif" font-size="14.00">URL</text>
</g>
<!-- _&#45;&gt;URL -->
<g id="edge25" class="edge">
<title>_&#45;&gt;URL</title>
<path fill="none" stroke="black" d="M512.42,-452.82C588.8,-443.85 814.81,-417.3 906.81,-406.49"/>
<polygon fill="black" stroke="black" points="907.31,-409.96 916.83,-405.32 906.49,-403.01 907.31,-409.96"/>
<text text-anchor="middle" x="726.66" y="-438.64" font-family="Times,serif" font-size="14.00">type</text>
</g>
<!-- &quot;https//www.wikidata....&quot; -->
<g id="node23" class="node">
<title>&quot;https//www.wikidata....&quot;</title>
<ellipse fill="none" stroke="black" stroke-width="0" cx="947.44" cy="-347.84" rx="126.18" ry="18"/>
<text text-anchor="middle" x="947.44" y="-344.14" font-family="Times,serif" font-size="14.00">&quot;https//www.wikidata....&quot;</text>
</g>
<!-- _&#45;&gt;&quot;https//www.wikidata....&quot; -->
<g id="edge26" class="edge">
<title>_&#45;&gt;&quot;https//www.wikidata....&quot;</title>
<path fill="none" stroke="black" d="M512.93,-455.03C545.59,-452.98 602.18,-445.9 643.66,-421.84 654,-415.84 651.24,-407.7 661.66,-401.84 708.52,-375.46 765.9,-361.69 816.83,-354.61"/>
<polygon fill="black" stroke="black" points="817.47,-358.05 826.93,-353.28 816.56,-351.11 817.47,-358.05"/>
<text text-anchor="middle" x="726.66" y="-405.64" font-family="Times,serif" font-size="14.00">url</text>
</g>
<!-- Country -->
<g id="node24" class="node">
<title>Country</title>
<ellipse fill="none" stroke="#558855" cx="947.44" cy="-293.84" rx="48.19" ry="18"/>
<text text-anchor="middle" x="947.44" y="-290.14" font-family="Times,serif" font-size="14.00">Country</text>
</g>
<!-- _&#45;&gt;Country -->
<g id="edge27" class="edge">
<title>_&#45;&gt;Country</title>
<path fill="none" stroke="black" d="M512.64,-458.09C547.42,-459.58 608.82,-456.58 643.66,-421.84 670.08,-395.49 634.55,-365.47 661.66,-339.84 723.45,-281.41 828.56,-280.25 892.34,-286.1"/>
<polygon fill="black" stroke="black" points="892.29,-289.61 902.59,-287.13 892.99,-282.65 892.29,-289.61"/>
<text text-anchor="middle" x="726.66" y="-343.64" font-family="Times,serif" font-size="14.00">type</text>
</g>
<!-- Language -->
<g id="node25" class="node">
<title>Language</title>
<ellipse fill="none" stroke="#558855" cx="947.44" cy="-239.84" rx="55.79" ry="18"/>
<text text-anchor="middle" x="947.44" y="-236.14" font-family="Times,serif" font-size="14.00">Language</text>
</g>
<!-- _&#45;&gt;Language -->
<g id="edge29" class="edge">
<title>_&#45;&gt;Language</title>
<path fill="none" stroke="black" d="M512.56,-458.54C547.81,-460.65 610.39,-458.47 643.66,-421.84 689.69,-371.15 612.86,-316.87 661.66,-268.84 721.91,-209.51 827.88,-216.24 892.17,-227.42"/>
<polygon fill="black" stroke="black" points="891.65,-230.88 902.12,-229.24 892.91,-224 891.65,-230.88"/>
<text text-anchor="middle" x="726.66" y="-272.64" font-family="Times,serif" font-size="14.00">type</text>
</g>
<!-- &quot;es&quot; -->
<g id="node26" class="node">
<title>&quot;es&quot;</title>
<ellipse fill="none" stroke="black" stroke-width="0" cx="947.44" cy="-185.84" rx="29.8" ry="18"/>
<text text-anchor="middle" x="947.44" y="-182.14" font-family="Times,serif" font-size="14.00">&quot;es&quot;</text>
</g>
<!-- _&#45;&gt;&quot;es&quot; -->
<g id="edge30" class="edge">
<title>_&#45;&gt;&quot;es&quot;</title>
<path fill="none" stroke="black" d="M512.44,-458.69C547.86,-461.02 610.95,-459.16 643.66,-421.84 675.98,-384.95 626.53,-236.08 661.66,-201.84 695.55,-168.79 837.66,-176.18 907.44,-182.04"/>
<polygon fill="black" stroke="black" points="907.33,-185.54 917.59,-182.93 907.93,-178.57 907.33,-185.54"/>
<text text-anchor="middle" x="726.66" y="-205.64" font-family="Times,serif" font-size="14.00">alternateName</text>
</g>
<!-- &quot;Spanish&quot; -->
<g id="node27" class="node">
<title>&quot;Spanish&quot;</title>
<ellipse fill="none" stroke="black" stroke-width="0" cx="947.44" cy="-131.84" rx="56.59" ry="18"/>
<text text-anchor="middle" x="947.44" y="-128.14" font-family="Times,serif" font-size="14.00">&quot;Spanish&quot;</text>
</g>
<!-- _&#45;&gt;&quot;Spanish&quot; -->
<g id="edge31" class="edge">
<title>_&#45;&gt;&quot;Spanish&quot;</title>
<path fill="none" stroke="black" d="M512.51,-458.75C548.01,-461.15 611.2,-459.38 643.66,-421.84 681.97,-377.52 620.78,-200.8 661.66,-158.84 720.95,-97.97 828.2,-106.4 892.81,-118.69"/>
<polygon fill="black" stroke="black" points="892.31,-122.16 902.8,-120.69 893.68,-115.3 892.31,-122.16"/>
<text text-anchor="middle" x="726.66" y="-162.64" font-family="Times,serif" font-size="14.00">name</text>
</g>
<!-- Text -->
<g id="node28" class="node">
<title>Text</title>
<ellipse fill="none" stroke="#558855" cx="947.44" cy="-77.84" rx="30.59" ry="18"/>
<text text-anchor="middle" x="947.44" y="-74.14" font-family="Times,serif" font-size="14.00">Text</text>
</g>
<!-- _&#45;&gt;Text -->
<g id="edge32" class="edge">
<title>_&#45;&gt;Text</title>
<path fill="none" stroke="black" d="M512.58,-458.81C548.17,-461.29 611.46,-459.6 643.66,-421.84 667.48,-393.89 635.62,-117.73 661.66,-91.84 695.12,-58.55 836.77,-67.09 906.85,-73.61"/>
<polygon fill="black" stroke="black" points="906.76,-77.12 917.05,-74.59 907.43,-70.15 906.76,-77.12"/>
<text text-anchor="middle" x="726.66" y="-95.64" font-family="Times,serif" font-size="14.00">type</text>
</g>
<!-- &quot;Invasive species in ...&quot; -->
<g id="node29" class="node">
<title>&quot;Invasive species in ...&quot;</title>
<ellipse fill="none" stroke="black" stroke-width="0" cx="947.44" cy="-23.84" rx="118.08" ry="18"/>
<text text-anchor="middle" x="947.44" y="-20.14" font-family="Times,serif" font-size="14.00">&quot;Invasive species in ...&quot;</text>
</g>
<!-- _&#45;&gt;&quot;Invasive species in ...&quot; -->
<g id="edge33" class="edge">
<title>_&#45;&gt;&quot;Invasive species in ...&quot;</title>
<path fill="none" stroke="black" d="M512.62,-458.84C548.24,-461.35 611.58,-459.7 643.66,-421.84 670.48,-390.18 632.9,-78.75 661.66,-48.84 715.29,6.94 809.22,4.05 874.48,-6.73"/>
<polygon fill="black" stroke="black" points="874.24,-10.24 884.69,-8.52 875.45,-3.35 874.24,-10.24"/>
<text text-anchor="middle" x="726.66" y="-52.64" font-family="Times,serif" font-size="14.00">description</text>
</g>
</g>
</svg>