<?xml version="1.0" encoding="UTF-8" standalone="no"?>
<!DOCTYPE svg PUBLIC "-//W3C//DTD SVG 1.1//EN"
 "http://www.w3.org/Graphics/SVG/1.1/DTD/svg11.dtd">
<!-- Generated by graphviz version 2.43.0 (0)
 -->
<!-- Title: %3 Pages: 1 -->
<svg width="1178pt" height="314pt"
 viewBox="0.00 0.00 1177.82 314.00" xmlns="http://www.w3.org/2000/svg" xmlns:xlink="http://www.w3.org/1999/xlink">
<g id="graph0" class="graph" transform="scale(1 1) rotate(0) translate(4 310)">
<title>%3</title>
<polygon fill="white" stroke="transparent" points="-4,4 -4,-310 1173.82,-310 1173.82,4 -4,4"/>
<!-- CreativeWork -->
<g id="node1" class="node">
<title>CreativeWork</title>
<ellipse fill="none" stroke="#558855" cx="630.45" cy="-212" rx="74.19" ry="18"/>
<text text-anchor="middle" x="630.45" y="-208.3" font-family="Times,serif" font-size="14.00">CreativeWork</text>
</g>
<!-- example.org/permanentUrlToThisJsonDoc -->
<g id="node2" class="node">
<title>example.org/permanentUrlToThisJsonDoc</title>
<ellipse fill="none" stroke="black" cx="204.08" cy="-158" rx="204.16" ry="18"/>
<text text-anchor="middle" x="204.08" y="-154.3" font-family="Times,serif" font-size="14.00">example.org/permanentUrlToThisJsonDoc</text>
</g>
<!-- example.org/permanentUrlToThisJsonDoc&#45;&gt;CreativeWork -->
<g id="edge1" class="edge">
<title>example.org/permanentUrlToThisJsonDoc&#45;&gt;CreativeWork</title>
<path fill="none" stroke="black" d="M321.04,-172.76C395.35,-182.21 489.64,-194.21 554.28,-202.43"/>
<polygon fill="black" stroke="black" points="554.03,-205.93 564.39,-203.72 554.92,-198.99 554.03,-205.93"/>
<text text-anchor="middle" x="460.16" y="-197.8" font-family="Times,serif" font-size="14.00">type</text>
</g>
<!-- www.repositoryB.org -->
<g id="node3" class="node">
<title>www.repositoryB.org</title>
<ellipse fill="none" stroke="#558855" cx="630.45" cy="-158" rx="109.38" ry="18"/>
<text text-anchor="middle" x="630.45" y="-154.3" font-family="Times,serif" font-size="14.00">www.repositoryB.org</text>
</g>
<!-- example.org/permanentUrlToThisJsonDoc&#45;&gt;www.repositoryB.org -->
<g id="edge2" class="edge">
<title>example.org/permanentUrlToThisJsonDoc&#45;&gt;www.repositoryB.org</title>
<path fill="none" stroke="black" d="M408.26,-158C443.41,-158 478.9,-158 510.85,-158"/>
<polygon fill="black" stroke="black" points="511.09,-161.5 521.09,-158 511.09,-154.5 511.09,-161.5"/>
<text text-anchor="middle" x="460.16" y="-161.8" font-family="Times,serif" font-size="14.00">provider</text>
</g>
<!-- www.publishingrus.org -->
<g id="node4" class="node">
<title>www.publishingrus.org</title>
<ellipse fill="none" stroke="#558855" cx="630.45" cy="-61" rx="118.08" ry="18"/>
<text text-anchor="middle" x="630.45" y="-57.3" font-family="Times,serif" font-size="14.00">www.publishingrus.org</text>
</g>
<!-- example.org/permanentUrlToThisJsonDoc&#45;&gt;www.publishingrus.org -->
<g id="edge3" class="edge">
<title>example.org/permanentUrlToThisJsonDoc&#45;&gt;www.publishingrus.org</title>
<path fill="none" stroke="black" d="M278.52,-141.21C355.48,-123.62 475.82,-96.12 553.66,-78.33"/>
<polygon fill="black" stroke="black" points="554.91,-81.63 563.87,-75.99 553.35,-74.81 554.91,-81.63"/>
<text text-anchor="middle" x="460.16" y="-109.8" font-family="Times,serif" font-size="14.00">publisher</text>
</g>
<!-- Organization -->
<g id="node5" class="node">
<title>Organization</title>
<ellipse fill="none" stroke="#558855" cx="1015.78" cy="-72" rx="70.69" ry="18"/>
<text text-anchor="middle" x="1015.78" y="-68.3" font-family="Times,serif" font-size="14.00">Organization</text>
</g>
<!-- www.repositoryB.org&#45;&gt;Organization -->
<g id="edge6" class="edge">
<title>www.repositoryB.org&#45;&gt;Organization</title>
<path fill="none" stroke="black" d="M687.99,-142.65C712.21,-136.16 740.83,-128.58 766.74,-122 808.85,-111.3 819.22,-107.89 861.74,-99 889.02,-93.3 919.21,-87.8 945.51,-83.27"/>
<polygon fill="black" stroke="black" points="946.12,-86.72 955.38,-81.59 944.94,-79.82 946.12,-86.72"/>
<text text-anchor="middle" x="805.24" y="-125.8" font-family="Times,serif" font-size="14.00">type</text>
</g>
<!-- &quot;Sample Data Repository Of...&quot; -->
<g id="node7" class="node">
<title>&quot;Sample Data Repository Of...&quot;</title>
<ellipse fill="none" stroke="black" stroke-width="0" cx="1015.78" cy="-180" rx="154.07" ry="18"/>
<text text-anchor="middle" x="1015.78" y="-176.3" font-family="Times,serif" font-size="14.00">&quot;Sample Data Repository Of...&quot;</text>
</g>
<!-- www.repositoryB.org&#45;&gt;&quot;Sample Data Repository Of...&quot; -->
<g id="edge7" class="edge">
<title>www.repositoryB.org&#45;&gt;&quot;Sample Data Repository Of...&quot;</title>
<path fill="none" stroke="black" d="M733.93,-163.88C774.75,-166.22 822.52,-168.97 866.97,-171.52"/>
<polygon fill="black" stroke="black" points="866.81,-175.01 876.99,-172.09 867.21,-168.02 866.81,-175.01"/>
<text text-anchor="middle" x="805.24" y="-172.8" font-family="Times,serif" font-size="14.00">legalName</text>
</g>
<!-- &quot;SDRO&quot; -->
<g id="node8" class="node">
<title>&quot;SDRO&quot;</title>
<ellipse fill="none" stroke="black" stroke-width="0" cx="1015.78" cy="-126" rx="47.39" ry="18"/>
<text text-anchor="middle" x="1015.78" y="-122.3" font-family="Times,serif" font-size="14.00">&quot;SDRO&quot;</text>
</g>
<!-- www.repositoryB.org&#45;&gt;&quot;SDRO&quot; -->
<g id="edge8" class="edge">
<title>www.repositoryB.org&#45;&gt;&quot;SDRO&quot;</title>
<path fill="none" stroke="black" d="M728.18,-149.93C801.14,-143.83 898.66,-135.69 959.06,-130.65"/>
<polygon fill="black" stroke="black" points="959.49,-134.13 969.16,-129.81 958.9,-127.15 959.49,-134.13"/>
<text text-anchor="middle" x="805.24" y="-148.8" font-family="Times,serif" font-size="14.00">name</text>
</g>
<!-- &quot;http//www.re3data.org/rep...&quot; -->
<g id="node9" class="node">
<title>&quot;http//www.re3data.org/rep...&quot;</title>
<ellipse fill="none" stroke="black" stroke-width="0" cx="1015.78" cy="-288" rx="152.17" ry="18"/>
<text text-anchor="middle" x="1015.78" y="-284.3" font-family="Times,serif" font-size="14.00">&quot;http//www.re3data.org/rep...&quot;</text>
</g>
<!-- www.repositoryB.org&#45;&gt;&quot;http//www.re3data.org/rep...&quot; -->
<g id="edge9" class="edge">
<title>www.repositoryB.org&#45;&gt;&quot;http//www.re3data.org/rep...&quot;</title>
<path fill="none" stroke="black" d="M718.5,-168.67C729.4,-172.61 739.83,-177.91 748.74,-185 763.05,-196.39 753.41,-209.48 766.74,-222 800.02,-253.24 817.91,-248.3 861.74,-261 876.52,-265.28 892.3,-269 907.91,-272.18"/>
<polygon fill="black" stroke="black" points="907.64,-275.7 918.13,-274.2 909,-268.83 907.64,-275.7"/>
<text text-anchor="middle" x="805.24" y="-259.8" font-family="Times,serif" font-size="14.00">sameAs</text>
</g>
<!-- &quot;https//www.sample&#45;data&#45;re...&quot; -->
<g id="node10" class="node">
<title>&quot;https//www.sample&#45;data&#45;re...&quot;</title>
<ellipse fill="none" stroke="black" stroke-width="0" cx="1015.78" cy="-234" rx="153.27" ry="18"/>
<text text-anchor="middle" x="1015.78" y="-230.3" font-family="Times,serif" font-size="14.00">&quot;https//www.sample&#45;data&#45;re...&quot;</text>
</g>
<!-- www.repositoryB.org&#45;&gt;&quot;https//www.sample&#45;data&#45;re...&quot; -->
<g id="edge10" class="edge">
<title>www.repositoryB.org&#45;&gt;&quot;https//www.sample&#45;data&#45;re...&quot;</title>
<path fill="none" stroke="black" d="M695.74,-172.54C718.18,-177.54 743.56,-183.11 766.74,-188 808.87,-196.88 819.43,-199.04 861.74,-207 880.06,-210.45 899.64,-214 918.46,-217.35"/>
<polygon fill="black" stroke="black" points="918.06,-220.83 928.52,-219.14 919.28,-213.94 918.06,-220.83"/>
<text text-anchor="middle" x="805.24" y="-206.8" font-family="Times,serif" font-size="14.00">url</text>
</g>
<!-- www.publishingrus.org&#45;&gt;Organization -->
<g id="edge4" class="edge">
<title>www.publishingrus.org&#45;&gt;Organization</title>
<path fill="none" stroke="black" d="M748.82,-60.43C779.7,-60.59 812.98,-61.03 843.74,-62 874.33,-62.97 907.95,-64.77 937.23,-66.58"/>
<polygon fill="black" stroke="black" points="937.19,-70.09 947.39,-67.22 937.63,-63.1 937.19,-70.09"/>
<text text-anchor="middle" x="805.24" y="-65.8" font-family="Times,serif" font-size="14.00">type</text>
</g>
<!-- &quot;Some Institute&quot; -->
<g id="node6" class="node">
<title>&quot;Some Institute&quot;</title>
<ellipse fill="none" stroke="black" stroke-width="0" cx="1015.78" cy="-18" rx="88.28" ry="18"/>
<text text-anchor="middle" x="1015.78" y="-14.3" font-family="Times,serif" font-size="14.00">&quot;Some Institute&quot;</text>
</g>
<!-- www.publishingrus.org&#45;&gt;&quot;Some Institute&quot; -->
<g id="edge5" class="edge">
<title>www.publishingrus.org&#45;&gt;&quot;Some Institute&quot;</title>
<path fill="none" stroke="black" d="M713.63,-48.12C731.14,-45.58 749.53,-43.07 766.74,-41 818.35,-34.8 876.16,-29.35 922.99,-25.32"/>
<polygon fill="black" stroke="black" points="923.44,-28.79 933.11,-24.45 922.85,-21.81 923.44,-28.79"/>
<text text-anchor="middle" x="805.24" y="-44.8" font-family="Times,serif" font-size="14.00">legalName</text>
</g>
</g>
</svg>