<?xml version="1.0" encoding="UTF-8" standalone="no"?>
<!DOCTYPE svg PUBLIC "-//W3C//DTD SVG 1.1//EN"
 "http://www.w3.org/Graphics/SVG/1.1/DTD/svg11.dtd">
<!-- Generated by graphviz version 2.43.0 (0)
 -->
<!-- Title: %3 Pages: 1 -->
<svg width="1315pt" height="370pt"
 viewBox="0.00 0.00 1315.41 370.00" xmlns="http://www.w3.org/2000/svg" xmlns:xlink="http://www.w3.org/1999/xlink">
<g id="graph0" class="graph" transform="scale(1 1) rotate(0) translate(4 366)">
<title>%3</title>
<polygon fill="white" stroke="transparent" points="-4,4 -4,-366 1311.41,-366 1311.41,4 -4,4"/>
<!-- CreativeWork -->
<g id="node1" class="node">
<title>CreativeWork</title>
<ellipse fill="none" stroke="#558855" cx="1175.47" cy="-181" rx="74.19" ry="18"/>
<text text-anchor="middle" x="1175.47" y="-177.3" font-family="Times,serif" font-size="14.00">CreativeWork</text>
</g>
<!-- dx.doi.org/10.1038/sdata.2016.18 -->
<g id="node2" class="node">
<title>dx.doi.org/10.1038/sdata.2016.18</title>
<ellipse fill="none" stroke="#558855" cx="758.85" cy="-237" rx="167.87" ry="18"/>
<text text-anchor="middle" x="758.85" y="-233.3" font-family="Times,serif" font-size="14.00">dx.doi.org/10.1038/sdata.2016.18</text>
</g>
<!-- dx.doi.org/10.1038/sdata.2016.18&#45;&gt;CreativeWork -->
<g id="edge1" class="edge">
<title>dx.doi.org/10.1038/sdata.2016.18&#45;&gt;CreativeWork</title>
<path fill="none" stroke="black" d="M863.94,-222.94C937.49,-213.01 1034.3,-199.93 1100.15,-191.04"/>
<polygon fill="black" stroke="black" points="1101,-194.46 1110.44,-189.65 1100.06,-187.52 1101,-194.46"/>
<text text-anchor="middle" x="985.03" y="-213.8" font-family="Times,serif" font-size="14.00">type</text>
</g>
<!-- &quot;FAIR Principles defi...&quot; -->
<g id="node3" class="node">
<title>&quot;FAIR Principles defi...&quot;</title>
<ellipse fill="none" stroke="black" stroke-width="0" cx="1175.47" cy="-344" rx="119.68" ry="18"/>
<text text-anchor="middle" x="1175.47" y="-340.3" font-family="Times,serif" font-size="14.00">&quot;FAIR Principles defi...&quot;</text>
</g>
<!-- dx.doi.org/10.1038/sdata.2016.18&#45;&gt;&quot;FAIR Principles defi...&quot; -->
<g id="edge2" class="edge">
<title>dx.doi.org/10.1038/sdata.2016.18&#45;&gt;&quot;FAIR Principles defi...&quot;</title>
<path fill="none" stroke="black" d="M815.52,-253.97C872.49,-271.04 963.74,-297.55 1043.53,-317 1058.94,-320.76 1075.45,-324.43 1091.38,-327.8"/>
<polygon fill="black" stroke="black" points="1090.7,-331.23 1101.2,-329.85 1092.13,-324.38 1090.7,-331.23"/>
<text text-anchor="middle" x="985.03" y="-314.8" font-family="Times,serif" font-size="14.00">description</text>
</g>
<!-- &quot;FAIR data principles&quot; -->
<g id="node4" class="node">
<title>&quot;FAIR data principles&quot;</title>
<ellipse fill="none" stroke="black" stroke-width="0" cx="1175.47" cy="-290" rx="113.98" ry="18"/>
<text text-anchor="middle" x="1175.47" y="-286.3" font-family="Times,serif" font-size="14.00">&quot;FAIR data principles&quot;</text>
</g>
<!-- dx.doi.org/10.1038/sdata.2016.18&#45;&gt;&quot;FAIR data principles&quot; -->
<g id="edge3" class="edge">
<title>dx.doi.org/10.1038/sdata.2016.18&#45;&gt;&quot;FAIR data principles&quot;</title>
<path fill="none" stroke="black" d="M867.43,-250.75C932.12,-259.02 1013.8,-269.46 1076.66,-277.5"/>
<polygon fill="black" stroke="black" points="1076.22,-280.97 1086.58,-278.76 1077.1,-274.03 1076.22,-280.97"/>
<text text-anchor="middle" x="985.03" y="-272.8" font-family="Times,serif" font-size="14.00">name</text>
</g>
<!-- &quot;https//www.nature.co...&quot; -->
<g id="node5" class="node">
<title>&quot;https//www.nature.co...&quot;</title>
<ellipse fill="none" stroke="black" stroke-width="0" cx="1175.47" cy="-236" rx="128.08" ry="18"/>
<text text-anchor="middle" x="1175.47" y="-232.3" font-family="Times,serif" font-size="14.00">&quot;https//www.nature.co...&quot;</text>
</g>
<!-- dx.doi.org/10.1038/sdata.2016.18&#45;&gt;&quot;https//www.nature.co...&quot; -->
<g id="edge4" class="edge">
<title>dx.doi.org/10.1038/sdata.2016.18&#45;&gt;&quot;https//www.nature.co...&quot;</title>
<path fill="none" stroke="black" d="M926.7,-236.6C963.26,-236.51 1001.56,-236.42 1036.82,-236.33"/>
<polygon fill="black" stroke="black" points="1037.18,-239.83 1047.17,-236.31 1037.17,-232.83 1037.18,-239.83"/>
<text text-anchor="middle" x="985.03" y="-239.8" font-family="Times,serif" font-size="14.00">url</text>
</g>
<!-- Organization -->
<g id="node6" class="node">
<title>Organization</title>
<ellipse fill="none" stroke="#558855" cx="758.85" cy="-180" rx="70.69" ry="18"/>
<text text-anchor="middle" x="758.85" y="-176.3" font-family="Times,serif" font-size="14.00">Organization</text>
</g>
<!-- example.org/permanentUrlToThisJsonDoc -->
<g id="node7" class="node">
<title>example.org/permanentUrlToThisJsonDoc</title>
<ellipse fill="none" stroke="black" cx="204.08" cy="-180" rx="204.16" ry="18"/>
<text text-anchor="middle" x="204.08" y="-176.3" font-family="Times,serif" font-size="14.00">example.org/permanentUrlToThisJsonDoc</text>
</g>
<!-- example.org/permanentUrlToThisJsonDoc&#45;&gt;dx.doi.org/10.1038/sdata.2016.18 -->
<g id="edge6" class="edge">
<title>example.org/permanentUrlToThisJsonDoc&#45;&gt;dx.doi.org/10.1038/sdata.2016.18</title>
<path fill="none" stroke="black" d="M337.48,-193.65C425.29,-202.71 539.99,-214.53 627.39,-223.55"/>
<polygon fill="black" stroke="black" points="627.07,-227.03 637.37,-224.58 627.78,-220.07 627.07,-227.03"/>
<text text-anchor="middle" x="499.66" y="-219.8" font-family="Times,serif" font-size="14.00">publishingPrinciples</text>
</g>
<!-- example.org/permanentUrlToThisJsonDoc&#45;&gt;Organization -->
<g id="edge5" class="edge">
<title>example.org/permanentUrlToThisJsonDoc&#45;&gt;Organization</title>
<path fill="none" stroke="black" d="M408.17,-180C501.66,-180 607.21,-180 677.66,-180"/>
<polygon fill="black" stroke="black" points="677.8,-183.5 687.8,-180 677.8,-176.5 677.8,-183.5"/>
<text text-anchor="middle" x="499.66" y="-183.8" font-family="Times,serif" font-size="14.00">type</text>
</g>
<!-- sdgs.un.org/goals/goal14 -->
<g id="node8" class="node">
<title>sdgs.un.org/goals/goal14</title>
<ellipse fill="none" stroke="#558855" cx="758.85" cy="-123" rx="126.98" ry="18"/>
<text text-anchor="middle" x="758.85" y="-119.3" font-family="Times,serif" font-size="14.00">sdgs.un.org/goals/goal14</text>
</g>
<!-- example.org/permanentUrlToThisJsonDoc&#45;&gt;sdgs.un.org/goals/goal14 -->
<g id="edge7" class="edge">
<title>example.org/permanentUrlToThisJsonDoc&#45;&gt;sdgs.un.org/goals/goal14</title>
<path fill="none" stroke="black" d="M337.48,-166.35C431.59,-156.64 556.6,-143.75 645.78,-134.56"/>
<polygon fill="black" stroke="black" points="646.34,-138.02 655.92,-133.51 645.62,-131.05 646.34,-138.02"/>
<text text-anchor="middle" x="499.66" y="-159.8" font-family="Times,serif" font-size="14.00">publishingPrinciples</text>
</g>
<!-- sdgs.un.org/goals/goal14&#45;&gt;CreativeWork -->
<g id="edge8" class="edge">
<title>sdgs.un.org/goals/goal14&#45;&gt;CreativeWork</title>
<path fill="none" stroke="black" d="M849.82,-135.59C924.96,-146.1 1030.76,-160.9 1100.91,-170.71"/>
<polygon fill="black" stroke="black" points="1100.61,-174.2 1111,-172.12 1101.58,-167.27 1100.61,-174.2"/>
<text text-anchor="middle" x="985.03" y="-161.8" font-family="Times,serif" font-size="14.00">type</text>
</g>
<!-- &quot;Conserve and sustain...&quot; -->
<g id="node9" class="node">
<title>&quot;Conserve and sustain...&quot;</title>
<ellipse fill="none" stroke="black" stroke-width="0" cx="1175.47" cy="-126" rx="128.08" ry="18"/>
<text text-anchor="middle" x="1175.47" y="-122.3" font-family="Times,serif" font-size="14.00">&quot;Conserve and sustain...&quot;</text>
</g>
<!-- sdgs.un.org/goals/goal14&#45;&gt;&quot;Conserve and sustain...&quot; -->
<g id="edge9" class="edge">
<title>sdgs.un.org/goals/goal14&#45;&gt;&quot;Conserve and sustain...&quot;</title>
<path fill="none" stroke="black" d="M885.88,-123.23C930.04,-123.37 979.99,-123.61 1025.53,-124 1029.49,-124.03 1033.51,-124.07 1037.57,-124.11"/>
<polygon fill="black" stroke="black" points="1037.68,-127.61 1047.72,-124.21 1037.76,-120.61 1037.68,-127.61"/>
<text text-anchor="middle" x="985.03" y="-127.8" font-family="Times,serif" font-size="14.00">description</text>
</g>
<!-- &quot;Sustainable Developm...&quot; -->
<g id="node10" class="node">
<title>&quot;Sustainable Developm...&quot;</title>
<ellipse fill="none" stroke="black" stroke-width="0" cx="1175.47" cy="-72" rx="131.88" ry="18"/>
<text text-anchor="middle" x="1175.47" y="-68.3" font-family="Times,serif" font-size="14.00">&quot;Sustainable Developm...&quot;</text>
</g>
<!-- sdgs.un.org/goals/goal14&#45;&gt;&quot;Sustainable Developm...&quot; -->
<g id="edge10" class="edge">
<title>sdgs.un.org/goals/goal14&#45;&gt;&quot;Sustainable Developm...&quot;</title>
<path fill="none" stroke="black" d="M855.23,-111.27C918.46,-103.49 1001.53,-93.27 1067.08,-85.21"/>
<polygon fill="black" stroke="black" points="1067.54,-88.68 1077.03,-83.99 1066.68,-81.73 1067.54,-88.68"/>
<text text-anchor="middle" x="985.03" y="-102.8" font-family="Times,serif" font-size="14.00">name</text>
</g>
<!-- &quot;https//sdgs.un.org/g...&quot; -->
<g id="node11" class="node">
<title>&quot;https//sdgs.un.org/g...&quot;</title>
<ellipse fill="none" stroke="black" stroke-width="0" cx="1175.47" cy="-18" rx="122.38" ry="18"/>
<text text-anchor="middle" x="1175.47" y="-14.3" font-family="Times,serif" font-size="14.00">&quot;https//sdgs.un.org/g...&quot;</text>
</g>
<!-- sdgs.un.org/goals/goal14&#45;&gt;&quot;https//sdgs.un.org/g...&quot; -->
<g id="edge11" class="edge">
<title>sdgs.un.org/goals/goal14&#45;&gt;&quot;https//sdgs.un.org/g...&quot;</title>
<path fill="none" stroke="black" d="M814.48,-106.81C871.4,-90.21 963.31,-64.19 1043.53,-45 1058.72,-41.37 1074.96,-37.78 1090.66,-34.46"/>
<polygon fill="black" stroke="black" points="1091.81,-37.8 1100.88,-32.33 1090.38,-30.95 1091.81,-37.8"/>
<text text-anchor="middle" x="985.03" y="-71.8" font-family="Times,serif" font-size="14.00">url</text>
</g>
</g>
</svg>