<?xml version="1.0" encoding="UTF-8" standalone="no"?>
<!DOCTYPE svg PUBLIC "-//W3C//DTD SVG 1.1//EN"
 "http://www.w3.org/Graphics/SVG/1.1/DTD/svg11.dtd">
<!-- Generated by graphviz version 2.43.0 (0)
 -->
<!-- Title: %3 Pages: 1 -->
<svg width="1188pt" height="880pt"
 viewBox="0.00 0.00 1187.82 880.00" xmlns="http://www.w3.org/2000/svg" xmlns:xlink="http://www.w3.org/1999/xlink">
<g id="graph0" class="graph" transform="scale(1 1) rotate(0) translate(4 876)">
<title>%3</title>
<polygon fill="white" stroke="transparent" points="-4,4 -4,-876 1183.82,-876 1183.82,4 -4,4"/>
<!-- Organization -->
<g id="node1" class="node">
<title>Organization</title>
<ellipse fill="none" stroke="#558855" cx="1017.33" cy="-828" rx="70.69" ry="18"/>
<text text-anchor="middle" x="1017.33" y="-824.3" font-family="Times,serif" font-size="14.00">Organization</text>
</g>
<!-- example.org/id/org/1 -->
<g id="node2" class="node">
<title>example.org/id/org/1</title>
<ellipse fill="none" stroke="#558855" cx="546.61" cy="-740" rx="107.48" ry="18"/>
<text text-anchor="middle" x="546.61" y="-736.3" font-family="Times,serif" font-size="14.00">example.org/id/org/1</text>
</g>
<!-- example.org/id/org/1&#45;&gt;Organization -->
<g id="edge1" class="edge">
<title>example.org/id/org/1&#45;&gt;Organization</title>
<path fill="none" stroke="black" d="M614.3,-754C676.44,-766.86 771.74,-786.12 854.85,-801 885.13,-806.42 918.68,-812.08 947.31,-816.82"/>
<polygon fill="black" stroke="black" points="946.78,-820.28 957.22,-818.45 947.92,-813.37 946.78,-820.28"/>
<text text-anchor="middle" x="780.35" y="-799.8" font-family="Times,serif" font-size="14.00">type</text>
</g>
<!-- &quot;Org A is a potential pare...&quot; -->
<g id="node3" class="node">
<title>&quot;Org A is a potential pare...&quot;</title>
<ellipse fill="none" stroke="black" stroke-width="0" cx="1017.33" cy="-774" rx="142.17" ry="18"/>
<text text-anchor="middle" x="1017.33" y="-770.3" font-family="Times,serif" font-size="14.00">&quot;Org A is a potential pare...&quot;</text>
</g>
<!-- example.org/id/org/1&#45;&gt;&quot;Org A is a potential pare...&quot; -->
<g id="edge2" class="edge">
<title>example.org/id/org/1&#45;&gt;&quot;Org A is a potential pare...&quot;</title>
<path fill="none" stroke="black" d="M645.3,-747.09C714.24,-752.09 807.44,-758.85 883.18,-764.34"/>
<polygon fill="black" stroke="black" points="883.05,-767.84 893.28,-765.07 883.55,-760.86 883.05,-767.84"/>
<text text-anchor="middle" x="780.35" y="-763.8" font-family="Times,serif" font-size="14.00">description</text>
</g>
<!-- &quot;Organization A&quot; -->
<g id="node4" class="node">
<title>&quot;Organization A&quot;</title>
<ellipse fill="none" stroke="black" stroke-width="0" cx="1017.33" cy="-720" rx="89.08" ry="18"/>
<text text-anchor="middle" x="1017.33" y="-716.3" font-family="Times,serif" font-size="14.00">&quot;Organization A&quot;</text>
</g>
<!-- example.org/id/org/1&#45;&gt;&quot;Organization A&quot; -->
<g id="edge3" class="edge">
<title>example.org/id/org/1&#45;&gt;&quot;Organization A&quot;</title>
<path fill="none" stroke="black" d="M635.8,-729.99C663.9,-727.21 695.15,-724.53 723.85,-723 788.55,-719.55 861.41,-718.8 918.22,-718.91"/>
<polygon fill="black" stroke="black" points="918.27,-722.41 928.28,-718.93 918.29,-715.41 918.27,-722.41"/>
<text text-anchor="middle" x="780.35" y="-726.8" font-family="Times,serif" font-size="14.00">name</text>
</g>
<!-- PropertyValue -->
<g id="node5" class="node">
<title>PropertyValue</title>
<ellipse fill="none" stroke="#558855" cx="1017.33" cy="-666" rx="77.19" ry="18"/>
<text text-anchor="middle" x="1017.33" y="-662.3" font-family="Times,serif" font-size="14.00">PropertyValue</text>
</g>
<!-- grid.ac/institutes/grid.475727.4 -->
<g id="node6" class="node">
<title>grid.ac/institutes/grid.475727.4</title>
<ellipse fill="none" stroke="#558855" cx="546.61" cy="-558" rx="159.47" ry="18"/>
<text text-anchor="middle" x="546.61" y="-554.3" font-family="Times,serif" font-size="14.00">grid.ac/institutes/grid.475727.4</text>
</g>
<!-- grid.ac/institutes/grid.475727.4&#45;&gt;PropertyValue -->
<g id="edge4" class="edge">
<title>grid.ac/institutes/grid.475727.4&#45;&gt;PropertyValue</title>
<path fill="none" stroke="black" d="M603.49,-574.85C664.71,-592.82 766.03,-621.09 854.85,-639 883.26,-644.73 914.66,-650.18 942.16,-654.66"/>
<polygon fill="black" stroke="black" points="941.68,-658.13 952.11,-656.27 942.79,-651.22 941.68,-658.13"/>
<text text-anchor="middle" x="780.35" y="-636.8" font-family="Times,serif" font-size="14.00">type</text>
</g>
<!-- &quot;UN Department of Economic...&quot; -->
<g id="node7" class="node">
<title>&quot;UN Department of Economic...&quot;</title>
<ellipse fill="none" stroke="black" stroke-width="0" cx="1017.33" cy="-612" rx="162.47" ry="18"/>
<text text-anchor="middle" x="1017.33" y="-608.3" font-family="Times,serif" font-size="14.00">&quot;UN Department of Economic...&quot;</text>
</g>
<!-- grid.ac/institutes/grid.475727.4&#45;&gt;&quot;UN Department of Economic...&quot; -->
<g id="edge5" class="edge">
<title>grid.ac/institutes/grid.475727.4&#45;&gt;&quot;UN Department of Economic...&quot;</title>
<path fill="none" stroke="black" d="M658.69,-570.8C729.41,-578.94 821.06,-589.5 893.87,-597.89"/>
<polygon fill="black" stroke="black" points="893.68,-601.39 904.02,-599.06 894.48,-594.44 893.68,-601.39"/>
<text text-anchor="middle" x="780.35" y="-592.8" font-family="Times,serif" font-size="14.00">description</text>
</g>
<!-- &quot;https//registry.identifie...&quot; -->
<g id="node8" class="node">
<title>&quot;https//registry.identifie...&quot;</title>
<ellipse fill="none" stroke="black" stroke-width="0" cx="1017.33" cy="-558" rx="135.38" ry="18"/>
<text text-anchor="middle" x="1017.33" y="-554.3" font-family="Times,serif" font-size="14.00">&quot;https//registry.identifie...&quot;</text>
</g>
<!-- grid.ac/institutes/grid.475727.4&#45;&gt;&quot;https//registry.identifie...&quot; -->
<g id="edge6" class="edge">
<title>grid.ac/institutes/grid.475727.4&#45;&gt;&quot;https//registry.identifie...&quot;</title>
<path fill="none" stroke="black" d="M705.97,-558C759.64,-558 819.26,-558 871.79,-558"/>
<polygon fill="black" stroke="black" points="871.85,-561.5 881.85,-558 871.85,-554.5 871.85,-561.5"/>
<text text-anchor="middle" x="780.35" y="-561.8" font-family="Times,serif" font-size="14.00">propertyID</text>
</g>
<!-- &quot;https//grid.ac/institutes...&quot; -->
<g id="node9" class="node">
<title>&quot;https//grid.ac/institutes...&quot;</title>
<ellipse fill="none" stroke="black" stroke-width="0" cx="1017.33" cy="-504" rx="137.58" ry="18"/>
<text text-anchor="middle" x="1017.33" y="-500.3" font-family="Times,serif" font-size="14.00">&quot;https//grid.ac/institutes...&quot;</text>
</g>
<!-- grid.ac/institutes/grid.475727.4&#45;&gt;&quot;https//grid.ac/institutes...&quot; -->
<g id="edge7" class="edge">
<title>grid.ac/institutes/grid.475727.4&#45;&gt;&quot;https//grid.ac/institutes...&quot;</title>
<path fill="none" stroke="black" d="M658.69,-545.2C732.38,-536.71 828.8,-525.61 902.96,-517.06"/>
<polygon fill="black" stroke="black" points="903.73,-520.5 913.27,-515.87 902.93,-513.54 903.73,-520.5"/>
<text text-anchor="middle" x="780.35" y="-540.8" font-family="Times,serif" font-size="14.00">url</text>
</g>
<!-- index.example.org/id/org/x -->
<g id="node10" class="node">
<title>index.example.org/id/org/x</title>
<ellipse fill="none" stroke="black" cx="135.19" cy="-280" rx="135.38" ry="18"/>
<text text-anchor="middle" x="135.19" y="-276.3" font-family="Times,serif" font-size="14.00">index.example.org/id/org/x</text>
</g>
<!-- index.example.org/id/org/x&#45;&gt;Organization -->
<g id="edge8" class="edge">
<title>index.example.org/id/org/x&#45;&gt;Organization</title>
<path fill="none" stroke="black" d="M139.34,-298.05C153.1,-371.06 215.21,-646.33 387.38,-767 560.39,-888.27 829.04,-861.6 951.52,-840.95"/>
<polygon fill="black" stroke="black" points="952.24,-844.38 961.5,-839.22 951.05,-837.48 952.24,-844.38"/>
<text text-anchor="middle" x="546.61" y="-860.8" font-family="Times,serif" font-size="14.00">type</text>
</g>
<!-- index.example.org/id/org/x&#45;&gt;example.org/id/org/1 -->
<g id="edge14" class="edge">
<title>index.example.org/id/org/x&#45;&gt;example.org/id/org/1</title>
<path fill="none" stroke="black" d="M149.99,-298.09C186.9,-346.18 291.62,-480.62 387.38,-585 431.35,-632.94 486.3,-685.2 518.52,-715.14"/>
<polygon fill="black" stroke="black" points="516.49,-718.03 526.2,-722.26 521.25,-712.89 516.49,-718.03"/>
<text text-anchor="middle" x="328.88" y="-564.8" font-family="Times,serif" font-size="14.00">member</text>
</g>
<!-- index.example.org/id/org/x&#45;&gt;grid.ac/institutes/grid.475727.4 -->
<g id="edge12" class="edge">
<title>index.example.org/id/org/x&#45;&gt;grid.ac/institutes/grid.475727.4</title>
<path fill="none" stroke="black" d="M162.42,-297.81C233.69,-346.2 430.88,-480.09 511.05,-534.53"/>
<polygon fill="black" stroke="black" points="509.09,-537.43 519.33,-540.16 513.02,-531.64 509.09,-537.43"/>
<text text-anchor="middle" x="328.88" y="-438.8" font-family="Times,serif" font-size="14.00">identifier</text>
</g>
<!-- _ -->
<g id="node11" class="node">
<title>_</title>
<ellipse fill="none" stroke="#558855" cx="546.61" cy="-342" rx="27" ry="18"/>
<text text-anchor="middle" x="546.61" y="-338.3" font-family="Times,serif" font-size="14.00">_</text>
</g>
<!-- index.example.org/id/org/x&#45;&gt;_ -->
<g id="edge9" class="edge">
<title>index.example.org/id/org/x&#45;&gt;_</title>
<path fill="none" stroke="black" d="M174.37,-297.28C204.61,-310.04 248.29,-326.46 288.38,-334 366.06,-348.62 459.23,-346.85 509.37,-344.37"/>
<polygon fill="black" stroke="black" points="509.6,-347.86 519.4,-343.83 509.23,-340.87 509.6,-347.86"/>
<text text-anchor="middle" x="328.88" y="-346.8" font-family="Times,serif" font-size="14.00">address</text>
</g>
<!-- index.example.org/id/org/x&#45;&gt;_ -->
<g id="edge13" class="edge">
<title>index.example.org/id/org/x&#45;&gt;_</title>
<path fill="none" stroke="black" d="M225.89,-293.4C269.24,-299.89 322.02,-307.82 369.38,-315 418.26,-322.41 474.75,-331.09 510.33,-336.56"/>
<polygon fill="black" stroke="black" points="509.81,-340.02 520.22,-338.09 510.87,-333.1 509.81,-340.02"/>
<text text-anchor="middle" x="328.88" y="-318.8" font-family="Times,serif" font-size="14.00">location</text>
</g>
<!-- &quot;Description of org ...&quot; -->
<g id="node12" class="node">
<title>&quot;Description of org ...&quot;</title>
<ellipse fill="none" stroke="black" stroke-width="0" cx="546.61" cy="-288" rx="115.08" ry="18"/>
<text text-anchor="middle" x="546.61" y="-284.3" font-family="Times,serif" font-size="14.00">&quot;Description of org ...&quot;</text>
</g>
<!-- index.example.org/id/org/x&#45;&gt;&quot;Description of org ...&quot; -->
<g id="edge10" class="edge">
<title>index.example.org/id/org/x&#45;&gt;&quot;Description of org ...&quot;</title>
<path fill="none" stroke="black" d="M270.61,-279.76C302.95,-279.93 337.4,-280.3 369.38,-281 387.54,-281.4 406.75,-281.99 425.55,-282.66"/>
<polygon fill="black" stroke="black" points="425.52,-286.16 435.64,-283.03 425.77,-279.17 425.52,-286.16"/>
<text text-anchor="middle" x="328.88" y="-284.8" font-family="Times,serif" font-size="14.00">description</text>
</g>
<!-- &quot;secretariat(at)example.or...&quot; -->
<g id="node13" class="node">
<title>&quot;secretariat(at)example.or...&quot;</title>
<ellipse fill="none" stroke="black" stroke-width="0" cx="546.61" cy="-234" rx="145.67" ry="18"/>
<text text-anchor="middle" x="546.61" y="-230.3" font-family="Times,serif" font-size="14.00">&quot;secretariat(at)example.or...&quot;</text>
</g>
<!-- index.example.org/id/org/x&#45;&gt;&quot;secretariat(at)example.or...&quot; -->
<g id="edge11" class="edge">
<title>index.example.org/id/org/x&#45;&gt;&quot;secretariat(at)example.or...&quot;</title>
<path fill="none" stroke="black" d="M230.31,-267.18C249.51,-264.7 269.58,-262.18 288.38,-260 331.41,-255 378.55,-250.07 420.6,-245.88"/>
<polygon fill="black" stroke="black" points="421,-249.35 430.61,-244.88 420.31,-242.39 421,-249.35"/>
<text text-anchor="middle" x="328.88" y="-263.8" font-family="Times,serif" font-size="14.00">email</text>
</g>
<!-- orcid.org/0000&#45;0002&#45;2257&#45;9127 -->
<g id="node14" class="node">
<title>orcid.org/0000&#45;0002&#45;2257&#45;9127</title>
<ellipse fill="none" stroke="#558855" cx="546.61" cy="-180" rx="157.87" ry="18"/>
<text text-anchor="middle" x="546.61" y="-176.3" font-family="Times,serif" font-size="14.00">orcid.org/0000&#45;0002&#45;2257&#45;9127</text>
</g>
<!-- index.example.org/id/org/x&#45;&gt;orcid.org/0000&#45;0002&#45;2257&#45;9127 -->
<g id="edge15" class="edge">
<title>index.example.org/id/org/x&#45;&gt;orcid.org/0000&#45;0002&#45;2257&#45;9127</title>
<path fill="none" stroke="black" d="M186.7,-263.26C216.21,-253.68 254.26,-241.68 288.38,-232 332.03,-219.61 342.97,-216.38 387.38,-207 405.29,-203.22 424.43,-199.6 442.98,-196.31"/>
<polygon fill="black" stroke="black" points="443.68,-199.74 452.92,-194.56 442.47,-192.84 443.68,-199.74"/>
<text text-anchor="middle" x="328.88" y="-235.8" font-family="Times,serif" font-size="14.00">member</text>
</g>
<!-- &quot;Organization X&quot; -->
<g id="node15" class="node">
<title>&quot;Organization X&quot;</title>
<ellipse fill="none" stroke="black" stroke-width="0" cx="546.61" cy="-126" rx="89.08" ry="18"/>
<text text-anchor="middle" x="546.61" y="-122.3" font-family="Times,serif" font-size="14.00">&quot;Organization X&quot;</text>
</g>
<!-- index.example.org/id/org/x&#45;&gt;&quot;Organization X&quot; -->
<g id="edge16" class="edge">
<title>index.example.org/id/org/x&#45;&gt;&quot;Organization X&quot;</title>
<path fill="none" stroke="black" d="M162.62,-262.19C206.9,-233.4 299.83,-177.43 387.38,-153 410.86,-146.45 436.78,-141.22 460.72,-137.17"/>
<polygon fill="black" stroke="black" points="461.55,-140.59 470.85,-135.51 460.42,-133.68 461.55,-140.59"/>
<text text-anchor="middle" x="328.88" y="-191.8" font-family="Times,serif" font-size="14.00">name</text>
</g>
<!-- &quot;( 33 1) 42 68 53 00&quot; -->
<g id="node16" class="node">
<title>&quot;( 33 1) 42 68 53 00&quot;</title>
<ellipse fill="none" stroke="black" stroke-width="0" cx="546.61" cy="-72" rx="108.58" ry="18"/>
<text text-anchor="middle" x="546.61" y="-68.3" font-family="Times,serif" font-size="14.00">&quot;( 33 1) 42 68 53 00&quot;</text>
</g>
<!-- index.example.org/id/org/x&#45;&gt;&quot;( 33 1) 42 68 53 00&quot; -->
<g id="edge17" class="edge">
<title>index.example.org/id/org/x&#45;&gt;&quot;( 33 1) 42 68 53 00&quot;</title>
<path fill="none" stroke="black" d="M151.9,-261.91C177.85,-232.94 232.39,-175.74 288.38,-140 335.46,-109.94 395.47,-93.11 445.68,-83.71"/>
<polygon fill="black" stroke="black" points="446.36,-87.14 455.58,-81.93 445.12,-80.25 446.36,-87.14"/>
<text text-anchor="middle" x="328.88" y="-143.8" font-family="Times,serif" font-size="14.00">telephone</text>
</g>
<!-- &quot;https//example.org/&quot; -->
<g id="node17" class="node">
<title>&quot;https//example.org/&quot;</title>
<ellipse fill="none" stroke="black" stroke-width="0" cx="546.61" cy="-18" rx="110.48" ry="18"/>
<text text-anchor="middle" x="546.61" y="-14.3" font-family="Times,serif" font-size="14.00">&quot;https//example.org/&quot;</text>
</g>
<!-- index.example.org/id/org/x&#45;&gt;&quot;https//example.org/&quot; -->
<g id="edge18" class="edge">
<title>index.example.org/id/org/x&#45;&gt;&quot;https//example.org/&quot;</title>
<path fill="none" stroke="black" d="M145.73,-261.96C166.67,-223.97 220.28,-135.01 288.38,-84 330.75,-52.26 386.87,-35.71 435.88,-27.12"/>
<polygon fill="black" stroke="black" points="436.61,-30.54 445.9,-25.45 435.46,-23.64 436.61,-30.54"/>
<text text-anchor="middle" x="328.88" y="-87.8" font-family="Times,serif" font-size="14.00">url</text>
</g>
<!-- Place -->
<g id="node19" class="node">
<title>Place</title>
<ellipse fill="none" stroke="#558855" cx="1017.33" cy="-450" rx="36" ry="18"/>
<text text-anchor="middle" x="1017.33" y="-446.3" font-family="Times,serif" font-size="14.00">Place</text>
</g>
<!-- _&#45;&gt;Place -->
<g id="edge20" class="edge">
<title>_&#45;&gt;Place</title>
<path fill="none" stroke="black" d="M571.68,-349.38C623.18,-364.95 748.05,-401.46 854.85,-423 894.57,-431.01 940.14,-438.47 972.71,-443.51"/>
<polygon fill="black" stroke="black" points="972.4,-447.01 982.81,-445.06 973.46,-440.09 972.4,-447.01"/>
<text text-anchor="middle" x="780.35" y="-420.8" font-family="Times,serif" font-size="14.00">type</text>
</g>
<!-- &quot;38 avenue de l&#39;Opera, F&#45;7...&quot; -->
<g id="node20" class="node">
<title>&quot;38 avenue de l&#39;Opera, F&#45;7...&quot;</title>
<ellipse fill="none" stroke="black" stroke-width="0" cx="1017.33" cy="-396" rx="147.57" ry="18"/>
<text text-anchor="middle" x="1017.33" y="-392.3" font-family="Times,serif" font-size="14.00">&quot;38 avenue de l&#39;Opera, F&#45;7...&quot;</text>
</g>
<!-- _&#45;&gt;&quot;38 avenue de l&#39;Opera, F&#45;7...&quot; -->
<g id="edge21" class="edge">
<title>_&#45;&gt;&quot;38 avenue de l&#39;Opera, F&#45;7...&quot;</title>
<path fill="none" stroke="black" d="M573.48,-344.98C634.38,-352 789.92,-369.92 899.38,-382.53"/>
<polygon fill="black" stroke="black" points="899.16,-386.02 909.49,-383.69 899.96,-379.07 899.16,-386.02"/>
<text text-anchor="middle" x="780.35" y="-376.8" font-family="Times,serif" font-size="14.00">address</text>
</g>
<!-- &quot;Paris&quot; -->
<g id="node21" class="node">
<title>&quot;Paris&quot;</title>
<ellipse fill="none" stroke="black" stroke-width="0" cx="1017.33" cy="-342" rx="42.79" ry="18"/>
<text text-anchor="middle" x="1017.33" y="-338.3" font-family="Times,serif" font-size="14.00">&quot;Paris&quot;</text>
</g>
<!-- _&#45;&gt;&quot;Paris&quot; -->
<g id="edge22" class="edge">
<title>_&#45;&gt;&quot;Paris&quot;</title>
<path fill="none" stroke="black" d="M573.82,-342C648.58,-342 863.93,-342 964.03,-342"/>
<polygon fill="black" stroke="black" points="964.21,-345.5 974.21,-342 964.21,-338.5 964.21,-345.5"/>
<text text-anchor="middle" x="780.35" y="-345.8" font-family="Times,serif" font-size="14.00">name</text>
</g>
<!-- PostalAddress -->
<g id="node22" class="node">
<title>PostalAddress</title>
<ellipse fill="none" stroke="#558855" cx="1017.33" cy="-288" rx="76.89" ry="18"/>
<text text-anchor="middle" x="1017.33" y="-284.3" font-family="Times,serif" font-size="14.00">PostalAddress</text>
</g>
<!-- _&#45;&gt;PostalAddress -->
<g id="edge23" class="edge">
<title>_&#45;&gt;PostalAddress</title>
<path fill="none" stroke="black" d="M573.48,-339.02C641.99,-331.13 830.25,-309.44 937.97,-297.03"/>
<polygon fill="black" stroke="black" points="938.6,-300.48 948.14,-295.86 937.8,-293.52 938.6,-300.48"/>
<text text-anchor="middle" x="780.35" y="-324.8" font-family="Times,serif" font-size="14.00">type</text>
</g>
<!-- &quot;Paris, France&quot; -->
<g id="node23" class="node">
<title>&quot;Paris, France&quot;</title>
<ellipse fill="none" stroke="black" stroke-width="0" cx="1017.33" cy="-234" rx="81.49" ry="18"/>
<text text-anchor="middle" x="1017.33" y="-230.3" font-family="Times,serif" font-size="14.00">&quot;Paris, France&quot;</text>
</g>
<!-- _&#45;&gt;&quot;Paris, France&quot; -->
<g id="edge24" class="edge">
<title>_&#45;&gt;&quot;Paris, France&quot;</title>
<path fill="none" stroke="black" d="M573.75,-343.25C606.9,-343.62 664.7,-340.12 705.85,-315 717.23,-308.05 712.67,-298.26 723.85,-291 773.93,-258.46 796.25,-272.6 854.85,-261 882.54,-255.52 913.05,-250.23 940.02,-245.8"/>
<polygon fill="black" stroke="black" points="940.87,-249.21 950.17,-244.15 939.74,-242.3 940.87,-249.21"/>
<text text-anchor="middle" x="780.35" y="-294.8" font-family="Times,serif" font-size="14.00">addressLocality</text>
</g>
<!-- &quot;F&#45;75002&quot; -->
<g id="node24" class="node">
<title>&quot;F&#45;75002&quot;</title>
<ellipse fill="none" stroke="black" stroke-width="0" cx="1017.33" cy="-180" rx="57.69" ry="18"/>
<text text-anchor="middle" x="1017.33" y="-176.3" font-family="Times,serif" font-size="14.00">&quot;F&#45;75002&quot;</text>
</g>
<!-- _&#45;&gt;&quot;F&#45;75002&quot; -->
<g id="edge25" class="edge">
<title>_&#45;&gt;&quot;F&#45;75002&quot;</title>
<path fill="none" stroke="black" d="M573.15,-345.42C607.81,-348.53 669.56,-348.41 705.85,-315 729.48,-293.24 701.48,-268.06 723.85,-245 782.54,-184.48 884.16,-174.54 950.82,-175.39"/>
<polygon fill="black" stroke="black" points="951.13,-178.9 961.2,-175.61 951.28,-171.9 951.13,-178.9"/>
<text text-anchor="middle" x="780.35" y="-248.8" font-family="Times,serif" font-size="14.00">postalCode</text>
</g>
<!-- &quot;38 avenue de l&#39;Opera&quot; -->
<g id="node25" class="node">
<title>&quot;38 avenue de l&#39;Opera&quot;</title>
<ellipse fill="none" stroke="black" stroke-width="0" cx="1017.33" cy="-126" rx="118.08" ry="18"/>
<text text-anchor="middle" x="1017.33" y="-122.3" font-family="Times,serif" font-size="14.00">&quot;38 avenue de l&#39;Opera&quot;</text>
</g>
<!-- _&#45;&gt;&quot;38 avenue de l&#39;Opera&quot; -->
<g id="edge26" class="edge">
<title>_&#45;&gt;&quot;38 avenue de l&#39;Opera&quot;</title>
<path fill="none" stroke="black" d="M573.2,-346.01C608.49,-349.93 671.62,-350.91 705.85,-315 751.57,-267.03 677.42,-214.28 723.85,-167 775,-114.91 859.73,-108.08 924.86,-112.28"/>
<polygon fill="black" stroke="black" points="924.91,-115.79 935.14,-113.04 925.43,-108.81 924.91,-115.79"/>
<text text-anchor="middle" x="780.35" y="-170.8" font-family="Times,serif" font-size="14.00">streetAddress</text>
</g>
<!-- Person -->
<g id="node18" class="node">
<title>Person</title>
<ellipse fill="none" stroke="#558855" cx="1017.33" cy="-72" rx="42.49" ry="18"/>
<text text-anchor="middle" x="1017.33" y="-68.3" font-family="Times,serif" font-size="14.00">Person</text>
</g>
<!-- orcid.org/0000&#45;0002&#45;2257&#45;9127&#45;&gt;Person -->
<g id="edge19" class="edge">
<title>orcid.org/0000&#45;0002&#45;2257&#45;9127&#45;&gt;Person</title>
<path fill="none" stroke="black" d="M679.3,-170.02C688.96,-165.66 697.98,-160.08 705.85,-153 727.81,-133.23 700.82,-107.52 723.85,-89 794.43,-32.23 908.35,-46.22 971.16,-59.99"/>
<polygon fill="black" stroke="black" points="970.63,-63.46 981.16,-62.28 972.19,-56.63 970.63,-63.46"/>
<text text-anchor="middle" x="780.35" y="-92.8" font-family="Times,serif" font-size="14.00">type</text>
</g>
</g>
</svg>