<?xml version="1.0" encoding="UTF-8" standalone="no"?>
<!DOCTYPE svg PUBLIC "-//W3C//DTD SVG 1.1//EN"
 "http://www.w3.org/Graphics/SVG/1.1/DTD/svg11.dtd">
<!-- Generated by graphviz version 2.43.0 (0)
 -->
<!-- Title: %3 Pages: 1 -->
<svg width="1366pt" height="370pt"
 viewBox="0.00 0.00 1366.11 370.00" xmlns="http://www.w3.org/2000/svg" xmlns:xlink="http://www.w3.org/1999/xlink">
<g id="graph0" class="graph" transform="scale(1 1) rotate(0) translate(4 366)">
<title>%3</title>
<polygon fill="white" stroke="transparent" points="-4,4 -4,-366 1362.11,-366 1362.11,4 -4,4"/>
<!-- CreativeWork -->
<g id="node1" class="node">
<title>CreativeWork</title>
<ellipse fill="none" stroke="#558855" cx="1200.82" cy="-181" rx="74.19" ry="18"/>
<text text-anchor="middle" x="1200.82" y="-177.3" font-family="Times,serif" font-size="14.00">CreativeWork</text>
</g>
<!-- dx.doi.org/10.1038/sdata.2016.18 -->
<g id="node2" class="node">
<title>dx.doi.org/10.1038/sdata.2016.18</title>
<ellipse fill="none" stroke="#558855" cx="758.85" cy="-237" rx="167.87" ry="18"/>
<text text-anchor="middle" x="758.85" y="-233.3" font-family="Times,serif" font-size="14.00">dx.doi.org/10.1038/sdata.2016.18</text>
</g>
<!-- dx.doi.org/10.1038/sdata.2016.18&#45;&gt;CreativeWork -->
<g id="edge1" class="edge">
<title>dx.doi.org/10.1038/sdata.2016.18&#45;&gt;CreativeWork</title>
<path fill="none" stroke="black" d="M867.76,-223.27C947.54,-213.11 1054.15,-199.54 1124.81,-190.55"/>
<polygon fill="black" stroke="black" points="1125.48,-193.99 1134.96,-189.26 1124.6,-187.05 1125.48,-193.99"/>
<text text-anchor="middle" x="985.03" y="-215.8" font-family="Times,serif" font-size="14.00">type</text>
</g>
<!-- &quot;FAIR Principles definitio...&quot; -->
<g id="node3" class="node">
<title>&quot;FAIR Principles definitio...&quot;</title>
<ellipse fill="none" stroke="black" stroke-width="0" cx="1200.82" cy="-344" rx="140.28" ry="18"/>
<text text-anchor="middle" x="1200.82" y="-340.3" font-family="Times,serif" font-size="14.00">&quot;FAIR Principles definitio...&quot;</text>
</g>
<!-- dx.doi.org/10.1038/sdata.2016.18&#45;&gt;&quot;FAIR Principles definitio...&quot; -->
<g id="edge2" class="edge">
<title>dx.doi.org/10.1038/sdata.2016.18&#45;&gt;&quot;FAIR Principles definitio...&quot;</title>
<path fill="none" stroke="black" d="M813.8,-254.02C870.56,-271.5 962.69,-298.67 1043.53,-317 1061.74,-321.13 1081.27,-324.96 1100.14,-328.37"/>
<polygon fill="black" stroke="black" points="1099.79,-331.86 1110.24,-330.17 1101.01,-324.97 1099.79,-331.86"/>
<text text-anchor="middle" x="985.03" y="-314.8" font-family="Times,serif" font-size="14.00">description</text>
</g>
<!-- &quot;FAIR data principles&quot; -->
<g id="node4" class="node">
<title>&quot;FAIR data principles&quot;</title>
<ellipse fill="none" stroke="black" stroke-width="0" cx="1200.82" cy="-290" rx="113.98" ry="18"/>
<text text-anchor="middle" x="1200.82" y="-286.3" font-family="Times,serif" font-size="14.00">&quot;FAIR data principles&quot;</text>
</g>
<!-- dx.doi.org/10.1038/sdata.2016.18&#45;&gt;&quot;FAIR data principles&quot; -->
<g id="edge3" class="edge">
<title>dx.doi.org/10.1038/sdata.2016.18&#45;&gt;&quot;FAIR data principles&quot;</title>
<path fill="none" stroke="black" d="M871.16,-250.41C941.38,-258.87 1031.33,-269.7 1099.37,-277.9"/>
<polygon fill="black" stroke="black" points="1099.33,-281.42 1109.67,-279.14 1100.16,-274.47 1099.33,-281.42"/>
<text text-anchor="middle" x="985.03" y="-271.8" font-family="Times,serif" font-size="14.00">name</text>
</g>
<!-- &quot;https//www.nature.com/art...&quot; -->
<g id="node5" class="node">
<title>&quot;https//www.nature.com/art...&quot;</title>
<ellipse fill="none" stroke="black" stroke-width="0" cx="1200.82" cy="-236" rx="153.27" ry="18"/>
<text text-anchor="middle" x="1200.82" y="-232.3" font-family="Times,serif" font-size="14.00">&quot;https//www.nature.com/art...&quot;</text>
</g>
<!-- dx.doi.org/10.1038/sdata.2016.18&#45;&gt;&quot;https//www.nature.com/art...&quot; -->
<g id="edge4" class="edge">
<title>dx.doi.org/10.1038/sdata.2016.18&#45;&gt;&quot;https//www.nature.com/art...&quot;</title>
<path fill="none" stroke="black" d="M926.81,-236.62C963.03,-236.54 1001.29,-236.45 1037.33,-236.37"/>
<polygon fill="black" stroke="black" points="1037.44,-239.87 1047.44,-236.35 1037.43,-232.87 1037.44,-239.87"/>
<text text-anchor="middle" x="985.03" y="-239.8" font-family="Times,serif" font-size="14.00">url</text>
</g>
<!-- Organization -->
<g id="node6" class="node">
<title>Organization</title>
<ellipse fill="none" stroke="#558855" cx="758.85" cy="-180" rx="70.69" ry="18"/>
<text text-anchor="middle" x="758.85" y="-176.3" font-family="Times,serif" font-size="14.00">Organization</text>
</g>
<!-- example.org/permanentUrlToThisJsonDoc -->
<g id="node7" class="node">
<title>example.org/permanentUrlToThisJsonDoc</title>
<ellipse fill="none" stroke="black" cx="204.08" cy="-180" rx="204.16" ry="18"/>
<text text-anchor="middle" x="204.08" y="-176.3" font-family="Times,serif" font-size="14.00">example.org/permanentUrlToThisJsonDoc</text>
</g>
<!-- example.org/permanentUrlToThisJsonDoc&#45;&gt;dx.doi.org/10.1038/sdata.2016.18 -->
<g id="edge6" class="edge">
<title>example.org/permanentUrlToThisJsonDoc&#45;&gt;dx.doi.org/10.1038/sdata.2016.18</title>
<path fill="none" stroke="black" d="M337.48,-193.65C425.29,-202.71 539.99,-214.53 627.39,-223.55"/>
<polygon fill="black" stroke="black" points="627.07,-227.03 637.37,-224.58 627.78,-220.07 627.07,-227.03"/>
<text text-anchor="middle" x="499.66" y="-219.8" font-family="Times,serif" font-size="14.00">publishingPrinciples</text>
</g>
<!-- example.org/permanentUrlToThisJsonDoc&#45;&gt;Organization -->
<g id="edge5" class="edge">
<title>example.org/permanentUrlToThisJsonDoc&#45;&gt;Organization</title>
<path fill="none" stroke="black" d="M408.17,-180C501.66,-180 607.21,-180 677.66,-180"/>
<polygon fill="black" stroke="black" points="677.8,-183.5 687.8,-180 677.8,-176.5 677.8,-183.5"/>
<text text-anchor="middle" x="499.66" y="-183.8" font-family="Times,serif" font-size="14.00">type</text>
</g>
<!-- sdgs.un.org/goals/goal14 -->
<g id="node8" class="node">
<title>sdgs.un.org/goals/goal14</title>
<ellipse fill="none" stroke="#558855" cx="758.85" cy="-123" rx="126.98" ry="18"/>
<text text-anchor="middle" x="758.85" y="-119.3" font-family="Times,serif" font-size="14.00">sdgs.un.org/goals/goal14</text>
</g>
<!-- example.org/permanentUrlToThisJsonDoc&#45;&gt;sdgs.un.org/goals/goal14 -->
<g id="edge7" class="edge">
<title>example.org/permanentUrlToThisJsonDoc&#45;&gt;sdgs.un.org/goals/goal14</title>
<path fill="none" stroke="black" d="M337.48,-166.35C431.59,-156.64 556.6,-143.75 645.78,-134.56"/>
<polygon fill="black" stroke="black" points="646.34,-138.02 655.92,-133.51 645.62,-131.05 646.34,-138.02"/>
<text text-anchor="middle" x="499.66" y="-159.8" font-family="Times,serif" font-size="14.00">publishingPrinciples</text>
</g>
<!-- sdgs.un.org/goals/goal14&#45;&gt;CreativeWork -->
<g id="edge8" class="edge">
<title>sdgs.un.org/goals/goal14&#45;&gt;CreativeWork</title>
<path fill="none" stroke="black" d="M852.35,-135.19C933.35,-145.87 1049.57,-161.19 1124.88,-171.12"/>
<polygon fill="black" stroke="black" points="1124.85,-174.65 1135.23,-172.48 1125.77,-167.71 1124.85,-174.65"/>
<text text-anchor="middle" x="985.03" y="-160.8" font-family="Times,serif" font-size="14.00">type</text>
</g>
<!-- &quot;Conserve and sustainably ...&quot; -->
<g id="node9" class="node">
<title>&quot;Conserve and sustainably ...&quot;</title>
<ellipse fill="none" stroke="black" stroke-width="0" cx="1200.82" cy="-126" rx="150.57" ry="18"/>
<text text-anchor="middle" x="1200.82" y="-122.3" font-family="Times,serif" font-size="14.00">&quot;Conserve and sustainably ...&quot;</text>
</g>
<!-- sdgs.un.org/goals/goal14&#45;&gt;&quot;Conserve and sustainably ...&quot; -->
<g id="edge9" class="edge">
<title>sdgs.un.org/goals/goal14&#45;&gt;&quot;Conserve and sustainably ...&quot;</title>
<path fill="none" stroke="black" d="M885.88,-123.28C930.04,-123.42 979.99,-123.65 1025.53,-124 1030.38,-124.04 1035.31,-124.08 1040.29,-124.12"/>
<polygon fill="black" stroke="black" points="1040.52,-127.62 1050.55,-124.21 1040.59,-120.62 1040.52,-127.62"/>
<text text-anchor="middle" x="985.03" y="-127.8" font-family="Times,serif" font-size="14.00">description</text>
</g>
<!-- &quot;Sustainable Development G...&quot; -->
<g id="node10" class="node">
<title>&quot;Sustainable Development G...&quot;</title>
<ellipse fill="none" stroke="black" stroke-width="0" cx="1200.82" cy="-72" rx="157.07" ry="18"/>
<text text-anchor="middle" x="1200.82" y="-68.3" font-family="Times,serif" font-size="14.00">&quot;Sustainable Development G...&quot;</text>
</g>
<!-- sdgs.un.org/goals/goal14&#45;&gt;&quot;Sustainable Development G...&quot; -->
<g id="edge10" class="edge">
<title>sdgs.un.org/goals/goal14&#45;&gt;&quot;Sustainable Development G...&quot;</title>
<path fill="none" stroke="black" d="M857.49,-111.68C923,-104.09 1009.74,-94.03 1079.51,-85.95"/>
<polygon fill="black" stroke="black" points="1080.15,-89.4 1089.68,-84.77 1079.34,-82.44 1080.15,-89.4"/>
<text text-anchor="middle" x="985.03" y="-103.8" font-family="Times,serif" font-size="14.00">name</text>
</g>
<!-- &quot;https//sdgs.un.org/goals/...&quot; -->
<g id="node11" class="node">
<title>&quot;https//sdgs.un.org/goals/...&quot;</title>
<ellipse fill="none" stroke="black" stroke-width="0" cx="1200.82" cy="-18" rx="143.77" ry="18"/>
<text text-anchor="middle" x="1200.82" y="-14.3" font-family="Times,serif" font-size="14.00">&quot;https//sdgs.un.org/goals/...&quot;</text>
</g>
<!-- sdgs.un.org/goals/goal14&#45;&gt;&quot;https//sdgs.un.org/goals/...&quot; -->
<g id="edge11" class="edge">
<title>sdgs.un.org/goals/goal14&#45;&gt;&quot;https//sdgs.un.org/goals/...&quot;</title>
<path fill="none" stroke="black" d="M813.05,-106.7C869.77,-89.72 962.4,-63.12 1043.53,-45 1061.64,-40.96 1081.05,-37.17 1099.81,-33.79"/>
<polygon fill="black" stroke="black" points="1100.62,-37.2 1109.86,-32 1099.4,-30.31 1100.62,-37.2"/>
<text text-anchor="middle" x="985.03" y="-71.8" font-family="Times,serif" font-size="14.00">url</text>
</g>
</g>
</svg>