<?xml version="1.0" encoding="UTF-8" standalone="no"?>
<!DOCTYPE svg PUBLIC "-//W3C//DTD SVG 1.1//EN"
 "http://www.w3.org/Graphics/SVG/1.1/DTD/svg11.dtd">
<!-- Generated by graphviz version 2.43.0 (0)
 -->
<!-- Title: %3 Pages: 1 -->
<svg width="909pt" height="152pt"
 viewBox="0.00 0.00 908.75 152.00" xmlns="http://www.w3.org/2000/svg" xmlns:xlink="http://www.w3.org/1999/xlink">
<g id="graph0" class="graph" transform="scale(1 1) rotate(0) translate(4 148)">
<title>%3</title>
<polygon fill="white" stroke="transparent" points="-4,4 -4,-148 904.75,-148 904.75,4 -4,4"/>
<!-- Person -->
<g id="node1" class="node">
<title>Person</title>
<ellipse fill="none" stroke="#558855" cx="601.41" cy="-126" rx="42.49" ry="18"/>
<text text-anchor="middle" x="601.41" y="-122.3" font-family="Times,serif" font-size="14.00">Person</text>
</g>
<!-- example.org/permanentUrlToThisJsonDoc -->
<g id="node2" class="node">
<title>example.org/permanentUrlToThisJsonDoc</title>
<ellipse fill="none" stroke="black" cx="204.08" cy="-99" rx="204.16" ry="18"/>
<text text-anchor="middle" x="204.08" y="-95.3" font-family="Times,serif" font-size="14.00">example.org/permanentUrlToThisJsonDoc</text>
</g>
<!-- example.org/permanentUrlToThisJsonDoc&#45;&gt;Person -->
<g id="edge1" class="edge">
<title>example.org/permanentUrlToThisJsonDoc&#45;&gt;Person</title>
<path fill="none" stroke="black" d="M365.88,-109.98C431.46,-114.46 502.66,-119.32 549.19,-122.5"/>
<polygon fill="black" stroke="black" points="549.1,-126 559.31,-123.19 549.58,-119.02 549.1,-126"/>
<text text-anchor="middle" x="483.66" y="-124.8" font-family="Times,serif" font-size="14.00">type</text>
</g>
<!-- _ -->
<g id="node3" class="node">
<title>_</title>
<ellipse fill="none" stroke="#558855" cx="601.41" cy="-72" rx="27" ry="18"/>
<text text-anchor="middle" x="601.41" y="-68.3" font-family="Times,serif" font-size="14.00">_</text>
</g>
<!-- example.org/permanentUrlToThisJsonDoc&#45;&gt;_ -->
<g id="edge2" class="edge">
<title>example.org/permanentUrlToThisJsonDoc&#45;&gt;_</title>
<path fill="none" stroke="black" d="M365.88,-88.02C438.9,-83.03 518.89,-77.57 564.04,-74.48"/>
<polygon fill="black" stroke="black" points="564.47,-77.96 574.2,-73.79 563.99,-70.98 564.47,-77.96"/>
<text text-anchor="middle" x="483.66" y="-86.8" font-family="Times,serif" font-size="14.00">knowsLanguage</text>
</g>
<!-- Language -->
<g id="node4" class="node">
<title>Language</title>
<ellipse fill="none" stroke="#558855" cx="844.2" cy="-126" rx="55.79" ry="18"/>
<text text-anchor="middle" x="844.2" y="-122.3" font-family="Times,serif" font-size="14.00">Language</text>
</g>
<!-- _&#45;&gt;Language -->
<g id="edge3" class="edge">
<title>_&#45;&gt;Language</title>
<path fill="none" stroke="black" d="M625.58,-80.14C636.44,-83.78 649.62,-87.92 661.66,-91 701.85,-101.28 747.73,-110.1 783.31,-116.32"/>
<polygon fill="black" stroke="black" points="783.08,-119.83 793.53,-118.08 784.27,-112.93 783.08,-119.83"/>
<text text-anchor="middle" x="715.66" y="-116.8" font-family="Times,serif" font-size="14.00">type</text>
</g>
<!-- &quot;es&quot; -->
<g id="node5" class="node">
<title>&quot;es&quot;</title>
<ellipse fill="none" stroke="black" stroke-width="0" cx="844.2" cy="-72" rx="29.8" ry="18"/>
<text text-anchor="middle" x="844.2" y="-68.3" font-family="Times,serif" font-size="14.00">&quot;es&quot;</text>
</g>
<!-- _&#45;&gt;&quot;es&quot; -->
<g id="edge4" class="edge">
<title>_&#45;&gt;&quot;es&quot;</title>
<path fill="none" stroke="black" d="M628.64,-72C670.88,-72 754.25,-72 803.71,-72"/>
<polygon fill="black" stroke="black" points="804.02,-75.5 814.02,-72 804.02,-68.5 804.02,-75.5"/>
<text text-anchor="middle" x="715.66" y="-75.8" font-family="Times,serif" font-size="14.00">alternateName</text>
</g>
<!-- &quot;Spanish&quot; -->
<g id="node6" class="node">
<title>&quot;Spanish&quot;</title>
<ellipse fill="none" stroke="black" stroke-width="0" cx="844.2" cy="-18" rx="56.59" ry="18"/>
<text text-anchor="middle" x="844.2" y="-14.3" font-family="Times,serif" font-size="14.00">&quot;Spanish&quot;</text>
</g>
<!-- _&#45;&gt;&quot;Spanish&quot; -->
<g id="edge5" class="edge">
<title>_&#45;&gt;&quot;Spanish&quot;</title>
<path fill="none" stroke="black" d="M625.58,-63.86C636.44,-60.22 649.62,-56.08 661.66,-53 701.71,-42.76 747.41,-33.96 782.94,-27.75"/>
<polygon fill="black" stroke="black" points="783.89,-31.14 793.14,-25.99 782.69,-24.24 783.89,-31.14"/>
<text text-anchor="middle" x="715.66" y="-56.8" font-family="Times,serif" font-size="14.00">name</text>
</g>
</g>
</svg>