<?xml version="1.0" encoding="UTF-8" standalone="no"?>
<!DOCTYPE svg PUBLIC "-//W3C//DTD SVG 1.1//EN"
 "http://www.w3.org/Graphics/SVG/1.1/DTD/svg11.dtd">
<!-- Generated by graphviz version 2.43.0 (0)
 -->
<!-- Title: %3 Pages: 1 -->
<svg width="1330pt" height="692pt"
 viewBox="0.00 0.00 1330.20 692.00" xmlns="http://www.w3.org/2000/svg" xmlns:xlink="http://www.w3.org/1999/xlink">
<g id="graph0" class="graph" transform="scale(1 1) rotate(0) translate(4 688)">
<title>%3</title>
<polygon fill="white" stroke="transparent" points="-4,4 -4,-688 1326.2,-688 1326.2,4 -4,4"/>
<!-- CreativeWork -->
<g id="node1" class="node">
<title>CreativeWork</title>
<ellipse fill="none" stroke="#558855" cx="1159.07" cy="-666" rx="74.19" ry="18"/>
<text text-anchor="middle" x="1159.07" y="-662.3" font-family="Times,serif" font-size="14.00">CreativeWork</text>
</g>
<!-- purl.unep.org/sdg/SDGIO_00020173 -->
<g id="node2" class="node">
<title>purl.unep.org/sdg/SDGIO_00020173</title>
<ellipse fill="none" stroke="#558855" cx="699.55" cy="-558" rx="179.27" ry="18"/>
<text text-anchor="middle" x="699.55" y="-554.3" font-family="Times,serif" font-size="14.00">purl.unep.org/sdg/SDGIO_00020173</text>
</g>
<!-- purl.unep.org/sdg/SDGIO_00020173&#45;&gt;CreativeWork -->
<g id="edge1" class="edge">
<title>purl.unep.org/sdg/SDGIO_00020173&#45;&gt;CreativeWork</title>
<path fill="none" stroke="black" d="M756.2,-575.1C815.27,-592.81 911.54,-620.45 995.93,-639 1024.73,-645.33 1056.69,-650.95 1084.57,-655.4"/>
<polygon fill="black" stroke="black" points="1084.22,-658.88 1094.64,-656.98 1085.31,-651.97 1084.22,-658.88"/>
<text text-anchor="middle" x="937.43" y="-636.8" font-family="Times,serif" font-size="14.00">type</text>
</g>
<!-- &quot;Number of countries makin...&quot; -->
<g id="node3" class="node">
<title>&quot;Number of countries makin...&quot;</title>
<ellipse fill="none" stroke="black" stroke-width="0" cx="1159.07" cy="-612" rx="155.17" ry="18"/>
<text text-anchor="middle" x="1159.07" y="-608.3" font-family="Times,serif" font-size="14.00">&quot;Number of countries makin...&quot;</text>
</g>
<!-- purl.unep.org/sdg/SDGIO_00020173&#45;&gt;&quot;Number of countries makin...&quot; -->
<g id="edge2" class="edge">
<title>purl.unep.org/sdg/SDGIO_00020173&#45;&gt;&quot;Number of countries makin...&quot;</title>
<path fill="none" stroke="black" d="M816.59,-571.7C884.85,-579.75 970.95,-589.91 1039.62,-598.02"/>
<polygon fill="black" stroke="black" points="1039.27,-601.5 1049.62,-599.2 1040.1,-594.55 1039.27,-601.5"/>
<text text-anchor="middle" x="937.43" y="-592.8" font-family="Times,serif" font-size="14.00">description</text>
</g>
<!-- &quot;UNSD SDG indicator codeC1...&quot; -->
<g id="node4" class="node">
<title>&quot;UNSD SDG indicator codeC1...&quot;</title>
<ellipse fill="none" stroke="black" stroke-width="0" cx="1159.07" cy="-558" rx="163.27" ry="18"/>
<text text-anchor="middle" x="1159.07" y="-554.3" font-family="Times,serif" font-size="14.00">&quot;UNSD SDG indicator codeC1...&quot;</text>
</g>
<!-- purl.unep.org/sdg/SDGIO_00020173&#45;&gt;&quot;UNSD SDG indicator codeC1...&quot; -->
<g id="edge3" class="edge">
<title>purl.unep.org/sdg/SDGIO_00020173&#45;&gt;&quot;UNSD SDG indicator codeC1...&quot;</title>
<path fill="none" stroke="black" d="M879.07,-558C914.11,-558 950.8,-558 985.63,-558"/>
<polygon fill="black" stroke="black" points="985.88,-561.5 995.88,-558 985.88,-554.5 985.88,-561.5"/>
<text text-anchor="middle" x="937.43" y="-561.8" font-family="Times,serif" font-size="14.00">name</text>
</g>
<!-- &quot;http//www.ontobee.org/ont...&quot; -->
<g id="node5" class="node">
<title>&quot;http//www.ontobee.org/ont...&quot;</title>
<ellipse fill="none" stroke="black" stroke-width="0" cx="1159.07" cy="-504" rx="152.97" ry="18"/>
<text text-anchor="middle" x="1159.07" y="-500.3" font-family="Times,serif" font-size="14.00">&quot;http//www.ontobee.org/ont...&quot;</text>
</g>
<!-- purl.unep.org/sdg/SDGIO_00020173&#45;&gt;&quot;http//www.ontobee.org/ont...&quot; -->
<g id="edge4" class="edge">
<title>purl.unep.org/sdg/SDGIO_00020173&#45;&gt;&quot;http//www.ontobee.org/ont...&quot;</title>
<path fill="none" stroke="black" d="M816.59,-544.3C885.1,-536.22 971.58,-526.01 1040.38,-517.89"/>
<polygon fill="black" stroke="black" points="1040.87,-521.36 1050.39,-516.71 1040.05,-514.4 1040.87,-521.36"/>
<text text-anchor="middle" x="937.43" y="-537.8" font-family="Times,serif" font-size="14.00">url</text>
</g>
<!-- PropertyValue -->
<g id="node6" class="node">
<title>PropertyValue</title>
<ellipse fill="none" stroke="#558855" cx="1159.07" cy="-288" rx="77.19" ry="18"/>
<text text-anchor="middle" x="1159.07" y="-284.3" font-family="Times,serif" font-size="14.00">PropertyValue</text>
</g>
<!-- doi.org/10.5066/F7VX0DMQ -->
<g id="node7" class="node">
<title>doi.org/10.5066/F7VX0DMQ</title>
<ellipse fill="none" stroke="#558855" cx="699.55" cy="-366" rx="141.88" ry="18"/>
<text text-anchor="middle" x="699.55" y="-362.3" font-family="Times,serif" font-size="14.00">doi.org/10.5066/F7VX0DMQ</text>
</g>
<!-- doi.org/10.5066/F7VX0DMQ&#45;&gt;PropertyValue -->
<g id="edge5" class="edge">
<title>doi.org/10.5066/F7VX0DMQ&#45;&gt;PropertyValue</title>
<path fill="none" stroke="black" d="M823.95,-357.34C842.95,-353.19 861.9,-347.3 878.93,-339 888.82,-334.18 886.99,-326.72 896.93,-322 951.55,-296.08 1019.41,-287.86 1072.27,-285.98"/>
<polygon fill="black" stroke="black" points="1072.4,-289.48 1082.29,-285.69 1072.19,-282.48 1072.4,-289.48"/>
<text text-anchor="middle" x="937.43" y="-325.8" font-family="Times,serif" font-size="14.00">type</text>
</g>
<!-- &quot;https//registry.identifie...&quot; -->
<g id="node8" class="node">
<title>&quot;https//registry.identifie...&quot;</title>
<ellipse fill="none" stroke="black" stroke-width="0" cx="1159.07" cy="-396" rx="135.38" ry="18"/>
<text text-anchor="middle" x="1159.07" y="-392.3" font-family="Times,serif" font-size="14.00">&quot;https//registry.identifie...&quot;</text>
</g>
<!-- doi.org/10.5066/F7VX0DMQ&#45;&gt;&quot;https//registry.identifie...&quot; -->
<g id="edge6" class="edge">
<title>doi.org/10.5066/F7VX0DMQ&#45;&gt;&quot;https//registry.identifie...&quot;</title>
<path fill="none" stroke="black" d="M828.3,-373.54C875.35,-376.39 929.07,-379.74 977.93,-383 994.8,-384.13 1012.55,-385.35 1030.07,-386.59"/>
<polygon fill="black" stroke="black" points="1030.13,-390.1 1040.35,-387.32 1030.62,-383.12 1030.13,-390.1"/>
<text text-anchor="middle" x="937.43" y="-386.8" font-family="Times,serif" font-size="14.00">propertyID</text>
</g>
<!-- &quot;https//doi.org/10.5066/F7...&quot; -->
<g id="node9" class="node">
<title>&quot;https//doi.org/10.5066/F7...&quot;</title>
<ellipse fill="none" stroke="black" stroke-width="0" cx="1159.07" cy="-450" rx="147.57" ry="18"/>
<text text-anchor="middle" x="1159.07" y="-446.3" font-family="Times,serif" font-size="14.00">&quot;https//doi.org/10.5066/F7...&quot;</text>
</g>
<!-- doi.org/10.5066/F7VX0DMQ&#45;&gt;&quot;https//doi.org/10.5066/F7...&quot; -->
<g id="edge7" class="edge">
<title>doi.org/10.5066/F7VX0DMQ&#45;&gt;&quot;https//doi.org/10.5066/F7...&quot;</title>
<path fill="none" stroke="black" d="M776.34,-381.18C835.95,-392.98 921.14,-409.56 995.93,-423 1016.42,-426.68 1038.4,-430.46 1059.35,-433.98"/>
<polygon fill="black" stroke="black" points="1058.78,-437.43 1069.22,-435.63 1059.93,-430.52 1058.78,-437.43"/>
<text text-anchor="middle" x="937.43" y="-421.8" font-family="Times,serif" font-size="14.00">url</text>
</g>
<!-- &quot;doi10.5066/F7VX0DMQ&quot; -->
<g id="node10" class="node">
<title>&quot;doi10.5066/F7VX0DMQ&quot;</title>
<ellipse fill="none" stroke="black" stroke-width="0" cx="1159.07" cy="-342" rx="129.18" ry="18"/>
<text text-anchor="middle" x="1159.07" y="-338.3" font-family="Times,serif" font-size="14.00">&quot;doi10.5066/F7VX0DMQ&quot;</text>
</g>
<!-- doi.org/10.5066/F7VX0DMQ&#45;&gt;&quot;doi10.5066/F7VX0DMQ&quot; -->
<g id="edge8" class="edge">
<title>doi.org/10.5066/F7VX0DMQ&#45;&gt;&quot;doi10.5066/F7VX0DMQ&quot;</title>
<path fill="none" stroke="black" d="M801.06,-353.39C831.78,-350.04 865.7,-346.85 896.93,-345 936.78,-342.65 980.1,-341.56 1019.8,-341.14"/>
<polygon fill="black" stroke="black" points="1019.84,-344.64 1029.81,-341.05 1019.78,-337.64 1019.84,-344.64"/>
<text text-anchor="middle" x="937.43" y="-348.8" font-family="Times,serif" font-size="14.00">value</text>
</g>
<!-- example.org/permanentUrlToThisJsonDoc -->
<g id="node11" class="node">
<title>example.org/permanentUrlToThisJsonDoc</title>
<ellipse fill="none" stroke="black" cx="204.08" cy="-331" rx="204.16" ry="18"/>
<text text-anchor="middle" x="204.08" y="-327.3" font-family="Times,serif" font-size="14.00">example.org/permanentUrlToThisJsonDoc</text>
</g>
<!-- example.org/permanentUrlToThisJsonDoc&#45;&gt;CreativeWork -->
<g id="edge9" class="edge">
<title>example.org/permanentUrlToThisJsonDoc&#45;&gt;CreativeWork</title>
<path fill="none" stroke="black" d="M220.97,-349.26C263.8,-397.12 387.38,-526.53 520.16,-585 706.49,-667.05 951.08,-673.31 1076.36,-670.12"/>
<polygon fill="black" stroke="black" points="1076.74,-673.61 1086.64,-669.83 1076.54,-666.61 1076.74,-673.61"/>
<text text-anchor="middle" x="699.55" y="-667.8" font-family="Times,serif" font-size="14.00">type</text>
</g>
<!-- example.org/permanentUrlToThisJsonDoc&#45;&gt;purl.unep.org/sdg/SDGIO_00020173 -->
<g id="edge15" class="edge">
<title>example.org/permanentUrlToThisJsonDoc&#45;&gt;purl.unep.org/sdg/SDGIO_00020173</title>
<path fill="none" stroke="black" d="M230.97,-349.04C271.28,-376.54 352.1,-429.41 426.16,-464 492.55,-495 572.12,-521.3 628.07,-538.13"/>
<polygon fill="black" stroke="black" points="627.3,-541.55 637.89,-541.05 629.3,-534.84 627.3,-541.55"/>
<text text-anchor="middle" x="464.16" y="-497.8" font-family="Times,serif" font-size="14.00">subjectOf</text>
</g>
<!-- example.org/permanentUrlToThisJsonDoc&#45;&gt;doi.org/10.5066/F7VX0DMQ -->
<g id="edge10" class="edge">
<title>example.org/permanentUrlToThisJsonDoc&#45;&gt;doi.org/10.5066/F7VX0DMQ</title>
<path fill="none" stroke="black" d="M363.59,-342.24C428.6,-346.85 503.02,-352.13 565.17,-356.54"/>
<polygon fill="black" stroke="black" points="565.21,-360.05 575.43,-357.27 565.7,-353.07 565.21,-360.05"/>
<text text-anchor="middle" x="464.16" y="-354.8" font-family="Times,serif" font-size="14.00">identifier</text>
</g>
<!-- example.org/permanentUrlToThisJsonDoc&#45;&gt;&quot;https//doi.org/10.5066/F7...&quot; -->
<g id="edge14" class="edge">
<title>example.org/permanentUrlToThisJsonDoc&#45;&gt;&quot;https//doi.org/10.5066/F7...&quot;</title>
<path fill="none" stroke="black" d="M280.86,-347.69C344.49,-361.28 437.94,-380.24 520.16,-393 686.71,-418.85 728.98,-421.93 896.93,-436 933.22,-439.04 972.4,-441.55 1009.11,-443.56"/>
<polygon fill="black" stroke="black" points="1009.21,-447.07 1019.39,-444.12 1009.59,-440.08 1009.21,-447.07"/>
<text text-anchor="middle" x="699.55" y="-437.8" font-family="Times,serif" font-size="14.00">sameAs</text>
</g>
<!-- &quot;https//example.org/id/xyz&quot; -->
<g id="node12" class="node">
<title>&quot;https//example.org/id/xyz&quot;</title>
<ellipse fill="none" stroke="black" stroke-width="0" cx="699.55" cy="-312" rx="137.58" ry="18"/>
<text text-anchor="middle" x="699.55" y="-308.3" font-family="Times,serif" font-size="14.00">&quot;https//example.org/id/xyz&quot;</text>
</g>
<!-- example.org/permanentUrlToThisJsonDoc&#45;&gt;&quot;https//example.org/id/xyz&quot; -->
<g id="edge11" class="edge">
<title>example.org/permanentUrlToThisJsonDoc&#45;&gt;&quot;https//example.org/id/xyz&quot;</title>
<path fill="none" stroke="black" d="M385.15,-322.67C399.03,-322.09 412.82,-321.52 426.16,-321 467.98,-319.36 513.43,-317.78 554.99,-316.42"/>
<polygon fill="black" stroke="black" points="555.31,-319.91 565.19,-316.08 555.08,-312.91 555.31,-319.91"/>
<text text-anchor="middle" x="464.16" y="-324.8" font-family="Times,serif" font-size="14.00">isBasedOn</text>
</g>
<!-- www.sample&#45;data&#45;repository.org -->
<g id="node13" class="node">
<title>www.sample&#45;data&#45;repository.org</title>
<ellipse fill="none" stroke="#558855" cx="699.55" cy="-207" rx="160.57" ry="18"/>
<text text-anchor="middle" x="699.55" y="-203.3" font-family="Times,serif" font-size="14.00">www.sample&#45;data&#45;repository.org</text>
</g>
<!-- example.org/permanentUrlToThisJsonDoc&#45;&gt;www.sample&#45;data&#45;repository.org -->
<g id="edge12" class="edge">
<title>example.org/permanentUrlToThisJsonDoc&#45;&gt;www.sample&#45;data&#45;repository.org</title>
<path fill="none" stroke="black" d="M272.66,-314.02C364.31,-290.99 527.52,-249.98 623.08,-225.96"/>
<polygon fill="black" stroke="black" points="624.12,-229.31 632.96,-223.48 622.41,-222.52 624.12,-229.31"/>
<text text-anchor="middle" x="464.16" y="-275.8" font-family="Times,serif" font-size="14.00">provider</text>
</g>
<!-- example.org/permanentUrlToThisJsonDoc&#45;&gt;www.sample&#45;data&#45;repository.org -->
<g id="edge13" class="edge">
<title>example.org/permanentUrlToThisJsonDoc&#45;&gt;www.sample&#45;data&#45;repository.org</title>
<path fill="none" stroke="black" d="M238.86,-313.2C281.33,-291.66 357.07,-256.07 426.16,-238 464.79,-227.9 507.35,-221.09 547.12,-216.5"/>
<polygon fill="black" stroke="black" points="547.62,-219.97 557.17,-215.38 546.84,-213.01 547.62,-219.97"/>
<text text-anchor="middle" x="464.16" y="-241.8" font-family="Times,serif" font-size="14.00">publisher</text>
</g>
<!-- &quot;https//example.org/url/of...&quot; -->
<g id="node14" class="node">
<title>&quot;https//example.org/url/of...&quot;</title>
<ellipse fill="none" stroke="black" stroke-width="0" cx="699.55" cy="-153" rx="143.77" ry="18"/>
<text text-anchor="middle" x="699.55" y="-149.3" font-family="Times,serif" font-size="14.00">&quot;https//example.org/url/of...&quot;</text>
</g>
<!-- example.org/permanentUrlToThisJsonDoc&#45;&gt;&quot;https//example.org/url/of...&quot; -->
<g id="edge16" class="edge">
<title>example.org/permanentUrlToThisJsonDoc&#45;&gt;&quot;https//example.org/url/of...&quot;</title>
<path fill="none" stroke="black" d="M230.39,-313.1C270.25,-285.68 350.86,-233.28 426.16,-203 466.07,-186.95 477.97,-188.34 520.16,-180 543.02,-175.48 567.65,-171.31 591.1,-167.67"/>
<polygon fill="black" stroke="black" points="591.71,-171.11 601.06,-166.14 590.65,-164.2 591.71,-171.11"/>
<text text-anchor="middle" x="464.16" y="-206.8" font-family="Times,serif" font-size="14.00">url</text>
</g>
<!-- Organization -->
<g id="node15" class="node">
<title>Organization</title>
<ellipse fill="none" stroke="#558855" cx="1159.07" cy="-234" rx="70.69" ry="18"/>
<text text-anchor="middle" x="1159.07" y="-230.3" font-family="Times,serif" font-size="14.00">Organization</text>
</g>
<!-- www.sample&#45;data&#45;repository.org&#45;&gt;Organization -->
<g id="edge17" class="edge">
<title>www.sample&#45;data&#45;repository.org&#45;&gt;Organization</title>
<path fill="none" stroke="black" d="M841.86,-215.34C920.1,-219.96 1014.41,-225.52 1079.56,-229.37"/>
<polygon fill="black" stroke="black" points="1079.57,-232.87 1089.76,-229.97 1079.98,-225.89 1079.57,-232.87"/>
<text text-anchor="middle" x="937.43" y="-225.8" font-family="Times,serif" font-size="14.00">type</text>
</g>
<!-- &quot;Sample Data Repository Of...&quot; -->
<g id="node16" class="node">
<title>&quot;Sample Data Repository Of...&quot;</title>
<ellipse fill="none" stroke="black" stroke-width="0" cx="1159.07" cy="-180" rx="154.07" ry="18"/>
<text text-anchor="middle" x="1159.07" y="-176.3" font-family="Times,serif" font-size="14.00">&quot;Sample Data Repository Of...&quot;</text>
</g>
<!-- www.sample&#45;data&#45;repository.org&#45;&gt;&quot;Sample Data Repository Of...&quot; -->
<g id="edge18" class="edge">
<title>www.sample&#45;data&#45;repository.org&#45;&gt;&quot;Sample Data Repository Of...&quot;</title>
<path fill="none" stroke="black" d="M841.86,-198.66C895.61,-195.49 956.94,-191.87 1011.19,-188.67"/>
<polygon fill="black" stroke="black" points="1011.46,-192.16 1021.24,-188.07 1011.05,-185.17 1011.46,-192.16"/>
<text text-anchor="middle" x="937.43" y="-198.8" font-family="Times,serif" font-size="14.00">legalName</text>
</g>
<!-- &quot;SDRO&quot; -->
<g id="node17" class="node">
<title>&quot;SDRO&quot;</title>
<ellipse fill="none" stroke="black" stroke-width="0" cx="1159.07" cy="-126" rx="47.39" ry="18"/>
<text text-anchor="middle" x="1159.07" y="-122.3" font-family="Times,serif" font-size="14.00">&quot;SDRO&quot;</text>
</g>
<!-- www.sample&#45;data&#45;repository.org&#45;&gt;&quot;SDRO&quot; -->
<g id="edge19" class="edge">
<title>www.sample&#45;data&#45;repository.org&#45;&gt;&quot;SDRO&quot;</title>
<path fill="none" stroke="black" d="M814.78,-194.37C836.32,-190.68 858.49,-185.97 878.93,-180 887.34,-177.55 888.58,-174.62 896.93,-172 939.68,-158.59 951.83,-160.9 995.93,-153 1032.3,-146.48 1073.36,-139.65 1105.06,-134.49"/>
<polygon fill="black" stroke="black" points="1105.7,-137.93 1115.01,-132.88 1104.57,-131.02 1105.7,-137.93"/>
<text text-anchor="middle" x="937.43" y="-175.8" font-family="Times,serif" font-size="14.00">name</text>
</g>
<!-- &quot;http//www.re3data.org/rep...&quot; -->
<g id="node18" class="node">
<title>&quot;http//www.re3data.org/rep...&quot;</title>
<ellipse fill="none" stroke="black" stroke-width="0" cx="1159.07" cy="-72" rx="152.17" ry="18"/>
<text text-anchor="middle" x="1159.07" y="-68.3" font-family="Times,serif" font-size="14.00">&quot;http//www.re3data.org/rep...&quot;</text>
</g>
<!-- www.sample&#45;data&#45;repository.org&#45;&gt;&quot;http//www.re3data.org/rep...&quot; -->
<g id="edge20" class="edge">
<title>www.sample&#45;data&#45;repository.org&#45;&gt;&quot;http//www.re3data.org/rep...&quot;</title>
<path fill="none" stroke="black" d="M843.84,-198.97C856.45,-194.32 868.4,-188.14 878.93,-180 895,-167.58 882.36,-152.15 896.93,-138 930.86,-105.06 950.36,-111.62 995.93,-99 1012.25,-94.48 1029.72,-90.6 1046.93,-87.32"/>
<polygon fill="black" stroke="black" points="1047.82,-90.71 1057.02,-85.45 1046.55,-83.83 1047.82,-90.71"/>
<text text-anchor="middle" x="937.43" y="-141.8" font-family="Times,serif" font-size="14.00">sameAs</text>
</g>
<!-- &quot;https//www.sample&#45;data&#45;re...&quot; -->
<g id="node19" class="node">
<title>&quot;https//www.sample&#45;data&#45;re...&quot;</title>
<ellipse fill="none" stroke="black" stroke-width="0" cx="1159.07" cy="-18" rx="153.27" ry="18"/>
<text text-anchor="middle" x="1159.07" y="-14.3" font-family="Times,serif" font-size="14.00">&quot;https//www.sample&#45;data&#45;re...&quot;</text>
</g>
<!-- www.sample&#45;data&#45;repository.org&#45;&gt;&quot;https//www.sample&#45;data&#45;re...&quot; -->
<g id="edge21" class="edge">
<title>www.sample&#45;data&#45;repository.org&#45;&gt;&quot;https//www.sample&#45;data&#45;re...&quot;</title>
<path fill="none" stroke="black" d="M848.39,-200.15C859.62,-195.16 870.02,-188.59 878.93,-180 909.88,-150.18 869.68,-118.22 896.93,-85 923.12,-53.07 962.28,-35.2 1002.35,-25.48"/>
<polygon fill="black" stroke="black" points="1003.29,-28.85 1012.27,-23.23 1001.75,-22.02 1003.29,-28.85"/>
<text text-anchor="middle" x="937.43" y="-88.8" font-family="Times,serif" font-size="14.00">url</text>
</g>
</g>
</svg>