<?xml version="1.0" encoding="UTF-8" standalone="no"?>
<!DOCTYPE svg PUBLIC "-//W3C//DTD SVG 1.1//EN"
 "http://www.w3.org/Graphics/SVG/1.1/DTD/svg11.dtd">
<!-- Generated by graphviz version 2.43.0 (0)
 -->
<!-- Title: %3 Pages: 1 -->
<svg width="1420pt" height="1092pt"
 viewBox="0.00 0.00 1420.20 1092.00" xmlns="http://www.w3.org/2000/svg" xmlns:xlink="http://www.w3.org/1999/xlink">
<g id="graph0" class="graph" transform="scale(1 1) rotate(0) translate(4 1088)">
<title>%3</title>
<polygon fill="white" stroke="transparent" points="-4,4 -4,-1088 1416.2,-1088 1416.2,4 -4,4"/>
<!-- Organization -->
<g id="node1" class="node">
<title>Organization</title>
<ellipse fill="none" stroke="#558855" cx="1258.16" cy="-990" rx="70.69" ry="18"/>
<text text-anchor="middle" x="1258.16" y="-986.3" font-family="Times,serif" font-size="14.00">Organization</text>
</g>
<!-- www.foo.org/orgID -->
<g id="node2" class="node">
<title>www.foo.org/orgID</title>
<ellipse fill="none" stroke="#558855" cx="753.64" cy="-1050" rx="98.28" ry="18"/>
<text text-anchor="middle" x="753.64" y="-1046.3" font-family="Times,serif" font-size="14.00">www.foo.org/orgID</text>
</g>
<!-- www.foo.org/orgID&#45;&gt;Organization -->
<g id="edge1" class="edge">
<title>www.foo.org/orgID&#45;&gt;Organization</title>
<path fill="none" stroke="black" d="M851.14,-1047.47C917.5,-1044.79 1007.48,-1039.28 1086.12,-1028 1123.92,-1022.58 1165.76,-1013.34 1198.61,-1005.33"/>
<polygon fill="black" stroke="black" points="1199.63,-1008.68 1208.5,-1002.89 1197.95,-1001.89 1199.63,-1008.68"/>
<text text-anchor="middle" x="1042.62" y="-1040.8" font-family="Times,serif" font-size="14.00">type</text>
</g>
<!-- &quot;Some Institute&quot; -->
<g id="node3" class="node">
<title>&quot;Some Institute&quot;</title>
<ellipse fill="none" stroke="black" stroke-width="0" cx="1258.16" cy="-1066" rx="88.28" ry="18"/>
<text text-anchor="middle" x="1258.16" y="-1062.3" font-family="Times,serif" font-size="14.00">&quot;Some Institute&quot;</text>
</g>
<!-- www.foo.org/orgID&#45;&gt;&quot;Some Institute&quot; -->
<g id="edge2" class="edge">
<title>www.foo.org/orgID&#45;&gt;&quot;Some Institute&quot;</title>
<path fill="none" stroke="black" d="M843.7,-1057.23C890.02,-1060.64 947.58,-1064.32 999.12,-1066 1052.21,-1067.74 1111.47,-1067.86 1159.8,-1067.5"/>
<polygon fill="black" stroke="black" points="1159.98,-1071 1169.95,-1067.42 1159.92,-1064 1159.98,-1071"/>
<text text-anchor="middle" x="1042.62" y="-1070.8" font-family="Times,serif" font-size="14.00">legalName</text>
</g>
<!-- PropertyValue -->
<g id="node4" class="node">
<title>PropertyValue</title>
<ellipse fill="none" stroke="#558855" cx="1258.16" cy="-774" rx="77.19" ry="18"/>
<text text-anchor="middle" x="1258.16" y="-770.3" font-family="Times,serif" font-size="14.00">PropertyValue</text>
</g>
<!-- doi.org/10.5066/F7VX0DMQ -->
<g id="node5" class="node">
<title>doi.org/10.5066/F7VX0DMQ</title>
<ellipse fill="none" stroke="#558855" cx="753.64" cy="-822" rx="141.88" ry="18"/>
<text text-anchor="middle" x="753.64" y="-818.3" font-family="Times,serif" font-size="14.00">doi.org/10.5066/F7VX0DMQ</text>
</g>
<!-- doi.org/10.5066/F7VX0DMQ&#45;&gt;PropertyValue -->
<g id="edge3" class="edge">
<title>doi.org/10.5066/F7VX0DMQ&#45;&gt;PropertyValue</title>
<path fill="none" stroke="black" d="M867.42,-811.23C961.27,-802.26 1092.6,-789.72 1176.27,-781.73"/>
<polygon fill="black" stroke="black" points="1176.61,-785.21 1186.24,-780.77 1175.95,-778.24 1176.61,-785.21"/>
<text text-anchor="middle" x="1042.62" y="-801.8" font-family="Times,serif" font-size="14.00">type</text>
</g>
<!-- &quot;https//registry.identifie...&quot; -->
<g id="node6" class="node">
<title>&quot;https//registry.identifie...&quot;</title>
<ellipse fill="none" stroke="black" stroke-width="0" cx="1258.16" cy="-936" rx="135.38" ry="18"/>
<text text-anchor="middle" x="1258.16" y="-932.3" font-family="Times,serif" font-size="14.00">&quot;https//registry.identifie...&quot;</text>
</g>
<!-- doi.org/10.5066/F7VX0DMQ&#45;&gt;&quot;https//registry.identifie...&quot; -->
<g id="edge4" class="edge">
<title>doi.org/10.5066/F7VX0DMQ&#45;&gt;&quot;https//registry.identifie...&quot;</title>
<path fill="none" stroke="black" d="M791.35,-839.47C838.34,-860.97 922.82,-896.74 999.12,-914 1036.66,-922.49 1077.95,-927.77 1116.27,-931.02"/>
<polygon fill="black" stroke="black" points="1116.22,-934.53 1126.47,-931.85 1116.79,-927.55 1116.22,-934.53"/>
<text text-anchor="middle" x="1042.62" y="-930.8" font-family="Times,serif" font-size="14.00">propertyID</text>
</g>
<!-- &quot;https//doi.org/10.5066/F7...&quot; -->
<g id="node7" class="node">
<title>&quot;https//doi.org/10.5066/F7...&quot;</title>
<ellipse fill="none" stroke="black" stroke-width="0" cx="1258.16" cy="-882" rx="147.57" ry="18"/>
<text text-anchor="middle" x="1258.16" y="-878.3" font-family="Times,serif" font-size="14.00">&quot;https//doi.org/10.5066/F7...&quot;</text>
</g>
<!-- doi.org/10.5066/F7VX0DMQ&#45;&gt;&quot;https//doi.org/10.5066/F7...&quot; -->
<g id="edge5" class="edge">
<title>doi.org/10.5066/F7VX0DMQ&#45;&gt;&quot;https//doi.org/10.5066/F7...&quot;</title>
<path fill="none" stroke="black" d="M858.79,-834.12C924.1,-841.75 1010.04,-851.85 1086.12,-861 1104.71,-863.23 1124.44,-865.63 1143.63,-867.98"/>
<polygon fill="black" stroke="black" points="1143.26,-871.46 1153.61,-869.2 1144.11,-864.51 1143.26,-871.46"/>
<text text-anchor="middle" x="1042.62" y="-864.8" font-family="Times,serif" font-size="14.00">url</text>
</g>
<!-- &quot;doi10.5066/F7VX0DMQ&quot; -->
<g id="node8" class="node">
<title>&quot;doi10.5066/F7VX0DMQ&quot;</title>
<ellipse fill="none" stroke="black" stroke-width="0" cx="1258.16" cy="-828" rx="129.18" ry="18"/>
<text text-anchor="middle" x="1258.16" y="-824.3" font-family="Times,serif" font-size="14.00">&quot;doi10.5066/F7VX0DMQ&quot;</text>
</g>
<!-- doi.org/10.5066/F7VX0DMQ&#45;&gt;&quot;doi10.5066/F7VX0DMQ&quot; -->
<g id="edge6" class="edge">
<title>doi.org/10.5066/F7VX0DMQ&#45;&gt;&quot;doi10.5066/F7VX0DMQ&quot;</title>
<path fill="none" stroke="black" d="M895.38,-821.61C954.32,-821.66 1023.55,-821.99 1086.12,-823 1097.73,-823.19 1109.77,-823.43 1121.85,-823.72"/>
<polygon fill="black" stroke="black" points="1121.92,-827.22 1132,-823.96 1122.09,-820.22 1121.92,-827.22"/>
<text text-anchor="middle" x="1042.62" y="-826.8" font-family="Times,serif" font-size="14.00">value</text>
</g>
<!-- CreativeWork -->
<g id="node9" class="node">
<title>CreativeWork</title>
<ellipse fill="none" stroke="#558855" cx="753.64" cy="-608" rx="74.19" ry="18"/>
<text text-anchor="middle" x="753.64" y="-604.3" font-family="Times,serif" font-size="14.00">CreativeWork</text>
</g>
<!-- example.org/permanentUrlToThisJsonDoc -->
<g id="node10" class="node">
<title>example.org/permanentUrlToThisJsonDoc</title>
<ellipse fill="none" stroke="black" cx="204.08" cy="-557" rx="204.16" ry="18"/>
<text text-anchor="middle" x="204.08" y="-553.3" font-family="Times,serif" font-size="14.00">example.org/permanentUrlToThisJsonDoc</text>
</g>
<!-- example.org/permanentUrlToThisJsonDoc&#45;&gt;www.foo.org/orgID -->
<g id="edge9" class="edge">
<title>example.org/permanentUrlToThisJsonDoc&#45;&gt;www.foo.org/orgID</title>
<path fill="none" stroke="black" d="M212.34,-575C240.78,-643.12 351.78,-887.03 526.16,-1001 562.41,-1024.69 608.21,-1037.12 649.12,-1043.57"/>
<polygon fill="black" stroke="black" points="648.73,-1047.05 659.13,-1045.05 649.75,-1040.13 648.73,-1047.05"/>
<text text-anchor="middle" x="467.16" y="-987.8" font-family="Times,serif" font-size="14.00">contributor</text>
</g>
<!-- example.org/permanentUrlToThisJsonDoc&#45;&gt;doi.org/10.5066/F7VX0DMQ -->
<g id="edge11" class="edge">
<title>example.org/permanentUrlToThisJsonDoc&#45;&gt;doi.org/10.5066/F7VX0DMQ</title>
<path fill="none" stroke="black" d="M241.86,-574.8C338.8,-621.72 601.14,-748.68 707.22,-800.01"/>
<polygon fill="black" stroke="black" points="705.86,-803.25 716.38,-804.45 708.91,-796.95 705.86,-803.25"/>
<text text-anchor="middle" x="467.16" y="-700.8" font-family="Times,serif" font-size="14.00">identifier</text>
</g>
<!-- example.org/permanentUrlToThisJsonDoc&#45;&gt;CreativeWork -->
<g id="edge7" class="edge">
<title>example.org/permanentUrlToThisJsonDoc&#45;&gt;CreativeWork</title>
<path fill="none" stroke="black" d="M345.03,-570.03C449.46,-579.76 588.36,-592.7 674.07,-600.68"/>
<polygon fill="black" stroke="black" points="673.97,-604.19 684.25,-601.63 674.62,-597.22 673.97,-604.19"/>
<text text-anchor="middle" x="467.16" y="-587.8" font-family="Times,serif" font-size="14.00">type</text>
</g>
<!-- www.sample&#45;data&#45;repository.org/person/51317 -->
<g id="node11" class="node">
<title>www.sample&#45;data&#45;repository.org/person/51317</title>
<ellipse fill="none" stroke="#558855" cx="753.64" cy="-489" rx="227.46" ry="18"/>
<text text-anchor="middle" x="753.64" y="-485.3" font-family="Times,serif" font-size="14.00">www.sample&#45;data&#45;repository.org/person/51317</text>
</g>
<!-- example.org/permanentUrlToThisJsonDoc&#45;&gt;www.sample&#45;data&#45;repository.org/person/51317 -->
<g id="edge8" class="edge">
<title>example.org/permanentUrlToThisJsonDoc&#45;&gt;www.sample&#45;data&#45;repository.org/person/51317</title>
<path fill="none" stroke="black" d="M317.52,-542C352.33,-537.42 390.83,-532.43 426.16,-528 488.14,-520.23 556.78,-511.98 615.07,-505.08"/>
<polygon fill="black" stroke="black" points="615.56,-508.54 625.07,-503.89 614.73,-501.59 615.56,-508.54"/>
<text text-anchor="middle" x="467.16" y="-531.8" font-family="Times,serif" font-size="14.00">author</text>
</g>
<!-- &quot;Description of the creati...&quot; -->
<g id="node12" class="node">
<title>&quot;Description of the creati...&quot;</title>
<ellipse fill="none" stroke="black" stroke-width="0" cx="753.64" cy="-435" rx="141.88" ry="18"/>
<text text-anchor="middle" x="753.64" y="-431.3" font-family="Times,serif" font-size="14.00">&quot;Description of the creati...&quot;</text>
</g>
<!-- example.org/permanentUrlToThisJsonDoc&#45;&gt;&quot;Description of the creati...&quot; -->
<g id="edge10" class="edge">
<title>example.org/permanentUrlToThisJsonDoc&#45;&gt;&quot;Description of the creati...&quot;</title>
<path fill="none" stroke="black" d="M254.47,-539.54C316.96,-518.12 428.23,-482.17 526.16,-462 558.24,-455.39 593.22,-450.24 625.89,-446.28"/>
<polygon fill="black" stroke="black" points="626.43,-449.75 635.95,-445.1 625.61,-442.79 626.43,-449.75"/>
<text text-anchor="middle" x="467.16" y="-488.8" font-family="Times,serif" font-size="14.00">description</text>
</g>
<!-- _ -->
<g id="node13" class="node">
<title>_</title>
<ellipse fill="none" stroke="#558855" cx="753.64" cy="-234" rx="27" ry="18"/>
<text text-anchor="middle" x="753.64" y="-230.3" font-family="Times,serif" font-size="14.00">_</text>
</g>
<!-- example.org/permanentUrlToThisJsonDoc&#45;&gt;_ -->
<g id="edge12" class="edge">
<title>example.org/permanentUrlToThisJsonDoc&#45;&gt;_</title>
<path fill="none" stroke="black" d="M235.3,-539.17C331.64,-482.35 630.65,-305.96 724.3,-250.72"/>
<polygon fill="black" stroke="black" points="726.12,-253.71 732.96,-245.61 722.57,-247.68 726.12,-253.71"/>
<text text-anchor="middle" x="467.16" y="-427.8" font-family="Times,serif" font-size="14.00">keywords</text>
</g>
<!-- &quot;http//spdx.org/licenses/C...&quot; -->
<g id="node14" class="node">
<title>&quot;http//spdx.org/licenses/C...&quot;</title>
<ellipse fill="none" stroke="black" stroke-width="0" cx="753.64" cy="-180" rx="143.77" ry="18"/>
<text text-anchor="middle" x="753.64" y="-176.3" font-family="Times,serif" font-size="14.00">&quot;http//spdx.org/licenses/C...&quot;</text>
</g>
<!-- example.org/permanentUrlToThisJsonDoc&#45;&gt;&quot;http//spdx.org/licenses/C...&quot; -->
<g id="edge13" class="edge">
<title>example.org/permanentUrlToThisJsonDoc&#45;&gt;&quot;http//spdx.org/licenses/C...&quot;</title>
<path fill="none" stroke="black" d="M215.25,-538.75C249.71,-478.87 368.75,-287.67 526.16,-207 548.97,-195.31 574.73,-187.81 600.48,-183.12"/>
<polygon fill="black" stroke="black" points="601.07,-186.57 610.35,-181.46 599.9,-179.67 601.07,-186.57"/>
<text text-anchor="middle" x="467.16" y="-274.8" font-family="Times,serif" font-size="14.00">license</text>
</g>
<!-- &quot;Name or title of the docu...&quot; -->
<g id="node15" class="node">
<title>&quot;Name or title of the docu...&quot;</title>
<ellipse fill="none" stroke="black" stroke-width="0" cx="753.64" cy="-126" rx="144.87" ry="18"/>
<text text-anchor="middle" x="753.64" y="-122.3" font-family="Times,serif" font-size="14.00">&quot;Name or title of the docu...&quot;</text>
</g>
<!-- example.org/permanentUrlToThisJsonDoc&#45;&gt;&quot;Name or title of the docu...&quot; -->
<g id="edge14" class="edge">
<title>example.org/permanentUrlToThisJsonDoc&#45;&gt;&quot;Name or title of the docu...&quot;</title>
<path fill="none" stroke="black" d="M211.89,-538.91C234.17,-481.85 310.23,-303.3 426.16,-200 473.33,-157.97 539.3,-138.29 599.61,-129.56"/>
<polygon fill="black" stroke="black" points="600.18,-133.02 609.62,-128.2 599.24,-126.08 600.18,-133.02"/>
<text text-anchor="middle" x="467.16" y="-203.8" font-family="Times,serif" font-size="14.00">name</text>
</g>
<!-- www.repositoryB.org -->
<g id="node16" class="node">
<title>www.repositoryB.org</title>
<ellipse fill="none" stroke="#558855" cx="753.64" cy="-664" rx="109.38" ry="18"/>
<text text-anchor="middle" x="753.64" y="-660.3" font-family="Times,serif" font-size="14.00">www.repositoryB.org</text>
</g>
<!-- example.org/permanentUrlToThisJsonDoc&#45;&gt;www.repositoryB.org -->
<g id="edge15" class="edge">
<title>example.org/permanentUrlToThisJsonDoc&#45;&gt;www.repositoryB.org</title>
<path fill="none" stroke="black" d="M266.8,-574.15C331.12,-591.52 435.06,-618.16 526.16,-635 566.51,-642.46 611.25,-648.63 650.24,-653.33"/>
<polygon fill="black" stroke="black" points="650.2,-656.85 660.55,-654.55 651.03,-649.9 650.2,-656.85"/>
<text text-anchor="middle" x="467.16" y="-632.8" font-family="Times,serif" font-size="14.00">provider</text>
</g>
<!-- www.publishingrus.org -->
<g id="node17" class="node">
<title>www.publishingrus.org</title>
<ellipse fill="none" stroke="#558855" cx="753.64" cy="-974" rx="118.08" ry="18"/>
<text text-anchor="middle" x="753.64" y="-970.3" font-family="Times,serif" font-size="14.00">www.publishingrus.org</text>
</g>
<!-- example.org/permanentUrlToThisJsonDoc&#45;&gt;www.publishingrus.org -->
<g id="edge16" class="edge">
<title>example.org/permanentUrlToThisJsonDoc&#45;&gt;www.publishingrus.org</title>
<path fill="none" stroke="black" d="M221.93,-575.02C267.68,-623.34 399.33,-758.23 526.16,-849 584.88,-891.02 659.18,-929.57 706.33,-952.43"/>
<polygon fill="black" stroke="black" points="704.85,-955.6 715.38,-956.79 707.89,-949.29 704.85,-955.6"/>
<text text-anchor="middle" x="467.16" y="-838.8" font-family="Times,serif" font-size="14.00">publisher</text>
</g>
<!-- &quot;https//www.sample&#45;data&#45;re...&quot; -->
<g id="node18" class="node">
<title>&quot;https//www.sample&#45;data&#45;re...&quot;</title>
<ellipse fill="none" stroke="black" stroke-width="0" cx="1258.16" cy="-558" rx="153.27" ry="18"/>
<text text-anchor="middle" x="1258.16" y="-554.3" font-family="Times,serif" font-size="14.00">&quot;https//www.sample&#45;data&#45;re...&quot;</text>
</g>
<!-- example.org/permanentUrlToThisJsonDoc&#45;&gt;&quot;https//www.sample&#45;data&#45;re...&quot; -->
<g id="edge17" class="edge">
<title>example.org/permanentUrlToThisJsonDoc&#45;&gt;&quot;https//www.sample&#45;data&#45;re...&quot;</title>
<path fill="none" stroke="black" d="M408.24,-557.19C608.22,-557.38 909.71,-557.67 1094.41,-557.85"/>
<polygon fill="black" stroke="black" points="1094.48,-561.35 1104.48,-557.85 1094.49,-554.35 1094.48,-561.35"/>
<text text-anchor="middle" x="753.64" y="-560.8" font-family="Times,serif" font-size="14.00">url</text>
</g>
<!-- www.sample&#45;data&#45;repository.org/person/51317&#45;&gt;&quot;https//www.sample&#45;data&#45;re...&quot; -->
<g id="edge29" class="edge">
<title>www.sample&#45;data&#45;repository.org/person/51317&#45;&gt;&quot;https//www.sample&#45;data&#45;re...&quot;</title>
<path fill="none" stroke="black" d="M891.55,-503.35C951.39,-510.07 1022.34,-518.66 1086.12,-528 1090.4,-528.63 1125.21,-534.72 1162.31,-541.25"/>
<polygon fill="black" stroke="black" points="1161.84,-544.72 1172.3,-543.01 1163.06,-537.83 1161.84,-544.72"/>
<text text-anchor="middle" x="1042.62" y="-531.8" font-family="Times,serif" font-size="14.00">url</text>
</g>
<!-- Person -->
<g id="node22" class="node">
<title>Person</title>
<ellipse fill="none" stroke="#558855" cx="1258.16" cy="-450" rx="42.49" ry="18"/>
<text text-anchor="middle" x="1258.16" y="-446.3" font-family="Times,serif" font-size="14.00">Person</text>
</g>
<!-- www.sample&#45;data&#45;repository.org/person/51317&#45;&gt;Person -->
<g id="edge25" class="edge">
<title>www.sample&#45;data&#45;repository.org/person/51317&#45;&gt;Person</title>
<path fill="none" stroke="black" d="M906.22,-475.6C936.96,-472.99 969.07,-470.34 999.12,-468 1070.9,-462.41 1153.97,-456.77 1206.04,-453.32"/>
<polygon fill="black" stroke="black" points="1206.28,-456.82 1216.03,-452.66 1205.82,-449.83 1206.28,-456.82"/>
<text text-anchor="middle" x="1042.62" y="-471.8" font-family="Times,serif" font-size="14.00">type</text>
</g>
<!-- &quot;Passow&quot; -->
<g id="node23" class="node">
<title>&quot;Passow&quot;</title>
<ellipse fill="none" stroke="black" stroke-width="0" cx="1258.16" cy="-396" rx="53.89" ry="18"/>
<text text-anchor="middle" x="1258.16" y="-392.3" font-family="Times,serif" font-size="14.00">&quot;Passow&quot;</text>
</g>
<!-- www.sample&#45;data&#45;repository.org/person/51317&#45;&gt;&quot;Passow&quot; -->
<g id="edge26" class="edge">
<title>www.sample&#45;data&#45;repository.org/person/51317&#45;&gt;&quot;Passow&quot;</title>
<path fill="none" stroke="black" d="M939.16,-478.51C953.76,-474.25 967.94,-468.83 981.12,-462 991.74,-456.5 988.68,-447.82 999.12,-442 1040.55,-418.91 1057.44,-431.34 1104.12,-423 1135.84,-417.33 1171.27,-411.08 1200.04,-406.02"/>
<polygon fill="black" stroke="black" points="1200.68,-409.46 1209.93,-404.28 1199.47,-402.56 1200.68,-409.46"/>
<text text-anchor="middle" x="1042.62" y="-445.8" font-family="Times,serif" font-size="14.00">familyName</text>
</g>
<!-- &quot;Uta&quot; -->
<g id="node24" class="node">
<title>&quot;Uta&quot;</title>
<ellipse fill="none" stroke="black" stroke-width="0" cx="1258.16" cy="-342" rx="36.29" ry="18"/>
<text text-anchor="middle" x="1258.16" y="-338.3" font-family="Times,serif" font-size="14.00">&quot;Uta&quot;</text>
</g>
<!-- www.sample&#45;data&#45;repository.org/person/51317&#45;&gt;&quot;Uta&quot; -->
<g id="edge27" class="edge">
<title>www.sample&#45;data&#45;repository.org/person/51317&#45;&gt;&quot;Uta&quot;</title>
<path fill="none" stroke="black" d="M952.16,-480.19C962.5,-475.3 972.26,-469.3 981.12,-462 1001.3,-445.37 980.9,-424.74 999.12,-406 1033.62,-370.53 1056.27,-381.56 1104.12,-369 1140.23,-359.52 1182.01,-352.4 1212.78,-347.86"/>
<polygon fill="black" stroke="black" points="1213.38,-351.31 1222.77,-346.42 1212.38,-344.38 1213.38,-351.31"/>
<text text-anchor="middle" x="1042.62" y="-409.8" font-family="Times,serif" font-size="14.00">givenName</text>
</g>
<!-- &quot;Dr Uta Passow&quot; -->
<g id="node25" class="node">
<title>&quot;Dr Uta Passow&quot;</title>
<ellipse fill="none" stroke="black" stroke-width="0" cx="1258.16" cy="-504" rx="88.28" ry="18"/>
<text text-anchor="middle" x="1258.16" y="-500.3" font-family="Times,serif" font-size="14.00">&quot;Dr Uta Passow&quot;</text>
</g>
<!-- www.sample&#45;data&#45;repository.org/person/51317&#45;&gt;&quot;Dr Uta Passow&quot; -->
<g id="edge28" class="edge">
<title>www.sample&#45;data&#45;repository.org/person/51317&#45;&gt;&quot;Dr Uta Passow&quot;</title>
<path fill="none" stroke="black" d="M980.26,-487.3C1015.7,-487.72 1051.91,-488.55 1086.12,-490 1112.78,-491.13 1141.72,-493.18 1168.08,-495.37"/>
<polygon fill="black" stroke="black" points="1167.79,-498.86 1178.05,-496.22 1168.38,-491.89 1167.79,-498.86"/>
<text text-anchor="middle" x="1042.62" y="-493.8" font-family="Times,serif" font-size="14.00">name</text>
</g>
<!-- _&#45;&gt;_ -->
<g id="edge31" class="edge">
<title>_&#45;&gt;_</title>
<path fill="none" stroke="black" d="M727.72,-239.67C683.56,-252.28 692.2,-270 753.64,-270 810.05,-270 821.96,-255.06 789.37,-242.87"/>
<polygon fill="black" stroke="black" points="790.16,-239.44 779.57,-239.67 787.99,-246.1 790.16,-239.44"/>
<text text-anchor="middle" x="753.64" y="-273.8" font-family="Times,serif" font-size="14.00">inDefinedTermSet</text>
</g>
<!-- DefinedTerm -->
<g id="node26" class="node">
<title>DefinedTerm</title>
<ellipse fill="none" stroke="#558855" cx="1258.16" cy="-126" rx="70.39" ry="18"/>
<text text-anchor="middle" x="1258.16" y="-122.3" font-family="Times,serif" font-size="14.00">DefinedTerm</text>
</g>
<!-- _&#45;&gt;DefinedTerm -->
<g id="edge30" class="edge">
<title>_&#45;&gt;DefinedTerm</title>
<path fill="none" stroke="black" d="M780.31,-237.51C824.79,-242.24 917.52,-246.06 981.12,-207 993.41,-199.45 987.36,-188.35 999.12,-180 1038.42,-152.11 1057.03,-163.19 1104.12,-153 1131.48,-147.08 1161.8,-141.52 1188.18,-137.01"/>
<polygon fill="black" stroke="black" points="1188.81,-140.45 1198.09,-135.33 1187.64,-133.55 1188.81,-140.45"/>
<text text-anchor="middle" x="1042.62" y="-183.8" font-family="Times,serif" font-size="14.00">type</text>
</g>
<!-- &quot;A code that identifies th...&quot; -->
<g id="node27" class="node">
<title>&quot;A code that identifies th...&quot;</title>
<ellipse fill="none" stroke="black" stroke-width="0" cx="1258.16" cy="-72" rx="139.98" ry="18"/>
<text text-anchor="middle" x="1258.16" y="-68.3" font-family="Times,serif" font-size="14.00">&quot;A code that identifies th...&quot;</text>
</g>
<!-- _&#45;&gt;&quot;A code that identifies th...&quot; -->
<g id="edge32" class="edge">
<title>_&#45;&gt;&quot;A code that identifies th...&quot;</title>
<path fill="none" stroke="black" d="M779.66,-239.23C825.64,-247.27 924.06,-256.94 981.12,-207 1005.3,-185.85 977.52,-160.77 999.12,-137 1032.5,-100.27 1056.17,-111.8 1104.12,-99 1120.57,-94.61 1138.22,-90.74 1155.46,-87.4"/>
<polygon fill="black" stroke="black" points="1156.38,-90.79 1165.56,-85.5 1155.08,-83.91 1156.38,-90.79"/>
<text text-anchor="middle" x="1042.62" y="-140.8" font-family="Times,serif" font-size="14.00">termCode</text>
</g>
<!-- DefinedTermSet -->
<g id="node28" class="node">
<title>DefinedTermSet</title>
<ellipse fill="none" stroke="#558855" cx="1258.16" cy="-18" rx="85.59" ry="18"/>
<text text-anchor="middle" x="1258.16" y="-14.3" font-family="Times,serif" font-size="14.00">DefinedTermSet</text>
</g>
<!-- _&#45;&gt;DefinedTermSet -->
<g id="edge33" class="edge">
<title>_&#45;&gt;DefinedTermSet</title>
<path fill="none" stroke="black" d="M779.45,-239.65C825.96,-248.63 926.48,-260.14 981.12,-207 1020.41,-168.79 964.8,-127.73 999.12,-85 1037.81,-36.83 1106.31,-20.68 1163.01,-16.25"/>
<polygon fill="black" stroke="black" points="1163.34,-19.74 1173.09,-15.58 1162.88,-12.75 1163.34,-19.74"/>
<text text-anchor="middle" x="1042.62" y="-88.8" font-family="Times,serif" font-size="14.00">type</text>
</g>
<!-- &quot;Description of the set&quot; -->
<g id="node29" class="node">
<title>&quot;Description of the set&quot;</title>
<ellipse fill="none" stroke="black" stroke-width="0" cx="1258.16" cy="-288" rx="120.48" ry="18"/>
<text text-anchor="middle" x="1258.16" y="-284.3" font-family="Times,serif" font-size="14.00">&quot;Description of the set&quot;</text>
</g>
<!-- _&#45;&gt;&quot;Description of the set&quot; -->
<g id="edge34" class="edge">
<title>_&#45;&gt;&quot;Description of the set&quot;</title>
<path fill="none" stroke="black" d="M780.6,-236.79C847.93,-244.02 1031.16,-263.71 1149.8,-276.46"/>
<polygon fill="black" stroke="black" points="1149.69,-279.97 1160.01,-277.56 1150.44,-273.01 1149.69,-279.97"/>
<text text-anchor="middle" x="1042.62" y="-271.8" font-family="Times,serif" font-size="14.00">description</text>
</g>
<!-- &quot;Name of the set&quot; -->
<g id="node30" class="node">
<title>&quot;Name of the set&quot;</title>
<ellipse fill="none" stroke="black" stroke-width="0" cx="1258.16" cy="-234" rx="93.68" ry="18"/>
<text text-anchor="middle" x="1258.16" y="-230.3" font-family="Times,serif" font-size="14.00">&quot;Name of the set&quot;</text>
</g>
<!-- _&#45;&gt;&quot;Name of the set&quot; -->
<g id="edge35" class="edge">
<title>_&#45;&gt;&quot;Name of the set&quot;</title>
<path fill="none" stroke="black" d="M780.95,-234C849.44,-234 1036.11,-234 1154.37,-234"/>
<polygon fill="black" stroke="black" points="1154.53,-237.5 1164.53,-234 1154.53,-230.5 1154.53,-237.5"/>
<text text-anchor="middle" x="1042.62" y="-237.8" font-family="Times,serif" font-size="14.00">name</text>
</g>
<!-- &quot;url for the set&quot; -->
<g id="node31" class="node">
<title>&quot;url for the set&quot;</title>
<ellipse fill="none" stroke="black" stroke-width="0" cx="1258.16" cy="-180" rx="83.69" ry="18"/>
<text text-anchor="middle" x="1258.16" y="-176.3" font-family="Times,serif" font-size="14.00">&quot;url for the set&quot;</text>
</g>
<!-- _&#45;&gt;&quot;url for the set&quot; -->
<g id="edge36" class="edge">
<title>_&#45;&gt;&quot;url for the set&quot;</title>
<path fill="none" stroke="black" d="M780.6,-231.21C852.47,-223.49 1056.4,-201.57 1172.87,-189.06"/>
<polygon fill="black" stroke="black" points="1173.26,-192.54 1182.83,-187.99 1172.51,-185.58 1173.26,-192.54"/>
<text text-anchor="middle" x="1042.62" y="-210.8" font-family="Times,serif" font-size="14.00">url</text>
</g>
<!-- www.repositoryB.org&#45;&gt;Organization -->
<g id="edge20" class="edge">
<title>www.repositoryB.org&#45;&gt;Organization</title>
<path fill="none" stroke="black" d="M805.75,-679.84C857.99,-698.73 937.49,-735.47 981.12,-795 1002.93,-824.74 973,-849.97 999.12,-876 1027.16,-903.93 1057.53,-867.63 1086.12,-895 1108.71,-916.62 1081.11,-941.84 1104.12,-963 1124.11,-981.38 1152.04,-989.48 1178.57,-992.54"/>
<polygon fill="black" stroke="black" points="1178.37,-996.04 1188.65,-993.48 1179.02,-989.07 1178.37,-996.04"/>
<text text-anchor="middle" x="1042.62" y="-898.8" font-family="Times,serif" font-size="14.00">type</text>
</g>
<!-- www.repositoryB.org&#45;&gt;&quot;https//www.sample&#45;data&#45;re...&quot; -->
<g id="edge24" class="edge">
<title>www.repositoryB.org&#45;&gt;&quot;https//www.sample&#45;data&#45;re...&quot;</title>
<path fill="none" stroke="black" d="M860.82,-667.47C900.8,-664.55 945.24,-655.9 981.12,-635 992.65,-628.29 988.01,-618.36 999.12,-611 1039.2,-584.45 1057.09,-594.96 1104.12,-585 1121.61,-581.3 1140.29,-577.7 1158.37,-574.41"/>
<polygon fill="black" stroke="black" points="1159.13,-577.83 1168.35,-572.61 1157.89,-570.94 1159.13,-577.83"/>
<text text-anchor="middle" x="1042.62" y="-614.8" font-family="Times,serif" font-size="14.00">url</text>
</g>
<!-- &quot;Sample Data Repository Of...&quot; -->
<g id="node19" class="node">
<title>&quot;Sample Data Repository Of...&quot;</title>
<ellipse fill="none" stroke="black" stroke-width="0" cx="1258.16" cy="-612" rx="154.07" ry="18"/>
<text text-anchor="middle" x="1258.16" y="-608.3" font-family="Times,serif" font-size="14.00">&quot;Sample Data Repository Of...&quot;</text>
</g>
<!-- www.repositoryB.org&#45;&gt;&quot;Sample Data Repository Of...&quot; -->
<g id="edge21" class="edge">
<title>www.repositoryB.org&#45;&gt;&quot;Sample Data Repository Of...&quot;</title>
<path fill="none" stroke="black" d="M846.52,-654.49C926.56,-646.21 1043.35,-634.12 1131.94,-624.96"/>
<polygon fill="black" stroke="black" points="1132.46,-628.42 1142.05,-623.91 1131.74,-621.46 1132.46,-628.42"/>
<text text-anchor="middle" x="1042.62" y="-641.8" font-family="Times,serif" font-size="14.00">legalName</text>
</g>
<!-- &quot;SDRO&quot; -->
<g id="node20" class="node">
<title>&quot;SDRO&quot;</title>
<ellipse fill="none" stroke="black" stroke-width="0" cx="1258.16" cy="-720" rx="47.39" ry="18"/>
<text text-anchor="middle" x="1258.16" y="-716.3" font-family="Times,serif" font-size="14.00">&quot;SDRO&quot;</text>
</g>
<!-- www.repositoryB.org&#45;&gt;&quot;SDRO&quot; -->
<g id="edge22" class="edge">
<title>www.repositoryB.org&#45;&gt;&quot;SDRO&quot;</title>
<path fill="none" stroke="black" d="M844.48,-674.01C948.38,-685.59 1116.15,-704.29 1202.27,-713.88"/>
<polygon fill="black" stroke="black" points="1202.04,-717.38 1212.36,-715.01 1202.81,-710.42 1202.04,-717.38"/>
<text text-anchor="middle" x="1042.62" y="-703.8" font-family="Times,serif" font-size="14.00">name</text>
</g>
<!-- &quot;http//www.re3data.org/rep...&quot; -->
<g id="node21" class="node">
<title>&quot;http//www.re3data.org/rep...&quot;</title>
<ellipse fill="none" stroke="black" stroke-width="0" cx="1258.16" cy="-666" rx="152.17" ry="18"/>
<text text-anchor="middle" x="1258.16" y="-662.3" font-family="Times,serif" font-size="14.00">&quot;http//www.re3data.org/rep...&quot;</text>
</g>
<!-- www.repositoryB.org&#45;&gt;&quot;http//www.re3data.org/rep...&quot; -->
<g id="edge23" class="edge">
<title>www.repositoryB.org&#45;&gt;&quot;http//www.re3data.org/rep...&quot;</title>
<path fill="none" stroke="black" d="M863.06,-664.43C930.99,-664.7 1019.78,-665.06 1095.87,-665.36"/>
<polygon fill="black" stroke="black" points="1096.03,-668.86 1106.05,-665.4 1096.06,-661.86 1096.03,-668.86"/>
<text text-anchor="middle" x="1042.62" y="-668.8" font-family="Times,serif" font-size="14.00">sameAs</text>
</g>
<!-- www.publishingrus.org&#45;&gt;Organization -->
<g id="edge18" class="edge">
<title>www.publishingrus.org&#45;&gt;Organization</title>
<path fill="none" stroke="black" d="M871.29,-971.95C934.84,-971.44 1014.84,-971.77 1086.12,-975 1117.83,-976.44 1152.74,-979.27 1182.71,-982.09"/>
<polygon fill="black" stroke="black" points="1182.39,-985.58 1192.68,-983.05 1183.06,-978.61 1182.39,-985.58"/>
<text text-anchor="middle" x="1042.62" y="-978.8" font-family="Times,serif" font-size="14.00">type</text>
</g>
<!-- www.publishingrus.org&#45;&gt;&quot;Some Institute&quot; -->
<g id="edge19" class="edge">
<title>www.publishingrus.org&#45;&gt;&quot;Some Institute&quot;</title>
<path fill="none" stroke="black" d="M870.16,-977.34C934.61,-981.4 1015.83,-990.17 1086.12,-1009 1094.58,-1011.27 1095.94,-1013.88 1104.12,-1017 1134.32,-1028.51 1168.53,-1039.63 1196.93,-1048.37"/>
<polygon fill="black" stroke="black" points="1196.13,-1051.78 1206.72,-1051.35 1198.17,-1045.09 1196.13,-1051.78"/>
<text text-anchor="middle" x="1042.62" y="-1012.8" font-family="Times,serif" font-size="14.00">legalName</text>
</g>
</g>
</svg>