<?xml version="1.0" encoding="UTF-8" standalone="no"?>
<!DOCTYPE svg PUBLIC "-//W3C//DTD SVG 1.1//EN"
 "http://www.w3.org/Graphics/SVG/1.1/DTD/svg11.dtd">
<!-- Generated by graphviz version 2.43.0 (0)
 -->
<!-- Title: %3 Pages: 1 -->
<svg width="861pt" height="109pt"
 viewBox="0.00 0.00 860.74 109.00" xmlns="http://www.w3.org/2000/svg" xmlns:xlink="http://www.w3.org/1999/xlink">
<g id="graph0" class="graph" transform="scale(1 1) rotate(0) translate(4 105)">
<title>%3</title>
<polygon fill="white" stroke="transparent" points="-4,4 -4,-105 856.74,-105 856.74,4 -4,4"/>
<!-- Dataset -->
<g id="node1" class="node">
<title>Dataset</title>
<ellipse fill="none" stroke="#558855" cx="734.45" cy="-83" rx="46.59" ry="18"/>
<text text-anchor="middle" x="734.45" y="-79.3" font-family="Times,serif" font-size="14.00">Dataset</text>
</g>
<!-- example.org/permanentUrlToThisJsonDoc -->
<g id="node2" class="node">
<title>example.org/permanentUrlToThisJsonDoc</title>
<ellipse fill="none" stroke="black" cx="204.08" cy="-45" rx="204.16" ry="18"/>
<text text-anchor="middle" x="204.08" y="-41.3" font-family="Times,serif" font-size="14.00">example.org/permanentUrlToThisJsonDoc</text>
</g>
<!-- example.org/permanentUrlToThisJsonDoc&#45;&gt;Dataset -->
<g id="edge1" class="edge">
<title>example.org/permanentUrlToThisJsonDoc&#45;&gt;Dataset</title>
<path fill="none" stroke="black" d="M362.9,-56.35C469.63,-64.03 604.17,-73.7 678.23,-79.03"/>
<polygon fill="black" stroke="black" points="678.05,-82.52 688.27,-79.75 678.55,-75.54 678.05,-82.52"/>
<text text-anchor="middle" x="512.16" y="-75.8" font-family="Times,serif" font-size="14.00">type</text>
</g>
<!-- &quot;http//dx.doi.org/10....&quot; -->
<g id="node3" class="node">
<title>&quot;http//dx.doi.org/10....&quot;</title>
<ellipse fill="none" stroke="black" stroke-width="0" cx="734.45" cy="-18" rx="118.08" ry="18"/>
<text text-anchor="middle" x="734.45" y="-14.3" font-family="Times,serif" font-size="14.00">&quot;http//dx.doi.org/10....&quot;</text>
</g>
<!-- example.org/permanentUrlToThisJsonDoc&#45;&gt;&quot;http//dx.doi.org/10....&quot; -->
<g id="edge2" class="edge">
<title>example.org/permanentUrlToThisJsonDoc&#45;&gt;&quot;http//dx.doi.org/10....&quot;</title>
<path fill="none" stroke="black" d="M381.02,-36.01C456.69,-32.14 543.27,-27.72 611.68,-24.22"/>
<polygon fill="black" stroke="black" points="612.26,-27.7 622.07,-23.69 611.9,-20.71 612.26,-27.7"/>
<text text-anchor="middle" x="512.16" y="-36.8" font-family="Times,serif" font-size="14.00">measurementTechnique</text>
</g>
<!-- example.org/permanentUrlToThisJsonDoc&#45;&gt;&quot;http//dx.doi.org/10....&quot; -->
<g id="edge3" class="edge">
<title>example.org/permanentUrlToThisJsonDoc&#45;&gt;&quot;http//dx.doi.org/10....&quot;</title>
<path fill="none" stroke="black" d="M280.62,-28.3C323.14,-19.76 377.34,-10.27 426.16,-6 502.32,0.67 521.79,-2.62 598.16,-6 606.81,-6.38 615.75,-6.9 624.73,-7.51"/>
<polygon fill="black" stroke="black" points="624.65,-11.01 634.88,-8.23 625.15,-4.03 624.65,-11.01"/>
<text text-anchor="middle" x="512.16" y="-9.8" font-family="Times,serif" font-size="14.00">measurementTechnique</text>
</g>
</g>
</svg>