<?xml version="1.0" encoding="UTF-8" standalone="no"?>
<!DOCTYPE svg PUBLIC "-//W3C//DTD SVG 1.1//EN"
 "http://www.w3.org/Graphics/SVG/1.1/DTD/svg11.dtd">
<!-- Generated by graphviz version 2.43.0 (0)
 -->
<!-- Title: %3 Pages: 1 -->
<svg width="921pt" height="206pt"
 viewBox="0.00 0.00 921.14 206.00" xmlns="http://www.w3.org/2000/svg" xmlns:xlink="http://www.w3.org/1999/xlink">
<g id="graph0" class="graph" transform="scale(1 1) rotate(0) translate(4 202)">
<title>%3</title>
<polygon fill="white" stroke="transparent" points="-4,4 -4,-202 917.14,-202 917.14,4 -4,4"/>
<!-- ResearchProject -->
<g id="node1" class="node">
<title>ResearchProject</title>
<ellipse fill="none" stroke="#558855" cx="439.97" cy="-153" rx="87.18" ry="18"/>
<text text-anchor="middle" x="439.97" y="-149.3" font-family="Times,serif" font-size="14.00">ResearchProject</text>
</g>
<!-- example.org/id/resproj/X -->
<g id="node2" class="node">
<title>example.org/id/resproj/X</title>
<ellipse fill="none" stroke="black" cx="125.44" cy="-126" rx="125.38" ry="18"/>
<text text-anchor="middle" x="125.44" y="-122.3" font-family="Times,serif" font-size="14.00">example.org/id/resproj/X</text>
</g>
<!-- example.org/id/resproj/X&#45;&gt;ResearchProject -->
<g id="edge1" class="edge">
<title>example.org/id/resproj/X&#45;&gt;ResearchProject</title>
<path fill="none" stroke="black" d="M233.56,-135.25C271.19,-138.51 313.06,-142.12 349.13,-145.24"/>
<polygon fill="black" stroke="black" points="348.87,-148.73 359.14,-146.1 349.47,-141.76 348.87,-148.73"/>
<text text-anchor="middle" x="301.88" y="-146.8" font-family="Times,serif" font-size="14.00">type</text>
</g>
<!-- _ -->
<g id="node3" class="node">
<title>_</title>
<ellipse fill="none" stroke="#558855" cx="439.97" cy="-99" rx="27" ry="18"/>
<text text-anchor="middle" x="439.97" y="-95.3" font-family="Times,serif" font-size="14.00">_</text>
</g>
<!-- example.org/id/resproj/X&#45;&gt;_ -->
<g id="edge2" class="edge">
<title>example.org/id/resproj/X&#45;&gt;_</title>
<path fill="none" stroke="black" d="M233.56,-116.75C292.4,-111.66 361.6,-105.68 402.78,-102.13"/>
<polygon fill="black" stroke="black" points="403.22,-105.6 412.88,-101.25 402.61,-98.63 403.22,-105.6"/>
<text text-anchor="middle" x="301.88" y="-116.8" font-family="Times,serif" font-size="14.00">identifier</text>
</g>
<!-- PropertyValue -->
<g id="node4" class="node">
<title>PropertyValue</title>
<ellipse fill="none" stroke="#558855" cx="778.6" cy="-180" rx="77.19" ry="18"/>
<text text-anchor="middle" x="778.6" y="-176.3" font-family="Times,serif" font-size="14.00">PropertyValue</text>
</g>
<!-- _&#45;&gt;PropertyValue -->
<g id="edge3" class="edge">
<title>_&#45;&gt;PropertyValue</title>
<path fill="none" stroke="black" d="M464.76,-106.34C482.06,-111.7 506.05,-119.2 527.06,-126 535.09,-128.6 536.92,-129.79 545.06,-132 598.43,-146.5 659.72,-158.99 705.98,-167.59"/>
<polygon fill="black" stroke="black" points="705.44,-171.05 715.91,-169.42 706.71,-164.16 705.44,-171.05"/>
<text text-anchor="middle" x="585.56" y="-153.8" font-family="Times,serif" font-size="14.00">type</text>
</g>
<!-- &quot;UN Department of Eco...&quot; -->
<g id="node5" class="node">
<title>&quot;UN Department of Eco...&quot;</title>
<ellipse fill="none" stroke="black" stroke-width="0" cx="778.6" cy="-126" rx="134.58" ry="18"/>
<text text-anchor="middle" x="778.6" y="-122.3" font-family="Times,serif" font-size="14.00">&quot;UN Department of Eco...&quot;</text>
</g>
<!-- _&#45;&gt;&quot;UN Department of Eco...&quot; -->
<g id="edge4" class="edge">
<title>_&#45;&gt;&quot;UN Department of Eco...&quot;</title>
<path fill="none" stroke="black" d="M466.83,-101.07C506.36,-104.25 584.43,-110.51 652.42,-115.96"/>
<polygon fill="black" stroke="black" points="652.56,-119.48 662.81,-116.79 653.12,-112.5 652.56,-119.48"/>
<text text-anchor="middle" x="585.56" y="-116.8" font-family="Times,serif" font-size="14.00">description</text>
</g>
<!-- &quot;https//registry.iden...&quot; -->
<g id="node6" class="node">
<title>&quot;https//registry.iden...&quot;</title>
<ellipse fill="none" stroke="black" stroke-width="0" cx="778.6" cy="-72" rx="116.98" ry="18"/>
<text text-anchor="middle" x="778.6" y="-68.3" font-family="Times,serif" font-size="14.00">&quot;https//registry.iden...&quot;</text>
</g>
<!-- _&#45;&gt;&quot;https//registry.iden...&quot; -->
<g id="edge5" class="edge">
<title>_&#45;&gt;&quot;https//registry.iden...&quot;</title>
<path fill="none" stroke="black" d="M466.61,-96.03C487.66,-93.65 518.27,-90.34 545.06,-88 582.19,-84.76 622.7,-81.78 659.35,-79.3"/>
<polygon fill="black" stroke="black" points="659.83,-82.77 669.58,-78.61 659.36,-75.79 659.83,-82.77"/>
<text text-anchor="middle" x="585.56" y="-91.8" font-family="Times,serif" font-size="14.00">propertyID</text>
</g>
<!-- &quot;https//grid.ac/insti...&quot; -->
<g id="node7" class="node">
<title>&quot;https//grid.ac/insti...&quot;</title>
<ellipse fill="none" stroke="black" stroke-width="0" cx="778.6" cy="-18" rx="114.28" ry="18"/>
<text text-anchor="middle" x="778.6" y="-14.3" font-family="Times,serif" font-size="14.00">&quot;https//grid.ac/insti...&quot;</text>
</g>
<!-- _&#45;&gt;&quot;https//grid.ac/insti...&quot; -->
<g id="edge6" class="edge">
<title>_&#45;&gt;&quot;https//grid.ac/insti...&quot;</title>
<path fill="none" stroke="black" d="M463.39,-89.89C484.26,-81.69 516.37,-69.76 545.06,-62 590.78,-49.63 642.47,-39.48 685.49,-32.06"/>
<polygon fill="black" stroke="black" points="686.11,-35.5 695.38,-30.37 684.93,-28.6 686.11,-35.5"/>
<text text-anchor="middle" x="585.56" y="-65.8" font-family="Times,serif" font-size="14.00">url</text>
</g>
</g>
</svg>