<?xml version="1.0" encoding="UTF-8" standalone="no"?>
<!DOCTYPE svg PUBLIC "-//W3C//DTD SVG 1.1//EN"
 "http://www.w3.org/Graphics/SVG/1.1/DTD/svg11.dtd">
<!-- Generated by graphviz version 2.43.0 (0)
 -->
<!-- Title: %3 Pages: 1 -->
<svg width="1375pt" height="1092pt"
 viewBox="0.00 0.00 1374.70 1092.00" xmlns="http://www.w3.org/2000/svg" xmlns:xlink="http://www.w3.org/1999/xlink">
<g id="graph0" class="graph" transform="scale(1 1) rotate(0) translate(4 1088)">
<title>%3</title>
<polygon fill="white" stroke="transparent" points="-4,4 -4,-1088 1370.7,-1088 1370.7,4 -4,4"/>
<!-- Organization -->
<g id="node1" class="node">
<title>Organization</title>
<ellipse fill="none" stroke="#558855" cx="1235.41" cy="-990" rx="70.69" ry="18"/>
<text text-anchor="middle" x="1235.41" y="-986.3" font-family="Times,serif" font-size="14.00">Organization</text>
</g>
<!-- www.foo.org/orgID -->
<g id="node2" class="node">
<title>www.foo.org/orgID</title>
<ellipse fill="none" stroke="#558855" cx="753.64" cy="-1050" rx="98.28" ry="18"/>
<text text-anchor="middle" x="753.64" y="-1046.3" font-family="Times,serif" font-size="14.00">www.foo.org/orgID</text>
</g>
<!-- www.foo.org/orgID&#45;&gt;Organization -->
<g id="edge1" class="edge">
<title>www.foo.org/orgID&#45;&gt;Organization</title>
<path fill="none" stroke="black" d="M851.63,-1048.27C918,-1045.94 1007.81,-1040.52 1086.12,-1028 1117.44,-1022.99 1151.79,-1014.39 1179.53,-1006.64"/>
<polygon fill="black" stroke="black" points="1180.77,-1009.93 1189.44,-1003.83 1178.86,-1003.2 1180.77,-1009.93"/>
<text text-anchor="middle" x="1042.62" y="-1041.8" font-family="Times,serif" font-size="14.00">type</text>
</g>
<!-- &quot;Some Institute&quot; -->
<g id="node3" class="node">
<title>&quot;Some Institute&quot;</title>
<ellipse fill="none" stroke="black" stroke-width="0" cx="1235.41" cy="-1066" rx="88.28" ry="18"/>
<text text-anchor="middle" x="1235.41" y="-1062.3" font-family="Times,serif" font-size="14.00">&quot;Some Institute&quot;</text>
</g>
<!-- www.foo.org/orgID&#45;&gt;&quot;Some Institute&quot; -->
<g id="edge2" class="edge">
<title>www.foo.org/orgID&#45;&gt;&quot;Some Institute&quot;</title>
<path fill="none" stroke="black" d="M843.7,-1057.23C890.02,-1060.64 947.58,-1064.32 999.12,-1066 1044.48,-1067.48 1094.78,-1067.68 1137.19,-1067.43"/>
<polygon fill="black" stroke="black" points="1137.26,-1070.92 1147.23,-1067.36 1137.21,-1063.92 1137.26,-1070.92"/>
<text text-anchor="middle" x="1042.62" y="-1070.8" font-family="Times,serif" font-size="14.00">legalName</text>
</g>
<!-- PropertyValue -->
<g id="node4" class="node">
<title>PropertyValue</title>
<ellipse fill="none" stroke="#558855" cx="1235.41" cy="-774" rx="77.19" ry="18"/>
<text text-anchor="middle" x="1235.41" y="-770.3" font-family="Times,serif" font-size="14.00">PropertyValue</text>
</g>
<!-- doi.org/10.5066/F7VX0DMQ -->
<g id="node5" class="node">
<title>doi.org/10.5066/F7VX0DMQ</title>
<ellipse fill="none" stroke="#558855" cx="753.64" cy="-822" rx="141.88" ry="18"/>
<text text-anchor="middle" x="753.64" y="-818.3" font-family="Times,serif" font-size="14.00">doi.org/10.5066/F7VX0DMQ</text>
</g>
<!-- doi.org/10.5066/F7VX0DMQ&#45;&gt;PropertyValue -->
<g id="edge3" class="edge">
<title>doi.org/10.5066/F7VX0DMQ&#45;&gt;PropertyValue</title>
<path fill="none" stroke="black" d="M865.62,-810.9C953.69,-802.09 1074.74,-789.97 1153.76,-782.07"/>
<polygon fill="black" stroke="black" points="1154.54,-785.51 1164.14,-781.03 1153.84,-778.54 1154.54,-785.51"/>
<text text-anchor="middle" x="1042.62" y="-799.8" font-family="Times,serif" font-size="14.00">type</text>
</g>
<!-- &quot;https//registry.iden...&quot; -->
<g id="node6" class="node">
<title>&quot;https//registry.iden...&quot;</title>
<ellipse fill="none" stroke="black" stroke-width="0" cx="1235.41" cy="-936" rx="116.98" ry="18"/>
<text text-anchor="middle" x="1235.41" y="-932.3" font-family="Times,serif" font-size="14.00">&quot;https//registry.iden...&quot;</text>
</g>
<!-- doi.org/10.5066/F7VX0DMQ&#45;&gt;&quot;https//registry.iden...&quot; -->
<g id="edge4" class="edge">
<title>doi.org/10.5066/F7VX0DMQ&#45;&gt;&quot;https//registry.iden...&quot;</title>
<path fill="none" stroke="black" d="M791.38,-839.37C838.39,-860.76 922.89,-896.43 999.12,-914 1035.21,-922.32 1075.1,-927.51 1111.62,-930.74"/>
<polygon fill="black" stroke="black" points="1111.57,-934.24 1121.83,-931.6 1112.16,-927.27 1111.57,-934.24"/>
<text text-anchor="middle" x="1042.62" y="-930.8" font-family="Times,serif" font-size="14.00">propertyID</text>
</g>
<!-- &quot;https//doi.org/10.50...&quot; -->
<g id="node7" class="node">
<title>&quot;https//doi.org/10.50...&quot;</title>
<ellipse fill="none" stroke="black" stroke-width="0" cx="1235.41" cy="-882" rx="120.48" ry="18"/>
<text text-anchor="middle" x="1235.41" y="-878.3" font-family="Times,serif" font-size="14.00">&quot;https//doi.org/10.50...&quot;</text>
</g>
<!-- doi.org/10.5066/F7VX0DMQ&#45;&gt;&quot;https//doi.org/10.50...&quot; -->
<g id="edge5" class="edge">
<title>doi.org/10.5066/F7VX0DMQ&#45;&gt;&quot;https//doi.org/10.50...&quot;</title>
<path fill="none" stroke="black" d="M860.71,-833.84C925.81,-841.26 1010.84,-851.24 1086.12,-861 1103.04,-863.19 1121.03,-865.64 1138.43,-868.07"/>
<polygon fill="black" stroke="black" points="1138.21,-871.57 1148.6,-869.5 1139.18,-864.64 1138.21,-871.57"/>
<text text-anchor="middle" x="1042.62" y="-864.8" font-family="Times,serif" font-size="14.00">url</text>
</g>
<!-- &quot;doi10.5066/F7VX0DMQ&quot; -->
<g id="node8" class="node">
<title>&quot;doi10.5066/F7VX0DMQ&quot;</title>
<ellipse fill="none" stroke="black" stroke-width="0" cx="1235.41" cy="-828" rx="129.18" ry="18"/>
<text text-anchor="middle" x="1235.41" y="-824.3" font-family="Times,serif" font-size="14.00">&quot;doi10.5066/F7VX0DMQ&quot;</text>
</g>
<!-- doi.org/10.5066/F7VX0DMQ&#45;&gt;&quot;doi10.5066/F7VX0DMQ&quot; -->
<g id="edge6" class="edge">
<title>doi.org/10.5066/F7VX0DMQ&#45;&gt;&quot;doi10.5066/F7VX0DMQ&quot;</title>
<path fill="none" stroke="black" d="M895.38,-821.47C954.32,-821.5 1023.55,-821.85 1086.12,-823 1090.59,-823.08 1095.13,-823.18 1099.72,-823.28"/>
<polygon fill="black" stroke="black" points="1099.74,-826.78 1109.82,-823.52 1099.91,-819.78 1099.74,-826.78"/>
<text text-anchor="middle" x="1042.62" y="-826.8" font-family="Times,serif" font-size="14.00">value</text>
</g>
<!-- CreativeWork -->
<g id="node9" class="node">
<title>CreativeWork</title>
<ellipse fill="none" stroke="#558855" cx="753.64" cy="-608" rx="74.19" ry="18"/>
<text text-anchor="middle" x="753.64" y="-604.3" font-family="Times,serif" font-size="14.00">CreativeWork</text>
</g>
<!-- example.org/permanentUrlToThisJsonDoc -->
<g id="node10" class="node">
<title>example.org/permanentUrlToThisJsonDoc</title>
<ellipse fill="none" stroke="black" cx="204.08" cy="-557" rx="204.16" ry="18"/>
<text text-anchor="middle" x="204.08" y="-553.3" font-family="Times,serif" font-size="14.00">example.org/permanentUrlToThisJsonDoc</text>
</g>
<!-- example.org/permanentUrlToThisJsonDoc&#45;&gt;www.foo.org/orgID -->
<g id="edge9" class="edge">
<title>example.org/permanentUrlToThisJsonDoc&#45;&gt;www.foo.org/orgID</title>
<path fill="none" stroke="black" d="M212.34,-575C240.78,-643.12 351.78,-887.03 526.16,-1001 562.41,-1024.69 608.21,-1037.12 649.12,-1043.57"/>
<polygon fill="black" stroke="black" points="648.73,-1047.05 659.13,-1045.05 649.75,-1040.13 648.73,-1047.05"/>
<text text-anchor="middle" x="467.16" y="-987.8" font-family="Times,serif" font-size="14.00">contributor</text>
</g>
<!-- example.org/permanentUrlToThisJsonDoc&#45;&gt;doi.org/10.5066/F7VX0DMQ -->
<g id="edge11" class="edge">
<title>example.org/permanentUrlToThisJsonDoc&#45;&gt;doi.org/10.5066/F7VX0DMQ</title>
<path fill="none" stroke="black" d="M241.86,-574.8C338.8,-621.72 601.14,-748.68 707.22,-800.01"/>
<polygon fill="black" stroke="black" points="705.86,-803.25 716.38,-804.45 708.91,-796.95 705.86,-803.25"/>
<text text-anchor="middle" x="467.16" y="-700.8" font-family="Times,serif" font-size="14.00">identifier</text>
</g>
<!-- example.org/permanentUrlToThisJsonDoc&#45;&gt;CreativeWork -->
<g id="edge7" class="edge">
<title>example.org/permanentUrlToThisJsonDoc&#45;&gt;CreativeWork</title>
<path fill="none" stroke="black" d="M345.03,-570.03C449.46,-579.76 588.36,-592.7 674.07,-600.68"/>
<polygon fill="black" stroke="black" points="673.97,-604.19 684.25,-601.63 674.62,-597.22 673.97,-604.19"/>
<text text-anchor="middle" x="467.16" y="-587.8" font-family="Times,serif" font-size="14.00">type</text>
</g>
<!-- www.sample&#45;data&#45;repository.org/person/51317 -->
<g id="node11" class="node">
<title>www.sample&#45;data&#45;repository.org/person/51317</title>
<ellipse fill="none" stroke="#558855" cx="753.64" cy="-489" rx="227.46" ry="18"/>
<text text-anchor="middle" x="753.64" y="-485.3" font-family="Times,serif" font-size="14.00">www.sample&#45;data&#45;repository.org/person/51317</text>
</g>
<!-- example.org/permanentUrlToThisJsonDoc&#45;&gt;www.sample&#45;data&#45;repository.org/person/51317 -->
<g id="edge8" class="edge">
<title>example.org/permanentUrlToThisJsonDoc&#45;&gt;www.sample&#45;data&#45;repository.org/person/51317</title>
<path fill="none" stroke="black" d="M317.52,-542C352.33,-537.42 390.83,-532.43 426.16,-528 488.14,-520.23 556.78,-511.98 615.07,-505.08"/>
<polygon fill="black" stroke="black" points="615.56,-508.54 625.07,-503.89 614.73,-501.59 615.56,-508.54"/>
<text text-anchor="middle" x="467.16" y="-531.8" font-family="Times,serif" font-size="14.00">author</text>
</g>
<!-- &quot;Description of the c...&quot; -->
<g id="node12" class="node">
<title>&quot;Description of the c...&quot;</title>
<ellipse fill="none" stroke="black" stroke-width="0" cx="753.64" cy="-435" rx="119.68" ry="18"/>
<text text-anchor="middle" x="753.64" y="-431.3" font-family="Times,serif" font-size="14.00">&quot;Description of the c...&quot;</text>
</g>
<!-- example.org/permanentUrlToThisJsonDoc&#45;&gt;&quot;Description of the c...&quot; -->
<g id="edge10" class="edge">
<title>example.org/permanentUrlToThisJsonDoc&#45;&gt;&quot;Description of the c...&quot;</title>
<path fill="none" stroke="black" d="M254.47,-539.54C316.96,-518.12 428.23,-482.17 526.16,-462 562.41,-454.53 602.38,-448.92 638.52,-444.8"/>
<polygon fill="black" stroke="black" points="639.05,-448.26 648.61,-443.68 638.28,-441.31 639.05,-448.26"/>
<text text-anchor="middle" x="467.16" y="-488.8" font-family="Times,serif" font-size="14.00">description</text>
</g>
<!-- _ -->
<g id="node13" class="node">
<title>_</title>
<ellipse fill="none" stroke="#558855" cx="753.64" cy="-234" rx="27" ry="18"/>
<text text-anchor="middle" x="753.64" y="-230.3" font-family="Times,serif" font-size="14.00">_</text>
</g>
<!-- example.org/permanentUrlToThisJsonDoc&#45;&gt;_ -->
<g id="edge12" class="edge">
<title>example.org/permanentUrlToThisJsonDoc&#45;&gt;_</title>
<path fill="none" stroke="black" d="M235.3,-539.17C331.64,-482.35 630.65,-305.96 724.3,-250.72"/>
<polygon fill="black" stroke="black" points="726.12,-253.71 732.96,-245.61 722.57,-247.68 726.12,-253.71"/>
<text text-anchor="middle" x="467.16" y="-427.8" font-family="Times,serif" font-size="14.00">keywords</text>
</g>
<!-- &quot;http//spdx.org/licen...&quot; -->
<g id="node14" class="node">
<title>&quot;http//spdx.org/licen...&quot;</title>
<ellipse fill="none" stroke="black" stroke-width="0" cx="753.64" cy="-180" rx="118.88" ry="18"/>
<text text-anchor="middle" x="753.64" y="-176.3" font-family="Times,serif" font-size="14.00">&quot;http//spdx.org/licen...&quot;</text>
</g>
<!-- example.org/permanentUrlToThisJsonDoc&#45;&gt;&quot;http//spdx.org/licen...&quot; -->
<g id="edge13" class="edge">
<title>example.org/permanentUrlToThisJsonDoc&#45;&gt;&quot;http//spdx.org/licen...&quot;</title>
<path fill="none" stroke="black" d="M215.25,-538.75C249.71,-478.87 368.75,-287.67 526.16,-207 556.18,-191.62 591.3,-183.48 624.8,-179.47"/>
<polygon fill="black" stroke="black" points="625.57,-182.91 635.14,-178.36 624.82,-175.95 625.57,-182.91"/>
<text text-anchor="middle" x="467.16" y="-274.8" font-family="Times,serif" font-size="14.00">license</text>
</g>
<!-- &quot;Name or title of the...&quot; -->
<g id="node15" class="node">
<title>&quot;Name or title of the...&quot;</title>
<ellipse fill="none" stroke="black" stroke-width="0" cx="753.64" cy="-126" rx="120.48" ry="18"/>
<text text-anchor="middle" x="753.64" y="-122.3" font-family="Times,serif" font-size="14.00">&quot;Name or title of the...&quot;</text>
</g>
<!-- example.org/permanentUrlToThisJsonDoc&#45;&gt;&quot;Name or title of the...&quot; -->
<g id="edge14" class="edge">
<title>example.org/permanentUrlToThisJsonDoc&#45;&gt;&quot;Name or title of the...&quot;</title>
<path fill="none" stroke="black" d="M211.89,-538.91C234.17,-481.85 310.23,-303.3 426.16,-200 479.51,-152.47 556.91,-133.52 622.96,-126.67"/>
<polygon fill="black" stroke="black" points="623.42,-130.14 633.04,-125.71 622.75,-123.17 623.42,-130.14"/>
<text text-anchor="middle" x="467.16" y="-203.8" font-family="Times,serif" font-size="14.00">name</text>
</g>
<!-- www.repositoryB.org -->
<g id="node16" class="node">
<title>www.repositoryB.org</title>
<ellipse fill="none" stroke="#558855" cx="753.64" cy="-664" rx="109.38" ry="18"/>
<text text-anchor="middle" x="753.64" y="-660.3" font-family="Times,serif" font-size="14.00">www.repositoryB.org</text>
</g>
<!-- example.org/permanentUrlToThisJsonDoc&#45;&gt;www.repositoryB.org -->
<g id="edge15" class="edge">
<title>example.org/permanentUrlToThisJsonDoc&#45;&gt;www.repositoryB.org</title>
<path fill="none" stroke="black" d="M266.8,-574.15C331.12,-591.52 435.06,-618.16 526.16,-635 566.51,-642.46 611.25,-648.63 650.24,-653.33"/>
<polygon fill="black" stroke="black" points="650.2,-656.85 660.55,-654.55 651.03,-649.9 650.2,-656.85"/>
<text text-anchor="middle" x="467.16" y="-632.8" font-family="Times,serif" font-size="14.00">provider</text>
</g>
<!-- www.publishingrus.org -->
<g id="node17" class="node">
<title>www.publishingrus.org</title>
<ellipse fill="none" stroke="#558855" cx="753.64" cy="-974" rx="118.08" ry="18"/>
<text text-anchor="middle" x="753.64" y="-970.3" font-family="Times,serif" font-size="14.00">www.publishingrus.org</text>
</g>
<!-- example.org/permanentUrlToThisJsonDoc&#45;&gt;www.publishingrus.org -->
<g id="edge16" class="edge">
<title>example.org/permanentUrlToThisJsonDoc&#45;&gt;www.publishingrus.org</title>
<path fill="none" stroke="black" d="M221.93,-575.02C267.68,-623.34 399.33,-758.23 526.16,-849 584.88,-891.02 659.18,-929.57 706.33,-952.43"/>
<polygon fill="black" stroke="black" points="704.85,-955.6 715.38,-956.79 707.89,-949.29 704.85,-955.6"/>
<text text-anchor="middle" x="467.16" y="-838.8" font-family="Times,serif" font-size="14.00">publisher</text>
</g>
<!-- &quot;https//www.sample&#45;da...&quot; -->
<g id="node18" class="node">
<title>&quot;https//www.sample&#45;da...&quot;</title>
<ellipse fill="none" stroke="black" stroke-width="0" cx="1235.41" cy="-558" rx="131.08" ry="18"/>
<text text-anchor="middle" x="1235.41" y="-554.3" font-family="Times,serif" font-size="14.00">&quot;https//www.sample&#45;da...&quot;</text>
</g>
<!-- example.org/permanentUrlToThisJsonDoc&#45;&gt;&quot;https//www.sample&#45;da...&quot; -->
<g id="edge17" class="edge">
<title>example.org/permanentUrlToThisJsonDoc&#45;&gt;&quot;https//www.sample&#45;da...&quot;</title>
<path fill="none" stroke="black" d="M408.44,-557.2C611.04,-557.39 916.72,-557.69 1093.84,-557.86"/>
<polygon fill="black" stroke="black" points="1094.01,-561.36 1104.01,-557.87 1094.01,-554.36 1094.01,-561.36"/>
<text text-anchor="middle" x="753.64" y="-560.8" font-family="Times,serif" font-size="14.00">url</text>
</g>
<!-- www.sample&#45;data&#45;repository.org/person/51317&#45;&gt;&quot;https//www.sample&#45;da...&quot; -->
<g id="edge29" class="edge">
<title>www.sample&#45;data&#45;repository.org/person/51317&#45;&gt;&quot;https//www.sample&#45;da...&quot;</title>
<path fill="none" stroke="black" d="M896.13,-503.05C955.04,-509.57 1024.04,-518.09 1086.12,-528 1108.62,-531.59 1132.89,-536.19 1155.15,-540.71"/>
<polygon fill="black" stroke="black" points="1154.72,-544.19 1165.22,-542.77 1156.13,-537.34 1154.72,-544.19"/>
<text text-anchor="middle" x="1042.62" y="-531.8" font-family="Times,serif" font-size="14.00">url</text>
</g>
<!-- Person -->
<g id="node22" class="node">
<title>Person</title>
<ellipse fill="none" stroke="#558855" cx="1235.41" cy="-450" rx="42.49" ry="18"/>
<text text-anchor="middle" x="1235.41" y="-446.3" font-family="Times,serif" font-size="14.00">Person</text>
</g>
<!-- www.sample&#45;data&#45;repository.org/person/51317&#45;&gt;Person -->
<g id="edge25" class="edge">
<title>www.sample&#45;data&#45;repository.org/person/51317&#45;&gt;Person</title>
<path fill="none" stroke="black" d="M907.21,-475.67C937.65,-473.08 969.4,-470.41 999.12,-468 1062.65,-462.84 1135.87,-457.3 1183.53,-453.75"/>
<polygon fill="black" stroke="black" points="1183.88,-457.24 1193.6,-453.01 1183.36,-450.26 1183.88,-457.24"/>
<text text-anchor="middle" x="1042.62" y="-471.8" font-family="Times,serif" font-size="14.00">type</text>
</g>
<!-- &quot;Passow&quot; -->
<g id="node23" class="node">
<title>&quot;Passow&quot;</title>
<ellipse fill="none" stroke="black" stroke-width="0" cx="1235.41" cy="-396" rx="53.89" ry="18"/>
<text text-anchor="middle" x="1235.41" y="-392.3" font-family="Times,serif" font-size="14.00">&quot;Passow&quot;</text>
</g>
<!-- www.sample&#45;data&#45;repository.org/person/51317&#45;&gt;&quot;Passow&quot; -->
<g id="edge26" class="edge">
<title>www.sample&#45;data&#45;repository.org/person/51317&#45;&gt;&quot;Passow&quot;</title>
<path fill="none" stroke="black" d="M939.16,-478.51C953.76,-474.25 967.94,-468.83 981.12,-462 991.74,-456.5 988.72,-447.9 999.12,-442 1052.03,-412.02 1121.19,-401.28 1170.81,-397.58"/>
<polygon fill="black" stroke="black" points="1171.35,-401.05 1181.09,-396.89 1170.88,-394.07 1171.35,-401.05"/>
<text text-anchor="middle" x="1042.62" y="-445.8" font-family="Times,serif" font-size="14.00">familyName</text>
</g>
<!-- &quot;Uta&quot; -->
<g id="node24" class="node">
<title>&quot;Uta&quot;</title>
<ellipse fill="none" stroke="black" stroke-width="0" cx="1235.41" cy="-342" rx="36.29" ry="18"/>
<text text-anchor="middle" x="1235.41" y="-338.3" font-family="Times,serif" font-size="14.00">&quot;Uta&quot;</text>
</g>
<!-- www.sample&#45;data&#45;repository.org/person/51317&#45;&gt;&quot;Uta&quot; -->
<g id="edge27" class="edge">
<title>www.sample&#45;data&#45;repository.org/person/51317&#45;&gt;&quot;Uta&quot;</title>
<path fill="none" stroke="black" d="M953.76,-480.31C963.57,-475.35 972.79,-469.32 981.12,-462 1005.59,-440.52 975.63,-413.53 999.12,-391 1033.53,-358 1057.45,-378.73 1104.12,-369 1133.24,-362.93 1166.03,-356.14 1191.43,-350.88"/>
<polygon fill="black" stroke="black" points="1192.39,-354.26 1201.48,-348.8 1190.97,-347.4 1192.39,-354.26"/>
<text text-anchor="middle" x="1042.62" y="-394.8" font-family="Times,serif" font-size="14.00">givenName</text>
</g>
<!-- &quot;Dr Uta Passow&quot; -->
<g id="node25" class="node">
<title>&quot;Dr Uta Passow&quot;</title>
<ellipse fill="none" stroke="black" stroke-width="0" cx="1235.41" cy="-504" rx="88.28" ry="18"/>
<text text-anchor="middle" x="1235.41" y="-500.3" font-family="Times,serif" font-size="14.00">&quot;Dr Uta Passow&quot;</text>
</g>
<!-- www.sample&#45;data&#45;repository.org/person/51317&#45;&gt;&quot;Dr Uta Passow&quot; -->
<g id="edge28" class="edge">
<title>www.sample&#45;data&#45;repository.org/person/51317&#45;&gt;&quot;Dr Uta Passow&quot;</title>
<path fill="none" stroke="black" d="M979.83,-486.92C1015.41,-487.39 1051.78,-488.33 1086.12,-490 1106.01,-490.97 1127.35,-492.62 1147.46,-494.46"/>
<polygon fill="black" stroke="black" points="1147.26,-497.95 1157.54,-495.4 1147.91,-490.98 1147.26,-497.95"/>
<text text-anchor="middle" x="1042.62" y="-493.8" font-family="Times,serif" font-size="14.00">name</text>
</g>
<!-- _&#45;&gt;_ -->
<g id="edge31" class="edge">
<title>_&#45;&gt;_</title>
<path fill="none" stroke="black" d="M727.72,-239.67C683.56,-252.28 692.2,-270 753.64,-270 810.05,-270 821.96,-255.06 789.37,-242.87"/>
<polygon fill="black" stroke="black" points="790.16,-239.44 779.57,-239.67 787.99,-246.1 790.16,-239.44"/>
<text text-anchor="middle" x="753.64" y="-273.8" font-family="Times,serif" font-size="14.00">inDefinedTermSet</text>
</g>
<!-- DefinedTerm -->
<g id="node26" class="node">
<title>DefinedTerm</title>
<ellipse fill="none" stroke="#558855" cx="1235.41" cy="-126" rx="70.39" ry="18"/>
<text text-anchor="middle" x="1235.41" y="-122.3" font-family="Times,serif" font-size="14.00">DefinedTerm</text>
</g>
<!-- _&#45;&gt;DefinedTerm -->
<g id="edge30" class="edge">
<title>_&#45;&gt;DefinedTerm</title>
<path fill="none" stroke="black" d="M780.09,-237.68C824.63,-242.76 917.99,-247.2 981.12,-207 993.92,-198.85 986.82,-186.87 999.12,-178 1038.04,-149.95 1057.3,-163.42 1104.12,-153 1125.34,-148.28 1148.57,-143.38 1169.45,-139.07"/>
<polygon fill="black" stroke="black" points="1170.41,-142.45 1179.5,-137.01 1169,-135.59 1170.41,-142.45"/>
<text text-anchor="middle" x="1042.62" y="-181.8" font-family="Times,serif" font-size="14.00">type</text>
</g>
<!-- &quot;A code that identifi...&quot; -->
<g id="node27" class="node">
<title>&quot;A code that identifi...&quot;</title>
<ellipse fill="none" stroke="black" stroke-width="0" cx="1235.41" cy="-72" rx="116.18" ry="18"/>
<text text-anchor="middle" x="1235.41" y="-68.3" font-family="Times,serif" font-size="14.00">&quot;A code that identifi...&quot;</text>
</g>
<!-- _&#45;&gt;&quot;A code that identifi...&quot; -->
<g id="edge32" class="edge">
<title>_&#45;&gt;&quot;A code that identifi...&quot;</title>
<path fill="none" stroke="black" d="M779.66,-239.23C825.64,-247.27 924.06,-256.94 981.12,-207 1005.3,-185.85 977.52,-160.77 999.12,-137 1032.5,-100.27 1056.37,-112.51 1104.12,-99 1118.62,-94.9 1134.18,-91.13 1149.33,-87.8"/>
<polygon fill="black" stroke="black" points="1150.17,-91.2 1159.21,-85.67 1148.7,-84.36 1150.17,-91.2"/>
<text text-anchor="middle" x="1042.62" y="-140.8" font-family="Times,serif" font-size="14.00">termCode</text>
</g>
<!-- DefinedTermSet -->
<g id="node28" class="node">
<title>DefinedTermSet</title>
<ellipse fill="none" stroke="#558855" cx="1235.41" cy="-18" rx="85.59" ry="18"/>
<text text-anchor="middle" x="1235.41" y="-14.3" font-family="Times,serif" font-size="14.00">DefinedTermSet</text>
</g>
<!-- _&#45;&gt;DefinedTermSet -->
<g id="edge33" class="edge">
<title>_&#45;&gt;DefinedTermSet</title>
<path fill="none" stroke="black" d="M779.45,-239.65C825.96,-248.63 926.48,-260.14 981.12,-207 1020.41,-168.79 964.8,-127.73 999.12,-85 1032.53,-43.41 1089.79,-26.5 1139.46,-20.07"/>
<polygon fill="black" stroke="black" points="1140.08,-23.52 1149.6,-18.88 1139.27,-16.57 1140.08,-23.52"/>
<text text-anchor="middle" x="1042.62" y="-88.8" font-family="Times,serif" font-size="14.00">type</text>
</g>
<!-- &quot;Description of the s...&quot; -->
<g id="node29" class="node">
<title>&quot;Description of the s...&quot;</title>
<ellipse fill="none" stroke="black" stroke-width="0" cx="1235.41" cy="-288" rx="119.68" ry="18"/>
<text text-anchor="middle" x="1235.41" y="-284.3" font-family="Times,serif" font-size="14.00">&quot;Description of the s...&quot;</text>
</g>
<!-- _&#45;&gt;&quot;Description of the s...&quot; -->
<g id="edge34" class="edge">
<title>_&#45;&gt;&quot;Description of the s...&quot;</title>
<path fill="none" stroke="black" d="M780.44,-236.9C844.96,-244.17 1016.23,-263.44 1128.98,-276.13"/>
<polygon fill="black" stroke="black" points="1128.7,-279.62 1139.02,-277.26 1129.48,-272.67 1128.7,-279.62"/>
<text text-anchor="middle" x="1042.62" y="-273.8" font-family="Times,serif" font-size="14.00">description</text>
</g>
<!-- &quot;Name of the set&quot; -->
<g id="node30" class="node">
<title>&quot;Name of the set&quot;</title>
<ellipse fill="none" stroke="black" stroke-width="0" cx="1235.41" cy="-234" rx="93.68" ry="18"/>
<text text-anchor="middle" x="1235.41" y="-230.3" font-family="Times,serif" font-size="14.00">&quot;Name of the set&quot;</text>
</g>
<!-- _&#45;&gt;&quot;Name of the set&quot; -->
<g id="edge35" class="edge">
<title>_&#45;&gt;&quot;Name of the set&quot;</title>
<path fill="none" stroke="black" d="M780.78,-234C846.07,-234 1019.15,-234 1131.65,-234"/>
<polygon fill="black" stroke="black" points="1131.67,-237.5 1141.67,-234 1131.67,-230.5 1131.67,-237.5"/>
<text text-anchor="middle" x="1042.62" y="-237.8" font-family="Times,serif" font-size="14.00">name</text>
</g>
<!-- &quot;url for the set&quot; -->
<g id="node31" class="node">
<title>&quot;url for the set&quot;</title>
<ellipse fill="none" stroke="black" stroke-width="0" cx="1235.41" cy="-180" rx="83.69" ry="18"/>
<text text-anchor="middle" x="1235.41" y="-176.3" font-family="Times,serif" font-size="14.00">&quot;url for the set&quot;</text>
</g>
<!-- _&#45;&gt;&quot;url for the set&quot; -->
<g id="edge36" class="edge">
<title>_&#45;&gt;&quot;url for the set&quot;</title>
<path fill="none" stroke="black" d="M780.44,-231.1C849.23,-223.35 1039.41,-201.95 1150.58,-189.44"/>
<polygon fill="black" stroke="black" points="1151.21,-192.89 1160.75,-188.29 1150.42,-185.93 1151.21,-192.89"/>
<text text-anchor="middle" x="1042.62" y="-208.8" font-family="Times,serif" font-size="14.00">url</text>
</g>
<!-- www.repositoryB.org&#45;&gt;Organization -->
<g id="edge20" class="edge">
<title>www.repositoryB.org&#45;&gt;Organization</title>
<path fill="none" stroke="black" d="M805.75,-679.84C857.99,-698.73 937.49,-735.47 981.12,-795 1002.93,-824.74 973,-849.97 999.12,-876 1027.16,-903.93 1057.53,-867.63 1086.12,-895 1108.71,-916.62 1081.42,-941.5 1104.12,-963 1117.84,-975.99 1136.1,-983.44 1154.59,-987.56"/>
<polygon fill="black" stroke="black" points="1154.07,-991.02 1164.55,-989.47 1155.39,-984.15 1154.07,-991.02"/>
<text text-anchor="middle" x="1042.62" y="-898.8" font-family="Times,serif" font-size="14.00">type</text>
</g>
<!-- www.repositoryB.org&#45;&gt;&quot;https//www.sample&#45;da...&quot; -->
<g id="edge24" class="edge">
<title>www.repositoryB.org&#45;&gt;&quot;https//www.sample&#45;da...&quot;</title>
<path fill="none" stroke="black" d="M859.81,-668.28C900.22,-665.55 945.22,-656.83 981.12,-635 993.13,-627.7 987.48,-616.88 999.12,-609 1038.77,-582.17 1057.35,-595.19 1104.12,-585 1119.31,-581.69 1135.5,-578.26 1151.14,-574.99"/>
<polygon fill="black" stroke="black" points="1152.24,-578.34 1161.31,-572.88 1150.81,-571.49 1152.24,-578.34"/>
<text text-anchor="middle" x="1042.62" y="-612.8" font-family="Times,serif" font-size="14.00">url</text>
</g>
<!-- &quot;Sample Data Reposito...&quot; -->
<g id="node19" class="node">
<title>&quot;Sample Data Reposito...&quot;</title>
<ellipse fill="none" stroke="black" stroke-width="0" cx="1235.41" cy="-612" rx="131.08" ry="18"/>
<text text-anchor="middle" x="1235.41" y="-608.3" font-family="Times,serif" font-size="14.00">&quot;Sample Data Reposito...&quot;</text>
</g>
<!-- www.repositoryB.org&#45;&gt;&quot;Sample Data Reposito...&quot; -->
<g id="edge21" class="edge">
<title>www.repositoryB.org&#45;&gt;&quot;Sample Data Reposito...&quot;</title>
<path fill="none" stroke="black" d="M845.45,-654.16C923.89,-645.66 1037.58,-633.33 1121.8,-624.21"/>
<polygon fill="black" stroke="black" points="1122.35,-627.67 1131.92,-623.11 1121.6,-620.71 1122.35,-627.67"/>
<text text-anchor="middle" x="1042.62" y="-639.8" font-family="Times,serif" font-size="14.00">legalName</text>
</g>
<!-- &quot;SDRO&quot; -->
<g id="node20" class="node">
<title>&quot;SDRO&quot;</title>
<ellipse fill="none" stroke="black" stroke-width="0" cx="1235.41" cy="-720" rx="47.39" ry="18"/>
<text text-anchor="middle" x="1235.41" y="-716.3" font-family="Times,serif" font-size="14.00">&quot;SDRO&quot;</text>
</g>
<!-- www.repositoryB.org&#45;&gt;&quot;SDRO&quot; -->
<g id="edge22" class="edge">
<title>www.repositoryB.org&#45;&gt;&quot;SDRO&quot;</title>
<path fill="none" stroke="black" d="M843.2,-674.34C941.61,-685.82 1097.44,-704.01 1179.58,-713.6"/>
<polygon fill="black" stroke="black" points="1179.37,-717.1 1189.7,-714.78 1180.18,-710.15 1179.37,-717.1"/>
<text text-anchor="middle" x="1042.62" y="-704.8" font-family="Times,serif" font-size="14.00">name</text>
</g>
<!-- &quot;http//www.re3data.or...&quot; -->
<g id="node21" class="node">
<title>&quot;http//www.re3data.or...&quot;</title>
<ellipse fill="none" stroke="black" stroke-width="0" cx="1235.41" cy="-666" rx="126.98" ry="18"/>
<text text-anchor="middle" x="1235.41" y="-662.3" font-family="Times,serif" font-size="14.00">&quot;http//www.re3data.or...&quot;</text>
</g>
<!-- www.repositoryB.org&#45;&gt;&quot;http//www.re3data.or...&quot; -->
<g id="edge23" class="edge">
<title>www.repositoryB.org&#45;&gt;&quot;http//www.re3data.or...&quot;</title>
<path fill="none" stroke="black" d="M862.91,-664.45C932.6,-664.74 1023.74,-665.12 1098.31,-665.43"/>
<polygon fill="black" stroke="black" points="1098.71,-668.93 1108.72,-665.48 1098.74,-661.93 1098.71,-668.93"/>
<text text-anchor="middle" x="1042.62" y="-668.8" font-family="Times,serif" font-size="14.00">sameAs</text>
</g>
<!-- www.publishingrus.org&#45;&gt;Organization -->
<g id="edge18" class="edge">
<title>www.publishingrus.org&#45;&gt;Organization</title>
<path fill="none" stroke="black" d="M870.92,-971.57C934.54,-970.95 1014.72,-971.29 1086.12,-975 1110.66,-976.27 1137.39,-978.67 1161.31,-981.17"/>
<polygon fill="black" stroke="black" points="1161.06,-984.67 1171.38,-982.25 1161.81,-977.71 1161.06,-984.67"/>
<text text-anchor="middle" x="1042.62" y="-978.8" font-family="Times,serif" font-size="14.00">type</text>
</g>
<!-- www.publishingrus.org&#45;&gt;&quot;Some Institute&quot; -->
<g id="edge19" class="edge">
<title>www.publishingrus.org&#45;&gt;&quot;Some Institute&quot;</title>
<path fill="none" stroke="black" d="M870.16,-977.34C934.61,-981.4 1015.83,-990.17 1086.12,-1009 1094.58,-1011.27 1096.02,-1013.68 1104.12,-1017 1129.38,-1027.35 1157.71,-1038.11 1181.48,-1046.89"/>
<polygon fill="black" stroke="black" points="1180.44,-1050.24 1191.03,-1050.41 1182.86,-1043.67 1180.44,-1050.24"/>
<text text-anchor="middle" x="1042.62" y="-1012.8" font-family="Times,serif" font-size="14.00">legalName</text>
</g>
</g>
</svg>