<?xml version="1.0" encoding="UTF-8" standalone="no"?>
<!DOCTYPE svg PUBLIC "-//W3C//DTD SVG 1.1//EN"
 "http://www.w3.org/Graphics/SVG/1.1/DTD/svg11.dtd">
<!-- Generated by graphviz version 2.43.0 (0)
 -->
<!-- Title: %3 Pages: 1 -->
<svg width="1385pt" height="260pt"
 viewBox="0.00 0.00 1384.90 260.00" xmlns="http://www.w3.org/2000/svg" xmlns:xlink="http://www.w3.org/1999/xlink">
<g id="graph0" class="graph" transform="scale(1 1) rotate(0) translate(4 256)">
<title>%3</title>
<polygon fill="white" stroke="transparent" points="-4,4 -4,-256 1380.9,-256 1380.9,4 -4,4"/>
<!-- CreativeWork -->
<g id="node1" class="node">
<title>CreativeWork</title>
<ellipse fill="none" stroke="#558855" cx="719.64" cy="-180" rx="74.19" ry="18"/>
<text text-anchor="middle" x="719.64" y="-176.3" font-family="Times,serif" font-size="14.00">CreativeWork</text>
</g>
<!-- example.org/permanentUrlToThisJsonDoc -->
<g id="node2" class="node">
<title>example.org/permanentUrlToThisJsonDoc</title>
<ellipse fill="none" stroke="black" cx="204.08" cy="-153" rx="204.16" ry="18"/>
<text text-anchor="middle" x="204.08" y="-149.3" font-family="Times,serif" font-size="14.00">example.org/permanentUrlToThisJsonDoc</text>
</g>
<!-- example.org/permanentUrlToThisJsonDoc&#45;&gt;CreativeWork -->
<g id="edge1" class="edge">
<title>example.org/permanentUrlToThisJsonDoc&#45;&gt;CreativeWork</title>
<path fill="none" stroke="black" d="M379.67,-162.18C466.65,-166.75 567.71,-172.06 636.7,-175.69"/>
<polygon fill="black" stroke="black" points="636.89,-179.21 647.06,-176.24 637.26,-172.22 636.89,-179.21"/>
<text text-anchor="middle" x="450.16" y="-169.8" font-family="Times,serif" font-size="14.00">type</text>
</g>
<!-- www.sample&#45;data&#45;repository.org/person/51317 -->
<g id="node3" class="node">
<title>www.sample&#45;data&#45;repository.org/person/51317</title>
<ellipse fill="none" stroke="#558855" cx="719.64" cy="-126" rx="227.46" ry="18"/>
<text text-anchor="middle" x="719.64" y="-122.3" font-family="Times,serif" font-size="14.00">www.sample&#45;data&#45;repository.org/person/51317</text>
</g>
<!-- example.org/permanentUrlToThisJsonDoc&#45;&gt;www.sample&#45;data&#45;repository.org/person/51317 -->
<g id="edge2" class="edge">
<title>example.org/permanentUrlToThisJsonDoc&#45;&gt;www.sample&#45;data&#45;repository.org/person/51317</title>
<path fill="none" stroke="black" d="M379.67,-143.82C424.64,-141.46 473.37,-138.9 519.48,-136.47"/>
<polygon fill="black" stroke="black" points="519.79,-139.96 529.59,-135.94 519.42,-132.97 519.79,-139.96"/>
<text text-anchor="middle" x="450.16" y="-144.8" font-family="Times,serif" font-size="14.00">author</text>
</g>
<!-- Person -->
<g id="node4" class="node">
<title>Person</title>
<ellipse fill="none" stroke="#558855" cx="1223.51" cy="-234" rx="42.49" ry="18"/>
<text text-anchor="middle" x="1223.51" y="-230.3" font-family="Times,serif" font-size="14.00">Person</text>
</g>
<!-- www.sample&#45;data&#45;repository.org/person/51317&#45;&gt;Person -->
<g id="edge3" class="edge">
<title>www.sample&#45;data&#45;repository.org/person/51317&#45;&gt;Person</title>
<path fill="none" stroke="black" d="M909.89,-135.93C922.94,-140.4 935.5,-146 947.12,-153 959.16,-160.25 953.63,-170.91 965.12,-179 1004.63,-206.78 1022.97,-196.56 1070.12,-207 1104.38,-214.59 1143.35,-221.46 1173.3,-226.37"/>
<polygon fill="black" stroke="black" points="1173.06,-229.88 1183.5,-228.03 1174.19,-222.97 1173.06,-229.88"/>
<text text-anchor="middle" x="1008.62" y="-206.8" font-family="Times,serif" font-size="14.00">type</text>
</g>
<!-- &quot;Passow&quot; -->
<g id="node5" class="node">
<title>&quot;Passow&quot;</title>
<ellipse fill="none" stroke="black" stroke-width="0" cx="1223.51" cy="-180" rx="53.89" ry="18"/>
<text text-anchor="middle" x="1223.51" y="-176.3" font-family="Times,serif" font-size="14.00">&quot;Passow&quot;</text>
</g>
<!-- www.sample&#45;data&#45;repository.org/person/51317&#45;&gt;&quot;Passow&quot; -->
<g id="edge4" class="edge">
<title>www.sample&#45;data&#45;repository.org/person/51317&#45;&gt;&quot;Passow&quot;</title>
<path fill="none" stroke="black" d="M855.13,-140.47C954.83,-151.2 1086.02,-165.31 1161.64,-173.45"/>
<polygon fill="black" stroke="black" points="1161.61,-176.97 1171.93,-174.56 1162.36,-170.01 1161.61,-176.97"/>
<text text-anchor="middle" x="1008.62" y="-163.8" font-family="Times,serif" font-size="14.00">familyName</text>
</g>
<!-- &quot;Uta&quot; -->
<g id="node6" class="node">
<title>&quot;Uta&quot;</title>
<ellipse fill="none" stroke="black" stroke-width="0" cx="1223.51" cy="-126" rx="36.29" ry="18"/>
<text text-anchor="middle" x="1223.51" y="-122.3" font-family="Times,serif" font-size="14.00">&quot;Uta&quot;</text>
</g>
<!-- www.sample&#45;data&#45;repository.org/person/51317&#45;&gt;&quot;Uta&quot; -->
<g id="edge5" class="edge">
<title>www.sample&#45;data&#45;repository.org/person/51317&#45;&gt;&quot;Uta&quot;</title>
<path fill="none" stroke="black" d="M947.35,-126C1033.8,-126 1124.13,-126 1176.76,-126"/>
<polygon fill="black" stroke="black" points="1176.77,-129.5 1186.77,-126 1176.77,-122.5 1176.77,-129.5"/>
<text text-anchor="middle" x="1008.62" y="-129.8" font-family="Times,serif" font-size="14.00">givenName</text>
</g>
<!-- &quot;Dr Uta Passow&quot; -->
<g id="node7" class="node">
<title>&quot;Dr Uta Passow&quot;</title>
<ellipse fill="none" stroke="black" stroke-width="0" cx="1223.51" cy="-72" rx="88.28" ry="18"/>
<text text-anchor="middle" x="1223.51" y="-68.3" font-family="Times,serif" font-size="14.00">&quot;Dr Uta Passow&quot;</text>
</g>
<!-- www.sample&#45;data&#45;repository.org/person/51317&#45;&gt;&quot;Dr Uta Passow&quot; -->
<g id="edge6" class="edge">
<title>www.sample&#45;data&#45;repository.org/person/51317&#45;&gt;&quot;Dr Uta Passow&quot;</title>
<path fill="none" stroke="black" d="M855.13,-111.53C943.92,-101.98 1057.68,-89.74 1134.93,-81.42"/>
<polygon fill="black" stroke="black" points="1135.54,-84.88 1145.11,-80.33 1134.79,-77.92 1135.54,-84.88"/>
<text text-anchor="middle" x="1008.62" y="-102.8" font-family="Times,serif" font-size="14.00">name</text>
</g>
<!-- &quot;https//www.sample&#45;data&#45;re...&quot; -->
<g id="node8" class="node">
<title>&quot;https//www.sample&#45;data&#45;re...&quot;</title>
<ellipse fill="none" stroke="black" stroke-width="0" cx="1223.51" cy="-18" rx="153.27" ry="18"/>
<text text-anchor="middle" x="1223.51" y="-14.3" font-family="Times,serif" font-size="14.00">&quot;https//www.sample&#45;data&#45;re...&quot;</text>
</g>
<!-- www.sample&#45;data&#45;repository.org/person/51317&#45;&gt;&quot;https//www.sample&#45;data&#45;re...&quot; -->
<g id="edge7" class="edge">
<title>www.sample&#45;data&#45;repository.org/person/51317&#45;&gt;&quot;https//www.sample&#45;data&#45;re...&quot;</title>
<path fill="none" stroke="black" d="M789.7,-108.87C860.03,-91.69 972.34,-64.98 1070.12,-45 1087.78,-41.39 1106.65,-37.82 1124.88,-34.52"/>
<polygon fill="black" stroke="black" points="1125.71,-37.92 1134.93,-32.71 1124.47,-31.03 1125.71,-37.92"/>
<text text-anchor="middle" x="1008.62" y="-68.8" font-family="Times,serif" font-size="14.00">url</text>
</g>
</g>
</svg>