<?xml version="1.0" encoding="UTF-8" standalone="no"?>
<!DOCTYPE svg PUBLIC "-//W3C//DTD SVG 1.1//EN"
 "http://www.w3.org/Graphics/SVG/1.1/DTD/svg11.dtd">
<!-- Generated by graphviz version 2.43.0 (0)
 -->
<!-- Title: %3 Pages: 1 -->
<svg width="1047pt" height="368pt"
 viewBox="0.00 0.00 1046.53 368.00" xmlns="http://www.w3.org/2000/svg" xmlns:xlink="http://www.w3.org/1999/xlink">
<g id="graph0" class="graph" transform="scale(1 1) rotate(0) translate(4 364)">
<title>%3</title>
<polygon fill="white" stroke="transparent" points="-4,4 -4,-364 1042.53,-364 1042.53,4 -4,4"/>
<!-- Dataset -->
<g id="node1" class="node">
<title>Dataset</title>
<ellipse fill="none" stroke="#558855" cx="606.96" cy="-300" rx="46.59" ry="18"/>
<text text-anchor="middle" x="606.96" y="-296.3" font-family="Times,serif" font-size="14.00">Dataset</text>
</g>
<!-- example.org/permanentUrlToThisJsonDoc -->
<g id="node2" class="node">
<title>example.org/permanentUrlToThisJsonDoc</title>
<ellipse fill="none" stroke="black" cx="204.08" cy="-240" rx="204.16" ry="18"/>
<text text-anchor="middle" x="204.08" y="-236.3" font-family="Times,serif" font-size="14.00">example.org/permanentUrlToThisJsonDoc</text>
</g>
<!-- example.org/permanentUrlToThisJsonDoc&#45;&gt;Dataset -->
<g id="edge1" class="edge">
<title>example.org/permanentUrlToThisJsonDoc&#45;&gt;Dataset</title>
<path fill="none" stroke="black" d="M308.58,-255.49C386.92,-267.22 491.29,-282.84 553.27,-292.11"/>
<polygon fill="black" stroke="black" points="552.81,-295.58 563.22,-293.6 553.84,-288.66 552.81,-295.58"/>
<text text-anchor="middle" x="484.16" y="-292.8" font-family="Times,serif" font-size="14.00">type</text>
</g>
<!-- _ -->
<g id="node3" class="node">
<title>_</title>
<ellipse fill="none" stroke="#558855" cx="606.96" cy="-180" rx="27" ry="18"/>
<text text-anchor="middle" x="606.96" y="-176.3" font-family="Times,serif" font-size="14.00">_</text>
</g>
<!-- example.org/permanentUrlToThisJsonDoc&#45;&gt;_ -->
<g id="edge2" class="edge">
<title>example.org/permanentUrlToThisJsonDoc&#45;&gt;_</title>
<path fill="none" stroke="black" d="M308.58,-224.51C394.63,-211.63 512.07,-194.05 570.26,-185.34"/>
<polygon fill="black" stroke="black" points="571.05,-188.76 580.42,-183.82 570.01,-181.84 571.05,-188.76"/>
<text text-anchor="middle" x="484.16" y="-209.8" font-family="Times,serif" font-size="14.00">spatialCoverage</text>
</g>
<!-- _&#45;&gt;_ -->
<g id="edge4" class="edge">
<title>_&#45;&gt;_</title>
<path fill="none" stroke="black" d="M597.75,-197.04C595.86,-206.86 598.94,-216 606.96,-216 611.97,-216 615.05,-212.43 616.2,-207.35"/>
<polygon fill="black" stroke="black" points="619.7,-207.03 616.17,-197.04 612.7,-207.05 619.7,-207.03"/>
<text text-anchor="middle" x="606.96" y="-219.8" font-family="Times,serif" font-size="14.00">additionalProperty</text>
</g>
<!-- _&#45;&gt;_ -->
<g id="edge5" class="edge">
<title>_&#45;&gt;_</title>
<path fill="none" stroke="black" d="M592.64,-195.48C582.48,-213.33 587.26,-234 606.96,-234 623.28,-234 629.35,-219.82 625.19,-204.81"/>
<polygon fill="black" stroke="black" points="628.37,-203.35 621.28,-195.48 621.92,-206.05 628.37,-203.35"/>
<text text-anchor="middle" x="606.96" y="-237.8" font-family="Times,serif" font-size="14.00">geo</text>
</g>
<!-- Place -->
<g id="node4" class="node">
<title>Place</title>
<ellipse fill="none" stroke="#558855" cx="904.64" cy="-342" rx="36" ry="18"/>
<text text-anchor="middle" x="904.64" y="-338.3" font-family="Times,serif" font-size="14.00">Place</text>
</g>
<!-- _&#45;&gt;Place -->
<g id="edge3" class="edge">
<title>_&#45;&gt;Place</title>
<path fill="none" stroke="black" d="M614.69,-197.56C624.15,-220 643.45,-258.62 671.76,-281 726.17,-324.03 808,-336.89 858.5,-340.62"/>
<polygon fill="black" stroke="black" points="858.57,-344.13 868.78,-341.29 859.03,-337.15 858.57,-344.13"/>
<text text-anchor="middle" x="712.26" y="-324.8" font-family="Times,serif" font-size="14.00">type</text>
</g>
<!-- PropertyValue -->
<g id="node5" class="node">
<title>PropertyValue</title>
<ellipse fill="none" stroke="#558855" cx="904.64" cy="-288" rx="77.19" ry="18"/>
<text text-anchor="middle" x="904.64" y="-284.3" font-family="Times,serif" font-size="14.00">PropertyValue</text>
</g>
<!-- _&#45;&gt;PropertyValue -->
<g id="edge6" class="edge">
<title>_&#45;&gt;PropertyValue</title>
<path fill="none" stroke="black" d="M622.95,-195.17C635.14,-206.74 653.29,-222.28 671.76,-232 719.22,-256.98 778,-271.01 824.5,-278.79"/>
<polygon fill="black" stroke="black" points="824.1,-282.27 834.53,-280.4 825.21,-275.36 824.1,-282.27"/>
<text text-anchor="middle" x="712.26" y="-265.8" font-family="Times,serif" font-size="14.00">type</text>
</g>
<!-- &quot;https//dbpedia.org/p...&quot; -->
<g id="node6" class="node">
<title>&quot;https//dbpedia.org/p...&quot;</title>
<ellipse fill="none" stroke="black" stroke-width="0" cx="904.64" cy="-234" rx="122.68" ry="18"/>
<text text-anchor="middle" x="904.64" y="-230.3" font-family="Times,serif" font-size="14.00">&quot;https//dbpedia.org/p...&quot;</text>
</g>
<!-- _&#45;&gt;&quot;https//dbpedia.org/p...&quot; -->
<g id="edge7" class="edge">
<title>_&#45;&gt;&quot;https//dbpedia.org/p...&quot;</title>
<path fill="none" stroke="black" d="M631.38,-187.83C643.36,-191.61 658.22,-195.98 671.76,-199 712.87,-208.18 758.64,-215.66 798.58,-221.31"/>
<polygon fill="black" stroke="black" points="798.21,-224.79 808.6,-222.7 799.18,-217.86 798.21,-224.79"/>
<text text-anchor="middle" x="712.26" y="-216.8" font-family="Times,serif" font-size="14.00">propertyID</text>
</g>
<!-- &quot;https//www.w3.org/20...&quot; -->
<g id="node7" class="node">
<title>&quot;https//www.w3.org/20...&quot;</title>
<ellipse fill="none" stroke="black" stroke-width="0" cx="904.64" cy="-180" rx="130.78" ry="18"/>
<text text-anchor="middle" x="904.64" y="-176.3" font-family="Times,serif" font-size="14.00">&quot;https//www.w3.org/20...&quot;</text>
</g>
<!-- _&#45;&gt;&quot;https//www.w3.org/20...&quot; -->
<g id="edge8" class="edge">
<title>_&#45;&gt;&quot;https//www.w3.org/20...&quot;</title>
<path fill="none" stroke="black" d="M634.2,-180C663.82,-180 714.33,-180 763.67,-180"/>
<polygon fill="black" stroke="black" points="763.84,-183.5 773.84,-180 763.84,-176.5 763.84,-183.5"/>
<text text-anchor="middle" x="712.26" y="-183.8" font-family="Times,serif" font-size="14.00">value</text>
</g>
<!-- GeoShape -->
<g id="node8" class="node">
<title>GeoShape</title>
<ellipse fill="none" stroke="#558855" cx="904.64" cy="-126" rx="57.69" ry="18"/>
<text text-anchor="middle" x="904.64" y="-122.3" font-family="Times,serif" font-size="14.00">GeoShape</text>
</g>
<!-- _&#45;&gt;GeoShape -->
<g id="edge9" class="edge">
<title>_&#45;&gt;GeoShape</title>
<path fill="none" stroke="black" d="M631.38,-172.17C643.36,-168.39 658.22,-164.02 671.76,-161 728.03,-148.44 793,-139.06 839.83,-133.2"/>
<polygon fill="black" stroke="black" points="840.34,-136.66 849.83,-131.96 839.48,-129.71 840.34,-136.66"/>
<text text-anchor="middle" x="712.26" y="-164.8" font-family="Times,serif" font-size="14.00">type</text>
</g>
<!-- &quot;schema.org expects l...&quot; -->
<g id="node9" class="node">
<title>&quot;schema.org expects l...&quot;</title>
<ellipse fill="none" stroke="black" stroke-width="0" cx="904.64" cy="-72" rx="126.18" ry="18"/>
<text text-anchor="middle" x="904.64" y="-68.3" font-family="Times,serif" font-size="14.00">&quot;schema.org expects l...&quot;</text>
</g>
<!-- _&#45;&gt;&quot;schema.org expects l...&quot; -->
<g id="edge10" class="edge">
<title>_&#45;&gt;&quot;schema.org expects l...&quot;</title>
<path fill="none" stroke="black" d="M622.37,-164.96C634.52,-153.09 652.9,-136.92 671.76,-127 710.49,-106.62 756.8,-93.69 797.82,-85.53"/>
<polygon fill="black" stroke="black" points="798.69,-88.93 807.85,-83.61 797.37,-82.06 798.69,-88.93"/>
<text text-anchor="middle" x="712.26" y="-130.8" font-family="Times,serif" font-size="14.00">description</text>
</g>
<!-- &quot;10.161667 142.014,18...&quot; -->
<g id="node10" class="node">
<title>&quot;10.161667 142.014,18...&quot;</title>
<ellipse fill="none" stroke="black" stroke-width="0" cx="904.64" cy="-18" rx="133.78" ry="18"/>
<text text-anchor="middle" x="904.64" y="-14.3" font-family="Times,serif" font-size="14.00">&quot;10.161667 142.014,18...&quot;</text>
</g>
<!-- _&#45;&gt;&quot;10.161667 142.014,18...&quot; -->
<g id="edge11" class="edge">
<title>_&#45;&gt;&quot;10.161667 142.014,18...&quot;</title>
<path fill="none" stroke="black" d="M614.37,-162.41C623.61,-139.5 642.78,-99.7 671.76,-77 702.9,-52.6 742.97,-38.19 781.01,-29.72"/>
<polygon fill="black" stroke="black" points="782.08,-33.07 791.15,-27.58 780.64,-26.22 782.08,-33.07"/>
<text text-anchor="middle" x="712.26" y="-80.8" font-family="Times,serif" font-size="14.00">polygon</text>
</g>
</g>
</svg>