<?xml version="1.0" encoding="UTF-8" standalone="no"?>
<!DOCTYPE svg PUBLIC "-//W3C//DTD SVG 1.1//EN"
 "http://www.w3.org/Graphics/SVG/1.1/DTD/svg11.dtd">
<!-- Generated by graphviz version 2.43.0 (0)
 -->
<!-- Title: %3 Pages: 1 -->
<svg width="1327pt" height="638pt"
 viewBox="0.00 0.00 1326.92 638.00" xmlns="http://www.w3.org/2000/svg" xmlns:xlink="http://www.w3.org/1999/xlink">
<g id="graph0" class="graph" transform="scale(1 1) rotate(0) translate(4 634)">
<title>%3</title>
<polygon fill="white" stroke="transparent" points="-4,4 -4,-634 1322.92,-634 1322.92,4 -4,4"/>
<!-- PropertyValue -->
<g id="node1" class="node">
<title>PropertyValue</title>
<ellipse fill="none" stroke="#558855" cx="1169.43" cy="-612" rx="77.19" ry="18"/>
<text text-anchor="middle" x="1169.43" y="-608.3" font-family="Times,serif" font-size="14.00">PropertyValue</text>
</g>
<!-- example.org/id/vessel/X -->
<g id="node2" class="node">
<title>example.org/id/vessel/X</title>
<ellipse fill="none" stroke="#558855" cx="746.05" cy="-504" rx="120.78" ry="18"/>
<text text-anchor="middle" x="746.05" y="-500.3" font-family="Times,serif" font-size="14.00">example.org/id/vessel/X</text>
</g>
<!-- example.org/id/vessel/X&#45;&gt;PropertyValue -->
<g id="edge1" class="edge">
<title>example.org/id/vessel/X&#45;&gt;PropertyValue</title>
<path fill="none" stroke="black" d="M787.24,-520.97C814.46,-532.01 851.44,-546.14 884.94,-556 954.29,-576.4 1035.39,-591.58 1093.04,-600.95"/>
<polygon fill="black" stroke="black" points="1092.73,-604.44 1103.16,-602.57 1093.84,-597.53 1092.73,-604.44"/>
<text text-anchor="middle" x="943.44" y="-587.8" font-family="Times,serif" font-size="14.00">type</text>
</g>
<!-- &quot;Vessel ID &quot; -->
<g id="node3" class="node">
<title>&quot;Vessel ID &quot;</title>
<ellipse fill="none" stroke="black" stroke-width="0" cx="1169.43" cy="-558" rx="65.79" ry="18"/>
<text text-anchor="middle" x="1169.43" y="-554.3" font-family="Times,serif" font-size="14.00">&quot;Vessel ID &quot;</text>
</g>
<!-- example.org/id/vessel/X&#45;&gt;&quot;Vessel ID &quot; -->
<g id="edge2" class="edge">
<title>example.org/id/vessel/X&#45;&gt;&quot;Vessel ID &quot;</title>
<path fill="none" stroke="black" d="M834.93,-516.3C851.54,-518.57 868.77,-520.89 884.94,-523 957.89,-532.53 1041.48,-542.77 1098.89,-549.69"/>
<polygon fill="black" stroke="black" points="1098.6,-553.18 1108.94,-550.9 1099.43,-546.23 1098.6,-553.18"/>
<text text-anchor="middle" x="943.44" y="-540.8" font-family="Times,serif" font-size="14.00">description</text>
</g>
<!-- &quot;https//en.wikipedia.org/w...&quot; -->
<g id="node4" class="node">
<title>&quot;https//en.wikipedia.org/w...&quot;</title>
<ellipse fill="none" stroke="black" stroke-width="0" cx="1169.43" cy="-504" rx="145.67" ry="18"/>
<text text-anchor="middle" x="1169.43" y="-500.3" font-family="Times,serif" font-size="14.00">&quot;https//en.wikipedia.org/w...&quot;</text>
</g>
<!-- example.org/id/vessel/X&#45;&gt;&quot;https//en.wikipedia.org/w...&quot; -->
<g id="edge3" class="edge">
<title>example.org/id/vessel/X&#45;&gt;&quot;https//en.wikipedia.org/w...&quot;</title>
<path fill="none" stroke="black" d="M866.96,-504C912.5,-504 965.03,-504 1013.36,-504"/>
<polygon fill="black" stroke="black" points="1013.61,-507.5 1023.61,-504 1013.61,-500.5 1013.61,-507.5"/>
<text text-anchor="middle" x="943.44" y="-507.8" font-family="Times,serif" font-size="14.00">propertyID</text>
</g>
<!-- &quot;https//example.org/id/ves...&quot; -->
<g id="node5" class="node">
<title>&quot;https//example.org/id/ves...&quot;</title>
<ellipse fill="none" stroke="black" stroke-width="0" cx="1169.43" cy="-450" rx="146.47" ry="18"/>
<text text-anchor="middle" x="1169.43" y="-446.3" font-family="Times,serif" font-size="14.00">&quot;https//example.org/id/ves...&quot;</text>
</g>
<!-- example.org/id/vessel/X&#45;&gt;&quot;https//example.org/id/ves...&quot; -->
<g id="edge4" class="edge">
<title>example.org/id/vessel/X&#45;&gt;&quot;https//example.org/id/ves...&quot;</title>
<path fill="none" stroke="black" d="M834.93,-491.7C851.54,-489.43 868.77,-487.11 884.94,-485 940.49,-477.74 1002.22,-470.08 1053.85,-463.77"/>
<polygon fill="black" stroke="black" points="1054.54,-467.22 1064.04,-462.53 1053.69,-460.27 1054.54,-467.22"/>
<text text-anchor="middle" x="943.44" y="-488.8" font-family="Times,serif" font-size="14.00">url</text>
</g>
<!-- Vehicle -->
<g id="node6" class="node">
<title>Vehicle</title>
<ellipse fill="none" stroke="#558855" cx="746.05" cy="-356" rx="44.39" ry="18"/>
<text text-anchor="middle" x="746.05" y="-352.3" font-family="Times,serif" font-size="14.00">Vehicle</text>
</g>
<!-- example.org/permanentUrlToThisJsonDoc -->
<g id="node7" class="node">
<title>example.org/permanentUrlToThisJsonDoc</title>
<ellipse fill="none" stroke="black" cx="204.08" cy="-283" rx="204.16" ry="18"/>
<text text-anchor="middle" x="204.08" y="-279.3" font-family="Times,serif" font-size="14.00">example.org/permanentUrlToThisJsonDoc</text>
</g>
<!-- example.org/permanentUrlToThisJsonDoc&#45;&gt;example.org/id/vessel/X -->
<g id="edge8" class="edge">
<title>example.org/permanentUrlToThisJsonDoc&#45;&gt;example.org/id/vessel/X</title>
<path fill="none" stroke="black" d="M248.36,-300.71C347.13,-341.14 588.77,-440.04 694.32,-483.24"/>
<polygon fill="black" stroke="black" points="693.22,-486.57 703.8,-487.12 695.87,-480.09 693.22,-486.57"/>
<text text-anchor="middle" x="516.66" y="-447.8" font-family="Times,serif" font-size="14.00">identifier</text>
</g>
<!-- example.org/permanentUrlToThisJsonDoc&#45;&gt;Vehicle -->
<g id="edge5" class="edge">
<title>example.org/permanentUrlToThisJsonDoc&#45;&gt;Vehicle</title>
<path fill="none" stroke="black" d="M309.34,-298.44C346.23,-303.81 388.03,-309.79 426.16,-315 520.33,-327.87 630.31,-341.76 693.4,-349.61"/>
<polygon fill="black" stroke="black" points="693.14,-353.11 703.49,-350.87 694,-346.16 693.14,-353.11"/>
<text text-anchor="middle" x="516.66" y="-340.8" font-family="Times,serif" font-size="14.00">type</text>
</g>
<!-- &quot;Angola&quot; -->
<g id="node8" class="node">
<title>&quot;Angola&quot;</title>
<ellipse fill="none" stroke="black" stroke-width="0" cx="746.05" cy="-302" rx="51.19" ry="18"/>
<text text-anchor="middle" x="746.05" y="-298.3" font-family="Times,serif" font-size="14.00">&quot;Angola&quot;</text>
</g>
<!-- example.org/permanentUrlToThisJsonDoc&#45;&gt;&quot;Angola&quot; -->
<g id="edge6" class="edge">
<title>example.org/permanentUrlToThisJsonDoc&#45;&gt;&quot;Angola&quot;</title>
<path fill="none" stroke="black" d="M393.94,-289.65C495.62,-293.22 614.22,-297.4 684.29,-299.86"/>
<polygon fill="black" stroke="black" points="684.57,-303.37 694.69,-300.23 684.82,-296.38 684.57,-303.37"/>
<text text-anchor="middle" x="516.66" y="-299.8" font-family="Times,serif" font-size="14.00">countryOfLastProcessing</text>
</g>
<!-- _ -->
<g id="node9" class="node">
<title>_</title>
<ellipse fill="none" stroke="#558855" cx="746.05" cy="-234" rx="27" ry="18"/>
<text text-anchor="middle" x="746.05" y="-230.3" font-family="Times,serif" font-size="14.00">_</text>
</g>
<!-- example.org/permanentUrlToThisJsonDoc&#45;&gt;_ -->
<g id="edge7" class="edge">
<title>example.org/permanentUrlToThisJsonDoc&#45;&gt;_</title>
<path fill="none" stroke="black" d="M346.95,-270.13C469.06,-259.05 636.68,-243.83 709.21,-237.25"/>
<polygon fill="black" stroke="black" points="709.56,-240.74 719.2,-236.35 708.93,-233.76 709.56,-240.74"/>
<text text-anchor="middle" x="516.66" y="-265.8" font-family="Times,serif" font-size="14.00">countryOfOrigin</text>
</g>
<!-- example.org/permanentUrlToThisJsonDoc&#45;&gt;_ -->
<g id="edge10" class="edge">
<title>example.org/permanentUrlToThisJsonDoc&#45;&gt;_</title>
<path fill="none" stroke="black" d="M259.35,-265.56C303.69,-252.27 368.26,-235.09 426.16,-228 506.01,-218.22 526.74,-226.25 607.16,-228 641.79,-228.75 681.27,-230.57 709.09,-232.01"/>
<polygon fill="black" stroke="black" points="708.97,-235.51 719.14,-232.54 709.34,-228.51 708.97,-235.51"/>
<text text-anchor="middle" x="516.66" y="-231.8" font-family="Times,serif" font-size="14.00">subjectOf</text>
</g>
<!-- &quot;JOIDES Resolution&quot; -->
<g id="node10" class="node">
<title>&quot;JOIDES Resolution&quot;</title>
<ellipse fill="none" stroke="black" stroke-width="0" cx="746.05" cy="-180" rx="106.68" ry="18"/>
<text text-anchor="middle" x="746.05" y="-176.3" font-family="Times,serif" font-size="14.00">&quot;JOIDES Resolution&quot;</text>
</g>
<!-- example.org/permanentUrlToThisJsonDoc&#45;&gt;&quot;JOIDES Resolution&quot; -->
<g id="edge9" class="edge">
<title>example.org/permanentUrlToThisJsonDoc&#45;&gt;&quot;JOIDES Resolution&quot;</title>
<path fill="none" stroke="black" d="M244.49,-265.27C287.99,-246.57 360.58,-217.92 426.16,-204 492.66,-189.89 568.49,-183.78 629.52,-181.26"/>
<polygon fill="black" stroke="black" points="629.71,-184.75 639.57,-180.87 629.44,-177.76 629.71,-184.75"/>
<text text-anchor="middle" x="516.66" y="-207.8" font-family="Times,serif" font-size="14.00">name</text>
</g>
<!-- Country -->
<g id="node11" class="node">
<title>Country</title>
<ellipse fill="none" stroke="#558855" cx="1169.43" cy="-396" rx="48.19" ry="18"/>
<text text-anchor="middle" x="1169.43" y="-392.3" font-family="Times,serif" font-size="14.00">Country</text>
</g>
<!-- _&#45;&gt;Country -->
<g id="edge11" class="edge">
<title>_&#45;&gt;Country</title>
<path fill="none" stroke="black" d="M773.05,-236.2C800.04,-239.84 841.76,-249.48 866.94,-275 885.01,-293.31 866.44,-312.13 884.94,-330 929.87,-373.38 959.14,-354.73 1019.94,-369 1051.07,-376.31 1086.25,-382.78 1114.56,-387.56"/>
<polygon fill="black" stroke="black" points="1114.22,-391.05 1124.66,-389.24 1115.37,-384.14 1114.22,-391.05"/>
<text text-anchor="middle" x="943.44" y="-368.8" font-family="Times,serif" font-size="14.00">type</text>
</g>
<!-- &quot;Fiji&quot; -->
<g id="node12" class="node">
<title>&quot;Fiji&quot;</title>
<ellipse fill="none" stroke="black" stroke-width="0" cx="1169.43" cy="-342" rx="34.39" ry="18"/>
<text text-anchor="middle" x="1169.43" y="-338.3" font-family="Times,serif" font-size="14.00">&quot;Fiji&quot;</text>
</g>
<!-- _&#45;&gt;&quot;Fiji&quot; -->
<g id="edge12" class="edge">
<title>_&#45;&gt;&quot;Fiji&quot;</title>
<path fill="none" stroke="black" d="M771.55,-240.66C796.22,-247.76 835.08,-260.04 866.94,-275 875.43,-278.99 876.24,-282.52 884.94,-286 941.93,-308.77 959.75,-303.06 1019.94,-315 1055.81,-322.11 1096.69,-329.49 1126.47,-334.74"/>
<polygon fill="black" stroke="black" points="1126.06,-338.22 1136.51,-336.5 1127.27,-331.32 1126.06,-338.22"/>
<text text-anchor="middle" x="943.44" y="-314.8" font-family="Times,serif" font-size="14.00">name</text>
</g>
<!-- DataDownload -->
<g id="node13" class="node">
<title>DataDownload</title>
<ellipse fill="none" stroke="#558855" cx="1169.43" cy="-288" rx="78.79" ry="18"/>
<text text-anchor="middle" x="1169.43" y="-284.3" font-family="Times,serif" font-size="14.00">DataDownload</text>
</g>
<!-- _&#45;&gt;DataDownload -->
<g id="edge13" class="edge">
<title>_&#45;&gt;DataDownload</title>
<path fill="none" stroke="black" d="M772.71,-237.64C800.39,-241.55 845.76,-247.88 884.94,-253 953.94,-262.01 1032.48,-271.66 1089.36,-278.54"/>
<polygon fill="black" stroke="black" points="1089.02,-282.02 1099.36,-279.75 1089.86,-275.07 1089.02,-282.02"/>
<text text-anchor="middle" x="943.44" y="-270.8" font-family="Times,serif" font-size="14.00">type</text>
</g>
<!-- &quot;2019&#45;06&#45;12T144415Z&quot; -->
<g id="node14" class="node">
<title>&quot;2019&#45;06&#45;12T144415Z&quot;</title>
<ellipse fill="none" stroke="black" stroke-width="0" cx="1169.43" cy="-234" rx="119.68" ry="18"/>
<text text-anchor="middle" x="1169.43" y="-230.3" font-family="Times,serif" font-size="14.00">&quot;2019&#45;06&#45;12T144415Z&quot;</text>
</g>
<!-- _&#45;&gt;&quot;2019&#45;06&#45;12T144415Z&quot; -->
<g id="edge14" class="edge">
<title>_&#45;&gt;&quot;2019&#45;06&#45;12T144415Z&quot;</title>
<path fill="none" stroke="black" d="M773.09,-234C825.12,-234 945,-234 1039.19,-234"/>
<polygon fill="black" stroke="black" points="1039.39,-237.5 1049.39,-234 1039.39,-230.5 1039.39,-237.5"/>
<text text-anchor="middle" x="943.44" y="-237.8" font-family="Times,serif" font-size="14.00">dateModified</text>
</g>
<!-- &quot;Metadata describing the v...&quot; -->
<g id="node15" class="node">
<title>&quot;Metadata describing the v...&quot;</title>
<ellipse fill="none" stroke="black" stroke-width="0" cx="1169.43" cy="-180" rx="149.47" ry="18"/>
<text text-anchor="middle" x="1169.43" y="-176.3" font-family="Times,serif" font-size="14.00">&quot;Metadata describing the v...&quot;</text>
</g>
<!-- _&#45;&gt;&quot;Metadata describing the v...&quot; -->
<g id="edge15" class="edge">
<title>_&#45;&gt;&quot;Metadata describing the v...&quot;</title>
<path fill="none" stroke="black" d="M772.71,-230.36C800.39,-226.45 845.76,-220.12 884.94,-215 940.15,-207.79 1001.45,-200.17 1052.89,-193.89"/>
<polygon fill="black" stroke="black" points="1053.54,-197.34 1063.04,-192.65 1052.69,-190.39 1053.54,-197.34"/>
<text text-anchor="middle" x="943.44" y="-218.8" font-family="Times,serif" font-size="14.00">description</text>
</g>
<!-- &quot;application/xml&quot; -->
<g id="node16" class="node">
<title>&quot;application/xml&quot;</title>
<ellipse fill="none" stroke="black" stroke-width="0" cx="1169.43" cy="-126" rx="90.98" ry="18"/>
<text text-anchor="middle" x="1169.43" y="-122.3" font-family="Times,serif" font-size="14.00">&quot;application/xml&quot;</text>
</g>
<!-- _&#45;&gt;&quot;application/xml&quot; -->
<g id="edge16" class="edge">
<title>_&#45;&gt;&quot;application/xml&quot;</title>
<path fill="none" stroke="black" d="M773.05,-233.51C798.88,-231.86 838.64,-226.09 866.94,-207 878.59,-199.14 873.22,-188.76 884.94,-181 936.03,-147.17 959.79,-164.7 1019.94,-153 1042.91,-148.53 1067.91,-143.9 1090.75,-139.75"/>
<polygon fill="black" stroke="black" points="1091.51,-143.17 1100.73,-137.95 1090.26,-136.28 1091.51,-143.17"/>
<text text-anchor="middle" x="943.44" y="-184.8" font-family="Times,serif" font-size="14.00">encodingFormat</text>
</g>
<!-- &quot;https//foo.org/ship01&quot; -->
<g id="node17" class="node">
<title>&quot;https//foo.org/ship01&quot;</title>
<ellipse fill="none" stroke="black" stroke-width="0" cx="1169.43" cy="-72" rx="116.18" ry="18"/>
<text text-anchor="middle" x="1169.43" y="-68.3" font-family="Times,serif" font-size="14.00">&quot;https//foo.org/ship01&quot;</text>
</g>
<!-- _&#45;&gt;&quot;https//foo.org/ship01&quot; -->
<g id="edge17" class="edge">
<title>_&#45;&gt;&quot;https//foo.org/ship01&quot;</title>
<path fill="none" stroke="black" d="M773.13,-235.47C800.17,-235.51 841.94,-231.17 866.94,-207 889.73,-184.97 862.83,-160.7 884.94,-138 928.52,-93.27 959.14,-113.27 1019.94,-99 1038.73,-94.59 1059,-90.48 1078.35,-86.87"/>
<polygon fill="black" stroke="black" points="1079.16,-90.28 1088.36,-85.02 1077.89,-83.39 1079.16,-90.28"/>
<text text-anchor="middle" x="943.44" y="-141.8" font-family="Times,serif" font-size="14.00">encodingFormat</text>
</g>
<!-- &quot;external&#45;metadata.xml&quot; -->
<g id="node18" class="node">
<title>&quot;external&#45;metadata.xml&quot;</title>
<ellipse fill="none" stroke="black" stroke-width="0" cx="1169.43" cy="-18" rx="124.58" ry="18"/>
<text text-anchor="middle" x="1169.43" y="-14.3" font-family="Times,serif" font-size="14.00">&quot;external&#45;metadata.xml&quot;</text>
</g>
<!-- _&#45;&gt;&quot;external&#45;metadata.xml&quot; -->
<g id="edge18" class="edge">
<title>_&#45;&gt;&quot;external&#45;metadata.xml&quot;</title>
<path fill="none" stroke="black" d="M773.16,-235.99C800.65,-236.53 843.16,-232.67 866.94,-207 904.49,-166.47 848.62,-125.63 884.94,-84 922.16,-41.34 981.09,-23.38 1035.61,-16.67"/>
<polygon fill="black" stroke="black" points="1036.18,-20.13 1045.73,-15.55 1035.4,-13.17 1036.18,-20.13"/>
<text text-anchor="middle" x="943.44" y="-87.8" font-family="Times,serif" font-size="14.00">name</text>
</g>
</g>
</svg>