<?xml version="1.0" encoding="UTF-8" standalone="no"?>
<!DOCTYPE svg PUBLIC "-//W3C//DTD SVG 1.1//EN"
 "http://www.w3.org/Graphics/SVG/1.1/DTD/svg11.dtd">
<!-- Generated by graphviz version 2.43.0 (0)
 -->
<!-- Title: %3 Pages: 1 -->
<svg width="913pt" height="109pt"
 viewBox="0.00 0.00 912.74 109.00" xmlns="http://www.w3.org/2000/svg" xmlns:xlink="http://www.w3.org/1999/xlink">
<g id="graph0" class="graph" transform="scale(1 1) rotate(0) translate(4 105)">
<title>%3</title>
<polygon fill="white" stroke="transparent" points="-4,4 -4,-105 908.74,-105 908.74,4 -4,4"/>
<!-- Dataset -->
<g id="node1" class="node">
<title>Dataset</title>
<ellipse fill="none" stroke="#558855" cx="760.45" cy="-83" rx="46.59" ry="18"/>
<text text-anchor="middle" x="760.45" y="-79.3" font-family="Times,serif" font-size="14.00">Dataset</text>
</g>
<!-- example.org/permanentUrlToThisJsonDoc -->
<g id="node2" class="node">
<title>example.org/permanentUrlToThisJsonDoc</title>
<ellipse fill="none" stroke="black" cx="204.08" cy="-45" rx="204.16" ry="18"/>
<text text-anchor="middle" x="204.08" y="-41.3" font-family="Times,serif" font-size="14.00">example.org/permanentUrlToThisJsonDoc</text>
</g>
<!-- example.org/permanentUrlToThisJsonDoc&#45;&gt;Dataset -->
<g id="edge1" class="edge">
<title>example.org/permanentUrlToThisJsonDoc&#45;&gt;Dataset</title>
<path fill="none" stroke="black" d="M365.8,-56.02C479.78,-63.83 625.88,-73.84 704.11,-79.21"/>
<polygon fill="black" stroke="black" points="704.02,-82.71 714.23,-79.9 704.49,-75.72 704.02,-82.71"/>
<text text-anchor="middle" x="512.16" y="-74.8" font-family="Times,serif" font-size="14.00">type</text>
</g>
<!-- &quot;http//dx.doi.org/10.1002/...&quot; -->
<g id="node3" class="node">
<title>&quot;http//dx.doi.org/10.1002/...&quot;</title>
<ellipse fill="none" stroke="black" stroke-width="0" cx="760.45" cy="-18" rx="144.07" ry="18"/>
<text text-anchor="middle" x="760.45" y="-14.3" font-family="Times,serif" font-size="14.00">&quot;http//dx.doi.org/10.1002/...&quot;</text>
</g>
<!-- example.org/permanentUrlToThisJsonDoc&#45;&gt;&quot;http//dx.doi.org/10.1002/...&quot; -->
<g id="edge2" class="edge">
<title>example.org/permanentUrlToThisJsonDoc&#45;&gt;&quot;http//dx.doi.org/10.1002/...&quot;</title>
<path fill="none" stroke="black" d="M383.16,-36.33C458.15,-32.67 544.28,-28.48 615.2,-25.03"/>
<polygon fill="black" stroke="black" points="615.74,-28.5 625.56,-24.52 615.4,-21.51 615.74,-28.5"/>
<text text-anchor="middle" x="512.16" y="-36.8" font-family="Times,serif" font-size="14.00">measurementTechnique</text>
</g>
<!-- example.org/permanentUrlToThisJsonDoc&#45;&gt;&quot;http//dx.doi.org/10.1002/...&quot; -->
<g id="edge3" class="edge">
<title>example.org/permanentUrlToThisJsonDoc&#45;&gt;&quot;http//dx.doi.org/10.1002/...&quot;</title>
<path fill="none" stroke="black" d="M280.62,-28.3C323.14,-19.76 377.34,-10.27 426.16,-6 502.32,0.67 521.77,-3.16 598.16,-6 608.37,-6.38 618.93,-6.89 629.54,-7.5"/>
<polygon fill="black" stroke="black" points="629.53,-11 639.72,-8.1 629.95,-4.01 629.53,-11"/>
<text text-anchor="middle" x="512.16" y="-9.8" font-family="Times,serif" font-size="14.00">measurementTechnique</text>
</g>
</g>
</svg>