<?xml version="1.0" encoding="UTF-8" standalone="no"?>
<!DOCTYPE svg PUBLIC "-//W3C//DTD SVG 1.1//EN"
 "http://www.w3.org/Graphics/SVG/1.1/DTD/svg11.dtd">
<!-- Generated by graphviz version 2.43.0 (0)
 -->
<!-- Title: %3 Pages: 1 -->
<svg width="1062pt" height="314pt"
 viewBox="0.00 0.00 1061.53 314.00" xmlns="http://www.w3.org/2000/svg" xmlns:xlink="http://www.w3.org/1999/xlink">
<g id="graph0" class="graph" transform="scale(1 1) rotate(0) translate(4 310)">
<title>%3</title>
<polygon fill="white" stroke="transparent" points="-4,4 -4,-310 1057.53,-310 1057.53,4 -4,4"/>
<!-- Vehicle -->
<g id="node1" class="node">
<title>Vehicle</title>
<ellipse fill="none" stroke="#558855" cx="557.36" cy="-207" rx="44.39" ry="18"/>
<text text-anchor="middle" x="557.36" y="-203.3" font-family="Times,serif" font-size="14.00">Vehicle</text>
</g>
<!-- example.org/permanentUrlToThisJsonDoc -->
<g id="node2" class="node">
<title>example.org/permanentUrlToThisJsonDoc</title>
<ellipse fill="none" stroke="black" cx="204.08" cy="-180" rx="204.16" ry="18"/>
<text text-anchor="middle" x="204.08" y="-176.3" font-family="Times,serif" font-size="14.00">example.org/permanentUrlToThisJsonDoc</text>
</g>
<!-- example.org/permanentUrlToThisJsonDoc&#45;&gt;Vehicle -->
<g id="edge1" class="edge">
<title>example.org/permanentUrlToThisJsonDoc&#45;&gt;Vehicle</title>
<path fill="none" stroke="black" d="M358.39,-191.78C410.46,-195.79 465.18,-199.99 503.87,-202.97"/>
<polygon fill="black" stroke="black" points="503.6,-206.46 513.84,-203.73 504.14,-199.48 503.6,-206.46"/>
<text text-anchor="middle" x="460.66" y="-204.8" font-family="Times,serif" font-size="14.00">type</text>
</g>
<!-- _ -->
<g id="node3" class="node">
<title>_</title>
<ellipse fill="none" stroke="#558855" cx="557.36" cy="-153" rx="27" ry="18"/>
<text text-anchor="middle" x="557.36" y="-149.3" font-family="Times,serif" font-size="14.00">_</text>
</g>
<!-- example.org/permanentUrlToThisJsonDoc&#45;&gt;_ -->
<g id="edge2" class="edge">
<title>example.org/permanentUrlToThisJsonDoc&#45;&gt;_</title>
<path fill="none" stroke="black" d="M358.39,-168.22C418.34,-163.61 481.82,-158.73 520.27,-155.77"/>
<polygon fill="black" stroke="black" points="520.73,-159.25 530.43,-154.99 520.19,-152.27 520.73,-159.25"/>
<text text-anchor="middle" x="460.66" y="-165.8" font-family="Times,serif" font-size="14.00">subjectOf</text>
</g>
<!-- DataDownload -->
<g id="node4" class="node">
<title>DataDownload</title>
<ellipse fill="none" stroke="#558855" cx="904.04" cy="-288" rx="78.79" ry="18"/>
<text text-anchor="middle" x="904.04" y="-284.3" font-family="Times,serif" font-size="14.00">DataDownload</text>
</g>
<!-- _&#45;&gt;DataDownload -->
<g id="edge3" class="edge">
<title>_&#45;&gt;DataDownload</title>
<path fill="none" stroke="black" d="M580.35,-162.9C587.94,-167.23 595.94,-172.94 601.56,-180 616.79,-199.13 601.24,-215.79 619.56,-232 673.38,-279.64 755.75,-291.5 817.86,-292.7"/>
<polygon fill="black" stroke="black" points="818,-296.2 828.03,-292.81 818.07,-289.2 818,-296.2"/>
<text text-anchor="middle" x="678.06" y="-286.8" font-family="Times,serif" font-size="14.00">type</text>
</g>
<!-- &quot;2019&#45;06&#45;12T144415Z&quot; -->
<g id="node5" class="node">
<title>&quot;2019&#45;06&#45;12T144415Z&quot;</title>
<ellipse fill="none" stroke="black" stroke-width="0" cx="904.04" cy="-234" rx="119.68" ry="18"/>
<text text-anchor="middle" x="904.04" y="-230.3" font-family="Times,serif" font-size="14.00">&quot;2019&#45;06&#45;12T144415Z&quot;</text>
</g>
<!-- _&#45;&gt;&quot;2019&#45;06&#45;12T144415Z&quot; -->
<g id="edge4" class="edge">
<title>_&#45;&gt;&quot;2019&#45;06&#45;12T144415Z&quot;</title>
<path fill="none" stroke="black" d="M577.51,-164.99C589.24,-171.83 604.79,-180 619.56,-185 675.11,-203.81 739.35,-215.67 792.61,-223.01"/>
<polygon fill="black" stroke="black" points="792.4,-226.51 802.77,-224.37 793.33,-219.57 792.4,-226.51"/>
<text text-anchor="middle" x="678.06" y="-216.8" font-family="Times,serif" font-size="14.00">dateModified</text>
</g>
<!-- &quot;Metadata describing the v...&quot; -->
<g id="node6" class="node">
<title>&quot;Metadata describing the v...&quot;</title>
<ellipse fill="none" stroke="black" stroke-width="0" cx="904.04" cy="-180" rx="149.47" ry="18"/>
<text text-anchor="middle" x="904.04" y="-176.3" font-family="Times,serif" font-size="14.00">&quot;Metadata describing the v...&quot;</text>
</g>
<!-- _&#45;&gt;&quot;Metadata describing the v...&quot; -->
<g id="edge5" class="edge">
<title>_&#45;&gt;&quot;Metadata describing the v...&quot;</title>
<path fill="none" stroke="black" d="M584.27,-155.03C623.29,-158.09 699.86,-164.08 768.18,-169.44"/>
<polygon fill="black" stroke="black" points="767.95,-172.93 778.19,-170.22 768.5,-165.95 767.95,-172.93"/>
<text text-anchor="middle" x="678.06" y="-169.8" font-family="Times,serif" font-size="14.00">description</text>
</g>
<!-- &quot;application/xml&quot; -->
<g id="node7" class="node">
<title>&quot;application/xml&quot;</title>
<ellipse fill="none" stroke="black" stroke-width="0" cx="904.04" cy="-126" rx="90.98" ry="18"/>
<text text-anchor="middle" x="904.04" y="-122.3" font-family="Times,serif" font-size="14.00">&quot;application/xml&quot;</text>
</g>
<!-- _&#45;&gt;&quot;application/xml&quot; -->
<g id="edge6" class="edge">
<title>_&#45;&gt;&quot;application/xml&quot;</title>
<path fill="none" stroke="black" d="M582.59,-146.4C593.76,-143.64 607.24,-140.68 619.56,-139 680.1,-130.75 748.53,-127.45 802.98,-126.23"/>
<polygon fill="black" stroke="black" points="803.05,-129.73 812.98,-126.02 802.91,-122.73 803.05,-129.73"/>
<text text-anchor="middle" x="678.06" y="-142.8" font-family="Times,serif" font-size="14.00">encodingFormat</text>
</g>
<!-- &quot;https//foo.org/ship01&quot; -->
<g id="node8" class="node">
<title>&quot;https//foo.org/ship01&quot;</title>
<ellipse fill="none" stroke="black" stroke-width="0" cx="904.04" cy="-72" rx="116.18" ry="18"/>
<text text-anchor="middle" x="904.04" y="-68.3" font-family="Times,serif" font-size="14.00">&quot;https//foo.org/ship01&quot;</text>
</g>
<!-- _&#45;&gt;&quot;https//foo.org/ship01&quot; -->
<g id="edge7" class="edge">
<title>_&#45;&gt;&quot;https//foo.org/ship01&quot;</title>
<path fill="none" stroke="black" d="M574.17,-138.23C585.82,-128.26 602.52,-115.74 619.56,-109 669.43,-89.28 727.7,-79.61 778.4,-75.03"/>
<polygon fill="black" stroke="black" points="778.76,-78.51 788.43,-74.18 778.17,-71.54 778.76,-78.51"/>
<text text-anchor="middle" x="678.06" y="-112.8" font-family="Times,serif" font-size="14.00">encodingFormat</text>
</g>
<!-- &quot;external&#45;metadata.xml&quot; -->
<g id="node9" class="node">
<title>&quot;external&#45;metadata.xml&quot;</title>
<ellipse fill="none" stroke="black" stroke-width="0" cx="904.04" cy="-18" rx="124.58" ry="18"/>
<text text-anchor="middle" x="904.04" y="-14.3" font-family="Times,serif" font-size="14.00">&quot;external&#45;metadata.xml&quot;</text>
</g>
<!-- _&#45;&gt;&quot;external&#45;metadata.xml&quot; -->
<g id="edge8" class="edge">
<title>_&#45;&gt;&quot;external&#45;metadata.xml&quot;</title>
<path fill="none" stroke="black" d="M564.81,-135.51C573.67,-114.16 591.73,-78.73 619.56,-61 664.03,-32.67 720.25,-20.42 770.86,-15.8"/>
<polygon fill="black" stroke="black" points="771.23,-19.28 780.91,-14.97 770.65,-12.3 771.23,-19.28"/>
<text text-anchor="middle" x="678.06" y="-64.8" font-family="Times,serif" font-size="14.00">name</text>
</g>
</g>
</svg>