<?xml version="1.0" encoding="UTF-8" standalone="no"?>
<!DOCTYPE svg PUBLIC "-//W3C//DTD SVG 1.1//EN"
 "http://www.w3.org/Graphics/SVG/1.1/DTD/svg11.dtd">
<!-- Generated by graphviz version 2.43.0 (0)
 -->
<!-- Title: %3 Pages: 1 -->
<svg width="1262pt" height="336pt"
 viewBox="0.00 0.00 1261.71 336.00" xmlns="http://www.w3.org/2000/svg" xmlns:xlink="http://www.w3.org/1999/xlink">
<g id="graph0" class="graph" transform="scale(1 1) rotate(0) translate(4 332)">
<title>%3</title>
<polygon fill="white" stroke="transparent" points="-4,4 -4,-332 1257.71,-332 1257.71,4 -4,4"/>
<!-- DefinedTerm -->
<g id="node1" class="node">
<title>DefinedTerm</title>
<ellipse fill="none" stroke="#558855" cx="1127.62" cy="-310" rx="70.39" ry="18"/>
<text text-anchor="middle" x="1127.62" y="-306.3" font-family="Times,serif" font-size="14.00">DefinedTerm</text>
</g>
<!-- purl.org/dc/dcmitype/Image -->
<g id="node2" class="node">
<title>purl.org/dc/dcmitype/Image</title>
<ellipse fill="none" stroke="#558855" cx="674.35" cy="-234" rx="139.98" ry="18"/>
<text text-anchor="middle" x="674.35" y="-230.3" font-family="Times,serif" font-size="14.00">purl.org/dc/dcmitype/Image</text>
</g>
<!-- purl.org/dc/dcmitype/Image&#45;&gt;DefinedTerm -->
<g id="edge1" class="edge">
<title>purl.org/dc/dcmitype/Image&#45;&gt;DefinedTerm</title>
<path fill="none" stroke="black" d="M753.33,-248.91C784.47,-254.74 820.67,-261.37 853.54,-267 922.45,-278.81 1001.37,-291.1 1056.59,-299.5"/>
<polygon fill="black" stroke="black" points="1056.2,-302.99 1066.61,-301.03 1057.25,-296.06 1056.2,-302.99"/>
<text text-anchor="middle" x="918.54" y="-290.8" font-family="Times,serif" font-size="14.00">type</text>
</g>
<!-- &quot;http//purl.org/dc/te...&quot; -->
<g id="node3" class="node">
<title>&quot;http//purl.org/dc/te...&quot;</title>
<ellipse fill="none" stroke="black" stroke-width="0" cx="1127.62" cy="-256" rx="116.98" ry="18"/>
<text text-anchor="middle" x="1127.62" y="-252.3" font-family="Times,serif" font-size="14.00">&quot;http//purl.org/dc/te...&quot;</text>
</g>
<!-- purl.org/dc/dcmitype/Image&#45;&gt;&quot;http//purl.org/dc/te...&quot; -->
<g id="edge2" class="edge">
<title>purl.org/dc/dcmitype/Image&#45;&gt;&quot;http//purl.org/dc/te...&quot;</title>
<path fill="none" stroke="black" d="M805.27,-240.33C868.41,-243.41 943.83,-247.09 1005.73,-250.11"/>
<polygon fill="black" stroke="black" points="1005.78,-253.61 1015.94,-250.6 1006.12,-246.62 1005.78,-253.61"/>
<text text-anchor="middle" x="918.54" y="-251.8" font-family="Times,serif" font-size="14.00">inDefinedTermSet</text>
</g>
<!-- &quot;Image&quot; -->
<g id="node4" class="node">
<title>&quot;Image&quot;</title>
<ellipse fill="none" stroke="black" stroke-width="0" cx="1127.62" cy="-191" rx="48.19" ry="18"/>
<text text-anchor="middle" x="1127.62" y="-187.3" font-family="Times,serif" font-size="14.00">&quot;Image&quot;</text>
</g>
<!-- purl.org/dc/dcmitype/Image&#45;&gt;&quot;Image&quot; -->
<g id="edge3" class="edge">
<title>purl.org/dc/dcmitype/Image&#45;&gt;&quot;Image&quot;</title>
<path fill="none" stroke="black" d="M787.19,-223.34C877.38,-214.75 1000.42,-203.03 1070.9,-196.31"/>
<polygon fill="black" stroke="black" points="1071.28,-199.79 1080.91,-195.36 1070.62,-192.82 1071.28,-199.79"/>
<text text-anchor="middle" x="918.54" y="-219.8" font-family="Times,serif" font-size="14.00">name</text>
</g>
<!-- purl.org/dc/dcmitype/Image&#45;&gt;&quot;Image&quot; -->
<g id="edge4" class="edge">
<title>purl.org/dc/dcmitype/Image&#45;&gt;&quot;Image&quot;</title>
<path fill="none" stroke="black" d="M792.56,-224.38C807.62,-220.27 822.36,-214.65 835.54,-207 846.46,-200.66 842.12,-190.41 853.54,-185 905.75,-160.26 925.77,-183.79 983.54,-185 1011.95,-185.6 1043.53,-186.86 1069.77,-188.07"/>
<polygon fill="black" stroke="black" points="1069.76,-191.57 1079.92,-188.55 1070.09,-184.58 1069.76,-191.57"/>
<text text-anchor="middle" x="918.54" y="-188.8" font-family="Times,serif" font-size="14.00">termCode</text>
</g>
<!-- Map -->
<g id="node5" class="node">
<title>Map</title>
<ellipse fill="none" stroke="#558855" cx="674.35" cy="-180" rx="31.4" ry="18"/>
<text text-anchor="middle" x="674.35" y="-176.3" font-family="Times,serif" font-size="14.00">Map</text>
</g>
<!-- example.org/permanentUrlToThisJsonDoc -->
<g id="node6" class="node">
<title>example.org/permanentUrlToThisJsonDoc</title>
<ellipse fill="none" stroke="black" cx="204.08" cy="-153" rx="204.16" ry="18"/>
<text text-anchor="middle" x="204.08" y="-149.3" font-family="Times,serif" font-size="14.00">example.org/permanentUrlToThisJsonDoc</text>
</g>
<!-- example.org/permanentUrlToThisJsonDoc&#45;&gt;purl.org/dc/dcmitype/Image -->
<g id="edge7" class="edge">
<title>example.org/permanentUrlToThisJsonDoc&#45;&gt;purl.org/dc/dcmitype/Image</title>
<path fill="none" stroke="black" d="M296.05,-169.11C357.38,-179.92 440.11,-194.44 513.16,-207 534.16,-210.61 556.71,-214.44 578.07,-218.05"/>
<polygon fill="black" stroke="black" points="577.68,-221.53 588.12,-219.74 578.84,-214.63 577.68,-221.53"/>
<text text-anchor="middle" x="460.66" y="-205.8" font-family="Times,serif" font-size="14.00">keywords</text>
</g>
<!-- example.org/permanentUrlToThisJsonDoc&#45;&gt;Map -->
<g id="edge5" class="edge">
<title>example.org/permanentUrlToThisJsonDoc&#45;&gt;Map</title>
<path fill="none" stroke="black" d="M375.46,-162.82C468.52,-168.19 576.12,-174.39 633.09,-177.68"/>
<polygon fill="black" stroke="black" points="632.94,-181.18 643.13,-178.26 633.35,-174.19 632.94,-181.18"/>
<text text-anchor="middle" x="460.66" y="-172.8" font-family="Times,serif" font-size="14.00">type</text>
</g>
<!-- &quot;Region X&quot; -->
<g id="node7" class="node">
<title>&quot;Region X&quot;</title>
<ellipse fill="none" stroke="black" stroke-width="0" cx="674.35" cy="-126" rx="61.19" ry="18"/>
<text text-anchor="middle" x="674.35" y="-122.3" font-family="Times,serif" font-size="14.00">&quot;Region X&quot;</text>
</g>
<!-- example.org/permanentUrlToThisJsonDoc&#45;&gt;&quot;Region X&quot; -->
<g id="edge6" class="edge">
<title>example.org/permanentUrlToThisJsonDoc&#45;&gt;&quot;Region X&quot;</title>
<path fill="none" stroke="black" d="M375.46,-143.18C454.44,-138.62 543.9,-133.46 603.99,-130"/>
<polygon fill="black" stroke="black" points="604.34,-133.49 614.12,-129.42 603.93,-126.5 604.34,-133.49"/>
<text text-anchor="middle" x="460.66" y="-142.8" font-family="Times,serif" font-size="14.00">keywords</text>
</g>
<!-- www.wikidata.org/wiki/Q350134 -->
<g id="node8" class="node">
<title>www.wikidata.org/wiki/Q350134</title>
<ellipse fill="none" stroke="#558855" cx="674.35" cy="-72" rx="161.37" ry="18"/>
<text text-anchor="middle" x="674.35" y="-68.3" font-family="Times,serif" font-size="14.00">www.wikidata.org/wiki/Q350134</text>
</g>
<!-- example.org/permanentUrlToThisJsonDoc&#45;&gt;www.wikidata.org/wiki/Q350134 -->
<g id="edge8" class="edge">
<title>example.org/permanentUrlToThisJsonDoc&#45;&gt;www.wikidata.org/wiki/Q350134</title>
<path fill="none" stroke="black" d="M296.05,-136.89C357.38,-126.08 440.11,-111.56 513.16,-99 532.78,-95.63 553.76,-92.06 573.85,-88.67"/>
<polygon fill="black" stroke="black" points="574.67,-92.08 583.95,-86.96 573.5,-85.18 574.67,-92.08"/>
<text text-anchor="middle" x="460.66" y="-116.8" font-family="Times,serif" font-size="14.00">keywords</text>
</g>
<!-- URL -->
<g id="node9" class="node">
<title>URL</title>
<ellipse fill="none" stroke="#558855" cx="1127.62" cy="-126" rx="31.4" ry="18"/>
<text text-anchor="middle" x="1127.62" y="-122.3" font-family="Times,serif" font-size="14.00">URL</text>
</g>
<!-- www.wikidata.org/wiki/Q350134&#45;&gt;URL -->
<g id="edge9" class="edge">
<title>www.wikidata.org/wiki/Q350134&#45;&gt;URL</title>
<path fill="none" stroke="black" d="M784.88,-85.11C882.44,-96.78 1019.82,-113.22 1086.79,-121.23"/>
<polygon fill="black" stroke="black" points="1086.57,-124.73 1096.91,-122.44 1087.4,-117.78 1086.57,-124.73"/>
<text text-anchor="middle" x="918.54" y="-111.8" font-family="Times,serif" font-size="14.00">type</text>
</g>
<!-- &quot;North Atlantic Ocean&quot; -->
<g id="node10" class="node">
<title>&quot;North Atlantic Ocean&quot;</title>
<ellipse fill="none" stroke="black" stroke-width="0" cx="1127.62" cy="-72" rx="117.78" ry="18"/>
<text text-anchor="middle" x="1127.62" y="-68.3" font-family="Times,serif" font-size="14.00">&quot;North Atlantic Ocean&quot;</text>
</g>
<!-- www.wikidata.org/wiki/Q350134&#45;&gt;&quot;North Atlantic Ocean&quot; -->
<g id="edge10" class="edge">
<title>www.wikidata.org/wiki/Q350134&#45;&gt;&quot;North Atlantic Ocean&quot;</title>
<path fill="none" stroke="black" d="M835.72,-72C889.52,-72 948.73,-72 999.61,-72"/>
<polygon fill="black" stroke="black" points="999.67,-75.5 1009.67,-72 999.67,-68.5 999.67,-75.5"/>
<text text-anchor="middle" x="918.54" y="-75.8" font-family="Times,serif" font-size="14.00">name</text>
</g>
<!-- &quot;https//www.wikidata....&quot; -->
<g id="node11" class="node">
<title>&quot;https//www.wikidata....&quot;</title>
<ellipse fill="none" stroke="black" stroke-width="0" cx="1127.62" cy="-18" rx="126.18" ry="18"/>
<text text-anchor="middle" x="1127.62" y="-14.3" font-family="Times,serif" font-size="14.00">&quot;https//www.wikidata....&quot;</text>
</g>
<!-- www.wikidata.org/wiki/Q350134&#45;&gt;&quot;https//www.wikidata....&quot; -->
<g id="edge11" class="edge">
<title>www.wikidata.org/wiki/Q350134&#45;&gt;&quot;https//www.wikidata....&quot;</title>
<path fill="none" stroke="black" d="M784.88,-58.89C856.36,-50.34 949.22,-39.23 1020.1,-30.75"/>
<polygon fill="black" stroke="black" points="1020.88,-34.18 1030.39,-29.52 1020.04,-27.23 1020.88,-34.18"/>
<text text-anchor="middle" x="918.54" y="-52.8" font-family="Times,serif" font-size="14.00">url</text>
</g>
</g>
</svg>