<?xml version="1.0" encoding="UTF-8" standalone="no"?>
<!DOCTYPE svg PUBLIC "-//W3C//DTD SVG 1.1//EN"
 "http://www.w3.org/Graphics/SVG/1.1/DTD/svg11.dtd">
<!-- Generated by graphviz version 2.43.0 (0)
 -->
<!-- Title: %3 Pages: 1 -->
<svg width="1055pt" height="324pt"
 viewBox="0.00 0.00 1055.23 324.00" xmlns="http://www.w3.org/2000/svg" xmlns:xlink="http://www.w3.org/1999/xlink">
<g id="graph0" class="graph" transform="scale(1 1) rotate(0) translate(4 320)">
<title>%3</title>
<polygon fill="white" stroke="transparent" points="-4,4 -4,-320 1051.23,-320 1051.23,4 -4,4"/>
<!-- Person -->
<g id="node1" class="node">
<title>Person</title>
<ellipse fill="none" stroke="#558855" cx="563.41" cy="-227" rx="42.49" ry="18"/>
<text text-anchor="middle" x="563.41" y="-223.3" font-family="Times,serif" font-size="14.00">Person</text>
</g>
<!-- example.org/permanentUrlToThisJsonDoc -->
<g id="node2" class="node">
<title>example.org/permanentUrlToThisJsonDoc</title>
<ellipse fill="none" stroke="black" cx="204.08" cy="-189" rx="204.16" ry="18"/>
<text text-anchor="middle" x="204.08" y="-185.3" font-family="Times,serif" font-size="14.00">example.org/permanentUrlToThisJsonDoc</text>
</g>
<!-- example.org/permanentUrlToThisJsonDoc&#45;&gt;Person -->
<g id="edge1" class="edge">
<title>example.org/permanentUrlToThisJsonDoc&#45;&gt;Person</title>
<path fill="none" stroke="black" d="M335.1,-202.83C396.5,-209.36 466.21,-216.77 512.06,-221.65"/>
<polygon fill="black" stroke="black" points="511.72,-225.13 522.03,-222.71 512.46,-218.17 511.72,-225.13"/>
<text text-anchor="middle" x="464.66" y="-223.8" font-family="Times,serif" font-size="14.00">type</text>
</g>
<!-- _ -->
<g id="node3" class="node">
<title>_</title>
<ellipse fill="none" stroke="#558855" cx="563.41" cy="-162" rx="27" ry="18"/>
<text text-anchor="middle" x="563.41" y="-158.3" font-family="Times,serif" font-size="14.00">_</text>
</g>
<!-- example.org/permanentUrlToThisJsonDoc&#45;&gt;_ -->
<g id="edge2" class="edge">
<title>example.org/permanentUrlToThisJsonDoc&#45;&gt;_</title>
<path fill="none" stroke="black" d="M362.9,-177.66C408.19,-174.33 457.64,-170.6 503.16,-167 510.66,-166.41 518.69,-165.75 526.35,-165.1"/>
<polygon fill="black" stroke="black" points="526.79,-168.58 536.46,-164.25 526.2,-161.6 526.79,-168.58"/>
<text text-anchor="middle" x="464.66" y="-175.8" font-family="Times,serif" font-size="14.00">nationality</text>
</g>
<!-- example.org/permanentUrlToThisJsonDoc&#45;&gt;_ -->
<g id="edge3" class="edge">
<title>example.org/permanentUrlToThisJsonDoc&#45;&gt;_</title>
<path fill="none" stroke="black" d="M264.94,-171.8C325.06,-156.64 420.41,-138.35 503.16,-148 511.52,-148.97 520.41,-150.7 528.7,-152.61"/>
<polygon fill="black" stroke="black" points="527.88,-156.01 538.42,-155 529.54,-149.21 527.88,-156.01"/>
<text text-anchor="middle" x="464.66" y="-151.8" font-family="Times,serif" font-size="14.00">nationality</text>
</g>
<!-- DefinedTerm -->
<g id="node4" class="node">
<title>DefinedTerm</title>
<ellipse fill="none" stroke="#558855" cx="909.44" cy="-292" rx="70.39" ry="18"/>
<text text-anchor="middle" x="909.44" y="-288.3" font-family="Times,serif" font-size="14.00">DefinedTerm</text>
</g>
<!-- _&#45;&gt;DefinedTerm -->
<g id="edge4" class="edge">
<title>_&#45;&gt;DefinedTerm</title>
<path fill="none" stroke="black" d="M582.42,-175.15C590.48,-181.82 599.52,-190.52 605.66,-200 619.39,-221.24 604.16,-237.88 623.66,-254 683.29,-303.3 775.21,-306.81 838.4,-301.92"/>
<polygon fill="black" stroke="black" points="839.02,-305.38 848.68,-301.03 838.41,-298.4 839.02,-305.38"/>
<text text-anchor="middle" x="688.66" y="-304.8" font-family="Times,serif" font-size="14.00">type</text>
</g>
<!-- &quot;UN/LOCODE Code List ...&quot; -->
<g id="node5" class="node">
<title>&quot;UN/LOCODE Code List ...&quot;</title>
<ellipse fill="none" stroke="black" stroke-width="0" cx="909.44" cy="-238" rx="137.58" ry="18"/>
<text text-anchor="middle" x="909.44" y="-234.3" font-family="Times,serif" font-size="14.00">&quot;UN/LOCODE Code List ...&quot;</text>
</g>
<!-- _&#45;&gt;&quot;UN/LOCODE Code List ...&quot; -->
<g id="edge5" class="edge">
<title>_&#45;&gt;&quot;UN/LOCODE Code List ...&quot;</title>
<path fill="none" stroke="black" d="M579.6,-176.87C590.81,-186.88 606.97,-199.42 623.66,-206 666.69,-222.96 716.03,-231.82 761.41,-236.23"/>
<polygon fill="black" stroke="black" points="761.37,-239.74 771.64,-237.15 762,-232.77 761.37,-239.74"/>
<text text-anchor="middle" x="688.66" y="-238.8" font-family="Times,serif" font-size="14.00">inDefinedTermSet</text>
</g>
<!-- &quot;Fiji&quot; -->
<g id="node6" class="node">
<title>&quot;Fiji&quot;</title>
<ellipse fill="none" stroke="black" stroke-width="0" cx="909.44" cy="-183" rx="34.39" ry="18"/>
<text text-anchor="middle" x="909.44" y="-179.3" font-family="Times,serif" font-size="14.00">&quot;Fiji&quot;</text>
</g>
<!-- _&#45;&gt;&quot;Fiji&quot; -->
<g id="edge6" class="edge">
<title>_&#45;&gt;&quot;Fiji&quot;</title>
<path fill="none" stroke="black" d="M588.06,-169.82C598.8,-173 611.74,-176.31 623.66,-178 708.29,-189.98 808.48,-188.06 864.62,-185.55"/>
<polygon fill="black" stroke="black" points="865.09,-189.03 874.91,-185.06 864.76,-182.04 865.09,-189.03"/>
<text text-anchor="middle" x="688.66" y="-190.8" font-family="Times,serif" font-size="14.00">name</text>
</g>
<!-- _&#45;&gt;&quot;Fiji&quot; -->
<g id="edge10" class="edge">
<title>_&#45;&gt;&quot;Fiji&quot;</title>
<path fill="none" stroke="black" d="M590.35,-160.4C600.71,-159.84 612.74,-159.28 623.66,-159 681.42,-157.54 696.05,-154.56 753.66,-159 792.27,-161.98 835.82,-169.07 866.87,-174.77"/>
<polygon fill="black" stroke="black" points="866.42,-178.25 876.89,-176.65 867.7,-171.37 866.42,-178.25"/>
<text text-anchor="middle" x="688.66" y="-162.8" font-family="Times,serif" font-size="14.00">name</text>
</g>
<!-- &quot;FJ&quot; -->
<g id="node7" class="node">
<title>&quot;FJ&quot;</title>
<ellipse fill="none" stroke="black" stroke-width="0" cx="909.44" cy="-126" rx="29.5" ry="18"/>
<text text-anchor="middle" x="909.44" y="-122.3" font-family="Times,serif" font-size="14.00">&quot;FJ&quot;</text>
</g>
<!-- _&#45;&gt;&quot;FJ&quot; -->
<g id="edge7" class="edge">
<title>_&#45;&gt;&quot;FJ&quot;</title>
<path fill="none" stroke="black" d="M585.19,-151.05C596.28,-145.77 610.36,-139.96 623.66,-137 710.09,-117.77 814.86,-120.05 870.08,-123.16"/>
<polygon fill="black" stroke="black" points="869.93,-126.66 880.12,-123.77 870.35,-119.67 869.93,-126.66"/>
<text text-anchor="middle" x="688.66" y="-140.8" font-family="Times,serif" font-size="14.00">termCode</text>
</g>
<!-- &quot;https//unece.org/tra...&quot; -->
<g id="node8" class="node">
<title>&quot;https//unece.org/tra...&quot;</title>
<ellipse fill="none" stroke="black" stroke-width="0" cx="909.44" cy="-72" rx="120.78" ry="18"/>
<text text-anchor="middle" x="909.44" y="-68.3" font-family="Times,serif" font-size="14.00">&quot;https//unece.org/tra...&quot;</text>
</g>
<!-- _&#45;&gt;&quot;https//unece.org/tra...&quot; -->
<g id="edge8" class="edge">
<title>_&#45;&gt;&quot;https//unece.org/tra...&quot;</title>
<path fill="none" stroke="black" d="M575.8,-145.98C586.49,-132.32 603.76,-113.45 623.66,-104 672.01,-81.04 730.01,-71.73 781.02,-68.64"/>
<polygon fill="black" stroke="black" points="781.32,-72.13 791.12,-68.11 780.95,-65.14 781.32,-72.13"/>
<text text-anchor="middle" x="688.66" y="-107.8" font-family="Times,serif" font-size="14.00">url</text>
</g>
<!-- Country -->
<g id="node9" class="node">
<title>Country</title>
<ellipse fill="none" stroke="#558855" cx="909.44" cy="-18" rx="48.19" ry="18"/>
<text text-anchor="middle" x="909.44" y="-14.3" font-family="Times,serif" font-size="14.00">Country</text>
</g>
<!-- _&#45;&gt;Country -->
<g id="edge9" class="edge">
<title>_&#45;&gt;Country</title>
<path fill="none" stroke="black" d="M568.62,-144.24C575.52,-119.34 591.78,-74.69 623.66,-53 692.37,-6.23 792.48,-5.56 853.88,-10.76"/>
<polygon fill="black" stroke="black" points="853.86,-14.28 864.14,-11.72 854.5,-7.31 853.86,-14.28"/>
<text text-anchor="middle" x="688.66" y="-56.8" font-family="Times,serif" font-size="14.00">type</text>
</g>
</g>
</svg>