<?xml version="1.0" encoding="UTF-8" standalone="no"?>
<!DOCTYPE svg PUBLIC "-//W3C//DTD SVG 1.1//EN"
 "http://www.w3.org/Graphics/SVG/1.1/DTD/svg11.dtd">
<!-- Generated by graphviz version 2.43.0 (0)
 -->
<!-- Title: %3 Pages: 1 -->
<svg width="1338pt" height="1027pt"
 viewBox="0.00 0.00 1337.71 1026.79" xmlns="http://www.w3.org/2000/svg" xmlns:xlink="http://www.w3.org/1999/xlink">
<g id="graph0" class="graph" transform="scale(1 1) rotate(0) translate(4 1022.79)">
<title>%3</title>
<polygon fill="white" stroke="transparent" points="-4,4 -4,-1022.79 1333.71,-1022.79 1333.71,4 -4,4"/>
<!-- Course -->
<g id="node1" class="node">
<title>Course</title>
<ellipse fill="none" stroke="#558855" cx="1174.37" cy="-892.79" rx="43.59" ry="18"/>
<text text-anchor="middle" x="1174.37" y="-889.09" font-family="Times,serif" font-size="14.00">Course</text>
</g>
<!-- example.org/id/course/x -->
<g id="node2" class="node">
<title>example.org/id/course/x</title>
<ellipse fill="none" stroke="#558855" cx="717.1" cy="-919.79" rx="122.38" ry="18"/>
<text text-anchor="middle" x="717.1" y="-916.09" font-family="Times,serif" font-size="14.00">example.org/id/course/x</text>
</g>
<!-- example.org/id/course/x&#45;&gt;Course -->
<g id="edge1" class="edge">
<title>example.org/id/course/x&#45;&gt;Course</title>
<path fill="none" stroke="black" d="M830.64,-913.11C923.18,-907.63 1050.17,-900.1 1120.71,-895.91"/>
<polygon fill="black" stroke="black" points="1121.34,-899.38 1131.11,-895.3 1120.92,-892.39 1121.34,-899.38"/>
<text text-anchor="middle" x="947.04" y="-911.59" font-family="Times,serif" font-size="14.00">type</text>
</g>
<!-- &quot;In this course ...&quot; -->
<g id="node3" class="node">
<title>&quot;In this course ...&quot;</title>
<ellipse fill="none" stroke="black" stroke-width="0" cx="1174.37" cy="-1000.79" rx="94.78" ry="18"/>
<text text-anchor="middle" x="1174.37" y="-997.09" font-family="Times,serif" font-size="14.00">&quot;In this course ...&quot;</text>
</g>
<!-- example.org/id/course/x&#45;&gt;&quot;In this course ...&quot; -->
<g id="edge2" class="edge">
<title>example.org/id/course/x&#45;&gt;&quot;In this course ...&quot;</title>
<path fill="none" stroke="black" d="M788.64,-934.48C820.48,-940.97 858.6,-948.52 893.04,-954.79 959.16,-966.82 1034.32,-979.08 1090.16,-987.91"/>
<polygon fill="black" stroke="black" points="1089.93,-991.42 1100.35,-989.52 1091.02,-984.51 1089.93,-991.42"/>
<text text-anchor="middle" x="947.04" y="-976.59" font-family="Times,serif" font-size="14.00">description</text>
</g>
<!-- &quot;URL to the course&quot; -->
<g id="node4" class="node">
<title>&quot;URL to the course&quot;</title>
<ellipse fill="none" stroke="black" stroke-width="0" cx="1174.37" cy="-946.79" rx="103.98" ry="18"/>
<text text-anchor="middle" x="1174.37" y="-943.09" font-family="Times,serif" font-size="14.00">&quot;URL to the course&quot;</text>
</g>
<!-- example.org/id/course/x&#45;&gt;&quot;URL to the course&quot; -->
<g id="edge3" class="edge">
<title>example.org/id/course/x&#45;&gt;&quot;URL to the course&quot;</title>
<path fill="none" stroke="black" d="M830.64,-926.46C902.29,-930.71 994.59,-936.19 1065.35,-940.38"/>
<polygon fill="black" stroke="black" points="1065.44,-943.89 1075.63,-940.99 1065.86,-936.91 1065.44,-943.89"/>
<text text-anchor="middle" x="947.04" y="-939.59" font-family="Times,serif" font-size="14.00">url</text>
</g>
<!-- Person -->
<g id="node5" class="node">
<title>Person</title>
<ellipse fill="none" stroke="#558855" cx="717.1" cy="-761.79" rx="42.49" ry="18"/>
<text text-anchor="middle" x="717.1" y="-758.09" font-family="Times,serif" font-size="14.00">Person</text>
</g>
<!-- example.org/permanentUrlToThisJsonDoc -->
<g id="node6" class="node">
<title>example.org/permanentUrlToThisJsonDoc</title>
<ellipse fill="none" stroke="black" cx="204.08" cy="-524.79" rx="204.16" ry="18"/>
<text text-anchor="middle" x="204.08" y="-521.09" font-family="Times,serif" font-size="14.00">example.org/permanentUrlToThisJsonDoc</text>
</g>
<!-- example.org/permanentUrlToThisJsonDoc&#45;&gt;example.org/id/course/x -->
<g id="edge9" class="edge">
<title>example.org/permanentUrlToThisJsonDoc&#45;&gt;example.org/id/course/x</title>
<path fill="none" stroke="black" d="M220.1,-542.8C254.05,-582.83 340.42,-680.88 426.16,-747.79 506.98,-810.84 612.91,-868.12 671.77,-898.02"/>
<polygon fill="black" stroke="black" points="670.3,-901.19 680.81,-902.58 673.46,-894.95 670.3,-901.19"/>
<text text-anchor="middle" x="483.66" y="-828.59" font-family="Times,serif" font-size="14.00">knowsAbout</text>
</g>
<!-- example.org/permanentUrlToThisJsonDoc&#45;&gt;Person -->
<g id="edge4" class="edge">
<title>example.org/permanentUrlToThisJsonDoc&#45;&gt;Person</title>
<path fill="none" stroke="black" d="M225.38,-542.81C262.8,-575.28 346.16,-644.18 426.16,-686.79 481.63,-716.33 498.41,-718.73 559.16,-734.79 594.46,-744.12 635.11,-751.01 666.19,-755.49"/>
<polygon fill="black" stroke="black" points="665.95,-758.99 676.34,-756.92 666.93,-752.06 665.95,-758.99"/>
<text text-anchor="middle" x="483.66" y="-732.59" font-family="Times,serif" font-size="14.00">type</text>
</g>
<!-- orcid.org/0000&#45;0002&#45;2257&#45;9127 -->
<g id="node7" class="node">
<title>orcid.org/0000&#45;0002&#45;2257&#45;9127</title>
<ellipse fill="none" stroke="#558855" cx="717.1" cy="-707.79" rx="157.87" ry="18"/>
<text text-anchor="middle" x="717.1" y="-704.09" font-family="Times,serif" font-size="14.00">orcid.org/0000&#45;0002&#45;2257&#45;9127</text>
</g>
<!-- example.org/permanentUrlToThisJsonDoc&#45;&gt;orcid.org/0000&#45;0002&#45;2257&#45;9127 -->
<g id="edge5" class="edge">
<title>example.org/permanentUrlToThisJsonDoc&#45;&gt;orcid.org/0000&#45;0002&#45;2257&#45;9127</title>
<path fill="none" stroke="black" d="M236.91,-542.58C279.2,-565.72 356.68,-606.43 426.16,-633.79 483.6,-656.4 499.4,-658.35 559.16,-673.79 581.38,-679.53 605.54,-685.09 628.09,-690"/>
<polygon fill="black" stroke="black" points="627.47,-693.45 637.99,-692.13 628.95,-686.6 627.47,-693.45"/>
<text text-anchor="middle" x="483.66" y="-671.59" font-family="Times,serif" font-size="14.00">identifier</text>
</g>
<!-- &quot;Professor&quot; -->
<g id="node8" class="node">
<title>&quot;Professor&quot;</title>
<ellipse fill="none" stroke="black" stroke-width="0" cx="717.1" cy="-646.79" rx="63.89" ry="18"/>
<text text-anchor="middle" x="717.1" y="-643.09" font-family="Times,serif" font-size="14.00">&quot;Professor&quot;</text>
</g>
<!-- example.org/permanentUrlToThisJsonDoc&#45;&gt;&quot;Professor&quot; -->
<g id="edge6" class="edge">
<title>example.org/permanentUrlToThisJsonDoc&#45;&gt;&quot;Professor&quot;</title>
<path fill="none" stroke="black" d="M261.32,-542.08C330.75,-562.92 452.72,-597.85 559.16,-619.79 589.07,-625.95 622.38,-631.82 650.59,-636.51"/>
<polygon fill="black" stroke="black" points="650.3,-640.01 660.73,-638.18 651.44,-633.1 650.3,-640.01"/>
<text text-anchor="middle" x="483.66" y="-618.59" font-family="Times,serif" font-size="14.00">jobTitle</text>
</g>
<!-- &quot;Invasive species in brack...&quot; -->
<g id="node9" class="node">
<title>&quot;Invasive species in brack...&quot;</title>
<ellipse fill="none" stroke="black" stroke-width="0" cx="717.1" cy="-592.79" rx="144.07" ry="18"/>
<text text-anchor="middle" x="717.1" y="-589.09" font-family="Times,serif" font-size="14.00">&quot;Invasive species in brack...&quot;</text>
</g>
<!-- example.org/permanentUrlToThisJsonDoc&#45;&gt;&quot;Invasive species in brack...&quot; -->
<g id="edge7" class="edge">
<title>example.org/permanentUrlToThisJsonDoc&#45;&gt;&quot;Invasive species in brack...&quot;</title>
<path fill="none" stroke="black" d="M317.54,-539.75C403.9,-551.25 522.42,-567.02 607.74,-578.37"/>
<polygon fill="black" stroke="black" points="607.34,-581.85 617.71,-579.7 608.26,-574.91 607.34,-581.85"/>
<text text-anchor="middle" x="483.66" y="-572.59" font-family="Times,serif" font-size="14.00">knowsAbout</text>
</g>
<!-- &quot;https//www.wikidata.org/w...&quot; -->
<g id="node10" class="node">
<title>&quot;https//www.wikidata.org/w...&quot;</title>
<ellipse fill="none" stroke="black" stroke-width="0" cx="717.1" cy="-538.79" rx="151.37" ry="18"/>
<text text-anchor="middle" x="717.1" y="-535.09" font-family="Times,serif" font-size="14.00">&quot;https//www.wikidata.org/w...&quot;</text>
</g>
<!-- example.org/permanentUrlToThisJsonDoc&#45;&gt;&quot;https//www.wikidata.org/w...&quot; -->
<g id="edge8" class="edge">
<title>example.org/permanentUrlToThisJsonDoc&#45;&gt;&quot;https//www.wikidata.org/w...&quot;</title>
<path fill="none" stroke="black" d="M399.37,-530.11C452.28,-531.56 508.92,-533.11 559.45,-534.5"/>
<polygon fill="black" stroke="black" points="559.38,-538 569.48,-534.77 559.58,-531 559.38,-538"/>
<text text-anchor="middle" x="483.66" y="-537.59" font-family="Times,serif" font-size="14.00">knowsAbout</text>
</g>
<!-- _ -->
<g id="node11" class="node">
<title>_</title>
<ellipse fill="none" stroke="#558855" cx="717.1" cy="-445.79" rx="27" ry="18"/>
<text text-anchor="middle" x="717.1" y="-442.09" font-family="Times,serif" font-size="14.00">_</text>
</g>
<!-- example.org/permanentUrlToThisJsonDoc&#45;&gt;_ -->
<g id="edge10" class="edge">
<title>example.org/permanentUrlToThisJsonDoc&#45;&gt;_</title>
<path fill="none" stroke="black" d="M339.6,-511.26C401.22,-504.32 475.09,-494.97 541.16,-483.79 590.39,-475.46 646.72,-462.62 681.86,-454.21"/>
<polygon fill="black" stroke="black" points="682.71,-457.6 691.61,-451.86 681.07,-450.8 682.71,-457.6"/>
<text text-anchor="middle" x="483.66" y="-503.59" font-family="Times,serif" font-size="14.00">knowsLanguage</text>
</g>
<!-- example.org/permanentUrlToThisJsonDoc&#45;&gt;_ -->
<g id="edge12" class="edge">
<title>example.org/permanentUrlToThisJsonDoc&#45;&gt;_</title>
<path fill="none" stroke="black" d="M257.58,-507.35C301.97,-493.39 367.52,-474.57 426.16,-464.79 516.43,-449.74 624.35,-446.48 679.59,-445.85"/>
<polygon fill="black" stroke="black" points="679.94,-449.35 689.91,-445.76 679.88,-442.35 679.94,-449.35"/>
<text text-anchor="middle" x="483.66" y="-468.59" font-family="Times,serif" font-size="14.00">nationality</text>
</g>
<!-- example.org/permanentUrlToThisJsonDoc&#45;&gt;_ -->
<g id="edge15" class="edge">
<title>example.org/permanentUrlToThisJsonDoc&#45;&gt;_</title>
<path fill="none" stroke="black" d="M236.77,-506.88C278.59,-484.37 355.23,-446.96 426.16,-432.79 516.68,-414.71 626.12,-429.16 681.05,-438.84"/>
<polygon fill="black" stroke="black" points="680.51,-442.3 690.97,-440.65 681.76,-435.42 680.51,-442.3"/>
<text text-anchor="middle" x="483.66" y="-436.59" font-family="Times,serif" font-size="14.00">workLocation</text>
</g>
<!-- &quot;Jane Doe&quot; -->
<g id="node12" class="node">
<title>&quot;Jane Doe&quot;</title>
<ellipse fill="none" stroke="black" stroke-width="0" cx="717.1" cy="-391.79" rx="60.39" ry="18"/>
<text text-anchor="middle" x="717.1" y="-388.09" font-family="Times,serif" font-size="14.00">&quot;Jane Doe&quot;</text>
</g>
<!-- example.org/permanentUrlToThisJsonDoc&#45;&gt;&quot;Jane Doe&quot; -->
<g id="edge11" class="edge">
<title>example.org/permanentUrlToThisJsonDoc&#45;&gt;&quot;Jane Doe&quot;</title>
<path fill="none" stroke="black" d="M229.34,-506.76C268.4,-478.88 348.74,-426.3 426.16,-404.79 500.28,-384.19 589.11,-383.54 648.75,-386.37"/>
<polygon fill="black" stroke="black" points="648.63,-389.86 658.79,-386.89 648.99,-382.87 648.63,-389.86"/>
<text text-anchor="middle" x="483.66" y="-408.59" font-family="Times,serif" font-size="14.00">name</text>
</g>
<!-- &quot;(425) 123&#45;4567&quot; -->
<g id="node13" class="node">
<title>&quot;(425) 123&#45;4567&quot;</title>
<ellipse fill="none" stroke="black" stroke-width="0" cx="717.1" cy="-337.79" rx="90.98" ry="18"/>
<text text-anchor="middle" x="717.1" y="-334.09" font-family="Times,serif" font-size="14.00">&quot;(425) 123&#45;4567&quot;</text>
</g>
<!-- example.org/permanentUrlToThisJsonDoc&#45;&gt;&quot;(425) 123&#45;4567&quot; -->
<g id="edge13" class="edge">
<title>example.org/permanentUrlToThisJsonDoc&#45;&gt;&quot;(425) 123&#45;4567&quot;</title>
<path fill="none" stroke="black" d="M223.21,-506.76C258.66,-472.79 341.14,-399.82 426.16,-367.79 486.81,-344.94 559.33,-337.45 616.68,-335.66"/>
<polygon fill="black" stroke="black" points="616.93,-339.15 626.83,-335.4 616.75,-332.16 616.93,-339.15"/>
<text text-anchor="middle" x="483.66" y="-371.59" font-family="Times,serif" font-size="14.00">telephone</text>
</g>
<!-- &quot;http//www.janedoe.com&quot; -->
<g id="node14" class="node">
<title>&quot;http//www.janedoe.com&quot;</title>
<ellipse fill="none" stroke="black" stroke-width="0" cx="717.1" cy="-283.79" rx="128.08" ry="18"/>
<text text-anchor="middle" x="717.1" y="-280.09" font-family="Times,serif" font-size="14.00">&quot;http//www.janedoe.com&quot;</text>
</g>
<!-- example.org/permanentUrlToThisJsonDoc&#45;&gt;&quot;http//www.janedoe.com&quot; -->
<g id="edge14" class="edge">
<title>example.org/permanentUrlToThisJsonDoc&#45;&gt;&quot;http//www.janedoe.com&quot;</title>
<path fill="none" stroke="black" d="M218.43,-506.64C249.6,-465.83 331.72,-366.91 426.16,-322.79 473.2,-300.82 528.89,-290.17 578.83,-285.32"/>
<polygon fill="black" stroke="black" points="579.42,-288.78 589.07,-284.39 578.79,-281.8 579.42,-288.78"/>
<text text-anchor="middle" x="483.66" y="-326.59" font-family="Times,serif" font-size="14.00">url</text>
</g>
<!-- PropertyValue -->
<g id="node15" class="node">
<title>PropertyValue</title>
<ellipse fill="none" stroke="#558855" cx="1174.37" cy="-676.79" rx="77.19" ry="18"/>
<text text-anchor="middle" x="1174.37" y="-673.09" font-family="Times,serif" font-size="14.00">PropertyValue</text>
</g>
<!-- orcid.org/0000&#45;0002&#45;2257&#45;9127&#45;&gt;PropertyValue -->
<g id="edge16" class="edge">
<title>orcid.org/0000&#45;0002&#45;2257&#45;9127&#45;&gt;PropertyValue</title>
<path fill="none" stroke="black" d="M853.16,-698.59C929.8,-693.37 1023.32,-687.01 1089.46,-682.5"/>
<polygon fill="black" stroke="black" points="1090.09,-685.97 1099.83,-681.8 1089.62,-678.98 1090.09,-685.97"/>
<text text-anchor="middle" x="947.04" y="-698.59" font-family="Times,serif" font-size="14.00">type</text>
</g>
<!-- &quot;Optional description of t...&quot; -->
<g id="node16" class="node">
<title>&quot;Optional description of t...&quot;</title>
<ellipse fill="none" stroke="black" stroke-width="0" cx="1174.37" cy="-838.79" rx="141.88" ry="18"/>
<text text-anchor="middle" x="1174.37" y="-835.09" font-family="Times,serif" font-size="14.00">&quot;Optional description of t...&quot;</text>
</g>
<!-- orcid.org/0000&#45;0002&#45;2257&#45;9127&#45;&gt;&quot;Optional description of t...&quot; -->
<g id="edge17" class="edge">
<title>orcid.org/0000&#45;0002&#45;2257&#45;9127&#45;&gt;&quot;Optional description of t...&quot;</title>
<path fill="none" stroke="black" d="M846.82,-718.25C856.98,-722.47 866.57,-727.89 875.04,-734.79 892.05,-748.66 876.52,-766.32 893.04,-780.79 936.41,-818.8 962.6,-799.92 1019.04,-811.79 1037.51,-815.67 1057.31,-819.44 1076.36,-822.86"/>
<polygon fill="black" stroke="black" points="1075.79,-826.31 1086.24,-824.61 1077.01,-819.42 1075.79,-826.31"/>
<text text-anchor="middle" x="947.04" y="-811.59" font-family="Times,serif" font-size="14.00">description</text>
</g>
<!-- &quot;https//registry.identifie...&quot; -->
<g id="node17" class="node">
<title>&quot;https//registry.identifie...&quot;</title>
<ellipse fill="none" stroke="black" stroke-width="0" cx="1174.37" cy="-784.79" rx="135.38" ry="18"/>
<text text-anchor="middle" x="1174.37" y="-781.09" font-family="Times,serif" font-size="14.00">&quot;https//registry.identifie...&quot;</text>
</g>
<!-- orcid.org/0000&#45;0002&#45;2257&#45;9127&#45;&gt;&quot;https//registry.identifie...&quot; -->
<g id="edge18" class="edge">
<title>orcid.org/0000&#45;0002&#45;2257&#45;9127&#45;&gt;&quot;https//registry.identifie...&quot;</title>
<path fill="none" stroke="black" d="M814.44,-721.99C834.58,-725.62 855.6,-729.91 875.04,-734.79 883.21,-736.84 884.84,-738.8 893.04,-740.79 948.01,-754.17 1010.08,-764.4 1061.81,-771.61"/>
<polygon fill="black" stroke="black" points="1061.63,-775.12 1072.01,-773.01 1062.58,-768.18 1061.63,-775.12"/>
<text text-anchor="middle" x="947.04" y="-765.59" font-family="Times,serif" font-size="14.00">propertyID</text>
</g>
<!-- &quot;https//orcid.org/0000&#45;000...&quot; -->
<g id="node18" class="node">
<title>&quot;https//orcid.org/0000&#45;000...&quot;</title>
<ellipse fill="none" stroke="black" stroke-width="0" cx="1174.37" cy="-730.79" rx="147.57" ry="18"/>
<text text-anchor="middle" x="1174.37" y="-727.09" font-family="Times,serif" font-size="14.00">&quot;https//orcid.org/0000&#45;000...&quot;</text>
</g>
<!-- orcid.org/0000&#45;0002&#45;2257&#45;9127&#45;&gt;&quot;https//orcid.org/0000&#45;000...&quot; -->
<g id="edge19" class="edge">
<title>orcid.org/0000&#45;0002&#45;2257&#45;9127&#45;&gt;&quot;https//orcid.org/0000&#45;000...&quot;</title>
<path fill="none" stroke="black" d="M861.84,-715.05C914.71,-717.72 974.61,-720.75 1027.66,-723.43"/>
<polygon fill="black" stroke="black" points="1027.67,-726.93 1037.83,-723.94 1028.02,-719.94 1027.67,-726.93"/>
<text text-anchor="middle" x="947.04" y="-725.59" font-family="Times,serif" font-size="14.00">url</text>
</g>
<!-- _&#45;&gt;_ -->
<g id="edge32" class="edge">
<title>_&#45;&gt;_</title>
<path fill="none" stroke="black" d="M692.32,-453.03C661.86,-465.48 670.12,-481.79 717.1,-481.79 758.57,-481.79 769.87,-469.08 750.99,-457.54"/>
<polygon fill="black" stroke="black" points="752.39,-454.33 741.87,-453.03 749.29,-460.6 752.39,-454.33"/>
<text text-anchor="middle" x="717.1" y="-485.59" font-family="Times,serif" font-size="14.00">identifier</text>
</g>
<!-- _&#45;&gt;PropertyValue -->
<g id="edge20" class="edge">
<title>_&#45;&gt;PropertyValue</title>
<path fill="none" stroke="black" d="M743.76,-449.01C779.1,-454.88 842.11,-470.76 875.04,-511.79 903.03,-546.67 863.37,-577.32 893.04,-610.79 931.92,-654.66 962.05,-636.04 1019.04,-649.79 1044.71,-655.98 1073.12,-661.36 1098.49,-665.65"/>
<polygon fill="black" stroke="black" points="1097.98,-669.12 1108.42,-667.31 1099.13,-662.21 1097.98,-669.12"/>
<text text-anchor="middle" x="947.04" y="-649.59" font-family="Times,serif" font-size="14.00">type</text>
</g>
<!-- &quot;ISO 3166&#45;1 alpha&#45;2 code&quot; -->
<g id="node19" class="node">
<title>&quot;ISO 3166&#45;1 alpha&#45;2 code&quot;</title>
<ellipse fill="none" stroke="black" stroke-width="0" cx="1174.37" cy="-244.79" rx="133.48" ry="18"/>
<text text-anchor="middle" x="1174.37" y="-241.09" font-family="Times,serif" font-size="14.00">&quot;ISO 3166&#45;1 alpha&#45;2 code&quot;</text>
</g>
<!-- _&#45;&gt;&quot;ISO 3166&#45;1 alpha&#45;2 code&quot; -->
<g id="edge21" class="edge">
<title>_&#45;&gt;&quot;ISO 3166&#45;1 alpha&#45;2 code&quot;</title>
<path fill="none" stroke="black" d="M743.74,-449.72C778.76,-453.49 841.07,-454.2 875.04,-418.79 918.16,-373.83 848.89,-323.74 893.04,-279.79 941.27,-231.77 1019.59,-225.53 1081.21,-229.88"/>
<polygon fill="black" stroke="black" points="1081.08,-233.38 1091.33,-230.7 1081.65,-226.4 1081.08,-233.38"/>
<text text-anchor="middle" x="947.04" y="-283.59" font-family="Times,serif" font-size="14.00">name</text>
</g>
<!-- &quot;ISO 3166&#45;12020&quot; -->
<g id="node20" class="node">
<title>&quot;ISO 3166&#45;12020&quot;</title>
<ellipse fill="none" stroke="black" stroke-width="0" cx="1174.37" cy="-190.79" rx="94.78" ry="18"/>
<text text-anchor="middle" x="1174.37" y="-187.09" font-family="Times,serif" font-size="14.00">&quot;ISO 3166&#45;12020&quot;</text>
</g>
<!-- _&#45;&gt;&quot;ISO 3166&#45;12020&quot; -->
<g id="edge22" class="edge">
<title>_&#45;&gt;&quot;ISO 3166&#45;12020&quot;</title>
<path fill="none" stroke="black" d="M743.65,-449.88C778.86,-453.91 841.71,-455 875.04,-418.79 906.01,-385.14 860.61,-246.03 893.04,-213.79 948.09,-159.05 1042.9,-163.43 1106.84,-174.61"/>
<polygon fill="black" stroke="black" points="1106.35,-178.08 1116.82,-176.46 1107.63,-171.2 1106.35,-178.08"/>
<text text-anchor="middle" x="947.04" y="-217.59" font-family="Times,serif" font-size="14.00">propertyID</text>
</g>
<!-- &quot;https//unece.org/trade/ce...&quot; -->
<g id="node21" class="node">
<title>&quot;https//unece.org/trade/ce...&quot;</title>
<ellipse fill="none" stroke="black" stroke-width="0" cx="1174.37" cy="-136.79" rx="145.67" ry="18"/>
<text text-anchor="middle" x="1174.37" y="-133.09" font-family="Times,serif" font-size="14.00">&quot;https//unece.org/trade/ce...&quot;</text>
</g>
<!-- _&#45;&gt;&quot;https//unece.org/trade/ce...&quot; -->
<g id="edge23" class="edge">
<title>_&#45;&gt;&quot;https//unece.org/trade/ce...&quot;</title>
<path fill="none" stroke="black" d="M743.45,-449.94C778.73,-454.11 841.99,-455.44 875.04,-418.79 915.01,-374.46 850.47,-192.63 893.04,-150.79 914.1,-130.08 978.1,-125.85 1039.64,-127.13"/>
<polygon fill="black" stroke="black" points="1039.8,-130.63 1049.88,-127.39 1039.98,-123.64 1039.8,-130.63"/>
<text text-anchor="middle" x="947.04" y="-154.59" font-family="Times,serif" font-size="14.00">propertyID</text>
</g>
<!-- &quot;FJ&quot; -->
<g id="node22" class="node">
<title>&quot;FJ&quot;</title>
<ellipse fill="none" stroke="black" stroke-width="0" cx="1174.37" cy="-82.79" rx="29.5" ry="18"/>
<text text-anchor="middle" x="1174.37" y="-79.09" font-family="Times,serif" font-size="14.00">&quot;FJ&quot;</text>
</g>
<!-- _&#45;&gt;&quot;FJ&quot; -->
<g id="edge24" class="edge">
<title>_&#45;&gt;&quot;FJ&quot;</title>
<path fill="none" stroke="black" d="M743.5,-449.98C778.83,-454.2 842.16,-455.59 875.04,-418.79 921.01,-367.33 845.09,-158.42 893.04,-108.79 956.76,-42.83 1077.68,-59.59 1137.72,-73.25"/>
<polygon fill="black" stroke="black" points="1136.96,-76.67 1147.5,-75.57 1138.58,-69.86 1136.96,-76.67"/>
<text text-anchor="middle" x="947.04" y="-112.59" font-family="Times,serif" font-size="14.00">value</text>
</g>
<!-- Place -->
<g id="node23" class="node">
<title>Place</title>
<ellipse fill="none" stroke="#558855" cx="1174.37" cy="-28.79" rx="36" ry="18"/>
<text text-anchor="middle" x="1174.37" y="-25.09" font-family="Times,serif" font-size="14.00">Place</text>
</g>
<!-- _&#45;&gt;Place -->
<g id="edge25" class="edge">
<title>_&#45;&gt;Place</title>
<path fill="none" stroke="black" d="M743.55,-450.03C778.94,-454.3 842.34,-455.75 875.04,-418.79 902.67,-387.54 863.62,-73.37 893.04,-43.79 956.2,19.72 1073.14,-0.22 1134.1,-16.53"/>
<polygon fill="black" stroke="black" points="1133.17,-19.9 1143.74,-19.21 1135.04,-13.16 1133.17,-19.9"/>
<text text-anchor="middle" x="947.04" y="-47.59" font-family="Times,serif" font-size="14.00">type</text>
</g>
<!-- &quot;54 Ocean Drive, 23521 Oce...&quot; -->
<g id="node24" class="node">
<title>&quot;54 Ocean Drive, 23521 Oce...&quot;</title>
<ellipse fill="none" stroke="black" stroke-width="0" cx="1174.37" cy="-622.79" rx="155.17" ry="18"/>
<text text-anchor="middle" x="1174.37" y="-619.09" font-family="Times,serif" font-size="14.00">&quot;54 Ocean Drive, 23521 Oce...&quot;</text>
</g>
<!-- _&#45;&gt;&quot;54 Ocean Drive, 23521 Oce...&quot; -->
<g id="edge26" class="edge">
<title>_&#45;&gt;&quot;54 Ocean Drive, 23521 Oce...&quot;</title>
<path fill="none" stroke="black" d="M743.48,-450.21C777.64,-457.39 838.33,-474.72 875.04,-511.79 889.9,-526.8 877.5,-541.47 893.04,-555.79 936.23,-595.62 961.97,-581.81 1019.04,-595.79 1035.27,-599.77 1052.6,-603.39 1069.57,-606.6"/>
<polygon fill="black" stroke="black" points="1069.03,-610.06 1079.5,-608.44 1070.31,-603.18 1069.03,-610.06"/>
<text text-anchor="middle" x="947.04" y="-595.59" font-family="Times,serif" font-size="14.00">address</text>
</g>
<!-- &quot;Place name&quot; -->
<g id="node25" class="node">
<title>&quot;Place name&quot;</title>
<ellipse fill="none" stroke="black" stroke-width="0" cx="1174.37" cy="-568.79" rx="72.59" ry="18"/>
<text text-anchor="middle" x="1174.37" y="-565.09" font-family="Times,serif" font-size="14.00">&quot;Place name&quot;</text>
</g>
<!-- _&#45;&gt;&quot;Place name&quot; -->
<g id="edge27" class="edge">
<title>_&#45;&gt;&quot;Place name&quot;</title>
<path fill="none" stroke="black" d="M740.8,-454.7C773.96,-467.55 837.7,-491.62 893.04,-508.79 948.32,-525.95 962.48,-529.46 1019.04,-541.79 1046.14,-547.7 1076.14,-553.18 1102.42,-557.65"/>
<polygon fill="black" stroke="black" points="1101.86,-561.1 1112.3,-559.3 1103.02,-554.2 1101.86,-561.1"/>
<text text-anchor="middle" x="947.04" y="-540.59" font-family="Times,serif" font-size="14.00">name</text>
</g>
<!-- Language -->
<g id="node26" class="node">
<title>Language</title>
<ellipse fill="none" stroke="#558855" cx="1174.37" cy="-514.79" rx="55.79" ry="18"/>
<text text-anchor="middle" x="1174.37" y="-511.09" font-family="Times,serif" font-size="14.00">Language</text>
</g>
<!-- _&#45;&gt;Language -->
<g id="edge28" class="edge">
<title>_&#45;&gt;Language</title>
<path fill="none" stroke="black" d="M743.58,-449.98C777.62,-455.55 839.83,-465.64 893.04,-473.79 968.67,-485.37 1055.91,-498.02 1112.71,-506.16"/>
<polygon fill="black" stroke="black" points="1112.56,-509.67 1122.95,-507.62 1113.55,-502.74 1112.56,-509.67"/>
<text text-anchor="middle" x="947.04" y="-493.59" font-family="Times,serif" font-size="14.00">type</text>
</g>
<!-- &quot;es&quot; -->
<g id="node27" class="node">
<title>&quot;es&quot;</title>
<ellipse fill="none" stroke="black" stroke-width="0" cx="1174.37" cy="-460.79" rx="29.8" ry="18"/>
<text text-anchor="middle" x="1174.37" y="-457.09" font-family="Times,serif" font-size="14.00">&quot;es&quot;</text>
</g>
<!-- _&#45;&gt;&quot;es&quot; -->
<g id="edge29" class="edge">
<title>_&#45;&gt;&quot;es&quot;</title>
<path fill="none" stroke="black" d="M744.21,-446.65C820.55,-449.16 1043.62,-456.51 1134.33,-459.5"/>
<polygon fill="black" stroke="black" points="1134.36,-463.01 1144.47,-459.84 1134.59,-456.01 1134.36,-463.01"/>
<text text-anchor="middle" x="947.04" y="-458.59" font-family="Times,serif" font-size="14.00">alternateName</text>
</g>
<!-- &quot;Spanish&quot; -->
<g id="node28" class="node">
<title>&quot;Spanish&quot;</title>
<ellipse fill="none" stroke="black" stroke-width="0" cx="1174.37" cy="-406.79" rx="56.59" ry="18"/>
<text text-anchor="middle" x="1174.37" y="-403.09" font-family="Times,serif" font-size="14.00">&quot;Spanish&quot;</text>
</g>
<!-- _&#45;&gt;&quot;Spanish&quot; -->
<g id="edge30" class="edge">
<title>_&#45;&gt;&quot;Spanish&quot;</title>
<path fill="none" stroke="black" d="M744.21,-443.55C814.27,-437.55 1007.91,-420.96 1109.41,-412.27"/>
<polygon fill="black" stroke="black" points="1109.87,-415.74 1119.54,-411.4 1109.27,-408.77 1109.87,-415.74"/>
<text text-anchor="middle" x="947.04" y="-432.59" font-family="Times,serif" font-size="14.00">name</text>
</g>
<!-- Country -->
<g id="node29" class="node">
<title>Country</title>
<ellipse fill="none" stroke="#558855" cx="1174.37" cy="-352.79" rx="48.19" ry="18"/>
<text text-anchor="middle" x="1174.37" y="-349.09" font-family="Times,serif" font-size="14.00">Country</text>
</g>
<!-- _&#45;&gt;Country -->
<g id="edge31" class="edge">
<title>_&#45;&gt;Country</title>
<path fill="none" stroke="black" d="M744.25,-445.84C776.61,-444.9 832.63,-439.99 875.04,-418.79 884.88,-413.87 883.2,-406.72 893.04,-401.79 964.28,-366.05 1057.05,-355.9 1115.93,-353.27"/>
<polygon fill="black" stroke="black" points="1116.3,-356.76 1126.15,-352.88 1116.03,-349.77 1116.3,-356.76"/>
<text text-anchor="middle" x="947.04" y="-405.59" font-family="Times,serif" font-size="14.00">type</text>
</g>
<!-- &quot;Fiji&quot; -->
<g id="node30" class="node">
<title>&quot;Fiji&quot;</title>
<ellipse fill="none" stroke="black" stroke-width="0" cx="1174.37" cy="-298.79" rx="34.39" ry="18"/>
<text text-anchor="middle" x="1174.37" y="-295.09" font-family="Times,serif" font-size="14.00">&quot;Fiji&quot;</text>
</g>
<!-- _&#45;&gt;&quot;Fiji&quot; -->
<g id="edge33" class="edge">
<title>_&#45;&gt;&quot;Fiji&quot;</title>
<path fill="none" stroke="black" d="M743.74,-449.18C778.19,-452.2 839.21,-451.92 875.04,-418.79 898.93,-396.68 869.17,-369.93 893.04,-347.79 958.1,-287.44 1069.86,-287.66 1130.76,-293.15"/>
<polygon fill="black" stroke="black" points="1130.51,-296.65 1140.8,-294.15 1131.2,-289.68 1130.51,-296.65"/>
<text text-anchor="middle" x="947.04" y="-351.59" font-family="Times,serif" font-size="14.00">name</text>
</g>
</g>
</svg>