<?xml version="1.0" encoding="UTF-8" standalone="no"?>
<!DOCTYPE svg PUBLIC "-//W3C//DTD SVG 1.1//EN"
 "http://www.w3.org/Graphics/SVG/1.1/DTD/svg11.dtd">
<!-- Generated by graphviz version 2.43.0 (0)
 -->
<!-- Title: %3 Pages: 1 -->
<svg width="1318pt" height="476pt"
 viewBox="0.00 0.00 1318.01 476.00" xmlns="http://www.w3.org/2000/svg" xmlns:xlink="http://www.w3.org/1999/xlink">
<g id="graph0" class="graph" transform="scale(1 1) rotate(0) translate(4 472)">
<title>%3</title>
<polygon fill="white" stroke="transparent" points="-4,4 -4,-472 1314.01,-472 1314.01,4 -4,4"/>
<!-- CreativeWork -->
<g id="node1" class="node">
<title>CreativeWork</title>
<ellipse fill="none" stroke="#558855" cx="1175.47" cy="-450" rx="74.19" ry="18"/>
<text text-anchor="middle" x="1175.47" y="-446.3" font-family="Times,serif" font-size="14.00">CreativeWork</text>
</g>
<!-- purl.unep.org/sdg/SDGIO_00020173 -->
<g id="node2" class="node">
<title>purl.unep.org/sdg/SDGIO_00020173</title>
<ellipse fill="none" stroke="#558855" cx="708.55" cy="-342" rx="179.27" ry="18"/>
<text text-anchor="middle" x="708.55" y="-338.3" font-family="Times,serif" font-size="14.00">purl.unep.org/sdg/SDGIO_00020173</text>
</g>
<!-- purl.unep.org/sdg/SDGIO_00020173&#45;&gt;CreativeWork -->
<g id="edge1" class="edge">
<title>purl.unep.org/sdg/SDGIO_00020173&#45;&gt;CreativeWork</title>
<path fill="none" stroke="black" d="M769.04,-359.04C807.87,-369.91 859.73,-383.98 905.93,-395 965.54,-409.21 980.9,-410.71 1040.93,-423 1062.74,-427.47 1086.55,-432.3 1107.96,-436.62"/>
<polygon fill="black" stroke="black" points="1107.43,-440.08 1117.93,-438.63 1108.82,-433.22 1107.43,-440.08"/>
<text text-anchor="middle" x="964.43" y="-422.8" font-family="Times,serif" font-size="14.00">type</text>
</g>
<!-- &quot;Number of countries ...&quot; -->
<g id="node3" class="node">
<title>&quot;Number of countries ...&quot;</title>
<ellipse fill="none" stroke="black" stroke-width="0" cx="1175.47" cy="-396" rx="127.28" ry="18"/>
<text text-anchor="middle" x="1175.47" y="-392.3" font-family="Times,serif" font-size="14.00">&quot;Number of countries ...&quot;</text>
</g>
<!-- purl.unep.org/sdg/SDGIO_00020173&#45;&gt;&quot;Number of countries ...&quot; -->
<g id="edge2" class="edge">
<title>purl.unep.org/sdg/SDGIO_00020173&#45;&gt;&quot;Number of countries ...&quot;</title>
<path fill="none" stroke="black" d="M826.57,-355.59C900.17,-364.14 994.47,-375.09 1066.32,-383.44"/>
<polygon fill="black" stroke="black" points="1065.97,-386.92 1076.31,-384.6 1066.78,-379.97 1065.97,-386.92"/>
<text text-anchor="middle" x="964.43" y="-379.8" font-family="Times,serif" font-size="14.00">description</text>
</g>
<!-- &quot;UNSD SDG indicator c...&quot; -->
<g id="node4" class="node">
<title>&quot;UNSD SDG indicator c...&quot;</title>
<ellipse fill="none" stroke="black" stroke-width="0" cx="1175.47" cy="-342" rx="133.78" ry="18"/>
<text text-anchor="middle" x="1175.47" y="-338.3" font-family="Times,serif" font-size="14.00">&quot;UNSD SDG indicator c...&quot;</text>
</g>
<!-- purl.unep.org/sdg/SDGIO_00020173&#45;&gt;&quot;UNSD SDG indicator c...&quot; -->
<g id="edge3" class="edge">
<title>purl.unep.org/sdg/SDGIO_00020173&#45;&gt;&quot;UNSD SDG indicator c...&quot;</title>
<path fill="none" stroke="black" d="M887.97,-342C935.35,-342 985.89,-342 1031.13,-342"/>
<polygon fill="black" stroke="black" points="1031.3,-345.5 1041.3,-342 1031.3,-338.5 1031.3,-345.5"/>
<text text-anchor="middle" x="964.43" y="-345.8" font-family="Times,serif" font-size="14.00">name</text>
</g>
<!-- &quot;http//www.ontobee.or...&quot; -->
<g id="node5" class="node">
<title>&quot;http//www.ontobee.or...&quot;</title>
<ellipse fill="none" stroke="black" stroke-width="0" cx="1175.47" cy="-288" rx="128.08" ry="18"/>
<text text-anchor="middle" x="1175.47" y="-284.3" font-family="Times,serif" font-size="14.00">&quot;http//www.ontobee.or...&quot;</text>
</g>
<!-- purl.unep.org/sdg/SDGIO_00020173&#45;&gt;&quot;http//www.ontobee.or...&quot; -->
<g id="edge4" class="edge">
<title>purl.unep.org/sdg/SDGIO_00020173&#45;&gt;&quot;http//www.ontobee.or...&quot;</title>
<path fill="none" stroke="black" d="M826.57,-328.41C900.17,-319.86 994.47,-308.91 1066.32,-300.56"/>
<polygon fill="black" stroke="black" points="1066.78,-304.03 1076.31,-299.4 1065.97,-297.08 1066.78,-304.03"/>
<text text-anchor="middle" x="964.43" y="-321.8" font-family="Times,serif" font-size="14.00">url</text>
</g>
<!-- example.org/permanentUrlToThisJsonDoc -->
<g id="node6" class="node">
<title>example.org/permanentUrlToThisJsonDoc</title>
<ellipse fill="none" stroke="black" cx="204.08" cy="-215" rx="204.16" ry="18"/>
<text text-anchor="middle" x="204.08" y="-211.3" font-family="Times,serif" font-size="14.00">example.org/permanentUrlToThisJsonDoc</text>
</g>
<!-- example.org/permanentUrlToThisJsonDoc&#45;&gt;CreativeWork -->
<g id="edge5" class="edge">
<title>example.org/permanentUrlToThisJsonDoc&#45;&gt;CreativeWork</title>
<path fill="none" stroke="black" d="M235.68,-232.98C291.87,-265.21 416.14,-332.82 529.16,-369 691.15,-420.85 736.96,-416.65 905.93,-436 967.81,-443.09 1038.12,-446.59 1091.27,-448.32"/>
<polygon fill="black" stroke="black" points="1091.22,-451.82 1101.32,-448.63 1091.44,-444.82 1091.22,-451.82"/>
<text text-anchor="middle" x="708.55" y="-436.8" font-family="Times,serif" font-size="14.00">type</text>
</g>
<!-- example.org/permanentUrlToThisJsonDoc&#45;&gt;purl.unep.org/sdg/SDGIO_00020173 -->
<g id="edge6" class="edge">
<title>example.org/permanentUrlToThisJsonDoc&#45;&gt;purl.unep.org/sdg/SDGIO_00020173</title>
<path fill="none" stroke="black" d="M272.33,-232C365.53,-255.55 533.52,-298.01 631.28,-322.72"/>
<polygon fill="black" stroke="black" points="630.55,-326.15 641.1,-325.21 632.26,-319.36 630.55,-326.15"/>
<text text-anchor="middle" x="468.66" y="-292.8" font-family="Times,serif" font-size="14.00">citation</text>
</g>
<!-- &quot;Description of the r...&quot; -->
<g id="node7" class="node">
<title>&quot;Description of the r...&quot;</title>
<ellipse fill="none" stroke="black" stroke-width="0" cx="708.55" cy="-234" rx="118.08" ry="18"/>
<text text-anchor="middle" x="708.55" y="-230.3" font-family="Times,serif" font-size="14.00">&quot;Description of the r...&quot;</text>
</g>
<!-- example.org/permanentUrlToThisJsonDoc&#45;&gt;&quot;Description of the r...&quot; -->
<g id="edge7" class="edge">
<title>example.org/permanentUrlToThisJsonDoc&#45;&gt;&quot;Description of the r...&quot;</title>
<path fill="none" stroke="black" d="M391.82,-222.06C455.69,-224.48 525.51,-227.12 583.22,-229.3"/>
<polygon fill="black" stroke="black" points="583.35,-232.81 593.48,-229.69 583.62,-225.81 583.35,-232.81"/>
<text text-anchor="middle" x="468.66" y="-229.8" font-family="Times,serif" font-size="14.00">description</text>
</g>
<!-- _ -->
<g id="node8" class="node">
<title>_</title>
<ellipse fill="none" stroke="#558855" cx="708.55" cy="-180" rx="27" ry="18"/>
<text text-anchor="middle" x="708.55" y="-176.3" font-family="Times,serif" font-size="14.00">_</text>
</g>
<!-- example.org/permanentUrlToThisJsonDoc&#45;&gt;_ -->
<g id="edge8" class="edge">
<title>example.org/permanentUrlToThisJsonDoc&#45;&gt;_</title>
<path fill="none" stroke="black" d="M364.76,-203.88C473.14,-196.33 607.87,-186.94 671.31,-182.52"/>
<polygon fill="black" stroke="black" points="671.85,-186 681.58,-181.81 671.36,-179.01 671.85,-186"/>
<text text-anchor="middle" x="468.66" y="-202.8" font-family="Times,serif" font-size="14.00">distribution</text>
</g>
<!-- ror.org/050bms902 -->
<g id="node9" class="node">
<title>ror.org/050bms902</title>
<ellipse fill="none" stroke="#558855" cx="708.55" cy="-99" rx="100.18" ry="18"/>
<text text-anchor="middle" x="708.55" y="-95.3" font-family="Times,serif" font-size="14.00">ror.org/050bms902</text>
</g>
<!-- example.org/permanentUrlToThisJsonDoc&#45;&gt;ror.org/050bms902 -->
<g id="edge9" class="edge">
<title>example.org/permanentUrlToThisJsonDoc&#45;&gt;ror.org/050bms902</title>
<path fill="none" stroke="black" d="M277.88,-198.19C373.76,-176.06 541.3,-137.38 636.37,-115.43"/>
<polygon fill="black" stroke="black" points="637.22,-118.83 646.18,-113.17 635.65,-112.01 637.22,-118.83"/>
<text text-anchor="middle" x="468.66" y="-166.8" font-family="Times,serif" font-size="14.00">maintainer</text>
</g>
<!-- &quot;Name or title of the...&quot; -->
<g id="node10" class="node">
<title>&quot;Name or title of the...&quot;</title>
<ellipse fill="none" stroke="black" stroke-width="0" cx="708.55" cy="-45" rx="120.48" ry="18"/>
<text text-anchor="middle" x="708.55" y="-41.3" font-family="Times,serif" font-size="14.00">&quot;Name or title of the...&quot;</text>
</g>
<!-- example.org/permanentUrlToThisJsonDoc&#45;&gt;&quot;Name or title of the...&quot; -->
<g id="edge10" class="edge">
<title>example.org/permanentUrlToThisJsonDoc&#45;&gt;&quot;Name or title of the...&quot;</title>
<path fill="none" stroke="black" d="M237.58,-197.17C294.75,-166.6 417.85,-104.36 529.16,-72 551.4,-65.54 575.67,-60.55 598.95,-56.74"/>
<polygon fill="black" stroke="black" points="599.53,-60.19 608.86,-55.17 598.43,-53.27 599.53,-60.19"/>
<text text-anchor="middle" x="468.66" y="-110.8" font-family="Times,serif" font-size="14.00">name</text>
</g>
<!-- DataDownload -->
<g id="node13" class="node">
<title>DataDownload</title>
<ellipse fill="none" stroke="#558855" cx="1175.47" cy="-234" rx="78.79" ry="18"/>
<text text-anchor="middle" x="1175.47" y="-230.3" font-family="Times,serif" font-size="14.00">DataDownload</text>
</g>
<!-- _&#45;&gt;DataDownload -->
<g id="edge13" class="edge">
<title>_&#45;&gt;DataDownload</title>
<path fill="none" stroke="black" d="M735.21,-182.98C802.79,-190.83 987.87,-212.33 1095,-224.77"/>
<polygon fill="black" stroke="black" points="1094.78,-228.27 1105.11,-225.94 1095.58,-221.31 1094.78,-228.27"/>
<text text-anchor="middle" x="964.43" y="-217.8" font-family="Times,serif" font-size="14.00">type</text>
</g>
<!-- &quot;https//www.sample&#45;da...&quot; -->
<g id="node14" class="node">
<title>&quot;https//www.sample&#45;da...&quot;</title>
<ellipse fill="none" stroke="black" stroke-width="0" cx="1175.47" cy="-180" rx="131.08" ry="18"/>
<text text-anchor="middle" x="1175.47" y="-176.3" font-family="Times,serif" font-size="14.00">&quot;https//www.sample&#45;da...&quot;</text>
</g>
<!-- _&#45;&gt;&quot;https//www.sample&#45;da...&quot; -->
<g id="edge14" class="edge">
<title>_&#45;&gt;&quot;https//www.sample&#45;da...&quot;</title>
<path fill="none" stroke="black" d="M735.88,-180C792.26,-180 928.15,-180 1033.85,-180"/>
<polygon fill="black" stroke="black" points="1033.98,-183.5 1043.98,-180 1033.98,-176.5 1033.98,-183.5"/>
<text text-anchor="middle" x="964.43" y="-183.8" font-family="Times,serif" font-size="14.00">contentUrl</text>
</g>
<!-- &quot;text/tab&#45;separated&#45;v...&quot; -->
<g id="node15" class="node">
<title>&quot;text/tab&#45;separated&#45;v...&quot;</title>
<ellipse fill="none" stroke="black" stroke-width="0" cx="1175.47" cy="-126" rx="120.78" ry="18"/>
<text text-anchor="middle" x="1175.47" y="-122.3" font-family="Times,serif" font-size="14.00">&quot;text/tab&#45;separated&#45;v...&quot;</text>
</g>
<!-- _&#45;&gt;&quot;text/tab&#45;separated&#45;v...&quot; -->
<g id="edge15" class="edge">
<title>_&#45;&gt;&quot;text/tab&#45;separated&#45;v...&quot;</title>
<path fill="none" stroke="black" d="M735.21,-177.02C797.69,-169.76 960.61,-150.84 1069.5,-138.19"/>
<polygon fill="black" stroke="black" points="1070,-141.66 1079.53,-137.03 1069.19,-134.7 1070,-141.66"/>
<text text-anchor="middle" x="964.43" y="-159.8" font-family="Times,serif" font-size="14.00">encodingFormat</text>
</g>
<!-- Organization -->
<g id="node11" class="node">
<title>Organization</title>
<ellipse fill="none" stroke="#558855" cx="1175.47" cy="-72" rx="70.69" ry="18"/>
<text text-anchor="middle" x="1175.47" y="-68.3" font-family="Times,serif" font-size="14.00">Organization</text>
</g>
<!-- ror.org/050bms902&#45;&gt;Organization -->
<g id="edge11" class="edge">
<title>ror.org/050bms902&#45;&gt;Organization</title>
<path fill="none" stroke="black" d="M803.91,-93.52C889.94,-88.52 1015.56,-81.23 1096.16,-76.55"/>
<polygon fill="black" stroke="black" points="1096.47,-80.04 1106.25,-75.96 1096.06,-73.05 1096.47,-80.04"/>
<text text-anchor="middle" x="964.43" y="-90.8" font-family="Times,serif" font-size="14.00">type</text>
</g>
<!-- &quot;UN Department of Eco...&quot; -->
<g id="node12" class="node">
<title>&quot;UN Department of Eco...&quot;</title>
<ellipse fill="none" stroke="black" stroke-width="0" cx="1175.47" cy="-18" rx="134.58" ry="18"/>
<text text-anchor="middle" x="1175.47" y="-14.3" font-family="Times,serif" font-size="14.00">&quot;UN Department of Eco...&quot;</text>
</g>
<!-- ror.org/050bms902&#45;&gt;&quot;UN Department of Eco...&quot; -->
<g id="edge12" class="edge">
<title>ror.org/050bms902&#45;&gt;&quot;UN Department of Eco...&quot;</title>
<path fill="none" stroke="black" d="M799.96,-91.66C828.61,-87.67 860.06,-81.5 887.93,-72 896.59,-69.05 897.29,-65.01 905.93,-62 952.28,-45.88 1005.23,-35.59 1051.8,-29.07"/>
<polygon fill="black" stroke="black" points="1052.5,-32.5 1061.94,-27.69 1051.56,-25.57 1052.5,-32.5"/>
<text text-anchor="middle" x="964.43" y="-65.8" font-family="Times,serif" font-size="14.00">description</text>
</g>
</g>
</svg>