<?xml version="1.0" encoding="UTF-8" standalone="no"?>
<!DOCTYPE svg PUBLIC "-//W3C//DTD SVG 1.1//EN"
 "http://www.w3.org/Graphics/SVG/1.1/DTD/svg11.dtd">
<!-- Generated by graphviz version 2.43.0 (0)
 -->
<!-- Title: %3 Pages: 1 -->
<svg width="1323pt" height="206pt"
 viewBox="0.00 0.00 1323.20 206.00" xmlns="http://www.w3.org/2000/svg" xmlns:xlink="http://www.w3.org/1999/xlink">
<g id="graph0" class="graph" transform="scale(1 1) rotate(0) translate(4 202)">
<title>%3</title>
<polygon fill="white" stroke="transparent" points="-4,4 -4,-202 1319.2,-202 1319.2,4 -4,4"/>
<!-- CreativeWork -->
<g id="node1" class="node">
<title>CreativeWork</title>
<ellipse fill="none" stroke="#558855" cx="1152.07" cy="-180" rx="74.19" ry="18"/>
<text text-anchor="middle" x="1152.07" y="-176.3" font-family="Times,serif" font-size="14.00">CreativeWork</text>
</g>
<!-- purl.unep.org/sdg/SDGIO_00020173 -->
<g id="node2" class="node">
<title>purl.unep.org/sdg/SDGIO_00020173</title>
<ellipse fill="none" stroke="#558855" cx="692.55" cy="-99" rx="179.27" ry="18"/>
<text text-anchor="middle" x="692.55" y="-95.3" font-family="Times,serif" font-size="14.00">purl.unep.org/sdg/SDGIO_00020173</text>
</g>
<!-- purl.unep.org/sdg/SDGIO_00020173&#45;&gt;CreativeWork -->
<g id="edge1" class="edge">
<title>purl.unep.org/sdg/SDGIO_00020173&#45;&gt;CreativeWork</title>
<path fill="none" stroke="black" d="M778.16,-114.83C837.18,-125.79 917.81,-140.58 988.93,-153 1018.6,-158.18 1051.36,-163.68 1079.63,-168.35"/>
<polygon fill="black" stroke="black" points="1079.38,-171.86 1089.82,-170.04 1080.52,-164.95 1079.38,-171.86"/>
<text text-anchor="middle" x="930.43" y="-151.8" font-family="Times,serif" font-size="14.00">type</text>
</g>
<!-- &quot;Number of countries makin...&quot; -->
<g id="node3" class="node">
<title>&quot;Number of countries makin...&quot;</title>
<ellipse fill="none" stroke="black" stroke-width="0" cx="1152.07" cy="-126" rx="155.17" ry="18"/>
<text text-anchor="middle" x="1152.07" y="-122.3" font-family="Times,serif" font-size="14.00">&quot;Number of countries makin...&quot;</text>
</g>
<!-- purl.unep.org/sdg/SDGIO_00020173&#45;&gt;&quot;Number of countries makin...&quot; -->
<g id="edge2" class="edge">
<title>purl.unep.org/sdg/SDGIO_00020173&#45;&gt;&quot;Number of countries makin...&quot;</title>
<path fill="none" stroke="black" d="M847.49,-108.08C897.74,-111.05 953.41,-114.34 1003.21,-117.27"/>
<polygon fill="black" stroke="black" points="1003.23,-120.78 1013.42,-117.88 1003.64,-113.79 1003.23,-120.78"/>
<text text-anchor="middle" x="930.43" y="-117.8" font-family="Times,serif" font-size="14.00">description</text>
</g>
<!-- &quot;UNSD SDG indicator codeC1...&quot; -->
<g id="node4" class="node">
<title>&quot;UNSD SDG indicator codeC1...&quot;</title>
<ellipse fill="none" stroke="black" stroke-width="0" cx="1152.07" cy="-72" rx="163.27" ry="18"/>
<text text-anchor="middle" x="1152.07" y="-68.3" font-family="Times,serif" font-size="14.00">&quot;UNSD SDG indicator codeC1...&quot;</text>
</g>
<!-- purl.unep.org/sdg/SDGIO_00020173&#45;&gt;&quot;UNSD SDG indicator codeC1...&quot; -->
<g id="edge3" class="edge">
<title>purl.unep.org/sdg/SDGIO_00020173&#45;&gt;&quot;UNSD SDG indicator codeC1...&quot;</title>
<path fill="none" stroke="black" d="M847.49,-89.92C895.82,-87.06 949.16,-83.92 997.47,-81.06"/>
<polygon fill="black" stroke="black" points="997.93,-84.54 1007.7,-80.46 997.51,-77.56 997.93,-84.54"/>
<text text-anchor="middle" x="930.43" y="-90.8" font-family="Times,serif" font-size="14.00">name</text>
</g>
<!-- &quot;http//www.ontobee.org/ont...&quot; -->
<g id="node5" class="node">
<title>&quot;http//www.ontobee.org/ont...&quot;</title>
<ellipse fill="none" stroke="black" stroke-width="0" cx="1152.07" cy="-18" rx="152.97" ry="18"/>
<text text-anchor="middle" x="1152.07" y="-14.3" font-family="Times,serif" font-size="14.00">&quot;http//www.ontobee.org/ont...&quot;</text>
</g>
<!-- purl.unep.org/sdg/SDGIO_00020173&#45;&gt;&quot;http//www.ontobee.org/ont...&quot; -->
<g id="edge4" class="edge">
<title>purl.unep.org/sdg/SDGIO_00020173&#45;&gt;&quot;http//www.ontobee.org/ont...&quot;</title>
<path fill="none" stroke="black" d="M812.54,-85.54C832.57,-81.98 852.99,-77.53 871.93,-72 880.34,-69.55 881.58,-66.62 889.93,-64 932.68,-50.59 944.83,-52.9 988.93,-45 1009.09,-41.39 1030.68,-37.68 1051.33,-34.21"/>
<polygon fill="black" stroke="black" points="1052.09,-37.63 1061.37,-32.53 1050.93,-30.73 1052.09,-37.63"/>
<text text-anchor="middle" x="930.43" y="-67.8" font-family="Times,serif" font-size="14.00">url</text>
</g>
<!-- Organization -->
<g id="node6" class="node">
<title>Organization</title>
<ellipse fill="none" stroke="#558855" cx="692.55" cy="-45" rx="70.69" ry="18"/>
<text text-anchor="middle" x="692.55" y="-41.3" font-family="Times,serif" font-size="14.00">Organization</text>
</g>
<!-- example.org/permanentUrlToThisJsonDoc -->
<g id="node7" class="node">
<title>example.org/permanentUrlToThisJsonDoc</title>
<ellipse fill="none" stroke="black" cx="204.08" cy="-64" rx="204.16" ry="18"/>
<text text-anchor="middle" x="204.08" y="-60.3" font-family="Times,serif" font-size="14.00">example.org/permanentUrlToThisJsonDoc</text>
</g>
<!-- example.org/permanentUrlToThisJsonDoc&#45;&gt;purl.unep.org/sdg/SDGIO_00020173 -->
<g id="edge6" class="edge">
<title>example.org/permanentUrlToThisJsonDoc&#45;&gt;purl.unep.org/sdg/SDGIO_00020173</title>
<path fill="none" stroke="black" d="M362.69,-75.34C418.2,-79.33 480.54,-83.82 535.9,-87.8"/>
<polygon fill="black" stroke="black" points="535.92,-91.31 546.15,-88.54 536.42,-84.33 535.92,-91.31"/>
<text text-anchor="middle" x="460.66" y="-87.8" font-family="Times,serif" font-size="14.00">subjectOf</text>
</g>
<!-- example.org/permanentUrlToThisJsonDoc&#45;&gt;Organization -->
<g id="edge5" class="edge">
<title>example.org/permanentUrlToThisJsonDoc&#45;&gt;Organization</title>
<path fill="none" stroke="black" d="M385.15,-55.69C399.03,-55.1 412.82,-54.53 426.16,-54 488.46,-51.53 558.99,-49.16 611.68,-47.47"/>
<polygon fill="black" stroke="black" points="612.09,-50.96 621.97,-47.14 611.87,-43.97 612.09,-50.96"/>
<text text-anchor="middle" x="460.66" y="-57.8" font-family="Times,serif" font-size="14.00">type</text>
</g>
</g>
</svg>