<?xml version="1.0" encoding="UTF-8" standalone="no"?>
<!DOCTYPE svg PUBLIC "-//W3C//DTD SVG 1.1//EN"
 "http://www.w3.org/Graphics/SVG/1.1/DTD/svg11.dtd">
<!-- Generated by graphviz version 2.43.0 (0)
 -->
<!-- Title: %3 Pages: 1 -->
<svg width="1074pt" height="492pt"
 viewBox="0.00 0.00 1073.53 492.00" xmlns="http://www.w3.org/2000/svg" xmlns:xlink="http://www.w3.org/1999/xlink">
<g id="graph0" class="graph" transform="scale(1 1) rotate(0) translate(4 488)">
<title>%3</title>
<polygon fill="white" stroke="transparent" points="-4,4 -4,-488 1069.53,-488 1069.53,4 -4,4"/>
<!-- Dataset -->
<g id="node1" class="node">
<title>Dataset</title>
<ellipse fill="none" stroke="#558855" cx="620.96" cy="-331" rx="46.59" ry="18"/>
<text text-anchor="middle" x="620.96" y="-327.3" font-family="Times,serif" font-size="14.00">Dataset</text>
</g>
<!-- example.org/permanentUrlToThisJsonDoc -->
<g id="node2" class="node">
<title>example.org/permanentUrlToThisJsonDoc</title>
<ellipse fill="none" stroke="black" cx="204.08" cy="-293" rx="204.16" ry="18"/>
<text text-anchor="middle" x="204.08" y="-289.3" font-family="Times,serif" font-size="14.00">example.org/permanentUrlToThisJsonDoc</text>
</g>
<!-- example.org/permanentUrlToThisJsonDoc&#45;&gt;Dataset -->
<g id="edge1" class="edge">
<title>example.org/permanentUrlToThisJsonDoc&#45;&gt;Dataset</title>
<path fill="none" stroke="black" d="M346.41,-305.94C421.57,-312.83 509.67,-320.9 565.15,-325.98"/>
<polygon fill="black" stroke="black" points="564.84,-329.47 575.12,-326.89 565.48,-322.5 564.84,-329.47"/>
<text text-anchor="middle" x="491.16" y="-327.8" font-family="Times,serif" font-size="14.00">type</text>
</g>
<!-- _ -->
<g id="node3" class="node">
<title>_</title>
<ellipse fill="none" stroke="#558855" cx="620.96" cy="-266" rx="27" ry="18"/>
<text text-anchor="middle" x="620.96" y="-262.3" font-family="Times,serif" font-size="14.00">_</text>
</g>
<!-- example.org/permanentUrlToThisJsonDoc&#45;&gt;_ -->
<g id="edge2" class="edge">
<title>example.org/permanentUrlToThisJsonDoc&#45;&gt;_</title>
<path fill="none" stroke="black" d="M373.87,-282.96C431.69,-279.38 496.77,-275.19 556.16,-271 565.08,-270.37 574.7,-269.64 583.7,-268.94"/>
<polygon fill="black" stroke="black" points="584.2,-272.41 593.89,-268.14 583.65,-265.43 584.2,-272.41"/>
<text text-anchor="middle" x="491.16" y="-282.8" font-family="Times,serif" font-size="14.00">variableMeasured</text>
</g>
<!-- example.org/permanentUrlToThisJsonDoc&#45;&gt;_ -->
<g id="edge3" class="edge">
<title>example.org/permanentUrlToThisJsonDoc&#45;&gt;_</title>
<path fill="none" stroke="black" d="M277.3,-276.14C320.27,-266.99 376.02,-256.61 426.16,-252 483.7,-246.71 498.72,-245.77 556.16,-252 565.85,-253.05 576.22,-254.97 585.73,-257.06"/>
<polygon fill="black" stroke="black" points="585.09,-260.51 595.63,-259.36 586.68,-253.69 585.09,-260.51"/>
<text text-anchor="middle" x="491.16" y="-255.8" font-family="Times,serif" font-size="14.00">variableMeasured</text>
</g>
<!-- PropertyValue -->
<g id="node4" class="node">
<title>PropertyValue</title>
<ellipse fill="none" stroke="#558855" cx="925.14" cy="-453" rx="77.19" ry="18"/>
<text text-anchor="middle" x="925.14" y="-449.3" font-family="Times,serif" font-size="14.00">PropertyValue</text>
</g>
<!-- _&#45;&gt;PropertyValue -->
<g id="edge4" class="edge">
<title>_&#45;&gt;PropertyValue</title>
<path fill="none" stroke="black" d="M641.9,-277.61C651.29,-284.14 661.73,-293.17 667.76,-304 696.12,-354.97 643.33,-393.97 685.76,-434 731.64,-477.3 807.05,-475.89 860.76,-467.59"/>
<polygon fill="black" stroke="black" points="861.57,-471 870.86,-465.91 860.42,-464.1 861.57,-471"/>
<text text-anchor="middle" x="726.26" y="-472.8" font-family="Times,serif" font-size="14.00">type</text>
</g>
<!-- _&#45;&gt;PropertyValue -->
<g id="edge9" class="edge">
<title>_&#45;&gt;PropertyValue</title>
<path fill="none" stroke="black" d="M641.6,-277.78C650.92,-284.35 661.38,-293.37 667.76,-304 688.28,-338.24 658.6,-362.73 685.76,-392 711.21,-419.43 731.57,-402.26 766.76,-415 774.99,-417.98 776.43,-420.29 784.76,-423 806.29,-430.02 830.23,-435.85 852.11,-440.45"/>
<polygon fill="black" stroke="black" points="851.51,-443.9 862.01,-442.48 852.91,-437.04 851.51,-443.9"/>
<text text-anchor="middle" x="726.26" y="-418.8" font-family="Times,serif" font-size="14.00">type</text>
</g>
<!-- &quot;Sea State is the cha...&quot; -->
<g id="node5" class="node">
<title>&quot;Sea State is the cha...&quot;</title>
<ellipse fill="none" stroke="black" stroke-width="0" cx="925.14" cy="-396" rx="120.78" ry="18"/>
<text text-anchor="middle" x="925.14" y="-392.3" font-family="Times,serif" font-size="14.00">&quot;Sea State is the cha...&quot;</text>
</g>
<!-- _&#45;&gt;&quot;Sea State is the cha...&quot; -->
<g id="edge5" class="edge">
<title>_&#45;&gt;&quot;Sea State is the cha...&quot;</title>
<path fill="none" stroke="black" d="M640.72,-278.37C649.81,-285.1 660.34,-294.07 667.76,-304 679.91,-320.27 670.18,-332.96 685.76,-346 706.24,-363.16 764.6,-375.56 818.45,-383.72"/>
<polygon fill="black" stroke="black" points="818.04,-387.2 828.44,-385.19 819.06,-380.27 818.04,-387.2"/>
<text text-anchor="middle" x="726.26" y="-376.8" font-family="Times,serif" font-size="14.00">description</text>
</g>
<!-- &quot;Sea State&quot; -->
<g id="node6" class="node">
<title>&quot;Sea State&quot;</title>
<ellipse fill="none" stroke="black" stroke-width="0" cx="925.14" cy="-342" rx="64.19" ry="18"/>
<text text-anchor="middle" x="925.14" y="-338.3" font-family="Times,serif" font-size="14.00">&quot;Sea State&quot;</text>
</g>
<!-- _&#45;&gt;&quot;Sea State&quot; -->
<g id="edge6" class="edge">
<title>_&#45;&gt;&quot;Sea State&quot;</title>
<path fill="none" stroke="black" d="M638.75,-279.64C651.03,-288.88 668.5,-300.53 685.76,-307 738.96,-326.94 802.83,-335.57 851.05,-339.28"/>
<polygon fill="black" stroke="black" points="850.87,-342.78 861.1,-340 851.37,-335.8 850.87,-342.78"/>
<text text-anchor="middle" x="726.26" y="-330.8" font-family="Times,serif" font-size="14.00">name</text>
</g>
<!-- &quot;http//purl.obolibrar...&quot; -->
<g id="node7" class="node">
<title>&quot;http//purl.obolibrar...&quot;</title>
<ellipse fill="none" stroke="black" stroke-width="0" cx="925.14" cy="-288" rx="116.98" ry="18"/>
<text text-anchor="middle" x="925.14" y="-284.3" font-family="Times,serif" font-size="14.00">&quot;http//purl.obolibrar...&quot;</text>
</g>
<!-- _&#45;&gt;&quot;http//purl.obolibrar...&quot; -->
<g id="edge7" class="edge">
<title>_&#45;&gt;&quot;http//purl.obolibrar...&quot;</title>
<path fill="none" stroke="black" d="M645.95,-273.35C657.81,-276.64 672.4,-280.18 685.76,-282 722.22,-286.97 762.1,-289.21 798.64,-290.02"/>
<polygon fill="black" stroke="black" points="798.78,-293.52 808.85,-290.21 798.91,-286.52 798.78,-293.52"/>
<text text-anchor="middle" x="726.26" y="-291.8" font-family="Times,serif" font-size="14.00">propertyID</text>
</g>
<!-- _&#45;&gt;&quot;http//purl.obolibrar...&quot; -->
<g id="edge12" class="edge">
<title>_&#45;&gt;&quot;http//purl.obolibrar...&quot;</title>
<path fill="none" stroke="black" d="M648.02,-264.5C659.58,-263.9 673.34,-263.29 685.76,-263 721.75,-262.15 730.87,-260.17 766.76,-263 791.01,-264.91 817.17,-268.46 841.07,-272.3"/>
<polygon fill="black" stroke="black" points="840.73,-275.79 851.16,-273.96 841.86,-268.88 840.73,-275.79"/>
<text text-anchor="middle" x="726.26" y="-266.8" font-family="Times,serif" font-size="14.00">propertyID</text>
</g>
<!-- &quot;https//gcmd.earthdat...&quot; -->
<g id="node8" class="node">
<title>&quot;https//gcmd.earthdat...&quot;</title>
<ellipse fill="none" stroke="black" stroke-width="0" cx="925.14" cy="-234" rx="126.98" ry="18"/>
<text text-anchor="middle" x="925.14" y="-230.3" font-family="Times,serif" font-size="14.00">&quot;https//gcmd.earthdat...&quot;</text>
</g>
<!-- _&#45;&gt;&quot;https//gcmd.earthdat...&quot; -->
<g id="edge8" class="edge">
<title>_&#45;&gt;&quot;https//gcmd.earthdat...&quot;</title>
<path fill="none" stroke="black" d="M643.58,-255.85C655.7,-250.68 671.25,-244.89 685.76,-242 719.39,-235.3 756.22,-232.09 790.64,-230.83"/>
<polygon fill="black" stroke="black" points="790.88,-234.32 800.76,-230.51 790.66,-227.33 790.88,-234.32"/>
<text text-anchor="middle" x="726.26" y="-245.8" font-family="Times,serif" font-size="14.00">propertyID</text>
</g>
<!-- &quot;The 2&#45;dimensional ho...&quot; -->
<g id="node9" class="node">
<title>&quot;The 2&#45;dimensional ho...&quot;</title>
<ellipse fill="none" stroke="black" stroke-width="0" cx="925.14" cy="-180" rx="127.28" ry="18"/>
<text text-anchor="middle" x="925.14" y="-176.3" font-family="Times,serif" font-size="14.00">&quot;The 2&#45;dimensional ho...&quot;</text>
</g>
<!-- _&#45;&gt;&quot;The 2&#45;dimensional ho...&quot; -->
<g id="edge10" class="edge">
<title>_&#45;&gt;&quot;The 2&#45;dimensional ho...&quot;</title>
<path fill="none" stroke="black" d="M636.1,-250.57C648.09,-238.54 666.38,-222.48 685.76,-214 718.66,-199.59 756.33,-191.02 791.86,-186"/>
<polygon fill="black" stroke="black" points="792.37,-189.46 801.82,-184.68 791.45,-182.52 792.37,-189.46"/>
<text text-anchor="middle" x="726.26" y="-217.8" font-family="Times,serif" font-size="14.00">description</text>
</g>
<!-- &quot;Ocean Surface Stress&quot; -->
<g id="node10" class="node">
<title>&quot;Ocean Surface Stress&quot;</title>
<ellipse fill="none" stroke="black" stroke-width="0" cx="925.14" cy="-126" rx="119.68" ry="18"/>
<text text-anchor="middle" x="925.14" y="-122.3" font-family="Times,serif" font-size="14.00">&quot;Ocean Surface Stress&quot;</text>
</g>
<!-- _&#45;&gt;&quot;Ocean Surface Stress&quot; -->
<g id="edge11" class="edge">
<title>_&#45;&gt;&quot;Ocean Surface Stress&quot;</title>
<path fill="none" stroke="black" d="M628.99,-248.53C638.52,-227.18 657.67,-191.58 685.76,-173 719.02,-150.99 760.23,-138.83 798.98,-132.24"/>
<polygon fill="black" stroke="black" points="799.98,-135.63 809.3,-130.61 798.88,-128.72 799.98,-135.63"/>
<text text-anchor="middle" x="726.26" y="-176.8" font-family="Times,serif" font-size="14.00">name</text>
</g>
<!-- &quot;http//qudt.org/vocab...&quot; -->
<g id="node11" class="node">
<title>&quot;http//qudt.org/vocab...&quot;</title>
<ellipse fill="none" stroke="black" stroke-width="0" cx="925.14" cy="-72" rx="123.48" ry="18"/>
<text text-anchor="middle" x="925.14" y="-68.3" font-family="Times,serif" font-size="14.00">&quot;http//qudt.org/vocab...&quot;</text>
</g>
<!-- _&#45;&gt;&quot;http//qudt.org/vocab...&quot; -->
<g id="edge13" class="edge">
<title>_&#45;&gt;&quot;http//qudt.org/vocab...&quot;</title>
<path fill="none" stroke="black" d="M624.61,-247.69C630.12,-216.63 645.8,-153.81 685.76,-121 715.73,-96.39 754.86,-83.12 792.73,-76.24"/>
<polygon fill="black" stroke="black" points="793.56,-79.65 802.84,-74.54 792.4,-72.74 793.56,-79.65"/>
<text text-anchor="middle" x="726.26" y="-124.8" font-family="Times,serif" font-size="14.00">unitCode</text>
</g>
<!-- &quot;2.000000000000000E&#45;0...&quot; -->
<g id="node12" class="node">
<title>&quot;2.000000000000000E&#45;0...&quot;</title>
<ellipse fill="none" stroke="black" stroke-width="0" cx="925.14" cy="-18" rx="140.28" ry="18"/>
<text text-anchor="middle" x="925.14" y="-14.3" font-family="Times,serif" font-size="14.00">&quot;2.000000000000000E&#45;0...&quot;</text>
</g>
<!-- _&#45;&gt;&quot;2.000000000000000E&#45;0...&quot; -->
<g id="edge14" class="edge">
<title>_&#45;&gt;&quot;2.000000000000000E&#45;0...&quot;</title>
<path fill="none" stroke="black" d="M621.98,-247.78C623.06,-208.13 631.53,-113.66 685.76,-65 710.58,-42.72 742.81,-29.72 775.51,-22.39"/>
<polygon fill="black" stroke="black" points="776.57,-25.75 785.66,-20.3 775.16,-18.89 776.57,-25.75"/>
<text text-anchor="middle" x="726.26" y="-68.8" font-family="Times,serif" font-size="14.00">value</text>
</g>
</g>
</svg>