<?xml version="1.0" encoding="UTF-8" standalone="no"?>
<!DOCTYPE svg PUBLIC "-//W3C//DTD SVG 1.1//EN"
 "http://www.w3.org/Graphics/SVG/1.1/DTD/svg11.dtd">
<!-- Generated by graphviz version 2.43.0 (0)
 -->
<!-- Title: %3 Pages: 1 -->
<svg width="1376pt" height="1127pt"
 viewBox="0.00 0.00 1376.01 1127.00" xmlns="http://www.w3.org/2000/svg" xmlns:xlink="http://www.w3.org/1999/xlink">
<g id="graph0" class="graph" transform="scale(1 1) rotate(0) translate(4 1123)">
<title>%3</title>
<polygon fill="white" stroke="transparent" points="-4,4 -4,-1123 1372.01,-1123 1372.01,4 -4,4"/>
<!-- CreativeWork -->
<g id="node1" class="node">
<title>CreativeWork</title>
<ellipse fill="none" stroke="#558855" cx="1233.47" cy="-882" rx="74.19" ry="18"/>
<text text-anchor="middle" x="1233.47" y="-878.3" font-family="Times,serif" font-size="14.00">CreativeWork</text>
</g>
<!-- purl.unep.org/sdg/SDGIO_00020173 -->
<g id="node2" class="node">
<title>purl.unep.org/sdg/SDGIO_00020173</title>
<ellipse fill="none" stroke="#558855" cx="770.55" cy="-995" rx="179.27" ry="18"/>
<text text-anchor="middle" x="770.55" y="-991.3" font-family="Times,serif" font-size="14.00">purl.unep.org/sdg/SDGIO_00020173</text>
</g>
<!-- purl.unep.org/sdg/SDGIO_00020173&#45;&gt;CreativeWork -->
<g id="edge1" class="edge">
<title>purl.unep.org/sdg/SDGIO_00020173&#45;&gt;CreativeWork</title>
<path fill="none" stroke="black" d="M903.04,-982.86C960.34,-973.44 1026.66,-956.71 1080.93,-927 1090.86,-921.57 1088.96,-914.35 1098.93,-909 1115.63,-900.04 1134.95,-894.05 1153.62,-890.04"/>
<polygon fill="black" stroke="black" points="1154.47,-893.44 1163.6,-888.06 1153.11,-886.57 1154.47,-893.44"/>
<text text-anchor="middle" x="1024.43" y="-972.8" font-family="Times,serif" font-size="14.00">type</text>
</g>
<!-- &quot;Number of countries ...&quot; -->
<g id="node3" class="node">
<title>&quot;Number of countries ...&quot;</title>
<ellipse fill="none" stroke="black" stroke-width="0" cx="1233.47" cy="-1101" rx="127.28" ry="18"/>
<text text-anchor="middle" x="1233.47" y="-1097.3" font-family="Times,serif" font-size="14.00">&quot;Number of countries ...&quot;</text>
</g>
<!-- purl.unep.org/sdg/SDGIO_00020173&#45;&gt;&quot;Number of countries ...&quot; -->
<g id="edge2" class="edge">
<title>purl.unep.org/sdg/SDGIO_00020173&#45;&gt;&quot;Number of countries ...&quot;</title>
<path fill="none" stroke="black" d="M831.93,-1011.92C870.66,-1022.54 922.1,-1036.22 967.93,-1047 1025.8,-1060.61 1040.69,-1062.11 1098.93,-1074 1115.15,-1077.31 1132.48,-1080.83 1149.1,-1084.19"/>
<polygon fill="black" stroke="black" points="1148.85,-1087.71 1159.34,-1086.27 1150.23,-1080.85 1148.85,-1087.71"/>
<text text-anchor="middle" x="1024.43" y="-1073.8" font-family="Times,serif" font-size="14.00">description</text>
</g>
<!-- &quot;UNSD SDG indicator c...&quot; -->
<g id="node4" class="node">
<title>&quot;UNSD SDG indicator c...&quot;</title>
<ellipse fill="none" stroke="black" stroke-width="0" cx="1233.47" cy="-1047" rx="133.78" ry="18"/>
<text text-anchor="middle" x="1233.47" y="-1043.3" font-family="Times,serif" font-size="14.00">&quot;UNSD SDG indicator c...&quot;</text>
</g>
<!-- purl.unep.org/sdg/SDGIO_00020173&#45;&gt;&quot;UNSD SDG indicator c...&quot; -->
<g id="edge3" class="edge">
<title>purl.unep.org/sdg/SDGIO_00020173&#45;&gt;&quot;UNSD SDG indicator c...&quot;</title>
<path fill="none" stroke="black" d="M890.55,-1008.43C961.35,-1016.41 1050.64,-1026.49 1120.22,-1034.34"/>
<polygon fill="black" stroke="black" points="1120.01,-1037.83 1130.34,-1035.48 1120.8,-1030.88 1120.01,-1037.83"/>
<text text-anchor="middle" x="1024.43" y="-1031.8" font-family="Times,serif" font-size="14.00">name</text>
</g>
<!-- &quot;http//www.ontobee.or...&quot; -->
<g id="node5" class="node">
<title>&quot;http//www.ontobee.or...&quot;</title>
<ellipse fill="none" stroke="black" stroke-width="0" cx="1233.47" cy="-993" rx="128.08" ry="18"/>
<text text-anchor="middle" x="1233.47" y="-989.3" font-family="Times,serif" font-size="14.00">&quot;http//www.ontobee.or...&quot;</text>
</g>
<!-- purl.unep.org/sdg/SDGIO_00020173&#45;&gt;&quot;http//www.ontobee.or...&quot; -->
<g id="edge4" class="edge">
<title>purl.unep.org/sdg/SDGIO_00020173&#45;&gt;&quot;http//www.ontobee.or...&quot;</title>
<path fill="none" stroke="black" d="M950.08,-994.23C998.22,-994.02 1049.54,-993.79 1095.05,-993.6"/>
<polygon fill="black" stroke="black" points="1095.29,-997.1 1105.27,-993.55 1095.26,-990.1 1095.29,-997.1"/>
<text text-anchor="middle" x="1024.43" y="-997.8" font-family="Times,serif" font-size="14.00">url</text>
</g>
<!-- dx.doi.org/10.1038/sdata.2016.18 -->
<g id="node6" class="node">
<title>dx.doi.org/10.1038/sdata.2016.18</title>
<ellipse fill="none" stroke="#558855" cx="770.55" cy="-843" rx="167.87" ry="18"/>
<text text-anchor="middle" x="770.55" y="-839.3" font-family="Times,serif" font-size="14.00">dx.doi.org/10.1038/sdata.2016.18</text>
</g>
<!-- dx.doi.org/10.1038/sdata.2016.18&#45;&gt;CreativeWork -->
<g id="edge5" class="edge">
<title>dx.doi.org/10.1038/sdata.2016.18&#45;&gt;CreativeWork</title>
<path fill="none" stroke="black" d="M902.7,-854.1C983.32,-860.92 1083.99,-869.44 1152.76,-875.26"/>
<polygon fill="black" stroke="black" points="1152.83,-878.77 1163.09,-876.13 1153.42,-871.8 1152.83,-878.77"/>
<text text-anchor="middle" x="1024.43" y="-871.8" font-family="Times,serif" font-size="14.00">type</text>
</g>
<!-- &quot;FAIR Principles defi...&quot; -->
<g id="node7" class="node">
<title>&quot;FAIR Principles defi...&quot;</title>
<ellipse fill="none" stroke="black" stroke-width="0" cx="1233.47" cy="-828" rx="119.68" ry="18"/>
<text text-anchor="middle" x="1233.47" y="-824.3" font-family="Times,serif" font-size="14.00">&quot;FAIR Principles defi...&quot;</text>
</g>
<!-- dx.doi.org/10.1038/sdata.2016.18&#45;&gt;&quot;FAIR Principles defi...&quot; -->
<g id="edge6" class="edge">
<title>dx.doi.org/10.1038/sdata.2016.18&#45;&gt;&quot;FAIR Principles defi...&quot;</title>
<path fill="none" stroke="black" d="M931.14,-837.81C988.32,-835.95 1051.95,-833.87 1105.95,-832.12"/>
<polygon fill="black" stroke="black" points="1106.38,-835.61 1116.26,-831.78 1106.15,-828.61 1106.38,-835.61"/>
<text text-anchor="middle" x="1024.43" y="-839.8" font-family="Times,serif" font-size="14.00">description</text>
</g>
<!-- &quot;FAIR data principles&quot; -->
<g id="node8" class="node">
<title>&quot;FAIR data principles&quot;</title>
<ellipse fill="none" stroke="black" stroke-width="0" cx="1233.47" cy="-774" rx="113.98" ry="18"/>
<text text-anchor="middle" x="1233.47" y="-770.3" font-family="Times,serif" font-size="14.00">&quot;FAIR data principles&quot;</text>
</g>
<!-- dx.doi.org/10.1038/sdata.2016.18&#45;&gt;&quot;FAIR data principles&quot; -->
<g id="edge7" class="edge">
<title>dx.doi.org/10.1038/sdata.2016.18&#45;&gt;&quot;FAIR data principles&quot;</title>
<path fill="none" stroke="black" d="M806.25,-825.28C844.64,-806.75 908.89,-778.89 967.93,-768 1021.93,-758.04 1083.16,-758.69 1133.11,-762.21"/>
<polygon fill="black" stroke="black" points="1133.03,-765.71 1143.27,-762.98 1133.56,-758.73 1133.03,-765.71"/>
<text text-anchor="middle" x="1024.43" y="-771.8" font-family="Times,serif" font-size="14.00">name</text>
</g>
<!-- &quot;https//www.nature.co...&quot; -->
<g id="node9" class="node">
<title>&quot;https//www.nature.co...&quot;</title>
<ellipse fill="none" stroke="black" stroke-width="0" cx="1233.47" cy="-936" rx="128.08" ry="18"/>
<text text-anchor="middle" x="1233.47" y="-932.3" font-family="Times,serif" font-size="14.00">&quot;https//www.nature.co...&quot;</text>
</g>
<!-- dx.doi.org/10.1038/sdata.2016.18&#45;&gt;&quot;https//www.nature.co...&quot; -->
<g id="edge8" class="edge">
<title>dx.doi.org/10.1038/sdata.2016.18&#45;&gt;&quot;https//www.nature.co...&quot;</title>
<path fill="none" stroke="black" d="M841.85,-859.42C879.23,-867.98 926,-878.42 967.93,-887 1025.85,-898.85 1091.16,-910.96 1142.39,-920.17"/>
<polygon fill="black" stroke="black" points="1141.98,-923.66 1152.44,-921.98 1143.22,-916.77 1141.98,-923.66"/>
<text text-anchor="middle" x="1024.43" y="-911.8" font-family="Times,serif" font-size="14.00">url</text>
</g>
<!-- Organization -->
<g id="node10" class="node">
<title>Organization</title>
<ellipse fill="none" stroke="#558855" cx="1233.47" cy="-720" rx="70.69" ry="18"/>
<text text-anchor="middle" x="1233.47" y="-716.3" font-family="Times,serif" font-size="14.00">Organization</text>
</g>
<!-- example.org/permanentUrlToThisJsonDoc -->
<g id="node11" class="node">
<title>example.org/permanentUrlToThisJsonDoc</title>
<ellipse fill="none" stroke="black" cx="204.08" cy="-353" rx="204.16" ry="18"/>
<text text-anchor="middle" x="204.08" y="-349.3" font-family="Times,serif" font-size="14.00">example.org/permanentUrlToThisJsonDoc</text>
</g>
<!-- example.org/permanentUrlToThisJsonDoc&#45;&gt;purl.unep.org/sdg/SDGIO_00020173 -->
<g id="edge18" class="edge">
<title>example.org/permanentUrlToThisJsonDoc&#45;&gt;purl.unep.org/sdg/SDGIO_00020173</title>
<path fill="none" stroke="black" d="M209.07,-371.22C224.8,-439.29 288.57,-681.97 426.16,-823 502.7,-901.45 622.51,-950.06 698.48,-974.82"/>
<polygon fill="black" stroke="black" points="697.85,-978.29 708.44,-978.01 699.98,-971.62 697.85,-978.29"/>
<text text-anchor="middle" x="499.66" y="-926.8" font-family="Times,serif" font-size="14.00">subjectOf</text>
</g>
<!-- example.org/permanentUrlToThisJsonDoc&#45;&gt;dx.doi.org/10.1038/sdata.2016.18 -->
<g id="edge16" class="edge">
<title>example.org/permanentUrlToThisJsonDoc&#45;&gt;dx.doi.org/10.1038/sdata.2016.18</title>
<path fill="none" stroke="black" d="M210.41,-371.27C229.15,-432.31 297.92,-631.1 426.16,-734 490.46,-785.59 579.57,-812.95 650.9,-827.36"/>
<polygon fill="black" stroke="black" points="650.36,-830.82 660.85,-829.3 651.7,-823.95 650.36,-830.82"/>
<text text-anchor="middle" x="499.66" y="-807.8" font-family="Times,serif" font-size="14.00">publishingPrinciples</text>
</g>
<!-- example.org/permanentUrlToThisJsonDoc&#45;&gt;Organization -->
<g id="edge9" class="edge">
<title>example.org/permanentUrlToThisJsonDoc&#45;&gt;Organization</title>
<path fill="none" stroke="black" d="M225.35,-371.08C262.72,-403.64 346,-472.69 426.16,-515 651.95,-634.18 717.5,-656.3 967.93,-706 1029.04,-718.13 1099.56,-721.34 1152.41,-721.68"/>
<polygon fill="black" stroke="black" points="1152.72,-725.18 1162.73,-721.71 1152.74,-718.18 1152.72,-725.18"/>
<text text-anchor="middle" x="770.55" y="-704.8" font-family="Times,serif" font-size="14.00">type</text>
</g>
<!-- _ -->
<g id="node12" class="node">
<title>_</title>
<ellipse fill="none" stroke="#558855" cx="770.55" cy="-504" rx="27" ry="18"/>
<text text-anchor="middle" x="770.55" y="-500.3" font-family="Times,serif" font-size="14.00">_</text>
</g>
<!-- example.org/permanentUrlToThisJsonDoc&#45;&gt;_ -->
<g id="edge10" class="edge">
<title>example.org/permanentUrlToThisJsonDoc&#45;&gt;_</title>
<path fill="none" stroke="black" d="M269.01,-370.1C388.8,-402.15 643.25,-470.21 735.36,-494.85"/>
<polygon fill="black" stroke="black" points="734.7,-498.3 745.27,-497.51 736.51,-491.54 734.7,-498.3"/>
<text text-anchor="middle" x="499.66" y="-453.8" font-family="Times,serif" font-size="14.00">address</text>
</g>
<!-- example.org/permanentUrlToThisJsonDoc&#45;&gt;_ -->
<g id="edge14" class="edge">
<title>example.org/permanentUrlToThisJsonDoc&#45;&gt;_</title>
<path fill="none" stroke="black" d="M231.22,-370.99C271.19,-397.49 350.83,-446.32 426.16,-469 534.38,-501.57 669.51,-505.15 733.17,-504.77"/>
<polygon fill="black" stroke="black" points="733.51,-508.27 743.48,-504.67 733.45,-501.27 733.51,-508.27"/>
<text text-anchor="middle" x="499.66" y="-499.8" font-family="Times,serif" font-size="14.00">member</text>
</g>
<!-- &quot;Description of org ....&quot; -->
<g id="node13" class="node">
<title>&quot;Description of org ....&quot;</title>
<ellipse fill="none" stroke="black" stroke-width="0" cx="770.55" cy="-299" rx="118.08" ry="18"/>
<text text-anchor="middle" x="770.55" y="-295.3" font-family="Times,serif" font-size="14.00">&quot;Description of org ....&quot;</text>
</g>
<!-- example.org/permanentUrlToThisJsonDoc&#45;&gt;&quot;Description of org ....&quot; -->
<g id="edge11" class="edge">
<title>example.org/permanentUrlToThisJsonDoc&#45;&gt;&quot;Description of org ....&quot;</title>
<path fill="none" stroke="black" d="M343.17,-339.79C440.69,-330.46 569.6,-318.13 660.05,-309.47"/>
<polygon fill="black" stroke="black" points="660.44,-312.95 670.06,-308.52 659.77,-305.99 660.44,-312.95"/>
<text text-anchor="middle" x="499.66" y="-333.8" font-family="Times,serif" font-size="14.00">description</text>
</g>
<!-- &quot;secretariat(at)examp...&quot; -->
<g id="node14" class="node">
<title>&quot;secretariat(at)examp...&quot;</title>
<ellipse fill="none" stroke="black" stroke-width="0" cx="770.55" cy="-245" rx="126.18" ry="18"/>
<text text-anchor="middle" x="770.55" y="-241.3" font-family="Times,serif" font-size="14.00">&quot;secretariat(at)examp...&quot;</text>
</g>
<!-- example.org/permanentUrlToThisJsonDoc&#45;&gt;&quot;secretariat(at)examp...&quot; -->
<g id="edge12" class="edge">
<title>example.org/permanentUrlToThisJsonDoc&#45;&gt;&quot;secretariat(at)examp...&quot;</title>
<path fill="none" stroke="black" d="M269.6,-335.84C313.54,-324.51 373.12,-309.8 426.16,-299 498.98,-284.17 517.76,-283.56 591.16,-272 617.5,-267.85 646.05,-263.48 672.42,-259.48"/>
<polygon fill="black" stroke="black" points="673.05,-262.93 682.41,-257.97 672,-256.01 673.05,-262.93"/>
<text text-anchor="middle" x="499.66" y="-302.8" font-family="Times,serif" font-size="14.00">email</text>
</g>
<!-- grid.ac/institutes/grid.475727.4 -->
<g id="node15" class="node">
<title>grid.ac/institutes/grid.475727.4</title>
<ellipse fill="none" stroke="#558855" cx="770.55" cy="-180" rx="159.47" ry="18"/>
<text text-anchor="middle" x="770.55" y="-176.3" font-family="Times,serif" font-size="14.00">grid.ac/institutes/grid.475727.4</text>
</g>
<!-- example.org/permanentUrlToThisJsonDoc&#45;&gt;grid.ac/institutes/grid.475727.4 -->
<g id="edge13" class="edge">
<title>example.org/permanentUrlToThisJsonDoc&#45;&gt;grid.ac/institutes/grid.475727.4</title>
<path fill="none" stroke="black" d="M240.27,-335.1C283.23,-313.83 358.52,-278.41 426.16,-256 497.6,-232.33 517.69,-234.28 591.16,-218 621.44,-211.29 654.65,-204.15 684.13,-197.9"/>
<polygon fill="black" stroke="black" points="684.92,-201.31 693.97,-195.81 683.47,-194.46 684.92,-201.31"/>
<text text-anchor="middle" x="499.66" y="-259.8" font-family="Times,serif" font-size="14.00">identifier</text>
</g>
<!-- &quot;Organization X&quot; -->
<g id="node16" class="node">
<title>&quot;Organization X&quot;</title>
<ellipse fill="none" stroke="black" stroke-width="0" cx="770.55" cy="-126" rx="89.08" ry="18"/>
<text text-anchor="middle" x="770.55" y="-122.3" font-family="Times,serif" font-size="14.00">&quot;Organization X&quot;</text>
</g>
<!-- example.org/permanentUrlToThisJsonDoc&#45;&gt;&quot;Organization X&quot; -->
<g id="edge15" class="edge">
<title>example.org/permanentUrlToThisJsonDoc&#45;&gt;&quot;Organization X&quot;</title>
<path fill="none" stroke="black" d="M226.63,-335.07C264.69,-304.18 347.25,-240.65 426.16,-203 495.32,-170 516.42,-169.89 591.16,-153 620.82,-146.3 653.63,-140.8 682.94,-136.55"/>
<polygon fill="black" stroke="black" points="683.74,-139.97 693.15,-135.1 682.75,-133.04 683.74,-139.97"/>
<text text-anchor="middle" x="499.66" y="-206.8" font-family="Times,serif" font-size="14.00">name</text>
</g>
<!-- sdgs.un.org/goals/goal14 -->
<g id="node17" class="node">
<title>sdgs.un.org/goals/goal14</title>
<ellipse fill="none" stroke="#558855" cx="770.55" cy="-353" rx="126.98" ry="18"/>
<text text-anchor="middle" x="770.55" y="-349.3" font-family="Times,serif" font-size="14.00">sdgs.un.org/goals/goal14</text>
</g>
<!-- example.org/permanentUrlToThisJsonDoc&#45;&gt;sdgs.un.org/goals/goal14 -->
<g id="edge17" class="edge">
<title>example.org/permanentUrlToThisJsonDoc&#45;&gt;sdgs.un.org/goals/goal14</title>
<path fill="none" stroke="black" d="M408.47,-353C483.14,-353 565.82,-353 633.21,-353"/>
<polygon fill="black" stroke="black" points="633.46,-356.5 643.46,-353 633.46,-349.5 633.46,-356.5"/>
<text text-anchor="middle" x="499.66" y="-356.8" font-family="Times,serif" font-size="14.00">publishingPrinciples</text>
</g>
<!-- &quot;( 33 1) 42 68 53 00&quot; -->
<g id="node18" class="node">
<title>&quot;( 33 1) 42 68 53 00&quot;</title>
<ellipse fill="none" stroke="black" stroke-width="0" cx="770.55" cy="-72" rx="108.58" ry="18"/>
<text text-anchor="middle" x="770.55" y="-68.3" font-family="Times,serif" font-size="14.00">&quot;( 33 1) 42 68 53 00&quot;</text>
</g>
<!-- example.org/permanentUrlToThisJsonDoc&#45;&gt;&quot;( 33 1) 42 68 53 00&quot; -->
<g id="edge19" class="edge">
<title>example.org/permanentUrlToThisJsonDoc&#45;&gt;&quot;( 33 1) 42 68 53 00&quot;</title>
<path fill="none" stroke="black" d="M218.02,-334.97C248.92,-293.29 331.58,-189.89 426.16,-138 495.92,-99.73 584.24,-83.35 653.85,-76.47"/>
<polygon fill="black" stroke="black" points="654.35,-79.94 663.98,-75.53 653.69,-72.97 654.35,-79.94"/>
<text text-anchor="middle" x="499.66" y="-141.8" font-family="Times,serif" font-size="14.00">telephone</text>
</g>
<!-- _&#45;&gt;Organization -->
<g id="edge28" class="edge">
<title>_&#45;&gt;Organization</title>
<path fill="none" stroke="black" d="M787.03,-518.88C818.58,-548.44 893.63,-615 967.93,-653 1022.13,-680.72 1039.92,-678.06 1098.93,-693 1120.41,-698.44 1144.05,-703.51 1165.39,-707.76"/>
<polygon fill="black" stroke="black" points="1164.85,-711.22 1175.34,-709.71 1166.2,-704.35 1164.85,-711.22"/>
<text text-anchor="middle" x="1024.43" y="-691.8" font-family="Times,serif" font-size="14.00">type</text>
</g>
<!-- &quot;Org A is a potential...&quot; -->
<g id="node26" class="node">
<title>&quot;Org A is a potential...&quot;</title>
<ellipse fill="none" stroke="black" stroke-width="0" cx="1233.47" cy="-504" rx="118.08" ry="18"/>
<text text-anchor="middle" x="1233.47" y="-500.3" font-family="Times,serif" font-size="14.00">&quot;Org A is a potential...&quot;</text>
</g>
<!-- _&#45;&gt;&quot;Org A is a potential...&quot; -->
<g id="edge29" class="edge">
<title>_&#45;&gt;&quot;Org A is a potential...&quot;</title>
<path fill="none" stroke="black" d="M797.65,-504C855.67,-504 998.61,-504 1104.86,-504"/>
<polygon fill="black" stroke="black" points="1105.02,-507.5 1115.02,-504 1105.02,-500.5 1105.02,-507.5"/>
<text text-anchor="middle" x="1024.43" y="-507.8" font-family="Times,serif" font-size="14.00">description</text>
</g>
<!-- &quot;Organization A&quot; -->
<g id="node27" class="node">
<title>&quot;Organization A&quot;</title>
<ellipse fill="none" stroke="black" stroke-width="0" cx="1233.47" cy="-450" rx="89.08" ry="18"/>
<text text-anchor="middle" x="1233.47" y="-446.3" font-family="Times,serif" font-size="14.00">&quot;Organization A&quot;</text>
</g>
<!-- _&#45;&gt;&quot;Organization A&quot; -->
<g id="edge30" class="edge">
<title>_&#45;&gt;&quot;Organization A&quot;</title>
<path fill="none" stroke="black" d="M797.32,-500.98C862.98,-493.29 1038.91,-472.68 1145.89,-460.14"/>
<polygon fill="black" stroke="black" points="1146.5,-463.6 1156.03,-458.96 1145.69,-456.64 1146.5,-463.6"/>
<text text-anchor="middle" x="1024.43" y="-483.8" font-family="Times,serif" font-size="14.00">name</text>
</g>
<!-- PostalAddress -->
<g id="node28" class="node">
<title>PostalAddress</title>
<ellipse fill="none" stroke="#558855" cx="1233.47" cy="-396" rx="76.89" ry="18"/>
<text text-anchor="middle" x="1233.47" y="-392.3" font-family="Times,serif" font-size="14.00">PostalAddress</text>
</g>
<!-- _&#45;&gt;PostalAddress -->
<g id="edge31" class="edge">
<title>_&#45;&gt;PostalAddress</title>
<path fill="none" stroke="black" d="M795.6,-496.84C832.5,-485.99 905.36,-465.03 967.93,-450 1025.73,-436.11 1040.69,-434.89 1098.93,-423 1120.34,-418.63 1143.68,-413.9 1164.78,-409.63"/>
<polygon fill="black" stroke="black" points="1165.51,-413.06 1174.62,-407.65 1164.12,-406.2 1165.51,-413.06"/>
<text text-anchor="middle" x="1024.43" y="-453.8" font-family="Times,serif" font-size="14.00">type</text>
</g>
<!-- &quot;Paris, France&quot; -->
<g id="node29" class="node">
<title>&quot;Paris, France&quot;</title>
<ellipse fill="none" stroke="black" stroke-width="0" cx="1233.47" cy="-666" rx="81.49" ry="18"/>
<text text-anchor="middle" x="1233.47" y="-662.3" font-family="Times,serif" font-size="14.00">&quot;Paris, France&quot;</text>
</g>
<!-- _&#45;&gt;&quot;Paris, France&quot; -->
<g id="edge32" class="edge">
<title>_&#45;&gt;&quot;Paris, France&quot;</title>
<path fill="none" stroke="black" d="M791.69,-515.23C826.71,-534.45 901.47,-574.07 967.93,-600 1024.52,-622.08 1039.99,-624.3 1098.93,-639 1118.76,-643.95 1140.42,-648.63 1160.41,-652.66"/>
<polygon fill="black" stroke="black" points="1159.89,-656.13 1170.38,-654.65 1161.26,-649.26 1159.89,-656.13"/>
<text text-anchor="middle" x="1024.43" y="-637.8" font-family="Times,serif" font-size="14.00">addressLocality</text>
</g>
<!-- &quot;F&#45;75002&quot; -->
<g id="node30" class="node">
<title>&quot;F&#45;75002&quot;</title>
<ellipse fill="none" stroke="black" stroke-width="0" cx="1233.47" cy="-612" rx="57.69" ry="18"/>
<text text-anchor="middle" x="1233.47" y="-608.3" font-family="Times,serif" font-size="14.00">&quot;F&#45;75002&quot;</text>
</g>
<!-- _&#45;&gt;&quot;F&#45;75002&quot; -->
<g id="edge33" class="edge">
<title>_&#45;&gt;&quot;F&#45;75002&quot;</title>
<path fill="none" stroke="black" d="M795.63,-510.94C832.56,-521.48 905.46,-541.9 967.93,-557 1025.8,-570.98 1040.64,-572.88 1098.93,-585 1123.54,-590.12 1150.73,-595.64 1174.12,-600.35"/>
<polygon fill="black" stroke="black" points="1173.74,-603.84 1184.23,-602.38 1175.12,-596.98 1173.74,-603.84"/>
<text text-anchor="middle" x="1024.43" y="-584.8" font-family="Times,serif" font-size="14.00">postalCode</text>
</g>
<!-- &quot;38 avenue de l&#39;Opera&quot; -->
<g id="node31" class="node">
<title>&quot;38 avenue de l&#39;Opera&quot;</title>
<ellipse fill="none" stroke="black" stroke-width="0" cx="1233.47" cy="-558" rx="118.08" ry="18"/>
<text text-anchor="middle" x="1233.47" y="-554.3" font-family="Times,serif" font-size="14.00">&quot;38 avenue de l&#39;Opera&quot;</text>
</g>
<!-- _&#45;&gt;&quot;38 avenue de l&#39;Opera&quot; -->
<g id="edge34" class="edge">
<title>_&#45;&gt;&quot;38 avenue de l&#39;Opera&quot;</title>
<path fill="none" stroke="black" d="M797.32,-507.02C859.58,-514.31 1021,-533.22 1128.76,-545.85"/>
<polygon fill="black" stroke="black" points="1128.67,-549.36 1139.01,-547.05 1129.49,-542.41 1128.67,-549.36"/>
<text text-anchor="middle" x="1024.43" y="-541.8" font-family="Times,serif" font-size="14.00">streetAddress</text>
</g>
<!-- PropertyValue -->
<g id="node19" class="node">
<title>PropertyValue</title>
<ellipse fill="none" stroke="#558855" cx="1233.47" cy="-126" rx="77.19" ry="18"/>
<text text-anchor="middle" x="1233.47" y="-122.3" font-family="Times,serif" font-size="14.00">PropertyValue</text>
</g>
<!-- grid.ac/institutes/grid.475727.4&#45;&gt;PropertyValue -->
<g id="edge20" class="edge">
<title>grid.ac/institutes/grid.475727.4&#45;&gt;PropertyValue</title>
<path fill="none" stroke="black" d="M881.66,-167.1C965.46,-157.28 1078.78,-144.01 1153.67,-135.23"/>
<polygon fill="black" stroke="black" points="1154.45,-138.66 1163.97,-134.02 1153.64,-131.71 1154.45,-138.66"/>
<text text-anchor="middle" x="1024.43" y="-159.8" font-family="Times,serif" font-size="14.00">type</text>
</g>
<!-- &quot;UN Department of Eco...&quot; -->
<g id="node20" class="node">
<title>&quot;UN Department of Eco...&quot;</title>
<ellipse fill="none" stroke="black" stroke-width="0" cx="1233.47" cy="-72" rx="134.58" ry="18"/>
<text text-anchor="middle" x="1233.47" y="-68.3" font-family="Times,serif" font-size="14.00">&quot;UN Department of Eco...&quot;</text>
</g>
<!-- grid.ac/institutes/grid.475727.4&#45;&gt;&quot;UN Department of Eco...&quot; -->
<g id="edge21" class="edge">
<title>grid.ac/institutes/grid.475727.4&#45;&gt;&quot;UN Department of Eco...&quot;</title>
<path fill="none" stroke="black" d="M909.72,-171.05C923.93,-166.68 937.64,-160.82 949.93,-153 962.1,-145.26 955.97,-134.06 967.93,-126 1017.23,-92.78 1040.69,-110.89 1098.93,-99 1114.86,-95.75 1131.86,-92.3 1148.21,-88.99"/>
<polygon fill="black" stroke="black" points="1149.19,-92.36 1158.29,-86.95 1147.8,-85.5 1149.19,-92.36"/>
<text text-anchor="middle" x="1024.43" y="-129.8" font-family="Times,serif" font-size="14.00">description</text>
</g>
<!-- &quot;https//registry.iden...&quot; -->
<g id="node21" class="node">
<title>&quot;https//registry.iden...&quot;</title>
<ellipse fill="none" stroke="black" stroke-width="0" cx="1233.47" cy="-18" rx="116.98" ry="18"/>
<text text-anchor="middle" x="1233.47" y="-14.3" font-family="Times,serif" font-size="14.00">&quot;https//registry.iden...&quot;</text>
</g>
<!-- grid.ac/institutes/grid.475727.4&#45;&gt;&quot;https//registry.iden...&quot; -->
<g id="edge22" class="edge">
<title>grid.ac/institutes/grid.475727.4&#45;&gt;&quot;https//registry.iden...&quot;</title>
<path fill="none" stroke="black" d="M917.94,-172.89C929.62,-167.99 940.52,-161.5 949.93,-153 973.77,-131.47 945.57,-106.06 967.93,-83 1010.14,-39.48 1040.06,-59.46 1098.93,-45 1114.82,-41.1 1131.86,-37.33 1148.28,-33.92"/>
<polygon fill="black" stroke="black" points="1149.32,-37.28 1158.41,-31.84 1147.91,-30.42 1149.32,-37.28"/>
<text text-anchor="middle" x="1024.43" y="-86.8" font-family="Times,serif" font-size="14.00">propertyID</text>
</g>
<!-- &quot;https//grid.ac/insti...&quot; -->
<g id="node22" class="node">
<title>&quot;https//grid.ac/insti...&quot;</title>
<ellipse fill="none" stroke="black" stroke-width="0" cx="1233.47" cy="-180" rx="114.28" ry="18"/>
<text text-anchor="middle" x="1233.47" y="-176.3" font-family="Times,serif" font-size="14.00">&quot;https//grid.ac/insti...&quot;</text>
</g>
<!-- grid.ac/institutes/grid.475727.4&#45;&gt;&quot;https//grid.ac/insti...&quot; -->
<g id="edge23" class="edge">
<title>grid.ac/institutes/grid.475727.4&#45;&gt;&quot;https//grid.ac/insti...&quot;</title>
<path fill="none" stroke="black" d="M929.85,-180C988.34,-180 1053.73,-180 1108.71,-180"/>
<polygon fill="black" stroke="black" points="1108.85,-183.5 1118.85,-180 1108.85,-176.5 1108.85,-183.5"/>
<text text-anchor="middle" x="1024.43" y="-183.8" font-family="Times,serif" font-size="14.00">url</text>
</g>
<!-- sdgs.un.org/goals/goal14&#45;&gt;CreativeWork -->
<g id="edge24" class="edge">
<title>sdgs.un.org/goals/goal14&#45;&gt;CreativeWork</title>
<path fill="none" stroke="black" d="M815.14,-369.85C857.72,-388.86 920.32,-424.2 949.93,-477 983.25,-536.41 925.05,-730.07 967.93,-783 1000.71,-823.46 1041.52,-779.96 1080.93,-814 1095.99,-827.01 1083.44,-842.51 1098.93,-855 1113.45,-866.7 1131.69,-873.75 1149.98,-877.92"/>
<polygon fill="black" stroke="black" points="1149.34,-881.36 1159.83,-879.89 1150.71,-874.49 1149.34,-881.36"/>
<text text-anchor="middle" x="1024.43" y="-817.8" font-family="Times,serif" font-size="14.00">type</text>
</g>
<!-- &quot;Conserve and sustain...&quot; -->
<g id="node23" class="node">
<title>&quot;Conserve and sustain...&quot;</title>
<ellipse fill="none" stroke="black" stroke-width="0" cx="1233.47" cy="-288" rx="128.08" ry="18"/>
<text text-anchor="middle" x="1233.47" y="-284.3" font-family="Times,serif" font-size="14.00">&quot;Conserve and sustain...&quot;</text>
</g>
<!-- sdgs.un.org/goals/goal14&#45;&gt;&quot;Conserve and sustain...&quot; -->
<g id="edge25" class="edge">
<title>sdgs.un.org/goals/goal14&#45;&gt;&quot;Conserve and sustain...&quot;</title>
<path fill="none" stroke="black" d="M861.24,-340.35C938.97,-329.39 1051.33,-313.54 1132.05,-302.16"/>
<polygon fill="black" stroke="black" points="1132.82,-305.59 1142.23,-300.73 1131.84,-298.66 1132.82,-305.59"/>
<text text-anchor="middle" x="1024.43" y="-327.8" font-family="Times,serif" font-size="14.00">description</text>
</g>
<!-- &quot;Sustainable Developm...&quot; -->
<g id="node24" class="node">
<title>&quot;Sustainable Developm...&quot;</title>
<ellipse fill="none" stroke="black" stroke-width="0" cx="1233.47" cy="-234" rx="131.88" ry="18"/>
<text text-anchor="middle" x="1233.47" y="-230.3" font-family="Times,serif" font-size="14.00">&quot;Sustainable Developm...&quot;</text>
</g>
<!-- sdgs.un.org/goals/goal14&#45;&gt;&quot;Sustainable Developm...&quot; -->
<g id="edge26" class="edge">
<title>sdgs.un.org/goals/goal14&#45;&gt;&quot;Sustainable Developm...&quot;</title>
<path fill="none" stroke="black" d="M895.51,-349.73C914.96,-345 933.91,-337.51 949.93,-326 964.14,-315.79 954.12,-301.73 967.93,-291 1015.1,-254.36 1040.54,-273.59 1098.93,-261 1114.63,-257.62 1131.4,-254.13 1147.56,-250.83"/>
<polygon fill="black" stroke="black" points="1148.43,-254.22 1157.53,-248.8 1147.04,-247.36 1148.43,-254.22"/>
<text text-anchor="middle" x="1024.43" y="-294.8" font-family="Times,serif" font-size="14.00">name</text>
</g>
<!-- &quot;https//sdgs.un.org/g...&quot; -->
<g id="node25" class="node">
<title>&quot;https//sdgs.un.org/g...&quot;</title>
<ellipse fill="none" stroke="black" stroke-width="0" cx="1233.47" cy="-342" rx="122.38" ry="18"/>
<text text-anchor="middle" x="1233.47" y="-338.3" font-family="Times,serif" font-size="14.00">&quot;https//sdgs.un.org/g...&quot;</text>
</g>
<!-- sdgs.un.org/goals/goal14&#45;&gt;&quot;https//sdgs.un.org/g...&quot; -->
<g id="edge27" class="edge">
<title>sdgs.un.org/goals/goal14&#45;&gt;&quot;https//sdgs.un.org/g...&quot;</title>
<path fill="none" stroke="black" d="M895.67,-350.04C959.58,-348.51 1037.46,-346.65 1102.22,-345.11"/>
<polygon fill="black" stroke="black" points="1102.59,-348.6 1112.5,-344.86 1102.42,-341.6 1102.59,-348.6"/>
<text text-anchor="middle" x="1024.43" y="-351.8" font-family="Times,serif" font-size="14.00">url</text>
</g>
</g>
</svg>