<?xml version="1.0" encoding="UTF-8" standalone="no"?>
<!DOCTYPE svg PUBLIC "-//W3C//DTD SVG 1.1//EN"
 "http://www.w3.org/Graphics/SVG/1.1/DTD/svg11.dtd">
<!-- Generated by graphviz version 2.43.0 (0)
 -->
<!-- Title: %3 Pages: 1 -->
<svg width="1119pt" height="490pt"
 viewBox="0.00 0.00 1119.13 490.00" xmlns="http://www.w3.org/2000/svg" xmlns:xlink="http://www.w3.org/1999/xlink">
<g id="graph0" class="graph" transform="scale(1 1) rotate(0) translate(4 486)">
<title>%3</title>
<polygon fill="white" stroke="transparent" points="-4,4 -4,-486 1115.13,-486 1115.13,4 -4,4"/>
<!-- Dataset -->
<g id="node1" class="node">
<title>Dataset</title>
<ellipse fill="none" stroke="#558855" cx="637.96" cy="-327" rx="46.59" ry="18"/>
<text text-anchor="middle" x="637.96" y="-323.3" font-family="Times,serif" font-size="14.00">Dataset</text>
</g>
<!-- example.org/permanentUrlToThisJsonDoc -->
<g id="node2" class="node">
<title>example.org/permanentUrlToThisJsonDoc</title>
<ellipse fill="none" stroke="black" cx="204.08" cy="-270" rx="204.16" ry="18"/>
<text text-anchor="middle" x="204.08" y="-266.3" font-family="Times,serif" font-size="14.00">example.org/permanentUrlToThisJsonDoc</text>
</g>
<!-- example.org/permanentUrlToThisJsonDoc&#45;&gt;Dataset -->
<g id="edge1" class="edge">
<title>example.org/permanentUrlToThisJsonDoc&#45;&gt;Dataset</title>
<path fill="none" stroke="black" d="M318.27,-284.94C403.79,-296.23 517.35,-311.21 583.27,-319.91"/>
<polygon fill="black" stroke="black" points="583.06,-323.42 593.43,-321.25 583.97,-316.48 583.06,-323.42"/>
<text text-anchor="middle" x="499.66" y="-320.8" font-family="Times,serif" font-size="14.00">type</text>
</g>
<!-- _ -->
<g id="node3" class="node">
<title>_</title>
<ellipse fill="none" stroke="#558855" cx="637.96" cy="-251" rx="27" ry="18"/>
<text text-anchor="middle" x="637.96" y="-247.3" font-family="Times,serif" font-size="14.00">_</text>
</g>
<!-- example.org/permanentUrlToThisJsonDoc&#45;&gt;_ -->
<g id="edge2" class="edge">
<title>example.org/permanentUrlToThisJsonDoc&#45;&gt;_</title>
<path fill="none" stroke="black" d="M391.97,-277.05C450.21,-276.95 514.53,-274.48 573.16,-267 583.17,-265.72 593.86,-263.42 603.58,-260.96"/>
<polygon fill="black" stroke="black" points="604.53,-264.33 613.28,-258.36 602.72,-257.56 604.53,-264.33"/>
<text text-anchor="middle" x="499.66" y="-279.8" font-family="Times,serif" font-size="14.00">publishingPrinciples</text>
</g>
<!-- example.org/permanentUrlToThisJsonDoc&#45;&gt;_ -->
<g id="edge3" class="edge">
<title>example.org/permanentUrlToThisJsonDoc&#45;&gt;_</title>
<path fill="none" stroke="black" d="M327.42,-255.64C359.5,-252.47 394.09,-249.59 426.16,-248 491.42,-244.76 507.85,-246.47 573.16,-248 582.09,-248.21 591.71,-248.58 600.7,-249"/>
<polygon fill="black" stroke="black" points="600.74,-252.5 610.9,-249.5 601.08,-245.51 600.74,-252.5"/>
<text text-anchor="middle" x="499.66" y="-251.8" font-family="Times,serif" font-size="14.00">publishingPrinciples</text>
</g>
<!-- example.org/permanentUrlToThisJsonDoc&#45;&gt;_ -->
<g id="edge4" class="edge">
<title>example.org/permanentUrlToThisJsonDoc&#45;&gt;_</title>
<path fill="none" stroke="black" d="M262.8,-252.75C335.56,-233.42 464.29,-207.2 573.16,-227 584.28,-229.02 595.98,-232.87 606.28,-236.91"/>
<polygon fill="black" stroke="black" points="605.08,-240.2 615.66,-240.78 607.75,-233.73 605.08,-240.2"/>
<text text-anchor="middle" x="499.66" y="-230.8" font-family="Times,serif" font-size="14.00">publishingPrinciples</text>
</g>
<!-- CreativeWork -->
<g id="node4" class="node">
<title>CreativeWork</title>
<ellipse fill="none" stroke="#558855" cx="956.44" cy="-422" rx="74.19" ry="18"/>
<text text-anchor="middle" x="956.44" y="-418.3" font-family="Times,serif" font-size="14.00">CreativeWork</text>
</g>
<!-- _&#45;&gt;CreativeWork -->
<g id="edge5" class="edge">
<title>_&#45;&gt;CreativeWork</title>
<path fill="none" stroke="black" d="M656.17,-264.57C666.23,-273.51 678.2,-286.1 684.76,-300 697.95,-327.97 679.52,-417.59 702.76,-438 759.93,-488.21 855.32,-463.2 911.1,-441.74"/>
<polygon fill="black" stroke="black" points="912.7,-444.87 920.71,-437.93 910.12,-438.36 912.7,-444.87"/>
<text text-anchor="middle" x="743.26" y="-470.8" font-family="Times,serif" font-size="14.00">type</text>
</g>
<!-- _&#45;&gt;CreativeWork -->
<g id="edge9" class="edge">
<title>_&#45;&gt;CreativeWork</title>
<path fill="none" stroke="black" d="M655.93,-264.68C665.9,-273.66 677.87,-286.26 684.76,-300 705,-340.37 669.4,-369.56 702.76,-400 715.25,-411.41 803.82,-417.05 872.61,-419.73"/>
<polygon fill="black" stroke="black" points="872.48,-423.23 882.61,-420.11 872.75,-416.23 872.48,-423.23"/>
<text text-anchor="middle" x="743.26" y="-417.8" font-family="Times,serif" font-size="14.00">type</text>
</g>
<!-- _&#45;&gt;CreativeWork -->
<g id="edge13" class="edge">
<title>_&#45;&gt;CreativeWork</title>
<path fill="none" stroke="black" d="M655.44,-264.95C665.22,-274.03 677.16,-286.64 684.76,-300 698.94,-324.94 681.94,-342.25 702.76,-362 729.58,-387.46 747.77,-372.48 783.76,-381 819.97,-389.57 860.46,-399.24 893.02,-407.03"/>
<polygon fill="black" stroke="black" points="892.32,-410.46 902.86,-409.38 893.95,-403.65 892.32,-410.46"/>
<text text-anchor="middle" x="743.26" y="-384.8" font-family="Times,serif" font-size="14.00">type</text>
</g>
<!-- &quot;This is the EOV specifica...&quot; -->
<g id="node5" class="node">
<title>&quot;This is the EOV specifica...&quot;</title>
<ellipse fill="none" stroke="black" stroke-width="0" cx="956.44" cy="-330" rx="142.97" ry="18"/>
<text text-anchor="middle" x="956.44" y="-326.3" font-family="Times,serif" font-size="14.00">&quot;This is the EOV specifica...&quot;</text>
</g>
<!-- _&#45;&gt;&quot;This is the EOV specifica...&quot; -->
<g id="edge6" class="edge">
<title>_&#45;&gt;&quot;This is the EOV specifica...&quot;</title>
<path fill="none" stroke="black" d="M653.84,-266.06C663.02,-275.56 674.88,-288.22 684.76,-300 693.32,-310.22 690.9,-317.9 702.76,-324 753.14,-349.94 816.99,-351.24 867.9,-346.15"/>
<polygon fill="black" stroke="black" points="868.35,-349.62 877.91,-345.06 867.58,-342.67 868.35,-349.62"/>
<text text-anchor="middle" x="743.26" y="-349.8" font-family="Times,serif" font-size="14.00">description</text>
</g>
<!-- _&#45;&gt;&quot;This is the EOV specifica...&quot; -->
<g id="edge10" class="edge">
<title>_&#45;&gt;&quot;This is the EOV specifica...&quot;</title>
<path fill="none" stroke="black" d="M661.8,-259.56C673.87,-263.91 689.01,-269.09 702.76,-273 757.29,-288.5 819.39,-302.56 868.38,-312.83"/>
<polygon fill="black" stroke="black" points="867.81,-316.29 878.31,-314.9 869.24,-309.44 867.81,-316.29"/>
<text text-anchor="middle" x="743.26" y="-295.8" font-family="Times,serif" font-size="14.00">description</text>
</g>
<!-- &quot;Ocean Observations Physic...&quot; -->
<g id="node6" class="node">
<title>&quot;Ocean Observations Physic...&quot;</title>
<ellipse fill="none" stroke="black" stroke-width="0" cx="956.44" cy="-259" rx="154.87" ry="18"/>
<text text-anchor="middle" x="956.44" y="-255.3" font-family="Times,serif" font-size="14.00">&quot;Ocean Observations Physic...&quot;</text>
</g>
<!-- _&#45;&gt;&quot;Ocean Observations Physic...&quot; -->
<g id="edge7" class="edge">
<title>_&#45;&gt;&quot;Ocean Observations Physic...&quot;</title>
<path fill="none" stroke="black" d="M665.13,-251.66C694.49,-252.4 744.65,-253.67 795.1,-254.95"/>
<polygon fill="black" stroke="black" points="795.1,-258.45 805.19,-255.2 795.28,-251.45 795.1,-258.45"/>
<text text-anchor="middle" x="743.26" y="-257.8" font-family="Times,serif" font-size="14.00">name</text>
</g>
<!-- _&#45;&gt;&quot;Ocean Observations Physic...&quot; -->
<g id="edge11" class="edge">
<title>_&#45;&gt;&quot;Ocean Observations Physic...&quot;</title>
<path fill="none" stroke="black" d="M662.26,-242.76C674.2,-238.97 689.08,-234.89 702.76,-233 760.58,-225 826.17,-232.22 876.04,-241.07"/>
<polygon fill="black" stroke="black" points="875.64,-244.56 886.11,-242.92 876.9,-237.67 875.64,-244.56"/>
<text text-anchor="middle" x="743.26" y="-236.8" font-family="Times,serif" font-size="14.00">name</text>
</g>
<!-- &quot;http//www.goosocean.org/c...&quot; -->
<g id="node7" class="node">
<title>&quot;http//www.goosocean.org/c...&quot;</title>
<ellipse fill="none" stroke="black" stroke-width="0" cx="956.44" cy="-187" rx="153.27" ry="18"/>
<text text-anchor="middle" x="956.44" y="-183.3" font-family="Times,serif" font-size="14.00">&quot;http//www.goosocean.org/c...&quot;</text>
</g>
<!-- _&#45;&gt;&quot;http//www.goosocean.org/c...&quot; -->
<g id="edge8" class="edge">
<title>_&#45;&gt;&quot;http//www.goosocean.org/c...&quot;</title>
<path fill="none" stroke="black" d="M655.65,-237.06C667.88,-227.69 685.32,-215.99 702.76,-210 731.42,-200.15 762.93,-193.93 793.68,-190.11"/>
<polygon fill="black" stroke="black" points="794.11,-193.58 803.64,-188.95 793.3,-186.63 794.11,-193.58"/>
<text text-anchor="middle" x="743.26" y="-213.8" font-family="Times,serif" font-size="14.00">url</text>
</g>
<!-- _&#45;&gt;&quot;http//www.goosocean.org/c...&quot; -->
<g id="edge12" class="edge">
<title>_&#45;&gt;&quot;http//www.goosocean.org/c...&quot;</title>
<path fill="none" stroke="black" d="M647.22,-234.02C657.36,-215.34 676.52,-186.33 702.76,-174 762.32,-146 838.73,-155.23 891.85,-167.7"/>
<polygon fill="black" stroke="black" points="891.28,-171.16 901.82,-170.14 892.94,-164.37 891.28,-171.16"/>
<text text-anchor="middle" x="743.26" y="-177.8" font-family="Times,serif" font-size="14.00">url</text>
</g>
<!-- &quot;QA/QC &#160;&#45; EOV data and the...&quot; -->
<g id="node8" class="node">
<title>&quot;QA/QC &#160;&#45; EOV data and the...&quot;</title>
<ellipse fill="none" stroke="black" stroke-width="0" cx="956.44" cy="-126" rx="152.97" ry="18"/>
<text text-anchor="middle" x="956.44" y="-122.3" font-family="Times,serif" font-size="14.00">&quot;QA/QC &#160;&#45; EOV data and the...&quot;</text>
</g>
<!-- _&#45;&gt;&quot;QA/QC &#160;&#45; EOV data and the...&quot; -->
<g id="edge14" class="edge">
<title>_&#45;&gt;&quot;QA/QC &#160;&#45; EOV data and the...&quot;</title>
<path fill="none" stroke="black" d="M643.18,-232.92C650.38,-206.6 667.8,-158.53 702.76,-137 751.13,-107.21 815.14,-104.72 866.64,-109.54"/>
<polygon fill="black" stroke="black" points="866.45,-113.04 876.76,-110.6 867.18,-106.08 866.45,-113.04"/>
<text text-anchor="middle" x="743.26" y="-140.8" font-family="Times,serif" font-size="14.00">description</text>
</g>
<!-- &quot;QA/QC guidance&quot; -->
<g id="node9" class="node">
<title>&quot;QA/QC guidance&quot;</title>
<ellipse fill="none" stroke="black" stroke-width="0" cx="956.44" cy="-72" rx="94.78" ry="18"/>
<text text-anchor="middle" x="956.44" y="-68.3" font-family="Times,serif" font-size="14.00">&quot;QA/QC guidance&quot;</text>
</g>
<!-- _&#45;&gt;&quot;QA/QC guidance&quot; -->
<g id="edge15" class="edge">
<title>_&#45;&gt;&quot;QA/QC guidance&quot;</title>
<path fill="none" stroke="black" d="M640.25,-233.03C643.73,-199.11 656.51,-126.01 702.76,-92 752.71,-55.26 824.24,-52.91 878.45,-58.22"/>
<polygon fill="black" stroke="black" points="878.38,-61.73 888.7,-59.33 879.14,-54.77 878.38,-61.73"/>
<text text-anchor="middle" x="743.26" y="-95.8" font-family="Times,serif" font-size="14.00">name</text>
</g>
<!-- &quot;http//example.org/id/doc/...&quot; -->
<g id="node10" class="node">
<title>&quot;http//example.org/id/doc/...&quot;</title>
<ellipse fill="none" stroke="black" stroke-width="0" cx="956.44" cy="-18" rx="144.87" ry="18"/>
<text text-anchor="middle" x="956.44" y="-14.3" font-family="Times,serif" font-size="14.00">&quot;http//example.org/id/doc/...&quot;</text>
</g>
<!-- _&#45;&gt;&quot;http//example.org/id/doc/...&quot; -->
<g id="edge16" class="edge">
<title>_&#45;&gt;&quot;http//example.org/id/doc/...&quot;</title>
<path fill="none" stroke="black" d="M638.39,-232.98C638.18,-191.89 644,-91.09 702.76,-43 744.73,-8.64 804.73,-1.54 855.73,-3.43"/>
<polygon fill="black" stroke="black" points="855.65,-6.93 865.81,-3.92 855.99,0.07 855.65,-6.93"/>
<text text-anchor="middle" x="743.26" y="-46.8" font-family="Times,serif" font-size="14.00">url</text>
</g>
</g>
</svg>