<?xml version="1.0" encoding="UTF-8" standalone="no"?>
<!DOCTYPE svg PUBLIC "-//W3C//DTD SVG 1.1//EN"
 "http://www.w3.org/Graphics/SVG/1.1/DTD/svg11.dtd">
<!-- Generated by graphviz version 2.43.0 (0)
 -->
<!-- Title: %3 Pages: 1 -->
<svg width="1154pt" height="368pt"
 viewBox="0.00 0.00 1153.72 368.00" xmlns="http://www.w3.org/2000/svg" xmlns:xlink="http://www.w3.org/1999/xlink">
<g id="graph0" class="graph" transform="scale(1 1) rotate(0) translate(4 364)">
<title>%3</title>
<polygon fill="white" stroke="transparent" points="-4,4 -4,-364 1149.72,-364 1149.72,4 -4,4"/>
<!-- Course -->
<g id="node1" class="node">
<title>Course</title>
<ellipse fill="none" stroke="#558855" cx="1019.63" cy="-342" rx="43.59" ry="18"/>
<text text-anchor="middle" x="1019.63" y="-338.3" font-family="Times,serif" font-size="14.00">Course</text>
</g>
<!-- example.org/id/course/x -->
<g id="node2" class="node">
<title>example.org/id/course/x</title>
<ellipse fill="none" stroke="#558855" cx="654.35" cy="-272" rx="122.38" ry="18"/>
<text text-anchor="middle" x="654.35" y="-268.3" font-family="Times,serif" font-size="14.00">example.org/id/course/x</text>
</g>
<!-- example.org/id/course/x&#45;&gt;Course -->
<g id="edge1" class="edge">
<title>example.org/id/course/x&#45;&gt;Course</title>
<path fill="none" stroke="black" d="M726.84,-286.57C748.57,-290.95 772.52,-295.72 794.54,-300 854.69,-311.69 924.03,-324.6 969.45,-332.98"/>
<polygon fill="black" stroke="black" points="968.87,-336.43 979.34,-334.8 970.14,-329.54 968.87,-336.43"/>
<text text-anchor="middle" x="835.04" y="-318.8" font-family="Times,serif" font-size="14.00">type</text>
</g>
<!-- &quot;In this course ...&quot; -->
<g id="node3" class="node">
<title>&quot;In this course ...&quot;</title>
<ellipse fill="none" stroke="black" stroke-width="0" cx="1019.63" cy="-288" rx="94.78" ry="18"/>
<text text-anchor="middle" x="1019.63" y="-284.3" font-family="Times,serif" font-size="14.00">&quot;In this course ...&quot;</text>
</g>
<!-- example.org/id/course/x&#45;&gt;&quot;In this course ...&quot; -->
<g id="edge2" class="edge">
<title>example.org/id/course/x&#45;&gt;&quot;In this course ...&quot;</title>
<path fill="none" stroke="black" d="M771.55,-277.12C818.25,-279.17 871.62,-281.53 916.78,-283.51"/>
<polygon fill="black" stroke="black" points="916.73,-287.02 926.88,-283.96 917.04,-280.02 916.73,-287.02"/>
<text text-anchor="middle" x="835.04" y="-284.8" font-family="Times,serif" font-size="14.00">description</text>
</g>
<!-- &quot;URL to the course&quot; -->
<g id="node4" class="node">
<title>&quot;URL to the course&quot;</title>
<ellipse fill="none" stroke="black" stroke-width="0" cx="1019.63" cy="-234" rx="103.98" ry="18"/>
<text text-anchor="middle" x="1019.63" y="-230.3" font-family="Times,serif" font-size="14.00">&quot;URL to the course&quot;</text>
</g>
<!-- example.org/id/course/x&#45;&gt;&quot;URL to the course&quot; -->
<g id="edge3" class="edge">
<title>example.org/id/course/x&#45;&gt;&quot;URL to the course&quot;</title>
<path fill="none" stroke="black" d="M754.62,-261.62C806.12,-256.23 868.83,-249.67 920.21,-244.29"/>
<polygon fill="black" stroke="black" points="920.75,-247.76 930.33,-243.24 920.02,-240.8 920.75,-247.76"/>
<text text-anchor="middle" x="835.04" y="-259.8" font-family="Times,serif" font-size="14.00">url</text>
</g>
<!-- Person -->
<g id="node5" class="node">
<title>Person</title>
<ellipse fill="none" stroke="#558855" cx="654.35" cy="-202" rx="42.49" ry="18"/>
<text text-anchor="middle" x="654.35" y="-198.3" font-family="Times,serif" font-size="14.00">Person</text>
</g>
<!-- example.org/permanentUrlToThisJsonDoc -->
<g id="node6" class="node">
<title>example.org/permanentUrlToThisJsonDoc</title>
<ellipse fill="none" stroke="black" cx="204.08" cy="-183" rx="204.16" ry="18"/>
<text text-anchor="middle" x="204.08" y="-179.3" font-family="Times,serif" font-size="14.00">example.org/permanentUrlToThisJsonDoc</text>
</g>
<!-- example.org/permanentUrlToThisJsonDoc&#45;&gt;example.org/id/course/x -->
<g id="edge5" class="edge">
<title>example.org/permanentUrlToThisJsonDoc&#45;&gt;example.org/id/course/x</title>
<path fill="none" stroke="black" d="M287.82,-199.43C368.37,-215.42 490.09,-239.58 570.63,-255.58"/>
<polygon fill="black" stroke="black" points="570.24,-259.07 580.73,-257.58 571.6,-252.2 570.24,-259.07"/>
<text text-anchor="middle" x="470.16" y="-246.8" font-family="Times,serif" font-size="14.00">knowsAbout</text>
</g>
<!-- example.org/permanentUrlToThisJsonDoc&#45;&gt;Person -->
<g id="edge4" class="edge">
<title>example.org/permanentUrlToThisJsonDoc&#45;&gt;Person</title>
<path fill="none" stroke="black" d="M388.38,-190.77C465.73,-194.05 549.79,-197.61 602.02,-199.82"/>
<polygon fill="black" stroke="black" points="601.9,-203.32 612.03,-200.25 602.19,-196.33 601.9,-203.32"/>
<text text-anchor="middle" x="470.16" y="-198.8" font-family="Times,serif" font-size="14.00">type</text>
</g>
<!-- _ -->
<g id="node7" class="node">
<title>_</title>
<ellipse fill="none" stroke="#558855" cx="654.35" cy="-126" rx="27" ry="18"/>
<text text-anchor="middle" x="654.35" y="-122.3" font-family="Times,serif" font-size="14.00">_</text>
</g>
<!-- example.org/permanentUrlToThisJsonDoc&#45;&gt;_ -->
<g id="edge6" class="edge">
<title>example.org/permanentUrlToThisJsonDoc&#45;&gt;_</title>
<path fill="none" stroke="black" d="M321.11,-168.25C419.2,-155.77 553.62,-138.68 617.21,-130.6"/>
<polygon fill="black" stroke="black" points="618.03,-134.02 627.51,-129.29 617.15,-127.08 618.03,-134.02"/>
<text text-anchor="middle" x="470.16" y="-157.8" font-family="Times,serif" font-size="14.00">knowsAbout</text>
</g>
<!-- example.org/permanentUrlToThisJsonDoc&#45;&gt;_ -->
<g id="edge7" class="edge">
<title>example.org/permanentUrlToThisJsonDoc&#45;&gt;_</title>
<path fill="none" stroke="black" d="M256.6,-165.46C300.94,-151.34 366.93,-132.64 426.16,-125 464.95,-120 475.05,-124.86 514.16,-125 549.09,-125.13 588.95,-125.43 617.03,-125.67"/>
<polygon fill="black" stroke="black" points="617.16,-129.17 627.19,-125.76 617.22,-122.17 617.16,-129.17"/>
<text text-anchor="middle" x="470.16" y="-128.8" font-family="Times,serif" font-size="14.00">knowsAbout</text>
</g>
<!-- Text -->
<g id="node8" class="node">
<title>Text</title>
<ellipse fill="none" stroke="#558855" cx="1019.63" cy="-180" rx="30.59" ry="18"/>
<text text-anchor="middle" x="1019.63" y="-176.3" font-family="Times,serif" font-size="14.00">Text</text>
</g>
<!-- _&#45;&gt;Text -->
<g id="edge8" class="edge">
<title>_&#45;&gt;Text</title>
<path fill="none" stroke="black" d="M680.9,-129.8C743.6,-139.12 905.4,-163.17 979.96,-174.25"/>
<polygon fill="black" stroke="black" points="979.48,-177.72 989.88,-175.73 980.51,-170.79 979.48,-177.72"/>
<text text-anchor="middle" x="835.04" y="-160.8" font-family="Times,serif" font-size="14.00">type</text>
</g>
<!-- &quot;Invasive species in ...&quot; -->
<g id="node9" class="node">
<title>&quot;Invasive species in ...&quot;</title>
<ellipse fill="none" stroke="black" stroke-width="0" cx="1019.63" cy="-126" rx="118.08" ry="18"/>
<text text-anchor="middle" x="1019.63" y="-122.3" font-family="Times,serif" font-size="14.00">&quot;Invasive species in ...&quot;</text>
</g>
<!-- _&#45;&gt;&quot;Invasive species in ...&quot; -->
<g id="edge9" class="edge">
<title>_&#45;&gt;&quot;Invasive species in ...&quot;</title>
<path fill="none" stroke="black" d="M681.48,-126C725,-126 815.07,-126 891.17,-126"/>
<polygon fill="black" stroke="black" points="891.33,-129.5 901.33,-126 891.33,-122.5 891.33,-129.5"/>
<text text-anchor="middle" x="835.04" y="-129.8" font-family="Times,serif" font-size="14.00">description</text>
</g>
<!-- URL -->
<g id="node10" class="node">
<title>URL</title>
<ellipse fill="none" stroke="#558855" cx="1019.63" cy="-72" rx="31.4" ry="18"/>
<text text-anchor="middle" x="1019.63" y="-68.3" font-family="Times,serif" font-size="14.00">URL</text>
</g>
<!-- _&#45;&gt;URL -->
<g id="edge10" class="edge">
<title>_&#45;&gt;URL</title>
<path fill="none" stroke="black" d="M680.9,-122.2C743.37,-112.92 904.21,-89.01 979.13,-77.87"/>
<polygon fill="black" stroke="black" points="979.74,-81.32 989.12,-76.39 978.71,-74.4 979.74,-81.32"/>
<text text-anchor="middle" x="835.04" y="-107.8" font-family="Times,serif" font-size="14.00">type</text>
</g>
<!-- &quot;https//www.wikidata....&quot; -->
<g id="node11" class="node">
<title>&quot;https//www.wikidata....&quot;</title>
<ellipse fill="none" stroke="black" stroke-width="0" cx="1019.63" cy="-18" rx="126.18" ry="18"/>
<text text-anchor="middle" x="1019.63" y="-14.3" font-family="Times,serif" font-size="14.00">&quot;https//www.wikidata....&quot;</text>
</g>
<!-- _&#45;&gt;&quot;https//www.wikidata....&quot; -->
<g id="edge11" class="edge">
<title>_&#45;&gt;&quot;https//www.wikidata....&quot;</title>
<path fill="none" stroke="black" d="M678.02,-117.1C719.99,-100.9 812.88,-66.29 893.54,-45 907.03,-41.44 921.42,-38.01 935.46,-34.84"/>
<polygon fill="black" stroke="black" points="936.6,-38.18 945.61,-32.59 935.08,-31.34 936.6,-38.18"/>
<text text-anchor="middle" x="835.04" y="-76.8" font-family="Times,serif" font-size="14.00">url</text>
</g>
</g>
</svg>