<?xml version="1.0" encoding="UTF-8" standalone="no"?>
<!DOCTYPE svg PUBLIC "-//W3C//DTD SVG 1.1//EN"
 "http://www.w3.org/Graphics/SVG/1.1/DTD/svg11.dtd">
<!-- Generated by graphviz version 2.43.0 (0)
 -->
<!-- Title: %3 Pages: 1 -->
<svg width="1356pt" height="875pt"
 viewBox="0.00 0.00 1355.61 875.00" xmlns="http://www.w3.org/2000/svg" xmlns:xlink="http://www.w3.org/1999/xlink">
<g id="graph0" class="graph" transform="scale(1 1) rotate(0) translate(4 871)">
<title>%3</title>
<polygon fill="white" stroke="transparent" points="-4,4 -4,-871 1351.61,-871 1351.61,4 -4,4"/>
<!-- Course -->
<g id="node1" class="node">
<title>Course</title>
<ellipse fill="none" stroke="#558855" cx="739.4" cy="-699" rx="43.59" ry="18"/>
<text text-anchor="middle" x="739.4" y="-695.3" font-family="Times,serif" font-size="14.00">Course</text>
</g>
<!-- example.org/permanentUrlToThisJsonDoc -->
<g id="node2" class="node">
<title>example.org/permanentUrlToThisJsonDoc</title>
<ellipse fill="none" stroke="black" cx="204.08" cy="-515" rx="204.16" ry="18"/>
<text text-anchor="middle" x="204.08" y="-511.3" font-family="Times,serif" font-size="14.00">example.org/permanentUrlToThisJsonDoc</text>
</g>
<!-- example.org/permanentUrlToThisJsonDoc&#45;&gt;Course -->
<g id="edge1" class="edge">
<title>example.org/permanentUrlToThisJsonDoc&#45;&gt;Course</title>
<path fill="none" stroke="black" d="M233.34,-532.98C274.38,-558.4 353.53,-604.9 426.16,-633 492.01,-658.48 511.09,-657.38 580.16,-672 616.05,-679.59 656.86,-686.52 688.05,-691.45"/>
<polygon fill="black" stroke="black" points="687.82,-694.96 698.24,-693.05 688.9,-688.04 687.82,-694.96"/>
<text text-anchor="middle" x="494.16" y="-671.8" font-family="Times,serif" font-size="14.00">type</text>
</g>
<!-- &quot;SD100&quot; -->
<g id="node3" class="node">
<title>&quot;SD100&quot;</title>
<ellipse fill="none" stroke="black" stroke-width="0" cx="739.4" cy="-645" rx="50.89" ry="18"/>
<text text-anchor="middle" x="739.4" y="-641.3" font-family="Times,serif" font-size="14.00">&quot;SD100&quot;</text>
</g>
<!-- example.org/permanentUrlToThisJsonDoc&#45;&gt;&quot;SD100&quot; -->
<g id="edge2" class="edge">
<title>example.org/permanentUrlToThisJsonDoc&#45;&gt;&quot;SD100&quot;</title>
<path fill="none" stroke="black" d="M257.92,-532.47C302.51,-546.92 368.16,-567.51 426.16,-583 493.98,-601.11 511.32,-604.31 580.16,-618 614.05,-624.74 652.23,-631.28 682.6,-636.24"/>
<polygon fill="black" stroke="black" points="682.15,-639.71 692.58,-637.86 683.27,-632.8 682.15,-639.71"/>
<text text-anchor="middle" x="494.16" y="-617.8" font-family="Times,serif" font-size="14.00">courseCode</text>
</g>
<!-- &quot;An introduction to author...&quot; -->
<g id="node4" class="node">
<title>&quot;An introduction to author...&quot;</title>
<ellipse fill="none" stroke="black" stroke-width="0" cx="739.4" cy="-591" rx="145.67" ry="18"/>
<text text-anchor="middle" x="739.4" y="-587.3" font-family="Times,serif" font-size="14.00">&quot;An introduction to author...&quot;</text>
</g>
<!-- example.org/permanentUrlToThisJsonDoc&#45;&gt;&quot;An introduction to author...&quot; -->
<g id="edge3" class="edge">
<title>example.org/permanentUrlToThisJsonDoc&#45;&gt;&quot;An introduction to author...&quot;</title>
<path fill="none" stroke="black" d="M312.37,-530.29C405.84,-543.61 540.58,-562.81 633.38,-576.03"/>
<polygon fill="black" stroke="black" points="632.96,-579.51 643.35,-577.46 633.95,-572.58 632.96,-579.51"/>
<text text-anchor="middle" x="494.16" y="-567.8" font-family="Times,serif" font-size="14.00">description</text>
</g>
<!-- _ -->
<g id="node5" class="node">
<title>_</title>
<ellipse fill="none" stroke="#558855" cx="739.4" cy="-504" rx="27" ry="18"/>
<text text-anchor="middle" x="739.4" y="-500.3" font-family="Times,serif" font-size="14.00">_</text>
</g>
<!-- example.org/permanentUrlToThisJsonDoc&#45;&gt;_ -->
<g id="edge4" class="edge">
<title>example.org/permanentUrlToThisJsonDoc&#45;&gt;_</title>
<path fill="none" stroke="black" d="M408.57,-514.59C458.79,-514.13 512.43,-513.34 562.16,-512 610.58,-510.7 666.43,-507.95 702.06,-506.04"/>
<polygon fill="black" stroke="black" points="702.64,-509.52 712.43,-505.48 702.26,-502.53 702.64,-509.52"/>
<text text-anchor="middle" x="494.16" y="-517.8" font-family="Times,serif" font-size="14.00">hasCourseInstance</text>
</g>
<!-- example.org/permanentUrlToThisJsonDoc&#45;&gt;_ -->
<g id="edge5" class="edge">
<title>example.org/permanentUrlToThisJsonDoc&#45;&gt;_</title>
<path fill="none" stroke="black" d="M327.42,-500.64C359.5,-497.47 394.09,-494.59 426.16,-493 486.53,-490 501.75,-491.12 562.16,-493 610.62,-494.51 666.46,-498.35 702.07,-501.07"/>
<polygon fill="black" stroke="black" points="702.2,-504.59 712.44,-501.87 702.74,-497.61 702.2,-504.59"/>
<text text-anchor="middle" x="494.16" y="-496.8" font-family="Times,serif" font-size="14.00">hasCourseInstance</text>
</g>
<!-- &quot;Structured Data&quot; -->
<g id="node6" class="node">
<title>&quot;Structured Data&quot;</title>
<ellipse fill="none" stroke="black" stroke-width="0" cx="739.4" cy="-450" rx="94.78" ry="18"/>
<text text-anchor="middle" x="739.4" y="-446.3" font-family="Times,serif" font-size="14.00">&quot;Structured Data&quot;</text>
</g>
<!-- example.org/permanentUrlToThisJsonDoc&#45;&gt;&quot;Structured Data&quot; -->
<g id="edge6" class="edge">
<title>example.org/permanentUrlToThisJsonDoc&#45;&gt;&quot;Structured Data&quot;</title>
<path fill="none" stroke="black" d="M279.16,-498.25C321.92,-489.17 376.83,-478.51 426.16,-472 495.95,-462.79 575.06,-457.27 636.19,-454.06"/>
<polygon fill="black" stroke="black" points="636.42,-457.55 646.22,-453.54 636.06,-450.56 636.42,-457.55"/>
<text text-anchor="middle" x="494.16" y="-475.8" font-family="Times,serif" font-size="14.00">name</text>
</g>
<!-- grid.ac/institutes/grid.475727.4 -->
<g id="node7" class="node">
<title>grid.ac/institutes/grid.475727.4</title>
<ellipse fill="none" stroke="#558855" cx="739.4" cy="-126" rx="159.47" ry="18"/>
<text text-anchor="middle" x="739.4" y="-122.3" font-family="Times,serif" font-size="14.00">grid.ac/institutes/grid.475727.4</text>
</g>
<!-- example.org/permanentUrlToThisJsonDoc&#45;&gt;grid.ac/institutes/grid.475727.4 -->
<g id="edge7" class="edge">
<title>example.org/permanentUrlToThisJsonDoc&#45;&gt;grid.ac/institutes/grid.475727.4</title>
<path fill="none" stroke="black" d="M229.74,-497.02C316.44,-433.78 607.37,-221.57 705.65,-149.89"/>
<polygon fill="black" stroke="black" points="707.99,-152.51 714.01,-143.79 703.87,-146.86 707.99,-152.51"/>
<text text-anchor="middle" x="494.16" y="-346.8" font-family="Times,serif" font-size="14.00">provider</text>
</g>
<!-- &quot;JSON&#45;LD&quot; -->
<g id="node8" class="node">
<title>&quot;JSON&#45;LD&quot;</title>
<ellipse fill="none" stroke="black" stroke-width="0" cx="739.4" cy="-72" rx="60.39" ry="18"/>
<text text-anchor="middle" x="739.4" y="-68.3" font-family="Times,serif" font-size="14.00">&quot;JSON&#45;LD&quot;</text>
</g>
<!-- example.org/permanentUrlToThisJsonDoc&#45;&gt;&quot;JSON&#45;LD&quot; -->
<g id="edge8" class="edge">
<title>example.org/permanentUrlToThisJsonDoc&#45;&gt;&quot;JSON&#45;LD&quot;</title>
<path fill="none" stroke="black" d="M214.62,-496.91C251.15,-429.71 389.81,-193.41 580.16,-99 607.52,-85.43 640.45,-78.53 669.17,-75.08"/>
<polygon fill="black" stroke="black" points="669.57,-78.55 679.14,-73.99 668.82,-71.6 669.57,-78.55"/>
<text text-anchor="middle" x="494.16" y="-208.8" font-family="Times,serif" font-size="14.00">teaches</text>
</g>
<!-- _&#45;&gt;_ -->
<g id="edge13" class="edge">
<title>_&#45;&gt;_</title>
<path fill="none" stroke="black" d="M714.67,-511.6C686.25,-524 694.5,-540 739.4,-540 778.69,-540 789.91,-527.75 773.07,-516.38"/>
<polygon fill="black" stroke="black" points="774.6,-513.23 764.13,-511.6 771.3,-519.4 774.6,-513.23"/>
<text text-anchor="middle" x="739.4" y="-543.8" font-family="Times,serif" font-size="14.00">attendee</text>
</g>
<!-- CourseInstance -->
<g id="node12" class="node">
<title>CourseInstance</title>
<ellipse fill="none" stroke="#558855" cx="1185.12" cy="-831" rx="83.39" ry="18"/>
<text text-anchor="middle" x="1185.12" y="-827.3" font-family="Times,serif" font-size="14.00">CourseInstance</text>
</g>
<!-- _&#45;&gt;CourseInstance -->
<g id="edge12" class="edge">
<title>_&#45;&gt;CourseInstance</title>
<path fill="none" stroke="black" d="M766.51,-505.61C802.73,-509.37 867.3,-521.95 898.64,-564 931.65,-608.31 877.53,-772.96 916.64,-812 969.61,-864.89 1061.57,-858.84 1122.64,-847.02"/>
<polygon fill="black" stroke="black" points="1123.44,-850.43 1132.54,-845 1122.04,-843.57 1123.44,-850.43"/>
<text text-anchor="middle" x="960.64" y="-855.8" font-family="Times,serif" font-size="14.00">type</text>
</g>
<!-- _&#45;&gt;CourseInstance -->
<g id="edge18" class="edge">
<title>_&#45;&gt;CourseInstance</title>
<path fill="none" stroke="black" d="M766.43,-505.67C802.55,-509.5 867,-522.17 898.64,-564 926.49,-600.83 886.67,-735.87 916.64,-771 942.8,-801.67 966.52,-779.88 1004.64,-793 1012.91,-795.85 1014.27,-798.4 1022.64,-801 1048.6,-809.06 1077.61,-815.27 1103.81,-819.9"/>
<polygon fill="black" stroke="black" points="1103.25,-823.36 1113.7,-821.6 1104.44,-816.46 1103.25,-823.36"/>
<text text-anchor="middle" x="960.64" y="-796.8" font-family="Times,serif" font-size="14.00">type</text>
</g>
<!-- &quot;MOOC1&quot; -->
<g id="node13" class="node">
<title>&quot;MOOC1&quot;</title>
<ellipse fill="none" stroke="black" stroke-width="0" cx="1185.12" cy="-774" rx="55.79" ry="18"/>
<text text-anchor="middle" x="1185.12" y="-770.3" font-family="Times,serif" font-size="14.00">&quot;MOOC1&quot;</text>
</g>
<!-- _&#45;&gt;&quot;MOOC1&quot; -->
<g id="edge14" class="edge">
<title>_&#45;&gt;&quot;MOOC1&quot;</title>
<path fill="none" stroke="black" d="M766.31,-505.75C802.3,-509.7 866.58,-522.49 898.64,-564 921.58,-593.72 890.74,-704.81 916.64,-732 930.57,-746.63 1046.41,-760.55 1121.01,-768.12"/>
<polygon fill="black" stroke="black" points="1120.95,-771.63 1131.25,-769.14 1121.65,-764.66 1120.95,-771.63"/>
<text text-anchor="middle" x="960.64" y="-755.8" font-family="Times,serif" font-size="14.00">courseMode</text>
</g>
<!-- &quot;online&quot; -->
<g id="node14" class="node">
<title>&quot;online&quot;</title>
<ellipse fill="none" stroke="black" stroke-width="0" cx="1185.12" cy="-720" rx="48.19" ry="18"/>
<text text-anchor="middle" x="1185.12" y="-716.3" font-family="Times,serif" font-size="14.00">&quot;online&quot;</text>
</g>
<!-- _&#45;&gt;&quot;online&quot; -->
<g id="edge15" class="edge">
<title>_&#45;&gt;&quot;online&quot;</title>
<path fill="none" stroke="black" d="M766.46,-505.91C802.32,-510.03 866.12,-523.04 898.64,-564 936,-611.06 873.07,-656.62 916.64,-698 931.52,-712.14 1052.65,-717.24 1126.7,-719.04"/>
<polygon fill="black" stroke="black" points="1126.75,-722.54 1136.83,-719.27 1126.91,-715.54 1126.75,-722.54"/>
<text text-anchor="middle" x="960.64" y="-716.8" font-family="Times,serif" font-size="14.00">courseMode</text>
</g>
<!-- _&#45;&gt;&quot;online&quot; -->
<g id="edge20" class="edge">
<title>_&#45;&gt;&quot;online&quot;</title>
<path fill="none" stroke="black" d="M766.39,-506.25C801.86,-510.78 864.88,-524.25 898.64,-564 924.76,-594.76 889.38,-623.24 916.64,-653 944.18,-683.07 968.35,-660.38 1004.64,-679 1013.65,-683.63 1013.35,-688.93 1022.64,-693 1055.52,-707.42 1095.27,-714.19 1127.11,-717.34"/>
<polygon fill="black" stroke="black" points="1126.87,-720.83 1137.15,-718.24 1127.5,-713.86 1126.87,-720.83"/>
<text text-anchor="middle" x="960.64" y="-682.8" font-family="Times,serif" font-size="14.00">courseMode</text>
</g>
<!-- &quot;2019&#45;03&#45;21&quot; -->
<g id="node15" class="node">
<title>&quot;2019&#45;03&#45;21&quot;</title>
<ellipse fill="none" stroke="black" stroke-width="0" cx="1185.12" cy="-666" rx="72.29" ry="18"/>
<text text-anchor="middle" x="1185.12" y="-662.3" font-family="Times,serif" font-size="14.00">&quot;2019&#45;03&#45;21&quot;</text>
</g>
<!-- _&#45;&gt;&quot;2019&#45;03&#45;21&quot; -->
<g id="edge16" class="edge">
<title>_&#45;&gt;&quot;2019&#45;03&#45;21&quot;</title>
<path fill="none" stroke="black" d="M766.03,-507.95C799.96,-514.34 859.98,-529.88 898.64,-564 911.45,-575.31 903.85,-586.64 916.64,-598 954.39,-631.55 973.92,-625.65 1022.64,-639 1050.71,-646.69 1082.17,-652.55 1109.81,-656.81"/>
<polygon fill="black" stroke="black" points="1109.4,-660.29 1119.81,-658.31 1110.44,-653.37 1109.4,-660.29"/>
<text text-anchor="middle" x="960.64" y="-637.8" font-family="Times,serif" font-size="14.00">endDate</text>
</g>
<!-- &quot;2019&#45;02&#45;15&quot; -->
<g id="node16" class="node">
<title>&quot;2019&#45;02&#45;15&quot;</title>
<ellipse fill="none" stroke="black" stroke-width="0" cx="1185.12" cy="-612" rx="72.29" ry="18"/>
<text text-anchor="middle" x="1185.12" y="-608.3" font-family="Times,serif" font-size="14.00">&quot;2019&#45;02&#45;15&quot;</text>
</g>
<!-- _&#45;&gt;&quot;2019&#45;02&#45;15&quot; -->
<g id="edge17" class="edge">
<title>_&#45;&gt;&quot;2019&#45;02&#45;15&quot;</title>
<path fill="none" stroke="black" d="M763.95,-511.75C812.09,-527.36 925.43,-563 1022.64,-585 1051.52,-591.54 1083.65,-597.23 1111.59,-601.68"/>
<polygon fill="black" stroke="black" points="1111.26,-605.17 1121.68,-603.26 1112.35,-598.25 1111.26,-605.17"/>
<text text-anchor="middle" x="960.64" y="-582.8" font-family="Times,serif" font-size="14.00">startDate</text>
</g>
<!-- &quot;MOOC2&quot; -->
<g id="node17" class="node">
<title>&quot;MOOC2&quot;</title>
<ellipse fill="none" stroke="black" stroke-width="0" cx="1185.12" cy="-558" rx="55.79" ry="18"/>
<text text-anchor="middle" x="1185.12" y="-554.3" font-family="Times,serif" font-size="14.00">&quot;MOOC2&quot;</text>
</g>
<!-- _&#45;&gt;&quot;MOOC2&quot; -->
<g id="edge19" class="edge">
<title>_&#45;&gt;&quot;MOOC2&quot;</title>
<path fill="none" stroke="black" d="M766.17,-507.14C834.86,-515.5 1023.78,-538.49 1122.39,-550.49"/>
<polygon fill="black" stroke="black" points="1122.16,-553.98 1132.51,-551.72 1123,-547.04 1122.16,-553.98"/>
<text text-anchor="middle" x="960.64" y="-538.8" font-family="Times,serif" font-size="14.00">courseMode</text>
</g>
<!-- &quot;2019&#45;05&#45;21&quot; -->
<g id="node18" class="node">
<title>&quot;2019&#45;05&#45;21&quot;</title>
<ellipse fill="none" stroke="black" stroke-width="0" cx="1185.12" cy="-504" rx="72.29" ry="18"/>
<text text-anchor="middle" x="1185.12" y="-500.3" font-family="Times,serif" font-size="14.00">&quot;2019&#45;05&#45;21&quot;</text>
</g>
<!-- _&#45;&gt;&quot;2019&#45;05&#45;21&quot; -->
<g id="edge21" class="edge">
<title>_&#45;&gt;&quot;2019&#45;05&#45;21&quot;</title>
<path fill="none" stroke="black" d="M766.5,-504C831.07,-504 1000.42,-504 1102.54,-504"/>
<polygon fill="black" stroke="black" points="1102.82,-507.5 1112.82,-504 1102.82,-500.5 1102.82,-507.5"/>
<text text-anchor="middle" x="960.64" y="-507.8" font-family="Times,serif" font-size="14.00">endDate</text>
</g>
<!-- &quot;2019&#45;04&#45;15&quot; -->
<g id="node19" class="node">
<title>&quot;2019&#45;04&#45;15&quot;</title>
<ellipse fill="none" stroke="black" stroke-width="0" cx="1185.12" cy="-450" rx="72.29" ry="18"/>
<text text-anchor="middle" x="1185.12" y="-446.3" font-family="Times,serif" font-size="14.00">&quot;2019&#45;04&#45;15&quot;</text>
</g>
<!-- _&#45;&gt;&quot;2019&#45;04&#45;15&quot; -->
<g id="edge22" class="edge">
<title>_&#45;&gt;&quot;2019&#45;04&#45;15&quot;</title>
<path fill="none" stroke="black" d="M766.17,-500.86C831.98,-492.85 1008.14,-471.42 1109.52,-459.08"/>
<polygon fill="black" stroke="black" points="1110.19,-462.52 1119.69,-457.84 1109.34,-455.58 1110.19,-462.52"/>
<text text-anchor="middle" x="960.64" y="-484.8" font-family="Times,serif" font-size="14.00">startDate</text>
</g>
<!-- Person -->
<g id="node20" class="node">
<title>Person</title>
<ellipse fill="none" stroke="#558855" cx="1185.12" cy="-396" rx="42.49" ry="18"/>
<text text-anchor="middle" x="1185.12" y="-392.3" font-family="Times,serif" font-size="14.00">Person</text>
</g>
<!-- _&#45;&gt;Person -->
<g id="edge23" class="edge">
<title>_&#45;&gt;Person</title>
<path fill="none" stroke="black" d="M766.54,-505.25C799.69,-505.62 857.49,-502.12 898.64,-477 910.02,-470.05 905.64,-460.55 916.64,-453 981.68,-408.35 1074.97,-397.65 1132.45,-395.64"/>
<polygon fill="black" stroke="black" points="1132.84,-399.13 1142.74,-395.36 1132.65,-392.13 1132.84,-399.13"/>
<text text-anchor="middle" x="960.64" y="-456.8" font-family="Times,serif" font-size="14.00">type</text>
</g>
<!-- &quot;Professor&quot; -->
<g id="node21" class="node">
<title>&quot;Professor&quot;</title>
<ellipse fill="none" stroke="black" stroke-width="0" cx="1185.12" cy="-342" rx="63.89" ry="18"/>
<text text-anchor="middle" x="1185.12" y="-338.3" font-family="Times,serif" font-size="14.00">&quot;Professor&quot;</text>
</g>
<!-- _&#45;&gt;&quot;Professor&quot; -->
<g id="edge24" class="edge">
<title>_&#45;&gt;&quot;Professor&quot;</title>
<path fill="none" stroke="black" d="M766.11,-507.6C800.96,-510.92 862.94,-511.05 898.64,-477 925.63,-451.24 890.58,-421.7 916.64,-395 967.5,-342.87 1053.84,-334.26 1114.64,-335.68"/>
<polygon fill="black" stroke="black" points="1114.81,-339.19 1124.92,-336.02 1115.05,-332.19 1114.81,-339.19"/>
<text text-anchor="middle" x="960.64" y="-398.8" font-family="Times,serif" font-size="14.00">jobTitle</text>
</g>
<!-- &quot;Jane Doe&quot; -->
<g id="node22" class="node">
<title>&quot;Jane Doe&quot;</title>
<ellipse fill="none" stroke="black" stroke-width="0" cx="1185.12" cy="-288" rx="60.39" ry="18"/>
<text text-anchor="middle" x="1185.12" y="-284.3" font-family="Times,serif" font-size="14.00">&quot;Jane Doe&quot;</text>
</g>
<!-- _&#45;&gt;&quot;Jane Doe&quot; -->
<g id="edge25" class="edge">
<title>_&#45;&gt;&quot;Jane Doe&quot;</title>
<path fill="none" stroke="black" d="M765.98,-508C801.27,-511.93 864.4,-512.89 898.64,-477 944.07,-429.37 870.89,-377.32 916.64,-330 968.91,-275.93 1060.32,-273.04 1121.53,-278.47"/>
<polygon fill="black" stroke="black" points="1121.54,-281.99 1131.84,-279.49 1122.23,-275.03 1121.54,-281.99"/>
<text text-anchor="middle" x="960.64" y="-333.8" font-family="Times,serif" font-size="14.00">name</text>
</g>
<!-- &quot;(425) 123&#45;4567&quot; -->
<g id="node23" class="node">
<title>&quot;(425) 123&#45;4567&quot;</title>
<ellipse fill="none" stroke="black" stroke-width="0" cx="1185.12" cy="-234" rx="90.98" ry="18"/>
<text text-anchor="middle" x="1185.12" y="-230.3" font-family="Times,serif" font-size="14.00">&quot;(425) 123&#45;4567&quot;</text>
</g>
<!-- _&#45;&gt;&quot;(425) 123&#45;4567&quot; -->
<g id="edge26" class="edge">
<title>_&#45;&gt;&quot;(425) 123&#45;4567&quot;</title>
<path fill="none" stroke="black" d="M765.87,-508.14C801.32,-512.3 864.97,-513.63 898.64,-477 930.63,-442.19 883.72,-298.94 916.64,-265 965.89,-214.22 1050.38,-212.64 1111.23,-219.84"/>
<polygon fill="black" stroke="black" points="1110.8,-223.31 1121.17,-221.12 1111.7,-216.37 1110.8,-223.31"/>
<text text-anchor="middle" x="960.64" y="-268.8" font-family="Times,serif" font-size="14.00">telephone</text>
</g>
<!-- &quot;http//www.janedoe.com&quot; -->
<g id="node24" class="node">
<title>&quot;http//www.janedoe.com&quot;</title>
<ellipse fill="none" stroke="black" stroke-width="0" cx="1185.12" cy="-180" rx="128.08" ry="18"/>
<text text-anchor="middle" x="1185.12" y="-176.3" font-family="Times,serif" font-size="14.00">&quot;http//www.janedoe.com&quot;</text>
</g>
<!-- _&#45;&gt;&quot;http//www.janedoe.com&quot; -->
<g id="edge27" class="edge">
<title>_&#45;&gt;&quot;http//www.janedoe.com&quot;</title>
<path fill="none" stroke="black" d="M765.67,-508.2C801.18,-512.49 865.24,-514.05 898.64,-477 939.64,-431.51 873.69,-245.66 916.64,-202 965.92,-151.88 1050,-153.19 1110.76,-162.72"/>
<polygon fill="black" stroke="black" points="1110.24,-166.18 1120.68,-164.38 1111.39,-159.28 1110.24,-166.18"/>
<text text-anchor="middle" x="960.64" y="-205.8" font-family="Times,serif" font-size="14.00">url</text>
</g>
<!-- Organization -->
<g id="node9" class="node">
<title>Organization</title>
<ellipse fill="none" stroke="#558855" cx="1185.12" cy="-126" rx="70.69" ry="18"/>
<text text-anchor="middle" x="1185.12" y="-122.3" font-family="Times,serif" font-size="14.00">Organization</text>
</g>
<!-- grid.ac/institutes/grid.475727.4&#45;&gt;Organization -->
<g id="edge9" class="edge">
<title>grid.ac/institutes/grid.475727.4&#45;&gt;Organization</title>
<path fill="none" stroke="black" d="M898.71,-126C968.33,-126 1047.06,-126 1104.17,-126"/>
<polygon fill="black" stroke="black" points="1104.22,-129.5 1114.22,-126 1104.22,-122.5 1104.22,-129.5"/>
<text text-anchor="middle" x="960.64" y="-129.8" font-family="Times,serif" font-size="14.00">type</text>
</g>
<!-- &quot;UN Department of Economic...&quot; -->
<g id="node10" class="node">
<title>&quot;UN Department of Economic...&quot;</title>
<ellipse fill="none" stroke="black" stroke-width="0" cx="1185.12" cy="-72" rx="162.47" ry="18"/>
<text text-anchor="middle" x="1185.12" y="-68.3" font-family="Times,serif" font-size="14.00">&quot;UN Department of Economic...&quot;</text>
</g>
<!-- grid.ac/institutes/grid.475727.4&#45;&gt;&quot;UN Department of Economic...&quot; -->
<g id="edge10" class="edge">
<title>grid.ac/institutes/grid.475727.4&#45;&gt;&quot;UN Department of Economic...&quot;</title>
<path fill="none" stroke="black" d="M848.38,-112.86C913.77,-104.9 997.27,-94.74 1064.64,-86.54"/>
<polygon fill="black" stroke="black" points="1065.38,-89.98 1074.89,-85.29 1064.54,-83.03 1065.38,-89.98"/>
<text text-anchor="middle" x="960.64" y="-106.8" font-family="Times,serif" font-size="14.00">description</text>
</g>
<!-- &quot;Example University&quot; -->
<g id="node11" class="node">
<title>&quot;Example University&quot;</title>
<ellipse fill="none" stroke="black" stroke-width="0" cx="1185.12" cy="-18" rx="111.58" ry="18"/>
<text text-anchor="middle" x="1185.12" y="-14.3" font-family="Times,serif" font-size="14.00">&quot;Example University&quot;</text>
</g>
<!-- grid.ac/institutes/grid.475727.4&#45;&gt;&quot;Example University&quot; -->
<g id="edge11" class="edge">
<title>grid.ac/institutes/grid.475727.4&#45;&gt;&quot;Example University&quot;</title>
<path fill="none" stroke="black" d="M863.46,-114.66C875.84,-110.72 887.81,-105.61 898.64,-99 910.02,-92.05 905.64,-82.55 916.64,-75 960.13,-45.15 1016.24,-30.47 1065.84,-23.42"/>
<polygon fill="black" stroke="black" points="1066.54,-26.86 1075.99,-22.07 1065.62,-19.92 1066.54,-26.86"/>
<text text-anchor="middle" x="960.64" y="-78.8" font-family="Times,serif" font-size="14.00">name</text>
</g>
</g>
</svg>