<?xml version="1.0" encoding="UTF-8" standalone="no"?>
<!DOCTYPE svg PUBLIC "-//W3C//DTD SVG 1.1//EN"
 "http://www.w3.org/Graphics/SVG/1.1/DTD/svg11.dtd">
<!-- Generated by graphviz version 2.43.0 (0)
 -->
<!-- Title: %3 Pages: 1 -->
<svg width="1197pt" height="206pt"
 viewBox="0.00 0.00 1196.71 206.00" xmlns="http://www.w3.org/2000/svg" xmlns:xlink="http://www.w3.org/1999/xlink">
<g id="graph0" class="graph" transform="scale(1 1) rotate(0) translate(4 202)">
<title>%3</title>
<polygon fill="white" stroke="transparent" points="-4,4 -4,-202 1192.71,-202 1192.71,4 -4,4"/>
<!-- Person -->
<g id="node1" class="node">
<title>Person</title>
<ellipse fill="none" stroke="#558855" cx="668.1" cy="-153" rx="42.49" ry="18"/>
<text text-anchor="middle" x="668.1" y="-149.3" font-family="Times,serif" font-size="14.00">Person</text>
</g>
<!-- example.org/permanentUrlToThisJsonDoc -->
<g id="node2" class="node">
<title>example.org/permanentUrlToThisJsonDoc</title>
<ellipse fill="none" stroke="black" cx="204.08" cy="-126" rx="204.16" ry="18"/>
<text text-anchor="middle" x="204.08" y="-122.3" font-family="Times,serif" font-size="14.00">example.org/permanentUrlToThisJsonDoc</text>
</g>
<!-- example.org/permanentUrlToThisJsonDoc&#45;&gt;Person -->
<g id="edge1" class="edge">
<title>example.org/permanentUrlToThisJsonDoc&#45;&gt;Person</title>
<path fill="none" stroke="black" d="M374.82,-135.92C460.3,-140.91 557.85,-146.62 615.85,-150"/>
<polygon fill="black" stroke="black" points="615.67,-153.5 625.86,-150.59 616.08,-146.51 615.67,-153.5"/>
<text text-anchor="middle" x="459.16" y="-145.8" font-family="Times,serif" font-size="14.00">type</text>
</g>
<!-- orcid.org/0000&#45;0002&#45;2257&#45;9127 -->
<g id="node3" class="node">
<title>orcid.org/0000&#45;0002&#45;2257&#45;9127</title>
<ellipse fill="none" stroke="#558855" cx="668.1" cy="-99" rx="157.87" ry="18"/>
<text text-anchor="middle" x="668.1" y="-95.3" font-family="Times,serif" font-size="14.00">orcid.org/0000&#45;0002&#45;2257&#45;9127</text>
</g>
<!-- example.org/permanentUrlToThisJsonDoc&#45;&gt;orcid.org/0000&#45;0002&#45;2257&#45;9127 -->
<g id="edge2" class="edge">
<title>example.org/permanentUrlToThisJsonDoc&#45;&gt;orcid.org/0000&#45;0002&#45;2257&#45;9127</title>
<path fill="none" stroke="black" d="M374.82,-116.08C421.37,-113.36 471.5,-110.43 516.87,-107.78"/>
<polygon fill="black" stroke="black" points="517.3,-111.26 527.07,-107.18 516.89,-104.27 517.3,-111.26"/>
<text text-anchor="middle" x="459.16" y="-115.8" font-family="Times,serif" font-size="14.00">identifier</text>
</g>
<!-- PropertyValue -->
<g id="node4" class="node">
<title>PropertyValue</title>
<ellipse fill="none" stroke="#558855" cx="1065.87" cy="-180" rx="77.19" ry="18"/>
<text text-anchor="middle" x="1065.87" y="-176.3" font-family="Times,serif" font-size="14.00">PropertyValue</text>
</g>
<!-- orcid.org/0000&#45;0002&#45;2257&#45;9127&#45;&gt;PropertyValue -->
<g id="edge3" class="edge">
<title>orcid.org/0000&#45;0002&#45;2257&#45;9127&#45;&gt;PropertyValue</title>
<path fill="none" stroke="black" d="M770.85,-112.71C789.4,-116.28 808.44,-120.67 826.04,-126 834.41,-128.54 835.7,-131.31 844.04,-134 891.76,-149.38 946.98,-160.88 990.27,-168.54"/>
<polygon fill="black" stroke="black" points="989.7,-171.99 1000.16,-170.26 990.9,-165.1 989.7,-171.99"/>
<text text-anchor="middle" x="884.54" y="-157.8" font-family="Times,serif" font-size="14.00">type</text>
</g>
<!-- &quot;Optional description...&quot; -->
<g id="node5" class="node">
<title>&quot;Optional description...&quot;</title>
<ellipse fill="none" stroke="black" stroke-width="0" cx="1065.87" cy="-126" rx="122.68" ry="18"/>
<text text-anchor="middle" x="1065.87" y="-122.3" font-family="Times,serif" font-size="14.00">&quot;Optional description...&quot;</text>
</g>
<!-- orcid.org/0000&#45;0002&#45;2257&#45;9127&#45;&gt;&quot;Optional description...&quot; -->
<g id="edge4" class="edge">
<title>orcid.org/0000&#45;0002&#45;2257&#45;9127&#45;&gt;&quot;Optional description...&quot;</title>
<path fill="none" stroke="black" d="M803.92,-108.2C849.33,-111.3 899.69,-114.73 943.96,-117.75"/>
<polygon fill="black" stroke="black" points="943.97,-121.26 954.19,-118.45 944.45,-114.28 943.97,-121.26"/>
<text text-anchor="middle" x="884.54" y="-118.8" font-family="Times,serif" font-size="14.00">description</text>
</g>
<!-- &quot;https//registry.iden...&quot; -->
<g id="node6" class="node">
<title>&quot;https//registry.iden...&quot;</title>
<ellipse fill="none" stroke="black" stroke-width="0" cx="1065.87" cy="-72" rx="116.98" ry="18"/>
<text text-anchor="middle" x="1065.87" y="-68.3" font-family="Times,serif" font-size="14.00">&quot;https//registry.iden...&quot;</text>
</g>
<!-- orcid.org/0000&#45;0002&#45;2257&#45;9127&#45;&gt;&quot;https//registry.iden...&quot; -->
<g id="edge5" class="edge">
<title>orcid.org/0000&#45;0002&#45;2257&#45;9127&#45;&gt;&quot;https//registry.iden...&quot;</title>
<path fill="none" stroke="black" d="M803.92,-89.8C850.88,-86.6 903.14,-83.03 948.48,-79.94"/>
<polygon fill="black" stroke="black" points="948.9,-83.42 958.64,-79.25 948.43,-76.44 948.9,-83.42"/>
<text text-anchor="middle" x="884.54" y="-89.8" font-family="Times,serif" font-size="14.00">propertyID</text>
</g>
<!-- &quot;https//orcid.org/000...&quot; -->
<g id="node7" class="node">
<title>&quot;https//orcid.org/000...&quot;</title>
<ellipse fill="none" stroke="black" stroke-width="0" cx="1065.87" cy="-18" rx="120.78" ry="18"/>
<text text-anchor="middle" x="1065.87" y="-14.3" font-family="Times,serif" font-size="14.00">&quot;https//orcid.org/000...&quot;</text>
</g>
<!-- orcid.org/0000&#45;0002&#45;2257&#45;9127&#45;&gt;&quot;https//orcid.org/000...&quot; -->
<g id="edge6" class="edge">
<title>orcid.org/0000&#45;0002&#45;2257&#45;9127&#45;&gt;&quot;https//orcid.org/000...&quot;</title>
<path fill="none" stroke="black" d="M745.3,-83.29C775.97,-76.97 811.68,-69.62 844.04,-63 890.35,-53.52 942.13,-42.96 983.91,-34.46"/>
<polygon fill="black" stroke="black" points="984.66,-37.88 993.76,-32.46 983.26,-31.02 984.66,-37.88"/>
<text text-anchor="middle" x="884.54" y="-66.8" font-family="Times,serif" font-size="14.00">url</text>
</g>
</g>
</svg>