<?xml version="1.0" encoding="UTF-8" standalone="no"?>
<!DOCTYPE svg PUBLIC "-//W3C//DTD SVG 1.1//EN"
 "http://www.w3.org/Graphics/SVG/1.1/DTD/svg11.dtd">
<!-- Generated by graphviz version 2.43.0 (0)
 -->
<!-- Title: %3 Pages: 1 -->
<svg width="1026pt" height="314pt"
 viewBox="0.00 0.00 1025.83 314.00" xmlns="http://www.w3.org/2000/svg" xmlns:xlink="http://www.w3.org/1999/xlink">
<g id="graph0" class="graph" transform="scale(1 1) rotate(0) translate(4 310)">
<title>%3</title>
<polygon fill="white" stroke="transparent" points="-4,4 -4,-310 1021.83,-310 1021.83,4 -4,4"/>
<!-- ResearchProject -->
<g id="node1" class="node">
<title>ResearchProject</title>
<ellipse fill="none" stroke="#558855" cx="499.82" cy="-288" rx="87.18" ry="18"/>
<text text-anchor="middle" x="499.82" y="-284.3" font-family="Times,serif" font-size="14.00">ResearchProject</text>
</g>
<!-- example.org/id/resproj/X -->
<g id="node2" class="node">
<title>example.org/id/resproj/X</title>
<ellipse fill="none" stroke="black" cx="125.44" cy="-153" rx="125.38" ry="18"/>
<text text-anchor="middle" x="125.44" y="-149.3" font-family="Times,serif" font-size="14.00">example.org/id/resproj/X</text>
</g>
<!-- example.org/id/resproj/X&#45;&gt;ResearchProject -->
<g id="edge1" class="edge">
<title>example.org/id/resproj/X&#45;&gt;ResearchProject</title>
<path fill="none" stroke="black" d="M158.2,-170.47C203.41,-194.58 289.54,-237.68 367.88,-261 385.33,-266.2 404.39,-270.74 422.43,-274.55"/>
<polygon fill="black" stroke="black" points="421.83,-278 432.33,-276.59 423.24,-271.15 421.83,-278"/>
<text text-anchor="middle" x="309.38" y="-257.8" font-family="Times,serif" font-size="14.00">type</text>
</g>
<!-- &quot;Repo description ......&quot; -->
<g id="node3" class="node">
<title>&quot;Repo description ......&quot;</title>
<ellipse fill="none" stroke="black" stroke-width="0" cx="499.82" cy="-234" rx="118.08" ry="18"/>
<text text-anchor="middle" x="499.82" y="-230.3" font-family="Times,serif" font-size="14.00">&quot;Repo description ......&quot;</text>
</g>
<!-- example.org/id/resproj/X&#45;&gt;&quot;Repo description ......&quot; -->
<g id="edge2" class="edge">
<title>example.org/id/resproj/X&#45;&gt;&quot;Repo description ......&quot;</title>
<path fill="none" stroke="black" d="M189.44,-168.51C214.17,-174.47 242.81,-181.23 268.88,-187 317.69,-197.81 372.53,-209.05 416.41,-217.83"/>
<polygon fill="black" stroke="black" points="415.96,-221.31 426.45,-219.84 417.33,-214.45 415.96,-221.31"/>
<text text-anchor="middle" x="309.38" y="-206.8" font-family="Times,serif" font-size="14.00">description</text>
</g>
<!-- _ -->
<g id="node4" class="node">
<title>_</title>
<ellipse fill="none" stroke="#558855" cx="499.82" cy="-180" rx="27" ry="18"/>
<text text-anchor="middle" x="499.82" y="-176.3" font-family="Times,serif" font-size="14.00">_</text>
</g>
<!-- example.org/id/resproj/X&#45;&gt;_ -->
<g id="edge3" class="edge">
<title>example.org/id/resproj/X&#45;&gt;_</title>
<path fill="none" stroke="black" d="M237.66,-161.06C314.25,-166.62 411.16,-173.64 462.7,-177.38"/>
<polygon fill="black" stroke="black" points="462.46,-180.87 472.69,-178.11 462.97,-173.89 462.46,-180.87"/>
<text text-anchor="middle" x="309.38" y="-171.8" font-family="Times,serif" font-size="14.00">identifier</text>
</g>
<!-- &quot;Example Data Reposit...&quot; -->
<g id="node5" class="node">
<title>&quot;Example Data Reposit...&quot;</title>
<ellipse fill="none" stroke="black" stroke-width="0" cx="499.82" cy="-126" rx="131.88" ry="18"/>
<text text-anchor="middle" x="499.82" y="-122.3" font-family="Times,serif" font-size="14.00">&quot;Example Data Reposit...&quot;</text>
</g>
<!-- example.org/id/resproj/X&#45;&gt;&quot;Example Data Reposit...&quot; -->
<g id="edge4" class="edge">
<title>example.org/id/resproj/X&#45;&gt;&quot;Example Data Reposit...&quot;</title>
<path fill="none" stroke="black" d="M237.66,-144.94C280.21,-141.85 329.03,-138.31 372.86,-135.13"/>
<polygon fill="black" stroke="black" points="373.28,-138.61 383,-134.4 372.77,-131.63 373.28,-138.61"/>
<text text-anchor="middle" x="309.38" y="-144.8" font-family="Times,serif" font-size="14.00">legalName</text>
</g>
<!-- &quot;ExDaRepo&quot; -->
<g id="node6" class="node">
<title>&quot;ExDaRepo&quot;</title>
<ellipse fill="none" stroke="black" stroke-width="0" cx="499.82" cy="-72" rx="67.69" ry="18"/>
<text text-anchor="middle" x="499.82" y="-68.3" font-family="Times,serif" font-size="14.00">&quot;ExDaRepo&quot;</text>
</g>
<!-- example.org/id/resproj/X&#45;&gt;&quot;ExDaRepo&quot; -->
<g id="edge5" class="edge">
<title>example.org/id/resproj/X&#45;&gt;&quot;ExDaRepo&quot;</title>
<path fill="none" stroke="black" d="M187.65,-137.34C212.76,-131.08 242.16,-123.95 268.88,-118 324.41,-105.63 387.83,-93.06 433.98,-84.19"/>
<polygon fill="black" stroke="black" points="434.69,-87.62 443.85,-82.3 433.37,-80.74 434.69,-87.62"/>
<text text-anchor="middle" x="309.38" y="-121.8" font-family="Times,serif" font-size="14.00">name</text>
</g>
<!-- &quot;https//www.example&#45;d...&quot; -->
<g id="node7" class="node">
<title>&quot;https//www.example&#45;d...&quot;</title>
<ellipse fill="none" stroke="black" stroke-width="0" cx="499.82" cy="-18" rx="131.88" ry="18"/>
<text text-anchor="middle" x="499.82" y="-14.3" font-family="Times,serif" font-size="14.00">&quot;https//www.example&#45;d...&quot;</text>
</g>
<!-- example.org/id/resproj/X&#45;&gt;&quot;https//www.example&#45;d...&quot; -->
<g id="edge6" class="edge">
<title>example.org/id/resproj/X&#45;&gt;&quot;https//www.example&#45;d...&quot;</title>
<path fill="none" stroke="black" d="M157.77,-135.54C202.81,-111.25 289.12,-67.69 367.88,-45 381.16,-41.17 395.35,-37.67 409.3,-34.54"/>
<polygon fill="black" stroke="black" points="410.38,-37.88 419.4,-32.33 408.88,-31.05 410.38,-37.88"/>
<text text-anchor="middle" x="309.38" y="-82.8" font-family="Times,serif" font-size="14.00">url</text>
</g>
<!-- PropertyValue -->
<g id="node8" class="node">
<title>PropertyValue</title>
<ellipse fill="none" stroke="#558855" cx="883.29" cy="-261" rx="77.19" ry="18"/>
<text text-anchor="middle" x="883.29" y="-257.3" font-family="Times,serif" font-size="14.00">PropertyValue</text>
</g>
<!-- _&#45;&gt;PropertyValue -->
<g id="edge7" class="edge">
<title>_&#45;&gt;PropertyValue</title>
<path fill="none" stroke="black" d="M526.23,-183.94C552.84,-188.37 595.69,-196.35 631.75,-207 639.99,-209.43 641.52,-211.59 649.75,-214 702.04,-229.33 762.39,-241.37 808.5,-249.42"/>
<polygon fill="black" stroke="black" points="807.96,-252.88 818.41,-251.13 809.15,-245.98 807.96,-252.88"/>
<text text-anchor="middle" x="690.25" y="-236.8" font-family="Times,serif" font-size="14.00">type</text>
</g>
<!-- &quot;UN Department of Eco...&quot; -->
<g id="node9" class="node">
<title>&quot;UN Department of Eco...&quot;</title>
<ellipse fill="none" stroke="black" stroke-width="0" cx="883.29" cy="-207" rx="134.58" ry="18"/>
<text text-anchor="middle" x="883.29" y="-203.3" font-family="Times,serif" font-size="14.00">&quot;UN Department of Eco...&quot;</text>
</g>
<!-- _&#45;&gt;&quot;UN Department of Eco...&quot; -->
<g id="edge8" class="edge">
<title>_&#45;&gt;&quot;UN Department of Eco...&quot;</title>
<path fill="none" stroke="black" d="M526.74,-181.83C572.86,-185.1 672.02,-192.12 753.94,-197.92"/>
<polygon fill="black" stroke="black" points="753.87,-201.42 764.09,-198.63 754.37,-194.44 753.87,-201.42"/>
<text text-anchor="middle" x="690.25" y="-198.8" font-family="Times,serif" font-size="14.00">description</text>
</g>
<!-- &quot;https//registry.iden...&quot; -->
<g id="node10" class="node">
<title>&quot;https//registry.iden...&quot;</title>
<ellipse fill="none" stroke="black" stroke-width="0" cx="883.29" cy="-153" rx="116.98" ry="18"/>
<text text-anchor="middle" x="883.29" y="-149.3" font-family="Times,serif" font-size="14.00">&quot;https//registry.iden...&quot;</text>
</g>
<!-- _&#45;&gt;&quot;https//registry.iden...&quot; -->
<g id="edge9" class="edge">
<title>_&#45;&gt;&quot;https//registry.iden...&quot;</title>
<path fill="none" stroke="black" d="M526.74,-178.17C575.24,-174.73 682.42,-167.15 766.49,-161.2"/>
<polygon fill="black" stroke="black" points="766.9,-164.68 776.62,-160.48 766.4,-157.69 766.9,-164.68"/>
<text text-anchor="middle" x="690.25" y="-171.8" font-family="Times,serif" font-size="14.00">propertyID</text>
</g>
<!-- &quot;https//grid.ac/insti...&quot; -->
<g id="node11" class="node">
<title>&quot;https//grid.ac/insti...&quot;</title>
<ellipse fill="none" stroke="black" stroke-width="0" cx="883.29" cy="-99" rx="114.28" ry="18"/>
<text text-anchor="middle" x="883.29" y="-95.3" font-family="Times,serif" font-size="14.00">&quot;https//grid.ac/insti...&quot;</text>
</g>
<!-- _&#45;&gt;&quot;https//grid.ac/insti...&quot; -->
<g id="edge10" class="edge">
<title>_&#45;&gt;&quot;https//grid.ac/insti...&quot;</title>
<path fill="none" stroke="black" d="M526.33,-176.4C553.03,-172.26 595.95,-164.5 631.75,-153 640.09,-150.32 641.41,-147.64 649.75,-145 694.34,-130.88 745.16,-120.23 787.9,-112.75"/>
<polygon fill="black" stroke="black" points="788.75,-116.16 798.02,-111.02 787.57,-109.26 788.75,-116.16"/>
<text text-anchor="middle" x="690.25" y="-148.8" font-family="Times,serif" font-size="14.00">url</text>
</g>
</g>
</svg>