<?xml version="1.0" encoding="UTF-8" standalone="no"?>
<!DOCTYPE svg PUBLIC "-//W3C//DTD SVG 1.1//EN"
 "http://www.w3.org/Graphics/SVG/1.1/DTD/svg11.dtd">
<!-- Generated by graphviz version 2.43.0 (0)
 -->
<!-- Title: %3 Pages: 1 -->
<svg width="1312pt" height="336pt"
 viewBox="0.00 0.00 1312.41 336.00" xmlns="http://www.w3.org/2000/svg" xmlns:xlink="http://www.w3.org/1999/xlink">
<g id="graph0" class="graph" transform="scale(1 1) rotate(0) translate(4 332)">
<title>%3</title>
<polygon fill="white" stroke="transparent" points="-4,4 -4,-332 1308.41,-332 1308.41,4 -4,4"/>
<!-- DefinedTerm -->
<g id="node1" class="node">
<title>DefinedTerm</title>
<ellipse fill="none" stroke="#558855" cx="1152.97" cy="-310" rx="70.39" ry="18"/>
<text text-anchor="middle" x="1152.97" y="-306.3" font-family="Times,serif" font-size="14.00">DefinedTerm</text>
</g>
<!-- purl.org/dc/dcmitype/Image -->
<g id="node2" class="node">
<title>purl.org/dc/dcmitype/Image</title>
<ellipse fill="none" stroke="#558855" cx="674.35" cy="-234" rx="139.98" ry="18"/>
<text text-anchor="middle" x="674.35" y="-230.3" font-family="Times,serif" font-size="14.00">purl.org/dc/dcmitype/Image</text>
</g>
<!-- purl.org/dc/dcmitype/Image&#45;&gt;DefinedTerm -->
<g id="edge1" class="edge">
<title>purl.org/dc/dcmitype/Image&#45;&gt;DefinedTerm</title>
<path fill="none" stroke="black" d="M754.65,-248.79C785.48,-254.4 821.12,-260.7 853.54,-266 930.98,-278.66 1020,-291.57 1080.52,-300.11"/>
<polygon fill="black" stroke="black" points="1080.34,-303.61 1090.73,-301.54 1081.31,-296.68 1080.34,-303.61"/>
<text text-anchor="middle" x="918.54" y="-288.8" font-family="Times,serif" font-size="14.00">type</text>
</g>
<!-- &quot;http//purl.org/dc/terms/D...&quot; -->
<g id="node3" class="node">
<title>&quot;http//purl.org/dc/terms/D...&quot;</title>
<ellipse fill="none" stroke="black" stroke-width="0" cx="1152.97" cy="-256" rx="144.87" ry="18"/>
<text text-anchor="middle" x="1152.97" y="-252.3" font-family="Times,serif" font-size="14.00">&quot;http//purl.org/dc/terms/D...&quot;</text>
</g>
<!-- purl.org/dc/dcmitype/Image&#45;&gt;&quot;http//purl.org/dc/terms/D...&quot; -->
<g id="edge2" class="edge">
<title>purl.org/dc/dcmitype/Image&#45;&gt;&quot;http//purl.org/dc/terms/D...&quot;</title>
<path fill="none" stroke="black" d="M806.22,-240.04C868.35,-242.91 942.8,-246.34 1006.67,-249.29"/>
<polygon fill="black" stroke="black" points="1006.68,-252.8 1016.83,-249.76 1007,-245.8 1006.68,-252.8"/>
<text text-anchor="middle" x="918.54" y="-250.8" font-family="Times,serif" font-size="14.00">inDefinedTermSet</text>
</g>
<!-- &quot;Image&quot; -->
<g id="node4" class="node">
<title>&quot;Image&quot;</title>
<ellipse fill="none" stroke="black" stroke-width="0" cx="1152.97" cy="-191" rx="48.19" ry="18"/>
<text text-anchor="middle" x="1152.97" y="-187.3" font-family="Times,serif" font-size="14.00">&quot;Image&quot;</text>
</g>
<!-- purl.org/dc/dcmitype/Image&#45;&gt;&quot;Image&quot; -->
<g id="edge3" class="edge">
<title>purl.org/dc/dcmitype/Image&#45;&gt;&quot;Image&quot;</title>
<path fill="none" stroke="black" d="M789.21,-223.73C885.99,-215 1020.85,-202.83 1095.89,-196.06"/>
<polygon fill="black" stroke="black" points="1096.43,-199.53 1106.08,-195.14 1095.8,-192.55 1096.43,-199.53"/>
<text text-anchor="middle" x="918.54" y="-220.8" font-family="Times,serif" font-size="14.00">name</text>
</g>
<!-- purl.org/dc/dcmitype/Image&#45;&gt;&quot;Image&quot; -->
<g id="edge4" class="edge">
<title>purl.org/dc/dcmitype/Image&#45;&gt;&quot;Image&quot;</title>
<path fill="none" stroke="black" d="M790.37,-223.91C806.09,-219.9 821.6,-214.43 835.54,-207 845.8,-201.53 842.85,-192.6 853.54,-188 935.2,-152.87 1041.45,-166.18 1102.65,-178.78"/>
<polygon fill="black" stroke="black" points="1102.3,-182.28 1112.81,-180.94 1103.76,-175.43 1102.3,-182.28"/>
<text text-anchor="middle" x="918.54" y="-191.8" font-family="Times,serif" font-size="14.00">termCode</text>
</g>
<!-- Map -->
<g id="node5" class="node">
<title>Map</title>
<ellipse fill="none" stroke="#558855" cx="674.35" cy="-180" rx="31.4" ry="18"/>
<text text-anchor="middle" x="674.35" y="-176.3" font-family="Times,serif" font-size="14.00">Map</text>
</g>
<!-- example.org/permanentUrlToThisJsonDoc -->
<g id="node6" class="node">
<title>example.org/permanentUrlToThisJsonDoc</title>
<ellipse fill="none" stroke="black" cx="204.08" cy="-153" rx="204.16" ry="18"/>
<text text-anchor="middle" x="204.08" y="-149.3" font-family="Times,serif" font-size="14.00">example.org/permanentUrlToThisJsonDoc</text>
</g>
<!-- example.org/permanentUrlToThisJsonDoc&#45;&gt;purl.org/dc/dcmitype/Image -->
<g id="edge7" class="edge">
<title>example.org/permanentUrlToThisJsonDoc&#45;&gt;purl.org/dc/dcmitype/Image</title>
<path fill="none" stroke="black" d="M296.05,-169.11C357.38,-179.92 440.11,-194.44 513.16,-207 534.16,-210.61 556.71,-214.44 578.07,-218.05"/>
<polygon fill="black" stroke="black" points="577.68,-221.53 588.12,-219.74 578.84,-214.63 577.68,-221.53"/>
<text text-anchor="middle" x="460.66" y="-205.8" font-family="Times,serif" font-size="14.00">keywords</text>
</g>
<!-- example.org/permanentUrlToThisJsonDoc&#45;&gt;Map -->
<g id="edge5" class="edge">
<title>example.org/permanentUrlToThisJsonDoc&#45;&gt;Map</title>
<path fill="none" stroke="black" d="M375.46,-162.82C468.52,-168.19 576.12,-174.39 633.09,-177.68"/>
<polygon fill="black" stroke="black" points="632.94,-181.18 643.13,-178.26 633.35,-174.19 632.94,-181.18"/>
<text text-anchor="middle" x="460.66" y="-172.8" font-family="Times,serif" font-size="14.00">type</text>
</g>
<!-- &quot;Region X&quot; -->
<g id="node7" class="node">
<title>&quot;Region X&quot;</title>
<ellipse fill="none" stroke="black" stroke-width="0" cx="674.35" cy="-126" rx="61.19" ry="18"/>
<text text-anchor="middle" x="674.35" y="-122.3" font-family="Times,serif" font-size="14.00">&quot;Region X&quot;</text>
</g>
<!-- example.org/permanentUrlToThisJsonDoc&#45;&gt;&quot;Region X&quot; -->
<g id="edge6" class="edge">
<title>example.org/permanentUrlToThisJsonDoc&#45;&gt;&quot;Region X&quot;</title>
<path fill="none" stroke="black" d="M375.46,-143.18C454.44,-138.62 543.9,-133.46 603.99,-130"/>
<polygon fill="black" stroke="black" points="604.34,-133.49 614.12,-129.42 603.93,-126.5 604.34,-133.49"/>
<text text-anchor="middle" x="460.66" y="-142.8" font-family="Times,serif" font-size="14.00">keywords</text>
</g>
<!-- www.wikidata.org/wiki/Q350134 -->
<g id="node8" class="node">
<title>www.wikidata.org/wiki/Q350134</title>
<ellipse fill="none" stroke="#558855" cx="674.35" cy="-72" rx="161.37" ry="18"/>
<text text-anchor="middle" x="674.35" y="-68.3" font-family="Times,serif" font-size="14.00">www.wikidata.org/wiki/Q350134</text>
</g>
<!-- example.org/permanentUrlToThisJsonDoc&#45;&gt;www.wikidata.org/wiki/Q350134 -->
<g id="edge8" class="edge">
<title>example.org/permanentUrlToThisJsonDoc&#45;&gt;www.wikidata.org/wiki/Q350134</title>
<path fill="none" stroke="black" d="M296.05,-136.89C357.38,-126.08 440.11,-111.56 513.16,-99 532.78,-95.63 553.76,-92.06 573.85,-88.67"/>
<polygon fill="black" stroke="black" points="574.67,-92.08 583.95,-86.96 573.5,-85.18 574.67,-92.08"/>
<text text-anchor="middle" x="460.66" y="-116.8" font-family="Times,serif" font-size="14.00">keywords</text>
</g>
<!-- URL -->
<g id="node9" class="node">
<title>URL</title>
<ellipse fill="none" stroke="#558855" cx="1152.97" cy="-126" rx="31.4" ry="18"/>
<text text-anchor="middle" x="1152.97" y="-122.3" font-family="Times,serif" font-size="14.00">URL</text>
</g>
<!-- www.wikidata.org/wiki/Q350134&#45;&gt;URL -->
<g id="edge9" class="edge">
<title>www.wikidata.org/wiki/Q350134&#45;&gt;URL</title>
<path fill="none" stroke="black" d="M788.3,-84.8C892.51,-96.6 1041.44,-113.48 1111.98,-121.47"/>
<polygon fill="black" stroke="black" points="1111.88,-124.98 1122.21,-122.63 1112.67,-118.02 1111.88,-124.98"/>
<text text-anchor="middle" x="918.54" y="-108.8" font-family="Times,serif" font-size="14.00">type</text>
</g>
<!-- &quot;North Atlantic Ocean&quot; -->
<g id="node10" class="node">
<title>&quot;North Atlantic Ocean&quot;</title>
<ellipse fill="none" stroke="black" stroke-width="0" cx="1152.97" cy="-72" rx="117.78" ry="18"/>
<text text-anchor="middle" x="1152.97" y="-68.3" font-family="Times,serif" font-size="14.00">&quot;North Atlantic Ocean&quot;</text>
</g>
<!-- www.wikidata.org/wiki/Q350134&#45;&gt;&quot;North Atlantic Ocean&quot; -->
<g id="edge10" class="edge">
<title>www.wikidata.org/wiki/Q350134&#45;&gt;&quot;North Atlantic Ocean&quot;</title>
<path fill="none" stroke="black" d="M835.72,-72C897.31,-72 966.7,-72 1024.76,-72"/>
<polygon fill="black" stroke="black" points="1025.09,-75.5 1035.09,-72 1025.09,-68.5 1025.09,-75.5"/>
<text text-anchor="middle" x="918.54" y="-75.8" font-family="Times,serif" font-size="14.00">name</text>
</g>
<!-- &quot;https//www.wikidata.org/w...&quot; -->
<g id="node11" class="node">
<title>&quot;https//www.wikidata.org/w...&quot;</title>
<ellipse fill="none" stroke="black" stroke-width="0" cx="1152.97" cy="-18" rx="151.37" ry="18"/>
<text text-anchor="middle" x="1152.97" y="-14.3" font-family="Times,serif" font-size="14.00">&quot;https//www.wikidata.org/w...&quot;</text>
</g>
<!-- www.wikidata.org/wiki/Q350134&#45;&gt;&quot;https//www.wikidata.org/w...&quot; -->
<g id="edge11" class="edge">
<title>www.wikidata.org/wiki/Q350134&#45;&gt;&quot;https//www.wikidata.org/w...&quot;</title>
<path fill="none" stroke="black" d="M788.3,-59.2C861.94,-50.86 957.89,-39.99 1032.75,-31.51"/>
<polygon fill="black" stroke="black" points="1033.16,-34.98 1042.7,-30.38 1032.37,-28.03 1033.16,-34.98"/>
<text text-anchor="middle" x="918.54" y="-54.8" font-family="Times,serif" font-size="14.00">url</text>
</g>
</g>
</svg>