<?xml version="1.0" encoding="UTF-8" standalone="no"?>
<!DOCTYPE svg PUBLIC "-//W3C//DTD SVG 1.1//EN"
 "http://www.w3.org/Graphics/SVG/1.1/DTD/svg11.dtd">
<!-- Generated by graphviz version 2.43.0 (0)
 -->
<!-- Title: %3 Pages: 1 -->
<svg width="1020pt" height="368pt"
 viewBox="0.00 0.00 1019.83 368.00" xmlns="http://www.w3.org/2000/svg" xmlns:xlink="http://www.w3.org/1999/xlink">
<g id="graph0" class="graph" transform="scale(1 1) rotate(0) translate(4 364)">
<title>%3</title>
<polygon fill="white" stroke="transparent" points="-4,4 -4,-364 1015.83,-364 1015.83,4 -4,4"/>
<!-- Person -->
<g id="node1" class="node">
<title>Person</title>
<ellipse fill="none" stroke="#558855" cx="563.41" cy="-267" rx="42.49" ry="18"/>
<text text-anchor="middle" x="563.41" y="-263.3" font-family="Times,serif" font-size="14.00">Person</text>
</g>
<!-- example.org/permanentUrlToThisJsonDoc -->
<g id="node2" class="node">
<title>example.org/permanentUrlToThisJsonDoc</title>
<ellipse fill="none" stroke="black" cx="204.08" cy="-224" rx="204.16" ry="18"/>
<text text-anchor="middle" x="204.08" y="-220.3" font-family="Times,serif" font-size="14.00">example.org/permanentUrlToThisJsonDoc</text>
</g>
<!-- example.org/permanentUrlToThisJsonDoc&#45;&gt;Person -->
<g id="edge1" class="edge">
<title>example.org/permanentUrlToThisJsonDoc&#45;&gt;Person</title>
<path fill="none" stroke="black" d="M325.56,-238.5C389.36,-246.18 464.27,-255.19 512.5,-260.99"/>
<polygon fill="black" stroke="black" points="512.32,-264.5 522.67,-262.22 513.16,-257.55 512.32,-264.5"/>
<text text-anchor="middle" x="464.66" y="-262.8" font-family="Times,serif" font-size="14.00">type</text>
</g>
<!-- _ -->
<g id="node3" class="node">
<title>_</title>
<ellipse fill="none" stroke="#558855" cx="563.41" cy="-180" rx="27" ry="18"/>
<text text-anchor="middle" x="563.41" y="-176.3" font-family="Times,serif" font-size="14.00">_</text>
</g>
<!-- example.org/permanentUrlToThisJsonDoc&#45;&gt;_ -->
<g id="edge2" class="edge">
<title>example.org/permanentUrlToThisJsonDoc&#45;&gt;_</title>
<path fill="none" stroke="black" d="M324.07,-209.35C394.85,-200.63 479.74,-190.18 526.72,-184.4"/>
<polygon fill="black" stroke="black" points="527.2,-187.86 536.7,-183.17 526.35,-180.91 527.2,-187.86"/>
<text text-anchor="middle" x="464.66" y="-199.8" font-family="Times,serif" font-size="14.00">nationality</text>
</g>
<!-- _&#45;&gt;_ -->
<g id="edge9" class="edge">
<title>_&#45;&gt;_</title>
<path fill="none" stroke="black" d="M547.21,-194.42C541.55,-205.17 546.95,-216 563.41,-216 574.47,-216 580.54,-211.11 581.61,-204.64"/>
<polygon fill="black" stroke="black" points="584.97,-203.56 579.61,-194.42 578.1,-204.9 584.97,-203.56"/>
<text text-anchor="middle" x="563.41" y="-219.8" font-family="Times,serif" font-size="14.00">identifier</text>
</g>
<!-- PropertyValue -->
<g id="node4" class="node">
<title>PropertyValue</title>
<ellipse fill="none" stroke="#558855" cx="866.24" cy="-342" rx="77.19" ry="18"/>
<text text-anchor="middle" x="866.24" y="-338.3" font-family="Times,serif" font-size="14.00">PropertyValue</text>
</g>
<!-- _&#45;&gt;PropertyValue -->
<g id="edge3" class="edge">
<title>_&#45;&gt;PropertyValue</title>
<path fill="none" stroke="black" d="M576.47,-195.77C585.19,-207.57 596.93,-224.32 605.66,-240 615.34,-257.39 609.06,-267.48 623.66,-281 665.31,-319.58 727.76,-334.64 778.72,-340.15"/>
<polygon fill="black" stroke="black" points="778.46,-343.64 788.75,-341.13 779.14,-336.67 778.46,-343.64"/>
<text text-anchor="middle" x="663.16" y="-326.8" font-family="Times,serif" font-size="14.00">type</text>
</g>
<!-- &quot;ISO 3166&#45;1 alpha&#45;2 code&quot; -->
<g id="node5" class="node">
<title>&quot;ISO 3166&#45;1 alpha&#45;2 code&quot;</title>
<ellipse fill="none" stroke="black" stroke-width="0" cx="866.24" cy="-288" rx="133.48" ry="18"/>
<text text-anchor="middle" x="866.24" y="-284.3" font-family="Times,serif" font-size="14.00">&quot;ISO 3166&#45;1 alpha&#45;2 code&quot;</text>
</g>
<!-- _&#45;&gt;&quot;ISO 3166&#45;1 alpha&#45;2 code&quot; -->
<g id="edge4" class="edge">
<title>_&#45;&gt;&quot;ISO 3166&#45;1 alpha&#45;2 code&quot;</title>
<path fill="none" stroke="black" d="M578.14,-195.19C589.36,-206.77 606.17,-222.33 623.66,-232 662.54,-253.52 709.35,-266.79 751.36,-274.96"/>
<polygon fill="black" stroke="black" points="750.9,-278.44 761.37,-276.83 752.18,-271.56 750.9,-278.44"/>
<text text-anchor="middle" x="663.16" y="-265.8" font-family="Times,serif" font-size="14.00">name</text>
</g>
<!-- &quot;ISO 3166&#45;12020&quot; -->
<g id="node6" class="node">
<title>&quot;ISO 3166&#45;12020&quot;</title>
<ellipse fill="none" stroke="black" stroke-width="0" cx="866.24" cy="-234" rx="94.78" ry="18"/>
<text text-anchor="middle" x="866.24" y="-230.3" font-family="Times,serif" font-size="14.00">&quot;ISO 3166&#45;12020&quot;</text>
</g>
<!-- _&#45;&gt;&quot;ISO 3166&#45;12020&quot; -->
<g id="edge5" class="edge">
<title>_&#45;&gt;&quot;ISO 3166&#45;12020&quot;</title>
<path fill="none" stroke="black" d="M587.52,-188.4C598.37,-192.08 611.55,-196.2 623.66,-199 672.22,-210.22 727.15,-218.52 772.34,-224.21"/>
<polygon fill="black" stroke="black" points="772.07,-227.7 782.43,-225.46 772.93,-220.76 772.07,-227.7"/>
<text text-anchor="middle" x="663.16" y="-216.8" font-family="Times,serif" font-size="14.00">propertyID</text>
</g>
<!-- &quot;https//unece.org/trade/ce...&quot; -->
<g id="node7" class="node">
<title>&quot;https//unece.org/trade/ce...&quot;</title>
<ellipse fill="none" stroke="black" stroke-width="0" cx="866.24" cy="-180" rx="145.67" ry="18"/>
<text text-anchor="middle" x="866.24" y="-176.3" font-family="Times,serif" font-size="14.00">&quot;https//unece.org/trade/ce...&quot;</text>
</g>
<!-- _&#45;&gt;&quot;https//unece.org/trade/ce...&quot; -->
<g id="edge6" class="edge">
<title>_&#45;&gt;&quot;https//unece.org/trade/ce...&quot;</title>
<path fill="none" stroke="black" d="M590.58,-180C618.15,-180 663.92,-180 710.26,-180"/>
<polygon fill="black" stroke="black" points="710.47,-183.5 720.47,-180 710.47,-176.5 710.47,-183.5"/>
<text text-anchor="middle" x="663.16" y="-183.8" font-family="Times,serif" font-size="14.00">propertyID</text>
</g>
<!-- &quot;FJ&quot; -->
<g id="node8" class="node">
<title>&quot;FJ&quot;</title>
<ellipse fill="none" stroke="black" stroke-width="0" cx="866.24" cy="-126" rx="29.5" ry="18"/>
<text text-anchor="middle" x="866.24" y="-122.3" font-family="Times,serif" font-size="14.00">&quot;FJ&quot;</text>
</g>
<!-- _&#45;&gt;&quot;FJ&quot; -->
<g id="edge7" class="edge">
<title>_&#45;&gt;&quot;FJ&quot;</title>
<path fill="none" stroke="black" d="M587.52,-171.6C598.37,-167.92 611.55,-163.8 623.66,-161 694.48,-144.63 778.86,-134.49 826.82,-129.57"/>
<polygon fill="black" stroke="black" points="827.46,-133.03 837.06,-128.55 826.76,-126.06 827.46,-133.03"/>
<text text-anchor="middle" x="663.16" y="-164.8" font-family="Times,serif" font-size="14.00">value</text>
</g>
<!-- Country -->
<g id="node9" class="node">
<title>Country</title>
<ellipse fill="none" stroke="#558855" cx="866.24" cy="-72" rx="48.19" ry="18"/>
<text text-anchor="middle" x="866.24" y="-68.3" font-family="Times,serif" font-size="14.00">Country</text>
</g>
<!-- _&#45;&gt;Country -->
<g id="edge8" class="edge">
<title>_&#45;&gt;Country</title>
<path fill="none" stroke="black" d="M578.06,-164.46C589.24,-152.62 606.03,-136.76 623.66,-127 681.58,-94.95 757.17,-81.56 808.25,-75.97"/>
<polygon fill="black" stroke="black" points="808.86,-79.43 818.45,-74.93 808.14,-72.47 808.86,-79.43"/>
<text text-anchor="middle" x="663.16" y="-130.8" font-family="Times,serif" font-size="14.00">type</text>
</g>
<!-- &quot;Fiji&quot; -->
<g id="node10" class="node">
<title>&quot;Fiji&quot;</title>
<ellipse fill="none" stroke="black" stroke-width="0" cx="866.24" cy="-18" rx="34.39" ry="18"/>
<text text-anchor="middle" x="866.24" y="-14.3" font-family="Times,serif" font-size="14.00">&quot;Fiji&quot;</text>
</g>
<!-- _&#45;&gt;&quot;Fiji&quot; -->
<g id="edge10" class="edge">
<title>_&#45;&gt;&quot;Fiji&quot;</title>
<path fill="none" stroke="black" d="M570.05,-162.44C578.26,-139.56 595.67,-99.8 623.66,-77 680.76,-30.47 769.07,-19.75 821.61,-17.78"/>
<polygon fill="black" stroke="black" points="821.73,-21.28 831.62,-17.5 821.53,-14.28 821.73,-21.28"/>
<text text-anchor="middle" x="663.16" y="-80.8" font-family="Times,serif" font-size="14.00">name</text>
</g>
</g>
</svg>