<?xml version="1.0" encoding="UTF-8" standalone="no"?>
<!DOCTYPE svg PUBLIC "-//W3C//DTD SVG 1.1//EN"
 "http://www.w3.org/Graphics/SVG/1.1/DTD/svg11.dtd">
<!-- Generated by graphviz version 2.43.0 (0)
 -->
<!-- Title: %3 Pages: 1 -->
<svg width="1246pt" height="206pt"
 viewBox="0.00 0.00 1246.11 206.00" xmlns="http://www.w3.org/2000/svg" xmlns:xlink="http://www.w3.org/1999/xlink">
<g id="graph0" class="graph" transform="scale(1 1) rotate(0) translate(4 202)">
<title>%3</title>
<polygon fill="white" stroke="transparent" points="-4,4 -4,-202 1242.11,-202 1242.11,4 -4,4"/>
<!-- Person -->
<g id="node1" class="node">
<title>Person</title>
<ellipse fill="none" stroke="#558855" cx="668.1" cy="-153" rx="42.49" ry="18"/>
<text text-anchor="middle" x="668.1" y="-149.3" font-family="Times,serif" font-size="14.00">Person</text>
</g>
<!-- example.org/permanentUrlToThisJsonDoc -->
<g id="node2" class="node">
<title>example.org/permanentUrlToThisJsonDoc</title>
<ellipse fill="none" stroke="black" cx="204.08" cy="-126" rx="204.16" ry="18"/>
<text text-anchor="middle" x="204.08" y="-122.3" font-family="Times,serif" font-size="14.00">example.org/permanentUrlToThisJsonDoc</text>
</g>
<!-- example.org/permanentUrlToThisJsonDoc&#45;&gt;Person -->
<g id="edge1" class="edge">
<title>example.org/permanentUrlToThisJsonDoc&#45;&gt;Person</title>
<path fill="none" stroke="black" d="M374.82,-135.92C460.3,-140.91 557.85,-146.62 615.85,-150"/>
<polygon fill="black" stroke="black" points="615.67,-153.5 625.86,-150.59 616.08,-146.51 615.67,-153.5"/>
<text text-anchor="middle" x="459.16" y="-145.8" font-family="Times,serif" font-size="14.00">type</text>
</g>
<!-- orcid.org/0000&#45;0002&#45;2257&#45;9127 -->
<g id="node3" class="node">
<title>orcid.org/0000&#45;0002&#45;2257&#45;9127</title>
<ellipse fill="none" stroke="#558855" cx="668.1" cy="-99" rx="157.87" ry="18"/>
<text text-anchor="middle" x="668.1" y="-95.3" font-family="Times,serif" font-size="14.00">orcid.org/0000&#45;0002&#45;2257&#45;9127</text>
</g>
<!-- example.org/permanentUrlToThisJsonDoc&#45;&gt;orcid.org/0000&#45;0002&#45;2257&#45;9127 -->
<g id="edge2" class="edge">
<title>example.org/permanentUrlToThisJsonDoc&#45;&gt;orcid.org/0000&#45;0002&#45;2257&#45;9127</title>
<path fill="none" stroke="black" d="M374.82,-116.08C421.37,-113.36 471.5,-110.43 516.87,-107.78"/>
<polygon fill="black" stroke="black" points="517.3,-111.26 527.07,-107.18 516.89,-104.27 517.3,-111.26"/>
<text text-anchor="middle" x="459.16" y="-115.8" font-family="Times,serif" font-size="14.00">identifier</text>
</g>
<!-- PropertyValue -->
<g id="node4" class="node">
<title>PropertyValue</title>
<ellipse fill="none" stroke="#558855" cx="1090.57" cy="-180" rx="77.19" ry="18"/>
<text text-anchor="middle" x="1090.57" y="-176.3" font-family="Times,serif" font-size="14.00">PropertyValue</text>
</g>
<!-- orcid.org/0000&#45;0002&#45;2257&#45;9127&#45;&gt;PropertyValue -->
<g id="edge3" class="edge">
<title>orcid.org/0000&#45;0002&#45;2257&#45;9127&#45;&gt;PropertyValue</title>
<path fill="none" stroke="black" d="M768.14,-112.93C787.49,-116.53 807.52,-120.86 826.04,-126 834.31,-128.29 835.8,-130.59 844.04,-133 887.11,-145.63 898.96,-144.49 943.04,-153 967.7,-157.76 994.75,-162.8 1018.81,-167.21"/>
<polygon fill="black" stroke="black" points="1018.46,-170.71 1028.93,-169.07 1019.72,-163.82 1018.46,-170.71"/>
<text text-anchor="middle" x="884.54" y="-152.8" font-family="Times,serif" font-size="14.00">type</text>
</g>
<!-- &quot;Optional description of t...&quot; -->
<g id="node5" class="node">
<title>&quot;Optional description of t...&quot;</title>
<ellipse fill="none" stroke="black" stroke-width="0" cx="1090.57" cy="-126" rx="141.88" ry="18"/>
<text text-anchor="middle" x="1090.57" y="-122.3" font-family="Times,serif" font-size="14.00">&quot;Optional description of t...&quot;</text>
</g>
<!-- orcid.org/0000&#45;0002&#45;2257&#45;9127&#45;&gt;&quot;Optional description of t...&quot; -->
<g id="edge4" class="edge">
<title>orcid.org/0000&#45;0002&#45;2257&#45;9127&#45;&gt;&quot;Optional description of t...&quot;</title>
<path fill="none" stroke="black" d="M806.2,-107.8C853.52,-110.84 906.49,-114.24 953.71,-117.28"/>
<polygon fill="black" stroke="black" points="953.49,-120.77 963.69,-117.92 953.94,-113.78 953.49,-120.77"/>
<text text-anchor="middle" x="884.54" y="-117.8" font-family="Times,serif" font-size="14.00">description</text>
</g>
<!-- &quot;https//registry.identifie...&quot; -->
<g id="node6" class="node">
<title>&quot;https//registry.identifie...&quot;</title>
<ellipse fill="none" stroke="black" stroke-width="0" cx="1090.57" cy="-72" rx="135.38" ry="18"/>
<text text-anchor="middle" x="1090.57" y="-68.3" font-family="Times,serif" font-size="14.00">&quot;https//registry.identifie...&quot;</text>
</g>
<!-- orcid.org/0000&#45;0002&#45;2257&#45;9127&#45;&gt;&quot;https//registry.identifie...&quot; -->
<g id="edge5" class="edge">
<title>orcid.org/0000&#45;0002&#45;2257&#45;9127&#45;&gt;&quot;https//registry.identifie...&quot;</title>
<path fill="none" stroke="black" d="M806.2,-90.2C855.08,-87.06 910,-83.53 958.38,-80.42"/>
<polygon fill="black" stroke="black" points="958.84,-83.9 968.6,-79.77 958.39,-76.92 958.84,-83.9"/>
<text text-anchor="middle" x="884.54" y="-90.8" font-family="Times,serif" font-size="14.00">propertyID</text>
</g>
<!-- &quot;https//orcid.org/0000&#45;000...&quot; -->
<g id="node7" class="node">
<title>&quot;https//orcid.org/0000&#45;000...&quot;</title>
<ellipse fill="none" stroke="black" stroke-width="0" cx="1090.57" cy="-18" rx="147.57" ry="18"/>
<text text-anchor="middle" x="1090.57" y="-14.3" font-family="Times,serif" font-size="14.00">&quot;https//orcid.org/0000&#45;000...&quot;</text>
</g>
<!-- orcid.org/0000&#45;0002&#45;2257&#45;9127&#45;&gt;&quot;https//orcid.org/0000&#45;000...&quot; -->
<g id="edge6" class="edge">
<title>orcid.org/0000&#45;0002&#45;2257&#45;9127&#45;&gt;&quot;https//orcid.org/0000&#45;000...&quot;</title>
<path fill="none" stroke="black" d="M746.58,-83.36C776.96,-77.27 812.12,-70.25 844.04,-64 888,-55.38 899,-53.28 943.04,-45 960.73,-41.67 979.64,-38.16 997.79,-34.8"/>
<polygon fill="black" stroke="black" points="998.59,-38.22 1007.78,-32.96 997.32,-31.33 998.59,-38.22"/>
<text text-anchor="middle" x="884.54" y="-67.8" font-family="Times,serif" font-size="14.00">url</text>
</g>
</g>
</svg>