<?xml version="1.0" encoding="UTF-8" standalone="no"?>
<!DOCTYPE svg PUBLIC "-//W3C//DTD SVG 1.1//EN"
 "http://www.w3.org/Graphics/SVG/1.1/DTD/svg11.dtd">
<!-- Generated by graphviz version 2.43.0 (0)
 -->
<!-- Title: %3 Pages: 1 -->
<svg width="841pt" height="98pt"
 viewBox="0.00 0.00 841.24 98.00" xmlns="http://www.w3.org/2000/svg" xmlns:xlink="http://www.w3.org/1999/xlink">
<g id="graph0" class="graph" transform="scale(1 1) rotate(0) translate(4 94)">
<title>%3</title>
<polygon fill="white" stroke="transparent" points="-4,4 -4,-94 837.24,-94 837.24,4 -4,4"/>
<!-- Dataset -->
<g id="node1" class="node">
<title>Dataset</title>
<ellipse fill="none" stroke="#558855" cx="705.2" cy="-72" rx="46.59" ry="18"/>
<text text-anchor="middle" x="705.2" y="-68.3" font-family="Times,serif" font-size="14.00">Dataset</text>
</g>
<!-- example.org/permanentUrlToThisJsonDoc -->
<g id="node2" class="node">
<title>example.org/permanentUrlToThisJsonDoc</title>
<ellipse fill="none" stroke="black" cx="204.08" cy="-45" rx="204.16" ry="18"/>
<text text-anchor="middle" x="204.08" y="-41.3" font-family="Times,serif" font-size="14.00">example.org/permanentUrlToThisJsonDoc</text>
</g>
<!-- example.org/permanentUrlToThisJsonDoc&#45;&gt;Dataset -->
<g id="edge1" class="edge">
<title>example.org/permanentUrlToThisJsonDoc&#45;&gt;Dataset</title>
<path fill="none" stroke="black" d="M378.6,-54.39C473.17,-59.5 583.86,-65.49 648.77,-69"/>
<polygon fill="black" stroke="black" points="648.61,-72.5 658.78,-69.54 648.99,-65.51 648.61,-72.5"/>
<text text-anchor="middle" x="492.66" y="-67.8" font-family="Times,serif" font-size="14.00">type</text>
</g>
<!-- &quot;2012&#45;09&#45;20/2016&#45;01&#45;22&quot; -->
<g id="node3" class="node">
<title>&quot;2012&#45;09&#45;20/2016&#45;01&#45;22&quot;</title>
<ellipse fill="none" stroke="black" stroke-width="0" cx="705.2" cy="-18" rx="128.08" ry="18"/>
<text text-anchor="middle" x="705.2" y="-14.3" font-family="Times,serif" font-size="14.00">&quot;2012&#45;09&#45;20/2016&#45;01&#45;22&quot;</text>
</g>
<!-- example.org/permanentUrlToThisJsonDoc&#45;&gt;&quot;2012&#45;09&#45;20/2016&#45;01&#45;22&quot; -->
<g id="edge2" class="edge">
<title>example.org/permanentUrlToThisJsonDoc&#45;&gt;&quot;2012&#45;09&#45;20/2016&#45;01&#45;22&quot;</title>
<path fill="none" stroke="black" d="M378.6,-35.61C443.12,-32.12 515.13,-28.23 575,-24.99"/>
<polygon fill="black" stroke="black" points="575.47,-28.47 585.26,-24.43 575.09,-21.48 575.47,-28.47"/>
<text text-anchor="middle" x="492.66" y="-35.8" font-family="Times,serif" font-size="14.00">temporalCoverage</text>
</g>
</g>
</svg>