<?xml version="1.0" encoding="UTF-8" standalone="no"?>
<!DOCTYPE svg PUBLIC "-//W3C//DTD SVG 1.1//EN"
 "http://www.w3.org/Graphics/SVG/1.1/DTD/svg11.dtd">
<!-- Generated by graphviz version 2.43.0 (0)
 -->
<!-- Title: %3 Pages: 1 -->
<svg width="982pt" height="604pt"
 viewBox="0.00 0.00 981.93 603.94" xmlns="http://www.w3.org/2000/svg" xmlns:xlink="http://www.w3.org/1999/xlink">
<g id="graph0" class="graph" transform="scale(1 1) rotate(0) translate(4 599.94)">
<title>%3</title>
<polygon fill="white" stroke="transparent" points="-4,4 -4,-599.94 977.93,-599.94 977.93,4 -4,4"/>
<!-- Dataset -->
<g id="node1" class="node">
<title>Dataset</title>
<ellipse fill="none" stroke="#558855" cx="531.96" cy="-476.94" rx="46.59" ry="18"/>
<text text-anchor="middle" x="531.96" y="-473.24" font-family="Times,serif" font-size="14.00">Dataset</text>
</g>
<!-- example.org/permanentUrlToThisJsonDoc -->
<g id="node2" class="node">
<title>example.org/permanentUrlToThisJsonDoc</title>
<ellipse fill="none" stroke="black" cx="204.08" cy="-383.94" rx="204.16" ry="18"/>
<text text-anchor="middle" x="204.08" y="-380.24" font-family="Times,serif" font-size="14.00">example.org/permanentUrlToThisJsonDoc</text>
</g>
<!-- example.org/permanentUrlToThisJsonDoc&#45;&gt;Dataset -->
<g id="edge1" class="edge">
<title>example.org/permanentUrlToThisJsonDoc&#45;&gt;Dataset</title>
<path fill="none" stroke="black" d="M265.61,-401.21C328.64,-419.2 426.06,-447 483.67,-463.44"/>
<polygon fill="black" stroke="black" points="483.02,-466.9 493.6,-466.28 484.94,-460.17 483.02,-466.9"/>
<text text-anchor="middle" x="446.66" y="-459.74" font-family="Times,serif" font-size="14.00">type</text>
</g>
<!-- _ -->
<g id="node3" class="node">
<title>_</title>
<ellipse fill="none" stroke="#558855" cx="531.96" cy="-290.94" rx="27" ry="18"/>
<text text-anchor="middle" x="531.96" y="-287.24" font-family="Times,serif" font-size="14.00">_</text>
</g>
<!-- example.org/permanentUrlToThisJsonDoc&#45;&gt;_ -->
<g id="edge2" class="edge">
<title>example.org/permanentUrlToThisJsonDoc&#45;&gt;_</title>
<path fill="none" stroke="black" d="M265.61,-366.66C333.74,-347.22 442.05,-316.31 496.83,-300.68"/>
<polygon fill="black" stroke="black" points="498.07,-303.96 506.73,-297.85 496.15,-297.23 498.07,-303.96"/>
<text text-anchor="middle" x="446.66" y="-321.74" font-family="Times,serif" font-size="14.00">about</text>
</g>
<!-- _&#45;&gt;_ -->
<g id="edge6" class="edge">
<title>_&#45;&gt;_</title>
<path fill="none" stroke="black" d="M528.16,-309.09C527.58,-318.48 528.84,-326.94 531.96,-326.94 533.86,-326.94 535.07,-323.8 535.6,-319.22"/>
<polygon fill="black" stroke="black" points="539.1,-319.15 535.76,-309.09 532.1,-319.03 539.1,-319.15"/>
<text text-anchor="middle" x="531.96" y="-330.74" font-family="Times,serif" font-size="14.00">potentialAction</text>
</g>
<!-- _&#45;&gt;_ -->
<g id="edge7" class="edge">
<title>_&#45;&gt;_</title>
<path fill="none" stroke="black" d="M525.7,-308.64C522.24,-325.94 524.33,-344.94 531.96,-344.94 538.1,-344.94 540.65,-332.63 539.61,-318.81"/>
<polygon fill="black" stroke="black" points="543.04,-318.07 538.22,-308.64 536.1,-319.02 543.04,-318.07"/>
<text text-anchor="middle" x="531.96" y="-348.74" font-family="Times,serif" font-size="14.00">potentialAction</text>
</g>
<!-- _&#45;&gt;_ -->
<g id="edge17" class="edge">
<title>_&#45;&gt;_</title>
<path fill="none" stroke="black" d="M524.2,-308.29C516.88,-332.76 519.47,-362.94 531.96,-362.94 542.79,-362.94 546.17,-340.24 542.11,-318.26"/>
<polygon fill="black" stroke="black" points="545.45,-317.2 539.72,-308.29 538.65,-318.83 545.45,-317.2"/>
<text text-anchor="middle" x="531.96" y="-366.74" font-family="Times,serif" font-size="14.00">instrument</text>
</g>
<!-- _&#45;&gt;_ -->
<g id="edge20" class="edge">
<title>_&#45;&gt;_</title>
<path fill="none" stroke="black" d="M523.16,-308.17C511.55,-339.4 514.49,-380.94 531.96,-380.94 547.66,-380.94 551.62,-347.41 543.85,-317.95"/>
<polygon fill="black" stroke="black" points="547.11,-316.65 540.76,-308.17 540.43,-318.76 547.11,-316.65"/>
<text text-anchor="middle" x="531.96" y="-384.74" font-family="Times,serif" font-size="14.00">instrument</text>
</g>
<!-- Event -->
<g id="node4" class="node">
<title>Event</title>
<ellipse fill="none" stroke="#558855" cx="834.84" cy="-572.94" rx="38.19" ry="18"/>
<text text-anchor="middle" x="834.84" y="-569.24" font-family="Times,serif" font-size="14.00">Event</text>
</g>
<!-- _&#45;&gt;Event -->
<g id="edge3" class="edge">
<title>_&#45;&gt;Event</title>
<path fill="none" stroke="black" d="M538.57,-308.45C547.78,-337.59 566.32,-397.97 578.76,-449.94 588.65,-491.31 565.68,-514.89 596.76,-543.94 648.3,-592.12 736.07,-589.06 789.13,-581.6"/>
<polygon fill="black" stroke="black" points="789.9,-585.02 799.26,-580.06 788.85,-578.1 789.9,-585.02"/>
<text text-anchor="middle" x="637.26" y="-584.74" font-family="Times,serif" font-size="14.00">type</text>
</g>
<!-- &quot;describe the activit...&quot; -->
<g id="node5" class="node">
<title>&quot;describe the activit...&quot;</title>
<ellipse fill="none" stroke="black" stroke-width="0" cx="834.84" cy="-518.94" rx="118.08" ry="18"/>
<text text-anchor="middle" x="834.84" y="-515.24" font-family="Times,serif" font-size="14.00">&quot;describe the activit...&quot;</text>
</g>
<!-- _&#45;&gt;&quot;describe the activit...&quot; -->
<g id="edge4" class="edge">
<title>_&#45;&gt;&quot;describe the activit...&quot;</title>
<path fill="none" stroke="black" d="M538.08,-308.76C551.9,-356.65 589.45,-484.91 596.76,-490.94 634.14,-521.78 686.83,-530.29 733.05,-530.43"/>
<polygon fill="black" stroke="black" points="733.14,-533.93 743.11,-530.33 733.07,-526.93 733.14,-533.93"/>
<text text-anchor="middle" x="637.26" y="-528.74" font-family="Times,serif" font-size="14.00">description</text>
</g>
<!-- &quot;Measurement of sea s...&quot; -->
<g id="node6" class="node">
<title>&quot;Measurement of sea s...&quot;</title>
<ellipse fill="none" stroke="black" stroke-width="0" cx="834.84" cy="-460.94" rx="130.78" ry="18"/>
<text text-anchor="middle" x="834.84" y="-457.24" font-family="Times,serif" font-size="14.00">&quot;Measurement of sea s...&quot;</text>
</g>
<!-- _&#45;&gt;&quot;Measurement of sea s...&quot; -->
<g id="edge5" class="edge">
<title>_&#45;&gt;&quot;Measurement of sea s...&quot;</title>
<path fill="none" stroke="black" d="M533.6,-309.09C535.95,-344.9 546.83,-424.18 596.76,-458.94 616.59,-472.75 668.1,-474.31 718.06,-471.95"/>
<polygon fill="black" stroke="black" points="718.55,-475.43 728.35,-471.42 718.18,-468.44 718.55,-475.43"/>
<text text-anchor="middle" x="637.26" y="-475.74" font-family="Times,serif" font-size="14.00">name</text>
</g>
<!-- _&#45;&gt;&quot;Measurement of sea s...&quot; -->
<g id="edge18" class="edge">
<title>_&#45;&gt;&quot;Measurement of sea s...&quot;</title>
<path fill="none" stroke="black" d="M536.63,-308.97C543.35,-337.03 560.4,-390.74 596.76,-417.94 608,-426.35 672.63,-437.76 731.58,-446.72"/>
<polygon fill="black" stroke="black" points="731.33,-450.22 741.74,-448.25 732.38,-443.3 731.33,-450.22"/>
<text text-anchor="middle" x="637.26" y="-440.74" font-family="Times,serif" font-size="14.00">name</text>
</g>
<!-- Thing -->
<g id="node7" class="node">
<title>Thing</title>
<ellipse fill="none" stroke="#558855" cx="834.84" cy="-401.94" rx="37.09" ry="18"/>
<text text-anchor="middle" x="834.84" y="-398.24" font-family="Times,serif" font-size="14.00">Thing</text>
</g>
<!-- _&#45;&gt;Thing -->
<g id="edge8" class="edge">
<title>_&#45;&gt;Thing</title>
<path fill="none" stroke="black" d="M539.54,-308.39C548.72,-330.05 567.61,-366.17 596.76,-382.94 628.15,-401.01 727.89,-403.24 787.54,-402.85"/>
<polygon fill="black" stroke="black" points="787.86,-406.34 797.82,-402.75 787.79,-399.34 787.86,-406.34"/>
<text text-anchor="middle" x="637.26" y="-402.74" font-family="Times,serif" font-size="14.00">type</text>
</g>
<!-- _&#45;&gt;Thing -->
<g id="edge12" class="edge">
<title>_&#45;&gt;Thing</title>
<path fill="none" stroke="black" d="M548.37,-305.4C560.64,-316.24 578.71,-330.74 596.76,-339.94 630.21,-356.99 642.53,-350.95 677.76,-363.94 685.97,-366.97 687.43,-369.22 695.76,-371.94 726.36,-381.95 761.87,-389.58 789.22,-394.64"/>
<polygon fill="black" stroke="black" points="788.81,-398.12 799.28,-396.45 790.06,-391.23 788.81,-398.12"/>
<text text-anchor="middle" x="637.26" y="-367.74" font-family="Times,serif" font-size="14.00">type</text>
</g>
<!-- &quot;A high precision 3D ...&quot; -->
<g id="node8" class="node">
<title>&quot;A high precision 3D ...&quot;</title>
<ellipse fill="none" stroke="black" stroke-width="0" cx="834.84" cy="-344.94" rx="122.38" ry="18"/>
<text text-anchor="middle" x="834.84" y="-341.24" font-family="Times,serif" font-size="14.00">&quot;A high precision 3D ...&quot;</text>
</g>
<!-- _&#45;&gt;&quot;A high precision 3D ...&quot; -->
<g id="edge9" class="edge">
<title>_&#45;&gt;&quot;A high precision 3D ...&quot;</title>
<path fill="none" stroke="black" d="M557.38,-297.59C569.22,-300.68 583.67,-304.25 596.76,-306.94 642.03,-316.23 692.55,-324.6 735.29,-331.1"/>
<polygon fill="black" stroke="black" points="735,-334.6 745.41,-332.63 736.04,-327.68 735,-334.6"/>
<text text-anchor="middle" x="637.26" y="-324.74" font-family="Times,serif" font-size="14.00">description</text>
</g>
<!-- &quot;Metek uSonic&#45;3 Scien...&quot; -->
<g id="node9" class="node">
<title>&quot;Metek uSonic&#45;3 Scien...&quot;</title>
<ellipse fill="none" stroke="black" stroke-width="0" cx="834.84" cy="-290.94" rx="128.88" ry="18"/>
<text text-anchor="middle" x="834.84" y="-287.24" font-family="Times,serif" font-size="14.00">&quot;Metek uSonic&#45;3 Scien...&quot;</text>
</g>
<!-- _&#45;&gt;&quot;Metek uSonic&#45;3 Scien...&quot; -->
<g id="edge10" class="edge">
<title>_&#45;&gt;&quot;Metek uSonic&#45;3 Scien...&quot;</title>
<path fill="none" stroke="black" d="M559.13,-290.94C590.1,-290.94 644.01,-290.94 695.92,-290.94"/>
<polygon fill="black" stroke="black" points="695.92,-294.44 705.92,-290.94 695.92,-287.44 695.92,-294.44"/>
<text text-anchor="middle" x="637.26" y="-294.74" font-family="Times,serif" font-size="14.00">name</text>
</g>
<!-- &quot;http//vocab.nerc.ac....&quot; -->
<g id="node10" class="node">
<title>&quot;http//vocab.nerc.ac....&quot;</title>
<ellipse fill="none" stroke="black" stroke-width="0" cx="834.84" cy="-236.94" rx="120.48" ry="18"/>
<text text-anchor="middle" x="834.84" y="-233.24" font-family="Times,serif" font-size="14.00">&quot;http//vocab.nerc.ac....&quot;</text>
</g>
<!-- _&#45;&gt;&quot;http//vocab.nerc.ac....&quot; -->
<g id="edge11" class="edge">
<title>_&#45;&gt;&quot;http//vocab.nerc.ac....&quot;</title>
<path fill="none" stroke="black" d="M556.38,-283.09C568.35,-279.3 583.22,-274.94 596.76,-271.94 639.54,-262.46 687.24,-254.86 728.58,-249.19"/>
<polygon fill="black" stroke="black" points="729.23,-252.64 738.67,-247.83 728.3,-245.7 729.23,-252.64"/>
<text text-anchor="middle" x="637.26" y="-275.74" font-family="Times,serif" font-size="14.00">url</text>
</g>
<!-- _&#45;&gt;&quot;http//vocab.nerc.ac....&quot; -->
<g id="edge15" class="edge">
<title>_&#45;&gt;&quot;http//vocab.nerc.ac....&quot;</title>
<path fill="none" stroke="black" d="M546.04,-275.25C557.8,-262.47 576.32,-245.37 596.76,-237.94 642.61,-221.27 696.83,-219.82 741.84,-223.07"/>
<polygon fill="black" stroke="black" points="741.64,-226.57 751.89,-223.89 742.2,-219.59 741.64,-226.57"/>
<text text-anchor="middle" x="637.26" y="-241.74" font-family="Times,serif" font-size="14.00">url</text>
</g>
<!-- &quot;The WaMoS II 500 rad...&quot; -->
<g id="node11" class="node">
<title>&quot;The WaMoS II 500 rad...&quot;</title>
<ellipse fill="none" stroke="black" stroke-width="0" cx="834.84" cy="-182.94" rx="131.88" ry="18"/>
<text text-anchor="middle" x="834.84" y="-179.24" font-family="Times,serif" font-size="14.00">&quot;The WaMoS II 500 rad...&quot;</text>
</g>
<!-- _&#45;&gt;&quot;The WaMoS II 500 rad...&quot; -->
<g id="edge13" class="edge">
<title>_&#45;&gt;&quot;The WaMoS II 500 rad...&quot;</title>
<path fill="none" stroke="black" d="M540.09,-273.52C549.63,-252.74 568.65,-218.8 596.76,-202.94 631.43,-183.37 673.6,-175.7 712.71,-173.75"/>
<polygon fill="black" stroke="black" points="713.25,-177.23 723.12,-173.35 712.99,-170.23 713.25,-177.23"/>
<text text-anchor="middle" x="637.26" y="-206.74" font-family="Times,serif" font-size="14.00">description</text>
</g>
<!-- &quot;OceanWaveS WaMoS II ...&quot; -->
<g id="node12" class="node">
<title>&quot;OceanWaveS WaMoS II ...&quot;</title>
<ellipse fill="none" stroke="black" stroke-width="0" cx="834.84" cy="-128.94" rx="139.18" ry="18"/>
<text text-anchor="middle" x="834.84" y="-125.24" font-family="Times,serif" font-size="14.00">&quot;OceanWaveS WaMoS II ...&quot;</text>
</g>
<!-- _&#45;&gt;&quot;OceanWaveS WaMoS II ...&quot; -->
<g id="edge14" class="edge">
<title>_&#45;&gt;&quot;OceanWaveS WaMoS II ...&quot;</title>
<path fill="none" stroke="black" d="M535.98,-272.78C541.92,-243.34 558.06,-185.72 596.76,-157.94 625.58,-137.25 661.61,-127.15 696.82,-122.87"/>
<polygon fill="black" stroke="black" points="697.64,-126.31 707.22,-121.77 696.91,-119.34 697.64,-126.31"/>
<text text-anchor="middle" x="637.26" y="-161.74" font-family="Times,serif" font-size="14.00">name</text>
</g>
<!-- Action -->
<g id="node13" class="node">
<title>Action</title>
<ellipse fill="none" stroke="#558855" cx="834.84" cy="-74.94" rx="40.09" ry="18"/>
<text text-anchor="middle" x="834.84" y="-71.24" font-family="Times,serif" font-size="14.00">Action</text>
</g>
<!-- _&#45;&gt;Action -->
<g id="edge16" class="edge">
<title>_&#45;&gt;Action</title>
<path fill="none" stroke="black" d="M533.35,-272.84C535.21,-235.34 545.2,-149.11 596.76,-106.94 624.56,-84.19 723.05,-77.58 784,-75.68"/>
<polygon fill="black" stroke="black" points="784.28,-79.17 794.18,-75.39 784.08,-72.17 784.28,-79.17"/>
<text text-anchor="middle" x="637.26" y="-110.74" font-family="Times,serif" font-size="14.00">type</text>
</g>
<!-- _&#45;&gt;Action -->
<g id="edge19" class="edge">
<title>_&#45;&gt;Action</title>
<path fill="none" stroke="black" d="M535.28,-272.78C541.96,-223.73 562.95,-90.53 596.76,-64.94 625.64,-43.08 726.69,-55.97 787.15,-66.18"/>
<polygon fill="black" stroke="black" points="786.76,-69.67 797.21,-67.92 787.95,-62.77 786.76,-69.67"/>
<text text-anchor="middle" x="637.26" y="-68.74" font-family="Times,serif" font-size="14.00">type</text>
</g>
<!-- &quot;Measurement of ocean...&quot; -->
<g id="node14" class="node">
<title>&quot;Measurement of ocean...&quot;</title>
<ellipse fill="none" stroke="black" stroke-width="0" cx="834.84" cy="-20.94" rx="133.78" ry="18"/>
<text text-anchor="middle" x="834.84" y="-17.24" font-family="Times,serif" font-size="14.00">&quot;Measurement of ocean...&quot;</text>
</g>
<!-- _&#45;&gt;&quot;Measurement of ocean...&quot; -->
<g id="edge21" class="edge">
<title>_&#45;&gt;&quot;Measurement of ocean...&quot;</title>
<path fill="none" stroke="black" d="M534.72,-272.77C540.28,-219.4 559.38,-64.85 596.76,-33.94 640.98,2.64 707.22,3.28 758.45,-3.75"/>
<polygon fill="black" stroke="black" points="758.08,-7.23 768.49,-5.25 759.11,-0.31 758.08,-7.23"/>
<text text-anchor="middle" x="637.26" y="-37.74" font-family="Times,serif" font-size="14.00">name</text>
</g>
</g>
</svg>