<?xml version="1.0" encoding="UTF-8" standalone="no"?>
<!DOCTYPE svg PUBLIC "-//W3C//DTD SVG 1.1//EN"
 "http://www.w3.org/Graphics/SVG/1.1/DTD/svg11.dtd">
<!-- Generated by graphviz version 2.43.0 (0)
 -->
<!-- Title: %3 Pages: 1 -->
<svg width="789pt" height="98pt"
 viewBox="0.00 0.00 789.44 98.00" xmlns="http://www.w3.org/2000/svg" xmlns:xlink="http://www.w3.org/1999/xlink">
<g id="graph0" class="graph" transform="scale(1 1) rotate(0) translate(4 94)">
<title>%3</title>
<polygon fill="white" stroke="transparent" points="-4,4 -4,-94 785.44,-94 785.44,4 -4,4"/>
<!-- CreativeWork -->
<g id="node1" class="node">
<title>CreativeWork</title>
<ellipse fill="none" stroke="#558855" cx="637.8" cy="-72" rx="74.19" ry="18"/>
<text text-anchor="middle" x="637.8" y="-68.3" font-family="Times,serif" font-size="14.00">CreativeWork</text>
</g>
<!-- example.org/permanentUrlToThisJsonDoc -->
<g id="node2" class="node">
<title>example.org/permanentUrlToThisJsonDoc</title>
<ellipse fill="none" stroke="black" cx="204.08" cy="-45" rx="204.16" ry="18"/>
<text text-anchor="middle" x="204.08" y="-41.3" font-family="Times,serif" font-size="14.00">example.org/permanentUrlToThisJsonDoc</text>
</g>
<!-- example.org/permanentUrlToThisJsonDoc&#45;&gt;CreativeWork -->
<g id="edge1" class="edge">
<title>example.org/permanentUrlToThisJsonDoc&#45;&gt;CreativeWork</title>
<path fill="none" stroke="black" d="M371.07,-55.38C434.35,-59.34 503.67,-63.67 555.64,-66.92"/>
<polygon fill="black" stroke="black" points="555.6,-70.43 565.8,-67.56 556.04,-63.44 555.6,-70.43"/>
<text text-anchor="middle" x="451.16" y="-64.8" font-family="Times,serif" font-size="14.00">type</text>
</g>
<!-- &quot;http//spdx.org/licenses/C...&quot; -->
<g id="node3" class="node">
<title>&quot;http//spdx.org/licenses/C...&quot;</title>
<ellipse fill="none" stroke="black" stroke-width="0" cx="637.8" cy="-18" rx="143.77" ry="18"/>
<text text-anchor="middle" x="637.8" y="-14.3" font-family="Times,serif" font-size="14.00">&quot;http//spdx.org/licenses/C...&quot;</text>
</g>
<!-- example.org/permanentUrlToThisJsonDoc&#45;&gt;&quot;http//spdx.org/licenses/C...&quot; -->
<g id="edge2" class="edge">
<title>example.org/permanentUrlToThisJsonDoc&#45;&gt;&quot;http//spdx.org/licenses/C...&quot;</title>
<path fill="none" stroke="black" d="M371.07,-34.62C413.25,-31.98 458.11,-29.18 498.73,-26.64"/>
<polygon fill="black" stroke="black" points="499.2,-30.11 508.96,-26 498.76,-23.13 499.2,-30.11"/>
<text text-anchor="middle" x="451.16" y="-33.8" font-family="Times,serif" font-size="14.00">license</text>
</g>
</g>
</svg>