<?xml version="1.0" encoding="UTF-8" standalone="no"?>
<!DOCTYPE svg PUBLIC "-//W3C//DTD SVG 1.1//EN"
 "http://www.w3.org/Graphics/SVG/1.1/DTD/svg11.dtd">
<!-- Generated by graphviz version 2.43.0 (0)
 -->
<!-- Title: %3 Pages: 1 -->
<svg width="748pt" height="98pt"
 viewBox="0.00 0.00 747.64 98.00" xmlns="http://www.w3.org/2000/svg" xmlns:xlink="http://www.w3.org/1999/xlink">
<g id="graph0" class="graph" transform="scale(1 1) rotate(0) translate(4 94)">
<title>%3</title>
<polygon fill="white" stroke="transparent" points="-4,4 -4,-94 743.64,-94 743.64,4 -4,4"/>
<!-- CreativeWork -->
<g id="node1" class="node">
<title>CreativeWork</title>
<ellipse fill="none" stroke="#558855" cx="619.4" cy="-72" rx="74.19" ry="18"/>
<text text-anchor="middle" x="619.4" y="-68.3" font-family="Times,serif" font-size="14.00">CreativeWork</text>
</g>
<!-- example.org/permanentUrlToThisJsonDoc -->
<g id="node2" class="node">
<title>example.org/permanentUrlToThisJsonDoc</title>
<ellipse fill="none" stroke="black" cx="204.08" cy="-45" rx="204.16" ry="18"/>
<text text-anchor="middle" x="204.08" y="-41.3" font-family="Times,serif" font-size="14.00">example.org/permanentUrlToThisJsonDoc</text>
</g>
<!-- example.org/permanentUrlToThisJsonDoc&#45;&gt;CreativeWork -->
<g id="edge1" class="edge">
<title>example.org/permanentUrlToThisJsonDoc&#45;&gt;CreativeWork</title>
<path fill="none" stroke="black" d="M368.44,-55.67C426.58,-59.47 489.51,-63.58 537.68,-66.73"/>
<polygon fill="black" stroke="black" points="537.53,-70.22 547.73,-67.38 537.98,-63.24 537.53,-70.22"/>
<text text-anchor="middle" x="453.66" y="-65.8" font-family="Times,serif" font-size="14.00">type</text>
</g>
<!-- &quot;https//doi.org/10.50...&quot; -->
<g id="node3" class="node">
<title>&quot;https//doi.org/10.50...&quot;</title>
<ellipse fill="none" stroke="black" stroke-width="0" cx="619.4" cy="-18" rx="120.48" ry="18"/>
<text text-anchor="middle" x="619.4" y="-14.3" font-family="Times,serif" font-size="14.00">&quot;https//doi.org/10.50...&quot;</text>
</g>
<!-- example.org/permanentUrlToThisJsonDoc&#45;&gt;&quot;https//doi.org/10.50...&quot; -->
<g id="edge2" class="edge">
<title>example.org/permanentUrlToThisJsonDoc&#45;&gt;&quot;https//doi.org/10.50...&quot;</title>
<path fill="none" stroke="black" d="M368.44,-34.33C411.91,-31.49 458.07,-28.47 498.72,-25.82"/>
<polygon fill="black" stroke="black" points="499.19,-29.3 508.94,-25.15 498.73,-22.31 499.19,-29.3"/>
<text text-anchor="middle" x="453.66" y="-32.8" font-family="Times,serif" font-size="14.00">sameAs</text>
</g>
</g>
</svg>