<?xml version="1.0" encoding="UTF-8" standalone="no"?>
<!DOCTYPE svg PUBLIC "-//W3C//DTD SVG 1.1//EN"
 "http://www.w3.org/Graphics/SVG/1.1/DTD/svg11.dtd">
<!-- Generated by graphviz version 2.43.0 (0)
 -->
<!-- Title: %3 Pages: 1 -->
<svg width="1251pt" height="209pt"
 viewBox="0.00 0.00 1250.71 209.00" xmlns="http://www.w3.org/2000/svg" xmlns:xlink="http://www.w3.org/1999/xlink">
<g id="graph0" class="graph" transform="scale(1 1) rotate(0) translate(4 205)">
<title>%3</title>
<polygon fill="white" stroke="transparent" points="-4,4 -4,-205 1246.71,-205 1246.71,4 -4,4"/>
<!-- CreativeWork -->
<g id="node1" class="node">
<title>CreativeWork</title>
<ellipse fill="none" stroke="#558855" cx="1108.82" cy="-183" rx="74.19" ry="18"/>
<text text-anchor="middle" x="1108.82" y="-179.3" font-family="Times,serif" font-size="14.00">CreativeWork</text>
</g>
<!-- purl.unep.org/sdg/SDGIO_00020173 -->
<g id="node2" class="node">
<title>purl.unep.org/sdg/SDGIO_00020173</title>
<ellipse fill="none" stroke="#558855" cx="678.55" cy="-122" rx="179.27" ry="18"/>
<text text-anchor="middle" x="678.55" y="-118.3" font-family="Times,serif" font-size="14.00">purl.unep.org/sdg/SDGIO_00020173</text>
</g>
<!-- purl.unep.org/sdg/SDGIO_00020173&#45;&gt;CreativeWork -->
<g id="edge1" class="edge">
<title>purl.unep.org/sdg/SDGIO_00020173&#45;&gt;CreativeWork</title>
<path fill="none" stroke="black" d="M784.28,-136.6C836.22,-143.87 899.89,-152.83 956.93,-161 982.38,-164.64 1010.24,-168.69 1035.01,-172.31"/>
<polygon fill="black" stroke="black" points="1034.66,-175.79 1045.06,-173.78 1035.67,-168.87 1034.66,-175.79"/>
<text text-anchor="middle" x="916.43" y="-164.8" font-family="Times,serif" font-size="14.00">type</text>
</g>
<!-- &quot;Number of countries ...&quot; -->
<g id="node3" class="node">
<title>&quot;Number of countries ...&quot;</title>
<ellipse fill="none" stroke="black" stroke-width="0" cx="1108.82" cy="-126" rx="127.28" ry="18"/>
<text text-anchor="middle" x="1108.82" y="-122.3" font-family="Times,serif" font-size="14.00">&quot;Number of countries ...&quot;</text>
</g>
<!-- purl.unep.org/sdg/SDGIO_00020173&#45;&gt;&quot;Number of countries ...&quot; -->
<g id="edge2" class="edge">
<title>purl.unep.org/sdg/SDGIO_00020173&#45;&gt;&quot;Number of countries ...&quot;</title>
<path fill="none" stroke="black" d="M858.24,-122.22C891.06,-122.38 925.03,-122.63 956.93,-123 962.04,-123.06 967.25,-123.13 972.51,-123.2"/>
<polygon fill="black" stroke="black" points="972.62,-126.71 982.67,-123.36 972.73,-119.71 972.62,-126.71"/>
<text text-anchor="middle" x="916.43" y="-126.8" font-family="Times,serif" font-size="14.00">description</text>
</g>
<!-- &quot;UNSD SDG indicator c...&quot; -->
<g id="node4" class="node">
<title>&quot;UNSD SDG indicator c...&quot;</title>
<ellipse fill="none" stroke="black" stroke-width="0" cx="1108.82" cy="-72" rx="133.78" ry="18"/>
<text text-anchor="middle" x="1108.82" y="-68.3" font-family="Times,serif" font-size="14.00">&quot;UNSD SDG indicator c...&quot;</text>
</g>
<!-- purl.unep.org/sdg/SDGIO_00020173&#45;&gt;&quot;UNSD SDG indicator c...&quot; -->
<g id="edge3" class="edge">
<title>purl.unep.org/sdg/SDGIO_00020173&#45;&gt;&quot;UNSD SDG indicator c...&quot;</title>
<path fill="none" stroke="black" d="M796.29,-108.37C858.82,-101.07 935.42,-92.13 997.02,-84.94"/>
<polygon fill="black" stroke="black" points="997.63,-88.39 1007.16,-83.75 996.82,-81.44 997.63,-88.39"/>
<text text-anchor="middle" x="916.43" y="-101.8" font-family="Times,serif" font-size="14.00">name</text>
</g>
<!-- &quot;http//www.ontobee.or...&quot; -->
<g id="node5" class="node">
<title>&quot;http//www.ontobee.or...&quot;</title>
<ellipse fill="none" stroke="black" stroke-width="0" cx="1108.82" cy="-18" rx="128.08" ry="18"/>
<text text-anchor="middle" x="1108.82" y="-14.3" font-family="Times,serif" font-size="14.00">&quot;http//www.ontobee.or...&quot;</text>
</g>
<!-- purl.unep.org/sdg/SDGIO_00020173&#45;&gt;&quot;http//www.ontobee.or...&quot; -->
<g id="edge4" class="edge">
<title>purl.unep.org/sdg/SDGIO_00020173&#45;&gt;&quot;http//www.ontobee.or...&quot;</title>
<path fill="none" stroke="black" d="M740.41,-105.1C799.96,-88.8 893.36,-63.9 974.93,-45 990.41,-41.41 1006.96,-37.84 1022.95,-34.52"/>
<polygon fill="black" stroke="black" points="1023.73,-37.94 1032.82,-32.49 1022.32,-31.08 1023.73,-37.94"/>
<text text-anchor="middle" x="916.43" y="-71.8" font-family="Times,serif" font-size="14.00">url</text>
</g>
<!-- example.org/permanentUrlToThisJsonDoc -->
<g id="node6" class="node">
<title>example.org/permanentUrlToThisJsonDoc</title>
<ellipse fill="none" stroke="black" cx="204.08" cy="-156" rx="204.16" ry="18"/>
<text text-anchor="middle" x="204.08" y="-152.3" font-family="Times,serif" font-size="14.00">example.org/permanentUrlToThisJsonDoc</text>
</g>
<!-- example.org/permanentUrlToThisJsonDoc&#45;&gt;CreativeWork -->
<g id="edge5" class="edge">
<title>example.org/permanentUrlToThisJsonDoc&#45;&gt;CreativeWork</title>
<path fill="none" stroke="black" d="M397.63,-161.76C592.13,-167.58 883.46,-176.29 1024.88,-180.52"/>
<polygon fill="black" stroke="black" points="1025.11,-184.03 1035.21,-180.83 1025.32,-177.03 1025.11,-184.03"/>
<text text-anchor="middle" x="678.55" y="-178.8" font-family="Times,serif" font-size="14.00">type</text>
</g>
<!-- example.org/permanentUrlToThisJsonDoc&#45;&gt;purl.unep.org/sdg/SDGIO_00020173 -->
<g id="edge6" class="edge">
<title>example.org/permanentUrlToThisJsonDoc&#45;&gt;purl.unep.org/sdg/SDGIO_00020173</title>
<path fill="none" stroke="black" d="M362.73,-144.65C414.06,-140.96 470.96,-136.87 522.12,-133.18"/>
<polygon fill="black" stroke="black" points="522.55,-136.66 532.27,-132.45 522.05,-129.68 522.55,-136.66"/>
<text text-anchor="middle" x="453.66" y="-143.8" font-family="Times,serif" font-size="14.00">citation</text>
</g>
</g>
</svg>