<?xml version="1.0" encoding="UTF-8" standalone="no"?>
<!DOCTYPE svg PUBLIC "-//W3C//DTD SVG 1.1//EN"
 "http://www.w3.org/Graphics/SVG/1.1/DTD/svg11.dtd">
<!-- Generated by graphviz version 2.43.0 (0)
 -->
<!-- Title: %3 Pages: 1 -->
<svg width="1132pt" height="314pt"
 viewBox="0.00 0.00 1132.32 314.00" xmlns="http://www.w3.org/2000/svg" xmlns:xlink="http://www.w3.org/1999/xlink">
<g id="graph0" class="graph" transform="scale(1 1) rotate(0) translate(4 310)">
<title>%3</title>
<polygon fill="white" stroke="transparent" points="-4,4 -4,-310 1128.32,-310 1128.32,4 -4,4"/>
<!-- CreativeWork -->
<g id="node1" class="node">
<title>CreativeWork</title>
<ellipse fill="none" stroke="#558855" cx="630.45" cy="-212" rx="74.19" ry="18"/>
<text text-anchor="middle" x="630.45" y="-208.3" font-family="Times,serif" font-size="14.00">CreativeWork</text>
</g>
<!-- example.org/permanentUrlToThisJsonDoc -->
<g id="node2" class="node">
<title>example.org/permanentUrlToThisJsonDoc</title>
<ellipse fill="none" stroke="black" cx="204.08" cy="-158" rx="204.16" ry="18"/>
<text text-anchor="middle" x="204.08" y="-154.3" font-family="Times,serif" font-size="14.00">example.org/permanentUrlToThisJsonDoc</text>
</g>
<!-- example.org/permanentUrlToThisJsonDoc&#45;&gt;CreativeWork -->
<g id="edge1" class="edge">
<title>example.org/permanentUrlToThisJsonDoc&#45;&gt;CreativeWork</title>
<path fill="none" stroke="black" d="M321.04,-172.76C395.35,-182.21 489.64,-194.21 554.28,-202.43"/>
<polygon fill="black" stroke="black" points="554.03,-205.93 564.39,-203.72 554.92,-198.99 554.03,-205.93"/>
<text text-anchor="middle" x="460.16" y="-197.8" font-family="Times,serif" font-size="14.00">type</text>
</g>
<!-- www.repositoryB.org -->
<g id="node3" class="node">
<title>www.repositoryB.org</title>
<ellipse fill="none" stroke="#558855" cx="630.45" cy="-158" rx="109.38" ry="18"/>
<text text-anchor="middle" x="630.45" y="-154.3" font-family="Times,serif" font-size="14.00">www.repositoryB.org</text>
</g>
<!-- example.org/permanentUrlToThisJsonDoc&#45;&gt;www.repositoryB.org -->
<g id="edge2" class="edge">
<title>example.org/permanentUrlToThisJsonDoc&#45;&gt;www.repositoryB.org</title>
<path fill="none" stroke="black" d="M408.26,-158C443.41,-158 478.9,-158 510.85,-158"/>
<polygon fill="black" stroke="black" points="511.09,-161.5 521.09,-158 511.09,-154.5 511.09,-161.5"/>
<text text-anchor="middle" x="460.16" y="-161.8" font-family="Times,serif" font-size="14.00">provider</text>
</g>
<!-- www.publishingrus.org -->
<g id="node4" class="node">
<title>www.publishingrus.org</title>
<ellipse fill="none" stroke="#558855" cx="630.45" cy="-61" rx="118.08" ry="18"/>
<text text-anchor="middle" x="630.45" y="-57.3" font-family="Times,serif" font-size="14.00">www.publishingrus.org</text>
</g>
<!-- example.org/permanentUrlToThisJsonDoc&#45;&gt;www.publishingrus.org -->
<g id="edge3" class="edge">
<title>example.org/permanentUrlToThisJsonDoc&#45;&gt;www.publishingrus.org</title>
<path fill="none" stroke="black" d="M278.52,-141.21C355.48,-123.62 475.82,-96.12 553.66,-78.33"/>
<polygon fill="black" stroke="black" points="554.91,-81.63 563.87,-75.99 553.35,-74.81 554.91,-81.63"/>
<text text-anchor="middle" x="460.16" y="-109.8" font-family="Times,serif" font-size="14.00">publisher</text>
</g>
<!-- Organization -->
<g id="node5" class="node">
<title>Organization</title>
<ellipse fill="none" stroke="#558855" cx="993.03" cy="-72" rx="70.69" ry="18"/>
<text text-anchor="middle" x="993.03" y="-68.3" font-family="Times,serif" font-size="14.00">Organization</text>
</g>
<!-- www.repositoryB.org&#45;&gt;Organization -->
<g id="edge6" class="edge">
<title>www.repositoryB.org&#45;&gt;Organization</title>
<path fill="none" stroke="black" d="M686.29,-142.48C710.84,-135.66 740.18,-127.7 766.74,-121 808.76,-110.39 819.41,-108.29 861.74,-99 882.98,-94.34 906.2,-89.46 927.09,-85.15"/>
<polygon fill="black" stroke="black" points="928.05,-88.53 937.14,-83.08 926.64,-81.67 928.05,-88.53"/>
<text text-anchor="middle" x="805.24" y="-124.8" font-family="Times,serif" font-size="14.00">type</text>
</g>
<!-- &quot;Sample Data Reposito...&quot; -->
<g id="node7" class="node">
<title>&quot;Sample Data Reposito...&quot;</title>
<ellipse fill="none" stroke="black" stroke-width="0" cx="993.03" cy="-180" rx="131.08" ry="18"/>
<text text-anchor="middle" x="993.03" y="-176.3" font-family="Times,serif" font-size="14.00">&quot;Sample Data Reposito...&quot;</text>
</g>
<!-- www.repositoryB.org&#45;&gt;&quot;Sample Data Reposito...&quot; -->
<g id="edge7" class="edge">
<title>www.repositoryB.org&#45;&gt;&quot;Sample Data Reposito...&quot;</title>
<path fill="none" stroke="black" d="M733.33,-164.22C773.53,-166.67 820.19,-169.52 862.72,-172.11"/>
<polygon fill="black" stroke="black" points="862.67,-175.61 872.87,-172.73 863.1,-168.63 862.67,-175.61"/>
<text text-anchor="middle" x="805.24" y="-173.8" font-family="Times,serif" font-size="14.00">legalName</text>
</g>
<!-- &quot;SDRO&quot; -->
<g id="node8" class="node">
<title>&quot;SDRO&quot;</title>
<ellipse fill="none" stroke="black" stroke-width="0" cx="993.03" cy="-126" rx="47.39" ry="18"/>
<text text-anchor="middle" x="993.03" y="-122.3" font-family="Times,serif" font-size="14.00">&quot;SDRO&quot;</text>
</g>
<!-- www.repositoryB.org&#45;&gt;&quot;SDRO&quot; -->
<g id="edge8" class="edge">
<title>www.repositoryB.org&#45;&gt;&quot;SDRO&quot;</title>
<path fill="none" stroke="black" d="M727.13,-149.51C793.92,-143.58 880.73,-135.88 936.42,-130.93"/>
<polygon fill="black" stroke="black" points="936.8,-134.42 946.45,-130.05 936.18,-127.44 936.8,-134.42"/>
<text text-anchor="middle" x="805.24" y="-148.8" font-family="Times,serif" font-size="14.00">name</text>
</g>
<!-- &quot;http//www.re3data.or...&quot; -->
<g id="node9" class="node">
<title>&quot;http//www.re3data.or...&quot;</title>
<ellipse fill="none" stroke="black" stroke-width="0" cx="993.03" cy="-288" rx="126.98" ry="18"/>
<text text-anchor="middle" x="993.03" y="-284.3" font-family="Times,serif" font-size="14.00">&quot;http//www.re3data.or...&quot;</text>
</g>
<!-- www.repositoryB.org&#45;&gt;&quot;http//www.re3data.or...&quot; -->
<g id="edge9" class="edge">
<title>www.repositoryB.org&#45;&gt;&quot;http//www.re3data.or...&quot;</title>
<path fill="none" stroke="black" d="M718.86,-168.69C729.65,-172.64 739.95,-177.93 748.74,-185 763.31,-196.71 753.13,-210.2 766.74,-223 799.88,-254.15 818.2,-247.89 861.74,-261 875,-264.99 889.2,-268.6 903.16,-271.77"/>
<polygon fill="black" stroke="black" points="902.75,-275.27 913.27,-274.01 904.27,-268.43 902.75,-275.27"/>
<text text-anchor="middle" x="805.24" y="-258.8" font-family="Times,serif" font-size="14.00">sameAs</text>
</g>
<!-- &quot;https//www.sample&#45;da...&quot; -->
<g id="node10" class="node">
<title>&quot;https//www.sample&#45;da...&quot;</title>
<ellipse fill="none" stroke="black" stroke-width="0" cx="993.03" cy="-234" rx="131.08" ry="18"/>
<text text-anchor="middle" x="993.03" y="-230.3" font-family="Times,serif" font-size="14.00">&quot;https//www.sample&#45;da...&quot;</text>
</g>
<!-- www.repositoryB.org&#45;&gt;&quot;https//www.sample&#45;da...&quot; -->
<g id="edge10" class="edge">
<title>www.repositoryB.org&#45;&gt;&quot;https//www.sample&#45;da...&quot;</title>
<path fill="none" stroke="black" d="M694.94,-172.63C726.43,-179.87 759.32,-187.41 766.74,-189 812.69,-198.85 864.05,-209.16 906.12,-217.43"/>
<polygon fill="black" stroke="black" points="905.57,-220.89 916.05,-219.38 906.91,-214.02 905.57,-220.89"/>
<text text-anchor="middle" x="805.24" y="-207.8" font-family="Times,serif" font-size="14.00">url</text>
</g>
<!-- www.publishingrus.org&#45;&gt;Organization -->
<g id="edge4" class="edge">
<title>www.publishingrus.org&#45;&gt;Organization</title>
<path fill="none" stroke="black" d="M748.83,-60.24C779.71,-60.4 812.99,-60.89 843.74,-62 866.99,-62.84 892.26,-64.33 915.24,-65.9"/>
<polygon fill="black" stroke="black" points="915.05,-69.4 925.27,-66.61 915.54,-62.41 915.05,-69.4"/>
<text text-anchor="middle" x="805.24" y="-65.8" font-family="Times,serif" font-size="14.00">type</text>
</g>
<!-- &quot;Some Institute&quot; -->
<g id="node6" class="node">
<title>&quot;Some Institute&quot;</title>
<ellipse fill="none" stroke="black" stroke-width="0" cx="993.03" cy="-18" rx="88.28" ry="18"/>
<text text-anchor="middle" x="993.03" y="-14.3" font-family="Times,serif" font-size="14.00">&quot;Some Institute&quot;</text>
</g>
<!-- www.publishingrus.org&#45;&gt;&quot;Some Institute&quot; -->
<g id="edge5" class="edge">
<title>www.publishingrus.org&#45;&gt;&quot;Some Institute&quot;</title>
<path fill="none" stroke="black" d="M714.01,-48.19C731.4,-45.66 749.66,-43.13 766.74,-41 811.16,-35.45 860.64,-30.29 901.88,-26.27"/>
<polygon fill="black" stroke="black" points="902.29,-29.74 911.91,-25.3 901.62,-22.78 902.29,-29.74"/>
<text text-anchor="middle" x="805.24" y="-44.8" font-family="Times,serif" font-size="14.00">legalName</text>
</g>
</g>
</svg>