<?xml version="1.0" encoding="UTF-8" standalone="no"?>
<!DOCTYPE svg PUBLIC "-//W3C//DTD SVG 1.1//EN"
 "http://www.w3.org/Graphics/SVG/1.1/DTD/svg11.dtd">
<!-- Generated by graphviz version 2.43.0 (0)
 -->
<!-- Title: %3 Pages: 1 -->
<svg width="1265pt" height="206pt"
 viewBox="0.00 0.00 1264.71 206.00" xmlns="http://www.w3.org/2000/svg" xmlns:xlink="http://www.w3.org/1999/xlink">
<g id="graph0" class="graph" transform="scale(1 1) rotate(0) translate(4 202)">
<title>%3</title>
<polygon fill="white" stroke="transparent" points="-4,4 -4,-202 1260.71,-202 1260.71,4 -4,4"/>
<!-- CreativeWork -->
<g id="node1" class="node">
<title>CreativeWork</title>
<ellipse fill="none" stroke="#558855" cx="1122.82" cy="-180" rx="74.19" ry="18"/>
<text text-anchor="middle" x="1122.82" y="-176.3" font-family="Times,serif" font-size="14.00">CreativeWork</text>
</g>
<!-- purl.unep.org/sdg/SDGIO_00020173 -->
<g id="node2" class="node">
<title>purl.unep.org/sdg/SDGIO_00020173</title>
<ellipse fill="none" stroke="#558855" cx="692.55" cy="-99" rx="179.27" ry="18"/>
<text text-anchor="middle" x="692.55" y="-95.3" font-family="Times,serif" font-size="14.00">purl.unep.org/sdg/SDGIO_00020173</text>
</g>
<!-- purl.unep.org/sdg/SDGIO_00020173&#45;&gt;CreativeWork -->
<g id="edge1" class="edge">
<title>purl.unep.org/sdg/SDGIO_00020173&#45;&gt;CreativeWork</title>
<path fill="none" stroke="black" d="M777.65,-114.91C858.38,-130.18 978.8,-152.95 1053.7,-167.12"/>
<polygon fill="black" stroke="black" points="1053.49,-170.64 1063.96,-169.06 1054.79,-163.76 1053.49,-170.64"/>
<text text-anchor="middle" x="930.43" y="-152.8" font-family="Times,serif" font-size="14.00">type</text>
</g>
<!-- &quot;Number of countries ...&quot; -->
<g id="node3" class="node">
<title>&quot;Number of countries ...&quot;</title>
<ellipse fill="none" stroke="black" stroke-width="0" cx="1122.82" cy="-126" rx="127.28" ry="18"/>
<text text-anchor="middle" x="1122.82" y="-122.3" font-family="Times,serif" font-size="14.00">&quot;Number of countries ...&quot;</text>
</g>
<!-- purl.unep.org/sdg/SDGIO_00020173&#45;&gt;&quot;Number of countries ...&quot; -->
<g id="edge2" class="edge">
<title>purl.unep.org/sdg/SDGIO_00020173&#45;&gt;&quot;Number of countries ...&quot;</title>
<path fill="none" stroke="black" d="M844.84,-108.54C894.28,-111.66 948.63,-115.08 995.99,-118.07"/>
<polygon fill="black" stroke="black" points="995.79,-121.56 1005.99,-118.7 996.23,-114.58 995.79,-121.56"/>
<text text-anchor="middle" x="930.43" y="-118.8" font-family="Times,serif" font-size="14.00">description</text>
</g>
<!-- &quot;UNSD SDG indicator c...&quot; -->
<g id="node4" class="node">
<title>&quot;UNSD SDG indicator c...&quot;</title>
<ellipse fill="none" stroke="black" stroke-width="0" cx="1122.82" cy="-72" rx="133.78" ry="18"/>
<text text-anchor="middle" x="1122.82" y="-68.3" font-family="Times,serif" font-size="14.00">&quot;UNSD SDG indicator c...&quot;</text>
</g>
<!-- purl.unep.org/sdg/SDGIO_00020173&#45;&gt;&quot;UNSD SDG indicator c...&quot; -->
<g id="edge3" class="edge">
<title>purl.unep.org/sdg/SDGIO_00020173&#45;&gt;&quot;UNSD SDG indicator c...&quot;</title>
<path fill="none" stroke="black" d="M844.84,-89.46C892.61,-86.45 944.96,-83.15 991.16,-80.24"/>
<polygon fill="black" stroke="black" points="991.47,-83.73 1001.23,-79.6 991.03,-76.74 991.47,-83.73"/>
<text text-anchor="middle" x="930.43" y="-89.8" font-family="Times,serif" font-size="14.00">name</text>
</g>
<!-- &quot;http//www.ontobee.or...&quot; -->
<g id="node5" class="node">
<title>&quot;http//www.ontobee.or...&quot;</title>
<ellipse fill="none" stroke="black" stroke-width="0" cx="1122.82" cy="-18" rx="128.08" ry="18"/>
<text text-anchor="middle" x="1122.82" y="-14.3" font-family="Times,serif" font-size="14.00">&quot;http//www.ontobee.or...&quot;</text>
</g>
<!-- purl.unep.org/sdg/SDGIO_00020173&#45;&gt;&quot;http//www.ontobee.or...&quot; -->
<g id="edge4" class="edge">
<title>purl.unep.org/sdg/SDGIO_00020173&#45;&gt;&quot;http//www.ontobee.or...&quot;</title>
<path fill="none" stroke="black" d="M815.15,-85.83C834.38,-82.25 853.87,-77.73 871.93,-72 880.46,-69.3 881.46,-65.88 889.93,-63 931,-49.04 977.72,-38.93 1018.41,-31.88"/>
<polygon fill="black" stroke="black" points="1019.07,-35.32 1028.35,-30.2 1017.9,-28.42 1019.07,-35.32"/>
<text text-anchor="middle" x="930.43" y="-66.8" font-family="Times,serif" font-size="14.00">url</text>
</g>
<!-- Organization -->
<g id="node6" class="node">
<title>Organization</title>
<ellipse fill="none" stroke="#558855" cx="692.55" cy="-45" rx="70.69" ry="18"/>
<text text-anchor="middle" x="692.55" y="-41.3" font-family="Times,serif" font-size="14.00">Organization</text>
</g>
<!-- example.org/permanentUrlToThisJsonDoc -->
<g id="node7" class="node">
<title>example.org/permanentUrlToThisJsonDoc</title>
<ellipse fill="none" stroke="black" cx="204.08" cy="-64" rx="204.16" ry="18"/>
<text text-anchor="middle" x="204.08" y="-60.3" font-family="Times,serif" font-size="14.00">example.org/permanentUrlToThisJsonDoc</text>
</g>
<!-- example.org/permanentUrlToThisJsonDoc&#45;&gt;purl.unep.org/sdg/SDGIO_00020173 -->
<g id="edge6" class="edge">
<title>example.org/permanentUrlToThisJsonDoc&#45;&gt;purl.unep.org/sdg/SDGIO_00020173</title>
<path fill="none" stroke="black" d="M362.69,-75.34C418.2,-79.33 480.54,-83.82 535.9,-87.8"/>
<polygon fill="black" stroke="black" points="535.92,-91.31 546.15,-88.54 536.42,-84.33 535.92,-91.31"/>
<text text-anchor="middle" x="460.66" y="-87.8" font-family="Times,serif" font-size="14.00">subjectOf</text>
</g>
<!-- example.org/permanentUrlToThisJsonDoc&#45;&gt;Organization -->
<g id="edge5" class="edge">
<title>example.org/permanentUrlToThisJsonDoc&#45;&gt;Organization</title>
<path fill="none" stroke="black" d="M385.15,-55.69C399.03,-55.1 412.82,-54.53 426.16,-54 488.46,-51.53 558.99,-49.16 611.68,-47.47"/>
<polygon fill="black" stroke="black" points="612.09,-50.96 621.97,-47.14 611.87,-43.97 612.09,-50.96"/>
<text text-anchor="middle" x="460.66" y="-57.8" font-family="Times,serif" font-size="14.00">type</text>
</g>
</g>
</svg>