<?xml version="1.0" encoding="UTF-8" standalone="no"?>
<!DOCTYPE svg PUBLIC "-//W3C//DTD SVG 1.1//EN"
 "http://www.w3.org/Graphics/SVG/1.1/DTD/svg11.dtd">
<!-- Generated by graphviz version 2.43.0 (0)
 -->
<!-- Title: %3 Pages: 1 -->
<svg width="1121pt" height="206pt"
 viewBox="0.00 0.00 1121.32 206.00" xmlns="http://www.w3.org/2000/svg" xmlns:xlink="http://www.w3.org/1999/xlink">
<g id="graph0" class="graph" transform="scale(1 1) rotate(0) translate(4 202)">
<title>%3</title>
<polygon fill="white" stroke="transparent" points="-4,4 -4,-202 1117.32,-202 1117.32,4 -4,4"/>
<!-- PropertyValue -->
<g id="node1" class="node">
<title>PropertyValue</title>
<ellipse fill="none" stroke="#558855" cx="991.13" cy="-180" rx="77.19" ry="18"/>
<text text-anchor="middle" x="991.13" y="-176.3" font-family="Times,serif" font-size="14.00">PropertyValue</text>
</g>
<!-- example.org/id/vessel/X -->
<g id="node2" class="node">
<title>example.org/id/vessel/X</title>
<ellipse fill="none" stroke="#558855" cx="631.05" cy="-99" rx="120.78" ry="18"/>
<text text-anchor="middle" x="631.05" y="-95.3" font-family="Times,serif" font-size="14.00">example.org/id/vessel/X</text>
</g>
<!-- example.org/id/vessel/X&#45;&gt;PropertyValue -->
<g id="edge1" class="edge">
<title>example.org/id/vessel/X&#45;&gt;PropertyValue</title>
<path fill="none" stroke="black" d="M693.05,-114.48C716.98,-120.44 744.71,-127.2 769.94,-133 821.01,-144.74 878.97,-157.08 922.61,-166.16"/>
<polygon fill="black" stroke="black" points="922.03,-169.62 932.53,-168.22 923.45,-162.76 922.03,-169.62"/>
<text text-anchor="middle" x="810.44" y="-153.8" font-family="Times,serif" font-size="14.00">type</text>
</g>
<!-- &quot;Vessel ID &quot; -->
<g id="node3" class="node">
<title>&quot;Vessel ID &quot;</title>
<ellipse fill="none" stroke="black" stroke-width="0" cx="991.13" cy="-126" rx="65.79" ry="18"/>
<text text-anchor="middle" x="991.13" y="-122.3" font-family="Times,serif" font-size="14.00">&quot;Vessel ID &quot;</text>
</g>
<!-- example.org/id/vessel/X&#45;&gt;&quot;Vessel ID &quot; -->
<g id="edge2" class="edge">
<title>example.org/id/vessel/X&#45;&gt;&quot;Vessel ID &quot;</title>
<path fill="none" stroke="black" d="M739.49,-107.1C797.04,-111.44 866.41,-116.67 917.57,-120.53"/>
<polygon fill="black" stroke="black" points="917.31,-124.02 927.55,-121.28 917.84,-117.04 917.31,-124.02"/>
<text text-anchor="middle" x="810.44" y="-117.8" font-family="Times,serif" font-size="14.00">description</text>
</g>
<!-- &quot;https//en.wikipedia....&quot; -->
<g id="node4" class="node">
<title>&quot;https//en.wikipedia....&quot;</title>
<ellipse fill="none" stroke="black" stroke-width="0" cx="991.13" cy="-72" rx="120.48" ry="18"/>
<text text-anchor="middle" x="991.13" y="-68.3" font-family="Times,serif" font-size="14.00">&quot;https//en.wikipedia....&quot;</text>
</g>
<!-- example.org/id/vessel/X&#45;&gt;&quot;https//en.wikipedia....&quot; -->
<g id="edge3" class="edge">
<title>example.org/id/vessel/X&#45;&gt;&quot;https//en.wikipedia....&quot;</title>
<path fill="none" stroke="black" d="M739.49,-90.9C781.64,-87.72 830.12,-84.07 873.15,-80.82"/>
<polygon fill="black" stroke="black" points="873.68,-84.29 883.39,-80.05 873.15,-77.31 873.68,-84.29"/>
<text text-anchor="middle" x="810.44" y="-90.8" font-family="Times,serif" font-size="14.00">propertyID</text>
</g>
<!-- &quot;https//example.org/i...&quot; -->
<g id="node5" class="node">
<title>&quot;https//example.org/i...&quot;</title>
<ellipse fill="none" stroke="black" stroke-width="0" cx="991.13" cy="-18" rx="122.38" ry="18"/>
<text text-anchor="middle" x="991.13" y="-14.3" font-family="Times,serif" font-size="14.00">&quot;https//example.org/i...&quot;</text>
</g>
<!-- example.org/id/vessel/X&#45;&gt;&quot;https//example.org/i...&quot; -->
<g id="edge4" class="edge">
<title>example.org/id/vessel/X&#45;&gt;&quot;https//example.org/i...&quot;</title>
<path fill="none" stroke="black" d="M705.91,-84.77C721.28,-81.14 737.26,-76.86 751.94,-72 760.25,-69.25 761.61,-66.69 769.94,-64 810.89,-50.79 857.37,-40.43 897.04,-32.92"/>
<polygon fill="black" stroke="black" points="897.78,-36.34 906.97,-31.07 896.5,-29.46 897.78,-36.34"/>
<text text-anchor="middle" x="810.44" y="-67.8" font-family="Times,serif" font-size="14.00">url</text>
</g>
<!-- Vehicle -->
<g id="node6" class="node">
<title>Vehicle</title>
<ellipse fill="none" stroke="#558855" cx="631.05" cy="-45" rx="44.39" ry="18"/>
<text text-anchor="middle" x="631.05" y="-41.3" font-family="Times,serif" font-size="14.00">Vehicle</text>
</g>
<!-- example.org/permanentUrlToThisJsonDoc -->
<g id="node7" class="node">
<title>example.org/permanentUrlToThisJsonDoc</title>
<ellipse fill="none" stroke="black" cx="204.08" cy="-64" rx="204.16" ry="18"/>
<text text-anchor="middle" x="204.08" y="-60.3" font-family="Times,serif" font-size="14.00">example.org/permanentUrlToThisJsonDoc</text>
</g>
<!-- example.org/permanentUrlToThisJsonDoc&#45;&gt;example.org/id/vessel/X -->
<g id="edge6" class="edge">
<title>example.org/permanentUrlToThisJsonDoc&#45;&gt;example.org/id/vessel/X</title>
<path fill="none" stroke="black" d="M353.72,-76.24C406.56,-80.59 465.22,-85.42 514.85,-89.51"/>
<polygon fill="black" stroke="black" points="514.72,-93.01 524.97,-90.35 515.29,-86.04 514.72,-93.01"/>
<text text-anchor="middle" x="459.16" y="-89.8" font-family="Times,serif" font-size="14.00">identifier</text>
</g>
<!-- example.org/permanentUrlToThisJsonDoc&#45;&gt;Vehicle -->
<g id="edge5" class="edge">
<title>example.org/permanentUrlToThisJsonDoc&#45;&gt;Vehicle</title>
<path fill="none" stroke="black" d="M386.06,-55.8C399.63,-55.19 413.11,-54.58 426.16,-54 477.39,-51.71 535.87,-49.13 577.02,-47.33"/>
<polygon fill="black" stroke="black" points="577.26,-50.82 587.09,-46.88 576.95,-43.82 577.26,-50.82"/>
<text text-anchor="middle" x="459.16" y="-57.8" font-family="Times,serif" font-size="14.00">type</text>
</g>
</g>
</svg>