<?xml version="1.0" encoding="UTF-8" standalone="no"?>
<!DOCTYPE svg PUBLIC "-//W3C//DTD SVG 1.1//EN"
 "http://www.w3.org/Graphics/SVG/1.1/DTD/svg11.dtd">
<!-- Generated by graphviz version 2.43.0 (0)
 -->
<!-- Title: %3 Pages: 1 -->
<svg width="1772pt" height="989pt"
 viewBox="0.00 0.00 1771.58 989.00" xmlns="http://www.w3.org/2000/svg" xmlns:xlink="http://www.w3.org/1999/xlink">
<g id="graph0" class="graph" transform="scale(1 1) rotate(0) translate(4 985)">
<title>%3</title>
<polygon fill="white" stroke="transparent" points="-4,4 -4,-985 1767.58,-985 1767.58,4 -4,4"/>
<!-- PropertyValue -->
<g id="node1" class="node">
<title>PropertyValue</title>
<ellipse fill="none" stroke="#558855" cx="1619.29" cy="-963" rx="77.19" ry="18"/>
<text text-anchor="middle" x="1619.29" y="-959.3" font-family="Times,serif" font-size="14.00">PropertyValue</text>
</g>
<!-- example.org/base/ID_value_string -->
<g id="node2" class="node">
<title>example.org/base/ID_value_string</title>
<ellipse fill="none" stroke="#558855" cx="1190.32" cy="-882" rx="167.87" ry="18"/>
<text text-anchor="middle" x="1190.32" y="-878.3" font-family="Times,serif" font-size="14.00">example.org/base/ID_value_string</text>
</g>
<!-- example.org/base/ID_value_string&#45;&gt;PropertyValue -->
<g id="edge1" class="edge">
<title>example.org/base/ID_value_string&#45;&gt;PropertyValue</title>
<path fill="none" stroke="black" d="M1273.55,-897.7C1330.18,-908.49 1407.15,-923.15 1475.01,-936 1499.05,-940.55 1525.38,-945.52 1548.82,-949.94"/>
<polygon fill="black" stroke="black" points="1548.21,-953.38 1558.68,-951.79 1549.5,-946.5 1548.21,-953.38"/>
<text text-anchor="middle" x="1416.51" y="-934.8" font-family="Times,serif" font-size="14.00">type</text>
</g>
<!-- &quot;Optional description of t...&quot; -->
<g id="node3" class="node">
<title>&quot;Optional description of t...&quot;</title>
<ellipse fill="none" stroke="black" stroke-width="0" cx="1619.29" cy="-909" rx="141.88" ry="18"/>
<text text-anchor="middle" x="1619.29" y="-905.3" font-family="Times,serif" font-size="14.00">&quot;Optional description of t...&quot;</text>
</g>
<!-- example.org/base/ID_value_string&#45;&gt;&quot;Optional description of t...&quot; -->
<g id="edge2" class="edge">
<title>example.org/base/ID_value_string&#45;&gt;&quot;Optional description of t...&quot;</title>
<path fill="none" stroke="black" d="M1335.28,-891.1C1382.64,-894.1 1435.14,-897.42 1481.92,-900.38"/>
<polygon fill="black" stroke="black" points="1481.92,-903.88 1492.12,-901.02 1482.36,-896.9 1481.92,-903.88"/>
<text text-anchor="middle" x="1416.51" y="-901.8" font-family="Times,serif" font-size="14.00">description</text>
</g>
<!-- &quot;This can be text or URL f...&quot; -->
<g id="node4" class="node">
<title>&quot;This can be text or URL f...&quot;</title>
<ellipse fill="none" stroke="black" stroke-width="0" cx="1619.29" cy="-855" rx="144.07" ry="18"/>
<text text-anchor="middle" x="1619.29" y="-851.3" font-family="Times,serif" font-size="14.00">&quot;This can be text or URL f...&quot;</text>
</g>
<!-- example.org/base/ID_value_string&#45;&gt;&quot;This can be text or URL f...&quot; -->
<g id="edge3" class="edge">
<title>example.org/base/ID_value_string&#45;&gt;&quot;This can be text or URL f...&quot;</title>
<path fill="none" stroke="black" d="M1335.28,-872.9C1382.08,-869.94 1433.89,-866.66 1480.25,-863.73"/>
<polygon fill="black" stroke="black" points="1480.6,-867.21 1490.36,-863.09 1480.16,-860.23 1480.6,-867.21"/>
<text text-anchor="middle" x="1416.51" y="-873.8" font-family="Times,serif" font-size="14.00">propertyID</text>
</g>
<!-- &quot;https//foo.org/linkToProp...&quot; -->
<g id="node5" class="node">
<title>&quot;https//foo.org/linkToProp...&quot;</title>
<ellipse fill="none" stroke="black" stroke-width="0" cx="1619.29" cy="-801" rx="143.77" ry="18"/>
<text text-anchor="middle" x="1619.29" y="-797.3" font-family="Times,serif" font-size="14.00">&quot;https//foo.org/linkToProp...&quot;</text>
</g>
<!-- example.org/base/ID_value_string&#45;&gt;&quot;https//foo.org/linkToProp...&quot; -->
<g id="edge4" class="edge">
<title>example.org/base/ID_value_string&#45;&gt;&quot;https//foo.org/linkToProp...&quot;</title>
<path fill="none" stroke="black" d="M1303.16,-868.69C1321.71,-865.11 1340.57,-860.63 1358.01,-855 1366.52,-852.25 1367.53,-848.84 1376.01,-846 1417.5,-832.08 1464.52,-822.1 1506.03,-815.13"/>
<polygon fill="black" stroke="black" points="1506.59,-818.59 1515.9,-813.52 1505.46,-811.68 1506.59,-818.59"/>
<text text-anchor="middle" x="1416.51" y="-849.8" font-family="Times,serif" font-size="14.00">url</text>
</g>
<!-- Course -->
<g id="node6" class="node">
<title>Course</title>
<ellipse fill="none" stroke="#558855" cx="739.4" cy="-726" rx="43.59" ry="18"/>
<text text-anchor="middle" x="739.4" y="-722.3" font-family="Times,serif" font-size="14.00">Course</text>
</g>
<!-- example.org/permanentUrlToThisJsonDoc -->
<g id="node7" class="node">
<title>example.org/permanentUrlToThisJsonDoc</title>
<ellipse fill="none" stroke="black" cx="204.08" cy="-542" rx="204.16" ry="18"/>
<text text-anchor="middle" x="204.08" y="-538.3" font-family="Times,serif" font-size="14.00">example.org/permanentUrlToThisJsonDoc</text>
</g>
<!-- example.org/permanentUrlToThisJsonDoc&#45;&gt;Course -->
<g id="edge5" class="edge">
<title>example.org/permanentUrlToThisJsonDoc&#45;&gt;Course</title>
<path fill="none" stroke="black" d="M233.34,-559.98C274.38,-585.4 353.53,-631.9 426.16,-660 492.01,-685.48 511.09,-684.38 580.16,-699 616.05,-706.59 656.86,-713.52 688.05,-718.45"/>
<polygon fill="black" stroke="black" points="687.82,-721.96 698.24,-720.05 688.9,-715.04 687.82,-721.96"/>
<text text-anchor="middle" x="494.16" y="-698.8" font-family="Times,serif" font-size="14.00">type</text>
</g>
<!-- &quot;SD100&quot; -->
<g id="node8" class="node">
<title>&quot;SD100&quot;</title>
<ellipse fill="none" stroke="black" stroke-width="0" cx="739.4" cy="-672" rx="50.89" ry="18"/>
<text text-anchor="middle" x="739.4" y="-668.3" font-family="Times,serif" font-size="14.00">&quot;SD100&quot;</text>
</g>
<!-- example.org/permanentUrlToThisJsonDoc&#45;&gt;&quot;SD100&quot; -->
<g id="edge6" class="edge">
<title>example.org/permanentUrlToThisJsonDoc&#45;&gt;&quot;SD100&quot;</title>
<path fill="none" stroke="black" d="M257.92,-559.47C302.51,-573.92 368.16,-594.51 426.16,-610 493.98,-628.11 511.32,-631.31 580.16,-645 614.05,-651.74 652.23,-658.28 682.6,-663.24"/>
<polygon fill="black" stroke="black" points="682.15,-666.71 692.58,-664.86 683.27,-659.8 682.15,-666.71"/>
<text text-anchor="middle" x="494.16" y="-644.8" font-family="Times,serif" font-size="14.00">courseCode</text>
</g>
<!-- &quot;An introduction to author...&quot; -->
<g id="node9" class="node">
<title>&quot;An introduction to author...&quot;</title>
<ellipse fill="none" stroke="black" stroke-width="0" cx="739.4" cy="-618" rx="145.67" ry="18"/>
<text text-anchor="middle" x="739.4" y="-614.3" font-family="Times,serif" font-size="14.00">&quot;An introduction to author...&quot;</text>
</g>
<!-- example.org/permanentUrlToThisJsonDoc&#45;&gt;&quot;An introduction to author...&quot; -->
<g id="edge7" class="edge">
<title>example.org/permanentUrlToThisJsonDoc&#45;&gt;&quot;An introduction to author...&quot;</title>
<path fill="none" stroke="black" d="M312.37,-557.29C405.84,-570.61 540.58,-589.81 633.38,-603.03"/>
<polygon fill="black" stroke="black" points="632.96,-606.51 643.35,-604.46 633.95,-599.58 632.96,-606.51"/>
<text text-anchor="middle" x="494.16" y="-594.8" font-family="Times,serif" font-size="14.00">description</text>
</g>
<!-- _ -->
<g id="node10" class="node">
<title>_</title>
<ellipse fill="none" stroke="#558855" cx="739.4" cy="-531" rx="27" ry="18"/>
<text text-anchor="middle" x="739.4" y="-527.3" font-family="Times,serif" font-size="14.00">_</text>
</g>
<!-- example.org/permanentUrlToThisJsonDoc&#45;&gt;_ -->
<g id="edge8" class="edge">
<title>example.org/permanentUrlToThisJsonDoc&#45;&gt;_</title>
<path fill="none" stroke="black" d="M408.57,-541.59C458.79,-541.13 512.43,-540.34 562.16,-539 610.58,-537.7 666.43,-534.95 702.06,-533.04"/>
<polygon fill="black" stroke="black" points="702.64,-536.52 712.43,-532.48 702.26,-529.53 702.64,-536.52"/>
<text text-anchor="middle" x="494.16" y="-544.8" font-family="Times,serif" font-size="14.00">hasCourseInstance</text>
</g>
<!-- example.org/permanentUrlToThisJsonDoc&#45;&gt;_ -->
<g id="edge9" class="edge">
<title>example.org/permanentUrlToThisJsonDoc&#45;&gt;_</title>
<path fill="none" stroke="black" d="M327.42,-527.64C359.5,-524.47 394.09,-521.59 426.16,-520 486.53,-517 501.75,-518.12 562.16,-520 610.62,-521.51 666.46,-525.35 702.07,-528.07"/>
<polygon fill="black" stroke="black" points="702.2,-531.59 712.44,-528.87 702.74,-524.61 702.2,-531.59"/>
<text text-anchor="middle" x="494.16" y="-523.8" font-family="Times,serif" font-size="14.00">hasCourseInstance</text>
</g>
<!-- &quot;Structured Data&quot; -->
<g id="node11" class="node">
<title>&quot;Structured Data&quot;</title>
<ellipse fill="none" stroke="black" stroke-width="0" cx="739.4" cy="-477" rx="94.78" ry="18"/>
<text text-anchor="middle" x="739.4" y="-473.3" font-family="Times,serif" font-size="14.00">&quot;Structured Data&quot;</text>
</g>
<!-- example.org/permanentUrlToThisJsonDoc&#45;&gt;&quot;Structured Data&quot; -->
<g id="edge10" class="edge">
<title>example.org/permanentUrlToThisJsonDoc&#45;&gt;&quot;Structured Data&quot;</title>
<path fill="none" stroke="black" d="M279.16,-525.25C321.92,-516.17 376.83,-505.51 426.16,-499 495.95,-489.79 575.06,-484.27 636.19,-481.06"/>
<polygon fill="black" stroke="black" points="636.42,-484.55 646.22,-480.54 636.06,-477.56 636.42,-484.55"/>
<text text-anchor="middle" x="494.16" y="-502.8" font-family="Times,serif" font-size="14.00">name</text>
</g>
<!-- grid.ac/institutes/grid.475727.4 -->
<g id="node12" class="node">
<title>grid.ac/institutes/grid.475727.4</title>
<ellipse fill="none" stroke="#558855" cx="739.4" cy="-126" rx="159.47" ry="18"/>
<text text-anchor="middle" x="739.4" y="-122.3" font-family="Times,serif" font-size="14.00">grid.ac/institutes/grid.475727.4</text>
</g>
<!-- example.org/permanentUrlToThisJsonDoc&#45;&gt;grid.ac/institutes/grid.475727.4 -->
<g id="edge11" class="edge">
<title>example.org/permanentUrlToThisJsonDoc&#45;&gt;grid.ac/institutes/grid.475727.4</title>
<path fill="none" stroke="black" d="M228.34,-523.86C313.76,-457.23 610.25,-225.96 707.35,-150.22"/>
<polygon fill="black" stroke="black" points="709.59,-152.91 715.32,-144 705.28,-147.39 709.59,-152.91"/>
<text text-anchor="middle" x="494.16" y="-361.8" font-family="Times,serif" font-size="14.00">provider</text>
</g>
<!-- &quot;JSON&#45;LD&quot; -->
<g id="node13" class="node">
<title>&quot;JSON&#45;LD&quot;</title>
<ellipse fill="none" stroke="black" stroke-width="0" cx="739.4" cy="-72" rx="60.39" ry="18"/>
<text text-anchor="middle" x="739.4" y="-68.3" font-family="Times,serif" font-size="14.00">&quot;JSON&#45;LD&quot;</text>
</g>
<!-- example.org/permanentUrlToThisJsonDoc&#45;&gt;&quot;JSON&#45;LD&quot; -->
<g id="edge12" class="edge">
<title>example.org/permanentUrlToThisJsonDoc&#45;&gt;&quot;JSON&#45;LD&quot;</title>
<path fill="none" stroke="black" d="M213.8,-523.75C248.38,-453.65 383.68,-200.6 580.16,-99 607.29,-84.97 640.19,-78.01 668.94,-74.63"/>
<polygon fill="black" stroke="black" points="669.35,-78.11 678.93,-73.58 668.61,-71.14 669.35,-78.11"/>
<text text-anchor="middle" x="494.16" y="-215.8" font-family="Times,serif" font-size="14.00">teaches</text>
</g>
<!-- _&#45;&gt;example.org/base/ID_value_string -->
<g id="edge23" class="edge">
<title>_&#45;&gt;example.org/base/ID_value_string</title>
<path fill="none" stroke="black" d="M766.53,-532.59C802.78,-536.33 867.38,-548.89 898.64,-591 933.42,-637.86 876.15,-810.97 916.64,-853 963.1,-901.23 1040.83,-905.21 1101.44,-899.01"/>
<polygon fill="black" stroke="black" points="1101.86,-902.49 1111.4,-897.89 1101.07,-895.53 1101.86,-902.49"/>
<text text-anchor="middle" x="960.64" y="-898.8" font-family="Times,serif" font-size="14.00">identifier</text>
</g>
<!-- _&#45;&gt;_ -->
<g id="edge17" class="edge">
<title>_&#45;&gt;_</title>
<path fill="none" stroke="black" d="M714.67,-538.6C686.25,-551 694.5,-567 739.4,-567 778.69,-567 789.91,-554.75 773.07,-543.38"/>
<polygon fill="black" stroke="black" points="774.6,-540.23 764.13,-538.6 771.3,-546.4 774.6,-540.23"/>
<text text-anchor="middle" x="739.4" y="-570.8" font-family="Times,serif" font-size="14.00">attendee</text>
</g>
<!-- CourseInstance -->
<g id="node17" class="node">
<title>CourseInstance</title>
<ellipse fill="none" stroke="#558855" cx="1190.32" cy="-828" rx="83.39" ry="18"/>
<text text-anchor="middle" x="1190.32" y="-824.3" font-family="Times,serif" font-size="14.00">CourseInstance</text>
</g>
<!-- _&#45;&gt;CourseInstance -->
<g id="edge16" class="edge">
<title>_&#45;&gt;CourseInstance</title>
<path fill="none" stroke="black" d="M766.46,-532.64C802.62,-536.45 867.11,-549.09 898.64,-591 928.25,-630.38 881.4,-777.56 916.64,-812 942.21,-837 1032.31,-838.1 1102.02,-834.78"/>
<polygon fill="black" stroke="black" points="1102.34,-838.26 1112.15,-834.26 1101.98,-831.27 1102.34,-838.26"/>
<text text-anchor="middle" x="960.64" y="-837.8" font-family="Times,serif" font-size="14.00">type</text>
</g>
<!-- _&#45;&gt;CourseInstance -->
<g id="edge28" class="edge">
<title>_&#45;&gt;CourseInstance</title>
<path fill="none" stroke="black" d="M766.36,-532.72C802.39,-536.62 866.74,-549.37 898.64,-591 923.22,-623.09 890.05,-741.55 916.64,-772 943.08,-802.29 966.55,-780.11 1004.64,-793 1012.93,-795.81 1014.25,-798.5 1022.64,-801 1048.92,-808.83 1078.25,-814.54 1104.9,-818.64"/>
<polygon fill="black" stroke="black" points="1104.56,-822.12 1114.96,-820.13 1105.58,-815.2 1104.56,-822.12"/>
<text text-anchor="middle" x="960.64" y="-796.8" font-family="Times,serif" font-size="14.00">type</text>
</g>
<!-- &quot;MOOC1&quot; -->
<g id="node18" class="node">
<title>&quot;MOOC1&quot;</title>
<ellipse fill="none" stroke="black" stroke-width="0" cx="1190.32" cy="-774" rx="55.79" ry="18"/>
<text text-anchor="middle" x="1190.32" y="-770.3" font-family="Times,serif" font-size="14.00">&quot;MOOC1&quot;</text>
</g>
<!-- _&#45;&gt;&quot;MOOC1&quot; -->
<g id="edge18" class="edge">
<title>_&#45;&gt;&quot;MOOC1&quot;</title>
<path fill="none" stroke="black" d="M766.5,-532.88C802.4,-536.97 866.26,-549.93 898.64,-591 937.75,-640.61 872.54,-686.75 916.64,-732 931.07,-746.81 1050.19,-760.76 1126.14,-768.26"/>
<polygon fill="black" stroke="black" points="1125.8,-771.75 1136.09,-769.23 1126.48,-764.78 1125.8,-771.75"/>
<text text-anchor="middle" x="960.64" y="-756.8" font-family="Times,serif" font-size="14.00">courseMode</text>
</g>
<!-- &quot;online&quot; -->
<g id="node19" class="node">
<title>&quot;online&quot;</title>
<ellipse fill="none" stroke="black" stroke-width="0" cx="1190.32" cy="-720" rx="48.19" ry="18"/>
<text text-anchor="middle" x="1190.32" y="-716.3" font-family="Times,serif" font-size="14.00">&quot;online&quot;</text>
</g>
<!-- _&#45;&gt;&quot;online&quot; -->
<g id="edge19" class="edge">
<title>_&#45;&gt;&quot;online&quot;</title>
<path fill="none" stroke="black" d="M766.27,-533.06C801.91,-537.36 865.45,-550.58 898.64,-591 929.24,-628.27 881.1,-665.4 916.64,-698 932.12,-712.2 1056.45,-717.28 1131.78,-719.06"/>
<polygon fill="black" stroke="black" points="1131.99,-722.57 1142.06,-719.29 1132.15,-715.57 1131.99,-722.57"/>
<text text-anchor="middle" x="960.64" y="-716.8" font-family="Times,serif" font-size="14.00">courseMode</text>
</g>
<!-- _&#45;&gt;&quot;online&quot; -->
<g id="edge30" class="edge">
<title>_&#45;&gt;&quot;online&quot;</title>
<path fill="none" stroke="black" d="M766.2,-533.72C801.17,-538.78 863.28,-552.87 898.64,-591 917.85,-611.73 896.76,-631.91 916.64,-652 945.41,-681.08 968.34,-660.13 1004.64,-679 1013.63,-683.67 1013.34,-688.95 1022.64,-693 1057.22,-708.07 1099.16,-714.81 1132.31,-717.79"/>
<polygon fill="black" stroke="black" points="1132.05,-721.28 1142.3,-718.6 1132.62,-714.3 1132.05,-721.28"/>
<text text-anchor="middle" x="960.64" y="-682.8" font-family="Times,serif" font-size="14.00">courseMode</text>
</g>
<!-- &quot;2019&#45;03&#45;21&quot; -->
<g id="node20" class="node">
<title>&quot;2019&#45;03&#45;21&quot;</title>
<ellipse fill="none" stroke="black" stroke-width="0" cx="1190.32" cy="-666" rx="72.29" ry="18"/>
<text text-anchor="middle" x="1190.32" y="-662.3" font-family="Times,serif" font-size="14.00">&quot;2019&#45;03&#45;21&quot;</text>
</g>
<!-- _&#45;&gt;&quot;2019&#45;03&#45;21&quot; -->
<g id="edge20" class="edge">
<title>_&#45;&gt;&quot;2019&#45;03&#45;21&quot;</title>
<path fill="none" stroke="black" d="M763.62,-539.34C794.6,-550.58 851.09,-571.44 898.64,-591 906.73,-594.33 908.54,-595.68 916.64,-599 963.22,-618.12 973.98,-626.02 1022.64,-639 1052.28,-646.91 1085.55,-652.86 1114.52,-657.14"/>
<polygon fill="black" stroke="black" points="1114.18,-660.63 1124.57,-658.58 1115.17,-653.7 1114.18,-660.63"/>
<text text-anchor="middle" x="960.64" y="-636.8" font-family="Times,serif" font-size="14.00">endDate</text>
</g>
<!-- &quot;2019&#45;02&#45;15&quot; -->
<g id="node21" class="node">
<title>&quot;2019&#45;02&#45;15&quot;</title>
<ellipse fill="none" stroke="black" stroke-width="0" cx="1190.32" cy="-612" rx="72.29" ry="18"/>
<text text-anchor="middle" x="1190.32" y="-608.3" font-family="Times,serif" font-size="14.00">&quot;2019&#45;02&#45;15&quot;</text>
</g>
<!-- _&#45;&gt;&quot;2019&#45;02&#45;15&quot; -->
<g id="edge21" class="edge">
<title>_&#45;&gt;&quot;2019&#45;02&#45;15&quot;</title>
<path fill="none" stroke="black" d="M765.65,-536.1C814.96,-546.01 927.55,-568.33 1022.64,-585 1054.02,-590.5 1088.8,-596.2 1118.43,-600.93"/>
<polygon fill="black" stroke="black" points="1118.26,-604.45 1128.69,-602.57 1119.36,-597.54 1118.26,-604.45"/>
<text text-anchor="middle" x="960.64" y="-583.8" font-family="Times,serif" font-size="14.00">startDate</text>
</g>
<!-- Person -->
<g id="node22" class="node">
<title>Person</title>
<ellipse fill="none" stroke="#558855" cx="1190.32" cy="-558" rx="42.49" ry="18"/>
<text text-anchor="middle" x="1190.32" y="-554.3" font-family="Times,serif" font-size="14.00">Person</text>
</g>
<!-- _&#45;&gt;Person -->
<g id="edge22" class="edge">
<title>_&#45;&gt;Person</title>
<path fill="none" stroke="black" d="M766.48,-532.57C838.7,-536.91 1042.3,-549.16 1138.18,-554.92"/>
<polygon fill="black" stroke="black" points="1138.02,-558.42 1148.22,-555.53 1138.45,-551.43 1138.02,-558.42"/>
<text text-anchor="middle" x="960.64" y="-549.8" font-family="Times,serif" font-size="14.00">type</text>
</g>
<!-- &quot;Professor&quot; -->
<g id="node23" class="node">
<title>&quot;Professor&quot;</title>
<ellipse fill="none" stroke="black" stroke-width="0" cx="1190.32" cy="-504" rx="63.89" ry="18"/>
<text text-anchor="middle" x="1190.32" y="-500.3" font-family="Times,serif" font-size="14.00">&quot;Professor&quot;</text>
</g>
<!-- _&#45;&gt;&quot;Professor&quot; -->
<g id="edge24" class="edge">
<title>_&#45;&gt;&quot;Professor&quot;</title>
<path fill="none" stroke="black" d="M766.48,-529.43C833.87,-525.38 1015.66,-514.44 1117.57,-508.32"/>
<polygon fill="black" stroke="black" points="1118.01,-511.8 1127.78,-507.7 1117.59,-504.81 1118.01,-511.8"/>
<text text-anchor="middle" x="960.64" y="-522.8" font-family="Times,serif" font-size="14.00">jobTitle</text>
</g>
<!-- &quot;Jane Doe&quot; -->
<g id="node24" class="node">
<title>&quot;Jane Doe&quot;</title>
<ellipse fill="none" stroke="black" stroke-width="0" cx="1190.32" cy="-450" rx="60.39" ry="18"/>
<text text-anchor="middle" x="1190.32" y="-446.3" font-family="Times,serif" font-size="14.00">&quot;Jane Doe&quot;</text>
</g>
<!-- _&#45;&gt;&quot;Jane Doe&quot; -->
<g id="edge25" class="edge">
<title>_&#45;&gt;&quot;Jane Doe&quot;</title>
<path fill="none" stroke="black" d="M766.34,-528.58C798.06,-525.16 853.15,-517.75 898.64,-504 907.02,-501.47 908.27,-498.57 916.64,-496 985.12,-474.98 1066.41,-462.84 1122.31,-456.36"/>
<polygon fill="black" stroke="black" points="1122.9,-459.82 1132.44,-455.22 1122.11,-452.86 1122.9,-459.82"/>
<text text-anchor="middle" x="960.64" y="-499.8" font-family="Times,serif" font-size="14.00">name</text>
</g>
<!-- &quot;(425) 123&#45;4567&quot; -->
<g id="node25" class="node">
<title>&quot;(425) 123&#45;4567&quot;</title>
<ellipse fill="none" stroke="black" stroke-width="0" cx="1190.32" cy="-396" rx="90.98" ry="18"/>
<text text-anchor="middle" x="1190.32" y="-392.3" font-family="Times,serif" font-size="14.00">&quot;(425) 123&#45;4567&quot;</text>
</g>
<!-- _&#45;&gt;&quot;(425) 123&#45;4567&quot; -->
<g id="edge26" class="edge">
<title>_&#45;&gt;&quot;(425) 123&#45;4567&quot;</title>
<path fill="none" stroke="black" d="M766.31,-533.91C800.56,-536.28 860.93,-535.15 898.64,-504 916.2,-489.49 900.07,-471.65 916.64,-456 962.59,-412.59 1032.5,-397.84 1090.02,-393.81"/>
<polygon fill="black" stroke="black" points="1090.47,-397.29 1100.24,-393.2 1090.05,-390.3 1090.47,-397.29"/>
<text text-anchor="middle" x="960.64" y="-459.8" font-family="Times,serif" font-size="14.00">telephone</text>
</g>
<!-- &quot;http//www.janedoe.com&quot; -->
<g id="node26" class="node">
<title>&quot;http//www.janedoe.com&quot;</title>
<ellipse fill="none" stroke="black" stroke-width="0" cx="1190.32" cy="-342" rx="128.08" ry="18"/>
<text text-anchor="middle" x="1190.32" y="-338.3" font-family="Times,serif" font-size="14.00">&quot;http//www.janedoe.com&quot;</text>
</g>
<!-- _&#45;&gt;&quot;http//www.janedoe.com&quot; -->
<g id="edge27" class="edge">
<title>_&#45;&gt;&quot;http//www.janedoe.com&quot;</title>
<path fill="none" stroke="black" d="M765.81,-534.84C800.89,-538.56 863.78,-539.29 898.64,-504 934.68,-467.51 881.08,-426.97 916.64,-390 949.93,-355.38 975.37,-377.51 1022.64,-369 1045.61,-364.87 1070.42,-360.69 1093.7,-356.9"/>
<polygon fill="black" stroke="black" points="1094.26,-360.36 1103.57,-355.3 1093.14,-353.45 1094.26,-360.36"/>
<text text-anchor="middle" x="960.64" y="-393.8" font-family="Times,serif" font-size="14.00">url</text>
</g>
<!-- &quot;MOOC2&quot; -->
<g id="node27" class="node">
<title>&quot;MOOC2&quot;</title>
<ellipse fill="none" stroke="black" stroke-width="0" cx="1190.32" cy="-288" rx="55.79" ry="18"/>
<text text-anchor="middle" x="1190.32" y="-284.3" font-family="Times,serif" font-size="14.00">&quot;MOOC2&quot;</text>
</g>
<!-- _&#45;&gt;&quot;MOOC2&quot; -->
<g id="edge29" class="edge">
<title>_&#45;&gt;&quot;MOOC2&quot;</title>
<path fill="none" stroke="black" d="M766.01,-535.03C801.33,-538.98 864.49,-539.99 898.64,-504 946.06,-454.01 873.08,-403.4 916.64,-350 966.41,-288.97 1062.6,-280.39 1126.39,-282.29"/>
<polygon fill="black" stroke="black" points="1126.6,-285.8 1136.73,-282.7 1126.87,-278.81 1126.6,-285.8"/>
<text text-anchor="middle" x="960.64" y="-353.8" font-family="Times,serif" font-size="14.00">courseMode</text>
</g>
<!-- &quot;2019&#45;05&#45;21&quot; -->
<g id="node28" class="node">
<title>&quot;2019&#45;05&#45;21&quot;</title>
<ellipse fill="none" stroke="black" stroke-width="0" cx="1190.32" cy="-234" rx="72.29" ry="18"/>
<text text-anchor="middle" x="1190.32" y="-230.3" font-family="Times,serif" font-size="14.00">&quot;2019&#45;05&#45;21&quot;</text>
</g>
<!-- _&#45;&gt;&quot;2019&#45;05&#45;21&quot; -->
<g id="edge31" class="edge">
<title>_&#45;&gt;&quot;2019&#45;05&#45;21&quot;</title>
<path fill="none" stroke="black" d="M765.9,-535.17C801.39,-539.36 865.08,-540.72 898.64,-504 932.77,-466.65 882.26,-314.14 916.64,-277 967.13,-222.44 1056.55,-218.21 1119.18,-223.35"/>
<polygon fill="black" stroke="black" points="1119.1,-226.86 1129.38,-224.29 1119.74,-219.89 1119.1,-226.86"/>
<text text-anchor="middle" x="960.64" y="-280.8" font-family="Times,serif" font-size="14.00">endDate</text>
</g>
<!-- &quot;2019&#45;04&#45;15&quot; -->
<g id="node29" class="node">
<title>&quot;2019&#45;04&#45;15&quot;</title>
<ellipse fill="none" stroke="black" stroke-width="0" cx="1190.32" cy="-180" rx="72.29" ry="18"/>
<text text-anchor="middle" x="1190.32" y="-176.3" font-family="Times,serif" font-size="14.00">&quot;2019&#45;04&#45;15&quot;</text>
</g>
<!-- _&#45;&gt;&quot;2019&#45;04&#45;15&quot; -->
<g id="edge32" class="edge">
<title>_&#45;&gt;&quot;2019&#45;04&#45;15&quot;</title>
<path fill="none" stroke="black" d="M765.69,-535.22C801.22,-539.53 865.31,-541.12 898.64,-504 942.07,-455.63 871.95,-259.22 916.64,-212 969.08,-156.57 1062.57,-157.95 1125.26,-166.77"/>
<polygon fill="black" stroke="black" points="1125.02,-170.27 1135.43,-168.3 1126.06,-163.35 1125.02,-170.27"/>
<text text-anchor="middle" x="960.64" y="-215.8" font-family="Times,serif" font-size="14.00">startDate</text>
</g>
<!-- Organization -->
<g id="node14" class="node">
<title>Organization</title>
<ellipse fill="none" stroke="#558855" cx="1190.32" cy="-126" rx="70.69" ry="18"/>
<text text-anchor="middle" x="1190.32" y="-122.3" font-family="Times,serif" font-size="14.00">Organization</text>
</g>
<!-- grid.ac/institutes/grid.475727.4&#45;&gt;Organization -->
<g id="edge13" class="edge">
<title>grid.ac/institutes/grid.475727.4&#45;&gt;Organization</title>
<path fill="none" stroke="black" d="M898.67,-126C969.88,-126 1050.84,-126 1109.2,-126"/>
<polygon fill="black" stroke="black" points="1109.46,-129.5 1119.46,-126 1109.46,-122.5 1109.46,-129.5"/>
<text text-anchor="middle" x="960.64" y="-129.8" font-family="Times,serif" font-size="14.00">type</text>
</g>
<!-- &quot;UN Department of Economic...&quot; -->
<g id="node15" class="node">
<title>&quot;UN Department of Economic...&quot;</title>
<ellipse fill="none" stroke="black" stroke-width="0" cx="1190.32" cy="-72" rx="162.47" ry="18"/>
<text text-anchor="middle" x="1190.32" y="-68.3" font-family="Times,serif" font-size="14.00">&quot;UN Department of Economic...&quot;</text>
</g>
<!-- grid.ac/institutes/grid.475727.4&#45;&gt;&quot;UN Department of Economic...&quot; -->
<g id="edge14" class="edge">
<title>grid.ac/institutes/grid.475727.4&#45;&gt;&quot;UN Department of Economic...&quot;</title>
<path fill="none" stroke="black" d="M849.07,-112.93C915.73,-104.91 1001.14,-94.64 1069.71,-86.39"/>
<polygon fill="black" stroke="black" points="1070.19,-89.85 1079.7,-85.19 1069.36,-82.91 1070.19,-89.85"/>
<text text-anchor="middle" x="960.64" y="-106.8" font-family="Times,serif" font-size="14.00">description</text>
</g>
<!-- &quot;Example University&quot; -->
<g id="node16" class="node">
<title>&quot;Example University&quot;</title>
<ellipse fill="none" stroke="black" stroke-width="0" cx="1190.32" cy="-18" rx="111.58" ry="18"/>
<text text-anchor="middle" x="1190.32" y="-14.3" font-family="Times,serif" font-size="14.00">&quot;Example University&quot;</text>
</g>
<!-- grid.ac/institutes/grid.475727.4&#45;&gt;&quot;Example University&quot; -->
<g id="edge15" class="edge">
<title>grid.ac/institutes/grid.475727.4&#45;&gt;&quot;Example University&quot;</title>
<path fill="none" stroke="black" d="M862.92,-114.56C875.46,-110.65 887.63,-105.57 898.64,-99 909.78,-92.35 905.89,-83.28 916.64,-76 957.27,-48.46 974.76,-55.83 1022.64,-45 1045.78,-39.76 1070.95,-35.14 1094.55,-31.26"/>
<polygon fill="black" stroke="black" points="1095.25,-34.7 1104.56,-29.65 1094.13,-27.79 1095.25,-34.7"/>
<text text-anchor="middle" x="960.64" y="-79.8" font-family="Times,serif" font-size="14.00">name</text>
</g>
</g>
</svg>