<?xml version="1.0" encoding="UTF-8" standalone="no"?>
<!DOCTYPE svg PUBLIC "-//W3C//DTD SVG 1.1//EN"
 "http://www.w3.org/Graphics/SVG/1.1/DTD/svg11.dtd">
<!-- Generated by graphviz version 2.43.0 (0)
 -->
<!-- Title: %3 Pages: 1 -->
<svg width="1078pt" height="206pt"
 viewBox="0.00 0.00 1078.42 206.00" xmlns="http://www.w3.org/2000/svg" xmlns:xlink="http://www.w3.org/1999/xlink">
<g id="graph0" class="graph" transform="scale(1 1) rotate(0) translate(4 202)">
<title>%3</title>
<polygon fill="white" stroke="transparent" points="-4,4 -4,-202 1074.42,-202 1074.42,4 -4,4"/>
<!-- ResearchProject -->
<g id="node1" class="node">
<title>ResearchProject</title>
<ellipse fill="none" stroke="#558855" cx="597.26" cy="-153" rx="87.18" ry="18"/>
<text text-anchor="middle" x="597.26" y="-149.3" font-family="Times,serif" font-size="14.00">ResearchProject</text>
</g>
<!-- example.org/permanentUrlToThisJsonDoc -->
<g id="node2" class="node">
<title>example.org/permanentUrlToThisJsonDoc</title>
<ellipse fill="none" stroke="black" cx="204.08" cy="-126" rx="204.16" ry="18"/>
<text text-anchor="middle" x="204.08" y="-122.3" font-family="Times,serif" font-size="14.00">example.org/permanentUrlToThisJsonDoc</text>
</g>
<!-- example.org/permanentUrlToThisJsonDoc&#45;&gt;ResearchProject -->
<g id="edge1" class="edge">
<title>example.org/permanentUrlToThisJsonDoc&#45;&gt;ResearchProject</title>
<path fill="none" stroke="black" d="M365.32,-137.06C412.68,-140.33 462.91,-143.8 504.38,-146.66"/>
<polygon fill="black" stroke="black" points="504.24,-150.16 514.46,-147.35 504.72,-143.17 504.24,-150.16"/>
<text text-anchor="middle" x="459.16" y="-148.8" font-family="Times,serif" font-size="14.00">type</text>
</g>
<!-- _ -->
<g id="node3" class="node">
<title>_</title>
<ellipse fill="none" stroke="#558855" cx="597.26" cy="-99" rx="27" ry="18"/>
<text text-anchor="middle" x="597.26" y="-95.3" font-family="Times,serif" font-size="14.00">_</text>
</g>
<!-- example.org/permanentUrlToThisJsonDoc&#45;&gt;_ -->
<g id="edge2" class="edge">
<title>example.org/permanentUrlToThisJsonDoc&#45;&gt;_</title>
<path fill="none" stroke="black" d="M365.32,-114.94C437.2,-109.98 515.67,-104.56 560.14,-101.49"/>
<polygon fill="black" stroke="black" points="560.42,-104.98 570.15,-100.8 559.94,-98 560.42,-104.98"/>
<text text-anchor="middle" x="459.16" y="-113.8" font-family="Times,serif" font-size="14.00">identifier</text>
</g>
<!-- PropertyValue -->
<g id="node4" class="node">
<title>PropertyValue</title>
<ellipse fill="none" stroke="#558855" cx="935.89" cy="-180" rx="77.19" ry="18"/>
<text text-anchor="middle" x="935.89" y="-176.3" font-family="Times,serif" font-size="14.00">PropertyValue</text>
</g>
<!-- _&#45;&gt;PropertyValue -->
<g id="edge3" class="edge">
<title>_&#45;&gt;PropertyValue</title>
<path fill="none" stroke="black" d="M622.04,-106.34C639.35,-111.7 663.33,-119.2 684.35,-126 692.37,-128.6 694.21,-129.79 702.35,-132 755.71,-146.5 817.01,-158.99 863.27,-167.59"/>
<polygon fill="black" stroke="black" points="862.73,-171.05 873.2,-169.42 864,-164.16 862.73,-171.05"/>
<text text-anchor="middle" x="742.85" y="-153.8" font-family="Times,serif" font-size="14.00">type</text>
</g>
<!-- &quot;UN Department of Eco...&quot; -->
<g id="node5" class="node">
<title>&quot;UN Department of Eco...&quot;</title>
<ellipse fill="none" stroke="black" stroke-width="0" cx="935.89" cy="-126" rx="134.58" ry="18"/>
<text text-anchor="middle" x="935.89" y="-122.3" font-family="Times,serif" font-size="14.00">&quot;UN Department of Eco...&quot;</text>
</g>
<!-- _&#45;&gt;&quot;UN Department of Eco...&quot; -->
<g id="edge4" class="edge">
<title>_&#45;&gt;&quot;UN Department of Eco...&quot;</title>
<path fill="none" stroke="black" d="M624.11,-101.07C663.65,-104.25 741.71,-110.51 809.71,-115.96"/>
<polygon fill="black" stroke="black" points="809.84,-119.48 820.09,-116.79 810.4,-112.5 809.84,-119.48"/>
<text text-anchor="middle" x="742.85" y="-116.8" font-family="Times,serif" font-size="14.00">description</text>
</g>
<!-- &quot;https//registry.iden...&quot; -->
<g id="node6" class="node">
<title>&quot;https//registry.iden...&quot;</title>
<ellipse fill="none" stroke="black" stroke-width="0" cx="935.89" cy="-72" rx="116.98" ry="18"/>
<text text-anchor="middle" x="935.89" y="-68.3" font-family="Times,serif" font-size="14.00">&quot;https//registry.iden...&quot;</text>
</g>
<!-- _&#45;&gt;&quot;https//registry.iden...&quot; -->
<g id="edge5" class="edge">
<title>_&#45;&gt;&quot;https//registry.iden...&quot;</title>
<path fill="none" stroke="black" d="M623.9,-96.03C644.95,-93.65 675.56,-90.34 702.35,-88 739.47,-84.76 779.98,-81.78 816.63,-79.3"/>
<polygon fill="black" stroke="black" points="817.12,-82.77 826.86,-78.61 816.65,-75.79 817.12,-82.77"/>
<text text-anchor="middle" x="742.85" y="-91.8" font-family="Times,serif" font-size="14.00">propertyID</text>
</g>
<!-- &quot;https//grid.ac/insti...&quot; -->
<g id="node7" class="node">
<title>&quot;https//grid.ac/insti...&quot;</title>
<ellipse fill="none" stroke="black" stroke-width="0" cx="935.89" cy="-18" rx="114.28" ry="18"/>
<text text-anchor="middle" x="935.89" y="-14.3" font-family="Times,serif" font-size="14.00">&quot;https//grid.ac/insti...&quot;</text>
</g>
<!-- _&#45;&gt;&quot;https//grid.ac/insti...&quot; -->
<g id="edge6" class="edge">
<title>_&#45;&gt;&quot;https//grid.ac/insti...&quot;</title>
<path fill="none" stroke="black" d="M620.68,-89.89C641.55,-81.69 673.65,-69.76 702.35,-62 748.07,-49.63 799.76,-39.48 842.78,-32.06"/>
<polygon fill="black" stroke="black" points="843.4,-35.5 852.67,-30.37 842.22,-28.6 843.4,-35.5"/>
<text text-anchor="middle" x="742.85" y="-65.8" font-family="Times,serif" font-size="14.00">url</text>
</g>
</g>
</svg>