<?xml version="1.0" encoding="UTF-8" standalone="no"?>
<!DOCTYPE svg PUBLIC "-//W3C//DTD SVG 1.1//EN"
 "http://www.w3.org/Graphics/SVG/1.1/DTD/svg11.dtd">
<!-- Generated by graphviz version 2.43.0 (0)
 -->
<!-- Title: %3 Pages: 1 -->
<svg width="1099pt" height="368pt"
 viewBox="0.00 0.00 1098.53 368.00" xmlns="http://www.w3.org/2000/svg" xmlns:xlink="http://www.w3.org/1999/xlink">
<g id="graph0" class="graph" transform="scale(1 1) rotate(0) translate(4 364)">
<title>%3</title>
<polygon fill="white" stroke="transparent" points="-4,4 -4,-364 1094.53,-364 1094.53,4 -4,4"/>
<!-- Dataset -->
<g id="node1" class="node">
<title>Dataset</title>
<ellipse fill="none" stroke="#558855" cx="606.96" cy="-300" rx="46.59" ry="18"/>
<text text-anchor="middle" x="606.96" y="-296.3" font-family="Times,serif" font-size="14.00">Dataset</text>
</g>
<!-- example.org/permanentUrlToThisJsonDoc -->
<g id="node2" class="node">
<title>example.org/permanentUrlToThisJsonDoc</title>
<ellipse fill="none" stroke="black" cx="204.08" cy="-240" rx="204.16" ry="18"/>
<text text-anchor="middle" x="204.08" y="-236.3" font-family="Times,serif" font-size="14.00">example.org/permanentUrlToThisJsonDoc</text>
</g>
<!-- example.org/permanentUrlToThisJsonDoc&#45;&gt;Dataset -->
<g id="edge1" class="edge">
<title>example.org/permanentUrlToThisJsonDoc&#45;&gt;Dataset</title>
<path fill="none" stroke="black" d="M308.58,-255.49C386.92,-267.22 491.29,-282.84 553.27,-292.11"/>
<polygon fill="black" stroke="black" points="552.81,-295.58 563.22,-293.6 553.84,-288.66 552.81,-295.58"/>
<text text-anchor="middle" x="484.16" y="-292.8" font-family="Times,serif" font-size="14.00">type</text>
</g>
<!-- _ -->
<g id="node3" class="node">
<title>_</title>
<ellipse fill="none" stroke="#558855" cx="606.96" cy="-180" rx="27" ry="18"/>
<text text-anchor="middle" x="606.96" y="-176.3" font-family="Times,serif" font-size="14.00">_</text>
</g>
<!-- example.org/permanentUrlToThisJsonDoc&#45;&gt;_ -->
<g id="edge2" class="edge">
<title>example.org/permanentUrlToThisJsonDoc&#45;&gt;_</title>
<path fill="none" stroke="black" d="M308.58,-224.51C394.63,-211.63 512.07,-194.05 570.26,-185.34"/>
<polygon fill="black" stroke="black" points="571.05,-188.76 580.42,-183.82 570.01,-181.84 571.05,-188.76"/>
<text text-anchor="middle" x="484.16" y="-209.8" font-family="Times,serif" font-size="14.00">spatialCoverage</text>
</g>
<!-- _&#45;&gt;_ -->
<g id="edge4" class="edge">
<title>_&#45;&gt;_</title>
<path fill="none" stroke="black" d="M597.75,-197.04C595.86,-206.86 598.94,-216 606.96,-216 611.97,-216 615.05,-212.43 616.2,-207.35"/>
<polygon fill="black" stroke="black" points="619.7,-207.03 616.17,-197.04 612.7,-207.05 619.7,-207.03"/>
<text text-anchor="middle" x="606.96" y="-219.8" font-family="Times,serif" font-size="14.00">additionalProperty</text>
</g>
<!-- _&#45;&gt;_ -->
<g id="edge5" class="edge">
<title>_&#45;&gt;_</title>
<path fill="none" stroke="black" d="M592.64,-195.48C582.48,-213.33 587.26,-234 606.96,-234 623.28,-234 629.35,-219.82 625.19,-204.81"/>
<polygon fill="black" stroke="black" points="628.37,-203.35 621.28,-195.48 621.92,-206.05 628.37,-203.35"/>
<text text-anchor="middle" x="606.96" y="-237.8" font-family="Times,serif" font-size="14.00">geo</text>
</g>
<!-- Place -->
<g id="node4" class="node">
<title>Place</title>
<ellipse fill="none" stroke="#558855" cx="930.64" cy="-342" rx="36" ry="18"/>
<text text-anchor="middle" x="930.64" y="-338.3" font-family="Times,serif" font-size="14.00">Place</text>
</g>
<!-- _&#45;&gt;Place -->
<g id="edge3" class="edge">
<title>_&#45;&gt;Place</title>
<path fill="none" stroke="black" d="M614.69,-197.56C624.15,-220 643.45,-258.62 671.76,-281 733.8,-330.06 828.81,-340.74 884.54,-342.46"/>
<polygon fill="black" stroke="black" points="884.73,-345.96 894.8,-342.69 884.88,-338.97 884.73,-345.96"/>
<text text-anchor="middle" x="712.26" y="-323.8" font-family="Times,serif" font-size="14.00">type</text>
</g>
<!-- PropertyValue -->
<g id="node5" class="node">
<title>PropertyValue</title>
<ellipse fill="none" stroke="#558855" cx="930.64" cy="-288" rx="77.19" ry="18"/>
<text text-anchor="middle" x="930.64" y="-284.3" font-family="Times,serif" font-size="14.00">PropertyValue</text>
</g>
<!-- _&#45;&gt;PropertyValue -->
<g id="edge6" class="edge">
<title>_&#45;&gt;PropertyValue</title>
<path fill="none" stroke="black" d="M622.95,-195.17C635.14,-206.74 653.29,-222.28 671.76,-232 726.03,-260.56 794.07,-274.57 846.62,-281.43"/>
<polygon fill="black" stroke="black" points="846.23,-284.9 856.59,-282.67 847.09,-277.96 846.23,-284.9"/>
<text text-anchor="middle" x="712.26" y="-265.8" font-family="Times,serif" font-size="14.00">type</text>
</g>
<!-- &quot;https//dbpedia.org/page/S...&quot; -->
<g id="node6" class="node">
<title>&quot;https//dbpedia.org/page/S...&quot;</title>
<ellipse fill="none" stroke="black" stroke-width="0" cx="930.64" cy="-234" rx="148.37" ry="18"/>
<text text-anchor="middle" x="930.64" y="-230.3" font-family="Times,serif" font-size="14.00">&quot;https//dbpedia.org/page/S...&quot;</text>
</g>
<!-- _&#45;&gt;&quot;https//dbpedia.org/page/S...&quot; -->
<g id="edge7" class="edge">
<title>_&#45;&gt;&quot;https//dbpedia.org/page/S...&quot;</title>
<path fill="none" stroke="black" d="M631.37,-187.92C643.33,-191.72 658.2,-196.08 671.76,-199 715.2,-208.36 763.33,-215.69 806.14,-221.18"/>
<polygon fill="black" stroke="black" points="805.97,-224.68 816.32,-222.46 806.84,-217.74 805.97,-224.68"/>
<text text-anchor="middle" x="712.26" y="-216.8" font-family="Times,serif" font-size="14.00">propertyID</text>
</g>
<!-- &quot;https//www.w3.org/2003/01...&quot; -->
<g id="node7" class="node">
<title>&quot;https//www.w3.org/2003/01...&quot;</title>
<ellipse fill="none" stroke="black" stroke-width="0" cx="930.64" cy="-180" rx="157.07" ry="18"/>
<text text-anchor="middle" x="930.64" y="-176.3" font-family="Times,serif" font-size="14.00">&quot;https//www.w3.org/2003/01...&quot;</text>
</g>
<!-- _&#45;&gt;&quot;https//www.w3.org/2003/01...&quot; -->
<g id="edge8" class="edge">
<title>_&#45;&gt;&quot;https//www.w3.org/2003/01...&quot;</title>
<path fill="none" stroke="black" d="M634.01,-180C663.11,-180 712.77,-180 763.17,-180"/>
<polygon fill="black" stroke="black" points="763.26,-183.5 773.26,-180 763.26,-176.5 763.26,-183.5"/>
<text text-anchor="middle" x="712.26" y="-183.8" font-family="Times,serif" font-size="14.00">value</text>
</g>
<!-- GeoShape -->
<g id="node8" class="node">
<title>GeoShape</title>
<ellipse fill="none" stroke="#558855" cx="930.64" cy="-126" rx="57.69" ry="18"/>
<text text-anchor="middle" x="930.64" y="-122.3" font-family="Times,serif" font-size="14.00">GeoShape</text>
</g>
<!-- _&#45;&gt;GeoShape -->
<g id="edge9" class="edge">
<title>_&#45;&gt;GeoShape</title>
<path fill="none" stroke="black" d="M631.37,-172.08C643.33,-168.28 658.2,-163.92 671.76,-161 736.77,-147 812.27,-137.52 864.71,-132"/>
<polygon fill="black" stroke="black" points="865.29,-135.46 874.88,-130.95 864.57,-128.5 865.29,-135.46"/>
<text text-anchor="middle" x="712.26" y="-164.8" font-family="Times,serif" font-size="14.00">type</text>
</g>
<!-- &quot;schema.org expects lat lo...&quot; -->
<g id="node9" class="node">
<title>&quot;schema.org expects lat lo...&quot;</title>
<ellipse fill="none" stroke="black" stroke-width="0" cx="930.64" cy="-72" rx="146.77" ry="18"/>
<text text-anchor="middle" x="930.64" y="-68.3" font-family="Times,serif" font-size="14.00">&quot;schema.org expects lat lo...&quot;</text>
</g>
<!-- _&#45;&gt;&quot;schema.org expects lat lo...&quot; -->
<g id="edge10" class="edge">
<title>_&#45;&gt;&quot;schema.org expects lat lo...&quot;</title>
<path fill="none" stroke="black" d="M622.37,-164.96C634.52,-153.09 652.9,-136.92 671.76,-127 712.06,-105.79 760,-92.76 803.54,-84.75"/>
<polygon fill="black" stroke="black" points="804.39,-88.15 813.63,-82.97 803.17,-81.26 804.39,-88.15"/>
<text text-anchor="middle" x="712.26" y="-130.8" font-family="Times,serif" font-size="14.00">description</text>
</g>
<!-- &quot;10.161667 142.014,18.0338...&quot; -->
<g id="node10" class="node">
<title>&quot;10.161667 142.014,18.0338...&quot;</title>
<ellipse fill="none" stroke="black" stroke-width="0" cx="930.64" cy="-18" rx="159.77" ry="18"/>
<text text-anchor="middle" x="930.64" y="-14.3" font-family="Times,serif" font-size="14.00">&quot;10.161667 142.014,18.0338...&quot;</text>
</g>
<!-- _&#45;&gt;&quot;10.161667 142.014,18.0338...&quot; -->
<g id="edge11" class="edge">
<title>_&#45;&gt;&quot;10.161667 142.014,18.0338...&quot;</title>
<path fill="none" stroke="black" d="M614.37,-162.41C623.61,-139.5 642.78,-99.7 671.76,-77 703.17,-52.39 742.97,-37.69 781.84,-29.01"/>
<polygon fill="black" stroke="black" points="782.64,-32.42 791.7,-26.93 781.19,-25.57 782.64,-32.42"/>
<text text-anchor="middle" x="712.26" y="-80.8" font-family="Times,serif" font-size="14.00">polygon</text>
</g>
</g>
</svg>