<?xml version="1.0" encoding="UTF-8" standalone="no"?>
<!DOCTYPE svg PUBLIC "-//W3C//DTD SVG 1.1//EN"
 "http://www.w3.org/Graphics/SVG/1.1/DTD/svg11.dtd">
<!-- Generated by graphviz version 2.43.0 (0)
 -->
<!-- Title: %3 Pages: 1 -->
<svg width="1204pt" height="368pt"
 viewBox="0.00 0.00 1204.42 368.00" xmlns="http://www.w3.org/2000/svg" xmlns:xlink="http://www.w3.org/1999/xlink">
<g id="graph0" class="graph" transform="scale(1 1) rotate(0) translate(4 364)">
<title>%3</title>
<polygon fill="white" stroke="transparent" points="-4,4 -4,-364 1200.42,-364 1200.42,4 -4,4"/>
<!-- Course -->
<g id="node1" class="node">
<title>Course</title>
<ellipse fill="none" stroke="#558855" cx="1044.98" cy="-342" rx="43.59" ry="18"/>
<text text-anchor="middle" x="1044.98" y="-338.3" font-family="Times,serif" font-size="14.00">Course</text>
</g>
<!-- example.org/id/course/x -->
<g id="node2" class="node">
<title>example.org/id/course/x</title>
<ellipse fill="none" stroke="#558855" cx="654.35" cy="-272" rx="122.38" ry="18"/>
<text text-anchor="middle" x="654.35" y="-268.3" font-family="Times,serif" font-size="14.00">example.org/id/course/x</text>
</g>
<!-- example.org/id/course/x&#45;&gt;Course -->
<g id="edge1" class="edge">
<title>example.org/id/course/x&#45;&gt;Course</title>
<path fill="none" stroke="black" d="M728.26,-286.44C749.6,-290.59 772.99,-295.05 794.54,-299 863.69,-311.67 943.83,-325.29 994.21,-333.74"/>
<polygon fill="black" stroke="black" points="993.75,-337.21 1004.19,-335.4 994.9,-330.3 993.75,-337.21"/>
<text text-anchor="middle" x="835.04" y="-315.8" font-family="Times,serif" font-size="14.00">type</text>
</g>
<!-- &quot;In this course ...&quot; -->
<g id="node3" class="node">
<title>&quot;In this course ...&quot;</title>
<ellipse fill="none" stroke="black" stroke-width="0" cx="1044.98" cy="-288" rx="94.78" ry="18"/>
<text text-anchor="middle" x="1044.98" y="-284.3" font-family="Times,serif" font-size="14.00">&quot;In this course ...&quot;</text>
</g>
<!-- example.org/id/course/x&#45;&gt;&quot;In this course ...&quot; -->
<g id="edge2" class="edge">
<title>example.org/id/course/x&#45;&gt;&quot;In this course ...&quot;</title>
<path fill="none" stroke="black" d="M772.22,-276.81C826.18,-279.03 889.67,-281.65 941.71,-283.79"/>
<polygon fill="black" stroke="black" points="941.82,-287.3 951.96,-284.21 942.11,-280.3 941.82,-287.3"/>
<text text-anchor="middle" x="835.04" y="-283.8" font-family="Times,serif" font-size="14.00">description</text>
</g>
<!-- &quot;URL to the course&quot; -->
<g id="node4" class="node">
<title>&quot;URL to the course&quot;</title>
<ellipse fill="none" stroke="black" stroke-width="0" cx="1044.98" cy="-234" rx="103.98" ry="18"/>
<text text-anchor="middle" x="1044.98" y="-230.3" font-family="Times,serif" font-size="14.00">&quot;URL to the course&quot;</text>
</g>
<!-- example.org/id/course/x&#45;&gt;&quot;URL to the course&quot; -->
<g id="edge3" class="edge">
<title>example.org/id/course/x&#45;&gt;&quot;URL to the course&quot;</title>
<path fill="none" stroke="black" d="M756.7,-262.09C814.41,-256.45 886.43,-249.41 943.92,-243.78"/>
<polygon fill="black" stroke="black" points="944.5,-247.24 954.11,-242.79 943.82,-240.28 944.5,-247.24"/>
<text text-anchor="middle" x="835.04" y="-260.8" font-family="Times,serif" font-size="14.00">url</text>
</g>
<!-- Person -->
<g id="node5" class="node">
<title>Person</title>
<ellipse fill="none" stroke="#558855" cx="654.35" cy="-202" rx="42.49" ry="18"/>
<text text-anchor="middle" x="654.35" y="-198.3" font-family="Times,serif" font-size="14.00">Person</text>
</g>
<!-- example.org/permanentUrlToThisJsonDoc -->
<g id="node6" class="node">
<title>example.org/permanentUrlToThisJsonDoc</title>
<ellipse fill="none" stroke="black" cx="204.08" cy="-183" rx="204.16" ry="18"/>
<text text-anchor="middle" x="204.08" y="-179.3" font-family="Times,serif" font-size="14.00">example.org/permanentUrlToThisJsonDoc</text>
</g>
<!-- example.org/permanentUrlToThisJsonDoc&#45;&gt;example.org/id/course/x -->
<g id="edge5" class="edge">
<title>example.org/permanentUrlToThisJsonDoc&#45;&gt;example.org/id/course/x</title>
<path fill="none" stroke="black" d="M287.82,-199.43C368.37,-215.42 490.09,-239.58 570.63,-255.58"/>
<polygon fill="black" stroke="black" points="570.24,-259.07 580.73,-257.58 571.6,-252.2 570.24,-259.07"/>
<text text-anchor="middle" x="470.16" y="-246.8" font-family="Times,serif" font-size="14.00">knowsAbout</text>
</g>
<!-- example.org/permanentUrlToThisJsonDoc&#45;&gt;Person -->
<g id="edge4" class="edge">
<title>example.org/permanentUrlToThisJsonDoc&#45;&gt;Person</title>
<path fill="none" stroke="black" d="M388.38,-190.77C465.73,-194.05 549.79,-197.61 602.02,-199.82"/>
<polygon fill="black" stroke="black" points="601.9,-203.32 612.03,-200.25 602.19,-196.33 601.9,-203.32"/>
<text text-anchor="middle" x="470.16" y="-198.8" font-family="Times,serif" font-size="14.00">type</text>
</g>
<!-- _ -->
<g id="node7" class="node">
<title>_</title>
<ellipse fill="none" stroke="#558855" cx="654.35" cy="-126" rx="27" ry="18"/>
<text text-anchor="middle" x="654.35" y="-122.3" font-family="Times,serif" font-size="14.00">_</text>
</g>
<!-- example.org/permanentUrlToThisJsonDoc&#45;&gt;_ -->
<g id="edge6" class="edge">
<title>example.org/permanentUrlToThisJsonDoc&#45;&gt;_</title>
<path fill="none" stroke="black" d="M321.11,-168.25C419.2,-155.77 553.62,-138.68 617.21,-130.6"/>
<polygon fill="black" stroke="black" points="618.03,-134.02 627.51,-129.29 617.15,-127.08 618.03,-134.02"/>
<text text-anchor="middle" x="470.16" y="-157.8" font-family="Times,serif" font-size="14.00">knowsAbout</text>
</g>
<!-- example.org/permanentUrlToThisJsonDoc&#45;&gt;_ -->
<g id="edge7" class="edge">
<title>example.org/permanentUrlToThisJsonDoc&#45;&gt;_</title>
<path fill="none" stroke="black" d="M256.6,-165.46C300.94,-151.34 366.93,-132.64 426.16,-125 464.95,-120 475.05,-124.86 514.16,-125 549.09,-125.13 588.95,-125.43 617.03,-125.67"/>
<polygon fill="black" stroke="black" points="617.16,-129.17 627.19,-125.76 617.22,-122.17 617.16,-129.17"/>
<text text-anchor="middle" x="470.16" y="-128.8" font-family="Times,serif" font-size="14.00">knowsAbout</text>
</g>
<!-- Text -->
<g id="node8" class="node">
<title>Text</title>
<ellipse fill="none" stroke="#558855" cx="1044.98" cy="-180" rx="30.59" ry="18"/>
<text text-anchor="middle" x="1044.98" y="-176.3" font-family="Times,serif" font-size="14.00">Text</text>
</g>
<!-- _&#45;&gt;Text -->
<g id="edge8" class="edge">
<title>_&#45;&gt;Text</title>
<path fill="none" stroke="black" d="M680.85,-129.54C747.19,-138.76 925.52,-163.54 1004.92,-174.57"/>
<polygon fill="black" stroke="black" points="1004.61,-178.06 1015,-175.97 1005.57,-171.13 1004.61,-178.06"/>
<text text-anchor="middle" x="835.04" y="-159.8" font-family="Times,serif" font-size="14.00">type</text>
</g>
<!-- &quot;Invasive species in brack...&quot; -->
<g id="node9" class="node">
<title>&quot;Invasive species in brack...&quot;</title>
<ellipse fill="none" stroke="black" stroke-width="0" cx="1044.98" cy="-126" rx="144.07" ry="18"/>
<text text-anchor="middle" x="1044.98" y="-122.3" font-family="Times,serif" font-size="14.00">&quot;Invasive species in brack...&quot;</text>
</g>
<!-- _&#45;&gt;&quot;Invasive species in brack...&quot; -->
<g id="edge9" class="edge">
<title>_&#45;&gt;&quot;Invasive species in brack...&quot;</title>
<path fill="none" stroke="black" d="M681.46,-126C724.13,-126 811.97,-126 890.5,-126"/>
<polygon fill="black" stroke="black" points="890.52,-129.5 900.52,-126 890.52,-122.5 890.52,-129.5"/>
<text text-anchor="middle" x="835.04" y="-129.8" font-family="Times,serif" font-size="14.00">description</text>
</g>
<!-- URL -->
<g id="node10" class="node">
<title>URL</title>
<ellipse fill="none" stroke="#558855" cx="1044.98" cy="-72" rx="31.4" ry="18"/>
<text text-anchor="middle" x="1044.98" y="-68.3" font-family="Times,serif" font-size="14.00">URL</text>
</g>
<!-- _&#45;&gt;URL -->
<g id="edge10" class="edge">
<title>_&#45;&gt;URL</title>
<path fill="none" stroke="black" d="M680.85,-122.46C747.03,-113.26 924.65,-88.58 1004.34,-77.51"/>
<polygon fill="black" stroke="black" points="1005.04,-80.94 1014.46,-76.1 1004.07,-74.01 1005.04,-80.94"/>
<text text-anchor="middle" x="835.04" y="-109.8" font-family="Times,serif" font-size="14.00">type</text>
</g>
<!-- &quot;https//www.wikidata.org/w...&quot; -->
<g id="node11" class="node">
<title>&quot;https//www.wikidata.org/w...&quot;</title>
<ellipse fill="none" stroke="black" stroke-width="0" cx="1044.98" cy="-18" rx="151.37" ry="18"/>
<text text-anchor="middle" x="1044.98" y="-14.3" font-family="Times,serif" font-size="14.00">&quot;https//www.wikidata.org/w...&quot;</text>
</g>
<!-- _&#45;&gt;&quot;https//www.wikidata.org/w...&quot; -->
<g id="edge11" class="edge">
<title>_&#45;&gt;&quot;https//www.wikidata.org/w...&quot;</title>
<path fill="none" stroke="black" d="M678.44,-117.67C706,-107.77 753.52,-90.85 794.54,-77 838.35,-62.21 848.68,-56.22 893.54,-45 909.32,-41.05 926.16,-37.45 942.66,-34.25"/>
<polygon fill="black" stroke="black" points="943.7,-37.62 952.87,-32.31 942.39,-30.74 943.7,-37.62"/>
<text text-anchor="middle" x="835.04" y="-80.8" font-family="Times,serif" font-size="14.00">url</text>
</g>
</g>
</svg>