<?xml version="1.0" encoding="UTF-8" standalone="no"?>
<!DOCTYPE svg PUBLIC "-//W3C//DTD SVG 1.1//EN"
 "http://www.w3.org/Graphics/SVG/1.1/DTD/svg11.dtd">
<!-- Generated by graphviz version 2.43.0 (0)
 -->
<!-- Title: %3 Pages: 1 -->
<svg width="914pt" height="368pt"
 viewBox="0.00 0.00 913.94 368.00" xmlns="http://www.w3.org/2000/svg" xmlns:xlink="http://www.w3.org/1999/xlink">
<g id="graph0" class="graph" transform="scale(1 1) rotate(0) translate(4 364)">
<title>%3</title>
<polygon fill="white" stroke="transparent" points="-4,4 -4,-364 909.94,-364 909.94,4 -4,4"/>
<!-- Dataset -->
<g id="node1" class="node">
<title>Dataset</title>
<ellipse fill="none" stroke="#558855" cx="474.37" cy="-300" rx="46.59" ry="18"/>
<text text-anchor="middle" x="474.37" y="-296.3" font-family="Times,serif" font-size="14.00">Dataset</text>
</g>
<!-- example.org/dataset/12345 -->
<g id="node2" class="node">
<title>example.org/dataset/12345</title>
<ellipse fill="none" stroke="black" cx="137.79" cy="-240" rx="137.58" ry="18"/>
<text text-anchor="middle" x="137.79" y="-236.3" font-family="Times,serif" font-size="14.00">example.org/dataset/12345</text>
</g>
<!-- example.org/dataset/12345&#45;&gt;Dataset -->
<g id="edge1" class="edge">
<title>example.org/dataset/12345&#45;&gt;Dataset</title>
<path fill="none" stroke="black" d="M219.78,-254.52C282.46,-265.77 367.41,-281 421.31,-290.66"/>
<polygon fill="black" stroke="black" points="420.87,-294.14 431.33,-292.46 422.1,-287.25 420.87,-294.14"/>
<text text-anchor="middle" x="351.58" y="-291.8" font-family="Times,serif" font-size="14.00">type</text>
</g>
<!-- _ -->
<g id="node3" class="node">
<title>_</title>
<ellipse fill="none" stroke="#558855" cx="474.37" cy="-180" rx="27" ry="18"/>
<text text-anchor="middle" x="474.37" y="-176.3" font-family="Times,serif" font-size="14.00">_</text>
</g>
<!-- example.org/dataset/12345&#45;&gt;_ -->
<g id="edge2" class="edge">
<title>example.org/dataset/12345&#45;&gt;_</title>
<path fill="none" stroke="black" d="M219.78,-225.48C289.44,-212.98 386.59,-195.56 438.08,-186.33"/>
<polygon fill="black" stroke="black" points="438.82,-189.75 448.05,-184.54 437.59,-182.86 438.82,-189.75"/>
<text text-anchor="middle" x="351.58" y="-214.8" font-family="Times,serif" font-size="14.00">spatialCoverage</text>
</g>
<!-- _&#45;&gt;_ -->
<g id="edge4" class="edge">
<title>_&#45;&gt;_</title>
<path fill="none" stroke="black" d="M465.16,-197.04C463.28,-206.86 466.35,-216 474.37,-216 479.39,-216 482.47,-212.43 483.61,-207.35"/>
<polygon fill="black" stroke="black" points="487.11,-207.03 483.59,-197.04 480.11,-207.05 487.11,-207.03"/>
<text text-anchor="middle" x="474.37" y="-219.8" font-family="Times,serif" font-size="14.00">additionalProperty</text>
</g>
<!-- _&#45;&gt;_ -->
<g id="edge5" class="edge">
<title>_&#45;&gt;_</title>
<path fill="none" stroke="black" d="M460.06,-195.48C449.9,-213.33 454.67,-234 474.37,-234 490.69,-234 496.76,-219.82 492.6,-204.81"/>
<polygon fill="black" stroke="black" points="495.78,-203.35 488.69,-195.48 489.33,-206.05 495.78,-203.35"/>
<text text-anchor="middle" x="474.37" y="-237.8" font-family="Times,serif" font-size="14.00">geo</text>
</g>
<!-- Place -->
<g id="node4" class="node">
<title>Place</title>
<ellipse fill="none" stroke="#558855" cx="772.06" cy="-342" rx="36" ry="18"/>
<text text-anchor="middle" x="772.06" y="-338.3" font-family="Times,serif" font-size="14.00">Place</text>
</g>
<!-- _&#45;&gt;Place -->
<g id="edge3" class="edge">
<title>_&#45;&gt;Place</title>
<path fill="none" stroke="black" d="M482.1,-197.56C491.56,-220 510.86,-258.62 539.17,-281 593.58,-324.03 675.41,-336.89 725.91,-340.62"/>
<polygon fill="black" stroke="black" points="725.99,-344.13 736.19,-341.29 726.44,-337.15 725.99,-344.13"/>
<text text-anchor="middle" x="579.67" y="-324.8" font-family="Times,serif" font-size="14.00">type</text>
</g>
<!-- PropertyValue -->
<g id="node5" class="node">
<title>PropertyValue</title>
<ellipse fill="none" stroke="#558855" cx="772.06" cy="-288" rx="77.19" ry="18"/>
<text text-anchor="middle" x="772.06" y="-284.3" font-family="Times,serif" font-size="14.00">PropertyValue</text>
</g>
<!-- _&#45;&gt;PropertyValue -->
<g id="edge6" class="edge">
<title>_&#45;&gt;PropertyValue</title>
<path fill="none" stroke="black" d="M490.36,-195.17C502.55,-206.74 520.71,-222.28 539.17,-232 586.63,-256.98 645.41,-271.01 691.91,-278.79"/>
<polygon fill="black" stroke="black" points="691.52,-282.27 701.94,-280.4 692.63,-275.36 691.52,-282.27"/>
<text text-anchor="middle" x="579.67" y="-265.8" font-family="Times,serif" font-size="14.00">type</text>
</g>
<!-- &quot;https//dbpedia.org/p...&quot; -->
<g id="node6" class="node">
<title>&quot;https//dbpedia.org/p...&quot;</title>
<ellipse fill="none" stroke="black" stroke-width="0" cx="772.06" cy="-234" rx="122.68" ry="18"/>
<text text-anchor="middle" x="772.06" y="-230.3" font-family="Times,serif" font-size="14.00">&quot;https//dbpedia.org/p...&quot;</text>
</g>
<!-- _&#45;&gt;&quot;https//dbpedia.org/p...&quot; -->
<g id="edge7" class="edge">
<title>_&#45;&gt;&quot;https//dbpedia.org/p...&quot;</title>
<path fill="none" stroke="black" d="M498.8,-187.83C510.77,-191.61 525.63,-195.98 539.17,-199 580.29,-208.18 626.05,-215.66 665.99,-221.31"/>
<polygon fill="black" stroke="black" points="665.62,-224.79 676.01,-222.7 666.59,-217.86 665.62,-224.79"/>
<text text-anchor="middle" x="579.67" y="-216.8" font-family="Times,serif" font-size="14.00">propertyID</text>
</g>
<!-- &quot;https//www.w3.org/20...&quot; -->
<g id="node7" class="node">
<title>&quot;https//www.w3.org/20...&quot;</title>
<ellipse fill="none" stroke="black" stroke-width="0" cx="772.06" cy="-180" rx="130.78" ry="18"/>
<text text-anchor="middle" x="772.06" y="-176.3" font-family="Times,serif" font-size="14.00">&quot;https//www.w3.org/20...&quot;</text>
</g>
<!-- _&#45;&gt;&quot;https//www.w3.org/20...&quot; -->
<g id="edge8" class="edge">
<title>_&#45;&gt;&quot;https//www.w3.org/20...&quot;</title>
<path fill="none" stroke="black" d="M501.61,-180C531.23,-180 581.74,-180 631.08,-180"/>
<polygon fill="black" stroke="black" points="631.26,-183.5 641.26,-180 631.26,-176.5 631.26,-183.5"/>
<text text-anchor="middle" x="579.67" y="-183.8" font-family="Times,serif" font-size="14.00">value</text>
</g>
<!-- GeoShape -->
<g id="node8" class="node">
<title>GeoShape</title>
<ellipse fill="none" stroke="#558855" cx="772.06" cy="-126" rx="57.69" ry="18"/>
<text text-anchor="middle" x="772.06" y="-122.3" font-family="Times,serif" font-size="14.00">GeoShape</text>
</g>
<!-- _&#45;&gt;GeoShape -->
<g id="edge9" class="edge">
<title>_&#45;&gt;GeoShape</title>
<path fill="none" stroke="black" d="M498.8,-172.17C510.77,-168.39 525.63,-164.02 539.17,-161 595.44,-148.44 660.41,-139.06 707.24,-133.2"/>
<polygon fill="black" stroke="black" points="707.75,-136.66 717.24,-131.96 706.89,-129.71 707.75,-136.66"/>
<text text-anchor="middle" x="579.67" y="-164.8" font-family="Times,serif" font-size="14.00">type</text>
</g>
<!-- &quot;schema.org expects l...&quot; -->
<g id="node9" class="node">
<title>&quot;schema.org expects l...&quot;</title>
<ellipse fill="none" stroke="black" stroke-width="0" cx="772.06" cy="-72" rx="126.18" ry="18"/>
<text text-anchor="middle" x="772.06" y="-68.3" font-family="Times,serif" font-size="14.00">&quot;schema.org expects l...&quot;</text>
</g>
<!-- _&#45;&gt;&quot;schema.org expects l...&quot; -->
<g id="edge10" class="edge">
<title>_&#45;&gt;&quot;schema.org expects l...&quot;</title>
<path fill="none" stroke="black" d="M489.78,-164.96C501.93,-153.09 520.31,-136.92 539.17,-127 577.9,-106.62 624.21,-93.69 665.23,-85.53"/>
<polygon fill="black" stroke="black" points="666.1,-88.93 675.26,-83.61 664.78,-82.06 666.1,-88.93"/>
<text text-anchor="middle" x="579.67" y="-130.8" font-family="Times,serif" font-size="14.00">description</text>
</g>
<!-- &quot;10.161667 142.014,18...&quot; -->
<g id="node10" class="node">
<title>&quot;10.161667 142.014,18...&quot;</title>
<ellipse fill="none" stroke="black" stroke-width="0" cx="772.06" cy="-18" rx="133.78" ry="18"/>
<text text-anchor="middle" x="772.06" y="-14.3" font-family="Times,serif" font-size="14.00">&quot;10.161667 142.014,18...&quot;</text>
</g>
<!-- _&#45;&gt;&quot;10.161667 142.014,18...&quot; -->
<g id="edge11" class="edge">
<title>_&#45;&gt;&quot;10.161667 142.014,18...&quot;</title>
<path fill="none" stroke="black" d="M481.79,-162.41C491.02,-139.5 510.19,-99.7 539.17,-77 570.31,-52.6 610.38,-38.19 648.42,-29.72"/>
<polygon fill="black" stroke="black" points="649.49,-33.07 658.56,-27.58 648.05,-26.22 649.49,-33.07"/>
<text text-anchor="middle" x="579.67" y="-80.8" font-family="Times,serif" font-size="14.00">polygon</text>
</g>
</g>
</svg>