<?xml version="1.0" encoding="UTF-8" standalone="no"?>
<!DOCTYPE svg PUBLIC "-//W3C//DTD SVG 1.1//EN"
 "http://www.w3.org/Graphics/SVG/1.1/DTD/svg11.dtd">
<!-- Generated by graphviz version 2.43.0 (0)
 -->
<!-- Title: %3 Pages: 1 -->
<svg width="1015pt" height="965pt"
 viewBox="0.00 0.00 1015.13 965.20" xmlns="http://www.w3.org/2000/svg" xmlns:xlink="http://www.w3.org/1999/xlink">
<g id="graph0" class="graph" transform="scale(1 1) rotate(0) translate(4 961.2)">
<title>%3</title>
<polygon fill="white" stroke="transparent" points="-4,4 -4,-961.2 1011.13,-961.2 1011.13,4 -4,4"/>
<!-- Service -->
<g id="node1" class="node">
<title>Service</title>
<ellipse fill="none" stroke="#558855" cx="523.17" cy="-927.2" rx="45.49" ry="18"/>
<text text-anchor="middle" x="523.17" y="-923.5" font-family="Times,serif" font-size="14.00">Service</text>
</g>
<!-- example.org/id/xyz -->
<g id="node2" class="node">
<title>example.org/id/xyz</title>
<ellipse fill="none" stroke="black" cx="98.79" cy="-474.2" rx="98.58" ry="18"/>
<text text-anchor="middle" x="98.79" y="-470.5" font-family="Times,serif" font-size="14.00">example.org/id/xyz</text>
</g>
<!-- example.org/id/xyz&#45;&gt;Service -->
<g id="edge1" class="edge">
<title>example.org/id/xyz&#45;&gt;Service</title>
<path fill="none" stroke="black" d="M102.12,-492.57C111.88,-566.39 151.9,-840.07 215.58,-894.2 287.5,-955.33 405.79,-947.91 472.45,-937.36"/>
<polygon fill="black" stroke="black" points="473.41,-940.75 482.69,-935.66 472.26,-933.85 473.41,-940.75"/>
<text text-anchor="middle" x="281.08" y="-946" font-family="Times,serif" font-size="14.00">type</text>
</g>
<!-- &quot;Text An additional type f...&quot; -->
<g id="node3" class="node">
<title>&quot;Text An additional type f...&quot;</title>
<ellipse fill="none" stroke="black" stroke-width="0" cx="523.17" cy="-873.2" rx="141.88" ry="18"/>
<text text-anchor="middle" x="523.17" y="-869.5" font-family="Times,serif" font-size="14.00">&quot;Text An additional type f...&quot;</text>
</g>
<!-- example.org/id/xyz&#45;&gt;&quot;Text An additional type f...&quot; -->
<g id="edge2" class="edge">
<title>example.org/id/xyz&#45;&gt;&quot;Text An additional type f...&quot;</title>
<path fill="none" stroke="black" d="M102.7,-492.51C114,-561.29 157.32,-802.59 215.58,-849.2 240.47,-869.1 308.81,-875.66 374.66,-877"/>
<polygon fill="black" stroke="black" points="374.72,-880.5 384.78,-877.16 374.84,-873.5 374.72,-880.5"/>
<text text-anchor="middle" x="281.08" y="-879" font-family="Times,serif" font-size="14.00">additionalType</text>
</g>
<!-- &quot;URL&quot; -->
<g id="node4" class="node">
<title>&quot;URL&quot;</title>
<ellipse fill="none" stroke="black" stroke-width="0" cx="523.17" cy="-740.2" rx="40.09" ry="18"/>
<text text-anchor="middle" x="523.17" y="-736.5" font-family="Times,serif" font-size="14.00">&quot;URL&quot;</text>
</g>
<!-- example.org/id/xyz&#45;&gt;&quot;URL&quot; -->
<g id="edge3" class="edge">
<title>example.org/id/xyz&#45;&gt;&quot;URL&quot;</title>
<path fill="none" stroke="black" d="M99.38,-492.33C99.15,-550.9 107.33,-735.78 215.58,-813.2 262.94,-847.07 289.49,-824.59 346.58,-813.2 398.37,-802.86 453.99,-776.94 488.44,-758.95"/>
<polygon fill="black" stroke="black" points="490.38,-761.88 497.57,-754.1 487.1,-755.7 490.38,-761.88"/>
<text text-anchor="middle" x="281.08" y="-834" font-family="Times,serif" font-size="14.00">additionalType</text>
</g>
<!-- example.org/id/xyz&#45;&gt;&quot;URL&quot; -->
<g id="edge8" class="edge">
<title>example.org/id/xyz&#45;&gt;&quot;URL&quot;</title>
<path fill="none" stroke="black" d="M100.22,-492.24C102.61,-546.44 117.97,-708.16 215.58,-775.2 257.29,-803.84 404.33,-771.17 478.58,-752.07"/>
<polygon fill="black" stroke="black" points="479.76,-755.37 488.55,-749.47 478,-748.6 479.76,-755.37"/>
<text text-anchor="middle" x="281.08" y="-790" font-family="Times,serif" font-size="14.00">identifier</text>
</g>
<!-- example.org/id/xyz&#45;&gt;&quot;URL&quot; -->
<g id="edge10" class="edge">
<title>example.org/id/xyz&#45;&gt;&quot;URL&quot;</title>
<path fill="none" stroke="black" d="M101.34,-492.44C106.65,-542.16 128.95,-680.08 215.58,-737.2 256.65,-764.27 398.2,-753.82 473.75,-745.91"/>
<polygon fill="black" stroke="black" points="474.39,-749.36 483.96,-744.82 473.64,-742.4 474.39,-749.36"/>
<text text-anchor="middle" x="281.08" y="-758" font-family="Times,serif" font-size="14.00">mainEntityOfPage</text>
</g>
<!-- example.org/id/xyz&#45;&gt;&quot;URL&quot; -->
<g id="edge17" class="edge">
<title>example.org/id/xyz&#45;&gt;&quot;URL&quot;</title>
<path fill="none" stroke="black" d="M103.19,-492.2C112.45,-535.89 142.52,-647.67 215.58,-699.2 218.21,-701.05 388.4,-723.07 474.04,-734.05"/>
<polygon fill="black" stroke="black" points="473.69,-737.53 484.05,-735.33 474.58,-730.59 473.69,-737.53"/>
<text text-anchor="middle" x="281.08" y="-720" font-family="Times,serif" font-size="14.00">sameAs</text>
</g>
<!-- example.org/id/xyz&#45;&gt;&quot;URL&quot; -->
<g id="edge21" class="edge">
<title>example.org/id/xyz&#45;&gt;&quot;URL&quot;</title>
<path fill="none" stroke="black" d="M105.19,-492.26C117.66,-530.55 152.35,-619.75 215.58,-661.2 264.79,-693.45 289.39,-666.4 346.58,-680.2 394.67,-691.8 448.25,-711.07 483.43,-724.64"/>
<polygon fill="black" stroke="black" points="482.25,-727.94 492.84,-728.3 484.79,-721.41 482.25,-727.94"/>
<text text-anchor="middle" x="281.08" y="-684" font-family="Times,serif" font-size="14.00">subjectOf</text>
</g>
<!-- example.org/id/xyz&#45;&gt;&quot;URL&quot; -->
<g id="edge24" class="edge">
<title>example.org/id/xyz&#45;&gt;&quot;URL&quot;</title>
<path fill="none" stroke="black" d="M108.12,-492.14C124.01,-524.19 161.94,-590.82 215.58,-622.2 266.42,-651.93 293.27,-617.16 346.58,-642.2 356.27,-646.75 355.77,-652.13 364.58,-658.2 403.07,-684.71 451.21,-708.57 484.09,-723.62"/>
<polygon fill="black" stroke="black" points="482.81,-726.88 493.36,-727.82 485.69,-720.51 482.81,-726.88"/>
<text text-anchor="middle" x="281.08" y="-646" font-family="Times,serif" font-size="14.00">url</text>
</g>
<!-- &quot;Text An alternative name ...&quot; -->
<g id="node5" class="node">
<title>&quot;Text An alternative name ...&quot;</title>
<ellipse fill="none" stroke="black" stroke-width="0" cx="523.17" cy="-631.2" rx="148.37" ry="18"/>
<text text-anchor="middle" x="523.17" y="-627.5" font-family="Times,serif" font-size="14.00">&quot;Text An alternative name ...&quot;</text>
</g>
<!-- example.org/id/xyz&#45;&gt;&quot;Text An alternative name ...&quot; -->
<g id="edge4" class="edge">
<title>example.org/id/xyz&#45;&gt;&quot;Text An alternative name ...&quot;</title>
<path fill="none" stroke="black" d="M115.94,-492.24C136.76,-514.33 175.12,-551.27 215.58,-571.2 250.09,-588.19 340.46,-604.77 414.21,-616.18"/>
<polygon fill="black" stroke="black" points="414.08,-619.7 424.5,-617.76 415.14,-612.78 414.08,-619.7"/>
<text text-anchor="middle" x="281.08" y="-607" font-family="Times,serif" font-size="14.00">alternateName</text>
</g>
<!-- &quot;Text Free text which desc...&quot; -->
<g id="node6" class="node">
<title>&quot;Text Free text which desc...&quot;</title>
<ellipse fill="none" stroke="black" stroke-width="0" cx="523.17" cy="-577.2" rx="148.37" ry="18"/>
<text text-anchor="middle" x="523.17" y="-573.5" font-family="Times,serif" font-size="14.00">&quot;Text Free text which desc...&quot;</text>
</g>
<!-- example.org/id/xyz&#45;&gt;&quot;Text Free text which desc...&quot; -->
<g id="edge5" class="edge">
<title>example.org/id/xyz&#45;&gt;&quot;Text Free text which desc...&quot;</title>
<path fill="none" stroke="black" d="M133.46,-491.24C156.15,-502.1 187.05,-515.68 215.58,-524.2 276.62,-542.42 346.47,-555.1 404.07,-563.48"/>
<polygon fill="black" stroke="black" points="403.92,-566.99 414.31,-564.94 404.91,-560.06 403.92,-566.99"/>
<text text-anchor="middle" x="281.08" y="-556" font-family="Times,serif" font-size="14.00">description</text>
</g>
<!-- &quot;https//schema.org/OfferCa...&quot; -->
<g id="node7" class="node">
<title>&quot;https//schema.org/OfferCa...&quot;</title>
<ellipse fill="none" stroke="black" stroke-width="0" cx="523.17" cy="-523.2" rx="150.57" ry="18"/>
<text text-anchor="middle" x="523.17" y="-519.5" font-family="Times,serif" font-size="14.00">&quot;https//schema.org/OfferCa...&quot;</text>
</g>
<!-- example.org/id/xyz&#45;&gt;&quot;https//schema.org/OfferCa...&quot; -->
<g id="edge6" class="edge">
<title>example.org/id/xyz&#45;&gt;&quot;https//schema.org/OfferCa...&quot;</title>
<path fill="none" stroke="black" d="M175.1,-485.72C188.56,-487.65 202.48,-489.55 215.58,-491.2 274.19,-498.56 339.26,-505.52 394.32,-511.06"/>
<polygon fill="black" stroke="black" points="394.18,-514.56 404.48,-512.08 394.87,-507.6 394.18,-514.56"/>
<text text-anchor="middle" x="281.08" y="-509" font-family="Times,serif" font-size="14.00">hasOfferCatalog</text>
</g>
<!-- &quot;Text &#45; The identifier pro...&quot; -->
<g id="node8" class="node">
<title>&quot;Text &#45; The identifier pro...&quot;</title>
<ellipse fill="none" stroke="black" stroke-width="0" cx="523.17" cy="-469.2" rx="137.58" ry="18"/>
<text text-anchor="middle" x="523.17" y="-465.5" font-family="Times,serif" font-size="14.00">&quot;Text &#45; The identifier pro...&quot;</text>
</g>
<!-- example.org/id/xyz&#45;&gt;&quot;Text &#45; The identifier pro...&quot; -->
<g id="edge7" class="edge">
<title>example.org/id/xyz&#45;&gt;&quot;Text &#45; The identifier pro...&quot;</title>
<path fill="none" stroke="black" d="M197.49,-473.04C250.35,-472.42 316.71,-471.63 375.64,-470.93"/>
<polygon fill="black" stroke="black" points="375.83,-474.43 385.79,-470.81 375.74,-467.43 375.83,-474.43"/>
<text text-anchor="middle" x="281.08" y="-476" font-family="Times,serif" font-size="14.00">identifier</text>
</g>
<!-- _ -->
<g id="node9" class="node">
<title>_</title>
<ellipse fill="none" stroke="#558855" cx="523.17" cy="-322.2" rx="27" ry="18"/>
<text text-anchor="middle" x="523.17" y="-318.5" font-family="Times,serif" font-size="14.00">_</text>
</g>
<!-- example.org/id/xyz&#45;&gt;_ -->
<g id="edge9" class="edge">
<title>example.org/id/xyz&#45;&gt;_</title>
<path fill="none" stroke="black" d="M166.44,-461.02C182.51,-457.98 199.64,-454.87 215.58,-452.2 273.61,-442.48 291.4,-453.59 346.58,-433.2 405.28,-411.51 465.06,-368.24 497.5,-342.6"/>
<polygon fill="black" stroke="black" points="499.9,-345.16 505.52,-336.17 495.53,-339.69 499.9,-345.16"/>
<text text-anchor="middle" x="281.08" y="-456" font-family="Times,serif" font-size="14.00">identifier</text>
</g>
<!-- example.org/id/xyz&#45;&gt;_ -->
<g id="edge11" class="edge">
<title>example.org/id/xyz&#45;&gt;_</title>
<path fill="none" stroke="black" d="M126.73,-456.93C149.51,-443.15 183.47,-424.52 215.58,-414.2 271.59,-396.19 289.87,-410.83 346.58,-395.2 399.53,-380.6 457.81,-354.15 492.13,-337.41"/>
<polygon fill="black" stroke="black" points="493.73,-340.53 501.16,-332.97 490.64,-334.25 493.73,-340.53"/>
<text text-anchor="middle" x="281.08" y="-418" font-family="Times,serif" font-size="14.00">mainEntityOfPage</text>
</g>
<!-- example.org/id/xyz&#45;&gt;_ -->
<g id="edge13" class="edge">
<title>example.org/id/xyz&#45;&gt;_</title>
<path fill="none" stroke="black" d="M114.96,-456.27C135.32,-433.53 173.8,-395.02 215.58,-376.2 269.22,-352.04 288.6,-367.17 346.58,-357.2 395.65,-348.75 452.06,-337.17 487.41,-329.69"/>
<polygon fill="black" stroke="black" points="488.19,-333.1 497.24,-327.6 486.73,-326.26 488.19,-333.1"/>
<text text-anchor="middle" x="281.08" y="-380" font-family="Times,serif" font-size="14.00">potentialAction</text>
</g>
<!-- example.org/id/xyz&#45;&gt;_ -->
<g id="edge15" class="edge">
<title>example.org/id/xyz&#45;&gt;_</title>
<path fill="none" stroke="black" d="M108.9,-455.97C125.37,-425.26 163.31,-364.02 215.58,-338.2 262.06,-315.24 414.91,-317.93 485.65,-320.55"/>
<polygon fill="black" stroke="black" points="485.74,-324.06 495.87,-320.95 486.01,-317.06 485.74,-324.06"/>
<text text-anchor="middle" x="281.08" y="-342" font-family="Times,serif" font-size="14.00">provider</text>
</g>
<!-- example.org/id/xyz&#45;&gt;_ -->
<g id="edge16" class="edge">
<title>example.org/id/xyz&#45;&gt;_</title>
<path fill="none" stroke="black" d="M105.37,-456.11C117.97,-418.8 152.57,-333.95 215.58,-300.2 261.67,-275.51 416.81,-301.5 487.07,-315.06"/>
<polygon fill="black" stroke="black" points="486.71,-318.55 497.2,-317.04 488.05,-311.68 486.71,-318.55"/>
<text text-anchor="middle" x="281.08" y="-304" font-family="Times,serif" font-size="14.00">provider</text>
</g>
<!-- example.org/id/xyz&#45;&gt;_ -->
<g id="edge18" class="edge">
<title>example.org/id/xyz&#45;&gt;_</title>
<path fill="none" stroke="black" d="M103.66,-456.01C113.65,-414.16 144.67,-311.49 215.58,-270.2 306.4,-217.32 436.37,-274.93 493.44,-305.57"/>
<polygon fill="black" stroke="black" points="491.83,-308.67 502.28,-310.41 495.19,-302.53 491.83,-308.67"/>
<text text-anchor="middle" x="281.08" y="-274" font-family="Times,serif" font-size="14.00">serviceOutput</text>
</g>
<!-- example.org/id/xyz&#45;&gt;_ -->
<g id="edge20" class="edge">
<title>example.org/id/xyz&#45;&gt;_</title>
<path fill="none" stroke="black" d="M101.9,-456.09C108.5,-408.72 133.51,-281.18 215.58,-229.2 309.25,-169.87 442.93,-259.32 497.52,-301.83"/>
<polygon fill="black" stroke="black" points="495.58,-304.75 505.59,-308.21 499.92,-299.26 495.58,-304.75"/>
<text text-anchor="middle" x="281.08" y="-233" font-family="Times,serif" font-size="14.00">serviceType</text>
</g>
<!-- example.org/id/xyz&#45;&gt;_ -->
<g id="edge23" class="edge">
<title>example.org/id/xyz&#45;&gt;_</title>
<path fill="none" stroke="black" d="M100.67,-456.03C104.32,-403.72 122.78,-252.58 215.58,-190.2 313.45,-124.41 449.45,-246.62 501.12,-299.51"/>
<polygon fill="black" stroke="black" points="498.66,-302.01 508.11,-306.78 503.7,-297.15 498.66,-302.01"/>
<text text-anchor="middle" x="281.08" y="-194" font-family="Times,serif" font-size="14.00">termsOfService</text>
</g>
<!-- &quot;Text The name of the item...&quot; -->
<g id="node10" class="node">
<title>&quot;Text The name of the item...&quot;</title>
<ellipse fill="none" stroke="black" stroke-width="0" cx="523.17" cy="-162.2" rx="150.27" ry="18"/>
<text text-anchor="middle" x="523.17" y="-158.5" font-family="Times,serif" font-size="14.00">&quot;Text The name of the item...&quot;</text>
</g>
<!-- example.org/id/xyz&#45;&gt;&quot;Text The name of the item...&quot; -->
<g id="edge12" class="edge">
<title>example.org/id/xyz&#45;&gt;&quot;Text The name of the item...&quot;</title>
<path fill="none" stroke="black" d="M99.73,-456.16C100.65,-399.56 112.07,-224.98 215.58,-152.2 248,-129.41 346.33,-136.49 422.99,-146.42"/>
<polygon fill="black" stroke="black" points="422.8,-149.93 433.18,-147.77 423.72,-142.99 422.8,-149.93"/>
<text text-anchor="middle" x="281.08" y="-156" font-family="Times,serif" font-size="14.00">name</text>
</g>
<!-- &quot;Text The service provider...&quot; -->
<g id="node11" class="node">
<title>&quot;Text The service provider...&quot;</title>
<ellipse fill="none" stroke="black" stroke-width="0" cx="523.17" cy="-108.2" rx="145.67" ry="18"/>
<text text-anchor="middle" x="523.17" y="-104.5" font-family="Times,serif" font-size="14.00">&quot;Text The service provider...&quot;</text>
</g>
<!-- example.org/id/xyz&#45;&gt;&quot;Text The service provider...&quot; -->
<g id="edge14" class="edge">
<title>example.org/id/xyz&#45;&gt;&quot;Text The service provider...&quot;</title>
<path fill="none" stroke="black" d="M99.12,-456.13C98.01,-395.92 103.49,-201.22 215.58,-117.2 243.3,-96.42 322.03,-94.44 392.76,-97.51"/>
<polygon fill="black" stroke="black" points="392.98,-101.03 403.13,-98 393.31,-94.03 392.98,-101.03"/>
<text text-anchor="middle" x="281.08" y="-121" font-family="Times,serif" font-size="14.00">provider</text>
</g>
<!-- &quot;Text Human&#45;readable terms...&quot; -->
<g id="node12" class="node">
<title>&quot;Text Human&#45;readable terms...&quot;</title>
<ellipse fill="none" stroke="black" stroke-width="0" cx="523.17" cy="-43.2" rx="158.67" ry="18"/>
<text text-anchor="middle" x="523.17" y="-39.5" font-family="Times,serif" font-size="14.00">&quot;Text Human&#45;readable terms...&quot;</text>
</g>
<!-- example.org/id/xyz&#45;&gt;&quot;Text Human&#45;readable terms...&quot; -->
<g id="edge19" class="edge">
<title>example.org/id/xyz&#45;&gt;&quot;Text Human&#45;readable terms...&quot;</title>
<path fill="none" stroke="black" d="M102.43,-455.87C113.06,-384.68 155.11,-128 215.58,-77.2 228.33,-66.48 301.09,-58.16 372.52,-52.42"/>
<polygon fill="black" stroke="black" points="372.89,-55.9 382.58,-51.63 372.34,-48.93 372.89,-55.9"/>
<text text-anchor="middle" x="281.08" y="-81" font-family="Times,serif" font-size="14.00">serviceType</text>
</g>
<!-- example.org/id/xyz&#45;&gt;&quot;Text Human&#45;readable terms...&quot; -->
<g id="edge22" class="edge">
<title>example.org/id/xyz&#45;&gt;&quot;Text Human&#45;readable terms...&quot;</title>
<path fill="none" stroke="black" d="M101.68,-456.11C110.01,-380.17 146.2,-88.66 215.58,-35.2 287.7,20.36 400.24,-1.86 467.04,-22.75"/>
<polygon fill="black" stroke="black" points="466.36,-26.21 476.95,-25.95 468.51,-19.55 466.36,-26.21"/>
<text text-anchor="middle" x="281.08" y="-39" font-family="Times,serif" font-size="14.00">termsOfService</text>
</g>
<!-- Thing -->
<g id="node13" class="node">
<title>Thing</title>
<ellipse fill="none" stroke="#558855" cx="878.44" cy="-511.2" rx="37.09" ry="18"/>
<text text-anchor="middle" x="878.44" y="-507.5" font-family="Times,serif" font-size="14.00">Thing</text>
</g>
<!-- _&#45;&gt;Thing -->
<g id="edge25" class="edge">
<title>_&#45;&gt;Thing</title>
<path fill="none" stroke="black" d="M541.1,-335.77C585.36,-371.02 704.21,-464.1 749.75,-484.2 775.81,-495.7 807.06,-502.41 832.12,-506.27"/>
<polygon fill="black" stroke="black" points="831.7,-509.75 842.1,-507.71 832.7,-502.82 831.7,-509.75"/>
<text text-anchor="middle" x="715.75" y="-477" font-family="Times,serif" font-size="14.00">type</text>
</g>
<!-- Organization -->
<g id="node14" class="node">
<title>Organization</title>
<ellipse fill="none" stroke="#558855" cx="878.44" cy="-457.2" rx="70.69" ry="18"/>
<text text-anchor="middle" x="878.44" y="-453.5" font-family="Times,serif" font-size="14.00">Organization</text>
</g>
<!-- _&#45;&gt;Organization -->
<g id="edge26" class="edge">
<title>_&#45;&gt;Organization</title>
<path fill="none" stroke="black" d="M544.01,-333.7C582.48,-355.55 670.4,-403.24 749.75,-430.2 768.39,-436.53 789.08,-441.67 808.28,-445.7"/>
<polygon fill="black" stroke="black" points="807.67,-449.15 818.17,-447.71 809.07,-442.29 807.67,-449.15"/>
<text text-anchor="middle" x="715.75" y="-427" font-family="Times,serif" font-size="14.00">type</text>
</g>
<!-- Url -->
<g id="node15" class="node">
<title>Url</title>
<ellipse fill="none" stroke="#558855" cx="878.44" cy="-403.2" rx="27" ry="18"/>
<text text-anchor="middle" x="878.44" y="-399.5" font-family="Times,serif" font-size="14.00">Url</text>
</g>
<!-- _&#45;&gt;Url -->
<g id="edge27" class="edge">
<title>_&#45;&gt;Url</title>
<path fill="none" stroke="black" d="M548.82,-328.33C590.25,-338.57 676.49,-359.69 749.75,-376.2 781.03,-383.25 816.75,-390.75 842.43,-396.06"/>
<polygon fill="black" stroke="black" points="841.94,-399.53 852.44,-398.12 843.35,-392.67 841.94,-399.53"/>
<text text-anchor="middle" x="715.75" y="-375" font-family="Times,serif" font-size="14.00">type</text>
</g>
<!-- Action -->
<g id="node16" class="node">
<title>Action</title>
<ellipse fill="none" stroke="#558855" cx="878.44" cy="-349.2" rx="40.09" ry="18"/>
<text text-anchor="middle" x="878.44" y="-345.5" font-family="Times,serif" font-size="14.00">Action</text>
</g>
<!-- _&#45;&gt;Action -->
<g id="edge28" class="edge">
<title>_&#45;&gt;Action</title>
<path fill="none" stroke="black" d="M550.15,-324.18C608.81,-328.67 752.35,-339.64 828.37,-345.45"/>
<polygon fill="black" stroke="black" points="828.39,-348.96 838.63,-346.23 828.92,-341.98 828.39,-348.96"/>
<text text-anchor="middle" x="715.75" y="-341" font-family="Times,serif" font-size="14.00">type</text>
</g>
<!-- CreativeWork -->
<g id="node17" class="node">
<title>CreativeWork</title>
<ellipse fill="none" stroke="#558855" cx="878.44" cy="-295.2" rx="74.19" ry="18"/>
<text text-anchor="middle" x="878.44" y="-291.5" font-family="Times,serif" font-size="14.00">CreativeWork</text>
</g>
<!-- _&#45;&gt;CreativeWork -->
<g id="edge29" class="edge">
<title>_&#45;&gt;CreativeWork</title>
<path fill="none" stroke="black" d="M550.15,-320.21C601.46,-316.29 717.71,-307.41 796.91,-301.35"/>
<polygon fill="black" stroke="black" points="797.64,-304.81 807.34,-300.56 797.1,-297.83 797.64,-304.81"/>
<text text-anchor="middle" x="715.75" y="-312" font-family="Times,serif" font-size="14.00">type</text>
</g>
<!-- GovernmentBenefitsType -->
<g id="node18" class="node">
<title>GovernmentBenefitsType</title>
<ellipse fill="none" stroke="#558855" cx="878.44" cy="-241.2" rx="128.88" ry="18"/>
<text text-anchor="middle" x="878.44" y="-237.5" font-family="Times,serif" font-size="14.00">GovernmentBenefitsType</text>
</g>
<!-- _&#45;&gt;GovernmentBenefitsType -->
<g id="edge30" class="edge">
<title>_&#45;&gt;GovernmentBenefitsType</title>
<path fill="none" stroke="black" d="M548.82,-316.07C590.25,-305.82 676.49,-284.71 749.75,-268.2 764.53,-264.87 780.3,-261.44 795.53,-258.18"/>
<polygon fill="black" stroke="black" points="796.4,-261.58 805.45,-256.07 794.94,-254.73 796.4,-261.58"/>
<text text-anchor="middle" x="715.75" y="-283" font-family="Times,serif" font-size="14.00">type</text>
</g>
<!-- Person -->
<g id="node19" class="node">
<title>Person</title>
<ellipse fill="none" stroke="#558855" cx="878.44" cy="-187.2" rx="42.49" ry="18"/>
<text text-anchor="middle" x="878.44" y="-183.5" font-family="Times,serif" font-size="14.00">Person</text>
</g>
<!-- _&#45;&gt;Person -->
<g id="edge31" class="edge">
<title>_&#45;&gt;Person</title>
<path fill="none" stroke="black" d="M544.01,-310.69C582.48,-288.85 670.4,-241.15 749.75,-214.2 775.1,-205.59 804.24,-199.18 828.28,-194.77"/>
<polygon fill="black" stroke="black" points="829.01,-198.19 838.24,-193 827.78,-191.3 829.01,-198.19"/>
<text text-anchor="middle" x="715.75" y="-234" font-family="Times,serif" font-size="14.00">type</text>
</g>
<!-- PropertyValue -->
<g id="node20" class="node">
<title>PropertyValue</title>
<ellipse fill="none" stroke="#558855" cx="878.44" cy="-133.2" rx="77.19" ry="18"/>
<text text-anchor="middle" x="878.44" y="-129.5" font-family="Times,serif" font-size="14.00">PropertyValue</text>
</g>
<!-- _&#45;&gt;PropertyValue -->
<g id="edge32" class="edge">
<title>_&#45;&gt;PropertyValue</title>
<path fill="none" stroke="black" d="M539.42,-307.68C573.91,-275.72 661.75,-199.03 749.75,-160.2 765.61,-153.2 783.39,-147.97 800.53,-144.09"/>
<polygon fill="black" stroke="black" points="801.48,-147.46 810.53,-141.95 800.02,-140.62 801.48,-147.46"/>
<text text-anchor="middle" x="715.75" y="-188" font-family="Times,serif" font-size="14.00">type</text>
</g>
</g>
</svg>