<?xml version="1.0" encoding="UTF-8" standalone="no"?>
<!DOCTYPE svg PUBLIC "-//W3C//DTD SVG 1.1//EN"
 "http://www.w3.org/Graphics/SVG/1.1/DTD/svg11.dtd">
<!-- Generated by graphviz version 2.43.0 (0)
 -->
<!-- Title: %3 Pages: 1 -->
<svg width="846pt" height="98pt"
 viewBox="0.00 0.00 846.44 98.00" xmlns="http://www.w3.org/2000/svg" xmlns:xlink="http://www.w3.org/1999/xlink">
<g id="graph0" class="graph" transform="scale(1 1) rotate(0) translate(4 94)">
<title>%3</title>
<polygon fill="white" stroke="transparent" points="-4,4 -4,-94 842.44,-94 842.44,4 -4,4"/>
<!-- Dataset -->
<g id="node1" class="node">
<title>Dataset</title>
<ellipse fill="none" stroke="#558855" cx="707.8" cy="-72" rx="46.59" ry="18"/>
<text text-anchor="middle" x="707.8" y="-68.3" font-family="Times,serif" font-size="14.00">Dataset</text>
</g>
<!-- example.org/permanentUrlToThisJsonDoc -->
<g id="node2" class="node">
<title>example.org/permanentUrlToThisJsonDoc</title>
<ellipse fill="none" stroke="black" cx="204.08" cy="-45" rx="204.16" ry="18"/>
<text text-anchor="middle" x="204.08" y="-41.3" font-family="Times,serif" font-size="14.00">example.org/permanentUrlToThisJsonDoc</text>
</g>
<!-- example.org/permanentUrlToThisJsonDoc&#45;&gt;Dataset -->
<g id="edge1" class="edge">
<title>example.org/permanentUrlToThisJsonDoc&#45;&gt;Dataset</title>
<path fill="none" stroke="black" d="M378.8,-54.35C474.07,-59.48 585.79,-65.49 651.19,-69.01"/>
<polygon fill="black" stroke="black" points="651.1,-72.51 661.28,-69.55 651.48,-65.52 651.1,-72.51"/>
<text text-anchor="middle" x="492.66" y="-67.8" font-family="Times,serif" font-size="14.00">type</text>
</g>
<!-- &quot;2012&#45;09&#45;20/2016&#45;01&#45;2...&quot; -->
<g id="node3" class="node">
<title>&quot;2012&#45;09&#45;20/2016&#45;01&#45;2...&quot;</title>
<ellipse fill="none" stroke="black" stroke-width="0" cx="707.8" cy="-18" rx="130.78" ry="18"/>
<text text-anchor="middle" x="707.8" y="-14.3" font-family="Times,serif" font-size="14.00">&quot;2012&#45;09&#45;20/2016&#45;01&#45;2...&quot;</text>
</g>
<!-- example.org/permanentUrlToThisJsonDoc&#45;&gt;&quot;2012&#45;09&#45;20/2016&#45;01&#45;2...&quot; -->
<g id="edge2" class="edge">
<title>example.org/permanentUrlToThisJsonDoc&#45;&gt;&quot;2012&#45;09&#45;20/2016&#45;01&#45;2...&quot;</title>
<path fill="none" stroke="black" d="M378.8,-35.65C443.3,-32.18 515.35,-28.3 575.45,-25.07"/>
<polygon fill="black" stroke="black" points="575.96,-28.55 585.75,-24.51 575.58,-21.56 575.96,-28.55"/>
<text text-anchor="middle" x="492.66" y="-35.8" font-family="Times,serif" font-size="14.00">temporalCoverage</text>
</g>
</g>
</svg>