<?xml version="1.0" encoding="UTF-8" standalone="no"?>
<!DOCTYPE svg PUBLIC "-//W3C//DTD SVG 1.1//EN"
 "http://www.w3.org/Graphics/SVG/1.1/DTD/svg11.dtd">
<!-- Generated by graphviz version 2.43.0 (0)
 -->
<!-- Title: %3 Pages: 1 -->
<svg width="1280pt" height="588pt"
 viewBox="0.00 0.00 1280.21 588.00" xmlns="http://www.w3.org/2000/svg" xmlns:xlink="http://www.w3.org/1999/xlink">
<g id="graph0" class="graph" transform="scale(1 1) rotate(0) translate(4 584)">
<title>%3</title>
<polygon fill="white" stroke="transparent" points="-4,4 -4,-584 1276.21,-584 1276.21,4 -4,4"/>
<!-- DefinedTerm -->
<g id="node1" class="node">
<title>DefinedTerm</title>
<ellipse fill="none" stroke="#558855" cx="1142.87" cy="-562" rx="70.39" ry="18"/>
<text text-anchor="middle" x="1142.87" y="-558.3" font-family="Times,serif" font-size="14.00">DefinedTerm</text>
</g>
<!-- purl.org/dc/dcmitype/Image -->
<g id="node2" class="node">
<title>purl.org/dc/dcmitype/Image</title>
<ellipse fill="none" stroke="#558855" cx="686.35" cy="-470" rx="139.98" ry="18"/>
<text text-anchor="middle" x="686.35" y="-466.3" font-family="Times,serif" font-size="14.00">purl.org/dc/dcmitype/Image</text>
</g>
<!-- purl.org/dc/dcmitype/Image&#45;&gt;DefinedTerm -->
<g id="edge1" class="edge">
<title>purl.org/dc/dcmitype/Image&#45;&gt;DefinedTerm</title>
<path fill="none" stroke="black" d="M748.54,-486.24C782.81,-495.04 826.4,-505.78 865.54,-514 935.41,-528.68 1015.89,-542.29 1071.91,-551.24"/>
<polygon fill="black" stroke="black" points="1071.65,-554.74 1082.08,-552.85 1072.75,-547.83 1071.65,-554.74"/>
<text text-anchor="middle" x="930.54" y="-541.8" font-family="Times,serif" font-size="14.00">type</text>
</g>
<!-- &quot;http//purl.org/dc/te...&quot; -->
<g id="node3" class="node">
<title>&quot;http//purl.org/dc/te...&quot;</title>
<ellipse fill="none" stroke="black" stroke-width="0" cx="1142.87" cy="-508" rx="116.98" ry="18"/>
<text text-anchor="middle" x="1142.87" y="-504.3" font-family="Times,serif" font-size="14.00">&quot;http//purl.org/dc/te...&quot;</text>
</g>
<!-- purl.org/dc/dcmitype/Image&#45;&gt;&quot;http//purl.org/dc/te...&quot; -->
<g id="edge2" class="edge">
<title>purl.org/dc/dcmitype/Image&#45;&gt;&quot;http//purl.org/dc/te...&quot;</title>
<path fill="none" stroke="black" d="M804.11,-479.76C873.55,-485.57 961.19,-492.89 1029.79,-498.63"/>
<polygon fill="black" stroke="black" points="1029.51,-502.12 1039.77,-499.46 1030.1,-495.14 1029.51,-502.12"/>
<text text-anchor="middle" x="930.54" y="-498.8" font-family="Times,serif" font-size="14.00">inDefinedTermSet</text>
</g>
<!-- &quot;Image&quot; -->
<g id="node4" class="node">
<title>&quot;Image&quot;</title>
<ellipse fill="none" stroke="black" stroke-width="0" cx="1142.87" cy="-453" rx="48.19" ry="18"/>
<text text-anchor="middle" x="1142.87" y="-449.3" font-family="Times,serif" font-size="14.00">&quot;Image&quot;</text>
</g>
<!-- purl.org/dc/dcmitype/Image&#45;&gt;&quot;Image&quot; -->
<g id="edge3" class="edge">
<title>purl.org/dc/dcmitype/Image&#45;&gt;&quot;Image&quot;</title>
<path fill="none" stroke="black" d="M820.65,-465.01C908.42,-461.73 1018.89,-457.6 1084.75,-455.14"/>
<polygon fill="black" stroke="black" points="1085.07,-458.63 1094.93,-454.76 1084.81,-451.63 1085.07,-458.63"/>
<text text-anchor="middle" x="930.54" y="-466.8" font-family="Times,serif" font-size="14.00">name</text>
</g>
<!-- purl.org/dc/dcmitype/Image&#45;&gt;&quot;Image&quot; -->
<g id="edge4" class="edge">
<title>purl.org/dc/dcmitype/Image&#45;&gt;&quot;Image&quot;</title>
<path fill="none" stroke="black" d="M759.37,-454.56C791.67,-448.39 830.34,-442.04 865.54,-439 923.1,-434.03 937.82,-436.25 995.54,-439 1025.71,-440.44 1059.27,-443.54 1086.63,-446.46"/>
<polygon fill="black" stroke="black" points="1086.48,-449.96 1096.8,-447.57 1087.23,-443.01 1086.48,-449.96"/>
<text text-anchor="middle" x="930.54" y="-442.8" font-family="Times,serif" font-size="14.00">termCode</text>
</g>
<!-- PropertyValue -->
<g id="node5" class="node">
<title>PropertyValue</title>
<ellipse fill="none" stroke="#558855" cx="1142.87" cy="-396" rx="77.19" ry="18"/>
<text text-anchor="middle" x="1142.87" y="-392.3" font-family="Times,serif" font-size="14.00">PropertyValue</text>
</g>
<!-- doi.org/10.5066/F7VX0DMQ -->
<g id="node6" class="node">
<title>doi.org/10.5066/F7VX0DMQ</title>
<ellipse fill="none" stroke="#558855" cx="686.35" cy="-342" rx="141.88" ry="18"/>
<text text-anchor="middle" x="686.35" y="-338.3" font-family="Times,serif" font-size="14.00">doi.org/10.5066/F7VX0DMQ</text>
</g>
<!-- doi.org/10.5066/F7VX0DMQ&#45;&gt;PropertyValue -->
<g id="edge5" class="edge">
<title>doi.org/10.5066/F7VX0DMQ&#45;&gt;PropertyValue</title>
<path fill="none" stroke="black" d="M790.49,-354.25C873.29,-364.09 987.8,-377.7 1063.3,-386.66"/>
<polygon fill="black" stroke="black" points="1063.34,-390.19 1073.68,-387.9 1064.17,-383.24 1063.34,-390.19"/>
<text text-anchor="middle" x="930.54" y="-381.8" font-family="Times,serif" font-size="14.00">type</text>
</g>
<!-- &quot;https//registry.iden...&quot; -->
<g id="node7" class="node">
<title>&quot;https//registry.iden...&quot;</title>
<ellipse fill="none" stroke="black" stroke-width="0" cx="1142.87" cy="-342" rx="116.98" ry="18"/>
<text text-anchor="middle" x="1142.87" y="-338.3" font-family="Times,serif" font-size="14.00">&quot;https//registry.iden...&quot;</text>
</g>
<!-- doi.org/10.5066/F7VX0DMQ&#45;&gt;&quot;https//registry.iden...&quot; -->
<g id="edge6" class="edge">
<title>doi.org/10.5066/F7VX0DMQ&#45;&gt;&quot;https//registry.iden...&quot;</title>
<path fill="none" stroke="black" d="M828.05,-342C888.06,-342 957.55,-342 1015.85,-342"/>
<polygon fill="black" stroke="black" points="1015.86,-345.5 1025.86,-342 1015.86,-338.5 1015.86,-345.5"/>
<text text-anchor="middle" x="930.54" y="-345.8" font-family="Times,serif" font-size="14.00">propertyID</text>
</g>
<!-- &quot;https//doi.org/10.50...&quot; -->
<g id="node8" class="node">
<title>&quot;https//doi.org/10.50...&quot;</title>
<ellipse fill="none" stroke="black" stroke-width="0" cx="1142.87" cy="-288" rx="120.48" ry="18"/>
<text text-anchor="middle" x="1142.87" y="-284.3" font-family="Times,serif" font-size="14.00">&quot;https//doi.org/10.50...&quot;</text>
</g>
<!-- doi.org/10.5066/F7VX0DMQ&#45;&gt;&quot;https//doi.org/10.50...&quot; -->
<g id="edge7" class="edge">
<title>doi.org/10.5066/F7VX0DMQ&#45;&gt;&quot;https//doi.org/10.50...&quot;</title>
<path fill="none" stroke="black" d="M790.49,-329.75C864.41,-320.96 963.6,-309.18 1037.75,-300.37"/>
<polygon fill="black" stroke="black" points="1038.52,-303.8 1048.04,-299.15 1037.7,-296.85 1038.52,-303.8"/>
<text text-anchor="middle" x="930.54" y="-322.8" font-family="Times,serif" font-size="14.00">url</text>
</g>
<!-- &quot;doi10.5066/F7VX0DMQ&quot; -->
<g id="node9" class="node">
<title>&quot;doi10.5066/F7VX0DMQ&quot;</title>
<ellipse fill="none" stroke="black" stroke-width="0" cx="1142.87" cy="-234" rx="129.18" ry="18"/>
<text text-anchor="middle" x="1142.87" y="-230.3" font-family="Times,serif" font-size="14.00">&quot;doi10.5066/F7VX0DMQ&quot;</text>
</g>
<!-- doi.org/10.5066/F7VX0DMQ&#45;&gt;&quot;doi10.5066/F7VX0DMQ&quot; -->
<g id="edge8" class="edge">
<title>doi.org/10.5066/F7VX0DMQ&#45;&gt;&quot;doi10.5066/F7VX0DMQ&quot;</title>
<path fill="none" stroke="black" d="M808.85,-332.95C822.58,-328.68 835.83,-322.86 847.54,-315 860.13,-306.55 853.02,-294.57 865.54,-286 905.95,-258.31 957.15,-244.34 1004.47,-237.59"/>
<polygon fill="black" stroke="black" points="1005.05,-241.04 1014.5,-236.25 1004.12,-234.1 1005.05,-241.04"/>
<text text-anchor="middle" x="930.54" y="-289.8" font-family="Times,serif" font-size="14.00">value</text>
</g>
<!-- Map -->
<g id="node10" class="node">
<title>Map</title>
<ellipse fill="none" stroke="#558855" cx="686.35" cy="-288" rx="31.4" ry="18"/>
<text text-anchor="middle" x="686.35" y="-284.3" font-family="Times,serif" font-size="14.00">Map</text>
</g>
<!-- example.org/permanentUrlToThisJsonDoc -->
<g id="node11" class="node">
<title>example.org/permanentUrlToThisJsonDoc</title>
<ellipse fill="none" stroke="black" cx="204.08" cy="-207" rx="204.16" ry="18"/>
<text text-anchor="middle" x="204.08" y="-203.3" font-family="Times,serif" font-size="14.00">example.org/permanentUrlToThisJsonDoc</text>
</g>
<!-- example.org/permanentUrlToThisJsonDoc&#45;&gt;purl.org/dc/dcmitype/Image -->
<g id="edge13" class="edge">
<title>example.org/permanentUrlToThisJsonDoc&#45;&gt;purl.org/dc/dcmitype/Image</title>
<path fill="none" stroke="black" d="M237.72,-224.87C322.71,-271.42 550.81,-396.32 644.41,-447.58"/>
<polygon fill="black" stroke="black" points="642.85,-450.72 653.3,-452.45 646.21,-444.58 642.85,-450.72"/>
<text text-anchor="middle" x="466.66" y="-372.8" font-family="Times,serif" font-size="14.00">keywords</text>
</g>
<!-- example.org/permanentUrlToThisJsonDoc&#45;&gt;doi.org/10.5066/F7VX0DMQ -->
<g id="edge11" class="edge">
<title>example.org/permanentUrlToThisJsonDoc&#45;&gt;doi.org/10.5066/F7VX0DMQ</title>
<path fill="none" stroke="black" d="M249.73,-224.58C310.98,-248.11 424.91,-289.81 525.16,-315 543.02,-319.49 562.18,-323.44 580.82,-326.84"/>
<polygon fill="black" stroke="black" points="580.35,-330.31 590.81,-328.62 581.58,-323.42 580.35,-330.31"/>
<text text-anchor="middle" x="466.66" y="-311.8" font-family="Times,serif" font-size="14.00">identifier</text>
</g>
<!-- example.org/permanentUrlToThisJsonDoc&#45;&gt;Map -->
<g id="edge9" class="edge">
<title>example.org/permanentUrlToThisJsonDoc&#45;&gt;Map</title>
<path fill="none" stroke="black" d="M299.62,-222.95C363.35,-233.71 449.31,-248.21 525.16,-261 566.44,-267.96 613.71,-275.93 646.14,-281.39"/>
<polygon fill="black" stroke="black" points="645.68,-284.86 656.12,-283.07 646.84,-277.96 645.68,-284.86"/>
<text text-anchor="middle" x="466.66" y="-259.8" font-family="Times,serif" font-size="14.00">type</text>
</g>
<!-- &quot;Description of the m...&quot; -->
<g id="node12" class="node">
<title>&quot;Description of the m...&quot;</title>
<ellipse fill="none" stroke="black" stroke-width="0" cx="686.35" cy="-234" rx="123.48" ry="18"/>
<text text-anchor="middle" x="686.35" y="-230.3" font-family="Times,serif" font-size="14.00">&quot;Description of the m...&quot;</text>
</g>
<!-- example.org/permanentUrlToThisJsonDoc&#45;&gt;&quot;Description of the m...&quot; -->
<g id="edge10" class="edge">
<title>example.org/permanentUrlToThisJsonDoc&#45;&gt;&quot;Description of the m...&quot;</title>
<path fill="none" stroke="black" d="M376.77,-216.65C437.61,-220.07 504.84,-223.85 560.98,-227.01"/>
<polygon fill="black" stroke="black" points="560.79,-230.5 570.97,-227.57 561.18,-223.51 560.79,-230.5"/>
<text text-anchor="middle" x="466.66" y="-226.8" font-family="Times,serif" font-size="14.00">description</text>
</g>
<!-- &quot;Region X&quot; -->
<g id="node13" class="node">
<title>&quot;Region X&quot;</title>
<ellipse fill="none" stroke="black" stroke-width="0" cx="686.35" cy="-180" rx="61.19" ry="18"/>
<text text-anchor="middle" x="686.35" y="-176.3" font-family="Times,serif" font-size="14.00">&quot;Region X&quot;</text>
</g>
<!-- example.org/permanentUrlToThisJsonDoc&#45;&gt;&quot;Region X&quot; -->
<g id="edge12" class="edge">
<title>example.org/permanentUrlToThisJsonDoc&#45;&gt;&quot;Region X&quot;</title>
<path fill="none" stroke="black" d="M376.77,-197.35C459.29,-192.71 553.57,-187.41 615.97,-183.9"/>
<polygon fill="black" stroke="black" points="616.3,-187.39 626.09,-183.33 615.91,-180.4 616.3,-187.39"/>
<text text-anchor="middle" x="466.66" y="-197.8" font-family="Times,serif" font-size="14.00">keywords</text>
</g>
<!-- www.wikidata.org/wiki/Q350134 -->
<g id="node14" class="node">
<title>www.wikidata.org/wiki/Q350134</title>
<ellipse fill="none" stroke="#558855" cx="686.35" cy="-126" rx="161.37" ry="18"/>
<text text-anchor="middle" x="686.35" y="-122.3" font-family="Times,serif" font-size="14.00">www.wikidata.org/wiki/Q350134</text>
</g>
<!-- example.org/permanentUrlToThisJsonDoc&#45;&gt;www.wikidata.org/wiki/Q350134 -->
<g id="edge14" class="edge">
<title>example.org/permanentUrlToThisJsonDoc&#45;&gt;www.wikidata.org/wiki/Q350134</title>
<path fill="none" stroke="black" d="M299.62,-191.05C363.35,-180.29 449.31,-165.79 525.16,-153 545,-149.66 566.22,-146.08 586.51,-142.66"/>
<polygon fill="black" stroke="black" points="587.1,-146.11 596.38,-140.99 585.94,-139.2 587.1,-146.11"/>
<text text-anchor="middle" x="466.66" y="-172.8" font-family="Times,serif" font-size="14.00">keywords</text>
</g>
<!-- &quot;Name or title of the...&quot; -->
<g id="node15" class="node">
<title>&quot;Name or title of the...&quot;</title>
<ellipse fill="none" stroke="black" stroke-width="0" cx="686.35" cy="-72" rx="120.48" ry="18"/>
<text text-anchor="middle" x="686.35" y="-68.3" font-family="Times,serif" font-size="14.00">&quot;Name or title of the...&quot;</text>
</g>
<!-- example.org/permanentUrlToThisJsonDoc&#45;&gt;&quot;Name or title of the...&quot; -->
<g id="edge15" class="edge">
<title>example.org/permanentUrlToThisJsonDoc&#45;&gt;&quot;Name or title of the...&quot;</title>
<path fill="none" stroke="black" d="M249.73,-189.42C310.98,-165.89 424.91,-124.19 525.16,-99 545.14,-93.98 566.76,-89.63 587.46,-85.97"/>
<polygon fill="black" stroke="black" points="588.28,-89.38 597.54,-84.23 587.09,-82.48 588.28,-89.38"/>
<text text-anchor="middle" x="466.66" y="-130.8" font-family="Times,serif" font-size="14.00">name</text>
</g>
<!-- &quot;https//www.sample&#45;da...&quot; -->
<g id="node16" class="node">
<title>&quot;https//www.sample&#45;da...&quot;</title>
<ellipse fill="none" stroke="black" stroke-width="0" cx="686.35" cy="-18" rx="131.08" ry="18"/>
<text text-anchor="middle" x="686.35" y="-14.3" font-family="Times,serif" font-size="14.00">&quot;https//www.sample&#45;da...&quot;</text>
</g>
<!-- example.org/permanentUrlToThisJsonDoc&#45;&gt;&quot;https//www.sample&#45;da...&quot; -->
<g id="edge16" class="edge">
<title>example.org/permanentUrlToThisJsonDoc&#45;&gt;&quot;https//www.sample&#45;da...&quot;</title>
<path fill="none" stroke="black" d="M231.88,-188.97C285.1,-154.2 409.04,-78.37 525.16,-45 542.86,-39.92 561.94,-35.67 580.55,-32.16"/>
<polygon fill="black" stroke="black" points="581.32,-35.58 590.53,-30.34 580.07,-28.69 581.32,-35.58"/>
<text text-anchor="middle" x="466.66" y="-81.8" font-family="Times,serif" font-size="14.00">url</text>
</g>
<!-- URL -->
<g id="node17" class="node">
<title>URL</title>
<ellipse fill="none" stroke="#558855" cx="1142.87" cy="-153" rx="31.4" ry="18"/>
<text text-anchor="middle" x="1142.87" y="-149.3" font-family="Times,serif" font-size="14.00">URL</text>
</g>
<!-- www.wikidata.org/wiki/Q350134&#45;&gt;URL -->
<g id="edge17" class="edge">
<title>www.wikidata.org/wiki/Q350134&#45;&gt;URL</title>
<path fill="none" stroke="black" d="M828.98,-134.41C923.36,-140.02 1040.82,-147 1101.45,-150.6"/>
<polygon fill="black" stroke="black" points="1101.55,-154.11 1111.74,-151.21 1101.97,-147.12 1101.55,-154.11"/>
<text text-anchor="middle" x="930.54" y="-147.8" font-family="Times,serif" font-size="14.00">type</text>
</g>
<!-- &quot;https//www.wikidata....&quot; -->
<g id="node18" class="node">
<title>&quot;https//www.wikidata....&quot;</title>
<ellipse fill="none" stroke="black" stroke-width="0" cx="1142.87" cy="-99" rx="126.18" ry="18"/>
<text text-anchor="middle" x="1142.87" y="-95.3" font-family="Times,serif" font-size="14.00">&quot;https//www.wikidata....&quot;</text>
</g>
<!-- www.wikidata.org/wiki/Q350134&#45;&gt;&quot;https//www.wikidata....&quot; -->
<g id="edge18" class="edge">
<title>www.wikidata.org/wiki/Q350134&#45;&gt;&quot;https//www.wikidata....&quot;</title>
<path fill="none" stroke="black" d="M828.98,-117.59C888.71,-114.04 957.67,-109.94 1015.63,-106.5"/>
<polygon fill="black" stroke="black" points="1016.17,-109.97 1025.95,-105.89 1015.76,-102.99 1016.17,-109.97"/>
<text text-anchor="middle" x="930.54" y="-117.8" font-family="Times,serif" font-size="14.00">url</text>
</g>
</g>
</svg>