<?xml version="1.0" encoding="UTF-8" standalone="no"?>
<!DOCTYPE svg PUBLIC "-//W3C//DTD SVG 1.1//EN"
 "http://www.w3.org/Graphics/SVG/1.1/DTD/svg11.dtd">
<!-- Generated by graphviz version 2.43.0 (0)
 -->
<!-- Title: %3 Pages: 1 -->
<svg width="1265pt" height="209pt"
 viewBox="0.00 0.00 1264.71 209.00" xmlns="http://www.w3.org/2000/svg" xmlns:xlink="http://www.w3.org/1999/xlink">
<g id="graph0" class="graph" transform="scale(1 1) rotate(0) translate(4 205)">
<title>%3</title>
<polygon fill="white" stroke="transparent" points="-4,4 -4,-205 1260.71,-205 1260.71,4 -4,4"/>
<!-- CreativeWork -->
<g id="node1" class="node">
<title>CreativeWork</title>
<ellipse fill="none" stroke="#558855" cx="1122.82" cy="-183" rx="74.19" ry="18"/>
<text text-anchor="middle" x="1122.82" y="-179.3" font-family="Times,serif" font-size="14.00">CreativeWork</text>
</g>
<!-- purl.unep.org/sdg/SDGIO_00020173 -->
<g id="node2" class="node">
<title>purl.unep.org/sdg/SDGIO_00020173</title>
<ellipse fill="none" stroke="#558855" cx="692.55" cy="-122" rx="179.27" ry="18"/>
<text text-anchor="middle" x="692.55" y="-118.3" font-family="Times,serif" font-size="14.00">purl.unep.org/sdg/SDGIO_00020173</text>
</g>
<!-- purl.unep.org/sdg/SDGIO_00020173&#45;&gt;CreativeWork -->
<g id="edge1" class="edge">
<title>purl.unep.org/sdg/SDGIO_00020173&#45;&gt;CreativeWork</title>
<path fill="none" stroke="black" d="M798.28,-136.6C850.22,-143.87 913.89,-152.83 970.93,-161 996.38,-164.64 1024.24,-168.69 1049.01,-172.31"/>
<polygon fill="black" stroke="black" points="1048.66,-175.79 1059.06,-173.78 1049.67,-168.87 1048.66,-175.79"/>
<text text-anchor="middle" x="930.43" y="-164.8" font-family="Times,serif" font-size="14.00">type</text>
</g>
<!-- &quot;Number of countries ...&quot; -->
<g id="node3" class="node">
<title>&quot;Number of countries ...&quot;</title>
<ellipse fill="none" stroke="black" stroke-width="0" cx="1122.82" cy="-126" rx="127.28" ry="18"/>
<text text-anchor="middle" x="1122.82" y="-122.3" font-family="Times,serif" font-size="14.00">&quot;Number of countries ...&quot;</text>
</g>
<!-- purl.unep.org/sdg/SDGIO_00020173&#45;&gt;&quot;Number of countries ...&quot; -->
<g id="edge2" class="edge">
<title>purl.unep.org/sdg/SDGIO_00020173&#45;&gt;&quot;Number of countries ...&quot;</title>
<path fill="none" stroke="black" d="M872.24,-122.22C905.06,-122.38 939.03,-122.63 970.93,-123 976.04,-123.06 981.25,-123.13 986.51,-123.2"/>
<polygon fill="black" stroke="black" points="986.62,-126.71 996.67,-123.36 986.73,-119.71 986.62,-126.71"/>
<text text-anchor="middle" x="930.43" y="-126.8" font-family="Times,serif" font-size="14.00">description</text>
</g>
<!-- &quot;UNSD SDG indicator c...&quot; -->
<g id="node4" class="node">
<title>&quot;UNSD SDG indicator c...&quot;</title>
<ellipse fill="none" stroke="black" stroke-width="0" cx="1122.82" cy="-72" rx="133.78" ry="18"/>
<text text-anchor="middle" x="1122.82" y="-68.3" font-family="Times,serif" font-size="14.00">&quot;UNSD SDG indicator c...&quot;</text>
</g>
<!-- purl.unep.org/sdg/SDGIO_00020173&#45;&gt;&quot;UNSD SDG indicator c...&quot; -->
<g id="edge3" class="edge">
<title>purl.unep.org/sdg/SDGIO_00020173&#45;&gt;&quot;UNSD SDG indicator c...&quot;</title>
<path fill="none" stroke="black" d="M810.29,-108.37C872.82,-101.07 949.42,-92.13 1011.02,-84.94"/>
<polygon fill="black" stroke="black" points="1011.63,-88.39 1021.16,-83.75 1010.82,-81.44 1011.63,-88.39"/>
<text text-anchor="middle" x="930.43" y="-101.8" font-family="Times,serif" font-size="14.00">name</text>
</g>
<!-- &quot;http//www.ontobee.or...&quot; -->
<g id="node5" class="node">
<title>&quot;http//www.ontobee.or...&quot;</title>
<ellipse fill="none" stroke="black" stroke-width="0" cx="1122.82" cy="-18" rx="128.08" ry="18"/>
<text text-anchor="middle" x="1122.82" y="-14.3" font-family="Times,serif" font-size="14.00">&quot;http//www.ontobee.or...&quot;</text>
</g>
<!-- purl.unep.org/sdg/SDGIO_00020173&#45;&gt;&quot;http//www.ontobee.or...&quot; -->
<g id="edge4" class="edge">
<title>purl.unep.org/sdg/SDGIO_00020173&#45;&gt;&quot;http//www.ontobee.or...&quot;</title>
<path fill="none" stroke="black" d="M754.41,-105.1C813.96,-88.8 907.36,-63.9 988.93,-45 1004.41,-41.41 1020.96,-37.84 1036.95,-34.52"/>
<polygon fill="black" stroke="black" points="1037.73,-37.94 1046.82,-32.49 1036.32,-31.08 1037.73,-37.94"/>
<text text-anchor="middle" x="930.43" y="-71.8" font-family="Times,serif" font-size="14.00">url</text>
</g>
<!-- example.org/permanentUrlToThisJsonDoc -->
<g id="node6" class="node">
<title>example.org/permanentUrlToThisJsonDoc</title>
<ellipse fill="none" stroke="black" cx="204.08" cy="-156" rx="204.16" ry="18"/>
<text text-anchor="middle" x="204.08" y="-152.3" font-family="Times,serif" font-size="14.00">example.org/permanentUrlToThisJsonDoc</text>
</g>
<!-- example.org/permanentUrlToThisJsonDoc&#45;&gt;CreativeWork -->
<g id="edge5" class="edge">
<title>example.org/permanentUrlToThisJsonDoc&#45;&gt;CreativeWork</title>
<path fill="none" stroke="black" d="M397.82,-161.68C596.04,-167.51 895.47,-176.33 1039.16,-180.57"/>
<polygon fill="black" stroke="black" points="1039.13,-184.07 1049.23,-180.86 1039.34,-177.07 1039.13,-184.07"/>
<text text-anchor="middle" x="692.55" y="-178.8" font-family="Times,serif" font-size="14.00">type</text>
</g>
<!-- example.org/permanentUrlToThisJsonDoc&#45;&gt;purl.unep.org/sdg/SDGIO_00020173 -->
<g id="edge6" class="edge">
<title>example.org/permanentUrlToThisJsonDoc&#45;&gt;purl.unep.org/sdg/SDGIO_00020173</title>
<path fill="none" stroke="black" d="M364.71,-144.84C419.34,-141.03 480.38,-136.76 534.79,-132.96"/>
<polygon fill="black" stroke="black" points="535.13,-136.44 544.86,-132.25 534.64,-129.46 535.13,-136.44"/>
<text text-anchor="middle" x="460.66" y="-143.8" font-family="Times,serif" font-size="14.00">subjectOf</text>
</g>
</g>
</svg>