<?xml version="1.0" encoding="UTF-8" standalone="no"?>
<!DOCTYPE svg PUBLIC "-//W3C//DTD SVG 1.1//EN"
 "http://www.w3.org/Graphics/SVG/1.1/DTD/svg11.dtd">
<!-- Generated by graphviz version 2.43.0 (0)
 -->
<!-- Title: %3 Pages: 1 -->
<svg width="1024pt" height="314pt"
 viewBox="0.00 0.00 1023.83 314.00" xmlns="http://www.w3.org/2000/svg" xmlns:xlink="http://www.w3.org/1999/xlink">
<g id="graph0" class="graph" transform="scale(1 1) rotate(0) translate(4 310)">
<title>%3</title>
<polygon fill="white" stroke="transparent" points="-4,4 -4,-310 1019.83,-310 1019.83,4 -4,4"/>
<!-- Vehicle -->
<g id="node1" class="node">
<title>Vehicle</title>
<ellipse fill="none" stroke="#558855" cx="557.36" cy="-207" rx="44.39" ry="18"/>
<text text-anchor="middle" x="557.36" y="-203.3" font-family="Times,serif" font-size="14.00">Vehicle</text>
</g>
<!-- example.org/permanentUrlToThisJsonDoc -->
<g id="node2" class="node">
<title>example.org/permanentUrlToThisJsonDoc</title>
<ellipse fill="none" stroke="black" cx="204.08" cy="-180" rx="204.16" ry="18"/>
<text text-anchor="middle" x="204.08" y="-176.3" font-family="Times,serif" font-size="14.00">example.org/permanentUrlToThisJsonDoc</text>
</g>
<!-- example.org/permanentUrlToThisJsonDoc&#45;&gt;Vehicle -->
<g id="edge1" class="edge">
<title>example.org/permanentUrlToThisJsonDoc&#45;&gt;Vehicle</title>
<path fill="none" stroke="black" d="M358.39,-191.78C410.46,-195.79 465.18,-199.99 503.87,-202.97"/>
<polygon fill="black" stroke="black" points="503.6,-206.46 513.84,-203.73 504.14,-199.48 503.6,-206.46"/>
<text text-anchor="middle" x="460.66" y="-204.8" font-family="Times,serif" font-size="14.00">type</text>
</g>
<!-- _ -->
<g id="node3" class="node">
<title>_</title>
<ellipse fill="none" stroke="#558855" cx="557.36" cy="-153" rx="27" ry="18"/>
<text text-anchor="middle" x="557.36" y="-149.3" font-family="Times,serif" font-size="14.00">_</text>
</g>
<!-- example.org/permanentUrlToThisJsonDoc&#45;&gt;_ -->
<g id="edge2" class="edge">
<title>example.org/permanentUrlToThisJsonDoc&#45;&gt;_</title>
<path fill="none" stroke="black" d="M358.39,-168.22C418.34,-163.61 481.82,-158.73 520.27,-155.77"/>
<polygon fill="black" stroke="black" points="520.73,-159.25 530.43,-154.99 520.19,-152.27 520.73,-159.25"/>
<text text-anchor="middle" x="460.66" y="-165.8" font-family="Times,serif" font-size="14.00">subjectOf</text>
</g>
<!-- DataDownload -->
<g id="node4" class="node">
<title>DataDownload</title>
<ellipse fill="none" stroke="#558855" cx="885.19" cy="-288" rx="78.79" ry="18"/>
<text text-anchor="middle" x="885.19" y="-284.3" font-family="Times,serif" font-size="14.00">DataDownload</text>
</g>
<!-- _&#45;&gt;DataDownload -->
<g id="edge3" class="edge">
<title>_&#45;&gt;DataDownload</title>
<path fill="none" stroke="black" d="M580.39,-162.86C587.98,-167.19 595.98,-172.91 601.56,-180 617.21,-199.88 600.62,-217.22 619.56,-234 667.97,-276.91 741.07,-289.25 798.18,-291.51"/>
<polygon fill="black" stroke="black" points="798.18,-295.01 808.28,-291.81 798.39,-288.02 798.18,-295.01"/>
<text text-anchor="middle" x="678.06" y="-286.8" font-family="Times,serif" font-size="14.00">type</text>
</g>
<!-- &quot;2019&#45;06&#45;12T144415Z&quot; -->
<g id="node5" class="node">
<title>&quot;2019&#45;06&#45;12T144415Z&quot;</title>
<ellipse fill="none" stroke="black" stroke-width="0" cx="885.19" cy="-234" rx="119.68" ry="18"/>
<text text-anchor="middle" x="885.19" y="-230.3" font-family="Times,serif" font-size="14.00">&quot;2019&#45;06&#45;12T144415Z&quot;</text>
</g>
<!-- _&#45;&gt;&quot;2019&#45;06&#45;12T144415Z&quot; -->
<g id="edge4" class="edge">
<title>_&#45;&gt;&quot;2019&#45;06&#45;12T144415Z&quot;</title>
<path fill="none" stroke="black" d="M577.48,-165.34C589.2,-172.38 604.75,-180.81 619.56,-186 669.75,-203.59 727.67,-215.02 776.5,-222.31"/>
<polygon fill="black" stroke="black" points="776.06,-225.78 786.46,-223.75 777.06,-218.85 776.06,-225.78"/>
<text text-anchor="middle" x="678.06" y="-218.8" font-family="Times,serif" font-size="14.00">dateModified</text>
</g>
<!-- &quot;Metadata describing ...&quot; -->
<g id="node6" class="node">
<title>&quot;Metadata describing ...&quot;</title>
<ellipse fill="none" stroke="black" stroke-width="0" cx="885.19" cy="-180" rx="127.28" ry="18"/>
<text text-anchor="middle" x="885.19" y="-176.3" font-family="Times,serif" font-size="14.00">&quot;Metadata describing ...&quot;</text>
</g>
<!-- _&#45;&gt;&quot;Metadata describing ...&quot; -->
<g id="edge5" class="edge">
<title>_&#45;&gt;&quot;Metadata describing ...&quot;</title>
<path fill="none" stroke="black" d="M584.2,-155.14C623.07,-158.36 699.05,-164.66 764.81,-170.11"/>
<polygon fill="black" stroke="black" points="764.6,-173.6 774.85,-170.94 765.18,-166.63 764.6,-173.6"/>
<text text-anchor="middle" x="678.06" y="-170.8" font-family="Times,serif" font-size="14.00">description</text>
</g>
<!-- &quot;application/xml&quot; -->
<g id="node7" class="node">
<title>&quot;application/xml&quot;</title>
<ellipse fill="none" stroke="black" stroke-width="0" cx="885.19" cy="-126" rx="90.98" ry="18"/>
<text text-anchor="middle" x="885.19" y="-122.3" font-family="Times,serif" font-size="14.00">&quot;application/xml&quot;</text>
</g>
<!-- _&#45;&gt;&quot;application/xml&quot; -->
<g id="edge6" class="edge">
<title>_&#45;&gt;&quot;application/xml&quot;</title>
<path fill="none" stroke="black" d="M582.6,-146.42C593.77,-143.66 607.25,-140.7 619.56,-139 673.59,-131.55 734.35,-128.21 784.01,-126.78"/>
<polygon fill="black" stroke="black" points="784.2,-130.27 794.11,-126.51 784.02,-123.28 784.2,-130.27"/>
<text text-anchor="middle" x="678.06" y="-142.8" font-family="Times,serif" font-size="14.00">encodingFormat</text>
</g>
<!-- &quot;https//foo.org/ship0...&quot; -->
<g id="node8" class="node">
<title>&quot;https//foo.org/ship0...&quot;</title>
<ellipse fill="none" stroke="black" stroke-width="0" cx="885.19" cy="-72" rx="119.68" ry="18"/>
<text text-anchor="middle" x="885.19" y="-68.3" font-family="Times,serif" font-size="14.00">&quot;https//foo.org/ship0...&quot;</text>
</g>
<!-- _&#45;&gt;&quot;https//foo.org/ship0...&quot; -->
<g id="edge7" class="edge">
<title>_&#45;&gt;&quot;https//foo.org/ship0...&quot;</title>
<path fill="none" stroke="black" d="M574.19,-138.28C585.84,-128.33 602.55,-115.81 619.56,-109 662.99,-91.59 713.29,-82.16 758.29,-77.12"/>
<polygon fill="black" stroke="black" points="758.83,-80.58 768.4,-76.05 758.09,-73.62 758.83,-80.58"/>
<text text-anchor="middle" x="678.06" y="-112.8" font-family="Times,serif" font-size="14.00">encodingFormat</text>
</g>
<!-- &quot;external&#45;metadata.xm...&quot; -->
<g id="node9" class="node">
<title>&quot;external&#45;metadata.xm...&quot;</title>
<ellipse fill="none" stroke="black" stroke-width="0" cx="885.19" cy="-18" rx="130.78" ry="18"/>
<text text-anchor="middle" x="885.19" y="-14.3" font-family="Times,serif" font-size="14.00">&quot;external&#45;metadata.xm...&quot;</text>
</g>
<!-- _&#45;&gt;&quot;external&#45;metadata.xm...&quot; -->
<g id="edge8" class="edge">
<title>_&#45;&gt;&quot;external&#45;metadata.xm...&quot;</title>
<path fill="none" stroke="black" d="M564.84,-135.56C573.73,-114.26 591.82,-78.87 619.56,-61 656.31,-37.32 701.72,-25.22 744.49,-19.4"/>
<polygon fill="black" stroke="black" points="744.94,-22.87 754.43,-18.16 744.07,-15.93 744.94,-22.87"/>
<text text-anchor="middle" x="678.06" y="-64.8" font-family="Times,serif" font-size="14.00">name</text>
</g>
</g>
</svg>