<?xml version="1.0" encoding="UTF-8" standalone="no"?>
<!DOCTYPE svg PUBLIC "-//W3C//DTD SVG 1.1//EN"
 "http://www.w3.org/Graphics/SVG/1.1/DTD/svg11.dtd">
<!-- Generated by graphviz version 2.43.0 (0)
 -->
<!-- Title: %3 Pages: 1 -->
<svg width="1421pt" height="758pt"
 viewBox="0.00 0.00 1420.51 758.00" xmlns="http://www.w3.org/2000/svg" xmlns:xlink="http://www.w3.org/1999/xlink">
<g id="graph0" class="graph" transform="scale(1 1) rotate(0) translate(4 754)">
<title>%3</title>
<polygon fill="white" stroke="transparent" points="-4,4 -4,-754 1416.51,-754 1416.51,4 -4,4"/>
<!-- PropertyValue -->
<g id="node1" class="node">
<title>PropertyValue</title>
<ellipse fill="none" stroke="#558855" cx="1263.02" cy="-621" rx="77.19" ry="18"/>
<text text-anchor="middle" x="1263.02" y="-617.3" font-family="Times,serif" font-size="14.00">PropertyValue</text>
</g>
<!-- example.org/base/ID_value_string -->
<g id="node2" class="node">
<title>example.org/base/ID_value_string</title>
<ellipse fill="none" stroke="#558855" cx="792.85" cy="-640" rx="167.87" ry="18"/>
<text text-anchor="middle" x="792.85" y="-636.3" font-family="Times,serif" font-size="14.00">example.org/base/ID_value_string</text>
</g>
<!-- example.org/base/ID_value_string&#45;&gt;PropertyValue -->
<g id="edge1" class="edge">
<title>example.org/base/ID_value_string&#45;&gt;PropertyValue</title>
<path fill="none" stroke="black" d="M950.07,-633.66C1025.51,-630.6 1113.13,-627.04 1176.26,-624.48"/>
<polygon fill="black" stroke="black" points="1176.72,-627.96 1186.57,-624.06 1176.44,-620.97 1176.72,-627.96"/>
<text text-anchor="middle" x="1037.03" y="-635.8" font-family="Times,serif" font-size="14.00">type</text>
</g>
<!-- &quot;Any additional properties...&quot; -->
<g id="node3" class="node">
<title>&quot;Any additional properties...&quot;</title>
<ellipse fill="none" stroke="black" stroke-width="0" cx="1263.02" cy="-732" rx="146.47" ry="18"/>
<text text-anchor="middle" x="1263.02" y="-728.3" font-family="Times,serif" font-size="14.00">&quot;Any additional properties...&quot;</text>
</g>
<!-- example.org/base/ID_value_string&#45;&gt;&quot;Any additional properties...&quot; -->
<g id="edge2" class="edge">
<title>example.org/base/ID_value_string&#45;&gt;&quot;Any additional properties...&quot;</title>
<path fill="none" stroke="black" d="M862.52,-656.46C897.22,-664.56 940.02,-674.23 978.53,-682 1040.1,-694.42 1109.54,-706.7 1164.29,-715.98"/>
<polygon fill="black" stroke="black" points="1163.89,-719.46 1174.33,-717.67 1165.06,-712.56 1163.89,-719.46"/>
<text text-anchor="middle" x="1037.03" y="-706.8" font-family="Times,serif" font-size="14.00">description</text>
</g>
<!-- &quot;https//en.wikipedia.org/w...&quot; -->
<g id="node4" class="node">
<title>&quot;https//en.wikipedia.org/w...&quot;</title>
<ellipse fill="none" stroke="black" stroke-width="0" cx="1263.02" cy="-561" rx="145.67" ry="18"/>
<text text-anchor="middle" x="1263.02" y="-557.3" font-family="Times,serif" font-size="14.00">&quot;https//en.wikipedia.org/w...&quot;</text>
</g>
<!-- example.org/base/ID_value_string&#45;&gt;&quot;https//en.wikipedia.org/w...&quot; -->
<g id="edge3" class="edge">
<title>example.org/base/ID_value_string&#45;&gt;&quot;https//en.wikipedia.org/w...&quot;</title>
<path fill="none" stroke="black" d="M883.84,-624.81C964.88,-611.14 1083.62,-591.1 1166.36,-577.14"/>
<polygon fill="black" stroke="black" points="1166.99,-580.59 1176.27,-575.47 1165.83,-573.68 1166.99,-580.59"/>
<text text-anchor="middle" x="1037.03" y="-610.8" font-family="Times,serif" font-size="14.00">propertyID</text>
</g>
<!-- &quot;https//foo.org/linkToProp...&quot; -->
<g id="node5" class="node">
<title>&quot;https//foo.org/linkToProp...&quot;</title>
<ellipse fill="none" stroke="black" stroke-width="0" cx="1263.02" cy="-678" rx="143.77" ry="18"/>
<text text-anchor="middle" x="1263.02" y="-674.3" font-family="Times,serif" font-size="14.00">&quot;https//foo.org/linkToProp...&quot;</text>
</g>
<!-- example.org/base/ID_value_string&#45;&gt;&quot;https//foo.org/linkToProp...&quot; -->
<g id="edge4" class="edge">
<title>example.org/base/ID_value_string&#45;&gt;&quot;https//foo.org/linkToProp...&quot;</title>
<path fill="none" stroke="black" d="M927.07,-650.81C991.34,-656.03 1068.16,-662.26 1132.01,-667.45"/>
<polygon fill="black" stroke="black" points="1131.89,-670.95 1142.14,-668.27 1132.45,-663.97 1131.89,-670.95"/>
<text text-anchor="middle" x="1037.03" y="-666.8" font-family="Times,serif" font-size="14.00">url</text>
</g>
<!-- example.org/id/vessel/X -->
<g id="node6" class="node">
<title>example.org/id/vessel/X</title>
<ellipse fill="none" stroke="#558855" cx="792.85" cy="-488" rx="120.78" ry="18"/>
<text text-anchor="middle" x="792.85" y="-484.3" font-family="Times,serif" font-size="14.00">example.org/id/vessel/X</text>
</g>
<!-- example.org/id/vessel/X&#45;&gt;PropertyValue -->
<g id="edge5" class="edge">
<title>example.org/id/vessel/X&#45;&gt;PropertyValue</title>
<path fill="none" stroke="black" d="M847.46,-504.19C884.25,-515.17 934.24,-529.85 978.53,-542 1030.3,-556.2 1048.14,-546.79 1095.53,-572 1104.98,-577.03 1104,-583.13 1113.53,-588 1134.93,-598.94 1159.88,-606.27 1183.15,-611.18"/>
<polygon fill="black" stroke="black" points="1182.51,-614.62 1193,-613.14 1183.88,-607.76 1182.51,-614.62"/>
<text text-anchor="middle" x="1037.03" y="-575.8" font-family="Times,serif" font-size="14.00">type</text>
</g>
<!-- example.org/id/vessel/X&#45;&gt;&quot;https//en.wikipedia.org/w...&quot; -->
<g id="edge7" class="edge">
<title>example.org/id/vessel/X&#45;&gt;&quot;https//en.wikipedia.org/w...&quot;</title>
<path fill="none" stroke="black" d="M891.67,-498.38C950.88,-505.23 1027.78,-515.12 1095.53,-527 1103.61,-528.42 1105.52,-529.3 1113.53,-531 1133.43,-535.22 1154.86,-539.63 1175.08,-543.73"/>
<polygon fill="black" stroke="black" points="1174.4,-547.16 1184.89,-545.71 1175.79,-540.3 1174.4,-547.16"/>
<text text-anchor="middle" x="1037.03" y="-530.8" font-family="Times,serif" font-size="14.00">propertyID</text>
</g>
<!-- &quot;Vessel ID &quot; -->
<g id="node7" class="node">
<title>&quot;Vessel ID &quot;</title>
<ellipse fill="none" stroke="black" stroke-width="0" cx="1263.02" cy="-504" rx="65.79" ry="18"/>
<text text-anchor="middle" x="1263.02" y="-500.3" font-family="Times,serif" font-size="14.00">&quot;Vessel ID &quot;</text>
</g>
<!-- example.org/id/vessel/X&#45;&gt;&quot;Vessel ID &quot; -->
<g id="edge6" class="edge">
<title>example.org/id/vessel/X&#45;&gt;&quot;Vessel ID &quot;</title>
<path fill="none" stroke="black" d="M913.2,-486.02C968.67,-485.71 1035.5,-486.2 1095.53,-489 1127.17,-490.47 1162.09,-493.42 1191.74,-496.31"/>
<polygon fill="black" stroke="black" points="1191.7,-499.82 1202,-497.33 1192.39,-492.86 1191.7,-499.82"/>
<text text-anchor="middle" x="1037.03" y="-492.8" font-family="Times,serif" font-size="14.00">description</text>
</g>
<!-- &quot;https//example.org/id/ves...&quot; -->
<g id="node8" class="node">
<title>&quot;https//example.org/id/ves...&quot;</title>
<ellipse fill="none" stroke="black" stroke-width="0" cx="1263.02" cy="-450" rx="146.47" ry="18"/>
<text text-anchor="middle" x="1263.02" y="-446.3" font-family="Times,serif" font-size="14.00">&quot;https//example.org/id/ves...&quot;</text>
</g>
<!-- example.org/id/vessel/X&#45;&gt;&quot;https//example.org/id/ves...&quot; -->
<g id="edge8" class="edge">
<title>example.org/id/vessel/X&#45;&gt;&quot;https//example.org/id/ves...&quot;</title>
<path fill="none" stroke="black" d="M886.29,-476.51C915.74,-473.11 948.47,-469.61 978.53,-467 1023.4,-463.11 1072.34,-459.83 1116.74,-457.22"/>
<polygon fill="black" stroke="black" points="1116.95,-460.71 1126.73,-456.64 1116.54,-453.73 1116.95,-460.71"/>
<text text-anchor="middle" x="1037.03" y="-470.8" font-family="Times,serif" font-size="14.00">url</text>
</g>
<!-- Vehicle -->
<g id="node9" class="node">
<title>Vehicle</title>
<ellipse fill="none" stroke="#558855" cx="792.85" cy="-391" rx="44.39" ry="18"/>
<text text-anchor="middle" x="792.85" y="-387.3" font-family="Times,serif" font-size="14.00">Vehicle</text>
</g>
<!-- example.org/permanentUrlToThisJsonDoc -->
<g id="node10" class="node">
<title>example.org/permanentUrlToThisJsonDoc</title>
<ellipse fill="none" stroke="black" cx="204.08" cy="-337" rx="204.16" ry="18"/>
<text text-anchor="middle" x="204.08" y="-333.3" font-family="Times,serif" font-size="14.00">example.org/permanentUrlToThisJsonDoc</text>
</g>
<!-- example.org/permanentUrlToThisJsonDoc&#45;&gt;example.org/base/ID_value_string -->
<g id="edge10" class="edge">
<title>example.org/permanentUrlToThisJsonDoc&#45;&gt;example.org/base/ID_value_string</title>
<path fill="none" stroke="black" d="M236.72,-354.82C279.45,-378.78 358.1,-422.45 426.16,-458 540.23,-517.57 676.33,-584.14 745.91,-617.85"/>
<polygon fill="black" stroke="black" points="744.75,-621.18 755.28,-622.38 747.8,-614.88 744.75,-621.18"/>
<text text-anchor="middle" x="516.66" y="-551.8" font-family="Times,serif" font-size="14.00">additionalProperty</text>
</g>
<!-- example.org/permanentUrlToThisJsonDoc&#45;&gt;example.org/id/vessel/X -->
<g id="edge13" class="edge">
<title>example.org/permanentUrlToThisJsonDoc&#45;&gt;example.org/id/vessel/X</title>
<path fill="none" stroke="black" d="M271.25,-354.03C382.79,-382.73 607.23,-440.49 721.51,-469.9"/>
<polygon fill="black" stroke="black" points="720.66,-473.29 731.22,-472.4 722.41,-466.52 720.66,-473.29"/>
<text text-anchor="middle" x="516.66" y="-442.8" font-family="Times,serif" font-size="14.00">identifier</text>
</g>
<!-- example.org/permanentUrlToThisJsonDoc&#45;&gt;Vehicle -->
<g id="edge9" class="edge">
<title>example.org/permanentUrlToThisJsonDoc&#45;&gt;Vehicle</title>
<path fill="none" stroke="black" d="M346,-349.97C472.71,-361.63 651.97,-378.13 739.57,-386.19"/>
<polygon fill="black" stroke="black" points="739.26,-389.67 749.53,-387.11 739.9,-382.7 739.26,-389.67"/>
<text text-anchor="middle" x="516.66" y="-376.8" font-family="Times,serif" font-size="14.00">type</text>
</g>
<!-- &quot;Angola&quot; -->
<g id="node11" class="node">
<title>&quot;Angola&quot;</title>
<ellipse fill="none" stroke="black" stroke-width="0" cx="792.85" cy="-337" rx="51.19" ry="18"/>
<text text-anchor="middle" x="792.85" y="-333.3" font-family="Times,serif" font-size="14.00">&quot;Angola&quot;</text>
</g>
<!-- example.org/permanentUrlToThisJsonDoc&#45;&gt;&quot;Angola&quot; -->
<g id="edge11" class="edge">
<title>example.org/permanentUrlToThisJsonDoc&#45;&gt;&quot;Angola&quot;</title>
<path fill="none" stroke="black" d="M408.25,-337C521.78,-337 655.29,-337 731.1,-337"/>
<polygon fill="black" stroke="black" points="731.4,-340.5 741.4,-337 731.4,-333.5 731.4,-340.5"/>
<text text-anchor="middle" x="516.66" y="-340.8" font-family="Times,serif" font-size="14.00">countryOfLastProcessing</text>
</g>
<!-- _ -->
<g id="node12" class="node">
<title>_</title>
<ellipse fill="none" stroke="#558855" cx="792.85" cy="-261" rx="27" ry="18"/>
<text text-anchor="middle" x="792.85" y="-257.3" font-family="Times,serif" font-size="14.00">_</text>
</g>
<!-- example.org/permanentUrlToThisJsonDoc&#45;&gt;_ -->
<g id="edge12" class="edge">
<title>example.org/permanentUrlToThisJsonDoc&#45;&gt;_</title>
<path fill="none" stroke="black" d="M244.42,-319.3C287.86,-300.79 360.4,-272.94 426.16,-262 545.4,-242.16 689.56,-251.28 755.61,-257.25"/>
<polygon fill="black" stroke="black" points="755.61,-260.77 765.89,-258.22 756.26,-253.8 755.61,-260.77"/>
<text text-anchor="middle" x="516.66" y="-265.8" font-family="Times,serif" font-size="14.00">countryOfOrigin</text>
</g>
<!-- example.org/permanentUrlToThisJsonDoc&#45;&gt;_ -->
<g id="edge15" class="edge">
<title>example.org/permanentUrlToThisJsonDoc&#45;&gt;_</title>
<path fill="none" stroke="black" d="M319.96,-322.12C454.98,-304.63 671.37,-276.6 756.14,-265.62"/>
<polygon fill="black" stroke="black" points="756.82,-269.07 766.28,-264.31 755.92,-262.12 756.82,-269.07"/>
<text text-anchor="middle" x="516.66" y="-311.8" font-family="Times,serif" font-size="14.00">subjectOf</text>
</g>
<!-- &quot;JOIDES Resolution&quot; -->
<g id="node13" class="node">
<title>&quot;JOIDES Resolution&quot;</title>
<ellipse fill="none" stroke="black" stroke-width="0" cx="792.85" cy="-207" rx="106.68" ry="18"/>
<text text-anchor="middle" x="792.85" y="-203.3" font-family="Times,serif" font-size="14.00">&quot;JOIDES Resolution&quot;</text>
</g>
<!-- example.org/permanentUrlToThisJsonDoc&#45;&gt;&quot;JOIDES Resolution&quot; -->
<g id="edge14" class="edge">
<title>example.org/permanentUrlToThisJsonDoc&#45;&gt;&quot;JOIDES Resolution&quot;</title>
<path fill="none" stroke="black" d="M233.02,-319.04C273.66,-293.97 352.34,-249.39 426.16,-230 508.87,-208.28 605.55,-203.03 678.72,-202.94"/>
<polygon fill="black" stroke="black" points="678.88,-206.44 688.89,-202.96 678.9,-199.44 678.88,-206.44"/>
<text text-anchor="middle" x="516.66" y="-233.8" font-family="Times,serif" font-size="14.00">name</text>
</g>
<!-- Country -->
<g id="node14" class="node">
<title>Country</title>
<ellipse fill="none" stroke="#558855" cx="1263.02" cy="-396" rx="48.19" ry="18"/>
<text text-anchor="middle" x="1263.02" y="-392.3" font-family="Times,serif" font-size="14.00">Country</text>
</g>
<!-- _&#45;&gt;Country -->
<g id="edge16" class="edge">
<title>_&#45;&gt;Country</title>
<path fill="none" stroke="black" d="M819.73,-263.5C854.49,-267.93 916.92,-279.74 960.53,-310 971.49,-317.6 967.46,-326.58 978.53,-334 1030.02,-368.51 1053,-355.67 1113.53,-369 1144.87,-375.9 1180.2,-382.38 1208.54,-387.26"/>
<polygon fill="black" stroke="black" points="1208.2,-390.75 1218.64,-388.98 1209.37,-383.85 1208.2,-390.75"/>
<text text-anchor="middle" x="1037.03" y="-368.8" font-family="Times,serif" font-size="14.00">type</text>
</g>
<!-- &quot;Fiji&quot; -->
<g id="node15" class="node">
<title>&quot;Fiji&quot;</title>
<ellipse fill="none" stroke="black" stroke-width="0" cx="1263.02" cy="-342" rx="34.39" ry="18"/>
<text text-anchor="middle" x="1263.02" y="-338.3" font-family="Times,serif" font-size="14.00">&quot;Fiji&quot;</text>
</g>
<!-- _&#45;&gt;&quot;Fiji&quot; -->
<g id="edge17" class="edge">
<title>_&#45;&gt;&quot;Fiji&quot;</title>
<path fill="none" stroke="black" d="M818.9,-265.97C854.38,-272.95 921.32,-285.94 978.53,-296 1063.88,-311.01 1164,-326.84 1219.5,-335.46"/>
<polygon fill="black" stroke="black" points="1219.24,-338.96 1229.66,-337.03 1220.32,-332.04 1219.24,-338.96"/>
<text text-anchor="middle" x="1037.03" y="-318.8" font-family="Times,serif" font-size="14.00">name</text>
</g>
<!-- DataDownload -->
<g id="node16" class="node">
<title>DataDownload</title>
<ellipse fill="none" stroke="#558855" cx="1263.02" cy="-288" rx="78.79" ry="18"/>
<text text-anchor="middle" x="1263.02" y="-284.3" font-family="Times,serif" font-size="14.00">DataDownload</text>
</g>
<!-- _&#45;&gt;DataDownload -->
<g id="edge18" class="edge">
<title>_&#45;&gt;DataDownload</title>
<path fill="none" stroke="black" d="M820.02,-262.51C887.18,-266.38 1067.92,-276.81 1176.35,-283.06"/>
<polygon fill="black" stroke="black" points="1176.43,-286.57 1186.61,-283.65 1176.83,-279.58 1176.43,-286.57"/>
<text text-anchor="middle" x="1037.03" y="-280.8" font-family="Times,serif" font-size="14.00">type</text>
</g>
<!-- &quot;2019&#45;06&#45;12T144415Z&quot; -->
<g id="node17" class="node">
<title>&quot;2019&#45;06&#45;12T144415Z&quot;</title>
<ellipse fill="none" stroke="black" stroke-width="0" cx="1263.02" cy="-234" rx="119.68" ry="18"/>
<text text-anchor="middle" x="1263.02" y="-230.3" font-family="Times,serif" font-size="14.00">&quot;2019&#45;06&#45;12T144415Z&quot;</text>
</g>
<!-- _&#45;&gt;&quot;2019&#45;06&#45;12T144415Z&quot; -->
<g id="edge19" class="edge">
<title>_&#45;&gt;&quot;2019&#45;06&#45;12T144415Z&quot;</title>
<path fill="none" stroke="black" d="M820.02,-259.49C880.29,-256.01 1032.04,-247.26 1140.91,-240.98"/>
<polygon fill="black" stroke="black" points="1141.19,-244.47 1150.97,-240.4 1140.79,-237.49 1141.19,-244.47"/>
<text text-anchor="middle" x="1037.03" y="-252.8" font-family="Times,serif" font-size="14.00">dateModified</text>
</g>
<!-- &quot;Metadata describing the v...&quot; -->
<g id="node18" class="node">
<title>&quot;Metadata describing the v...&quot;</title>
<ellipse fill="none" stroke="black" stroke-width="0" cx="1263.02" cy="-180" rx="149.47" ry="18"/>
<text text-anchor="middle" x="1263.02" y="-176.3" font-family="Times,serif" font-size="14.00">&quot;Metadata describing the v...&quot;</text>
</g>
<!-- _&#45;&gt;&quot;Metadata describing the v...&quot; -->
<g id="edge20" class="edge">
<title>_&#45;&gt;&quot;Metadata describing the v...&quot;</title>
<path fill="none" stroke="black" d="M819.83,-259.24C853.11,-256.43 912.27,-249.57 960.53,-234 969.05,-231.25 970.02,-227.73 978.53,-225 1027.7,-209.22 1083.5,-198.85 1132.52,-192.08"/>
<polygon fill="black" stroke="black" points="1133.1,-195.53 1142.55,-190.73 1132.17,-188.6 1133.1,-195.53"/>
<text text-anchor="middle" x="1037.03" y="-228.8" font-family="Times,serif" font-size="14.00">description</text>
</g>
<!-- &quot;application/xml&quot; -->
<g id="node19" class="node">
<title>&quot;application/xml&quot;</title>
<ellipse fill="none" stroke="black" stroke-width="0" cx="1263.02" cy="-126" rx="90.98" ry="18"/>
<text text-anchor="middle" x="1263.02" y="-122.3" font-family="Times,serif" font-size="14.00">&quot;application/xml&quot;</text>
</g>
<!-- _&#45;&gt;&quot;application/xml&quot; -->
<g id="edge21" class="edge">
<title>_&#45;&gt;&quot;application/xml&quot;</title>
<path fill="none" stroke="black" d="M819.49,-264.43C855.42,-267.72 920.77,-268.01 960.53,-234 980.08,-217.28 959.24,-196.01 978.53,-179 1024.38,-138.6 1053.47,-164.24 1113.53,-153 1136.75,-148.65 1162.04,-144.02 1185.05,-139.84"/>
<polygon fill="black" stroke="black" points="1185.88,-143.24 1195.1,-138.02 1184.63,-136.36 1185.88,-143.24"/>
<text text-anchor="middle" x="1037.03" y="-182.8" font-family="Times,serif" font-size="14.00">encodingFormat</text>
</g>
<!-- &quot;https//foo.org/ship01&quot; -->
<g id="node20" class="node">
<title>&quot;https//foo.org/ship01&quot;</title>
<ellipse fill="none" stroke="black" stroke-width="0" cx="1263.02" cy="-72" rx="116.18" ry="18"/>
<text text-anchor="middle" x="1263.02" y="-68.3" font-family="Times,serif" font-size="14.00">&quot;https//foo.org/ship01&quot;</text>
</g>
<!-- _&#45;&gt;&quot;https//foo.org/ship01&quot; -->
<g id="edge22" class="edge">
<title>_&#45;&gt;&quot;https//foo.org/ship01&quot;</title>
<path fill="none" stroke="black" d="M819.23,-265.04C855.74,-269.27 922.83,-270.92 960.53,-234 992.18,-203.02 948.59,-168.63 978.53,-136 1018.68,-92.25 1081.82,-75.2 1138.34,-69.55"/>
<polygon fill="black" stroke="black" points="1138.79,-73.02 1148.44,-68.65 1138.17,-66.05 1138.79,-73.02"/>
<text text-anchor="middle" x="1037.03" y="-139.8" font-family="Times,serif" font-size="14.00">encodingFormat</text>
</g>
<!-- &quot;external&#45;metadata.xml&quot; -->
<g id="node21" class="node">
<title>&quot;external&#45;metadata.xml&quot;</title>
<ellipse fill="none" stroke="black" stroke-width="0" cx="1263.02" cy="-18" rx="124.58" ry="18"/>
<text text-anchor="middle" x="1263.02" y="-14.3" font-family="Times,serif" font-size="14.00">&quot;external&#45;metadata.xml&quot;</text>
</g>
<!-- _&#45;&gt;&quot;external&#45;metadata.xml&quot; -->
<g id="edge23" class="edge">
<title>_&#45;&gt;&quot;external&#45;metadata.xml&quot;</title>
<path fill="none" stroke="black" d="M819.32,-265.39C856.26,-270.13 924.23,-272.5 960.53,-234 987.51,-205.4 951.27,-86.33 978.53,-58 1026.12,-8.56 1104.83,-0.81 1167.26,-4.17"/>
<polygon fill="black" stroke="black" points="1167.32,-7.68 1177.52,-4.82 1167.77,-0.69 1167.32,-7.68"/>
<text text-anchor="middle" x="1037.03" y="-61.8" font-family="Times,serif" font-size="14.00">name</text>
</g>
</g>
</svg>