<?xml version="1.0" encoding="UTF-8" standalone="no"?>
<!DOCTYPE svg PUBLIC "-//W3C//DTD SVG 1.1//EN"
 "http://www.w3.org/Graphics/SVG/1.1/DTD/svg11.dtd">
<!-- Generated by graphviz version 2.43.0 (0)
 -->
<!-- Title: %3 Pages: 1 -->
<svg width="1110pt" height="152pt"
 viewBox="0.00 0.00 1109.52 152.00" xmlns="http://www.w3.org/2000/svg" xmlns:xlink="http://www.w3.org/1999/xlink">
<g id="graph0" class="graph" transform="scale(1 1) rotate(0) translate(4 148)">
<title>%3</title>
<polygon fill="white" stroke="transparent" points="-4,4 -4,-148 1105.52,-148 1105.52,4 -4,4"/>
<!-- Course -->
<g id="node1" class="node">
<title>Course</title>
<ellipse fill="none" stroke="#558855" cx="997.53" cy="-126" rx="43.59" ry="18"/>
<text text-anchor="middle" x="997.53" y="-122.3" font-family="Times,serif" font-size="14.00">Course</text>
</g>
<!-- example.org/id/course/x -->
<g id="node2" class="node">
<title>example.org/id/course/x</title>
<ellipse fill="none" stroke="#558855" cx="654.35" cy="-72" rx="122.38" ry="18"/>
<text text-anchor="middle" x="654.35" y="-68.3" font-family="Times,serif" font-size="14.00">example.org/id/course/x</text>
</g>
<!-- example.org/id/course/x&#45;&gt;Course -->
<g id="edge1" class="edge">
<title>example.org/id/course/x&#45;&gt;Course</title>
<path fill="none" stroke="black" d="M738.38,-85.14C803.42,-95.44 891.76,-109.42 946.41,-118.07"/>
<polygon fill="black" stroke="black" points="946.12,-121.56 956.54,-119.67 947.21,-114.65 946.12,-121.56"/>
<text text-anchor="middle" x="835.04" y="-108.8" font-family="Times,serif" font-size="14.00">type</text>
</g>
<!-- &quot;In this course ...&quot; -->
<g id="node3" class="node">
<title>&quot;In this course ...&quot;</title>
<ellipse fill="none" stroke="black" stroke-width="0" cx="997.53" cy="-72" rx="94.78" ry="18"/>
<text text-anchor="middle" x="997.53" y="-68.3" font-family="Times,serif" font-size="14.00">&quot;In this course ...&quot;</text>
</g>
<!-- example.org/id/course/x&#45;&gt;&quot;In this course ...&quot; -->
<g id="edge2" class="edge">
<title>example.org/id/course/x&#45;&gt;&quot;In this course ...&quot;</title>
<path fill="none" stroke="black" d="M776.6,-72C814.42,-72 855.77,-72 892.31,-72"/>
<polygon fill="black" stroke="black" points="892.49,-75.5 902.49,-72 892.49,-68.5 892.49,-75.5"/>
<text text-anchor="middle" x="835.04" y="-75.8" font-family="Times,serif" font-size="14.00">description</text>
</g>
<!-- &quot;URL to the course&quot; -->
<g id="node4" class="node">
<title>&quot;URL to the course&quot;</title>
<ellipse fill="none" stroke="black" stroke-width="0" cx="997.53" cy="-18" rx="103.98" ry="18"/>
<text text-anchor="middle" x="997.53" y="-14.3" font-family="Times,serif" font-size="14.00">&quot;URL to the course&quot;</text>
</g>
<!-- example.org/id/course/x&#45;&gt;&quot;URL to the course&quot; -->
<g id="edge3" class="edge">
<title>example.org/id/course/x&#45;&gt;&quot;URL to the course&quot;</title>
<path fill="none" stroke="black" d="M738.38,-58.86C790.45,-50.62 857.45,-40.01 910.15,-31.67"/>
<polygon fill="black" stroke="black" points="910.82,-35.11 920.15,-30.09 909.73,-28.2 910.82,-35.11"/>
<text text-anchor="middle" x="835.04" y="-52.8" font-family="Times,serif" font-size="14.00">url</text>
</g>
<!-- Person -->
<g id="node5" class="node">
<title>Person</title>
<ellipse fill="none" stroke="#558855" cx="654.35" cy="-18" rx="42.49" ry="18"/>
<text text-anchor="middle" x="654.35" y="-14.3" font-family="Times,serif" font-size="14.00">Person</text>
</g>
<!-- example.org/permanentUrlToThisJsonDoc -->
<g id="node6" class="node">
<title>example.org/permanentUrlToThisJsonDoc</title>
<ellipse fill="none" stroke="black" cx="204.08" cy="-37" rx="204.16" ry="18"/>
<text text-anchor="middle" x="204.08" y="-33.3" font-family="Times,serif" font-size="14.00">example.org/permanentUrlToThisJsonDoc</text>
</g>
<!-- example.org/permanentUrlToThisJsonDoc&#45;&gt;example.org/id/course/x -->
<g id="edge5" class="edge">
<title>example.org/permanentUrlToThisJsonDoc&#45;&gt;example.org/id/course/x</title>
<path fill="none" stroke="black" d="M357.47,-48.9C415.77,-53.45 481.32,-58.57 535.87,-62.83"/>
<polygon fill="black" stroke="black" points="535.68,-66.32 545.92,-63.61 536.23,-59.34 535.68,-66.32"/>
<text text-anchor="middle" x="470.16" y="-63.8" font-family="Times,serif" font-size="14.00">knowsAbout</text>
</g>
<!-- example.org/permanentUrlToThisJsonDoc&#45;&gt;Person -->
<g id="edge4" class="edge">
<title>example.org/permanentUrlToThisJsonDoc&#45;&gt;Person</title>
<path fill="none" stroke="black" d="M385.76,-28.74C399.43,-28.15 413.02,-27.56 426.16,-27 486.48,-24.44 555.81,-21.73 601.86,-19.96"/>
<polygon fill="black" stroke="black" points="602.03,-23.45 611.89,-19.57 601.77,-16.46 602.03,-23.45"/>
<text text-anchor="middle" x="470.16" y="-30.8" font-family="Times,serif" font-size="14.00">type</text>
</g>
</g>
</svg>