<?xml version="1.0" encoding="UTF-8" standalone="no"?>
<!DOCTYPE svg PUBLIC "-//W3C//DTD SVG 1.1//EN"
 "http://www.w3.org/Graphics/SVG/1.1/DTD/svg11.dtd">
<!-- Generated by graphviz version 2.43.0 (0)
 -->
<!-- Title: %3 Pages: 1 -->
<svg width="1070pt" height="487pt"
 viewBox="0.00 0.00 1069.73 487.00" xmlns="http://www.w3.org/2000/svg" xmlns:xlink="http://www.w3.org/1999/xlink">
<g id="graph0" class="graph" transform="scale(1 1) rotate(0) translate(4 483)">
<title>%3</title>
<polygon fill="white" stroke="transparent" points="-4,4 -4,-483 1065.73,-483 1065.73,4 -4,4"/>
<!-- Dataset -->
<g id="node1" class="node">
<title>Dataset</title>
<ellipse fill="none" stroke="#558855" cx="637.96" cy="-327" rx="46.59" ry="18"/>
<text text-anchor="middle" x="637.96" y="-323.3" font-family="Times,serif" font-size="14.00">Dataset</text>
</g>
<!-- example.org/permanentUrlToThisJsonDoc -->
<g id="node2" class="node">
<title>example.org/permanentUrlToThisJsonDoc</title>
<ellipse fill="none" stroke="black" cx="204.08" cy="-270" rx="204.16" ry="18"/>
<text text-anchor="middle" x="204.08" y="-266.3" font-family="Times,serif" font-size="14.00">example.org/permanentUrlToThisJsonDoc</text>
</g>
<!-- example.org/permanentUrlToThisJsonDoc&#45;&gt;Dataset -->
<g id="edge1" class="edge">
<title>example.org/permanentUrlToThisJsonDoc&#45;&gt;Dataset</title>
<path fill="none" stroke="black" d="M318.27,-284.94C403.79,-296.23 517.35,-311.21 583.27,-319.91"/>
<polygon fill="black" stroke="black" points="583.06,-323.42 593.43,-321.25 583.97,-316.48 583.06,-323.42"/>
<text text-anchor="middle" x="499.66" y="-320.8" font-family="Times,serif" font-size="14.00">type</text>
</g>
<!-- _ -->
<g id="node3" class="node">
<title>_</title>
<ellipse fill="none" stroke="#558855" cx="637.96" cy="-251" rx="27" ry="18"/>
<text text-anchor="middle" x="637.96" y="-247.3" font-family="Times,serif" font-size="14.00">_</text>
</g>
<!-- example.org/permanentUrlToThisJsonDoc&#45;&gt;_ -->
<g id="edge2" class="edge">
<title>example.org/permanentUrlToThisJsonDoc&#45;&gt;_</title>
<path fill="none" stroke="black" d="M391.97,-277.05C450.21,-276.95 514.53,-274.48 573.16,-267 583.17,-265.72 593.86,-263.42 603.58,-260.96"/>
<polygon fill="black" stroke="black" points="604.53,-264.33 613.28,-258.36 602.72,-257.56 604.53,-264.33"/>
<text text-anchor="middle" x="499.66" y="-279.8" font-family="Times,serif" font-size="14.00">publishingPrinciples</text>
</g>
<!-- example.org/permanentUrlToThisJsonDoc&#45;&gt;_ -->
<g id="edge3" class="edge">
<title>example.org/permanentUrlToThisJsonDoc&#45;&gt;_</title>
<path fill="none" stroke="black" d="M327.42,-255.64C359.5,-252.47 394.09,-249.59 426.16,-248 491.42,-244.76 507.85,-246.47 573.16,-248 582.09,-248.21 591.71,-248.58 600.7,-249"/>
<polygon fill="black" stroke="black" points="600.74,-252.5 610.9,-249.5 601.08,-245.51 600.74,-252.5"/>
<text text-anchor="middle" x="499.66" y="-251.8" font-family="Times,serif" font-size="14.00">publishingPrinciples</text>
</g>
<!-- example.org/permanentUrlToThisJsonDoc&#45;&gt;_ -->
<g id="edge4" class="edge">
<title>example.org/permanentUrlToThisJsonDoc&#45;&gt;_</title>
<path fill="none" stroke="black" d="M262.8,-252.75C335.56,-233.42 464.29,-207.2 573.16,-227 584.28,-229.02 595.98,-232.87 606.28,-236.91"/>
<polygon fill="black" stroke="black" points="605.08,-240.2 615.66,-240.78 607.75,-233.73 605.08,-240.2"/>
<text text-anchor="middle" x="499.66" y="-230.8" font-family="Times,serif" font-size="14.00">publishingPrinciples</text>
</g>
<!-- CreativeWork -->
<g id="node4" class="node">
<title>CreativeWork</title>
<ellipse fill="none" stroke="#558855" cx="931.74" cy="-422" rx="74.19" ry="18"/>
<text text-anchor="middle" x="931.74" y="-418.3" font-family="Times,serif" font-size="14.00">CreativeWork</text>
</g>
<!-- _&#45;&gt;CreativeWork -->
<g id="edge5" class="edge">
<title>_&#45;&gt;CreativeWork</title>
<path fill="none" stroke="black" d="M656.17,-264.57C666.23,-273.51 678.2,-286.1 684.76,-300 697.95,-327.97 679.52,-417.59 702.76,-438 753.18,-482.27 836.46,-461.07 887.2,-441.58"/>
<polygon fill="black" stroke="black" points="888.58,-444.8 896.58,-437.85 886,-438.29 888.58,-444.8"/>
<text text-anchor="middle" x="743.26" y="-467.8" font-family="Times,serif" font-size="14.00">type</text>
</g>
<!-- _&#45;&gt;CreativeWork -->
<g id="edge9" class="edge">
<title>_&#45;&gt;CreativeWork</title>
<path fill="none" stroke="black" d="M655.93,-264.68C665.9,-273.66 677.87,-286.26 684.76,-300 705,-340.37 669.54,-369.4 702.76,-400 713.53,-409.92 787.38,-415.71 848.16,-418.84"/>
<polygon fill="black" stroke="black" points="848.02,-422.33 858.18,-419.33 848.36,-415.34 848.02,-422.33"/>
<text text-anchor="middle" x="743.26" y="-417.8" font-family="Times,serif" font-size="14.00">type</text>
</g>
<!-- _&#45;&gt;CreativeWork -->
<g id="edge13" class="edge">
<title>_&#45;&gt;CreativeWork</title>
<path fill="none" stroke="black" d="M655.44,-264.95C665.22,-274.03 677.16,-286.64 684.76,-300 698.94,-324.94 681.94,-342.25 702.76,-362 729.58,-387.46 747.94,-371.81 783.76,-381 813.58,-388.65 846.62,-397.81 873.81,-405.52"/>
<polygon fill="black" stroke="black" points="872.97,-408.92 883.55,-408.3 874.89,-402.19 872.97,-408.92"/>
<text text-anchor="middle" x="743.26" y="-384.8" font-family="Times,serif" font-size="14.00">type</text>
</g>
<!-- &quot;This is the EOV spec...&quot; -->
<g id="node5" class="node">
<title>&quot;This is the EOV spec...&quot;</title>
<ellipse fill="none" stroke="black" stroke-width="0" cx="931.74" cy="-330" rx="124.28" ry="18"/>
<text text-anchor="middle" x="931.74" y="-326.3" font-family="Times,serif" font-size="14.00">&quot;This is the EOV spec...&quot;</text>
</g>
<!-- _&#45;&gt;&quot;This is the EOV spec...&quot; -->
<g id="edge6" class="edge">
<title>_&#45;&gt;&quot;This is the EOV spec...&quot;</title>
<path fill="none" stroke="black" d="M653.84,-266.06C663.02,-275.56 674.88,-288.22 684.76,-300 693.32,-310.22 690.91,-317.88 702.76,-324 745.67,-346.17 799.46,-348.57 844.01,-345.01"/>
<polygon fill="black" stroke="black" points="844.61,-348.47 854.25,-344.08 843.97,-341.5 844.61,-348.47"/>
<text text-anchor="middle" x="743.26" y="-347.8" font-family="Times,serif" font-size="14.00">description</text>
</g>
<!-- _&#45;&gt;&quot;This is the EOV spec...&quot; -->
<g id="edge10" class="edge">
<title>_&#45;&gt;&quot;This is the EOV spec...&quot;</title>
<path fill="none" stroke="black" d="M661.84,-259.43C673.92,-263.75 689.05,-268.93 702.76,-273 752.57,-287.79 809.25,-301.97 853.64,-312.49"/>
<polygon fill="black" stroke="black" points="852.95,-315.92 863.49,-314.81 854.56,-309.11 852.95,-315.92"/>
<text text-anchor="middle" x="743.26" y="-298.8" font-family="Times,serif" font-size="14.00">description</text>
</g>
<!-- &quot;Ocean Observations P...&quot; -->
<g id="node6" class="node">
<title>&quot;Ocean Observations P...&quot;</title>
<ellipse fill="none" stroke="black" stroke-width="0" cx="931.74" cy="-259" rx="128.88" ry="18"/>
<text text-anchor="middle" x="931.74" y="-255.3" font-family="Times,serif" font-size="14.00">&quot;Ocean Observations P...&quot;</text>
</g>
<!-- _&#45;&gt;&quot;Ocean Observations P...&quot; -->
<g id="edge7" class="edge">
<title>_&#45;&gt;&quot;Ocean Observations P...&quot;</title>
<path fill="none" stroke="black" d="M665.11,-251.72C694.88,-252.53 745.8,-253.93 795.15,-255.28"/>
<polygon fill="black" stroke="black" points="795.22,-258.79 805.32,-255.56 795.42,-251.79 795.22,-258.79"/>
<text text-anchor="middle" x="743.26" y="-257.8" font-family="Times,serif" font-size="14.00">name</text>
</g>
<!-- _&#45;&gt;&quot;Ocean Observations P...&quot; -->
<g id="edge11" class="edge">
<title>_&#45;&gt;&quot;Ocean Observations P...&quot;</title>
<path fill="none" stroke="black" d="M662.26,-242.76C674.2,-238.97 689.08,-234.89 702.76,-233 754.48,-225.84 813.02,-232.83 857.82,-241.36"/>
<polygon fill="black" stroke="black" points="857.25,-244.81 867.74,-243.31 858.61,-237.94 857.25,-244.81"/>
<text text-anchor="middle" x="743.26" y="-236.8" font-family="Times,serif" font-size="14.00">name</text>
</g>
<!-- &quot;http//www.goosocean....&quot; -->
<g id="node7" class="node">
<title>&quot;http//www.goosocean....&quot;</title>
<ellipse fill="none" stroke="black" stroke-width="0" cx="931.74" cy="-187" rx="129.98" ry="18"/>
<text text-anchor="middle" x="931.74" y="-183.3" font-family="Times,serif" font-size="14.00">&quot;http//www.goosocean....&quot;</text>
</g>
<!-- _&#45;&gt;&quot;http//www.goosocean....&quot; -->
<g id="edge8" class="edge">
<title>_&#45;&gt;&quot;http//www.goosocean....&quot;</title>
<path fill="none" stroke="black" d="M655.99,-237.29C668.25,-228.21 685.58,-216.93 702.76,-211 731.32,-201.14 762.99,-195.02 793.41,-191.28"/>
<polygon fill="black" stroke="black" points="794.14,-194.72 803.68,-190.1 793.34,-187.77 794.14,-194.72"/>
<text text-anchor="middle" x="743.26" y="-214.8" font-family="Times,serif" font-size="14.00">url</text>
</g>
<!-- _&#45;&gt;&quot;http//www.goosocean....&quot; -->
<g id="edge12" class="edge">
<title>_&#45;&gt;&quot;http//www.goosocean....&quot;</title>
<path fill="none" stroke="black" d="M647.22,-234.02C657.36,-215.34 676.52,-186.33 702.76,-174 754.84,-149.51 821.17,-156.98 868.84,-168.03"/>
<polygon fill="black" stroke="black" points="868.17,-171.47 878.72,-170.44 869.83,-164.67 868.17,-171.47"/>
<text text-anchor="middle" x="743.26" y="-177.8" font-family="Times,serif" font-size="14.00">url</text>
</g>
<!-- &quot;QA/QC &#160;&#45; EOV data an...&quot; -->
<g id="node8" class="node">
<title>&quot;QA/QC &#160;&#45; EOV data an...&quot;</title>
<ellipse fill="none" stroke="black" stroke-width="0" cx="931.74" cy="-126" rx="128.88" ry="18"/>
<text text-anchor="middle" x="931.74" y="-122.3" font-family="Times,serif" font-size="14.00">&quot;QA/QC &#160;&#45; EOV data an...&quot;</text>
</g>
<!-- _&#45;&gt;&quot;QA/QC &#160;&#45; EOV data an...&quot; -->
<g id="edge14" class="edge">
<title>_&#45;&gt;&quot;QA/QC &#160;&#45; EOV data an...&quot;</title>
<path fill="none" stroke="black" d="M643.31,-233.29C650.69,-207.49 668.33,-160.34 702.76,-139 742.38,-114.43 793.7,-109.69 837.62,-111.75"/>
<polygon fill="black" stroke="black" points="837.55,-115.25 847.74,-112.35 837.96,-108.26 837.55,-115.25"/>
<text text-anchor="middle" x="743.26" y="-142.8" font-family="Times,serif" font-size="14.00">description</text>
</g>
<!-- &quot;QA/QC guidance&quot; -->
<g id="node9" class="node">
<title>&quot;QA/QC guidance&quot;</title>
<ellipse fill="none" stroke="black" stroke-width="0" cx="931.74" cy="-72" rx="94.78" ry="18"/>
<text text-anchor="middle" x="931.74" y="-68.3" font-family="Times,serif" font-size="14.00">&quot;QA/QC guidance&quot;</text>
</g>
<!-- _&#45;&gt;&quot;QA/QC guidance&quot; -->
<g id="edge15" class="edge">
<title>_&#45;&gt;&quot;QA/QC guidance&quot;</title>
<path fill="none" stroke="black" d="M640.49,-232.93C644.37,-199.56 657.75,-128.62 702.76,-95 743.14,-64.83 799.4,-58.89 845.92,-60.59"/>
<polygon fill="black" stroke="black" points="845.84,-64.09 856,-61.08 846.18,-57.1 845.84,-64.09"/>
<text text-anchor="middle" x="743.26" y="-98.8" font-family="Times,serif" font-size="14.00">name</text>
</g>
<!-- &quot;http//example.org/id...&quot; -->
<g id="node10" class="node">
<title>&quot;http//example.org/id...&quot;</title>
<ellipse fill="none" stroke="black" stroke-width="0" cx="931.74" cy="-18" rx="122.68" ry="18"/>
<text text-anchor="middle" x="931.74" y="-14.3" font-family="Times,serif" font-size="14.00">&quot;http//example.org/id...&quot;</text>
</g>
<!-- _&#45;&gt;&quot;http//example.org/id...&quot; -->
<g id="edge16" class="edge">
<title>_&#45;&gt;&quot;http//example.org/id...&quot;</title>
<path fill="none" stroke="black" d="M638.57,-232.72C638.78,-192.02 645.53,-93.78 702.76,-46 735.56,-18.61 780.85,-9.25 822.43,-7.61"/>
<polygon fill="black" stroke="black" points="822.72,-11.11 832.63,-7.36 822.54,-4.11 822.72,-11.11"/>
<text text-anchor="middle" x="743.26" y="-49.8" font-family="Times,serif" font-size="14.00">url</text>
</g>
</g>
</svg>