<?xml version="1.0" encoding="UTF-8" standalone="no"?>
<!DOCTYPE svg PUBLIC "-//W3C//DTD SVG 1.1//EN"
 "http://www.w3.org/Graphics/SVG/1.1/DTD/svg11.dtd">
<!-- Generated by graphviz version 2.43.0 (0)
 -->
<!-- Title: %3 Pages: 1 -->
<svg width="740pt" height="98pt"
 viewBox="0.00 0.00 740.04 98.00" xmlns="http://www.w3.org/2000/svg" xmlns:xlink="http://www.w3.org/1999/xlink">
<g id="graph0" class="graph" transform="scale(1 1) rotate(0) translate(4 94)">
<title>%3</title>
<polygon fill="white" stroke="transparent" points="-4,4 -4,-94 736.04,-94 736.04,4 -4,4"/>
<!-- CreativeWork -->
<g id="node1" class="node">
<title>CreativeWork</title>
<ellipse fill="none" stroke="#558855" cx="613.1" cy="-72" rx="74.19" ry="18"/>
<text text-anchor="middle" x="613.1" y="-68.3" font-family="Times,serif" font-size="14.00">CreativeWork</text>
</g>
<!-- example.org/permanentUrlToThisJsonDoc -->
<g id="node2" class="node">
<title>example.org/permanentUrlToThisJsonDoc</title>
<ellipse fill="none" stroke="black" cx="204.08" cy="-45" rx="204.16" ry="18"/>
<text text-anchor="middle" x="204.08" y="-41.3" font-family="Times,serif" font-size="14.00">example.org/permanentUrlToThisJsonDoc</text>
</g>
<!-- example.org/permanentUrlToThisJsonDoc&#45;&gt;CreativeWork -->
<g id="edge1" class="edge">
<title>example.org/permanentUrlToThisJsonDoc&#45;&gt;CreativeWork</title>
<path fill="none" stroke="black" d="M367.7,-55.79C423.92,-59.52 484.47,-63.53 531.24,-66.64"/>
<polygon fill="black" stroke="black" points="531.1,-70.13 541.31,-67.3 531.56,-63.15 531.1,-70.13"/>
<text text-anchor="middle" x="451.16" y="-65.8" font-family="Times,serif" font-size="14.00">type</text>
</g>
<!-- &quot;http//spdx.org/licen...&quot; -->
<g id="node3" class="node">
<title>&quot;http//spdx.org/licen...&quot;</title>
<ellipse fill="none" stroke="black" stroke-width="0" cx="613.1" cy="-18" rx="118.88" ry="18"/>
<text text-anchor="middle" x="613.1" y="-14.3" font-family="Times,serif" font-size="14.00">&quot;http//spdx.org/licen...&quot;</text>
</g>
<!-- example.org/permanentUrlToThisJsonDoc&#45;&gt;&quot;http//spdx.org/licen...&quot; -->
<g id="edge2" class="edge">
<title>example.org/permanentUrlToThisJsonDoc&#45;&gt;&quot;http//spdx.org/licen...&quot;</title>
<path fill="none" stroke="black" d="M367.7,-34.21C409.77,-31.42 454.26,-28.47 493.59,-25.86"/>
<polygon fill="black" stroke="black" points="493.99,-29.34 503.74,-25.19 493.53,-22.36 493.99,-29.34"/>
<text text-anchor="middle" x="451.16" y="-32.8" font-family="Times,serif" font-size="14.00">license</text>
</g>
</g>
</svg>