<?xml version="1.0" encoding="UTF-8" standalone="no"?>
<!DOCTYPE svg PUBLIC "-//W3C//DTD SVG 1.1//EN"
 "http://www.w3.org/Graphics/SVG/1.1/DTD/svg11.dtd">
<!-- Generated by graphviz version 2.43.0 (0)
 -->
<!-- Title: %3 Pages: 1 -->
<svg width="1324pt" height="588pt"
 viewBox="0.00 0.00 1324.41 588.00" xmlns="http://www.w3.org/2000/svg" xmlns:xlink="http://www.w3.org/1999/xlink">
<g id="graph0" class="graph" transform="scale(1 1) rotate(0) translate(4 584)">
<title>%3</title>
<polygon fill="white" stroke="transparent" points="-4,4 -4,-584 1320.41,-584 1320.41,4 -4,4"/>
<!-- DefinedTerm -->
<g id="node1" class="node">
<title>DefinedTerm</title>
<ellipse fill="none" stroke="#558855" cx="1164.97" cy="-562" rx="70.39" ry="18"/>
<text text-anchor="middle" x="1164.97" y="-558.3" font-family="Times,serif" font-size="14.00">DefinedTerm</text>
</g>
<!-- purl.org/dc/dcmitype/Image -->
<g id="node2" class="node">
<title>purl.org/dc/dcmitype/Image</title>
<ellipse fill="none" stroke="#558855" cx="686.35" cy="-470" rx="139.98" ry="18"/>
<text text-anchor="middle" x="686.35" y="-466.3" font-family="Times,serif" font-size="14.00">purl.org/dc/dcmitype/Image</text>
</g>
<!-- purl.org/dc/dcmitype/Image&#45;&gt;DefinedTerm -->
<g id="edge1" class="edge">
<title>purl.org/dc/dcmitype/Image&#45;&gt;DefinedTerm</title>
<path fill="none" stroke="black" d="M751.04,-486.08C784.93,-494.37 827.37,-504.31 865.54,-512 943.19,-527.64 1032.89,-542.2 1093.52,-551.53"/>
<polygon fill="black" stroke="black" points="1093.33,-555.04 1103.74,-553.09 1094.38,-548.12 1093.33,-555.04"/>
<text text-anchor="middle" x="930.54" y="-537.8" font-family="Times,serif" font-size="14.00">type</text>
</g>
<!-- &quot;http//purl.org/dc/terms/D...&quot; -->
<g id="node3" class="node">
<title>&quot;http//purl.org/dc/terms/D...&quot;</title>
<ellipse fill="none" stroke="black" stroke-width="0" cx="1164.97" cy="-508" rx="144.87" ry="18"/>
<text text-anchor="middle" x="1164.97" y="-504.3" font-family="Times,serif" font-size="14.00">&quot;http//purl.org/dc/terms/D...&quot;</text>
</g>
<!-- purl.org/dc/dcmitype/Image&#45;&gt;&quot;http//purl.org/dc/terms/D...&quot; -->
<g id="edge2" class="edge">
<title>purl.org/dc/dcmitype/Image&#45;&gt;&quot;http//purl.org/dc/terms/D...&quot;</title>
<path fill="none" stroke="black" d="M805.47,-479.42C874.32,-484.91 961.29,-491.84 1032.32,-497.5"/>
<polygon fill="black" stroke="black" points="1032.44,-501.02 1042.68,-498.33 1032.99,-494.05 1032.44,-501.02"/>
<text text-anchor="middle" x="930.54" y="-496.8" font-family="Times,serif" font-size="14.00">inDefinedTermSet</text>
</g>
<!-- &quot;Image&quot; -->
<g id="node4" class="node">
<title>&quot;Image&quot;</title>
<ellipse fill="none" stroke="black" stroke-width="0" cx="1164.97" cy="-453" rx="48.19" ry="18"/>
<text text-anchor="middle" x="1164.97" y="-449.3" font-family="Times,serif" font-size="14.00">&quot;Image&quot;</text>
</g>
<!-- purl.org/dc/dcmitype/Image&#45;&gt;&quot;Image&quot; -->
<g id="edge3" class="edge">
<title>purl.org/dc/dcmitype/Image&#45;&gt;&quot;Image&quot;</title>
<path fill="none" stroke="black" d="M821.38,-465.22C915.4,-461.87 1036.4,-457.55 1106.56,-455.05"/>
<polygon fill="black" stroke="black" points="1107.09,-458.53 1116.96,-454.68 1106.84,-451.54 1107.09,-458.53"/>
<text text-anchor="middle" x="930.54" y="-466.8" font-family="Times,serif" font-size="14.00">name</text>
</g>
<!-- purl.org/dc/dcmitype/Image&#45;&gt;&quot;Image&quot; -->
<g id="edge4" class="edge">
<title>purl.org/dc/dcmitype/Image&#45;&gt;&quot;Image&quot;</title>
<path fill="none" stroke="black" d="M761.12,-454.74C793.07,-448.87 830.99,-442.89 865.54,-440 923.11,-435.19 937.8,-437.78 995.54,-440 1033.09,-441.45 1075.25,-444.7 1107.99,-447.59"/>
<polygon fill="black" stroke="black" points="1108,-451.11 1118.27,-448.52 1108.63,-444.14 1108,-451.11"/>
<text text-anchor="middle" x="930.54" y="-443.8" font-family="Times,serif" font-size="14.00">termCode</text>
</g>
<!-- PropertyValue -->
<g id="node5" class="node">
<title>PropertyValue</title>
<ellipse fill="none" stroke="#558855" cx="1164.97" cy="-396" rx="77.19" ry="18"/>
<text text-anchor="middle" x="1164.97" y="-392.3" font-family="Times,serif" font-size="14.00">PropertyValue</text>
</g>
<!-- doi.org/10.5066/F7VX0DMQ -->
<g id="node6" class="node">
<title>doi.org/10.5066/F7VX0DMQ</title>
<ellipse fill="none" stroke="#558855" cx="686.35" cy="-342" rx="141.88" ry="18"/>
<text text-anchor="middle" x="686.35" y="-338.3" font-family="Times,serif" font-size="14.00">doi.org/10.5066/F7VX0DMQ</text>
</g>
<!-- doi.org/10.5066/F7VX0DMQ&#45;&gt;PropertyValue -->
<g id="edge5" class="edge">
<title>doi.org/10.5066/F7VX0DMQ&#45;&gt;PropertyValue</title>
<path fill="none" stroke="black" d="M792.54,-353.92C880.87,-363.93 1005.13,-378 1085.11,-387.07"/>
<polygon fill="black" stroke="black" points="1084.8,-390.55 1095.13,-388.2 1085.59,-383.6 1084.8,-390.55"/>
<text text-anchor="middle" x="930.54" y="-378.8" font-family="Times,serif" font-size="14.00">type</text>
</g>
<!-- &quot;https//registry.identifie...&quot; -->
<g id="node7" class="node">
<title>&quot;https//registry.identifie...&quot;</title>
<ellipse fill="none" stroke="black" stroke-width="0" cx="1164.97" cy="-342" rx="135.38" ry="18"/>
<text text-anchor="middle" x="1164.97" y="-338.3" font-family="Times,serif" font-size="14.00">&quot;https//registry.identifie...&quot;</text>
</g>
<!-- doi.org/10.5066/F7VX0DMQ&#45;&gt;&quot;https//registry.identifie...&quot; -->
<g id="edge6" class="edge">
<title>doi.org/10.5066/F7VX0DMQ&#45;&gt;&quot;https//registry.identifie...&quot;</title>
<path fill="none" stroke="black" d="M828.1,-342C888.43,-342 958.85,-342 1019.59,-342"/>
<polygon fill="black" stroke="black" points="1019.63,-345.5 1029.63,-342 1019.63,-338.5 1019.63,-345.5"/>
<text text-anchor="middle" x="930.54" y="-345.8" font-family="Times,serif" font-size="14.00">propertyID</text>
</g>
<!-- &quot;https//doi.org/10.5066/F7...&quot; -->
<g id="node8" class="node">
<title>&quot;https//doi.org/10.5066/F7...&quot;</title>
<ellipse fill="none" stroke="black" stroke-width="0" cx="1164.97" cy="-288" rx="147.57" ry="18"/>
<text text-anchor="middle" x="1164.97" y="-284.3" font-family="Times,serif" font-size="14.00">&quot;https//doi.org/10.5066/F7...&quot;</text>
</g>
<!-- doi.org/10.5066/F7VX0DMQ&#45;&gt;&quot;https//doi.org/10.5066/F7...&quot; -->
<g id="edge7" class="edge">
<title>doi.org/10.5066/F7VX0DMQ&#45;&gt;&quot;https//doi.org/10.5066/F7...&quot;</title>
<path fill="none" stroke="black" d="M792.54,-330.08C867.44,-321.6 968.18,-310.18 1045.85,-301.38"/>
<polygon fill="black" stroke="black" points="1046.62,-304.82 1056.16,-300.21 1045.83,-297.86 1046.62,-304.82"/>
<text text-anchor="middle" x="930.54" y="-324.8" font-family="Times,serif" font-size="14.00">url</text>
</g>
<!-- &quot;doi10.5066/F7VX0DMQ&quot; -->
<g id="node9" class="node">
<title>&quot;doi10.5066/F7VX0DMQ&quot;</title>
<ellipse fill="none" stroke="black" stroke-width="0" cx="1164.97" cy="-234" rx="129.18" ry="18"/>
<text text-anchor="middle" x="1164.97" y="-230.3" font-family="Times,serif" font-size="14.00">&quot;doi10.5066/F7VX0DMQ&quot;</text>
</g>
<!-- doi.org/10.5066/F7VX0DMQ&#45;&gt;&quot;doi10.5066/F7VX0DMQ&quot; -->
<g id="edge8" class="edge">
<title>doi.org/10.5066/F7VX0DMQ&#45;&gt;&quot;doi10.5066/F7VX0DMQ&quot;</title>
<path fill="none" stroke="black" d="M807.64,-332.63C821.74,-328.43 835.4,-322.71 847.54,-315 859.4,-307.46 853.75,-296.66 865.54,-289 921.67,-252.53 947.7,-273.14 1013.54,-261 1033.18,-257.38 1054.28,-253.55 1074.28,-249.96"/>
<polygon fill="black" stroke="black" points="1075.09,-253.37 1084.31,-248.15 1073.85,-246.48 1075.09,-253.37"/>
<text text-anchor="middle" x="930.54" y="-292.8" font-family="Times,serif" font-size="14.00">value</text>
</g>
<!-- Map -->
<g id="node10" class="node">
<title>Map</title>
<ellipse fill="none" stroke="#558855" cx="686.35" cy="-288" rx="31.4" ry="18"/>
<text text-anchor="middle" x="686.35" y="-284.3" font-family="Times,serif" font-size="14.00">Map</text>
</g>
<!-- example.org/permanentUrlToThisJsonDoc -->
<g id="node11" class="node">
<title>example.org/permanentUrlToThisJsonDoc</title>
<ellipse fill="none" stroke="black" cx="204.08" cy="-207" rx="204.16" ry="18"/>
<text text-anchor="middle" x="204.08" y="-203.3" font-family="Times,serif" font-size="14.00">example.org/permanentUrlToThisJsonDoc</text>
</g>
<!-- example.org/permanentUrlToThisJsonDoc&#45;&gt;purl.org/dc/dcmitype/Image -->
<g id="edge13" class="edge">
<title>example.org/permanentUrlToThisJsonDoc&#45;&gt;purl.org/dc/dcmitype/Image</title>
<path fill="none" stroke="black" d="M237.72,-224.87C322.71,-271.42 550.81,-396.32 644.41,-447.58"/>
<polygon fill="black" stroke="black" points="642.85,-450.72 653.3,-452.45 646.21,-444.58 642.85,-450.72"/>
<text text-anchor="middle" x="466.66" y="-372.8" font-family="Times,serif" font-size="14.00">keywords</text>
</g>
<!-- example.org/permanentUrlToThisJsonDoc&#45;&gt;doi.org/10.5066/F7VX0DMQ -->
<g id="edge11" class="edge">
<title>example.org/permanentUrlToThisJsonDoc&#45;&gt;doi.org/10.5066/F7VX0DMQ</title>
<path fill="none" stroke="black" d="M249.73,-224.58C310.98,-248.11 424.91,-289.81 525.16,-315 543.02,-319.49 562.18,-323.44 580.82,-326.84"/>
<polygon fill="black" stroke="black" points="580.35,-330.31 590.81,-328.62 581.58,-323.42 580.35,-330.31"/>
<text text-anchor="middle" x="466.66" y="-311.8" font-family="Times,serif" font-size="14.00">identifier</text>
</g>
<!-- example.org/permanentUrlToThisJsonDoc&#45;&gt;Map -->
<g id="edge9" class="edge">
<title>example.org/permanentUrlToThisJsonDoc&#45;&gt;Map</title>
<path fill="none" stroke="black" d="M299.62,-222.95C363.35,-233.71 449.31,-248.21 525.16,-261 566.44,-267.96 613.71,-275.93 646.14,-281.39"/>
<polygon fill="black" stroke="black" points="645.68,-284.86 656.12,-283.07 646.84,-277.96 645.68,-284.86"/>
<text text-anchor="middle" x="466.66" y="-259.8" font-family="Times,serif" font-size="14.00">type</text>
</g>
<!-- &quot;Description of the map to...&quot; -->
<g id="node12" class="node">
<title>&quot;Description of the map to...&quot;</title>
<ellipse fill="none" stroke="black" stroke-width="0" cx="686.35" cy="-234" rx="146.77" ry="18"/>
<text text-anchor="middle" x="686.35" y="-230.3" font-family="Times,serif" font-size="14.00">&quot;Description of the map to...&quot;</text>
</g>
<!-- example.org/permanentUrlToThisJsonDoc&#45;&gt;&quot;Description of the map to...&quot; -->
<g id="edge10" class="edge">
<title>example.org/permanentUrlToThisJsonDoc&#45;&gt;&quot;Description of the map to...&quot;</title>
<path fill="none" stroke="black" d="M376.77,-216.65C430.92,-219.7 490.14,-223.03 542.09,-225.95"/>
<polygon fill="black" stroke="black" points="542.19,-229.46 552.38,-226.52 542.59,-222.47 542.19,-229.46"/>
<text text-anchor="middle" x="466.66" y="-226.8" font-family="Times,serif" font-size="14.00">description</text>
</g>
<!-- &quot;Region X&quot; -->
<g id="node13" class="node">
<title>&quot;Region X&quot;</title>
<ellipse fill="none" stroke="black" stroke-width="0" cx="686.35" cy="-180" rx="61.19" ry="18"/>
<text text-anchor="middle" x="686.35" y="-176.3" font-family="Times,serif" font-size="14.00">&quot;Region X&quot;</text>
</g>
<!-- example.org/permanentUrlToThisJsonDoc&#45;&gt;&quot;Region X&quot; -->
<g id="edge12" class="edge">
<title>example.org/permanentUrlToThisJsonDoc&#45;&gt;&quot;Region X&quot;</title>
<path fill="none" stroke="black" d="M376.77,-197.35C459.29,-192.71 553.57,-187.41 615.97,-183.9"/>
<polygon fill="black" stroke="black" points="616.3,-187.39 626.09,-183.33 615.91,-180.4 616.3,-187.39"/>
<text text-anchor="middle" x="466.66" y="-197.8" font-family="Times,serif" font-size="14.00">keywords</text>
</g>
<!-- www.wikidata.org/wiki/Q350134 -->
<g id="node14" class="node">
<title>www.wikidata.org/wiki/Q350134</title>
<ellipse fill="none" stroke="#558855" cx="686.35" cy="-126" rx="161.37" ry="18"/>
<text text-anchor="middle" x="686.35" y="-122.3" font-family="Times,serif" font-size="14.00">www.wikidata.org/wiki/Q350134</text>
</g>
<!-- example.org/permanentUrlToThisJsonDoc&#45;&gt;www.wikidata.org/wiki/Q350134 -->
<g id="edge14" class="edge">
<title>example.org/permanentUrlToThisJsonDoc&#45;&gt;www.wikidata.org/wiki/Q350134</title>
<path fill="none" stroke="black" d="M299.62,-191.05C363.35,-180.29 449.31,-165.79 525.16,-153 545,-149.66 566.22,-146.08 586.51,-142.66"/>
<polygon fill="black" stroke="black" points="587.1,-146.11 596.38,-140.99 585.94,-139.2 587.1,-146.11"/>
<text text-anchor="middle" x="466.66" y="-172.8" font-family="Times,serif" font-size="14.00">keywords</text>
</g>
<!-- &quot;Name or title of the docu...&quot; -->
<g id="node15" class="node">
<title>&quot;Name or title of the docu...&quot;</title>
<ellipse fill="none" stroke="black" stroke-width="0" cx="686.35" cy="-72" rx="144.87" ry="18"/>
<text text-anchor="middle" x="686.35" y="-68.3" font-family="Times,serif" font-size="14.00">&quot;Name or title of the docu...&quot;</text>
</g>
<!-- example.org/permanentUrlToThisJsonDoc&#45;&gt;&quot;Name or title of the docu...&quot; -->
<g id="edge15" class="edge">
<title>example.org/permanentUrlToThisJsonDoc&#45;&gt;&quot;Name or title of the docu...&quot;</title>
<path fill="none" stroke="black" d="M249.73,-189.42C310.98,-165.89 424.91,-124.19 525.16,-99 542.78,-94.57 561.68,-90.66 580.09,-87.29"/>
<polygon fill="black" stroke="black" points="580.74,-90.73 589.97,-85.53 579.51,-83.84 580.74,-90.73"/>
<text text-anchor="middle" x="466.66" y="-130.8" font-family="Times,serif" font-size="14.00">name</text>
</g>
<!-- &quot;https//www.sample&#45;data&#45;re...&quot; -->
<g id="node16" class="node">
<title>&quot;https//www.sample&#45;data&#45;re...&quot;</title>
<ellipse fill="none" stroke="black" stroke-width="0" cx="686.35" cy="-18" rx="153.27" ry="18"/>
<text text-anchor="middle" x="686.35" y="-14.3" font-family="Times,serif" font-size="14.00">&quot;https//www.sample&#45;data&#45;re...&quot;</text>
</g>
<!-- example.org/permanentUrlToThisJsonDoc&#45;&gt;&quot;https//www.sample&#45;data&#45;re...&quot; -->
<g id="edge16" class="edge">
<title>example.org/permanentUrlToThisJsonDoc&#45;&gt;&quot;https//www.sample&#45;data&#45;re...&quot;</title>
<path fill="none" stroke="black" d="M231.88,-188.97C285.1,-154.2 409.04,-78.37 525.16,-45 540.76,-40.52 557.45,-36.69 573.94,-33.44"/>
<polygon fill="black" stroke="black" points="575,-36.8 584.17,-31.49 573.69,-29.92 575,-36.8"/>
<text text-anchor="middle" x="466.66" y="-81.8" font-family="Times,serif" font-size="14.00">url</text>
</g>
<!-- URL -->
<g id="node17" class="node">
<title>URL</title>
<ellipse fill="none" stroke="#558855" cx="1164.97" cy="-153" rx="31.4" ry="18"/>
<text text-anchor="middle" x="1164.97" y="-149.3" font-family="Times,serif" font-size="14.00">URL</text>
</g>
<!-- www.wikidata.org/wiki/Q350134&#45;&gt;URL -->
<g id="edge17" class="edge">
<title>www.wikidata.org/wiki/Q350134&#45;&gt;URL</title>
<path fill="none" stroke="black" d="M830.35,-134.1C931.13,-139.81 1059.14,-147.06 1123.35,-150.7"/>
<polygon fill="black" stroke="black" points="1123.28,-154.2 1133.47,-151.27 1123.68,-147.21 1123.28,-154.2"/>
<text text-anchor="middle" x="930.54" y="-145.8" font-family="Times,serif" font-size="14.00">type</text>
</g>
<!-- &quot;https//www.wikidata.org/w...&quot; -->
<g id="node18" class="node">
<title>&quot;https//www.wikidata.org/w...&quot;</title>
<ellipse fill="none" stroke="black" stroke-width="0" cx="1164.97" cy="-99" rx="151.37" ry="18"/>
<text text-anchor="middle" x="1164.97" y="-95.3" font-family="Times,serif" font-size="14.00">&quot;https//www.wikidata.org/w...&quot;</text>
</g>
<!-- www.wikidata.org/wiki/Q350134&#45;&gt;&quot;https//www.wikidata.org/w...&quot; -->
<g id="edge18" class="edge">
<title>www.wikidata.org/wiki/Q350134&#45;&gt;&quot;https//www.wikidata.org/w...&quot;</title>
<path fill="none" stroke="black" d="M830.35,-117.9C889.58,-114.54 958.21,-110.66 1017.77,-107.28"/>
<polygon fill="black" stroke="black" points="1018.23,-110.76 1028.02,-106.7 1017.83,-103.77 1018.23,-110.76"/>
<text text-anchor="middle" x="930.54" y="-118.8" font-family="Times,serif" font-size="14.00">url</text>
</g>
</g>
</svg>