<?xml version="1.0" encoding="UTF-8" standalone="no"?>
<!DOCTYPE svg PUBLIC "-//W3C//DTD SVG 1.1//EN"
 "http://www.w3.org/Graphics/SVG/1.1/DTD/svg11.dtd">
<!-- Generated by graphviz version 2.43.0 (0)
 -->
<!-- Title: %3 Pages: 1 -->
<svg width="1262pt" height="290pt"
 viewBox="0.00 0.00 1261.71 290.00" xmlns="http://www.w3.org/2000/svg" xmlns:xlink="http://www.w3.org/1999/xlink">
<g id="graph0" class="graph" transform="scale(1 1) rotate(0) translate(4 286)">
<title>%3</title>
<polygon fill="white" stroke="transparent" points="-4,4 -4,-286 1257.71,-286 1257.71,4 -4,4"/>
<!-- DefinedTerm -->
<g id="node1" class="node">
<title>DefinedTerm</title>
<ellipse fill="none" stroke="#558855" cx="1127.62" cy="-264" rx="70.39" ry="18"/>
<text text-anchor="middle" x="1127.62" y="-260.3" font-family="Times,serif" font-size="14.00">DefinedTerm</text>
</g>
<!-- purl.org/dc/dcmitype/Image -->
<g id="node2" class="node">
<title>purl.org/dc/dcmitype/Image</title>
<ellipse fill="none" stroke="#558855" cx="674.35" cy="-195" rx="139.98" ry="18"/>
<text text-anchor="middle" x="674.35" y="-191.3" font-family="Times,serif" font-size="14.00">purl.org/dc/dcmitype/Image</text>
</g>
<!-- purl.org/dc/dcmitype/Image&#45;&gt;DefinedTerm -->
<g id="edge1" class="edge">
<title>purl.org/dc/dcmitype/Image&#45;&gt;DefinedTerm</title>
<path fill="none" stroke="black" d="M760.95,-209.22C790.29,-214.01 823.34,-219.33 853.54,-224 922.19,-234.61 1000.67,-246.03 1055.82,-253.94"/>
<polygon fill="black" stroke="black" points="1055.45,-257.43 1065.84,-255.38 1056.44,-250.5 1055.45,-257.43"/>
<text text-anchor="middle" x="918.54" y="-246.8" font-family="Times,serif" font-size="14.00">type</text>
</g>
<!-- &quot;http//purl.org/dc/te...&quot; -->
<g id="node3" class="node">
<title>&quot;http//purl.org/dc/te...&quot;</title>
<ellipse fill="none" stroke="black" stroke-width="0" cx="1127.62" cy="-210" rx="116.98" ry="18"/>
<text text-anchor="middle" x="1127.62" y="-206.3" font-family="Times,serif" font-size="14.00">&quot;http//purl.org/dc/te...&quot;</text>
</g>
<!-- purl.org/dc/dcmitype/Image&#45;&gt;&quot;http//purl.org/dc/te...&quot; -->
<g id="edge2" class="edge">
<title>purl.org/dc/dcmitype/Image&#45;&gt;&quot;http//purl.org/dc/te...&quot;</title>
<path fill="none" stroke="black" d="M809.83,-199.47C870.97,-201.5 942.85,-203.89 1002.68,-205.88"/>
<polygon fill="black" stroke="black" points="1002.82,-209.39 1012.93,-206.22 1003.05,-202.39 1002.82,-209.39"/>
<text text-anchor="middle" x="918.54" y="-208.8" font-family="Times,serif" font-size="14.00">inDefinedTermSet</text>
</g>
<!-- &quot;Image&quot; -->
<g id="node4" class="node">
<title>&quot;Image&quot;</title>
<ellipse fill="none" stroke="black" stroke-width="0" cx="1127.62" cy="-145" rx="48.19" ry="18"/>
<text text-anchor="middle" x="1127.62" y="-141.3" font-family="Times,serif" font-size="14.00">&quot;Image&quot;</text>
</g>
<!-- purl.org/dc/dcmitype/Image&#45;&gt;&quot;Image&quot; -->
<g id="edge3" class="edge">
<title>purl.org/dc/dcmitype/Image&#45;&gt;&quot;Image&quot;</title>
<path fill="none" stroke="black" d="M780.87,-183.31C871.61,-173.25 998.94,-159.15 1071.06,-151.16"/>
<polygon fill="black" stroke="black" points="1071.73,-154.6 1081.28,-150.02 1070.96,-147.65 1071.73,-154.6"/>
<text text-anchor="middle" x="918.54" y="-177.8" font-family="Times,serif" font-size="14.00">name</text>
</g>
<!-- purl.org/dc/dcmitype/Image&#45;&gt;&quot;Image&quot; -->
<g id="edge4" class="edge">
<title>purl.org/dc/dcmitype/Image&#45;&gt;&quot;Image&quot;</title>
<path fill="none" stroke="black" d="M794.81,-185.87C809.2,-181.65 823.16,-175.87 835.54,-168 847.4,-160.46 841.09,-148.52 853.54,-142 904.71,-115.18 925.76,-141.39 983.54,-142 1011.83,-142.3 1043.27,-142.92 1069.45,-143.53"/>
<polygon fill="black" stroke="black" points="1069.5,-147.03 1079.58,-143.77 1069.67,-140.03 1069.5,-147.03"/>
<text text-anchor="middle" x="918.54" y="-145.8" font-family="Times,serif" font-size="14.00">termCode</text>
</g>
<!-- Map -->
<g id="node5" class="node">
<title>Map</title>
<ellipse fill="none" stroke="#558855" cx="674.35" cy="-141" rx="31.4" ry="18"/>
<text text-anchor="middle" x="674.35" y="-137.3" font-family="Times,serif" font-size="14.00">Map</text>
</g>
<!-- example.org/permanentUrlToThisJsonDoc -->
<g id="node6" class="node">
<title>example.org/permanentUrlToThisJsonDoc</title>
<ellipse fill="none" stroke="black" cx="204.08" cy="-114" rx="204.16" ry="18"/>
<text text-anchor="middle" x="204.08" y="-110.3" font-family="Times,serif" font-size="14.00">example.org/permanentUrlToThisJsonDoc</text>
</g>
<!-- example.org/permanentUrlToThisJsonDoc&#45;&gt;purl.org/dc/dcmitype/Image -->
<g id="edge7" class="edge">
<title>example.org/permanentUrlToThisJsonDoc&#45;&gt;purl.org/dc/dcmitype/Image</title>
<path fill="none" stroke="black" d="M296.05,-130.11C357.38,-140.92 440.11,-155.44 513.16,-168 534.16,-171.61 556.71,-175.44 578.07,-179.05"/>
<polygon fill="black" stroke="black" points="577.68,-182.53 588.12,-180.74 578.84,-175.63 577.68,-182.53"/>
<text text-anchor="middle" x="460.66" y="-166.8" font-family="Times,serif" font-size="14.00">keywords</text>
</g>
<!-- example.org/permanentUrlToThisJsonDoc&#45;&gt;Map -->
<g id="edge5" class="edge">
<title>example.org/permanentUrlToThisJsonDoc&#45;&gt;Map</title>
<path fill="none" stroke="black" d="M375.46,-123.82C468.52,-129.19 576.12,-135.39 633.09,-138.68"/>
<polygon fill="black" stroke="black" points="632.94,-142.18 643.13,-139.26 633.35,-135.19 632.94,-142.18"/>
<text text-anchor="middle" x="460.66" y="-133.8" font-family="Times,serif" font-size="14.00">type</text>
</g>
<!-- &quot;Region X&quot; -->
<g id="node7" class="node">
<title>&quot;Region X&quot;</title>
<ellipse fill="none" stroke="black" stroke-width="0" cx="674.35" cy="-87" rx="61.19" ry="18"/>
<text text-anchor="middle" x="674.35" y="-83.3" font-family="Times,serif" font-size="14.00">&quot;Region X&quot;</text>
</g>
<!-- example.org/permanentUrlToThisJsonDoc&#45;&gt;&quot;Region X&quot; -->
<g id="edge6" class="edge">
<title>example.org/permanentUrlToThisJsonDoc&#45;&gt;&quot;Region X&quot;</title>
<path fill="none" stroke="black" d="M375.46,-104.18C454.44,-99.62 543.9,-94.46 603.99,-91"/>
<polygon fill="black" stroke="black" points="604.34,-94.49 614.12,-90.42 603.93,-87.5 604.34,-94.49"/>
<text text-anchor="middle" x="460.66" y="-103.8" font-family="Times,serif" font-size="14.00">keywords</text>
</g>
<!-- www.wikidata.org/wiki/Q350134 -->
<g id="node8" class="node">
<title>www.wikidata.org/wiki/Q350134</title>
<ellipse fill="none" stroke="#558855" cx="674.35" cy="-33" rx="161.37" ry="18"/>
<text text-anchor="middle" x="674.35" y="-29.3" font-family="Times,serif" font-size="14.00">www.wikidata.org/wiki/Q350134</text>
</g>
<!-- example.org/permanentUrlToThisJsonDoc&#45;&gt;www.wikidata.org/wiki/Q350134 -->
<g id="edge8" class="edge">
<title>example.org/permanentUrlToThisJsonDoc&#45;&gt;www.wikidata.org/wiki/Q350134</title>
<path fill="none" stroke="black" d="M296.05,-97.89C357.38,-87.08 440.11,-72.56 513.16,-60 532.78,-56.63 553.76,-53.06 573.85,-49.67"/>
<polygon fill="black" stroke="black" points="574.67,-53.08 583.95,-47.96 573.5,-46.18 574.67,-53.08"/>
<text text-anchor="middle" x="460.66" y="-77.8" font-family="Times,serif" font-size="14.00">keywords</text>
</g>
<!-- URL -->
<g id="node9" class="node">
<title>URL</title>
<ellipse fill="none" stroke="#558855" cx="1127.62" cy="-72" rx="31.4" ry="18"/>
<text text-anchor="middle" x="1127.62" y="-68.3" font-family="Times,serif" font-size="14.00">URL</text>
</g>
<!-- www.wikidata.org/wiki/Q350134&#45;&gt;URL -->
<g id="edge9" class="edge">
<title>www.wikidata.org/wiki/Q350134&#45;&gt;URL</title>
<path fill="none" stroke="black" d="M802.26,-43.97C897.87,-52.23 1022.96,-63.04 1086.22,-68.51"/>
<polygon fill="black" stroke="black" points="1086.3,-72.03 1096.56,-69.4 1086.9,-65.05 1086.3,-72.03"/>
<text text-anchor="middle" x="918.54" y="-62.8" font-family="Times,serif" font-size="14.00">type</text>
</g>
<!-- &quot;https//www.wikidata....&quot; -->
<g id="node10" class="node">
<title>&quot;https//www.wikidata....&quot;</title>
<ellipse fill="none" stroke="black" stroke-width="0" cx="1127.62" cy="-18" rx="126.18" ry="18"/>
<text text-anchor="middle" x="1127.62" y="-14.3" font-family="Times,serif" font-size="14.00">&quot;https//www.wikidata....&quot;</text>
</g>
<!-- www.wikidata.org/wiki/Q350134&#45;&gt;&quot;https//www.wikidata....&quot; -->
<g id="edge10" class="edge">
<title>www.wikidata.org/wiki/Q350134&#45;&gt;&quot;https//www.wikidata....&quot;</title>
<path fill="none" stroke="black" d="M829.08,-27.89C882.71,-26.11 942.41,-24.12 994.17,-22.4"/>
<polygon fill="black" stroke="black" points="994.53,-25.89 1004.41,-22.06 994.3,-18.9 994.53,-25.89"/>
<text text-anchor="middle" x="918.54" y="-29.8" font-family="Times,serif" font-size="14.00">url</text>
</g>
</g>
</svg>