<?xml version="1.0" encoding="UTF-8" standalone="no"?>
<!DOCTYPE svg PUBLIC "-//W3C//DTD SVG 1.1//EN"
 "http://www.w3.org/Graphics/SVG/1.1/DTD/svg11.dtd">
<!-- Generated by graphviz version 2.43.0 (0)
 -->
<!-- Title: %3 Pages: 1 -->
<svg width="1168pt" height="260pt"
 viewBox="0.00 0.00 1168.02 260.00" xmlns="http://www.w3.org/2000/svg" xmlns:xlink="http://www.w3.org/1999/xlink">
<g id="graph0" class="graph" transform="scale(1 1) rotate(0) translate(4 256)">
<title>%3</title>
<polygon fill="white" stroke="transparent" points="-4,4 -4,-256 1164.02,-256 1164.02,4 -4,4"/>
<!-- Course -->
<g id="node1" class="node">
<title>Course</title>
<ellipse fill="none" stroke="#558855" cx="1056.03" cy="-234" rx="43.59" ry="18"/>
<text text-anchor="middle" x="1056.03" y="-230.3" font-family="Times,serif" font-size="14.00">Course</text>
</g>
<!-- example.org/id/course/x -->
<g id="node2" class="node">
<title>example.org/id/course/x</title>
<ellipse fill="none" stroke="#558855" cx="683.6" cy="-180" rx="122.38" ry="18"/>
<text text-anchor="middle" x="683.6" y="-176.3" font-family="Times,serif" font-size="14.00">example.org/id/course/x</text>
</g>
<!-- example.org/id/course/x&#45;&gt;Course -->
<g id="edge1" class="edge">
<title>example.org/id/course/x&#45;&gt;Course</title>
<path fill="none" stroke="black" d="M770.98,-192.59C843.53,-203.17 944.7,-217.92 1004.67,-226.66"/>
<polygon fill="black" stroke="black" points="1004.25,-230.14 1014.65,-228.11 1005.26,-223.21 1004.25,-230.14"/>
<text text-anchor="middle" x="893.54" y="-217.8" font-family="Times,serif" font-size="14.00">type</text>
</g>
<!-- &quot;In this course ...&quot; -->
<g id="node3" class="node">
<title>&quot;In this course ...&quot;</title>
<ellipse fill="none" stroke="black" stroke-width="0" cx="1056.03" cy="-180" rx="94.78" ry="18"/>
<text text-anchor="middle" x="1056.03" y="-176.3" font-family="Times,serif" font-size="14.00">&quot;In this course ...&quot;</text>
</g>
<!-- example.org/id/course/x&#45;&gt;&quot;In this course ...&quot; -->
<g id="edge2" class="edge">
<title>example.org/id/course/x&#45;&gt;&quot;In this course ...&quot;</title>
<path fill="none" stroke="black" d="M805.89,-180C852.78,-180 905.89,-180 950.99,-180"/>
<polygon fill="black" stroke="black" points="951.08,-183.5 961.08,-180 951.08,-176.5 951.08,-183.5"/>
<text text-anchor="middle" x="893.54" y="-183.8" font-family="Times,serif" font-size="14.00">description</text>
</g>
<!-- &quot;URL to the course&quot; -->
<g id="node4" class="node">
<title>&quot;URL to the course&quot;</title>
<ellipse fill="none" stroke="black" stroke-width="0" cx="1056.03" cy="-126" rx="103.98" ry="18"/>
<text text-anchor="middle" x="1056.03" y="-122.3" font-family="Times,serif" font-size="14.00">&quot;URL to the course&quot;</text>
</g>
<!-- example.org/id/course/x&#45;&gt;&quot;URL to the course&quot; -->
<g id="edge3" class="edge">
<title>example.org/id/course/x&#45;&gt;&quot;URL to the course&quot;</title>
<path fill="none" stroke="black" d="M770.98,-167.41C829.49,-158.88 906.6,-147.64 965.72,-139.02"/>
<polygon fill="black" stroke="black" points="966.4,-142.46 975.79,-137.55 965.39,-135.53 966.4,-142.46"/>
<text text-anchor="middle" x="893.54" y="-157.8" font-family="Times,serif" font-size="14.00">url</text>
</g>
<!-- Person -->
<g id="node5" class="node">
<title>Person</title>
<ellipse fill="none" stroke="#558855" cx="683.6" cy="-126" rx="42.49" ry="18"/>
<text text-anchor="middle" x="683.6" y="-122.3" font-family="Times,serif" font-size="14.00">Person</text>
</g>
<!-- example.org/permanentUrlToThisJsonDoc -->
<g id="node6" class="node">
<title>example.org/permanentUrlToThisJsonDoc</title>
<ellipse fill="none" stroke="black" cx="204.08" cy="-99" rx="204.16" ry="18"/>
<text text-anchor="middle" x="204.08" y="-95.3" font-family="Times,serif" font-size="14.00">example.org/permanentUrlToThisJsonDoc</text>
</g>
<!-- example.org/permanentUrlToThisJsonDoc&#45;&gt;example.org/id/course/x -->
<g id="edge7" class="edge">
<title>example.org/permanentUrlToThisJsonDoc&#45;&gt;example.org/id/course/x</title>
<path fill="none" stroke="black" d="M299.14,-114.95C384.26,-129.39 508.77,-150.51 592.6,-164.73"/>
<polygon fill="black" stroke="black" points="592.17,-168.21 602.62,-166.43 593.34,-161.31 592.17,-168.21"/>
<text text-anchor="middle" x="470.16" y="-152.8" font-family="Times,serif" font-size="14.00">knowsAbout</text>
</g>
<!-- example.org/permanentUrlToThisJsonDoc&#45;&gt;Person -->
<g id="edge4" class="edge">
<title>example.org/permanentUrlToThisJsonDoc&#45;&gt;Person</title>
<path fill="none" stroke="black" d="M376.47,-108.69C466.74,-113.79 571.01,-119.69 631.61,-123.12"/>
<polygon fill="black" stroke="black" points="631.49,-126.62 641.67,-123.69 631.89,-119.63 631.49,-126.62"/>
<text text-anchor="middle" x="470.16" y="-118.8" font-family="Times,serif" font-size="14.00">type</text>
</g>
<!-- &quot;Invasive species in brack...&quot; -->
<g id="node7" class="node">
<title>&quot;Invasive species in brack...&quot;</title>
<ellipse fill="none" stroke="black" stroke-width="0" cx="683.6" cy="-72" rx="144.07" ry="18"/>
<text text-anchor="middle" x="683.6" y="-68.3" font-family="Times,serif" font-size="14.00">&quot;Invasive species in brack...&quot;</text>
</g>
<!-- example.org/permanentUrlToThisJsonDoc&#45;&gt;&quot;Invasive species in brack...&quot; -->
<g id="edge5" class="edge">
<title>example.org/permanentUrlToThisJsonDoc&#45;&gt;&quot;Invasive species in brack...&quot;</title>
<path fill="none" stroke="black" d="M376.47,-89.31C430.63,-86.25 489.84,-82.9 541.63,-79.97"/>
<polygon fill="black" stroke="black" points="542.1,-83.45 551.88,-79.39 541.7,-76.46 542.1,-83.45"/>
<text text-anchor="middle" x="470.16" y="-90.8" font-family="Times,serif" font-size="14.00">knowsAbout</text>
</g>
<!-- &quot;https//www.wikidata.org/w...&quot; -->
<g id="node8" class="node">
<title>&quot;https//www.wikidata.org/w...&quot;</title>
<ellipse fill="none" stroke="black" stroke-width="0" cx="683.6" cy="-18" rx="151.37" ry="18"/>
<text text-anchor="middle" x="683.6" y="-14.3" font-family="Times,serif" font-size="14.00">&quot;https//www.wikidata.org/w...&quot;</text>
</g>
<!-- example.org/permanentUrlToThisJsonDoc&#45;&gt;&quot;https//www.wikidata.org/w...&quot; -->
<g id="edge6" class="edge">
<title>example.org/permanentUrlToThisJsonDoc&#45;&gt;&quot;https//www.wikidata.org/w...&quot;</title>
<path fill="none" stroke="black" d="M299.14,-83.05C382.04,-68.98 502.3,-48.58 585.96,-34.39"/>
<polygon fill="black" stroke="black" points="586.71,-37.82 595.98,-32.69 585.53,-30.92 586.71,-37.82"/>
<text text-anchor="middle" x="470.16" y="-64.8" font-family="Times,serif" font-size="14.00">knowsAbout</text>
</g>
</g>
</svg>