<?xml version="1.0" encoding="UTF-8" standalone="no"?>
<!DOCTYPE svg PUBLIC "-//W3C//DTD SVG 1.1//EN"
 "http://www.w3.org/Graphics/SVG/1.1/DTD/svg11.dtd">
<!-- Generated by graphviz version 2.43.0 (0)
 -->
<!-- Title: %3 Pages: 1 -->
<svg width="1066pt" height="702pt"
 viewBox="0.00 0.00 1066.33 702.00" xmlns="http://www.w3.org/2000/svg" xmlns:xlink="http://www.w3.org/1999/xlink">
<g id="graph0" class="graph" transform="scale(1 1) rotate(0) translate(4 698)">
<title>%3</title>
<polygon fill="white" stroke="transparent" points="-4,4 -4,-698 1062.33,-698 1062.33,4 -4,4"/>
<!-- CreativeWork -->
<g id="node1" class="node">
<title>CreativeWork</title>
<ellipse fill="none" stroke="#558855" cx="924.44" cy="-666" rx="74.19" ry="18"/>
<text text-anchor="middle" x="924.44" y="-662.3" font-family="Times,serif" font-size="14.00">CreativeWork</text>
</g>
<!-- purl.unep.org/sdg/SDGIO_00020173 -->
<g id="node2" class="node">
<title>purl.unep.org/sdg/SDGIO_00020173</title>
<ellipse fill="none" stroke="#558855" cx="494.17" cy="-558" rx="179.27" ry="18"/>
<text text-anchor="middle" x="494.17" y="-554.3" font-family="Times,serif" font-size="14.00">purl.unep.org/sdg/SDGIO_00020173</text>
</g>
<!-- purl.unep.org/sdg/SDGIO_00020173&#45;&gt;CreativeWork -->
<g id="edge1" class="edge">
<title>purl.unep.org/sdg/SDGIO_00020173&#45;&gt;CreativeWork</title>
<path fill="none" stroke="black" d="M552.88,-575.06C612.21,-592.31 707.4,-619.18 790.55,-639 811.51,-644 834.47,-648.87 855.32,-653.07"/>
<polygon fill="black" stroke="black" points="854.87,-656.55 865.36,-655.08 856.24,-649.69 854.87,-656.55"/>
<text text-anchor="middle" x="732.05" y="-636.8" font-family="Times,serif" font-size="14.00">type</text>
</g>
<!-- &quot;Number of countries ...&quot; -->
<g id="node3" class="node">
<title>&quot;Number of countries ...&quot;</title>
<ellipse fill="none" stroke="black" stroke-width="0" cx="924.44" cy="-504" rx="127.28" ry="18"/>
<text text-anchor="middle" x="924.44" y="-500.3" font-family="Times,serif" font-size="14.00">&quot;Number of countries ...&quot;</text>
</g>
<!-- purl.unep.org/sdg/SDGIO_00020173&#45;&gt;&quot;Number of countries ...&quot; -->
<g id="edge2" class="edge">
<title>purl.unep.org/sdg/SDGIO_00020173&#45;&gt;&quot;Number of countries ...&quot;</title>
<path fill="none" stroke="black" d="M606.57,-543.95C672.09,-535.69 754.42,-525.31 818.74,-517.2"/>
<polygon fill="black" stroke="black" points="819.42,-520.64 828.91,-515.92 818.55,-513.7 819.42,-520.64"/>
<text text-anchor="middle" x="732.05" y="-535.8" font-family="Times,serif" font-size="14.00">description</text>
</g>
<!-- &quot;UNSD SDG indicator c...&quot; -->
<g id="node4" class="node">
<title>&quot;UNSD SDG indicator c...&quot;</title>
<ellipse fill="none" stroke="black" stroke-width="0" cx="924.44" cy="-612" rx="133.78" ry="18"/>
<text text-anchor="middle" x="924.44" y="-608.3" font-family="Times,serif" font-size="14.00">&quot;UNSD SDG indicator c...&quot;</text>
</g>
<!-- purl.unep.org/sdg/SDGIO_00020173&#45;&gt;&quot;UNSD SDG indicator c...&quot; -->
<g id="edge3" class="edge">
<title>purl.unep.org/sdg/SDGIO_00020173&#45;&gt;&quot;UNSD SDG indicator c...&quot;</title>
<path fill="none" stroke="black" d="M606.57,-572.05C671.15,-580.19 752.06,-590.39 815.96,-598.45"/>
<polygon fill="black" stroke="black" points="815.71,-601.94 826.07,-599.72 816.58,-595 815.71,-601.94"/>
<text text-anchor="middle" x="732.05" y="-594.8" font-family="Times,serif" font-size="14.00">name</text>
</g>
<!-- &quot;http//www.ontobee.or...&quot; -->
<g id="node5" class="node">
<title>&quot;http//www.ontobee.or...&quot;</title>
<ellipse fill="none" stroke="black" stroke-width="0" cx="924.44" cy="-558" rx="128.08" ry="18"/>
<text text-anchor="middle" x="924.44" y="-554.3" font-family="Times,serif" font-size="14.00">&quot;http//www.ontobee.or...&quot;</text>
</g>
<!-- purl.unep.org/sdg/SDGIO_00020173&#45;&gt;&quot;http//www.ontobee.or...&quot; -->
<g id="edge4" class="edge">
<title>purl.unep.org/sdg/SDGIO_00020173&#45;&gt;&quot;http//www.ontobee.or...&quot;</title>
<path fill="none" stroke="black" d="M673.69,-558C711.35,-558 750.52,-558 786.36,-558"/>
<polygon fill="black" stroke="black" points="786.38,-561.5 796.38,-558 786.38,-554.5 786.38,-561.5"/>
<text text-anchor="middle" x="732.05" y="-561.8" font-family="Times,serif" font-size="14.00">url</text>
</g>
<!-- PropertyValue -->
<g id="node6" class="node">
<title>PropertyValue</title>
<ellipse fill="none" stroke="#558855" cx="924.44" cy="-396" rx="77.19" ry="18"/>
<text text-anchor="middle" x="924.44" y="-392.3" font-family="Times,serif" font-size="14.00">PropertyValue</text>
</g>
<!-- doi.org/10.5066/F7VX0DMQ -->
<g id="node7" class="node">
<title>doi.org/10.5066/F7VX0DMQ</title>
<ellipse fill="none" stroke="#558855" cx="494.17" cy="-358" rx="141.88" ry="18"/>
<text text-anchor="middle" x="494.17" y="-354.3" font-family="Times,serif" font-size="14.00">doi.org/10.5066/F7VX0DMQ</text>
</g>
<!-- doi.org/10.5066/F7VX0DMQ&#45;&gt;PropertyValue -->
<g id="edge5" class="edge">
<title>doi.org/10.5066/F7VX0DMQ&#45;&gt;PropertyValue</title>
<path fill="none" stroke="black" d="M610.78,-368.26C683.8,-374.74 776.36,-382.95 841.76,-388.75"/>
<polygon fill="black" stroke="black" points="841.75,-392.27 852.02,-389.66 842.37,-385.29 841.75,-392.27"/>
<text text-anchor="middle" x="732.05" y="-384.8" font-family="Times,serif" font-size="14.00">type</text>
</g>
<!-- &quot;https//registry.iden...&quot; -->
<g id="node8" class="node">
<title>&quot;https//registry.iden...&quot;</title>
<ellipse fill="none" stroke="black" stroke-width="0" cx="924.44" cy="-342" rx="116.98" ry="18"/>
<text text-anchor="middle" x="924.44" y="-338.3" font-family="Times,serif" font-size="14.00">&quot;https//registry.iden...&quot;</text>
</g>
<!-- doi.org/10.5066/F7VX0DMQ&#45;&gt;&quot;https//registry.iden...&quot; -->
<g id="edge6" class="edge">
<title>doi.org/10.5066/F7VX0DMQ&#45;&gt;&quot;https//registry.iden...&quot;</title>
<path fill="none" stroke="black" d="M630.38,-352.95C684.84,-350.91 747.22,-348.58 800.39,-346.6"/>
<polygon fill="black" stroke="black" points="800.69,-350.09 810.55,-346.22 800.43,-343.09 800.69,-350.09"/>
<text text-anchor="middle" x="732.05" y="-353.8" font-family="Times,serif" font-size="14.00">propertyID</text>
</g>
<!-- &quot;https//doi.org/10.50...&quot; -->
<g id="node9" class="node">
<title>&quot;https//doi.org/10.50...&quot;</title>
<ellipse fill="none" stroke="black" stroke-width="0" cx="924.44" cy="-288" rx="120.48" ry="18"/>
<text text-anchor="middle" x="924.44" y="-284.3" font-family="Times,serif" font-size="14.00">&quot;https//doi.org/10.50...&quot;</text>
</g>
<!-- doi.org/10.5066/F7VX0DMQ&#45;&gt;&quot;https//doi.org/10.50...&quot; -->
<g id="edge7" class="edge">
<title>doi.org/10.5066/F7VX0DMQ&#45;&gt;&quot;https//doi.org/10.50...&quot;</title>
<path fill="none" stroke="black" d="M581.83,-343.83C654.55,-331.95 758.1,-315.02 832.1,-302.93"/>
<polygon fill="black" stroke="black" points="833.03,-306.32 842.34,-301.26 831.9,-299.41 833.03,-306.32"/>
<text text-anchor="middle" x="732.05" y="-328.8" font-family="Times,serif" font-size="14.00">url</text>
</g>
<!-- &quot;doi10.5066/F7VX0DMQ&quot; -->
<g id="node10" class="node">
<title>&quot;doi10.5066/F7VX0DMQ&quot;</title>
<ellipse fill="none" stroke="black" stroke-width="0" cx="924.44" cy="-450" rx="129.18" ry="18"/>
<text text-anchor="middle" x="924.44" y="-446.3" font-family="Times,serif" font-size="14.00">&quot;doi10.5066/F7VX0DMQ&quot;</text>
</g>
<!-- doi.org/10.5066/F7VX0DMQ&#45;&gt;&quot;doi10.5066/F7VX0DMQ&quot; -->
<g id="edge8" class="edge">
<title>doi.org/10.5066/F7VX0DMQ&#45;&gt;&quot;doi10.5066/F7VX0DMQ&quot;</title>
<path fill="none" stroke="black" d="M564.63,-373.62C624.44,-386.99 713.11,-406.61 790.55,-423 806.38,-426.35 823.29,-429.85 839.56,-433.17"/>
<polygon fill="black" stroke="black" points="839.09,-436.65 849.59,-435.22 840.49,-429.79 839.09,-436.65"/>
<text text-anchor="middle" x="732.05" y="-420.8" font-family="Times,serif" font-size="14.00">value</text>
</g>
<!-- example.org/id/XYZ -->
<g id="node11" class="node">
<title>example.org/id/XYZ</title>
<ellipse fill="none" stroke="black" cx="101.39" cy="-287" rx="101.28" ry="18"/>
<text text-anchor="middle" x="101.39" y="-283.3" font-family="Times,serif" font-size="14.00">example.org/id/XYZ</text>
</g>
<!-- example.org/id/XYZ&#45;&gt;CreativeWork -->
<g id="edge9" class="edge">
<title>example.org/id/XYZ&#45;&gt;CreativeWork</title>
<path fill="none" stroke="black" d="M109.42,-305.12C131,-358.11 201.74,-513.53 314.78,-585 481.74,-690.55 725.87,-685.74 848,-675.03"/>
<polygon fill="black" stroke="black" points="848.36,-678.51 858,-674.12 847.73,-671.54 848.36,-678.51"/>
<text text-anchor="middle" x="494.17" y="-682.8" font-family="Times,serif" font-size="14.00">type</text>
</g>
<!-- example.org/id/XYZ&#45;&gt;purl.unep.org/sdg/SDGIO_00020173 -->
<g id="edge15" class="edge">
<title>example.org/id/XYZ&#45;&gt;purl.unep.org/sdg/SDGIO_00020173</title>
<path fill="none" stroke="black" d="M127.73,-304.57C195.64,-351.67 381.78,-480.76 458.95,-534.27"/>
<polygon fill="black" stroke="black" points="457.16,-537.29 467.38,-540.11 461.15,-531.54 457.16,-537.29"/>
<text text-anchor="middle" x="258.78" y="-417.8" font-family="Times,serif" font-size="14.00">subjectOf</text>
</g>
<!-- example.org/id/XYZ&#45;&gt;doi.org/10.5066/F7VX0DMQ -->
<g id="edge10" class="edge">
<title>example.org/id/XYZ&#45;&gt;doi.org/10.5066/F7VX0DMQ</title>
<path fill="none" stroke="black" d="M173.16,-299.86C237.31,-311.51 332.21,-328.76 402.02,-341.44"/>
<polygon fill="black" stroke="black" points="401.66,-344.93 412.13,-343.28 402.91,-338.04 401.66,-344.93"/>
<text text-anchor="middle" x="258.78" y="-323.8" font-family="Times,serif" font-size="14.00">identifier</text>
</g>
<!-- example.org/id/XYZ&#45;&gt;&quot;https//doi.org/10.50...&quot; -->
<g id="edge14" class="edge">
<title>example.org/id/XYZ&#45;&gt;&quot;https//doi.org/10.50...&quot;</title>
<path fill="none" stroke="black" d="M203.07,-287.12C351.75,-287.3 630.09,-287.64 793.84,-287.84"/>
<polygon fill="black" stroke="black" points="793.96,-291.34 803.97,-287.85 793.97,-284.34 793.96,-291.34"/>
<text text-anchor="middle" x="494.17" y="-290.8" font-family="Times,serif" font-size="14.00">sameAs</text>
</g>
<!-- &quot;https//example.org/i...&quot; -->
<g id="node12" class="node">
<title>&quot;https//example.org/i...&quot;</title>
<ellipse fill="none" stroke="black" stroke-width="0" cx="494.17" cy="-233" rx="122.38" ry="18"/>
<text text-anchor="middle" x="494.17" y="-229.3" font-family="Times,serif" font-size="14.00">&quot;https//example.org/i...&quot;</text>
</g>
<!-- example.org/id/XYZ&#45;&gt;&quot;https//example.org/i...&quot; -->
<g id="edge11" class="edge">
<title>example.org/id/XYZ&#45;&gt;&quot;https//example.org/i...&quot;</title>
<path fill="none" stroke="black" d="M156.86,-271.86C176.83,-266.79 199.7,-261.53 220.78,-258 269.33,-249.87 323.21,-244.23 370.15,-240.39"/>
<polygon fill="black" stroke="black" points="370.68,-243.86 380.37,-239.57 370.12,-236.88 370.68,-243.86"/>
<text text-anchor="middle" x="258.78" y="-261.8" font-family="Times,serif" font-size="14.00">isBasedOn</text>
</g>
<!-- www.sample&#45;data&#45;repository.org -->
<g id="node13" class="node">
<title>www.sample&#45;data&#45;repository.org</title>
<ellipse fill="none" stroke="#558855" cx="494.17" cy="-168" rx="160.57" ry="18"/>
<text text-anchor="middle" x="494.17" y="-164.3" font-family="Times,serif" font-size="14.00">www.sample&#45;data&#45;repository.org</text>
</g>
<!-- example.org/id/XYZ&#45;&gt;www.sample&#45;data&#45;repository.org -->
<g id="edge12" class="edge">
<title>example.org/id/XYZ&#45;&gt;www.sample&#45;data&#45;repository.org</title>
<path fill="none" stroke="black" d="M132.2,-269.71C155.64,-256.72 189.46,-239.3 220.78,-228 274.91,-208.48 337.47,-194.15 388.98,-184.41"/>
<polygon fill="black" stroke="black" points="389.94,-187.79 399.13,-182.52 388.66,-180.91 389.94,-187.79"/>
<text text-anchor="middle" x="258.78" y="-231.8" font-family="Times,serif" font-size="14.00">provider</text>
</g>
<!-- example.org/id/XYZ&#45;&gt;www.sample&#45;data&#45;repository.org -->
<g id="edge13" class="edge">
<title>example.org/id/XYZ&#45;&gt;www.sample&#45;data&#45;repository.org</title>
<path fill="none" stroke="black" d="M116.94,-268.82C137.29,-244.93 176.73,-203.91 220.78,-186 256.95,-171.29 298.05,-164.19 337.16,-161.32"/>
<polygon fill="black" stroke="black" points="337.84,-164.78 347.6,-160.65 337.39,-157.8 337.84,-164.78"/>
<text text-anchor="middle" x="258.78" y="-189.8" font-family="Times,serif" font-size="14.00">publisher</text>
</g>
<!-- Organization -->
<g id="node14" class="node">
<title>Organization</title>
<ellipse fill="none" stroke="#558855" cx="924.44" cy="-234" rx="70.69" ry="18"/>
<text text-anchor="middle" x="924.44" y="-230.3" font-family="Times,serif" font-size="14.00">Organization</text>
</g>
<!-- www.sample&#45;data&#45;repository.org&#45;&gt;Organization -->
<g id="edge16" class="edge">
<title>www.sample&#45;data&#45;repository.org&#45;&gt;Organization</title>
<path fill="none" stroke="black" d="M589.42,-182.52C668.99,-194.79 781.16,-212.07 853.09,-223.16"/>
<polygon fill="black" stroke="black" points="852.98,-226.68 863.4,-224.75 854.05,-219.77 852.98,-226.68"/>
<text text-anchor="middle" x="732.05" y="-211.8" font-family="Times,serif" font-size="14.00">type</text>
</g>
<!-- &quot;Sample Data Reposito...&quot; -->
<g id="node15" class="node">
<title>&quot;Sample Data Reposito...&quot;</title>
<ellipse fill="none" stroke="black" stroke-width="0" cx="924.44" cy="-180" rx="131.08" ry="18"/>
<text text-anchor="middle" x="924.44" y="-176.3" font-family="Times,serif" font-size="14.00">&quot;Sample Data Reposito...&quot;</text>
</g>
<!-- www.sample&#45;data&#45;repository.org&#45;&gt;&quot;Sample Data Reposito...&quot; -->
<g id="edge17" class="edge">
<title>www.sample&#45;data&#45;repository.org&#45;&gt;&quot;Sample Data Reposito...&quot;</title>
<path fill="none" stroke="black" d="M650.08,-172.34C694.41,-173.58 742.41,-174.93 785.64,-176.14"/>
<polygon fill="black" stroke="black" points="785.55,-179.64 795.65,-176.42 785.75,-172.64 785.55,-179.64"/>
<text text-anchor="middle" x="732.05" y="-178.8" font-family="Times,serif" font-size="14.00">legalName</text>
</g>
<!-- &quot;SDRO&quot; -->
<g id="node16" class="node">
<title>&quot;SDRO&quot;</title>
<ellipse fill="none" stroke="black" stroke-width="0" cx="924.44" cy="-126" rx="47.39" ry="18"/>
<text text-anchor="middle" x="924.44" y="-122.3" font-family="Times,serif" font-size="14.00">&quot;SDRO&quot;</text>
</g>
<!-- www.sample&#45;data&#45;repository.org&#45;&gt;&quot;SDRO&quot; -->
<g id="edge18" class="edge">
<title>www.sample&#45;data&#45;repository.org&#45;&gt;&quot;SDRO&quot;</title>
<path fill="none" stroke="black" d="M615.6,-156.19C698.45,-148.06 804.6,-137.65 868.14,-131.42"/>
<polygon fill="black" stroke="black" points="868.73,-134.88 878.34,-130.42 868.05,-127.92 868.73,-134.88"/>
<text text-anchor="middle" x="732.05" y="-152.8" font-family="Times,serif" font-size="14.00">name</text>
</g>
<!-- &quot;http//www.re3data.or...&quot; -->
<g id="node17" class="node">
<title>&quot;http//www.re3data.or...&quot;</title>
<ellipse fill="none" stroke="black" stroke-width="0" cx="924.44" cy="-72" rx="126.98" ry="18"/>
<text text-anchor="middle" x="924.44" y="-68.3" font-family="Times,serif" font-size="14.00">&quot;http//www.re3data.or...&quot;</text>
</g>
<!-- www.sample&#45;data&#45;repository.org&#45;&gt;&quot;http//www.re3data.or...&quot; -->
<g id="edge19" class="edge">
<title>www.sample&#45;data&#45;repository.org&#45;&gt;&quot;http//www.re3data.or...&quot;</title>
<path fill="none" stroke="black" d="M562.5,-151.68C622.29,-137.34 712.09,-116.13 790.55,-99 806.36,-95.55 823.26,-92 839.52,-88.66"/>
<polygon fill="black" stroke="black" points="840.46,-92.05 849.55,-86.62 839.06,-85.19 840.46,-92.05"/>
<text text-anchor="middle" x="732.05" y="-124.8" font-family="Times,serif" font-size="14.00">sameAs</text>
</g>
<!-- &quot;https//www.sample&#45;da...&quot; -->
<g id="node18" class="node">
<title>&quot;https//www.sample&#45;da...&quot;</title>
<ellipse fill="none" stroke="black" stroke-width="0" cx="924.44" cy="-18" rx="131.08" ry="18"/>
<text text-anchor="middle" x="924.44" y="-14.3" font-family="Times,serif" font-size="14.00">&quot;https//www.sample&#45;da...&quot;</text>
</g>
<!-- www.sample&#45;data&#45;repository.org&#45;&gt;&quot;https//www.sample&#45;da...&quot; -->
<g id="edge20" class="edge">
<title>www.sample&#45;data&#45;repository.org&#45;&gt;&quot;https//www.sample&#45;da...&quot;</title>
<path fill="none" stroke="black" d="M531.16,-150.3C585.95,-123.98 694.13,-74.46 790.55,-45 803.69,-40.99 817.73,-37.4 831.6,-34.25"/>
<polygon fill="black" stroke="black" points="832.63,-37.61 841.65,-32.04 831.13,-30.77 832.63,-37.61"/>
<text text-anchor="middle" x="732.05" y="-80.8" font-family="Times,serif" font-size="14.00">url</text>
</g>
</g>
</svg>
