<?xml version="1.0" encoding="UTF-8" standalone="no"?>
<!DOCTYPE svg PUBLIC "-//W3C//DTD SVG 1.1//EN"
 "http://www.w3.org/Graphics/SVG/1.1/DTD/svg11.dtd">
<!-- Generated by graphviz version 2.43.0 (0)
 -->
<!-- Title: %3 Pages: 1 -->
<svg width="1148pt" height="260pt"
 viewBox="0.00 0.00 1147.73 260.00" xmlns="http://www.w3.org/2000/svg" xmlns:xlink="http://www.w3.org/1999/xlink">
<g id="graph0" class="graph" transform="scale(1 1) rotate(0) translate(4 256)">
<title>%3</title>
<polygon fill="white" stroke="transparent" points="-4,4 -4,-256 1143.73,-256 1143.73,4 -4,4"/>
<!-- CreativeWork -->
<g id="node1" class="node">
<title>CreativeWork</title>
<ellipse fill="none" stroke="#558855" cx="1005.84" cy="-234" rx="74.19" ry="18"/>
<text text-anchor="middle" x="1005.84" y="-230.3" font-family="Times,serif" font-size="14.00">CreativeWork</text>
</g>
<!-- purl.unep.org/sdg/SDGIO_00020173 -->
<g id="node2" class="node">
<title>purl.unep.org/sdg/SDGIO_00020173</title>
<ellipse fill="none" stroke="#558855" cx="575.57" cy="-126" rx="179.27" ry="18"/>
<text text-anchor="middle" x="575.57" y="-122.3" font-family="Times,serif" font-size="14.00">purl.unep.org/sdg/SDGIO_00020173</text>
</g>
<!-- purl.unep.org/sdg/SDGIO_00020173&#45;&gt;CreativeWork -->
<g id="edge1" class="edge">
<title>purl.unep.org/sdg/SDGIO_00020173&#45;&gt;CreativeWork</title>
<path fill="none" stroke="black" d="M634.28,-143.06C693.61,-160.31 788.8,-187.18 871.95,-207 892.91,-212 915.87,-216.87 936.72,-221.07"/>
<polygon fill="black" stroke="black" points="936.27,-224.55 946.76,-223.08 937.64,-217.69 936.27,-224.55"/>
<text text-anchor="middle" x="813.45" y="-204.8" font-family="Times,serif" font-size="14.00">type</text>
</g>
<!-- &quot;Number of countries ...&quot; -->
<g id="node3" class="node">
<title>&quot;Number of countries ...&quot;</title>
<ellipse fill="none" stroke="black" stroke-width="0" cx="1005.84" cy="-180" rx="127.28" ry="18"/>
<text text-anchor="middle" x="1005.84" y="-176.3" font-family="Times,serif" font-size="14.00">&quot;Number of countries ...&quot;</text>
</g>
<!-- purl.unep.org/sdg/SDGIO_00020173&#45;&gt;&quot;Number of countries ...&quot; -->
<g id="edge2" class="edge">
<title>purl.unep.org/sdg/SDGIO_00020173&#45;&gt;&quot;Number of countries ...&quot;</title>
<path fill="none" stroke="black" d="M687.97,-140.05C753.49,-148.31 835.82,-158.69 900.14,-166.8"/>
<polygon fill="black" stroke="black" points="899.95,-170.3 910.31,-168.08 900.82,-163.36 899.95,-170.3"/>
<text text-anchor="middle" x="813.45" y="-162.8" font-family="Times,serif" font-size="14.00">description</text>
</g>
<!-- &quot;FAIR data principles&quot; -->
<g id="node4" class="node">
<title>&quot;FAIR data principles&quot;</title>
<ellipse fill="none" stroke="black" stroke-width="0" cx="1005.84" cy="-126" rx="113.98" ry="18"/>
<text text-anchor="middle" x="1005.84" y="-122.3" font-family="Times,serif" font-size="14.00">&quot;FAIR data principles&quot;</text>
</g>
<!-- purl.unep.org/sdg/SDGIO_00020173&#45;&gt;&quot;FAIR data principles&quot; -->
<g id="edge3" class="edge">
<title>purl.unep.org/sdg/SDGIO_00020173&#45;&gt;&quot;FAIR data principles&quot;</title>
<path fill="none" stroke="black" d="M755.09,-126C797.74,-126 842.33,-126 881.83,-126"/>
<polygon fill="black" stroke="black" points="882.03,-129.5 892.03,-126 882.03,-122.5 882.03,-129.5"/>
<text text-anchor="middle" x="813.45" y="-129.8" font-family="Times,serif" font-size="14.00">name</text>
</g>
<!-- &quot;UNSD SDG indicator c...&quot; -->
<g id="node5" class="node">
<title>&quot;UNSD SDG indicator c...&quot;</title>
<ellipse fill="none" stroke="black" stroke-width="0" cx="1005.84" cy="-72" rx="133.78" ry="18"/>
<text text-anchor="middle" x="1005.84" y="-68.3" font-family="Times,serif" font-size="14.00">&quot;UNSD SDG indicator c...&quot;</text>
</g>
<!-- purl.unep.org/sdg/SDGIO_00020173&#45;&gt;&quot;UNSD SDG indicator c...&quot; -->
<g id="edge4" class="edge">
<title>purl.unep.org/sdg/SDGIO_00020173&#45;&gt;&quot;UNSD SDG indicator c...&quot;</title>
<path fill="none" stroke="black" d="M687.97,-111.95C752.55,-103.81 833.46,-93.61 897.36,-85.55"/>
<polygon fill="black" stroke="black" points="897.98,-89 907.46,-84.28 897.11,-82.06 897.98,-89"/>
<text text-anchor="middle" x="813.45" y="-103.8" font-family="Times,serif" font-size="14.00">name</text>
</g>
<!-- &quot;http//www.ontobee.or...&quot; -->
<g id="node6" class="node">
<title>&quot;http//www.ontobee.or...&quot;</title>
<ellipse fill="none" stroke="black" stroke-width="0" cx="1005.84" cy="-18" rx="128.08" ry="18"/>
<text text-anchor="middle" x="1005.84" y="-14.3" font-family="Times,serif" font-size="14.00">&quot;http//www.ontobee.or...&quot;</text>
</g>
<!-- purl.unep.org/sdg/SDGIO_00020173&#45;&gt;&quot;http//www.ontobee.or...&quot; -->
<g id="edge5" class="edge">
<title>purl.unep.org/sdg/SDGIO_00020173&#45;&gt;&quot;http//www.ontobee.or...&quot;</title>
<path fill="none" stroke="black" d="M719.63,-115.24C732.07,-111.11 744.05,-105.8 754.95,-99 766.87,-91.56 761.51,-81.17 772.95,-73 810.15,-46.42 827.51,-55.78 871.95,-45 886.96,-41.36 903.01,-37.81 918.58,-34.54"/>
<polygon fill="black" stroke="black" points="919.64,-37.9 928.72,-32.44 918.22,-31.04 919.64,-37.9"/>
<text text-anchor="middle" x="813.45" y="-76.8" font-family="Times,serif" font-size="14.00">url</text>
</g>
<!-- Organization -->
<g id="node7" class="node">
<title>Organization</title>
<ellipse fill="none" stroke="#558855" cx="575.57" cy="-72" rx="70.69" ry="18"/>
<text text-anchor="middle" x="575.57" y="-68.3" font-family="Times,serif" font-size="14.00">Organization</text>
</g>
<!-- example.org/id/org/x -->
<g id="node8" class="node">
<title>example.org/id/org/x</title>
<ellipse fill="none" stroke="black" cx="106.59" cy="-91" rx="106.68" ry="18"/>
<text text-anchor="middle" x="106.59" y="-87.3" font-family="Times,serif" font-size="14.00">example.org/id/org/x</text>
</g>
<!-- example.org/id/org/x&#45;&gt;purl.unep.org/sdg/SDGIO_00020173 -->
<g id="edge7" class="edge">
<title>example.org/id/org/x&#45;&gt;purl.unep.org/sdg/SDGIO_00020173</title>
<path fill="none" stroke="black" d="M204.35,-98.25C266.99,-102.95 349.9,-109.16 421.37,-114.52"/>
<polygon fill="black" stroke="black" points="421.15,-118.01 431.38,-115.27 421.67,-111.03 421.15,-118.01"/>
<text text-anchor="middle" x="304.68" y="-113.8" font-family="Times,serif" font-size="14.00">publishingPrinciples</text>
</g>
<!-- example.org/id/org/x&#45;&gt;Organization -->
<g id="edge6" class="edge">
<title>example.org/id/org/x&#45;&gt;Organization</title>
<path fill="none" stroke="black" d="M201.69,-82.85C211.64,-82.15 221.62,-81.51 231.18,-81 321.29,-76.18 424.84,-73.91 494.46,-72.86"/>
<polygon fill="black" stroke="black" points="494.53,-76.36 504.48,-72.72 494.43,-69.37 494.53,-76.36"/>
<text text-anchor="middle" x="304.68" y="-84.8" font-family="Times,serif" font-size="14.00">type</text>
</g>
</g>
</svg>
