<?xml version="1.0" encoding="UTF-8" standalone="no"?>
<!DOCTYPE svg PUBLIC "-//W3C//DTD SVG 1.1//EN"
 "http://www.w3.org/Graphics/SVG/1.1/DTD/svg11.dtd">
<!-- Generated by graphviz version 5.0.0 (0)
 -->
<!-- Pages: 1 -->
<svg width="965pt" height="206pt"
 viewBox="0.00 0.00 965.33 206.00" xmlns="http://www.w3.org/2000/svg" xmlns:xlink="http://www.w3.org/1999/xlink">
<g id="graph0" class="graph" transform="scale(1 1) rotate(0) translate(4 202)">
<polygon fill="white" stroke="transparent" points="-4,4 -4,-202 961.33,-202 961.33,4 -4,4"/>
<!-- Person -->
<g id="node1" class="node">
<title>Person</title>
<ellipse fill="none" stroke="#558855" cx="436.72" cy="-153" rx="42.49" ry="18"/>
<text text-anchor="middle" x="436.72" y="-149.3" font-family="Times,serif" font-size="14.00">Person</text>
</g>
<!-- example.org/id/x -->
<g id="node2" class="node">
<title>example.org/id/x</title>
<ellipse fill="none" stroke="black" cx="88.39" cy="-126" rx="88.28" ry="18"/>
<text text-anchor="middle" x="88.39" y="-122.3" font-family="Times,serif" font-size="14.00">example.org/id/x</text>
</g>
<!-- example.org/id/x&#45;&gt;Person -->
<g id="edge1" class="edge">
<title>example.org/id/x&#45;&gt;Person</title>
<path fill="none" stroke="black" d="M171.47,-132.4C237.75,-137.57 328.93,-144.67 385.01,-149.05"/>
<polygon fill="black" stroke="black" points="384.82,-152.54 395.06,-149.83 385.36,-145.56 384.82,-152.54"/>
<text text-anchor="middle" x="227.78" y="-141.8" font-family="Times,serif" font-size="14.00">type</text>
</g>
<!-- orcid.org/0000&#45;0002&#45;2257&#45;9127 -->
<g id="node3" class="node">
<title>orcid.org/0000&#45;0002&#45;2257&#45;9127</title>
<ellipse fill="none" stroke="#558855" cx="436.72" cy="-99" rx="157.87" ry="18"/>
<text text-anchor="middle" x="436.72" y="-95.3" font-family="Times,serif" font-size="14.00">orcid.org/0000&#45;0002&#45;2257&#45;9127</text>
</g>
<!-- example.org/id/x&#45;&gt;orcid.org/0000&#45;0002&#45;2257&#45;9127 -->
<g id="edge2" class="edge">
<title>example.org/id/x&#45;&gt;orcid.org/0000&#45;0002&#45;2257&#45;9127</title>
<path fill="none" stroke="black" d="M166.78,-117.59C176.21,-116.66 185.71,-115.77 194.78,-115 224.34,-112.48 255.96,-110.13 286.25,-108.05"/>
<polygon fill="black" stroke="black" points="286.72,-111.52 296.46,-107.35 286.25,-104.54 286.72,-111.52"/>
<text text-anchor="middle" x="227.78" y="-118.8" font-family="Times,serif" font-size="14.00">identifier</text>
</g>
<!-- PropertyValue -->
<g id="node4" class="node">
<title>PropertyValue</title>
<ellipse fill="none" stroke="#558855" cx="834.5" cy="-180" rx="77.19" ry="18"/>
<text text-anchor="middle" x="834.5" y="-176.3" font-family="Times,serif" font-size="14.00">PropertyValue</text>
</g>
<!-- orcid.org/0000&#45;0002&#45;2257&#45;9127&#45;&gt;PropertyValue -->
<g id="edge3" class="edge">
<title>orcid.org/0000&#45;0002&#45;2257&#45;9127&#45;&gt;PropertyValue</title>
<path fill="none" stroke="black" d="M539.47,-112.71C558.02,-116.28 577.06,-120.67 594.66,-126 603.03,-128.54 604.32,-131.31 612.66,-134 660.38,-149.38 715.6,-160.88 758.89,-168.54"/>
<polygon fill="black" stroke="black" points="758.32,-171.99 768.78,-170.26 759.52,-165.1 758.32,-171.99"/>
<text text-anchor="middle" x="653.16" y="-157.8" font-family="Times,serif" font-size="14.00">type</text>
</g>
<!-- &quot;Optional description...&quot; -->
<g id="node5" class="node">
<title>&quot;Optional description...&quot;</title>
<ellipse fill="none" stroke="black" stroke-width="0" cx="834.5" cy="-126" rx="122.68" ry="18"/>
<text text-anchor="middle" x="834.5" y="-122.3" font-family="Times,serif" font-size="14.00">&quot;Optional description...&quot;</text>
</g>
<!-- orcid.org/0000&#45;0002&#45;2257&#45;9127&#45;&gt;&quot;Optional description...&quot; -->
<g id="edge4" class="edge">
<title>orcid.org/0000&#45;0002&#45;2257&#45;9127&#45;&gt;&quot;Optional description...&quot;</title>
<path fill="none" stroke="black" d="M572.54,-108.2C617.95,-111.3 668.31,-114.73 712.58,-117.75"/>
<polygon fill="black" stroke="black" points="712.59,-121.26 722.81,-118.45 713.07,-114.28 712.59,-121.26"/>
<text text-anchor="middle" x="653.16" y="-118.8" font-family="Times,serif" font-size="14.00">description</text>
</g>
<!-- &quot;https//registry.iden...&quot; -->
<g id="node6" class="node">
<title>&quot;https//registry.iden...&quot;</title>
<ellipse fill="none" stroke="black" stroke-width="0" cx="834.5" cy="-72" rx="116.98" ry="18"/>
<text text-anchor="middle" x="834.5" y="-68.3" font-family="Times,serif" font-size="14.00">&quot;https//registry.iden...&quot;</text>
</g>
<!-- orcid.org/0000&#45;0002&#45;2257&#45;9127&#45;&gt;&quot;https//registry.iden...&quot; -->
<g id="edge5" class="edge">
<title>orcid.org/0000&#45;0002&#45;2257&#45;9127&#45;&gt;&quot;https//registry.iden...&quot;</title>
<path fill="none" stroke="black" d="M572.54,-89.8C619.5,-86.6 671.76,-83.03 717.1,-79.94"/>
<polygon fill="black" stroke="black" points="717.52,-83.42 727.26,-79.25 717.05,-76.44 717.52,-83.42"/>
<text text-anchor="middle" x="653.16" y="-89.8" font-family="Times,serif" font-size="14.00">propertyID</text>
</g>
<!-- &quot;https//orcid.org/000...&quot; -->
<g id="node7" class="node">
<title>&quot;https//orcid.org/000...&quot;</title>
<ellipse fill="none" stroke="black" stroke-width="0" cx="834.5" cy="-18" rx="120.78" ry="18"/>
<text text-anchor="middle" x="834.5" y="-14.3" font-family="Times,serif" font-size="14.00">&quot;https//orcid.org/000...&quot;</text>
</g>
<!-- orcid.org/0000&#45;0002&#45;2257&#45;9127&#45;&gt;&quot;https//orcid.org/000...&quot; -->
<g id="edge6" class="edge">
<title>orcid.org/0000&#45;0002&#45;2257&#45;9127&#45;&gt;&quot;https//orcid.org/000...&quot;</title>
<path fill="none" stroke="black" d="M513.92,-83.29C544.59,-76.97 580.3,-69.62 612.66,-63 658.97,-53.52 710.75,-42.96 752.53,-34.46"/>
<polygon fill="black" stroke="black" points="753.28,-37.88 762.38,-32.46 751.88,-31.02 753.28,-37.88"/>
<text text-anchor="middle" x="653.16" y="-66.8" font-family="Times,serif" font-size="14.00">url</text>
</g>
</g>
</svg>
