<?xml version="1.0" encoding="UTF-8" standalone="no"?>
<!DOCTYPE svg PUBLIC "-//W3C//DTD SVG 1.1//EN"
 "http://www.w3.org/Graphics/SVG/1.1/DTD/svg11.dtd">
<!-- Generated by graphviz version 2.43.0 (0)
 -->
<!-- Title: %3 Pages: 1 -->
<svg width="1112pt" height="422pt"
 viewBox="0.00 0.00 1111.92 422.00" xmlns="http://www.w3.org/2000/svg" xmlns:xlink="http://www.w3.org/1999/xlink">
<g id="graph0" class="graph" transform="scale(1 1) rotate(0) translate(4 418)">
<title>%3</title>
<polygon fill="white" stroke="transparent" points="-4,4 -4,-418 1107.92,-418 1107.92,4 -4,4"/>
<!-- Dataset -->
<g id="node1" class="node">
<title>Dataset</title>
<ellipse fill="none" stroke="#558855" cx="684.05" cy="-332" rx="46.59" ry="18"/>
<text text-anchor="middle" x="684.05" y="-328.3" font-family="Times,serif" font-size="14.00">Dataset</text>
</g>
<!-- obis.org/dataset/dcbb8f12&#45;c869&#45;4d31&#45;aa8b&#45;23abb27898ce -->
<g id="node2" class="node">
<title>obis.org/dataset/dcbb8f12&#45;c869&#45;4d31&#45;aa8b&#45;23abb27898ce</title>
<ellipse fill="none" stroke="black" cx="280.13" cy="-272" rx="280.25" ry="18"/>
<text text-anchor="middle" x="280.13" y="-268.3" font-family="Times,serif" font-size="14.00">obis.org/dataset/dcbb8f12&#45;c869&#45;4d31&#45;aa8b&#45;23abb27898ce</text>
</g>
<!-- obis.org/dataset/dcbb8f12&#45;c869&#45;4d31&#45;aa8b&#45;23abb27898ce&#45;&gt;Dataset -->
<g id="edge1" class="edge">
<title>obis.org/dataset/dcbb8f12&#45;c869&#45;4d31&#45;aa8b&#45;23abb27898ce&#45;&gt;Dataset</title>
<path fill="none" stroke="black" d="M391.75,-288.51C469.29,-300.09 569.49,-315.05 629.88,-324.06"/>
<polygon fill="black" stroke="black" points="629.54,-327.55 639.95,-325.57 630.58,-320.63 629.54,-327.55"/>
<text text-anchor="middle" x="598.75" y="-324.8" font-family="Times,serif" font-size="14.00">type</text>
</g>
<!-- _ -->
<g id="node3" class="node">
<title>_</title>
<ellipse fill="none" stroke="#558855" cx="684.05" cy="-212" rx="27" ry="18"/>
<text text-anchor="middle" x="684.05" y="-208.3" font-family="Times,serif" font-size="14.00">_</text>
</g>
<!-- obis.org/dataset/dcbb8f12&#45;c869&#45;4d31&#45;aa8b&#45;23abb27898ce&#45;&gt;_ -->
<g id="edge2" class="edge">
<title>obis.org/dataset/dcbb8f12&#45;c869&#45;4d31&#45;aa8b&#45;23abb27898ce&#45;&gt;_</title>
<path fill="none" stroke="black" d="M391.75,-255.49C477.5,-242.68 590.97,-225.75 647.65,-217.28"/>
<polygon fill="black" stroke="black" points="648.18,-220.74 657.55,-215.81 647.15,-213.82 648.18,-220.74"/>
<text text-anchor="middle" x="598.75" y="-229.8" font-family="Times,serif" font-size="14.00">about</text>
</g>
<!-- _&#45;&gt;_ -->
<g id="edge4" class="edge">
<title>_&#45;&gt;_</title>
<path fill="none" stroke="black" d="M676.55,-229.41C675.15,-239.09 677.65,-248 684.05,-248 688.05,-248 690.52,-244.52 691.47,-239.54"/>
<polygon fill="black" stroke="black" points="694.97,-239.43 691.54,-229.41 687.97,-239.39 694.97,-239.43"/>
<text text-anchor="middle" x="684.05" y="-251.8" font-family="Times,serif" font-size="14.00">instrument</text>
</g>
<!-- _&#45;&gt;_ -->
<g id="edge13" class="edge">
<title>_&#45;&gt;_</title>
<path fill="none" stroke="black" d="M672.11,-228.31C664.4,-245.96 668.38,-266 684.05,-266 696.9,-266 701.89,-252.52 699.01,-237.93"/>
<polygon fill="black" stroke="black" points="702.32,-236.8 695.98,-228.31 695.64,-238.9 702.32,-236.8"/>
<text text-anchor="middle" x="684.05" y="-269.8" font-family="Times,serif" font-size="14.00">potentialAction</text>
</g>
<!-- Action -->
<g id="node4" class="node">
<title>Action</title>
<ellipse fill="none" stroke="#558855" cx="975.88" cy="-396" rx="40.09" ry="18"/>
<text text-anchor="middle" x="975.88" y="-392.3" font-family="Times,serif" font-size="14.00">Action</text>
</g>
<!-- _&#45;&gt;Action -->
<g id="edge3" class="edge">
<title>_&#45;&gt;Action</title>
<path fill="none" stroke="black" d="M693.56,-229.1C702.82,-247.73 718,-278.42 730.84,-305 738.97,-321.83 734.46,-331.07 748.84,-343 798.8,-384.45 875.35,-394.72 925.27,-396.64"/>
<polygon fill="black" stroke="black" points="925.41,-400.15 935.5,-396.93 925.61,-393.15 925.41,-400.15"/>
<text text-anchor="middle" x="789.34" y="-384.8" font-family="Times,serif" font-size="14.00">type</text>
</g>
<!-- &quot;The instrumented act...&quot; -->
<g id="node5" class="node">
<title>&quot;The instrumented act...&quot;</title>
<ellipse fill="none" stroke="black" stroke-width="0" cx="975.88" cy="-342" rx="128.08" ry="18"/>
<text text-anchor="middle" x="975.88" y="-338.3" font-family="Times,serif" font-size="14.00">&quot;The instrumented act...&quot;</text>
</g>
<!-- _&#45;&gt;&quot;The instrumented act...&quot; -->
<g id="edge5" class="edge">
<title>_&#45;&gt;&quot;The instrumented act...&quot;</title>
<path fill="none" stroke="black" d="M693.83,-229.13C704.33,-247.82 723.68,-277.19 748.84,-293 779.92,-312.53 817.62,-324.36 853.25,-331.5"/>
<polygon fill="black" stroke="black" points="852.76,-334.97 863.24,-333.39 854.07,-328.09 852.76,-334.97"/>
<text text-anchor="middle" x="789.34" y="-327.8" font-family="Times,serif" font-size="14.00">name</text>
</g>
<!-- Thing -->
<g id="node6" class="node">
<title>Thing</title>
<ellipse fill="none" stroke="#558855" cx="975.88" cy="-288" rx="37.09" ry="18"/>
<text text-anchor="middle" x="975.88" y="-284.3" font-family="Times,serif" font-size="14.00">Thing</text>
</g>
<!-- _&#45;&gt;Thing -->
<g id="edge6" class="edge">
<title>_&#45;&gt;Thing</title>
<path fill="none" stroke="black" d="M701.86,-225.6C714.14,-234.82 731.61,-246.47 748.84,-253 808.39,-275.58 882.04,-283.6 928.75,-286.45"/>
<polygon fill="black" stroke="black" points="928.69,-289.95 938.87,-287.01 929.08,-282.96 928.69,-289.95"/>
<text text-anchor="middle" x="789.34" y="-277.8" font-family="Times,serif" font-size="14.00">type</text>
</g>
<!-- &quot;Sampling instrument&quot; -->
<g id="node7" class="node">
<title>&quot;Sampling instrument&quot;</title>
<ellipse fill="none" stroke="black" stroke-width="0" cx="975.88" cy="-234" rx="118.08" ry="18"/>
<text text-anchor="middle" x="975.88" y="-230.3" font-family="Times,serif" font-size="14.00">&quot;Sampling instrument&quot;</text>
</g>
<!-- _&#45;&gt;&quot;Sampling instrument&quot; -->
<g id="edge7" class="edge">
<title>_&#45;&gt;&quot;Sampling instrument&quot;</title>
<path fill="none" stroke="black" d="M709.04,-219.34C720.9,-222.63 735.49,-226.17 748.84,-228 780.69,-232.36 815.29,-234.55 847.63,-235.5"/>
<polygon fill="black" stroke="black" points="847.95,-239.01 858.04,-235.77 848.13,-232.01 847.95,-239.01"/>
<text text-anchor="middle" x="789.34" y="-237.8" font-family="Times,serif" font-size="14.00">description</text>
</g>
<!-- _&#45;&gt;&quot;Sampling instrument&quot; -->
<g id="edge8" class="edge">
<title>_&#45;&gt;&quot;Sampling instrument&quot;</title>
<path fill="none" stroke="black" d="M711.11,-210.5C722.66,-209.9 736.43,-209.29 748.84,-209 784.83,-208.15 793.97,-205.93 829.84,-209 851.16,-210.82 874.05,-214.13 895.2,-217.75"/>
<polygon fill="black" stroke="black" points="894.66,-221.21 905.11,-219.49 895.87,-214.32 894.66,-221.21"/>
<text text-anchor="middle" x="789.34" y="-212.8" font-family="Times,serif" font-size="14.00">name</text>
</g>
<!-- &quot;http//vocab.nerc.ac....&quot; -->
<g id="node8" class="node">
<title>&quot;http//vocab.nerc.ac....&quot;</title>
<ellipse fill="none" stroke="black" stroke-width="0" cx="975.88" cy="-180" rx="120.48" ry="18"/>
<text text-anchor="middle" x="975.88" y="-176.3" font-family="Times,serif" font-size="14.00">&quot;http//vocab.nerc.ac....&quot;</text>
</g>
<!-- _&#45;&gt;&quot;http//vocab.nerc.ac....&quot; -->
<g id="edge9" class="edge">
<title>_&#45;&gt;&quot;http//vocab.nerc.ac....&quot;</title>
<path fill="none" stroke="black" d="M706.67,-201.86C718.79,-196.69 734.34,-190.9 748.84,-188 780.28,-181.7 814.67,-178.61 846.92,-177.32"/>
<polygon fill="black" stroke="black" points="847.43,-180.8 857.31,-176.96 847.19,-173.81 847.43,-180.8"/>
<text text-anchor="middle" x="789.34" y="-191.8" font-family="Times,serif" font-size="14.00">url</text>
</g>
<!-- Event -->
<g id="node9" class="node">
<title>Event</title>
<ellipse fill="none" stroke="#558855" cx="975.88" cy="-126" rx="38.19" ry="18"/>
<text text-anchor="middle" x="975.88" y="-122.3" font-family="Times,serif" font-size="14.00">Event</text>
</g>
<!-- _&#45;&gt;Event -->
<g id="edge10" class="edge">
<title>_&#45;&gt;Event</title>
<path fill="none" stroke="black" d="M698.65,-196.79C710.6,-184.47 729.11,-167.79 748.84,-159 806.43,-133.34 879.67,-126.83 926.9,-125.57"/>
<polygon fill="black" stroke="black" points="927.23,-129.07 937.16,-125.37 927.09,-122.07 927.23,-129.07"/>
<text text-anchor="middle" x="789.34" y="-162.8" font-family="Times,serif" font-size="14.00">type</text>
</g>
<!-- &quot;describe the activit...&quot; -->
<g id="node10" class="node">
<title>&quot;describe the activit...&quot;</title>
<ellipse fill="none" stroke="black" stroke-width="0" cx="975.88" cy="-72" rx="118.08" ry="18"/>
<text text-anchor="middle" x="975.88" y="-68.3" font-family="Times,serif" font-size="14.00">&quot;describe the activit...&quot;</text>
</g>
<!-- _&#45;&gt;&quot;describe the activit...&quot; -->
<g id="edge11" class="edge">
<title>_&#45;&gt;&quot;describe the activit...&quot;</title>
<path fill="none" stroke="black" d="M691.57,-194.71C700.81,-172.73 719.88,-135.32 748.84,-116 778.94,-95.92 816,-84.54 851.35,-78.22"/>
<polygon fill="black" stroke="black" points="851.97,-81.66 861.26,-76.57 850.82,-74.76 851.97,-81.66"/>
<text text-anchor="middle" x="789.34" y="-119.8" font-family="Times,serif" font-size="14.00">description</text>
</g>
<!-- &quot;Name of the activity...&quot; -->
<g id="node11" class="node">
<title>&quot;Name of the activity...&quot;</title>
<ellipse fill="none" stroke="black" stroke-width="0" cx="975.88" cy="-18" rx="121.58" ry="18"/>
<text text-anchor="middle" x="975.88" y="-14.3" font-family="Times,serif" font-size="14.00">&quot;Name of the activity...&quot;</text>
</g>
<!-- _&#45;&gt;&quot;Name of the activity...&quot; -->
<g id="edge12" class="edge">
<title>_&#45;&gt;&quot;Name of the activity...&quot;</title>
<path fill="none" stroke="black" d="M687.3,-194.11C692.29,-162.44 707.32,-96.68 748.84,-63 776,-40.98 810.95,-28.75 845.21,-22.19"/>
<polygon fill="black" stroke="black" points="846.08,-25.59 855.32,-20.41 844.87,-18.69 846.08,-25.59"/>
<text text-anchor="middle" x="789.34" y="-66.8" font-family="Times,serif" font-size="14.00">name</text>
</g>
</g>
</svg>
