<?xml version="1.0" encoding="UTF-8" standalone="no"?>
<!DOCTYPE svg PUBLIC "-//W3C//DTD SVG 1.1//EN"
 "http://www.w3.org/Graphics/SVG/1.1/DTD/svg11.dtd">
<!-- Generated by graphviz version 5.0.0 (0)
 -->
<!-- Pages: 1 -->
<svg width="535pt" height="98pt"
 viewBox="0.00 0.00 534.66 98.00" xmlns="http://www.w3.org/2000/svg" xmlns:xlink="http://www.w3.org/1999/xlink">
<g id="graph0" class="graph" transform="scale(1 1) rotate(0) translate(4 94)">
<polygon fill="white" stroke="transparent" points="-4,4 -4,-94 530.66,-94 530.66,4 -4,4"/>
<!-- CreativeWork -->
<g id="node1" class="node">
<title>CreativeWork</title>
<ellipse fill="none" stroke="#558855" cx="407.72" cy="-72" rx="74.19" ry="18"/>
<text text-anchor="middle" x="407.72" y="-68.3" font-family="Times,serif" font-size="14.00">CreativeWork</text>
</g>
<!-- example.org/id/XYZ -->
<g id="node2" class="node">
<title>example.org/id/XYZ</title>
<ellipse fill="none" stroke="black" cx="101.39" cy="-45" rx="101.28" ry="18"/>
<text text-anchor="middle" x="101.39" y="-41.3" font-family="Times,serif" font-size="14.00">example.org/id/XYZ</text>
</g>
<!-- example.org/id/XYZ&#45;&gt;CreativeWork -->
<g id="edge1" class="edge">
<title>example.org/id/XYZ&#45;&gt;CreativeWork</title>
<path fill="none" stroke="black" d="M192.46,-52.99C235.37,-56.8 286.23,-61.31 327.63,-64.98"/>
<polygon fill="black" stroke="black" points="327.4,-68.48 337.67,-65.87 328.02,-61.5 327.4,-68.48"/>
<text text-anchor="middle" x="245.78" y="-62.8" font-family="Times,serif" font-size="14.00">type</text>
</g>
<!-- &quot;http//spdx.org/licen...&quot; -->
<g id="node3" class="node">
<title>&quot;http//spdx.org/licen...&quot;</title>
<ellipse fill="none" stroke="black" stroke-width="0" cx="407.72" cy="-18" rx="118.88" ry="18"/>
<text text-anchor="middle" x="407.72" y="-14.3" font-family="Times,serif" font-size="14.00">&quot;http//spdx.org/licen...&quot;</text>
</g>
<!-- example.org/id/XYZ&#45;&gt;&quot;http//spdx.org/licen...&quot; -->
<g id="edge2" class="edge">
<title>example.org/id/XYZ&#45;&gt;&quot;http//spdx.org/licen...&quot;</title>
<path fill="none" stroke="black" d="M192.46,-37.01C224.39,-34.18 260.72,-30.95 294.28,-27.98"/>
<polygon fill="black" stroke="black" points="294.94,-31.43 304.6,-27.06 294.33,-24.46 294.94,-31.43"/>
<text text-anchor="middle" x="245.78" y="-36.8" font-family="Times,serif" font-size="14.00">license</text>
</g>
</g>
</svg>
