<?xml version="1.0" encoding="UTF-8" standalone="no"?>
<!DOCTYPE svg PUBLIC "-//W3C//DTD SVG 1.1//EN"
 "http://www.w3.org/Graphics/SVG/1.1/DTD/svg11.dtd">
<!-- Generated by graphviz version 2.43.0 (0)
 -->
<!-- Title: %3 Pages: 1 -->
<svg width="1181pt" height="1016pt"
 viewBox="0.00 0.00 1181.03 1016.00" xmlns="http://www.w3.org/2000/svg" xmlns:xlink="http://www.w3.org/1999/xlink">
<g id="graph0" class="graph" transform="scale(1 1) rotate(0) translate(4 1012)">
<title>%3</title>
<polygon fill="white" stroke="transparent" points="-4,4 -4,-1012 1177.03,-1012 1177.03,4 -4,4"/>
<!-- CreativeWork -->
<g id="node1" class="node">
<title>CreativeWork</title>
<ellipse fill="none" stroke="#558855" cx="1038.49" cy="-774" rx="74.19" ry="18"/>
<text text-anchor="middle" x="1038.49" y="-770.3" font-family="Times,serif" font-size="14.00">CreativeWork</text>
</g>
<!-- purl.unep.org/sdg/SDGIO_00020173 -->
<g id="node2" class="node">
<title>purl.unep.org/sdg/SDGIO_00020173</title>
<ellipse fill="none" stroke="#558855" cx="575.57" cy="-828" rx="179.27" ry="18"/>
<text text-anchor="middle" x="575.57" y="-824.3" font-family="Times,serif" font-size="14.00">purl.unep.org/sdg/SDGIO_00020173</text>
</g>
<!-- purl.unep.org/sdg/SDGIO_00020173&#45;&gt;CreativeWork -->
<g id="edge1" class="edge">
<title>purl.unep.org/sdg/SDGIO_00020173&#45;&gt;CreativeWork</title>
<path fill="none" stroke="black" d="M692.88,-814.37C777.06,-804.51 888.42,-791.46 961.46,-782.91"/>
<polygon fill="black" stroke="black" points="961.98,-786.37 971.5,-781.73 961.16,-779.42 961.98,-786.37"/>
<text text-anchor="middle" x="829.45" y="-807.8" font-family="Times,serif" font-size="14.00">type</text>
</g>
<!-- &quot;Number of countries ...&quot; -->
<g id="node3" class="node">
<title>&quot;Number of countries ...&quot;</title>
<ellipse fill="none" stroke="black" stroke-width="0" cx="1038.49" cy="-882" rx="127.28" ry="18"/>
<text text-anchor="middle" x="1038.49" y="-878.3" font-family="Times,serif" font-size="14.00">&quot;Number of countries ...&quot;</text>
</g>
<!-- purl.unep.org/sdg/SDGIO_00020173&#45;&gt;&quot;Number of countries ...&quot; -->
<g id="edge2" class="edge">
<title>purl.unep.org/sdg/SDGIO_00020173&#45;&gt;&quot;Number of countries ...&quot;</title>
<path fill="none" stroke="black" d="M692.88,-841.63C765.57,-850.14 858.54,-861.04 929.59,-869.36"/>
<polygon fill="black" stroke="black" points="929.57,-872.88 939.91,-870.57 930.39,-865.93 929.57,-872.88"/>
<text text-anchor="middle" x="829.45" y="-865.8" font-family="Times,serif" font-size="14.00">description</text>
</g>
<!-- &quot;Sustainable Developm...&quot; -->
<g id="node4" class="node">
<title>&quot;Sustainable Developm...&quot;</title>
<ellipse fill="none" stroke="black" stroke-width="0" cx="1038.49" cy="-828" rx="131.88" ry="18"/>
<text text-anchor="middle" x="1038.49" y="-824.3" font-family="Times,serif" font-size="14.00">&quot;Sustainable Developm...&quot;</text>
</g>
<!-- purl.unep.org/sdg/SDGIO_00020173&#45;&gt;&quot;Sustainable Developm...&quot; -->
<g id="edge3" class="edge">
<title>purl.unep.org/sdg/SDGIO_00020173&#45;&gt;&quot;Sustainable Developm...&quot;</title>
<path fill="none" stroke="black" d="M755.1,-828C801.94,-828 851.8,-828 896.38,-828"/>
<polygon fill="black" stroke="black" points="896.41,-831.5 906.41,-828 896.41,-824.5 896.41,-831.5"/>
<text text-anchor="middle" x="829.45" y="-831.8" font-family="Times,serif" font-size="14.00">name</text>
</g>
<!-- &quot;UNSD SDG indicator c...&quot; -->
<g id="node5" class="node">
<title>&quot;UNSD SDG indicator c...&quot;</title>
<ellipse fill="none" stroke="black" stroke-width="0" cx="1038.49" cy="-990" rx="133.78" ry="18"/>
<text text-anchor="middle" x="1038.49" y="-986.3" font-family="Times,serif" font-size="14.00">&quot;UNSD SDG indicator c...&quot;</text>
</g>
<!-- purl.unep.org/sdg/SDGIO_00020173&#45;&gt;&quot;UNSD SDG indicator c...&quot; -->
<g id="edge4" class="edge">
<title>purl.unep.org/sdg/SDGIO_00020173&#45;&gt;&quot;UNSD SDG indicator c...&quot;</title>
<path fill="none" stroke="black" d="M608.83,-845.83C647.15,-866.52 713.38,-900.76 772.95,-924 829.54,-946.08 845.01,-948.3 903.95,-963 918.54,-966.64 934.12,-970.14 949.3,-973.34"/>
<polygon fill="black" stroke="black" points="948.69,-976.79 959.2,-975.4 950.12,-969.93 948.69,-976.79"/>
<text text-anchor="middle" x="829.45" y="-961.8" font-family="Times,serif" font-size="14.00">name</text>
</g>
<!-- &quot;http//www.ontobee.or...&quot; -->
<g id="node6" class="node">
<title>&quot;http//www.ontobee.or...&quot;</title>
<ellipse fill="none" stroke="black" stroke-width="0" cx="1038.49" cy="-936" rx="128.08" ry="18"/>
<text text-anchor="middle" x="1038.49" y="-932.3" font-family="Times,serif" font-size="14.00">&quot;http//www.ontobee.or...&quot;</text>
</g>
<!-- purl.unep.org/sdg/SDGIO_00020173&#45;&gt;&quot;http//www.ontobee.or...&quot; -->
<g id="edge5" class="edge">
<title>purl.unep.org/sdg/SDGIO_00020173&#45;&gt;&quot;http//www.ontobee.or...&quot;</title>
<path fill="none" stroke="black" d="M636.52,-845.07C675.3,-855.89 726.95,-869.89 772.95,-881 830.82,-894.98 845.66,-896.88 903.95,-909 920.06,-912.35 937.27,-915.87 953.8,-919.23"/>
<polygon fill="black" stroke="black" points="953.49,-922.74 963.99,-921.29 954.88,-915.88 953.49,-922.74"/>
<text text-anchor="middle" x="829.45" y="-908.8" font-family="Times,serif" font-size="14.00">url</text>
</g>
<!-- dx.doi.org/10.1038/sdata.2016.18 -->
<g id="node7" class="node">
<title>dx.doi.org/10.1038/sdata.2016.18</title>
<ellipse fill="none" stroke="#558855" cx="575.57" cy="-666" rx="167.87" ry="18"/>
<text text-anchor="middle" x="575.57" y="-662.3" font-family="Times,serif" font-size="14.00">dx.doi.org/10.1038/sdata.2016.18</text>
</g>
<!-- dx.doi.org/10.1038/sdata.2016.18&#45;&gt;CreativeWork -->
<g id="edge6" class="edge">
<title>dx.doi.org/10.1038/sdata.2016.18&#45;&gt;CreativeWork</title>
<path fill="none" stroke="black" d="M635.65,-682.82C674.53,-693.68 726.61,-707.8 772.95,-719 830.82,-732.98 845.66,-734.88 903.95,-747 925.64,-751.51 949.33,-756.34 970.66,-760.64"/>
<polygon fill="black" stroke="black" points="970.11,-764.1 980.6,-762.64 971.49,-757.24 970.11,-764.1"/>
<text text-anchor="middle" x="829.45" y="-746.8" font-family="Times,serif" font-size="14.00">type</text>
</g>
<!-- &quot;FAIR Principles defi...&quot; -->
<g id="node8" class="node">
<title>&quot;FAIR Principles defi...&quot;</title>
<ellipse fill="none" stroke="black" stroke-width="0" cx="1038.49" cy="-666" rx="119.68" ry="18"/>
<text text-anchor="middle" x="1038.49" y="-662.3" font-family="Times,serif" font-size="14.00">&quot;FAIR Principles defi...&quot;</text>
</g>
<!-- dx.doi.org/10.1038/sdata.2016.18&#45;&gt;&quot;FAIR Principles defi...&quot; -->
<g id="edge7" class="edge">
<title>dx.doi.org/10.1038/sdata.2016.18&#45;&gt;&quot;FAIR Principles defi...&quot;</title>
<path fill="none" stroke="black" d="M743.29,-666C797.78,-666 857.43,-666 908.69,-666"/>
<polygon fill="black" stroke="black" points="908.82,-669.5 918.82,-666 908.82,-662.5 908.82,-669.5"/>
<text text-anchor="middle" x="829.45" y="-669.8" font-family="Times,serif" font-size="14.00">description</text>
</g>
<!-- &quot;FAIR data principles&quot; -->
<g id="node9" class="node">
<title>&quot;FAIR data principles&quot;</title>
<ellipse fill="none" stroke="black" stroke-width="0" cx="1038.49" cy="-612" rx="113.98" ry="18"/>
<text text-anchor="middle" x="1038.49" y="-608.3" font-family="Times,serif" font-size="14.00">&quot;FAIR data principles&quot;</text>
</g>
<!-- dx.doi.org/10.1038/sdata.2016.18&#45;&gt;&quot;FAIR data principles&quot; -->
<g id="edge8" class="edge">
<title>dx.doi.org/10.1038/sdata.2016.18&#45;&gt;&quot;FAIR data principles&quot;</title>
<path fill="none" stroke="black" d="M689.61,-652.76C765.09,-643.91 863.49,-632.38 936.37,-623.85"/>
<polygon fill="black" stroke="black" points="936.96,-627.3 946.48,-622.66 936.14,-620.35 936.96,-627.3"/>
<text text-anchor="middle" x="829.45" y="-645.8" font-family="Times,serif" font-size="14.00">name</text>
</g>
<!-- &quot;https//www.nature.co...&quot; -->
<g id="node10" class="node">
<title>&quot;https//www.nature.co...&quot;</title>
<ellipse fill="none" stroke="black" stroke-width="0" cx="1038.49" cy="-720" rx="128.08" ry="18"/>
<text text-anchor="middle" x="1038.49" y="-716.3" font-family="Times,serif" font-size="14.00">&quot;https//www.nature.co...&quot;</text>
</g>
<!-- dx.doi.org/10.1038/sdata.2016.18&#45;&gt;&quot;https//www.nature.co...&quot; -->
<g id="edge9" class="edge">
<title>dx.doi.org/10.1038/sdata.2016.18&#45;&gt;&quot;https//www.nature.co...&quot;</title>
<path fill="none" stroke="black" d="M689.61,-679.24C762.8,-687.82 857.54,-698.92 929.67,-707.37"/>
<polygon fill="black" stroke="black" points="929.35,-710.86 939.69,-708.54 930.17,-703.9 929.35,-710.86"/>
<text text-anchor="middle" x="829.45" y="-703.8" font-family="Times,serif" font-size="14.00">url</text>
</g>
<!-- Organization -->
<g id="node11" class="node">
<title>Organization</title>
<ellipse fill="none" stroke="#558855" cx="1038.49" cy="-558" rx="70.69" ry="18"/>
<text text-anchor="middle" x="1038.49" y="-554.3" font-family="Times,serif" font-size="14.00">Organization</text>
</g>
<!-- example.org/id/org/x -->
<g id="node12" class="node">
<title>example.org/id/org/x</title>
<ellipse fill="none" stroke="black" cx="106.59" cy="-407" rx="106.68" ry="18"/>
<text text-anchor="middle" x="106.59" y="-403.3" font-family="Times,serif" font-size="14.00">example.org/id/org/x</text>
</g>
<!-- example.org/id/org/x&#45;&gt;purl.unep.org/sdg/SDGIO_00020173 -->
<g id="edge17" class="edge">
<title>example.org/id/org/x&#45;&gt;purl.unep.org/sdg/SDGIO_00020173</title>
<path fill="none" stroke="black" d="M112.4,-425.09C124.96,-469.26 162.6,-584.03 231.18,-653 309.63,-731.9 431.04,-782.14 506.51,-807.66"/>
<polygon fill="black" stroke="black" points="505.79,-811.11 516.39,-810.94 508,-804.47 505.79,-811.11"/>
<text text-anchor="middle" x="304.68" y="-756.8" font-family="Times,serif" font-size="14.00">publishingPrinciples</text>
</g>
<!-- example.org/id/org/x&#45;&gt;purl.unep.org/sdg/SDGIO_00020173 -->
<g id="edge19" class="edge">
<title>example.org/id/org/x&#45;&gt;purl.unep.org/sdg/SDGIO_00020173</title>
<path fill="none" stroke="black" d="M107.65,-425.35C108.92,-485.67 121.7,-679.22 231.18,-772 278.65,-812.23 343.52,-829.15 404.1,-835"/>
<polygon fill="black" stroke="black" points="403.91,-838.5 414.17,-835.88 404.52,-831.53 403.91,-838.5"/>
<text text-anchor="middle" x="304.68" y="-834.8" font-family="Times,serif" font-size="14.00">subjectOf</text>
</g>
<!-- example.org/id/org/x&#45;&gt;dx.doi.org/10.1038/sdata.2016.18 -->
<g id="edge18" class="edge">
<title>example.org/id/org/x&#45;&gt;dx.doi.org/10.1038/sdata.2016.18</title>
<path fill="none" stroke="black" d="M115.99,-425C132.83,-459.09 174.08,-533.14 231.18,-572 294.98,-615.42 378.23,-638.85 446.78,-651.45"/>
<polygon fill="black" stroke="black" points="446.33,-654.93 456.79,-653.24 447.56,-648.04 446.33,-654.93"/>
<text text-anchor="middle" x="304.68" y="-637.8" font-family="Times,serif" font-size="14.00">publishingPrinciples</text>
</g>
<!-- example.org/id/org/x&#45;&gt;Organization -->
<g id="edge10" class="edge">
<title>example.org/id/org/x&#45;&gt;Organization</title>
<path fill="none" stroke="black" d="M154.14,-423.23C177.14,-430.85 205.41,-439.63 231.18,-446 468.73,-504.71 529.9,-515.7 772.95,-544 834.62,-551.18 904.81,-554.68 957.39,-556.39"/>
<polygon fill="black" stroke="black" points="957.56,-559.89 967.66,-556.7 957.78,-552.9 957.56,-559.89"/>
<text text-anchor="middle" x="575.57" y="-544.8" font-family="Times,serif" font-size="14.00">type</text>
</g>
<!-- _ -->
<g id="node13" class="node">
<title>_</title>
<ellipse fill="none" stroke="#558855" cx="575.57" cy="-423" rx="27" ry="18"/>
<text text-anchor="middle" x="575.57" y="-419.3" font-family="Times,serif" font-size="14.00">_</text>
</g>
<!-- example.org/id/org/x&#45;&gt;_ -->
<g id="edge11" class="edge">
<title>example.org/id/org/x&#45;&gt;_</title>
<path fill="none" stroke="black" d="M213,-405.62C263.07,-405.41 323.73,-405.82 378.18,-408 434.2,-410.24 499.02,-415.76 538.39,-419.45"/>
<polygon fill="black" stroke="black" points="538.27,-422.95 548.55,-420.41 538.93,-415.98 538.27,-422.95"/>
<text text-anchor="middle" x="304.68" y="-411.8" font-family="Times,serif" font-size="14.00">address</text>
</g>
<!-- example.org/id/org/x&#45;&gt;_ -->
<g id="edge15" class="edge">
<title>example.org/id/org/x&#45;&gt;_</title>
<path fill="none" stroke="black" d="M187.22,-418.84C201.81,-420.57 216.93,-422.08 231.18,-423 342.81,-430.2 475.29,-426.84 538.07,-424.54"/>
<polygon fill="black" stroke="black" points="538.39,-428.03 548.25,-424.15 538.12,-421.03 538.39,-428.03"/>
<text text-anchor="middle" x="304.68" y="-430.8" font-family="Times,serif" font-size="14.00">member</text>
</g>
<!-- &quot;Description of org ....&quot; -->
<g id="node14" class="node">
<title>&quot;Description of org ....&quot;</title>
<ellipse fill="none" stroke="black" stroke-width="0" cx="575.57" cy="-369" rx="118.08" ry="18"/>
<text text-anchor="middle" x="575.57" y="-365.3" font-family="Times,serif" font-size="14.00">&quot;Description of org ....&quot;</text>
</g>
<!-- example.org/id/org/x&#45;&gt;&quot;Description of org ....&quot; -->
<g id="edge12" class="edge">
<title>example.org/id/org/x&#45;&gt;&quot;Description of org ....&quot;</title>
<path fill="none" stroke="black" d="M177.97,-393.55C195.31,-390.65 213.87,-387.89 231.18,-386 302.71,-378.18 383.02,-373.96 447.97,-371.67"/>
<polygon fill="black" stroke="black" points="448.39,-375.16 458.26,-371.32 448.15,-368.17 448.39,-375.16"/>
<text text-anchor="middle" x="304.68" y="-389.8" font-family="Times,serif" font-size="14.00">description</text>
</g>
<!-- &quot;secretariat(at)examp...&quot; -->
<g id="node15" class="node">
<title>&quot;secretariat(at)examp...&quot;</title>
<ellipse fill="none" stroke="black" stroke-width="0" cx="575.57" cy="-315" rx="126.18" ry="18"/>
<text text-anchor="middle" x="575.57" y="-311.3" font-family="Times,serif" font-size="14.00">&quot;secretariat(at)examp...&quot;</text>
</g>
<!-- example.org/id/org/x&#45;&gt;&quot;secretariat(at)examp...&quot; -->
<g id="edge13" class="edge">
<title>example.org/id/org/x&#45;&gt;&quot;secretariat(at)examp...&quot;</title>
<path fill="none" stroke="black" d="M141.88,-389.88C166.21,-378.48 199.96,-364.14 231.18,-356 301.08,-337.77 381.12,-327.62 446.33,-321.98"/>
<polygon fill="black" stroke="black" points="447,-325.44 456.67,-321.12 446.41,-318.46 447,-325.44"/>
<text text-anchor="middle" x="304.68" y="-359.8" font-family="Times,serif" font-size="14.00">email</text>
</g>
<!-- grid.ac/institutes/grid.475727.4 -->
<g id="node16" class="node">
<title>grid.ac/institutes/grid.475727.4</title>
<ellipse fill="none" stroke="#558855" cx="575.57" cy="-180" rx="159.47" ry="18"/>
<text text-anchor="middle" x="575.57" y="-176.3" font-family="Times,serif" font-size="14.00">grid.ac/institutes/grid.475727.4</text>
</g>
<!-- example.org/id/org/x&#45;&gt;grid.ac/institutes/grid.475727.4 -->
<g id="edge14" class="edge">
<title>example.org/id/org/x&#45;&gt;grid.ac/institutes/grid.475727.4</title>
<path fill="none" stroke="black" d="M126.84,-389.07C150.12,-368.14 191.16,-333.51 231.18,-311 321.07,-260.43 434.35,-221.49 505.65,-199.66"/>
<polygon fill="black" stroke="black" points="506.87,-202.95 515.42,-196.69 504.83,-196.25 506.87,-202.95"/>
<text text-anchor="middle" x="304.68" y="-314.8" font-family="Times,serif" font-size="14.00">identifier</text>
</g>
<!-- &quot;Organization X&quot; -->
<g id="node17" class="node">
<title>&quot;Organization X&quot;</title>
<ellipse fill="none" stroke="black" stroke-width="0" cx="575.57" cy="-126" rx="89.08" ry="18"/>
<text text-anchor="middle" x="575.57" y="-122.3" font-family="Times,serif" font-size="14.00">&quot;Organization X&quot;</text>
</g>
<!-- example.org/id/org/x&#45;&gt;&quot;Organization X&quot; -->
<g id="edge16" class="edge">
<title>example.org/id/org/x&#45;&gt;&quot;Organization X&quot;</title>
<path fill="none" stroke="black" d="M115.49,-388.9C132.03,-352.9 173.6,-271.68 231.18,-224 301.64,-165.66 404.96,-142.01 479.85,-132.45"/>
<polygon fill="black" stroke="black" points="480.72,-135.87 490.22,-131.19 479.87,-128.92 480.72,-135.87"/>
<text text-anchor="middle" x="304.68" y="-227.8" font-family="Times,serif" font-size="14.00">name</text>
</g>
<!-- &quot;( 33 1) 42 68 53 00&quot; -->
<g id="node18" class="node">
<title>&quot;( 33 1) 42 68 53 00&quot;</title>
<ellipse fill="none" stroke="black" stroke-width="0" cx="575.57" cy="-72" rx="108.58" ry="18"/>
<text text-anchor="middle" x="575.57" y="-68.3" font-family="Times,serif" font-size="14.00">&quot;( 33 1) 42 68 53 00&quot;</text>
</g>
<!-- example.org/id/org/x&#45;&gt;&quot;( 33 1) 42 68 53 00&quot; -->
<g id="edge20" class="edge">
<title>example.org/id/org/x&#45;&gt;&quot;( 33 1) 42 68 53 00&quot;</title>
<path fill="none" stroke="black" d="M110.06,-388.87C117.82,-339.32 146.45,-200.84 231.18,-133 296.19,-80.95 390.45,-67.22 463.78,-65.66"/>
<polygon fill="black" stroke="black" points="464.03,-69.16 473.98,-65.52 463.93,-62.16 464.03,-69.16"/>
<text text-anchor="middle" x="304.68" y="-136.8" font-family="Times,serif" font-size="14.00">telephone</text>
</g>
<!-- _&#45;&gt;Organization -->
<g id="edge25" class="edge">
<title>_&#45;&gt;Organization</title>
<path fill="none" stroke="black" d="M599,-432.13C635.23,-446.7 709.01,-475.62 772.95,-496 830.37,-514.3 845.28,-517.24 903.95,-531 925.72,-536.1 949.62,-541.12 971.11,-545.42"/>
<polygon fill="black" stroke="black" points="970.63,-548.89 981.12,-547.4 971.99,-542.02 970.63,-548.89"/>
<text text-anchor="middle" x="829.45" y="-529.8" font-family="Times,serif" font-size="14.00">type</text>
</g>
<!-- &quot;Org A is a potential...&quot; -->
<g id="node23" class="node">
<title>&quot;Org A is a potential...&quot;</title>
<ellipse fill="none" stroke="black" stroke-width="0" cx="1038.49" cy="-504" rx="118.08" ry="18"/>
<text text-anchor="middle" x="1038.49" y="-500.3" font-family="Times,serif" font-size="14.00">&quot;Org A is a potential...&quot;</text>
</g>
<!-- _&#45;&gt;&quot;Org A is a potential...&quot; -->
<g id="edge26" class="edge">
<title>_&#45;&gt;&quot;Org A is a potential...&quot;</title>
<path fill="none" stroke="black" d="M601.66,-427.71C638.98,-434.68 711.34,-448.11 772.95,-459 831.23,-469.3 896.8,-480.46 948.09,-489.09"/>
<polygon fill="black" stroke="black" points="947.71,-492.57 958.15,-490.78 948.87,-485.67 947.71,-492.57"/>
<text text-anchor="middle" x="829.45" y="-480.8" font-family="Times,serif" font-size="14.00">description</text>
</g>
<!-- &quot;Organization A&quot; -->
<g id="node24" class="node">
<title>&quot;Organization A&quot;</title>
<ellipse fill="none" stroke="black" stroke-width="0" cx="1038.49" cy="-450" rx="89.08" ry="18"/>
<text text-anchor="middle" x="1038.49" y="-446.3" font-family="Times,serif" font-size="14.00">&quot;Organization A&quot;</text>
</g>
<!-- _&#45;&gt;&quot;Organization A&quot; -->
<g id="edge27" class="edge">
<title>_&#45;&gt;&quot;Organization A&quot;</title>
<path fill="none" stroke="black" d="M602.67,-424.53C666.87,-428.29 835.04,-438.14 942.43,-444.43"/>
<polygon fill="black" stroke="black" points="942.44,-447.94 952.63,-445.03 942.85,-440.95 942.44,-447.94"/>
<text text-anchor="middle" x="829.45" y="-443.8" font-family="Times,serif" font-size="14.00">name</text>
</g>
<!-- PostalAddress -->
<g id="node25" class="node">
<title>PostalAddress</title>
<ellipse fill="none" stroke="#558855" cx="1038.49" cy="-396" rx="76.89" ry="18"/>
<text text-anchor="middle" x="1038.49" y="-392.3" font-family="Times,serif" font-size="14.00">PostalAddress</text>
</g>
<!-- _&#45;&gt;PostalAddress -->
<g id="edge28" class="edge">
<title>_&#45;&gt;PostalAddress</title>
<path fill="none" stroke="black" d="M602.67,-421.47C669.18,-417.58 847.26,-407.14 953.76,-400.9"/>
<polygon fill="black" stroke="black" points="954.06,-404.39 963.84,-400.31 953.65,-397.41 954.06,-404.39"/>
<text text-anchor="middle" x="829.45" y="-414.8" font-family="Times,serif" font-size="14.00">type</text>
</g>
<!-- &quot;Paris, France&quot; -->
<g id="node26" class="node">
<title>&quot;Paris, France&quot;</title>
<ellipse fill="none" stroke="black" stroke-width="0" cx="1038.49" cy="-342" rx="81.49" ry="18"/>
<text text-anchor="middle" x="1038.49" y="-338.3" font-family="Times,serif" font-size="14.00">&quot;Paris, France&quot;</text>
</g>
<!-- _&#45;&gt;&quot;Paris, France&quot; -->
<g id="edge29" class="edge">
<title>_&#45;&gt;&quot;Paris, France&quot;</title>
<path fill="none" stroke="black" d="M602.65,-421.95C638.02,-419.88 702.77,-413.79 754.95,-396 763.61,-393.05 764.31,-389.02 772.95,-386 830.66,-365.85 898.75,-354.79 951.4,-348.81"/>
<polygon fill="black" stroke="black" points="951.82,-352.28 961.38,-347.71 951.06,-345.32 951.82,-352.28"/>
<text text-anchor="middle" x="829.45" y="-389.8" font-family="Times,serif" font-size="14.00">addressLocality</text>
</g>
<!-- &quot;F&#45;75002&quot; -->
<g id="node27" class="node">
<title>&quot;F&#45;75002&quot;</title>
<ellipse fill="none" stroke="black" stroke-width="0" cx="1038.49" cy="-288" rx="57.69" ry="18"/>
<text text-anchor="middle" x="1038.49" y="-284.3" font-family="Times,serif" font-size="14.00">&quot;F&#45;75002&quot;</text>
</g>
<!-- _&#45;&gt;&quot;F&#45;75002&quot; -->
<g id="edge30" class="edge">
<title>_&#45;&gt;&quot;F&#45;75002&quot;</title>
<path fill="none" stroke="black" d="M602.09,-426.83C640.08,-431.01 711.65,-432.84 754.95,-396 774.86,-379.06 753.42,-357.37 772.95,-340 827.22,-291.73 912.9,-282.87 971.97,-283.38"/>
<polygon fill="black" stroke="black" points="972.25,-286.89 982.31,-283.57 972.37,-279.89 972.25,-286.89"/>
<text text-anchor="middle" x="829.45" y="-343.8" font-family="Times,serif" font-size="14.00">postalCode</text>
</g>
<!-- &quot;38 avenue de l&#39;Opera&quot; -->
<g id="node28" class="node">
<title>&quot;38 avenue de l&#39;Opera&quot;</title>
<ellipse fill="none" stroke="black" stroke-width="0" cx="1038.49" cy="-234" rx="118.08" ry="18"/>
<text text-anchor="middle" x="1038.49" y="-230.3" font-family="Times,serif" font-size="14.00">&quot;38 avenue de l&#39;Opera&quot;</text>
</g>
<!-- _&#45;&gt;&quot;38 avenue de l&#39;Opera&quot; -->
<g id="edge31" class="edge">
<title>_&#45;&gt;&quot;38 avenue de l&#39;Opera&quot;</title>
<path fill="none" stroke="black" d="M601.96,-427.59C640.76,-433 714.56,-436.68 754.95,-396 794.49,-356.17 733.18,-310.61 772.95,-271 816.34,-227.78 885.37,-219.31 942.03,-221.23"/>
<polygon fill="black" stroke="black" points="941.95,-224.73 952.1,-221.69 942.27,-217.74 941.95,-224.73"/>
<text text-anchor="middle" x="829.45" y="-274.8" font-family="Times,serif" font-size="14.00">streetAddress</text>
</g>
<!-- PropertyValue -->
<g id="node19" class="node">
<title>PropertyValue</title>
<ellipse fill="none" stroke="#558855" cx="1038.49" cy="-18" rx="77.19" ry="18"/>
<text text-anchor="middle" x="1038.49" y="-14.3" font-family="Times,serif" font-size="14.00">PropertyValue</text>
</g>
<!-- grid.ac/institutes/grid.475727.4&#45;&gt;PropertyValue -->
<g id="edge21" class="edge">
<title>grid.ac/institutes/grid.475727.4&#45;&gt;PropertyValue</title>
<path fill="none" stroke="black" d="M722.96,-172.89C734.64,-167.99 745.54,-161.5 754.95,-153 778.79,-131.47 750.59,-106.06 772.95,-83 815.15,-39.48 845.08,-59.46 903.95,-45 924.38,-39.98 946.73,-35.19 967.21,-31.07"/>
<polygon fill="black" stroke="black" points="967.97,-34.49 977.09,-29.11 966.6,-27.63 967.97,-34.49"/>
<text text-anchor="middle" x="829.45" y="-86.8" font-family="Times,serif" font-size="14.00">type</text>
</g>
<!-- &quot;UN Department of Eco...&quot; -->
<g id="node20" class="node">
<title>&quot;UN Department of Eco...&quot;</title>
<ellipse fill="none" stroke="black" stroke-width="0" cx="1038.49" cy="-180" rx="134.58" ry="18"/>
<text text-anchor="middle" x="1038.49" y="-176.3" font-family="Times,serif" font-size="14.00">&quot;UN Department of Eco...&quot;</text>
</g>
<!-- grid.ac/institutes/grid.475727.4&#45;&gt;&quot;UN Department of Eco...&quot; -->
<g id="edge22" class="edge">
<title>grid.ac/institutes/grid.475727.4&#45;&gt;&quot;UN Department of Eco...&quot;</title>
<path fill="none" stroke="black" d="M734.87,-180C786.29,-180 843.04,-180 893.38,-180"/>
<polygon fill="black" stroke="black" points="893.68,-183.5 903.68,-180 893.68,-176.5 893.68,-183.5"/>
<text text-anchor="middle" x="829.45" y="-183.8" font-family="Times,serif" font-size="14.00">description</text>
</g>
<!-- &quot;https//registry.iden...&quot; -->
<g id="node21" class="node">
<title>&quot;https//registry.iden...&quot;</title>
<ellipse fill="none" stroke="black" stroke-width="0" cx="1038.49" cy="-126" rx="116.98" ry="18"/>
<text text-anchor="middle" x="1038.49" y="-122.3" font-family="Times,serif" font-size="14.00">&quot;https//registry.iden...&quot;</text>
</g>
<!-- grid.ac/institutes/grid.475727.4&#45;&gt;&quot;https//registry.iden...&quot; -->
<g id="edge23" class="edge">
<title>grid.ac/institutes/grid.475727.4&#45;&gt;&quot;https//registry.iden...&quot;</title>
<path fill="none" stroke="black" d="M686.67,-167.1C761.96,-158.28 861.06,-146.67 934.72,-138.04"/>
<polygon fill="black" stroke="black" points="935.42,-141.48 944.94,-136.84 934.61,-134.53 935.42,-141.48"/>
<text text-anchor="middle" x="829.45" y="-159.8" font-family="Times,serif" font-size="14.00">propertyID</text>
</g>
<!-- &quot;https//grid.ac/insti...&quot; -->
<g id="node22" class="node">
<title>&quot;https//grid.ac/insti...&quot;</title>
<ellipse fill="none" stroke="black" stroke-width="0" cx="1038.49" cy="-72" rx="114.28" ry="18"/>
<text text-anchor="middle" x="1038.49" y="-68.3" font-family="Times,serif" font-size="14.00">&quot;https//grid.ac/insti...&quot;</text>
</g>
<!-- grid.ac/institutes/grid.475727.4&#45;&gt;&quot;https//grid.ac/insti...&quot; -->
<g id="edge24" class="edge">
<title>grid.ac/institutes/grid.475727.4&#45;&gt;&quot;https//grid.ac/insti...&quot;</title>
<path fill="none" stroke="black" d="M714.74,-171.05C728.95,-166.68 742.66,-160.82 754.95,-153 767.12,-145.26 760.99,-134.06 772.95,-126 822.25,-92.78 845.7,-110.89 903.95,-99 921.09,-95.5 939.48,-91.77 956.96,-88.23"/>
<polygon fill="black" stroke="black" points="958.03,-91.59 967.13,-86.17 956.64,-84.73 958.03,-91.59"/>
<text text-anchor="middle" x="829.45" y="-129.8" font-family="Times,serif" font-size="14.00">url</text>
</g>
</g>
</svg>
