<?xml version="1.0" encoding="UTF-8" standalone="no"?>
<!DOCTYPE svg PUBLIC "-//W3C//DTD SVG 1.1//EN"
 "http://www.w3.org/Graphics/SVG/1.1/DTD/svg11.dtd">
<!-- Generated by graphviz version 2.43.0 (0)
 -->
<!-- Title: %3 Pages: 1 -->
<svg width="1197pt" height="314pt"
 viewBox="0.00 0.00 1196.62 314.00" xmlns="http://www.w3.org/2000/svg" xmlns:xlink="http://www.w3.org/1999/xlink">
<g id="graph0" class="graph" transform="scale(1 1) rotate(0) translate(4 310)">
<title>%3</title>
<polygon fill="white" stroke="transparent" points="-4,4 -4,-310 1192.62,-310 1192.62,4 -4,4"/>
<!-- Dataset -->
<g id="node1" class="node">
<title>Dataset</title>
<ellipse fill="none" stroke="#558855" cx="759.05" cy="-273" rx="46.59" ry="18"/>
<text text-anchor="middle" x="759.05" y="-269.3" font-family="Times,serif" font-size="14.00">Dataset</text>
</g>
<!-- obis.org/dataset/dcbb8f12&#45;c869&#45;4d31&#45;aa8b&#45;23abb27898ce -->
<g id="node2" class="node">
<title>obis.org/dataset/dcbb8f12&#45;c869&#45;4d31&#45;aa8b&#45;23abb27898ce</title>
<ellipse fill="none" stroke="black" cx="280.13" cy="-213" rx="280.25" ry="18"/>
<text text-anchor="middle" x="280.13" y="-209.3" font-family="Times,serif" font-size="14.00">obis.org/dataset/dcbb8f12&#45;c869&#45;4d31&#45;aa8b&#45;23abb27898ce</text>
</g>
<!-- obis.org/dataset/dcbb8f12&#45;c869&#45;4d31&#45;aa8b&#45;23abb27898ce&#45;&gt;Dataset -->
<g id="edge1" class="edge">
<title>obis.org/dataset/dcbb8f12&#45;c869&#45;4d31&#45;aa8b&#45;23abb27898ce&#45;&gt;Dataset</title>
<path fill="none" stroke="black" d="M408.62,-229.04C505.14,-241.18 632.87,-257.25 704.12,-266.22"/>
<polygon fill="black" stroke="black" points="703.85,-269.71 714.21,-267.48 704.72,-262.76 703.85,-269.71"/>
<text text-anchor="middle" x="636.25" y="-267.8" font-family="Times,serif" font-size="14.00">type</text>
</g>
<!-- _ -->
<g id="node3" class="node">
<title>_</title>
<ellipse fill="none" stroke="#558855" cx="759.05" cy="-153" rx="27" ry="18"/>
<text text-anchor="middle" x="759.05" y="-149.3" font-family="Times,serif" font-size="14.00">_</text>
</g>
<!-- obis.org/dataset/dcbb8f12&#45;c869&#45;4d31&#45;aa8b&#45;23abb27898ce&#45;&gt;_ -->
<g id="edge2" class="edge">
<title>obis.org/dataset/dcbb8f12&#45;c869&#45;4d31&#45;aa8b&#45;23abb27898ce&#45;&gt;_</title>
<path fill="none" stroke="black" d="M408.62,-196.96C513.95,-183.71 656.47,-165.78 722.16,-157.51"/>
<polygon fill="black" stroke="black" points="722.91,-160.95 732.4,-156.23 722.04,-154 722.91,-160.95"/>
<text text-anchor="middle" x="636.25" y="-177.8" font-family="Times,serif" font-size="14.00">spatialCoverage</text>
</g>
<!-- _&#45;&gt;_ -->
<g id="edge7" class="edge">
<title>_&#45;&gt;_</title>
<path fill="none" stroke="black" d="M749.83,-170.04C747.95,-179.86 751.02,-189 759.05,-189 764.06,-189 767.14,-185.43 768.29,-180.35"/>
<polygon fill="black" stroke="black" points="771.79,-180.03 768.26,-170.04 764.79,-180.05 771.79,-180.03"/>
<text text-anchor="middle" x="759.05" y="-192.8" font-family="Times,serif" font-size="14.00">additionalProperty</text>
</g>
<!-- _&#45;&gt;_ -->
<g id="edge8" class="edge">
<title>_&#45;&gt;_</title>
<path fill="none" stroke="black" d="M744.73,-168.48C734.57,-186.33 739.34,-207 759.05,-207 775.36,-207 781.44,-192.82 777.28,-177.81"/>
<polygon fill="black" stroke="black" points="780.46,-176.35 773.36,-168.48 774,-179.05 780.46,-176.35"/>
<text text-anchor="middle" x="759.05" y="-210.8" font-family="Times,serif" font-size="14.00">geo</text>
</g>
<!-- PropertyValue -->
<g id="node4" class="node">
<title>PropertyValue</title>
<ellipse fill="none" stroke="#558855" cx="1054.73" cy="-288" rx="77.19" ry="18"/>
<text text-anchor="middle" x="1054.73" y="-284.3" font-family="Times,serif" font-size="14.00">PropertyValue</text>
</g>
<!-- _&#45;&gt;PropertyValue -->
<g id="edge3" class="edge">
<title>_&#45;&gt;PropertyValue</title>
<path fill="none" stroke="black" d="M771.23,-169.43C782.77,-185.31 802.12,-209.09 823.84,-224 868.31,-254.53 927.01,-270.56 973.96,-278.94"/>
<polygon fill="black" stroke="black" points="973.65,-282.44 984.1,-280.66 974.83,-275.54 973.65,-282.44"/>
<text text-anchor="middle" x="863.34" y="-263.8" font-family="Times,serif" font-size="14.00">type</text>
</g>
<!-- &quot;http//dbpedia.org/re...&quot; -->
<g id="node5" class="node">
<title>&quot;http//dbpedia.org/re...&quot;</title>
<ellipse fill="none" stroke="black" stroke-width="0" cx="1054.73" cy="-234" rx="122.38" ry="18"/>
<text text-anchor="middle" x="1054.73" y="-230.3" font-family="Times,serif" font-size="14.00">&quot;http//dbpedia.org/re...&quot;</text>
</g>
<!-- _&#45;&gt;&quot;http//dbpedia.org/re...&quot; -->
<g id="edge4" class="edge">
<title>_&#45;&gt;&quot;http//dbpedia.org/re...&quot;</title>
<path fill="none" stroke="black" d="M780.24,-164.23C792.55,-170.71 808.76,-178.62 823.84,-184 867.38,-199.53 917.36,-211.1 959.56,-219.18"/>
<polygon fill="black" stroke="black" points="959.09,-222.65 969.56,-221.05 960.38,-215.77 959.09,-222.65"/>
<text text-anchor="middle" x="863.34" y="-208.8" font-family="Times,serif" font-size="14.00">propertyID</text>
</g>
<!-- &quot;http//www.w3.org/200...&quot; -->
<g id="node6" class="node">
<title>&quot;http//www.w3.org/200...&quot;</title>
<ellipse fill="none" stroke="black" stroke-width="0" cx="1054.73" cy="-180" rx="131.88" ry="18"/>
<text text-anchor="middle" x="1054.73" y="-176.3" font-family="Times,serif" font-size="14.00">&quot;http//www.w3.org/200...&quot;</text>
</g>
<!-- _&#45;&gt;&quot;http//www.w3.org/200...&quot; -->
<g id="edge5" class="edge">
<title>_&#45;&gt;&quot;http//www.w3.org/200...&quot;</title>
<path fill="none" stroke="black" d="M785.85,-155.37C819.25,-158.44 879.72,-164 934.76,-169.06"/>
<polygon fill="black" stroke="black" points="934.68,-172.57 944.96,-170 935.33,-165.6 934.68,-172.57"/>
<text text-anchor="middle" x="863.34" y="-168.8" font-family="Times,serif" font-size="14.00">value</text>
</g>
<!-- Place -->
<g id="node7" class="node">
<title>Place</title>
<ellipse fill="none" stroke="#558855" cx="1054.73" cy="-126" rx="36" ry="18"/>
<text text-anchor="middle" x="1054.73" y="-122.3" font-family="Times,serif" font-size="14.00">Place</text>
</g>
<!-- _&#45;&gt;Place -->
<g id="edge6" class="edge">
<title>_&#45;&gt;Place</title>
<path fill="none" stroke="black" d="M784.75,-147.12C796.52,-144.54 810.84,-141.71 823.84,-140 887.79,-131.58 962.42,-128.21 1008.88,-126.87"/>
<polygon fill="black" stroke="black" points="1009.02,-130.37 1018.92,-126.6 1008.83,-123.37 1009.02,-130.37"/>
<text text-anchor="middle" x="863.34" y="-143.8" font-family="Times,serif" font-size="14.00">type</text>
</g>
<!-- GeoShape -->
<g id="node8" class="node">
<title>GeoShape</title>
<ellipse fill="none" stroke="#558855" cx="1054.73" cy="-72" rx="57.69" ry="18"/>
<text text-anchor="middle" x="1054.73" y="-68.3" font-family="Times,serif" font-size="14.00">GeoShape</text>
</g>
<!-- _&#45;&gt;GeoShape -->
<g id="edge9" class="edge">
<title>_&#45;&gt;GeoShape</title>
<path fill="none" stroke="black" d="M777.22,-139.67C789.54,-130.77 806.89,-119.54 823.84,-113 877.05,-92.47 941.2,-82.12 988.2,-76.97"/>
<polygon fill="black" stroke="black" points="988.68,-80.43 998.26,-75.91 987.95,-73.47 988.68,-80.43"/>
<text text-anchor="middle" x="863.34" y="-116.8" font-family="Times,serif" font-size="14.00">type</text>
</g>
<!-- &quot;142.014 10.161667,14...&quot; -->
<g id="node9" class="node">
<title>&quot;142.014 10.161667,14...&quot;</title>
<ellipse fill="none" stroke="black" stroke-width="0" cx="1054.73" cy="-18" rx="133.78" ry="18"/>
<text text-anchor="middle" x="1054.73" y="-14.3" font-family="Times,serif" font-size="14.00">&quot;142.014 10.161667,14...&quot;</text>
</g>
<!-- _&#45;&gt;&quot;142.014 10.161667,14...&quot; -->
<g id="edge10" class="edge">
<title>_&#45;&gt;&quot;142.014 10.161667,14...&quot;</title>
<path fill="none" stroke="black" d="M768.99,-136.11C779.63,-117.64 799.11,-88.47 823.84,-72 855.87,-50.67 895.32,-37.72 932.43,-29.87"/>
<polygon fill="black" stroke="black" points="933.21,-33.29 942.32,-27.89 931.83,-26.43 933.21,-33.29"/>
<text text-anchor="middle" x="863.34" y="-75.8" font-family="Times,serif" font-size="14.00">polygon</text>
</g>
</g>
</svg>
