<?xml version="1.0" encoding="UTF-8" standalone="no"?>
<!DOCTYPE svg PUBLIC "-//W3C//DTD SVG 1.1//EN"
 "http://www.w3.org/Graphics/SVG/1.1/DTD/svg11.dtd">
<!-- Generated by graphviz version 2.43.0 (0)
 -->
<!-- Title: %3 Pages: 1 -->
<svg width="1137pt" height="746pt"
 viewBox="0.00 0.00 1137.33 746.00" xmlns="http://www.w3.org/2000/svg" xmlns:xlink="http://www.w3.org/1999/xlink">
<g id="graph0" class="graph" transform="scale(1 1) rotate(0) translate(4 742)">
<title>%3</title>
<polygon fill="white" stroke="transparent" points="-4,4 -4,-742 1133.33,-742 1133.33,4 -4,4"/>
<!-- CreativeWork -->
<g id="node1" class="node">
<title>CreativeWork</title>
<ellipse fill="none" stroke="#558855" cx="995.44" cy="-720" rx="74.19" ry="18"/>
<text text-anchor="middle" x="995.44" y="-716.3" font-family="Times,serif" font-size="14.00">CreativeWork</text>
</g>
<!-- purl.unep.org/sdg/SDGIO_00020173 -->
<g id="node2" class="node">
<title>purl.unep.org/sdg/SDGIO_00020173</title>
<ellipse fill="none" stroke="#558855" cx="565.17" cy="-558" rx="179.27" ry="18"/>
<text text-anchor="middle" x="565.17" y="-554.3" font-family="Times,serif" font-size="14.00">purl.unep.org/sdg/SDGIO_00020173</text>
</g>
<!-- purl.unep.org/sdg/SDGIO_00020173&#45;&gt;CreativeWork -->
<g id="edge1" class="edge">
<title>purl.unep.org/sdg/SDGIO_00020173&#45;&gt;CreativeWork</title>
<path fill="none" stroke="black" d="M597.85,-575.89C650.77,-604.97 761.25,-662.35 861.55,-693 881.29,-699.03 903.1,-704.1 923.24,-708.16"/>
<polygon fill="black" stroke="black" points="922.81,-711.64 933.29,-710.12 924.15,-704.77 922.81,-711.64"/>
<text text-anchor="middle" x="803.05" y="-687.8" font-family="Times,serif" font-size="14.00">type</text>
</g>
<!-- &quot;Number of countries ...&quot; -->
<g id="node3" class="node">
<title>&quot;Number of countries ...&quot;</title>
<ellipse fill="none" stroke="black" stroke-width="0" cx="995.44" cy="-666" rx="127.28" ry="18"/>
<text text-anchor="middle" x="995.44" y="-662.3" font-family="Times,serif" font-size="14.00">&quot;Number of countries ...&quot;</text>
</g>
<!-- purl.unep.org/sdg/SDGIO_00020173&#45;&gt;&quot;Number of countries ...&quot; -->
<g id="edge2" class="edge">
<title>purl.unep.org/sdg/SDGIO_00020173&#45;&gt;&quot;Number of countries ...&quot;</title>
<path fill="none" stroke="black" d="M623.88,-575.06C683.21,-592.31 778.4,-619.18 861.55,-639 876.67,-642.61 892.84,-646.15 908.5,-649.42"/>
<polygon fill="black" stroke="black" points="908.2,-652.93 918.7,-651.53 909.61,-646.08 908.2,-652.93"/>
<text text-anchor="middle" x="803.05" y="-636.8" font-family="Times,serif" font-size="14.00">description</text>
</g>
<!-- &quot;FAIR data principles&quot; -->
<g id="node4" class="node">
<title>&quot;FAIR data principles&quot;</title>
<ellipse fill="none" stroke="black" stroke-width="0" cx="995.44" cy="-612" rx="113.98" ry="18"/>
<text text-anchor="middle" x="995.44" y="-608.3" font-family="Times,serif" font-size="14.00">&quot;FAIR data principles&quot;</text>
</g>
<!-- purl.unep.org/sdg/SDGIO_00020173&#45;&gt;&quot;FAIR data principles&quot; -->
<g id="edge3" class="edge">
<title>purl.unep.org/sdg/SDGIO_00020173&#45;&gt;&quot;FAIR data principles&quot;</title>
<path fill="none" stroke="black" d="M677.57,-572.05C745.09,-580.56 830.47,-591.33 895.58,-599.54"/>
<polygon fill="black" stroke="black" points="895.49,-603.05 905.85,-600.83 896.37,-596.11 895.49,-603.05"/>
<text text-anchor="middle" x="803.05" y="-594.8" font-family="Times,serif" font-size="14.00">name</text>
</g>
<!-- &quot;UNSD SDG indicator c...&quot; -->
<g id="node5" class="node">
<title>&quot;UNSD SDG indicator c...&quot;</title>
<ellipse fill="none" stroke="black" stroke-width="0" cx="995.44" cy="-558" rx="133.78" ry="18"/>
<text text-anchor="middle" x="995.44" y="-554.3" font-family="Times,serif" font-size="14.00">&quot;UNSD SDG indicator c...&quot;</text>
</g>
<!-- purl.unep.org/sdg/SDGIO_00020173&#45;&gt;&quot;UNSD SDG indicator c...&quot; -->
<g id="edge4" class="edge">
<title>purl.unep.org/sdg/SDGIO_00020173&#45;&gt;&quot;UNSD SDG indicator c...&quot;</title>
<path fill="none" stroke="black" d="M744.69,-558C780.2,-558 817.06,-558 851.21,-558"/>
<polygon fill="black" stroke="black" points="851.23,-561.5 861.23,-558 851.23,-554.5 851.23,-561.5"/>
<text text-anchor="middle" x="803.05" y="-561.8" font-family="Times,serif" font-size="14.00">name</text>
</g>
<!-- &quot;http//www.ontobee.or...&quot; -->
<g id="node6" class="node">
<title>&quot;http//www.ontobee.or...&quot;</title>
<ellipse fill="none" stroke="black" stroke-width="0" cx="995.44" cy="-504" rx="128.08" ry="18"/>
<text text-anchor="middle" x="995.44" y="-500.3" font-family="Times,serif" font-size="14.00">&quot;http//www.ontobee.or...&quot;</text>
</g>
<!-- purl.unep.org/sdg/SDGIO_00020173&#45;&gt;&quot;http//www.ontobee.or...&quot; -->
<g id="edge5" class="edge">
<title>purl.unep.org/sdg/SDGIO_00020173&#45;&gt;&quot;http//www.ontobee.or...&quot;</title>
<path fill="none" stroke="black" d="M677.57,-543.95C742.97,-535.71 825.13,-525.35 889.4,-517.24"/>
<polygon fill="black" stroke="black" points="890.07,-520.69 899.55,-515.96 889.19,-513.74 890.07,-520.69"/>
<text text-anchor="middle" x="803.05" y="-535.8" font-family="Times,serif" font-size="14.00">url</text>
</g>
<!-- PropertyValue -->
<g id="node7" class="node">
<title>PropertyValue</title>
<ellipse fill="none" stroke="#558855" cx="995.44" cy="-450" rx="77.19" ry="18"/>
<text text-anchor="middle" x="995.44" y="-446.3" font-family="Times,serif" font-size="14.00">PropertyValue</text>
</g>
<!-- doi.org/10.5066/F7VX0DMQ -->
<g id="node8" class="node">
<title>doi.org/10.5066/F7VX0DMQ</title>
<ellipse fill="none" stroke="#558855" cx="565.17" cy="-396" rx="141.88" ry="18"/>
<text text-anchor="middle" x="565.17" y="-392.3" font-family="Times,serif" font-size="14.00">doi.org/10.5066/F7VX0DMQ</text>
</g>
<!-- doi.org/10.5066/F7VX0DMQ&#45;&gt;PropertyValue -->
<g id="edge6" class="edge">
<title>doi.org/10.5066/F7VX0DMQ&#45;&gt;PropertyValue</title>
<path fill="none" stroke="black" d="M666.31,-408.63C742.76,-418.27 846.59,-431.36 916.82,-440.21"/>
<polygon fill="black" stroke="black" points="916.57,-443.71 926.93,-441.49 917.44,-436.76 916.57,-443.71"/>
<text text-anchor="middle" x="803.05" y="-432.8" font-family="Times,serif" font-size="14.00">type</text>
</g>
<!-- &quot;https//registry.iden...&quot; -->
<g id="node9" class="node">
<title>&quot;https//registry.iden...&quot;</title>
<ellipse fill="none" stroke="black" stroke-width="0" cx="995.44" cy="-396" rx="116.98" ry="18"/>
<text text-anchor="middle" x="995.44" y="-392.3" font-family="Times,serif" font-size="14.00">&quot;https//registry.iden...&quot;</text>
</g>
<!-- doi.org/10.5066/F7VX0DMQ&#45;&gt;&quot;https//registry.iden...&quot; -->
<g id="edge7" class="edge">
<title>doi.org/10.5066/F7VX0DMQ&#45;&gt;&quot;https//registry.iden...&quot;</title>
<path fill="none" stroke="black" d="M706.99,-396C758.99,-396 817.55,-396 868.17,-396"/>
<polygon fill="black" stroke="black" points="868.19,-399.5 878.19,-396 868.19,-392.5 868.19,-399.5"/>
<text text-anchor="middle" x="803.05" y="-399.8" font-family="Times,serif" font-size="14.00">propertyID</text>
</g>
<!-- &quot;https//doi.org/10.50...&quot; -->
<g id="node10" class="node">
<title>&quot;https//doi.org/10.50...&quot;</title>
<ellipse fill="none" stroke="black" stroke-width="0" cx="995.44" cy="-342" rx="120.48" ry="18"/>
<text text-anchor="middle" x="995.44" y="-338.3" font-family="Times,serif" font-size="14.00">&quot;https//doi.org/10.50...&quot;</text>
</g>
<!-- doi.org/10.5066/F7VX0DMQ&#45;&gt;&quot;https//doi.org/10.50...&quot; -->
<g id="edge8" class="edge">
<title>doi.org/10.5066/F7VX0DMQ&#45;&gt;&quot;https//doi.org/10.50...&quot;</title>
<path fill="none" stroke="black" d="M666.31,-383.37C734.52,-374.77 824.51,-363.43 893,-354.79"/>
<polygon fill="black" stroke="black" points="893.45,-358.26 902.94,-353.54 892.58,-351.32 893.45,-358.26"/>
<text text-anchor="middle" x="803.05" y="-373.8" font-family="Times,serif" font-size="14.00">url</text>
</g>
<!-- &quot;doi10.5066/F7VX0DMQ&quot; -->
<g id="node11" class="node">
<title>&quot;doi10.5066/F7VX0DMQ&quot;</title>
<ellipse fill="none" stroke="black" stroke-width="0" cx="995.44" cy="-288" rx="129.18" ry="18"/>
<text text-anchor="middle" x="995.44" y="-284.3" font-family="Times,serif" font-size="14.00">&quot;doi10.5066/F7VX0DMQ&quot;</text>
</g>
<!-- doi.org/10.5066/F7VX0DMQ&#45;&gt;&quot;doi10.5066/F7VX0DMQ&quot; -->
<g id="edge9" class="edge">
<title>doi.org/10.5066/F7VX0DMQ&#45;&gt;&quot;doi10.5066/F7VX0DMQ&quot;</title>
<path fill="none" stroke="black" d="M621.96,-379.5C681.13,-362.28 777.5,-335.04 861.55,-315 876.58,-311.42 892.63,-307.9 908.2,-304.64"/>
<polygon fill="black" stroke="black" points="909.27,-308 918.35,-302.54 907.85,-301.14 909.27,-308"/>
<text text-anchor="middle" x="803.05" y="-342.8" font-family="Times,serif" font-size="14.00">value</text>
</g>
<!-- example.org/id/XYZ -->
<g id="node12" class="node">
<title>example.org/id/XYZ</title>
<ellipse fill="none" stroke="black" cx="101.39" cy="-482" rx="101.28" ry="18"/>
<text text-anchor="middle" x="101.39" y="-478.3" font-family="Times,serif" font-size="14.00">example.org/id/XYZ</text>
</g>
<!-- example.org/id/XYZ&#45;&gt;CreativeWork -->
<g id="edge10" class="edge">
<title>example.org/id/XYZ&#45;&gt;CreativeWork</title>
<path fill="none" stroke="black" d="M119.52,-499.74C141.13,-521.08 180.38,-556.45 220.78,-576 443.4,-683.72 518.08,-665.62 762.55,-703 811.69,-710.51 867.22,-714.73 911.62,-717.09"/>
<polygon fill="black" stroke="black" points="911.61,-720.59 921.78,-717.6 911.97,-713.6 911.61,-720.59"/>
<text text-anchor="middle" x="565.17" y="-702.8" font-family="Times,serif" font-size="14.00">type</text>
</g>
<!-- example.org/id/XYZ&#45;&gt;purl.unep.org/sdg/SDGIO_00020173 -->
<g id="edge11" class="edge">
<title>example.org/id/XYZ&#45;&gt;purl.unep.org/sdg/SDGIO_00020173</title>
<path fill="none" stroke="black" d="M132.43,-499.42C155.71,-511.98 189.23,-528.08 220.78,-536 270.21,-548.41 324.83,-554.99 375.69,-558.25"/>
<polygon fill="black" stroke="black" points="375.62,-561.75 385.81,-558.86 376.04,-554.76 375.62,-561.75"/>
<text text-anchor="middle" x="294.28" y="-560.8" font-family="Times,serif" font-size="14.00">citation</text>
</g>
<!-- example.org/id/XYZ&#45;&gt;purl.unep.org/sdg/SDGIO_00020173 -->
<g id="edge15" class="edge">
<title>example.org/id/XYZ&#45;&gt;purl.unep.org/sdg/SDGIO_00020173</title>
<path fill="none" stroke="black" d="M182.31,-492.86C195.17,-494.59 208.34,-496.36 220.78,-498 286.09,-506.63 302.82,-506.04 367.78,-517 405.29,-523.33 446.54,-531.72 481.51,-539.26"/>
<polygon fill="black" stroke="black" points="481.16,-542.77 491.67,-541.47 482.64,-535.93 481.16,-542.77"/>
<text text-anchor="middle" x="294.28" y="-520.8" font-family="Times,serif" font-size="14.00">publishingPrinciples</text>
</g>
<!-- example.org/id/XYZ&#45;&gt;purl.unep.org/sdg/SDGIO_00020173 -->
<g id="edge16" class="edge">
<title>example.org/id/XYZ&#45;&gt;purl.unep.org/sdg/SDGIO_00020173</title>
<path fill="none" stroke="black" d="M201.87,-479.3C208.27,-479.18 214.61,-479.08 220.78,-479 286.11,-478.17 303.64,-466.58 367.78,-479 423.33,-489.75 483.09,-516.14 521.91,-535.48"/>
<polygon fill="black" stroke="black" points="520.81,-538.84 531.31,-540.22 523.96,-532.59 520.81,-538.84"/>
<text text-anchor="middle" x="294.28" y="-482.8" font-family="Times,serif" font-size="14.00">subjectOf</text>
</g>
<!-- example.org/id/XYZ&#45;&gt;doi.org/10.5066/F7VX0DMQ -->
<g id="edge12" class="edge">
<title>example.org/id/XYZ&#45;&gt;doi.org/10.5066/F7VX0DMQ</title>
<path fill="none" stroke="black" d="M160.94,-467.36C179.97,-462.81 201.22,-457.96 220.78,-454 301.97,-437.56 394.61,-422.1 463.2,-411.29"/>
<polygon fill="black" stroke="black" points="463.8,-414.74 473.14,-409.73 462.71,-407.82 463.8,-414.74"/>
<text text-anchor="middle" x="294.28" y="-457.8" font-family="Times,serif" font-size="14.00">identifier</text>
</g>
<!-- www.sample&#45;data&#45;repository.org -->
<g id="node13" class="node">
<title>www.sample&#45;data&#45;repository.org</title>
<ellipse fill="none" stroke="#558855" cx="565.17" cy="-180" rx="160.57" ry="18"/>
<text text-anchor="middle" x="565.17" y="-176.3" font-family="Times,serif" font-size="14.00">www.sample&#45;data&#45;repository.org</text>
</g>
<!-- example.org/id/XYZ&#45;&gt;www.sample&#45;data&#45;repository.org -->
<g id="edge13" class="edge">
<title>example.org/id/XYZ&#45;&gt;www.sample&#45;data&#45;repository.org</title>
<path fill="none" stroke="black" d="M129.21,-464.46C208.11,-412.86 439.41,-261.59 528.56,-203.29"/>
<polygon fill="black" stroke="black" points="530.53,-206.18 536.98,-197.78 526.69,-200.32 530.53,-206.18"/>
<text text-anchor="middle" x="294.28" y="-404.8" font-family="Times,serif" font-size="14.00">provider</text>
</g>
<!-- example.org/id/XYZ&#45;&gt;www.sample&#45;data&#45;repository.org -->
<g id="edge14" class="edge">
<title>example.org/id/XYZ&#45;&gt;www.sample&#45;data&#45;repository.org</title>
<path fill="none" stroke="black" d="M108.79,-464.01C123,-426.6 160.74,-340.04 220.78,-293 288.49,-239.95 382.12,-211.32 454.51,-196.16"/>
<polygon fill="black" stroke="black" points="455.48,-199.53 464.58,-194.11 454.08,-192.68 455.48,-199.53"/>
<text text-anchor="middle" x="294.28" y="-296.8" font-family="Times,serif" font-size="14.00">publisher</text>
</g>
<!-- Organization -->
<g id="node14" class="node">
<title>Organization</title>
<ellipse fill="none" stroke="#558855" cx="995.44" cy="-234" rx="70.69" ry="18"/>
<text text-anchor="middle" x="995.44" y="-230.3" font-family="Times,serif" font-size="14.00">Organization</text>
</g>
<!-- www.sample&#45;data&#45;repository.org&#45;&gt;Organization -->
<g id="edge17" class="edge">
<title>www.sample&#45;data&#45;repository.org&#45;&gt;Organization</title>
<path fill="none" stroke="black" d="M672.58,-193.42C750.11,-203.19 853.1,-216.18 921.47,-224.8"/>
<polygon fill="black" stroke="black" points="921.36,-228.31 931.72,-226.09 922.23,-221.37 921.36,-228.31"/>
<text text-anchor="middle" x="803.05" y="-216.8" font-family="Times,serif" font-size="14.00">type</text>
</g>
<!-- &quot;Sample Data Reposito...&quot; -->
<g id="node15" class="node">
<title>&quot;Sample Data Reposito...&quot;</title>
<ellipse fill="none" stroke="black" stroke-width="0" cx="995.44" cy="-180" rx="131.08" ry="18"/>
<text text-anchor="middle" x="995.44" y="-176.3" font-family="Times,serif" font-size="14.00">&quot;Sample Data Reposito...&quot;</text>
</g>
<!-- www.sample&#45;data&#45;repository.org&#45;&gt;&quot;Sample Data Reposito...&quot; -->
<g id="edge18" class="edge">
<title>www.sample&#45;data&#45;repository.org&#45;&gt;&quot;Sample Data Reposito...&quot;</title>
<path fill="none" stroke="black" d="M725.94,-180C768,-180 813.04,-180 854,-180"/>
<polygon fill="black" stroke="black" points="854.04,-183.5 864.04,-180 854.04,-176.5 854.04,-183.5"/>
<text text-anchor="middle" x="803.05" y="-183.8" font-family="Times,serif" font-size="14.00">legalName</text>
</g>
<!-- &quot;SDRO&quot; -->
<g id="node16" class="node">
<title>&quot;SDRO&quot;</title>
<ellipse fill="none" stroke="black" stroke-width="0" cx="995.44" cy="-126" rx="47.39" ry="18"/>
<text text-anchor="middle" x="995.44" y="-122.3" font-family="Times,serif" font-size="14.00">&quot;SDRO&quot;</text>
</g>
<!-- www.sample&#45;data&#45;repository.org&#45;&gt;&quot;SDRO&quot; -->
<g id="edge19" class="edge">
<title>www.sample&#45;data&#45;repository.org&#45;&gt;&quot;SDRO&quot;</title>
<path fill="none" stroke="black" d="M672.58,-166.58C757.65,-155.86 873.38,-141.26 940.38,-132.82"/>
<polygon fill="black" stroke="black" points="940.82,-136.29 950.3,-131.57 939.94,-129.34 940.82,-136.29"/>
<text text-anchor="middle" x="803.05" y="-158.8" font-family="Times,serif" font-size="14.00">name</text>
</g>
<!-- &quot;http//www.re3data.or...&quot; -->
<g id="node17" class="node">
<title>&quot;http//www.re3data.or...&quot;</title>
<ellipse fill="none" stroke="black" stroke-width="0" cx="995.44" cy="-72" rx="126.98" ry="18"/>
<text text-anchor="middle" x="995.44" y="-68.3" font-family="Times,serif" font-size="14.00">&quot;http//www.re3data.or...&quot;</text>
</g>
<!-- www.sample&#45;data&#45;repository.org&#45;&gt;&quot;http//www.re3data.or...&quot; -->
<g id="edge20" class="edge">
<title>www.sample&#45;data&#45;repository.org&#45;&gt;&quot;http//www.re3data.or...&quot;</title>
<path fill="none" stroke="black" d="M623.05,-163.18C682.32,-145.94 778.01,-118.92 861.55,-99 876.91,-95.34 893.35,-91.74 909.24,-88.43"/>
<polygon fill="black" stroke="black" points="909.96,-91.85 919.05,-86.4 908.55,-85 909.96,-91.85"/>
<text text-anchor="middle" x="803.05" y="-127.8" font-family="Times,serif" font-size="14.00">sameAs</text>
</g>
<!-- &quot;https//www.sample&#45;da...&quot; -->
<g id="node18" class="node">
<title>&quot;https//www.sample&#45;da...&quot;</title>
<ellipse fill="none" stroke="black" stroke-width="0" cx="995.44" cy="-18" rx="131.08" ry="18"/>
<text text-anchor="middle" x="995.44" y="-14.3" font-family="Times,serif" font-size="14.00">&quot;https//www.sample&#45;da...&quot;</text>
</g>
<!-- www.sample&#45;data&#45;repository.org&#45;&gt;&quot;https//www.sample&#45;da...&quot; -->
<g id="edge21" class="edge">
<title>www.sample&#45;data&#45;repository.org&#45;&gt;&quot;https//www.sample&#45;da...&quot;</title>
<path fill="none" stroke="black" d="M597.42,-162.35C650.18,-133.33 760.98,-75.73 861.55,-45 874.69,-40.99 888.73,-37.4 902.6,-34.25"/>
<polygon fill="black" stroke="black" points="903.63,-37.61 912.65,-32.04 902.13,-30.77 903.63,-37.61"/>
<text text-anchor="middle" x="803.05" y="-82.8" font-family="Times,serif" font-size="14.00">url</text>
</g>
</g>
</svg>
