<?xml version="1.0" encoding="UTF-8" standalone="no"?>
<!DOCTYPE svg PUBLIC "-//W3C//DTD SVG 1.1//EN"
 "http://www.w3.org/Graphics/SVG/1.1/DTD/svg11.dtd">
<!-- Generated by graphviz version 2.43.0 (0)
 -->
<!-- Title: %3 Pages: 1 -->
<svg width="1181pt" height="854pt"
 viewBox="0.00 0.00 1181.03 854.00" xmlns="http://www.w3.org/2000/svg" xmlns:xlink="http://www.w3.org/1999/xlink">
<g id="graph0" class="graph" transform="scale(1 1) rotate(0) translate(4 850)">
<title>%3</title>
<polygon fill="white" stroke="transparent" points="-4,4 -4,-850 1177.03,-850 1177.03,4 -4,4"/>
<!-- CreativeWork -->
<g id="node1" class="node">
<title>CreativeWork</title>
<ellipse fill="none" stroke="#558855" cx="1038.49" cy="-828" rx="74.19" ry="18"/>
<text text-anchor="middle" x="1038.49" y="-824.3" font-family="Times,serif" font-size="14.00">CreativeWork</text>
</g>
<!-- purl.unep.org/sdg/SDGIO_00020173 -->
<g id="node2" class="node">
<title>purl.unep.org/sdg/SDGIO_00020173</title>
<ellipse fill="none" stroke="#558855" cx="575.57" cy="-666" rx="179.27" ry="18"/>
<text text-anchor="middle" x="575.57" y="-662.3" font-family="Times,serif" font-size="14.00">purl.unep.org/sdg/SDGIO_00020173</text>
</g>
<!-- purl.unep.org/sdg/SDGIO_00020173&#45;&gt;CreativeWork -->
<g id="edge1" class="edge">
<title>purl.unep.org/sdg/SDGIO_00020173&#45;&gt;CreativeWork</title>
<path fill="none" stroke="black" d="M608.83,-683.83C647.15,-704.52 713.38,-738.76 772.95,-762 829.54,-784.08 845.01,-786.3 903.95,-801 924.86,-806.21 947.79,-811.14 968.67,-815.31"/>
<polygon fill="black" stroke="black" points="968.24,-818.8 978.73,-817.3 969.6,-811.93 968.24,-818.8"/>
<text text-anchor="middle" x="829.45" y="-799.8" font-family="Times,serif" font-size="14.00">type</text>
</g>
<!-- &quot;Number of countries ...&quot; -->
<g id="node3" class="node">
<title>&quot;Number of countries ...&quot;</title>
<ellipse fill="none" stroke="black" stroke-width="0" cx="1038.49" cy="-774" rx="127.28" ry="18"/>
<text text-anchor="middle" x="1038.49" y="-770.3" font-family="Times,serif" font-size="14.00">&quot;Number of countries ...&quot;</text>
</g>
<!-- purl.unep.org/sdg/SDGIO_00020173&#45;&gt;&quot;Number of countries ...&quot; -->
<g id="edge2" class="edge">
<title>purl.unep.org/sdg/SDGIO_00020173&#45;&gt;&quot;Number of countries ...&quot;</title>
<path fill="none" stroke="black" d="M636.52,-683.07C675.3,-693.89 726.95,-707.89 772.95,-719 830.82,-732.98 845.66,-734.88 903.95,-747 920.15,-750.37 937.48,-753.91 954.1,-757.29"/>
<polygon fill="black" stroke="black" points="953.84,-760.81 964.34,-759.36 955.23,-753.95 953.84,-760.81"/>
<text text-anchor="middle" x="829.45" y="-746.8" font-family="Times,serif" font-size="14.00">description</text>
</g>
<!-- &quot;FAIR data principles&quot; -->
<g id="node4" class="node">
<title>&quot;FAIR data principles&quot;</title>
<ellipse fill="none" stroke="black" stroke-width="0" cx="1038.49" cy="-720" rx="113.98" ry="18"/>
<text text-anchor="middle" x="1038.49" y="-716.3" font-family="Times,serif" font-size="14.00">&quot;FAIR data principles&quot;</text>
</g>
<!-- purl.unep.org/sdg/SDGIO_00020173&#45;&gt;&quot;FAIR data principles&quot; -->
<g id="edge3" class="edge">
<title>purl.unep.org/sdg/SDGIO_00020173&#45;&gt;&quot;FAIR data principles&quot;</title>
<path fill="none" stroke="black" d="M692.88,-679.63C768.01,-688.43 864.81,-699.77 936.68,-708.19"/>
<polygon fill="black" stroke="black" points="936.31,-711.67 946.65,-709.36 937.12,-704.72 936.31,-711.67"/>
<text text-anchor="middle" x="829.45" y="-703.8" font-family="Times,serif" font-size="14.00">name</text>
</g>
<!-- &quot;UNSD SDG indicator c...&quot; -->
<g id="node5" class="node">
<title>&quot;UNSD SDG indicator c...&quot;</title>
<ellipse fill="none" stroke="black" stroke-width="0" cx="1038.49" cy="-666" rx="133.78" ry="18"/>
<text text-anchor="middle" x="1038.49" y="-662.3" font-family="Times,serif" font-size="14.00">&quot;UNSD SDG indicator c...&quot;</text>
</g>
<!-- purl.unep.org/sdg/SDGIO_00020173&#45;&gt;&quot;UNSD SDG indicator c...&quot; -->
<g id="edge4" class="edge">
<title>purl.unep.org/sdg/SDGIO_00020173&#45;&gt;&quot;UNSD SDG indicator c...&quot;</title>
<path fill="none" stroke="black" d="M755.1,-666C801.14,-666 850.09,-666 894.09,-666"/>
<polygon fill="black" stroke="black" points="894.27,-669.5 904.27,-666 894.27,-662.5 894.27,-669.5"/>
<text text-anchor="middle" x="829.45" y="-669.8" font-family="Times,serif" font-size="14.00">name</text>
</g>
<!-- &quot;http//www.ontobee.or...&quot; -->
<g id="node6" class="node">
<title>&quot;http//www.ontobee.or...&quot;</title>
<ellipse fill="none" stroke="black" stroke-width="0" cx="1038.49" cy="-612" rx="128.08" ry="18"/>
<text text-anchor="middle" x="1038.49" y="-608.3" font-family="Times,serif" font-size="14.00">&quot;http//www.ontobee.or...&quot;</text>
</g>
<!-- purl.unep.org/sdg/SDGIO_00020173&#45;&gt;&quot;http//www.ontobee.or...&quot; -->
<g id="edge5" class="edge">
<title>purl.unep.org/sdg/SDGIO_00020173&#45;&gt;&quot;http//www.ontobee.or...&quot;</title>
<path fill="none" stroke="black" d="M692.88,-652.37C765.45,-643.87 858.22,-633 929.22,-624.68"/>
<polygon fill="black" stroke="black" points="930.01,-628.12 939.53,-623.48 929.2,-621.16 930.01,-628.12"/>
<text text-anchor="middle" x="829.45" y="-645.8" font-family="Times,serif" font-size="14.00">url</text>
</g>
<!-- Organization -->
<g id="node7" class="node">
<title>Organization</title>
<ellipse fill="none" stroke="#558855" cx="1038.49" cy="-558" rx="70.69" ry="18"/>
<text text-anchor="middle" x="1038.49" y="-554.3" font-family="Times,serif" font-size="14.00">Organization</text>
</g>
<!-- example.org/id/org/x -->
<g id="node8" class="node">
<title>example.org/id/org/x</title>
<ellipse fill="none" stroke="black" cx="106.59" cy="-350" rx="106.68" ry="18"/>
<text text-anchor="middle" x="106.59" y="-346.3" font-family="Times,serif" font-size="14.00">example.org/id/org/x</text>
</g>
<!-- example.org/id/org/x&#45;&gt;purl.unep.org/sdg/SDGIO_00020173 -->
<g id="edge13" class="edge">
<title>example.org/id/org/x&#45;&gt;purl.unep.org/sdg/SDGIO_00020173</title>
<path fill="none" stroke="black" d="M109.55,-368.08C116.09,-418.78 142.07,-562.84 231.18,-628 295.1,-674.73 384.4,-683.37 455.92,-680.78"/>
<polygon fill="black" stroke="black" points="456.5,-684.26 466.33,-680.32 456.19,-677.27 456.5,-684.26"/>
<text text-anchor="middle" x="304.68" y="-680.8" font-family="Times,serif" font-size="14.00">publishingPrinciples</text>
</g>
<!-- example.org/id/org/x&#45;&gt;purl.unep.org/sdg/SDGIO_00020173 -->
<g id="edge14" class="edge">
<title>example.org/id/org/x&#45;&gt;purl.unep.org/sdg/SDGIO_00020173</title>
<path fill="none" stroke="black" d="M112.33,-368.22C124.41,-410.89 160.5,-517.74 231.18,-572 284.62,-613.02 313.15,-591.39 378.18,-609 421.43,-620.72 469.77,-634.74 507.67,-645.94"/>
<polygon fill="black" stroke="black" points="506.99,-649.39 517.57,-648.87 508.98,-642.67 506.99,-649.39"/>
<text text-anchor="middle" x="304.68" y="-612.8" font-family="Times,serif" font-size="14.00">subjectOf</text>
</g>
<!-- example.org/id/org/x&#45;&gt;Organization -->
<g id="edge6" class="edge">
<title>example.org/id/org/x&#45;&gt;Organization</title>
<path fill="none" stroke="black" d="M135.09,-367.36C159.51,-382.11 196.59,-402.93 231.18,-416 462.63,-503.45 528.04,-508.88 772.95,-544 834.41,-552.81 904.61,-556.23 957.25,-557.48"/>
<polygon fill="black" stroke="black" points="957.46,-560.99 967.53,-557.7 957.61,-553.99 957.46,-560.99"/>
<text text-anchor="middle" x="575.57" y="-543.8" font-family="Times,serif" font-size="14.00">type</text>
</g>
<!-- _ -->
<g id="node9" class="node">
<title>_</title>
<ellipse fill="none" stroke="#558855" cx="575.57" cy="-396" rx="27" ry="18"/>
<text text-anchor="middle" x="575.57" y="-392.3" font-family="Times,serif" font-size="14.00">_</text>
</g>
<!-- example.org/id/org/x&#45;&gt;_ -->
<g id="edge7" class="edge">
<title>example.org/id/org/x&#45;&gt;_</title>
<path fill="none" stroke="black" d="M154.24,-366.12C177.13,-373.28 205.29,-380.98 231.18,-385 342.06,-402.21 475.4,-400.07 538.32,-397.72"/>
<polygon fill="black" stroke="black" points="538.67,-401.21 548.52,-397.31 538.39,-394.22 538.67,-401.21"/>
<text text-anchor="middle" x="304.68" y="-400.8" font-family="Times,serif" font-size="14.00">address</text>
</g>
<!-- example.org/id/org/x&#45;&gt;_ -->
<g id="edge11" class="edge">
<title>example.org/id/org/x&#45;&gt;_</title>
<path fill="none" stroke="black" d="M210.89,-353.86C261.42,-356.32 323.08,-360.17 378.18,-366 434.85,-371.99 500.18,-382.75 539.38,-389.62"/>
<polygon fill="black" stroke="black" points="538.78,-393.07 549.24,-391.36 540,-386.18 538.78,-393.07"/>
<text text-anchor="middle" x="304.68" y="-369.8" font-family="Times,serif" font-size="14.00">member</text>
</g>
<!-- &quot;Description of org ....&quot; -->
<g id="node10" class="node">
<title>&quot;Description of org ....&quot;</title>
<ellipse fill="none" stroke="black" stroke-width="0" cx="575.57" cy="-331" rx="118.08" ry="18"/>
<text text-anchor="middle" x="575.57" y="-327.3" font-family="Times,serif" font-size="14.00">&quot;Description of org ....&quot;</text>
</g>
<!-- example.org/id/org/x&#45;&gt;&quot;Description of org ....&quot; -->
<g id="edge8" class="edge">
<title>example.org/id/org/x&#45;&gt;&quot;Description of org ....&quot;</title>
<path fill="none" stroke="black" d="M182.56,-337.34C198.56,-335.13 215.4,-333.17 231.18,-332 303.28,-326.67 384.12,-326.17 449.24,-327.11"/>
<polygon fill="black" stroke="black" points="449.5,-330.62 459.56,-327.28 449.61,-323.62 449.5,-330.62"/>
<text text-anchor="middle" x="304.68" y="-335.8" font-family="Times,serif" font-size="14.00">description</text>
</g>
<!-- &quot;secretariat(at)examp...&quot; -->
<g id="node11" class="node">
<title>&quot;secretariat(at)examp...&quot;</title>
<ellipse fill="none" stroke="black" stroke-width="0" cx="575.57" cy="-277" rx="126.18" ry="18"/>
<text text-anchor="middle" x="575.57" y="-273.3" font-family="Times,serif" font-size="14.00">&quot;secretariat(at)examp...&quot;</text>
</g>
<!-- example.org/id/org/x&#45;&gt;&quot;secretariat(at)examp...&quot; -->
<g id="edge9" class="edge">
<title>example.org/id/org/x&#45;&gt;&quot;secretariat(at)examp...&quot;</title>
<path fill="none" stroke="black" d="M147.5,-333.28C171.37,-324.01 202.52,-313.14 231.18,-307 299.64,-292.34 377.24,-284.81 441.33,-280.96"/>
<polygon fill="black" stroke="black" points="441.72,-284.44 451.5,-280.37 441.31,-277.46 441.72,-284.44"/>
<text text-anchor="middle" x="304.68" y="-310.8" font-family="Times,serif" font-size="14.00">email</text>
</g>
<!-- grid.ac/institutes/grid.475727.4 -->
<g id="node12" class="node">
<title>grid.ac/institutes/grid.475727.4</title>
<ellipse fill="none" stroke="#558855" cx="575.57" cy="-180" rx="159.47" ry="18"/>
<text text-anchor="middle" x="575.57" y="-176.3" font-family="Times,serif" font-size="14.00">grid.ac/institutes/grid.475727.4</text>
</g>
<!-- example.org/id/org/x&#45;&gt;grid.ac/institutes/grid.475727.4 -->
<g id="edge10" class="edge">
<title>example.org/id/org/x&#45;&gt;grid.ac/institutes/grid.475727.4</title>
<path fill="none" stroke="black" d="M129.01,-332.24C152.64,-313.48 192.47,-284.28 231.18,-267 308.39,-232.54 401.72,-210 471.57,-196.52"/>
<polygon fill="black" stroke="black" points="472.53,-199.9 481.7,-194.59 471.23,-193.02 472.53,-199.9"/>
<text text-anchor="middle" x="304.68" y="-270.8" font-family="Times,serif" font-size="14.00">identifier</text>
</g>
<!-- &quot;Organization X&quot; -->
<g id="node13" class="node">
<title>&quot;Organization X&quot;</title>
<ellipse fill="none" stroke="black" stroke-width="0" cx="575.57" cy="-126" rx="89.08" ry="18"/>
<text text-anchor="middle" x="575.57" y="-122.3" font-family="Times,serif" font-size="14.00">&quot;Organization X&quot;</text>
</g>
<!-- example.org/id/org/x&#45;&gt;&quot;Organization X&quot; -->
<g id="edge12" class="edge">
<title>example.org/id/org/x&#45;&gt;&quot;Organization X&quot;</title>
<path fill="none" stroke="black" d="M117.2,-331.93C135.18,-299.91 177.03,-233.26 231.18,-198 304.43,-150.3 403.46,-133.46 476.34,-127.86"/>
<polygon fill="black" stroke="black" points="476.72,-131.34 486.45,-127.14 476.23,-124.36 476.72,-131.34"/>
<text text-anchor="middle" x="304.68" y="-201.8" font-family="Times,serif" font-size="14.00">name</text>
</g>
<!-- &quot;( 33 1) 42 68 53 00&quot; -->
<g id="node14" class="node">
<title>&quot;( 33 1) 42 68 53 00&quot;</title>
<ellipse fill="none" stroke="black" stroke-width="0" cx="575.57" cy="-72" rx="108.58" ry="18"/>
<text text-anchor="middle" x="575.57" y="-68.3" font-family="Times,serif" font-size="14.00">&quot;( 33 1) 42 68 53 00&quot;</text>
</g>
<!-- example.org/id/org/x&#45;&gt;&quot;( 33 1) 42 68 53 00&quot; -->
<g id="edge15" class="edge">
<title>example.org/id/org/x&#45;&gt;&quot;( 33 1) 42 68 53 00&quot;</title>
<path fill="none" stroke="black" d="M111.61,-331.87C122.38,-287.89 156.33,-175.3 231.18,-123 299.72,-75.11 394.81,-64.15 467.55,-64.15"/>
<polygon fill="black" stroke="black" points="467.64,-67.66 477.66,-64.23 467.69,-60.66 467.64,-67.66"/>
<text text-anchor="middle" x="304.68" y="-126.8" font-family="Times,serif" font-size="14.00">telephone</text>
</g>
<!-- _&#45;&gt;Organization -->
<g id="edge20" class="edge">
<title>_&#45;&gt;Organization</title>
<path fill="none" stroke="black" d="M596.7,-407.23C631.73,-426.45 706.48,-466.07 772.95,-492 829.54,-514.08 845.01,-516.3 903.95,-531 925.45,-536.36 949.09,-541.41 970.43,-545.67"/>
<polygon fill="black" stroke="black" points="969.89,-549.13 980.38,-547.62 971.24,-542.26 969.89,-549.13"/>
<text text-anchor="middle" x="829.45" y="-529.8" font-family="Times,serif" font-size="14.00">type</text>
</g>
<!-- &quot;Org A is a potential...&quot; -->
<g id="node19" class="node">
<title>&quot;Org A is a potential...&quot;</title>
<ellipse fill="none" stroke="black" stroke-width="0" cx="1038.49" cy="-504" rx="118.08" ry="18"/>
<text text-anchor="middle" x="1038.49" y="-500.3" font-family="Times,serif" font-size="14.00">&quot;Org A is a potential...&quot;</text>
</g>
<!-- _&#45;&gt;&quot;Org A is a potential...&quot; -->
<g id="edge21" class="edge">
<title>_&#45;&gt;&quot;Org A is a potential...&quot;</title>
<path fill="none" stroke="black" d="M600.65,-402.94C637.57,-413.48 710.48,-433.9 772.95,-449 830.82,-462.98 845.66,-464.88 903.95,-477 920.79,-480.5 938.84,-484.19 956.05,-487.68"/>
<polygon fill="black" stroke="black" points="955.58,-491.16 966.08,-489.71 956.97,-484.3 955.58,-491.16"/>
<text text-anchor="middle" x="829.45" y="-476.8" font-family="Times,serif" font-size="14.00">description</text>
</g>
<!-- &quot;Organization A&quot; -->
<g id="node20" class="node">
<title>&quot;Organization A&quot;</title>
<ellipse fill="none" stroke="black" stroke-width="0" cx="1038.49" cy="-450" rx="89.08" ry="18"/>
<text text-anchor="middle" x="1038.49" y="-446.3" font-family="Times,serif" font-size="14.00">&quot;Organization A&quot;</text>
</g>
<!-- _&#45;&gt;&quot;Organization A&quot; -->
<g id="edge22" class="edge">
<title>_&#45;&gt;&quot;Organization A&quot;</title>
<path fill="none" stroke="black" d="M602.33,-399.02C667.99,-406.71 843.93,-427.32 950.91,-439.86"/>
<polygon fill="black" stroke="black" points="950.7,-443.36 961.04,-441.04 951.52,-436.4 950.7,-443.36"/>
<text text-anchor="middle" x="829.45" y="-433.8" font-family="Times,serif" font-size="14.00">name</text>
</g>
<!-- PostalAddress -->
<g id="node21" class="node">
<title>PostalAddress</title>
<ellipse fill="none" stroke="#558855" cx="1038.49" cy="-396" rx="76.89" ry="18"/>
<text text-anchor="middle" x="1038.49" y="-392.3" font-family="Times,serif" font-size="14.00">PostalAddress</text>
</g>
<!-- _&#45;&gt;PostalAddress -->
<g id="edge23" class="edge">
<title>_&#45;&gt;PostalAddress</title>
<path fill="none" stroke="black" d="M602.67,-396C668.71,-396 844.79,-396 951.53,-396"/>
<polygon fill="black" stroke="black" points="951.64,-399.5 961.64,-396 951.64,-392.5 951.64,-399.5"/>
<text text-anchor="middle" x="829.45" y="-399.8" font-family="Times,serif" font-size="14.00">type</text>
</g>
<!-- &quot;Paris, France&quot; -->
<g id="node22" class="node">
<title>&quot;Paris, France&quot;</title>
<ellipse fill="none" stroke="black" stroke-width="0" cx="1038.49" cy="-342" rx="81.49" ry="18"/>
<text text-anchor="middle" x="1038.49" y="-338.3" font-family="Times,serif" font-size="14.00">&quot;Paris, France&quot;</text>
</g>
<!-- _&#45;&gt;&quot;Paris, France&quot; -->
<g id="edge24" class="edge">
<title>_&#45;&gt;&quot;Paris, France&quot;</title>
<path fill="none" stroke="black" d="M602.33,-392.98C669.09,-385.16 849.87,-363.98 956.24,-351.52"/>
<polygon fill="black" stroke="black" points="956.77,-354.98 966.29,-350.34 955.96,-348.03 956.77,-354.98"/>
<text text-anchor="middle" x="829.45" y="-375.8" font-family="Times,serif" font-size="14.00">addressLocality</text>
</g>
<!-- &quot;F&#45;75002&quot; -->
<g id="node23" class="node">
<title>&quot;F&#45;75002&quot;</title>
<ellipse fill="none" stroke="black" stroke-width="0" cx="1038.49" cy="-288" rx="57.69" ry="18"/>
<text text-anchor="middle" x="1038.49" y="-284.3" font-family="Times,serif" font-size="14.00">&quot;F&#45;75002&quot;</text>
</g>
<!-- _&#45;&gt;&quot;F&#45;75002&quot; -->
<g id="edge25" class="edge">
<title>_&#45;&gt;&quot;F&#45;75002&quot;</title>
<path fill="none" stroke="black" d="M602.76,-394.6C638.81,-391.78 704.94,-383.3 754.95,-358 764.5,-353.17 763.38,-346.8 772.95,-342 826.08,-315.35 845.7,-326.89 903.95,-315 928.79,-309.93 956.24,-304.37 979.76,-299.62"/>
<polygon fill="black" stroke="black" points="980.47,-303.05 989.58,-297.64 979.08,-296.19 980.47,-303.05"/>
<text text-anchor="middle" x="829.45" y="-345.8" font-family="Times,serif" font-size="14.00">postalCode</text>
</g>
<!-- &quot;38 avenue de l&#39;Opera&quot; -->
<g id="node24" class="node">
<title>&quot;38 avenue de l&#39;Opera&quot;</title>
<ellipse fill="none" stroke="black" stroke-width="0" cx="1038.49" cy="-234" rx="118.08" ry="18"/>
<text text-anchor="middle" x="1038.49" y="-230.3" font-family="Times,serif" font-size="14.00">&quot;38 avenue de l&#39;Opera&quot;</text>
</g>
<!-- _&#45;&gt;&quot;38 avenue de l&#39;Opera&quot; -->
<g id="edge26" class="edge">
<title>_&#45;&gt;&quot;38 avenue de l&#39;Opera&quot;</title>
<path fill="none" stroke="black" d="M602.65,-398.1C641.03,-399.7 712.71,-396.74 754.95,-358 775.15,-339.47 753.43,-318.25 772.95,-299 816.11,-256.43 845.08,-275.46 903.95,-261 919.74,-257.12 936.67,-253.38 953,-249.98"/>
<polygon fill="black" stroke="black" points="953.99,-253.35 963.08,-247.91 952.58,-246.49 953.99,-253.35"/>
<text text-anchor="middle" x="829.45" y="-302.8" font-family="Times,serif" font-size="14.00">streetAddress</text>
</g>
<!-- PropertyValue -->
<g id="node15" class="node">
<title>PropertyValue</title>
<ellipse fill="none" stroke="#558855" cx="1038.49" cy="-180" rx="77.19" ry="18"/>
<text text-anchor="middle" x="1038.49" y="-176.3" font-family="Times,serif" font-size="14.00">PropertyValue</text>
</g>
<!-- grid.ac/institutes/grid.475727.4&#45;&gt;PropertyValue -->
<g id="edge16" class="edge">
<title>grid.ac/institutes/grid.475727.4&#45;&gt;PropertyValue</title>
<path fill="none" stroke="black" d="M734.87,-180C807.14,-180 889.95,-180 950.65,-180"/>
<polygon fill="black" stroke="black" points="950.96,-183.5 960.96,-180 950.96,-176.5 950.96,-183.5"/>
<text text-anchor="middle" x="829.45" y="-183.8" font-family="Times,serif" font-size="14.00">type</text>
</g>
<!-- &quot;UN Department of Eco...&quot; -->
<g id="node16" class="node">
<title>&quot;UN Department of Eco...&quot;</title>
<ellipse fill="none" stroke="black" stroke-width="0" cx="1038.49" cy="-126" rx="134.58" ry="18"/>
<text text-anchor="middle" x="1038.49" y="-122.3" font-family="Times,serif" font-size="14.00">&quot;UN Department of Eco...&quot;</text>
</g>
<!-- grid.ac/institutes/grid.475727.4&#45;&gt;&quot;UN Department of Eco...&quot; -->
<g id="edge17" class="edge">
<title>grid.ac/institutes/grid.475727.4&#45;&gt;&quot;UN Department of Eco...&quot;</title>
<path fill="none" stroke="black" d="M686.67,-167.1C759.16,-158.61 853.73,-147.53 926.41,-139.01"/>
<polygon fill="black" stroke="black" points="926.99,-142.47 936.51,-137.83 926.18,-135.52 926.99,-142.47"/>
<text text-anchor="middle" x="829.45" y="-159.8" font-family="Times,serif" font-size="14.00">description</text>
</g>
<!-- &quot;https//registry.iden...&quot; -->
<g id="node17" class="node">
<title>&quot;https//registry.iden...&quot;</title>
<ellipse fill="none" stroke="black" stroke-width="0" cx="1038.49" cy="-72" rx="116.98" ry="18"/>
<text text-anchor="middle" x="1038.49" y="-68.3" font-family="Times,serif" font-size="14.00">&quot;https//registry.iden...&quot;</text>
</g>
<!-- grid.ac/institutes/grid.475727.4&#45;&gt;&quot;https//registry.iden...&quot; -->
<g id="edge18" class="edge">
<title>grid.ac/institutes/grid.475727.4&#45;&gt;&quot;https//registry.iden...&quot;</title>
<path fill="none" stroke="black" d="M714.74,-171.05C728.95,-166.68 742.66,-160.82 754.95,-153 767.12,-145.26 760.99,-134.06 772.95,-126 822.25,-92.78 845.7,-110.89 903.95,-99 921,-95.52 939.27,-91.81 956.67,-88.29"/>
<polygon fill="black" stroke="black" points="957.68,-91.66 966.79,-86.24 956.29,-84.8 957.68,-91.66"/>
<text text-anchor="middle" x="829.45" y="-129.8" font-family="Times,serif" font-size="14.00">propertyID</text>
</g>
<!-- &quot;https//grid.ac/insti...&quot; -->
<g id="node18" class="node">
<title>&quot;https//grid.ac/insti...&quot;</title>
<ellipse fill="none" stroke="black" stroke-width="0" cx="1038.49" cy="-18" rx="114.28" ry="18"/>
<text text-anchor="middle" x="1038.49" y="-14.3" font-family="Times,serif" font-size="14.00">&quot;https//grid.ac/insti...&quot;</text>
</g>
<!-- grid.ac/institutes/grid.475727.4&#45;&gt;&quot;https//grid.ac/insti...&quot; -->
<g id="edge19" class="edge">
<title>grid.ac/institutes/grid.475727.4&#45;&gt;&quot;https//grid.ac/insti...&quot;</title>
<path fill="none" stroke="black" d="M722.96,-172.89C734.64,-167.99 745.54,-161.5 754.95,-153 778.79,-131.47 750.59,-106.06 772.95,-83 815.15,-39.48 845.08,-59.46 903.95,-45 920.02,-41.05 937.29,-37.24 953.89,-33.8"/>
<polygon fill="black" stroke="black" points="955.03,-37.13 964.12,-31.7 953.63,-30.28 955.03,-37.13"/>
<text text-anchor="middle" x="829.45" y="-86.8" font-family="Times,serif" font-size="14.00">url</text>
</g>
</g>
</svg>
