<?xml version="1.0" encoding="UTF-8" standalone="no"?>
<!DOCTYPE svg PUBLIC "-//W3C//DTD SVG 1.1//EN"
 "http://www.w3.org/Graphics/SVG/1.1/DTD/svg11.dtd">
<!-- Generated by graphviz version 2.43.0 (0)
 -->
<!-- Title: %3 Pages: 1 -->
<svg width="1070pt" height="260pt"
 viewBox="0.00 0.00 1069.73 260.00" xmlns="http://www.w3.org/2000/svg" xmlns:xlink="http://www.w3.org/1999/xlink">
<g id="graph0" class="graph" transform="scale(1 1) rotate(0) translate(4 256)">
<title>%3</title>
<polygon fill="white" stroke="transparent" points="-4,4 -4,-256 1065.73,-256 1065.73,4 -4,4"/>
<!-- CreativeWork -->
<g id="node1" class="node">
<title>CreativeWork</title>
<ellipse fill="none" stroke="#558855" cx="927.84" cy="-234" rx="74.19" ry="18"/>
<text text-anchor="middle" x="927.84" y="-230.3" font-family="Times,serif" font-size="14.00">CreativeWork</text>
</g>
<!-- purl.unep.org/sdg/SDGIO_00020173 -->
<g id="node2" class="node">
<title>purl.unep.org/sdg/SDGIO_00020173</title>
<ellipse fill="none" stroke="#558855" cx="497.57" cy="-126" rx="179.27" ry="18"/>
<text text-anchor="middle" x="497.57" y="-122.3" font-family="Times,serif" font-size="14.00">purl.unep.org/sdg/SDGIO_00020173</text>
</g>
<!-- purl.unep.org/sdg/SDGIO_00020173&#45;&gt;CreativeWork -->
<g id="edge1" class="edge">
<title>purl.unep.org/sdg/SDGIO_00020173&#45;&gt;CreativeWork</title>
<path fill="none" stroke="black" d="M556.28,-143.06C615.61,-160.31 710.8,-187.18 793.95,-207 814.91,-212 837.87,-216.87 858.72,-221.07"/>
<polygon fill="black" stroke="black" points="858.27,-224.55 868.76,-223.08 859.64,-217.69 858.27,-224.55"/>
<text text-anchor="middle" x="735.45" y="-204.8" font-family="Times,serif" font-size="14.00">type</text>
</g>
<!-- &quot;Number of countries ...&quot; -->
<g id="node3" class="node">
<title>&quot;Number of countries ...&quot;</title>
<ellipse fill="none" stroke="black" stroke-width="0" cx="927.84" cy="-180" rx="127.28" ry="18"/>
<text text-anchor="middle" x="927.84" y="-176.3" font-family="Times,serif" font-size="14.00">&quot;Number of countries ...&quot;</text>
</g>
<!-- purl.unep.org/sdg/SDGIO_00020173&#45;&gt;&quot;Number of countries ...&quot; -->
<g id="edge2" class="edge">
<title>purl.unep.org/sdg/SDGIO_00020173&#45;&gt;&quot;Number of countries ...&quot;</title>
<path fill="none" stroke="black" d="M609.97,-140.05C675.49,-148.31 757.82,-158.69 822.14,-166.8"/>
<polygon fill="black" stroke="black" points="821.95,-170.3 832.31,-168.08 822.82,-163.36 821.95,-170.3"/>
<text text-anchor="middle" x="735.45" y="-162.8" font-family="Times,serif" font-size="14.00">description</text>
</g>
<!-- &quot;FAIR data principles&quot; -->
<g id="node4" class="node">
<title>&quot;FAIR data principles&quot;</title>
<ellipse fill="none" stroke="black" stroke-width="0" cx="927.84" cy="-126" rx="113.98" ry="18"/>
<text text-anchor="middle" x="927.84" y="-122.3" font-family="Times,serif" font-size="14.00">&quot;FAIR data principles&quot;</text>
</g>
<!-- purl.unep.org/sdg/SDGIO_00020173&#45;&gt;&quot;FAIR data principles&quot; -->
<g id="edge3" class="edge">
<title>purl.unep.org/sdg/SDGIO_00020173&#45;&gt;&quot;FAIR data principles&quot;</title>
<path fill="none" stroke="black" d="M677.09,-126C719.74,-126 764.33,-126 803.83,-126"/>
<polygon fill="black" stroke="black" points="804.03,-129.5 814.03,-126 804.03,-122.5 804.03,-129.5"/>
<text text-anchor="middle" x="735.45" y="-129.8" font-family="Times,serif" font-size="14.00">name</text>
</g>
<!-- &quot;UNSD SDG indicator c...&quot; -->
<g id="node5" class="node">
<title>&quot;UNSD SDG indicator c...&quot;</title>
<ellipse fill="none" stroke="black" stroke-width="0" cx="927.84" cy="-72" rx="133.78" ry="18"/>
<text text-anchor="middle" x="927.84" y="-68.3" font-family="Times,serif" font-size="14.00">&quot;UNSD SDG indicator c...&quot;</text>
</g>
<!-- purl.unep.org/sdg/SDGIO_00020173&#45;&gt;&quot;UNSD SDG indicator c...&quot; -->
<g id="edge4" class="edge">
<title>purl.unep.org/sdg/SDGIO_00020173&#45;&gt;&quot;UNSD SDG indicator c...&quot;</title>
<path fill="none" stroke="black" d="M609.97,-111.95C674.55,-103.81 755.46,-93.61 819.36,-85.55"/>
<polygon fill="black" stroke="black" points="819.98,-89 829.46,-84.28 819.11,-82.06 819.98,-89"/>
<text text-anchor="middle" x="735.45" y="-103.8" font-family="Times,serif" font-size="14.00">name</text>
</g>
<!-- &quot;http//www.ontobee.or...&quot; -->
<g id="node6" class="node">
<title>&quot;http//www.ontobee.or...&quot;</title>
<ellipse fill="none" stroke="black" stroke-width="0" cx="927.84" cy="-18" rx="128.08" ry="18"/>
<text text-anchor="middle" x="927.84" y="-14.3" font-family="Times,serif" font-size="14.00">&quot;http//www.ontobee.or...&quot;</text>
</g>
<!-- purl.unep.org/sdg/SDGIO_00020173&#45;&gt;&quot;http//www.ontobee.or...&quot; -->
<g id="edge5" class="edge">
<title>purl.unep.org/sdg/SDGIO_00020173&#45;&gt;&quot;http//www.ontobee.or...&quot;</title>
<path fill="none" stroke="black" d="M641.63,-115.24C654.07,-111.11 666.05,-105.8 676.95,-99 688.87,-91.56 683.51,-81.17 694.95,-73 732.15,-46.42 749.51,-55.78 793.95,-45 808.96,-41.36 825.01,-37.81 840.58,-34.54"/>
<polygon fill="black" stroke="black" points="841.64,-37.9 850.72,-32.44 840.22,-31.04 841.64,-37.9"/>
<text text-anchor="middle" x="735.45" y="-76.8" font-family="Times,serif" font-size="14.00">url</text>
</g>
<!-- Organization -->
<g id="node7" class="node">
<title>Organization</title>
<ellipse fill="none" stroke="#558855" cx="497.57" cy="-72" rx="70.69" ry="18"/>
<text text-anchor="middle" x="497.57" y="-68.3" font-family="Times,serif" font-size="14.00">Organization</text>
</g>
<!-- example.org/id/org/x -->
<g id="node8" class="node">
<title>example.org/id/org/x</title>
<ellipse fill="none" stroke="black" cx="106.59" cy="-91" rx="106.68" ry="18"/>
<text text-anchor="middle" x="106.59" y="-87.3" font-family="Times,serif" font-size="14.00">example.org/id/org/x</text>
</g>
<!-- example.org/id/org/x&#45;&gt;purl.unep.org/sdg/SDGIO_00020173 -->
<g id="edge7" class="edge">
<title>example.org/id/org/x&#45;&gt;purl.unep.org/sdg/SDGIO_00020173</title>
<path fill="none" stroke="black" d="M201.25,-99.43C246.78,-103.52 302.48,-108.54 353.2,-113.1"/>
<polygon fill="black" stroke="black" points="353,-116.6 363.27,-114.01 353.63,-109.62 353,-116.6"/>
<text text-anchor="middle" x="265.68" y="-110.8" font-family="Times,serif" font-size="14.00">subjectOf</text>
</g>
<!-- example.org/id/org/x&#45;&gt;Organization -->
<g id="edge6" class="edge">
<title>example.org/id/org/x&#45;&gt;Organization</title>
<path fill="none" stroke="black" d="M202.03,-82.9C211.87,-82.19 221.72,-81.54 231.18,-81 293.31,-77.43 363.72,-75.13 416.39,-73.74"/>
<polygon fill="black" stroke="black" points="416.77,-77.23 426.68,-73.48 416.59,-70.24 416.77,-77.23"/>
<text text-anchor="middle" x="265.68" y="-84.8" font-family="Times,serif" font-size="14.00">type</text>
</g>
</g>
</svg>
