<?xml version="1.0" encoding="UTF-8" standalone="no"?>
<!DOCTYPE svg PUBLIC "-//W3C//DTD SVG 1.1//EN"
 "http://www.w3.org/Graphics/SVG/1.1/DTD/svg11.dtd">
<!-- Generated by graphviz version 2.43.0 (0)
 -->
<!-- Title: %3 Pages: 1 -->
<svg width="1503pt" height="314pt"
 viewBox="0.00 0.00 1502.59 314.00" xmlns="http://www.w3.org/2000/svg" xmlns:xlink="http://www.w3.org/1999/xlink">
<g id="graph0" class="graph" transform="scale(1 1) rotate(0) translate(4 310)">
<title>%3</title>
<polygon fill="white" stroke="transparent" points="-4,4 -4,-310 1498.59,-310 1498.59,4 -4,4"/>
<!-- CreativeWork -->
<g id="node1" class="node">
<title>CreativeWork</title>
<ellipse fill="none" stroke="#558855" cx="1356.81" cy="-288" rx="74.19" ry="18"/>
<text text-anchor="middle" x="1356.81" y="-284.3" font-family="Times,serif" font-size="14.00">CreativeWork</text>
</g>
<!-- purl.unep.org/sdg/SDGIO_00020173 -->
<g id="node2" class="node">
<title>purl.unep.org/sdg/SDGIO_00020173</title>
<ellipse fill="none" stroke="#558855" cx="922.63" cy="-153" rx="179.27" ry="18"/>
<text text-anchor="middle" x="922.63" y="-149.3" font-family="Times,serif" font-size="14.00">purl.unep.org/sdg/SDGIO_00020173</text>
</g>
<!-- purl.unep.org/sdg/SDGIO_00020173&#45;&gt;CreativeWork -->
<g id="edge1" class="edge">
<title>purl.unep.org/sdg/SDGIO_00020173&#45;&gt;CreativeWork</title>
<path fill="none" stroke="black" d="M965.51,-170.66C1022.16,-194.01 1126.73,-235.19 1219.02,-261 1240.15,-266.91 1263.47,-272.02 1284.77,-276.15"/>
<polygon fill="black" stroke="black" points="1284.25,-279.62 1294.72,-278.05 1285.55,-272.74 1284.25,-279.62"/>
<text text-anchor="middle" x="1160.52" y="-256.8" font-family="Times,serif" font-size="14.00">type</text>
</g>
<!-- &quot;A link to the QA/QC ...&quot; -->
<g id="node3" class="node">
<title>&quot;A link to the QA/QC ...&quot;</title>
<ellipse fill="none" stroke="black" stroke-width="0" cx="1356.81" cy="-234" rx="121.58" ry="18"/>
<text text-anchor="middle" x="1356.81" y="-230.3" font-family="Times,serif" font-size="14.00">&quot;A link to the QA/QC ...&quot;</text>
</g>
<!-- purl.unep.org/sdg/SDGIO_00020173&#45;&gt;&quot;A link to the QA/QC ...&quot; -->
<g id="edge2" class="edge">
<title>purl.unep.org/sdg/SDGIO_00020173&#45;&gt;&quot;A link to the QA/QC ...&quot;</title>
<path fill="none" stroke="black" d="M1008.24,-168.86C1084.09,-183.07 1194.79,-203.82 1270.77,-218.06"/>
<polygon fill="black" stroke="black" points="1270.31,-221.54 1280.78,-219.94 1271.6,-214.66 1270.31,-221.54"/>
<text text-anchor="middle" x="1160.52" y="-206.8" font-family="Times,serif" font-size="14.00">description</text>
</g>
<!-- &quot;A link to the URL to...&quot; -->
<g id="node4" class="node">
<title>&quot;A link to the URL to...&quot;</title>
<ellipse fill="none" stroke="black" stroke-width="0" cx="1356.81" cy="-180" rx="120.48" ry="18"/>
<text text-anchor="middle" x="1356.81" y="-176.3" font-family="Times,serif" font-size="14.00">&quot;A link to the URL to...&quot;</text>
</g>
<!-- purl.unep.org/sdg/SDGIO_00020173&#45;&gt;&quot;A link to the URL to...&quot; -->
<g id="edge3" class="edge">
<title>purl.unep.org/sdg/SDGIO_00020173&#45;&gt;&quot;A link to the URL to...&quot;</title>
<path fill="none" stroke="black" d="M1075.39,-162.48C1127.84,-165.76 1185.85,-169.38 1235.44,-172.48"/>
<polygon fill="black" stroke="black" points="1235.36,-175.98 1245.56,-173.11 1235.8,-169 1235.36,-175.98"/>
<text text-anchor="middle" x="1160.52" y="-172.8" font-family="Times,serif" font-size="14.00">description</text>
</g>
<!-- &quot;QA/QC reference&quot; -->
<g id="node5" class="node">
<title>&quot;QA/QC reference&quot;</title>
<ellipse fill="none" stroke="black" stroke-width="0" cx="1356.81" cy="-126" rx="97.48" ry="18"/>
<text text-anchor="middle" x="1356.81" y="-122.3" font-family="Times,serif" font-size="14.00">&quot;QA/QC reference&quot;</text>
</g>
<!-- purl.unep.org/sdg/SDGIO_00020173&#45;&gt;&quot;QA/QC reference&quot; -->
<g id="edge4" class="edge">
<title>purl.unep.org/sdg/SDGIO_00020173&#45;&gt;&quot;QA/QC reference&quot;</title>
<path fill="none" stroke="black" d="M1075.39,-143.52C1134.57,-139.82 1200.83,-135.68 1254.08,-132.36"/>
<polygon fill="black" stroke="black" points="1254.45,-135.84 1264.21,-131.72 1254.01,-128.85 1254.45,-135.84"/>
<text text-anchor="middle" x="1160.52" y="-143.8" font-family="Times,serif" font-size="14.00">name</text>
</g>
<!-- &quot;URL to GOOS Spec She...&quot; -->
<g id="node6" class="node">
<title>&quot;URL to GOOS Spec She...&quot;</title>
<ellipse fill="none" stroke="black" stroke-width="0" cx="1356.81" cy="-72" rx="137.58" ry="18"/>
<text text-anchor="middle" x="1356.81" y="-68.3" font-family="Times,serif" font-size="14.00">&quot;URL to GOOS Spec She...&quot;</text>
</g>
<!-- purl.unep.org/sdg/SDGIO_00020173&#45;&gt;&quot;URL to GOOS Spec She...&quot; -->
<g id="edge5" class="edge">
<title>purl.unep.org/sdg/SDGIO_00020173&#45;&gt;&quot;URL to GOOS Spec She...&quot;</title>
<path fill="none" stroke="black" d="M1045.23,-139.83C1064.47,-136.25 1083.95,-131.73 1102.02,-126 1110.54,-123.3 1111.55,-119.87 1120.02,-117 1160.77,-103.22 1207,-93.23 1247.67,-86.22"/>
<polygon fill="black" stroke="black" points="1248.32,-89.66 1257.6,-84.55 1247.16,-82.76 1248.32,-89.66"/>
<text text-anchor="middle" x="1160.52" y="-120.8" font-family="Times,serif" font-size="14.00">name</text>
</g>
<!-- &quot;http//www.ontobee.or...&quot; -->
<g id="node7" class="node">
<title>&quot;http//www.ontobee.or...&quot;</title>
<ellipse fill="none" stroke="black" stroke-width="0" cx="1356.81" cy="-18" rx="128.08" ry="18"/>
<text text-anchor="middle" x="1356.81" y="-14.3" font-family="Times,serif" font-size="14.00">&quot;http//www.ontobee.or...&quot;</text>
</g>
<!-- purl.unep.org/sdg/SDGIO_00020173&#45;&gt;&quot;http//www.ontobee.or...&quot; -->
<g id="edge6" class="edge">
<title>purl.unep.org/sdg/SDGIO_00020173&#45;&gt;&quot;http//www.ontobee.or...&quot;</title>
<path fill="none" stroke="black" d="M1073.02,-143.18C1083.43,-138.74 1093.26,-133.1 1102.02,-126 1119.72,-111.65 1103.61,-93.81 1120.02,-78 1153.42,-45.82 1174.18,-56.85 1219.02,-45 1233.99,-41.04 1250.03,-37.38 1265.66,-34.11"/>
<polygon fill="black" stroke="black" points="1266.76,-37.45 1275.85,-32.01 1265.35,-30.59 1266.76,-37.45"/>
<text text-anchor="middle" x="1160.52" y="-81.8" font-family="Times,serif" font-size="14.00">url</text>
</g>
<!-- Dataset -->
<g id="node8" class="node">
<title>Dataset</title>
<ellipse fill="none" stroke="#558855" cx="922.63" cy="-99" rx="46.59" ry="18"/>
<text text-anchor="middle" x="922.63" y="-95.3" font-family="Times,serif" font-size="14.00">Dataset</text>
</g>
<!-- obis.org/dataset/dcbb8f12&#45;c869&#45;4d31&#45;aa8b&#45;23abb27898ce -->
<g id="node9" class="node">
<title>obis.org/dataset/dcbb8f12&#45;c869&#45;4d31&#45;aa8b&#45;23abb27898ce</title>
<ellipse fill="none" stroke="black" cx="280.13" cy="-118" rx="280.25" ry="18"/>
<text text-anchor="middle" x="280.13" y="-114.3" font-family="Times,serif" font-size="14.00">obis.org/dataset/dcbb8f12&#45;c869&#45;4d31&#45;aa8b&#45;23abb27898ce</text>
</g>
<!-- obis.org/dataset/dcbb8f12&#45;c869&#45;4d31&#45;aa8b&#45;23abb27898ce&#45;&gt;purl.unep.org/sdg/SDGIO_00020173 -->
<g id="edge8" class="edge">
<title>obis.org/dataset/dcbb8f12&#45;c869&#45;4d31&#45;aa8b&#45;23abb27898ce&#45;&gt;purl.unep.org/sdg/SDGIO_00020173</title>
<path fill="none" stroke="black" d="M493.96,-129.63C578.79,-134.27 675,-139.52 754.65,-143.88"/>
<polygon fill="black" stroke="black" points="754.6,-147.38 764.78,-144.43 754.98,-140.39 754.6,-147.38"/>
<text text-anchor="middle" x="651.75" y="-144.8" font-family="Times,serif" font-size="14.00">publishingPrinciples</text>
</g>
<!-- obis.org/dataset/dcbb8f12&#45;c869&#45;4d31&#45;aa8b&#45;23abb27898ce&#45;&gt;Dataset -->
<g id="edge7" class="edge">
<title>obis.org/dataset/dcbb8f12&#45;c869&#45;4d31&#45;aa8b&#45;23abb27898ce&#45;&gt;Dataset</title>
<path fill="none" stroke="black" d="M527.97,-109.55C544.98,-109.01 561.87,-108.49 578.25,-108 679.6,-104.97 797.79,-101.99 865.75,-100.34"/>
<polygon fill="black" stroke="black" points="865.9,-103.83 875.81,-100.09 865.73,-96.84 865.9,-103.83"/>
<text text-anchor="middle" x="651.75" y="-111.8" font-family="Times,serif" font-size="14.00">type</text>
</g>
</g>
</svg>
