<?xml version="1.0" encoding="UTF-8" standalone="no"?>
<!DOCTYPE svg PUBLIC "-//W3C//DTD SVG 1.1//EN"
 "http://www.w3.org/Graphics/SVG/1.1/DTD/svg11.dtd">
<!-- Generated by graphviz version 2.43.0 (0)
 -->
<!-- Title: %3 Pages: 1 -->
<svg width="1014pt" height="98pt"
 viewBox="0.00 0.00 1014.13 98.00" xmlns="http://www.w3.org/2000/svg" xmlns:xlink="http://www.w3.org/1999/xlink">
<g id="graph0" class="graph" transform="scale(1 1) rotate(0) translate(4 94)">
<title>%3</title>
<polygon fill="white" stroke="transparent" points="-4,4 -4,-94 1010.13,-94 1010.13,4 -4,4"/>
<!-- Dataset -->
<g id="node1" class="node">
<title>Dataset</title>
<ellipse fill="none" stroke="#558855" cx="887.19" cy="-72" rx="46.59" ry="18"/>
<text text-anchor="middle" x="887.19" y="-68.3" font-family="Times,serif" font-size="14.00">Dataset</text>
</g>
<!-- obis.org/dataset/dcbb8f12&#45;c869&#45;4d31&#45;aa8b&#45;23abb27898ce -->
<g id="node2" class="node">
<title>obis.org/dataset/dcbb8f12&#45;c869&#45;4d31&#45;aa8b&#45;23abb27898ce</title>
<ellipse fill="none" stroke="black" cx="280.13" cy="-45" rx="280.25" ry="18"/>
<text text-anchor="middle" x="280.13" y="-41.3" font-family="Times,serif" font-size="14.00">obis.org/dataset/dcbb8f12&#45;c869&#45;4d31&#45;aa8b&#45;23abb27898ce</text>
</g>
<!-- obis.org/dataset/dcbb8f12&#45;c869&#45;4d31&#45;aa8b&#45;23abb27898ce&#45;&gt;Dataset -->
<g id="edge1" class="edge">
<title>obis.org/dataset/dcbb8f12&#45;c869&#45;4d31&#45;aa8b&#45;23abb27898ce&#45;&gt;Dataset</title>
<path fill="none" stroke="black" d="M510.74,-55.25C626.56,-60.41 757.55,-66.26 830.15,-69.5"/>
<polygon fill="black" stroke="black" points="830.28,-73.01 840.43,-69.96 830.59,-66.02 830.28,-73.01"/>
<text text-anchor="middle" x="664.25" y="-68.8" font-family="Times,serif" font-size="14.00">type</text>
</g>
<!-- &quot;A description in tex...&quot; -->
<g id="node3" class="node">
<title>&quot;A description in tex...&quot;</title>
<ellipse fill="none" stroke="black" stroke-width="0" cx="887.19" cy="-18" rx="118.88" ry="18"/>
<text text-anchor="middle" x="887.19" y="-14.3" font-family="Times,serif" font-size="14.00">&quot;A description in tex...&quot;</text>
</g>
<!-- obis.org/dataset/dcbb8f12&#45;c869&#45;4d31&#45;aa8b&#45;23abb27898ce&#45;&gt;&quot;A description in tex...&quot; -->
<g id="edge2" class="edge">
<title>obis.org/dataset/dcbb8f12&#45;c869&#45;4d31&#45;aa8b&#45;23abb27898ce&#45;&gt;&quot;A description in tex...&quot;</title>
<path fill="none" stroke="black" d="M510.74,-34.75C596.31,-30.94 690.16,-26.75 762.62,-23.51"/>
<polygon fill="black" stroke="black" points="762.86,-27.01 772.7,-23.06 762.55,-20.01 762.86,-27.01"/>
<text text-anchor="middle" x="664.25" y="-34.8" font-family="Times,serif" font-size="14.00">measurementTechnique</text>
</g>
</g>
</svg>
