<?xml version="1.0" encoding="UTF-8" standalone="no"?>
<!DOCTYPE svg PUBLIC "-//W3C//DTD SVG 1.1//EN"
 "http://www.w3.org/Graphics/SVG/1.1/DTD/svg11.dtd">
<!-- Generated by graphviz version 2.43.0 (0)
 -->
<!-- Title: %3 Pages: 1 -->
<svg width="1148pt" height="422pt"
 viewBox="0.00 0.00 1147.73 422.00" xmlns="http://www.w3.org/2000/svg" xmlns:xlink="http://www.w3.org/1999/xlink">
<g id="graph0" class="graph" transform="scale(1 1) rotate(0) translate(4 418)">
<title>%3</title>
<polygon fill="white" stroke="transparent" points="-4,4 -4,-418 1143.73,-418 1143.73,4 -4,4"/>
<!-- CreativeWork -->
<g id="node1" class="node">
<title>CreativeWork</title>
<ellipse fill="none" stroke="#558855" cx="1005.84" cy="-180" rx="74.19" ry="18"/>
<text text-anchor="middle" x="1005.84" y="-176.3" font-family="Times,serif" font-size="14.00">CreativeWork</text>
</g>
<!-- purl.unep.org/sdg/SDGIO_00020173 -->
<g id="node2" class="node">
<title>purl.unep.org/sdg/SDGIO_00020173</title>
<ellipse fill="none" stroke="#558855" cx="575.57" cy="-264" rx="179.27" ry="18"/>
<text text-anchor="middle" x="575.57" y="-260.3" font-family="Times,serif" font-size="14.00">purl.unep.org/sdg/SDGIO_00020173</text>
</g>
<!-- purl.unep.org/sdg/SDGIO_00020173&#45;&gt;CreativeWork -->
<g id="edge1" class="edge">
<title>purl.unep.org/sdg/SDGIO_00020173&#45;&gt;CreativeWork</title>
<path fill="none" stroke="black" d="M658.13,-248C739.19,-232.1 862.04,-208.01 937.65,-193.18"/>
<polygon fill="black" stroke="black" points="938.41,-196.6 947.55,-191.24 937.06,-189.73 938.41,-196.6"/>
<text text-anchor="middle" x="813.45" y="-227.8" font-family="Times,serif" font-size="14.00">type</text>
</g>
<!-- &quot;Number of countries ...&quot; -->
<g id="node3" class="node">
<title>&quot;Number of countries ...&quot;</title>
<ellipse fill="none" stroke="black" stroke-width="0" cx="1005.84" cy="-396" rx="127.28" ry="18"/>
<text text-anchor="middle" x="1005.84" y="-392.3" font-family="Times,serif" font-size="14.00">&quot;Number of countries ...&quot;</text>
</g>
<!-- purl.unep.org/sdg/SDGIO_00020173&#45;&gt;&quot;Number of countries ...&quot; -->
<g id="edge2" class="edge">
<title>purl.unep.org/sdg/SDGIO_00020173&#45;&gt;&quot;Number of countries ...&quot;</title>
<path fill="none" stroke="black" d="M619.98,-281.61C677.04,-304.25 780.7,-343.65 871.95,-369 886.05,-372.92 901.13,-376.52 915.9,-379.74"/>
<polygon fill="black" stroke="black" points="915.54,-383.24 926.05,-381.9 917,-376.4 915.54,-383.24"/>
<text text-anchor="middle" x="813.45" y="-364.8" font-family="Times,serif" font-size="14.00">description</text>
</g>
<!-- &quot;Sustainable Developm...&quot; -->
<g id="node4" class="node">
<title>&quot;Sustainable Developm...&quot;</title>
<ellipse fill="none" stroke="black" stroke-width="0" cx="1005.84" cy="-342" rx="131.88" ry="18"/>
<text text-anchor="middle" x="1005.84" y="-338.3" font-family="Times,serif" font-size="14.00">&quot;Sustainable Developm...&quot;</text>
</g>
<!-- purl.unep.org/sdg/SDGIO_00020173&#45;&gt;&quot;Sustainable Developm...&quot; -->
<g id="edge3" class="edge">
<title>purl.unep.org/sdg/SDGIO_00020173&#45;&gt;&quot;Sustainable Developm...&quot;</title>
<path fill="none" stroke="black" d="M662.97,-279.74C736.37,-293.1 841.31,-312.22 915.52,-325.73"/>
<polygon fill="black" stroke="black" points="915.31,-329.25 925.78,-327.6 916.57,-322.37 915.31,-329.25"/>
<text text-anchor="middle" x="813.45" y="-315.8" font-family="Times,serif" font-size="14.00">name</text>
</g>
<!-- &quot;UNSD SDG indicator c...&quot; -->
<g id="node5" class="node">
<title>&quot;UNSD SDG indicator c...&quot;</title>
<ellipse fill="none" stroke="black" stroke-width="0" cx="1005.84" cy="-288" rx="133.78" ry="18"/>
<text text-anchor="middle" x="1005.84" y="-284.3" font-family="Times,serif" font-size="14.00">&quot;UNSD SDG indicator c...&quot;</text>
</g>
<!-- purl.unep.org/sdg/SDGIO_00020173&#45;&gt;&quot;UNSD SDG indicator c...&quot; -->
<g id="edge4" class="edge">
<title>purl.unep.org/sdg/SDGIO_00020173&#45;&gt;&quot;UNSD SDG indicator c...&quot;</title>
<path fill="none" stroke="black" d="M732.7,-272.75C778.27,-275.3 827.64,-278.07 871.66,-280.54"/>
<polygon fill="black" stroke="black" points="871.66,-284.04 881.84,-281.11 872.05,-277.05 871.66,-284.04"/>
<text text-anchor="middle" x="813.45" y="-281.8" font-family="Times,serif" font-size="14.00">name</text>
</g>
<!-- &quot;http//www.ontobee.or...&quot; -->
<g id="node6" class="node">
<title>&quot;http//www.ontobee.or...&quot;</title>
<ellipse fill="none" stroke="black" stroke-width="0" cx="1005.84" cy="-234" rx="128.08" ry="18"/>
<text text-anchor="middle" x="1005.84" y="-230.3" font-family="Times,serif" font-size="14.00">&quot;http//www.ontobee.or...&quot;</text>
</g>
<!-- purl.unep.org/sdg/SDGIO_00020173&#45;&gt;&quot;http//www.ontobee.or...&quot; -->
<g id="edge5" class="edge">
<title>purl.unep.org/sdg/SDGIO_00020173&#45;&gt;&quot;http//www.ontobee.or...&quot;</title>
<path fill="none" stroke="black" d="M723.05,-253.74C774.38,-250.14 831.49,-246.14 880.8,-242.69"/>
<polygon fill="black" stroke="black" points="881.15,-246.17 890.88,-241.98 880.66,-239.19 881.15,-246.17"/>
<text text-anchor="middle" x="813.45" y="-252.8" font-family="Times,serif" font-size="14.00">url</text>
</g>
<!-- dx.doi.org/10.1038/sdata.2016.18 -->
<g id="node7" class="node">
<title>dx.doi.org/10.1038/sdata.2016.18</title>
<ellipse fill="none" stroke="#558855" cx="575.57" cy="-126" rx="167.87" ry="18"/>
<text text-anchor="middle" x="575.57" y="-122.3" font-family="Times,serif" font-size="14.00">dx.doi.org/10.1038/sdata.2016.18</text>
</g>
<!-- dx.doi.org/10.1038/sdata.2016.18&#45;&gt;CreativeWork -->
<g id="edge6" class="edge">
<title>dx.doi.org/10.1038/sdata.2016.18&#45;&gt;CreativeWork</title>
<path fill="none" stroke="black" d="M684.91,-139.66C761.28,-149.29 861.62,-161.94 929.41,-170.49"/>
<polygon fill="black" stroke="black" points="929.23,-173.99 939.59,-171.77 930.1,-167.05 929.23,-173.99"/>
<text text-anchor="middle" x="813.45" y="-162.8" font-family="Times,serif" font-size="14.00">type</text>
</g>
<!-- &quot;FAIR Principles defi...&quot; -->
<g id="node8" class="node">
<title>&quot;FAIR Principles defi...&quot;</title>
<ellipse fill="none" stroke="black" stroke-width="0" cx="1005.84" cy="-72" rx="119.68" ry="18"/>
<text text-anchor="middle" x="1005.84" y="-68.3" font-family="Times,serif" font-size="14.00">&quot;FAIR Principles defi...&quot;</text>
</g>
<!-- dx.doi.org/10.1038/sdata.2016.18&#45;&gt;&quot;FAIR Principles defi...&quot; -->
<g id="edge7" class="edge">
<title>dx.doi.org/10.1038/sdata.2016.18&#45;&gt;&quot;FAIR Principles defi...&quot;</title>
<path fill="none" stroke="black" d="M684.91,-112.34C752.09,-103.87 837.81,-93.06 903.62,-84.76"/>
<polygon fill="black" stroke="black" points="904.1,-88.23 913.59,-83.51 903.23,-81.28 904.1,-88.23"/>
<text text-anchor="middle" x="813.45" y="-103.8" font-family="Times,serif" font-size="14.00">description</text>
</g>
<!-- &quot;FAIR data principles&quot; -->
<g id="node9" class="node">
<title>&quot;FAIR data principles&quot;</title>
<ellipse fill="none" stroke="black" stroke-width="0" cx="1005.84" cy="-18" rx="113.98" ry="18"/>
<text text-anchor="middle" x="1005.84" y="-14.3" font-family="Times,serif" font-size="14.00">&quot;FAIR data principles&quot;</text>
</g>
<!-- dx.doi.org/10.1038/sdata.2016.18&#45;&gt;&quot;FAIR data principles&quot; -->
<g id="edge8" class="edge">
<title>dx.doi.org/10.1038/sdata.2016.18&#45;&gt;&quot;FAIR data principles&quot;</title>
<path fill="none" stroke="black" d="M716.89,-116.13C730.31,-111.88 743.26,-106.29 754.95,-99 766.87,-91.56 761.51,-81.17 772.95,-73 810.15,-46.42 827.51,-55.78 871.95,-45 888.05,-41.09 905.35,-37.29 921.96,-33.84"/>
<polygon fill="black" stroke="black" points="923.11,-37.17 932.2,-31.73 921.7,-30.32 923.11,-37.17"/>
<text text-anchor="middle" x="813.45" y="-76.8" font-family="Times,serif" font-size="14.00">name</text>
</g>
<!-- &quot;https//www.nature.co...&quot; -->
<g id="node10" class="node">
<title>&quot;https//www.nature.co...&quot;</title>
<ellipse fill="none" stroke="black" stroke-width="0" cx="1005.84" cy="-126" rx="128.08" ry="18"/>
<text text-anchor="middle" x="1005.84" y="-122.3" font-family="Times,serif" font-size="14.00">&quot;https//www.nature.co...&quot;</text>
</g>
<!-- dx.doi.org/10.1038/sdata.2016.18&#45;&gt;&quot;https//www.nature.co...&quot; -->
<g id="edge9" class="edge">
<title>dx.doi.org/10.1038/sdata.2016.18&#45;&gt;&quot;https//www.nature.co...&quot;</title>
<path fill="none" stroke="black" d="M743.37,-126C784.42,-126 827.92,-126 867.4,-126"/>
<polygon fill="black" stroke="black" points="867.62,-129.5 877.62,-126 867.62,-122.5 867.62,-129.5"/>
<text text-anchor="middle" x="813.45" y="-129.8" font-family="Times,serif" font-size="14.00">url</text>
</g>
<!-- Organization -->
<g id="node11" class="node">
<title>Organization</title>
<ellipse fill="none" stroke="#558855" cx="575.57" cy="-72" rx="70.69" ry="18"/>
<text text-anchor="middle" x="575.57" y="-68.3" font-family="Times,serif" font-size="14.00">Organization</text>
</g>
<!-- example.org/id/org/x -->
<g id="node12" class="node">
<title>example.org/id/org/x</title>
<ellipse fill="none" stroke="black" cx="106.59" cy="-126" rx="106.68" ry="18"/>
<text text-anchor="middle" x="106.59" y="-122.3" font-family="Times,serif" font-size="14.00">example.org/id/org/x</text>
</g>
<!-- example.org/id/org/x&#45;&gt;purl.unep.org/sdg/SDGIO_00020173 -->
<g id="edge11" class="edge">
<title>example.org/id/org/x&#45;&gt;purl.unep.org/sdg/SDGIO_00020173</title>
<path fill="none" stroke="black" d="M160.25,-141.56C245.37,-166.72 413.12,-216.29 506.95,-244.02"/>
<polygon fill="black" stroke="black" points="506.05,-247.4 516.63,-246.88 508.03,-240.69 506.05,-247.4"/>
<text text-anchor="middle" x="304.68" y="-206.8" font-family="Times,serif" font-size="14.00">publishingPrinciples</text>
</g>
<!-- example.org/id/org/x&#45;&gt;dx.doi.org/10.1038/sdata.2016.18 -->
<g id="edge12" class="edge">
<title>example.org/id/org/x&#45;&gt;dx.doi.org/10.1038/sdata.2016.18</title>
<path fill="none" stroke="black" d="M213.26,-126C267.55,-126 335.16,-126 397.16,-126"/>
<polygon fill="black" stroke="black" points="397.46,-129.5 407.46,-126 397.46,-122.5 397.46,-129.5"/>
<text text-anchor="middle" x="304.68" y="-129.8" font-family="Times,serif" font-size="14.00">publishingPrinciples</text>
</g>
<!-- example.org/id/org/x&#45;&gt;Organization -->
<g id="edge10" class="edge">
<title>example.org/id/org/x&#45;&gt;Organization</title>
<path fill="none" stroke="black" d="M184.31,-113.58C199.81,-111.25 216,-108.94 231.18,-107 322.82,-95.29 428.62,-84.99 498.29,-78.65"/>
<polygon fill="black" stroke="black" points="498.66,-82.13 508.3,-77.74 498.03,-75.16 498.66,-82.13"/>
<text text-anchor="middle" x="304.68" y="-110.8" font-family="Times,serif" font-size="14.00">type</text>
</g>
</g>
</svg>
