<?xml version="1.0" encoding="UTF-8" standalone="no"?>
<!DOCTYPE svg PUBLIC "-//W3C//DTD SVG 1.1//EN"
 "http://www.w3.org/Graphics/SVG/1.1/DTD/svg11.dtd">
<!-- Generated by graphviz version 2.43.0 (0)
 -->
<!-- Title: %3 Pages: 1 -->
<svg width="1233pt" height="442pt"
 viewBox="0.00 0.00 1233.42 442.00" xmlns="http://www.w3.org/2000/svg" xmlns:xlink="http://www.w3.org/1999/xlink">
<g id="graph0" class="graph" transform="scale(1 1) rotate(0) translate(4 438)">
<title>%3</title>
<polygon fill="white" stroke="transparent" points="-4,4 -4,-438 1229.42,-438 1229.42,4 -4,4"/>
<!-- Dataset -->
<g id="node1" class="node">
<title>Dataset</title>
<ellipse fill="none" stroke="#558855" cx="773.05" cy="-300" rx="46.59" ry="18"/>
<text text-anchor="middle" x="773.05" y="-296.3" font-family="Times,serif" font-size="14.00">Dataset</text>
</g>
<!-- obis.org/dataset/dcbb8f12&#45;c869&#45;4d31&#45;aa8b&#45;23abb27898ce -->
<g id="node2" class="node">
<title>obis.org/dataset/dcbb8f12&#45;c869&#45;4d31&#45;aa8b&#45;23abb27898ce</title>
<ellipse fill="none" stroke="black" cx="280.13" cy="-243" rx="280.25" ry="18"/>
<text text-anchor="middle" x="280.13" y="-239.3" font-family="Times,serif" font-size="14.00">obis.org/dataset/dcbb8f12&#45;c869&#45;4d31&#45;aa8b&#45;23abb27898ce</text>
</g>
<!-- obis.org/dataset/dcbb8f12&#45;c869&#45;4d31&#45;aa8b&#45;23abb27898ce&#45;&gt;Dataset -->
<g id="edge1" class="edge">
<title>obis.org/dataset/dcbb8f12&#45;c869&#45;4d31&#45;aa8b&#45;23abb27898ce&#45;&gt;Dataset</title>
<path fill="none" stroke="black" d="M416.57,-258.73C515.98,-270.27 645.75,-285.34 717.81,-293.7"/>
<polygon fill="black" stroke="black" points="717.67,-297.21 728.01,-294.89 718.48,-290.26 717.67,-297.21"/>
<text text-anchor="middle" x="643.25" y="-294.8" font-family="Times,serif" font-size="14.00">type</text>
</g>
<!-- _ -->
<g id="node3" class="node">
<title>_</title>
<ellipse fill="none" stroke="#558855" cx="773.05" cy="-224" rx="27" ry="18"/>
<text text-anchor="middle" x="773.05" y="-220.3" font-family="Times,serif" font-size="14.00">_</text>
</g>
<!-- obis.org/dataset/dcbb8f12&#45;c869&#45;4d31&#45;aa8b&#45;23abb27898ce&#45;&gt;_ -->
<g id="edge2" class="edge">
<title>obis.org/dataset/dcbb8f12&#45;c869&#45;4d31&#45;aa8b&#45;23abb27898ce&#45;&gt;_</title>
<path fill="none" stroke="black" d="M529.11,-251.26C588.01,-250.46 650.5,-247.34 708.25,-240 718.25,-238.73 728.95,-236.43 738.67,-233.96"/>
<polygon fill="black" stroke="black" points="739.61,-237.33 748.37,-231.37 737.81,-230.57 739.61,-237.33"/>
<text text-anchor="middle" x="643.25" y="-252.8" font-family="Times,serif" font-size="14.00">variableMeasured</text>
</g>
<!-- obis.org/dataset/dcbb8f12&#45;c869&#45;4d31&#45;aa8b&#45;23abb27898ce&#45;&gt;_ -->
<g id="edge3" class="edge">
<title>obis.org/dataset/dcbb8f12&#45;c869&#45;4d31&#45;aa8b&#45;23abb27898ce&#45;&gt;_</title>
<path fill="none" stroke="black" d="M447.19,-228.53C489.87,-225.4 535.74,-222.57 578.25,-221 635.99,-218.87 650.49,-219.64 708.25,-221 717.17,-221.21 726.79,-221.58 735.79,-222"/>
<polygon fill="black" stroke="black" points="735.82,-225.5 745.98,-222.5 736.17,-218.51 735.82,-225.5"/>
<text text-anchor="middle" x="643.25" y="-224.8" font-family="Times,serif" font-size="14.00">variableMeasured</text>
</g>
<!-- obis.org/dataset/dcbb8f12&#45;c869&#45;4d31&#45;aa8b&#45;23abb27898ce&#45;&gt;_ -->
<g id="edge4" class="edge">
<title>obis.org/dataset/dcbb8f12&#45;c869&#45;4d31&#45;aa8b&#45;23abb27898ce&#45;&gt;_</title>
<path fill="none" stroke="black" d="M345.25,-225.45C429.19,-205 580.66,-176.79 708.25,-200 719.37,-202.02 731.07,-205.87 741.37,-209.91"/>
<polygon fill="black" stroke="black" points="740.17,-213.2 750.75,-213.78 742.84,-206.73 740.17,-213.2"/>
<text text-anchor="middle" x="643.25" y="-203.8" font-family="Times,serif" font-size="14.00">variableMeasured</text>
</g>
<!-- PropertyValue -->
<g id="node4" class="node">
<title>PropertyValue</title>
<ellipse fill="none" stroke="#558855" cx="1081.13" cy="-376" rx="77.19" ry="18"/>
<text text-anchor="middle" x="1081.13" y="-372.3" font-family="Times,serif" font-size="14.00">PropertyValue</text>
</g>
<!-- _&#45;&gt;PropertyValue -->
<g id="edge5" class="edge">
<title>_&#45;&gt;PropertyValue</title>
<path fill="none" stroke="black" d="M791.16,-237.61C801.18,-246.57 813.14,-259.17 819.84,-273 843.15,-321.15 797.29,-357.12 837.84,-392 892.45,-438.97 982.1,-416.11 1035.68,-395.72"/>
<polygon fill="black" stroke="black" points="1037.23,-398.87 1045.25,-391.95 1034.66,-392.35 1037.23,-398.87"/>
<text text-anchor="middle" x="878.34" y="-422.8" font-family="Times,serif" font-size="14.00">type</text>
</g>
<!-- _&#45;&gt;PropertyValue -->
<g id="edge8" class="edge">
<title>_&#45;&gt;PropertyValue</title>
<path fill="none" stroke="black" d="M790.83,-237.78C800.72,-246.8 812.67,-259.4 819.84,-273 837.04,-305.62 810.15,-329.65 837.84,-354 849.62,-364.36 929.31,-370.1 994.14,-373.1"/>
<polygon fill="black" stroke="black" points="994.25,-376.61 1004.4,-373.56 994.57,-369.62 994.25,-376.61"/>
<text text-anchor="middle" x="878.34" y="-371.8" font-family="Times,serif" font-size="14.00">type</text>
</g>
<!-- _&#45;&gt;PropertyValue -->
<g id="edge12" class="edge">
<title>_&#45;&gt;PropertyValue</title>
<path fill="none" stroke="black" d="M789.88,-238.35C799.42,-247.58 811.33,-260.2 819.84,-273 830.64,-289.23 822.95,-300.42 837.84,-313 839.62,-314.5 947.37,-342.17 1018.57,-360.33"/>
<polygon fill="black" stroke="black" points="1017.8,-363.75 1028.36,-362.83 1019.53,-356.97 1017.8,-363.75"/>
<text text-anchor="middle" x="878.34" y="-337.8" font-family="Times,serif" font-size="14.00">type</text>
</g>
<!-- &quot;Abundance&quot; -->
<g id="node5" class="node">
<title>&quot;Abundance&quot;</title>
<ellipse fill="none" stroke="black" stroke-width="0" cx="1081.13" cy="-281" rx="70.69" ry="18"/>
<text text-anchor="middle" x="1081.13" y="-277.3" font-family="Times,serif" font-size="14.00">&quot;Abundance&quot;</text>
</g>
<!-- _&#45;&gt;&quot;Abundance&quot; -->
<g id="edge6" class="edge">
<title>_&#45;&gt;&quot;Abundance&quot;</title>
<path fill="none" stroke="black" d="M786.85,-239.67C798.56,-252.69 817.18,-270.28 837.84,-278 893.7,-298.86 961.97,-297.54 1011.79,-292.21"/>
<polygon fill="black" stroke="black" points="1012.28,-295.67 1021.82,-291.05 1011.48,-288.72 1012.28,-295.67"/>
<text text-anchor="middle" x="878.34" y="-297.8" font-family="Times,serif" font-size="14.00">description</text>
</g>
<!-- _&#45;&gt;&quot;Abundance&quot; -->
<g id="edge7" class="edge">
<title>_&#45;&gt;&quot;Abundance&quot;</title>
<path fill="none" stroke="black" d="M798.51,-230.11C810.35,-232.98 824.8,-236.34 837.84,-239 895.64,-250.79 961.63,-262.09 1010.13,-269.99"/>
<polygon fill="black" stroke="black" points="1009.77,-273.48 1020.2,-271.63 1010.89,-266.57 1009.77,-273.48"/>
<text text-anchor="middle" x="878.34" y="-257.8" font-family="Times,serif" font-size="14.00">name</text>
</g>
<!-- &quot;SamplingDeviceApertu...&quot; -->
<g id="node6" class="node">
<title>&quot;SamplingDeviceApertu...&quot;</title>
<ellipse fill="none" stroke="black" stroke-width="0" cx="1081.13" cy="-208" rx="135.38" ry="18"/>
<text text-anchor="middle" x="1081.13" y="-204.3" font-family="Times,serif" font-size="14.00">&quot;SamplingDeviceApertu...&quot;</text>
</g>
<!-- _&#45;&gt;&quot;SamplingDeviceApertu...&quot; -->
<g id="edge9" class="edge">
<title>_&#45;&gt;&quot;SamplingDeviceApertu...&quot;</title>
<path fill="none" stroke="black" d="M800.14,-222.64C832.53,-220.94 890.19,-217.93 944.8,-215.07"/>
<polygon fill="black" stroke="black" points="945.15,-218.56 954.96,-214.54 944.79,-211.57 945.15,-218.56"/>
<text text-anchor="middle" x="878.34" y="-223.8" font-family="Times,serif" font-size="14.00">description</text>
</g>
<!-- _&#45;&gt;&quot;SamplingDeviceApertu...&quot; -->
<g id="edge10" class="edge">
<title>_&#45;&gt;&quot;SamplingDeviceApertu...&quot;</title>
<path fill="none" stroke="black" d="M794.34,-212.94C806.56,-206.92 822.64,-200.09 837.84,-197 885.8,-187.27 940.14,-188.64 985.19,-193.04"/>
<polygon fill="black" stroke="black" points="984.94,-196.53 995.25,-194.08 985.67,-189.57 984.94,-196.53"/>
<text text-anchor="middle" x="878.34" y="-200.8" font-family="Times,serif" font-size="14.00">name</text>
</g>
<!-- &quot;http//vocab.nerc.ac....&quot; -->
<g id="node7" class="node">
<title>&quot;http//vocab.nerc.ac....&quot;</title>
<ellipse fill="none" stroke="black" stroke-width="0" cx="1081.13" cy="-137" rx="120.48" ry="18"/>
<text text-anchor="middle" x="1081.13" y="-133.3" font-family="Times,serif" font-size="14.00">&quot;http//vocab.nerc.ac....&quot;</text>
</g>
<!-- _&#45;&gt;&quot;http//vocab.nerc.ac....&quot; -->
<g id="edge11" class="edge">
<title>_&#45;&gt;&quot;http//vocab.nerc.ac....&quot;</title>
<path fill="none" stroke="black" d="M787.34,-208.7C799.23,-196.1 817.83,-178.91 837.84,-170 873.18,-154.27 914.05,-145.55 952.04,-140.86"/>
<polygon fill="black" stroke="black" points="952.62,-144.31 962.15,-139.69 951.81,-137.36 952.62,-144.31"/>
<text text-anchor="middle" x="878.34" y="-173.8" font-family="Times,serif" font-size="14.00">url</text>
</g>
<!-- _&#45;&gt;&quot;http//vocab.nerc.ac....&quot; -->
<g id="edge15" class="edge">
<title>_&#45;&gt;&quot;http//vocab.nerc.ac....&quot;</title>
<path fill="none" stroke="black" d="M779.9,-206.22C788.5,-183.33 806.98,-144.55 837.84,-128 893.49,-98.17 967.11,-106.38 1018.53,-118.3"/>
<polygon fill="black" stroke="black" points="1017.97,-121.77 1028.51,-120.73 1019.62,-114.97 1017.97,-121.77"/>
<text text-anchor="middle" x="878.34" y="-131.8" font-family="Times,serif" font-size="14.00">url</text>
</g>
<!-- &quot;NetMeshSize DEVNOTE ...&quot; -->
<g id="node8" class="node">
<title>&quot;NetMeshSize DEVNOTE ...&quot;</title>
<ellipse fill="none" stroke="black" stroke-width="0" cx="1081.13" cy="-72" rx="144.07" ry="18"/>
<text text-anchor="middle" x="1081.13" y="-68.3" font-family="Times,serif" font-size="14.00">&quot;NetMeshSize DEVNOTE ...&quot;</text>
</g>
<!-- _&#45;&gt;&quot;NetMeshSize DEVNOTE ...&quot; -->
<g id="edge13" class="edge">
<title>_&#45;&gt;&quot;NetMeshSize DEVNOTE ...&quot;</title>
<path fill="none" stroke="black" d="M776.79,-205.98C782.37,-176.17 798.08,-117.22 837.84,-90 878.78,-61.97 933.25,-55.9 980.17,-57.53"/>
<polygon fill="black" stroke="black" points="980.21,-61.03 990.36,-58 980.54,-54.04 980.21,-61.03"/>
<text text-anchor="middle" x="878.34" y="-93.8" font-family="Times,serif" font-size="14.00">description</text>
</g>
<!-- &quot;NetMeshSize&quot; -->
<g id="node9" class="node">
<title>&quot;NetMeshSize&quot;</title>
<ellipse fill="none" stroke="black" stroke-width="0" cx="1081.13" cy="-18" rx="81.49" ry="18"/>
<text text-anchor="middle" x="1081.13" y="-14.3" font-family="Times,serif" font-size="14.00">&quot;NetMeshSize&quot;</text>
</g>
<!-- _&#45;&gt;&quot;NetMeshSize&quot; -->
<g id="edge14" class="edge">
<title>_&#45;&gt;&quot;NetMeshSize&quot;</title>
<path fill="none" stroke="black" d="M774.39,-205.95C776.16,-168.57 785.99,-82.76 837.84,-42 884.96,-4.96 954.22,-1.59 1006.63,-5.95"/>
<polygon fill="black" stroke="black" points="1006.59,-9.46 1016.88,-6.92 1007.25,-2.5 1006.59,-9.46"/>
<text text-anchor="middle" x="878.34" y="-45.8" font-family="Times,serif" font-size="14.00">name</text>
</g>
</g>
</svg>
