<?xml version="1.0" encoding="UTF-8" standalone="no"?>
<!DOCTYPE svg PUBLIC "-//W3C//DTD SVG 1.1//EN"
 "http://www.w3.org/Graphics/SVG/1.1/DTD/svg11.dtd">
<!-- Generated by graphviz version 2.43.0 (0)
 -->
<!-- Title: %3 Pages: 1 -->
<svg width="720pt" height="534pt"
 viewBox="0.00 0.00 720.00 534.42" xmlns="http://www.w3.org/2000/svg" xmlns:xlink="http://www.w3.org/1999/xlink">
<g id="graph0" class="graph" transform="scale(1.78 1.78) rotate(0) translate(4 948.02)">
<title>%3</title>
<polygon fill="white" stroke="transparent" points="-4,4 -4,-948.02 1278.62,-948.02 1278.62,4 -4,4"/>
<!-- Organization -->
<g id="node1" class="node">
<title>Organization</title>
<ellipse fill="none" stroke="#558855" cx="570.51" cy="-524.02" rx="70.69" ry="18"/>
<text text-anchor="middle" x="570.51" y="-520.32" font-family="Times,serif" font-size="14.00">Organization</text>
</g>
<!-- www.someinstitute.edu -->
<g id="node2" class="node">
<title>www.someinstitute.edu</title>
<ellipse fill="none" stroke="#558855" cx="120.24" cy="-429.02" rx="120.48" ry="18"/>
<text text-anchor="middle" x="120.24" y="-425.32" font-family="Times,serif" font-size="14.00">www.someinstitute.edu</text>
</g>
<!-- www.someinstitute.edu&#45;&gt;Organization -->
<g id="edge1" class="edge">
<title>www.someinstitute.edu&#45;&gt;Organization</title>
<path fill="none" stroke="black" d="M151.48,-446.42C178.59,-461.15 219.91,-481.49 258.48,-492.02 335,-512.9 425.5,-520.37 489.09,-522.93"/>
<polygon fill="black" stroke="black" points="489.33,-526.45 499.45,-523.32 489.59,-519.45 489.33,-526.45"/>
<text text-anchor="middle" x="328.48" y="-518.82" font-family="Times,serif" font-size="14.00">type</text>
</g>
<!-- _ -->
<g id="node3" class="node">
<title>_</title>
<ellipse fill="none" stroke="#558855" cx="570.51" cy="-469.02" rx="27" ry="18"/>
<text text-anchor="middle" x="570.51" y="-465.32" font-family="Times,serif" font-size="14.00">_</text>
</g>
<!-- www.someinstitute.edu&#45;&gt;_ -->
<g id="edge2" class="edge">
<title>www.someinstitute.edu&#45;&gt;_</title>
<path fill="none" stroke="black" d="M172.81,-445.21C198.31,-452.44 229.72,-460.17 258.48,-464.02 357.25,-477.22 475.22,-473.99 533.41,-471.15"/>
<polygon fill="black" stroke="black" points="533.75,-474.64 543.56,-470.63 533.39,-467.65 533.75,-474.64"/>
<text text-anchor="middle" x="328.48" y="-476.82" font-family="Times,serif" font-size="14.00">address</text>
</g>
<!-- &quot;Some Institute&quot; -->
<g id="node4" class="node">
<title>&quot;Some Institute&quot;</title>
<ellipse fill="none" stroke="black" stroke-width="0" cx="570.51" cy="-412.02" rx="88.28" ry="18"/>
<text text-anchor="middle" x="570.51" y="-408.32" font-family="Times,serif" font-size="14.00">&quot;Some Institute&quot;</text>
</g>
<!-- www.someinstitute.edu&#45;&gt;&quot;Some Institute&quot; -->
<g id="edge3" class="edge">
<title>www.someinstitute.edu&#45;&gt;&quot;Some Institute&quot;</title>
<path fill="none" stroke="black" d="M205.26,-416.23C222.8,-414.06 241.21,-412.14 258.48,-411.02 330.45,-406.32 411.99,-406.79 473.52,-408.32"/>
<polygon fill="black" stroke="black" points="473.52,-411.83 483.6,-408.59 473.7,-404.83 473.52,-411.83"/>
<text text-anchor="middle" x="328.48" y="-414.82" font-family="Times,serif" font-size="14.00">legalName</text>
</g>
<!-- &quot;SI&quot; -->
<g id="node5" class="node">
<title>&quot;SI&quot;</title>
<ellipse fill="none" stroke="black" stroke-width="0" cx="570.51" cy="-358.02" rx="29.5" ry="18"/>
<text text-anchor="middle" x="570.51" y="-354.32" font-family="Times,serif" font-size="14.00">&quot;SI&quot;</text>
</g>
<!-- www.someinstitute.edu&#45;&gt;&quot;SI&quot; -->
<g id="edge4" class="edge">
<title>www.someinstitute.edu&#45;&gt;&quot;SI&quot;</title>
<path fill="none" stroke="black" d="M168.31,-412.49C194.54,-403.9 227.97,-393.99 258.48,-388.02 355.41,-369.05 471.79,-361.89 530.93,-359.33"/>
<polygon fill="black" stroke="black" points="531.1,-362.83 540.94,-358.92 530.81,-355.83 531.1,-362.83"/>
<text text-anchor="middle" x="328.48" y="-391.82" font-family="Times,serif" font-size="14.00">name</text>
</g>
<!-- &quot;http//www.someinstitute.edu&quot; -->
<g id="node6" class="node">
<title>&quot;http//www.someinstitute.edu&quot;</title>
<ellipse fill="none" stroke="black" stroke-width="0" cx="570.51" cy="-304.02" rx="154.07" ry="18"/>
<text text-anchor="middle" x="570.51" y="-300.32" font-family="Times,serif" font-size="14.00">&quot;http//www.someinstitute.edu&quot;</text>
</g>
<!-- www.someinstitute.edu&#45;&gt;&quot;http//www.someinstitute.edu&quot; -->
<g id="edge5" class="edge">
<title>www.someinstitute.edu&#45;&gt;&quot;http//www.someinstitute.edu&quot;</title>
<path fill="none" stroke="black" d="M145.13,-411.22C171.46,-392.56 215.77,-363.92 258.48,-349.02 310.75,-330.78 370.44,-319.93 423.46,-313.48"/>
<polygon fill="black" stroke="black" points="424.11,-316.92 433.63,-312.28 423.29,-309.97 424.11,-316.92"/>
<text text-anchor="middle" x="328.48" y="-352.82" font-family="Times,serif" font-size="14.00">url</text>
</g>
<!-- _&#45;&gt;www.someinstitute.edu -->
<g id="edge13" class="edge">
<title>_&#45;&gt;www.someinstitute.edu</title>
<path fill="none" stroke="black" d="M544.09,-464.79C510.75,-459.39 450.4,-450.15 398.48,-445.02 348.98,-440.12 294.36,-436.58 246.77,-434.08"/>
<polygon fill="black" stroke="black" points="246.9,-430.59 236.73,-433.57 246.54,-437.58 246.9,-430.59"/>
<text text-anchor="middle" x="328.48" y="-448.82" font-family="Times,serif" font-size="14.00">parentOrganization</text>
</g>
<!-- ResearchProject -->
<g id="node7" class="node">
<title>ResearchProject</title>
<ellipse fill="none" stroke="#558855" cx="1075.08" cy="-901.02" rx="87.18" ry="18"/>
<text text-anchor="middle" x="1075.08" y="-897.32" font-family="Times,serif" font-size="14.00">ResearchProject</text>
</g>
<!-- _&#45;&gt;ResearchProject -->
<g id="edge6" class="edge">
<title>_&#45;&gt;ResearchProject</title>
<path fill="none" stroke="black" d="M596.96,-465.12C631.63,-461.42 692.99,-460.92 724.55,-497.02 752.52,-529.01 712.79,-848.68 742.55,-879.02 812.53,-950.35 939.6,-935.22 1014.46,-917.98"/>
<polygon fill="black" stroke="black" points="1015.3,-921.37 1024.22,-915.65 1013.68,-914.57 1015.3,-921.37"/>
<text text-anchor="middle" x="800.05" y="-932.82" font-family="Times,serif" font-size="14.00">type</text>
</g>
<!-- Service -->
<g id="node8" class="node">
<title>Service</title>
<ellipse fill="none" stroke="#558855" cx="1075.08" cy="-847.02" rx="45.49" ry="18"/>
<text text-anchor="middle" x="1075.08" y="-843.32" font-family="Times,serif" font-size="14.00">Service</text>
</g>
<!-- _&#45;&gt;Service -->
<g id="edge7" class="edge">
<title>_&#45;&gt;Service</title>
<path fill="none" stroke="black" d="M596.9,-465.17C631.51,-461.53 692.8,-461.09 724.55,-497.02 770.4,-548.89 695.07,-757.64 742.55,-808.02 815.15,-885.06 952.93,-872.01 1025.92,-858.22"/>
<polygon fill="black" stroke="black" points="1026.64,-861.64 1035.77,-856.27 1025.29,-854.77 1026.64,-861.64"/>
<text text-anchor="middle" x="800.05" y="-865.82" font-family="Times,serif" font-size="14.00">type</text>
</g>
<!-- &quot;Biological Oceanography&quot; -->
<g id="node9" class="node">
<title>&quot;Biological Oceanography&quot;</title>
<ellipse fill="none" stroke="black" stroke-width="0" cx="1075.08" cy="-793.02" rx="134.58" ry="18"/>
<text text-anchor="middle" x="1075.08" y="-789.32" font-family="Times,serif" font-size="14.00">&quot;Biological Oceanography&quot;</text>
</g>
<!-- _&#45;&gt;&quot;Biological Oceanography&quot; -->
<g id="edge8" class="edge">
<title>_&#45;&gt;&quot;Biological Oceanography&quot;</title>
<path fill="none" stroke="black" d="M597.14,-465.19C631.72,-461.64 692.68,-461.38 724.55,-497.02 762.87,-539.85 702.83,-713.48 742.55,-755.02 768.52,-782.16 853.25,-791.56 930.54,-794.22"/>
<polygon fill="black" stroke="black" points="930.8,-797.73 940.9,-794.54 931.02,-790.73 930.8,-797.73"/>
<text text-anchor="middle" x="800.05" y="-792.82" font-family="Times,serif" font-size="14.00">category</text>
</g>
<!-- &quot;Chemical Oceanography&quot; -->
<g id="node10" class="node">
<title>&quot;Chemical Oceanography&quot;</title>
<ellipse fill="none" stroke="black" stroke-width="0" cx="1075.08" cy="-739.02" rx="131.88" ry="18"/>
<text text-anchor="middle" x="1075.08" y="-735.32" font-family="Times,serif" font-size="14.00">&quot;Chemical Oceanography&quot;</text>
</g>
<!-- _&#45;&gt;&quot;Chemical Oceanography&quot; -->
<g id="edge9" class="edge">
<title>_&#45;&gt;&quot;Chemical Oceanography&quot;</title>
<path fill="none" stroke="black" d="M597.05,-465.27C631.53,-461.81 692.37,-461.66 724.55,-497.02 755.49,-531 710.4,-670.18 742.55,-703.02 769.15,-730.18 855.74,-738.95 933.75,-741.05"/>
<polygon fill="black" stroke="black" points="934.12,-744.56 944.2,-741.29 934.28,-737.56 934.12,-744.56"/>
<text text-anchor="middle" x="800.05" y="-739.82" font-family="Times,serif" font-size="14.00">category</text>
</g>
<!-- &quot;The Sample Data Repository Service...&quot; -->
<g id="node11" class="node">
<title>&quot;The Sample Data Repository Service...&quot;</title>
<ellipse fill="none" stroke="black" stroke-width="0" cx="1075.08" cy="-685.02" rx="198.47" ry="18"/>
<text text-anchor="middle" x="1075.08" y="-681.32" font-family="Times,serif" font-size="14.00">&quot;The Sample Data Repository Service...&quot;</text>
</g>
<!-- _&#45;&gt;&quot;The Sample Data Repository Service...&quot; -->
<g id="edge10" class="edge">
<title>_&#45;&gt;&quot;The Sample Data Repository Service...&quot;</title>
<path fill="none" stroke="black" d="M597.2,-465.37C631.57,-462.09 691.97,-462.21 724.55,-497.02 772.25,-547.97 692.74,-604.13 742.55,-653.02 761.97,-672.07 811.91,-681.45 867.3,-685.68"/>
<polygon fill="black" stroke="black" points="867.11,-689.17 877.33,-686.38 867.6,-682.19 867.11,-689.17"/>
<text text-anchor="middle" x="800.05" y="-687.82" font-family="Times,serif" font-size="14.00">description</text>
</g>
<!-- &quot;Sample Data Repository Office&quot; -->
<g id="node12" class="node">
<title>&quot;Sample Data Repository Office&quot;</title>
<ellipse fill="none" stroke="black" stroke-width="0" cx="1075.08" cy="-631.02" rx="161.67" ry="18"/>
<text text-anchor="middle" x="1075.08" y="-627.32" font-family="Times,serif" font-size="14.00">&quot;Sample Data Repository Office&quot;</text>
</g>
<!-- _&#45;&gt;&quot;Sample Data Repository Office&quot; -->
<g id="edge11" class="edge">
<title>_&#45;&gt;&quot;Sample Data Repository Office&quot;</title>
<path fill="none" stroke="black" d="M597.29,-465.8C631.21,-463.12 690.49,-464.05 724.55,-497.02 751.67,-523.27 715.4,-553.8 742.55,-580.02 797.45,-633.03 883.03,-645.13 953.49,-644.31"/>
<polygon fill="black" stroke="black" points="953.84,-647.81 963.77,-644.1 953.7,-640.81 953.84,-647.81"/>
<text text-anchor="middle" x="800.05" y="-637.82" font-family="Times,serif" font-size="14.00">legalName</text>
</g>
<!-- &quot;SDRO&quot; -->
<g id="node13" class="node">
<title>&quot;SDRO&quot;</title>
<ellipse fill="none" stroke="black" stroke-width="0" cx="1075.08" cy="-577.02" rx="47.39" ry="18"/>
<text text-anchor="middle" x="1075.08" y="-573.32" font-family="Times,serif" font-size="14.00">&quot;SDRO&quot;</text>
</g>
<!-- _&#45;&gt;&quot;SDRO&quot; -->
<g id="edge12" class="edge">
<title>_&#45;&gt;&quot;SDRO&quot;</title>
<path fill="none" stroke="black" d="M597.68,-468.62C629.68,-469.24 684.51,-474 724.55,-497.02 735.21,-503.14 732.07,-511.6 742.55,-518.02 828.05,-570.33 947.73,-579.04 1017.46,-579.08"/>
<polygon fill="black" stroke="black" points="1017.81,-582.58 1027.79,-579.02 1017.77,-575.58 1017.81,-582.58"/>
<text text-anchor="middle" x="800.05" y="-564.82" font-family="Times,serif" font-size="14.00">name</text>
</g>
<!-- www.sample&#45;data&#45;repository.org -->
<g id="node14" class="node">
<title>www.sample&#45;data&#45;repository.org</title>
<ellipse fill="none" stroke="#558855" cx="1075.08" cy="-523.02" rx="160.57" ry="18"/>
<text text-anchor="middle" x="1075.08" y="-519.32" font-family="Times,serif" font-size="14.00">www.sample&#45;data&#45;repository.org</text>
</g>
<!-- _&#45;&gt;www.sample&#45;data&#45;repository.org -->
<g id="edge14" class="edge">
<title>_&#45;&gt;www.sample&#45;data&#45;repository.org</title>
<path fill="none" stroke="black" d="M597.3,-471.93C630.77,-475.69 691.02,-482.43 742.55,-488.02 809.87,-495.31 884.89,-503.25 946.53,-509.71"/>
<polygon fill="black" stroke="black" points="946.38,-513.22 956.69,-510.78 947.11,-506.26 946.38,-513.22"/>
<text text-anchor="middle" x="800.05" y="-502.82" font-family="Times,serif" font-size="14.00">provider</text>
</g>
<!-- &quot;https//www.sample&#45;data&#45;repository.org&quot; -->
<g id="node15" class="node">
<title>&quot;https//www.sample&#45;data&#45;repository.org&quot;</title>
<ellipse fill="none" stroke="black" stroke-width="0" cx="1075.08" cy="-469.02" rx="199.56" ry="18"/>
<text text-anchor="middle" x="1075.08" y="-465.32" font-family="Times,serif" font-size="14.00">&quot;https//www.sample&#45;data&#45;repository.org&quot;</text>
</g>
<!-- _&#45;&gt;&quot;https//www.sample&#45;data&#45;repository.org&quot; -->
<g id="edge15" class="edge">
<title>_&#45;&gt;&quot;https//www.sample&#45;data&#45;repository.org&quot;</title>
<path fill="none" stroke="black" d="M597.83,-469.02C648.01,-469.02 761.66,-469.02 865.35,-469.02"/>
<polygon fill="black" stroke="black" points="865.36,-472.52 875.36,-469.02 865.36,-465.52 865.36,-472.52"/>
<text text-anchor="middle" x="800.05" y="-472.82" font-family="Times,serif" font-size="14.00">url</text>
</g>
<!-- PostalAddress -->
<g id="node16" class="node">
<title>PostalAddress</title>
<ellipse fill="none" stroke="#558855" cx="1075.08" cy="-415.02" rx="76.89" ry="18"/>
<text text-anchor="middle" x="1075.08" y="-411.32" font-family="Times,serif" font-size="14.00">PostalAddress</text>
</g>
<!-- _&#45;&gt;PostalAddress -->
<g id="edge16" class="edge">
<title>_&#45;&gt;PostalAddress</title>
<path fill="none" stroke="black" d="M597.3,-466.11C630.77,-462.34 691.02,-455.6 742.55,-450.02 828.62,-440.69 927.29,-430.32 994.45,-423.3"/>
<polygon fill="black" stroke="black" points="994.96,-426.77 1004.54,-422.25 994.23,-419.8 994.96,-426.77"/>
<text text-anchor="middle" x="800.05" y="-453.82" font-family="Times,serif" font-size="14.00">type</text>
</g>
<!-- &quot;USA&quot; -->
<g id="node17" class="node">
<title>&quot;USA&quot;</title>
<ellipse fill="none" stroke="black" stroke-width="0" cx="1075.08" cy="-361.02" rx="40.09" ry="18"/>
<text text-anchor="middle" x="1075.08" y="-357.32" font-family="Times,serif" font-size="14.00">&quot;USA&quot;</text>
</g>
<!-- _&#45;&gt;&quot;USA&quot; -->
<g id="edge17" class="edge">
<title>_&#45;&gt;&quot;USA&quot;</title>
<path fill="none" stroke="black" d="M597.61,-468.84C629.52,-467.57 684.28,-461.85 724.55,-439.02 734.95,-433.12 732.25,-425.1 742.55,-419.02 831.8,-366.3 956.55,-358.8 1024.75,-359.15"/>
<polygon fill="black" stroke="black" points="1024.75,-362.65 1034.79,-359.27 1024.83,-355.65 1024.75,-362.65"/>
<text text-anchor="middle" x="800.05" y="-422.82" font-family="Times,serif" font-size="14.00">addressCountry</text>
</g>
<!-- &quot;Anytown&quot; -->
<g id="node18" class="node">
<title>&quot;Anytown&quot;</title>
<ellipse fill="none" stroke="black" stroke-width="0" cx="1075.08" cy="-307.02" rx="59.59" ry="18"/>
<text text-anchor="middle" x="1075.08" y="-303.32" font-family="Times,serif" font-size="14.00">&quot;Anytown&quot;</text>
</g>
<!-- _&#45;&gt;&quot;Anytown&quot; -->
<g id="edge18" class="edge">
<title>_&#45;&gt;&quot;Anytown&quot;</title>
<path fill="none" stroke="black" d="M597.32,-471.84C631.26,-474.01 690.58,-472.24 724.55,-439.02 751.23,-412.93 715.58,-382.8 742.55,-357.02 814.48,-288.25 938.19,-289.03 1012.45,-297.14"/>
<polygon fill="black" stroke="black" points="1012.25,-300.64 1022.59,-298.32 1013.06,-293.68 1012.25,-300.64"/>
<text text-anchor="middle" x="800.05" y="-360.82" font-family="Times,serif" font-size="14.00">addressLocality</text>
</g>
<!-- &quot;ST&quot; -->
<g id="node19" class="node">
<title>&quot;ST&quot;</title>
<ellipse fill="none" stroke="black" stroke-width="0" cx="1075.08" cy="-253.02" rx="31.7" ry="18"/>
<text text-anchor="middle" x="1075.08" y="-249.32" font-family="Times,serif" font-size="14.00">&quot;ST&quot;</text>
</g>
<!-- _&#45;&gt;&quot;ST&quot; -->
<g id="edge19" class="edge">
<title>_&#45;&gt;&quot;ST&quot;</title>
<path fill="none" stroke="black" d="M597.24,-472.28C631.65,-475.07 692.1,-474.1 724.55,-439.02 771.64,-388.1 692.97,-332.5 742.55,-284.02 821.38,-206.94 966.75,-227.5 1035.77,-243"/>
<polygon fill="black" stroke="black" points="1035.24,-246.47 1045.78,-245.33 1036.83,-239.65 1035.24,-246.47"/>
<text text-anchor="middle" x="800.05" y="-287.82" font-family="Times,serif" font-size="14.00">addressRegion</text>
</g>
<!-- &quot;12345&quot; -->
<g id="node20" class="node">
<title>&quot;12345&quot;</title>
<ellipse fill="none" stroke="black" stroke-width="0" cx="1075.08" cy="-199.02" rx="48.99" ry="18"/>
<text text-anchor="middle" x="1075.08" y="-195.32" font-family="Times,serif" font-size="14.00">&quot;12345&quot;</text>
</g>
<!-- _&#45;&gt;&quot;12345&quot; -->
<g id="edge20" class="edge">
<title>_&#45;&gt;&quot;12345&quot;</title>
<path fill="none" stroke="black" d="M597.12,-472.42C631.7,-475.42 692.64,-474.77 724.55,-439.02 757.81,-401.76 706.68,-249.76 742.55,-215.02 780.45,-178.31 933.75,-185.93 1017.98,-193.24"/>
<polygon fill="black" stroke="black" points="1017.87,-196.75 1028.14,-194.15 1018.49,-189.78 1017.87,-196.75"/>
<text text-anchor="middle" x="800.05" y="-218.82" font-family="Times,serif" font-size="14.00">postalCode</text>
</g>
<!-- &quot;234 Main St.&quot; -->
<g id="node21" class="node">
<title>&quot;234 Main St.&quot;</title>
<ellipse fill="none" stroke="black" stroke-width="0" cx="1075.08" cy="-145.02" rx="79.09" ry="18"/>
<text text-anchor="middle" x="1075.08" y="-141.32" font-family="Times,serif" font-size="14.00">&quot;234 Main St.&quot;</text>
</g>
<!-- _&#45;&gt;&quot;234 Main St.&quot; -->
<g id="edge21" class="edge">
<title>_&#45;&gt;&quot;234 Main St.&quot;</title>
<path fill="none" stroke="black" d="M597.19,-472.49C631.85,-475.56 692.88,-474.98 724.55,-439.02 764.29,-393.88 700.15,-211.66 742.55,-169.02 775.92,-135.46 902.6,-135.05 989.34,-139.09"/>
<polygon fill="black" stroke="black" points="989.29,-142.59 999.45,-139.59 989.64,-135.6 989.29,-142.59"/>
<text text-anchor="middle" x="800.05" y="-172.82" font-family="Times,serif" font-size="14.00">streetAddress</text>
</g>
<!-- Product -->
<g id="node22" class="node">
<title>Product</title>
<ellipse fill="none" stroke="#558855" cx="1075.08" cy="-91.02" rx="47.39" ry="18"/>
<text text-anchor="middle" x="1075.08" y="-87.32" font-family="Times,serif" font-size="14.00">Product</text>
</g>
<!-- _&#45;&gt;Product -->
<g id="edge22" class="edge">
<title>_&#45;&gt;Product</title>
<path fill="none" stroke="black" d="M597.25,-472.53C631.96,-475.65 693.06,-475.14 724.55,-439.02 771.06,-385.66 693.35,-171.9 742.55,-121.02 816.02,-45.03 953.74,-62.3 1026.39,-78.37"/>
<polygon fill="black" stroke="black" points="1025.67,-81.79 1036.2,-80.62 1027.24,-74.97 1025.67,-81.79"/>
<text text-anchor="middle" x="800.05" y="-124.82" font-family="Times,serif" font-size="14.00">type</text>
</g>
<!-- &quot;Product name&quot; -->
<g id="node23" class="node">
<title>&quot;Product name&quot;</title>
<ellipse fill="none" stroke="black" stroke-width="0" cx="1075.08" cy="-37.02" rx="84.49" ry="18"/>
<text text-anchor="middle" x="1075.08" y="-33.32" font-family="Times,serif" font-size="14.00">&quot;Product name&quot;</text>
</g>
<!-- _&#45;&gt;&quot;Product name&quot; -->
<g id="edge23" class="edge">
<title>_&#45;&gt;&quot;Product name&quot;</title>
<path fill="none" stroke="black" d="M597.01,-472.55C631.73,-475.76 693.16,-475.41 724.55,-439.02 752.81,-406.25 711.85,-80.5 742.55,-50.02 814.58,21.5 944.53,0.72 1018.53,-19.18"/>
<polygon fill="black" stroke="black" points="1018.02,-22.67 1028.59,-21.97 1019.89,-15.92 1018.02,-22.67"/>
<text text-anchor="middle" x="800.05" y="-53.82" font-family="Times,serif" font-size="14.00">name</text>
</g>
</g>
</svg>
