<?xml version="1.0" encoding="UTF-8" standalone="no"?>
<!DOCTYPE svg PUBLIC "-//W3C//DTD SVG 1.1//EN"
 "http://www.w3.org/Graphics/SVG/1.1/DTD/svg11.dtd">
<!-- Generated by graphviz version 2.43.0 (0)
 -->
<!-- Title: %3 Pages: 1 -->
<svg width="1153pt" height="937pt"
 viewBox="0.00 0.00 1152.63 936.55" xmlns="http://www.w3.org/2000/svg" xmlns:xlink="http://www.w3.org/1999/xlink">
<g id="graph0" class="graph" transform="scale(1 1) rotate(0) translate(4 932.55)">
<title>%3</title>
<polygon fill="white" stroke="transparent" points="-4,4 -4,-932.55 1148.63,-932.55 1148.63,4 -4,4"/>
<!-- Organization -->
<g id="node1" class="node">
<title>Organization</title>
<ellipse fill="none" stroke="#558855" cx="544.52" cy="-512.55" rx="70.69" ry="18"/>
<text text-anchor="middle" x="544.52" y="-508.85" font-family="Times,serif" font-size="14.00">Organization</text>
</g>
<!-- www.someinstitute.edu -->
<g id="node2" class="node">
<title>www.someinstitute.edu</title>
<ellipse fill="none" stroke="#558855" cx="120.24" cy="-417.55" rx="120.48" ry="18"/>
<text text-anchor="middle" x="120.24" y="-413.85" font-family="Times,serif" font-size="14.00">www.someinstitute.edu</text>
</g>
<!-- www.someinstitute.edu&#45;&gt;Organization -->
<g id="edge1" class="edge">
<title>www.someinstitute.edu&#45;&gt;Organization</title>
<path fill="none" stroke="black" d="M152.36,-434.98C179.52,-449.35 220.43,-469.03 258.48,-479.55 326.31,-498.31 406.08,-506.41 463.95,-509.91"/>
<polygon fill="black" stroke="black" points="463.95,-513.42 474.13,-510.49 464.35,-506.43 463.95,-513.42"/>
<text text-anchor="middle" x="328.48" y="-507.35" font-family="Times,serif" font-size="14.00">type</text>
</g>
<!-- _ -->
<g id="node3" class="node">
<title>_</title>
<ellipse fill="none" stroke="#558855" cx="544.52" cy="-457.55" rx="27" ry="18"/>
<text text-anchor="middle" x="544.52" y="-453.85" font-family="Times,serif" font-size="14.00">_</text>
</g>
<!-- www.someinstitute.edu&#45;&gt;_ -->
<g id="edge2" class="edge">
<title>www.someinstitute.edu&#45;&gt;_</title>
<path fill="none" stroke="black" d="M173.14,-433.82C198.58,-441.01 229.84,-448.7 258.48,-452.55 347.23,-464.48 452.92,-462.05 507.26,-459.59"/>
<polygon fill="black" stroke="black" points="507.61,-463.08 517.43,-459.11 507.27,-456.09 507.61,-463.08"/>
<text text-anchor="middle" x="328.48" y="-464.35" font-family="Times,serif" font-size="14.00">address</text>
</g>
<!-- &quot;Some Institute&quot; -->
<g id="node4" class="node">
<title>&quot;Some Institute&quot;</title>
<ellipse fill="none" stroke="black" stroke-width="0" cx="544.52" cy="-400.55" rx="88.28" ry="18"/>
<text text-anchor="middle" x="544.52" y="-396.85" font-family="Times,serif" font-size="14.00">&quot;Some Institute&quot;</text>
</g>
<!-- www.someinstitute.edu&#45;&gt;&quot;Some Institute&quot; -->
<g id="edge3" class="edge">
<title>www.someinstitute.edu&#45;&gt;&quot;Some Institute&quot;</title>
<path fill="none" stroke="black" d="M205.26,-404.77C222.8,-402.6 241.21,-400.68 258.48,-399.55 321.35,-395.45 392.19,-395.67 447.53,-396.94"/>
<polygon fill="black" stroke="black" points="447.59,-400.44 457.67,-397.18 447.76,-393.44 447.59,-400.44"/>
<text text-anchor="middle" x="328.48" y="-403.35" font-family="Times,serif" font-size="14.00">legalName</text>
</g>
<!-- &quot;SI&quot; -->
<g id="node5" class="node">
<title>&quot;SI&quot;</title>
<ellipse fill="none" stroke="black" stroke-width="0" cx="544.52" cy="-346.55" rx="29.5" ry="18"/>
<text text-anchor="middle" x="544.52" y="-342.85" font-family="Times,serif" font-size="14.00">&quot;SI&quot;</text>
</g>
<!-- www.someinstitute.edu&#45;&gt;&quot;SI&quot; -->
<g id="edge4" class="edge">
<title>www.someinstitute.edu&#45;&gt;&quot;SI&quot;</title>
<path fill="none" stroke="black" d="M168.64,-401.02C194.83,-392.49 228.12,-382.63 258.48,-376.55 345.57,-359.12 449.79,-351.41 504.91,-348.34"/>
<polygon fill="black" stroke="black" points="505.14,-351.84 514.93,-347.81 504.76,-344.85 505.14,-351.84"/>
<text text-anchor="middle" x="328.48" y="-380.35" font-family="Times,serif" font-size="14.00">name</text>
</g>
<!-- &quot;http//www.someinstit...&quot; -->
<g id="node6" class="node">
<title>&quot;http//www.someinstit...&quot;</title>
<ellipse fill="none" stroke="black" stroke-width="0" cx="544.52" cy="-292.55" rx="128.08" ry="18"/>
<text text-anchor="middle" x="544.52" y="-288.85" font-family="Times,serif" font-size="14.00">&quot;http//www.someinstit...&quot;</text>
</g>
<!-- www.someinstitute.edu&#45;&gt;&quot;http//www.someinstit...&quot; -->
<g id="edge5" class="edge">
<title>www.someinstitute.edu&#45;&gt;&quot;http//www.someinstit...&quot;</title>
<path fill="none" stroke="black" d="M145.17,-399.86C171.53,-381.29 215.87,-352.73 258.48,-337.55 309.8,-319.27 368.96,-308.4 420.03,-301.95"/>
<polygon fill="black" stroke="black" points="420.63,-305.4 430.13,-300.71 419.78,-298.45 420.63,-305.4"/>
<text text-anchor="middle" x="328.48" y="-341.35" font-family="Times,serif" font-size="14.00">url</text>
</g>
<!-- _&#45;&gt;www.someinstitute.edu -->
<g id="edge13" class="edge">
<title>_&#45;&gt;www.someinstitute.edu</title>
<path fill="none" stroke="black" d="M518.48,-452.58C489.65,-447.04 440.84,-438.27 398.48,-433.55 349.38,-428.09 295.18,-424.44 247.81,-422.02"/>
<polygon fill="black" stroke="black" points="247.98,-418.52 237.81,-421.52 247.63,-425.52 247.98,-418.52"/>
<text text-anchor="middle" x="328.48" y="-437.35" font-family="Times,serif" font-size="14.00">parentOrganization</text>
</g>
<!-- ResearchProject -->
<g id="node7" class="node">
<title>ResearchProject</title>
<ellipse fill="none" stroke="#558855" cx="984.09" cy="-889.55" rx="87.18" ry="18"/>
<text text-anchor="middle" x="984.09" y="-885.85" font-family="Times,serif" font-size="14.00">ResearchProject</text>
</g>
<!-- _&#45;&gt;ResearchProject -->
<g id="edge6" class="edge">
<title>_&#45;&gt;ResearchProject</title>
<path fill="none" stroke="black" d="M571.3,-454.93C600.75,-453.53 648.03,-456.46 672.56,-485.55 699.95,-518.04 660.93,-837.09 690.56,-867.55 749.24,-927.9 854.07,-919.5 921.01,-905.96"/>
<polygon fill="black" stroke="black" points="921.95,-909.34 931.01,-903.85 920.5,-902.49 921.95,-909.34"/>
<text text-anchor="middle" x="748.06" y="-917.35" font-family="Times,serif" font-size="14.00">type</text>
</g>
<!-- Service -->
<g id="node8" class="node">
<title>Service</title>
<ellipse fill="none" stroke="#558855" cx="984.09" cy="-835.55" rx="45.49" ry="18"/>
<text text-anchor="middle" x="984.09" y="-831.85" font-family="Times,serif" font-size="14.00">Service</text>
</g>
<!-- _&#45;&gt;Service -->
<g id="edge7" class="edge">
<title>_&#45;&gt;Service</title>
<path fill="none" stroke="black" d="M571.25,-454.98C600.65,-453.62 647.88,-456.59 672.56,-485.55 717.74,-538.59 643,-747.63 690.56,-798.55 752.33,-864.7 868.3,-857.13 934.15,-846.12"/>
<polygon fill="black" stroke="black" points="935.03,-849.51 944.27,-844.33 933.81,-842.62 935.03,-849.51"/>
<text text-anchor="middle" x="748.06" y="-853.35" font-family="Times,serif" font-size="14.00">type</text>
</g>
<!-- &quot;Biological Oceanogra...&quot; -->
<g id="node9" class="node">
<title>&quot;Biological Oceanogra...&quot;</title>
<ellipse fill="none" stroke="black" stroke-width="0" cx="984.09" cy="-781.55" rx="126.18" ry="18"/>
<text text-anchor="middle" x="984.09" y="-777.85" font-family="Times,serif" font-size="14.00">&quot;Biological Oceanogra...&quot;</text>
</g>
<!-- _&#45;&gt;&quot;Biological Oceanogra...&quot; -->
<g id="edge8" class="edge">
<title>_&#45;&gt;&quot;Biological Oceanogra...&quot;</title>
<path fill="none" stroke="black" d="M571.45,-455.01C600.82,-453.73 647.79,-456.81 672.56,-485.55 710.79,-529.94 650.05,-706.23 690.56,-748.55 712.53,-771.51 782.19,-779.95 848.02,-782.56"/>
<polygon fill="black" stroke="black" points="848.01,-786.07 858.13,-782.92 848.26,-779.07 848.01,-786.07"/>
<text text-anchor="middle" x="748.06" y="-783.35" font-family="Times,serif" font-size="14.00">category</text>
</g>
<!-- &quot;Chemical Oceanograph...&quot; -->
<g id="node10" class="node">
<title>&quot;Chemical Oceanograph...&quot;</title>
<ellipse fill="none" stroke="black" stroke-width="0" cx="984.09" cy="-727.55" rx="135.68" ry="18"/>
<text text-anchor="middle" x="984.09" y="-723.85" font-family="Times,serif" font-size="14.00">&quot;Chemical Oceanograph...&quot;</text>
</g>
<!-- _&#45;&gt;&quot;Chemical Oceanograph...&quot; -->
<g id="edge9" class="edge">
<title>_&#45;&gt;&quot;Chemical Oceanograph...&quot;</title>
<path fill="none" stroke="black" d="M571.38,-455.08C600.67,-453.86 647.58,-456.99 672.56,-485.55 704.26,-521.81 656.59,-667.4 690.56,-701.55 712.18,-723.3 778.1,-730.35 841.89,-731.71"/>
<polygon fill="black" stroke="black" points="842.05,-735.22 852.11,-731.88 842.17,-728.22 842.05,-735.22"/>
<text text-anchor="middle" x="748.06" y="-733.35" font-family="Times,serif" font-size="14.00">category</text>
</g>
<!-- &quot;The Sample Data Repo...&quot; -->
<g id="node11" class="node">
<title>&quot;The Sample Data Repo...&quot;</title>
<ellipse fill="none" stroke="black" stroke-width="0" cx="984.09" cy="-673.55" rx="133.78" ry="18"/>
<text text-anchor="middle" x="984.09" y="-669.85" font-family="Times,serif" font-size="14.00">&quot;The Sample Data Repo...&quot;</text>
</g>
<!-- _&#45;&gt;&quot;The Sample Data Repo...&quot; -->
<g id="edge10" class="edge">
<title>_&#45;&gt;&quot;The Sample Data Repo...&quot;</title>
<path fill="none" stroke="black" d="M571.44,-455.25C600.56,-454.23 647.08,-457.58 672.56,-485.55 716.28,-533.57 645.16,-584.12 690.56,-630.55 739.01,-680.11 817.74,-689.35 881.32,-687.02"/>
<polygon fill="black" stroke="black" points="881.56,-690.51 891.39,-686.55 881.23,-683.52 881.56,-690.51"/>
<text text-anchor="middle" x="748.06" y="-686.35" font-family="Times,serif" font-size="14.00">description</text>
</g>
<!-- &quot;Sample Data Reposito...&quot; -->
<g id="node12" class="node">
<title>&quot;Sample Data Reposito...&quot;</title>
<ellipse fill="none" stroke="black" stroke-width="0" cx="984.09" cy="-619.55" rx="131.08" ry="18"/>
<text text-anchor="middle" x="984.09" y="-615.85" font-family="Times,serif" font-size="14.00">&quot;Sample Data Reposito...&quot;</text>
</g>
<!-- _&#45;&gt;&quot;Sample Data Reposito...&quot; -->
<g id="edge11" class="edge">
<title>_&#45;&gt;&quot;Sample Data Reposito...&quot;</title>
<path fill="none" stroke="black" d="M571.55,-455.88C600.11,-455.53 645.5,-459.6 672.56,-485.55 695.12,-507.19 668.74,-531.16 690.56,-553.55 729.97,-594.02 788.52,-612.04 842.9,-619.37"/>
<polygon fill="black" stroke="black" points="842.65,-622.87 853.01,-620.62 843.51,-615.92 842.65,-622.87"/>
<text text-anchor="middle" x="748.06" y="-615.35" font-family="Times,serif" font-size="14.00">legalName</text>
</g>
<!-- &quot;SDRO&quot; -->
<g id="node13" class="node">
<title>&quot;SDRO&quot;</title>
<ellipse fill="none" stroke="black" stroke-width="0" cx="984.09" cy="-565.55" rx="47.39" ry="18"/>
<text text-anchor="middle" x="984.09" y="-561.85" font-family="Times,serif" font-size="14.00">&quot;SDRO&quot;</text>
</g>
<!-- _&#45;&gt;&quot;SDRO&quot; -->
<g id="edge12" class="edge">
<title>_&#45;&gt;&quot;SDRO&quot;</title>
<path fill="none" stroke="black" d="M571.55,-458.21C598.68,-459.99 641.5,-466 672.56,-485.55 683.54,-492.47 679.59,-501.61 690.56,-508.55 741.76,-540.96 764.11,-526.83 823.56,-538.55 858.84,-545.51 898.73,-552.26 929.8,-557.28"/>
<polygon fill="black" stroke="black" points="929.55,-560.78 939.98,-558.91 930.66,-553.87 929.55,-560.78"/>
<text text-anchor="middle" x="748.06" y="-538.35" font-family="Times,serif" font-size="14.00">name</text>
</g>
<!-- www.sample&#45;data&#45;repository.org -->
<g id="node14" class="node">
<title>www.sample&#45;data&#45;repository.org</title>
<ellipse fill="none" stroke="#558855" cx="984.09" cy="-511.55" rx="160.57" ry="18"/>
<text text-anchor="middle" x="984.09" y="-507.85" font-family="Times,serif" font-size="14.00">www.sample&#45;data&#45;repository.org</text>
</g>
<!-- _&#45;&gt;www.sample&#45;data&#45;repository.org -->
<g id="edge14" class="edge">
<title>_&#45;&gt;www.sample&#45;data&#45;repository.org</title>
<path fill="none" stroke="black" d="M571.18,-461C600.16,-464.88 648.73,-471.31 690.56,-476.55 746.94,-483.62 809.47,-491.14 862.2,-497.4"/>
<polygon fill="black" stroke="black" points="861.93,-500.89 872.27,-498.59 862.75,-493.94 861.93,-500.89"/>
<text text-anchor="middle" x="748.06" y="-493.35" font-family="Times,serif" font-size="14.00">provider</text>
</g>
<!-- &quot;https//www.sample&#45;da...&quot; -->
<g id="node15" class="node">
<title>&quot;https//www.sample&#45;da...&quot;</title>
<ellipse fill="none" stroke="black" stroke-width="0" cx="984.09" cy="-457.55" rx="131.08" ry="18"/>
<text text-anchor="middle" x="984.09" y="-453.85" font-family="Times,serif" font-size="14.00">&quot;https//www.sample&#45;da...&quot;</text>
</g>
<!-- _&#45;&gt;&quot;https//www.sample&#45;da...&quot; -->
<g id="edge15" class="edge">
<title>_&#45;&gt;&quot;https//www.sample&#45;da...&quot;</title>
<path fill="none" stroke="black" d="M571.58,-457.55C623.91,-457.55 745.1,-457.55 842.49,-457.55"/>
<polygon fill="black" stroke="black" points="842.74,-461.05 852.74,-457.55 842.74,-454.05 842.74,-461.05"/>
<text text-anchor="middle" x="748.06" y="-461.35" font-family="Times,serif" font-size="14.00">url</text>
</g>
<!-- PostalAddress -->
<g id="node16" class="node">
<title>PostalAddress</title>
<ellipse fill="none" stroke="#558855" cx="984.09" cy="-403.55" rx="76.89" ry="18"/>
<text text-anchor="middle" x="984.09" y="-399.85" font-family="Times,serif" font-size="14.00">PostalAddress</text>
</g>
<!-- _&#45;&gt;PostalAddress -->
<g id="edge16" class="edge">
<title>_&#45;&gt;PostalAddress</title>
<path fill="none" stroke="black" d="M571.18,-454.1C600.16,-450.23 648.73,-443.8 690.56,-438.55 763.24,-429.44 846.16,-419.57 905.1,-412.64"/>
<polygon fill="black" stroke="black" points="905.57,-416.11 915.09,-411.47 904.75,-409.16 905.57,-416.11"/>
<text text-anchor="middle" x="748.06" y="-442.35" font-family="Times,serif" font-size="14.00">type</text>
</g>
<!-- &quot;USA&quot; -->
<g id="node17" class="node">
<title>&quot;USA&quot;</title>
<ellipse fill="none" stroke="black" stroke-width="0" cx="984.09" cy="-349.55" rx="40.09" ry="18"/>
<text text-anchor="middle" x="984.09" y="-345.85" font-family="Times,serif" font-size="14.00">&quot;USA&quot;</text>
</g>
<!-- _&#45;&gt;&quot;USA&quot; -->
<g id="edge17" class="edge">
<title>_&#45;&gt;&quot;USA&quot;</title>
<path fill="none" stroke="black" d="M571.73,-456.26C598.82,-453.85 641.42,-447.01 672.56,-427.55 683.27,-420.86 679.78,-412.16 690.56,-405.55 742.14,-373.94 764.16,-388.05 823.56,-376.55 861.13,-369.28 903.9,-362.1 935.69,-356.98"/>
<polygon fill="black" stroke="black" points="936.29,-360.42 945.61,-355.39 935.18,-353.51 936.29,-360.42"/>
<text text-anchor="middle" x="748.06" y="-409.35" font-family="Times,serif" font-size="14.00">addressCountry</text>
</g>
<!-- &quot;Anytown&quot; -->
<g id="node18" class="node">
<title>&quot;Anytown&quot;</title>
<ellipse fill="none" stroke="black" stroke-width="0" cx="984.09" cy="-295.55" rx="59.59" ry="18"/>
<text text-anchor="middle" x="984.09" y="-291.85" font-family="Times,serif" font-size="14.00">&quot;Anytown&quot;</text>
</g>
<!-- _&#45;&gt;&quot;Anytown&quot; -->
<g id="edge18" class="edge">
<title>_&#45;&gt;&quot;Anytown&quot;</title>
<path fill="none" stroke="black" d="M571.57,-458.75C600.15,-458.58 645.55,-453.74 672.56,-427.55 694.69,-406.09 668.93,-382.53 690.56,-360.55 733.68,-316.74 763.6,-336.15 823.56,-322.55 854.92,-315.44 890.15,-309.29 919.5,-304.66"/>
<polygon fill="black" stroke="black" points="920.28,-308.08 929.62,-303.09 919.2,-301.17 920.28,-308.08"/>
<text text-anchor="middle" x="748.06" y="-364.35" font-family="Times,serif" font-size="14.00">addressLocality</text>
</g>
<!-- &quot;ST&quot; -->
<g id="node19" class="node">
<title>&quot;ST&quot;</title>
<ellipse fill="none" stroke="black" stroke-width="0" cx="984.09" cy="-241.55" rx="31.7" ry="18"/>
<text text-anchor="middle" x="984.09" y="-237.85" font-family="Times,serif" font-size="14.00">&quot;ST&quot;</text>
</g>
<!-- _&#45;&gt;&quot;ST&quot; -->
<g id="edge19" class="edge">
<title>_&#45;&gt;&quot;ST&quot;</title>
<path fill="none" stroke="black" d="M571.62,-459.3C600.69,-459.69 646.95,-455.42 672.56,-427.55 709.35,-387.52 654.7,-347.43 690.56,-306.55 753.93,-234.31 878.15,-232.48 942.42,-237.06"/>
<polygon fill="black" stroke="black" points="942.33,-240.57 952.57,-237.88 942.89,-233.59 942.33,-240.57"/>
<text text-anchor="middle" x="748.06" y="-310.35" font-family="Times,serif" font-size="14.00">addressRegion</text>
</g>
<!-- &quot;12345&quot; -->
<g id="node20" class="node">
<title>&quot;12345&quot;</title>
<ellipse fill="none" stroke="black" stroke-width="0" cx="984.09" cy="-187.55" rx="48.99" ry="18"/>
<text text-anchor="middle" x="984.09" y="-183.85" font-family="Times,serif" font-size="14.00">&quot;12345&quot;</text>
</g>
<!-- _&#45;&gt;&quot;12345&quot; -->
<g id="edge20" class="edge">
<title>_&#45;&gt;&quot;12345&quot;</title>
<path fill="none" stroke="black" d="M571.39,-459.55C600.7,-460.25 647.61,-456.32 672.56,-427.55 701.79,-393.84 659.74,-259.83 690.56,-227.55 752.05,-163.16 864.78,-167.73 930.9,-177.33"/>
<polygon fill="black" stroke="black" points="930.68,-180.84 941.1,-178.91 931.75,-173.92 930.68,-180.84"/>
<text text-anchor="middle" x="748.06" y="-231.35" font-family="Times,serif" font-size="14.00">postalCode</text>
</g>
<!-- &quot;234 Main St.&quot; -->
<g id="node21" class="node">
<title>&quot;234 Main St.&quot;</title>
<ellipse fill="none" stroke="black" stroke-width="0" cx="984.09" cy="-133.55" rx="79.09" ry="18"/>
<text text-anchor="middle" x="984.09" y="-129.85" font-family="Times,serif" font-size="14.00">&quot;234 Main St.&quot;</text>
</g>
<!-- _&#45;&gt;&quot;234 Main St.&quot; -->
<g id="edge21" class="edge">
<title>_&#45;&gt;&quot;234 Main St.&quot;</title>
<path fill="none" stroke="black" d="M571.51,-459.65C600.93,-460.45 647.95,-456.61 672.56,-427.55 711.42,-381.67 648.36,-200.4 690.56,-157.55 749.82,-97.38 854.97,-105.06 921.74,-117.96"/>
<polygon fill="black" stroke="black" points="921.21,-121.42 931.71,-119.98 922.6,-114.56 921.21,-121.42"/>
<text text-anchor="middle" x="748.06" y="-161.35" font-family="Times,serif" font-size="14.00">streetAddress</text>
</g>
<!-- Product -->
<g id="node22" class="node">
<title>Product</title>
<ellipse fill="none" stroke="#558855" cx="984.09" cy="-79.55" rx="47.39" ry="18"/>
<text text-anchor="middle" x="984.09" y="-75.85" font-family="Times,serif" font-size="14.00">Product</text>
</g>
<!-- _&#45;&gt;Product -->
<g id="edge22" class="edge">
<title>_&#45;&gt;Product</title>
<path fill="none" stroke="black" d="M571.58,-459.71C601.06,-460.56 648.14,-456.76 672.56,-427.55 696.53,-398.87 663.95,-117.82 690.56,-91.55 722.9,-59.62 852.82,-66.44 928.2,-73.46"/>
<polygon fill="black" stroke="black" points="928.17,-76.98 938.46,-74.45 928.84,-70.01 928.17,-76.98"/>
<text text-anchor="middle" x="748.06" y="-95.35" font-family="Times,serif" font-size="14.00">type</text>
</g>
<!-- &quot;Product name&quot; -->
<g id="node23" class="node">
<title>&quot;Product name&quot;</title>
<ellipse fill="none" stroke="black" stroke-width="0" cx="984.09" cy="-25.55" rx="84.49" ry="18"/>
<text text-anchor="middle" x="984.09" y="-21.85" font-family="Times,serif" font-size="14.00">&quot;Product name&quot;</text>
</g>
<!-- _&#45;&gt;&quot;Product name&quot; -->
<g id="edge23" class="edge">
<title>_&#45;&gt;&quot;Product name&quot;</title>
<path fill="none" stroke="black" d="M571.34,-459.73C600.84,-460.63 648.15,-456.92 672.56,-427.55 699.43,-395.21 661.34,-79.79 690.56,-49.55 748.91,10.83 853.35,3.42 920.37,-9.53"/>
<polygon fill="black" stroke="black" points="919.89,-13 930.38,-11.55 921.28,-6.14 919.89,-13"/>
<text text-anchor="middle" x="748.06" y="-53.35" font-family="Times,serif" font-size="14.00">name</text>
</g>
</g>
</svg>
