<?xml version="1.0" encoding="UTF-8" standalone="no"?>
<!DOCTYPE svg PUBLIC "-//W3C//DTD SVG 1.1//EN"
 "http://www.w3.org/Graphics/SVG/1.1/DTD/svg11.dtd">
<!-- Generated by graphviz version 2.43.0 (0)
 -->
<!-- Title: %3 Pages: 1 -->
<svg width="987pt" height="530pt"
 viewBox="0.00 0.00 986.83 530.00" xmlns="http://www.w3.org/2000/svg" xmlns:xlink="http://www.w3.org/1999/xlink">
<g id="graph0" class="graph" transform="scale(1 1) rotate(0) translate(4 526)">
<title>%3</title>
<polygon fill="white" stroke="transparent" points="-4,4 -4,-526 982.83,-526 982.83,4 -4,4"/>
<!-- PropertyValue -->
<g id="node1" class="node">
<title>PropertyValue</title>
<ellipse fill="none" stroke="#558855" cx="849.5" cy="-504" rx="77.19" ry="18"/>
<text text-anchor="middle" x="849.5" y="-500.3" font-family="Times,serif" font-size="14.00">PropertyValue</text>
</g>
<!-- doi.org/10.5066/F7VX0DMQ -->
<g id="node2" class="node">
<title>doi.org/10.5066/F7VX0DMQ</title>
<ellipse fill="none" stroke="#558855" cx="461.47" cy="-396" rx="141.88" ry="18"/>
<text text-anchor="middle" x="461.47" y="-392.3" font-family="Times,serif" font-size="14.00">doi.org/10.5066/F7VX0DMQ</text>
</g>
<!-- doi.org/10.5066/F7VX0DMQ&#45;&gt;PropertyValue -->
<g id="edge1" class="edge">
<title>doi.org/10.5066/F7VX0DMQ&#45;&gt;PropertyValue</title>
<path fill="none" stroke="black" d="M510.43,-412.93C561.82,-430.63 646.02,-458.37 720.16,-477 739.34,-481.82 760.28,-486.48 779.57,-490.53"/>
<polygon fill="black" stroke="black" points="778.99,-493.98 789.5,-492.59 780.42,-487.13 778.99,-493.98"/>
<text text-anchor="middle" x="661.66" y="-474.8" font-family="Times,serif" font-size="14.00">type</text>
</g>
<!-- &quot;https//registry.iden...&quot; -->
<g id="node3" class="node">
<title>&quot;https//registry.iden...&quot;</title>
<ellipse fill="none" stroke="black" stroke-width="0" cx="849.5" cy="-450" rx="116.98" ry="18"/>
<text text-anchor="middle" x="849.5" y="-446.3" font-family="Times,serif" font-size="14.00">&quot;https//registry.iden...&quot;</text>
</g>
<!-- doi.org/10.5066/F7VX0DMQ&#45;&gt;&quot;https//registry.iden...&quot; -->
<g id="edge2" class="edge">
<title>doi.org/10.5066/F7VX0DMQ&#45;&gt;&quot;https//registry.iden...&quot;</title>
<path fill="none" stroke="black" d="M557.4,-409.28C616.59,-417.56 692.55,-428.19 752.03,-436.51"/>
<polygon fill="black" stroke="black" points="751.79,-440.01 762.18,-437.93 752.76,-433.07 751.79,-440.01"/>
<text text-anchor="middle" x="661.66" y="-432.8" font-family="Times,serif" font-size="14.00">propertyID</text>
</g>
<!-- &quot;https//doi.org/10.50...&quot; -->
<g id="node4" class="node">
<title>&quot;https//doi.org/10.50...&quot;</title>
<ellipse fill="none" stroke="black" stroke-width="0" cx="849.5" cy="-396" rx="120.48" ry="18"/>
<text text-anchor="middle" x="849.5" y="-392.3" font-family="Times,serif" font-size="14.00">&quot;https//doi.org/10.50...&quot;</text>
</g>
<!-- doi.org/10.5066/F7VX0DMQ&#45;&gt;&quot;https//doi.org/10.50...&quot; -->
<g id="edge3" class="edge">
<title>doi.org/10.5066/F7VX0DMQ&#45;&gt;&quot;https//doi.org/10.50...&quot;</title>
<path fill="none" stroke="black" d="M603.2,-396C640.92,-396 681.52,-396 718.62,-396"/>
<polygon fill="black" stroke="black" points="718.98,-399.5 728.98,-396 718.98,-392.5 718.98,-399.5"/>
<text text-anchor="middle" x="661.66" y="-399.8" font-family="Times,serif" font-size="14.00">url</text>
</g>
<!-- &quot;doi10.5066/F7VX0DMQ&quot; -->
<g id="node5" class="node">
<title>&quot;doi10.5066/F7VX0DMQ&quot;</title>
<ellipse fill="none" stroke="black" stroke-width="0" cx="849.5" cy="-342" rx="129.18" ry="18"/>
<text text-anchor="middle" x="849.5" y="-338.3" font-family="Times,serif" font-size="14.00">&quot;doi10.5066/F7VX0DMQ&quot;</text>
</g>
<!-- doi.org/10.5066/F7VX0DMQ&#45;&gt;&quot;doi10.5066/F7VX0DMQ&quot; -->
<g id="edge4" class="edge">
<title>doi.org/10.5066/F7VX0DMQ&#45;&gt;&quot;doi10.5066/F7VX0DMQ&quot;</title>
<path fill="none" stroke="black" d="M557.4,-382.72C615.11,-374.65 688.77,-364.34 747.55,-356.12"/>
<polygon fill="black" stroke="black" points="748.17,-359.57 757.59,-354.72 747.2,-352.64 748.17,-359.57"/>
<text text-anchor="middle" x="661.66" y="-375.8" font-family="Times,serif" font-size="14.00">value</text>
</g>
<!-- Map -->
<g id="node6" class="node">
<title>Map</title>
<ellipse fill="none" stroke="#558855" cx="461.47" cy="-321" rx="31.4" ry="18"/>
<text text-anchor="middle" x="461.47" y="-317.3" font-family="Times,serif" font-size="14.00">Map</text>
</g>
<!-- example.org/id/XYZ -->
<g id="node7" class="node">
<title>example.org/id/XYZ</title>
<ellipse fill="none" stroke="black" cx="101.39" cy="-224" rx="101.28" ry="18"/>
<text text-anchor="middle" x="101.39" y="-220.3" font-family="Times,serif" font-size="14.00">example.org/id/XYZ</text>
</g>
<!-- example.org/id/XYZ&#45;&gt;doi.org/10.5066/F7VX0DMQ -->
<g id="edge7" class="edge">
<title>example.org/id/XYZ&#45;&gt;doi.org/10.5066/F7VX0DMQ</title>
<path fill="none" stroke="black" d="M124.07,-241.73C147.07,-259.97 184.96,-288.41 220.78,-308 275.47,-337.92 342.4,-361.52 391.62,-376.72"/>
<polygon fill="black" stroke="black" points="390.64,-380.08 401.22,-379.64 392.68,-373.38 390.64,-380.08"/>
<text text-anchor="middle" x="261.28" y="-346.8" font-family="Times,serif" font-size="14.00">identifier</text>
</g>
<!-- example.org/id/XYZ&#45;&gt;Map -->
<g id="edge5" class="edge">
<title>example.org/id/XYZ&#45;&gt;Map</title>
<path fill="none" stroke="black" d="M147.19,-240.09C169.27,-247.87 196.33,-257.19 220.78,-265 264.46,-278.95 275.22,-283.22 319.78,-294 353.8,-302.23 392.93,-309.57 421.27,-314.51"/>
<polygon fill="black" stroke="black" points="420.75,-317.97 431.19,-316.22 421.93,-311.07 420.75,-317.97"/>
<text text-anchor="middle" x="261.28" y="-292.8" font-family="Times,serif" font-size="14.00">type</text>
</g>
<!-- &quot;Description of the m...&quot; -->
<g id="node8" class="node">
<title>&quot;Description of the m...&quot;</title>
<ellipse fill="none" stroke="black" stroke-width="0" cx="461.47" cy="-267" rx="123.48" ry="18"/>
<text text-anchor="middle" x="461.47" y="-263.3" font-family="Times,serif" font-size="14.00">&quot;Description of the m...&quot;</text>
</g>
<!-- example.org/id/XYZ&#45;&gt;&quot;Description of the m...&quot; -->
<g id="edge6" class="edge">
<title>example.org/id/XYZ&#45;&gt;&quot;Description of the m...&quot;</title>
<path fill="none" stroke="black" d="M185.89,-234.03C236.48,-240.1 301.45,-247.9 355.49,-254.39"/>
<polygon fill="black" stroke="black" points="355.1,-257.87 365.45,-255.59 355.94,-250.92 355.1,-257.87"/>
<text text-anchor="middle" x="261.28" y="-249.8" font-family="Times,serif" font-size="14.00">description</text>
</g>
<!-- _ -->
<g id="node9" class="node">
<title>_</title>
<ellipse fill="none" stroke="#558855" cx="461.47" cy="-180" rx="27" ry="18"/>
<text text-anchor="middle" x="461.47" y="-176.3" font-family="Times,serif" font-size="14.00">_</text>
</g>
<!-- example.org/id/XYZ&#45;&gt;_ -->
<g id="edge8" class="edge">
<title>example.org/id/XYZ&#45;&gt;_</title>
<path fill="none" stroke="black" d="M185.44,-213.79C261.14,-204.49 369.33,-191.2 424.75,-184.39"/>
<polygon fill="black" stroke="black" points="425.29,-187.85 434.79,-183.16 424.44,-180.9 425.29,-187.85"/>
<text text-anchor="middle" x="261.28" y="-211.8" font-family="Times,serif" font-size="14.00">keywords</text>
</g>
<!-- &quot;Name or title of the...&quot; -->
<g id="node10" class="node">
<title>&quot;Name or title of the...&quot;</title>
<ellipse fill="none" stroke="black" stroke-width="0" cx="461.47" cy="-126" rx="120.48" ry="18"/>
<text text-anchor="middle" x="461.47" y="-122.3" font-family="Times,serif" font-size="14.00">&quot;Name or title of the...&quot;</text>
</g>
<!-- example.org/id/XYZ&#45;&gt;&quot;Name or title of the...&quot; -->
<g id="edge9" class="edge">
<title>example.org/id/XYZ&#45;&gt;&quot;Name or title of the...&quot;</title>
<path fill="none" stroke="black" d="M144.88,-207.72C167.31,-199.34 195.39,-189.19 220.78,-181 264.3,-166.96 275.29,-163.54 319.78,-153 336.78,-148.97 355.03,-145.13 372.58,-141.66"/>
<polygon fill="black" stroke="black" points="373.67,-145.01 382.81,-139.66 372.33,-138.14 373.67,-145.01"/>
<text text-anchor="middle" x="261.28" y="-184.8" font-family="Times,serif" font-size="14.00">name</text>
</g>
<!-- &quot;https//www.sample&#45;da...&quot; -->
<g id="node11" class="node">
<title>&quot;https//www.sample&#45;da...&quot;</title>
<ellipse fill="none" stroke="black" stroke-width="0" cx="461.47" cy="-72" rx="131.08" ry="18"/>
<text text-anchor="middle" x="461.47" y="-68.3" font-family="Times,serif" font-size="14.00">&quot;https//www.sample&#45;da...&quot;</text>
</g>
<!-- example.org/id/XYZ&#45;&gt;&quot;https//www.sample&#45;da...&quot; -->
<g id="edge10" class="edge">
<title>example.org/id/XYZ&#45;&gt;&quot;https//www.sample&#45;da...&quot;</title>
<path fill="none" stroke="black" d="M123.54,-206.08C146.41,-187.34 184.48,-157.92 220.78,-138 265.2,-113.63 319.28,-97.73 364.82,-87.66"/>
<polygon fill="black" stroke="black" points="365.66,-91.06 374.7,-85.54 364.19,-84.22 365.66,-91.06"/>
<text text-anchor="middle" x="261.28" y="-141.8" font-family="Times,serif" font-size="14.00">url</text>
</g>
<!-- _&#45;&gt;_ -->
<g id="edge16" class="edge">
<title>_&#45;&gt;_</title>
<path fill="none" stroke="black" d="M437.19,-188.5C413.53,-200.76 421.63,-216 461.47,-216 495.4,-216 506.3,-204.95 494.19,-194.09"/>
<polygon fill="black" stroke="black" points="496.02,-191.11 485.75,-188.5 492.15,-196.94 496.02,-191.11"/>
<text text-anchor="middle" x="461.47" y="-219.8" font-family="Times,serif" font-size="14.00">inDefinedTermSet</text>
</g>
<!-- DefinedTermSet -->
<g id="node12" class="node">
<title>DefinedTermSet</title>
<ellipse fill="none" stroke="#558855" cx="849.5" cy="-288" rx="85.59" ry="18"/>
<text text-anchor="middle" x="849.5" y="-284.3" font-family="Times,serif" font-size="14.00">DefinedTermSet</text>
</g>
<!-- _&#45;&gt;DefinedTermSet -->
<g id="edge11" class="edge">
<title>_&#45;&gt;DefinedTermSet</title>
<path fill="none" stroke="black" d="M485.66,-188.3C530.49,-204.11 632.38,-238.95 720.16,-261 738.14,-265.52 757.66,-269.89 775.93,-273.76"/>
<polygon fill="black" stroke="black" points="775.43,-277.23 785.93,-275.85 776.86,-270.38 775.43,-277.23"/>
<text text-anchor="middle" x="661.66" y="-258.8" font-family="Times,serif" font-size="14.00">type</text>
</g>
<!-- &quot;Description of the s...&quot; -->
<g id="node13" class="node">
<title>&quot;Description of the s...&quot;</title>
<ellipse fill="none" stroke="black" stroke-width="0" cx="849.5" cy="-234" rx="119.68" ry="18"/>
<text text-anchor="middle" x="849.5" y="-230.3" font-family="Times,serif" font-size="14.00">&quot;Description of the s...&quot;</text>
</g>
<!-- _&#45;&gt;&quot;Description of the s...&quot; -->
<g id="edge12" class="edge">
<title>_&#45;&gt;&quot;Description of the s...&quot;</title>
<path fill="none" stroke="black" d="M488.1,-183.58C540.79,-190.96 663.71,-208.15 751.32,-220.41"/>
<polygon fill="black" stroke="black" points="750.9,-223.88 761.29,-221.8 751.87,-216.95 750.9,-223.88"/>
<text text-anchor="middle" x="661.66" y="-216.8" font-family="Times,serif" font-size="14.00">description</text>
</g>
<!-- &quot;Name of the set&quot; -->
<g id="node14" class="node">
<title>&quot;Name of the set&quot;</title>
<ellipse fill="none" stroke="black" stroke-width="0" cx="849.5" cy="-180" rx="93.68" ry="18"/>
<text text-anchor="middle" x="849.5" y="-176.3" font-family="Times,serif" font-size="14.00">&quot;Name of the set&quot;</text>
</g>
<!-- _&#45;&gt;&quot;Name of the set&quot; -->
<g id="edge13" class="edge">
<title>_&#45;&gt;&quot;Name of the set&quot;</title>
<path fill="none" stroke="black" d="M488.7,-180C540.53,-180 658.54,-180 745.34,-180"/>
<polygon fill="black" stroke="black" points="745.5,-183.5 755.5,-180 745.5,-176.5 745.5,-183.5"/>
<text text-anchor="middle" x="661.66" y="-183.8" font-family="Times,serif" font-size="14.00">name</text>
</g>
<!-- &quot;url for the set&quot; -->
<g id="node15" class="node">
<title>&quot;url for the set&quot;</title>
<ellipse fill="none" stroke="black" stroke-width="0" cx="849.5" cy="-126" rx="83.69" ry="18"/>
<text text-anchor="middle" x="849.5" y="-122.3" font-family="Times,serif" font-size="14.00">&quot;url for the set&quot;</text>
</g>
<!-- _&#45;&gt;&quot;url for the set&quot; -->
<g id="edge14" class="edge">
<title>_&#45;&gt;&quot;url for the set&quot;</title>
<path fill="none" stroke="black" d="M488.1,-176.42C544.44,-168.53 681.07,-149.42 768.97,-137.12"/>
<polygon fill="black" stroke="black" points="769.5,-140.59 778.91,-135.73 768.53,-133.65 769.5,-140.59"/>
<text text-anchor="middle" x="661.66" y="-159.8" font-family="Times,serif" font-size="14.00">url</text>
</g>
<!-- DefinedTerm -->
<g id="node16" class="node">
<title>DefinedTerm</title>
<ellipse fill="none" stroke="#558855" cx="849.5" cy="-72" rx="70.39" ry="18"/>
<text text-anchor="middle" x="849.5" y="-68.3" font-family="Times,serif" font-size="14.00">DefinedTerm</text>
</g>
<!-- _&#45;&gt;DefinedTerm -->
<g id="edge15" class="edge">
<title>_&#45;&gt;DefinedTerm</title>
<path fill="none" stroke="black" d="M488.5,-180.71C518.5,-180.31 568.15,-175.81 603.16,-153 614.93,-145.33 609.72,-135.17 621.16,-127 658.36,-100.42 675.76,-109.94 720.16,-99 740.49,-93.99 762.77,-89.1 782.99,-84.88"/>
<polygon fill="black" stroke="black" points="783.95,-88.26 793.03,-82.81 782.53,-81.4 783.95,-88.26"/>
<text text-anchor="middle" x="661.66" y="-130.8" font-family="Times,serif" font-size="14.00">type</text>
</g>
<!-- &quot;A code that identifi...&quot; -->
<g id="node17" class="node">
<title>&quot;A code that identifi...&quot;</title>
<ellipse fill="none" stroke="black" stroke-width="0" cx="849.5" cy="-18" rx="116.18" ry="18"/>
<text text-anchor="middle" x="849.5" y="-14.3" font-family="Times,serif" font-size="14.00">&quot;A code that identifi...&quot;</text>
</g>
<!-- _&#45;&gt;&quot;A code that identifi...&quot; -->
<g id="edge17" class="edge">
<title>_&#45;&gt;&quot;A code that identifi...&quot;</title>
<path fill="none" stroke="black" d="M488.18,-182.66C519.5,-184.4 572.08,-182.21 603.16,-153 626.57,-131 599.78,-106.98 621.16,-83 648.98,-51.79 690.65,-35.12 730.74,-26.37"/>
<polygon fill="black" stroke="black" points="731.51,-29.78 740.62,-24.36 730.12,-22.92 731.51,-29.78"/>
<text text-anchor="middle" x="661.66" y="-86.8" font-family="Times,serif" font-size="14.00">termCode</text>
</g>
</g>
</svg>
