<?xml version="1.0" encoding="UTF-8" standalone="no"?>
<!DOCTYPE svg PUBLIC "-//W3C//DTD SVG 1.1//EN"
 "http://www.w3.org/Graphics/SVG/1.1/DTD/svg11.dtd">
<!-- Generated by graphviz version 2.43.0 (0)
 -->
<!-- Title: %3 Pages: 1 -->
<svg width="720pt" height="291pt"
 viewBox="0.00 0.00 720.00 291.47" xmlns="http://www.w3.org/2000/svg" xmlns:xlink="http://www.w3.org/1999/xlink">
<g id="graph0" class="graph" transform="scale(1.82 1.82) rotate(0) translate(4 526)">
<title>%3</title>
<polygon fill="white" stroke="transparent" points="-4,4 -4,-526 1305.21,-526 1305.21,4 -4,4"/>
<!-- PropertyValue -->
<g id="node1" class="node">
<title>PropertyValue</title>
<ellipse fill="none" stroke="#558855" cx="1088.67" cy="-504" rx="77.19" ry="18"/>
<text text-anchor="middle" x="1088.67" y="-500.3" font-family="Times,serif" font-size="14.00">PropertyValue</text>
</g>
<!-- doi.org/10.5066/F7VX0DMQ -->
<g id="node2" class="node">
<title>doi.org/10.5066/F7VX0DMQ</title>
<ellipse fill="none" stroke="#558855" cx="539.46" cy="-396" rx="141.88" ry="18"/>
<text text-anchor="middle" x="539.46" y="-392.3" font-family="Times,serif" font-size="14.00">doi.org/10.5066/F7VX0DMQ</text>
</g>
<!-- doi.org/10.5066/F7VX0DMQ&#45;&gt;PropertyValue -->
<g id="edge1" class="edge">
<title>doi.org/10.5066/F7VX0DMQ&#45;&gt;PropertyValue</title>
<path fill="none" stroke="black" d="M599.47,-412.32C666.18,-430.29 778.27,-459 876.14,-477 919.19,-484.92 967.58,-491.28 1007.21,-495.83"/>
<polygon fill="black" stroke="black" points="1007.02,-499.33 1017.35,-496.98 1007.8,-492.38 1007.02,-499.33"/>
<text text-anchor="middle" x="817.64" y="-476.8" font-family="Times,serif" font-size="14.00">type</text>
</g>
<!-- &quot;https//registry.identifiers.org/registry...&quot; -->
<g id="node3" class="node">
<title>&quot;https//registry.identifiers.org/registry...&quot;</title>
<ellipse fill="none" stroke="black" stroke-width="0" cx="1088.67" cy="-450" rx="201.46" ry="18"/>
<text text-anchor="middle" x="1088.67" y="-446.3" font-family="Times,serif" font-size="14.00">&quot;https//registry.identifiers.org/registry...&quot;</text>
</g>
<!-- doi.org/10.5066/F7VX0DMQ&#45;&gt;&quot;https//registry.identifiers.org/registry...&quot; -->
<g id="edge2" class="edge">
<title>doi.org/10.5066/F7VX0DMQ&#45;&gt;&quot;https//registry.identifiers.org/registry...&quot;</title>
<path fill="none" stroke="black" d="M651.86,-406.99C735.74,-415.27 851.47,-426.69 942.58,-435.68"/>
<polygon fill="black" stroke="black" points="942.43,-439.18 952.72,-436.68 943.12,-432.22 942.43,-439.18"/>
<text text-anchor="middle" x="817.64" y="-429.8" font-family="Times,serif" font-size="14.00">propertyID</text>
</g>
<!-- &quot;https//doi.org/10.5066/F7VX0DMQ&quot; -->
<g id="node4" class="node">
<title>&quot;https//doi.org/10.5066/F7VX0DMQ&quot;</title>
<ellipse fill="none" stroke="black" stroke-width="0" cx="1088.67" cy="-396" rx="180.87" ry="18"/>
<text text-anchor="middle" x="1088.67" y="-392.3" font-family="Times,serif" font-size="14.00">&quot;https//doi.org/10.5066/F7VX0DMQ&quot;</text>
</g>
<!-- doi.org/10.5066/F7VX0DMQ&#45;&gt;&quot;https//doi.org/10.5066/F7VX0DMQ&quot; -->
<g id="edge3" class="edge">
<title>doi.org/10.5066/F7VX0DMQ&#45;&gt;&quot;https//doi.org/10.5066/F7VX0DMQ&quot;</title>
<path fill="none" stroke="black" d="M681.38,-396C747.18,-396 826.49,-396 897.5,-396"/>
<polygon fill="black" stroke="black" points="897.92,-399.5 907.92,-396 897.92,-392.5 897.92,-399.5"/>
<text text-anchor="middle" x="817.64" y="-399.8" font-family="Times,serif" font-size="14.00">url</text>
</g>
<!-- &quot;doi10.5066/F7VX0DMQ&quot; -->
<g id="node5" class="node">
<title>&quot;doi10.5066/F7VX0DMQ&quot;</title>
<ellipse fill="none" stroke="black" stroke-width="0" cx="1088.67" cy="-342" rx="129.18" ry="18"/>
<text text-anchor="middle" x="1088.67" y="-338.3" font-family="Times,serif" font-size="14.00">&quot;doi10.5066/F7VX0DMQ&quot;</text>
</g>
<!-- doi.org/10.5066/F7VX0DMQ&#45;&gt;&quot;doi10.5066/F7VX0DMQ&quot; -->
<g id="edge4" class="edge">
<title>doi.org/10.5066/F7VX0DMQ&#45;&gt;&quot;doi10.5066/F7VX0DMQ&quot;</title>
<path fill="none" stroke="black" d="M651.86,-385.01C745.18,-375.8 877.89,-362.7 972.3,-353.38"/>
<polygon fill="black" stroke="black" points="972.86,-356.85 982.47,-352.38 972.17,-349.88 972.86,-356.85"/>
<text text-anchor="middle" x="817.64" y="-375.8" font-family="Times,serif" font-size="14.00">value</text>
</g>
<!-- Map -->
<g id="node6" class="node">
<title>Map</title>
<ellipse fill="none" stroke="#558855" cx="539.46" cy="-321" rx="31.4" ry="18"/>
<text text-anchor="middle" x="539.46" y="-317.3" font-family="Times,serif" font-size="14.00">Map</text>
</g>
<!-- example.org/id/XYZ -->
<g id="node7" class="node">
<title>example.org/id/XYZ</title>
<ellipse fill="none" stroke="black" cx="101.39" cy="-224" rx="101.28" ry="18"/>
<text text-anchor="middle" x="101.39" y="-220.3" font-family="Times,serif" font-size="14.00">example.org/id/XYZ</text>
</g>
<!-- example.org/id/XYZ&#45;&gt;doi.org/10.5066/F7VX0DMQ -->
<g id="edge7" class="edge">
<title>example.org/id/XYZ&#45;&gt;doi.org/10.5066/F7VX0DMQ</title>
<path fill="none" stroke="black" d="M124.07,-241.73C147.07,-259.97 184.96,-288.41 220.78,-308 288.36,-344.96 372.69,-367.38 437.48,-380.34"/>
<polygon fill="black" stroke="black" points="436.81,-383.77 447.3,-382.26 438.15,-376.9 436.81,-383.77"/>
<text text-anchor="middle" x="261.28" y="-344.8" font-family="Times,serif" font-size="14.00">identifier</text>
</g>
<!-- example.org/id/XYZ&#45;&gt;Map -->
<g id="edge5" class="edge">
<title>example.org/id/XYZ&#45;&gt;Map</title>
<path fill="none" stroke="black" d="M145.04,-240.38C188.4,-256.4 257.83,-280.33 319.78,-294 381.17,-307.55 453.85,-314.83 498.03,-318.3"/>
<polygon fill="black" stroke="black" points="497.85,-321.8 508.09,-319.07 498.38,-314.82 497.85,-321.8"/>
<text text-anchor="middle" x="261.28" y="-292.8" font-family="Times,serif" font-size="14.00">type</text>
</g>
<!-- &quot;Description of the map to aid in searchi...&quot; -->
<g id="node8" class="node">
<title>&quot;Description of the map to aid in searchi...&quot;</title>
<ellipse fill="none" stroke="black" stroke-width="0" cx="539.46" cy="-267" rx="211.76" ry="18"/>
<text text-anchor="middle" x="539.46" y="-263.3" font-family="Times,serif" font-size="14.00">&quot;Description of the map to aid in searchi...&quot;</text>
</g>
<!-- example.org/id/XYZ&#45;&gt;&quot;Description of the map to aid in searchi...&quot; -->
<g id="edge6" class="edge">
<title>example.org/id/XYZ&#45;&gt;&quot;Description of the map to aid in searchi...&quot;</title>
<path fill="none" stroke="black" d="M190.37,-232.68C247.64,-238.32 323.77,-245.83 390.23,-252.38"/>
<polygon fill="black" stroke="black" points="390.09,-255.89 400.38,-253.38 390.78,-248.92 390.09,-255.89"/>
<text text-anchor="middle" x="261.28" y="-245.8" font-family="Times,serif" font-size="14.00">description</text>
</g>
<!-- _ -->
<g id="node9" class="node">
<title>_</title>
<ellipse fill="none" stroke="#558855" cx="539.46" cy="-180" rx="27" ry="18"/>
<text text-anchor="middle" x="539.46" y="-176.3" font-family="Times,serif" font-size="14.00">_</text>
</g>
<!-- example.org/id/XYZ&#45;&gt;_ -->
<g id="edge8" class="edge">
<title>example.org/id/XYZ&#45;&gt;_</title>
<path fill="none" stroke="black" d="M189.85,-215.18C285.43,-205.53 434.02,-190.54 502.12,-183.67"/>
<polygon fill="black" stroke="black" points="502.75,-187.12 512.34,-182.64 502.04,-180.16 502.75,-187.12"/>
<text text-anchor="middle" x="261.28" y="-213.8" font-family="Times,serif" font-size="14.00">keywords</text>
</g>
<!-- &quot;Name or title of the document&quot; -->
<g id="node10" class="node">
<title>&quot;Name or title of the document&quot;</title>
<ellipse fill="none" stroke="black" stroke-width="0" cx="539.46" cy="-126" rx="159.77" ry="18"/>
<text text-anchor="middle" x="539.46" y="-122.3" font-family="Times,serif" font-size="14.00">&quot;Name or title of the document&quot;</text>
</g>
<!-- example.org/id/XYZ&#45;&gt;&quot;Name or title of the document&quot; -->
<g id="edge9" class="edge">
<title>example.org/id/XYZ&#45;&gt;&quot;Name or title of the document&quot;</title>
<path fill="none" stroke="black" d="M150.18,-208.19C171.74,-201.07 197.53,-192.59 220.78,-185 264.74,-170.65 274.63,-162.99 319.78,-153 346.73,-147.04 375.85,-142.29 403.79,-138.55"/>
<polygon fill="black" stroke="black" points="404.56,-141.98 414.02,-137.22 403.65,-135.04 404.56,-141.98"/>
<text text-anchor="middle" x="261.28" y="-188.8" font-family="Times,serif" font-size="14.00">name</text>
</g>
<!-- &quot;https//www.sample&#45;data&#45;repository.org/cr...&quot; -->
<g id="node11" class="node">
<title>&quot;https//www.sample&#45;data&#45;repository.org/cr...&quot;</title>
<ellipse fill="none" stroke="black" stroke-width="0" cx="539.46" cy="-72" rx="219.86" ry="18"/>
<text text-anchor="middle" x="539.46" y="-68.3" font-family="Times,serif" font-size="14.00">&quot;https//www.sample&#45;data&#45;repository.org/cr...&quot;</text>
</g>
<!-- example.org/id/XYZ&#45;&gt;&quot;https//www.sample&#45;data&#45;repository.org/cr...&quot; -->
<g id="edge10" class="edge">
<title>example.org/id/XYZ&#45;&gt;&quot;https//www.sample&#45;data&#45;repository.org/cr...&quot;</title>
<path fill="none" stroke="black" d="M123.54,-206.08C146.41,-187.34 184.48,-157.92 220.78,-138 262.24,-115.25 273.95,-110.66 319.78,-99 339.06,-94.1 359.52,-90.07 379.9,-86.77"/>
<polygon fill="black" stroke="black" points="380.55,-90.21 389.89,-85.21 379.47,-83.3 380.55,-90.21"/>
<text text-anchor="middle" x="261.28" y="-141.8" font-family="Times,serif" font-size="14.00">url</text>
</g>
<!-- _&#45;&gt;_ -->
<g id="edge16" class="edge">
<title>_&#45;&gt;_</title>
<path fill="none" stroke="black" d="M513.68,-185.85C471.41,-198.44 480.01,-216 539.46,-216 593.81,-216 605.66,-201.33 575.01,-189.19"/>
<polygon fill="black" stroke="black" points="575.84,-185.77 565.24,-185.85 573.57,-192.39 575.84,-185.77"/>
<text text-anchor="middle" x="539.46" y="-219.8" font-family="Times,serif" font-size="14.00">inDefinedTermSet</text>
</g>
<!-- DefinedTermSet -->
<g id="node12" class="node">
<title>DefinedTermSet</title>
<ellipse fill="none" stroke="#558855" cx="1088.67" cy="-288" rx="85.59" ry="18"/>
<text text-anchor="middle" x="1088.67" y="-284.3" font-family="Times,serif" font-size="14.00">DefinedTermSet</text>
</g>
<!-- _&#45;&gt;DefinedTermSet -->
<g id="edge11" class="edge">
<title>_&#45;&gt;DefinedTermSet</title>
<path fill="none" stroke="black" d="M564.7,-186.82C619.67,-202.07 758.22,-239.31 876.14,-261 916.92,-268.5 962.5,-274.6 1000.88,-279.1"/>
<polygon fill="black" stroke="black" points="1000.66,-282.6 1010.99,-280.27 1001.46,-275.64 1000.66,-282.6"/>
<text text-anchor="middle" x="817.64" y="-260.8" font-family="Times,serif" font-size="14.00">type</text>
</g>
<!-- &quot;Description of the set&quot; -->
<g id="node13" class="node">
<title>&quot;Description of the set&quot;</title>
<ellipse fill="none" stroke="black" stroke-width="0" cx="1088.67" cy="-234" rx="120.48" ry="18"/>
<text text-anchor="middle" x="1088.67" y="-230.3" font-family="Times,serif" font-size="14.00">&quot;Description of the set&quot;</text>
</g>
<!-- _&#45;&gt;&quot;Description of the set&quot; -->
<g id="edge12" class="edge">
<title>_&#45;&gt;&quot;Description of the set&quot;</title>
<path fill="none" stroke="black" d="M566.49,-182.57C639.2,-189.74 847.67,-210.32 977.86,-223.16"/>
<polygon fill="black" stroke="black" points="977.58,-226.65 987.87,-224.15 978.26,-219.69 977.58,-226.65"/>
<text text-anchor="middle" x="817.64" y="-213.8" font-family="Times,serif" font-size="14.00">description</text>
</g>
<!-- &quot;Name of the set&quot; -->
<g id="node14" class="node">
<title>&quot;Name of the set&quot;</title>
<ellipse fill="none" stroke="black" stroke-width="0" cx="1088.67" cy="-180" rx="93.68" ry="18"/>
<text text-anchor="middle" x="1088.67" y="-176.3" font-family="Times,serif" font-size="14.00">&quot;Name of the set&quot;</text>
</g>
<!-- _&#45;&gt;&quot;Name of the set&quot; -->
<g id="edge13" class="edge">
<title>_&#45;&gt;&quot;Name of the set&quot;</title>
<path fill="none" stroke="black" d="M566.49,-180C640.47,-180 855.01,-180 984.61,-180"/>
<polygon fill="black" stroke="black" points="984.95,-183.5 994.95,-180 984.95,-176.5 984.95,-183.5"/>
<text text-anchor="middle" x="817.64" y="-183.8" font-family="Times,serif" font-size="14.00">name</text>
</g>
<!-- &quot;url for the set&quot; -->
<g id="node15" class="node">
<title>&quot;url for the set&quot;</title>
<ellipse fill="none" stroke="black" stroke-width="0" cx="1088.67" cy="-126" rx="83.69" ry="18"/>
<text text-anchor="middle" x="1088.67" y="-122.3" font-family="Times,serif" font-size="14.00">&quot;url for the set&quot;</text>
</g>
<!-- _&#45;&gt;&quot;url for the set&quot; -->
<g id="edge14" class="edge">
<title>_&#45;&gt;&quot;url for the set&quot;</title>
<path fill="none" stroke="black" d="M566.49,-177.43C643.93,-169.79 875.4,-146.95 1002.24,-134.43"/>
<polygon fill="black" stroke="black" points="1002.7,-137.9 1012.31,-133.44 1002.01,-130.94 1002.7,-137.9"/>
<text text-anchor="middle" x="817.64" y="-159.8" font-family="Times,serif" font-size="14.00">url</text>
</g>
<!-- DefinedTerm -->
<g id="node16" class="node">
<title>DefinedTerm</title>
<ellipse fill="none" stroke="#558855" cx="1088.67" cy="-72" rx="70.39" ry="18"/>
<text text-anchor="middle" x="1088.67" y="-68.3" font-family="Times,serif" font-size="14.00">DefinedTerm</text>
</g>
<!-- _&#45;&gt;DefinedTerm -->
<g id="edge15" class="edge">
<title>_&#45;&gt;DefinedTerm</title>
<path fill="none" stroke="black" d="M566.33,-182.88C609.37,-186.4 697.05,-188.13 759.14,-153 770.44,-146.61 766.47,-137.38 777.14,-130 815.06,-103.77 831.1,-108.85 876.14,-99 920.49,-89.31 970.88,-82.7 1011.35,-78.46"/>
<polygon fill="black" stroke="black" points="1011.82,-81.93 1021.42,-77.43 1011.11,-74.96 1011.82,-81.93"/>
<text text-anchor="middle" x="817.64" y="-133.8" font-family="Times,serif" font-size="14.00">type</text>
</g>
<!-- &quot;A code that identifies this DefinedTerm ...&quot; -->
<g id="node17" class="node">
<title>&quot;A code that identifies this DefinedTerm ...&quot;</title>
<ellipse fill="none" stroke="black" stroke-width="0" cx="1088.67" cy="-18" rx="212.56" ry="18"/>
<text text-anchor="middle" x="1088.67" y="-14.3" font-family="Times,serif" font-size="14.00">&quot;A code that identifies this DefinedTerm ...&quot;</text>
</g>
<!-- _&#45;&gt;&quot;A code that identifies this DefinedTerm ...&quot; -->
<g id="edge17" class="edge">
<title>_&#45;&gt;&quot;A code that identifies this DefinedTerm ...&quot;</title>
<path fill="none" stroke="black" d="M565.69,-185.11C610.53,-192.61 704.55,-200.98 759.14,-153 783.27,-131.79 755.77,-106.98 777.14,-83 808.5,-47.82 830.44,-56.51 876.14,-45 895.27,-40.18 915.6,-36.2 935.8,-32.92"/>
<polygon fill="black" stroke="black" points="936.37,-36.37 945.7,-31.36 935.28,-29.45 936.37,-36.37"/>
<text text-anchor="middle" x="817.64" y="-86.8" font-family="Times,serif" font-size="14.00">termCode</text>
</g>
</g>
</svg>
