<?xml version="1.0" encoding="UTF-8" standalone="no"?>
<!DOCTYPE svg PUBLIC "-//W3C//DTD SVG 1.1//EN"
 "http://www.w3.org/Graphics/SVG/1.1/DTD/svg11.dtd">
<!-- Generated by graphviz version 2.43.0 (0)
 -->
<!-- Title: %3 Pages: 1 -->
<svg width="720pt" height="126pt"
 viewBox="0.00 0.00 720.00 125.53" xmlns="http://www.w3.org/2000/svg" xmlns:xlink="http://www.w3.org/1999/xlink">
<g id="graph0" class="graph" transform="scale(2.07 2.07) rotate(0) translate(4 256)">
<title>%3</title>
<polygon fill="white" stroke="transparent" points="-4,4 -4,-256 1487.3,-256 1487.3,4 -4,4"/>
<!-- schema.org/CreativeWork -->
<g id="node1" class="node">
<title>schema.org/CreativeWork</title>
<ellipse fill="none" stroke="#558855" cx="601.26" cy="-180" rx="130.78" ry="18"/>
<text text-anchor="middle" x="601.26" y="-176.3" font-family="Times,serif" font-size="14.00">schema.org/CreativeWork</text>
</g>
<!-- example.org/id/XYZ -->
<g id="node2" class="node">
<title>example.org/id/XYZ</title>
<ellipse fill="none" stroke="black" cx="101.39" cy="-153" rx="101.28" ry="18"/>
<text text-anchor="middle" x="101.39" y="-149.3" font-family="Times,serif" font-size="14.00">example.org/id/XYZ</text>
</g>
<!-- example.org/id/XYZ&#45;&gt;schema.org/CreativeWork -->
<g id="edge1" class="edge">
<title>example.org/id/XYZ&#45;&gt;schema.org/CreativeWork</title>
<path fill="none" stroke="black" d="M198.68,-158.22C275.55,-162.39 384.06,-168.27 468.9,-172.88"/>
<polygon fill="black" stroke="black" points="468.95,-176.38 479.13,-173.43 469.33,-169.39 468.95,-176.38"/>
<text text-anchor="middle" x="288.28" y="-169.8" font-family="Times,serif" font-size="14.00">type</text>
</g>
<!-- www.sample&#45;data&#45;repository.org/person/51317 -->
<g id="node3" class="node">
<title>www.sample&#45;data&#45;repository.org/person/51317</title>
<ellipse fill="none" stroke="#558855" cx="601.26" cy="-126" rx="227.46" ry="18"/>
<text text-anchor="middle" x="601.26" y="-122.3" font-family="Times,serif" font-size="14.00">www.sample&#45;data&#45;repository.org/person/51317</text>
</g>
<!-- example.org/id/XYZ&#45;&gt;www.sample&#45;data&#45;repository.org/person/51317 -->
<g id="edge2" class="edge">
<title>example.org/id/XYZ&#45;&gt;www.sample&#45;data&#45;repository.org/person/51317</title>
<path fill="none" stroke="black" d="M186.08,-143.05C197.72,-141.89 209.54,-140.82 220.78,-140 270.09,-136.39 323.08,-133.69 373.36,-131.68"/>
<polygon fill="black" stroke="black" points="373.53,-135.18 383.38,-131.29 373.25,-128.18 373.53,-135.18"/>
<text text-anchor="middle" x="288.28" y="-143.8" font-family="Times,serif" font-size="14.00">schema.org/author</text>
</g>
<!-- schema.org/Person -->
<g id="node4" class="node">
<title>schema.org/Person</title>
<ellipse fill="none" stroke="#558855" cx="1261.02" cy="-234" rx="98.58" ry="18"/>
<text text-anchor="middle" x="1261.02" y="-230.3" font-family="Times,serif" font-size="14.00">schema.org/Person</text>
</g>
<!-- www.sample&#45;data&#45;repository.org/person/51317&#45;&gt;schema.org/Person -->
<g id="edge3" class="edge">
<title>www.sample&#45;data&#45;repository.org/person/51317&#45;&gt;schema.org/Person</title>
<path fill="none" stroke="black" d="M790.79,-135.98C804.08,-140.42 816.89,-146.01 828.74,-153 840.54,-159.95 835.06,-170.86 846.74,-178 920.39,-222.99 953.23,-195.33 1038.74,-207 1080.81,-212.74 1127.45,-218.52 1167.03,-223.25"/>
<polygon fill="black" stroke="black" points="1166.86,-226.75 1177.2,-224.46 1167.68,-219.8 1166.86,-226.75"/>
<text text-anchor="middle" x="933.74" y="-207.8" font-family="Times,serif" font-size="14.00">type</text>
</g>
<!-- &quot;Passow&quot; -->
<g id="node5" class="node">
<title>&quot;Passow&quot;</title>
<ellipse fill="none" stroke="black" stroke-width="0" cx="1261.02" cy="-180" rx="53.89" ry="18"/>
<text text-anchor="middle" x="1261.02" y="-176.3" font-family="Times,serif" font-size="14.00">&quot;Passow&quot;</text>
</g>
<!-- www.sample&#45;data&#45;repository.org/person/51317&#45;&gt;&quot;Passow&quot; -->
<g id="edge4" class="edge">
<title>www.sample&#45;data&#45;repository.org/person/51317&#45;&gt;&quot;Passow&quot;</title>
<path fill="none" stroke="black" d="M759.81,-138.93C900.4,-150.48 1098.94,-166.78 1198.31,-174.93"/>
<polygon fill="black" stroke="black" points="1198.23,-178.44 1208.48,-175.77 1198.8,-171.46 1198.23,-178.44"/>
<text text-anchor="middle" x="933.74" y="-162.8" font-family="Times,serif" font-size="14.00">schema.org/familyName</text>
</g>
<!-- &quot;Uta&quot; -->
<g id="node6" class="node">
<title>&quot;Uta&quot;</title>
<ellipse fill="none" stroke="black" stroke-width="0" cx="1261.02" cy="-126" rx="36.29" ry="18"/>
<text text-anchor="middle" x="1261.02" y="-122.3" font-family="Times,serif" font-size="14.00">&quot;Uta&quot;</text>
</g>
<!-- www.sample&#45;data&#45;repository.org/person/51317&#45;&gt;&quot;Uta&quot; -->
<g id="edge5" class="edge">
<title>www.sample&#45;data&#45;repository.org/person/51317&#45;&gt;&quot;Uta&quot;</title>
<path fill="none" stroke="black" d="M829.09,-126C968.62,-126 1135.37,-126 1214.29,-126"/>
<polygon fill="black" stroke="black" points="1214.38,-129.5 1224.38,-126 1214.38,-122.5 1214.38,-129.5"/>
<text text-anchor="middle" x="933.74" y="-129.8" font-family="Times,serif" font-size="14.00">schema.org/givenName</text>
</g>
<!-- &quot;Dr Uta Passow&quot; -->
<g id="node7" class="node">
<title>&quot;Dr Uta Passow&quot;</title>
<ellipse fill="none" stroke="black" stroke-width="0" cx="1261.02" cy="-72" rx="88.28" ry="18"/>
<text text-anchor="middle" x="1261.02" y="-68.3" font-family="Times,serif" font-size="14.00">&quot;Dr Uta Passow&quot;</text>
</g>
<!-- www.sample&#45;data&#45;repository.org/person/51317&#45;&gt;&quot;Dr Uta Passow&quot; -->
<g id="edge6" class="edge">
<title>www.sample&#45;data&#45;repository.org/person/51317&#45;&gt;&quot;Dr Uta Passow&quot;</title>
<path fill="none" stroke="black" d="M759.81,-113.07C887.57,-102.58 1063.19,-88.16 1168.75,-79.49"/>
<polygon fill="black" stroke="black" points="1169.07,-82.98 1178.75,-78.67 1168.49,-76 1169.07,-82.98"/>
<text text-anchor="middle" x="933.74" y="-108.8" font-family="Times,serif" font-size="14.00">schema.org/name</text>
</g>
<!-- &quot;https//www.sample&#45;data&#45;repository.org/pe...&quot; -->
<g id="node8" class="node">
<title>&quot;https//www.sample&#45;data&#45;repository.org/pe...&quot;</title>
<ellipse fill="none" stroke="black" stroke-width="0" cx="1261.02" cy="-18" rx="222.06" ry="18"/>
<text text-anchor="middle" x="1261.02" y="-14.3" font-family="Times,serif" font-size="14.00">&quot;https//www.sample&#45;data&#45;repository.org/pe...&quot;</text>
</g>
<!-- www.sample&#45;data&#45;repository.org/person/51317&#45;&gt;&quot;https//www.sample&#45;data&#45;repository.org/pe...&quot; -->
<g id="edge7" class="edge">
<title>www.sample&#45;data&#45;repository.org/person/51317&#45;&gt;&quot;https//www.sample&#45;data&#45;repository.org/pe...&quot;</title>
<path fill="none" stroke="black" d="M674.75,-108.92C723.26,-97.83 788.62,-83.52 846.74,-73 931.6,-57.63 953.27,-56.45 1038.74,-45 1066.45,-41.29 1096.14,-37.52 1124.49,-34.03"/>
<polygon fill="black" stroke="black" points="1124.95,-37.5 1134.45,-32.8 1124.1,-30.55 1124.95,-37.5"/>
<text text-anchor="middle" x="933.74" y="-76.8" font-family="Times,serif" font-size="14.00">schema.org/url</text>
</g>
</g>
</svg>
