<?xml version="1.0" encoding="UTF-8" standalone="no"?>
<!DOCTYPE svg PUBLIC "-//W3C//DTD SVG 1.1//EN"
 "http://www.w3.org/Graphics/SVG/1.1/DTD/svg11.dtd">
<!-- Generated by graphviz version 5.0.0 (0)
 -->
<!-- Pages: 1 -->
<svg width="1056pt" height="336pt"
 viewBox="0.00 0.00 1056.33 336.00" xmlns="http://www.w3.org/2000/svg" xmlns:xlink="http://www.w3.org/1999/xlink">
<g id="graph0" class="graph" transform="scale(1 1) rotate(0) translate(4 332)">
<polygon fill="white" stroke="transparent" points="-4,4 -4,-332 1052.33,-332 1052.33,4 -4,4"/>
<!-- DefinedTerm -->
<g id="node1" class="node">
<title>DefinedTerm</title>
<ellipse fill="none" stroke="#558855" cx="922.24" cy="-310" rx="70.39" ry="18"/>
<text text-anchor="middle" x="922.24" y="-306.3" font-family="Times,serif" font-size="14.00">DefinedTerm</text>
</g>
<!-- purl.org/dc/dcmitype/Image -->
<g id="node2" class="node">
<title>purl.org/dc/dcmitype/Image</title>
<ellipse fill="none" stroke="#558855" cx="468.97" cy="-234" rx="139.98" ry="18"/>
<text text-anchor="middle" x="468.97" y="-230.3" font-family="Times,serif" font-size="14.00">purl.org/dc/dcmitype/Image</text>
</g>
<!-- purl.org/dc/dcmitype/Image&#45;&gt;DefinedTerm -->
<g id="edge1" class="edge">
<title>purl.org/dc/dcmitype/Image&#45;&gt;DefinedTerm</title>
<path fill="none" stroke="black" d="M547.95,-248.91C579.08,-254.74 615.28,-261.37 648.15,-267 717.07,-278.81 795.99,-291.1 851.21,-299.5"/>
<polygon fill="black" stroke="black" points="850.82,-302.99 861.23,-301.03 851.87,-296.06 850.82,-302.99"/>
<text text-anchor="middle" x="713.15" y="-290.8" font-family="Times,serif" font-size="14.00">type</text>
</g>
<!-- &quot;http//purl.org/dc/te...&quot; -->
<g id="node3" class="node">
<title>&quot;http//purl.org/dc/te...&quot;</title>
<ellipse fill="none" stroke="black" stroke-width="0" cx="922.24" cy="-256" rx="116.98" ry="18"/>
<text text-anchor="middle" x="922.24" y="-252.3" font-family="Times,serif" font-size="14.00">&quot;http//purl.org/dc/te...&quot;</text>
</g>
<!-- purl.org/dc/dcmitype/Image&#45;&gt;&quot;http//purl.org/dc/te...&quot; -->
<g id="edge2" class="edge">
<title>purl.org/dc/dcmitype/Image&#45;&gt;&quot;http//purl.org/dc/te...&quot;</title>
<path fill="none" stroke="black" d="M599.89,-240.33C663.03,-243.41 738.45,-247.09 800.35,-250.11"/>
<polygon fill="black" stroke="black" points="800.4,-253.61 810.56,-250.6 800.74,-246.62 800.4,-253.61"/>
<text text-anchor="middle" x="713.15" y="-251.8" font-family="Times,serif" font-size="14.00">inDefinedTermSet</text>
</g>
<!-- &quot;Image&quot; -->
<g id="node4" class="node">
<title>&quot;Image&quot;</title>
<ellipse fill="none" stroke="black" stroke-width="0" cx="922.24" cy="-191" rx="48.19" ry="18"/>
<text text-anchor="middle" x="922.24" y="-187.3" font-family="Times,serif" font-size="14.00">&quot;Image&quot;</text>
</g>
<!-- purl.org/dc/dcmitype/Image&#45;&gt;&quot;Image&quot; -->
<g id="edge3" class="edge">
<title>purl.org/dc/dcmitype/Image&#45;&gt;&quot;Image&quot;</title>
<path fill="none" stroke="black" d="M581.81,-223.34C671.99,-214.75 795.03,-203.03 865.52,-196.31"/>
<polygon fill="black" stroke="black" points="865.9,-199.79 875.52,-195.36 865.24,-192.82 865.9,-199.79"/>
<text text-anchor="middle" x="713.15" y="-219.8" font-family="Times,serif" font-size="14.00">name</text>
</g>
<!-- purl.org/dc/dcmitype/Image&#45;&gt;&quot;Image&quot; -->
<g id="edge4" class="edge">
<title>purl.org/dc/dcmitype/Image&#45;&gt;&quot;Image&quot;</title>
<path fill="none" stroke="black" d="M587.18,-224.38C602.24,-220.27 616.98,-214.65 630.15,-207 641.08,-200.66 636.74,-190.41 648.15,-185 700.37,-160.26 720.39,-183.79 778.15,-185 806.57,-185.6 838.15,-186.86 864.39,-188.07"/>
<polygon fill="black" stroke="black" points="864.38,-191.57 874.54,-188.55 864.71,-184.58 864.38,-191.57"/>
<text text-anchor="middle" x="713.15" y="-188.8" font-family="Times,serif" font-size="14.00">termCode</text>
</g>
<!-- Map -->
<g id="node5" class="node">
<title>Map</title>
<ellipse fill="none" stroke="#558855" cx="468.97" cy="-180" rx="31.4" ry="18"/>
<text text-anchor="middle" x="468.97" y="-176.3" font-family="Times,serif" font-size="14.00">Map</text>
</g>
<!-- example.org/id/XYZ -->
<g id="node6" class="node">
<title>example.org/id/XYZ</title>
<ellipse fill="none" stroke="black" cx="101.39" cy="-153" rx="101.28" ry="18"/>
<text text-anchor="middle" x="101.39" y="-149.3" font-family="Times,serif" font-size="14.00">example.org/id/XYZ</text>
</g>
<!-- example.org/id/XYZ&#45;&gt;purl.org/dc/dcmitype/Image -->
<g id="edge7" class="edge">
<title>example.org/id/XYZ&#45;&gt;purl.org/dc/dcmitype/Image</title>
<path fill="none" stroke="black" d="M157.46,-168.08C177.39,-173.49 200.08,-179.59 220.78,-185 259.37,-195.09 268.75,-198.79 307.78,-207 327.26,-211.1 348.17,-214.99 368.25,-218.47"/>
<polygon fill="black" stroke="black" points="367.89,-221.96 378.34,-220.2 369.08,-215.06 367.89,-221.96"/>
<text text-anchor="middle" x="255.28" y="-205.8" font-family="Times,serif" font-size="14.00">keywords</text>
</g>
<!-- example.org/id/XYZ&#45;&gt;Map -->
<g id="edge5" class="edge">
<title>example.org/id/XYZ&#45;&gt;Map</title>
<path fill="none" stroke="black" d="M195.59,-159.88C270.51,-165.42 372.12,-172.92 427.64,-177.02"/>
<polygon fill="black" stroke="black" points="427.55,-180.52 437.78,-177.77 428.06,-173.54 427.55,-180.52"/>
<text text-anchor="middle" x="255.28" y="-169.8" font-family="Times,serif" font-size="14.00">type</text>
</g>
<!-- &quot;Region X&quot; -->
<g id="node7" class="node">
<title>&quot;Region X&quot;</title>
<ellipse fill="none" stroke="black" stroke-width="0" cx="468.97" cy="-126" rx="61.19" ry="18"/>
<text text-anchor="middle" x="468.97" y="-122.3" font-family="Times,serif" font-size="14.00">&quot;Region X&quot;</text>
</g>
<!-- example.org/id/XYZ&#45;&gt;&quot;Region X&quot; -->
<g id="edge6" class="edge">
<title>example.org/id/XYZ&#45;&gt;&quot;Region X&quot;</title>
<path fill="none" stroke="black" d="M192.87,-145.21C202.3,-144.44 211.73,-143.69 220.78,-143 280.84,-138.4 349.16,-133.74 398.73,-130.47"/>
<polygon fill="black" stroke="black" points="399.27,-133.94 409.02,-129.79 398.81,-126.96 399.27,-133.94"/>
<text text-anchor="middle" x="255.28" y="-146.8" font-family="Times,serif" font-size="14.00">keywords</text>
</g>
<!-- www.wikidata.org/wiki/Q350134 -->
<g id="node8" class="node">
<title>www.wikidata.org/wiki/Q350134</title>
<ellipse fill="none" stroke="#558855" cx="468.97" cy="-72" rx="161.37" ry="18"/>
<text text-anchor="middle" x="468.97" y="-68.3" font-family="Times,serif" font-size="14.00">www.wikidata.org/wiki/Q350134</text>
</g>
<!-- example.org/id/XYZ&#45;&gt;www.wikidata.org/wiki/Q350134 -->
<g id="edge8" class="edge">
<title>example.org/id/XYZ&#45;&gt;www.wikidata.org/wiki/Q350134</title>
<path fill="none" stroke="black" d="M153.8,-137.59C174.54,-131.54 198.73,-124.7 220.78,-119 259.2,-109.08 268.87,-106.75 307.78,-99 326.27,-95.32 346.03,-91.72 365.13,-88.41"/>
<polygon fill="black" stroke="black" points="365.78,-91.85 375.05,-86.71 364.6,-84.95 365.78,-91.85"/>
<text text-anchor="middle" x="255.28" y="-122.8" font-family="Times,serif" font-size="14.00">keywords</text>
</g>
<!-- URL -->
<g id="node9" class="node">
<title>URL</title>
<ellipse fill="none" stroke="#558855" cx="922.24" cy="-126" rx="31.4" ry="18"/>
<text text-anchor="middle" x="922.24" y="-122.3" font-family="Times,serif" font-size="14.00">URL</text>
</g>
<!-- www.wikidata.org/wiki/Q350134&#45;&gt;URL -->
<g id="edge9" class="edge">
<title>www.wikidata.org/wiki/Q350134&#45;&gt;URL</title>
<path fill="none" stroke="black" d="M579.5,-85.11C677.06,-96.78 814.44,-113.22 881.4,-121.23"/>
<polygon fill="black" stroke="black" points="881.19,-124.73 891.53,-122.44 882.02,-117.78 881.19,-124.73"/>
<text text-anchor="middle" x="713.15" y="-111.8" font-family="Times,serif" font-size="14.00">type</text>
</g>
<!-- &quot;North Atlantic Ocean&quot; -->
<g id="node10" class="node">
<title>&quot;North Atlantic Ocean&quot;</title>
<ellipse fill="none" stroke="black" stroke-width="0" cx="922.24" cy="-72" rx="117.78" ry="18"/>
<text text-anchor="middle" x="922.24" y="-68.3" font-family="Times,serif" font-size="14.00">&quot;North Atlantic Ocean&quot;</text>
</g>
<!-- www.wikidata.org/wiki/Q350134&#45;&gt;&quot;North Atlantic Ocean&quot; -->
<g id="edge10" class="edge">
<title>www.wikidata.org/wiki/Q350134&#45;&gt;&quot;North Atlantic Ocean&quot;</title>
<path fill="none" stroke="black" d="M630.34,-72C684.14,-72 743.35,-72 794.23,-72"/>
<polygon fill="black" stroke="black" points="794.29,-75.5 804.29,-72 794.29,-68.5 794.29,-75.5"/>
<text text-anchor="middle" x="713.15" y="-75.8" font-family="Times,serif" font-size="14.00">name</text>
</g>
<!-- &quot;https//www.wikidata....&quot; -->
<g id="node11" class="node">
<title>&quot;https//www.wikidata....&quot;</title>
<ellipse fill="none" stroke="black" stroke-width="0" cx="922.24" cy="-18" rx="126.18" ry="18"/>
<text text-anchor="middle" x="922.24" y="-14.3" font-family="Times,serif" font-size="14.00">&quot;https//www.wikidata....&quot;</text>
</g>
<!-- www.wikidata.org/wiki/Q350134&#45;&gt;&quot;https//www.wikidata....&quot; -->
<g id="edge11" class="edge">
<title>www.wikidata.org/wiki/Q350134&#45;&gt;&quot;https//www.wikidata....&quot;</title>
<path fill="none" stroke="black" d="M579.5,-58.89C650.98,-50.34 743.84,-39.23 814.72,-30.75"/>
<polygon fill="black" stroke="black" points="815.49,-34.18 825.01,-29.52 814.66,-27.23 815.49,-34.18"/>
<text text-anchor="middle" x="713.15" y="-52.8" font-family="Times,serif" font-size="14.00">url</text>
</g>
</g>
</svg>
