<?xml version="1.0" encoding="UTF-8" standalone="no"?>
<!DOCTYPE svg PUBLIC "-//W3C//DTD SVG 1.1//EN"
 "http://www.w3.org/Graphics/SVG/1.1/DTD/svg11.dtd">
<!-- Generated by graphviz version 2.43.0 (0)
 -->
<!-- Title: %3 Pages: 1 -->
<svg width="720pt" height="174pt"
 viewBox="0.00 0.00 720.00 173.65" xmlns="http://www.w3.org/2000/svg" xmlns:xlink="http://www.w3.org/1999/xlink">
<g id="graph0" class="graph" transform="scale(1.19 1.19) rotate(0) translate(4 202)">
<title>%3</title>
<polygon fill="white" stroke="transparent" points="-4,4 -4,-202 850.14,-202 850.14,4 -4,4"/>
<!-- schema.org/Map -->
<g id="node1" class="node">
<title>schema.org/Map</title>
<ellipse fill="none" stroke="#558855" cx="626.46" cy="-180" rx="87.99" ry="18"/>
<text text-anchor="middle" x="626.46" y="-176.3" font-family="Times,serif" font-size="14.00">schema.org/Map</text>
</g>
<!-- example.org/id/XYZ -->
<g id="node2" class="node">
<title>example.org/id/XYZ</title>
<ellipse fill="none" stroke="black" cx="101.39" cy="-99" rx="101.28" ry="18"/>
<text text-anchor="middle" x="101.39" y="-95.3" font-family="Times,serif" font-size="14.00">example.org/id/XYZ</text>
</g>
<!-- example.org/id/XYZ&#45;&gt;schema.org/Map -->
<g id="edge1" class="edge">
<title>example.org/id/XYZ&#45;&gt;schema.org/Map</title>
<path fill="none" stroke="black" d="M152.1,-114.69C173.11,-120.84 197.96,-127.49 220.78,-132 327.06,-152.98 450.97,-166.04 533.41,-173.14"/>
<polygon fill="black" stroke="black" points="533.24,-176.64 543.5,-174 533.83,-169.66 533.24,-176.64"/>
<text text-anchor="middle" x="304.78" y="-160.8" font-family="Times,serif" font-size="14.00">type</text>
</g>
<!-- &quot;Description of the map to aid in searchi...&quot; -->
<g id="node3" class="node">
<title>&quot;Description of the map to aid in searchi...&quot;</title>
<ellipse fill="none" stroke="black" stroke-width="0" cx="626.46" cy="-126" rx="211.76" ry="18"/>
<text text-anchor="middle" x="626.46" y="-122.3" font-family="Times,serif" font-size="14.00">&quot;Description of the map to aid in searchi...&quot;</text>
</g>
<!-- example.org/id/XYZ&#45;&gt;&quot;Description of the map to aid in searchi...&quot; -->
<g id="edge2" class="edge">
<title>example.org/id/XYZ&#45;&gt;&quot;Description of the map to aid in searchi...&quot;</title>
<path fill="none" stroke="black" d="M198.94,-103.98C264.97,-107.39 354.71,-112.02 434.85,-116.16"/>
<polygon fill="black" stroke="black" points="434.91,-119.67 445.07,-116.69 435.27,-112.68 434.91,-119.67"/>
<text text-anchor="middle" x="304.78" y="-116.8" font-family="Times,serif" font-size="14.00">schema.org/description</text>
</g>
<!-- &quot;Name or title of the document&quot; -->
<g id="node4" class="node">
<title>&quot;Name or title of the document&quot;</title>
<ellipse fill="none" stroke="black" stroke-width="0" cx="626.46" cy="-72" rx="159.77" ry="18"/>
<text text-anchor="middle" x="626.46" y="-68.3" font-family="Times,serif" font-size="14.00">&quot;Name or title of the document&quot;</text>
</g>
<!-- example.org/id/XYZ&#45;&gt;&quot;Name or title of the document&quot; -->
<g id="edge3" class="edge">
<title>example.org/id/XYZ&#45;&gt;&quot;Name or title of the document&quot;</title>
<path fill="none" stroke="black" d="M186.08,-89.02C197.72,-87.86 209.54,-86.81 220.78,-86 298.63,-80.39 385.07,-77.01 458.01,-74.98"/>
<polygon fill="black" stroke="black" points="458.31,-78.48 468.21,-74.71 458.12,-71.48 458.31,-78.48"/>
<text text-anchor="middle" x="304.78" y="-89.8" font-family="Times,serif" font-size="14.00">schema.org/name</text>
</g>
<!-- &quot;https//www.sample&#45;data&#45;repository.org/cr...&quot; -->
<g id="node5" class="node">
<title>&quot;https//www.sample&#45;data&#45;repository.org/cr...&quot;</title>
<ellipse fill="none" stroke="black" stroke-width="0" cx="626.46" cy="-18" rx="219.86" ry="18"/>
<text text-anchor="middle" x="626.46" y="-14.3" font-family="Times,serif" font-size="14.00">&quot;https//www.sample&#45;data&#45;repository.org/cr...&quot;</text>
</g>
<!-- example.org/id/XYZ&#45;&gt;&quot;https//www.sample&#45;data&#45;repository.org/cr...&quot; -->
<g id="edge4" class="edge">
<title>example.org/id/XYZ&#45;&gt;&quot;https//www.sample&#45;data&#45;repository.org/cr...&quot;</title>
<path fill="none" stroke="black" d="M142.53,-82.46C165.14,-73.82 194.12,-63.85 220.78,-58 287.52,-43.36 361.64,-34.07 428.01,-28.18"/>
<polygon fill="black" stroke="black" points="428.51,-31.65 438.17,-27.3 427.91,-24.68 428.51,-31.65"/>
<text text-anchor="middle" x="304.78" y="-61.8" font-family="Times,serif" font-size="14.00">schema.org/url</text>
</g>
</g>
</svg>
