<?xml version="1.0" encoding="UTF-8" standalone="no"?>
<!DOCTYPE svg PUBLIC "-//W3C//DTD SVG 1.1//EN"
 "http://www.w3.org/Graphics/SVG/1.1/DTD/svg11.dtd">
<!-- Generated by graphviz version 2.44.0 (0)
 -->
<!-- Pages: 1 -->
<svg width="520pt" height="98pt"
 viewBox="0.00 0.00 519.76 98.00" xmlns="http://www.w3.org/2000/svg" xmlns:xlink="http://www.w3.org/1999/xlink">
<g id="graph0" class="graph" transform="scale(1 1) rotate(0) translate(4 94)">
<polygon fill="white" stroke="transparent" points="-4,4 -4,-94 515.76,-94 515.76,4 -4,4"/>
<!-- &quot;To protect the rich ...&quot; -->
<g id="node1" class="node">
<title>&quot;To protect the rich ...&quot;</title>
<ellipse fill="none" stroke="black" stroke-width="0" cx="388.28" cy="-72" rx="112.38" ry="18"/>
<text text-anchor="middle" x="388.28" y="-68.3" font-family="Times-Roman" font-size="14.00">&quot;To protect the rich ...&quot;</text>
</g>
<!-- example.org/1 -->
<g id="node2" class="node">
<title>example.org/1</title>
<ellipse fill="none" stroke="black" cx="75.39" cy="-45" rx="75.29" ry="18"/>
<text text-anchor="middle" x="75.39" y="-41.3" font-family="Times-Roman" font-size="14.00">example.org/1</text>
</g>
<!-- example.org/1&#45;&gt;&quot;To protect the rich ...&quot; -->
<g id="edge1" class="edge">
<title>example.org/1&#45;&gt;&quot;To protect the rich ...&quot;</title>
<path fill="none" stroke="black" d="M146.55,-51.09C185.59,-54.48 235.03,-58.78 278.94,-62.59"/>
<polygon fill="black" stroke="black" points="278.82,-66.09 289.09,-63.47 279.43,-59.12 278.82,-66.09"/>
<text text-anchor="middle" x="207.79" y="-62.8" font-family="Times-Roman" font-size="14.00">description</text>
</g>
<!-- &quot;Footprint (Anacapa C...&quot; -->
<g id="node3" class="node">
<title>&quot;Footprint (Anacapa C...&quot;</title>
<ellipse fill="none" stroke="black" stroke-width="0" cx="388.28" cy="-18" rx="123.48" ry="18"/>
<text text-anchor="middle" x="388.28" y="-14.3" font-family="Times-Roman" font-size="14.00">&quot;Footprint (Anacapa C...&quot;</text>
</g>
<!-- example.org/1&#45;&gt;&quot;Footprint (Anacapa C...&quot; -->
<g id="edge2" class="edge">
<title>example.org/1&#45;&gt;&quot;Footprint (Anacapa C...&quot;</title>
<path fill="none" stroke="black" d="M142.47,-36.76C151.31,-35.77 160.26,-34.82 168.79,-34 199.87,-31.01 233.5,-28.3 264.83,-25.98"/>
<polygon fill="black" stroke="black" points="265.2,-29.47 274.92,-25.25 264.69,-22.48 265.2,-29.47"/>
<text text-anchor="middle" x="207.79" y="-37.8" font-family="Times-Roman" font-size="14.00">name</text>
</g>
</g>
</svg>
