<?xml version="1.0" encoding="UTF-8" standalone="no"?>
<!DOCTYPE svg PUBLIC "-//W3C//DTD SVG 1.1//EN"
 "http://www.w3.org/Graphics/SVG/1.1/DTD/svg11.dtd">
<!-- Generated by graphviz version 2.43.0 (0)
 -->
<!-- Title: %3 Pages: 1 -->
<svg width="533pt" height="98pt"
 viewBox="0.00 0.00 533.16 98.00" xmlns="http://www.w3.org/2000/svg" xmlns:xlink="http://www.w3.org/1999/xlink">
<g id="graph0" class="graph" transform="scale(1 1) rotate(0) translate(4 94)">
<title>%3</title>
<polygon fill="white" stroke="transparent" points="-4,4 -4,-94 529.16,-94 529.16,4 -4,4"/>
<!-- &quot;To protect the rich ...&quot; -->
<g id="node1" class="node">
<title>&quot;To protect the rich ...&quot;</title>
<ellipse fill="none" stroke="black" stroke-width="0" cx="398.43" cy="-72" rx="117.78" ry="18"/>
<text text-anchor="middle" x="398.43" y="-68.3" font-family="Times,serif" font-size="14.00">&quot;To protect the rich ...&quot;</text>
</g>
<!-- example.org/1 -->
<g id="node2" class="node">
<title>example.org/1</title>
<ellipse fill="none" stroke="black" cx="77.34" cy="-45" rx="77.19" ry="18"/>
<text text-anchor="middle" x="77.34" y="-41.3" font-family="Times,serif" font-size="14.00">example.org/1</text>
</g>
<!-- example.org/1&#45;&gt;&quot;To protect the rich ...&quot; -->
<g id="edge1" class="edge">
<title>example.org/1&#45;&gt;&quot;To protect the rich ...&quot;</title>
<path fill="none" stroke="black" d="M150.35,-51.09C190.08,-54.45 240.3,-58.7 285.07,-62.49"/>
<polygon fill="black" stroke="black" points="284.87,-65.99 295.13,-63.34 285.46,-59.01 284.87,-65.99"/>
<text text-anchor="middle" x="213.19" y="-62.8" font-family="Times,serif" font-size="14.00">description</text>
</g>
<!-- &quot;Footprint (Anacapa C...&quot; -->
<g id="node3" class="node">
<title>&quot;Footprint (Anacapa C...&quot;</title>
<ellipse fill="none" stroke="black" stroke-width="0" cx="398.43" cy="-18" rx="126.98" ry="18"/>
<text text-anchor="middle" x="398.43" y="-14.3" font-family="Times,serif" font-size="14.00">&quot;Footprint (Anacapa C...&quot;</text>
</g>
<!-- example.org/1&#45;&gt;&quot;Footprint (Anacapa C...&quot; -->
<g id="edge2" class="edge">
<title>example.org/1&#45;&gt;&quot;Footprint (Anacapa C...&quot;</title>
<path fill="none" stroke="black" d="M146.07,-36.73C155.02,-35.75 164.07,-34.81 172.69,-34 204.89,-30.98 239.74,-28.24 272.17,-25.91"/>
<polygon fill="black" stroke="black" points="272.42,-29.41 282.15,-25.21 271.92,-22.42 272.42,-29.41"/>
<text text-anchor="middle" x="213.19" y="-37.8" font-family="Times,serif" font-size="14.00">name</text>
</g>
</g>
</svg>
