<?xml version="1.0" encoding="UTF-8" standalone="no"?>
<!DOCTYPE svg PUBLIC "-//W3C//DTD SVG 1.1//EN"
 "http://www.w3.org/Graphics/SVG/1.1/DTD/svg11.dtd">
<!-- Generated by graphviz version 2.49.0 (20210829.0051)
 -->
<!-- Pages: 1 -->
<svg width="1439pt" height="368pt"
 viewBox="0.00 0.00 1438.79 368.00" xmlns="http://www.w3.org/2000/svg" xmlns:xlink="http://www.w3.org/1999/xlink">
<g id="graph0" class="graph" transform="scale(1 1) rotate(0) translate(4 364)">
<polygon fill="white" stroke="transparent" points="-4,4 -4,-364 1434.79,-364 1434.79,4 -4,4"/>
<!-- _ -->
<g id="node1" class="node">
<title>_</title>
<ellipse fill="none" stroke="#558855" cx="813.79" cy="-288" rx="27" ry="18"/>
<text text-anchor="middle" x="813.79" y="-284.3" font-family="Times,serif" font-size="14.00">_</text>
</g>
<!-- &quot;POLYGON(&#45;2.094547 &#160;4...&quot; -->
<g id="node8" class="node">
<title>&quot;POLYGON(&#45;2.094547 &#160;4...&quot;</title>
<ellipse fill="none" stroke="black" stroke-width="0" cx="1229.31" cy="-342" rx="137.58" ry="18"/>
<text text-anchor="middle" x="1229.31" y="-338.3" font-family="Times,serif" font-size="14.00">&quot;POLYGON(&#45;2.094547 &#160;4...&quot;</text>
</g>
<!-- _&#45;&gt;&quot;POLYGON(&#45;2.094547 &#160;4...&quot; -->
<g id="edge7" class="edge">
<title>_&#45;&gt;&quot;POLYGON(&#45;2.094547 &#160;4...&quot;</title>
<path fill="none" stroke="black" d="M840.46,-291.37C869.45,-295.17 918.03,-301.54 959.83,-307 1012.92,-313.94 1071.91,-321.63 1121.05,-328.03"/>
<polygon fill="black" stroke="black" points="1120.69,-331.52 1131.06,-329.34 1121.6,-324.57 1120.69,-331.52"/>
<text text-anchor="middle" x="984.83" y="-315.8" font-family="Times,serif" font-size="14.00">asWKT</text>
</g>
<!-- www.opengis.net/def/crs/OGC/1.3/CRS84 -->
<g id="node9" class="node">
<title>www.opengis.net/def/crs/OGC/1.3/CRS84</title>
<ellipse fill="none" stroke="#558855" cx="1229.31" cy="-288" rx="201.46" ry="18"/>
<text text-anchor="middle" x="1229.31" y="-284.3" font-family="Times,serif" font-size="14.00">www.opengis.net/def/crs/OGC/1.3/CRS84</text>
</g>
<!-- _&#45;&gt;www.opengis.net/def/crs/OGC/1.3/CRS84 -->
<g id="edge8" class="edge">
<title>_&#45;&gt;www.opengis.net/def/crs/OGC/1.3/CRS84</title>
<path fill="none" stroke="black" d="M840.97,-288C877.48,-288 947.14,-288 1017.44,-288"/>
<polygon fill="black" stroke="black" points="1017.81,-291.5 1027.81,-288 1017.81,-284.5 1017.81,-291.5"/>
<text text-anchor="middle" x="984.83" y="-291.8" font-family="Times,serif" font-size="14.00">crs</text>
</g>
<!-- Polygon -->
<g id="node10" class="node">
<title>Polygon</title>
<ellipse fill="none" stroke="#558855" cx="1229.31" cy="-234" rx="47.39" ry="18"/>
<text text-anchor="middle" x="1229.31" y="-230.3" font-family="Times,serif" font-size="14.00">Polygon</text>
</g>
<!-- _&#45;&gt;Polygon -->
<g id="edge9" class="edge">
<title>_&#45;&gt;Polygon</title>
<path fill="none" stroke="black" d="M840.46,-284.63C869.45,-280.83 918.03,-274.46 959.83,-269 1034.05,-259.3 1119.81,-248.13 1174.05,-241.06"/>
<polygon fill="black" stroke="black" points="1174.66,-244.51 1184.13,-239.75 1173.76,-237.57 1174.66,-244.51"/>
<text text-anchor="middle" x="984.83" y="-272.8" font-family="Times,serif" font-size="14.00">type</text>
</g>
<!-- maspawio.net/id/3046b5fc&#45;18e0&#45;11eb&#45;894f&#45;0a735f7a740c -->
<g id="node2" class="node">
<title>maspawio.net/id/3046b5fc&#45;18e0&#45;11eb&#45;894f&#45;0a735f7a740c</title>
<ellipse fill="none" stroke="black" cx="276.88" cy="-153" rx="276.75" ry="18"/>
<text text-anchor="middle" x="276.88" y="-149.3" font-family="Times,serif" font-size="14.00">maspawio.net/id/3046b5fc&#45;18e0&#45;11eb&#45;894f&#45;0a735f7a740c</text>
</g>
<!-- maspawio.net/id/3046b5fc&#45;18e0&#45;11eb&#45;894f&#45;0a735f7a740c&#45;&gt;_ -->
<g id="edge1" class="edge">
<title>maspawio.net/id/3046b5fc&#45;18e0&#45;11eb&#45;894f&#45;0a735f7a740c&#45;&gt;_</title>
<path fill="none" stroke="black" d="M340.52,-170.62C420.38,-192.84 562.84,-231.68 685.75,-261 716.59,-268.36 751.89,-275.78 777.43,-280.97"/>
<polygon fill="black" stroke="black" points="776.9,-284.44 787.4,-282.99 778.29,-277.58 776.9,-284.44"/>
<text text-anchor="middle" x="619.75" y="-258.8" font-family="Times,serif" font-size="14.00">hasGeometry</text>
</g>
<!-- Dataset -->
<g id="node3" class="node">
<title>Dataset</title>
<ellipse fill="none" stroke="#558855" cx="813.79" cy="-234" rx="46.59" ry="18"/>
<text text-anchor="middle" x="813.79" y="-230.3" font-family="Times,serif" font-size="14.00">Dataset</text>
</g>
<!-- maspawio.net/id/3046b5fc&#45;18e0&#45;11eb&#45;894f&#45;0a735f7a740c&#45;&gt;Dataset -->
<g id="edge2" class="edge">
<title>maspawio.net/id/3046b5fc&#45;18e0&#45;11eb&#45;894f&#45;0a735f7a740c&#45;&gt;Dataset</title>
<path fill="none" stroke="black" d="M387.09,-169.54C500.58,-186.72 673.42,-212.9 759.79,-225.97"/>
<polygon fill="black" stroke="black" points="759.47,-229.47 769.88,-227.5 760.52,-222.55 759.47,-229.47"/>
<text text-anchor="middle" x="619.75" y="-214.8" font-family="Times,serif" font-size="14.00">type</text>
</g>
<!-- &quot;This resource/layer ...&quot; -->
<g id="node4" class="node">
<title>&quot;This resource/layer ...&quot;</title>
<ellipse fill="none" stroke="black" stroke-width="0" cx="813.79" cy="-180" rx="120.48" ry="18"/>
<text text-anchor="middle" x="813.79" y="-176.3" font-family="Times,serif" font-size="14.00">&quot;This resource/layer ...&quot;</text>
</g>
<!-- maspawio.net/id/3046b5fc&#45;18e0&#45;11eb&#45;894f&#45;0a735f7a740c&#45;&gt;&quot;This resource/layer ...&quot; -->
<g id="edge3" class="edge">
<title>maspawio.net/id/3046b5fc&#45;18e0&#45;11eb&#45;894f&#45;0a735f7a740c&#45;&gt;&quot;This resource/layer ...&quot;</title>
<path fill="none" stroke="black" d="M496.22,-164.02C562.03,-167.34 631.95,-170.87 689.3,-173.77"/>
<polygon fill="black" stroke="black" points="689.33,-177.27 699.49,-174.28 689.68,-170.28 689.33,-177.27"/>
<text text-anchor="middle" x="619.75" y="-176.8" font-family="Times,serif" font-size="14.00">description</text>
</g>
<!-- &quot;LMMA&quot; -->
<g id="node5" class="node">
<title>&quot;LMMA&quot;</title>
<ellipse fill="none" stroke="black" stroke-width="0" cx="813.79" cy="-126" rx="50.09" ry="18"/>
<text text-anchor="middle" x="813.79" y="-122.3" font-family="Times,serif" font-size="14.00">&quot;LMMA&quot;</text>
</g>
<!-- maspawio.net/id/3046b5fc&#45;18e0&#45;11eb&#45;894f&#45;0a735f7a740c&#45;&gt;&quot;LMMA&quot; -->
<g id="edge4" class="edge">
<title>maspawio.net/id/3046b5fc&#45;18e0&#45;11eb&#45;894f&#45;0a735f7a740c&#45;&gt;&quot;LMMA&quot;</title>
<path fill="none" stroke="black" d="M496.22,-141.98C589.94,-137.25 692,-132.1 754.2,-128.96"/>
<polygon fill="black" stroke="black" points="754.4,-132.45 764.21,-128.45 754.04,-125.46 754.4,-132.45"/>
<text text-anchor="middle" x="619.75" y="-141.8" font-family="Times,serif" font-size="14.00">keywords</text>
</g>
<!-- &quot;kenya&quot; -->
<g id="node6" class="node">
<title>&quot;kenya&quot;</title>
<ellipse fill="none" stroke="black" stroke-width="0" cx="813.79" cy="-72" rx="46.59" ry="18"/>
<text text-anchor="middle" x="813.79" y="-68.3" font-family="Times,serif" font-size="14.00">&quot;kenya&quot;</text>
</g>
<!-- maspawio.net/id/3046b5fc&#45;18e0&#45;11eb&#45;894f&#45;0a735f7a740c&#45;&gt;&quot;kenya&quot; -->
<g id="edge5" class="edge">
<title>maspawio.net/id/3046b5fc&#45;18e0&#45;11eb&#45;894f&#45;0a735f7a740c&#45;&gt;&quot;kenya&quot;</title>
<path fill="none" stroke="black" d="M387.09,-136.46C500.58,-119.28 673.42,-93.1 759.79,-80.03"/>
<polygon fill="black" stroke="black" points="760.52,-83.45 769.88,-78.5 759.47,-76.53 760.52,-83.45"/>
<text text-anchor="middle" x="619.75" y="-111.8" font-family="Times,serif" font-size="14.00">keywords</text>
</g>
<!-- &quot;locally managed mari...&quot; -->
<g id="node7" class="node">
<title>&quot;locally managed mari...&quot;</title>
<ellipse fill="none" stroke="black" stroke-width="0" cx="813.79" cy="-18" rx="128.08" ry="18"/>
<text text-anchor="middle" x="813.79" y="-14.3" font-family="Times,serif" font-size="14.00">&quot;locally managed mari...&quot;</text>
</g>
<!-- maspawio.net/id/3046b5fc&#45;18e0&#45;11eb&#45;894f&#45;0a735f7a740c&#45;&gt;&quot;locally managed mari...&quot; -->
<g id="edge6" class="edge">
<title>maspawio.net/id/3046b5fc&#45;18e0&#45;11eb&#45;894f&#45;0a735f7a740c&#45;&gt;&quot;locally managed mari...&quot;</title>
<path fill="none" stroke="black" d="M340.52,-135.38C420.38,-113.16 562.84,-74.32 685.75,-45 700.01,-41.6 715.21,-38.19 729.97,-34.98"/>
<polygon fill="black" stroke="black" points="731.06,-38.33 740.1,-32.8 729.58,-31.49 731.06,-38.33"/>
<text text-anchor="middle" x="619.75" y="-76.8" font-family="Times,serif" font-size="14.00">name</text>
</g>
</g>
</svg>
