<?xml version="1.0" encoding="UTF-8" standalone="no"?>
<!DOCTYPE svg PUBLIC "-//W3C//DTD SVG 1.1//EN"
 "http://www.w3.org/Graphics/SVG/1.1/DTD/svg11.dtd">
<!-- Generated by graphviz version 2.44.0 (0)
 -->
<!-- Pages: 1 -->
<svg width="1417pt" height="368pt"
 viewBox="0.00 0.00 1417.19 368.00" xmlns="http://www.w3.org/2000/svg" xmlns:xlink="http://www.w3.org/1999/xlink">
<g id="graph0" class="graph" transform="scale(1 1) rotate(0) translate(4 364)">
<polygon fill="white" stroke="transparent" points="-4,4 -4,-364 1413.19,-364 1413.19,4 -4,4"/>
<!-- _ -->
<g id="node1" class="node">
<title>_</title>
<ellipse fill="none" stroke="#558855" cx="809.19" cy="-288" rx="27" ry="18"/>
<text text-anchor="middle" x="809.19" y="-284.3" font-family="Times-Roman" font-size="14.00">_</text>
</g>
<!-- &quot;POLYGON(&#45;2.094547 &#160;4...&quot; -->
<g id="node8" class="node">
<title>&quot;POLYGON(&#45;2.094547 &#160;4...&quot;</title>
<ellipse fill="none" stroke="black" stroke-width="0" cx="1212.91" cy="-342" rx="133.78" ry="18"/>
<text text-anchor="middle" x="1212.91" y="-338.3" font-family="Times-Roman" font-size="14.00">&quot;POLYGON(&#45;2.094547 &#160;4...&quot;</text>
</g>
<!-- _&#45;&gt;&quot;POLYGON(&#45;2.094547 &#160;4...&quot; -->
<g id="edge7" class="edge">
<title>_&#45;&gt;&quot;POLYGON(&#45;2.094547 &#160;4...&quot;</title>
<path fill="none" stroke="black" d="M835.93,-291.46C889.59,-298.67 1016.03,-315.67 1107.48,-327.96"/>
<polygon fill="black" stroke="black" points="1107.24,-331.46 1117.62,-329.32 1108.17,-324.52 1107.24,-331.46"/>
<text text-anchor="middle" x="975.63" y="-314.8" font-family="Times-Roman" font-size="14.00">asWKT</text>
</g>
<!-- www.opengis.net/def/crs/OGC/1.3/CRS84 -->
<g id="node9" class="node">
<title>www.opengis.net/def/crs/OGC/1.3/CRS84</title>
<ellipse fill="none" stroke="#558855" cx="1212.91" cy="-288" rx="196.07" ry="18"/>
<text text-anchor="middle" x="1212.91" y="-284.3" font-family="Times-Roman" font-size="14.00">www.opengis.net/def/crs/OGC/1.3/CRS84</text>
</g>
<!-- _&#45;&gt;www.opengis.net/def/crs/OGC/1.3/CRS84 -->
<g id="edge8" class="edge">
<title>_&#45;&gt;www.opengis.net/def/crs/OGC/1.3/CRS84</title>
<path fill="none" stroke="black" d="M836.24,-288C871.71,-288 938.57,-288 1006.16,-288"/>
<polygon fill="black" stroke="black" points="1006.57,-291.5 1016.57,-288 1006.57,-284.5 1006.57,-291.5"/>
<text text-anchor="middle" x="975.63" y="-291.8" font-family="Times-Roman" font-size="14.00">crs</text>
</g>
<!-- Polygon -->
<g id="node10" class="node">
<title>Polygon</title>
<ellipse fill="none" stroke="#558855" cx="1212.91" cy="-234" rx="46.29" ry="18"/>
<text text-anchor="middle" x="1212.91" y="-230.3" font-family="Times-Roman" font-size="14.00">Polygon</text>
</g>
<!-- _&#45;&gt;Polygon -->
<g id="edge9" class="edge">
<title>_&#45;&gt;Polygon</title>
<path fill="none" stroke="black" d="M835.93,-284.54C900.73,-275.83 1071.63,-252.86 1158.94,-241.12"/>
<polygon fill="black" stroke="black" points="1159.46,-244.58 1168.9,-239.78 1158.53,-237.64 1159.46,-244.58"/>
<text text-anchor="middle" x="975.63" y="-270.8" font-family="Times-Roman" font-size="14.00">type</text>
</g>
<!-- maspawio.net/id/3046b5fc&#45;18e0&#45;11eb&#45;894f&#45;0a735f7a740c -->
<g id="node2" class="node">
<title>maspawio.net/id/3046b5fc&#45;18e0&#45;11eb&#45;894f&#45;0a735f7a740c</title>
<ellipse fill="none" stroke="black" cx="276.88" cy="-153" rx="276.75" ry="18"/>
<text text-anchor="middle" x="276.88" y="-149.3" font-family="Times-Roman" font-size="14.00">maspawio.net/id/3046b5fc&#45;18e0&#45;11eb&#45;894f&#45;0a735f7a740c</text>
</g>
<!-- maspawio.net/id/3046b5fc&#45;18e0&#45;11eb&#45;894f&#45;0a735f7a740c&#45;&gt;_ -->
<g id="edge1" class="edge">
<title>maspawio.net/id/3046b5fc&#45;18e0&#45;11eb&#45;894f&#45;0a735f7a740c&#45;&gt;_</title>
<path fill="none" stroke="black" d="M340.22,-170.55C419.7,-192.71 561.48,-231.48 683.75,-261 713.65,-268.22 747.8,-275.56 772.76,-280.77"/>
<polygon fill="black" stroke="black" points="772.35,-284.26 782.85,-282.86 773.77,-277.4 772.35,-284.26"/>
<text text-anchor="middle" x="618.75" y="-258.8" font-family="Times-Roman" font-size="14.00">hasGeometry</text>
</g>
<!-- Dataset -->
<g id="node3" class="node">
<title>Dataset</title>
<ellipse fill="none" stroke="#558855" cx="809.19" cy="-234" rx="45.49" ry="18"/>
<text text-anchor="middle" x="809.19" y="-230.3" font-family="Times-Roman" font-size="14.00">Dataset</text>
</g>
<!-- maspawio.net/id/3046b5fc&#45;18e0&#45;11eb&#45;894f&#45;0a735f7a740c&#45;&gt;Dataset -->
<g id="edge2" class="edge">
<title>maspawio.net/id/3046b5fc&#45;18e0&#45;11eb&#45;894f&#45;0a735f7a740c&#45;&gt;Dataset</title>
<path fill="none" stroke="black" d="M386.47,-169.59C499.31,-186.82 671.08,-213.06 756.38,-226.09"/>
<polygon fill="black" stroke="black" points="755.93,-229.56 766.34,-227.61 756.98,-222.64 755.93,-229.56"/>
<text text-anchor="middle" x="618.75" y="-214.8" font-family="Times-Roman" font-size="14.00">type</text>
</g>
<!-- &quot;This resource/layer ...&quot; -->
<g id="node4" class="node">
<title>&quot;This resource/layer ...&quot;</title>
<ellipse fill="none" stroke="black" stroke-width="0" cx="809.19" cy="-180" rx="116.18" ry="18"/>
<text text-anchor="middle" x="809.19" y="-176.3" font-family="Times-Roman" font-size="14.00">&quot;This resource/layer ...&quot;</text>
</g>
<!-- maspawio.net/id/3046b5fc&#45;18e0&#45;11eb&#45;894f&#45;0a735f7a740c&#45;&gt;&quot;This resource/layer ...&quot; -->
<g id="edge3" class="edge">
<title>maspawio.net/id/3046b5fc&#45;18e0&#45;11eb&#45;894f&#45;0a735f7a740c&#45;&gt;&quot;This resource/layer ...&quot;</title>
<path fill="none" stroke="black" d="M495.49,-164.08C561.42,-167.44 631.41,-171 688.42,-173.9"/>
<polygon fill="black" stroke="black" points="688.38,-177.4 698.55,-174.42 688.74,-170.41 688.38,-177.4"/>
<text text-anchor="middle" x="618.75" y="-176.8" font-family="Times-Roman" font-size="14.00">description</text>
</g>
<!-- &quot;LMMA&quot; -->
<g id="node5" class="node">
<title>&quot;LMMA&quot;</title>
<ellipse fill="none" stroke="black" stroke-width="0" cx="809.19" cy="-126" rx="46.29" ry="18"/>
<text text-anchor="middle" x="809.19" y="-122.3" font-family="Times-Roman" font-size="14.00">&quot;LMMA&quot;</text>
</g>
<!-- maspawio.net/id/3046b5fc&#45;18e0&#45;11eb&#45;894f&#45;0a735f7a740c&#45;&gt;&quot;LMMA&quot; -->
<g id="edge4" class="edge">
<title>maspawio.net/id/3046b5fc&#45;18e0&#45;11eb&#45;894f&#45;0a735f7a740c&#45;&gt;&quot;LMMA&quot;</title>
<path fill="none" stroke="black" d="M495.49,-141.92C589.66,-137.13 692.11,-131.91 753.19,-128.8"/>
<polygon fill="black" stroke="black" points="753.56,-132.29 763.37,-128.28 753.2,-125.3 753.56,-132.29"/>
<text text-anchor="middle" x="618.75" y="-141.8" font-family="Times-Roman" font-size="14.00">keywords</text>
</g>
<!-- &quot;kenya&quot; -->
<g id="node6" class="node">
<title>&quot;kenya&quot;</title>
<ellipse fill="none" stroke="black" stroke-width="0" cx="809.19" cy="-72" rx="46.29" ry="18"/>
<text text-anchor="middle" x="809.19" y="-68.3" font-family="Times-Roman" font-size="14.00">&quot;kenya&quot;</text>
</g>
<!-- maspawio.net/id/3046b5fc&#45;18e0&#45;11eb&#45;894f&#45;0a735f7a740c&#45;&gt;&quot;kenya&quot; -->
<g id="edge5" class="edge">
<title>maspawio.net/id/3046b5fc&#45;18e0&#45;11eb&#45;894f&#45;0a735f7a740c&#45;&gt;&quot;kenya&quot;</title>
<path fill="none" stroke="black" d="M386.47,-136.41C499.16,-119.2 670.63,-93.01 756.04,-79.96"/>
<polygon fill="black" stroke="black" points="756.67,-83.41 766.02,-78.44 755.61,-76.49 756.67,-83.41"/>
<text text-anchor="middle" x="618.75" y="-111.8" font-family="Times-Roman" font-size="14.00">keywords</text>
</g>
<!-- &quot;locally managed mari...&quot; -->
<g id="node7" class="node">
<title>&quot;locally managed mari...&quot;</title>
<ellipse fill="none" stroke="black" stroke-width="0" cx="809.19" cy="-18" rx="125.38" ry="18"/>
<text text-anchor="middle" x="809.19" y="-14.3" font-family="Times-Roman" font-size="14.00">&quot;locally managed mari...&quot;</text>
</g>
<!-- maspawio.net/id/3046b5fc&#45;18e0&#45;11eb&#45;894f&#45;0a735f7a740c&#45;&gt;&quot;locally managed mari...&quot; -->
<g id="edge6" class="edge">
<title>maspawio.net/id/3046b5fc&#45;18e0&#45;11eb&#45;894f&#45;0a735f7a740c&#45;&gt;&quot;locally managed mari...&quot;</title>
<path fill="none" stroke="black" d="M340.22,-135.45C419.7,-113.29 561.48,-74.52 683.75,-45 697.81,-41.61 712.8,-38.19 727.34,-34.97"/>
<polygon fill="black" stroke="black" points="728.3,-38.34 737.32,-32.78 726.8,-31.51 728.3,-38.34"/>
<text text-anchor="middle" x="618.75" y="-77.8" font-family="Times-Roman" font-size="14.00">name</text>
</g>
</g>
</svg>
