<?xml version="1.0" encoding="UTF-8" standalone="no"?>
<!DOCTYPE svg PUBLIC "-//W3C//DTD SVG 1.1//EN"
 "http://www.w3.org/Graphics/SVG/1.1/DTD/svg11.dtd">
<!-- Generated by graphviz version 2.43.0 (0)
 -->
<!-- Title: %3 Pages: 1 -->
<svg width="536pt" height="98pt"
 viewBox="0.00 0.00 535.76 98.00" xmlns="http://www.w3.org/2000/svg" xmlns:xlink="http://www.w3.org/1999/xlink">
<g id="graph0" class="graph" transform="scale(1 1) rotate(0) translate(4 94)">
<title>%3</title>
<polygon fill="white" stroke="transparent" points="-4,4 -4,-94 531.76,-94 531.76,4 -4,4"/>
<!-- &quot;This resource/layer ...&quot; -->
<g id="node1" class="node">
<title>&quot;This resource/layer ...&quot;</title>
<ellipse fill="none" stroke="black" stroke-width="0" cx="399.72" cy="-72" rx="120.48" ry="18"/>
<text text-anchor="middle" x="399.72" y="-68.3" font-family="Times,serif" font-size="14.00">&quot;This resource/layer ...&quot;</text>
</g>
<!-- example.org/1 -->
<g id="node2" class="node">
<title>example.org/1</title>
<ellipse fill="none" stroke="black" cx="77.34" cy="-45" rx="77.19" ry="18"/>
<text text-anchor="middle" x="77.34" y="-41.3" font-family="Times,serif" font-size="14.00">example.org/1</text>
</g>
<!-- example.org/1&#45;&gt;&quot;This resource/layer ...&quot; -->
<g id="edge1" class="edge">
<title>example.org/1&#45;&gt;&quot;This resource/layer ...&quot;</title>
<path fill="none" stroke="black" d="M150.24,-51.06C189.78,-54.39 239.75,-58.6 284.49,-62.37"/>
<polygon fill="black" stroke="black" points="284.29,-65.87 294.55,-63.22 284.88,-58.89 284.29,-65.87"/>
<text text-anchor="middle" x="213.19" y="-62.8" font-family="Times,serif" font-size="14.00">description</text>
</g>
<!-- &quot;locally managed mari...&quot; -->
<g id="node3" class="node">
<title>&quot;locally managed mari...&quot;</title>
<ellipse fill="none" stroke="black" stroke-width="0" cx="399.72" cy="-18" rx="128.08" ry="18"/>
<text text-anchor="middle" x="399.72" y="-14.3" font-family="Times,serif" font-size="14.00">&quot;locally managed mari...&quot;</text>
</g>
<!-- example.org/1&#45;&gt;&quot;locally managed mari...&quot; -->
<g id="edge2" class="edge">
<title>example.org/1&#45;&gt;&quot;locally managed mari...&quot;</title>
<path fill="none" stroke="black" d="M144.52,-36.07C153.96,-34.95 163.57,-33.88 172.69,-33 204.12,-29.96 238.08,-27.35 269.89,-25.2"/>
<polygon fill="black" stroke="black" points="270.38,-28.68 280.13,-24.52 269.92,-21.69 270.38,-28.68"/>
<text text-anchor="middle" x="213.19" y="-36.8" font-family="Times,serif" font-size="14.00">name</text>
</g>
</g>
</svg>
