<?xml version="1.0" encoding="UTF-8" standalone="no"?>
<!DOCTYPE svg PUBLIC "-//W3C//DTD SVG 1.1//EN"
 "http://www.w3.org/Graphics/SVG/1.1/DTD/svg11.dtd">
<!-- Generated by graphviz version 2.43.0 (0)
 -->
<!-- Title: %3 Pages: 1 -->
<svg width="661pt" height="206pt"
 viewBox="0.00 0.00 661.46 206.00" xmlns="http://www.w3.org/2000/svg" xmlns:xlink="http://www.w3.org/1999/xlink">
<g id="graph0" class="graph" transform="scale(1 1) rotate(0) translate(4 202)">
<title>%3</title>
<polygon fill="white" stroke="transparent" points="-4,4 -4,-202 657.46,-202 657.46,4 -4,4"/>
<!-- &quot;Earth System Modeling&quot; -->
<g id="node1" class="node">
<title>&quot;Earth System Modeling&quot;</title>
<ellipse fill="none" stroke="black" stroke-width="0" cx="523.47" cy="-180" rx="129.98" ry="18"/>
<text text-anchor="middle" x="523.47" y="-176.3" font-family="Times,serif" font-size="14.00">&quot;Earth System Modeling&quot;</text>
</g>
<!-- cooldata.io/id/doc/1 -->
<g id="node2" class="node">
<title>cooldata.io/id/doc/1</title>
<ellipse fill="none" stroke="black" cx="100.74" cy="-99" rx="100.98" ry="18"/>
<text text-anchor="middle" x="100.74" y="-95.3" font-family="Times,serif" font-size="14.00">cooldata.io/id/doc/1</text>
</g>
<!-- cooldata.io/id/doc/1&#45;&gt;&quot;Earth System Modeling&quot; -->
<g id="edge1" class="edge">
<title>cooldata.io/id/doc/1&#45;&gt;&quot;Earth System Modeling&quot;</title>
<path fill="none" stroke="black" d="M148.01,-114.9C169.54,-121.84 195.61,-129.61 219.48,-135 282.36,-149.2 353.63,-160.04 411.24,-167.52"/>
<polygon fill="black" stroke="black" points="411.1,-171.03 421.47,-168.83 411.99,-164.09 411.1,-171.03"/>
<text text-anchor="middle" x="297.48" y="-164.8" font-family="Times,serif" font-size="14.00">schema.org/keywords</text>
</g>
<!-- &quot;climate change&quot; -->
<g id="node3" class="node">
<title>&quot;climate change&quot;</title>
<ellipse fill="none" stroke="black" stroke-width="0" cx="523.47" cy="-126" rx="89.88" ry="18"/>
<text text-anchor="middle" x="523.47" y="-122.3" font-family="Times,serif" font-size="14.00">&quot;climate change&quot;</text>
</g>
<!-- cooldata.io/id/doc/1&#45;&gt;&quot;climate change&quot; -->
<g id="edge2" class="edge">
<title>cooldata.io/id/doc/1&#45;&gt;&quot;climate change&quot;</title>
<path fill="none" stroke="black" d="M195.9,-105.04C265.05,-109.48 358.6,-115.48 427.86,-119.93"/>
<polygon fill="black" stroke="black" points="427.69,-123.42 437.89,-120.57 428.14,-116.44 427.69,-123.42"/>
<text text-anchor="middle" x="297.48" y="-119.8" font-family="Times,serif" font-size="14.00">schema.org/keywords</text>
</g>
<!-- &quot;geochemistry&quot; -->
<g id="node4" class="node">
<title>&quot;geochemistry&quot;</title>
<ellipse fill="none" stroke="black" stroke-width="0" cx="523.47" cy="-72" rx="82.59" ry="18"/>
<text text-anchor="middle" x="523.47" y="-68.3" font-family="Times,serif" font-size="14.00">&quot;geochemistry&quot;</text>
</g>
<!-- cooldata.io/id/doc/1&#45;&gt;&quot;geochemistry&quot; -->
<g id="edge3" class="edge">
<title>cooldata.io/id/doc/1&#45;&gt;&quot;geochemistry&quot;</title>
<path fill="none" stroke="black" d="M187.22,-89.76C198.07,-88.74 209.03,-87.79 219.48,-87 290.6,-81.62 371.26,-77.73 431.46,-75.27"/>
<polygon fill="black" stroke="black" points="431.85,-78.75 441.7,-74.85 431.57,-71.76 431.85,-78.75"/>
<text text-anchor="middle" x="297.48" y="-90.8" font-family="Times,serif" font-size="14.00">schema.org/keywords</text>
</g>
<!-- schema.org/Dataset -->
<g id="node5" class="node">
<title>schema.org/Dataset</title>
<ellipse fill="none" stroke="#558855" cx="523.47" cy="-18" rx="103.18" ry="18"/>
<text text-anchor="middle" x="523.47" y="-14.3" font-family="Times,serif" font-size="14.00">schema.org/Dataset</text>
</g>
<!-- cooldata.io/id/doc/1&#45;&gt;schema.org/Dataset -->
<g id="edge4" class="edge">
<title>cooldata.io/id/doc/1&#45;&gt;schema.org/Dataset</title>
<path fill="none" stroke="black" d="M143.4,-82.65C165.67,-74.47 193.74,-65.05 219.48,-59 285.42,-43.49 360.92,-33.26 420.05,-26.89"/>
<polygon fill="black" stroke="black" points="420.57,-30.36 430.14,-25.82 419.83,-23.39 420.57,-30.36"/>
<text text-anchor="middle" x="297.48" y="-62.8" font-family="Times,serif" font-size="14.00">type</text>
</g>
</g>
</svg>
