<?xml version="1.0" encoding="UTF-8" standalone="no"?>
<!DOCTYPE svg PUBLIC "-//W3C//DTD SVG 1.1//EN"
 "http://www.w3.org/Graphics/SVG/1.1/DTD/svg11.dtd">
<!-- Generated by graphviz version 2.44.0 (0)
 -->
<!-- Pages: 1 -->
<svg width="641pt" height="206pt"
 viewBox="0.00 0.00 640.86 206.00" xmlns="http://www.w3.org/2000/svg" xmlns:xlink="http://www.w3.org/1999/xlink">
<g id="graph0" class="graph" transform="scale(1 1) rotate(0) translate(4 202)">
<polygon fill="white" stroke="transparent" points="-4,4 -4,-202 636.86,-202 636.86,4 -4,4"/>
<!-- &quot;Earth System Modeling&quot; -->
<g id="node1" class="node">
<title>&quot;Earth System Modeling&quot;</title>
<ellipse fill="none" stroke="black" stroke-width="0" cx="508.72" cy="-180" rx="124.28" ry="18"/>
<text text-anchor="middle" x="508.72" y="-176.3" font-family="Times-Roman" font-size="14.00">&quot;Earth System Modeling&quot;</text>
</g>
<!-- cooldata.io/id/doc/1 -->
<g id="node2" class="node">
<title>cooldata.io/id/doc/1</title>
<ellipse fill="none" stroke="black" cx="98.79" cy="-99" rx="98.58" ry="18"/>
<text text-anchor="middle" x="98.79" y="-95.3" font-family="Times-Roman" font-size="14.00">cooldata.io/id/doc/1</text>
</g>
<!-- cooldata.io/id/doc/1&#45;&gt;&quot;Earth System Modeling&quot; -->
<g id="edge1" class="edge">
<title>cooldata.io/id/doc/1&#45;&gt;&quot;Earth System Modeling&quot;</title>
<path fill="none" stroke="black" d="M145.56,-114.95C166.68,-121.87 192.2,-129.6 215.58,-135 276.42,-149.06 345.42,-159.92 401.08,-167.45"/>
<polygon fill="black" stroke="black" points="400.94,-170.96 411.32,-168.81 401.87,-164.02 400.94,-170.96"/>
<text text-anchor="middle" x="291.08" y="-165.8" font-family="Times-Roman" font-size="14.00">schema.org/keywords</text>
</g>
<!-- &quot;climate change&quot; -->
<g id="node3" class="node">
<title>&quot;climate change&quot;</title>
<ellipse fill="none" stroke="black" stroke-width="0" cx="508.72" cy="-126" rx="88.28" ry="18"/>
<text text-anchor="middle" x="508.72" y="-122.3" font-family="Times-Roman" font-size="14.00">&quot;climate change&quot;</text>
</g>
<!-- cooldata.io/id/doc/1&#45;&gt;&quot;climate change&quot; -->
<g id="edge2" class="edge">
<title>cooldata.io/id/doc/1&#45;&gt;&quot;climate change&quot;</title>
<path fill="none" stroke="black" d="M191.85,-105.09C258.23,-109.49 347.52,-115.4 414.23,-119.81"/>
<polygon fill="black" stroke="black" points="414.11,-123.31 424.32,-120.48 414.58,-116.33 414.11,-123.31"/>
<text text-anchor="middle" x="291.08" y="-119.8" font-family="Times-Roman" font-size="14.00">schema.org/keywords</text>
</g>
<!-- &quot;geochemistry&quot; -->
<g id="node4" class="node">
<title>&quot;geochemistry&quot;</title>
<ellipse fill="none" stroke="black" stroke-width="0" cx="508.72" cy="-72" rx="81.49" ry="18"/>
<text text-anchor="middle" x="508.72" y="-68.3" font-family="Times-Roman" font-size="14.00">&quot;geochemistry&quot;</text>
</g>
<!-- cooldata.io/id/doc/1&#45;&gt;&quot;geochemistry&quot; -->
<g id="edge3" class="edge">
<title>cooldata.io/id/doc/1&#45;&gt;&quot;geochemistry&quot;</title>
<path fill="none" stroke="black" d="M183.86,-89.77C194.53,-88.75 205.31,-87.8 215.58,-87 283.41,-81.75 360.24,-77.88 418.09,-75.4"/>
<polygon fill="black" stroke="black" points="418.45,-78.88 428.29,-74.96 418.16,-71.89 418.45,-78.88"/>
<text text-anchor="middle" x="291.08" y="-90.8" font-family="Times-Roman" font-size="14.00">schema.org/keywords</text>
</g>
<!-- schema.org/Dataset -->
<g id="node5" class="node">
<title>schema.org/Dataset</title>
<ellipse fill="none" stroke="#558855" cx="508.72" cy="-18" rx="100.98" ry="18"/>
<text text-anchor="middle" x="508.72" y="-14.3" font-family="Times-Roman" font-size="14.00">schema.org/Dataset</text>
</g>
<!-- cooldata.io/id/doc/1&#45;&gt;schema.org/Dataset -->
<g id="edge4" class="edge">
<title>cooldata.io/id/doc/1&#45;&gt;schema.org/Dataset</title>
<path fill="none" stroke="black" d="M140.75,-82.68C162.65,-74.51 190.25,-65.09 215.58,-59 278.88,-43.78 351.35,-33.56 408.27,-27.14"/>
<polygon fill="black" stroke="black" points="408.8,-30.6 418.35,-26.02 408.03,-23.64 408.8,-30.6"/>
<text text-anchor="middle" x="291.08" y="-62.8" font-family="Times-Roman" font-size="14.00">type</text>
</g>
</g>
</svg>
