<?xml version="1.0" encoding="UTF-8" standalone="no"?>
<!DOCTYPE svg PUBLIC "-//W3C//DTD SVG 1.1//EN"
 "http://www.w3.org/Graphics/SVG/1.1/DTD/svg11.dtd">
<!-- Generated by graphviz version 2.49.0 (20210829.0051)
 -->
<!-- Pages: 1 -->
<svg width="567pt" height="690pt"
 viewBox="0.00 0.00 566.96 690.00" xmlns="http://www.w3.org/2000/svg" xmlns:xlink="http://www.w3.org/1999/xlink">
<g id="graph0" class="graph" transform="scale(1 1) rotate(0) translate(4 686)">
<polygon fill="white" stroke="transparent" points="-4,4 -4,-686 562.96,-686 562.96,4 -4,4"/>
<!-- PropertyShape -->
<g id="node1" class="node">
<title>PropertyShape</title>
<ellipse fill="none" stroke="#558855" cx="478.37" cy="-311" rx="80.69" ry="18"/>
<text text-anchor="middle" x="478.37" y="-307.3" font-family="Times,serif" font-size="14.00">PropertyShape</text>
</g>
<!-- descriptionResourceProperty -->
<g id="node2" class="node">
<title>descriptionResourceProperty</title>
<ellipse fill="none" stroke="black" cx="146.89" cy="-626" rx="146.77" ry="18"/>
<text text-anchor="middle" x="146.89" y="-622.3" font-family="Times,serif" font-size="14.00">descriptionResourceProperty</text>
</g>
<!-- descriptionResourceProperty&#45;&gt;PropertyShape -->
<g id="edge1" class="edge">
<title>descriptionResourceProperty&#45;&gt;PropertyShape</title>
<path fill="none" stroke="black" d="M182.03,-608.51C214.92,-591.9 266.24,-566.64 311.77,-547 341.48,-534.19 359.87,-546.51 379.77,-521 421.07,-468.06 364.29,-429.2 397.77,-371 406.64,-355.6 421.2,-342.9 435.45,-333.21"/>
<polygon fill="black" stroke="black" points="437.72,-335.92 444.24,-327.57 433.94,-330.03 437.72,-335.92"/>
<text text-anchor="middle" x="345.77" y="-550.8" font-family="Times,serif" font-size="14.00">type</text>
</g>
<!-- Literal -->
<g id="node3" class="node">
<title>Literal</title>
<ellipse fill="none" stroke="#558855" cx="478.37" cy="-493" rx="41.69" ry="18"/>
<text text-anchor="middle" x="478.37" y="-489.3" font-family="Times,serif" font-size="14.00">Literal</text>
</g>
<!-- descriptionResourceProperty&#45;&gt;Literal -->
<g id="edge2" class="edge">
<title>descriptionResourceProperty&#45;&gt;Literal</title>
<path fill="none" stroke="black" d="M290.24,-630.04C321.92,-625.24 353.78,-615.4 379.77,-597 394.38,-586.67 386.75,-575.09 397.77,-561 411.79,-543.08 431.13,-526.42 447.24,-514.08"/>
<polygon fill="black" stroke="black" points="449.41,-516.83 455.32,-508.04 445.21,-511.23 449.41,-516.83"/>
<text text-anchor="middle" x="345.77" y="-627.8" font-family="Times,serif" font-size="14.00">nodeKind</text>
</g>
<!-- description -->
<g id="node4" class="node">
<title>description</title>
<ellipse fill="none" stroke="#558855" cx="478.37" cy="-664" rx="63.09" ry="18"/>
<text text-anchor="middle" x="478.37" y="-660.3" font-family="Times,serif" font-size="14.00">description</text>
</g>
<!-- descriptionResourceProperty&#45;&gt;description -->
<g id="edge3" class="edge">
<title>descriptionResourceProperty&#45;&gt;description</title>
<path fill="none" stroke="black" d="M254.4,-638.29C305.34,-644.16 364.79,-651.02 409.49,-656.17"/>
<polygon fill="black" stroke="black" points="409.32,-659.68 419.65,-657.34 410.12,-652.72 409.32,-659.68"/>
<text text-anchor="middle" x="345.77" y="-654.8" font-family="Times,serif" font-size="14.00">path</text>
</g>
<!-- identifierProviderProperty -->
<g id="node5" class="node">
<title>identifierProviderProperty</title>
<ellipse fill="none" stroke="black" cx="146.89" cy="-132" rx="133.78" ry="18"/>
<text text-anchor="middle" x="146.89" y="-128.3" font-family="Times,serif" font-size="14.00">identifierProviderProperty</text>
</g>
<!-- identifierProviderProperty&#45;&gt;PropertyShape -->
<g id="edge4" class="edge">
<title>identifierProviderProperty&#45;&gt;PropertyShape</title>
<path fill="none" stroke="black" d="M196.65,-148.81C256.28,-170.13 352.63,-207.34 379.77,-234 393.39,-247.38 384.36,-259.41 397.77,-273 405.11,-280.43 414.19,-286.6 423.56,-291.65"/>
<polygon fill="black" stroke="black" points="422.07,-294.82 432.58,-296.16 425.2,-288.56 422.07,-294.82"/>
<text text-anchor="middle" x="345.77" y="-237.8" font-family="Times,serif" font-size="14.00">type</text>
</g>
<!-- IRIOrLiteral -->
<g id="node6" class="node">
<title>IRIOrLiteral</title>
<ellipse fill="none" stroke="#558855" cx="478.37" cy="-75" rx="66.89" ry="18"/>
<text text-anchor="middle" x="478.37" y="-71.3" font-family="Times,serif" font-size="14.00">IRIOrLiteral</text>
</g>
<!-- identifierProviderProperty&#45;&gt;IRIOrLiteral -->
<g id="edge5" class="edge">
<title>identifierProviderProperty&#45;&gt;IRIOrLiteral</title>
<path fill="none" stroke="black" d="M229.75,-117.84C285.86,-108.13 359.3,-95.43 411.6,-86.38"/>
<polygon fill="black" stroke="black" points="412.51,-89.77 421.76,-84.62 411.31,-82.88 412.51,-89.77"/>
<text text-anchor="middle" x="345.77" y="-106.8" font-family="Times,serif" font-size="14.00">nodeKind</text>
</g>
<!-- provider -->
<g id="node7" class="node">
<title>provider</title>
<ellipse fill="none" stroke="#558855" cx="478.37" cy="-132" rx="50.09" ry="18"/>
<text text-anchor="middle" x="478.37" y="-128.3" font-family="Times,serif" font-size="14.00">provider</text>
</g>
<!-- identifierProviderProperty&#45;&gt;provider -->
<g id="edge6" class="edge">
<title>identifierProviderProperty&#45;&gt;provider</title>
<path fill="none" stroke="black" d="M280.95,-132C328.46,-132 379.61,-132 417.81,-132"/>
<polygon fill="black" stroke="black" points="418.22,-135.5 428.22,-132 418.22,-128.5 418.22,-135.5"/>
<text text-anchor="middle" x="345.77" y="-135.8" font-family="Times,serif" font-size="14.00">path</text>
</g>
<!-- keywordsResourceProperty -->
<g id="node8" class="node">
<title>keywordsResourceProperty</title>
<ellipse fill="none" stroke="black" cx="146.89" cy="-398" rx="139.18" ry="18"/>
<text text-anchor="middle" x="146.89" y="-394.3" font-family="Times,serif" font-size="14.00">keywordsResourceProperty</text>
</g>
<!-- keywordsResourceProperty&#45;&gt;PropertyShape -->
<g id="edge7" class="edge">
<title>keywordsResourceProperty&#45;&gt;PropertyShape</title>
<path fill="none" stroke="black" d="M177.79,-380.34C209.76,-362.44 262.52,-335.62 311.77,-323 335.95,-316.81 362.71,-313.43 387.54,-311.67"/>
<polygon fill="black" stroke="black" points="387.92,-315.16 397.69,-311.04 387.49,-308.17 387.92,-315.16"/>
<text text-anchor="middle" x="345.77" y="-326.8" font-family="Times,serif" font-size="14.00">type</text>
</g>
<!-- keywordsResourceProperty&#45;&gt;Literal -->
<g id="edge8" class="edge">
<title>keywordsResourceProperty&#45;&gt;Literal</title>
<path fill="none" stroke="black" d="M195.99,-414.91C228.5,-426.08 272.48,-440.68 311.77,-452 351.75,-463.52 397.71,-474.74 431.06,-482.52"/>
<polygon fill="black" stroke="black" points="430.45,-485.97 440.98,-484.82 432.03,-479.16 430.45,-485.97"/>
<text text-anchor="middle" x="345.77" y="-473.8" font-family="Times,serif" font-size="14.00">nodeKind</text>
</g>
<!-- keywords -->
<g id="node9" class="node">
<title>keywords</title>
<ellipse fill="none" stroke="#558855" cx="478.37" cy="-398" rx="55.49" ry="18"/>
<text text-anchor="middle" x="478.37" y="-394.3" font-family="Times,serif" font-size="14.00">keywords</text>
</g>
<!-- keywordsResourceProperty&#45;&gt;keywords -->
<g id="edge9" class="edge">
<title>keywordsResourceProperty&#45;&gt;keywords</title>
<path fill="none" stroke="black" d="M286.18,-398C330.1,-398 376.59,-398 412.73,-398"/>
<polygon fill="black" stroke="black" points="413.12,-401.5 423.12,-398 413.12,-394.5 413.12,-401.5"/>
<text text-anchor="middle" x="345.77" y="-401.8" font-family="Times,serif" font-size="14.00">path</text>
</g>
<!-- licenseResourceProperty -->
<g id="node10" class="node">
<title>licenseResourceProperty</title>
<ellipse fill="none" stroke="black" cx="146.89" cy="-512" rx="126.98" ry="18"/>
<text text-anchor="middle" x="146.89" y="-508.3" font-family="Times,serif" font-size="14.00">licenseResourceProperty</text>
</g>
<!-- licenseResourceProperty&#45;&gt;PropertyShape -->
<g id="edge10" class="edge">
<title>licenseResourceProperty&#45;&gt;PropertyShape</title>
<path fill="none" stroke="black" d="M191.79,-495.07C223.89,-480.71 266.41,-457.28 293.77,-425 307.97,-408.25 296.38,-394.65 311.77,-379 327.75,-362.76 379.72,-342.82 421.23,-328.75"/>
<polygon fill="black" stroke="black" points="422.34,-332.07 430.71,-325.57 420.12,-325.43 422.34,-332.07"/>
<text text-anchor="middle" x="345.77" y="-382.8" font-family="Times,serif" font-size="14.00">type</text>
</g>
<!-- licenseResourceProperty&#45;&gt;Literal -->
<g id="edge11" class="edge">
<title>licenseResourceProperty&#45;&gt;Literal</title>
<path fill="none" stroke="black" d="M264.51,-505.27C320.09,-502.07 383.68,-498.4 426.78,-495.92"/>
<polygon fill="black" stroke="black" points="427.22,-499.4 437,-495.33 426.82,-492.41 427.22,-499.4"/>
<text text-anchor="middle" x="345.77" y="-505.8" font-family="Times,serif" font-size="14.00">nodeKind</text>
</g>
<!-- license -->
<g id="node11" class="node">
<title>license</title>
<ellipse fill="none" stroke="#558855" cx="478.37" cy="-588" rx="42.79" ry="18"/>
<text text-anchor="middle" x="478.37" y="-584.3" font-family="Times,serif" font-size="14.00">license</text>
</g>
<!-- licenseResourceProperty&#45;&gt;license -->
<g id="edge12" class="edge">
<title>licenseResourceProperty&#45;&gt;license</title>
<path fill="none" stroke="black" d="M191.77,-528.94C224.42,-540.93 270.31,-556.5 311.77,-566 349.53,-574.65 392.95,-580.26 425.86,-583.65"/>
<polygon fill="black" stroke="black" points="425.86,-587.17 436.16,-584.67 426.55,-580.2 425.86,-587.17"/>
<text text-anchor="middle" x="345.77" y="-581.8" font-family="Times,serif" font-size="14.00">path</text>
</g>
<!-- nameResourceProperty -->
<g id="node12" class="node">
<title>nameResourceProperty</title>
<ellipse fill="none" stroke="black" cx="146.89" cy="-284" rx="120.48" ry="18"/>
<text text-anchor="middle" x="146.89" y="-280.3" font-family="Times,serif" font-size="14.00">nameResourceProperty</text>
</g>
<!-- nameResourceProperty&#45;&gt;PropertyShape -->
<g id="edge13" class="edge">
<title>nameResourceProperty&#45;&gt;PropertyShape</title>
<path fill="none" stroke="black" d="M262.1,-278.7C299.72,-278.5 341.66,-279.93 379.77,-285 393.62,-286.84 408.3,-290.06 421.95,-293.61"/>
<polygon fill="black" stroke="black" points="421.12,-297.01 431.69,-296.24 422.95,-290.25 421.12,-297.01"/>
<text text-anchor="middle" x="345.77" y="-288.8" font-family="Times,serif" font-size="14.00">type</text>
</g>
<!-- nameResourceProperty&#45;&gt;Literal -->
<g id="edge14" class="edge">
<title>nameResourceProperty&#45;&gt;Literal</title>
<path fill="none" stroke="black" d="M190.91,-300.82C222.96,-315.25 265.84,-338.82 293.77,-371 307.35,-386.65 296.24,-400.29 311.77,-414 335.29,-434.77 351.02,-420.44 379.77,-433 403.85,-443.52 429.06,-459.15 447.83,-471.83"/>
<polygon fill="black" stroke="black" points="446,-474.82 456.23,-477.59 449.96,-469.05 446,-474.82"/>
<text text-anchor="middle" x="345.77" y="-436.8" font-family="Times,serif" font-size="14.00">nodeKind</text>
</g>
<!-- name -->
<g id="node13" class="node">
<title>name</title>
<ellipse fill="none" stroke="#558855" cx="478.37" cy="-246" rx="36.29" ry="18"/>
<text text-anchor="middle" x="478.37" y="-242.3" font-family="Times,serif" font-size="14.00">name</text>
</g>
<!-- nameResourceProperty&#45;&gt;name -->
<g id="edge15" class="edge">
<title>nameResourceProperty&#45;&gt;name</title>
<path fill="none" stroke="black" d="M230.29,-270.93C256.31,-267.07 285.21,-263.07 311.77,-260 352.25,-255.33 398.46,-251.55 431.76,-249.1"/>
<polygon fill="black" stroke="black" points="432.37,-252.57 442.09,-248.36 431.87,-245.59 432.37,-252.57"/>
<text text-anchor="middle" x="345.77" y="-263.8" font-family="Times,serif" font-size="14.00">path</text>
</g>
<!-- urlResourceProperty -->
<g id="node14" class="node">
<title>urlResourceProperty</title>
<ellipse fill="none" stroke="black" cx="146.89" cy="-56" rx="107.78" ry="18"/>
<text text-anchor="middle" x="146.89" y="-52.3" font-family="Times,serif" font-size="14.00">urlResourceProperty</text>
</g>
<!-- urlResourceProperty&#45;&gt;PropertyShape -->
<g id="edge16" class="edge">
<title>urlResourceProperty&#45;&gt;PropertyShape</title>
<path fill="none" stroke="black" d="M224.1,-68.58C248.73,-75.81 274.6,-87.17 293.77,-105 308.94,-119.11 296.99,-133.49 311.77,-148 334.98,-170.78 359.14,-149.86 379.77,-175 407.87,-209.23 370.85,-237.84 397.77,-273 403.65,-280.67 411.46,-286.87 419.9,-291.85"/>
<polygon fill="black" stroke="black" points="418.39,-295.01 428.86,-296.62 421.68,-288.83 418.39,-295.01"/>
<text text-anchor="middle" x="345.77" y="-178.8" font-family="Times,serif" font-size="14.00">type</text>
</g>
<!-- urlResourceProperty&#45;&gt;IRIOrLiteral -->
<g id="edge17" class="edge">
<title>urlResourceProperty&#45;&gt;IRIOrLiteral</title>
<path fill="none" stroke="black" d="M252.84,-52.5C292.67,-52.21 338.39,-53.13 379.77,-57 391.57,-58.1 404.06,-59.91 416.04,-61.97"/>
<polygon fill="black" stroke="black" points="415.48,-65.43 425.94,-63.74 416.72,-58.54 415.48,-65.43"/>
<text text-anchor="middle" x="345.77" y="-60.8" font-family="Times,serif" font-size="14.00">nodeKind</text>
</g>
<!-- url -->
<g id="node15" class="node">
<title>url</title>
<ellipse fill="none" stroke="#558855" cx="478.37" cy="-18" rx="27" ry="18"/>
<text text-anchor="middle" x="478.37" y="-14.3" font-family="Times,serif" font-size="14.00">url</text>
</g>
<!-- urlResourceProperty&#45;&gt;url -->
<g id="edge18" class="edge">
<title>urlResourceProperty&#45;&gt;url</title>
<path fill="none" stroke="black" d="M229.93,-44.38C256.06,-40.84 285.11,-37.08 311.77,-34 356.31,-28.86 407.71,-24.07 441.28,-21.1"/>
<polygon fill="black" stroke="black" points="441.87,-24.56 451.52,-20.2 441.25,-17.59 441.87,-24.56"/>
<text text-anchor="middle" x="345.77" y="-37.8" font-family="Times,serif" font-size="14.00">path</text>
</g>
</g>
</svg>
