<?xml version="1.0" encoding="UTF-8" standalone="no"?>
<!DOCTYPE svg PUBLIC "-//W3C//DTD SVG 1.1//EN"
 "http://www.w3.org/Graphics/SVG/1.1/DTD/svg11.dtd">
<!-- Generated by graphviz version 2.43.0 (0)
 -->
<!-- Title: %3 Pages: 1 -->
<svg width="742pt" height="478pt"
 viewBox="0.00 0.00 742.35 478.00" xmlns="http://www.w3.org/2000/svg" xmlns:xlink="http://www.w3.org/1999/xlink">
<g id="graph0" class="graph" transform="scale(1 1) rotate(0) translate(4 474)">
<title>%3</title>
<polygon fill="white" stroke="transparent" points="-4,4 -4,-474 738.35,-474 738.35,4 -4,4"/>
<!-- &quot;Earth System Modeling&quot; -->
<g id="node1" class="node">
<title>&quot;Earth System Modeling&quot;</title>
<ellipse fill="none" stroke="black" stroke-width="0" cx="569.92" cy="-450" rx="129.98" ry="18"/>
<text text-anchor="middle" x="569.92" y="-446.3" font-family="Times,serif" font-size="14.00">&quot;Earth System Modeling&quot;</text>
</g>
<!-- cooldata.io/id/doc/1 -->
<g id="node2" class="node">
<title>cooldata.io/id/doc/1</title>
<ellipse fill="none" stroke="black" cx="100.74" cy="-234" rx="100.98" ry="18"/>
<text text-anchor="middle" x="100.74" y="-230.3" font-family="Times,serif" font-size="14.00">cooldata.io/id/doc/1</text>
</g>
<!-- cooldata.io/id/doc/1&#45;&gt;&quot;Earth System Modeling&quot; -->
<g id="edge1" class="edge">
<title>cooldata.io/id/doc/1&#45;&gt;&quot;Earth System Modeling&quot;</title>
<path fill="none" stroke="black" d="M108.2,-252.22C122.16,-288.62 158.85,-370.01 219.48,-407 287.12,-448.27 375.85,-458.77 446.97,-459.08"/>
<polygon fill="black" stroke="black" points="447.34,-462.58 457.34,-459.05 447.33,-455.58 447.34,-462.58"/>
<text text-anchor="middle" x="303.48" y="-458.8" font-family="Times,serif" font-size="14.00">schema.org/keywords</text>
</g>
<!-- &quot;climate change&quot; -->
<g id="node3" class="node">
<title>&quot;climate change&quot;</title>
<ellipse fill="none" stroke="black" stroke-width="0" cx="569.92" cy="-396" rx="89.88" ry="18"/>
<text text-anchor="middle" x="569.92" y="-392.3" font-family="Times,serif" font-size="14.00">&quot;climate change&quot;</text>
</g>
<!-- cooldata.io/id/doc/1&#45;&gt;&quot;climate change&quot; -->
<g id="edge2" class="edge">
<title>cooldata.io/id/doc/1&#45;&gt;&quot;climate change&quot;</title>
<path fill="none" stroke="black" d="M115.43,-252.2C135.34,-277.2 174.81,-321.49 219.48,-343 298.16,-380.88 397.34,-393.02 469.92,-396.34"/>
<polygon fill="black" stroke="black" points="469.85,-399.84 479.98,-396.75 470.13,-392.84 469.85,-399.84"/>
<text text-anchor="middle" x="303.48" y="-391.8" font-family="Times,serif" font-size="14.00">schema.org/keywords</text>
</g>
<!-- &quot;geochemistry&quot; -->
<g id="node4" class="node">
<title>&quot;geochemistry&quot;</title>
<ellipse fill="none" stroke="black" stroke-width="0" cx="569.92" cy="-342" rx="82.59" ry="18"/>
<text text-anchor="middle" x="569.92" y="-338.3" font-family="Times,serif" font-size="14.00">&quot;geochemistry&quot;</text>
</g>
<!-- cooldata.io/id/doc/1&#45;&gt;&quot;geochemistry&quot; -->
<g id="edge3" class="edge">
<title>cooldata.io/id/doc/1&#45;&gt;&quot;geochemistry&quot;</title>
<path fill="none" stroke="black" d="M131.73,-251.32C154.95,-263.97 188.3,-280.5 219.48,-290 305.88,-316.33 408.5,-329.58 480.1,-336.08"/>
<polygon fill="black" stroke="black" points="480.16,-339.6 490.43,-336.99 480.78,-332.62 480.16,-339.6"/>
<text text-anchor="middle" x="303.48" y="-327.8" font-family="Times,serif" font-size="14.00">schema.org/keywords</text>
</g>
<!-- schema.org/Dataset -->
<g id="node5" class="node">
<title>schema.org/Dataset</title>
<ellipse fill="none" stroke="#558855" cx="569.92" cy="-288" rx="103.18" ry="18"/>
<text text-anchor="middle" x="569.92" y="-284.3" font-family="Times,serif" font-size="14.00">schema.org/Dataset</text>
</g>
<!-- cooldata.io/id/doc/1&#45;&gt;schema.org/Dataset -->
<g id="edge4" class="edge">
<title>cooldata.io/id/doc/1&#45;&gt;schema.org/Dataset</title>
<path fill="none" stroke="black" d="M174.18,-246.39C189.14,-248.75 204.8,-251.08 219.48,-253 302.31,-263.82 396.57,-273.09 466.3,-279.36"/>
<polygon fill="black" stroke="black" points="466.14,-282.86 476.41,-280.26 466.76,-275.89 466.14,-282.86"/>
<text text-anchor="middle" x="303.48" y="-274.8" font-family="Times,serif" font-size="14.00">type</text>
</g>
<!-- &quot;Descriptive text of the dataset.&quot; -->
<g id="node6" class="node">
<title>&quot;Descriptive text of the dataset.&quot;</title>
<ellipse fill="none" stroke="black" stroke-width="0" cx="569.92" cy="-234" rx="164.37" ry="18"/>
<text text-anchor="middle" x="569.92" y="-230.3" font-family="Times,serif" font-size="14.00">&quot;Descriptive text of the dataset.&quot;</text>
</g>
<!-- cooldata.io/id/doc/1&#45;&gt;&quot;Descriptive text of the dataset.&quot; -->
<g id="edge5" class="edge">
<title>cooldata.io/id/doc/1&#45;&gt;&quot;Descriptive text of the dataset.&quot;</title>
<path fill="none" stroke="black" d="M201.68,-234C257.91,-234 329.71,-234 394.88,-234"/>
<polygon fill="black" stroke="black" points="395.28,-237.5 405.28,-234 395.28,-230.5 395.28,-237.5"/>
<text text-anchor="middle" x="303.48" y="-237.8" font-family="Times,serif" font-size="14.00">schema.org/description</text>
</g>
<!-- &quot;CC&#45;BY&#45;4.0&quot; -->
<g id="node7" class="node">
<title>&quot;CC&#45;BY&#45;4.0&quot;</title>
<ellipse fill="none" stroke="black" stroke-width="0" cx="569.92" cy="-180" rx="64.99" ry="18"/>
<text text-anchor="middle" x="569.92" y="-176.3" font-family="Times,serif" font-size="14.00">&quot;CC&#45;BY&#45;4.0&quot;</text>
</g>
<!-- cooldata.io/id/doc/1&#45;&gt;&quot;CC&#45;BY&#45;4.0&quot; -->
<g id="edge6" class="edge">
<title>cooldata.io/id/doc/1&#45;&gt;&quot;CC&#45;BY&#45;4.0&quot;</title>
<path fill="none" stroke="black" d="M174.18,-221.61C189.14,-219.25 204.8,-216.92 219.48,-215 315.28,-202.48 426.36,-192.05 497.11,-185.92"/>
<polygon fill="black" stroke="black" points="497.58,-189.39 507.24,-185.05 496.98,-182.42 497.58,-189.39"/>
<text text-anchor="middle" x="303.48" y="-218.8" font-family="Times,serif" font-size="14.00">schema.org/license</text>
</g>
<!-- &quot;Data Set Name one&quot; -->
<g id="node8" class="node">
<title>&quot;Data Set Name one&quot;</title>
<ellipse fill="none" stroke="black" stroke-width="0" cx="569.92" cy="-126" rx="109.68" ry="18"/>
<text text-anchor="middle" x="569.92" y="-122.3" font-family="Times,serif" font-size="14.00">&quot;Data Set Name one&quot;</text>
</g>
<!-- cooldata.io/id/doc/1&#45;&gt;&quot;Data Set Name one&quot; -->
<g id="edge7" class="edge">
<title>cooldata.io/id/doc/1&#45;&gt;&quot;Data Set Name one&quot;</title>
<path fill="none" stroke="black" d="M131.2,-216.6C154.41,-203.67 188,-186.67 219.48,-177 296.99,-153.2 387.67,-140.38 457.23,-133.55"/>
<polygon fill="black" stroke="black" points="457.71,-137.02 467.33,-132.58 457.05,-130.05 457.71,-137.02"/>
<text text-anchor="middle" x="303.48" y="-180.8" font-family="Times,serif" font-size="14.00">schema.org/name</text>
</g>
<!-- &quot;http//foo.org/data/distribution&quot; -->
<g id="node9" class="node">
<title>&quot;http//foo.org/data/distribution&quot;</title>
<ellipse fill="none" stroke="black" stroke-width="0" cx="569.92" cy="-72" rx="158.67" ry="18"/>
<text text-anchor="middle" x="569.92" y="-68.3" font-family="Times,serif" font-size="14.00">&quot;http//foo.org/data/distribution&quot;</text>
</g>
<!-- cooldata.io/id/doc/1&#45;&gt;&quot;http//foo.org/data/distribution&quot; -->
<g id="edge8" class="edge">
<title>cooldata.io/id/doc/1&#45;&gt;&quot;http//foo.org/data/distribution&quot;</title>
<path fill="none" stroke="black" d="M115,-215.86C134.68,-190.44 174.21,-144.89 219.48,-123 275.82,-95.76 342.78,-82.13 402.94,-75.59"/>
<polygon fill="black" stroke="black" points="403.33,-79.07 412.92,-74.57 402.61,-72.11 403.33,-79.07"/>
<text text-anchor="middle" x="303.48" y="-126.8" font-family="Times,serif" font-size="14.00">schema.org/url</text>
</g>
<!-- &quot;version&quot; -->
<g id="node10" class="node">
<title>&quot;version&quot;</title>
<ellipse fill="none" stroke="black" stroke-width="0" cx="569.92" cy="-18" rx="53.89" ry="18"/>
<text text-anchor="middle" x="569.92" y="-14.3" font-family="Times,serif" font-size="14.00">&quot;version&quot;</text>
</g>
<!-- cooldata.io/id/doc/1&#45;&gt;&quot;version&quot; -->
<g id="edge9" class="edge">
<title>cooldata.io/id/doc/1&#45;&gt;&quot;version&quot;</title>
<path fill="none" stroke="black" d="M107.87,-215.99C121.44,-179.18 157.81,-95.61 219.48,-58 309.11,-3.35 435.94,-4.06 509.59,-10.42"/>
<polygon fill="black" stroke="black" points="509.34,-13.91 519.62,-11.35 509.99,-6.94 509.34,-13.91"/>
<text text-anchor="middle" x="303.48" y="-61.8" font-family="Times,serif" font-size="14.00">schema.org/version</text>
</g>
</g>
</svg>
