<?xml version="1.0" encoding="UTF-8" standalone="no"?>
<!DOCTYPE svg PUBLIC "-//W3C//DTD SVG 1.1//EN"
 "http://www.w3.org/Graphics/SVG/1.1/DTD/svg11.dtd">
<!-- Generated by graphviz version 2.40.1 (20161225.0304)
 -->
<!-- Title: %3 Pages: 1 -->
<svg width="555pt" height="206pt"
 viewBox="0.00 0.00 554.77 206.00" xmlns="http://www.w3.org/2000/svg" xmlns:xlink="http://www.w3.org/1999/xlink">
<g id="graph0" class="graph" transform="scale(1 1) rotate(0) translate(4 202)">
<title>%3</title>
<polygon fill="#ffffff" stroke="transparent" points="-4,4 -4,-202 550.7659,-202 550.7659,4 -4,4"/>
<!-- &quot;Earth System Modeling&quot; -->
<g id="node1" class="node">
<title>&quot;Earth System Modeling&quot;</title>
<ellipse fill="none" stroke="#000000" stroke-width="0" cx="439.5254" cy="-180" rx="107.4815" ry="18"/>
<text text-anchor="middle" x="439.5254" y="-176.3" font-family="Times,serif" font-size="14.00" fill="#000000">&quot;Earth System Modeling&quot;</text>
</g>
<!-- cooldata.io/id/doc/1 -->
<g id="node2" class="node">
<title>cooldata.io/id/doc/1</title>
<ellipse fill="none" stroke="#000000" cx="85.1424" cy="-99" rx="85.2851" ry="18"/>
<text text-anchor="middle" x="85.1424" y="-95.3" font-family="Times,serif" font-size="14.00" fill="#000000">cooldata.io/id/doc/1</text>
</g>
<!-- cooldata.io/id/doc/1&#45;&gt;&quot;Earth System Modeling&quot; -->
<g id="edge1" class="edge">
<title>cooldata.io/id/doc/1&#45;&gt;&quot;Earth System Modeling&quot;</title>
<path fill="none" stroke="#000000" d="M126.8753,-114.7104C145.4819,-121.3112 167.7863,-128.6759 188.2849,-134 240.6752,-147.6073 300.2262,-158.6967 348.1974,-166.5755"/>
<polygon fill="#000000" stroke="#000000" points="347.8197,-170.06 358.2514,-168.2078 348.9416,-163.1505 347.8197,-170.06"/>
<text text-anchor="middle" x="251.2849" y="-163.8" font-family="Times,serif" font-size="14.00" fill="#000000">schema.org/keywords</text>
</g>
<!-- &quot;climate change&quot; -->
<g id="node3" class="node">
<title>&quot;climate change&quot;</title>
<ellipse fill="none" stroke="#000000" stroke-width="0" cx="439.5254" cy="-126" rx="73.387" ry="18"/>
<text text-anchor="middle" x="439.5254" y="-122.3" font-family="Times,serif" font-size="14.00" fill="#000000">&quot;climate change&quot;</text>
</g>
<!-- cooldata.io/id/doc/1&#45;&gt;&quot;climate change&quot; -->
<g id="edge2" class="edge">
<title>cooldata.io/id/doc/1&#45;&gt;&quot;climate change&quot;</title>
<path fill="none" stroke="#000000" d="M165.5574,-105.1267C223.448,-109.5373 301.2192,-115.4626 359.11,-119.8732"/>
<polygon fill="#000000" stroke="#000000" points="359.0768,-123.3808 369.3139,-120.6507 359.6087,-116.401 359.0768,-123.3808"/>
<text text-anchor="middle" x="251.2849" y="-118.8" font-family="Times,serif" font-size="14.00" fill="#000000">schema.org/keywords</text>
</g>
<!-- &quot;geochemistry&quot; -->
<g id="node4" class="node">
<title>&quot;geochemistry&quot;</title>
<ellipse fill="none" stroke="#000000" stroke-width="0" cx="439.5254" cy="-72" rx="68.4888" ry="18"/>
<text text-anchor="middle" x="439.5254" y="-68.3" font-family="Times,serif" font-size="14.00" fill="#000000">&quot;geochemistry&quot;</text>
</g>
<!-- cooldata.io/id/doc/1&#45;&gt;&quot;geochemistry&quot; -->
<g id="edge3" class="edge">
<title>cooldata.io/id/doc/1&#45;&gt;&quot;geochemistry&quot;</title>
<path fill="none" stroke="#000000" d="M158.8984,-89.9092C168.7694,-88.842 178.7671,-87.8371 188.2849,-87 246.4159,-81.8872 312.27,-78.0266 361.9691,-75.5032"/>
<polygon fill="#000000" stroke="#000000" points="362.1907,-78.9966 372.0031,-75.0008 361.8406,-72.0054 362.1907,-78.9966"/>
<text text-anchor="middle" x="251.2849" y="-90.8" font-family="Times,serif" font-size="14.00" fill="#000000">schema.org/keywords</text>
</g>
<!-- schema.org/Dataset -->
<g id="node5" class="node">
<title>schema.org/Dataset</title>
<ellipse fill="none" stroke="#558855" cx="439.5254" cy="-18" rx="82.5854" ry="18"/>
<text text-anchor="middle" x="439.5254" y="-14.3" font-family="Times,serif" font-size="14.00" fill="#000000">schema.org/Dataset</text>
</g>
<!-- cooldata.io/id/doc/1&#45;&gt;schema.org/Dataset -->
<g id="edge4" class="edge">
<title>cooldata.io/id/doc/1&#45;&gt;schema.org/Dataset</title>
<path fill="none" stroke="#000000" d="M121.7541,-82.6551C141.192,-74.5294 165.6767,-65.1564 188.2849,-59 243.0394,-44.09 306.0737,-33.8223 355.3067,-27.2909"/>
<polygon fill="#000000" stroke="#000000" points="355.8135,-30.7546 365.2785,-25.9939 354.9106,-23.8131 355.8135,-30.7546"/>
<text text-anchor="middle" x="251.2849" y="-62.8" font-family="Times,serif" font-size="14.00" fill="#000000">type</text>
</g>
</g>
</svg>
