<?xml version="1.0" encoding="UTF-8" standalone="no"?>
<!DOCTYPE svg PUBLIC "-//W3C//DTD SVG 1.1//EN"
 "http://www.w3.org/Graphics/SVG/1.1/DTD/svg11.dtd">
<!-- Generated by graphviz version 2.40.1 (20161225.0304)
 -->
<!-- Title: %3 Pages: 1 -->
<svg width="607pt" height="476pt"
 viewBox="0.00 0.00 607.26 476.00" xmlns="http://www.w3.org/2000/svg" xmlns:xlink="http://www.w3.org/1999/xlink">
<g id="graph0" class="graph" transform="scale(1 1) rotate(0) translate(4 472)">
<title>%3</title>
<polygon fill="#ffffff" stroke="transparent" points="-4,4 -4,-472 603.2618,-472 603.2618,4 -4,4"/>
<!-- &quot;Earth System Modeling&quot; -->
<g id="node1" class="node">
<title>&quot;Earth System Modeling&quot;</title>
<ellipse fill="none" stroke="#000000" stroke-width="0" cx="469.2734" cy="-450" rx="107.4815" ry="18"/>
<text text-anchor="middle" x="469.2734" y="-446.3" font-family="Times,serif" font-size="14.00" fill="#000000">&quot;Earth System Modeling&quot;</text>
</g>
<!-- cooldata.io/id/doc/1 -->
<g id="node2" class="node">
<title>cooldata.io/id/doc/1</title>
<ellipse fill="none" stroke="#000000" cx="85.1424" cy="-234" rx="85.2851" ry="18"/>
<text text-anchor="middle" x="85.1424" y="-230.3" font-family="Times,serif" font-size="14.00" fill="#000000">cooldata.io/id/doc/1</text>
</g>
<!-- cooldata.io/id/doc/1&#45;&gt;&quot;Earth System Modeling&quot; -->
<g id="edge1" class="edge">
<title>cooldata.io/id/doc/1&#45;&gt;&quot;Earth System Modeling&quot;</title>
<path fill="none" stroke="#000000" d="M90.5936,-251.9716C102.2539,-287.1042 133.1456,-364.7055 188.2849,-402 236.138,-434.3664 298.7757,-447.1957 352.7645,-451.5755"/>
<polygon fill="#000000" stroke="#000000" points="352.5125,-455.0664 362.7392,-452.2978 353.0181,-448.0846 352.5125,-455.0664"/>
<text text-anchor="middle" x="254.7849" y="-450.8" font-family="Times,serif" font-size="14.00" fill="#000000">schema.org/keywords</text>
</g>
<!-- &quot;climate change&quot; -->
<g id="node3" class="node">
<title>&quot;climate change&quot;</title>
<ellipse fill="none" stroke="#000000" stroke-width="0" cx="469.2734" cy="-396" rx="73.387" ry="18"/>
<text text-anchor="middle" x="469.2734" y="-392.3" font-family="Times,serif" font-size="14.00" fill="#000000">&quot;climate change&quot;</text>
</g>
<!-- cooldata.io/id/doc/1&#45;&gt;&quot;climate change&quot; -->
<g id="edge2" class="edge">
<title>cooldata.io/id/doc/1&#45;&gt;&quot;climate change&quot;</title>
<path fill="none" stroke="#000000" d="M97.1393,-251.8522C114.3337,-275.9315 148.3543,-318.2951 188.2849,-340 249.508,-373.2787 327.8684,-386.9051 386.2769,-392.4221"/>
<polygon fill="#000000" stroke="#000000" points="386.3049,-395.9381 396.5739,-393.3306 386.9202,-388.9651 386.3049,-395.9381"/>
<text text-anchor="middle" x="254.7849" y="-386.8" font-family="Times,serif" font-size="14.00" fill="#000000">schema.org/keywords</text>
</g>
<!-- &quot;geochemistry&quot; -->
<g id="node4" class="node">
<title>&quot;geochemistry&quot;</title>
<ellipse fill="none" stroke="#000000" stroke-width="0" cx="469.2734" cy="-342" rx="68.4888" ry="18"/>
<text text-anchor="middle" x="469.2734" y="-338.3" font-family="Times,serif" font-size="14.00" fill="#000000">&quot;geochemistry&quot;</text>
</g>
<!-- cooldata.io/id/doc/1&#45;&gt;&quot;geochemistry&quot; -->
<g id="edge3" class="edge">
<title>cooldata.io/id/doc/1&#45;&gt;&quot;geochemistry&quot;</title>
<path fill="none" stroke="#000000" d="M112.114,-251.319C132.3388,-263.5634 161.1001,-279.44 188.2849,-289 256.3205,-312.9258 337.6278,-326.7647 395.2333,-334.2599"/>
<polygon fill="#000000" stroke="#000000" points="394.9843,-337.7563 405.3451,-335.5422 395.8649,-330.8119 394.9843,-337.7563"/>
<text text-anchor="middle" x="254.7849" y="-324.8" font-family="Times,serif" font-size="14.00" fill="#000000">schema.org/keywords</text>
</g>
<!-- schema.org/Dataset -->
<g id="node5" class="node">
<title>schema.org/Dataset</title>
<ellipse fill="none" stroke="#558855" cx="469.2734" cy="-288" rx="82.5854" ry="18"/>
<text text-anchor="middle" x="469.2734" y="-284.3" font-family="Times,serif" font-size="14.00" fill="#000000">schema.org/Dataset</text>
</g>
<!-- cooldata.io/id/doc/1&#45;&gt;schema.org/Dataset -->
<g id="edge4" class="edge">
<title>cooldata.io/id/doc/1&#45;&gt;schema.org/Dataset</title>
<path fill="none" stroke="#000000" d="M148.0434,-246.1895C161.3091,-248.5911 175.2384,-250.9876 188.2849,-253 254.1481,-263.1595 329.0497,-272.3737 384.9485,-278.795"/>
<polygon fill="#000000" stroke="#000000" points="384.8258,-282.3036 395.1584,-279.961 385.6202,-275.3488 384.8258,-282.3036"/>
<text text-anchor="middle" x="254.7849" y="-273.8" font-family="Times,serif" font-size="14.00" fill="#000000">type</text>
</g>
<!-- &quot;Descriptive text of the dataset.&quot; -->
<g id="node6" class="node">
<title>&quot;Descriptive text of the dataset.&quot;</title>
<ellipse fill="none" stroke="#000000" stroke-width="0" cx="469.2734" cy="-234" rx="129.9769" ry="18"/>
<text text-anchor="middle" x="469.2734" y="-230.3" font-family="Times,serif" font-size="14.00" fill="#000000">&quot;Descriptive text of the dataset.&quot;</text>
</g>
<!-- cooldata.io/id/doc/1&#45;&gt;&quot;Descriptive text of the dataset.&quot; -->
<g id="edge5" class="edge">
<title>cooldata.io/id/doc/1&#45;&gt;&quot;Descriptive text of the dataset.&quot;</title>
<path fill="none" stroke="#000000" d="M170.3935,-234C216.9068,-234 275.6749,-234 328.7666,-234"/>
<polygon fill="#000000" stroke="#000000" points="328.9562,-237.5001 338.9562,-234 328.9562,-230.5001 328.9562,-237.5001"/>
<text text-anchor="middle" x="254.7849" y="-237.8" font-family="Times,serif" font-size="14.00" fill="#000000">schema.org/description</text>
</g>
<!-- &quot;CC&#45;BY&#45;4.0&quot; -->
<g id="node7" class="node">
<title>&quot;CC&#45;BY&#45;4.0&quot;</title>
<ellipse fill="none" stroke="#000000" stroke-width="0" cx="469.2734" cy="-180" rx="61.99" ry="18"/>
<text text-anchor="middle" x="469.2734" y="-176.3" font-family="Times,serif" font-size="14.00" fill="#000000">&quot;CC&#45;BY&#45;4.0&quot;</text>
</g>
<!-- cooldata.io/id/doc/1&#45;&gt;&quot;CC&#45;BY&#45;4.0&quot; -->
<g id="edge6" class="edge">
<title>cooldata.io/id/doc/1&#45;&gt;&quot;CC&#45;BY&#45;4.0&quot;</title>
<path fill="none" stroke="#000000" d="M148.0434,-221.8105C161.3091,-219.4089 175.2384,-217.0124 188.2849,-215 260.8159,-203.812 344.3082,-193.7703 401.3124,-187.3426"/>
<polygon fill="#000000" stroke="#000000" points="401.7379,-190.8169 411.2856,-186.2245 400.9579,-183.8605 401.7379,-190.8169"/>
<text text-anchor="middle" x="254.7849" y="-218.8" font-family="Times,serif" font-size="14.00" fill="#000000">schema.org/license</text>
</g>
<!-- &quot;Data Set Name one&quot; -->
<g id="node8" class="node">
<title>&quot;Data Set Name one&quot;</title>
<ellipse fill="none" stroke="#000000" stroke-width="0" cx="469.2734" cy="-126" rx="90.1842" ry="18"/>
<text text-anchor="middle" x="469.2734" y="-122.3" font-family="Times,serif" font-size="14.00" fill="#000000">&quot;Data Set Name one&quot;</text>
</g>
<!-- cooldata.io/id/doc/1&#45;&gt;&quot;Data Set Name one&quot; -->
<g id="edge7" class="edge">
<title>cooldata.io/id/doc/1&#45;&gt;&quot;Data Set Name one&quot;</title>
<path fill="none" stroke="#000000" d="M111.2118,-216.8445C131.4479,-204.2853 160.6254,-187.7903 188.2849,-178 249.8133,-156.2214 322.3119,-143.0939 378.2554,-135.4775"/>
<polygon fill="#000000" stroke="#000000" points="379.0491,-138.903 388.5022,-134.1187 378.1289,-131.9637 379.0491,-138.903"/>
<text text-anchor="middle" x="254.7849" y="-181.8" font-family="Times,serif" font-size="14.00" fill="#000000">schema.org/name</text>
</g>
<!-- &quot;http//foo.org/data/distribution&quot; -->
<g id="node9" class="node">
<title>&quot;http//foo.org/data/distribution&quot;</title>
<ellipse fill="none" stroke="#000000" stroke-width="0" cx="469.2734" cy="-72" rx="128.8774" ry="18"/>
<text text-anchor="middle" x="469.2734" y="-68.3" font-family="Times,serif" font-size="14.00" fill="#000000">&quot;http//foo.org/data/distribution&quot;</text>
</g>
<!-- cooldata.io/id/doc/1&#45;&gt;&quot;http//foo.org/data/distribution&quot; -->
<g id="edge8" class="edge">
<title>cooldata.io/id/doc/1&#45;&gt;&quot;http//foo.org/data/distribution&quot;</title>
<path fill="none" stroke="#000000" d="M97.036,-215.7687C114.1106,-191.1859 147.9928,-147.9663 188.2849,-126 234.1892,-100.9741 289.8429,-87.3985 339.4705,-80.0881"/>
<polygon fill="#000000" stroke="#000000" points="340.2186,-83.5176 349.6366,-78.6647 339.2479,-76.5852 340.2186,-83.5176"/>
<text text-anchor="middle" x="254.7849" y="-129.8" font-family="Times,serif" font-size="14.00" fill="#000000">schema.org/url</text>
</g>
<!-- &quot;version&quot; -->
<g id="node10" class="node">
<title>&quot;version&quot;</title>
<ellipse fill="none" stroke="#000000" stroke-width="0" cx="469.2734" cy="-18" rx="46.2923" ry="18"/>
<text text-anchor="middle" x="469.2734" y="-14.3" font-family="Times,serif" font-size="14.00" fill="#000000">&quot;version&quot;</text>
</g>
<!-- cooldata.io/id/doc/1&#45;&gt;&quot;version&quot; -->
<g id="edge9" class="edge">
<title>cooldata.io/id/doc/1&#45;&gt;&quot;version&quot;</title>
<path fill="none" stroke="#000000" d="M90.5055,-215.7855C102.0094,-180.1833 132.6369,-101.5713 188.2849,-64 255.9625,-18.3069 353.2993,-12.4299 413.8374,-14.0098"/>
<polygon fill="#000000" stroke="#000000" points="413.8489,-17.5121 423.9616,-14.3526 414.0858,-10.5161 413.8489,-17.5121"/>
<text text-anchor="middle" x="254.7849" y="-67.8" font-family="Times,serif" font-size="14.00" fill="#000000">schema.org/version</text>
</g>
</g>
</svg>
