<?xml version="1.0" encoding="UTF-8" standalone="no"?>
<!DOCTYPE svg PUBLIC "-//W3C//DTD SVG 1.1//EN"
 "http://www.w3.org/Graphics/SVG/1.1/DTD/svg11.dtd">
<!-- Generated by graphviz version 2.49.0 (20210829.0051)
 -->
<!-- Pages: 1 -->
<svg width="1953pt" height="502pt"
 viewBox="0.00 0.00 1952.67 502.00" xmlns="http://www.w3.org/2000/svg" xmlns:xlink="http://www.w3.org/1999/xlink">
<g id="graph0" class="graph" transform="scale(1 1) rotate(0) translate(4 498)">
<polygon fill="white" stroke="transparent" points="-4,4 -4,-498 1948.67,-498 1948.67,4 -4,4"/>
<!-- Person -->
<g id="node1" class="node">
<title>Person</title>
<ellipse fill="none" stroke="#558855" cx="1424.06" cy="-331" rx="42.49" ry="18"/>
<text text-anchor="middle" x="1424.06" y="-327.3" font-family="Times,serif" font-size="14.00">Person</text>
</g>
<!-- example.org/id/course/1/attende/1 -->
<g id="node2" class="node">
<title>example.org/id/course/1/attende/1</title>
<ellipse fill="none" stroke="#558855" cx="989.49" cy="-196" rx="169.77" ry="18"/>
<text text-anchor="middle" x="989.49" y="-192.3" font-family="Times,serif" font-size="14.00">example.org/id/course/1/attende/1</text>
</g>
<!-- example.org/id/course/1/attende/1&#45;&gt;Person -->
<g id="edge1" class="edge">
<title>example.org/id/course/1/attende/1&#45;&gt;Person</title>
<path fill="none" stroke="black" d="M1118.41,-207.88C1133.04,-212.94 1147.01,-219.79 1159.12,-229 1173.36,-239.83 1164.16,-252.68 1177.12,-265 1208.42,-294.75 1224.76,-291.58 1266.12,-304 1300.97,-314.46 1341.47,-321.31 1372.6,-325.48"/>
<polygon fill="black" stroke="black" points="1372.41,-328.99 1382.78,-326.8 1373.31,-322.05 1372.41,-328.99"/>
<text text-anchor="middle" x="1212.62" y="-302.8" font-family="Times,serif" font-size="14.00">type</text>
</g>
<!-- orcid.org/0000&#45;0000&#45;0000&#45;0000 -->
<g id="node3" class="node">
<title>orcid.org/0000&#45;0000&#45;0000&#45;0000</title>
<ellipse fill="none" stroke="#558855" cx="1424.06" cy="-277" rx="157.87" ry="18"/>
<text text-anchor="middle" x="1424.06" y="-273.3" font-family="Times,serif" font-size="14.00">orcid.org/0000&#45;0000&#45;0000&#45;0000</text>
</g>
<!-- example.org/id/course/1/attende/1&#45;&gt;orcid.org/0000&#45;0000&#45;0000&#45;0000 -->
<g id="edge2" class="edge">
<title>example.org/id/course/1/attende/1&#45;&gt;orcid.org/0000&#45;0000&#45;0000&#45;0000</title>
<path fill="none" stroke="black" d="M1071.55,-211.85C1099.32,-217.29 1130.58,-223.41 1159.12,-229 1206.68,-238.32 1218.46,-241.22 1266.12,-250 1284.99,-253.47 1305.17,-257.05 1324.55,-260.42"/>
<polygon fill="black" stroke="black" points="1324.15,-263.9 1334.6,-262.15 1325.34,-257 1324.15,-263.9"/>
<text text-anchor="middle" x="1212.62" y="-249.8" font-family="Times,serif" font-size="14.00">identifier</text>
</g>
<!-- &quot;Professor&quot; -->
<g id="node4" class="node">
<title>&quot;Professor&quot;</title>
<ellipse fill="none" stroke="black" stroke-width="0" cx="1424.06" cy="-223" rx="63.89" ry="18"/>
<text text-anchor="middle" x="1424.06" y="-219.3" font-family="Times,serif" font-size="14.00">&quot;Professor&quot;</text>
</g>
<!-- example.org/id/course/1/attende/1&#45;&gt;&quot;Professor&quot; -->
<g id="edge3" class="edge">
<title>example.org/id/course/1/attende/1&#45;&gt;&quot;Professor&quot;</title>
<path fill="none" stroke="black" d="M1136.03,-205.08C1208.6,-209.61 1293.1,-214.89 1351.53,-218.54"/>
<polygon fill="black" stroke="black" points="1351.57,-222.04 1361.77,-219.17 1352.01,-215.06 1351.57,-222.04"/>
<text text-anchor="middle" x="1212.62" y="-214.8" font-family="Times,serif" font-size="14.00">jobTitle</text>
</g>
<!-- &quot;Jane Doe&quot; -->
<g id="node5" class="node">
<title>&quot;Jane Doe&quot;</title>
<ellipse fill="none" stroke="black" stroke-width="0" cx="1424.06" cy="-169" rx="60.39" ry="18"/>
<text text-anchor="middle" x="1424.06" y="-165.3" font-family="Times,serif" font-size="14.00">&quot;Jane Doe&quot;</text>
</g>
<!-- example.org/id/course/1/attende/1&#45;&gt;&quot;Jane Doe&quot; -->
<g id="edge4" class="edge">
<title>example.org/id/course/1/attende/1&#45;&gt;&quot;Jane Doe&quot;</title>
<path fill="none" stroke="black" d="M1136.03,-186.92C1209.87,-182.31 1296.07,-176.93 1354.59,-173.27"/>
<polygon fill="black" stroke="black" points="1355.06,-176.75 1364.82,-172.64 1354.62,-169.77 1355.06,-176.75"/>
<text text-anchor="middle" x="1212.62" y="-187.8" font-family="Times,serif" font-size="14.00">name</text>
</g>
<!-- &quot;(425) 123&#45;4567&quot; -->
<g id="node6" class="node">
<title>&quot;(425) 123&#45;4567&quot;</title>
<ellipse fill="none" stroke="black" stroke-width="0" cx="1424.06" cy="-115" rx="90.98" ry="18"/>
<text text-anchor="middle" x="1424.06" y="-111.3" font-family="Times,serif" font-size="14.00">&quot;(425) 123&#45;4567&quot;</text>
</g>
<!-- example.org/id/course/1/attende/1&#45;&gt;&quot;(425) 123&#45;4567&quot; -->
<g id="edge5" class="edge">
<title>example.org/id/course/1/attende/1&#45;&gt;&quot;(425) 123&#45;4567&quot;</title>
<path fill="none" stroke="black" d="M1101.63,-182.41C1120.99,-178.85 1140.79,-174.44 1159.12,-169 1167.52,-166.51 1168.8,-163.71 1177.12,-161 1215.59,-148.5 1226.41,-149.65 1266.12,-142 1291.18,-137.17 1318.56,-132.32 1343.34,-128.08"/>
<polygon fill="black" stroke="black" points="1344.15,-131.49 1353.42,-126.37 1342.98,-124.59 1344.15,-131.49"/>
<text text-anchor="middle" x="1212.62" y="-164.8" font-family="Times,serif" font-size="14.00">telephone</text>
</g>
<!-- &quot;http//www.janedoe.co...&quot; -->
<g id="node7" class="node">
<title>&quot;http//www.janedoe.co...&quot;</title>
<ellipse fill="none" stroke="black" stroke-width="0" cx="1424.06" cy="-61" rx="128.08" ry="18"/>
<text text-anchor="middle" x="1424.06" y="-57.3" font-family="Times,serif" font-size="14.00">&quot;http//www.janedoe.co...&quot;</text>
</g>
<!-- example.org/id/course/1/attende/1&#45;&gt;&quot;http//www.janedoe.co...&quot; -->
<g id="edge6" class="edge">
<title>example.org/id/course/1/attende/1&#45;&gt;&quot;http//www.janedoe.co...&quot;</title>
<path fill="none" stroke="black" d="M1129.82,-185.76C1140.33,-181.46 1150.27,-175.97 1159.12,-169 1175.41,-156.19 1162.53,-140.7 1177.12,-126 1207.43,-95.48 1224.87,-100.17 1266.12,-88 1283.35,-82.92 1301.94,-78.67 1320.09,-75.17"/>
<polygon fill="black" stroke="black" points="1320.93,-78.58 1330.12,-73.3 1319.65,-71.7 1320.93,-78.58"/>
<text text-anchor="middle" x="1212.62" y="-129.8" font-family="Times,serif" font-size="14.00">url</text>
</g>
<!-- PropertyValue -->
<g id="node22" class="node">
<title>PropertyValue</title>
<ellipse fill="none" stroke="#558855" cx="1821.83" cy="-358" rx="77.19" ry="18"/>
<text text-anchor="middle" x="1821.83" y="-354.3" font-family="Times,serif" font-size="14.00">PropertyValue</text>
</g>
<!-- orcid.org/0000&#45;0000&#45;0000&#45;0000&#45;&gt;PropertyValue -->
<g id="edge23" class="edge">
<title>orcid.org/0000&#45;0000&#45;0000&#45;0000&#45;&gt;PropertyValue</title>
<path fill="none" stroke="black" d="M1526.81,-290.71C1545.36,-294.28 1564.4,-298.67 1582,-304 1590.37,-306.54 1591.66,-309.31 1600,-312 1647.72,-327.38 1702.94,-338.88 1746.23,-346.54"/>
<polygon fill="black" stroke="black" points="1745.66,-349.99 1756.12,-348.26 1746.86,-343.1 1745.66,-349.99"/>
<text text-anchor="middle" x="1640.5" y="-335.8" font-family="Times,serif" font-size="14.00">type</text>
</g>
<!-- &quot;Optional description...&quot; -->
<g id="node23" class="node">
<title>&quot;Optional description...&quot;</title>
<ellipse fill="none" stroke="black" stroke-width="0" cx="1821.83" cy="-304" rx="122.68" ry="18"/>
<text text-anchor="middle" x="1821.83" y="-300.3" font-family="Times,serif" font-size="14.00">&quot;Optional description...&quot;</text>
</g>
<!-- orcid.org/0000&#45;0000&#45;0000&#45;0000&#45;&gt;&quot;Optional description...&quot; -->
<g id="edge24" class="edge">
<title>orcid.org/0000&#45;0000&#45;0000&#45;0000&#45;&gt;&quot;Optional description...&quot;</title>
<path fill="none" stroke="black" d="M1559.88,-286.2C1605.29,-289.3 1655.65,-292.73 1699.92,-295.75"/>
<polygon fill="black" stroke="black" points="1699.93,-299.26 1710.15,-296.45 1700.41,-292.28 1699.93,-299.26"/>
<text text-anchor="middle" x="1640.5" y="-296.8" font-family="Times,serif" font-size="14.00">description</text>
</g>
<!-- &quot;0000&#45;0002&#45;2257&#45;9127&quot; -->
<g id="node24" class="node">
<title>&quot;0000&#45;0002&#45;2257&#45;9127&quot;</title>
<ellipse fill="none" stroke="black" stroke-width="0" cx="1821.83" cy="-250" rx="122.38" ry="18"/>
<text text-anchor="middle" x="1821.83" y="-246.3" font-family="Times,serif" font-size="14.00">&quot;0000&#45;0002&#45;2257&#45;9127&quot;</text>
</g>
<!-- orcid.org/0000&#45;0000&#45;0000&#45;0000&#45;&gt;&quot;0000&#45;0002&#45;2257&#45;9127&quot; -->
<g id="edge25" class="edge">
<title>orcid.org/0000&#45;0000&#45;0000&#45;0000&#45;&gt;&quot;0000&#45;0002&#45;2257&#45;9127&quot;</title>
<path fill="none" stroke="black" d="M1559.88,-267.8C1605.39,-264.7 1655.88,-261.25 1700.22,-258.23"/>
<polygon fill="black" stroke="black" points="1700.73,-261.7 1710.47,-257.53 1700.25,-254.72 1700.73,-261.7"/>
<text text-anchor="middle" x="1640.5" y="-267.8" font-family="Times,serif" font-size="14.00">propertyID</text>
</g>
<!-- &quot;https//orcid.org/000...&quot; -->
<g id="node25" class="node">
<title>&quot;https//orcid.org/000...&quot;</title>
<ellipse fill="none" stroke="black" stroke-width="0" cx="1821.83" cy="-196" rx="120.78" ry="18"/>
<text text-anchor="middle" x="1821.83" y="-192.3" font-family="Times,serif" font-size="14.00">&quot;https//orcid.org/000...&quot;</text>
</g>
<!-- orcid.org/0000&#45;0000&#45;0000&#45;0000&#45;&gt;&quot;https//orcid.org/000...&quot; -->
<g id="edge26" class="edge">
<title>orcid.org/0000&#45;0000&#45;0000&#45;0000&#45;&gt;&quot;https//orcid.org/000...&quot;</title>
<path fill="none" stroke="black" d="M1529.1,-263.53C1546.97,-259.96 1565.18,-255.52 1582,-250 1590.49,-247.21 1591.54,-243.92 1600,-241 1639.47,-227.38 1684.4,-217.29 1723.39,-210.16"/>
<polygon fill="black" stroke="black" points="1724.47,-213.53 1733.69,-208.32 1723.23,-206.64 1724.47,-213.53"/>
<text text-anchor="middle" x="1640.5" y="-244.8" font-family="Times,serif" font-size="14.00">url</text>
</g>
<!-- CourseInstance -->
<g id="node8" class="node">
<title>CourseInstance</title>
<ellipse fill="none" stroke="#558855" cx="989.49" cy="-313" rx="83.39" ry="18"/>
<text text-anchor="middle" x="989.49" y="-309.3" font-family="Times,serif" font-size="14.00">CourseInstance</text>
</g>
<!-- example.org/id/course/1 -->
<g id="node9" class="node">
<title>example.org/id/course/1</title>
<ellipse fill="none" stroke="#558855" cx="573.66" cy="-180" rx="122.38" ry="18"/>
<text text-anchor="middle" x="573.66" y="-176.3" font-family="Times,serif" font-size="14.00">example.org/id/course/1</text>
</g>
<!-- example.org/id/course/1&#45;&gt;example.org/id/course/1/attende/1 -->
<g id="edge8" class="edge">
<title>example.org/id/course/1&#45;&gt;example.org/id/course/1/attende/1</title>
<path fill="none" stroke="black" d="M695.85,-178.83C730.13,-178.97 767.47,-179.54 801.85,-181 817.39,-181.66 833.63,-182.59 849.77,-183.68"/>
<polygon fill="black" stroke="black" points="849.59,-187.17 859.81,-184.37 850.07,-180.19 849.59,-187.17"/>
<text text-anchor="middle" x="757.85" y="-184.8" font-family="Times,serif" font-size="14.00">attendee</text>
</g>
<!-- example.org/id/course/1&#45;&gt;CourseInstance -->
<g id="edge7" class="edge">
<title>example.org/id/course/1&#45;&gt;CourseInstance</title>
<path fill="none" stroke="black" d="M618.12,-196.85C679.2,-220.61 784.91,-262.08 801.85,-271 810.36,-275.48 810.93,-279.42 819.85,-283 845.67,-293.37 875.13,-300.17 902.14,-304.62"/>
<polygon fill="black" stroke="black" points="901.93,-308.13 912.35,-306.21 903.01,-301.21 901.93,-308.13"/>
<text text-anchor="middle" x="757.85" y="-274.8" font-family="Times,serif" font-size="14.00">type</text>
</g>
<!-- &quot;MOOC1&quot; -->
<g id="node10" class="node">
<title>&quot;MOOC1&quot;</title>
<ellipse fill="none" stroke="black" stroke-width="0" cx="989.49" cy="-34" rx="55.79" ry="18"/>
<text text-anchor="middle" x="989.49" y="-30.3" font-family="Times,serif" font-size="14.00">&quot;MOOC1&quot;</text>
</g>
<!-- example.org/id/course/1&#45;&gt;&quot;MOOC1&quot; -->
<g id="edge9" class="edge">
<title>example.org/id/course/1&#45;&gt;&quot;MOOC1&quot;</title>
<path fill="none" stroke="black" d="M671.48,-169.14C680.47,-165.11 688.83,-159.85 695.85,-153 719.48,-129.98 689.86,-103.63 713.85,-81 770.77,-27.32 865.4,-22.71 927.36,-26.59"/>
<polygon fill="black" stroke="black" points="927.17,-30.09 937.4,-27.31 927.67,-23.1 927.17,-30.09"/>
<text text-anchor="middle" x="757.85" y="-84.8" font-family="Times,serif" font-size="14.00">courseMode</text>
</g>
<!-- &quot;online&quot; -->
<g id="node11" class="node">
<title>&quot;online&quot;</title>
<ellipse fill="none" stroke="black" stroke-width="0" cx="989.49" cy="-256" rx="48.19" ry="18"/>
<text text-anchor="middle" x="989.49" y="-252.3" font-family="Times,serif" font-size="14.00">&quot;online&quot;</text>
</g>
<!-- example.org/id/course/1&#45;&gt;&quot;online&quot; -->
<g id="edge10" class="edge">
<title>example.org/id/course/1&#45;&gt;&quot;online&quot;</title>
<path fill="none" stroke="black" d="M657.13,-193.16C700.33,-200.31 754.05,-209.59 801.85,-219 809.89,-220.58 811.83,-221.32 819.85,-223 858.76,-231.13 902.84,-239.73 936.17,-246.12"/>
<polygon fill="black" stroke="black" points="935.67,-249.59 946.15,-248.02 936.99,-242.71 935.67,-249.59"/>
<text text-anchor="middle" x="757.85" y="-222.8" font-family="Times,serif" font-size="14.00">courseMode</text>
</g>
<!-- &quot;2019&#45;03&#45;21&quot; -->
<g id="node12" class="node">
<title>&quot;2019&#45;03&#45;21&quot;</title>
<ellipse fill="none" stroke="black" stroke-width="0" cx="989.49" cy="-142" rx="72.29" ry="18"/>
<text text-anchor="middle" x="989.49" y="-138.3" font-family="Times,serif" font-size="14.00">&quot;2019&#45;03&#45;21&quot;</text>
</g>
<!-- example.org/id/course/1&#45;&gt;&quot;2019&#45;03&#45;21&quot; -->
<g id="edge11" class="edge">
<title>example.org/id/course/1&#45;&gt;&quot;2019&#45;03&#45;21&quot;</title>
<path fill="none" stroke="black" d="M655.47,-166.58C674.57,-163.75 694.9,-161.01 713.85,-159 779.03,-152.08 853.24,-147.69 908.07,-145.11"/>
<polygon fill="black" stroke="black" points="908.25,-148.61 918.08,-144.65 907.92,-141.62 908.25,-148.61"/>
<text text-anchor="middle" x="757.85" y="-162.8" font-family="Times,serif" font-size="14.00">endDate</text>
</g>
<!-- &quot;2019&#45;02&#45;15&quot; -->
<g id="node13" class="node">
<title>&quot;2019&#45;02&#45;15&quot;</title>
<ellipse fill="none" stroke="black" stroke-width="0" cx="989.49" cy="-88" rx="72.29" ry="18"/>
<text text-anchor="middle" x="989.49" y="-84.3" font-family="Times,serif" font-size="14.00">&quot;2019&#45;02&#45;15&quot;</text>
</g>
<!-- example.org/id/course/1&#45;&gt;&quot;2019&#45;02&#45;15&quot; -->
<g id="edge12" class="edge">
<title>example.org/id/course/1&#45;&gt;&quot;2019&#45;02&#45;15&quot;</title>
<path fill="none" stroke="black" d="M662.36,-167.59C674.09,-163.91 685.6,-159.16 695.85,-153 706.39,-146.67 703.13,-138.01 713.85,-132 773.07,-98.83 850.05,-88.82 907.44,-86.54"/>
<polygon fill="black" stroke="black" points="907.68,-90.03 917.56,-86.21 907.45,-83.04 907.68,-90.03"/>
<text text-anchor="middle" x="757.85" y="-135.8" font-family="Times,serif" font-size="14.00">startDate</text>
</g>
<!-- example.org/id/course/2 -->
<g id="node14" class="node">
<title>example.org/id/course/2</title>
<ellipse fill="none" stroke="#558855" cx="573.66" cy="-351" rx="122.38" ry="18"/>
<text text-anchor="middle" x="573.66" y="-347.3" font-family="Times,serif" font-size="14.00">example.org/id/course/2</text>
</g>
<!-- example.org/id/course/2&#45;&gt;CourseInstance -->
<g id="edge13" class="edge">
<title>example.org/id/course/2&#45;&gt;CourseInstance</title>
<path fill="none" stroke="black" d="M674.63,-340.79C687.82,-339.49 701.16,-338.19 713.85,-337 776.53,-331.11 847.29,-324.94 901.29,-320.33"/>
<polygon fill="black" stroke="black" points="901.85,-323.79 911.52,-319.46 901.26,-316.82 901.85,-323.79"/>
<text text-anchor="middle" x="757.85" y="-340.8" font-family="Times,serif" font-size="14.00">type</text>
</g>
<!-- example.org/id/course/2&#45;&gt;&quot;online&quot; -->
<g id="edge15" class="edge">
<title>example.org/id/course/2&#45;&gt;&quot;online&quot;</title>
<path fill="none" stroke="black" d="M626.99,-334.73C653,-326.86 684.96,-317.52 713.85,-310 789.78,-290.24 879.17,-273.93 934.84,-264.57"/>
<polygon fill="black" stroke="black" points="935.55,-268 944.84,-262.91 934.4,-261.1 935.55,-268"/>
<text text-anchor="middle" x="757.85" y="-313.8" font-family="Times,serif" font-size="14.00">courseMode</text>
</g>
<!-- &quot;MOOC2&quot; -->
<g id="node15" class="node">
<title>&quot;MOOC2&quot;</title>
<ellipse fill="none" stroke="black" stroke-width="0" cx="989.49" cy="-422" rx="55.79" ry="18"/>
<text text-anchor="middle" x="989.49" y="-418.3" font-family="Times,serif" font-size="14.00">&quot;MOOC2&quot;</text>
</g>
<!-- example.org/id/course/2&#45;&gt;&quot;MOOC2&quot; -->
<g id="edge14" class="edge">
<title>example.org/id/course/2&#45;&gt;&quot;MOOC2&quot;</title>
<path fill="none" stroke="black" d="M644.65,-365.69C666.75,-370.17 691.29,-374.97 713.85,-379 787.31,-392.13 872.23,-405.09 927.96,-413.29"/>
<polygon fill="black" stroke="black" points="927.61,-416.78 938.01,-414.76 928.63,-409.85 927.61,-416.78"/>
<text text-anchor="middle" x="757.85" y="-396.8" font-family="Times,serif" font-size="14.00">courseMode</text>
</g>
<!-- &quot;2019&#45;05&#45;21&quot; -->
<g id="node16" class="node">
<title>&quot;2019&#45;05&#45;21&quot;</title>
<ellipse fill="none" stroke="black" stroke-width="0" cx="989.49" cy="-368" rx="72.29" ry="18"/>
<text text-anchor="middle" x="989.49" y="-364.3" font-family="Times,serif" font-size="14.00">&quot;2019&#45;05&#45;21&quot;</text>
</g>
<!-- example.org/id/course/2&#45;&gt;&quot;2019&#45;05&#45;21&quot; -->
<g id="edge16" class="edge">
<title>example.org/id/course/2&#45;&gt;&quot;2019&#45;05&#45;21&quot;</title>
<path fill="none" stroke="black" d="M691.59,-355.8C760.76,-358.64 846.58,-362.17 908.14,-364.7"/>
<polygon fill="black" stroke="black" points="908.06,-368.2 918.19,-365.11 908.34,-361.2 908.06,-368.2"/>
<text text-anchor="middle" x="757.85" y="-363.8" font-family="Times,serif" font-size="14.00">endDate</text>
</g>
<!-- &quot;2019&#45;04&#45;15&quot; -->
<g id="node17" class="node">
<title>&quot;2019&#45;04&#45;15&quot;</title>
<ellipse fill="none" stroke="black" stroke-width="0" cx="989.49" cy="-476" rx="72.29" ry="18"/>
<text text-anchor="middle" x="989.49" y="-472.3" font-family="Times,serif" font-size="14.00">&quot;2019&#45;04&#45;15&quot;</text>
</g>
<!-- example.org/id/course/2&#45;&gt;&quot;2019&#45;04&#45;15&quot; -->
<g id="edge17" class="edge">
<title>example.org/id/course/2&#45;&gt;&quot;2019&#45;04&#45;15&quot;</title>
<path fill="none" stroke="black" d="M611.85,-368.23C639.7,-380.91 678.86,-398.25 713.85,-412 760.29,-430.25 771.47,-436.79 819.85,-449 850.2,-456.66 884.19,-462.59 913.66,-466.92"/>
<polygon fill="black" stroke="black" points="913.49,-470.43 923.88,-468.39 914.48,-463.5 913.49,-470.43"/>
<text text-anchor="middle" x="757.85" y="-447.8" font-family="Times,serif" font-size="14.00">startDate</text>
</g>
<!-- Course -->
<g id="node18" class="node">
<title>Course</title>
<ellipse fill="none" stroke="#558855" cx="573.66" cy="-126" rx="43.59" ry="18"/>
<text text-anchor="middle" x="573.66" y="-122.3" font-family="Times,serif" font-size="14.00">Course</text>
</g>
<!-- example.org/id/datagraph/1 -->
<g id="node19" class="node">
<title>example.org/id/datagraph/1</title>
<ellipse fill="none" stroke="black" cx="139.74" cy="-126" rx="139.98" ry="18"/>
<text text-anchor="middle" x="139.74" y="-122.3" font-family="Times,serif" font-size="14.00">example.org/id/datagraph/1</text>
</g>
<!-- example.org/id/datagraph/1&#45;&gt;example.org/id/course/1 -->
<g id="edge20" class="edge">
<title>example.org/id/datagraph/1&#45;&gt;example.org/id/course/1</title>
<path fill="none" stroke="black" d="M240.64,-138.49C309.4,-147.09 400.48,-158.47 469.85,-167.15"/>
<polygon fill="black" stroke="black" points="469.57,-170.64 479.92,-168.41 470.43,-163.69 469.57,-170.64"/>
<text text-anchor="middle" x="365.48" y="-165.8" font-family="Times,serif" font-size="14.00">hasCourseInstance</text>
</g>
<!-- example.org/id/datagraph/1&#45;&gt;example.org/id/course/2 -->
<g id="edge21" class="edge">
<title>example.org/id/datagraph/1&#45;&gt;example.org/id/course/2</title>
<path fill="none" stroke="black" d="M174.27,-143.47C252.11,-184.01 444.9,-284.45 530.53,-329.05"/>
<polygon fill="black" stroke="black" points="528.96,-332.18 539.45,-333.7 532.2,-325.97 528.96,-332.18"/>
<text text-anchor="middle" x="365.48" y="-281.8" font-family="Times,serif" font-size="14.00">hasCourseInstance</text>
</g>
<!-- example.org/id/datagraph/1&#45;&gt;Course -->
<g id="edge18" class="edge">
<title>example.org/id/datagraph/1&#45;&gt;Course</title>
<path fill="none" stroke="black" d="M279.48,-126C361.4,-126 460.38,-126 519.83,-126"/>
<polygon fill="black" stroke="black" points="520.1,-129.5 530.1,-126 520.1,-122.5 520.1,-129.5"/>
<text text-anchor="middle" x="365.48" y="-129.8" font-family="Times,serif" font-size="14.00">type</text>
</g>
<!-- &quot;Course description&quot; -->
<g id="node20" class="node">
<title>&quot;Course description&quot;</title>
<ellipse fill="none" stroke="black" stroke-width="0" cx="573.66" cy="-72" rx="107.48" ry="18"/>
<text text-anchor="middle" x="573.66" y="-68.3" font-family="Times,serif" font-size="14.00">&quot;Course description&quot;</text>
</g>
<!-- example.org/id/datagraph/1&#45;&gt;&quot;Course description&quot; -->
<g id="edge19" class="edge">
<title>example.org/id/datagraph/1&#45;&gt;&quot;Course description&quot;</title>
<path fill="none" stroke="black" d="M240.64,-113.51C311.77,-104.62 406.8,-92.74 476.96,-83.97"/>
<polygon fill="black" stroke="black" points="477.64,-87.41 487.13,-82.69 476.77,-80.46 477.64,-87.41"/>
<text text-anchor="middle" x="365.48" y="-108.8" font-family="Times,serif" font-size="14.00">description</text>
</g>
<!-- &quot;test&quot; -->
<g id="node21" class="node">
<title>&quot;test&quot;</title>
<ellipse fill="none" stroke="black" stroke-width="0" cx="573.66" cy="-18" rx="37.89" ry="18"/>
<text text-anchor="middle" x="573.66" y="-14.3" font-family="Times,serif" font-size="14.00">&quot;test&quot;</text>
</g>
<!-- example.org/id/datagraph/1&#45;&gt;&quot;test&quot; -->
<g id="edge22" class="edge">
<title>example.org/id/datagraph/1&#45;&gt;&quot;test&quot;</title>
<path fill="none" stroke="black" d="M183.07,-108.84C214.29,-96.69 258.01,-80.71 297.48,-70 377.05,-48.41 471.94,-32.61 526.95,-24.4"/>
<polygon fill="black" stroke="black" points="527.69,-27.83 537.08,-22.9 526.67,-20.9 527.69,-27.83"/>
<text text-anchor="middle" x="365.48" y="-73.8" font-family="Times,serif" font-size="14.00">name</text>
</g>
</g>
</svg>
