<?xml version="1.0" encoding="UTF-8" standalone="no"?>
<!DOCTYPE svg PUBLIC "-//W3C//DTD SVG 1.1//EN"
 "http://www.w3.org/Graphics/SVG/1.1/DTD/svg11.dtd">
<!-- Generated by graphviz version 2.44.0 (0)
 -->
<!-- Pages: 1 -->
<svg width="723pt" height="478pt"
 viewBox="0.00 0.00 723.05 478.00" xmlns="http://www.w3.org/2000/svg" xmlns:xlink="http://www.w3.org/1999/xlink">
<g id="graph0" class="graph" transform="scale(1 1) rotate(0) translate(4 474)">
<polygon fill="white" stroke="transparent" points="-4,4 -4,-474 719.05,-474 719.05,4 -4,4"/>
<!-- &quot;Earth System Modeling&quot; -->
<g id="node1" class="node">
<title>&quot;Earth System Modeling&quot;</title>
<ellipse fill="none" stroke="black" stroke-width="0" cx="555.82" cy="-450" rx="124.28" ry="18"/>
<text text-anchor="middle" x="555.82" y="-446.3" font-family="Times-Roman" font-size="14.00">&quot;Earth System Modeling&quot;</text>
</g>
<!-- cooldata.io/id/doc/1 -->
<g id="node2" class="node">
<title>cooldata.io/id/doc/1</title>
<ellipse fill="none" stroke="black" cx="98.79" cy="-234" rx="98.58" ry="18"/>
<text text-anchor="middle" x="98.79" y="-230.3" font-family="Times-Roman" font-size="14.00">cooldata.io/id/doc/1</text>
</g>
<!-- cooldata.io/id/doc/1&#45;&gt;&quot;Earth System Modeling&quot; -->
<g id="edge1" class="edge">
<title>cooldata.io/id/doc/1&#45;&gt;&quot;Earth System Modeling&quot;</title>
<path fill="none" stroke="black" d="M106.06,-252.2C119.64,-288.55 155.48,-369.86 215.58,-407 281.05,-447.45 367.19,-457.96 436.29,-458.48"/>
<polygon fill="black" stroke="black" points="436.35,-461.98 446.36,-458.49 436.36,-454.98 436.35,-461.98"/>
<text text-anchor="middle" x="297.08" y="-458.8" font-family="Times-Roman" font-size="14.00">schema.org/keywords</text>
</g>
<!-- &quot;climate change&quot; -->
<g id="node3" class="node">
<title>&quot;climate change&quot;</title>
<ellipse fill="none" stroke="black" stroke-width="0" cx="555.82" cy="-396" rx="88.28" ry="18"/>
<text text-anchor="middle" x="555.82" y="-392.3" font-family="Times-Roman" font-size="14.00">&quot;climate change&quot;</text>
</g>
<!-- cooldata.io/id/doc/1&#45;&gt;&quot;climate change&quot; -->
<g id="edge2" class="edge">
<title>cooldata.io/id/doc/1&#45;&gt;&quot;climate change&quot;</title>
<path fill="none" stroke="black" d="M113.2,-252.17C132.7,-277.14 171.44,-321.4 215.58,-343 291.24,-380.02 386.73,-392.32 457.11,-395.91"/>
<polygon fill="black" stroke="black" points="457.15,-399.42 467.3,-396.38 457.47,-392.42 457.15,-399.42"/>
<text text-anchor="middle" x="297.08" y="-391.8" font-family="Times-Roman" font-size="14.00">schema.org/keywords</text>
</g>
<!-- &quot;geochemistry&quot; -->
<g id="node4" class="node">
<title>&quot;geochemistry&quot;</title>
<ellipse fill="none" stroke="black" stroke-width="0" cx="555.82" cy="-342" rx="81.49" ry="18"/>
<text text-anchor="middle" x="555.82" y="-338.3" font-family="Times-Roman" font-size="14.00">&quot;geochemistry&quot;</text>
</g>
<!-- cooldata.io/id/doc/1&#45;&gt;&quot;geochemistry&quot; -->
<g id="edge3" class="edge">
<title>cooldata.io/id/doc/1&#45;&gt;&quot;geochemistry&quot;</title>
<path fill="none" stroke="black" d="M129.26,-251.3C152.08,-263.93 184.88,-280.46 215.58,-290 299.1,-315.95 398.37,-329.24 467.87,-335.85"/>
<polygon fill="black" stroke="black" points="467.62,-339.34 477.9,-336.78 468.27,-332.37 467.62,-339.34"/>
<text text-anchor="middle" x="297.08" y="-327.8" font-family="Times-Roman" font-size="14.00">schema.org/keywords</text>
</g>
<!-- schema.org/Dataset -->
<g id="node5" class="node">
<title>schema.org/Dataset</title>
<ellipse fill="none" stroke="#558855" cx="555.82" cy="-288" rx="100.98" ry="18"/>
<text text-anchor="middle" x="555.82" y="-284.3" font-family="Times-Roman" font-size="14.00">schema.org/Dataset</text>
</g>
<!-- cooldata.io/id/doc/1&#45;&gt;schema.org/Dataset -->
<g id="edge4" class="edge">
<title>cooldata.io/id/doc/1&#45;&gt;schema.org/Dataset</title>
<path fill="none" stroke="black" d="M171.03,-246.38C185.74,-248.74 201.14,-251.07 215.58,-253 295.69,-263.69 386.81,-272.93 454.43,-279.23"/>
<polygon fill="black" stroke="black" points="454.37,-282.74 464.65,-280.18 455.02,-275.77 454.37,-282.74"/>
<text text-anchor="middle" x="297.08" y="-274.8" font-family="Times-Roman" font-size="14.00">type</text>
</g>
<!-- &quot;Descriptive text of the dataset.&quot; -->
<g id="node6" class="node">
<title>&quot;Descriptive text of the dataset.&quot;</title>
<ellipse fill="none" stroke="black" stroke-width="0" cx="555.82" cy="-234" rx="159.47" ry="18"/>
<text text-anchor="middle" x="555.82" y="-230.3" font-family="Times-Roman" font-size="14.00">&quot;Descriptive text of the dataset.&quot;</text>
</g>
<!-- cooldata.io/id/doc/1&#45;&gt;&quot;Descriptive text of the dataset.&quot; -->
<g id="edge5" class="edge">
<title>cooldata.io/id/doc/1&#45;&gt;&quot;Descriptive text of the dataset.&quot;</title>
<path fill="none" stroke="black" d="M197.69,-234C252.6,-234 322.64,-234 386.12,-234"/>
<polygon fill="black" stroke="black" points="386.25,-237.5 396.25,-234 386.25,-230.5 386.25,-237.5"/>
<text text-anchor="middle" x="297.08" y="-237.8" font-family="Times-Roman" font-size="14.00">schema.org/description</text>
</g>
<!-- &quot;CC&#45;BY&#45;4.0&quot; -->
<g id="node7" class="node">
<title>&quot;CC&#45;BY&#45;4.0&quot;</title>
<ellipse fill="none" stroke="black" stroke-width="0" cx="555.82" cy="-180" rx="63.89" ry="18"/>
<text text-anchor="middle" x="555.82" y="-176.3" font-family="Times-Roman" font-size="14.00">&quot;CC&#45;BY&#45;4.0&quot;</text>
</g>
<!-- cooldata.io/id/doc/1&#45;&gt;&quot;CC&#45;BY&#45;4.0&quot; -->
<g id="edge6" class="edge">
<title>cooldata.io/id/doc/1&#45;&gt;&quot;CC&#45;BY&#45;4.0&quot;</title>
<path fill="none" stroke="black" d="M171.03,-221.62C185.74,-219.26 201.14,-216.93 215.58,-215 308.25,-202.63 415.65,-192.2 484.37,-186.03"/>
<polygon fill="black" stroke="black" points="484.99,-189.49 494.64,-185.11 484.37,-182.52 484.99,-189.49"/>
<text text-anchor="middle" x="297.08" y="-218.8" font-family="Times-Roman" font-size="14.00">schema.org/license</text>
</g>
<!-- &quot;Data Set Name one&quot; -->
<g id="node8" class="node">
<title>&quot;Data Set Name one&quot;</title>
<ellipse fill="none" stroke="black" stroke-width="0" cx="555.82" cy="-126" rx="106.68" ry="18"/>
<text text-anchor="middle" x="555.82" y="-122.3" font-family="Times-Roman" font-size="14.00">&quot;Data Set Name one&quot;</text>
</g>
<!-- cooldata.io/id/doc/1&#45;&gt;&quot;Data Set Name one&quot; -->
<g id="edge7" class="edge">
<title>cooldata.io/id/doc/1&#45;&gt;&quot;Data Set Name one&quot;</title>
<path fill="none" stroke="black" d="M128.73,-216.62C151.55,-203.7 184.58,-186.7 215.58,-177 290.73,-153.48 378.74,-140.65 446.28,-133.74"/>
<polygon fill="black" stroke="black" points="446.91,-137.2 456.52,-132.73 446.22,-130.23 446.91,-137.2"/>
<text text-anchor="middle" x="297.08" y="-180.8" font-family="Times-Roman" font-size="14.00">schema.org/name</text>
</g>
<!-- &quot;http//foo.org/data/distribution&quot; -->
<g id="node9" class="node">
<title>&quot;http//foo.org/data/distribution&quot;</title>
<ellipse fill="none" stroke="black" stroke-width="0" cx="555.82" cy="-72" rx="153.27" ry="18"/>
<text text-anchor="middle" x="555.82" y="-68.3" font-family="Times-Roman" font-size="14.00">&quot;http//foo.org/data/distribution&quot;</text>
</g>
<!-- cooldata.io/id/doc/1&#45;&gt;&quot;http//foo.org/data/distribution&quot; -->
<g id="edge8" class="edge">
<title>cooldata.io/id/doc/1&#45;&gt;&quot;http//foo.org/data/distribution&quot;</title>
<path fill="none" stroke="black" d="M112.82,-216.06C132.16,-190.93 171.02,-145.85 215.58,-124 270.58,-97.03 336.11,-83.34 394.85,-76.6"/>
<polygon fill="black" stroke="black" points="395.41,-80.06 404.97,-75.5 394.65,-73.1 395.41,-80.06"/>
<text text-anchor="middle" x="297.08" y="-127.8" font-family="Times-Roman" font-size="14.00">schema.org/url</text>
</g>
<!-- &quot;version&quot; -->
<g id="node10" class="node">
<title>&quot;version&quot;</title>
<ellipse fill="none" stroke="black" stroke-width="0" cx="555.82" cy="-18" rx="52.79" ry="18"/>
<text text-anchor="middle" x="555.82" y="-14.3" font-family="Times-Roman" font-size="14.00">&quot;version&quot;</text>
</g>
<!-- cooldata.io/id/doc/1&#45;&gt;&quot;version&quot; -->
<g id="edge9" class="edge">
<title>cooldata.io/id/doc/1&#45;&gt;&quot;version&quot;</title>
<path fill="none" stroke="black" d="M105.88,-215.85C119.23,-179.17 154.83,-96.52 215.58,-59 301.94,-5.67 424.38,-5.31 496.11,-10.94"/>
<polygon fill="black" stroke="black" points="496.05,-14.44 506.31,-11.81 496.65,-7.47 496.05,-14.44"/>
<text text-anchor="middle" x="297.08" y="-62.8" font-family="Times-Roman" font-size="14.00">schema.org/version</text>
</g>
</g>
</svg>
