<?xml version="1.0" encoding="UTF-8" standalone="no"?>
<!DOCTYPE svg PUBLIC "-//W3C//DTD SVG 1.1//EN"
 "http://www.w3.org/Graphics/SVG/1.1/DTD/svg11.dtd">
<!-- Generated by graphviz version 2.44.0 (0)
 -->
<!-- Pages: 1 -->
<svg width="698pt" height="262pt"
 viewBox="0.00 0.00 697.76 262.00" xmlns="http://www.w3.org/2000/svg" xmlns:xlink="http://www.w3.org/1999/xlink">
<g id="graph0" class="graph" transform="scale(1 1) rotate(0) translate(4 258)">
<polygon fill="white" stroke="transparent" points="-4,4 -4,-258 693.76,-258 693.76,4 -4,4"/>
<!-- schema.org/Dataset -->
<g id="node1" class="node">
<title>schema.org/Dataset</title>
<ellipse fill="none" stroke="#558855" cx="471.38" cy="-234" rx="100.98" ry="18"/>
<text text-anchor="middle" x="471.38" y="-230.3" font-family="Times-Roman" font-size="14.00">schema.org/Dataset</text>
</g>
<!-- _ -->
<g id="node2" class="node">
<title>_</title>
<ellipse fill="none" stroke="black" cx="27" cy="-126" rx="27" ry="18"/>
<text text-anchor="middle" x="27" y="-122.3" font-family="Times-Roman" font-size="14.00">_</text>
</g>
<!-- _&#45;&gt;schema.org/Dataset -->
<g id="edge1" class="edge">
<title>_&#45;&gt;schema.org/Dataset</title>
<path fill="none" stroke="black" d="M34.9,-143.31C41.88,-158.34 54.18,-179.34 72,-190 164.81,-245.54 291.78,-249.86 377.21,-244.68"/>
<polygon fill="black" stroke="black" points="377.67,-248.15 387.42,-244 377.21,-241.17 377.67,-248.15"/>
<text text-anchor="middle" x="153.5" y="-242.8" font-family="Times-Roman" font-size="14.00">type</text>
</g>
<!-- &quot;The purpose of the Coral Reef Evaluation...&quot; -->
<g id="node3" class="node">
<title>&quot;The purpose of the Coral Reef Evaluation...&quot;</title>
<ellipse fill="none" stroke="black" stroke-width="0" cx="471.38" cy="-180" rx="213.66" ry="18"/>
<text text-anchor="middle" x="471.38" y="-176.3" font-family="Times-Roman" font-size="14.00">&quot;The purpose of the Coral Reef Evaluation...&quot;</text>
</g>
<!-- _&#45;&gt;&quot;The purpose of the Coral Reef Evaluation...&quot; -->
<g id="edge2" class="edge">
<title>_&#45;&gt;&quot;The purpose of the Coral Reef Evaluation...&quot;</title>
<path fill="none" stroke="black" d="M49,-136.69C56.13,-139.88 64.26,-143.04 72,-145 131.06,-159.93 196.43,-168.74 256.85,-173.87"/>
<polygon fill="black" stroke="black" points="256.64,-177.36 266.9,-174.69 257.22,-170.38 256.64,-177.36"/>
<text text-anchor="middle" x="153.5" y="-174.8" font-family="Times-Roman" font-size="14.00">schema.org/description</text>
</g>
<!-- &quot;Coral Reef Evaluation and Monitoring Pro...&quot; -->
<g id="node4" class="node">
<title>&quot;Coral Reef Evaluation and Monitoring Pro...&quot;</title>
<ellipse fill="none" stroke="black" stroke-width="0" cx="471.38" cy="-126" rx="213.36" ry="18"/>
<text text-anchor="middle" x="471.38" y="-122.3" font-family="Times-Roman" font-size="14.00">&quot;Coral Reef Evaluation and Monitoring Pro...&quot;</text>
</g>
<!-- _&#45;&gt;&quot;Coral Reef Evaluation and Monitoring Pro...&quot; -->
<g id="edge3" class="edge">
<title>_&#45;&gt;&quot;Coral Reef Evaluation and Monitoring Pro...&quot;</title>
<path fill="none" stroke="black" d="M54.02,-126C92.97,-126 170.17,-126 247.63,-126"/>
<polygon fill="black" stroke="black" points="248.06,-129.5 258.06,-126 248.06,-122.5 248.06,-129.5"/>
<text text-anchor="middle" x="153.5" y="-129.8" font-family="Times-Roman" font-size="14.00">schema.org/name</text>
</g>
<!-- &quot;https//www1.usgs.gov/obis&#45;usa/ipt/resour...&quot; -->
<g id="node5" class="node">
<title>&quot;https//www1.usgs.gov/obis&#45;usa/ipt/resour...&quot;</title>
<ellipse fill="none" stroke="black" stroke-width="0" cx="471.38" cy="-72" rx="215.56" ry="18"/>
<text text-anchor="middle" x="471.38" y="-68.3" font-family="Times-Roman" font-size="14.00">&quot;https//www1.usgs.gov/obis&#45;usa/ipt/resour...&quot;</text>
</g>
<!-- _&#45;&gt;&quot;https//www1.usgs.gov/obis&#45;usa/ipt/resour...&quot; -->
<g id="edge4" class="edge">
<title>_&#45;&gt;&quot;https//www1.usgs.gov/obis&#45;usa/ipt/resour...&quot;</title>
<path fill="none" stroke="black" d="M49,-115.31C56.13,-112.12 64.26,-108.96 72,-107 130.58,-92.19 195.37,-83.4 255.38,-78.26"/>
<polygon fill="black" stroke="black" points="255.68,-81.75 265.36,-77.43 255.11,-74.77 255.68,-81.75"/>
<text text-anchor="middle" x="153.5" y="-110.8" font-family="Times-Roman" font-size="14.00">schema.org/sameAs</text>
</g>
<!-- &quot;https//obis.org/dataset/46005357&#45;02b8&#45;4f...&quot; -->
<g id="node6" class="node">
<title>&quot;https//obis.org/dataset/46005357&#45;02b8&#45;4f...&quot;</title>
<ellipse fill="none" stroke="black" stroke-width="0" cx="471.38" cy="-18" rx="218.26" ry="18"/>
<text text-anchor="middle" x="471.38" y="-14.3" font-family="Times-Roman" font-size="14.00">&quot;https//obis.org/dataset/46005357&#45;02b8&#45;4f...&quot;</text>
</g>
<!-- _&#45;&gt;&quot;https//obis.org/dataset/46005357&#45;02b8&#45;4f...&quot; -->
<g id="edge5" class="edge">
<title>_&#45;&gt;&quot;https//obis.org/dataset/46005357&#45;02b8&#45;4f...&quot;</title>
<path fill="none" stroke="black" d="M34.69,-108.72C41.59,-93.42 53.9,-71.89 72,-61 142.31,-18.7 232.4,-6.25 309.12,-5.12"/>
<polygon fill="black" stroke="black" points="309.4,-8.62 319.37,-5.04 309.34,-1.62 309.4,-8.62"/>
<text text-anchor="middle" x="153.5" y="-64.8" font-family="Times-Roman" font-size="14.00">schema.org/url</text>
</g>
</g>
</svg>
