<?xml version="1.0" encoding="UTF-8" standalone="no"?>
<!DOCTYPE svg PUBLIC "-//W3C//DTD SVG 1.1//EN"
 "http://www.w3.org/Graphics/SVG/1.1/DTD/svg11.dtd">
<!-- Generated by graphviz version 2.44.0 (0)
 -->
<!-- Pages: 1 -->
<svg width="3088pt" height="718pt"
 viewBox="0.00 0.00 3088.02 717.50" xmlns="http://www.w3.org/2000/svg" xmlns:xlink="http://www.w3.org/1999/xlink">
<g id="graph0" class="graph" transform="scale(1 1) rotate(0) translate(4 713.5)">
<polygon fill="white" stroke="transparent" points="-4,4 -4,-713.5 3084.02,-713.5 3084.02,4 -4,4"/>
<text text-anchor="middle" x="1540.01" y="-22.8" font-family="Times-Roman" font-size="14.00">Model:</text>
<text text-anchor="middle" x="1540.01" y="-7.8" font-family="Times-Roman" font-size="14.00">https://iode.org/</text>
<!-- Rfile:///home/fils/src/Projects/OIH/odis&#45;arch/schema/thematics/expinst/graphs/ID_for_this_metadata_record -->
<g id="node1" class="node">
<title>Rfile:///home/fils/src/Projects/OIH/odis&#45;arch/schema/thematics/expinst/graphs/ID_for_this_metadata_record</title>
<ellipse fill="none" stroke="blue" cx="482.91" cy="-307.5" rx="482.81" ry="18"/>
<text text-anchor="middle" x="482.91" y="-303.8" font-family="Times-Roman" font-size="14.00">file:///home/fils/src/Projects/OIH/odis&#45;arch/schema/thematics/expinst/graphs/ID_for_this_metadata_record</text>
</g>
<!-- Rschema:Person -->
<g id="node2" class="node">
<title>Rschema:Person</title>
<ellipse fill="none" stroke="blue" cx="1667.42" cy="-607.5" rx="79.09" ry="18"/>
<text text-anchor="middle" x="1667.42" y="-603.8" font-family="Times-Roman" font-size="14.00">schema:Person</text>
</g>
<!-- Rfile:///home/fils/src/Projects/OIH/odis&#45;arch/schema/thematics/expinst/graphs/ID_for_this_metadata_record&#45;&gt;Rschema:Person -->
<g id="edge1" class="edge">
<title>Rfile:///home/fils/src/Projects/OIH/odis&#45;arch/schema/thematics/expinst/graphs/ID_for_this_metadata_record&#45;&gt;Rschema:Person</title>
<path fill="none" stroke="black" stroke-dasharray="1,5" d="M516.4,-325.58C610.44,-376.88 892.42,-523.27 1146.81,-580.5 1296.28,-614.13 1475.77,-615.05 1579.89,-611.84"/>
<polygon fill="black" stroke="black" points="1580.16,-615.33 1590.04,-611.51 1579.93,-608.34 1580.16,-615.33"/>
<text text-anchor="middle" x="1056.31" y="-579.3" font-family="Times-Roman" font-size="14.00">rdfs:type</text>
</g>
<!-- Rfile:///home/fils/src/Projects/OIH/odis&#45;arch/schema/thematics/expinst/graphs/ID_value_string -->
<g id="node3" class="node">
<title>Rfile:///home/fils/src/Projects/OIH/odis&#45;arch/schema/thematics/expinst/graphs/ID_value_string</title>
<ellipse fill="none" stroke="blue" cx="1667.42" cy="-553.5" rx="424.32" ry="18"/>
<text text-anchor="middle" x="1667.42" y="-549.8" font-family="Times-Roman" font-size="14.00">file:///home/fils/src/Projects/OIH/odis&#45;arch/schema/thematics/expinst/graphs/ID_value_string</text>
</g>
<!-- Rfile:///home/fils/src/Projects/OIH/odis&#45;arch/schema/thematics/expinst/graphs/ID_for_this_metadata_record&#45;&gt;Rfile:///home/fils/src/Projects/OIH/odis&#45;arch/schema/thematics/expinst/graphs/ID_value_string -->
<g id="edge2" class="edge">
<title>Rfile:///home/fils/src/Projects/OIH/odis&#45;arch/schema/thematics/expinst/graphs/ID_for_this_metadata_record&#45;&gt;Rfile:///home/fils/src/Projects/OIH/odis&#45;arch/schema/thematics/expinst/graphs/ID_value_string</title>
<path fill="none" stroke="black" stroke-dasharray="1,5" d="M569.43,-325.29C784.54,-370.04 1346.94,-487.04 1571.65,-533.79"/>
<polygon fill="black" stroke="black" points="1570.94,-537.21 1581.45,-535.82 1572.37,-530.36 1570.94,-537.21"/>
<text text-anchor="middle" x="1056.31" y="-441.3" font-family="Times-Roman" font-size="14.00">schema:identifier</text>
</g>
<!-- LProfessor -->
<g id="node4" class="node">
<title>LProfessor</title>
<polygon fill="none" stroke="black" points="1626.92,-398.5 1626.92,-434.5 1707.92,-434.5 1707.92,-398.5 1626.92,-398.5"/>
<text text-anchor="middle" x="1667.42" y="-412.8" font-family="Times-Roman" font-size="14.00">Professor</text>
</g>
<!-- Rfile:///home/fils/src/Projects/OIH/odis&#45;arch/schema/thematics/expinst/graphs/ID_for_this_metadata_record&#45;&gt;LProfessor -->
<g id="edge3" class="edge">
<title>Rfile:///home/fils/src/Projects/OIH/odis&#45;arch/schema/thematics/expinst/graphs/ID_for_this_metadata_record&#45;&gt;LProfessor</title>
<path fill="none" stroke="black" stroke-dasharray="1,5" d="M605.83,-324.91C738.61,-343.29 957.4,-371.84 1146.81,-388.5 1319.04,-403.64 1524.14,-411.79 1616.72,-414.94"/>
<polygon fill="black" stroke="black" points="1616.81,-418.45 1626.92,-415.29 1617.04,-411.45 1616.81,-418.45"/>
<text text-anchor="middle" x="1056.31" y="-388.3" font-family="Times-Roman" font-size="14.00">schema:jobTitle</text>
</g>
<!-- Rhttps://raw.githubusercontent.com/iodepo/odis&#45;arch/schema&#45;dev/schema/thematics/training/graphs/course1.json -->
<g id="node5" class="node">
<title>Rhttps://raw.githubusercontent.com/iodepo/odis&#45;arch/schema&#45;dev/schema/thematics/training/graphs/course1.json</title>
<ellipse fill="none" stroke="blue" cx="1667.42" cy="-361.5" rx="520.71" ry="18"/>
<text text-anchor="middle" x="1667.42" y="-357.8" font-family="Times-Roman" font-size="14.00">https://raw.githubusercontent.com/iodepo/odis&#45;arch/schema&#45;dev/schema/thematics/training/graphs/course1.json</text>
</g>
<!-- Rfile:///home/fils/src/Projects/OIH/odis&#45;arch/schema/thematics/expinst/graphs/ID_for_this_metadata_record&#45;&gt;Rhttps://raw.githubusercontent.com/iodepo/odis&#45;arch/schema&#45;dev/schema/thematics/training/graphs/course1.json -->
<g id="edge4" class="edge">
<title>Rfile:///home/fils/src/Projects/OIH/odis&#45;arch/schema/thematics/expinst/graphs/ID_for_this_metadata_record&#45;&gt;Rhttps://raw.githubusercontent.com/iodepo/odis&#45;arch/schema&#45;dev/schema/thematics/training/graphs/course1.json</title>
<path fill="none" stroke="black" stroke-dasharray="1,5" d="M789.2,-321.44C958.87,-329.19 1169.92,-338.83 1342.49,-346.71"/>
<polygon fill="black" stroke="black" points="1342.34,-350.2 1352.49,-347.16 1342.66,-343.21 1342.34,-350.2"/>
<text text-anchor="middle" x="1056.31" y="-339.3" font-family="Times-Roman" font-size="14.00">schema:knowsAbout</text>
</g>
<!-- B_:b0 -->
<g id="node6" class="node">
<title>B_:b0</title>
<ellipse fill="none" stroke="green" cx="1667.42" cy="-307.5" rx="18" ry="18"/>
</g>
<!-- Rfile:///home/fils/src/Projects/OIH/odis&#45;arch/schema/thematics/expinst/graphs/ID_for_this_metadata_record&#45;&gt;B_:b0 -->
<g id="edge5" class="edge">
<title>Rfile:///home/fils/src/Projects/OIH/odis&#45;arch/schema/thematics/expinst/graphs/ID_for_this_metadata_record&#45;&gt;B_:b0</title>
<path fill="none" stroke="black" stroke-dasharray="1,5" d="M966.16,-307.5C1240.56,-307.5 1547.41,-307.5 1639.13,-307.5"/>
<polygon fill="black" stroke="black" points="1639.23,-311 1649.23,-307.5 1639.23,-304 1639.23,-311"/>
<text text-anchor="middle" x="1056.31" y="-311.3" font-family="Times-Roman" font-size="14.00">schema:knowsAbout</text>
</g>
<!-- B_:b1 -->
<g id="node7" class="node">
<title>B_:b1</title>
<ellipse fill="none" stroke="green" cx="1667.42" cy="-253.5" rx="18" ry="18"/>
</g>
<!-- Rfile:///home/fils/src/Projects/OIH/odis&#45;arch/schema/thematics/expinst/graphs/ID_for_this_metadata_record&#45;&gt;B_:b1 -->
<g id="edge6" class="edge">
<title>Rfile:///home/fils/src/Projects/OIH/odis&#45;arch/schema/thematics/expinst/graphs/ID_for_this_metadata_record&#45;&gt;B_:b1</title>
<path fill="none" stroke="black" stroke-dasharray="1,5" d="M789.2,-293.56C1092.19,-279.72 1527.14,-259.86 1639.25,-254.74"/>
<polygon fill="black" stroke="black" points="1639.53,-258.23 1649.36,-254.28 1639.21,-251.24 1639.53,-258.23"/>
<text text-anchor="middle" x="1056.31" y="-287.3" font-family="Times-Roman" font-size="14.00">schema:knowsAbout</text>
</g>
<!-- LJane Doe -->
<g id="node8" class="node">
<title>LJane Doe</title>
<polygon fill="none" stroke="black" points="1628.42,-180.5 1628.42,-216.5 1706.42,-216.5 1706.42,-180.5 1628.42,-180.5"/>
<text text-anchor="middle" x="1667.42" y="-194.8" font-family="Times-Roman" font-size="14.00">Jane Doe</text>
</g>
<!-- Rfile:///home/fils/src/Projects/OIH/odis&#45;arch/schema/thematics/expinst/graphs/ID_for_this_metadata_record&#45;&gt;LJane Doe -->
<g id="edge7" class="edge">
<title>Rfile:///home/fils/src/Projects/OIH/odis&#45;arch/schema/thematics/expinst/graphs/ID_for_this_metadata_record&#45;&gt;LJane Doe</title>
<path fill="none" stroke="black" stroke-dasharray="1,5" d="M605.83,-290.09C738.61,-271.71 957.4,-243.16 1146.81,-226.5 1319.9,-211.28 1526.21,-203.12 1618.11,-200.01"/>
<polygon fill="black" stroke="black" points="1618.34,-203.5 1628.22,-199.67 1618.11,-196.51 1618.34,-203.5"/>
<text text-anchor="middle" x="1056.31" y="-244.3" font-family="Times-Roman" font-size="14.00">schema:name</text>
</g>
<!-- L(425) 123&#45;4567 -->
<g id="node9" class="node">
<title>L(425) 123&#45;4567</title>
<polygon fill="none" stroke="black" points="1603.92,-125.5 1603.92,-161.5 1730.92,-161.5 1730.92,-125.5 1603.92,-125.5"/>
<text text-anchor="middle" x="1667.42" y="-139.8" font-family="Times-Roman" font-size="14.00">(425) 123&#45;4567</text>
</g>
<!-- Rfile:///home/fils/src/Projects/OIH/odis&#45;arch/schema/thematics/expinst/graphs/ID_for_this_metadata_record&#45;&gt;L(425) 123&#45;4567 -->
<g id="edge8" class="edge">
<title>Rfile:///home/fils/src/Projects/OIH/odis&#45;arch/schema/thematics/expinst/graphs/ID_for_this_metadata_record&#45;&gt;L(425) 123&#45;4567</title>
<path fill="none" stroke="black" stroke-dasharray="1,5" d="M553.49,-289.66C673.6,-259.67 928.04,-199.68 1146.81,-171.5 1305.34,-151.08 1492.93,-145.51 1593.69,-144.02"/>
<polygon fill="black" stroke="black" points="1593.81,-147.52 1603.76,-143.88 1593.71,-140.52 1593.81,-147.52"/>
<text text-anchor="middle" x="1056.31" y="-197.3" font-family="Times-Roman" font-size="14.00">schema:telephone</text>
</g>
<!-- Lhttp://www.janedoe.com -->
<g id="node10" class="node">
<title>Lhttp://www.janedoe.com</title>
<polygon fill="none" stroke="black" points="1574.92,-70.5 1574.92,-106.5 1759.92,-106.5 1759.92,-70.5 1574.92,-70.5"/>
<text text-anchor="middle" x="1667.42" y="-84.8" font-family="Times-Roman" font-size="14.00">http://www.janedoe.com</text>
</g>
<!-- Rfile:///home/fils/src/Projects/OIH/odis&#45;arch/schema/thematics/expinst/graphs/ID_for_this_metadata_record&#45;&gt;Lhttp://www.janedoe.com -->
<g id="edge9" class="edge">
<title>Rfile:///home/fils/src/Projects/OIH/odis&#45;arch/schema/thematics/expinst/graphs/ID_for_this_metadata_record&#45;&gt;Lhttp://www.janedoe.com</title>
<path fill="none" stroke="black" stroke-dasharray="1,5" d="M529.97,-289.53C636.5,-249 908.95,-151.25 1146.81,-115.5 1290.75,-93.87 1459.35,-88.77 1564.54,-87.96"/>
<polygon fill="black" stroke="black" points="1564.86,-91.46 1574.83,-87.9 1564.81,-84.46 1564.86,-91.46"/>
<text text-anchor="middle" x="1056.31" y="-148.3" font-family="Times-Roman" font-size="14.00">schema:url</text>
</g>
<!-- Rschema:PropertyValue -->
<g id="node11" class="node">
<title>Rschema:PropertyValue</title>
<ellipse fill="none" stroke="blue" cx="2720.02" cy="-691.5" rx="111.28" ry="18"/>
<text text-anchor="middle" x="2720.02" y="-687.8" font-family="Times-Roman" font-size="14.00">schema:PropertyValue</text>
</g>
<!-- Rfile:///home/fils/src/Projects/OIH/odis&#45;arch/schema/thematics/expinst/graphs/ID_value_string&#45;&gt;Rschema:PropertyValue -->
<g id="edge10" class="edge">
<title>Rfile:///home/fils/src/Projects/OIH/odis&#45;arch/schema/thematics/expinst/graphs/ID_value_string&#45;&gt;Rschema:PropertyValue</title>
<path fill="none" stroke="black" stroke-dasharray="1,5" d="M1736.18,-535.73C1843.2,-511.94 2053.04,-483.14 2188.02,-580.5 2205.83,-593.34 2189.51,-612.03 2206.02,-626.5 2259.03,-672.98 2290.41,-653.37 2360.02,-664.5 2439.73,-677.24 2530.38,-684 2600.65,-687.57"/>
<polygon fill="black" stroke="black" points="2600.71,-691.07 2610.87,-688.07 2601.05,-684.08 2600.71,-691.07"/>
<text text-anchor="middle" x="2274.02" y="-665.3" font-family="Times-Roman" font-size="14.00">rdfs:type</text>
</g>
<!-- LOptional description of the ID -->
<g id="node12" class="node">
<title>LOptional description of the ID</title>
<polygon fill="none" stroke="black" points="2609.52,-618.5 2609.52,-654.5 2830.52,-654.5 2830.52,-618.5 2609.52,-618.5"/>
<text text-anchor="middle" x="2720.02" y="-632.8" font-family="Times-Roman" font-size="14.00">Optional description of the ID</text>
</g>
<!-- Rfile:///home/fils/src/Projects/OIH/odis&#45;arch/schema/thematics/expinst/graphs/ID_value_string&#45;&gt;LOptional description of the ID -->
<g id="edge11" class="edge">
<title>Rfile:///home/fils/src/Projects/OIH/odis&#45;arch/schema/thematics/expinst/graphs/ID_value_string&#45;&gt;LOptional description of the ID</title>
<path fill="none" stroke="black" stroke-dasharray="1,5" d="M2075.49,-558.52C2113.85,-563.82 2151.88,-570.97 2188.02,-580.5 2196.67,-582.78 2197.47,-586.89 2206.02,-589.5 2272.03,-609.66 2291.36,-602.46 2360.02,-609.5 2439.58,-617.65 2529.3,-624.4 2599.14,-629.11"/>
<polygon fill="black" stroke="black" points="2599.09,-632.62 2609.3,-629.79 2599.55,-625.63 2599.09,-632.62"/>
<text text-anchor="middle" x="2274.02" y="-611.3" font-family="Times-Roman" font-size="14.00">schema:description</text>
</g>
<!-- LThis can be text or URL for an ID like ORCID -->
<g id="node13" class="node">
<title>LThis can be text or URL for an ID like ORCID</title>
<polygon fill="none" stroke="black" points="2559.52,-563.5 2559.52,-599.5 2880.52,-599.5 2880.52,-563.5 2559.52,-563.5"/>
<text text-anchor="middle" x="2720.02" y="-577.8" font-family="Times-Roman" font-size="14.00">This can be text or URL for an ID like ORCID</text>
</g>
<!-- Rfile:///home/fils/src/Projects/OIH/odis&#45;arch/schema/thematics/expinst/graphs/ID_value_string&#45;&gt;LThis can be text or URL for an ID like ORCID -->
<g id="edge12" class="edge">
<title>Rfile:///home/fils/src/Projects/OIH/odis&#45;arch/schema/thematics/expinst/graphs/ID_value_string&#45;&gt;LThis can be text or URL for an ID like ORCID</title>
<path fill="none" stroke="black" stroke-dasharray="1,5" d="M2027.4,-563.07C2204.14,-567.78 2408.87,-573.23 2549.47,-576.98"/>
<polygon fill="black" stroke="black" points="2549.39,-580.48 2559.48,-577.25 2549.58,-573.48 2549.39,-580.48"/>
<text text-anchor="middle" x="2274.02" y="-574.3" font-family="Times-Roman" font-size="14.00">schema:propertyID</text>
</g>
<!-- Lhttps://foo.org/linkToPropertyIDPage -->
<g id="node14" class="node">
<title>Lhttps://foo.org/linkToPropertyIDPage</title>
<polygon fill="none" stroke="black" points="2587.52,-508.5 2587.52,-544.5 2852.52,-544.5 2852.52,-508.5 2587.52,-508.5"/>
<text text-anchor="middle" x="2720.02" y="-522.8" font-family="Times-Roman" font-size="14.00">https://foo.org/linkToPropertyIDPage</text>
</g>
<!-- Rfile:///home/fils/src/Projects/OIH/odis&#45;arch/schema/thematics/expinst/graphs/ID_value_string&#45;&gt;Lhttps://foo.org/linkToPropertyIDPage -->
<g id="edge13" class="edge">
<title>Rfile:///home/fils/src/Projects/OIH/odis&#45;arch/schema/thematics/expinst/graphs/ID_value_string&#45;&gt;Lhttps://foo.org/linkToPropertyIDPage</title>
<path fill="none" stroke="black" stroke-dasharray="1,5" d="M2030.71,-544.19C2218.69,-539.36 2437.59,-533.73 2577.16,-530.15"/>
<polygon fill="black" stroke="black" points="2577.58,-533.64 2587.49,-529.88 2577.4,-526.64 2577.58,-533.64"/>
<text text-anchor="middle" x="2274.02" y="-542.3" font-family="Times-Roman" font-size="14.00">schema:url</text>
</g>
<!-- Rschema:Course -->
<g id="node15" class="node">
<title>Rschema:Course</title>
<ellipse fill="none" stroke="blue" cx="2720.02" cy="-471.5" rx="80.69" ry="18"/>
<text text-anchor="middle" x="2720.02" y="-467.8" font-family="Times-Roman" font-size="14.00">schema:Course</text>
</g>
<!-- Rhttps://raw.githubusercontent.com/iodepo/odis&#45;arch/schema&#45;dev/schema/thematics/training/graphs/course1.json&#45;&gt;Rschema:Course -->
<g id="edge14" class="edge">
<title>Rhttps://raw.githubusercontent.com/iodepo/odis&#45;arch/schema&#45;dev/schema/thematics/training/graphs/course1.json&#45;&gt;Rschema:Course</title>
<path fill="none" stroke="black" stroke-dasharray="1,5" d="M2125.36,-370.12C2151.5,-375.03 2173.16,-381.37 2188.02,-389.5 2200.04,-396.07 2194.49,-407.12 2206.02,-414.5 2264.74,-452.1 2290.91,-435.2 2360.02,-444.5 2451.87,-456.86 2557.76,-463.96 2630.61,-467.74"/>
<polygon fill="black" stroke="black" points="2630.5,-471.24 2640.66,-468.26 2630.85,-464.25 2630.5,-471.24"/>
<text text-anchor="middle" x="2274.02" y="-445.3" font-family="Times-Roman" font-size="14.00">rdfs:type</text>
</g>
<!-- LIn this course you will get an introduction to the main tools and ideas in the data scientist&#39;s toolbox... -->
<g id="node16" class="node">
<title>LIn this course you will get an introduction to the main tools and ideas in the data scientist&#39;s toolbox...</title>
<polygon fill="none" stroke="black" points="2360.02,-398.5 2360.02,-434.5 3080.02,-434.5 3080.02,-398.5 2360.02,-398.5"/>
<text text-anchor="middle" x="2720.02" y="-412.8" font-family="Times-Roman" font-size="14.00">In this course you will get an introduction to the main tools and ideas in the data scientist&#39;s toolbox...</text>
</g>
<!-- Rhttps://raw.githubusercontent.com/iodepo/odis&#45;arch/schema&#45;dev/schema/thematics/training/graphs/course1.json&#45;&gt;LIn this course you will get an introduction to the main tools and ideas in the data scientist&#39;s toolbox... -->
<g id="edge15" class="edge">
<title>Rhttps://raw.githubusercontent.com/iodepo/odis&#45;arch/schema&#45;dev/schema/thematics/training/graphs/course1.json&#45;&gt;LIn this course you will get an introduction to the main tools and ideas in the data scientist&#39;s toolbox...</title>
<path fill="none" stroke="black" stroke-dasharray="1,5" d="M1955.15,-376.51C2081.58,-383.13 2231.4,-390.97 2364.73,-397.95"/>
<polygon fill="black" stroke="black" points="2364.95,-401.47 2375.12,-398.5 2365.32,-394.48 2364.95,-401.47"/>
<text text-anchor="middle" x="2274.02" y="-399.3" font-family="Times-Roman" font-size="14.00">schema:description</text>
</g>
<!-- LURL to the course -->
<g id="node17" class="node">
<title>LURL to the course</title>
<polygon fill="none" stroke="black" points="2650.02,-343.5 2650.02,-379.5 2790.02,-379.5 2790.02,-343.5 2650.02,-343.5"/>
<text text-anchor="middle" x="2720.02" y="-357.8" font-family="Times-Roman" font-size="14.00">URL to the course</text>
</g>
<!-- Rhttps://raw.githubusercontent.com/iodepo/odis&#45;arch/schema&#45;dev/schema/thematics/training/graphs/course1.json&#45;&gt;LURL to the course -->
<g id="edge16" class="edge">
<title>Rhttps://raw.githubusercontent.com/iodepo/odis&#45;arch/schema&#45;dev/schema/thematics/training/graphs/course1.json&#45;&gt;LURL to the course</title>
<path fill="none" stroke="black" stroke-dasharray="1,5" d="M2188.33,-361.5C2364.42,-361.5 2541.31,-361.5 2639.85,-361.5"/>
<polygon fill="black" stroke="black" points="2640.02,-365 2650.02,-361.5 2640.02,-358 2640.02,-365"/>
<text text-anchor="middle" x="2274.02" y="-365.3" font-family="Times-Roman" font-size="14.00">schema:url</text>
</g>
<!-- Rschema:Text -->
<g id="node18" class="node">
<title>Rschema:Text</title>
<ellipse fill="none" stroke="blue" cx="2720.02" cy="-306.5" rx="66.89" ry="18"/>
<text text-anchor="middle" x="2720.02" y="-302.8" font-family="Times-Roman" font-size="14.00">schema:Text</text>
</g>
<!-- B_:b0&#45;&gt;Rschema:Text -->
<g id="edge17" class="edge">
<title>B_:b0&#45;&gt;Rschema:Text</title>
<path fill="none" stroke="black" stroke-dasharray="1,5" d="M1685.78,-307.48C1797.98,-307.38 2423.04,-306.78 2642.68,-306.57"/>
<polygon fill="black" stroke="black" points="2642.84,-310.07 2652.83,-306.56 2642.83,-303.07 2642.84,-310.07"/>
<text text-anchor="middle" x="2274.02" y="-310.3" font-family="Times-Roman" font-size="14.00">rdfs:type</text>
</g>
<!-- LInvasive species in brackish water -->
<g id="node19" class="node">
<title>LInvasive species in brackish water</title>
<polygon fill="none" stroke="black" points="2592.52,-233.5 2592.52,-269.5 2847.52,-269.5 2847.52,-233.5 2592.52,-233.5"/>
<text text-anchor="middle" x="2720.02" y="-247.8" font-family="Times-Roman" font-size="14.00">Invasive species in brackish water</text>
</g>
<!-- B_:b0&#45;&gt;LInvasive species in brackish water -->
<g id="edge18" class="edge">
<title>B_:b0&#45;&gt;LInvasive species in brackish water</title>
<path fill="none" stroke="black" stroke-dasharray="1,5" d="M1685.46,-306.63C1750.66,-303.3 1990.48,-291.03 2188.02,-280.5 2321.99,-273.36 2474.96,-264.98 2582.19,-259.07"/>
<polygon fill="black" stroke="black" points="2582.63,-262.55 2592.43,-258.51 2582.25,-255.56 2582.63,-262.55"/>
<text text-anchor="middle" x="2274.02" y="-282.3" font-family="Times-Roman" font-size="14.00">schema:description</text>
</g>
<!-- Rschema:URL -->
<g id="node20" class="node">
<title>Rschema:URL</title>
<ellipse fill="none" stroke="blue" cx="2720.02" cy="-196.5" rx="66.89" ry="18"/>
<text text-anchor="middle" x="2720.02" y="-192.8" font-family="Times-Roman" font-size="14.00">schema:URL</text>
</g>
<!-- B_:b1&#45;&gt;Rschema:URL -->
<g id="edge19" class="edge">
<title>B_:b1&#45;&gt;Rschema:URL</title>
<path fill="none" stroke="black" stroke-dasharray="1,5" d="M1685.46,-252.64C1750.66,-249.36 1990.49,-237.21 2188.02,-226.5 2350.7,-217.68 2541.37,-206.77 2644.18,-200.84"/>
<polygon fill="black" stroke="black" points="2644.67,-204.31 2654.45,-200.24 2644.27,-197.32 2644.67,-204.31"/>
<text text-anchor="middle" x="2274.02" y="-228.3" font-family="Times-Roman" font-size="14.00">rdfs:type</text>
</g>
<!-- Lhttps://www.wikidata.org/wiki/Q183368 -->
<g id="node21" class="node">
<title>Lhttps://www.wikidata.org/wiki/Q183368</title>
<polygon fill="none" stroke="black" points="2575.02,-123.5 2575.02,-159.5 2865.02,-159.5 2865.02,-123.5 2575.02,-123.5"/>
<text text-anchor="middle" x="2720.02" y="-137.8" font-family="Times-Roman" font-size="14.00">https://www.wikidata.org/wiki/Q183368</text>
</g>
<!-- B_:b1&#45;&gt;Lhttps://www.wikidata.org/wiki/Q183368 -->
<g id="edge20" class="edge">
<title>B_:b1&#45;&gt;Lhttps://www.wikidata.org/wiki/Q183368</title>
<path fill="none" stroke="black" stroke-dasharray="1,5" d="M1685.56,-254.65C1765.35,-259.71 2100.12,-277.49 2188.02,-226.5 2200.82,-219.08 2193.75,-206.77 2206.02,-198.5 2263.79,-159.59 2290.98,-178.67 2360.02,-169.5 2426.94,-160.62 2501.27,-154.25 2564.86,-149.85"/>
<polygon fill="black" stroke="black" points="2565.23,-153.33 2574.97,-149.16 2564.75,-146.35 2565.23,-153.33"/>
<text text-anchor="middle" x="2274.02" y="-202.3" font-family="Times-Roman" font-size="14.00">schema:url</text>
</g>
</g>
</svg>
