<?xml version="1.0" encoding="UTF-8" standalone="no"?>
<!DOCTYPE svg PUBLIC "-//W3C//DTD SVG 1.1//EN"
 "http://www.w3.org/Graphics/SVG/1.1/DTD/svg11.dtd">
<!-- Generated by graphviz version 2.43.0 (0)
 -->
<!-- Title: %3 Pages: 1 -->
<svg width="1028pt" height="206pt"
 viewBox="0.00 0.00 1027.73 206.00" xmlns="http://www.w3.org/2000/svg" xmlns:xlink="http://www.w3.org/1999/xlink">
<g id="graph0" class="graph" transform="scale(1 1) rotate(0) translate(4 202)">
<title>%3</title>
<polygon fill="white" stroke="transparent" points="-4,4 -4,-202 1023.73,-202 1023.73,4 -4,4"/>
<!-- Organization -->
<g id="node1" class="node">
<title>Organization</title>
<ellipse fill="none" stroke="#558855" cx="474.42" cy="-153" rx="70.69" ry="18"/>
<text text-anchor="middle" x="474.42" y="-149.3" font-family="Times,serif" font-size="14.00">Organization</text>
</g>
<!-- example.org/id/org/x -->
<g id="node2" class="node">
<title>example.org/id/org/x</title>
<ellipse fill="none" stroke="black" cx="106.59" cy="-126" rx="106.68" ry="18"/>
<text text-anchor="middle" x="106.59" y="-122.3" font-family="Times,serif" font-size="14.00">example.org/id/org/x</text>
</g>
<!-- example.org/id/org/x&#45;&gt;Organization -->
<g id="edge1" class="edge">
<title>example.org/id/org/x&#45;&gt;Organization</title>
<path fill="none" stroke="black" d="M204.66,-133.16C264.55,-137.58 340.3,-143.18 396.11,-147.29"/>
<polygon fill="black" stroke="black" points="396.06,-150.8 406.29,-148.05 396.57,-143.82 396.06,-150.8"/>
<text text-anchor="middle" x="264.18" y="-142.8" font-family="Times,serif" font-size="14.00">type</text>
</g>
<!-- grid.ac/institutes/grid.475727.4 -->
<g id="node3" class="node">
<title>grid.ac/institutes/grid.475727.4</title>
<ellipse fill="none" stroke="#558855" cx="474.42" cy="-99" rx="159.47" ry="18"/>
<text text-anchor="middle" x="474.42" y="-95.3" font-family="Times,serif" font-size="14.00">grid.ac/institutes/grid.475727.4</text>
</g>
<!-- example.org/id/org/x&#45;&gt;grid.ac/institutes/grid.475727.4 -->
<g id="edge2" class="edge">
<title>example.org/id/org/x&#45;&gt;grid.ac/institutes/grid.475727.4</title>
<path fill="none" stroke="black" d="M202.72,-118.2C212.33,-117.44 221.95,-116.7 231.18,-116 262.29,-113.65 295.65,-111.24 327.36,-109"/>
<polygon fill="black" stroke="black" points="327.87,-112.47 337.59,-108.28 327.37,-105.49 327.87,-112.47"/>
<text text-anchor="middle" x="264.18" y="-119.8" font-family="Times,serif" font-size="14.00">identifier</text>
</g>
<!-- PropertyValue -->
<g id="node4" class="node">
<title>PropertyValue</title>
<ellipse fill="none" stroke="#558855" cx="885.19" cy="-180" rx="77.19" ry="18"/>
<text text-anchor="middle" x="885.19" y="-176.3" font-family="Times,serif" font-size="14.00">PropertyValue</text>
</g>
<!-- grid.ac/institutes/grid.475727.4&#45;&gt;PropertyValue -->
<g id="edge3" class="edge">
<title>grid.ac/institutes/grid.475727.4&#45;&gt;PropertyValue</title>
<path fill="none" stroke="black" d="M578.43,-112.74C597,-116.3 616.05,-120.68 633.65,-126 642.03,-128.53 643.31,-131.36 651.65,-134 702.82,-150.21 762.21,-161.84 808.17,-169.35"/>
<polygon fill="black" stroke="black" points="807.63,-172.81 818.06,-170.94 808.74,-165.9 807.63,-172.81"/>
<text text-anchor="middle" x="692.15" y="-156.8" font-family="Times,serif" font-size="14.00">type</text>
</g>
<!-- &quot;UN Department of Eco...&quot; -->
<g id="node5" class="node">
<title>&quot;UN Department of Eco...&quot;</title>
<ellipse fill="none" stroke="black" stroke-width="0" cx="885.19" cy="-126" rx="134.58" ry="18"/>
<text text-anchor="middle" x="885.19" y="-122.3" font-family="Times,serif" font-size="14.00">&quot;UN Department of Eco...&quot;</text>
</g>
<!-- grid.ac/institutes/grid.475727.4&#45;&gt;&quot;UN Department of Eco...&quot; -->
<g id="edge4" class="edge">
<title>grid.ac/institutes/grid.475727.4&#45;&gt;&quot;UN Department of Eco...&quot;</title>
<path fill="none" stroke="black" d="M612.39,-108.05C658.11,-111.07 708.91,-114.42 754.11,-117.41"/>
<polygon fill="black" stroke="black" points="754.05,-120.91 764.26,-118.08 754.51,-113.93 754.05,-120.91"/>
<text text-anchor="middle" x="692.15" y="-118.8" font-family="Times,serif" font-size="14.00">description</text>
</g>
<!-- &quot;https//registry.iden...&quot; -->
<g id="node6" class="node">
<title>&quot;https//registry.iden...&quot;</title>
<ellipse fill="none" stroke="black" stroke-width="0" cx="885.19" cy="-72" rx="116.98" ry="18"/>
<text text-anchor="middle" x="885.19" y="-68.3" font-family="Times,serif" font-size="14.00">&quot;https//registry.iden...&quot;</text>
</g>
<!-- grid.ac/institutes/grid.475727.4&#45;&gt;&quot;https//registry.iden...&quot; -->
<g id="edge5" class="edge">
<title>grid.ac/institutes/grid.475727.4&#45;&gt;&quot;https//registry.iden...&quot;</title>
<path fill="none" stroke="black" d="M612.39,-89.95C662.64,-86.63 719.02,-82.91 767.34,-79.72"/>
<polygon fill="black" stroke="black" points="767.78,-83.2 777.53,-79.05 767.32,-76.21 767.78,-83.2"/>
<text text-anchor="middle" x="692.15" y="-90.8" font-family="Times,serif" font-size="14.00">propertyID</text>
</g>
<!-- &quot;https//grid.ac/insti...&quot; -->
<g id="node7" class="node">
<title>&quot;https//grid.ac/insti...&quot;</title>
<ellipse fill="none" stroke="black" stroke-width="0" cx="885.19" cy="-18" rx="114.28" ry="18"/>
<text text-anchor="middle" x="885.19" y="-14.3" font-family="Times,serif" font-size="14.00">&quot;https//grid.ac/insti...&quot;</text>
</g>
<!-- grid.ac/institutes/grid.475727.4&#45;&gt;&quot;https//grid.ac/insti...&quot; -->
<g id="edge6" class="edge">
<title>grid.ac/institutes/grid.475727.4&#45;&gt;&quot;https//grid.ac/insti...&quot;</title>
<path fill="none" stroke="black" d="M551.72,-83.23C582.72,-76.88 618.88,-69.52 651.65,-63 701.43,-53.1 757.25,-42.29 801.73,-33.74"/>
<polygon fill="black" stroke="black" points="802.46,-37.17 811.62,-31.84 801.14,-30.29 802.46,-37.17"/>
<text text-anchor="middle" x="692.15" y="-66.8" font-family="Times,serif" font-size="14.00">url</text>
</g>
</g>
</svg>
