<?xml version="1.0" encoding="UTF-8" standalone="no"?>
<!DOCTYPE svg PUBLIC "-//W3C//DTD SVG 1.1//EN"
 "http://www.w3.org/Graphics/SVG/1.1/DTD/svg11.dtd">
<!-- Generated by graphviz version 2.43.0 (0)
 -->
<!-- Title: %3 Pages: 1 -->
<svg width="720pt" height="132pt"
 viewBox="0.00 0.00 720.00 132.12" xmlns="http://www.w3.org/2000/svg" xmlns:xlink="http://www.w3.org/1999/xlink">
<g id="graph0" class="graph" transform="scale(1.56 1.56) rotate(0) translate(4 202)">
<title>%3</title>
<polygon fill="white" stroke="transparent" points="-4,4 -4,-202 1118.62,-202 1118.62,4 -4,4"/>
<!-- Person -->
<g id="node1" class="node">
<title>Person</title>
<ellipse fill="none" stroke="#558855" cx="436.72" cy="-153" rx="42.49" ry="18"/>
<text text-anchor="middle" x="436.72" y="-149.3" font-family="Times,serif" font-size="14.00">Person</text>
</g>
<!-- example.org/id/x -->
<g id="node2" class="node">
<title>example.org/id/x</title>
<ellipse fill="none" stroke="black" cx="88.39" cy="-126" rx="88.28" ry="18"/>
<text text-anchor="middle" x="88.39" y="-122.3" font-family="Times,serif" font-size="14.00">example.org/id/x</text>
</g>
<!-- example.org/id/x&#45;&gt;Person -->
<g id="edge1" class="edge">
<title>example.org/id/x&#45;&gt;Person</title>
<path fill="none" stroke="black" d="M171.47,-132.4C237.75,-137.57 328.93,-144.67 385.01,-149.05"/>
<polygon fill="black" stroke="black" points="384.82,-152.54 395.06,-149.83 385.36,-145.56 384.82,-152.54"/>
<text text-anchor="middle" x="227.78" y="-141.8" font-family="Times,serif" font-size="14.00">type</text>
</g>
<!-- orcid.org/0000&#45;0002&#45;2257&#45;9127 -->
<g id="node3" class="node">
<title>orcid.org/0000&#45;0002&#45;2257&#45;9127</title>
<ellipse fill="none" stroke="#558855" cx="436.72" cy="-99" rx="157.87" ry="18"/>
<text text-anchor="middle" x="436.72" y="-95.3" font-family="Times,serif" font-size="14.00">orcid.org/0000&#45;0002&#45;2257&#45;9127</text>
</g>
<!-- example.org/id/x&#45;&gt;orcid.org/0000&#45;0002&#45;2257&#45;9127 -->
<g id="edge2" class="edge">
<title>example.org/id/x&#45;&gt;orcid.org/0000&#45;0002&#45;2257&#45;9127</title>
<path fill="none" stroke="black" d="M166.78,-117.59C176.21,-116.66 185.71,-115.77 194.78,-115 224.34,-112.48 255.96,-110.13 286.25,-108.05"/>
<polygon fill="black" stroke="black" points="286.72,-111.52 296.46,-107.35 286.25,-104.54 286.72,-111.52"/>
<text text-anchor="middle" x="227.78" y="-118.8" font-family="Times,serif" font-size="14.00">identifier</text>
</g>
<!-- PropertyValue -->
<g id="node4" class="node">
<title>PropertyValue</title>
<ellipse fill="none" stroke="#558855" cx="913.14" cy="-180" rx="77.19" ry="18"/>
<text text-anchor="middle" x="913.14" y="-176.3" font-family="Times,serif" font-size="14.00">PropertyValue</text>
</g>
<!-- orcid.org/0000&#45;0002&#45;2257&#45;9127&#45;&gt;PropertyValue -->
<g id="edge3" class="edge">
<title>orcid.org/0000&#45;0002&#45;2257&#45;9127&#45;&gt;PropertyValue</title>
<path fill="none" stroke="black" d="M534.06,-113.2C554.2,-116.84 575.22,-121.12 594.66,-126 602.84,-128.05 604.52,-129.79 612.66,-132 685.58,-151.82 770.86,-164.5 831.72,-171.82"/>
<polygon fill="black" stroke="black" points="831.31,-175.3 841.65,-172.99 832.13,-168.35 831.31,-175.3"/>
<text text-anchor="middle" x="653.16" y="-151.8" font-family="Times,serif" font-size="14.00">type</text>
</g>
<!-- &quot;Optional description of this record...&quot; -->
<g id="node5" class="node">
<title>&quot;Optional description of this record...&quot;</title>
<ellipse fill="none" stroke="black" stroke-width="0" cx="913.14" cy="-126" rx="188.47" ry="18"/>
<text text-anchor="middle" x="913.14" y="-122.3" font-family="Times,serif" font-size="14.00">&quot;Optional description of this record...&quot;</text>
</g>
<!-- orcid.org/0000&#45;0002&#45;2257&#45;9127&#45;&gt;&quot;Optional description of this record...&quot; -->
<g id="edge4" class="edge">
<title>orcid.org/0000&#45;0002&#45;2257&#45;9127&#45;&gt;&quot;Optional description of this record...&quot;</title>
<path fill="none" stroke="black" d="M578.46,-107.01C629.27,-109.9 687.21,-113.2 740.38,-116.22"/>
<polygon fill="black" stroke="black" points="740.42,-119.73 750.6,-116.81 740.82,-112.74 740.42,-119.73"/>
<text text-anchor="middle" x="653.16" y="-116.8" font-family="Times,serif" font-size="14.00">description</text>
</g>
<!-- &quot;https//registry.identifiers.org/registry...&quot; -->
<g id="node6" class="node">
<title>&quot;https//registry.identifiers.org/registry...&quot;</title>
<ellipse fill="none" stroke="black" stroke-width="0" cx="913.14" cy="-72" rx="201.46" ry="18"/>
<text text-anchor="middle" x="913.14" y="-68.3" font-family="Times,serif" font-size="14.00">&quot;https//registry.identifiers.org/registry...&quot;</text>
</g>
<!-- orcid.org/0000&#45;0002&#45;2257&#45;9127&#45;&gt;&quot;https//registry.identifiers.org/registry...&quot; -->
<g id="edge5" class="edge">
<title>orcid.org/0000&#45;0002&#45;2257&#45;9127&#45;&gt;&quot;https//registry.identifiers.org/registry...&quot;</title>
<path fill="none" stroke="black" d="M578.46,-90.99C626.73,-88.24 681.44,-85.13 732.38,-82.23"/>
<polygon fill="black" stroke="black" points="732.73,-85.72 742.51,-81.65 732.33,-78.73 732.73,-85.72"/>
<text text-anchor="middle" x="653.16" y="-91.8" font-family="Times,serif" font-size="14.00">propertyID</text>
</g>
<!-- &quot;https//orcid.org/0000&#45;0002&#45;2257&#45;9127&quot; -->
<g id="node7" class="node">
<title>&quot;https//orcid.org/0000&#45;0002&#45;2257&#45;9127&quot;</title>
<ellipse fill="none" stroke="black" stroke-width="0" cx="913.14" cy="-18" rx="196.87" ry="18"/>
<text text-anchor="middle" x="913.14" y="-14.3" font-family="Times,serif" font-size="14.00">&quot;https//orcid.org/0000&#45;0002&#45;2257&#45;9127&quot;</text>
</g>
<!-- orcid.org/0000&#45;0002&#45;2257&#45;9127&#45;&gt;&quot;https//orcid.org/0000&#45;0002&#45;2257&#45;9127&quot; -->
<g id="edge6" class="edge">
<title>orcid.org/0000&#45;0002&#45;2257&#45;9127&#45;&gt;&quot;https//orcid.org/0000&#45;0002&#45;2257&#45;9127&quot;</title>
<path fill="none" stroke="black" d="M511.91,-83.11C566.89,-71.64 643.75,-56.25 711.66,-45 735.48,-41.05 760.98,-37.27 785.53,-33.86"/>
<polygon fill="black" stroke="black" points="786.18,-37.31 795.61,-32.48 785.23,-30.37 786.18,-37.31"/>
<text text-anchor="middle" x="653.16" y="-65.8" font-family="Times,serif" font-size="14.00">url</text>
</g>
</g>
</svg>
