<?xml version="1.0" encoding="UTF-8" standalone="no"?>
<!DOCTYPE svg PUBLIC "-//W3C//DTD SVG 1.1//EN"
 "http://www.w3.org/Graphics/SVG/1.1/DTD/svg11.dtd">
<!-- Generated by graphviz version 2.43.0 (0)
 -->
<!-- Title: %3 Pages: 1 -->
<svg width="720pt" height="142pt"
 viewBox="0.00 0.00 720.00 142.11" xmlns="http://www.w3.org/2000/svg" xmlns:xlink="http://www.w3.org/1999/xlink">
<g id="graph0" class="graph" transform="scale(1.83 1.83) rotate(0) translate(4 256)">
<title>%3</title>
<polygon fill="white" stroke="transparent" points="-4,4 -4,-256 1313.3,-256 1313.3,4 -4,4"/>
<!-- CreativeWork -->
<g id="node1" class="node">
<title>CreativeWork</title>
<ellipse fill="none" stroke="#558855" cx="514.26" cy="-180" rx="74.19" ry="18"/>
<text text-anchor="middle" x="514.26" y="-176.3" font-family="Times,serif" font-size="14.00">CreativeWork</text>
</g>
<!-- example.org/id/XYZ -->
<g id="node2" class="node">
<title>example.org/id/XYZ</title>
<ellipse fill="none" stroke="black" cx="101.39" cy="-153" rx="101.28" ry="18"/>
<text text-anchor="middle" x="101.39" y="-149.3" font-family="Times,serif" font-size="14.00">example.org/id/XYZ</text>
</g>
<!-- example.org/id/XYZ&#45;&gt;CreativeWork -->
<g id="edge1" class="edge">
<title>example.org/id/XYZ&#45;&gt;CreativeWork</title>
<path fill="none" stroke="black" d="M196.65,-159.19C267.86,-163.87 364.58,-170.23 432.31,-174.68"/>
<polygon fill="black" stroke="black" points="432.3,-178.19 442.51,-175.35 432.76,-171.2 432.3,-178.19"/>
<text text-anchor="middle" x="244.78" y="-166.8" font-family="Times,serif" font-size="14.00">type</text>
</g>
<!-- www.sample&#45;data&#45;repository.org/person/51317 -->
<g id="node3" class="node">
<title>www.sample&#45;data&#45;repository.org/person/51317</title>
<ellipse fill="none" stroke="#558855" cx="514.26" cy="-126" rx="227.46" ry="18"/>
<text text-anchor="middle" x="514.26" y="-122.3" font-family="Times,serif" font-size="14.00">www.sample&#45;data&#45;repository.org/person/51317</text>
</g>
<!-- example.org/id/XYZ&#45;&gt;www.sample&#45;data&#45;repository.org/person/51317 -->
<g id="edge2" class="edge">
<title>example.org/id/XYZ&#45;&gt;www.sample&#45;data&#45;repository.org/person/51317</title>
<path fill="none" stroke="black" d="M188.67,-143.75C199.47,-142.74 210.38,-141.79 220.78,-141 248.22,-138.91 277.13,-137.03 305.66,-135.37"/>
<polygon fill="black" stroke="black" points="305.95,-138.86 315.73,-134.79 305.55,-131.87 305.95,-138.86"/>
<text text-anchor="middle" x="244.78" y="-144.8" font-family="Times,serif" font-size="14.00">author</text>
</g>
<!-- Person -->
<g id="node4" class="node">
<title>Person</title>
<ellipse fill="none" stroke="#558855" cx="1087.02" cy="-234" rx="42.49" ry="18"/>
<text text-anchor="middle" x="1087.02" y="-230.3" font-family="Times,serif" font-size="14.00">Person</text>
</g>
<!-- www.sample&#45;data&#45;repository.org/person/51317&#45;&gt;Person -->
<g id="edge3" class="edge">
<title>www.sample&#45;data&#45;repository.org/person/51317&#45;&gt;Person</title>
<path fill="none" stroke="black" d="M701.59,-136.26C715.6,-140.6 729.16,-146.09 741.74,-153 752.82,-159.08 749.25,-167.97 759.74,-175 800.27,-202.16 817.01,-196.9 864.74,-207 922.52,-219.23 990.05,-226.48 1035.17,-230.33"/>
<polygon fill="black" stroke="black" points="1035.04,-233.83 1045.29,-231.17 1035.62,-226.86 1035.04,-233.83"/>
<text text-anchor="middle" x="803.24" y="-206.8" font-family="Times,serif" font-size="14.00">type</text>
</g>
<!-- &quot;Passow&quot; -->
<g id="node5" class="node">
<title>&quot;Passow&quot;</title>
<ellipse fill="none" stroke="black" stroke-width="0" cx="1087.02" cy="-180" rx="53.89" ry="18"/>
<text text-anchor="middle" x="1087.02" y="-176.3" font-family="Times,serif" font-size="14.00">&quot;Passow&quot;</text>
</g>
<!-- www.sample&#45;data&#45;repository.org/person/51317&#45;&gt;&quot;Passow&quot; -->
<g id="edge4" class="edge">
<title>www.sample&#45;data&#45;repository.org/person/51317&#45;&gt;&quot;Passow&quot;</title>
<path fill="none" stroke="black" d="M661.14,-139.8C778.88,-150.94 938.66,-166.06 1024.84,-174.21"/>
<polygon fill="black" stroke="black" points="1024.69,-177.71 1034.98,-175.17 1025.35,-170.74 1024.69,-177.71"/>
<text text-anchor="middle" x="803.24" y="-159.8" font-family="Times,serif" font-size="14.00">familyName</text>
</g>
<!-- &quot;Uta&quot; -->
<g id="node6" class="node">
<title>&quot;Uta&quot;</title>
<ellipse fill="none" stroke="black" stroke-width="0" cx="1087.02" cy="-126" rx="36.29" ry="18"/>
<text text-anchor="middle" x="1087.02" y="-122.3" font-family="Times,serif" font-size="14.00">&quot;Uta&quot;</text>
</g>
<!-- www.sample&#45;data&#45;repository.org/person/51317&#45;&gt;&quot;Uta&quot; -->
<g id="edge5" class="edge">
<title>www.sample&#45;data&#45;repository.org/person/51317&#45;&gt;&quot;Uta&quot;</title>
<path fill="none" stroke="black" d="M742.07,-126C852.57,-126 975.3,-126 1040.1,-126"/>
<polygon fill="black" stroke="black" points="1040.38,-129.5 1050.38,-126 1040.38,-122.5 1040.38,-129.5"/>
<text text-anchor="middle" x="803.24" y="-129.8" font-family="Times,serif" font-size="14.00">givenName</text>
</g>
<!-- &quot;Dr Uta Passow&quot; -->
<g id="node7" class="node">
<title>&quot;Dr Uta Passow&quot;</title>
<ellipse fill="none" stroke="black" stroke-width="0" cx="1087.02" cy="-72" rx="88.28" ry="18"/>
<text text-anchor="middle" x="1087.02" y="-68.3" font-family="Times,serif" font-size="14.00">&quot;Dr Uta Passow&quot;</text>
</g>
<!-- www.sample&#45;data&#45;repository.org/person/51317&#45;&gt;&quot;Dr Uta Passow&quot; -->
<g id="edge6" class="edge">
<title>www.sample&#45;data&#45;repository.org/person/51317&#45;&gt;&quot;Dr Uta Passow&quot;</title>
<path fill="none" stroke="black" d="M661.14,-112.2C766.88,-102.19 906.52,-88.98 996.31,-80.49"/>
<polygon fill="black" stroke="black" points="996.84,-83.95 1006.46,-79.53 996.18,-76.98 996.84,-83.95"/>
<text text-anchor="middle" x="803.24" y="-105.8" font-family="Times,serif" font-size="14.00">name</text>
</g>
<!-- &quot;https//www.sample&#45;data&#45;repository.org/pe...&quot; -->
<g id="node8" class="node">
<title>&quot;https//www.sample&#45;data&#45;repository.org/pe...&quot;</title>
<ellipse fill="none" stroke="black" stroke-width="0" cx="1087.02" cy="-18" rx="222.06" ry="18"/>
<text text-anchor="middle" x="1087.02" y="-14.3" font-family="Times,serif" font-size="14.00">&quot;https//www.sample&#45;data&#45;repository.org/pe...&quot;</text>
</g>
<!-- www.sample&#45;data&#45;repository.org/person/51317&#45;&gt;&quot;https//www.sample&#45;data&#45;repository.org/pe...&quot; -->
<g id="edge7" class="edge">
<title>www.sample&#45;data&#45;repository.org/person/51317&#45;&gt;&quot;https//www.sample&#45;data&#45;repository.org/pe...&quot;</title>
<path fill="none" stroke="black" d="M580.21,-108.76C650.07,-90.74 764.61,-62.66 864.74,-45 889.14,-40.7 915.16,-36.86 940.48,-33.52"/>
<polygon fill="black" stroke="black" points="941.06,-36.98 950.52,-32.22 940.16,-30.03 941.06,-36.98"/>
<text text-anchor="middle" x="803.24" y="-67.8" font-family="Times,serif" font-size="14.00">url</text>
</g>
</g>
</svg>
