<?xml version="1.0" encoding="UTF-8" standalone="no"?>
<!DOCTYPE svg PUBLIC "-//W3C//DTD SVG 1.1//EN"
 "http://www.w3.org/Graphics/SVG/1.1/DTD/svg11.dtd">
<!-- Generated by graphviz version 2.43.0 (0)
 -->
<!-- Title: %3 Pages: 1 -->
<svg width="720pt" height="344pt"
 viewBox="0.00 0.00 720.00 343.90" xmlns="http://www.w3.org/2000/svg" xmlns:xlink="http://www.w3.org/1999/xlink">
<g id="graph0" class="graph" transform="scale(1.54 1.54) rotate(0) translate(4 526)">
<title>%3</title>
<polygon fill="white" stroke="transparent" points="-4,4 -4,-526 1105.63,-526 1105.63,4 -4,4"/>
<!-- Vehicle -->
<g id="node1" class="node">
<title>Vehicle</title>
<ellipse fill="none" stroke="#558855" cx="403.97" cy="-450" rx="44.39" ry="18"/>
<text text-anchor="middle" x="403.97" y="-446.3" font-family="Times,serif" font-size="14.00">Vehicle</text>
</g>
<!-- example.org/id/X -->
<g id="node2" class="node">
<title>example.org/id/X</title>
<ellipse fill="none" stroke="black" cx="89.04" cy="-369" rx="89.08" ry="18"/>
<text text-anchor="middle" x="89.04" y="-365.3" font-family="Times,serif" font-size="14.00">example.org/id/X</text>
</g>
<!-- example.org/id/X&#45;&gt;Vehicle -->
<g id="edge1" class="edge">
<title>example.org/id/X&#45;&gt;Vehicle</title>
<path fill="none" stroke="black" d="M136.83,-384.28C155.22,-390.09 176.57,-396.61 196.08,-402 249.77,-416.82 312.13,-430.86 354.24,-439.88"/>
<polygon fill="black" stroke="black" points="353.71,-443.35 364.22,-442.01 355.17,-436.5 353.71,-443.35"/>
<text text-anchor="middle" x="230.58" y="-422.8" font-family="Times,serif" font-size="14.00">type</text>
</g>
<!-- example.org/id/vessel/X -->
<g id="node3" class="node">
<title>example.org/id/vessel/X</title>
<ellipse fill="none" stroke="#558855" cx="403.97" cy="-396" rx="120.78" ry="18"/>
<text text-anchor="middle" x="403.97" y="-392.3" font-family="Times,serif" font-size="14.00">example.org/id/vessel/X</text>
</g>
<!-- example.org/id/X&#45;&gt;example.org/id/vessel/X -->
<g id="edge2" class="edge">
<title>example.org/id/X&#45;&gt;example.org/id/vessel/X</title>
<path fill="none" stroke="black" d="M171.44,-376.02C207.19,-379.11 249.78,-382.78 288.62,-386.13"/>
<polygon fill="black" stroke="black" points="288.68,-389.65 298.94,-387.02 289.28,-382.68 288.68,-389.65"/>
<text text-anchor="middle" x="230.58" y="-386.8" font-family="Times,serif" font-size="14.00">identifier</text>
</g>
<!-- &quot;JOIDES Resolution&quot; -->
<g id="node4" class="node">
<title>&quot;JOIDES Resolution&quot;</title>
<ellipse fill="none" stroke="black" stroke-width="0" cx="403.97" cy="-342" rx="106.68" ry="18"/>
<text text-anchor="middle" x="403.97" y="-338.3" font-family="Times,serif" font-size="14.00">&quot;JOIDES Resolution&quot;</text>
</g>
<!-- example.org/id/X&#45;&gt;&quot;JOIDES Resolution&quot; -->
<g id="edge3" class="edge">
<title>example.org/id/X&#45;&gt;&quot;JOIDES Resolution&quot;</title>
<path fill="none" stroke="black" d="M169.94,-361.36C178.76,-360.55 187.61,-359.75 196.08,-359 228.8,-356.11 264.45,-353.13 296.78,-350.48"/>
<polygon fill="black" stroke="black" points="297.48,-353.93 307.16,-349.63 296.91,-346.96 297.48,-353.93"/>
<text text-anchor="middle" x="230.58" y="-362.8" font-family="Times,serif" font-size="14.00">name</text>
</g>
<!-- _ -->
<g id="node5" class="node">
<title>_</title>
<ellipse fill="none" stroke="#558855" cx="403.97" cy="-180" rx="27" ry="18"/>
<text text-anchor="middle" x="403.97" y="-176.3" font-family="Times,serif" font-size="14.00">_</text>
</g>
<!-- example.org/id/X&#45;&gt;_ -->
<g id="edge4" class="edge">
<title>example.org/id/X&#45;&gt;_</title>
<path fill="none" stroke="black" d="M118.36,-351.89C177.77,-316.01 314.83,-233.23 374.43,-197.24"/>
<polygon fill="black" stroke="black" points="376.56,-200.04 383.31,-191.88 372.94,-194.05 376.56,-200.04"/>
<text text-anchor="middle" x="230.58" y="-305.8" font-family="Times,serif" font-size="14.00">subjectOf</text>
</g>
<!-- PropertyValue -->
<g id="node6" class="node">
<title>PropertyValue</title>
<ellipse fill="none" stroke="#558855" cx="889.74" cy="-504" rx="77.19" ry="18"/>
<text text-anchor="middle" x="889.74" y="-500.3" font-family="Times,serif" font-size="14.00">PropertyValue</text>
</g>
<!-- example.org/id/vessel/X&#45;&gt;PropertyValue -->
<g id="edge5" class="edge">
<title>example.org/id/vessel/X&#45;&gt;PropertyValue</title>
<path fill="none" stroke="black" d="M492.61,-408.29C503.96,-411.99 515.04,-416.78 524.86,-423 535.83,-429.94 531.91,-439.04 542.86,-446 621.38,-495.91 729.41,-506.9 803.73,-507.66"/>
<polygon fill="black" stroke="black" points="803.98,-511.16 813.99,-507.7 804,-504.16 803.98,-511.16"/>
<text text-anchor="middle" x="601.36" y="-494.8" font-family="Times,serif" font-size="14.00">type</text>
</g>
<!-- &quot;Vessel ID &quot; -->
<g id="node7" class="node">
<title>&quot;Vessel ID &quot;</title>
<ellipse fill="none" stroke="black" stroke-width="0" cx="889.74" cy="-450" rx="65.79" ry="18"/>
<text text-anchor="middle" x="889.74" y="-446.3" font-family="Times,serif" font-size="14.00">&quot;Vessel ID &quot;</text>
</g>
<!-- example.org/id/vessel/X&#45;&gt;&quot;Vessel ID &quot; -->
<g id="edge6" class="edge">
<title>example.org/id/vessel/X&#45;&gt;&quot;Vessel ID &quot;</title>
<path fill="none" stroke="black" d="M491.71,-408.44C508.66,-410.73 526.31,-413.02 542.86,-415 637.54,-426.31 747.08,-436.99 817.09,-443.51"/>
<polygon fill="black" stroke="black" points="816.85,-447 827.13,-444.44 817.49,-440.03 816.85,-447"/>
<text text-anchor="middle" x="601.36" y="-430.8" font-family="Times,serif" font-size="14.00">description</text>
</g>
<!-- &quot;https//en.wikipedia.org/wiki/IMO_number&quot; -->
<g id="node8" class="node">
<title>&quot;https//en.wikipedia.org/wiki/IMO_number&quot;</title>
<ellipse fill="none" stroke="black" stroke-width="0" cx="889.74" cy="-396" rx="211.76" ry="18"/>
<text text-anchor="middle" x="889.74" y="-392.3" font-family="Times,serif" font-size="14.00">&quot;https//en.wikipedia.org/wiki/IMO_number&quot;</text>
</g>
<!-- example.org/id/vessel/X&#45;&gt;&quot;https//en.wikipedia.org/wiki/IMO_number&quot; -->
<g id="edge7" class="edge">
<title>example.org/id/vessel/X&#45;&gt;&quot;https//en.wikipedia.org/wiki/IMO_number&quot;</title>
<path fill="none" stroke="black" d="M524.87,-396C568.06,-396 618.29,-396 667.38,-396"/>
<polygon fill="black" stroke="black" points="667.5,-399.5 677.5,-396 667.5,-392.5 667.5,-399.5"/>
<text text-anchor="middle" x="601.36" y="-399.8" font-family="Times,serif" font-size="14.00">propertyID</text>
</g>
<!-- &quot;https//example.org/id/vessel/X&quot; -->
<g id="node9" class="node">
<title>&quot;https//example.org/id/vessel/X&quot;</title>
<ellipse fill="none" stroke="black" stroke-width="0" cx="889.74" cy="-342" rx="159.77" ry="18"/>
<text text-anchor="middle" x="889.74" y="-338.3" font-family="Times,serif" font-size="14.00">&quot;https//example.org/id/vessel/X&quot;</text>
</g>
<!-- example.org/id/vessel/X&#45;&gt;&quot;https//example.org/id/vessel/X&quot; -->
<g id="edge8" class="edge">
<title>example.org/id/vessel/X&#45;&gt;&quot;https//example.org/id/vessel/X&quot;</title>
<path fill="none" stroke="black" d="M491.71,-383.56C508.66,-381.27 526.31,-378.98 542.86,-377 612.83,-368.64 690.92,-360.63 755.17,-354.38"/>
<polygon fill="black" stroke="black" points="755.75,-357.84 765.36,-353.39 755.07,-350.88 755.75,-357.84"/>
<text text-anchor="middle" x="601.36" y="-380.8" font-family="Times,serif" font-size="14.00">url</text>
</g>
<!-- DataDownload -->
<g id="node10" class="node">
<title>DataDownload</title>
<ellipse fill="none" stroke="#558855" cx="889.74" cy="-288" rx="78.79" ry="18"/>
<text text-anchor="middle" x="889.74" y="-284.3" font-family="Times,serif" font-size="14.00">DataDownload</text>
</g>
<!-- _&#45;&gt;DataDownload -->
<g id="edge9" class="edge">
<title>_&#45;&gt;DataDownload</title>
<path fill="none" stroke="black" d="M427.62,-189.18C454.71,-199.94 501.59,-217.83 542.86,-230 601.91,-247.41 617.26,-250.19 677.86,-261 720.48,-268.6 768.31,-274.91 807.64,-279.51"/>
<polygon fill="black" stroke="black" points="807.37,-283 817.7,-280.67 808.17,-276.04 807.37,-283"/>
<text text-anchor="middle" x="601.36" y="-260.8" font-family="Times,serif" font-size="14.00">type</text>
</g>
<!-- &quot;2019&#45;06&#45;12T144415Z&quot; -->
<g id="node11" class="node">
<title>&quot;2019&#45;06&#45;12T144415Z&quot;</title>
<ellipse fill="none" stroke="black" stroke-width="0" cx="889.74" cy="-234" rx="119.68" ry="18"/>
<text text-anchor="middle" x="889.74" y="-230.3" font-family="Times,serif" font-size="14.00">&quot;2019&#45;06&#45;12T144415Z&quot;</text>
</g>
<!-- _&#45;&gt;&quot;2019&#45;06&#45;12T144415Z&quot; -->
<g id="edge10" class="edge">
<title>_&#45;&gt;&quot;2019&#45;06&#45;12T144415Z&quot;</title>
<path fill="none" stroke="black" d="M430.61,-183.81C458.27,-187.86 503.63,-194.31 542.86,-199 620.96,-208.33 709.17,-217.23 776.96,-223.72"/>
<polygon fill="black" stroke="black" points="776.95,-227.23 787.24,-224.7 777.61,-220.27 776.95,-227.23"/>
<text text-anchor="middle" x="601.36" y="-214.8" font-family="Times,serif" font-size="14.00">dateModified</text>
</g>
<!-- &quot;Metadata describing the vessel&quot; -->
<g id="node12" class="node">
<title>&quot;Metadata describing the vessel&quot;</title>
<ellipse fill="none" stroke="black" stroke-width="0" cx="889.74" cy="-180" rx="165.17" ry="18"/>
<text text-anchor="middle" x="889.74" y="-176.3" font-family="Times,serif" font-size="14.00">&quot;Metadata describing the vessel&quot;</text>
</g>
<!-- _&#45;&gt;&quot;Metadata describing the vessel&quot; -->
<g id="edge11" class="edge">
<title>_&#45;&gt;&quot;Metadata describing the vessel&quot;</title>
<path fill="none" stroke="black" d="M430.98,-180C484.03,-180 608.63,-180 714.46,-180"/>
<polygon fill="black" stroke="black" points="714.65,-183.5 724.64,-180 714.64,-176.5 714.65,-183.5"/>
<text text-anchor="middle" x="601.36" y="-183.8" font-family="Times,serif" font-size="14.00">description</text>
</g>
<!-- &quot;application/xml&quot; -->
<g id="node13" class="node">
<title>&quot;application/xml&quot;</title>
<ellipse fill="none" stroke="black" stroke-width="0" cx="889.74" cy="-126" rx="90.98" ry="18"/>
<text text-anchor="middle" x="889.74" y="-122.3" font-family="Times,serif" font-size="14.00">&quot;application/xml&quot;</text>
</g>
<!-- _&#45;&gt;&quot;application/xml&quot; -->
<g id="edge12" class="edge">
<title>_&#45;&gt;&quot;application/xml&quot;</title>
<path fill="none" stroke="black" d="M430.61,-176.19C458.27,-172.14 503.63,-165.69 542.86,-161 628.83,-150.73 727.05,-140.98 796.81,-134.39"/>
<polygon fill="black" stroke="black" points="797.26,-137.87 806.89,-133.44 796.6,-130.9 797.26,-137.87"/>
<text text-anchor="middle" x="601.36" y="-164.8" font-family="Times,serif" font-size="14.00">encodingFormat</text>
</g>
<!-- &quot;https//foo.org/ship01&quot; -->
<g id="node14" class="node">
<title>&quot;https//foo.org/ship01&quot;</title>
<ellipse fill="none" stroke="black" stroke-width="0" cx="889.74" cy="-72" rx="116.18" ry="18"/>
<text text-anchor="middle" x="889.74" y="-68.3" font-family="Times,serif" font-size="14.00">&quot;https//foo.org/ship01&quot;</text>
</g>
<!-- _&#45;&gt;&quot;https//foo.org/ship01&quot; -->
<g id="edge13" class="edge">
<title>_&#45;&gt;&quot;https//foo.org/ship01&quot;</title>
<path fill="none" stroke="black" d="M427.59,-170.56C454.65,-159.51 501.48,-141.19 542.86,-129 621.04,-105.97 712.07,-91.44 781.12,-82.81"/>
<polygon fill="black" stroke="black" points="781.64,-86.28 791.14,-81.58 780.79,-79.33 781.64,-86.28"/>
<text text-anchor="middle" x="601.36" y="-132.8" font-family="Times,serif" font-size="14.00">encodingFormat</text>
</g>
<!-- &quot;external&#45;metadata.xml&quot; -->
<g id="node15" class="node">
<title>&quot;external&#45;metadata.xml&quot;</title>
<ellipse fill="none" stroke="black" stroke-width="0" cx="889.74" cy="-18" rx="124.58" ry="18"/>
<text text-anchor="middle" x="889.74" y="-14.3" font-family="Times,serif" font-size="14.00">&quot;external&#45;metadata.xml&quot;</text>
</g>
<!-- _&#45;&gt;&quot;external&#45;metadata.xml&quot; -->
<g id="edge14" class="edge">
<title>_&#45;&gt;&quot;external&#45;metadata.xml&quot;</title>
<path fill="none" stroke="black" d="M421.22,-165.76C445.9,-144.82 495.02,-105.74 542.86,-83 611.75,-50.25 695.71,-33.99 763.65,-25.92"/>
<polygon fill="black" stroke="black" points="764.45,-29.35 773.99,-24.74 763.65,-22.39 764.45,-29.35"/>
<text text-anchor="middle" x="601.36" y="-86.8" font-family="Times,serif" font-size="14.00">name</text>
</g>
</g>
</svg>
