<?xml version="1.0" encoding="UTF-8" standalone="no"?>
<!DOCTYPE svg PUBLIC "-//W3C//DTD SVG 1.1//EN"
 "http://www.w3.org/Graphics/SVG/1.1/DTD/svg11.dtd">
<!-- Generated by graphviz version 2.43.0 (0)
 -->
<!-- Title: %3 Pages: 1 -->
<svg width="720pt" height="333pt"
 viewBox="0.00 0.00 720.00 332.87" xmlns="http://www.w3.org/2000/svg" xmlns:xlink="http://www.w3.org/1999/xlink">
<g id="graph0" class="graph" transform="scale(1.75 1.75) rotate(0) translate(4 580)">
<title>%3</title>
<polygon fill="white" stroke="transparent" points="-4,4 -4,-580 1259.21,-580 1259.21,4 -4,4"/>
<!-- Organization -->
<g id="node1" class="node">
<title>Organization</title>
<ellipse fill="none" stroke="#558855" cx="1026.43" cy="-558" rx="70.69" ry="18"/>
<text text-anchor="middle" x="1026.43" y="-554.3" font-family="Times,serif" font-size="14.00">Organization</text>
</g>
<!-- example.org/id/org/x -->
<g id="node2" class="node">
<title>example.org/id/org/x</title>
<ellipse fill="none" stroke="black" cx="106.59" cy="-254" rx="106.68" ry="18"/>
<text text-anchor="middle" x="106.59" y="-250.3" font-family="Times,serif" font-size="14.00">example.org/id/org/x</text>
</g>
<!-- example.org/id/org/x&#45;&gt;Organization -->
<g id="edge1" class="edge">
<title>example.org/id/org/x&#45;&gt;Organization</title>
<path fill="none" stroke="black" d="M124.55,-272.08C147.12,-295.31 189.1,-335.79 231.18,-362 409.24,-472.9 461.83,-498.75 666.65,-544 761.7,-565 874.29,-565.59 947.65,-562.86"/>
<polygon fill="black" stroke="black" points="947.89,-566.35 957.74,-562.45 947.6,-559.35 947.89,-566.35"/>
<text text-anchor="middle" x="489.42" y="-542.8" font-family="Times,serif" font-size="14.00">type</text>
</g>
<!-- _ -->
<g id="node3" class="node">
<title>_</title>
<ellipse fill="none" stroke="#558855" cx="489.42" cy="-349" rx="27" ry="18"/>
<text text-anchor="middle" x="489.42" y="-345.3" font-family="Times,serif" font-size="14.00">_</text>
</g>
<!-- example.org/id/org/x&#45;&gt;_ -->
<g id="edge2" class="edge">
<title>example.org/id/org/x&#45;&gt;_</title>
<path fill="none" stroke="black" d="M130.23,-271.65C153.93,-289.06 192.97,-314.78 231.18,-327 307.11,-351.27 401.69,-352.44 452.36,-350.89"/>
<polygon fill="black" stroke="black" points="452.62,-354.38 462.49,-350.52 452.37,-347.39 452.62,-354.38"/>
<text text-anchor="middle" x="271.68" y="-346.8" font-family="Times,serif" font-size="14.00">address</text>
</g>
<!-- example.org/id/org/x&#45;&gt;_ -->
<g id="edge6" class="edge">
<title>example.org/id/org/x&#45;&gt;_</title>
<path fill="none" stroke="black" d="M163.5,-269.24C184.67,-274.93 209.01,-281.37 231.18,-287 310.58,-307.16 404.17,-329.32 453.66,-340.91"/>
<polygon fill="black" stroke="black" points="453,-344.35 463.54,-343.22 454.59,-337.53 453,-344.35"/>
<text text-anchor="middle" x="271.68" y="-309.8" font-family="Times,serif" font-size="14.00">member</text>
</g>
<!-- &quot;Description of org ...&quot; -->
<g id="node4" class="node">
<title>&quot;Description of org ...&quot;</title>
<ellipse fill="none" stroke="black" stroke-width="0" cx="489.42" cy="-281" rx="115.08" ry="18"/>
<text text-anchor="middle" x="489.42" y="-277.3" font-family="Times,serif" font-size="14.00">&quot;Description of org ...&quot;</text>
</g>
<!-- example.org/id/org/x&#45;&gt;&quot;Description of org ...&quot; -->
<g id="edge3" class="edge">
<title>example.org/id/org/x&#45;&gt;&quot;Description of org ...&quot;</title>
<path fill="none" stroke="black" d="M205.17,-260.92C256.72,-264.57 320.29,-269.08 374.14,-272.9"/>
<polygon fill="black" stroke="black" points="374.2,-276.41 384.42,-273.63 374.69,-269.43 374.2,-276.41"/>
<text text-anchor="middle" x="271.68" y="-271.8" font-family="Times,serif" font-size="14.00">description</text>
</g>
<!-- &quot;secretariat(at)example.org&quot; -->
<g id="node5" class="node">
<title>&quot;secretariat(at)example.org&quot;</title>
<ellipse fill="none" stroke="black" stroke-width="0" cx="489.42" cy="-227" rx="143.77" ry="18"/>
<text text-anchor="middle" x="489.42" y="-223.3" font-family="Times,serif" font-size="14.00">&quot;secretariat(at)example.org&quot;</text>
</g>
<!-- example.org/id/org/x&#45;&gt;&quot;secretariat(at)example.org&quot; -->
<g id="edge4" class="edge">
<title>example.org/id/org/x&#45;&gt;&quot;secretariat(at)example.org&quot;</title>
<path fill="none" stroke="black" d="M202.72,-246.16C212.33,-245.41 221.95,-244.68 231.18,-244 269.9,-241.15 311.92,-238.28 350.55,-235.74"/>
<polygon fill="black" stroke="black" points="351.07,-239.21 360.82,-235.06 350.61,-232.22 351.07,-239.21"/>
<text text-anchor="middle" x="271.68" y="-247.8" font-family="Times,serif" font-size="14.00">email</text>
</g>
<!-- grid.ac/institutes/grid.475727.4 -->
<g id="node6" class="node">
<title>grid.ac/institutes/grid.475727.4</title>
<ellipse fill="none" stroke="#558855" cx="489.42" cy="-173" rx="159.47" ry="18"/>
<text text-anchor="middle" x="489.42" y="-169.3" font-family="Times,serif" font-size="14.00">grid.ac/institutes/grid.475727.4</text>
</g>
<!-- example.org/id/org/x&#45;&gt;grid.ac/institutes/grid.475727.4 -->
<g id="edge5" class="edge">
<title>example.org/id/org/x&#45;&gt;grid.ac/institutes/grid.475727.4</title>
<path fill="none" stroke="black" d="M159.35,-238.27C181.37,-231.85 207.42,-224.63 231.18,-219 280.94,-207.2 336.76,-196.87 383.65,-189.01"/>
<polygon fill="black" stroke="black" points="384.23,-192.46 393.52,-187.37 383.08,-185.56 384.23,-192.46"/>
<text text-anchor="middle" x="271.68" y="-222.8" font-family="Times,serif" font-size="14.00">identifier</text>
</g>
<!-- &quot;Organization X&quot; -->
<g id="node7" class="node">
<title>&quot;Organization X&quot;</title>
<ellipse fill="none" stroke="black" stroke-width="0" cx="489.42" cy="-119" rx="89.08" ry="18"/>
<text text-anchor="middle" x="489.42" y="-115.3" font-family="Times,serif" font-size="14.00">&quot;Organization X&quot;</text>
</g>
<!-- example.org/id/org/x&#45;&gt;&quot;Organization X&quot; -->
<g id="edge7" class="edge">
<title>example.org/id/org/x&#45;&gt;&quot;Organization X&quot;</title>
<path fill="none" stroke="black" d="M134.87,-236.59C159.47,-221.32 196.92,-199.11 231.18,-183 273.69,-163.01 284.83,-158.23 330.18,-146 353.84,-139.62 379.92,-134.44 403.96,-130.38"/>
<polygon fill="black" stroke="black" points="404.83,-133.79 414.13,-128.71 403.69,-126.88 404.83,-133.79"/>
<text text-anchor="middle" x="271.68" y="-186.8" font-family="Times,serif" font-size="14.00">name</text>
</g>
<!-- &quot;( 33 1) 42 68 53 00&quot; -->
<g id="node8" class="node">
<title>&quot;( 33 1) 42 68 53 00&quot;</title>
<ellipse fill="none" stroke="black" stroke-width="0" cx="489.42" cy="-65" rx="108.58" ry="18"/>
<text text-anchor="middle" x="489.42" y="-61.3" font-family="Times,serif" font-size="14.00">&quot;( 33 1) 42 68 53 00&quot;</text>
</g>
<!-- example.org/id/org/x&#45;&gt;&quot;( 33 1) 42 68 53 00&quot; -->
<g id="edge8" class="edge">
<title>example.org/id/org/x&#45;&gt;&quot;( 33 1) 42 68 53 00&quot;</title>
<path fill="none" stroke="black" d="M121.81,-236.01C143.15,-210.01 185.83,-161.81 231.18,-132 277.28,-101.7 336.41,-85.09 386.35,-75.99"/>
<polygon fill="black" stroke="black" points="386.96,-79.44 396.21,-74.27 385.76,-72.54 386.96,-79.44"/>
<text text-anchor="middle" x="271.68" y="-135.8" font-family="Times,serif" font-size="14.00">telephone</text>
</g>
<!-- _&#45;&gt;Organization -->
<g id="edge13" class="edge">
<title>_&#45;&gt;Organization</title>
<path fill="none" stroke="black" d="M505.01,-364.12C533.5,-392.81 599.64,-455.49 666.65,-491 720.44,-519.5 738.08,-518.48 797.65,-531 847.18,-541.41 903.68,-548.14 948.01,-552.28"/>
<polygon fill="black" stroke="black" points="947.87,-555.78 958.14,-553.2 948.5,-548.81 947.87,-555.78"/>
<text text-anchor="middle" x="723.15" y="-530.8" font-family="Times,serif" font-size="14.00">type</text>
</g>
<!-- &quot;Org A is a potential parent organization...&quot; -->
<g id="node13" class="node">
<title>&quot;Org A is a potential parent organization...&quot;</title>
<ellipse fill="none" stroke="black" stroke-width="0" cx="1026.43" cy="-504" rx="213.36" ry="18"/>
<text text-anchor="middle" x="1026.43" y="-500.3" font-family="Times,serif" font-size="14.00">&quot;Org A is a potential parent organization...&quot;</text>
</g>
<!-- _&#45;&gt;&quot;Org A is a potential parent organization...&quot; -->
<g id="edge14" class="edge">
<title>_&#45;&gt;&quot;Org A is a potential parent organization...&quot;</title>
<path fill="none" stroke="black" d="M510.23,-360.48C542.29,-378.72 607.89,-414.63 666.65,-438 723.1,-460.45 738.16,-464.71 797.65,-477 821.39,-481.9 846.71,-486 871.53,-489.4"/>
<polygon fill="black" stroke="black" points="871.38,-492.91 881.75,-490.76 872.31,-485.97 871.38,-492.91"/>
<text text-anchor="middle" x="723.15" y="-475.8" font-family="Times,serif" font-size="14.00">description</text>
</g>
<!-- &quot;Organization A&quot; -->
<g id="node14" class="node">
<title>&quot;Organization A&quot;</title>
<ellipse fill="none" stroke="black" stroke-width="0" cx="1026.43" cy="-450" rx="89.08" ry="18"/>
<text text-anchor="middle" x="1026.43" y="-446.3" font-family="Times,serif" font-size="14.00">&quot;Organization A&quot;</text>
</g>
<!-- _&#45;&gt;&quot;Organization A&quot; -->
<g id="edge15" class="edge">
<title>_&#45;&gt;&quot;Organization A&quot;</title>
<path fill="none" stroke="black" d="M514.9,-355.27C548.9,-363.95 612.37,-380.01 666.65,-393 724.74,-406.9 738.8,-412.8 797.65,-423 842.6,-430.79 892.93,-437.01 934.83,-441.51"/>
<polygon fill="black" stroke="black" points="934.7,-445.02 945.01,-442.59 935.44,-438.06 934.7,-445.02"/>
<text text-anchor="middle" x="723.15" y="-422.8" font-family="Times,serif" font-size="14.00">name</text>
</g>
<!-- PostalAddress -->
<g id="node15" class="node">
<title>PostalAddress</title>
<ellipse fill="none" stroke="#558855" cx="1026.43" cy="-396" rx="76.89" ry="18"/>
<text text-anchor="middle" x="1026.43" y="-392.3" font-family="Times,serif" font-size="14.00">PostalAddress</text>
</g>
<!-- _&#45;&gt;PostalAddress -->
<g id="edge16" class="edge">
<title>_&#45;&gt;PostalAddress</title>
<path fill="none" stroke="black" d="M516.39,-351.39C550.77,-354.55 613.25,-360.27 666.65,-365 761.82,-373.43 871.21,-382.84 943.94,-389.06"/>
<polygon fill="black" stroke="black" points="943.69,-392.55 953.95,-389.92 944.28,-385.58 943.69,-392.55"/>
<text text-anchor="middle" x="723.15" y="-377.8" font-family="Times,serif" font-size="14.00">type</text>
</g>
<!-- &quot;Paris, France&quot; -->
<g id="node16" class="node">
<title>&quot;Paris, France&quot;</title>
<ellipse fill="none" stroke="black" stroke-width="0" cx="1026.43" cy="-342" rx="81.49" ry="18"/>
<text text-anchor="middle" x="1026.43" y="-338.3" font-family="Times,serif" font-size="14.00">&quot;Paris, France&quot;</text>
</g>
<!-- _&#45;&gt;&quot;Paris, France&quot; -->
<g id="edge17" class="edge">
<title>_&#45;&gt;&quot;Paris, France&quot;</title>
<path fill="none" stroke="black" d="M516.58,-348.66C591.58,-347.68 809.87,-344.82 934.83,-343.19"/>
<polygon fill="black" stroke="black" points="935.19,-346.68 945.14,-343.05 935.1,-339.68 935.19,-346.68"/>
<text text-anchor="middle" x="723.15" y="-349.8" font-family="Times,serif" font-size="14.00">addressLocality</text>
</g>
<!-- &quot;F&#45;75002&quot; -->
<g id="node17" class="node">
<title>&quot;F&#45;75002&quot;</title>
<ellipse fill="none" stroke="black" stroke-width="0" cx="1026.43" cy="-288" rx="57.69" ry="18"/>
<text text-anchor="middle" x="1026.43" y="-284.3" font-family="Times,serif" font-size="14.00">&quot;F&#45;75002&quot;</text>
</g>
<!-- _&#45;&gt;&quot;F&#45;75002&quot; -->
<g id="edge18" class="edge">
<title>_&#45;&gt;&quot;F&#45;75002&quot;</title>
<path fill="none" stroke="black" d="M516.08,-345.45C550.36,-340.76 613.03,-332.34 666.65,-326 769.37,-313.86 888.85,-301.57 960.73,-294.38"/>
<polygon fill="black" stroke="black" points="961.38,-297.83 970.99,-293.35 960.69,-290.86 961.38,-297.83"/>
<text text-anchor="middle" x="723.15" y="-329.8" font-family="Times,serif" font-size="14.00">postalCode</text>
</g>
<!-- &quot;38 avenue de l&#39;Opera&quot; -->
<g id="node18" class="node">
<title>&quot;38 avenue de l&#39;Opera&quot;</title>
<ellipse fill="none" stroke="black" stroke-width="0" cx="1026.43" cy="-234" rx="118.08" ry="18"/>
<text text-anchor="middle" x="1026.43" y="-230.3" font-family="Times,serif" font-size="14.00">&quot;38 avenue de l&#39;Opera&quot;</text>
</g>
<!-- _&#45;&gt;&quot;38 avenue de l&#39;Opera&quot; -->
<g id="edge19" class="edge">
<title>_&#45;&gt;&quot;38 avenue de l&#39;Opera&quot;</title>
<path fill="none" stroke="black" d="M516.2,-345.61C548.48,-340.65 604.86,-329.55 648.65,-308 657.75,-303.53 657.54,-298.44 666.65,-294 738.74,-258.83 827.6,-243.79 898.86,-237.56"/>
<polygon fill="black" stroke="black" points="899.56,-241.02 909.24,-236.7 898.98,-234.04 899.56,-241.02"/>
<text text-anchor="middle" x="723.15" y="-297.8" font-family="Times,serif" font-size="14.00">streetAddress</text>
</g>
<!-- PropertyValue -->
<g id="node9" class="node">
<title>PropertyValue</title>
<ellipse fill="none" stroke="#558855" cx="1026.43" cy="-180" rx="77.19" ry="18"/>
<text text-anchor="middle" x="1026.43" y="-176.3" font-family="Times,serif" font-size="14.00">PropertyValue</text>
</g>
<!-- grid.ac/institutes/grid.475727.4&#45;&gt;PropertyValue -->
<g id="edge9" class="edge">
<title>grid.ac/institutes/grid.475727.4&#45;&gt;PropertyValue</title>
<path fill="none" stroke="black" d="M647.68,-175.06C742.69,-176.3 860.17,-177.84 938.66,-178.86"/>
<polygon fill="black" stroke="black" points="938.95,-182.37 948.99,-179 939.04,-175.37 938.95,-182.37"/>
<text text-anchor="middle" x="723.15" y="-179.8" font-family="Times,serif" font-size="14.00">type</text>
</g>
<!-- &quot;UN Department of Economic and Social Aff...&quot; -->
<g id="node10" class="node">
<title>&quot;UN Department of Economic and Social Aff...&quot;</title>
<ellipse fill="none" stroke="black" stroke-width="0" cx="1026.43" cy="-126" rx="228.56" ry="18"/>
<text text-anchor="middle" x="1026.43" y="-122.3" font-family="Times,serif" font-size="14.00">&quot;UN Department of Economic and Social Aff...&quot;</text>
</g>
<!-- grid.ac/institutes/grid.475727.4&#45;&gt;&quot;UN Department of Economic and Social Aff...&quot; -->
<g id="edge10" class="edge">
<title>grid.ac/institutes/grid.475727.4&#45;&gt;&quot;UN Department of Economic and Social Aff...&quot;</title>
<path fill="none" stroke="black" d="M610.32,-161.23C629.17,-159.44 648.44,-157.64 666.65,-156 728.3,-150.45 795.93,-144.7 855.7,-139.75"/>
<polygon fill="black" stroke="black" points="856.32,-143.21 865.99,-138.89 855.74,-136.23 856.32,-143.21"/>
<text text-anchor="middle" x="723.15" y="-159.8" font-family="Times,serif" font-size="14.00">description</text>
</g>
<!-- &quot;https//registry.identifiers.org/registry...&quot; -->
<g id="node11" class="node">
<title>&quot;https//registry.identifiers.org/registry...&quot;</title>
<ellipse fill="none" stroke="black" stroke-width="0" cx="1026.43" cy="-72" rx="201.46" ry="18"/>
<text text-anchor="middle" x="1026.43" y="-68.3" font-family="Times,serif" font-size="14.00">&quot;https//registry.identifiers.org/registry...&quot;</text>
</g>
<!-- grid.ac/institutes/grid.475727.4&#45;&gt;&quot;https//registry.identifiers.org/registry...&quot; -->
<g id="edge11" class="edge">
<title>grid.ac/institutes/grid.475727.4&#45;&gt;&quot;https//registry.identifiers.org/registry...&quot;</title>
<path fill="none" stroke="black" d="M609.86,-161.21C623.38,-157.4 636.61,-152.44 648.65,-146 658.91,-140.52 656.51,-132.69 666.65,-127 713.11,-100.92 768.02,-86.07 820.73,-77.87"/>
<polygon fill="black" stroke="black" points="821.51,-81.29 830.89,-76.37 820.48,-74.37 821.51,-81.29"/>
<text text-anchor="middle" x="723.15" y="-130.8" font-family="Times,serif" font-size="14.00">propertyID</text>
</g>
<!-- &quot;https//grid.ac/institutes/grid.475727.4&quot; -->
<g id="node12" class="node">
<title>&quot;https//grid.ac/institutes/grid.475727.4&quot;</title>
<ellipse fill="none" stroke="black" stroke-width="0" cx="1026.43" cy="-18" rx="198.47" ry="18"/>
<text text-anchor="middle" x="1026.43" y="-14.3" font-family="Times,serif" font-size="14.00">&quot;https//grid.ac/institutes/grid.475727.4&quot;</text>
</g>
<!-- grid.ac/institutes/grid.475727.4&#45;&gt;&quot;https//grid.ac/institutes/grid.475727.4&quot; -->
<g id="edge12" class="edge">
<title>grid.ac/institutes/grid.475727.4&#45;&gt;&quot;https//grid.ac/institutes/grid.475727.4&quot;</title>
<path fill="none" stroke="black" d="M623.25,-163.09C632.53,-158.69 641.16,-153.09 648.65,-146 674.81,-121.25 640.47,-91.72 666.65,-67 731.21,-6.06 833.71,2.56 912.65,-1.96"/>
<polygon fill="black" stroke="black" points="912.44,-5.46 922.65,-2.61 912.9,1.53 912.44,-5.46"/>
<text text-anchor="middle" x="723.15" y="-70.8" font-family="Times,serif" font-size="14.00">url</text>
</g>
</g>
</svg>
