<?xml version="1.0" encoding="UTF-8" standalone="no"?>
<!DOCTYPE svg PUBLIC "-//W3C//DTD SVG 1.1//EN"
 "http://www.w3.org/Graphics/SVG/1.1/DTD/svg11.dtd">
<!-- Generated by graphviz version 2.43.0 (0)
 -->
<!-- Title: %3 Pages: 1 -->
<svg width="1169pt" height="908pt"
 viewBox="0.00 0.00 1169.32 908.00" xmlns="http://www.w3.org/2000/svg" xmlns:xlink="http://www.w3.org/1999/xlink">
<g id="graph0" class="graph" transform="scale(1 1) rotate(0) translate(4 904)">
<title>%3</title>
<polygon fill="white" stroke="transparent" points="-4,4 -4,-904 1165.32,-904 1165.32,4 -4,4"/>
<!-- Organization -->
<g id="node1" class="node">
<title>Organization</title>
<ellipse fill="none" stroke="#558855" cx="1030.03" cy="-882" rx="70.69" ry="18"/>
<text text-anchor="middle" x="1030.03" y="-878.3" font-family="Times,serif" font-size="14.00">Organization</text>
</g>
<!-- www.foo.org/orgID -->
<g id="node2" class="node">
<title>www.foo.org/orgID</title>
<ellipse fill="none" stroke="#558855" cx="548.26" cy="-828" rx="98.28" ry="18"/>
<text text-anchor="middle" x="548.26" y="-824.3" font-family="Times,serif" font-size="14.00">www.foo.org/orgID</text>
</g>
<!-- www.foo.org/orgID&#45;&gt;Organization -->
<g id="edge1" class="edge">
<title>www.foo.org/orgID&#45;&gt;Organization</title>
<path fill="none" stroke="black" d="M632.28,-837.34C723.22,-847.58 867.72,-863.84 954.95,-873.66"/>
<polygon fill="black" stroke="black" points="954.71,-877.16 965.03,-874.8 955.49,-870.2 954.71,-877.16"/>
<text text-anchor="middle" x="837.24" y="-867.8" font-family="Times,serif" font-size="14.00">type</text>
</g>
<!-- &quot;Some Institute&quot; -->
<g id="node3" class="node">
<title>&quot;Some Institute&quot;</title>
<ellipse fill="none" stroke="black" stroke-width="0" cx="1030.03" cy="-828" rx="88.28" ry="18"/>
<text text-anchor="middle" x="1030.03" y="-824.3" font-family="Times,serif" font-size="14.00">&quot;Some Institute&quot;</text>
</g>
<!-- www.foo.org/orgID&#45;&gt;&quot;Some Institute&quot; -->
<g id="edge2" class="edge">
<title>www.foo.org/orgID&#45;&gt;&quot;Some Institute&quot;</title>
<path fill="none" stroke="black" d="M646.64,-828C729.59,-828 848.21,-828 931.27,-828"/>
<polygon fill="black" stroke="black" points="931.48,-831.5 941.48,-828 931.48,-824.5 931.48,-831.5"/>
<text text-anchor="middle" x="837.24" y="-831.8" font-family="Times,serif" font-size="14.00">legalName</text>
</g>
<!-- PropertyValue -->
<g id="node4" class="node">
<title>PropertyValue</title>
<ellipse fill="none" stroke="#558855" cx="1030.03" cy="-666" rx="77.19" ry="18"/>
<text text-anchor="middle" x="1030.03" y="-662.3" font-family="Times,serif" font-size="14.00">PropertyValue</text>
</g>
<!-- doi.org/10.5066/F7VX0DMQ -->
<g id="node5" class="node">
<title>doi.org/10.5066/F7VX0DMQ</title>
<ellipse fill="none" stroke="#558855" cx="548.26" cy="-666" rx="141.88" ry="18"/>
<text text-anchor="middle" x="548.26" y="-662.3" font-family="Times,serif" font-size="14.00">doi.org/10.5066/F7VX0DMQ</text>
</g>
<!-- doi.org/10.5066/F7VX0DMQ&#45;&gt;PropertyValue -->
<g id="edge3" class="edge">
<title>doi.org/10.5066/F7VX0DMQ&#45;&gt;PropertyValue</title>
<path fill="none" stroke="black" d="M689.97,-666C771.66,-666 871.99,-666 942.23,-666"/>
<polygon fill="black" stroke="black" points="942.37,-669.5 952.37,-666 942.37,-662.5 942.37,-669.5"/>
<text text-anchor="middle" x="837.24" y="-669.8" font-family="Times,serif" font-size="14.00">type</text>
</g>
<!-- &quot;https//registry.iden...&quot; -->
<g id="node6" class="node">
<title>&quot;https//registry.iden...&quot;</title>
<ellipse fill="none" stroke="black" stroke-width="0" cx="1030.03" cy="-612" rx="116.98" ry="18"/>
<text text-anchor="middle" x="1030.03" y="-608.3" font-family="Times,serif" font-size="14.00">&quot;https//registry.iden...&quot;</text>
</g>
<!-- doi.org/10.5066/F7VX0DMQ&#45;&gt;&quot;https//registry.iden...&quot; -->
<g id="edge4" class="edge">
<title>doi.org/10.5066/F7VX0DMQ&#45;&gt;&quot;https//registry.iden...&quot;</title>
<path fill="none" stroke="black" d="M654.85,-654.12C735.15,-645.08 845.07,-632.71 924.98,-623.71"/>
<polygon fill="black" stroke="black" points="925.52,-627.17 935.07,-622.58 924.74,-620.22 925.52,-627.17"/>
<text text-anchor="middle" x="837.24" y="-640.8" font-family="Times,serif" font-size="14.00">propertyID</text>
</g>
<!-- &quot;https//doi.org/10.50...&quot; -->
<g id="node7" class="node">
<title>&quot;https//doi.org/10.50...&quot;</title>
<ellipse fill="none" stroke="black" stroke-width="0" cx="1030.03" cy="-774" rx="120.48" ry="18"/>
<text text-anchor="middle" x="1030.03" y="-770.3" font-family="Times,serif" font-size="14.00">&quot;https//doi.org/10.50...&quot;</text>
</g>
<!-- doi.org/10.5066/F7VX0DMQ&#45;&gt;&quot;https//doi.org/10.50...&quot; -->
<g id="edge5" class="edge">
<title>doi.org/10.5066/F7VX0DMQ&#45;&gt;&quot;https//doi.org/10.50...&quot;</title>
<path fill="none" stroke="black" d="M615.83,-681.92C686.07,-698.6 800.04,-725.34 898.74,-747 914.62,-750.49 931.62,-754.1 947.92,-757.5"/>
<polygon fill="black" stroke="black" points="947.46,-760.98 957.97,-759.59 948.89,-754.12 947.46,-760.98"/>
<text text-anchor="middle" x="837.24" y="-745.8" font-family="Times,serif" font-size="14.00">url</text>
</g>
<!-- &quot;doi10.5066/F7VX0DMQ&quot; -->
<g id="node8" class="node">
<title>&quot;doi10.5066/F7VX0DMQ&quot;</title>
<ellipse fill="none" stroke="black" stroke-width="0" cx="1030.03" cy="-720" rx="129.18" ry="18"/>
<text text-anchor="middle" x="1030.03" y="-716.3" font-family="Times,serif" font-size="14.00">&quot;doi10.5066/F7VX0DMQ&quot;</text>
</g>
<!-- doi.org/10.5066/F7VX0DMQ&#45;&gt;&quot;doi10.5066/F7VX0DMQ&quot; -->
<g id="edge6" class="edge">
<title>doi.org/10.5066/F7VX0DMQ&#45;&gt;&quot;doi10.5066/F7VX0DMQ&quot;</title>
<path fill="none" stroke="black" d="M654.85,-677.88C733.16,-686.7 839.65,-698.68 919.01,-707.62"/>
<polygon fill="black" stroke="black" points="918.71,-711.1 929.03,-708.75 919.49,-704.15 918.71,-711.1"/>
<text text-anchor="middle" x="837.24" y="-705.8" font-family="Times,serif" font-size="14.00">value</text>
</g>
<!-- CreativeWork -->
<g id="node9" class="node">
<title>CreativeWork</title>
<ellipse fill="none" stroke="#558855" cx="548.26" cy="-502" rx="74.19" ry="18"/>
<text text-anchor="middle" x="548.26" y="-498.3" font-family="Times,serif" font-size="14.00">CreativeWork</text>
</g>
<!-- example.org/id/XYZ -->
<g id="node10" class="node">
<title>example.org/id/XYZ</title>
<ellipse fill="none" stroke="black" cx="101.39" cy="-421" rx="101.28" ry="18"/>
<text text-anchor="middle" x="101.39" y="-417.3" font-family="Times,serif" font-size="14.00">example.org/id/XYZ</text>
</g>
<!-- example.org/id/XYZ&#45;&gt;www.foo.org/orgID -->
<g id="edge9" class="edge">
<title>example.org/id/XYZ&#45;&gt;www.foo.org/orgID</title>
<path fill="none" stroke="black" d="M113.57,-439.04C143.01,-485.5 226.88,-611.32 320.78,-693 376.96,-741.87 453.18,-783.13 501.29,-806.73"/>
<polygon fill="black" stroke="black" points="500,-810 510.53,-811.22 503.06,-803.7 500,-810"/>
<text text-anchor="middle" x="261.78" y="-676.8" font-family="Times,serif" font-size="14.00">contributor</text>
</g>
<!-- example.org/id/XYZ&#45;&gt;doi.org/10.5066/F7VX0DMQ -->
<g id="edge11" class="edge">
<title>example.org/id/XYZ&#45;&gt;doi.org/10.5066/F7VX0DMQ</title>
<path fill="none" stroke="black" d="M131.43,-438.29C155.3,-452.41 190.07,-472.78 220.78,-490 321.75,-546.62 441.91,-610.51 504.52,-643.54"/>
<polygon fill="black" stroke="black" points="503.21,-646.81 513.69,-648.38 506.48,-640.62 503.21,-646.81"/>
<text text-anchor="middle" x="261.78" y="-537.8" font-family="Times,serif" font-size="14.00">identifier</text>
</g>
<!-- example.org/id/XYZ&#45;&gt;CreativeWork -->
<g id="edge7" class="edge">
<title>example.org/id/XYZ&#45;&gt;CreativeWork</title>
<path fill="none" stroke="black" d="M159.86,-435.72C179.2,-440.63 200.92,-446.1 220.78,-451 265.16,-461.95 275.79,-466.95 320.78,-475 369.51,-483.72 424.65,-490.36 468.33,-494.88"/>
<polygon fill="black" stroke="black" points="468.02,-498.36 478.32,-495.89 468.72,-491.4 468.02,-498.36"/>
<text text-anchor="middle" x="261.78" y="-474.8" font-family="Times,serif" font-size="14.00">type</text>
</g>
<!-- www.sample&#45;data&#45;repository.org/person/51317 -->
<g id="node11" class="node">
<title>www.sample&#45;data&#45;repository.org/person/51317</title>
<ellipse fill="none" stroke="#558855" cx="548.26" cy="-448" rx="227.46" ry="18"/>
<text text-anchor="middle" x="548.26" y="-444.3" font-family="Times,serif" font-size="14.00">www.sample&#45;data&#45;repository.org/person/51317</text>
</g>
<!-- example.org/id/XYZ&#45;&gt;www.sample&#45;data&#45;repository.org/person/51317 -->
<g id="edge8" class="edge">
<title>example.org/id/XYZ&#45;&gt;www.sample&#45;data&#45;repository.org/person/51317</title>
<path fill="none" stroke="black" d="M197.55,-426.78C244.05,-429.6 301.73,-433.1 356.75,-436.44"/>
<polygon fill="black" stroke="black" points="356.79,-439.95 366.98,-437.06 357.21,-432.96 356.79,-439.95"/>
<text text-anchor="middle" x="261.78" y="-435.8" font-family="Times,serif" font-size="14.00">author</text>
</g>
<!-- &quot;Description of the c...&quot; -->
<g id="node12" class="node">
<title>&quot;Description of the c...&quot;</title>
<ellipse fill="none" stroke="black" stroke-width="0" cx="548.26" cy="-394" rx="119.68" ry="18"/>
<text text-anchor="middle" x="548.26" y="-390.3" font-family="Times,serif" font-size="14.00">&quot;Description of the c...&quot;</text>
</g>
<!-- example.org/id/XYZ&#45;&gt;&quot;Description of the c...&quot; -->
<g id="edge10" class="edge">
<title>example.org/id/XYZ&#45;&gt;&quot;Description of the c...&quot;</title>
<path fill="none" stroke="black" d="M188.34,-411.73C199.25,-410.71 210.27,-409.77 220.78,-409 286.85,-404.14 360.56,-400.59 421.2,-398.17"/>
<polygon fill="black" stroke="black" points="421.35,-401.67 431.2,-397.78 421.07,-394.67 421.35,-401.67"/>
<text text-anchor="middle" x="261.78" y="-412.8" font-family="Times,serif" font-size="14.00">description</text>
</g>
<!-- _ -->
<g id="node13" class="node">
<title>_</title>
<ellipse fill="none" stroke="#558855" cx="548.26" cy="-180" rx="27" ry="18"/>
<text text-anchor="middle" x="548.26" y="-176.3" font-family="Times,serif" font-size="14.00">_</text>
</g>
<!-- example.org/id/XYZ&#45;&gt;_ -->
<g id="edge12" class="edge">
<title>example.org/id/XYZ&#45;&gt;_</title>
<path fill="none" stroke="black" d="M111.39,-402.93C128.29,-370.89 167.89,-304.23 220.78,-269 313.22,-207.43 447.19,-188.26 510.93,-182.44"/>
<polygon fill="black" stroke="black" points="511.6,-185.9 521.27,-181.56 511.01,-178.92 511.6,-185.9"/>
<text text-anchor="middle" x="261.78" y="-272.8" font-family="Times,serif" font-size="14.00">keywords</text>
</g>
<!-- &quot;Name or title of the...&quot; -->
<g id="node14" class="node">
<title>&quot;Name or title of the...&quot;</title>
<ellipse fill="none" stroke="black" stroke-width="0" cx="548.26" cy="-287" rx="120.48" ry="18"/>
<text text-anchor="middle" x="548.26" y="-283.3" font-family="Times,serif" font-size="14.00">&quot;Name or title of the...&quot;</text>
</g>
<!-- example.org/id/XYZ&#45;&gt;&quot;Name or title of the...&quot; -->
<g id="edge13" class="edge">
<title>example.org/id/XYZ&#45;&gt;&quot;Name or title of the...&quot;</title>
<path fill="none" stroke="black" d="M115.63,-402.76C135.31,-377.29 174.92,-331.95 220.78,-312 287.46,-283 369.01,-276.74 433.92,-277.73"/>
<polygon fill="black" stroke="black" points="434.12,-281.24 444.2,-277.95 434.27,-274.24 434.12,-281.24"/>
<text text-anchor="middle" x="261.78" y="-315.8" font-family="Times,serif" font-size="14.00">name</text>
</g>
<!-- &quot;https//www.sample&#45;da...&quot; -->
<g id="node15" class="node">
<title>&quot;https//www.sample&#45;da...&quot;</title>
<ellipse fill="none" stroke="black" stroke-width="0" cx="1030.03" cy="-342" rx="131.08" ry="18"/>
<text text-anchor="middle" x="1030.03" y="-338.3" font-family="Times,serif" font-size="14.00">&quot;https//www.sample&#45;da...&quot;</text>
</g>
<!-- example.org/id/XYZ&#45;&gt;&quot;https//www.sample&#45;da...&quot; -->
<g id="edge14" class="edge">
<title>example.org/id/XYZ&#45;&gt;&quot;https//www.sample&#45;da...&quot;</title>
<path fill="none" stroke="black" d="M142.58,-404.39C185.76,-387.48 256.8,-362.33 320.78,-352 523.07,-319.34 762.07,-324.96 904.3,-332.86"/>
<polygon fill="black" stroke="black" points="904.19,-336.36 914.37,-333.44 904.58,-329.37 904.19,-336.36"/>
<text text-anchor="middle" x="548.26" y="-355.8" font-family="Times,serif" font-size="14.00">url</text>
</g>
<!-- www.sample&#45;data&#45;repository.org/person/51317&#45;&gt;&quot;https//www.sample&#45;da...&quot; -->
<g id="edge19" class="edge">
<title>www.sample&#45;data&#45;repository.org/person/51317&#45;&gt;&quot;https//www.sample&#45;da...&quot;</title>
<path fill="none" stroke="black" d="M739.64,-438.21C752.32,-433.69 764.5,-428.04 775.74,-421 788.28,-413.15 781.63,-401.5 793.74,-393 832.92,-365.49 851.97,-379.19 898.74,-369 913.92,-365.69 930.12,-362.26 945.76,-358.99"/>
<polygon fill="black" stroke="black" points="946.85,-362.34 955.93,-356.88 945.43,-355.49 946.85,-362.34"/>
<text text-anchor="middle" x="837.24" y="-396.8" font-family="Times,serif" font-size="14.00">url</text>
</g>
<!-- Person -->
<g id="node16" class="node">
<title>Person</title>
<ellipse fill="none" stroke="#558855" cx="1030.03" cy="-396" rx="42.49" ry="18"/>
<text text-anchor="middle" x="1030.03" y="-392.3" font-family="Times,serif" font-size="14.00">Person</text>
</g>
<!-- www.sample&#45;data&#45;repository.org/person/51317&#45;&gt;Person -->
<g id="edge15" class="edge">
<title>www.sample&#45;data&#45;repository.org/person/51317&#45;&gt;Person</title>
<path fill="none" stroke="black" d="M683.22,-433.48C781.45,-422.83 909.33,-408.97 978.78,-401.45"/>
<polygon fill="black" stroke="black" points="979.44,-404.9 989,-400.34 978.69,-397.94 979.44,-404.9"/>
<text text-anchor="middle" x="837.24" y="-423.8" font-family="Times,serif" font-size="14.00">type</text>
</g>
<!-- &quot;Passow&quot; -->
<g id="node17" class="node">
<title>&quot;Passow&quot;</title>
<ellipse fill="none" stroke="black" stroke-width="0" cx="1030.03" cy="-558" rx="53.89" ry="18"/>
<text text-anchor="middle" x="1030.03" y="-554.3" font-family="Times,serif" font-size="14.00">&quot;Passow&quot;</text>
</g>
<!-- www.sample&#45;data&#45;repository.org/person/51317&#45;&gt;&quot;Passow&quot; -->
<g id="edge16" class="edge">
<title>www.sample&#45;data&#45;repository.org/person/51317&#45;&gt;&quot;Passow&quot;</title>
<path fill="none" stroke="black" d="M740.05,-457.69C752.59,-462.24 764.64,-467.93 775.74,-475 788.54,-483.15 781.52,-495.02 793.74,-504 832.58,-532.52 851.8,-520.11 898.74,-531 923.05,-536.64 950.04,-542.33 973.12,-547.02"/>
<polygon fill="black" stroke="black" points="972.59,-550.48 983.09,-549.03 973.98,-543.62 972.59,-550.48"/>
<text text-anchor="middle" x="837.24" y="-530.8" font-family="Times,serif" font-size="14.00">familyName</text>
</g>
<!-- &quot;Uta&quot; -->
<g id="node18" class="node">
<title>&quot;Uta&quot;</title>
<ellipse fill="none" stroke="black" stroke-width="0" cx="1030.03" cy="-504" rx="36.29" ry="18"/>
<text text-anchor="middle" x="1030.03" y="-500.3" font-family="Times,serif" font-size="14.00">&quot;Uta&quot;</text>
</g>
<!-- www.sample&#45;data&#45;repository.org/person/51317&#45;&gt;&quot;Uta&quot; -->
<g id="edge17" class="edge">
<title>www.sample&#45;data&#45;repository.org/person/51317&#45;&gt;&quot;Uta&quot;</title>
<path fill="none" stroke="black" d="M676.89,-462.9C778.54,-474.76 914.93,-490.68 984.36,-498.79"/>
<polygon fill="black" stroke="black" points="984.17,-502.29 994.51,-499.97 984.98,-495.33 984.17,-502.29"/>
<text text-anchor="middle" x="837.24" y="-488.8" font-family="Times,serif" font-size="14.00">givenName</text>
</g>
<!-- &quot;Dr Uta Passow&quot; -->
<g id="node19" class="node">
<title>&quot;Dr Uta Passow&quot;</title>
<ellipse fill="none" stroke="black" stroke-width="0" cx="1030.03" cy="-450" rx="88.28" ry="18"/>
<text text-anchor="middle" x="1030.03" y="-446.3" font-family="Times,serif" font-size="14.00">&quot;Dr Uta Passow&quot;</text>
</g>
<!-- www.sample&#45;data&#45;repository.org/person/51317&#45;&gt;&quot;Dr Uta Passow&quot; -->
<g id="edge18" class="edge">
<title>www.sample&#45;data&#45;repository.org/person/51317&#45;&gt;&quot;Dr Uta Passow&quot;</title>
<path fill="none" stroke="black" d="M775.45,-448.94C830.31,-449.17 886.12,-449.4 931.37,-449.59"/>
<polygon fill="black" stroke="black" points="931.44,-453.09 941.45,-449.63 931.47,-446.09 931.44,-453.09"/>
<text text-anchor="middle" x="837.24" y="-452.8" font-family="Times,serif" font-size="14.00">name</text>
</g>
<!-- _&#45;&gt;_ -->
<g id="edge25" class="edge">
<title>_&#45;&gt;_</title>
<path fill="none" stroke="black" d="M522.34,-185.67C478.18,-198.28 486.82,-216 548.26,-216 604.67,-216 616.57,-201.06 583.99,-188.87"/>
<polygon fill="black" stroke="black" points="584.78,-185.44 574.18,-185.67 582.61,-192.1 584.78,-185.44"/>
<text text-anchor="middle" x="548.26" y="-219.8" font-family="Times,serif" font-size="14.00">inDefinedTermSet</text>
</g>
<!-- DefinedTermSet -->
<g id="node20" class="node">
<title>DefinedTermSet</title>
<ellipse fill="none" stroke="#558855" cx="1030.03" cy="-288" rx="85.59" ry="18"/>
<text text-anchor="middle" x="1030.03" y="-284.3" font-family="Times,serif" font-size="14.00">DefinedTermSet</text>
</g>
<!-- _&#45;&gt;DefinedTermSet -->
<g id="edge20" class="edge">
<title>_&#45;&gt;DefinedTermSet</title>
<path fill="none" stroke="black" d="M573.79,-185.89C630.76,-199.53 776.47,-234.16 898.74,-261 917.86,-265.2 938.59,-269.57 957.78,-273.55"/>
<polygon fill="black" stroke="black" points="957.16,-276.99 967.66,-275.59 958.57,-270.14 957.16,-276.99"/>
<text text-anchor="middle" x="837.24" y="-259.8" font-family="Times,serif" font-size="14.00">type</text>
</g>
<!-- &quot;Description of the s...&quot; -->
<g id="node21" class="node">
<title>&quot;Description of the s...&quot;</title>
<ellipse fill="none" stroke="black" stroke-width="0" cx="1030.03" cy="-234" rx="119.68" ry="18"/>
<text text-anchor="middle" x="1030.03" y="-230.3" font-family="Times,serif" font-size="14.00">&quot;Description of the s...&quot;</text>
</g>
<!-- _&#45;&gt;&quot;Description of the s...&quot; -->
<g id="edge21" class="edge">
<title>_&#45;&gt;&quot;Description of the s...&quot;</title>
<path fill="none" stroke="black" d="M575.06,-182.9C639.58,-190.17 810.85,-209.44 923.6,-222.13"/>
<polygon fill="black" stroke="black" points="923.31,-225.62 933.64,-223.26 924.1,-218.67 923.31,-225.62"/>
<text text-anchor="middle" x="837.24" y="-220.8" font-family="Times,serif" font-size="14.00">description</text>
</g>
<!-- &quot;Name of the set&quot; -->
<g id="node22" class="node">
<title>&quot;Name of the set&quot;</title>
<ellipse fill="none" stroke="black" stroke-width="0" cx="1030.03" cy="-180" rx="93.68" ry="18"/>
<text text-anchor="middle" x="1030.03" y="-176.3" font-family="Times,serif" font-size="14.00">&quot;Name of the set&quot;</text>
</g>
<!-- _&#45;&gt;&quot;Name of the set&quot; -->
<g id="edge22" class="edge">
<title>_&#45;&gt;&quot;Name of the set&quot;</title>
<path fill="none" stroke="black" d="M575.4,-180C640.69,-180 813.77,-180 926.27,-180"/>
<polygon fill="black" stroke="black" points="926.29,-183.5 936.29,-180 926.29,-176.5 926.29,-183.5"/>
<text text-anchor="middle" x="837.24" y="-183.8" font-family="Times,serif" font-size="14.00">name</text>
</g>
<!-- &quot;url for the set&quot; -->
<g id="node23" class="node">
<title>&quot;url for the set&quot;</title>
<ellipse fill="none" stroke="black" stroke-width="0" cx="1030.03" cy="-126" rx="83.69" ry="18"/>
<text text-anchor="middle" x="1030.03" y="-122.3" font-family="Times,serif" font-size="14.00">&quot;url for the set&quot;</text>
</g>
<!-- _&#45;&gt;&quot;url for the set&quot; -->
<g id="edge23" class="edge">
<title>_&#45;&gt;&quot;url for the set&quot;</title>
<path fill="none" stroke="black" d="M575.06,-177.1C643.85,-169.35 834.02,-147.95 945.2,-135.44"/>
<polygon fill="black" stroke="black" points="945.83,-138.89 955.37,-134.29 945.04,-131.93 945.83,-138.89"/>
<text text-anchor="middle" x="837.24" y="-155.8" font-family="Times,serif" font-size="14.00">url</text>
</g>
<!-- DefinedTerm -->
<g id="node24" class="node">
<title>DefinedTerm</title>
<ellipse fill="none" stroke="#558855" cx="1030.03" cy="-72" rx="70.39" ry="18"/>
<text text-anchor="middle" x="1030.03" y="-68.3" font-family="Times,serif" font-size="14.00">DefinedTerm</text>
</g>
<!-- _&#45;&gt;DefinedTerm -->
<g id="edge24" class="edge">
<title>_&#45;&gt;DefinedTerm</title>
<path fill="none" stroke="black" d="M573.79,-174.11C630.76,-160.47 776.47,-125.84 898.74,-99 920.07,-94.32 943.41,-89.41 964.37,-85.09"/>
<polygon fill="black" stroke="black" points="965.36,-88.46 974.45,-83.01 963.95,-81.6 965.36,-88.46"/>
<text text-anchor="middle" x="837.24" y="-124.8" font-family="Times,serif" font-size="14.00">type</text>
</g>
<!-- &quot;A code that identifi...&quot; -->
<g id="node25" class="node">
<title>&quot;A code that identifi...&quot;</title>
<ellipse fill="none" stroke="black" stroke-width="0" cx="1030.03" cy="-18" rx="116.18" ry="18"/>
<text text-anchor="middle" x="1030.03" y="-14.3" font-family="Times,serif" font-size="14.00">&quot;A code that identifi...&quot;</text>
</g>
<!-- _&#45;&gt;&quot;A code that identifi...&quot; -->
<g id="edge26" class="edge">
<title>_&#45;&gt;&quot;A code that identifi...&quot;</title>
<path fill="none" stroke="black" d="M570.9,-170.16C625.08,-145.84 771.37,-82.2 898.74,-45 912.88,-40.87 928.07,-37.12 942.89,-33.82"/>
<polygon fill="black" stroke="black" points="944.06,-37.15 953.09,-31.61 942.57,-30.31 944.06,-37.15"/>
<text text-anchor="middle" x="837.24" y="-80.8" font-family="Times,serif" font-size="14.00">termCode</text>
</g>
</g>
</svg>
