<?xml version="1.0" encoding="UTF-8" standalone="no"?>
<!DOCTYPE svg PUBLIC "-//W3C//DTD SVG 1.1//EN"
 "http://www.w3.org/Graphics/SVG/1.1/DTD/svg11.dtd">
<!-- Generated by graphviz version 2.43.0 (0)
 -->
<!-- Title: %3 Pages: 1 -->
<svg width="1046pt" height="702pt"
 viewBox="0.00 0.00 1046.23 702.00" xmlns="http://www.w3.org/2000/svg" xmlns:xlink="http://www.w3.org/1999/xlink">
<g id="graph0" class="graph" transform="scale(1 1) rotate(0) translate(4 698)">
<title>%3</title>
<polygon fill="white" stroke="transparent" points="-4,4 -4,-698 1042.23,-698 1042.23,4 -4,4"/>
<!-- Course -->
<g id="node1" class="node">
<title>Course</title>
<ellipse fill="none" stroke="#558855" cx="537.27" cy="-483" rx="43.59" ry="18"/>
<text text-anchor="middle" x="537.27" y="-479.3" font-family="Times,serif" font-size="14.00">Course</text>
</g>
<!-- example.org/id/course/1 -->
<g id="node2" class="node">
<title>example.org/id/course/1</title>
<ellipse fill="none" stroke="black" cx="122.19" cy="-407" rx="122.38" ry="18"/>
<text text-anchor="middle" x="122.19" y="-403.3" font-family="Times,serif" font-size="14.00">example.org/id/course/1</text>
</g>
<!-- example.org/id/course/1&#45;&gt;Course -->
<g id="edge1" class="edge">
<title>example.org/id/course/1&#45;&gt;Course</title>
<path fill="none" stroke="black" d="M184.29,-422.56C208.51,-428.45 236.67,-434.94 262.38,-440 339.58,-455.19 429.86,-468.51 485.04,-476.16"/>
<polygon fill="black" stroke="black" points="484.88,-479.67 495.26,-477.57 485.83,-472.74 484.88,-479.67"/>
<text text-anchor="middle" x="330.38" y="-466.8" font-family="Times,serif" font-size="14.00">type</text>
</g>
<!-- &quot;In this course you w...&quot; -->
<g id="node3" class="node">
<title>&quot;In this course you w...&quot;</title>
<ellipse fill="none" stroke="black" stroke-width="0" cx="537.27" cy="-429" rx="120.78" ry="18"/>
<text text-anchor="middle" x="537.27" y="-425.3" font-family="Times,serif" font-size="14.00">&quot;In this course you w...&quot;</text>
</g>
<!-- example.org/id/course/1&#45;&gt;&quot;In this course you w...&quot; -->
<g id="edge2" class="edge">
<title>example.org/id/course/1&#45;&gt;&quot;In this course you w...&quot;</title>
<path fill="none" stroke="black" d="M237.43,-413.08C291.94,-415.99 357.26,-419.47 412.9,-422.43"/>
<polygon fill="black" stroke="black" points="413,-425.94 423.17,-422.98 413.37,-418.95 413,-425.94"/>
<text text-anchor="middle" x="330.38" y="-424.8" font-family="Times,serif" font-size="14.00">description</text>
</g>
<!-- _ -->
<g id="node4" class="node">
<title>_</title>
<ellipse fill="none" stroke="#558855" cx="537.27" cy="-342" rx="27" ry="18"/>
<text text-anchor="middle" x="537.27" y="-338.3" font-family="Times,serif" font-size="14.00">_</text>
</g>
<!-- example.org/id/course/1&#45;&gt;_ -->
<g id="edge3" class="edge">
<title>example.org/id/course/1&#45;&gt;_</title>
<path fill="none" stroke="black" d="M206.9,-393.99C261.44,-385.5 334.14,-374.14 398.38,-364 433.2,-358.5 472.96,-352.15 500.8,-347.69"/>
<polygon fill="black" stroke="black" points="501.54,-351.12 510.86,-346.08 500.43,-344.21 501.54,-351.12"/>
<text text-anchor="middle" x="330.38" y="-388.8" font-family="Times,serif" font-size="14.00">hasCourseInstance</text>
</g>
<!-- example.org/id/course/1&#45;&gt;_ -->
<g id="edge4" class="edge">
<title>example.org/id/course/1&#45;&gt;_</title>
<path fill="none" stroke="black" d="M152.92,-389.45C180.29,-374.36 222.58,-353.69 262.38,-345 346.05,-326.73 447.54,-332.68 500.38,-337.82"/>
<polygon fill="black" stroke="black" points="500.28,-341.32 510.58,-338.86 500.99,-334.36 500.28,-341.32"/>
<text text-anchor="middle" x="330.38" y="-348.8" font-family="Times,serif" font-size="14.00">hasCourseInstance</text>
</g>
<!-- _&#45;&gt;_ -->
<g id="edge11" class="edge">
<title>_&#45;&gt;_</title>
<path fill="none" stroke="black" d="M513.94,-351.22C493.94,-363.35 501.72,-378 537.27,-378 566.7,-378 577.1,-367.95 568.44,-357.61"/>
<polygon fill="black" stroke="black" points="570.56,-354.82 560.6,-351.22 566.14,-360.25 570.56,-354.82"/>
<text text-anchor="middle" x="537.27" y="-381.8" font-family="Times,serif" font-size="14.00">attendee</text>
</g>
<!-- Person -->
<g id="node5" class="node">
<title>Person</title>
<ellipse fill="none" stroke="#558855" cx="910.2" cy="-666" rx="42.49" ry="18"/>
<text text-anchor="middle" x="910.2" y="-662.3" font-family="Times,serif" font-size="14.00">Person</text>
</g>
<!-- _&#45;&gt;Person -->
<g id="edge5" class="edge">
<title>_&#45;&gt;Person</title>
<path fill="none" stroke="black" d="M563.3,-346.88C591.55,-353.84 636.37,-369.53 658.16,-402 687.83,-446.23 639.1,-602.75 676.16,-641 723.9,-690.28 809.86,-685.49 862.98,-676.47"/>
<polygon fill="black" stroke="black" points="863.6,-679.92 872.82,-674.69 862.35,-673.03 863.6,-679.92"/>
<text text-anchor="middle" x="720.16" y="-682.8" font-family="Times,serif" font-size="14.00">type</text>
</g>
<!-- &quot;Professor&quot; -->
<g id="node6" class="node">
<title>&quot;Professor&quot;</title>
<ellipse fill="none" stroke="black" stroke-width="0" cx="910.2" cy="-612" rx="63.89" ry="18"/>
<text text-anchor="middle" x="910.2" y="-608.3" font-family="Times,serif" font-size="14.00">&quot;Professor&quot;</text>
</g>
<!-- _&#45;&gt;&quot;Professor&quot; -->
<g id="edge6" class="edge">
<title>_&#45;&gt;&quot;Professor&quot;</title>
<path fill="none" stroke="black" d="M563.42,-347.04C591.55,-354.11 636.05,-369.89 658.16,-402 681.08,-435.29 647.93,-554.07 676.16,-583 719.62,-627.55 794.12,-629.28 847.18,-623.42"/>
<polygon fill="black" stroke="black" points="847.66,-626.88 857.16,-622.2 846.81,-619.94 847.66,-626.88"/>
<text text-anchor="middle" x="720.16" y="-625.8" font-family="Times,serif" font-size="14.00">jobTitle</text>
</g>
<!-- &quot;Jane Doe&quot; -->
<g id="node7" class="node">
<title>&quot;Jane Doe&quot;</title>
<ellipse fill="none" stroke="black" stroke-width="0" cx="910.2" cy="-558" rx="60.39" ry="18"/>
<text text-anchor="middle" x="910.2" y="-554.3" font-family="Times,serif" font-size="14.00">&quot;Jane Doe&quot;</text>
</g>
<!-- _&#45;&gt;&quot;Jane Doe&quot; -->
<g id="edge7" class="edge">
<title>_&#45;&gt;&quot;Jane Doe&quot;</title>
<path fill="none" stroke="black" d="M563.16,-347.23C591.04,-354.47 635.31,-370.41 658.16,-402 690.53,-446.77 637,-486.02 676.16,-525 720.14,-568.78 793.96,-572.23 846.73,-567.79"/>
<polygon fill="black" stroke="black" points="847.37,-571.25 856.99,-566.81 846.7,-564.28 847.37,-571.25"/>
<text text-anchor="middle" x="720.16" y="-567.8" font-family="Times,serif" font-size="14.00">name</text>
</g>
<!-- &quot;(425) 123&#45;4567&quot; -->
<g id="node8" class="node">
<title>&quot;(425) 123&#45;4567&quot;</title>
<ellipse fill="none" stroke="black" stroke-width="0" cx="910.2" cy="-504" rx="90.98" ry="18"/>
<text text-anchor="middle" x="910.2" y="-500.3" font-family="Times,serif" font-size="14.00">&quot;(425) 123&#45;4567&quot;</text>
</g>
<!-- _&#45;&gt;&quot;(425) 123&#45;4567&quot; -->
<g id="edge8" class="edge">
<title>_&#45;&gt;&quot;(425) 123&#45;4567&quot;</title>
<path fill="none" stroke="black" d="M563.22,-347.95C590.53,-355.76 633.67,-372.12 658.16,-402 677.43,-425.52 653.48,-447.75 676.16,-468 714.43,-502.18 771.08,-511.52 818.95,-512.15"/>
<polygon fill="black" stroke="black" points="819.02,-515.65 829.02,-512.16 819.02,-508.65 819.02,-515.65"/>
<text text-anchor="middle" x="720.16" y="-509.8" font-family="Times,serif" font-size="14.00">telephone</text>
</g>
<!-- &quot;http//www.janedoe.co...&quot; -->
<g id="node9" class="node">
<title>&quot;http//www.janedoe.co...&quot;</title>
<ellipse fill="none" stroke="black" stroke-width="0" cx="910.2" cy="-450" rx="128.08" ry="18"/>
<text text-anchor="middle" x="910.2" y="-446.3" font-family="Times,serif" font-size="14.00">&quot;http//www.janedoe.co...&quot;</text>
</g>
<!-- _&#45;&gt;&quot;http//www.janedoe.co...&quot; -->
<g id="edge9" class="edge">
<title>_&#45;&gt;&quot;http//www.janedoe.co...&quot;</title>
<path fill="none" stroke="black" d="M561.47,-350.39C586.84,-360.27 627.89,-378.36 658.16,-402 667.84,-409.57 665.3,-417.23 676.16,-423 705.49,-438.6 739.78,-447 772.9,-451.2"/>
<polygon fill="black" stroke="black" points="772.8,-454.71 783.14,-452.38 773.6,-447.76 772.8,-454.71"/>
<text text-anchor="middle" x="720.16" y="-452.8" font-family="Times,serif" font-size="14.00">url</text>
</g>
<!-- CourseInstance -->
<g id="node10" class="node">
<title>CourseInstance</title>
<ellipse fill="none" stroke="#558855" cx="910.2" cy="-396" rx="83.39" ry="18"/>
<text text-anchor="middle" x="910.2" y="-392.3" font-family="Times,serif" font-size="14.00">CourseInstance</text>
</g>
<!-- _&#45;&gt;CourseInstance -->
<g id="edge10" class="edge">
<title>_&#45;&gt;CourseInstance</title>
<path fill="none" stroke="black" d="M559.03,-352.98C585.4,-366.24 632.7,-387.8 676.16,-396 724.29,-405.09 779.02,-405.58 823.34,-403.57"/>
<polygon fill="black" stroke="black" points="823.68,-407.06 833.5,-403.06 823.33,-400.07 823.68,-407.06"/>
<text text-anchor="middle" x="720.16" y="-407.8" font-family="Times,serif" font-size="14.00">type</text>
</g>
<!-- _&#45;&gt;CourseInstance -->
<g id="edge16" class="edge">
<title>_&#45;&gt;CourseInstance</title>
<path fill="none" stroke="black" d="M563.76,-345.71C617.95,-353.6 746.47,-372.31 830.55,-384.55"/>
<polygon fill="black" stroke="black" points="830.18,-388.03 840.58,-386.01 831.19,-381.11 830.18,-388.03"/>
<text text-anchor="middle" x="720.16" y="-376.8" font-family="Times,serif" font-size="14.00">type</text>
</g>
<!-- &quot;MOOC1&quot; -->
<g id="node11" class="node">
<title>&quot;MOOC1&quot;</title>
<ellipse fill="none" stroke="black" stroke-width="0" cx="910.2" cy="-342" rx="55.79" ry="18"/>
<text text-anchor="middle" x="910.2" y="-338.3" font-family="Times,serif" font-size="14.00">&quot;MOOC1&quot;</text>
</g>
<!-- _&#45;&gt;&quot;MOOC1&quot; -->
<g id="edge12" class="edge">
<title>_&#45;&gt;&quot;MOOC1&quot;</title>
<path fill="none" stroke="black" d="M564.35,-342C621.89,-342 761.18,-342 844.06,-342"/>
<polygon fill="black" stroke="black" points="844.12,-345.5 854.12,-342 844.12,-338.5 844.12,-345.5"/>
<text text-anchor="middle" x="720.16" y="-345.8" font-family="Times,serif" font-size="14.00">courseMode</text>
</g>
<!-- &quot;online&quot; -->
<g id="node12" class="node">
<title>&quot;online&quot;</title>
<ellipse fill="none" stroke="black" stroke-width="0" cx="910.2" cy="-288" rx="48.19" ry="18"/>
<text text-anchor="middle" x="910.2" y="-284.3" font-family="Times,serif" font-size="14.00">&quot;online&quot;</text>
</g>
<!-- _&#45;&gt;&quot;online&quot; -->
<g id="edge13" class="edge">
<title>_&#45;&gt;&quot;online&quot;</title>
<path fill="none" stroke="black" d="M563.76,-338.29C623.57,-329.58 773.93,-307.69 855.15,-295.87"/>
<polygon fill="black" stroke="black" points="855.78,-299.31 865.17,-294.41 854.77,-292.39 855.78,-299.31"/>
<text text-anchor="middle" x="720.16" y="-325.8" font-family="Times,serif" font-size="14.00">courseMode</text>
</g>
<!-- _&#45;&gt;&quot;online&quot; -->
<g id="edge18" class="edge">
<title>_&#45;&gt;&quot;online&quot;</title>
<path fill="none" stroke="black" d="M559.62,-331.74C586.2,-319.56 633.34,-299.9 676.16,-292 735.66,-281.02 805.15,-281.5 852.67,-283.8"/>
<polygon fill="black" stroke="black" points="852.59,-287.3 862.76,-284.33 852.96,-280.31 852.59,-287.3"/>
<text text-anchor="middle" x="720.16" y="-295.8" font-family="Times,serif" font-size="14.00">courseMode</text>
</g>
<!-- &quot;2019&#45;03&#45;21&quot; -->
<g id="node13" class="node">
<title>&quot;2019&#45;03&#45;21&quot;</title>
<ellipse fill="none" stroke="black" stroke-width="0" cx="910.2" cy="-234" rx="72.29" ry="18"/>
<text text-anchor="middle" x="910.2" y="-230.3" font-family="Times,serif" font-size="14.00">&quot;2019&#45;03&#45;21&quot;</text>
</g>
<!-- _&#45;&gt;&quot;2019&#45;03&#45;21&quot; -->
<g id="edge14" class="edge">
<title>_&#45;&gt;&quot;2019&#45;03&#45;21&quot;</title>
<path fill="none" stroke="black" d="M556.4,-328.9C581.81,-311.25 630.1,-280.3 676.16,-265 725.22,-248.7 782.78,-240.94 828.43,-237.26"/>
<polygon fill="black" stroke="black" points="828.86,-240.74 838.57,-236.49 828.33,-233.76 828.86,-240.74"/>
<text text-anchor="middle" x="720.16" y="-268.8" font-family="Times,serif" font-size="14.00">endDate</text>
</g>
<!-- &quot;2019&#45;02&#45;15&quot; -->
<g id="node14" class="node">
<title>&quot;2019&#45;02&#45;15&quot;</title>
<ellipse fill="none" stroke="black" stroke-width="0" cx="910.2" cy="-180" rx="72.29" ry="18"/>
<text text-anchor="middle" x="910.2" y="-176.3" font-family="Times,serif" font-size="14.00">&quot;2019&#45;02&#45;15&quot;</text>
</g>
<!-- _&#45;&gt;&quot;2019&#45;02&#45;15&quot; -->
<g id="edge15" class="edge">
<title>_&#45;&gt;&quot;2019&#45;02&#45;15&quot;</title>
<path fill="none" stroke="black" d="M551.79,-326.37C574.67,-300.99 623.69,-251.16 676.16,-226 724.4,-202.87 783.59,-191.37 830.25,-185.65"/>
<polygon fill="black" stroke="black" points="830.78,-189.11 840.31,-184.48 829.97,-182.16 830.78,-189.11"/>
<text text-anchor="middle" x="720.16" y="-229.8" font-family="Times,serif" font-size="14.00">startDate</text>
</g>
<!-- &quot;MOOC2&quot; -->
<g id="node15" class="node">
<title>&quot;MOOC2&quot;</title>
<ellipse fill="none" stroke="black" stroke-width="0" cx="910.2" cy="-126" rx="55.79" ry="18"/>
<text text-anchor="middle" x="910.2" y="-122.3" font-family="Times,serif" font-size="14.00">&quot;MOOC2&quot;</text>
</g>
<!-- _&#45;&gt;&quot;MOOC2&quot; -->
<g id="edge17" class="edge">
<title>_&#45;&gt;&quot;MOOC2&quot;</title>
<path fill="none" stroke="black" d="M547.56,-325.13C566.87,-291.71 614.71,-217.06 676.16,-179 727.2,-147.38 795,-134.57 844.3,-129.41"/>
<polygon fill="black" stroke="black" points="844.91,-132.87 854.53,-128.43 844.24,-125.9 844.91,-132.87"/>
<text text-anchor="middle" x="720.16" y="-182.8" font-family="Times,serif" font-size="14.00">courseMode</text>
</g>
<!-- &quot;2019&#45;05&#45;21&quot; -->
<g id="node16" class="node">
<title>&quot;2019&#45;05&#45;21&quot;</title>
<ellipse fill="none" stroke="black" stroke-width="0" cx="910.2" cy="-72" rx="72.29" ry="18"/>
<text text-anchor="middle" x="910.2" y="-68.3" font-family="Times,serif" font-size="14.00">&quot;2019&#45;05&#45;21&quot;</text>
</g>
<!-- _&#45;&gt;&quot;2019&#45;05&#45;21&quot; -->
<g id="edge19" class="edge">
<title>_&#45;&gt;&quot;2019&#45;05&#45;21&quot;</title>
<path fill="none" stroke="black" d="M544.25,-324.56C559.36,-283.22 603.15,-178.79 676.16,-126 720.3,-94.08 780.39,-80.7 828.49,-75.23"/>
<polygon fill="black" stroke="black" points="828.98,-78.7 838.57,-74.18 828.26,-71.74 828.98,-78.7"/>
<text text-anchor="middle" x="720.16" y="-129.8" font-family="Times,serif" font-size="14.00">endDate</text>
</g>
<!-- &quot;2019&#45;04&#45;15&quot; -->
<g id="node17" class="node">
<title>&quot;2019&#45;04&#45;15&quot;</title>
<ellipse fill="none" stroke="black" stroke-width="0" cx="910.2" cy="-18" rx="72.29" ry="18"/>
<text text-anchor="middle" x="910.2" y="-14.3" font-family="Times,serif" font-size="14.00">&quot;2019&#45;04&#45;15&quot;</text>
</g>
<!-- _&#45;&gt;&quot;2019&#45;04&#45;15&quot; -->
<g id="edge20" class="edge">
<title>_&#45;&gt;&quot;2019&#45;04&#45;15&quot;</title>
<path fill="none" stroke="black" d="M541.86,-324.08C552.67,-275.1 589.61,-138.09 676.16,-70 718.97,-36.32 779.23,-23.51 827.74,-19.03"/>
<polygon fill="black" stroke="black" points="828.23,-22.5 837.91,-18.19 827.66,-15.52 828.23,-22.5"/>
<text text-anchor="middle" x="720.16" y="-73.8" font-family="Times,serif" font-size="14.00">startDate</text>
</g>
</g>
</svg>
