<?xml version="1.0" encoding="UTF-8" standalone="no"?>
<!DOCTYPE svg PUBLIC "-//W3C//DTD SVG 1.1//EN"
 "http://www.w3.org/Graphics/SVG/1.1/DTD/svg11.dtd">
<!-- Generated by graphviz version 2.43.0 (0)
 -->
<!-- Title: %3 Pages: 1 -->
<svg width="1169pt" height="1073pt"
 viewBox="0.00 0.00 1169.32 1073.00" xmlns="http://www.w3.org/2000/svg" xmlns:xlink="http://www.w3.org/1999/xlink">
<g id="graph0" class="graph" transform="scale(1 1) rotate(0) translate(4 1069)">
<title>%3</title>
<polygon fill="white" stroke="transparent" points="-4,4 -4,-1069 1165.32,-1069 1165.32,4 -4,4"/>
<!-- Organization -->
<g id="node1" class="node">
<title>Organization</title>
<ellipse fill="none" stroke="#558855" cx="1030.03" cy="-882" rx="70.69" ry="18"/>
<text text-anchor="middle" x="1030.03" y="-878.3" font-family="Times,serif" font-size="14.00">Organization</text>
</g>
<!-- www.foo.org/orgID -->
<g id="node2" class="node">
<title>www.foo.org/orgID</title>
<ellipse fill="none" stroke="#558855" cx="548.26" cy="-1009" rx="98.28" ry="18"/>
<text text-anchor="middle" x="548.26" y="-1005.3" font-family="Times,serif" font-size="14.00">www.foo.org/orgID</text>
</g>
<!-- www.foo.org/orgID&#45;&gt;Organization -->
<g id="edge1" class="edge">
<title>www.foo.org/orgID&#45;&gt;Organization</title>
<path fill="none" stroke="black" d="M646.73,-1008.35C738.08,-1006.81 863.17,-1001.95 880.74,-987 907.83,-963.94 873.3,-933.87 898.74,-909 912.25,-895.79 930.43,-888.26 948.91,-884.14"/>
<polygon fill="black" stroke="black" points="949.72,-887.55 958.89,-882.23 948.41,-880.67 949.72,-887.55"/>
<text text-anchor="middle" x="837.24" y="-1005.8" font-family="Times,serif" font-size="14.00">type</text>
</g>
<!-- &quot;Some Institute&quot; -->
<g id="node3" class="node">
<title>&quot;Some Institute&quot;</title>
<ellipse fill="none" stroke="black" stroke-width="0" cx="1030.03" cy="-1047" rx="88.28" ry="18"/>
<text text-anchor="middle" x="1030.03" y="-1043.3" font-family="Times,serif" font-size="14.00">&quot;Some Institute&quot;</text>
</g>
<!-- www.foo.org/orgID&#45;&gt;&quot;Some Institute&quot; -->
<g id="edge2" class="edge">
<title>www.foo.org/orgID&#45;&gt;&quot;Some Institute&quot;</title>
<path fill="none" stroke="black" d="M638.66,-1016.08C723.8,-1022.82 851.38,-1032.93 937.29,-1039.73"/>
<polygon fill="black" stroke="black" points="937.05,-1043.23 947.29,-1040.53 937.6,-1036.25 937.05,-1043.23"/>
<text text-anchor="middle" x="837.24" y="-1037.8" font-family="Times,serif" font-size="14.00">legalName</text>
</g>
<!-- PropertyValue -->
<g id="node4" class="node">
<title>PropertyValue</title>
<ellipse fill="none" stroke="#558855" cx="1030.03" cy="-936" rx="77.19" ry="18"/>
<text text-anchor="middle" x="1030.03" y="-932.3" font-family="Times,serif" font-size="14.00">PropertyValue</text>
</g>
<!-- doi.org/10.5066/F7VX0DMQ -->
<g id="node5" class="node">
<title>doi.org/10.5066/F7VX0DMQ</title>
<ellipse fill="none" stroke="#558855" cx="548.26" cy="-828" rx="141.88" ry="18"/>
<text text-anchor="middle" x="548.26" y="-824.3" font-family="Times,serif" font-size="14.00">doi.org/10.5066/F7VX0DMQ</text>
</g>
<!-- doi.org/10.5066/F7VX0DMQ&#45;&gt;PropertyValue -->
<g id="edge3" class="edge">
<title>doi.org/10.5066/F7VX0DMQ&#45;&gt;PropertyValue</title>
<path fill="none" stroke="black" d="M606.25,-844.52C655.6,-858.5 729.03,-878.51 793.74,-893 847.73,-905.09 909.24,-916.24 955.84,-924.16"/>
<polygon fill="black" stroke="black" points="955.4,-927.63 965.84,-925.85 956.56,-920.73 955.4,-927.63"/>
<text text-anchor="middle" x="837.24" y="-913.8" font-family="Times,serif" font-size="14.00">type</text>
</g>
<!-- &quot;https//registry.iden...&quot; -->
<g id="node6" class="node">
<title>&quot;https//registry.iden...&quot;</title>
<ellipse fill="none" stroke="black" stroke-width="0" cx="1030.03" cy="-828" rx="116.98" ry="18"/>
<text text-anchor="middle" x="1030.03" y="-824.3" font-family="Times,serif" font-size="14.00">&quot;https//registry.iden...&quot;</text>
</g>
<!-- doi.org/10.5066/F7VX0DMQ&#45;&gt;&quot;https//registry.iden...&quot; -->
<g id="edge4" class="edge">
<title>doi.org/10.5066/F7VX0DMQ&#45;&gt;&quot;https//registry.iden...&quot;</title>
<path fill="none" stroke="black" d="M689.97,-828C757.29,-828 837.25,-828 902.62,-828"/>
<polygon fill="black" stroke="black" points="902.98,-831.5 912.98,-828 902.98,-824.5 902.98,-831.5"/>
<text text-anchor="middle" x="837.24" y="-831.8" font-family="Times,serif" font-size="14.00">propertyID</text>
</g>
<!-- &quot;https//doi.org/10.50...&quot; -->
<g id="node7" class="node">
<title>&quot;https//doi.org/10.50...&quot;</title>
<ellipse fill="none" stroke="black" stroke-width="0" cx="1030.03" cy="-774" rx="120.48" ry="18"/>
<text text-anchor="middle" x="1030.03" y="-770.3" font-family="Times,serif" font-size="14.00">&quot;https//doi.org/10.50...&quot;</text>
</g>
<!-- doi.org/10.5066/F7VX0DMQ&#45;&gt;&quot;https//doi.org/10.50...&quot; -->
<g id="edge5" class="edge">
<title>doi.org/10.5066/F7VX0DMQ&#45;&gt;&quot;https//doi.org/10.50...&quot;</title>
<path fill="none" stroke="black" d="M654.85,-816.12C734.62,-807.14 843.62,-794.87 923.4,-785.89"/>
<polygon fill="black" stroke="black" points="923.93,-789.35 933.47,-784.76 923.14,-782.4 923.93,-789.35"/>
<text text-anchor="middle" x="837.24" y="-802.8" font-family="Times,serif" font-size="14.00">url</text>
</g>
<!-- &quot;doi10.5066/F7VX0DMQ&quot; -->
<g id="node8" class="node">
<title>&quot;doi10.5066/F7VX0DMQ&quot;</title>
<ellipse fill="none" stroke="black" stroke-width="0" cx="1030.03" cy="-990" rx="129.18" ry="18"/>
<text text-anchor="middle" x="1030.03" y="-986.3" font-family="Times,serif" font-size="14.00">&quot;doi10.5066/F7VX0DMQ&quot;</text>
</g>
<!-- doi.org/10.5066/F7VX0DMQ&#45;&gt;&quot;doi10.5066/F7VX0DMQ&quot; -->
<g id="edge6" class="edge">
<title>doi.org/10.5066/F7VX0DMQ&#45;&gt;&quot;doi10.5066/F7VX0DMQ&quot;</title>
<path fill="none" stroke="black" d="M586.12,-845.35C648.88,-874.19 781.16,-931.88 898.74,-963 912.71,-966.7 927.64,-970.2 942.21,-973.38"/>
<polygon fill="black" stroke="black" points="941.72,-976.86 952.23,-975.53 943.19,-970.01 941.72,-976.86"/>
<text text-anchor="middle" x="837.24" y="-960.8" font-family="Times,serif" font-size="14.00">value</text>
</g>
<!-- CreativeWork -->
<g id="node9" class="node">
<title>CreativeWork</title>
<ellipse fill="none" stroke="#558855" cx="548.26" cy="-607" rx="74.19" ry="18"/>
<text text-anchor="middle" x="548.26" y="-603.3" font-family="Times,serif" font-size="14.00">CreativeWork</text>
</g>
<!-- example.org/id/XYZ -->
<g id="node10" class="node">
<title>example.org/id/XYZ</title>
<ellipse fill="none" stroke="black" cx="101.39" cy="-539" rx="101.28" ry="18"/>
<text text-anchor="middle" x="101.39" y="-535.3" font-family="Times,serif" font-size="14.00">example.org/id/XYZ</text>
</g>
<!-- example.org/id/XYZ&#45;&gt;www.foo.org/orgID -->
<g id="edge9" class="edge">
<title>example.org/id/XYZ&#45;&gt;www.foo.org/orgID</title>
<path fill="none" stroke="black" d="M111.66,-557.23C138.49,-608.74 220.76,-757.93 320.78,-855 378.32,-910.84 458.33,-959.94 506.24,-986.94"/>
<polygon fill="black" stroke="black" points="504.65,-990.07 515.08,-991.89 508.06,-983.96 504.65,-990.07"/>
<text text-anchor="middle" x="261.78" y="-835.8" font-family="Times,serif" font-size="14.00">contributor</text>
</g>
<!-- example.org/id/XYZ&#45;&gt;doi.org/10.5066/F7VX0DMQ -->
<g id="edge11" class="edge">
<title>example.org/id/XYZ&#45;&gt;doi.org/10.5066/F7VX0DMQ</title>
<path fill="none" stroke="black" d="M119.29,-557.04C141.28,-579.91 181.56,-619.76 220.78,-648 313.78,-714.95 434.29,-775.39 499.79,-806.3"/>
<polygon fill="black" stroke="black" points="498.5,-809.56 509.04,-810.64 501.48,-803.23 498.5,-809.56"/>
<text text-anchor="middle" x="261.78" y="-701.8" font-family="Times,serif" font-size="14.00">identifier</text>
</g>
<!-- example.org/id/XYZ&#45;&gt;CreativeWork -->
<g id="edge7" class="edge">
<title>example.org/id/XYZ&#45;&gt;CreativeWork</title>
<path fill="none" stroke="black" d="M154.48,-554.36C174.99,-559.96 198.85,-565.91 220.78,-570 304.12,-585.55 400.73,-595.52 467.12,-601.14"/>
<polygon fill="black" stroke="black" points="466.84,-604.63 477.09,-601.97 467.42,-597.65 466.84,-604.63"/>
<text text-anchor="middle" x="261.78" y="-585.8" font-family="Times,serif" font-size="14.00">type</text>
</g>
<!-- www.sample&#45;data&#45;repository.org/person/51317 -->
<g id="node11" class="node">
<title>www.sample&#45;data&#45;repository.org/person/51317</title>
<ellipse fill="none" stroke="#558855" cx="548.26" cy="-488" rx="227.46" ry="18"/>
<text text-anchor="middle" x="548.26" y="-484.3" font-family="Times,serif" font-size="14.00">www.sample&#45;data&#45;repository.org/person/51317</text>
</g>
<!-- example.org/id/XYZ&#45;&gt;www.sample&#45;data&#45;repository.org/person/51317 -->
<g id="edge8" class="edge">
<title>example.org/id/XYZ&#45;&gt;www.sample&#45;data&#45;repository.org/person/51317</title>
<path fill="none" stroke="black" d="M187.11,-529.29C249.48,-522.14 335.64,-512.26 408.06,-503.96"/>
<polygon fill="black" stroke="black" points="408.65,-507.41 418.18,-502.8 407.85,-500.46 408.65,-507.41"/>
<text text-anchor="middle" x="261.78" y="-528.8" font-family="Times,serif" font-size="14.00">author</text>
</g>
<!-- &quot;Description of the c...&quot; -->
<g id="node12" class="node">
<title>&quot;Description of the c...&quot;</title>
<ellipse fill="none" stroke="black" stroke-width="0" cx="548.26" cy="-434" rx="119.68" ry="18"/>
<text text-anchor="middle" x="548.26" y="-430.3" font-family="Times,serif" font-size="14.00">&quot;Description of the c...&quot;</text>
</g>
<!-- example.org/id/XYZ&#45;&gt;&quot;Description of the c...&quot; -->
<g id="edge10" class="edge">
<title>example.org/id/XYZ&#45;&gt;&quot;Description of the c...&quot;</title>
<path fill="none" stroke="black" d="M140.65,-522.36C183.65,-504.38 255.92,-476.25 320.78,-461 355.78,-452.77 394.44,-446.99 429.76,-442.94"/>
<polygon fill="black" stroke="black" points="430.56,-446.38 440.11,-441.8 429.79,-439.42 430.56,-446.38"/>
<text text-anchor="middle" x="261.78" y="-493.8" font-family="Times,serif" font-size="14.00">description</text>
</g>
<!-- _ -->
<g id="node13" class="node">
<title>_</title>
<ellipse fill="none" stroke="#558855" cx="548.26" cy="-234" rx="27" ry="18"/>
<text text-anchor="middle" x="548.26" y="-230.3" font-family="Times,serif" font-size="14.00">_</text>
</g>
<!-- example.org/id/XYZ&#45;&gt;_ -->
<g id="edge12" class="edge">
<title>example.org/id/XYZ&#45;&gt;_</title>
<path fill="none" stroke="black" d="M123.76,-521.26C147.14,-502.09 185.92,-470.94 220.78,-446 328.05,-369.28 461.48,-286.34 518.86,-251.24"/>
<polygon fill="black" stroke="black" points="521.01,-254.03 527.72,-245.83 517.36,-248.06 521.01,-254.03"/>
<text text-anchor="middle" x="261.78" y="-449.8" font-family="Times,serif" font-size="14.00">keywords</text>
</g>
<!-- &quot;Name or title of the...&quot; -->
<g id="node14" class="node">
<title>&quot;Name or title of the...&quot;</title>
<ellipse fill="none" stroke="black" stroke-width="0" cx="548.26" cy="-180" rx="120.48" ry="18"/>
<text text-anchor="middle" x="548.26" y="-176.3" font-family="Times,serif" font-size="14.00">&quot;Name or title of the...&quot;</text>
</g>
<!-- example.org/id/XYZ&#45;&gt;&quot;Name or title of the...&quot; -->
<g id="edge13" class="edge">
<title>example.org/id/XYZ&#45;&gt;&quot;Name or title of the...&quot;</title>
<path fill="none" stroke="black" d="M108.09,-520.99C127.29,-463.64 195.5,-284.47 320.78,-207 350.9,-188.38 387.61,-179.47 422.63,-175.76"/>
<polygon fill="black" stroke="black" points="423.31,-179.22 432.95,-174.81 422.67,-172.25 423.31,-179.22"/>
<text text-anchor="middle" x="261.78" y="-296.8" font-family="Times,serif" font-size="14.00">name</text>
</g>
<!-- www.repositoryB.org -->
<g id="node15" class="node">
<title>www.repositoryB.org</title>
<ellipse fill="none" stroke="#558855" cx="548.26" cy="-664" rx="109.38" ry="18"/>
<text text-anchor="middle" x="548.26" y="-660.3" font-family="Times,serif" font-size="14.00">www.repositoryB.org</text>
</g>
<!-- example.org/id/XYZ&#45;&gt;www.repositoryB.org -->
<g id="edge14" class="edge">
<title>example.org/id/XYZ&#45;&gt;www.repositoryB.org</title>
<path fill="none" stroke="black" d="M131.9,-556.19C155.47,-569.48 189.59,-587.79 220.78,-601 263.88,-619.25 275.16,-623.55 320.78,-634 359.91,-642.96 403.5,-649.53 441.9,-654.19"/>
<polygon fill="black" stroke="black" points="441.72,-657.69 452.07,-655.4 442.55,-650.74 441.72,-657.69"/>
<text text-anchor="middle" x="261.78" y="-632.8" font-family="Times,serif" font-size="14.00">provider</text>
</g>
<!-- www.repositoryA.org -->
<g id="node16" class="node">
<title>www.repositoryA.org</title>
<ellipse fill="none" stroke="#558855" cx="548.26" cy="-126" rx="108.58" ry="18"/>
<text text-anchor="middle" x="548.26" y="-122.3" font-family="Times,serif" font-size="14.00">www.repositoryA.org</text>
</g>
<!-- example.org/id/XYZ&#45;&gt;www.repositoryA.org -->
<g id="edge15" class="edge">
<title>example.org/id/XYZ&#45;&gt;www.repositoryA.org</title>
<path fill="none" stroke="black" d="M104.23,-520.83C110.6,-466.66 136.15,-303.97 220.78,-206 272.34,-146.32 360.45,-127.36 432.15,-122.75"/>
<polygon fill="black" stroke="black" points="432.36,-126.25 442.15,-122.19 431.97,-119.26 432.36,-126.25"/>
<text text-anchor="middle" x="261.78" y="-209.8" font-family="Times,serif" font-size="14.00">publisher</text>
</g>
<!-- &quot;https//www.sample&#45;da...&quot; -->
<g id="node17" class="node">
<title>&quot;https//www.sample&#45;da...&quot;</title>
<ellipse fill="none" stroke="black" stroke-width="0" cx="1030.03" cy="-558" rx="131.08" ry="18"/>
<text text-anchor="middle" x="1030.03" y="-554.3" font-family="Times,serif" font-size="14.00">&quot;https//www.sample&#45;da...&quot;</text>
</g>
<!-- example.org/id/XYZ&#45;&gt;&quot;https//www.sample&#45;da...&quot; -->
<g id="edge16" class="edge">
<title>example.org/id/XYZ&#45;&gt;&quot;https//www.sample&#45;da...&quot;</title>
<path fill="none" stroke="black" d="M201.87,-541.56C208.27,-541.71 214.62,-541.86 220.78,-542 455.22,-547.29 727.93,-552.49 889.09,-555.46"/>
<polygon fill="black" stroke="black" points="889.48,-558.97 899.54,-555.66 889.61,-551.97 889.48,-558.97"/>
<text text-anchor="middle" x="548.26" y="-556.8" font-family="Times,serif" font-size="14.00">url</text>
</g>
<!-- www.sample&#45;data&#45;repository.org/person/51317&#45;&gt;&quot;https//www.sample&#45;da...&quot; -->
<g id="edge26" class="edge">
<title>www.sample&#45;data&#45;repository.org/person/51317&#45;&gt;&quot;https//www.sample&#45;da...&quot;</title>
<path fill="none" stroke="black" d="M694.12,-501.82C752.31,-508.21 819.9,-516.69 880.74,-527 888.82,-528.37 890.73,-529.28 898.74,-531 913.93,-534.26 930.14,-537.67 945.77,-540.93"/>
<polygon fill="black" stroke="black" points="945.45,-544.44 955.95,-543.05 946.87,-537.58 945.45,-544.44"/>
<text text-anchor="middle" x="837.24" y="-530.8" font-family="Times,serif" font-size="14.00">url</text>
</g>
<!-- Person -->
<g id="node21" class="node">
<title>Person</title>
<ellipse fill="none" stroke="#558855" cx="1030.03" cy="-450" rx="42.49" ry="18"/>
<text text-anchor="middle" x="1030.03" y="-446.3" font-family="Times,serif" font-size="14.00">Person</text>
</g>
<!-- www.sample&#45;data&#45;repository.org/person/51317&#45;&gt;Person -->
<g id="edge22" class="edge">
<title>www.sample&#45;data&#45;repository.org/person/51317&#45;&gt;Person</title>
<path fill="none" stroke="black" d="M701.17,-474.63C731.81,-472.02 763.8,-469.37 793.74,-467 857.26,-461.98 930.48,-456.78 978.15,-453.48"/>
<polygon fill="black" stroke="black" points="978.48,-456.96 988.21,-452.78 977.99,-449.98 978.48,-456.96"/>
<text text-anchor="middle" x="837.24" y="-470.8" font-family="Times,serif" font-size="14.00">type</text>
</g>
<!-- &quot;Passow&quot; -->
<g id="node22" class="node">
<title>&quot;Passow&quot;</title>
<ellipse fill="none" stroke="black" stroke-width="0" cx="1030.03" cy="-396" rx="53.89" ry="18"/>
<text text-anchor="middle" x="1030.03" y="-392.3" font-family="Times,serif" font-size="14.00">&quot;Passow&quot;</text>
</g>
<!-- www.sample&#45;data&#45;repository.org/person/51317&#45;&gt;&quot;Passow&quot; -->
<g id="edge23" class="edge">
<title>www.sample&#45;data&#45;repository.org/person/51317&#45;&gt;&quot;Passow&quot;</title>
<path fill="none" stroke="black" d="M733.78,-477.51C748.38,-473.25 762.56,-467.83 775.74,-461 786.36,-455.5 783.33,-446.87 793.74,-441 846.67,-411.15 915.82,-400.72 965.44,-397.26"/>
<polygon fill="black" stroke="black" points="965.96,-400.73 975.72,-396.62 965.52,-393.75 965.96,-400.73"/>
<text text-anchor="middle" x="837.24" y="-444.8" font-family="Times,serif" font-size="14.00">familyName</text>
</g>
<!-- &quot;Uta&quot; -->
<g id="node23" class="node">
<title>&quot;Uta&quot;</title>
<ellipse fill="none" stroke="black" stroke-width="0" cx="1030.03" cy="-342" rx="36.29" ry="18"/>
<text text-anchor="middle" x="1030.03" y="-338.3" font-family="Times,serif" font-size="14.00">&quot;Uta&quot;</text>
</g>
<!-- www.sample&#45;data&#45;repository.org/person/51317&#45;&gt;&quot;Uta&quot; -->
<g id="edge24" class="edge">
<title>www.sample&#45;data&#45;repository.org/person/51317&#45;&gt;&quot;Uta&quot;</title>
<path fill="none" stroke="black" d="M748.38,-479.31C758.19,-474.35 767.41,-468.32 775.74,-461 800.2,-439.52 770.19,-412.47 793.74,-390 844.79,-341.3 931.15,-336.01 983.84,-338.02"/>
<polygon fill="black" stroke="black" points="983.76,-341.52 993.91,-338.51 984.09,-334.53 983.76,-341.52"/>
<text text-anchor="middle" x="837.24" y="-393.8" font-family="Times,serif" font-size="14.00">givenName</text>
</g>
<!-- &quot;Dr Uta Passow&quot; -->
<g id="node24" class="node">
<title>&quot;Dr Uta Passow&quot;</title>
<ellipse fill="none" stroke="black" stroke-width="0" cx="1030.03" cy="-504" rx="88.28" ry="18"/>
<text text-anchor="middle" x="1030.03" y="-500.3" font-family="Times,serif" font-size="14.00">&quot;Dr Uta Passow&quot;</text>
</g>
<!-- www.sample&#45;data&#45;repository.org/person/51317&#45;&gt;&quot;Dr Uta Passow&quot; -->
<g id="edge25" class="edge">
<title>www.sample&#45;data&#45;repository.org/person/51317&#45;&gt;&quot;Dr Uta Passow&quot;</title>
<path fill="none" stroke="black" d="M774.01,-485.71C809.73,-486.2 846.26,-487.21 880.74,-489 900.97,-490.05 922.69,-491.86 943.1,-493.87"/>
<polygon fill="black" stroke="black" points="943.02,-497.38 953.32,-494.9 943.72,-490.41 943.02,-497.38"/>
<text text-anchor="middle" x="837.24" y="-492.8" font-family="Times,serif" font-size="14.00">name</text>
</g>
<!-- _&#45;&gt;_ -->
<g id="edge32" class="edge">
<title>_&#45;&gt;_</title>
<path fill="none" stroke="black" d="M522.34,-239.67C478.18,-252.28 486.82,-270 548.26,-270 604.67,-270 616.57,-255.06 583.99,-242.87"/>
<polygon fill="black" stroke="black" points="584.78,-239.44 574.18,-239.67 582.61,-246.1 584.78,-239.44"/>
<text text-anchor="middle" x="548.26" y="-273.8" font-family="Times,serif" font-size="14.00">inDefinedTermSet</text>
</g>
<!-- DefinedTermSet -->
<g id="node25" class="node">
<title>DefinedTermSet</title>
<ellipse fill="none" stroke="#558855" cx="1030.03" cy="-126" rx="85.59" ry="18"/>
<text text-anchor="middle" x="1030.03" y="-122.3" font-family="Times,serif" font-size="14.00">DefinedTermSet</text>
</g>
<!-- _&#45;&gt;DefinedTermSet -->
<g id="edge27" class="edge">
<title>_&#45;&gt;DefinedTermSet</title>
<path fill="none" stroke="black" d="M574.71,-237.68C619.25,-242.76 712.61,-247.2 775.74,-207 788.54,-198.85 781.44,-186.87 793.74,-178 832.66,-149.95 851.92,-163.42 898.74,-153 917.75,-148.77 938.37,-144.4 957.48,-140.43"/>
<polygon fill="black" stroke="black" points="958.23,-143.85 967.31,-138.4 956.81,-137 958.23,-143.85"/>
<text text-anchor="middle" x="837.24" y="-181.8" font-family="Times,serif" font-size="14.00">type</text>
</g>
<!-- &quot;Description of the s...&quot; -->
<g id="node26" class="node">
<title>&quot;Description of the s...&quot;</title>
<ellipse fill="none" stroke="black" stroke-width="0" cx="1030.03" cy="-72" rx="119.68" ry="18"/>
<text text-anchor="middle" x="1030.03" y="-68.3" font-family="Times,serif" font-size="14.00">&quot;Description of the s...&quot;</text>
</g>
<!-- _&#45;&gt;&quot;Description of the s...&quot; -->
<g id="edge28" class="edge">
<title>_&#45;&gt;&quot;Description of the s...&quot;</title>
<path fill="none" stroke="black" d="M574.28,-239.23C620.25,-247.27 718.68,-256.94 775.74,-207 799.92,-185.85 772.14,-160.77 793.74,-137 827.12,-100.27 850.99,-112.51 898.74,-99 912.92,-94.99 928.12,-91.3 942.95,-88.02"/>
<polygon fill="black" stroke="black" points="944.11,-91.35 953.15,-85.82 942.63,-84.51 944.11,-91.35"/>
<text text-anchor="middle" x="837.24" y="-140.8" font-family="Times,serif" font-size="14.00">description</text>
</g>
<!-- &quot;Name of the set&quot; -->
<g id="node27" class="node">
<title>&quot;Name of the set&quot;</title>
<ellipse fill="none" stroke="black" stroke-width="0" cx="1030.03" cy="-18" rx="93.68" ry="18"/>
<text text-anchor="middle" x="1030.03" y="-14.3" font-family="Times,serif" font-size="14.00">&quot;Name of the set&quot;</text>
</g>
<!-- _&#45;&gt;&quot;Name of the set&quot; -->
<g id="edge29" class="edge">
<title>_&#45;&gt;&quot;Name of the set&quot;</title>
<path fill="none" stroke="black" d="M574.07,-239.65C620.57,-248.63 721.1,-260.14 775.74,-207 815.03,-168.79 759.42,-127.73 793.74,-85 825.46,-45.51 878.69,-28.27 926.51,-21.12"/>
<polygon fill="black" stroke="black" points="927.19,-24.56 936.62,-19.75 926.24,-17.63 927.19,-24.56"/>
<text text-anchor="middle" x="837.24" y="-88.8" font-family="Times,serif" font-size="14.00">name</text>
</g>
<!-- &quot;url for the set&quot; -->
<g id="node28" class="node">
<title>&quot;url for the set&quot;</title>
<ellipse fill="none" stroke="black" stroke-width="0" cx="1030.03" cy="-288" rx="83.69" ry="18"/>
<text text-anchor="middle" x="1030.03" y="-284.3" font-family="Times,serif" font-size="14.00">&quot;url for the set&quot;</text>
</g>
<!-- _&#45;&gt;&quot;url for the set&quot; -->
<g id="edge30" class="edge">
<title>_&#45;&gt;&quot;url for the set&quot;</title>
<path fill="none" stroke="black" d="M575.06,-236.9C643.85,-244.65 834.02,-266.05 945.2,-278.56"/>
<polygon fill="black" stroke="black" points="945.04,-282.07 955.37,-279.71 945.83,-275.11 945.04,-282.07"/>
<text text-anchor="middle" x="837.24" y="-273.8" font-family="Times,serif" font-size="14.00">url</text>
</g>
<!-- DefinedTerm -->
<g id="node29" class="node">
<title>DefinedTerm</title>
<ellipse fill="none" stroke="#558855" cx="1030.03" cy="-234" rx="70.39" ry="18"/>
<text text-anchor="middle" x="1030.03" y="-230.3" font-family="Times,serif" font-size="14.00">DefinedTerm</text>
</g>
<!-- _&#45;&gt;DefinedTerm -->
<g id="edge31" class="edge">
<title>_&#45;&gt;DefinedTerm</title>
<path fill="none" stroke="black" d="M575.4,-234C645.37,-234 839.11,-234 949.44,-234"/>
<polygon fill="black" stroke="black" points="949.52,-237.5 959.52,-234 949.52,-230.5 949.52,-237.5"/>
<text text-anchor="middle" x="837.24" y="-237.8" font-family="Times,serif" font-size="14.00">type</text>
</g>
<!-- &quot;A code that identifi...&quot; -->
<g id="node30" class="node">
<title>&quot;A code that identifi...&quot;</title>
<ellipse fill="none" stroke="black" stroke-width="0" cx="1030.03" cy="-180" rx="116.18" ry="18"/>
<text text-anchor="middle" x="1030.03" y="-176.3" font-family="Times,serif" font-size="14.00">&quot;A code that identifi...&quot;</text>
</g>
<!-- _&#45;&gt;&quot;A code that identifi...&quot; -->
<g id="edge33" class="edge">
<title>_&#45;&gt;&quot;A code that identifi...&quot;</title>
<path fill="none" stroke="black" d="M575.06,-231.1C639.86,-223.8 812.36,-204.39 925.08,-191.7"/>
<polygon fill="black" stroke="black" points="925.57,-195.17 935.12,-190.57 924.79,-188.21 925.57,-195.17"/>
<text text-anchor="middle" x="837.24" y="-208.8" font-family="Times,serif" font-size="14.00">termCode</text>
</g>
<!-- www.repositoryB.org&#45;&gt;Organization -->
<g id="edge17" class="edge">
<title>www.repositoryB.org&#45;&gt;Organization</title>
<path fill="none" stroke="black" d="M593.52,-680.5C644.02,-701.4 726.01,-741.95 775.74,-801 789.88,-817.79 776.57,-833.32 793.74,-847 817.41,-865.85 891.06,-874.59 949.73,-878.62"/>
<polygon fill="black" stroke="black" points="949.54,-882.11 959.75,-879.27 949.99,-875.13 949.54,-882.11"/>
<text text-anchor="middle" x="837.24" y="-874.8" font-family="Times,serif" font-size="14.00">type</text>
</g>
<!-- www.repositoryB.org&#45;&gt;&quot;https//www.sample&#45;da...&quot; -->
<g id="edge21" class="edge">
<title>www.repositoryB.org&#45;&gt;&quot;https//www.sample&#45;da...&quot;</title>
<path fill="none" stroke="black" d="M655.68,-667.3C695.7,-664.23 740.09,-655.33 775.74,-634 787.49,-626.97 782.33,-616.57 793.74,-609 833.63,-582.54 851.97,-595.19 898.74,-585 913.92,-581.69 930.12,-578.26 945.76,-574.99"/>
<polygon fill="black" stroke="black" points="946.85,-578.34 955.93,-572.88 945.43,-571.49 946.85,-578.34"/>
<text text-anchor="middle" x="837.24" y="-612.8" font-family="Times,serif" font-size="14.00">url</text>
</g>
<!-- &quot;Sample Data Reposito...&quot; -->
<g id="node18" class="node">
<title>&quot;Sample Data Reposito...&quot;</title>
<ellipse fill="none" stroke="black" stroke-width="0" cx="1030.03" cy="-666" rx="131.08" ry="18"/>
<text text-anchor="middle" x="1030.03" y="-662.3" font-family="Times,serif" font-size="14.00">&quot;Sample Data Reposito...&quot;</text>
</g>
<!-- www.repositoryB.org&#45;&gt;&quot;Sample Data Reposito...&quot; -->
<g id="edge18" class="edge">
<title>www.repositoryB.org&#45;&gt;&quot;Sample Data Reposito...&quot;</title>
<path fill="none" stroke="black" d="M657.53,-664.45C725.76,-664.74 814.57,-665.11 888.25,-665.41"/>
<polygon fill="black" stroke="black" points="888.53,-668.91 898.54,-665.46 888.56,-661.91 888.53,-668.91"/>
<text text-anchor="middle" x="837.24" y="-668.8" font-family="Times,serif" font-size="14.00">legalName</text>
</g>
<!-- &quot;SDRO&quot; -->
<g id="node19" class="node">
<title>&quot;SDRO&quot;</title>
<ellipse fill="none" stroke="black" stroke-width="0" cx="1030.03" cy="-612" rx="47.39" ry="18"/>
<text text-anchor="middle" x="1030.03" y="-608.3" font-family="Times,serif" font-size="14.00">&quot;SDRO&quot;</text>
</g>
<!-- www.repositoryB.org&#45;&gt;&quot;SDRO&quot; -->
<g id="edge19" class="edge">
<title>www.repositoryB.org&#45;&gt;&quot;SDRO&quot;</title>
<path fill="none" stroke="black" d="M640.07,-654.16C738.54,-643.48 892.55,-626.79 974.09,-617.95"/>
<polygon fill="black" stroke="black" points="974.58,-621.42 984.15,-616.86 973.83,-614.46 974.58,-621.42"/>
<text text-anchor="middle" x="837.24" y="-639.8" font-family="Times,serif" font-size="14.00">name</text>
</g>
<!-- &quot;http//www.re3data.or...&quot; -->
<g id="node20" class="node">
<title>&quot;http//www.re3data.or...&quot;</title>
<ellipse fill="none" stroke="black" stroke-width="0" cx="1030.03" cy="-720" rx="126.98" ry="18"/>
<text text-anchor="middle" x="1030.03" y="-716.3" font-family="Times,serif" font-size="14.00">&quot;http//www.re3data.or...&quot;</text>
</g>
<!-- www.repositoryB.org&#45;&gt;&quot;http//www.re3data.or...&quot; -->
<g id="edge20" class="edge">
<title>www.repositoryB.org&#45;&gt;&quot;http//www.re3data.or...&quot;</title>
<path fill="none" stroke="black" d="M637.82,-674.34C717.9,-683.68 836.02,-697.47 921.5,-707.45"/>
<polygon fill="black" stroke="black" points="921.16,-710.93 931.5,-708.62 921.97,-703.98 921.16,-710.93"/>
<text text-anchor="middle" x="837.24" y="-704.8" font-family="Times,serif" font-size="14.00">sameAs</text>
</g>
</g>
</svg>
