<?xml version="1.0" encoding="UTF-8" standalone="no"?>
<!DOCTYPE svg PUBLIC "-//W3C//DTD SVG 1.1//EN"
 "http://www.w3.org/Graphics/SVG/1.1/DTD/svg11.dtd">
<!-- Generated by graphviz version 2.43.0 (0)
 -->
<!-- Title: %3 Pages: 1 -->
<svg width="720pt" height="178pt"
 viewBox="0.00 0.00 720.00 177.77" xmlns="http://www.w3.org/2000/svg" xmlns:xlink="http://www.w3.org/1999/xlink">
<g id="graph0" class="graph" transform="scale(1.46 1.46) rotate(0) translate(4 256)">
<title>%3</title>
<polygon fill="white" stroke="transparent" points="-4,4 -4,-256 1049.03,-256 1049.03,4 -4,4"/>
<!-- ResearchProject -->
<g id="node1" class="node">
<title>ResearchProject</title>
<ellipse fill="none" stroke="#558855" cx="439.97" cy="-180" rx="87.18" ry="18"/>
<text text-anchor="middle" x="439.97" y="-176.3" font-family="Times,serif" font-size="14.00">ResearchProject</text>
</g>
<!-- example.org/id/resproj/X -->
<g id="node2" class="node">
<title>example.org/id/resproj/X</title>
<ellipse fill="none" stroke="black" cx="125.44" cy="-153" rx="125.38" ry="18"/>
<text text-anchor="middle" x="125.44" y="-149.3" font-family="Times,serif" font-size="14.00">example.org/id/resproj/X</text>
</g>
<!-- example.org/id/resproj/X&#45;&gt;ResearchProject -->
<g id="edge1" class="edge">
<title>example.org/id/resproj/X&#45;&gt;ResearchProject</title>
<path fill="none" stroke="black" d="M233.56,-162.25C271.19,-165.51 313.06,-169.12 349.13,-172.24"/>
<polygon fill="black" stroke="black" points="348.87,-175.73 359.14,-173.1 349.47,-168.76 348.87,-175.73"/>
<text text-anchor="middle" x="301.88" y="-173.8" font-family="Times,serif" font-size="14.00">type</text>
</g>
<!-- _ -->
<g id="node3" class="node">
<title>_</title>
<ellipse fill="none" stroke="#558855" cx="439.97" cy="-126" rx="27" ry="18"/>
<text text-anchor="middle" x="439.97" y="-122.3" font-family="Times,serif" font-size="14.00">_</text>
</g>
<!-- example.org/id/resproj/X&#45;&gt;_ -->
<g id="edge2" class="edge">
<title>example.org/id/resproj/X&#45;&gt;_</title>
<path fill="none" stroke="black" d="M233.56,-143.75C292.4,-138.66 361.6,-132.68 402.78,-129.13"/>
<polygon fill="black" stroke="black" points="403.22,-132.6 412.88,-128.25 402.61,-125.63 403.22,-132.6"/>
<text text-anchor="middle" x="301.88" y="-143.8" font-family="Times,serif" font-size="14.00">identifier</text>
</g>
<!-- PropertyValue -->
<g id="node4" class="node">
<title>PropertyValue</title>
<ellipse fill="none" stroke="#558855" cx="843.54" cy="-234" rx="77.19" ry="18"/>
<text text-anchor="middle" x="843.54" y="-230.3" font-family="Times,serif" font-size="14.00">PropertyValue</text>
</g>
<!-- _&#45;&gt;PropertyValue -->
<g id="edge3" class="edge">
<title>_&#45;&gt;PropertyValue</title>
<path fill="none" stroke="black" d="M466.32,-130.09C484.38,-133.88 508.62,-140.84 527.06,-153 537.32,-159.77 534.88,-167.11 545.06,-174 582.77,-199.53 597.73,-196.58 642.06,-207 680.66,-216.07 724.2,-222.39 760.82,-226.63"/>
<polygon fill="black" stroke="black" points="760.62,-230.13 770.95,-227.77 761.41,-223.17 760.62,-230.13"/>
<text text-anchor="middle" x="584.56" y="-205.8" font-family="Times,serif" font-size="14.00">type</text>
</g>
<!-- &quot;Re3data DOI 10.17616/R37P4C&quot; -->
<g id="node5" class="node">
<title>&quot;Re3data DOI 10.17616/R37P4C&quot;</title>
<ellipse fill="none" stroke="black" stroke-width="0" cx="843.54" cy="-180" rx="166.27" ry="18"/>
<text text-anchor="middle" x="843.54" y="-176.3" font-family="Times,serif" font-size="14.00">&quot;Re3data DOI 10.17616/R37P4C&quot;</text>
</g>
<!-- _&#45;&gt;&quot;Re3data DOI 10.17616/R37P4C&quot; -->
<g id="edge4" class="edge">
<title>_&#45;&gt;&quot;Re3data DOI 10.17616/R37P4C&quot;</title>
<path fill="none" stroke="black" d="M466.14,-131.06C487.17,-135.17 517.99,-140.94 545.06,-145 599.78,-153.2 660.4,-160.63 712.56,-166.52"/>
<polygon fill="black" stroke="black" points="712.21,-170 722.54,-167.63 712.99,-163.04 712.21,-170"/>
<text text-anchor="middle" x="584.56" y="-158.8" font-family="Times,serif" font-size="14.00">name</text>
</g>
<!-- &quot;https//registry.identifiers.org/registry...&quot; -->
<g id="node6" class="node">
<title>&quot;https//registry.identifiers.org/registry...&quot;</title>
<ellipse fill="none" stroke="black" stroke-width="0" cx="843.54" cy="-126" rx="201.46" ry="18"/>
<text text-anchor="middle" x="843.54" y="-122.3" font-family="Times,serif" font-size="14.00">&quot;https//registry.identifiers.org/registry...&quot;</text>
</g>
<!-- _&#45;&gt;&quot;https//registry.identifiers.org/registry...&quot; -->
<g id="edge5" class="edge">
<title>_&#45;&gt;&quot;https//registry.identifiers.org/registry...&quot;</title>
<path fill="none" stroke="black" d="M467.01,-126C501.56,-126 565.89,-126 631.68,-126"/>
<polygon fill="black" stroke="black" points="631.81,-129.5 641.81,-126 631.81,-122.5 631.81,-129.5"/>
<text text-anchor="middle" x="584.56" y="-129.8" font-family="Times,serif" font-size="14.00">propertyID</text>
</g>
<!-- &quot;https//doi.org/10.17616/R37P4C&quot; -->
<g id="node7" class="node">
<title>&quot;https//doi.org/10.17616/R37P4C&quot;</title>
<ellipse fill="none" stroke="black" stroke-width="0" cx="843.54" cy="-72" rx="169.77" ry="18"/>
<text text-anchor="middle" x="843.54" y="-68.3" font-family="Times,serif" font-size="14.00">&quot;https//doi.org/10.17616/R37P4C&quot;</text>
</g>
<!-- _&#45;&gt;&quot;https//doi.org/10.17616/R37P4C&quot; -->
<g id="edge6" class="edge">
<title>_&#45;&gt;&quot;https//doi.org/10.17616/R37P4C&quot;</title>
<path fill="none" stroke="black" d="M466.14,-120.94C487.17,-116.83 517.99,-111.06 545.06,-107 599.18,-98.89 659.08,-91.53 710.85,-85.68"/>
<polygon fill="black" stroke="black" points="711.55,-89.12 721.09,-84.53 710.77,-82.16 711.55,-89.12"/>
<text text-anchor="middle" x="584.56" y="-110.8" font-family="Times,serif" font-size="14.00">url</text>
</g>
<!-- &quot;doi10.17616/R37P4C&quot; -->
<g id="node8" class="node">
<title>&quot;doi10.17616/R37P4C&quot;</title>
<ellipse fill="none" stroke="black" stroke-width="0" cx="843.54" cy="-18" rx="118.08" ry="18"/>
<text text-anchor="middle" x="843.54" y="-14.3" font-family="Times,serif" font-size="14.00">&quot;doi10.17616/R37P4C&quot;</text>
</g>
<!-- _&#45;&gt;&quot;doi10.17616/R37P4C&quot; -->
<g id="edge7" class="edge">
<title>_&#45;&gt;&quot;doi10.17616/R37P4C&quot;</title>
<path fill="none" stroke="black" d="M461.77,-115.29C482.55,-104.81 515.56,-88.76 545.06,-77 587.23,-60.19 597.82,-55.18 642.06,-45 671.43,-38.24 703.63,-32.98 733.47,-28.97"/>
<polygon fill="black" stroke="black" points="734.03,-32.43 743.49,-27.66 733.12,-25.49 734.03,-32.43"/>
<text text-anchor="middle" x="584.56" y="-80.8" font-family="Times,serif" font-size="14.00">value</text>
</g>
</g>
</svg>
