<?xml version="1.0" encoding="UTF-8" standalone="no"?>
<!DOCTYPE svg PUBLIC "-//W3C//DTD SVG 1.1//EN"
 "http://www.w3.org/Graphics/SVG/1.1/DTD/svg11.dtd">
<!-- Generated by graphviz version 2.43.0 (0)
 -->
<!-- Title: %3 Pages: 1 -->
<svg width="720pt" height="413pt"
 viewBox="0.00 0.00 720.00 412.53" xmlns="http://www.w3.org/2000/svg" xmlns:xlink="http://www.w3.org/1999/xlink">
<g id="graph0" class="graph" transform="scale(1.7 1.7) rotate(0) translate(4 696)">
<title>%3</title>
<polygon fill="white" stroke="transparent" points="-4,4 -4,-696 1217.72,-696 1217.72,4 -4,4"/>
<!-- Course -->
<g id="node1" class="node">
<title>Course</title>
<ellipse fill="none" stroke="#558855" cx="625.01" cy="-483" rx="43.59" ry="18"/>
<text text-anchor="middle" x="625.01" y="-479.3" font-family="Times,serif" font-size="14.00">Course</text>
</g>
<!-- example.org/id/course/1 -->
<g id="node2" class="node">
<title>example.org/id/course/1</title>
<ellipse fill="none" stroke="black" cx="122.19" cy="-407" rx="122.38" ry="18"/>
<text text-anchor="middle" x="122.19" y="-403.3" font-family="Times,serif" font-size="14.00">example.org/id/course/1</text>
</g>
<!-- example.org/id/course/1&#45;&gt;Course -->
<g id="edge1" class="edge">
<title>example.org/id/course/1&#45;&gt;Course</title>
<path fill="none" stroke="black" d="M188.11,-422.2C211.44,-427.34 238.01,-432.83 262.38,-437 372,-455.75 501.53,-470.43 571.98,-477.8"/>
<polygon fill="black" stroke="black" points="572.04,-481.32 582.35,-478.87 572.76,-474.36 572.04,-481.32"/>
<text text-anchor="middle" x="330.38" y="-459.8" font-family="Times,serif" font-size="14.00">type</text>
</g>
<!-- &quot;In this course you will get an introduct...&quot; -->
<g id="node3" class="node">
<title>&quot;In this course you will get an introduct...&quot;</title>
<ellipse fill="none" stroke="black" stroke-width="0" cx="625.01" cy="-429" rx="208.76" ry="18"/>
<text text-anchor="middle" x="625.01" y="-425.3" font-family="Times,serif" font-size="14.00">&quot;In this course you will get an introduct...&quot;</text>
</g>
<!-- example.org/id/course/1&#45;&gt;&quot;In this course you will get an introduct...&quot; -->
<g id="edge2" class="edge">
<title>example.org/id/course/1&#45;&gt;&quot;In this course you will get an introduct...&quot;</title>
<path fill="none" stroke="black" d="M239.66,-412.12C295.76,-414.58 364.57,-417.6 428.38,-420.41"/>
<polygon fill="black" stroke="black" points="428.44,-423.91 438.58,-420.85 428.74,-416.92 428.44,-423.91"/>
<text text-anchor="middle" x="330.38" y="-421.8" font-family="Times,serif" font-size="14.00">description</text>
</g>
<!-- _ -->
<g id="node4" class="node">
<title>_</title>
<ellipse fill="none" stroke="#558855" cx="625.01" cy="-342" rx="27" ry="18"/>
<text text-anchor="middle" x="625.01" y="-338.3" font-family="Times,serif" font-size="14.00">_</text>
</g>
<!-- example.org/id/course/1&#45;&gt;_ -->
<g id="edge3" class="edge">
<title>example.org/id/course/1&#45;&gt;_</title>
<path fill="none" stroke="black" d="M214.47,-395.15C326.43,-380.62 510.86,-356.69 588.16,-346.65"/>
<polygon fill="black" stroke="black" points="588.88,-350.09 598.34,-345.33 587.97,-343.15 588.88,-350.09"/>
<text text-anchor="middle" x="330.38" y="-390.8" font-family="Times,serif" font-size="14.00">hasCourseInstance</text>
</g>
<!-- example.org/id/course/1&#45;&gt;_ -->
<g id="edge4" class="edge">
<title>example.org/id/course/1&#45;&gt;_</title>
<path fill="none" stroke="black" d="M157.94,-389.7C185.51,-376.92 225.42,-360.5 262.38,-353 379.29,-329.27 521.78,-334.7 587.54,-339.08"/>
<polygon fill="black" stroke="black" points="587.57,-342.59 597.79,-339.79 588.06,-335.61 587.57,-342.59"/>
<text text-anchor="middle" x="330.38" y="-356.8" font-family="Times,serif" font-size="14.00">hasCourseInstance</text>
</g>
<!-- _&#45;&gt;_ -->
<g id="edge11" class="edge">
<title>_&#45;&gt;_</title>
<path fill="none" stroke="black" d="M599.41,-348.02C559,-360.6 567.53,-378 625.01,-378 677.33,-378 689.09,-363.58 660.31,-351.51"/>
<polygon fill="black" stroke="black" points="661.2,-348.11 650.61,-348.02 658.83,-354.7 661.2,-348.11"/>
<text text-anchor="middle" x="625.01" y="-381.8" font-family="Times,serif" font-size="14.00">attendee</text>
</g>
<!-- Person -->
<g id="node5" class="node">
<title>Person</title>
<ellipse fill="none" stroke="#558855" cx="1085.68" cy="-666" rx="42.49" ry="18"/>
<text text-anchor="middle" x="1085.68" y="-662.3" font-family="Times,serif" font-size="14.00">Person</text>
</g>
<!-- _&#45;&gt;Person -->
<g id="edge5" class="edge">
<title>_&#45;&gt;Person</title>
<path fill="none" stroke="black" d="M652.04,-340.87C697.05,-340.49 788.9,-346.98 833.64,-402 866.96,-442.98 815.04,-600.92 851.64,-639 899.1,-688.38 984.77,-684.54 1037.96,-676.08"/>
<polygon fill="black" stroke="black" points="1038.56,-679.53 1047.83,-674.41 1037.38,-672.63 1038.56,-679.53"/>
<text text-anchor="middle" x="895.64" y="-680.8" font-family="Times,serif" font-size="14.00">type</text>
</g>
<!-- &quot;Professor&quot; -->
<g id="node6" class="node">
<title>&quot;Professor&quot;</title>
<ellipse fill="none" stroke="black" stroke-width="0" cx="1085.68" cy="-612" rx="63.89" ry="18"/>
<text text-anchor="middle" x="1085.68" y="-608.3" font-family="Times,serif" font-size="14.00">&quot;Professor&quot;</text>
</g>
<!-- _&#45;&gt;&quot;Professor&quot; -->
<g id="edge6" class="edge">
<title>_&#45;&gt;&quot;Professor&quot;</title>
<path fill="none" stroke="black" d="M652.26,-340.98C697.19,-340.82 788.36,-347.67 833.64,-402 859.24,-432.71 823.83,-552.28 851.64,-581 894.86,-625.62 969.05,-628.14 1022.12,-622.85"/>
<polygon fill="black" stroke="black" points="1022.55,-626.33 1032.1,-621.74 1021.77,-619.37 1022.55,-626.33"/>
<text text-anchor="middle" x="895.64" y="-623.8" font-family="Times,serif" font-size="14.00">jobTitle</text>
</g>
<!-- &quot;Jane Doe&quot; -->
<g id="node7" class="node">
<title>&quot;Jane Doe&quot;</title>
<ellipse fill="none" stroke="black" stroke-width="0" cx="1085.68" cy="-558" rx="60.39" ry="18"/>
<text text-anchor="middle" x="1085.68" y="-554.3" font-family="Times,serif" font-size="14.00">&quot;Jane Doe&quot;</text>
</g>
<!-- _&#45;&gt;&quot;Jane Doe&quot; -->
<g id="edge7" class="edge">
<title>_&#45;&gt;&quot;Jane Doe&quot;</title>
<path fill="none" stroke="black" d="M651.98,-341.22C696.5,-341.41 787.05,-348.79 833.64,-402 869.17,-442.57 813.59,-483.78 851.64,-522 895.24,-565.79 968.44,-570.46 1021.17,-566.91"/>
<polygon fill="black" stroke="black" points="1021.74,-570.38 1031.43,-566.1 1021.19,-563.4 1021.74,-570.38"/>
<text text-anchor="middle" x="895.64" y="-565.8" font-family="Times,serif" font-size="14.00">name</text>
</g>
<!-- &quot;(425) 123&#45;4567&quot; -->
<g id="node8" class="node">
<title>&quot;(425) 123&#45;4567&quot;</title>
<ellipse fill="none" stroke="black" stroke-width="0" cx="1085.68" cy="-504" rx="90.98" ry="18"/>
<text text-anchor="middle" x="1085.68" y="-500.3" font-family="Times,serif" font-size="14.00">&quot;(425) 123&#45;4567&quot;</text>
</g>
<!-- _&#45;&gt;&quot;(425) 123&#45;4567&quot; -->
<g id="edge8" class="edge">
<title>_&#45;&gt;&quot;(425) 123&#45;4567&quot;</title>
<path fill="none" stroke="black" d="M652.31,-341.92C696.09,-343.26 784,-352.42 833.64,-402 853.94,-422.28 830.24,-444.88 851.64,-464 888.86,-497.25 943.29,-507.94 990.19,-510"/>
<polygon fill="black" stroke="black" points="990.27,-513.5 1000.38,-510.32 990.49,-506.51 990.27,-513.5"/>
<text text-anchor="middle" x="895.64" y="-506.8" font-family="Times,serif" font-size="14.00">telephone</text>
</g>
<!-- &quot;http//www.janedoe.com&quot; -->
<g id="node9" class="node">
<title>&quot;http//www.janedoe.com&quot;</title>
<ellipse fill="none" stroke="black" stroke-width="0" cx="1085.68" cy="-450" rx="128.08" ry="18"/>
<text text-anchor="middle" x="1085.68" y="-446.3" font-family="Times,serif" font-size="14.00">&quot;http//www.janedoe.com&quot;</text>
</g>
<!-- _&#45;&gt;&quot;http//www.janedoe.com&quot; -->
<g id="edge9" class="edge">
<title>_&#45;&gt;&quot;http//www.janedoe.com&quot;</title>
<path fill="none" stroke="black" d="M651.6,-345.19C692.5,-351.17 774.03,-366.8 833.64,-402 843.38,-407.75 841.49,-415.01 851.64,-420 881.09,-434.47 915.03,-442.81 947.75,-447.44"/>
<polygon fill="black" stroke="black" points="947.48,-450.93 957.85,-448.76 948.39,-443.99 947.48,-450.93"/>
<text text-anchor="middle" x="895.64" y="-448.8" font-family="Times,serif" font-size="14.00">url</text>
</g>
<!-- CourseInstance -->
<g id="node10" class="node">
<title>CourseInstance</title>
<ellipse fill="none" stroke="#558855" cx="1085.68" cy="-396" rx="83.39" ry="18"/>
<text text-anchor="middle" x="1085.68" y="-392.3" font-family="Times,serif" font-size="14.00">CourseInstance</text>
</g>
<!-- _&#45;&gt;CourseInstance -->
<g id="edge10" class="edge">
<title>_&#45;&gt;CourseInstance</title>
<path fill="none" stroke="black" d="M649.72,-349.63C690.47,-362.3 776.64,-387.15 851.64,-396 898.7,-401.55 951.47,-402.02 994.88,-400.9"/>
<polygon fill="black" stroke="black" points="995.24,-404.39 1005.13,-400.6 995.03,-397.4 995.24,-404.39"/>
<text text-anchor="middle" x="895.64" y="-404.8" font-family="Times,serif" font-size="14.00">type</text>
</g>
<!-- _&#45;&gt;CourseInstance -->
<g id="edge16" class="edge">
<title>_&#45;&gt;CourseInstance</title>
<path fill="none" stroke="black" d="M652.05,-344.74C705.83,-350.42 833.04,-364.07 939.64,-377 960.66,-379.55 983.36,-382.45 1004.43,-385.21"/>
<polygon fill="black" stroke="black" points="1004.26,-388.72 1014.63,-386.55 1005.17,-381.78 1004.26,-388.72"/>
<text text-anchor="middle" x="895.64" y="-380.8" font-family="Times,serif" font-size="14.00">type</text>
</g>
<!-- &quot;MOOC1&quot; -->
<g id="node11" class="node">
<title>&quot;MOOC1&quot;</title>
<ellipse fill="none" stroke="black" stroke-width="0" cx="1085.68" cy="-342" rx="55.79" ry="18"/>
<text text-anchor="middle" x="1085.68" y="-338.3" font-family="Times,serif" font-size="14.00">&quot;MOOC1&quot;</text>
</g>
<!-- _&#45;&gt;&quot;MOOC1&quot; -->
<g id="edge12" class="edge">
<title>_&#45;&gt;&quot;MOOC1&quot;</title>
<path fill="none" stroke="black" d="M652.32,-342C722.71,-342 916.97,-342 1019.44,-342"/>
<polygon fill="black" stroke="black" points="1019.67,-345.5 1029.67,-342 1019.67,-338.5 1019.67,-345.5"/>
<text text-anchor="middle" x="895.64" y="-345.8" font-family="Times,serif" font-size="14.00">courseMode</text>
</g>
<!-- &quot;online&quot; -->
<g id="node12" class="node">
<title>&quot;online&quot;</title>
<ellipse fill="none" stroke="black" stroke-width="0" cx="1085.68" cy="-288" rx="48.19" ry="18"/>
<text text-anchor="middle" x="1085.68" y="-284.3" font-family="Times,serif" font-size="14.00">&quot;online&quot;</text>
</g>
<!-- _&#45;&gt;&quot;online&quot; -->
<g id="edge13" class="edge">
<title>_&#45;&gt;&quot;online&quot;</title>
<path fill="none" stroke="black" d="M651.65,-338.98C723.81,-330.49 929.8,-306.23 1029.41,-294.51"/>
<polygon fill="black" stroke="black" points="1030.05,-297.96 1039.57,-293.31 1029.23,-291 1030.05,-297.96"/>
<text text-anchor="middle" x="895.64" y="-318.8" font-family="Times,serif" font-size="14.00">courseMode</text>
</g>
<!-- _&#45;&gt;&quot;online&quot; -->
<g id="edge18" class="edge">
<title>_&#45;&gt;&quot;online&quot;</title>
<path fill="none" stroke="black" d="M649.71,-334.23C690.43,-321.33 776.58,-296.02 851.64,-287 890.47,-282.34 900.53,-286.87 939.64,-287 968.43,-287.1 1000.43,-287.31 1027.03,-287.51"/>
<polygon fill="black" stroke="black" points="1027.3,-291.01 1037.32,-287.59 1027.35,-284.01 1027.3,-291.01"/>
<text text-anchor="middle" x="895.64" y="-290.8" font-family="Times,serif" font-size="14.00">courseMode</text>
</g>
<!-- &quot;2019&#45;03&#45;21&quot; -->
<g id="node13" class="node">
<title>&quot;2019&#45;03&#45;21&quot;</title>
<ellipse fill="none" stroke="black" stroke-width="0" cx="1085.68" cy="-234" rx="72.29" ry="18"/>
<text text-anchor="middle" x="1085.68" y="-230.3" font-family="Times,serif" font-size="14.00">&quot;2019&#45;03&#45;21&quot;</text>
</g>
<!-- _&#45;&gt;&quot;2019&#45;03&#45;21&quot; -->
<g id="edge14" class="edge">
<title>_&#45;&gt;&quot;2019&#45;03&#45;21&quot;</title>
<path fill="none" stroke="black" d="M648.34,-332.9C688.39,-316.95 775.39,-283.91 851.64,-266 902.83,-253.98 961.48,-245.95 1007.14,-240.95"/>
<polygon fill="black" stroke="black" points="1007.69,-244.41 1017.27,-239.86 1006.95,-237.45 1007.69,-244.41"/>
<text text-anchor="middle" x="895.64" y="-269.8" font-family="Times,serif" font-size="14.00">endDate</text>
</g>
<!-- &quot;2019&#45;02&#45;15&quot; -->
<g id="node14" class="node">
<title>&quot;2019&#45;02&#45;15&quot;</title>
<ellipse fill="none" stroke="black" stroke-width="0" cx="1085.68" cy="-180" rx="72.29" ry="18"/>
<text text-anchor="middle" x="1085.68" y="-176.3" font-family="Times,serif" font-size="14.00">&quot;2019&#45;02&#45;15&quot;</text>
</g>
<!-- _&#45;&gt;&quot;2019&#45;02&#45;15&quot; -->
<g id="edge15" class="edge">
<title>_&#45;&gt;&quot;2019&#45;02&#45;15&quot;</title>
<path fill="none" stroke="black" d="M645.89,-330.43C684.41,-308.43 772.42,-260.26 851.64,-232 897.23,-215.74 910.41,-217.59 957.64,-207 977.78,-202.49 999.76,-197.75 1019.69,-193.52"/>
<polygon fill="black" stroke="black" points="1020.53,-196.92 1029.59,-191.43 1019.09,-190.07 1020.53,-196.92"/>
<text text-anchor="middle" x="895.64" y="-235.8" font-family="Times,serif" font-size="14.00">startDate</text>
</g>
<!-- &quot;MOOC2&quot; -->
<g id="node15" class="node">
<title>&quot;MOOC2&quot;</title>
<ellipse fill="none" stroke="black" stroke-width="0" cx="1085.68" cy="-126" rx="55.79" ry="18"/>
<text text-anchor="middle" x="1085.68" y="-122.3" font-family="Times,serif" font-size="14.00">&quot;MOOC2&quot;</text>
</g>
<!-- _&#45;&gt;&quot;MOOC2&quot; -->
<g id="edge17" class="edge">
<title>_&#45;&gt;&quot;MOOC2&quot;</title>
<path fill="none" stroke="black" d="M643.27,-328.45C679.94,-300.16 769.01,-233.94 851.64,-192 896.41,-169.28 909.41,-166.92 957.64,-153 979.8,-146.6 1004.54,-141.01 1026.25,-136.59"/>
<polygon fill="black" stroke="black" points="1027.2,-139.97 1036.32,-134.59 1025.83,-133.11 1027.2,-139.97"/>
<text text-anchor="middle" x="895.64" y="-195.8" font-family="Times,serif" font-size="14.00">courseMode</text>
</g>
<!-- &quot;2019&#45;05&#45;21&quot; -->
<g id="node16" class="node">
<title>&quot;2019&#45;05&#45;21&quot;</title>
<ellipse fill="none" stroke="black" stroke-width="0" cx="1085.68" cy="-72" rx="72.29" ry="18"/>
<text text-anchor="middle" x="1085.68" y="-68.3" font-family="Times,serif" font-size="14.00">&quot;2019&#45;05&#45;21&quot;</text>
</g>
<!-- _&#45;&gt;&quot;2019&#45;05&#45;21&quot; -->
<g id="edge19" class="edge">
<title>_&#45;&gt;&quot;2019&#45;05&#45;21&quot;</title>
<path fill="none" stroke="black" d="M639.56,-326.51C672.52,-289.64 760.85,-195.62 851.64,-140 894.71,-113.61 909.23,-113.41 957.64,-99 976.5,-93.39 997.27,-88.46 1016.46,-84.41"/>
<polygon fill="black" stroke="black" points="1017.24,-87.82 1026.32,-82.37 1015.82,-80.97 1017.24,-87.82"/>
<text text-anchor="middle" x="895.64" y="-143.8" font-family="Times,serif" font-size="14.00">endDate</text>
</g>
<!-- &quot;2019&#45;04&#45;15&quot; -->
<g id="node17" class="node">
<title>&quot;2019&#45;04&#45;15&quot;</title>
<ellipse fill="none" stroke="black" stroke-width="0" cx="1085.68" cy="-18" rx="72.29" ry="18"/>
<text text-anchor="middle" x="1085.68" y="-14.3" font-family="Times,serif" font-size="14.00">&quot;2019&#45;04&#45;15&quot;</text>
</g>
<!-- _&#45;&gt;&quot;2019&#45;04&#45;15&quot; -->
<g id="edge20" class="edge">
<title>_&#45;&gt;&quot;2019&#45;04&#45;15&quot;</title>
<path fill="none" stroke="black" d="M636.38,-325.49C665.19,-280.82 750.79,-156.29 851.64,-86 898.61,-53.26 961.34,-36.12 1009.89,-27.24"/>
<polygon fill="black" stroke="black" points="1010.78,-30.64 1020.03,-25.47 1009.57,-23.75 1010.78,-30.64"/>
<text text-anchor="middle" x="895.64" y="-89.8" font-family="Times,serif" font-size="14.00">startDate</text>
</g>
</g>
</svg>
