<?xml version="1.0" encoding="UTF-8" standalone="no"?>
<!DOCTYPE svg PUBLIC "-//W3C//DTD SVG 1.1//EN"
 "http://www.w3.org/Graphics/SVG/1.1/DTD/svg11.dtd">
<!-- Generated by graphviz version 2.43.0 (0)
 -->
<!-- Title: %3 Pages: 1 -->
<svg width="720pt" height="133pt"
 viewBox="0.00 0.00 720.00 133.13" xmlns="http://www.w3.org/2000/svg" xmlns:xlink="http://www.w3.org/1999/xlink">
<g id="graph0" class="graph" transform="scale(1.55 1.55) rotate(0) translate(4 202)">
<title>%3</title>
<polygon fill="white" stroke="transparent" points="-4,4 -4,-202 1110.12,-202 1110.12,4 -4,4"/>
<!-- PropertyValue -->
<g id="node1" class="node">
<title>PropertyValue</title>
<ellipse fill="none" stroke="#558855" cx="904.64" cy="-180" rx="77.19" ry="18"/>
<text text-anchor="middle" x="904.64" y="-176.3" font-family="Times,serif" font-size="14.00">PropertyValue</text>
</g>
<!-- doi.org/10.5066/F7VX0DMQ -->
<g id="node2" class="node">
<title>doi.org/10.5066/F7VX0DMQ</title>
<ellipse fill="none" stroke="#558855" cx="446.47" cy="-99" rx="141.88" ry="18"/>
<text text-anchor="middle" x="446.47" y="-95.3" font-family="Times,serif" font-size="14.00">doi.org/10.5066/F7VX0DMQ</text>
</g>
<!-- doi.org/10.5066/F7VX0DMQ&#45;&gt;PropertyValue -->
<g id="edge1" class="edge">
<title>doi.org/10.5066/F7VX0DMQ&#45;&gt;PropertyValue</title>
<path fill="none" stroke="black" d="M515.3,-114.76C566.68,-126.35 639.11,-141.94 703.16,-153 743.02,-159.88 787.59,-166.04 824.57,-170.73"/>
<polygon fill="black" stroke="black" points="824.43,-174.24 834.78,-172.01 825.3,-167.29 824.43,-174.24"/>
<text text-anchor="middle" x="645.66" y="-152.8" font-family="Times,serif" font-size="14.00">type</text>
</g>
<!-- &quot;https//registry.identifiers.org/registry...&quot; -->
<g id="node3" class="node">
<title>&quot;https//registry.identifiers.org/registry...&quot;</title>
<ellipse fill="none" stroke="black" stroke-width="0" cx="904.64" cy="-126" rx="201.46" ry="18"/>
<text text-anchor="middle" x="904.64" y="-122.3" font-family="Times,serif" font-size="14.00">&quot;https//registry.identifiers.org/registry...&quot;</text>
</g>
<!-- doi.org/10.5066/F7VX0DMQ&#45;&gt;&quot;https//registry.identifiers.org/registry...&quot; -->
<g id="edge2" class="edge">
<title>doi.org/10.5066/F7VX0DMQ&#45;&gt;&quot;https//registry.identifiers.org/registry...&quot;</title>
<path fill="none" stroke="black" d="M575.14,-106.56C621.97,-109.33 675.85,-112.52 726.25,-115.5"/>
<polygon fill="black" stroke="black" points="726.09,-119 736.28,-116.09 726.51,-112.01 726.09,-119"/>
<text text-anchor="middle" x="645.66" y="-115.8" font-family="Times,serif" font-size="14.00">propertyID</text>
</g>
<!-- &quot;https//doi.org/10.5066/F7VX0DMQ&quot; -->
<g id="node4" class="node">
<title>&quot;https//doi.org/10.5066/F7VX0DMQ&quot;</title>
<ellipse fill="none" stroke="black" stroke-width="0" cx="904.64" cy="-72" rx="180.87" ry="18"/>
<text text-anchor="middle" x="904.64" y="-68.3" font-family="Times,serif" font-size="14.00">&quot;https//doi.org/10.5066/F7VX0DMQ&quot;</text>
</g>
<!-- doi.org/10.5066/F7VX0DMQ&#45;&gt;&quot;https//doi.org/10.5066/F7VX0DMQ&quot; -->
<g id="edge3" class="edge">
<title>doi.org/10.5066/F7VX0DMQ&#45;&gt;&quot;https//doi.org/10.5066/F7VX0DMQ&quot;</title>
<path fill="none" stroke="black" d="M573.5,-90.99C584.54,-90.31 595.55,-89.64 606.16,-89 648.46,-86.46 694.16,-83.8 736.75,-81.37"/>
<polygon fill="black" stroke="black" points="737.14,-84.85 746.92,-80.78 736.74,-77.86 737.14,-84.85"/>
<text text-anchor="middle" x="645.66" y="-92.8" font-family="Times,serif" font-size="14.00">url</text>
</g>
<!-- &quot;doi10.5066/F7VX0DMQ&quot; -->
<g id="node5" class="node">
<title>&quot;doi10.5066/F7VX0DMQ&quot;</title>
<ellipse fill="none" stroke="black" stroke-width="0" cx="904.64" cy="-18" rx="129.18" ry="18"/>
<text text-anchor="middle" x="904.64" y="-14.3" font-family="Times,serif" font-size="14.00">&quot;doi10.5066/F7VX0DMQ&quot;</text>
</g>
<!-- doi.org/10.5066/F7VX0DMQ&#45;&gt;&quot;doi10.5066/F7VX0DMQ&quot; -->
<g id="edge4" class="edge">
<title>doi.org/10.5066/F7VX0DMQ&#45;&gt;&quot;doi10.5066/F7VX0DMQ&quot;</title>
<path fill="none" stroke="black" d="M534.74,-84.81C552.55,-81.2 571.07,-76.92 588.16,-72 596.41,-69.63 597.92,-67.43 606.16,-65 664.46,-47.79 731.16,-36.51 786.61,-29.34"/>
<polygon fill="black" stroke="black" points="787.35,-32.77 796.83,-28.04 786.47,-25.83 787.35,-32.77"/>
<text text-anchor="middle" x="645.66" y="-68.8" font-family="Times,serif" font-size="14.00">value</text>
</g>
<!-- CreativeWork -->
<g id="node6" class="node">
<title>CreativeWork</title>
<ellipse fill="none" stroke="#558855" cx="446.47" cy="-45" rx="74.19" ry="18"/>
<text text-anchor="middle" x="446.47" y="-41.3" font-family="Times,serif" font-size="14.00">CreativeWork</text>
</g>
<!-- example.org/id/XYZ -->
<g id="node7" class="node">
<title>example.org/id/XYZ</title>
<ellipse fill="none" stroke="black" cx="101.39" cy="-64" rx="101.28" ry="18"/>
<text text-anchor="middle" x="101.39" y="-60.3" font-family="Times,serif" font-size="14.00">example.org/id/XYZ</text>
</g>
<!-- example.org/id/XYZ&#45;&gt;doi.org/10.5066/F7VX0DMQ -->
<g id="edge6" class="edge">
<title>example.org/id/XYZ&#45;&gt;doi.org/10.5066/F7VX0DMQ</title>
<path fill="none" stroke="black" d="M189.85,-72.92C231.01,-77.12 280.75,-82.2 325.37,-86.75"/>
<polygon fill="black" stroke="black" points="325.1,-90.24 335.4,-87.77 325.81,-83.27 325.1,-90.24"/>
<text text-anchor="middle" x="253.78" y="-85.8" font-family="Times,serif" font-size="14.00">identifier</text>
</g>
<!-- example.org/id/XYZ&#45;&gt;CreativeWork -->
<g id="edge5" class="edge">
<title>example.org/id/XYZ&#45;&gt;CreativeWork</title>
<path fill="none" stroke="black" d="M192.21,-55.99C201.85,-55.26 211.52,-54.58 220.78,-54 267.77,-51.08 320.34,-48.91 362.81,-47.44"/>
<polygon fill="black" stroke="black" points="362.95,-50.93 372.82,-47.1 362.71,-43.94 362.95,-50.93"/>
<text text-anchor="middle" x="253.78" y="-57.8" font-family="Times,serif" font-size="14.00">type</text>
</g>
</g>
</svg>
