<?xml version="1.0" encoding="UTF-8" standalone="no"?>
<!DOCTYPE svg PUBLIC "-//W3C//DTD SVG 1.1//EN"
 "http://www.w3.org/Graphics/SVG/1.1/DTD/svg11.dtd">
<!-- Generated by graphviz version 2.43.0 (0)
 -->
<!-- Title: %3 Pages: 1 -->
<svg width="720pt" height="122pt"
 viewBox="0.00 0.00 720.00 121.95" xmlns="http://www.w3.org/2000/svg" xmlns:xlink="http://www.w3.org/1999/xlink">
<g id="graph0" class="graph" transform="scale(1.69 1.69) rotate(0) translate(4 202)">
<title>%3</title>
<polygon fill="white" stroke="transparent" points="-4,4 -4,-202 1212.21,-202 1212.21,4 -4,4"/>
<!-- Organization -->
<g id="node1" class="node">
<title>Organization</title>
<ellipse fill="none" stroke="#558855" cx="474.42" cy="-153" rx="70.69" ry="18"/>
<text text-anchor="middle" x="474.42" y="-149.3" font-family="Times,serif" font-size="14.00">Organization</text>
</g>
<!-- example.org/id/org/x -->
<g id="node2" class="node">
<title>example.org/id/org/x</title>
<ellipse fill="none" stroke="black" cx="106.59" cy="-126" rx="106.68" ry="18"/>
<text text-anchor="middle" x="106.59" y="-122.3" font-family="Times,serif" font-size="14.00">example.org/id/org/x</text>
</g>
<!-- example.org/id/org/x&#45;&gt;Organization -->
<g id="edge1" class="edge">
<title>example.org/id/org/x&#45;&gt;Organization</title>
<path fill="none" stroke="black" d="M204.66,-133.16C264.55,-137.58 340.3,-143.18 396.11,-147.29"/>
<polygon fill="black" stroke="black" points="396.06,-150.8 406.29,-148.05 396.57,-143.82 396.06,-150.8"/>
<text text-anchor="middle" x="264.18" y="-142.8" font-family="Times,serif" font-size="14.00">type</text>
</g>
<!-- grid.ac/institutes/grid.475727.4 -->
<g id="node3" class="node">
<title>grid.ac/institutes/grid.475727.4</title>
<ellipse fill="none" stroke="#558855" cx="474.42" cy="-99" rx="159.47" ry="18"/>
<text text-anchor="middle" x="474.42" y="-95.3" font-family="Times,serif" font-size="14.00">grid.ac/institutes/grid.475727.4</text>
</g>
<!-- example.org/id/org/x&#45;&gt;grid.ac/institutes/grid.475727.4 -->
<g id="edge2" class="edge">
<title>example.org/id/org/x&#45;&gt;grid.ac/institutes/grid.475727.4</title>
<path fill="none" stroke="black" d="M202.72,-118.2C212.33,-117.44 221.95,-116.7 231.18,-116 262.29,-113.65 295.65,-111.24 327.36,-109"/>
<polygon fill="black" stroke="black" points="327.87,-112.47 337.59,-108.28 327.37,-105.49 327.87,-112.47"/>
<text text-anchor="middle" x="264.18" y="-119.8" font-family="Times,serif" font-size="14.00">identifier</text>
</g>
<!-- PropertyValue -->
<g id="node4" class="node">
<title>PropertyValue</title>
<ellipse fill="none" stroke="#558855" cx="979.43" cy="-180" rx="77.19" ry="18"/>
<text text-anchor="middle" x="979.43" y="-176.3" font-family="Times,serif" font-size="14.00">PropertyValue</text>
</g>
<!-- grid.ac/institutes/grid.475727.4&#45;&gt;PropertyValue -->
<g id="edge3" class="edge">
<title>grid.ac/institutes/grid.475727.4&#45;&gt;PropertyValue</title>
<path fill="none" stroke="black" d="M569.86,-113.49C590.93,-117.18 613.12,-121.41 633.65,-126 641.76,-127.81 643.6,-128.99 651.65,-131 695.38,-141.92 706.22,-145.45 750.65,-153 799.09,-161.23 853.76,-167.8 897.39,-172.4"/>
<polygon fill="black" stroke="black" points="897.07,-175.88 907.37,-173.44 897.79,-168.92 897.07,-175.88"/>
<text text-anchor="middle" x="692.15" y="-152.8" font-family="Times,serif" font-size="14.00">type</text>
</g>
<!-- &quot;UN Department of Economic and Social Aff...&quot; -->
<g id="node5" class="node">
<title>&quot;UN Department of Economic and Social Aff...&quot;</title>
<ellipse fill="none" stroke="black" stroke-width="0" cx="979.43" cy="-126" rx="228.56" ry="18"/>
<text text-anchor="middle" x="979.43" y="-122.3" font-family="Times,serif" font-size="14.00">&quot;UN Department of Economic and Social Aff...&quot;</text>
</g>
<!-- grid.ac/institutes/grid.475727.4&#45;&gt;&quot;UN Department of Economic and Social Aff...&quot; -->
<g id="edge4" class="edge">
<title>grid.ac/institutes/grid.475727.4&#45;&gt;&quot;UN Department of Economic and Social Aff...&quot;</title>
<path fill="none" stroke="black" d="M618.55,-106.68C668.72,-109.38 726,-112.45 779.89,-115.34"/>
<polygon fill="black" stroke="black" points="779.74,-118.84 789.91,-115.88 780.11,-111.85 779.74,-118.84"/>
<text text-anchor="middle" x="692.15" y="-115.8" font-family="Times,serif" font-size="14.00">description</text>
</g>
<!-- &quot;https//registry.identifiers.org/registry...&quot; -->
<g id="node6" class="node">
<title>&quot;https//registry.identifiers.org/registry...&quot;</title>
<ellipse fill="none" stroke="black" stroke-width="0" cx="979.43" cy="-72" rx="201.46" ry="18"/>
<text text-anchor="middle" x="979.43" y="-68.3" font-family="Times,serif" font-size="14.00">&quot;https//registry.identifiers.org/registry...&quot;</text>
</g>
<!-- grid.ac/institutes/grid.475727.4&#45;&gt;&quot;https//registry.identifiers.org/registry...&quot; -->
<g id="edge5" class="edge">
<title>grid.ac/institutes/grid.475727.4&#45;&gt;&quot;https//registry.identifiers.org/registry...&quot;</title>
<path fill="none" stroke="black" d="M616.82,-90.92C628.6,-90.26 640.33,-89.62 651.65,-89 697.76,-86.49 747.54,-83.86 794,-81.44"/>
<polygon fill="black" stroke="black" points="794.37,-84.93 804.17,-80.91 794,-77.94 794.37,-84.93"/>
<text text-anchor="middle" x="692.15" y="-92.8" font-family="Times,serif" font-size="14.00">propertyID</text>
</g>
<!-- &quot;https//grid.ac/institutes/grid.475727.4&quot; -->
<g id="node7" class="node">
<title>&quot;https//grid.ac/institutes/grid.475727.4&quot;</title>
<ellipse fill="none" stroke="black" stroke-width="0" cx="979.43" cy="-18" rx="198.47" ry="18"/>
<text text-anchor="middle" x="979.43" y="-14.3" font-family="Times,serif" font-size="14.00">&quot;https//grid.ac/institutes/grid.475727.4&quot;</text>
</g>
<!-- grid.ac/institutes/grid.475727.4&#45;&gt;&quot;https//grid.ac/institutes/grid.475727.4&quot; -->
<g id="edge6" class="edge">
<title>grid.ac/institutes/grid.475727.4&#45;&gt;&quot;https//grid.ac/institutes/grid.475727.4&quot;</title>
<path fill="none" stroke="black" d="M548.75,-83.04C604.04,-71.39 681.86,-55.81 750.65,-45 779.16,-40.52 809.77,-36.41 839.02,-32.83"/>
<polygon fill="black" stroke="black" points="839.8,-36.26 849.3,-31.58 838.96,-29.31 839.8,-36.26"/>
<text text-anchor="middle" x="692.15" y="-65.8" font-family="Times,serif" font-size="14.00">url</text>
</g>
</g>
</svg>
