<?xml version="1.0" encoding="UTF-8" standalone="no"?>
<!DOCTYPE svg PUBLIC "-//W3C//DTD SVG 1.1//EN"
 "http://www.w3.org/Graphics/SVG/1.1/DTD/svg11.dtd">
<!-- Generated by graphviz version 2.43.0 (0)
 -->
<!-- Title: %3 Pages: 1 -->
<svg width="720pt" height="371pt"
 viewBox="0.00 0.00 720.00 371.13" xmlns="http://www.w3.org/2000/svg" xmlns:xlink="http://www.w3.org/1999/xlink">
<g id="graph0" class="graph" transform="scale(1.59 1.59) rotate(0) translate(4 586)">
<title>%3</title>
<polygon fill="white" stroke="transparent" points="-4,4 -4,-586 1140.62,-586 1140.62,4 -4,4"/>
<!-- Course -->
<g id="node1" class="node">
<title>Course</title>
<ellipse fill="none" stroke="#558855" cx="935.14" cy="-564" rx="43.59" ry="18"/>
<text text-anchor="middle" x="935.14" y="-560.3" font-family="Times,serif" font-size="14.00">Course</text>
</g>
<!-- example.org/id/course/x -->
<g id="node2" class="node">
<title>example.org/id/course/x</title>
<ellipse fill="none" stroke="#558855" cx="458.72" cy="-483" rx="122.38" ry="18"/>
<text text-anchor="middle" x="458.72" y="-479.3" font-family="Times,serif" font-size="14.00">example.org/id/course/x</text>
</g>
<!-- example.org/id/course/x&#45;&gt;Course -->
<g id="edge1" class="edge">
<title>example.org/id/course/x&#45;&gt;Course</title>
<path fill="none" stroke="black" d="M528.75,-497.81C584.01,-509.38 663.6,-525.39 733.66,-537 784.17,-545.37 842.18,-552.97 882.76,-557.95"/>
<polygon fill="black" stroke="black" points="882.59,-561.46 892.95,-559.19 883.44,-554.51 882.59,-561.46"/>
<text text-anchor="middle" x="675.16" y="-536.8" font-family="Times,serif" font-size="14.00">type</text>
</g>
<!-- &quot;In this course ...&quot; -->
<g id="node3" class="node">
<title>&quot;In this course ...&quot;</title>
<ellipse fill="none" stroke="black" stroke-width="0" cx="935.14" cy="-510" rx="94.78" ry="18"/>
<text text-anchor="middle" x="935.14" y="-506.3" font-family="Times,serif" font-size="14.00">&quot;In this course ...&quot;</text>
</g>
<!-- example.org/id/course/x&#45;&gt;&quot;In this course ...&quot; -->
<g id="edge2" class="edge">
<title>example.org/id/course/x&#45;&gt;&quot;In this course ...&quot;</title>
<path fill="none" stroke="black" d="M573.05,-489.45C652.41,-493.97 757.47,-499.95 833.79,-504.29"/>
<polygon fill="black" stroke="black" points="833.71,-507.79 843.89,-504.86 834.11,-500.8 833.71,-507.79"/>
<text text-anchor="middle" x="675.16" y="-500.8" font-family="Times,serif" font-size="14.00">description</text>
</g>
<!-- &quot;URL to the course&quot; -->
<g id="node4" class="node">
<title>&quot;URL to the course&quot;</title>
<ellipse fill="none" stroke="black" stroke-width="0" cx="935.14" cy="-456" rx="103.98" ry="18"/>
<text text-anchor="middle" x="935.14" y="-452.3" font-family="Times,serif" font-size="14.00">&quot;URL to the course&quot;</text>
</g>
<!-- example.org/id/course/x&#45;&gt;&quot;URL to the course&quot; -->
<g id="edge3" class="edge">
<title>example.org/id/course/x&#45;&gt;&quot;URL to the course&quot;</title>
<path fill="none" stroke="black" d="M573.05,-476.55C649.78,-472.18 750.55,-466.45 826.13,-462.15"/>
<polygon fill="black" stroke="black" points="826.37,-465.64 836.15,-461.58 825.97,-458.65 826.37,-465.64"/>
<text text-anchor="middle" x="675.16" y="-475.8" font-family="Times,serif" font-size="14.00">url</text>
</g>
<!-- Person -->
<g id="node5" class="node">
<title>Person</title>
<ellipse fill="none" stroke="#558855" cx="458.72" cy="-348" rx="42.49" ry="18"/>
<text text-anchor="middle" x="458.72" y="-344.3" font-family="Times,serif" font-size="14.00">Person</text>
</g>
<!-- example.org/id/x -->
<g id="node6" class="node">
<title>example.org/id/x</title>
<ellipse fill="none" stroke="black" cx="88.39" cy="-202" rx="88.28" ry="18"/>
<text text-anchor="middle" x="88.39" y="-198.3" font-family="Times,serif" font-size="14.00">example.org/id/x</text>
</g>
<!-- example.org/id/x&#45;&gt;example.org/id/course/x -->
<g id="edge7" class="edge">
<title>example.org/id/x&#45;&gt;example.org/id/course/x</title>
<path fill="none" stroke="black" d="M100.54,-220.03C118.04,-247.26 154.18,-299.36 194.78,-334 261.2,-390.66 352.34,-436.6 408.02,-461.83"/>
<polygon fill="black" stroke="black" points="406.76,-465.1 417.32,-466 409.63,-458.71 406.76,-465.1"/>
<text text-anchor="middle" x="238.78" y="-399.8" font-family="Times,serif" font-size="14.00">knowsAbout</text>
</g>
<!-- example.org/id/x&#45;&gt;Person -->
<g id="edge4" class="edge">
<title>example.org/id/x&#45;&gt;Person</title>
<path fill="none" stroke="black" d="M108.76,-219.54C129.02,-237.18 162.34,-264.24 194.78,-282 262.65,-319.16 351.79,-335.81 406.89,-342.97"/>
<polygon fill="black" stroke="black" points="406.75,-346.48 417.11,-344.24 407.61,-339.53 406.75,-346.48"/>
<text text-anchor="middle" x="238.78" y="-318.8" font-family="Times,serif" font-size="14.00">type</text>
</g>
<!-- orcid.org/0000&#45;0002&#45;2257&#45;9127 -->
<g id="node7" class="node">
<title>orcid.org/0000&#45;0002&#45;2257&#45;9127</title>
<ellipse fill="none" stroke="#558855" cx="458.72" cy="-294" rx="157.87" ry="18"/>
<text text-anchor="middle" x="458.72" y="-290.3" font-family="Times,serif" font-size="14.00">orcid.org/0000&#45;0002&#45;2257&#45;9127</text>
</g>
<!-- example.org/id/x&#45;&gt;orcid.org/0000&#45;0002&#45;2257&#45;9127 -->
<g id="edge5" class="edge">
<title>example.org/id/x&#45;&gt;orcid.org/0000&#45;0002&#45;2257&#45;9127</title>
<path fill="none" stroke="black" d="M129.56,-218.09C149.07,-225.59 172.96,-234.31 194.78,-241 246.12,-256.74 304.55,-269.05 353.28,-277.83"/>
<polygon fill="black" stroke="black" points="352.75,-281.29 363.2,-279.6 353.97,-274.4 352.75,-281.29"/>
<text text-anchor="middle" x="238.78" y="-266.8" font-family="Times,serif" font-size="14.00">identifier</text>
</g>
<!-- &quot;Professor&quot; -->
<g id="node8" class="node">
<title>&quot;Professor&quot;</title>
<ellipse fill="none" stroke="black" stroke-width="0" cx="458.72" cy="-240" rx="63.89" ry="18"/>
<text text-anchor="middle" x="458.72" y="-236.3" font-family="Times,serif" font-size="14.00">&quot;Professor&quot;</text>
</g>
<!-- example.org/id/x&#45;&gt;&quot;Professor&quot; -->
<g id="edge6" class="edge">
<title>example.org/id/x&#45;&gt;&quot;Professor&quot;</title>
<path fill="none" stroke="black" d="M165.65,-210.82C175.45,-211.91 185.35,-213 194.78,-214 260.35,-220.97 335.18,-228.31 388.2,-233.41"/>
<polygon fill="black" stroke="black" points="387.88,-236.89 398.17,-234.37 388.55,-229.93 387.88,-236.89"/>
<text text-anchor="middle" x="238.78" y="-225.8" font-family="Times,serif" font-size="14.00">jobTitle</text>
</g>
<!-- _ -->
<g id="node9" class="node">
<title>_</title>
<ellipse fill="none" stroke="#558855" cx="458.72" cy="-180" rx="27" ry="18"/>
<text text-anchor="middle" x="458.72" y="-176.3" font-family="Times,serif" font-size="14.00">_</text>
</g>
<!-- example.org/id/x&#45;&gt;_ -->
<g id="edge8" class="edge">
<title>example.org/id/x&#45;&gt;_</title>
<path fill="none" stroke="black" d="M173.43,-196.98C251.59,-192.31 364.3,-185.58 421.49,-182.16"/>
<polygon fill="black" stroke="black" points="421.73,-185.66 431.5,-181.57 421.31,-178.67 421.73,-185.66"/>
<text text-anchor="middle" x="238.78" y="-198.8" font-family="Times,serif" font-size="14.00">knowsAbout</text>
</g>
<!-- example.org/id/x&#45;&gt;_ -->
<g id="edge9" class="edge">
<title>example.org/id/x&#45;&gt;_</title>
<path fill="none" stroke="black" d="M133.68,-186.44C152.3,-180.68 174.34,-174.85 194.78,-172 275.44,-160.74 371.31,-169.05 422.06,-175.13"/>
<polygon fill="black" stroke="black" points="421.83,-178.63 432.18,-176.38 422.69,-171.68 421.83,-178.63"/>
<text text-anchor="middle" x="238.78" y="-175.8" font-family="Times,serif" font-size="14.00">knowsAbout</text>
</g>
<!-- &quot;Jane Doe&quot; -->
<g id="node10" class="node">
<title>&quot;Jane Doe&quot;</title>
<ellipse fill="none" stroke="black" stroke-width="0" cx="458.72" cy="-126" rx="60.39" ry="18"/>
<text text-anchor="middle" x="458.72" y="-122.3" font-family="Times,serif" font-size="14.00">&quot;Jane Doe&quot;</text>
</g>
<!-- example.org/id/x&#45;&gt;&quot;Jane Doe&quot; -->
<g id="edge10" class="edge">
<title>example.org/id/x&#45;&gt;&quot;Jane Doe&quot;</title>
<path fill="none" stroke="black" d="M115.43,-184.62C136.03,-171.83 166.03,-155.28 194.78,-147 258.66,-128.61 334.63,-124.32 388.44,-124.06"/>
<polygon fill="black" stroke="black" points="388.56,-127.56 398.56,-124.05 388.56,-120.56 388.56,-127.56"/>
<text text-anchor="middle" x="238.78" y="-150.8" font-family="Times,serif" font-size="14.00">name</text>
</g>
<!-- &quot;(425) 123&#45;4567&quot; -->
<g id="node11" class="node">
<title>&quot;(425) 123&#45;4567&quot;</title>
<ellipse fill="none" stroke="black" stroke-width="0" cx="458.72" cy="-72" rx="90.98" ry="18"/>
<text text-anchor="middle" x="458.72" y="-68.3" font-family="Times,serif" font-size="14.00">&quot;(425) 123&#45;4567&quot;</text>
</g>
<!-- example.org/id/x&#45;&gt;&quot;(425) 123&#45;4567&quot; -->
<g id="edge11" class="edge">
<title>example.org/id/x&#45;&gt;&quot;(425) 123&#45;4567&quot;</title>
<path fill="none" stroke="black" d="M104.1,-184.26C122.81,-163.04 157.21,-128.22 194.78,-111 245.52,-87.75 307,-77.76 357.75,-73.69"/>
<polygon fill="black" stroke="black" points="358.03,-77.18 367.75,-72.96 357.52,-70.2 358.03,-77.18"/>
<text text-anchor="middle" x="238.78" y="-114.8" font-family="Times,serif" font-size="14.00">telephone</text>
</g>
<!-- &quot;http//www.janedoe.com&quot; -->
<g id="node12" class="node">
<title>&quot;http//www.janedoe.com&quot;</title>
<ellipse fill="none" stroke="black" stroke-width="0" cx="458.72" cy="-18" rx="128.08" ry="18"/>
<text text-anchor="middle" x="458.72" y="-14.3" font-family="Times,serif" font-size="14.00">&quot;http//www.janedoe.com&quot;</text>
</g>
<!-- example.org/id/x&#45;&gt;&quot;http//www.janedoe.com&quot; -->
<g id="edge12" class="edge">
<title>example.org/id/x&#45;&gt;&quot;http//www.janedoe.com&quot;</title>
<path fill="none" stroke="black" d="M97.81,-183.91C112.77,-153.93 146.97,-94.37 194.78,-65 232.82,-41.64 279.42,-29.2 322.77,-22.78"/>
<polygon fill="black" stroke="black" points="323.42,-26.22 332.84,-21.38 322.45,-19.29 323.42,-26.22"/>
<text text-anchor="middle" x="238.78" y="-68.8" font-family="Times,serif" font-size="14.00">url</text>
</g>
<!-- PropertyValue -->
<g id="node13" class="node">
<title>PropertyValue</title>
<ellipse fill="none" stroke="#558855" cx="935.14" cy="-402" rx="77.19" ry="18"/>
<text text-anchor="middle" x="935.14" y="-398.3" font-family="Times,serif" font-size="14.00">PropertyValue</text>
</g>
<!-- orcid.org/0000&#45;0002&#45;2257&#45;9127&#45;&gt;PropertyValue -->
<g id="edge13" class="edge">
<title>orcid.org/0000&#45;0002&#45;2257&#45;9127&#45;&gt;PropertyValue</title>
<path fill="none" stroke="black" d="M579.16,-305.81C592.26,-309.63 605.04,-314.59 616.66,-321 627.13,-326.78 624.68,-334.4 634.66,-341 673.46,-366.67 688.38,-364.29 733.66,-375 772.08,-384.09 815.42,-390.41 851.95,-394.63"/>
<polygon fill="black" stroke="black" points="851.74,-398.13 862.07,-395.76 852.52,-391.17 851.74,-398.13"/>
<text text-anchor="middle" x="675.16" y="-373.8" font-family="Times,serif" font-size="14.00">type</text>
</g>
<!-- &quot;Optional description of this record...&quot; -->
<g id="node14" class="node">
<title>&quot;Optional description of this record...&quot;</title>
<ellipse fill="none" stroke="black" stroke-width="0" cx="935.14" cy="-348" rx="188.47" ry="18"/>
<text text-anchor="middle" x="935.14" y="-344.3" font-family="Times,serif" font-size="14.00">&quot;Optional description of this record...&quot;</text>
</g>
<!-- orcid.org/0000&#45;0002&#45;2257&#45;9127&#45;&gt;&quot;Optional description of this record...&quot; -->
<g id="edge14" class="edge">
<title>orcid.org/0000&#45;0002&#45;2257&#45;9127&#45;&gt;&quot;Optional description of this record...&quot;</title>
<path fill="none" stroke="black" d="M571.25,-306.69C640.71,-314.6 730.37,-324.81 803.2,-333.1"/>
<polygon fill="black" stroke="black" points="803.03,-336.6 813.36,-334.25 803.82,-329.64 803.03,-336.6"/>
<text text-anchor="middle" x="675.16" y="-325.8" font-family="Times,serif" font-size="14.00">description</text>
</g>
<!-- &quot;https//registry.identifiers.org/registry...&quot; -->
<g id="node15" class="node">
<title>&quot;https//registry.identifiers.org/registry...&quot;</title>
<ellipse fill="none" stroke="black" stroke-width="0" cx="935.14" cy="-294" rx="201.46" ry="18"/>
<text text-anchor="middle" x="935.14" y="-290.3" font-family="Times,serif" font-size="14.00">&quot;https//registry.identifiers.org/registry...&quot;</text>
</g>
<!-- orcid.org/0000&#45;0002&#45;2257&#45;9127&#45;&gt;&quot;https//registry.identifiers.org/registry...&quot; -->
<g id="edge15" class="edge">
<title>orcid.org/0000&#45;0002&#45;2257&#45;9127&#45;&gt;&quot;https//registry.identifiers.org/registry...&quot;</title>
<path fill="none" stroke="black" d="M616.71,-294C650.86,-294 687.54,-294 723.39,-294"/>
<polygon fill="black" stroke="black" points="723.48,-297.5 733.48,-294 723.48,-290.5 723.48,-297.5"/>
<text text-anchor="middle" x="675.16" y="-297.8" font-family="Times,serif" font-size="14.00">propertyID</text>
</g>
<!-- &quot;https//orcid.org/0000&#45;0002&#45;2257&#45;9127&quot; -->
<g id="node16" class="node">
<title>&quot;https//orcid.org/0000&#45;0002&#45;2257&#45;9127&quot;</title>
<ellipse fill="none" stroke="black" stroke-width="0" cx="935.14" cy="-240" rx="196.87" ry="18"/>
<text text-anchor="middle" x="935.14" y="-236.3" font-family="Times,serif" font-size="14.00">&quot;https//orcid.org/0000&#45;0002&#45;2257&#45;9127&quot;</text>
</g>
<!-- orcid.org/0000&#45;0002&#45;2257&#45;9127&#45;&gt;&quot;https//orcid.org/0000&#45;0002&#45;2257&#45;9127&quot; -->
<g id="edge16" class="edge">
<title>orcid.org/0000&#45;0002&#45;2257&#45;9127&#45;&gt;&quot;https//orcid.org/0000&#45;0002&#45;2257&#45;9127&quot;</title>
<path fill="none" stroke="black" d="M571.25,-281.31C639.92,-273.49 728.35,-263.42 800.72,-255.19"/>
<polygon fill="black" stroke="black" points="801.29,-258.64 810.83,-254.04 800.49,-251.69 801.29,-258.64"/>
<text text-anchor="middle" x="675.16" y="-276.8" font-family="Times,serif" font-size="14.00">url</text>
</g>
<!-- URL -->
<g id="node17" class="node">
<title>URL</title>
<ellipse fill="none" stroke="#558855" cx="935.14" cy="-186" rx="31.4" ry="18"/>
<text text-anchor="middle" x="935.14" y="-182.3" font-family="Times,serif" font-size="14.00">URL</text>
</g>
<!-- _&#45;&gt;URL -->
<g id="edge17" class="edge">
<title>_&#45;&gt;URL</title>
<path fill="none" stroke="black" d="M485.9,-180.33C564.54,-181.33 799.05,-184.29 893.78,-185.49"/>
<polygon fill="black" stroke="black" points="893.78,-188.99 903.82,-185.62 893.87,-181.99 893.78,-188.99"/>
<text text-anchor="middle" x="675.16" y="-186.8" font-family="Times,serif" font-size="14.00">type</text>
</g>
<!-- &quot;https//www.wikidata.org/wiki/Q183368&quot; -->
<g id="node18" class="node">
<title>&quot;https//www.wikidata.org/wiki/Q183368&quot;</title>
<ellipse fill="none" stroke="black" stroke-width="0" cx="935.14" cy="-132" rx="200.36" ry="18"/>
<text text-anchor="middle" x="935.14" y="-128.3" font-family="Times,serif" font-size="14.00">&quot;https//www.wikidata.org/wiki/Q183368&quot;</text>
</g>
<!-- _&#45;&gt;&quot;https//www.wikidata.org/wiki/Q183368&quot; -->
<g id="edge18" class="edge">
<title>_&#45;&gt;&quot;https//www.wikidata.org/wiki/Q183368&quot;</title>
<path fill="none" stroke="black" d="M485.56,-177.39C542.61,-171.61 682.87,-157.42 791.49,-146.43"/>
<polygon fill="black" stroke="black" points="791.97,-149.9 801.57,-145.41 791.27,-142.94 791.97,-149.9"/>
<text text-anchor="middle" x="675.16" y="-164.8" font-family="Times,serif" font-size="14.00">url</text>
</g>
<!-- Text -->
<g id="node19" class="node">
<title>Text</title>
<ellipse fill="none" stroke="#558855" cx="935.14" cy="-78" rx="30.59" ry="18"/>
<text text-anchor="middle" x="935.14" y="-74.3" font-family="Times,serif" font-size="14.00">Text</text>
</g>
<!-- _&#45;&gt;Text -->
<g id="edge19" class="edge">
<title>_&#45;&gt;Text</title>
<path fill="none" stroke="black" d="M485.97,-180.24C518.43,-179.51 574.55,-174.81 616.66,-153 626.7,-147.8 624.95,-140.82 634.66,-135 674.09,-111.37 688.73,-114.77 733.66,-105 788.9,-92.99 853.95,-85.41 894.62,-81.43"/>
<polygon fill="black" stroke="black" points="895.04,-84.91 904.66,-80.48 894.38,-77.94 895.04,-84.91"/>
<text text-anchor="middle" x="675.16" y="-138.8" font-family="Times,serif" font-size="14.00">type</text>
</g>
<!-- &quot;Invasive species in brackish water&quot; -->
<g id="node20" class="node">
<title>&quot;Invasive species in brackish water&quot;</title>
<ellipse fill="none" stroke="black" stroke-width="0" cx="935.14" cy="-24" rx="178.97" ry="18"/>
<text text-anchor="middle" x="935.14" y="-20.3" font-family="Times,serif" font-size="14.00">&quot;Invasive species in brackish water&quot;</text>
</g>
<!-- _&#45;&gt;&quot;Invasive species in brackish water&quot; -->
<g id="edge20" class="edge">
<title>_&#45;&gt;&quot;Invasive species in brackish water&quot;</title>
<path fill="none" stroke="black" d="M485.53,-183.28C519.89,-186.12 580.51,-185.57 616.66,-153 638.61,-133.22 614.75,-110.84 634.66,-89 666.41,-54.17 687.99,-62.67 733.66,-51 753.92,-45.82 775.62,-41.59 796.97,-38.15"/>
<polygon fill="black" stroke="black" points="797.74,-41.57 807.08,-36.57 796.66,-34.65 797.74,-41.57"/>
<text text-anchor="middle" x="675.16" y="-92.8" font-family="Times,serif" font-size="14.00">description</text>
</g>
</g>
</svg>
