<?xml version="1.0" encoding="UTF-8" standalone="no"?>
<!DOCTYPE svg PUBLIC "-//W3C//DTD SVG 1.1//EN"
 "http://www.w3.org/Graphics/SVG/1.1/DTD/svg11.dtd">
<!-- Generated by graphviz version 2.43.0 (0)
 -->
<!-- Title: %3 Pages: 1 -->
<svg width="798pt" height="233pt"
 viewBox="0.00 0.00 798.05 233.00" xmlns="http://www.w3.org/2000/svg" xmlns:xlink="http://www.w3.org/1999/xlink">
<g id="graph0" class="graph" transform="scale(1 1) rotate(0) translate(4 229)">
<title>%3</title>
<polygon fill="white" stroke="transparent" points="-4,4 -4,-229 794.05,-229 794.05,4 -4,4"/>
<!-- Course -->
<g id="node1" class="node">
<title>Course</title>
<ellipse fill="none" stroke="#558855" cx="418.97" cy="-207" rx="43.59" ry="18"/>
<text text-anchor="middle" x="418.97" y="-203.3" font-family="Times,serif" font-size="14.00">Course</text>
</g>
<!-- example.org/id/course/2 -->
<g id="node2" class="node">
<title>example.org/id/course/2</title>
<ellipse fill="none" stroke="black" cx="122.19" cy="-126" rx="122.38" ry="18"/>
<text text-anchor="middle" x="122.19" y="-122.3" font-family="Times,serif" font-size="14.00">example.org/id/course/2</text>
</g>
<!-- example.org/id/course/2&#45;&gt;Course -->
<g id="edge1" class="edge">
<title>example.org/id/course/2&#45;&gt;Course</title>
<path fill="none" stroke="black" d="M180.73,-141.81C236.8,-157.22 320.94,-180.34 372.5,-194.5"/>
<polygon fill="black" stroke="black" points="371.78,-197.94 382.35,-197.21 373.64,-191.19 371.78,-197.94"/>
<text text-anchor="middle" x="304.38" y="-188.8" font-family="Times,serif" font-size="14.00">type</text>
</g>
<!-- &quot;F300&quot; -->
<g id="node3" class="node">
<title>&quot;F300&quot;</title>
<ellipse fill="none" stroke="black" stroke-width="0" cx="418.97" cy="-153" rx="43.59" ry="18"/>
<text text-anchor="middle" x="418.97" y="-149.3" font-family="Times,serif" font-size="14.00">&quot;F300&quot;</text>
</g>
<!-- example.org/id/course/2&#45;&gt;&quot;F300&quot; -->
<g id="edge2" class="edge">
<title>example.org/id/course/2&#45;&gt;&quot;F300&quot;</title>
<path fill="none" stroke="black" d="M226.29,-135.44C273.54,-139.77 327.48,-144.71 366.08,-148.25"/>
<polygon fill="black" stroke="black" points="365.76,-151.73 376.04,-149.16 366.4,-144.76 365.76,-151.73"/>
<text text-anchor="middle" x="304.38" y="-148.8" font-family="Times,serif" font-size="14.00">courseCode</text>
</g>
<!-- &quot;Physics&quot; -->
<g id="node4" class="node">
<title>&quot;Physics&quot;</title>
<ellipse fill="none" stroke="black" stroke-width="0" cx="418.97" cy="-99" rx="54.69" ry="18"/>
<text text-anchor="middle" x="418.97" y="-95.3" font-family="Times,serif" font-size="14.00">&quot;Physics&quot;</text>
</g>
<!-- example.org/id/course/2&#45;&gt;&quot;Physics&quot; -->
<g id="edge3" class="edge">
<title>example.org/id/course/2&#45;&gt;&quot;Physics&quot;</title>
<path fill="none" stroke="black" d="M226.29,-116.56C269.54,-112.6 318.4,-108.12 355.97,-104.68"/>
<polygon fill="black" stroke="black" points="356.61,-108.13 366.25,-103.74 355.97,-101.16 356.61,-108.13"/>
<text text-anchor="middle" x="304.38" y="-115.8" font-family="Times,serif" font-size="14.00">name</text>
</g>
<!-- _ -->
<g id="node5" class="node">
<title>_</title>
<ellipse fill="none" stroke="#558855" cx="418.97" cy="-45" rx="27" ry="18"/>
<text text-anchor="middle" x="418.97" y="-41.3" font-family="Times,serif" font-size="14.00">_</text>
</g>
<!-- example.org/id/course/2&#45;&gt;_ -->
<g id="edge4" class="edge">
<title>example.org/id/course/2&#45;&gt;_</title>
<path fill="none" stroke="black" d="M179.7,-110.03C204.98,-102.93 235.16,-94.49 262.38,-87 304.07,-75.53 352.12,-62.61 383.67,-54.16"/>
<polygon fill="black" stroke="black" points="384.94,-57.44 393.7,-51.48 383.13,-50.68 384.94,-57.44"/>
<text text-anchor="middle" x="304.38" y="-90.8" font-family="Times,serif" font-size="14.00">provider</text>
</g>
<!-- CollegeOrUniversity -->
<g id="node6" class="node">
<title>CollegeOrUniversity</title>
<ellipse fill="none" stroke="#558855" cx="669.81" cy="-72" rx="105.88" ry="18"/>
<text text-anchor="middle" x="669.81" y="-68.3" font-family="Times,serif" font-size="14.00">CollegeOrUniversity</text>
</g>
<!-- _&#45;&gt;CollegeOrUniversity -->
<g id="edge5" class="edge">
<title>_&#45;&gt;CollegeOrUniversity</title>
<path fill="none" stroke="black" d="M445.67,-47.79C474.99,-50.97 524.73,-56.37 569.82,-61.26"/>
<polygon fill="black" stroke="black" points="569.64,-64.76 579.96,-62.36 570.39,-57.8 569.64,-64.76"/>
<text text-anchor="middle" x="511.57" y="-59.8" font-family="Times,serif" font-size="14.00">type</text>
</g>
<!-- &quot;University of Bristo...&quot; -->
<g id="node7" class="node">
<title>&quot;University of Bristo...&quot;</title>
<ellipse fill="none" stroke="black" stroke-width="0" cx="669.81" cy="-18" rx="120.48" ry="18"/>
<text text-anchor="middle" x="669.81" y="-14.3" font-family="Times,serif" font-size="14.00">&quot;University of Bristo...&quot;</text>
</g>
<!-- _&#45;&gt;&quot;University of Bristo...&quot; -->
<g id="edge6" class="edge">
<title>_&#45;&gt;&quot;University of Bristo...&quot;</title>
<path fill="none" stroke="black" d="M445.08,-40.28C458.78,-37.83 476.06,-34.95 491.57,-33 510.7,-30.59 531.05,-28.46 550.88,-26.63"/>
<polygon fill="black" stroke="black" points="551.23,-30.11 560.87,-25.72 550.6,-23.14 551.23,-30.11"/>
<text text-anchor="middle" x="511.57" y="-36.8" font-family="Times,serif" font-size="14.00">name</text>
</g>
</g>
</svg>
