<?xml version="1.0" encoding="UTF-8" standalone="no"?>
<!DOCTYPE svg PUBLIC "-//W3C//DTD SVG 1.1//EN"
 "http://www.w3.org/Graphics/SVG/1.1/DTD/svg11.dtd">
<!-- Generated by graphviz version 2.43.0 (0)
 -->
<!-- Title: %3 Pages: 1 -->
<svg width="720pt" height="139pt"
 viewBox="0.00 0.00 720.00 138.54" xmlns="http://www.w3.org/2000/svg" xmlns:xlink="http://www.w3.org/1999/xlink">
<g id="graph0" class="graph" transform="scale(1.49 1.49) rotate(0) translate(4 202)">
<title>%3</title>
<polygon fill="white" stroke="transparent" points="-4,4 -4,-202 1066.63,-202 1066.63,4 -4,4"/>
<!-- Vehicle -->
<g id="node1" class="node">
<title>Vehicle</title>
<ellipse fill="none" stroke="#558855" cx="400.97" cy="-153" rx="44.39" ry="18"/>
<text text-anchor="middle" x="400.97" y="-149.3" font-family="Times,serif" font-size="14.00">Vehicle</text>
</g>
<!-- example.org/id/X -->
<g id="node2" class="node">
<title>example.org/id/X</title>
<ellipse fill="none" stroke="black" cx="89.04" cy="-126" rx="89.08" ry="18"/>
<text text-anchor="middle" x="89.04" y="-122.3" font-family="Times,serif" font-size="14.00">example.org/id/X</text>
</g>
<!-- example.org/id/X&#45;&gt;Vehicle -->
<g id="edge1" class="edge">
<title>example.org/id/X&#45;&gt;Vehicle</title>
<path fill="none" stroke="black" d="M171.07,-133.06C226.71,-137.91 298.97,-144.2 347.27,-148.41"/>
<polygon fill="black" stroke="black" points="347.24,-151.92 357.5,-149.3 347.84,-144.95 347.24,-151.92"/>
<text text-anchor="middle" x="229.08" y="-143.8" font-family="Times,serif" font-size="14.00">type</text>
</g>
<!-- example.org/id/vessel/X -->
<g id="node3" class="node">
<title>example.org/id/vessel/X</title>
<ellipse fill="none" stroke="#558855" cx="400.97" cy="-99" rx="120.78" ry="18"/>
<text text-anchor="middle" x="400.97" y="-95.3" font-family="Times,serif" font-size="14.00">example.org/id/vessel/X</text>
</g>
<!-- example.org/id/X&#45;&gt;example.org/id/vessel/X -->
<g id="edge2" class="edge">
<title>example.org/id/X&#45;&gt;example.org/id/vessel/X</title>
<path fill="none" stroke="black" d="M169.94,-118.37C178.76,-117.56 187.61,-116.75 196.08,-116 224.65,-113.46 255.47,-110.83 284.29,-108.43"/>
<polygon fill="black" stroke="black" points="284.72,-111.9 294.4,-107.58 284.14,-104.93 284.72,-111.9"/>
<text text-anchor="middle" x="229.08" y="-119.8" font-family="Times,serif" font-size="14.00">identifier</text>
</g>
<!-- PropertyValue -->
<g id="node4" class="node">
<title>PropertyValue</title>
<ellipse fill="none" stroke="#558855" cx="850.74" cy="-180" rx="77.19" ry="18"/>
<text text-anchor="middle" x="850.74" y="-176.3" font-family="Times,serif" font-size="14.00">PropertyValue</text>
</g>
<!-- example.org/id/vessel/X&#45;&gt;PropertyValue -->
<g id="edge3" class="edge">
<title>example.org/id/vessel/X&#45;&gt;PropertyValue</title>
<path fill="none" stroke="black" d="M468.57,-113.93C485.93,-117.84 504.6,-122.06 521.86,-126 573.89,-137.86 586.33,-143.6 638.86,-153 681.81,-160.69 730.06,-167.03 769.56,-171.63"/>
<polygon fill="black" stroke="black" points="769.33,-175.13 779.66,-172.8 770.13,-168.18 769.33,-175.13"/>
<text text-anchor="middle" x="580.36" y="-152.8" font-family="Times,serif" font-size="14.00">type</text>
</g>
<!-- &quot;Vessel ID &quot; -->
<g id="node5" class="node">
<title>&quot;Vessel ID &quot;</title>
<ellipse fill="none" stroke="black" stroke-width="0" cx="850.74" cy="-126" rx="65.79" ry="18"/>
<text text-anchor="middle" x="850.74" y="-122.3" font-family="Times,serif" font-size="14.00">&quot;Vessel ID &quot;</text>
</g>
<!-- example.org/id/vessel/X&#45;&gt;&quot;Vessel ID &quot; -->
<g id="edge4" class="edge">
<title>example.org/id/vessel/X&#45;&gt;&quot;Vessel ID &quot;</title>
<path fill="none" stroke="black" d="M513.23,-105.71C595.32,-110.66 704.71,-117.25 776.16,-121.56"/>
<polygon fill="black" stroke="black" points="776.23,-125.07 786.42,-122.18 776.65,-118.09 776.23,-125.07"/>
<text text-anchor="middle" x="580.36" y="-114.8" font-family="Times,serif" font-size="14.00">description</text>
</g>
<!-- &quot;https//en.wikipedia.org/wiki/IMO_number&quot; -->
<g id="node6" class="node">
<title>&quot;https//en.wikipedia.org/wiki/IMO_number&quot;</title>
<ellipse fill="none" stroke="black" stroke-width="0" cx="850.74" cy="-72" rx="211.76" ry="18"/>
<text text-anchor="middle" x="850.74" y="-68.3" font-family="Times,serif" font-size="14.00">&quot;https//en.wikipedia.org/wiki/IMO_number&quot;</text>
</g>
<!-- example.org/id/vessel/X&#45;&gt;&quot;https//en.wikipedia.org/wiki/IMO_number&quot; -->
<g id="edge5" class="edge">
<title>example.org/id/vessel/X&#45;&gt;&quot;https//en.wikipedia.org/wiki/IMO_number&quot;</title>
<path fill="none" stroke="black" d="M506.98,-90.32C518.08,-89.49 529.2,-88.7 539.86,-88 576.99,-85.56 616.65,-83.27 654.76,-81.23"/>
<polygon fill="black" stroke="black" points="655.14,-84.72 664.94,-80.69 654.77,-77.73 655.14,-84.72"/>
<text text-anchor="middle" x="580.36" y="-91.8" font-family="Times,serif" font-size="14.00">propertyID</text>
</g>
<!-- &quot;https//example.org/id/vessel/X&quot; -->
<g id="node7" class="node">
<title>&quot;https//example.org/id/vessel/X&quot;</title>
<ellipse fill="none" stroke="black" stroke-width="0" cx="850.74" cy="-18" rx="159.77" ry="18"/>
<text text-anchor="middle" x="850.74" y="-14.3" font-family="Times,serif" font-size="14.00">&quot;https//example.org/id/vessel/X&quot;</text>
</g>
<!-- example.org/id/vessel/X&#45;&gt;&quot;https//example.org/id/vessel/X&quot; -->
<g id="edge6" class="edge">
<title>example.org/id/vessel/X&#45;&gt;&quot;https//example.org/id/vessel/X&quot;</title>
<path fill="none" stroke="black" d="M460.5,-83.33C484.95,-77 513.71,-69.82 539.86,-64 583.59,-54.26 594.62,-52.07 638.86,-45 667.92,-40.36 699.34,-35.98 728.83,-32.17"/>
<polygon fill="black" stroke="black" points="729.27,-35.64 738.74,-30.9 728.38,-28.7 729.27,-35.64"/>
<text text-anchor="middle" x="580.36" y="-67.8" font-family="Times,serif" font-size="14.00">url</text>
</g>
</g>
</svg>
