<?xml version="1.0" encoding="UTF-8" standalone="no"?>
<!DOCTYPE svg PUBLIC "-//W3C//DTD SVG 1.1//EN"
 "http://www.w3.org/Graphics/SVG/1.1/DTD/svg11.dtd">
<!-- Generated by graphviz version 2.43.0 (0)
 -->
<!-- Title: %3 Pages: 1 -->
<svg width="919pt" height="260pt"
 viewBox="0.00 0.00 919.14 260.00" xmlns="http://www.w3.org/2000/svg" xmlns:xlink="http://www.w3.org/1999/xlink">
<g id="graph0" class="graph" transform="scale(1 1) rotate(0) translate(4 256)">
<title>%3</title>
<polygon fill="white" stroke="transparent" points="-4,4 -4,-256 915.14,-256 915.14,4 -4,4"/>
<!-- ResearchProject -->
<g id="node1" class="node">
<title>ResearchProject</title>
<ellipse fill="none" stroke="#558855" cx="439.97" cy="-180" rx="87.18" ry="18"/>
<text text-anchor="middle" x="439.97" y="-176.3" font-family="Times,serif" font-size="14.00">ResearchProject</text>
</g>
<!-- example.org/id/resproj/X -->
<g id="node2" class="node">
<title>example.org/id/resproj/X</title>
<ellipse fill="none" stroke="black" cx="125.44" cy="-153" rx="125.38" ry="18"/>
<text text-anchor="middle" x="125.44" y="-149.3" font-family="Times,serif" font-size="14.00">example.org/id/resproj/X</text>
</g>
<!-- example.org/id/resproj/X&#45;&gt;ResearchProject -->
<g id="edge1" class="edge">
<title>example.org/id/resproj/X&#45;&gt;ResearchProject</title>
<path fill="none" stroke="black" d="M233.56,-162.25C271.19,-165.51 313.06,-169.12 349.13,-172.24"/>
<polygon fill="black" stroke="black" points="348.87,-175.73 359.14,-173.1 349.47,-168.76 348.87,-175.73"/>
<text text-anchor="middle" x="301.88" y="-173.8" font-family="Times,serif" font-size="14.00">type</text>
</g>
<!-- _ -->
<g id="node3" class="node">
<title>_</title>
<ellipse fill="none" stroke="#558855" cx="439.97" cy="-126" rx="27" ry="18"/>
<text text-anchor="middle" x="439.97" y="-122.3" font-family="Times,serif" font-size="14.00">_</text>
</g>
<!-- example.org/id/resproj/X&#45;&gt;_ -->
<g id="edge2" class="edge">
<title>example.org/id/resproj/X&#45;&gt;_</title>
<path fill="none" stroke="black" d="M233.56,-143.75C292.4,-138.66 361.6,-132.68 402.78,-129.13"/>
<polygon fill="black" stroke="black" points="403.22,-132.6 412.88,-128.25 402.61,-125.63 403.22,-132.6"/>
<text text-anchor="middle" x="301.88" y="-143.8" font-family="Times,serif" font-size="14.00">identifier</text>
</g>
<!-- PropertyValue -->
<g id="node4" class="node">
<title>PropertyValue</title>
<ellipse fill="none" stroke="#558855" cx="776.6" cy="-234" rx="77.19" ry="18"/>
<text text-anchor="middle" x="776.6" y="-230.3" font-family="Times,serif" font-size="14.00">PropertyValue</text>
</g>
<!-- _&#45;&gt;PropertyValue -->
<g id="edge3" class="edge">
<title>_&#45;&gt;PropertyValue</title>
<path fill="none" stroke="black" d="M466.49,-129.84C484.63,-133.52 508.9,-140.43 527.06,-153 537.74,-160.39 534.41,-168.58 545.06,-176 582.21,-201.85 598.26,-195.61 642.06,-207 662.32,-212.27 684.54,-217.12 704.94,-221.22"/>
<polygon fill="black" stroke="black" points="704.3,-224.66 714.78,-223.17 705.65,-217.79 704.3,-224.66"/>
<text text-anchor="middle" x="584.56" y="-205.8" font-family="Times,serif" font-size="14.00">type</text>
</g>
<!-- &quot;Re3data DOI 10.17616...&quot; -->
<g id="node5" class="node">
<title>&quot;Re3data DOI 10.17616...&quot;</title>
<ellipse fill="none" stroke="black" stroke-width="0" cx="776.6" cy="-180" rx="134.58" ry="18"/>
<text text-anchor="middle" x="776.6" y="-176.3" font-family="Times,serif" font-size="14.00">&quot;Re3data DOI 10.17616...&quot;</text>
</g>
<!-- _&#45;&gt;&quot;Re3data DOI 10.17616...&quot; -->
<g id="edge4" class="edge">
<title>_&#45;&gt;&quot;Re3data DOI 10.17616...&quot;</title>
<path fill="none" stroke="black" d="M466.17,-130.82C487.23,-134.79 518.07,-140.49 545.06,-145 587.39,-152.07 634.2,-159.29 674.52,-165.32"/>
<polygon fill="black" stroke="black" points="674.21,-168.81 684.62,-166.83 675.25,-161.89 674.21,-168.81"/>
<text text-anchor="middle" x="584.56" y="-160.8" font-family="Times,serif" font-size="14.00">name</text>
</g>
<!-- &quot;https//registry.iden...&quot; -->
<g id="node6" class="node">
<title>&quot;https//registry.iden...&quot;</title>
<ellipse fill="none" stroke="black" stroke-width="0" cx="776.6" cy="-126" rx="116.98" ry="18"/>
<text text-anchor="middle" x="776.6" y="-122.3" font-family="Times,serif" font-size="14.00">&quot;https//registry.iden...&quot;</text>
</g>
<!-- _&#45;&gt;&quot;https//registry.iden...&quot; -->
<g id="edge5" class="edge">
<title>_&#45;&gt;&quot;https//registry.iden...&quot;</title>
<path fill="none" stroke="black" d="M467.23,-126C506.36,-126 582.54,-126 649.39,-126"/>
<polygon fill="black" stroke="black" points="649.6,-129.5 659.6,-126 649.6,-122.5 649.6,-129.5"/>
<text text-anchor="middle" x="584.56" y="-129.8" font-family="Times,serif" font-size="14.00">propertyID</text>
</g>
<!-- &quot;https//doi.org/10.17...&quot; -->
<g id="node7" class="node">
<title>&quot;https//doi.org/10.17...&quot;</title>
<ellipse fill="none" stroke="black" stroke-width="0" cx="776.6" cy="-72" rx="120.48" ry="18"/>
<text text-anchor="middle" x="776.6" y="-68.3" font-family="Times,serif" font-size="14.00">&quot;https//doi.org/10.17...&quot;</text>
</g>
<!-- _&#45;&gt;&quot;https//doi.org/10.17...&quot; -->
<g id="edge6" class="edge">
<title>_&#45;&gt;&quot;https//doi.org/10.17...&quot;</title>
<path fill="none" stroke="black" d="M466.17,-121.18C487.23,-117.21 518.07,-111.51 545.06,-107 589.14,-99.63 638.08,-92.11 679.48,-85.94"/>
<polygon fill="black" stroke="black" points="680.19,-89.37 689.56,-84.44 679.16,-82.45 680.19,-89.37"/>
<text text-anchor="middle" x="584.56" y="-110.8" font-family="Times,serif" font-size="14.00">url</text>
</g>
<!-- &quot;doi10.17616/R37P4C&quot; -->
<g id="node8" class="node">
<title>&quot;doi10.17616/R37P4C&quot;</title>
<ellipse fill="none" stroke="black" stroke-width="0" cx="776.6" cy="-18" rx="118.08" ry="18"/>
<text text-anchor="middle" x="776.6" y="-14.3" font-family="Times,serif" font-size="14.00">&quot;doi10.17616/R37P4C&quot;</text>
</g>
<!-- _&#45;&gt;&quot;doi10.17616/R37P4C&quot; -->
<g id="edge7" class="edge">
<title>_&#45;&gt;&quot;doi10.17616/R37P4C&quot;</title>
<path fill="none" stroke="black" d="M461.28,-114.87C481.96,-103.83 515.13,-86.88 545.06,-75 591.2,-56.69 644.93,-43 688.91,-33.63"/>
<polygon fill="black" stroke="black" points="689.64,-37.05 698.71,-31.57 688.21,-30.2 689.64,-37.05"/>
<text text-anchor="middle" x="584.56" y="-78.8" font-family="Times,serif" font-size="14.00">value</text>
</g>
</g>
</svg>
