<?xml version="1.0" encoding="UTF-8" standalone="no"?>
<!DOCTYPE svg PUBLIC "-//W3C//DTD SVG 1.1//EN"
 "http://www.w3.org/Graphics/SVG/1.1/DTD/svg11.dtd">
<!-- Generated by graphviz version 2.43.0 (0)
 -->
<!-- Title: %3 Pages: 1 -->
<svg width="720pt" height="484pt"
 viewBox="0.00 0.00 720.00 483.80" xmlns="http://www.w3.org/2000/svg" xmlns:xlink="http://www.w3.org/1999/xlink">
<g id="graph0" class="graph" transform="scale(1.88 1.88) rotate(0) translate(4 904)">
<title>%3</title>
<polygon fill="white" stroke="transparent" points="-4,4 -4,-904 1347.3,-904 1347.3,4 -4,4"/>
<!-- Organization -->
<g id="node1" class="node">
<title>Organization</title>
<ellipse fill="none" stroke="#558855" cx="1121.02" cy="-882" rx="70.69" ry="18"/>
<text text-anchor="middle" x="1121.02" y="-878.3" font-family="Times,serif" font-size="14.00">Organization</text>
</g>
<!-- www.foo.org/orgID -->
<g id="node2" class="node">
<title>www.foo.org/orgID</title>
<ellipse fill="none" stroke="#558855" cx="548.26" cy="-828" rx="98.28" ry="18"/>
<text text-anchor="middle" x="548.26" y="-824.3" font-family="Times,serif" font-size="14.00">www.foo.org/orgID</text>
</g>
<!-- www.foo.org/orgID&#45;&gt;Organization -->
<g id="edge1" class="edge">
<title>www.foo.org/orgID&#45;&gt;Organization</title>
<path fill="none" stroke="black" d="M635.95,-836.2C747.27,-846.73 938.69,-864.84 1044.39,-874.84"/>
<polygon fill="black" stroke="black" points="1044.06,-878.33 1054.34,-875.79 1044.72,-871.36 1044.06,-878.33"/>
<text text-anchor="middle" x="837.24" y="-861.8" font-family="Times,serif" font-size="14.00">type</text>
</g>
<!-- &quot;Some Institute&quot; -->
<g id="node3" class="node">
<title>&quot;Some Institute&quot;</title>
<ellipse fill="none" stroke="black" stroke-width="0" cx="1121.02" cy="-828" rx="88.28" ry="18"/>
<text text-anchor="middle" x="1121.02" y="-824.3" font-family="Times,serif" font-size="14.00">&quot;Some Institute&quot;</text>
</g>
<!-- www.foo.org/orgID&#45;&gt;&quot;Some Institute&quot; -->
<g id="edge2" class="edge">
<title>www.foo.org/orgID&#45;&gt;&quot;Some Institute&quot;</title>
<path fill="none" stroke="black" d="M646.41,-828C751.11,-828 916.85,-828 1021.92,-828"/>
<polygon fill="black" stroke="black" points="1022.22,-831.5 1032.22,-828 1022.22,-824.5 1022.22,-831.5"/>
<text text-anchor="middle" x="837.24" y="-831.8" font-family="Times,serif" font-size="14.00">legalName</text>
</g>
<!-- PropertyValue -->
<g id="node4" class="node">
<title>PropertyValue</title>
<ellipse fill="none" stroke="#558855" cx="1121.02" cy="-774" rx="77.19" ry="18"/>
<text text-anchor="middle" x="1121.02" y="-770.3" font-family="Times,serif" font-size="14.00">PropertyValue</text>
</g>
<!-- doi.org/10.5066/F7VX0DMQ -->
<g id="node5" class="node">
<title>doi.org/10.5066/F7VX0DMQ</title>
<ellipse fill="none" stroke="#558855" cx="548.26" cy="-666" rx="141.88" ry="18"/>
<text text-anchor="middle" x="548.26" y="-662.3" font-family="Times,serif" font-size="14.00">doi.org/10.5066/F7VX0DMQ</text>
</g>
<!-- doi.org/10.5066/F7VX0DMQ&#45;&gt;PropertyValue -->
<g id="edge3" class="edge">
<title>doi.org/10.5066/F7VX0DMQ&#45;&gt;PropertyValue</title>
<path fill="none" stroke="black" d="M610.41,-682.25C679.85,-700.23 796.77,-729.01 898.74,-747 944.87,-755.14 996.83,-761.61 1038.81,-766.18"/>
<polygon fill="black" stroke="black" points="1038.67,-769.69 1048.98,-767.27 1039.41,-762.73 1038.67,-769.69"/>
<text text-anchor="middle" x="837.24" y="-746.8" font-family="Times,serif" font-size="14.00">type</text>
</g>
<!-- &quot;https//registry.identifiers.org/registry...&quot; -->
<g id="node6" class="node">
<title>&quot;https//registry.identifiers.org/registry...&quot;</title>
<ellipse fill="none" stroke="black" stroke-width="0" cx="1121.02" cy="-720" rx="201.46" ry="18"/>
<text text-anchor="middle" x="1121.02" y="-716.3" font-family="Times,serif" font-size="14.00">&quot;https//registry.identifiers.org/registry...&quot;</text>
</g>
<!-- doi.org/10.5066/F7VX0DMQ&#45;&gt;&quot;https//registry.identifiers.org/registry...&quot; -->
<g id="edge4" class="edge">
<title>doi.org/10.5066/F7VX0DMQ&#45;&gt;&quot;https//registry.identifiers.org/registry...&quot;</title>
<path fill="none" stroke="black" d="M662.37,-676.7C751.04,-685.09 875.17,-696.83 971.79,-705.98"/>
<polygon fill="black" stroke="black" points="971.65,-709.48 981.94,-706.94 972.31,-702.51 971.65,-709.48"/>
<text text-anchor="middle" x="837.24" y="-699.8" font-family="Times,serif" font-size="14.00">propertyID</text>
</g>
<!-- &quot;https//doi.org/10.5066/F7VX0DMQ&quot; -->
<g id="node7" class="node">
<title>&quot;https//doi.org/10.5066/F7VX0DMQ&quot;</title>
<ellipse fill="none" stroke="black" stroke-width="0" cx="1121.02" cy="-666" rx="180.87" ry="18"/>
<text text-anchor="middle" x="1121.02" y="-662.3" font-family="Times,serif" font-size="14.00">&quot;https//doi.org/10.5066/F7VX0DMQ&quot;</text>
</g>
<!-- doi.org/10.5066/F7VX0DMQ&#45;&gt;&quot;https//doi.org/10.5066/F7VX0DMQ&quot; -->
<g id="edge5" class="edge">
<title>doi.org/10.5066/F7VX0DMQ&#45;&gt;&quot;https//doi.org/10.5066/F7VX0DMQ&quot;</title>
<path fill="none" stroke="black" d="M689.98,-666C762.39,-666 851.7,-666 930.13,-666"/>
<polygon fill="black" stroke="black" points="930.13,-669.5 940.13,-666 930.13,-662.5 930.13,-669.5"/>
<text text-anchor="middle" x="837.24" y="-669.8" font-family="Times,serif" font-size="14.00">url</text>
</g>
<!-- &quot;doi10.5066/F7VX0DMQ&quot; -->
<g id="node8" class="node">
<title>&quot;doi10.5066/F7VX0DMQ&quot;</title>
<ellipse fill="none" stroke="black" stroke-width="0" cx="1121.02" cy="-612" rx="129.18" ry="18"/>
<text text-anchor="middle" x="1121.02" y="-608.3" font-family="Times,serif" font-size="14.00">&quot;doi10.5066/F7VX0DMQ&quot;</text>
</g>
<!-- doi.org/10.5066/F7VX0DMQ&#45;&gt;&quot;doi10.5066/F7VX0DMQ&quot; -->
<g id="edge6" class="edge">
<title>doi.org/10.5066/F7VX0DMQ&#45;&gt;&quot;doi10.5066/F7VX0DMQ&quot;</title>
<path fill="none" stroke="black" d="M662.37,-655.3C761.02,-645.96 903.58,-632.48 1003.29,-623.04"/>
<polygon fill="black" stroke="black" points="1003.79,-626.51 1013.41,-622.09 1003.13,-619.54 1003.79,-626.51"/>
<text text-anchor="middle" x="837.24" y="-645.8" font-family="Times,serif" font-size="14.00">value</text>
</g>
<!-- CreativeWork -->
<g id="node9" class="node">
<title>CreativeWork</title>
<ellipse fill="none" stroke="#558855" cx="548.26" cy="-477" rx="74.19" ry="18"/>
<text text-anchor="middle" x="548.26" y="-473.3" font-family="Times,serif" font-size="14.00">CreativeWork</text>
</g>
<!-- example.org/id/XYZ -->
<g id="node10" class="node">
<title>example.org/id/XYZ</title>
<ellipse fill="none" stroke="black" cx="101.39" cy="-396" rx="101.28" ry="18"/>
<text text-anchor="middle" x="101.39" y="-392.3" font-family="Times,serif" font-size="14.00">example.org/id/XYZ</text>
</g>
<!-- example.org/id/XYZ&#45;&gt;www.foo.org/orgID -->
<g id="edge9" class="edge">
<title>example.org/id/XYZ&#45;&gt;www.foo.org/orgID</title>
<path fill="none" stroke="black" d="M112.15,-413.97C139.65,-463.38 222.22,-603.52 320.78,-693 375.75,-742.9 451.97,-783.76 500.46,-807"/>
<polygon fill="black" stroke="black" points="499.23,-810.3 509.77,-811.42 502.23,-803.97 499.23,-810.3"/>
<text text-anchor="middle" x="261.78" y="-675.8" font-family="Times,serif" font-size="14.00">contributor</text>
</g>
<!-- example.org/id/XYZ&#45;&gt;doi.org/10.5066/F7VX0DMQ -->
<g id="edge11" class="edge">
<title>example.org/id/XYZ&#45;&gt;doi.org/10.5066/F7VX0DMQ</title>
<path fill="none" stroke="black" d="M130.9,-413.3C208.22,-460.23 422,-589.98 509.34,-642.99"/>
<polygon fill="black" stroke="black" points="507.76,-646.12 518.13,-648.32 511.4,-640.14 507.76,-646.12"/>
<text text-anchor="middle" x="261.78" y="-517.8" font-family="Times,serif" font-size="14.00">identifier</text>
</g>
<!-- example.org/id/XYZ&#45;&gt;CreativeWork -->
<g id="edge7" class="edge">
<title>example.org/id/XYZ&#45;&gt;CreativeWork</title>
<path fill="none" stroke="black" d="M159.86,-410.72C179.2,-415.63 200.92,-421.1 220.78,-426 265.16,-436.95 275.79,-441.95 320.78,-450 369.51,-458.72 424.65,-465.36 468.33,-469.88"/>
<polygon fill="black" stroke="black" points="468.02,-473.36 478.32,-470.89 468.72,-466.4 468.02,-473.36"/>
<text text-anchor="middle" x="261.78" y="-449.8" font-family="Times,serif" font-size="14.00">type</text>
</g>
<!-- www.sample&#45;data&#45;repository.org/person/51317 -->
<g id="node11" class="node">
<title>www.sample&#45;data&#45;repository.org/person/51317</title>
<ellipse fill="none" stroke="#558855" cx="548.26" cy="-423" rx="227.46" ry="18"/>
<text text-anchor="middle" x="548.26" y="-419.3" font-family="Times,serif" font-size="14.00">www.sample&#45;data&#45;repository.org/person/51317</text>
</g>
<!-- example.org/id/XYZ&#45;&gt;www.sample&#45;data&#45;repository.org/person/51317 -->
<g id="edge8" class="edge">
<title>example.org/id/XYZ&#45;&gt;www.sample&#45;data&#45;repository.org/person/51317</title>
<path fill="none" stroke="black" d="M197.55,-401.78C244.05,-404.6 301.73,-408.1 356.75,-411.44"/>
<polygon fill="black" stroke="black" points="356.79,-414.95 366.98,-412.06 357.21,-407.96 356.79,-414.95"/>
<text text-anchor="middle" x="261.78" y="-410.8" font-family="Times,serif" font-size="14.00">author</text>
</g>
<!-- &quot;Description of the creative work to aid ...&quot; -->
<g id="node12" class="node">
<title>&quot;Description of the creative work to aid ...&quot;</title>
<ellipse fill="none" stroke="black" stroke-width="0" cx="548.26" cy="-369" rx="209.86" ry="18"/>
<text text-anchor="middle" x="548.26" y="-365.3" font-family="Times,serif" font-size="14.00">&quot;Description of the creative work to aid ...&quot;</text>
</g>
<!-- example.org/id/XYZ&#45;&gt;&quot;Description of the creative work to aid ...&quot; -->
<g id="edge10" class="edge">
<title>example.org/id/XYZ&#45;&gt;&quot;Description of the creative work to aid ...&quot;</title>
<path fill="none" stroke="black" d="M188.34,-386.73C199.25,-385.71 210.27,-384.77 220.78,-384 260.9,-381.05 303.85,-378.58 344.97,-376.55"/>
<polygon fill="black" stroke="black" points="345.28,-380.04 355.1,-376.06 344.94,-373.05 345.28,-380.04"/>
<text text-anchor="middle" x="261.78" y="-387.8" font-family="Times,serif" font-size="14.00">description</text>
</g>
<!-- _ -->
<g id="node13" class="node">
<title>_</title>
<ellipse fill="none" stroke="#558855" cx="548.26" cy="-234" rx="27" ry="18"/>
<text text-anchor="middle" x="548.26" y="-230.3" font-family="Times,serif" font-size="14.00">_</text>
</g>
<!-- example.org/id/XYZ&#45;&gt;_ -->
<g id="edge12" class="edge">
<title>example.org/id/XYZ&#45;&gt;_</title>
<path fill="none" stroke="black" d="M146.67,-379.87C236.04,-347.33 436.11,-274.48 514.69,-245.86"/>
<polygon fill="black" stroke="black" points="515.89,-249.15 524.09,-242.44 513.49,-242.57 515.89,-249.15"/>
<text text-anchor="middle" x="261.78" y="-355.8" font-family="Times,serif" font-size="14.00">keywords</text>
</g>
<!-- &quot;Name or title of the document&quot; -->
<g id="node14" class="node">
<title>&quot;Name or title of the document&quot;</title>
<ellipse fill="none" stroke="black" stroke-width="0" cx="548.26" cy="-180" rx="159.77" ry="18"/>
<text text-anchor="middle" x="548.26" y="-176.3" font-family="Times,serif" font-size="14.00">&quot;Name or title of the document&quot;</text>
</g>
<!-- example.org/id/XYZ&#45;&gt;&quot;Name or title of the document&quot; -->
<g id="edge13" class="edge">
<title>example.org/id/XYZ&#45;&gt;&quot;Name or title of the document&quot;</title>
<path fill="none" stroke="black" d="M116.48,-378.06C148.17,-339.16 229.51,-247.32 320.78,-207 341.05,-198.04 363.29,-191.71 385.65,-187.29"/>
<polygon fill="black" stroke="black" points="386.39,-190.71 395.59,-185.45 385.12,-183.83 386.39,-190.71"/>
<text text-anchor="middle" x="261.78" y="-273.8" font-family="Times,serif" font-size="14.00">name</text>
</g>
<!-- &quot;https//www.sample&#45;data&#45;repository.org/cr...&quot; -->
<g id="node15" class="node">
<title>&quot;https//www.sample&#45;data&#45;repository.org/cr...&quot;</title>
<ellipse fill="none" stroke="black" stroke-width="0" cx="548.26" cy="-126" rx="219.86" ry="18"/>
<text text-anchor="middle" x="548.26" y="-122.3" font-family="Times,serif" font-size="14.00">&quot;https//www.sample&#45;data&#45;repository.org/cr...&quot;</text>
</g>
<!-- example.org/id/XYZ&#45;&gt;&quot;https//www.sample&#45;data&#45;repository.org/cr...&quot; -->
<g id="edge14" class="edge">
<title>example.org/id/XYZ&#45;&gt;&quot;https//www.sample&#45;data&#45;repository.org/cr...&quot;</title>
<path fill="none" stroke="black" d="M108.86,-377.95C123.31,-339.88 161.7,-250.6 220.78,-198 255.89,-166.74 301.47,-148.06 347.36,-137.12"/>
<polygon fill="black" stroke="black" points="348.18,-140.52 357.16,-134.9 346.63,-133.69 348.18,-140.52"/>
<text text-anchor="middle" x="261.78" y="-201.8" font-family="Times,serif" font-size="14.00">url</text>
</g>
<!-- Person -->
<g id="node16" class="node">
<title>Person</title>
<ellipse fill="none" stroke="#558855" cx="1121.02" cy="-558" rx="42.49" ry="18"/>
<text text-anchor="middle" x="1121.02" y="-554.3" font-family="Times,serif" font-size="14.00">Person</text>
</g>
<!-- www.sample&#45;data&#45;repository.org/person/51317&#45;&gt;Person -->
<g id="edge15" class="edge">
<title>www.sample&#45;data&#45;repository.org/person/51317&#45;&gt;Person</title>
<path fill="none" stroke="black" d="M744.63,-432.22C755.66,-436.97 766.15,-442.82 775.74,-450 792,-462.17 779.03,-478 793.74,-492 829.8,-526.32 850.37,-519.24 898.74,-531 955.96,-544.91 1023.33,-551.82 1068.57,-555.14"/>
<polygon fill="black" stroke="black" points="1068.5,-558.65 1078.72,-555.86 1068.99,-551.66 1068.5,-558.65"/>
<text text-anchor="middle" x="837.24" y="-530.8" font-family="Times,serif" font-size="14.00">type</text>
</g>
<!-- &quot;Passow&quot; -->
<g id="node17" class="node">
<title>&quot;Passow&quot;</title>
<ellipse fill="none" stroke="black" stroke-width="0" cx="1121.02" cy="-504" rx="53.89" ry="18"/>
<text text-anchor="middle" x="1121.02" y="-500.3" font-family="Times,serif" font-size="14.00">&quot;Passow&quot;</text>
</g>
<!-- www.sample&#45;data&#45;repository.org/person/51317&#45;&gt;&quot;Passow&quot; -->
<g id="edge16" class="edge">
<title>www.sample&#45;data&#45;repository.org/person/51317&#45;&gt;&quot;Passow&quot;</title>
<path fill="none" stroke="black" d="M704.02,-436.17C728.21,-439.74 752.79,-444.27 775.74,-450 784.07,-452.08 785.49,-454.63 793.74,-457 839.4,-470.11 851.8,-469.67 898.74,-477 952.84,-485.44 1014.73,-492.8 1059.27,-497.69"/>
<polygon fill="black" stroke="black" points="1059.03,-501.19 1069.36,-498.79 1059.79,-494.23 1059.03,-501.19"/>
<text text-anchor="middle" x="837.24" y="-476.8" font-family="Times,serif" font-size="14.00">familyName</text>
</g>
<!-- &quot;Uta&quot; -->
<g id="node18" class="node">
<title>&quot;Uta&quot;</title>
<ellipse fill="none" stroke="black" stroke-width="0" cx="1121.02" cy="-450" rx="36.29" ry="18"/>
<text text-anchor="middle" x="1121.02" y="-446.3" font-family="Times,serif" font-size="14.00">&quot;Uta&quot;</text>
</g>
<!-- www.sample&#45;data&#45;repository.org/person/51317&#45;&gt;&quot;Uta&quot; -->
<g id="edge17" class="edge">
<title>www.sample&#45;data&#45;repository.org/person/51317&#45;&gt;&quot;Uta&quot;</title>
<path fill="none" stroke="black" d="M744.09,-432.22C862.04,-437.8 1003.02,-444.47 1074.15,-447.83"/>
<polygon fill="black" stroke="black" points="1074.38,-451.34 1084.53,-448.32 1074.71,-444.35 1074.38,-451.34"/>
<text text-anchor="middle" x="837.24" y="-441.8" font-family="Times,serif" font-size="14.00">givenName</text>
</g>
<!-- &quot;Dr Uta Passow&quot; -->
<g id="node19" class="node">
<title>&quot;Dr Uta Passow&quot;</title>
<ellipse fill="none" stroke="black" stroke-width="0" cx="1121.02" cy="-396" rx="88.28" ry="18"/>
<text text-anchor="middle" x="1121.02" y="-392.3" font-family="Times,serif" font-size="14.00">&quot;Dr Uta Passow&quot;</text>
</g>
<!-- www.sample&#45;data&#45;repository.org/person/51317&#45;&gt;&quot;Dr Uta Passow&quot; -->
<g id="edge18" class="edge">
<title>www.sample&#45;data&#45;repository.org/person/51317&#45;&gt;&quot;Dr Uta Passow&quot;</title>
<path fill="none" stroke="black" d="M744.09,-413.78C838.82,-409.3 948.39,-404.12 1024.71,-400.51"/>
<polygon fill="black" stroke="black" points="1024.97,-404 1034.79,-400.03 1024.63,-397.01 1024.97,-404"/>
<text text-anchor="middle" x="837.24" y="-414.8" font-family="Times,serif" font-size="14.00">name</text>
</g>
<!-- &quot;https//www.sample&#45;data&#45;repository.org/pe...&quot; -->
<g id="node20" class="node">
<title>&quot;https//www.sample&#45;data&#45;repository.org/pe...&quot;</title>
<ellipse fill="none" stroke="black" stroke-width="0" cx="1121.02" cy="-342" rx="222.06" ry="18"/>
<text text-anchor="middle" x="1121.02" y="-338.3" font-family="Times,serif" font-size="14.00">&quot;https//www.sample&#45;data&#45;repository.org/pe...&quot;</text>
</g>
<!-- www.sample&#45;data&#45;repository.org/person/51317&#45;&gt;&quot;https//www.sample&#45;data&#45;repository.org/pe...&quot; -->
<g id="edge19" class="edge">
<title>www.sample&#45;data&#45;repository.org/person/51317&#45;&gt;&quot;https//www.sample&#45;data&#45;repository.org/pe...&quot;</title>
<path fill="none" stroke="black" d="M708.21,-410.18C731.09,-406.56 754.17,-401.93 775.74,-396 784.18,-393.68 785.37,-390.58 793.74,-388 839.07,-374.05 851.85,-376.1 898.74,-369 925.07,-365.02 953.23,-361.22 980.33,-357.81"/>
<polygon fill="black" stroke="black" points="980.78,-361.28 990.26,-356.56 979.91,-354.33 980.78,-361.28"/>
<text text-anchor="middle" x="837.24" y="-391.8" font-family="Times,serif" font-size="14.00">url</text>
</g>
<!-- _&#45;&gt;_ -->
<g id="edge25" class="edge">
<title>_&#45;&gt;_</title>
<path fill="none" stroke="black" d="M522.34,-239.67C478.18,-252.28 486.82,-270 548.26,-270 604.67,-270 616.57,-255.06 583.99,-242.87"/>
<polygon fill="black" stroke="black" points="584.78,-239.44 574.18,-239.67 582.61,-246.1 584.78,-239.44"/>
<text text-anchor="middle" x="548.26" y="-273.8" font-family="Times,serif" font-size="14.00">inDefinedTermSet</text>
</g>
<!-- DefinedTermSet -->
<g id="node21" class="node">
<title>DefinedTermSet</title>
<ellipse fill="none" stroke="#558855" cx="1121.02" cy="-288" rx="85.59" ry="18"/>
<text text-anchor="middle" x="1121.02" y="-284.3" font-family="Times,serif" font-size="14.00">DefinedTermSet</text>
</g>
<!-- _&#45;&gt;DefinedTermSet -->
<g id="edge20" class="edge">
<title>_&#45;&gt;DefinedTermSet</title>
<path fill="none" stroke="black" d="M575.27,-236.46C655.19,-244.02 899.76,-267.16 1032.36,-279.71"/>
<polygon fill="black" stroke="black" points="1032.2,-283.21 1042.49,-280.66 1032.86,-276.24 1032.2,-283.21"/>
<text text-anchor="middle" x="837.24" y="-267.8" font-family="Times,serif" font-size="14.00">type</text>
</g>
<!-- &quot;Description of the set&quot; -->
<g id="node22" class="node">
<title>&quot;Description of the set&quot;</title>
<ellipse fill="none" stroke="black" stroke-width="0" cx="1121.02" cy="-234" rx="120.48" ry="18"/>
<text text-anchor="middle" x="1121.02" y="-230.3" font-family="Times,serif" font-size="14.00">&quot;Description of the set&quot;</text>
</g>
<!-- _&#45;&gt;&quot;Description of the set&quot; -->
<g id="edge21" class="edge">
<title>_&#45;&gt;&quot;Description of the set&quot;</title>
<path fill="none" stroke="black" d="M575.27,-234C647.34,-234 853.33,-234 990.33,-234"/>
<polygon fill="black" stroke="black" points="990.49,-237.5 1000.49,-234 990.49,-230.5 990.49,-237.5"/>
<text text-anchor="middle" x="837.24" y="-237.8" font-family="Times,serif" font-size="14.00">description</text>
</g>
<!-- &quot;Name of the set&quot; -->
<g id="node23" class="node">
<title>&quot;Name of the set&quot;</title>
<ellipse fill="none" stroke="black" stroke-width="0" cx="1121.02" cy="-180" rx="93.68" ry="18"/>
<text text-anchor="middle" x="1121.02" y="-176.3" font-family="Times,serif" font-size="14.00">&quot;Name of the set&quot;</text>
</g>
<!-- _&#45;&gt;&quot;Name of the set&quot; -->
<g id="edge22" class="edge">
<title>_&#45;&gt;&quot;Name of the set&quot;</title>
<path fill="none" stroke="black" d="M575.27,-231.54C654.02,-224.09 892.64,-201.51 1026.47,-188.85"/>
<polygon fill="black" stroke="black" points="1027.09,-192.31 1036.71,-187.88 1026.43,-185.34 1027.09,-192.31"/>
<text text-anchor="middle" x="837.24" y="-213.8" font-family="Times,serif" font-size="14.00">name</text>
</g>
<!-- &quot;url for the set&quot; -->
<g id="node24" class="node">
<title>&quot;url for the set&quot;</title>
<ellipse fill="none" stroke="black" stroke-width="0" cx="1121.02" cy="-126" rx="83.69" ry="18"/>
<text text-anchor="middle" x="1121.02" y="-122.3" font-family="Times,serif" font-size="14.00">&quot;url for the set&quot;</text>
</g>
<!-- _&#45;&gt;&quot;url for the set&quot; -->
<g id="edge23" class="edge">
<title>_&#45;&gt;&quot;url for the set&quot;</title>
<path fill="none" stroke="black" d="M574.98,-237.03C619.14,-240.96 710.87,-243.52 775.74,-207 787.05,-200.63 783.01,-191.3 793.74,-184 833.99,-156.65 851.1,-162.87 898.74,-153 942.32,-143.97 991.41,-137.61 1032.25,-133.33"/>
<polygon fill="black" stroke="black" points="1032.86,-136.79 1042.45,-132.29 1032.15,-129.83 1032.86,-136.79"/>
<text text-anchor="middle" x="837.24" y="-187.8" font-family="Times,serif" font-size="14.00">url</text>
</g>
<!-- DefinedTerm -->
<g id="node25" class="node">
<title>DefinedTerm</title>
<ellipse fill="none" stroke="#558855" cx="1121.02" cy="-72" rx="70.39" ry="18"/>
<text text-anchor="middle" x="1121.02" y="-68.3" font-family="Times,serif" font-size="14.00">DefinedTerm</text>
</g>
<!-- _&#45;&gt;DefinedTerm -->
<g id="edge24" class="edge">
<title>_&#45;&gt;DefinedTerm</title>
<path fill="none" stroke="black" d="M574.28,-239.23C620.25,-247.27 718.68,-256.94 775.74,-207 799.92,-185.85 772.14,-160.77 793.74,-137 827.12,-100.27 850.47,-110.52 898.74,-99 945.79,-87.77 999.64,-81.07 1042.44,-77.15"/>
<polygon fill="black" stroke="black" points="1042.85,-80.63 1052.51,-76.26 1042.24,-73.66 1042.85,-80.63"/>
<text text-anchor="middle" x="837.24" y="-140.8" font-family="Times,serif" font-size="14.00">type</text>
</g>
<!-- &quot;A code that identifies this DefinedTerm ...&quot; -->
<g id="node26" class="node">
<title>&quot;A code that identifies this DefinedTerm ...&quot;</title>
<ellipse fill="none" stroke="black" stroke-width="0" cx="1121.02" cy="-18" rx="212.56" ry="18"/>
<text text-anchor="middle" x="1121.02" y="-14.3" font-family="Times,serif" font-size="14.00">&quot;A code that identifies this DefinedTerm ...&quot;</text>
</g>
<!-- _&#45;&gt;&quot;A code that identifies this DefinedTerm ...&quot; -->
<g id="edge26" class="edge">
<title>_&#45;&gt;&quot;A code that identifies this DefinedTerm ...&quot;</title>
<path fill="none" stroke="black" d="M574.07,-239.66C620.59,-248.65 721.13,-260.18 775.74,-207 815.33,-168.46 758.99,-126.95 793.74,-84 820.16,-51.35 857.87,-31.92 898.34,-20.83"/>
<polygon fill="black" stroke="black" points="899.3,-24.19 908.12,-18.32 897.56,-17.41 899.3,-24.19"/>
<text text-anchor="middle" x="837.24" y="-87.8" font-family="Times,serif" font-size="14.00">termCode</text>
</g>
</g>
</svg>
