<?xml version="1.0" encoding="UTF-8" standalone="no"?>
<!DOCTYPE svg PUBLIC "-//W3C//DTD SVG 1.1//EN"
 "http://www.w3.org/Graphics/SVG/1.1/DTD/svg11.dtd">
<!-- Generated by graphviz version 2.43.0 (0)
 -->
<!-- Title: %3 Pages: 1 -->
<svg width="1075pt" height="584pt"
 viewBox="0.00 0.00 1074.73 584.00" xmlns="http://www.w3.org/2000/svg" xmlns:xlink="http://www.w3.org/1999/xlink">
<g id="graph0" class="graph" transform="scale(1 1) rotate(0) translate(4 580)">
<title>%3</title>
<polygon fill="white" stroke="transparent" points="-4,4 -4,-580 1070.73,-580 1070.73,4 -4,4"/>
<!-- Organization -->
<g id="node1" class="node">
<title>Organization</title>
<ellipse fill="none" stroke="#558855" cx="932.19" cy="-558" rx="70.69" ry="18"/>
<text text-anchor="middle" x="932.19" y="-554.3" font-family="Times,serif" font-size="14.00">Organization</text>
</g>
<!-- example.org/id/org/x -->
<g id="node2" class="node">
<title>example.org/id/org/x</title>
<ellipse fill="none" stroke="black" cx="106.59" cy="-254" rx="106.68" ry="18"/>
<text text-anchor="middle" x="106.59" y="-250.3" font-family="Times,serif" font-size="14.00">example.org/id/org/x</text>
</g>
<!-- example.org/id/org/x&#45;&gt;Organization -->
<g id="edge1" class="edge">
<title>example.org/id/org/x&#45;&gt;Organization</title>
<path fill="none" stroke="black" d="M124.55,-272.08C147.12,-295.31 189.1,-335.79 231.18,-362 409.24,-472.9 462.14,-497.33 666.65,-544 727.84,-557.96 798.96,-561.02 852.03,-560.83"/>
<polygon fill="black" stroke="black" points="852.09,-564.33 862.07,-560.75 852.04,-557.33 852.09,-564.33"/>
<text text-anchor="middle" x="489.42" y="-542.8" font-family="Times,serif" font-size="14.00">type</text>
</g>
<!-- _ -->
<g id="node3" class="node">
<title>_</title>
<ellipse fill="none" stroke="#558855" cx="489.42" cy="-349" rx="27" ry="18"/>
<text text-anchor="middle" x="489.42" y="-345.3" font-family="Times,serif" font-size="14.00">_</text>
</g>
<!-- example.org/id/org/x&#45;&gt;_ -->
<g id="edge2" class="edge">
<title>example.org/id/org/x&#45;&gt;_</title>
<path fill="none" stroke="black" d="M130.23,-271.65C153.93,-289.06 192.97,-314.78 231.18,-327 307.11,-351.27 401.69,-352.44 452.36,-350.89"/>
<polygon fill="black" stroke="black" points="452.62,-354.38 462.49,-350.52 452.37,-347.39 452.62,-354.38"/>
<text text-anchor="middle" x="271.68" y="-346.8" font-family="Times,serif" font-size="14.00">address</text>
</g>
<!-- example.org/id/org/x&#45;&gt;_ -->
<g id="edge6" class="edge">
<title>example.org/id/org/x&#45;&gt;_</title>
<path fill="none" stroke="black" d="M163.5,-269.24C184.67,-274.93 209.01,-281.37 231.18,-287 310.58,-307.16 404.17,-329.32 453.66,-340.91"/>
<polygon fill="black" stroke="black" points="453,-344.35 463.54,-343.22 454.59,-337.53 453,-344.35"/>
<text text-anchor="middle" x="271.68" y="-309.8" font-family="Times,serif" font-size="14.00">member</text>
</g>
<!-- &quot;Description of org ....&quot; -->
<g id="node4" class="node">
<title>&quot;Description of org ....&quot;</title>
<ellipse fill="none" stroke="black" stroke-width="0" cx="489.42" cy="-281" rx="118.08" ry="18"/>
<text text-anchor="middle" x="489.42" y="-277.3" font-family="Times,serif" font-size="14.00">&quot;Description of org ....&quot;</text>
</g>
<!-- example.org/id/org/x&#45;&gt;&quot;Description of org ....&quot; -->
<g id="edge3" class="edge">
<title>example.org/id/org/x&#45;&gt;&quot;Description of org ....&quot;</title>
<path fill="none" stroke="black" d="M205.17,-260.92C255.89,-264.51 318.25,-268.94 371.54,-272.71"/>
<polygon fill="black" stroke="black" points="371.5,-276.22 381.72,-273.44 371.99,-269.24 371.5,-276.22"/>
<text text-anchor="middle" x="271.68" y="-271.8" font-family="Times,serif" font-size="14.00">description</text>
</g>
<!-- &quot;secretariat(at)examp...&quot; -->
<g id="node5" class="node">
<title>&quot;secretariat(at)examp...&quot;</title>
<ellipse fill="none" stroke="black" stroke-width="0" cx="489.42" cy="-227" rx="126.18" ry="18"/>
<text text-anchor="middle" x="489.42" y="-223.3" font-family="Times,serif" font-size="14.00">&quot;secretariat(at)examp...&quot;</text>
</g>
<!-- example.org/id/org/x&#45;&gt;&quot;secretariat(at)examp...&quot; -->
<g id="edge4" class="edge">
<title>example.org/id/org/x&#45;&gt;&quot;secretariat(at)examp...&quot;</title>
<path fill="none" stroke="black" d="M202.72,-246.16C212.33,-245.41 221.95,-244.68 231.18,-244 274.36,-240.83 321.65,-237.62 363.76,-234.87"/>
<polygon fill="black" stroke="black" points="364.03,-238.36 373.78,-234.21 363.58,-231.37 364.03,-238.36"/>
<text text-anchor="middle" x="271.68" y="-247.8" font-family="Times,serif" font-size="14.00">email</text>
</g>
<!-- grid.ac/institutes/grid.475727.4 -->
<g id="node6" class="node">
<title>grid.ac/institutes/grid.475727.4</title>
<ellipse fill="none" stroke="#558855" cx="489.42" cy="-173" rx="159.47" ry="18"/>
<text text-anchor="middle" x="489.42" y="-169.3" font-family="Times,serif" font-size="14.00">grid.ac/institutes/grid.475727.4</text>
</g>
<!-- example.org/id/org/x&#45;&gt;grid.ac/institutes/grid.475727.4 -->
<g id="edge5" class="edge">
<title>example.org/id/org/x&#45;&gt;grid.ac/institutes/grid.475727.4</title>
<path fill="none" stroke="black" d="M159.35,-238.27C181.37,-231.85 207.42,-224.63 231.18,-219 280.94,-207.2 336.76,-196.87 383.65,-189.01"/>
<polygon fill="black" stroke="black" points="384.23,-192.46 393.52,-187.37 383.08,-185.56 384.23,-192.46"/>
<text text-anchor="middle" x="271.68" y="-222.8" font-family="Times,serif" font-size="14.00">identifier</text>
</g>
<!-- &quot;Organization X&quot; -->
<g id="node7" class="node">
<title>&quot;Organization X&quot;</title>
<ellipse fill="none" stroke="black" stroke-width="0" cx="489.42" cy="-119" rx="89.08" ry="18"/>
<text text-anchor="middle" x="489.42" y="-115.3" font-family="Times,serif" font-size="14.00">&quot;Organization X&quot;</text>
</g>
<!-- example.org/id/org/x&#45;&gt;&quot;Organization X&quot; -->
<g id="edge7" class="edge">
<title>example.org/id/org/x&#45;&gt;&quot;Organization X&quot;</title>
<path fill="none" stroke="black" d="M134.87,-236.59C159.47,-221.32 196.92,-199.11 231.18,-183 273.69,-163.01 284.83,-158.23 330.18,-146 353.84,-139.62 379.92,-134.44 403.96,-130.38"/>
<polygon fill="black" stroke="black" points="404.83,-133.79 414.13,-128.71 403.69,-126.88 404.83,-133.79"/>
<text text-anchor="middle" x="271.68" y="-186.8" font-family="Times,serif" font-size="14.00">name</text>
</g>
<!-- &quot;( 33 1) 42 68 53 00&quot; -->
<g id="node8" class="node">
<title>&quot;( 33 1) 42 68 53 00&quot;</title>
<ellipse fill="none" stroke="black" stroke-width="0" cx="489.42" cy="-65" rx="108.58" ry="18"/>
<text text-anchor="middle" x="489.42" y="-61.3" font-family="Times,serif" font-size="14.00">&quot;( 33 1) 42 68 53 00&quot;</text>
</g>
<!-- example.org/id/org/x&#45;&gt;&quot;( 33 1) 42 68 53 00&quot; -->
<g id="edge8" class="edge">
<title>example.org/id/org/x&#45;&gt;&quot;( 33 1) 42 68 53 00&quot;</title>
<path fill="none" stroke="black" d="M121.81,-236.01C143.15,-210.01 185.83,-161.81 231.18,-132 277.28,-101.7 336.41,-85.09 386.35,-75.99"/>
<polygon fill="black" stroke="black" points="386.96,-79.44 396.21,-74.27 385.76,-72.54 386.96,-79.44"/>
<text text-anchor="middle" x="271.68" y="-135.8" font-family="Times,serif" font-size="14.00">telephone</text>
</g>
<!-- _&#45;&gt;Organization -->
<g id="edge13" class="edge">
<title>_&#45;&gt;Organization</title>
<path fill="none" stroke="black" d="M505.01,-364.12C533.5,-392.81 599.64,-455.49 666.65,-491 720.44,-519.5 738.64,-516.06 797.65,-531 819.13,-536.44 842.77,-541.51 864.11,-545.76"/>
<polygon fill="black" stroke="black" points="863.57,-549.22 874.06,-547.71 864.92,-542.35 863.57,-549.22"/>
<text text-anchor="middle" x="723.15" y="-529.8" font-family="Times,serif" font-size="14.00">type</text>
</g>
<!-- &quot;Org A is a potential...&quot; -->
<g id="node13" class="node">
<title>&quot;Org A is a potential...&quot;</title>
<ellipse fill="none" stroke="black" stroke-width="0" cx="932.19" cy="-504" rx="118.08" ry="18"/>
<text text-anchor="middle" x="932.19" y="-500.3" font-family="Times,serif" font-size="14.00">&quot;Org A is a potential...&quot;</text>
</g>
<!-- _&#45;&gt;&quot;Org A is a potential...&quot; -->
<g id="edge14" class="edge">
<title>_&#45;&gt;&quot;Org A is a potential...&quot;</title>
<path fill="none" stroke="black" d="M510.15,-360.87C542.1,-379.7 607.56,-416.67 666.65,-440 722.93,-462.21 738.85,-462.77 797.65,-477 813.55,-480.85 830.6,-484.58 847.02,-487.99"/>
<polygon fill="black" stroke="black" points="846.65,-491.49 857.15,-490.07 848.06,-484.63 846.65,-491.49"/>
<text text-anchor="middle" x="723.15" y="-475.8" font-family="Times,serif" font-size="14.00">description</text>
</g>
<!-- &quot;Organization A&quot; -->
<g id="node14" class="node">
<title>&quot;Organization A&quot;</title>
<ellipse fill="none" stroke="black" stroke-width="0" cx="932.19" cy="-450" rx="89.08" ry="18"/>
<text text-anchor="middle" x="932.19" y="-446.3" font-family="Times,serif" font-size="14.00">&quot;Organization A&quot;</text>
</g>
<!-- _&#45;&gt;&quot;Organization A&quot; -->
<g id="edge15" class="edge">
<title>_&#45;&gt;&quot;Organization A&quot;</title>
<path fill="none" stroke="black" d="M514.21,-356.25C547.93,-366.37 611.65,-384.97 666.65,-398 729.44,-412.88 801.32,-426.81 854.3,-436.5"/>
<polygon fill="black" stroke="black" points="853.83,-439.98 864.29,-438.32 855.08,-433.09 853.83,-439.98"/>
<text text-anchor="middle" x="723.15" y="-424.8" font-family="Times,serif" font-size="14.00">name</text>
</g>
<!-- PostalAddress -->
<g id="node15" class="node">
<title>PostalAddress</title>
<ellipse fill="none" stroke="#558855" cx="932.19" cy="-396" rx="76.89" ry="18"/>
<text text-anchor="middle" x="932.19" y="-392.3" font-family="Times,serif" font-size="14.00">PostalAddress</text>
</g>
<!-- _&#45;&gt;PostalAddress -->
<g id="edge16" class="edge">
<title>_&#45;&gt;PostalAddress</title>
<path fill="none" stroke="black" d="M516.34,-351.76C580.84,-358.64 750.59,-376.74 851.84,-387.54"/>
<polygon fill="black" stroke="black" points="851.71,-391.04 862.02,-388.62 852.45,-384.08 851.71,-391.04"/>
<text text-anchor="middle" x="723.15" y="-382.8" font-family="Times,serif" font-size="14.00">type</text>
</g>
<!-- &quot;Paris, France&quot; -->
<g id="node16" class="node">
<title>&quot;Paris, France&quot;</title>
<ellipse fill="none" stroke="black" stroke-width="0" cx="932.19" cy="-342" rx="81.49" ry="18"/>
<text text-anchor="middle" x="932.19" y="-338.3" font-family="Times,serif" font-size="14.00">&quot;Paris, France&quot;</text>
</g>
<!-- _&#45;&gt;&quot;Paris, France&quot; -->
<g id="edge17" class="edge">
<title>_&#45;&gt;&quot;Paris, France&quot;</title>
<path fill="none" stroke="black" d="M516.67,-348.58C579.11,-347.59 738.88,-345.05 840.84,-343.43"/>
<polygon fill="black" stroke="black" points="841.19,-346.93 851.13,-343.27 841.08,-339.93 841.19,-346.93"/>
<text text-anchor="middle" x="723.15" y="-349.8" font-family="Times,serif" font-size="14.00">addressLocality</text>
</g>
<!-- &quot;F&#45;75002&quot; -->
<g id="node17" class="node">
<title>&quot;F&#45;75002&quot;</title>
<ellipse fill="none" stroke="black" stroke-width="0" cx="932.19" cy="-288" rx="57.69" ry="18"/>
<text text-anchor="middle" x="932.19" y="-284.3" font-family="Times,serif" font-size="14.00">&quot;F&#45;75002&quot;</text>
</g>
<!-- _&#45;&gt;&quot;F&#45;75002&quot; -->
<g id="edge18" class="edge">
<title>_&#45;&gt;&quot;F&#45;75002&quot;</title>
<path fill="none" stroke="black" d="M516.02,-345.46C583.99,-336.05 770.45,-310.25 868.72,-296.65"/>
<polygon fill="black" stroke="black" points="869.38,-300.09 878.81,-295.25 868.42,-293.15 869.38,-300.09"/>
<text text-anchor="middle" x="723.15" y="-326.8" font-family="Times,serif" font-size="14.00">postalCode</text>
</g>
<!-- &quot;38 avenue de l&#39;Opera&quot; -->
<g id="node18" class="node">
<title>&quot;38 avenue de l&#39;Opera&quot;</title>
<ellipse fill="none" stroke="black" stroke-width="0" cx="932.19" cy="-234" rx="118.08" ry="18"/>
<text text-anchor="middle" x="932.19" y="-230.3" font-family="Times,serif" font-size="14.00">&quot;38 avenue de l&#39;Opera&quot;</text>
</g>
<!-- _&#45;&gt;&quot;38 avenue de l&#39;Opera&quot; -->
<g id="edge19" class="edge">
<title>_&#45;&gt;&quot;38 avenue de l&#39;Opera&quot;</title>
<path fill="none" stroke="black" d="M516.38,-346.52C549.08,-342.47 606.16,-332.3 648.65,-308 658.47,-302.38 656.73,-295.44 666.65,-290 718.94,-261.33 739.31,-273.35 797.65,-261 814.38,-257.46 832.32,-253.76 849.44,-250.28"/>
<polygon fill="black" stroke="black" points="850.31,-253.68 859.41,-248.26 848.92,-246.82 850.31,-253.68"/>
<text text-anchor="middle" x="723.15" y="-293.8" font-family="Times,serif" font-size="14.00">streetAddress</text>
</g>
<!-- PropertyValue -->
<g id="node9" class="node">
<title>PropertyValue</title>
<ellipse fill="none" stroke="#558855" cx="932.19" cy="-180" rx="77.19" ry="18"/>
<text text-anchor="middle" x="932.19" y="-176.3" font-family="Times,serif" font-size="14.00">PropertyValue</text>
</g>
<!-- grid.ac/institutes/grid.475727.4&#45;&gt;PropertyValue -->
<g id="edge9" class="edge">
<title>grid.ac/institutes/grid.475727.4&#45;&gt;PropertyValue</title>
<path fill="none" stroke="black" d="M647.37,-175.49C713.73,-176.55 788.48,-177.73 844.6,-178.62"/>
<polygon fill="black" stroke="black" points="844.81,-182.13 854.86,-178.79 844.92,-175.13 844.81,-182.13"/>
<text text-anchor="middle" x="723.15" y="-180.8" font-family="Times,serif" font-size="14.00">type</text>
</g>
<!-- &quot;UN Department of Eco...&quot; -->
<g id="node10" class="node">
<title>&quot;UN Department of Eco...&quot;</title>
<ellipse fill="none" stroke="black" stroke-width="0" cx="932.19" cy="-126" rx="134.58" ry="18"/>
<text text-anchor="middle" x="932.19" y="-122.3" font-family="Times,serif" font-size="14.00">&quot;UN Department of Eco...&quot;</text>
</g>
<!-- grid.ac/institutes/grid.475727.4&#45;&gt;&quot;UN Department of Eco...&quot; -->
<g id="edge10" class="edge">
<title>grid.ac/institutes/grid.475727.4&#45;&gt;&quot;UN Department of Eco...&quot;</title>
<path fill="none" stroke="black" d="M605.94,-160.68C670.82,-153.76 751.53,-145.16 816.31,-138.25"/>
<polygon fill="black" stroke="black" points="816.99,-141.7 826.57,-137.16 816.25,-134.74 816.99,-141.7"/>
<text text-anchor="middle" x="723.15" y="-156.8" font-family="Times,serif" font-size="14.00">description</text>
</g>
<!-- &quot;https//registry.iden...&quot; -->
<g id="node11" class="node">
<title>&quot;https//registry.iden...&quot;</title>
<ellipse fill="none" stroke="black" stroke-width="0" cx="932.19" cy="-72" rx="116.98" ry="18"/>
<text text-anchor="middle" x="932.19" y="-68.3" font-family="Times,serif" font-size="14.00">&quot;https//registry.iden...&quot;</text>
</g>
<!-- grid.ac/institutes/grid.475727.4&#45;&gt;&quot;https//registry.iden...&quot; -->
<g id="edge11" class="edge">
<title>grid.ac/institutes/grid.475727.4&#45;&gt;&quot;https//registry.iden...&quot;</title>
<path fill="none" stroke="black" d="M612.94,-161.56C625.48,-157.65 637.64,-152.57 648.65,-146 659.8,-139.35 655.58,-129.77 666.65,-123 708.76,-97.27 761.08,-84.08 808.06,-77.47"/>
<polygon fill="black" stroke="black" points="808.54,-80.94 817.99,-76.16 807.62,-74 808.54,-80.94"/>
<text text-anchor="middle" x="723.15" y="-126.8" font-family="Times,serif" font-size="14.00">propertyID</text>
</g>
<!-- &quot;https//grid.ac/insti...&quot; -->
<g id="node12" class="node">
<title>&quot;https//grid.ac/insti...&quot;</title>
<ellipse fill="none" stroke="black" stroke-width="0" cx="932.19" cy="-18" rx="114.28" ry="18"/>
<text text-anchor="middle" x="932.19" y="-14.3" font-family="Times,serif" font-size="14.00">&quot;https//grid.ac/insti...&quot;</text>
</g>
<!-- grid.ac/institutes/grid.475727.4&#45;&gt;&quot;https//grid.ac/insti...&quot; -->
<g id="edge12" class="edge">
<title>grid.ac/institutes/grid.475727.4&#45;&gt;&quot;https//grid.ac/insti...&quot;</title>
<path fill="none" stroke="black" d="M623.33,-163.18C632.6,-158.76 641.2,-153.13 648.65,-146 675.93,-119.91 639.37,-89.08 666.65,-63 707.07,-24.37 767.73,-12.07 820.77,-9.9"/>
<polygon fill="black" stroke="black" points="821.03,-13.39 830.93,-9.6 820.83,-6.4 821.03,-13.39"/>
<text text-anchor="middle" x="723.15" y="-66.8" font-family="Times,serif" font-size="14.00">url</text>
</g>
</g>
</svg>
