<?xml version="1.0" encoding="UTF-8" standalone="no"?>
<!DOCTYPE svg PUBLIC "-//W3C//DTD SVG 1.1//EN"
 "http://www.w3.org/Graphics/SVG/1.1/DTD/svg11.dtd">
<!-- Generated by graphviz version 2.43.0 (0)
 -->
<!-- Title: %3 Pages: 1 -->
<svg width="909pt" height="260pt"
 viewBox="0.00 0.00 908.74 260.00" xmlns="http://www.w3.org/2000/svg" xmlns:xlink="http://www.w3.org/1999/xlink">
<g id="graph0" class="graph" transform="scale(1 1) rotate(0) translate(4 256)">
<title>%3</title>
<polygon fill="white" stroke="transparent" points="-4,4 -4,-256 904.74,-256 904.74,4 -4,4"/>
<!-- CreativeWork -->
<g id="node1" class="node">
<title>CreativeWork</title>
<ellipse fill="none" stroke="#558855" cx="415.97" cy="-180" rx="74.19" ry="18"/>
<text text-anchor="middle" x="415.97" y="-176.3" font-family="Times,serif" font-size="14.00">CreativeWork</text>
</g>
<!-- example.org/id/XYZ -->
<g id="node2" class="node">
<title>example.org/id/XYZ</title>
<ellipse fill="none" stroke="black" cx="101.39" cy="-126" rx="101.28" ry="18"/>
<text text-anchor="middle" x="101.39" y="-122.3" font-family="Times,serif" font-size="14.00">example.org/id/XYZ</text>
</g>
<!-- example.org/id/XYZ&#45;&gt;CreativeWork -->
<g id="edge1" class="edge">
<title>example.org/id/XYZ&#45;&gt;CreativeWork</title>
<path fill="none" stroke="black" d="M174.89,-138.52C226.2,-147.39 294.63,-159.21 345.3,-167.96"/>
<polygon fill="black" stroke="black" points="344.74,-171.42 355.19,-169.67 345.93,-164.52 344.74,-171.42"/>
<text text-anchor="middle" x="254.78" y="-160.8" font-family="Times,serif" font-size="14.00">type</text>
</g>
<!-- www.repositoryB.org -->
<g id="node3" class="node">
<title>www.repositoryB.org</title>
<ellipse fill="none" stroke="#558855" cx="415.97" cy="-126" rx="109.38" ry="18"/>
<text text-anchor="middle" x="415.97" y="-122.3" font-family="Times,serif" font-size="14.00">www.repositoryB.org</text>
</g>
<!-- example.org/id/XYZ&#45;&gt;www.repositoryB.org -->
<g id="edge2" class="edge">
<title>example.org/id/XYZ&#45;&gt;www.repositoryB.org</title>
<path fill="none" stroke="black" d="M203.01,-126C232.76,-126 265.6,-126 296.36,-126"/>
<polygon fill="black" stroke="black" points="296.71,-129.5 306.71,-126 296.71,-122.5 296.71,-129.5"/>
<text text-anchor="middle" x="254.78" y="-129.8" font-family="Times,serif" font-size="14.00">provider</text>
</g>
<!-- www.repositoryA.org -->
<g id="node4" class="node">
<title>www.repositoryA.org</title>
<ellipse fill="none" stroke="#558855" cx="415.97" cy="-72" rx="108.58" ry="18"/>
<text text-anchor="middle" x="415.97" y="-68.3" font-family="Times,serif" font-size="14.00">www.repositoryA.org</text>
</g>
<!-- example.org/id/XYZ&#45;&gt;www.repositoryA.org -->
<g id="edge3" class="edge">
<title>example.org/id/XYZ&#45;&gt;www.repositoryA.org</title>
<path fill="none" stroke="black" d="M174.89,-113.48C221.29,-105.46 281.68,-95.03 330.28,-86.63"/>
<polygon fill="black" stroke="black" points="330.89,-90.08 340.15,-84.93 329.7,-83.18 330.89,-90.08"/>
<text text-anchor="middle" x="254.78" y="-108.8" font-family="Times,serif" font-size="14.00">publisher</text>
</g>
<!-- Organization -->
<g id="node5" class="node">
<title>Organization</title>
<ellipse fill="none" stroke="#558855" cx="769.45" cy="-234" rx="70.69" ry="18"/>
<text text-anchor="middle" x="769.45" y="-230.3" font-family="Times,serif" font-size="14.00">Organization</text>
</g>
<!-- www.repositoryB.org&#45;&gt;Organization -->
<g id="edge4" class="edge">
<title>www.repositoryB.org&#45;&gt;Organization</title>
<path fill="none" stroke="black" d="M494,-138.68C504.94,-142.32 515.68,-146.99 525.16,-153 535.83,-159.76 532.77,-167.81 543.16,-175 579.81,-200.34 595.16,-195.35 638.16,-207 658.47,-212.5 680.83,-217.51 701.2,-221.67"/>
<polygon fill="black" stroke="black" points="700.53,-225.11 711.02,-223.65 701.91,-218.25 700.53,-225.11"/>
<text text-anchor="middle" x="581.66" y="-205.8" font-family="Times,serif" font-size="14.00">type</text>
</g>
<!-- &quot;Sample Data Reposito...&quot; -->
<g id="node6" class="node">
<title>&quot;Sample Data Reposito...&quot;</title>
<ellipse fill="none" stroke="black" stroke-width="0" cx="769.45" cy="-180" rx="131.08" ry="18"/>
<text text-anchor="middle" x="769.45" y="-176.3" font-family="Times,serif" font-size="14.00">&quot;Sample Data Reposito...&quot;</text>
</g>
<!-- www.repositoryB.org&#45;&gt;&quot;Sample Data Reposito...&quot; -->
<g id="edge5" class="edge">
<title>www.repositoryB.org&#45;&gt;&quot;Sample Data Reposito...&quot;</title>
<path fill="none" stroke="black" d="M496.73,-138.25C548.5,-146.21 616.29,-156.62 671.21,-165.06"/>
<polygon fill="black" stroke="black" points="670.9,-168.55 681.31,-166.61 671.96,-161.63 670.9,-168.55"/>
<text text-anchor="middle" x="581.66" y="-159.8" font-family="Times,serif" font-size="14.00">legalName</text>
</g>
<!-- &quot;SDRO&quot; -->
<g id="node7" class="node">
<title>&quot;SDRO&quot;</title>
<ellipse fill="none" stroke="black" stroke-width="0" cx="769.45" cy="-126" rx="47.39" ry="18"/>
<text text-anchor="middle" x="769.45" y="-122.3" font-family="Times,serif" font-size="14.00">&quot;SDRO&quot;</text>
</g>
<!-- www.repositoryB.org&#45;&gt;&quot;SDRO&quot; -->
<g id="edge6" class="edge">
<title>www.repositoryB.org&#45;&gt;&quot;SDRO&quot;</title>
<path fill="none" stroke="black" d="M525.3,-126C587,-126 661.78,-126 711.98,-126"/>
<polygon fill="black" stroke="black" points="711.99,-129.5 721.99,-126 711.99,-122.5 711.99,-129.5"/>
<text text-anchor="middle" x="581.66" y="-129.8" font-family="Times,serif" font-size="14.00">name</text>
</g>
<!-- &quot;http//www.re3data.or...&quot; -->
<g id="node8" class="node">
<title>&quot;http//www.re3data.or...&quot;</title>
<ellipse fill="none" stroke="black" stroke-width="0" cx="769.45" cy="-72" rx="126.98" ry="18"/>
<text text-anchor="middle" x="769.45" y="-68.3" font-family="Times,serif" font-size="14.00">&quot;http//www.re3data.or...&quot;</text>
</g>
<!-- www.repositoryB.org&#45;&gt;&quot;http//www.re3data.or...&quot; -->
<g id="edge7" class="edge">
<title>www.repositoryB.org&#45;&gt;&quot;http//www.re3data.or...&quot;</title>
<path fill="none" stroke="black" d="M496.73,-113.75C548.97,-105.72 617.54,-95.19 672.73,-86.71"/>
<polygon fill="black" stroke="black" points="673.52,-90.13 682.87,-85.15 672.45,-83.21 673.52,-90.13"/>
<text text-anchor="middle" x="581.66" y="-108.8" font-family="Times,serif" font-size="14.00">sameAs</text>
</g>
<!-- &quot;https//www.sample&#45;da...&quot; -->
<g id="node9" class="node">
<title>&quot;https//www.sample&#45;da...&quot;</title>
<ellipse fill="none" stroke="black" stroke-width="0" cx="769.45" cy="-18" rx="131.08" ry="18"/>
<text text-anchor="middle" x="769.45" y="-14.3" font-family="Times,serif" font-size="14.00">&quot;https//www.sample&#45;da...&quot;</text>
</g>
<!-- www.repositoryB.org&#45;&gt;&quot;https//www.sample&#45;da...&quot; -->
<g id="edge8" class="edge">
<title>www.repositoryB.org&#45;&gt;&quot;https//www.sample&#45;da...&quot;</title>
<path fill="none" stroke="black" d="M494.4,-113.4C505.22,-109.76 515.83,-105.06 525.16,-99 536.05,-91.93 532.53,-83.45 543.16,-76 579.54,-50.52 595.24,-56.41 638.16,-45 652.04,-41.31 666.86,-37.82 681.34,-34.65"/>
<polygon fill="black" stroke="black" points="682.26,-38.03 691.3,-32.51 680.79,-31.19 682.26,-38.03"/>
<text text-anchor="middle" x="581.66" y="-79.8" font-family="Times,serif" font-size="14.00">url</text>
</g>
</g>
</svg>
