<?xml version="1.0" encoding="UTF-8" standalone="no"?>
<!DOCTYPE svg PUBLIC "-//W3C//DTD SVG 1.1//EN"
 "http://www.w3.org/Graphics/SVG/1.1/DTD/svg11.dtd">
<!-- Generated by graphviz version 2.43.0 (0)
 -->
<!-- Title: %3 Pages: 1 -->
<svg width="994pt" height="590pt"
 viewBox="0.00 0.00 993.83 590.00" xmlns="http://www.w3.org/2000/svg" xmlns:xlink="http://www.w3.org/1999/xlink">
<g id="graph0" class="graph" transform="scale(1 1) rotate(0) translate(4 586)">
<title>%3</title>
<polygon fill="white" stroke="transparent" points="-4,4 -4,-586 989.83,-586 989.83,4 -4,4"/>
<!-- Course -->
<g id="node1" class="node">
<title>Course</title>
<ellipse fill="none" stroke="#558855" cx="859.75" cy="-564" rx="43.59" ry="18"/>
<text text-anchor="middle" x="859.75" y="-560.3" font-family="Times,serif" font-size="14.00">Course</text>
</g>
<!-- example.org/id/course/x -->
<g id="node2" class="node">
<title>example.org/id/course/x</title>
<ellipse fill="none" stroke="#558855" cx="458.72" cy="-483" rx="122.38" ry="18"/>
<text text-anchor="middle" x="458.72" y="-479.3" font-family="Times,serif" font-size="14.00">example.org/id/course/x</text>
</g>
<!-- example.org/id/course/x&#45;&gt;Course -->
<g id="edge1" class="edge">
<title>example.org/id/course/x&#45;&gt;Course</title>
<path fill="none" stroke="black" d="M531.52,-497.57C612.25,-513.96 741.12,-540.12 810.59,-554.23"/>
<polygon fill="black" stroke="black" points="809.9,-557.66 820.4,-556.22 811.3,-550.8 809.9,-557.66"/>
<text text-anchor="middle" x="675.16" y="-536.8" font-family="Times,serif" font-size="14.00">type</text>
</g>
<!-- &quot;In this course ...&quot; -->
<g id="node3" class="node">
<title>&quot;In this course ...&quot;</title>
<ellipse fill="none" stroke="black" stroke-width="0" cx="859.75" cy="-510" rx="94.78" ry="18"/>
<text text-anchor="middle" x="859.75" y="-506.3" font-family="Times,serif" font-size="14.00">&quot;In this course ...&quot;</text>
</g>
<!-- example.org/id/course/x&#45;&gt;&quot;In this course ...&quot; -->
<g id="edge2" class="edge">
<title>example.org/id/course/x&#45;&gt;&quot;In this course ...&quot;</title>
<path fill="none" stroke="black" d="M570.08,-490.47C629.59,-494.49 702.43,-499.42 760.05,-503.32"/>
<polygon fill="black" stroke="black" points="760.04,-506.83 770.25,-504.01 760.51,-499.85 760.04,-506.83"/>
<text text-anchor="middle" x="675.16" y="-502.8" font-family="Times,serif" font-size="14.00">description</text>
</g>
<!-- &quot;URL to the course&quot; -->
<g id="node4" class="node">
<title>&quot;URL to the course&quot;</title>
<ellipse fill="none" stroke="black" stroke-width="0" cx="859.75" cy="-456" rx="103.98" ry="18"/>
<text text-anchor="middle" x="859.75" y="-452.3" font-family="Times,serif" font-size="14.00">&quot;URL to the course&quot;</text>
</g>
<!-- example.org/id/course/x&#45;&gt;&quot;URL to the course&quot; -->
<g id="edge3" class="edge">
<title>example.org/id/course/x&#45;&gt;&quot;URL to the course&quot;</title>
<path fill="none" stroke="black" d="M570.08,-475.53C627.09,-471.68 696.32,-466.99 752.7,-463.18"/>
<polygon fill="black" stroke="black" points="752.97,-466.67 762.71,-462.5 752.5,-459.68 752.97,-466.67"/>
<text text-anchor="middle" x="675.16" y="-474.8" font-family="Times,serif" font-size="14.00">url</text>
</g>
<!-- Person -->
<g id="node5" class="node">
<title>Person</title>
<ellipse fill="none" stroke="#558855" cx="458.72" cy="-348" rx="42.49" ry="18"/>
<text text-anchor="middle" x="458.72" y="-344.3" font-family="Times,serif" font-size="14.00">Person</text>
</g>
<!-- example.org/id/x -->
<g id="node6" class="node">
<title>example.org/id/x</title>
<ellipse fill="none" stroke="black" cx="88.39" cy="-202" rx="88.28" ry="18"/>
<text text-anchor="middle" x="88.39" y="-198.3" font-family="Times,serif" font-size="14.00">example.org/id/x</text>
</g>
<!-- example.org/id/x&#45;&gt;example.org/id/course/x -->
<g id="edge7" class="edge">
<title>example.org/id/x&#45;&gt;example.org/id/course/x</title>
<path fill="none" stroke="black" d="M100.54,-220.03C118.04,-247.26 154.18,-299.36 194.78,-334 261.2,-390.66 352.34,-436.6 408.02,-461.83"/>
<polygon fill="black" stroke="black" points="406.76,-465.1 417.32,-466 409.63,-458.71 406.76,-465.1"/>
<text text-anchor="middle" x="238.78" y="-399.8" font-family="Times,serif" font-size="14.00">knowsAbout</text>
</g>
<!-- example.org/id/x&#45;&gt;Person -->
<g id="edge4" class="edge">
<title>example.org/id/x&#45;&gt;Person</title>
<path fill="none" stroke="black" d="M108.76,-219.54C129.02,-237.18 162.34,-264.24 194.78,-282 262.65,-319.16 351.79,-335.81 406.89,-342.97"/>
<polygon fill="black" stroke="black" points="406.75,-346.48 417.11,-344.24 407.61,-339.53 406.75,-346.48"/>
<text text-anchor="middle" x="238.78" y="-318.8" font-family="Times,serif" font-size="14.00">type</text>
</g>
<!-- orcid.org/0000&#45;0002&#45;2257&#45;9127 -->
<g id="node7" class="node">
<title>orcid.org/0000&#45;0002&#45;2257&#45;9127</title>
<ellipse fill="none" stroke="#558855" cx="458.72" cy="-294" rx="157.87" ry="18"/>
<text text-anchor="middle" x="458.72" y="-290.3" font-family="Times,serif" font-size="14.00">orcid.org/0000&#45;0002&#45;2257&#45;9127</text>
</g>
<!-- example.org/id/x&#45;&gt;orcid.org/0000&#45;0002&#45;2257&#45;9127 -->
<g id="edge5" class="edge">
<title>example.org/id/x&#45;&gt;orcid.org/0000&#45;0002&#45;2257&#45;9127</title>
<path fill="none" stroke="black" d="M129.56,-218.09C149.07,-225.59 172.96,-234.31 194.78,-241 246.12,-256.74 304.55,-269.05 353.28,-277.83"/>
<polygon fill="black" stroke="black" points="352.75,-281.29 363.2,-279.6 353.97,-274.4 352.75,-281.29"/>
<text text-anchor="middle" x="238.78" y="-266.8" font-family="Times,serif" font-size="14.00">identifier</text>
</g>
<!-- &quot;Professor&quot; -->
<g id="node8" class="node">
<title>&quot;Professor&quot;</title>
<ellipse fill="none" stroke="black" stroke-width="0" cx="458.72" cy="-240" rx="63.89" ry="18"/>
<text text-anchor="middle" x="458.72" y="-236.3" font-family="Times,serif" font-size="14.00">&quot;Professor&quot;</text>
</g>
<!-- example.org/id/x&#45;&gt;&quot;Professor&quot; -->
<g id="edge6" class="edge">
<title>example.org/id/x&#45;&gt;&quot;Professor&quot;</title>
<path fill="none" stroke="black" d="M165.65,-210.82C175.45,-211.91 185.35,-213 194.78,-214 260.35,-220.97 335.18,-228.31 388.2,-233.41"/>
<polygon fill="black" stroke="black" points="387.88,-236.89 398.17,-234.37 388.55,-229.93 387.88,-236.89"/>
<text text-anchor="middle" x="238.78" y="-225.8" font-family="Times,serif" font-size="14.00">jobTitle</text>
</g>
<!-- _ -->
<g id="node9" class="node">
<title>_</title>
<ellipse fill="none" stroke="#558855" cx="458.72" cy="-180" rx="27" ry="18"/>
<text text-anchor="middle" x="458.72" y="-176.3" font-family="Times,serif" font-size="14.00">_</text>
</g>
<!-- example.org/id/x&#45;&gt;_ -->
<g id="edge8" class="edge">
<title>example.org/id/x&#45;&gt;_</title>
<path fill="none" stroke="black" d="M173.43,-196.98C251.59,-192.31 364.3,-185.58 421.49,-182.16"/>
<polygon fill="black" stroke="black" points="421.73,-185.66 431.5,-181.57 421.31,-178.67 421.73,-185.66"/>
<text text-anchor="middle" x="238.78" y="-198.8" font-family="Times,serif" font-size="14.00">knowsAbout</text>
</g>
<!-- example.org/id/x&#45;&gt;_ -->
<g id="edge9" class="edge">
<title>example.org/id/x&#45;&gt;_</title>
<path fill="none" stroke="black" d="M133.68,-186.44C152.3,-180.68 174.34,-174.85 194.78,-172 275.44,-160.74 371.31,-169.05 422.06,-175.13"/>
<polygon fill="black" stroke="black" points="421.83,-178.63 432.18,-176.38 422.69,-171.68 421.83,-178.63"/>
<text text-anchor="middle" x="238.78" y="-175.8" font-family="Times,serif" font-size="14.00">knowsAbout</text>
</g>
<!-- &quot;Jane Doe&quot; -->
<g id="node10" class="node">
<title>&quot;Jane Doe&quot;</title>
<ellipse fill="none" stroke="black" stroke-width="0" cx="458.72" cy="-126" rx="60.39" ry="18"/>
<text text-anchor="middle" x="458.72" y="-122.3" font-family="Times,serif" font-size="14.00">&quot;Jane Doe&quot;</text>
</g>
<!-- example.org/id/x&#45;&gt;&quot;Jane Doe&quot; -->
<g id="edge10" class="edge">
<title>example.org/id/x&#45;&gt;&quot;Jane Doe&quot;</title>
<path fill="none" stroke="black" d="M115.43,-184.62C136.03,-171.83 166.03,-155.28 194.78,-147 258.66,-128.61 334.63,-124.32 388.44,-124.06"/>
<polygon fill="black" stroke="black" points="388.56,-127.56 398.56,-124.05 388.56,-120.56 388.56,-127.56"/>
<text text-anchor="middle" x="238.78" y="-150.8" font-family="Times,serif" font-size="14.00">name</text>
</g>
<!-- &quot;(425) 123&#45;4567&quot; -->
<g id="node11" class="node">
<title>&quot;(425) 123&#45;4567&quot;</title>
<ellipse fill="none" stroke="black" stroke-width="0" cx="458.72" cy="-72" rx="90.98" ry="18"/>
<text text-anchor="middle" x="458.72" y="-68.3" font-family="Times,serif" font-size="14.00">&quot;(425) 123&#45;4567&quot;</text>
</g>
<!-- example.org/id/x&#45;&gt;&quot;(425) 123&#45;4567&quot; -->
<g id="edge11" class="edge">
<title>example.org/id/x&#45;&gt;&quot;(425) 123&#45;4567&quot;</title>
<path fill="none" stroke="black" d="M104.1,-184.26C122.81,-163.04 157.21,-128.22 194.78,-111 245.52,-87.75 307,-77.76 357.75,-73.69"/>
<polygon fill="black" stroke="black" points="358.03,-77.18 367.75,-72.96 357.52,-70.2 358.03,-77.18"/>
<text text-anchor="middle" x="238.78" y="-114.8" font-family="Times,serif" font-size="14.00">telephone</text>
</g>
<!-- &quot;http//www.janedoe.co...&quot; -->
<g id="node12" class="node">
<title>&quot;http//www.janedoe.co...&quot;</title>
<ellipse fill="none" stroke="black" stroke-width="0" cx="458.72" cy="-18" rx="128.08" ry="18"/>
<text text-anchor="middle" x="458.72" y="-14.3" font-family="Times,serif" font-size="14.00">&quot;http//www.janedoe.co...&quot;</text>
</g>
<!-- example.org/id/x&#45;&gt;&quot;http//www.janedoe.co...&quot; -->
<g id="edge12" class="edge">
<title>example.org/id/x&#45;&gt;&quot;http//www.janedoe.co...&quot;</title>
<path fill="none" stroke="black" d="M97.81,-183.91C112.77,-153.93 146.97,-94.37 194.78,-65 232.82,-41.64 279.42,-29.2 322.77,-22.78"/>
<polygon fill="black" stroke="black" points="323.42,-26.22 332.84,-21.38 322.45,-19.29 323.42,-26.22"/>
<text text-anchor="middle" x="238.78" y="-68.8" font-family="Times,serif" font-size="14.00">url</text>
</g>
<!-- PropertyValue -->
<g id="node13" class="node">
<title>PropertyValue</title>
<ellipse fill="none" stroke="#558855" cx="859.75" cy="-402" rx="77.19" ry="18"/>
<text text-anchor="middle" x="859.75" y="-398.3" font-family="Times,serif" font-size="14.00">PropertyValue</text>
</g>
<!-- orcid.org/0000&#45;0002&#45;2257&#45;9127&#45;&gt;PropertyValue -->
<g id="edge13" class="edge">
<title>orcid.org/0000&#45;0002&#45;2257&#45;9127&#45;&gt;PropertyValue</title>
<path fill="none" stroke="black" d="M582.31,-305.35C594.42,-309.3 606.11,-314.41 616.66,-321 628.27,-328.26 623.48,-338.09 634.66,-346 672.08,-372.49 689.22,-363.71 733.66,-375 752.09,-379.68 772.19,-384.25 790.77,-388.26"/>
<polygon fill="black" stroke="black" points="790.11,-391.7 800.62,-390.37 791.57,-384.86 790.11,-391.7"/>
<text text-anchor="middle" x="675.16" y="-373.8" font-family="Times,serif" font-size="14.00">type</text>
</g>
<!-- &quot;Optional description...&quot; -->
<g id="node14" class="node">
<title>&quot;Optional description...&quot;</title>
<ellipse fill="none" stroke="black" stroke-width="0" cx="859.75" cy="-348" rx="122.68" ry="18"/>
<text text-anchor="middle" x="859.75" y="-344.3" font-family="Times,serif" font-size="14.00">&quot;Optional description...&quot;</text>
</g>
<!-- orcid.org/0000&#45;0002&#45;2257&#45;9127&#45;&gt;&quot;Optional description...&quot; -->
<g id="edge14" class="edge">
<title>orcid.org/0000&#45;0002&#45;2257&#45;9127&#45;&gt;&quot;Optional description...&quot;</title>
<path fill="none" stroke="black" d="M561.19,-307.73C621.88,-315.95 698.69,-326.34 759.06,-334.51"/>
<polygon fill="black" stroke="black" points="758.61,-337.98 768.99,-335.85 759.55,-331.04 758.61,-337.98"/>
<text text-anchor="middle" x="675.16" y="-330.8" font-family="Times,serif" font-size="14.00">description</text>
</g>
<!-- &quot;https//registry.iden...&quot; -->
<g id="node15" class="node">
<title>&quot;https//registry.iden...&quot;</title>
<ellipse fill="none" stroke="black" stroke-width="0" cx="859.75" cy="-294" rx="116.98" ry="18"/>
<text text-anchor="middle" x="859.75" y="-290.3" font-family="Times,serif" font-size="14.00">&quot;https//registry.iden...&quot;</text>
</g>
<!-- orcid.org/0000&#45;0002&#45;2257&#45;9127&#45;&gt;&quot;https//registry.iden...&quot; -->
<g id="edge15" class="edge">
<title>orcid.org/0000&#45;0002&#45;2257&#45;9127&#45;&gt;&quot;https//registry.iden...&quot;</title>
<path fill="none" stroke="black" d="M616.85,-294C655.13,-294 695.58,-294 732.23,-294"/>
<polygon fill="black" stroke="black" points="732.46,-297.5 742.46,-294 732.46,-290.5 732.46,-297.5"/>
<text text-anchor="middle" x="675.16" y="-297.8" font-family="Times,serif" font-size="14.00">propertyID</text>
</g>
<!-- &quot;https//orcid.org/000...&quot; -->
<g id="node16" class="node">
<title>&quot;https//orcid.org/000...&quot;</title>
<ellipse fill="none" stroke="black" stroke-width="0" cx="859.75" cy="-240" rx="120.78" ry="18"/>
<text text-anchor="middle" x="859.75" y="-236.3" font-family="Times,serif" font-size="14.00">&quot;https//orcid.org/000...&quot;</text>
</g>
<!-- orcid.org/0000&#45;0002&#45;2257&#45;9127&#45;&gt;&quot;https//orcid.org/000...&quot; -->
<g id="edge16" class="edge">
<title>orcid.org/0000&#45;0002&#45;2257&#45;9127&#45;&gt;&quot;https//orcid.org/000...&quot;</title>
<path fill="none" stroke="black" d="M561.19,-280.27C622.1,-272.03 699.24,-261.59 759.71,-253.4"/>
<polygon fill="black" stroke="black" points="760.21,-256.87 769.65,-252.06 759.27,-249.93 760.21,-256.87"/>
<text text-anchor="middle" x="675.16" y="-273.8" font-family="Times,serif" font-size="14.00">url</text>
</g>
<!-- URL -->
<g id="node17" class="node">
<title>URL</title>
<ellipse fill="none" stroke="#558855" cx="859.75" cy="-186" rx="31.4" ry="18"/>
<text text-anchor="middle" x="859.75" y="-182.3" font-family="Times,serif" font-size="14.00">URL</text>
</g>
<!-- _&#45;&gt;URL -->
<g id="edge17" class="edge">
<title>_&#45;&gt;URL</title>
<path fill="none" stroke="black" d="M485.9,-180.39C553.85,-181.42 736.23,-184.16 818.04,-185.39"/>
<polygon fill="black" stroke="black" points="818.38,-188.89 828.44,-185.54 818.49,-181.89 818.38,-188.89"/>
<text text-anchor="middle" x="675.16" y="-186.8" font-family="Times,serif" font-size="14.00">type</text>
</g>
<!-- &quot;https//www.wikidata....&quot; -->
<g id="node18" class="node">
<title>&quot;https//www.wikidata....&quot;</title>
<ellipse fill="none" stroke="black" stroke-width="0" cx="859.75" cy="-132" rx="126.18" ry="18"/>
<text text-anchor="middle" x="859.75" y="-128.3" font-family="Times,serif" font-size="14.00">&quot;https//www.wikidata....&quot;</text>
</g>
<!-- _&#45;&gt;&quot;https//www.wikidata....&quot; -->
<g id="edge18" class="edge">
<title>_&#45;&gt;&quot;https//www.wikidata....&quot;</title>
<path fill="none" stroke="black" d="M485.59,-176.89C538.61,-170.51 662.2,-155.64 752.68,-144.76"/>
<polygon fill="black" stroke="black" points="753.2,-148.22 762.71,-143.55 752.36,-141.27 753.2,-148.22"/>
<text text-anchor="middle" x="675.16" y="-161.8" font-family="Times,serif" font-size="14.00">url</text>
</g>
<!-- Text -->
<g id="node19" class="node">
<title>Text</title>
<ellipse fill="none" stroke="#558855" cx="859.75" cy="-78" rx="30.59" ry="18"/>
<text text-anchor="middle" x="859.75" y="-74.3" font-family="Times,serif" font-size="14.00">Text</text>
</g>
<!-- _&#45;&gt;Text -->
<g id="edge19" class="edge">
<title>_&#45;&gt;Text</title>
<path fill="none" stroke="black" d="M485.77,-180.92C518.52,-180.93 575.45,-177.01 616.66,-153 627.57,-146.64 624.03,-137.83 634.66,-131 672.93,-106.41 689.41,-115.58 733.66,-105 762.58,-98.08 795.46,-91.02 820.25,-85.85"/>
<polygon fill="black" stroke="black" points="821.27,-89.21 830.35,-83.76 819.84,-82.36 821.27,-89.21"/>
<text text-anchor="middle" x="675.16" y="-134.8" font-family="Times,serif" font-size="14.00">type</text>
</g>
<!-- &quot;Invasive species in ...&quot; -->
<g id="node20" class="node">
<title>&quot;Invasive species in ...&quot;</title>
<ellipse fill="none" stroke="black" stroke-width="0" cx="859.75" cy="-24" rx="118.08" ry="18"/>
<text text-anchor="middle" x="859.75" y="-20.3" font-family="Times,serif" font-size="14.00">&quot;Invasive species in ...&quot;</text>
</g>
<!-- _&#45;&gt;&quot;Invasive species in ...&quot; -->
<g id="edge20" class="edge">
<title>_&#45;&gt;&quot;Invasive species in ...&quot;</title>
<path fill="none" stroke="black" d="M485.53,-183.28C519.89,-186.12 580.51,-185.57 616.66,-153 638.61,-133.22 614.75,-110.84 634.66,-89 666.41,-54.17 688.49,-64.46 733.66,-51 746.85,-47.07 760.98,-43.46 774.83,-40.25"/>
<polygon fill="black" stroke="black" points="775.87,-43.6 784.85,-37.98 774.32,-36.77 775.87,-43.6"/>
<text text-anchor="middle" x="675.16" y="-92.8" font-family="Times,serif" font-size="14.00">description</text>
</g>
</g>
</svg>
