<?xml version="1.0" encoding="UTF-8" standalone="no"?>
<!DOCTYPE svg PUBLIC "-//W3C//DTD SVG 1.1//EN"
 "http://www.w3.org/Graphics/SVG/1.1/DTD/svg11.dtd">
<!-- Generated by graphviz version 2.43.0 (0)
 -->
<!-- Title: %3 Pages: 1 -->
<svg width="720pt" height="248pt"
 viewBox="0.00 0.00 720.00 247.50" xmlns="http://www.w3.org/2000/svg" xmlns:xlink="http://www.w3.org/1999/xlink">
<g id="graph0" class="graph" transform="scale(1.49 1.49) rotate(0) translate(4 364)">
<title>%3</title>
<polygon fill="white" stroke="transparent" points="-4,4 -4,-364 1066.53,-364 1066.53,4 -4,4"/>
<!-- Course -->
<g id="node1" class="node">
<title>Course</title>
<ellipse fill="none" stroke="#558855" cx="862.34" cy="-342" rx="43.59" ry="18"/>
<text text-anchor="middle" x="862.34" y="-338.3" font-family="Times,serif" font-size="14.00">Course</text>
</g>
<!-- example.org/id/course/x -->
<g id="node2" class="node">
<title>example.org/id/course/x</title>
<ellipse fill="none" stroke="#558855" cx="422.97" cy="-272" rx="122.38" ry="18"/>
<text text-anchor="middle" x="422.97" y="-268.3" font-family="Times,serif" font-size="14.00">example.org/id/course/x</text>
</g>
<!-- example.org/id/course/x&#45;&gt;Course -->
<g id="edge1" class="edge">
<title>example.org/id/course/x&#45;&gt;Course</title>
<path fill="none" stroke="black" d="M496.14,-286.44C517.67,-290.63 541.35,-295.12 563.16,-299 649.39,-314.33 750.39,-328 809.94,-335.63"/>
<polygon fill="black" stroke="black" points="809.85,-339.14 820.21,-336.93 810.73,-332.2 809.85,-339.14"/>
<text text-anchor="middle" x="603.66" y="-314.8" font-family="Times,serif" font-size="14.00">type</text>
</g>
<!-- &quot;In this course ...&quot; -->
<g id="node3" class="node">
<title>&quot;In this course ...&quot;</title>
<ellipse fill="none" stroke="black" stroke-width="0" cx="862.34" cy="-288" rx="94.78" ry="18"/>
<text text-anchor="middle" x="862.34" y="-284.3" font-family="Times,serif" font-size="14.00">&quot;In this course ...&quot;</text>
</g>
<!-- example.org/id/course/x&#45;&gt;&quot;In this course ...&quot; -->
<g id="edge2" class="edge">
<title>example.org/id/course/x&#45;&gt;&quot;In this course ...&quot;</title>
<path fill="none" stroke="black" d="M541.76,-276.31C609.48,-278.79 693.75,-281.87 758.74,-284.25"/>
<polygon fill="black" stroke="black" points="758.88,-287.75 769.01,-284.62 759.14,-280.76 758.88,-287.75"/>
<text text-anchor="middle" x="603.66" y="-283.8" font-family="Times,serif" font-size="14.00">description</text>
</g>
<!-- &quot;URL to the course&quot; -->
<g id="node4" class="node">
<title>&quot;URL to the course&quot;</title>
<ellipse fill="none" stroke="black" stroke-width="0" cx="862.34" cy="-234" rx="103.98" ry="18"/>
<text text-anchor="middle" x="862.34" y="-230.3" font-family="Times,serif" font-size="14.00">&quot;URL to the course&quot;</text>
</g>
<!-- example.org/id/course/x&#45;&gt;&quot;URL to the course&quot; -->
<g id="edge3" class="edge">
<title>example.org/id/course/x&#45;&gt;&quot;URL to the course&quot;</title>
<path fill="none" stroke="black" d="M523.55,-261.74C536.87,-260.44 550.34,-259.16 563.16,-258 627.33,-252.19 699.32,-246.38 756.5,-241.93"/>
<polygon fill="black" stroke="black" points="756.93,-245.4 766.63,-241.14 756.39,-238.42 756.93,-245.4"/>
<text text-anchor="middle" x="603.66" y="-261.8" font-family="Times,serif" font-size="14.00">url</text>
</g>
<!-- Person -->
<g id="node5" class="node">
<title>Person</title>
<ellipse fill="none" stroke="#558855" cx="422.97" cy="-202" rx="42.49" ry="18"/>
<text text-anchor="middle" x="422.97" y="-198.3" font-family="Times,serif" font-size="14.00">Person</text>
</g>
<!-- example.org/id/x -->
<g id="node6" class="node">
<title>example.org/id/x</title>
<ellipse fill="none" stroke="black" cx="88.39" cy="-183" rx="88.28" ry="18"/>
<text text-anchor="middle" x="88.39" y="-179.3" font-family="Times,serif" font-size="14.00">example.org/id/x</text>
</g>
<!-- example.org/id/x&#45;&gt;example.org/id/course/x -->
<g id="edge5" class="edge">
<title>example.org/id/x&#45;&gt;example.org/id/course/x</title>
<path fill="none" stroke="black" d="M141.36,-197.41C158.38,-202.1 177.38,-207.31 194.78,-212 247.52,-226.22 307.23,-241.97 352.2,-253.77"/>
<polygon fill="black" stroke="black" points="351.58,-257.23 362.14,-256.38 353.35,-250.46 351.58,-257.23"/>
<text text-anchor="middle" x="238.78" y="-238.8" font-family="Times,serif" font-size="14.00">knowsAbout</text>
</g>
<!-- example.org/id/x&#45;&gt;Person -->
<g id="edge4" class="edge">
<title>example.org/id/x&#45;&gt;Person</title>
<path fill="none" stroke="black" d="M173.75,-187.82C235.81,-191.36 318.17,-196.07 370.64,-199.07"/>
<polygon fill="black" stroke="black" points="370.53,-202.57 380.72,-199.64 370.93,-195.58 370.53,-202.57"/>
<text text-anchor="middle" x="238.78" y="-196.8" font-family="Times,serif" font-size="14.00">type</text>
</g>
<!-- _ -->
<g id="node7" class="node">
<title>_</title>
<ellipse fill="none" stroke="#558855" cx="422.97" cy="-126" rx="27" ry="18"/>
<text text-anchor="middle" x="422.97" y="-122.3" font-family="Times,serif" font-size="14.00">_</text>
</g>
<!-- example.org/id/x&#45;&gt;_ -->
<g id="edge6" class="edge">
<title>example.org/id/x&#45;&gt;_</title>
<path fill="none" stroke="black" d="M156.69,-171.47C226.24,-159.55 332.1,-141.4 386.68,-132.05"/>
<polygon fill="black" stroke="black" points="387.31,-135.49 396.57,-130.35 386.13,-128.59 387.31,-135.49"/>
<text text-anchor="middle" x="238.78" y="-167.8" font-family="Times,serif" font-size="14.00">knowsAbout</text>
</g>
<!-- example.org/id/x&#45;&gt;_ -->
<g id="edge7" class="edge">
<title>example.org/id/x&#45;&gt;_</title>
<path fill="none" stroke="black" d="M116.79,-165.72C137.38,-153.77 166.74,-138.82 194.78,-132 260.8,-115.95 340.8,-118.77 386.1,-122.35"/>
<polygon fill="black" stroke="black" points="386.04,-125.85 396.3,-123.21 386.63,-118.88 386.04,-125.85"/>
<text text-anchor="middle" x="238.78" y="-135.8" font-family="Times,serif" font-size="14.00">knowsAbout</text>
</g>
<!-- URL -->
<g id="node8" class="node">
<title>URL</title>
<ellipse fill="none" stroke="#558855" cx="862.34" cy="-180" rx="31.4" ry="18"/>
<text text-anchor="middle" x="862.34" y="-176.3" font-family="Times,serif" font-size="14.00">URL</text>
</g>
<!-- _&#45;&gt;URL -->
<g id="edge8" class="edge">
<title>_&#45;&gt;URL</title>
<path fill="none" stroke="black" d="M449.61,-129.65C477.52,-133.58 523.48,-139.96 563.16,-145 655.41,-156.71 763.89,-169.1 821.18,-175.53"/>
<polygon fill="black" stroke="black" points="820.94,-179.02 831.27,-176.66 821.72,-172.07 820.94,-179.02"/>
<text text-anchor="middle" x="603.66" y="-157.8" font-family="Times,serif" font-size="14.00">type</text>
</g>
<!-- &quot;https//www.wikidata.org/wiki/Q183368&quot; -->
<g id="node9" class="node">
<title>&quot;https//www.wikidata.org/wiki/Q183368&quot;</title>
<ellipse fill="none" stroke="black" stroke-width="0" cx="862.34" cy="-126" rx="200.36" ry="18"/>
<text text-anchor="middle" x="862.34" y="-122.3" font-family="Times,serif" font-size="14.00">&quot;https//www.wikidata.org/wiki/Q183368&quot;</text>
</g>
<!-- _&#45;&gt;&quot;https//www.wikidata.org/wiki/Q183368&quot; -->
<g id="edge9" class="edge">
<title>_&#45;&gt;&quot;https//www.wikidata.org/wiki/Q183368&quot;</title>
<path fill="none" stroke="black" d="M450.02,-126C490.45,-126 572,-126 651.9,-126"/>
<polygon fill="black" stroke="black" points="652.14,-129.5 662.14,-126 652.14,-122.5 652.14,-129.5"/>
<text text-anchor="middle" x="603.66" y="-129.8" font-family="Times,serif" font-size="14.00">url</text>
</g>
<!-- Text -->
<g id="node10" class="node">
<title>Text</title>
<ellipse fill="none" stroke="#558855" cx="862.34" cy="-72" rx="30.59" ry="18"/>
<text text-anchor="middle" x="862.34" y="-68.3" font-family="Times,serif" font-size="14.00">Text</text>
</g>
<!-- _&#45;&gt;Text -->
<g id="edge10" class="edge">
<title>_&#45;&gt;Text</title>
<path fill="none" stroke="black" d="M449.61,-122.35C477.52,-118.42 523.48,-112.04 563.16,-107 655.9,-95.23 765.04,-82.77 822.09,-76.37"/>
<polygon fill="black" stroke="black" points="822.57,-79.84 832.12,-75.25 821.79,-72.88 822.57,-79.84"/>
<text text-anchor="middle" x="603.66" y="-110.8" font-family="Times,serif" font-size="14.00">type</text>
</g>
<!-- &quot;Invasive species in brackish water&quot; -->
<g id="node11" class="node">
<title>&quot;Invasive species in brackish water&quot;</title>
<ellipse fill="none" stroke="black" stroke-width="0" cx="862.34" cy="-18" rx="178.97" ry="18"/>
<text text-anchor="middle" x="862.34" y="-14.3" font-family="Times,serif" font-size="14.00">&quot;Invasive species in brackish water&quot;</text>
</g>
<!-- _&#45;&gt;&quot;Invasive species in brackish water&quot; -->
<g id="edge11" class="edge">
<title>_&#45;&gt;&quot;Invasive species in brackish water&quot;</title>
<path fill="none" stroke="black" d="M446.21,-116.82C487.85,-99.99 580.75,-64.17 662.16,-45 683.22,-40.04 705.77,-35.9 727.84,-32.47"/>
<polygon fill="black" stroke="black" points="728.58,-35.9 737.94,-30.95 727.53,-28.98 728.58,-35.9"/>
<text text-anchor="middle" x="603.66" y="-75.8" font-family="Times,serif" font-size="14.00">description</text>
</g>
</g>
</svg>
