<?xml version="1.0" encoding="UTF-8" standalone="no"?>
<!DOCTYPE svg PUBLIC "-//W3C//DTD SVG 1.1//EN"
 "http://www.w3.org/Graphics/SVG/1.1/DTD/svg11.dtd">
<!-- Generated by graphviz version 2.43.0 (0)
 -->
<!-- Title: %3 Pages: 1 -->
<svg width="1230pt" height="969pt"
 viewBox="0.00 0.00 1230.22 969.00" xmlns="http://www.w3.org/2000/svg" xmlns:xlink="http://www.w3.org/1999/xlink">
<g id="graph0" class="graph" transform="scale(1 1) rotate(0) translate(4 965)">
<title>%3</title>
<polygon fill="white" stroke="transparent" points="-4,4 -4,-965 1226.22,-965 1226.22,4 -4,4"/>
<!-- Dataset -->
<g id="node1" class="node">
<title>Dataset</title>
<ellipse fill="none" stroke="#558855" cx="670.16" cy="-938" rx="46.59" ry="18"/>
<text text-anchor="middle" x="670.16" y="-934.3" font-family="Times,serif" font-size="14.00">Dataset</text>
</g>
<!-- dev.d9fsm.sprep.wod.by/dataset/151 -->
<g id="node2" class="node">
<title>dev.d9fsm.sprep.wod.by/dataset/151</title>
<ellipse fill="none" stroke="black" cx="180.68" cy="-418" rx="180.87" ry="18"/>
<text text-anchor="middle" x="180.68" y="-414.3" font-family="Times,serif" font-size="14.00">dev.d9fsm.sprep.wod.by/dataset/151</text>
</g>
<!-- dev.d9fsm.sprep.wod.by/dataset/151&#45;&gt;Dataset -->
<g id="edge1" class="edge">
<title>dev.d9fsm.sprep.wod.by/dataset/151&#45;&gt;Dataset</title>
<path fill="none" stroke="black" d="M182.89,-436.27C188.76,-508.93 220.89,-779.35 379.37,-901 447.97,-953.66 553.74,-952.58 616.74,-945.99"/>
<polygon fill="black" stroke="black" points="617.3,-949.45 626.85,-944.85 616.52,-942.5 617.3,-949.45"/>
<text text-anchor="middle" x="446.87" y="-949.8" font-family="Times,serif" font-size="14.00">type</text>
</g>
<!-- _ -->
<g id="node3" class="node">
<title>_</title>
<ellipse fill="none" stroke="#558855" cx="670.16" cy="-564" rx="27" ry="18"/>
<text text-anchor="middle" x="670.16" y="-560.3" font-family="Times,serif" font-size="14.00">_</text>
</g>
<!-- dev.d9fsm.sprep.wod.by/dataset/151&#45;&gt;_ -->
<g id="edge2" class="edge">
<title>dev.d9fsm.sprep.wod.by/dataset/151&#45;&gt;_</title>
<path fill="none" stroke="black" d="M191.88,-436.07C217.08,-478.65 287.03,-584.64 379.37,-624 469.87,-662.59 587.13,-609.87 640.48,-580.85"/>
<polygon fill="black" stroke="black" points="642.33,-583.83 649.37,-575.91 638.93,-577.71 642.33,-583.83"/>
<text text-anchor="middle" x="446.87" y="-640.8" font-family="Times,serif" font-size="14.00">accountablePerson</text>
</g>
<!-- dev.d9fsm.sprep.wod.by/dataset/151&#45;&gt;_ -->
<g id="edge6" class="edge">
<title>dev.d9fsm.sprep.wod.by/dataset/151&#45;&gt;_</title>
<path fill="none" stroke="black" d="M195.29,-436.06C224.28,-472.83 296.3,-555.47 379.37,-586 467.64,-618.44 581,-591.98 636.12,-575.19"/>
<polygon fill="black" stroke="black" points="637.21,-578.51 645.71,-572.18 635.12,-571.83 637.21,-578.51"/>
<text text-anchor="middle" x="446.87" y="-604.8" font-family="Times,serif" font-size="14.00">distribution</text>
</g>
<!-- dev.d9fsm.sprep.wod.by/dataset/151&#45;&gt;_ -->
<g id="edge7" class="edge">
<title>dev.d9fsm.sprep.wod.by/dataset/151&#45;&gt;_</title>
<path fill="none" stroke="black" d="M201.13,-436C234.56,-465.67 306.42,-523.95 379.37,-548 425.36,-563.16 565.66,-564.58 632.72,-564.34"/>
<polygon fill="black" stroke="black" points="632.84,-567.84 642.83,-564.29 632.81,-560.84 632.84,-567.84"/>
<text text-anchor="middle" x="446.87" y="-565.8" font-family="Times,serif" font-size="14.00">distribution</text>
</g>
<!-- dev.d9fsm.sprep.wod.by/dataset/151&#45;&gt;_ -->
<g id="edge13" class="edge">
<title>dev.d9fsm.sprep.wod.by/dataset/151&#45;&gt;_</title>
<path fill="none" stroke="black" d="M212.4,-435.8C250.34,-456.96 317.48,-491.69 379.37,-510 437.47,-527.19 454.77,-518.09 514.37,-529 556,-536.62 603.41,-547.7 634.67,-555.34"/>
<polygon fill="black" stroke="black" points="634.07,-558.8 644.62,-557.79 635.75,-552 634.07,-558.8"/>
<text text-anchor="middle" x="446.87" y="-532.8" font-family="Times,serif" font-size="14.00">publisher</text>
</g>
<!-- &quot;09&#45;07&#45;2021T010741.0&quot; -->
<g id="node4" class="node">
<title>&quot;09&#45;07&#45;2021T010741.0&quot;</title>
<ellipse fill="none" stroke="black" stroke-width="0" cx="670.16" cy="-504" rx="122.38" ry="18"/>
<text text-anchor="middle" x="670.16" y="-500.3" font-family="Times,serif" font-size="14.00">&quot;09&#45;07&#45;2021T010741.0&quot;</text>
</g>
<!-- dev.d9fsm.sprep.wod.by/dataset/151&#45;&gt;&quot;09&#45;07&#45;2021T010741.0&quot; -->
<g id="edge3" class="edge">
<title>dev.d9fsm.sprep.wod.by/dataset/151&#45;&gt;&quot;09&#45;07&#45;2021T010741.0&quot;</title>
<path fill="none" stroke="black" d="M235.69,-435.22C275.13,-447.18 330.09,-462.61 379.37,-472 435.07,-482.62 497.52,-490.07 550.14,-495.09"/>
<polygon fill="black" stroke="black" points="549.9,-498.59 560.18,-496.04 550.56,-491.62 549.9,-498.59"/>
<text text-anchor="middle" x="446.87" y="-494.8" font-family="Times,serif" font-size="14.00">dateCreated</text>
</g>
<!-- dev.d9fsm.sprep.wod.by/dataset/151&#45;&gt;&quot;09&#45;07&#45;2021T010741.0&quot; -->
<g id="edge4" class="edge">
<title>dev.d9fsm.sprep.wod.by/dataset/151&#45;&gt;&quot;09&#45;07&#45;2021T010741.0&quot;</title>
<path fill="none" stroke="black" d="M317.38,-429.79C405.45,-437.84 505.46,-447.95 514.37,-453 525.96,-459.58 521.08,-469.91 532.37,-477 541.07,-482.47 550.64,-486.86 560.56,-490.39"/>
<polygon fill="black" stroke="black" points="559.56,-493.75 570.16,-493.52 561.73,-487.09 559.56,-493.75"/>
<text text-anchor="middle" x="446.87" y="-456.8" font-family="Times,serif" font-size="14.00">dateModified</text>
</g>
<!-- &quot;The population was c...&quot; -->
<g id="node5" class="node">
<title>&quot;The population was c...&quot;</title>
<ellipse fill="none" stroke="black" stroke-width="0" cx="670.16" cy="-450" rx="126.18" ry="18"/>
<text text-anchor="middle" x="670.16" y="-446.3" font-family="Times,serif" font-size="14.00">&quot;The population was c...&quot;</text>
</g>
<!-- dev.d9fsm.sprep.wod.by/dataset/151&#45;&gt;&quot;The population was c...&quot; -->
<g id="edge5" class="edge">
<title>dev.d9fsm.sprep.wod.by/dataset/151&#45;&gt;&quot;The population was c...&quot;</title>
<path fill="none" stroke="black" d="M349.2,-411.48C402.17,-411.29 460.84,-413.04 514.37,-419 522.51,-419.91 524.35,-421.32 532.37,-423 549.1,-426.51 567.02,-430.14 584.18,-433.55"/>
<polygon fill="black" stroke="black" points="583.7,-437.03 594.19,-435.54 585.06,-430.16 583.7,-437.03"/>
<text text-anchor="middle" x="446.87" y="-422.8" font-family="Times,serif" font-size="14.00">description</text>
</g>
<!-- &quot;en&quot; -->
<g id="node6" class="node">
<title>&quot;en&quot;</title>
<ellipse fill="none" stroke="black" stroke-width="0" cx="670.16" cy="-396" rx="30.59" ry="18"/>
<text text-anchor="middle" x="670.16" y="-392.3" font-family="Times,serif" font-size="14.00">&quot;en&quot;</text>
</g>
<!-- dev.d9fsm.sprep.wod.by/dataset/151&#45;&gt;&quot;en&quot; -->
<g id="edge8" class="edge">
<title>dev.d9fsm.sprep.wod.by/dataset/151&#45;&gt;&quot;en&quot;</title>
<path fill="none" stroke="black" d="M252.61,-401.43C290.07,-393.52 336.95,-384.94 379.37,-381 439.11,-375.46 454.44,-378.1 514.37,-381 553.86,-382.91 598.82,-387.54 630.07,-391.16"/>
<polygon fill="black" stroke="black" points="629.78,-394.65 640.12,-392.34 630.6,-387.7 629.78,-394.65"/>
<text text-anchor="middle" x="446.87" y="-384.8" font-family="Times,serif" font-size="14.00">inLanguage</text>
</g>
<!-- &quot;municipalities&quot; -->
<g id="node7" class="node">
<title>&quot;municipalities&quot;</title>
<ellipse fill="none" stroke="black" stroke-width="0" cx="670.16" cy="-342" rx="85.29" ry="18"/>
<text text-anchor="middle" x="670.16" y="-338.3" font-family="Times,serif" font-size="14.00">&quot;municipalities&quot;</text>
</g>
<!-- dev.d9fsm.sprep.wod.by/dataset/151&#45;&gt;&quot;municipalities&quot; -->
<g id="edge9" class="edge">
<title>dev.d9fsm.sprep.wod.by/dataset/151&#45;&gt;&quot;municipalities&quot;</title>
<path fill="none" stroke="black" d="M227.65,-400.61C267.23,-386.48 326.21,-367.39 379.37,-358 443.96,-346.58 517.8,-342.64 574.78,-341.52"/>
<polygon fill="black" stroke="black" points="574.91,-345.02 584.85,-341.35 574.79,-338.02 574.91,-345.02"/>
<text text-anchor="middle" x="446.87" y="-361.8" font-family="Times,serif" font-size="14.00">keywords</text>
</g>
<!-- &quot;population&quot; -->
<g id="node8" class="node">
<title>&quot;population&quot;</title>
<ellipse fill="none" stroke="black" stroke-width="0" cx="670.16" cy="-288" rx="68.79" ry="18"/>
<text text-anchor="middle" x="670.16" y="-284.3" font-family="Times,serif" font-size="14.00">&quot;population&quot;</text>
</g>
<!-- dev.d9fsm.sprep.wod.by/dataset/151&#45;&gt;&quot;population&quot; -->
<g id="edge10" class="edge">
<title>dev.d9fsm.sprep.wod.by/dataset/151&#45;&gt;&quot;population&quot;</title>
<path fill="none" stroke="black" d="M211.3,-400.19C248.95,-378.44 316.62,-342.3 379.37,-324 449.53,-303.54 532.57,-294.71 591.73,-290.89"/>
<polygon fill="black" stroke="black" points="591.98,-294.39 601.75,-290.28 591.56,-287.4 591.98,-294.39"/>
<text text-anchor="middle" x="446.87" y="-327.8" font-family="Times,serif" font-size="14.00">keywords</text>
</g>
<!-- &quot;https//pacific&#45;data....&quot; -->
<g id="node9" class="node">
<title>&quot;https//pacific&#45;data....&quot;</title>
<ellipse fill="none" stroke="black" stroke-width="0" cx="670.16" cy="-234" rx="114.28" ry="18"/>
<text text-anchor="middle" x="670.16" y="-230.3" font-family="Times,serif" font-size="14.00">&quot;https//pacific&#45;data....&quot;</text>
</g>
<!-- dev.d9fsm.sprep.wod.by/dataset/151&#45;&gt;&quot;https//pacific&#45;data....&quot; -->
<g id="edge11" class="edge">
<title>dev.d9fsm.sprep.wod.by/dataset/151&#45;&gt;&quot;https//pacific&#45;data....&quot;</title>
<path fill="none" stroke="black" d="M200.63,-400.03C233.9,-369.64 306.22,-308.51 379.37,-279 433.15,-257.3 496.45,-246.01 550.14,-240.15"/>
<polygon fill="black" stroke="black" points="550.81,-243.6 560.4,-239.08 550.09,-236.63 550.81,-243.6"/>
<text text-anchor="middle" x="446.87" y="-282.8" font-family="Times,serif" font-size="14.00">license</text>
</g>
<!-- &quot;FSM Municipalities&quot; -->
<g id="node10" class="node">
<title>&quot;FSM Municipalities&quot;</title>
<ellipse fill="none" stroke="black" stroke-width="0" cx="670.16" cy="-180" rx="110.48" ry="18"/>
<text text-anchor="middle" x="670.16" y="-176.3" font-family="Times,serif" font-size="14.00">&quot;FSM Municipalities&quot;</text>
</g>
<!-- dev.d9fsm.sprep.wod.by/dataset/151&#45;&gt;&quot;FSM Municipalities&quot; -->
<g id="edge12" class="edge">
<title>dev.d9fsm.sprep.wod.by/dataset/151&#45;&gt;&quot;FSM Municipalities&quot;</title>
<path fill="none" stroke="black" d="M194.06,-400.02C222,-361 294.23,-268.62 379.37,-226 431.79,-199.76 495.65,-187.81 550.06,-182.62"/>
<polygon fill="black" stroke="black" points="550.46,-186.09 560.11,-181.72 549.84,-179.12 550.46,-186.09"/>
<text text-anchor="middle" x="446.87" y="-229.8" font-family="Times,serif" font-size="14.00">name</text>
</g>
<!-- &quot;POLYGON ((&#45;226.42089...&quot; -->
<g id="node11" class="node">
<title>&quot;POLYGON ((&#45;226.42089...&quot;</title>
<ellipse fill="none" stroke="black" stroke-width="0" cx="670.16" cy="-126" rx="137.58" ry="18"/>
<text text-anchor="middle" x="670.16" y="-122.3" font-family="Times,serif" font-size="14.00">&quot;POLYGON ((&#45;226.42089...&quot;</text>
</g>
<!-- dev.d9fsm.sprep.wod.by/dataset/151&#45;&gt;&quot;POLYGON ((&#45;226.42089...&quot; -->
<g id="edge14" class="edge">
<title>dev.d9fsm.sprep.wod.by/dataset/151&#45;&gt;&quot;POLYGON ((&#45;226.42089...&quot;</title>
<path fill="none" stroke="black" d="M189.89,-399.97C212.46,-352.73 280.37,-225.05 379.37,-168 422.13,-143.35 474.14,-131.36 522.24,-125.97"/>
<polygon fill="black" stroke="black" points="522.85,-129.42 532.43,-124.92 522.13,-122.46 522.85,-129.42"/>
<text text-anchor="middle" x="446.87" y="-171.8" font-family="Times,serif" font-size="14.00">spatial</text>
</g>
<!-- &quot;FSM&quot; -->
<g id="node12" class="node">
<title>&quot;FSM&quot;</title>
<ellipse fill="none" stroke="black" stroke-width="0" cx="670.16" cy="-72" rx="41.69" ry="18"/>
<text text-anchor="middle" x="670.16" y="-68.3" font-family="Times,serif" font-size="14.00">&quot;FSM&quot;</text>
</g>
<!-- dev.d9fsm.sprep.wod.by/dataset/151&#45;&gt;&quot;FSM&quot; -->
<g id="edge15" class="edge">
<title>dev.d9fsm.sprep.wod.by/dataset/151&#45;&gt;&quot;FSM&quot;</title>
<path fill="none" stroke="black" d="M187.18,-399.69C204.76,-344.66 265.23,-180.1 379.37,-108 453.11,-61.42 558.62,-61.19 619.89,-66.05"/>
<polygon fill="black" stroke="black" points="619.8,-69.55 630.07,-66.93 620.41,-62.58 619.8,-69.55"/>
<text text-anchor="middle" x="446.87" y="-111.8" font-family="Times,serif" font-size="14.00">spatialCoverage</text>
</g>
<!-- &quot;Culture and Heritage&quot; -->
<g id="node13" class="node">
<title>&quot;Culture and Heritage&quot;</title>
<ellipse fill="none" stroke="black" stroke-width="0" cx="670.16" cy="-18" rx="118.08" ry="18"/>
<text text-anchor="middle" x="670.16" y="-14.3" font-family="Times,serif" font-size="14.00">&quot;Culture and Heritage&quot;</text>
</g>
<!-- dev.d9fsm.sprep.wod.by/dataset/151&#45;&gt;&quot;Culture and Heritage&quot; -->
<g id="edge16" class="edge">
<title>dev.d9fsm.sprep.wod.by/dataset/151&#45;&gt;&quot;Culture and Heritage&quot;</title>
<path fill="none" stroke="black" d="M185.15,-399.66C197.95,-337.61 248.72,-134.57 379.37,-47 434.95,-9.74 510.51,-3.26 570.54,-5.68"/>
<polygon fill="black" stroke="black" points="570.64,-9.19 580.8,-6.19 570.98,-2.2 570.64,-9.19"/>
<text text-anchor="middle" x="446.87" y="-50.8" font-family="Times,serif" font-size="14.00">subjectOf</text>
</g>
<!-- &quot;&quot; -->
<g id="node14" class="node">
<title>&quot;&quot;</title>
<ellipse fill="none" stroke="black" stroke-width="0" cx="1091.58" cy="-888" rx="27" ry="18"/>
<text text-anchor="middle" x="1091.58" y="-884.3" font-family="Times,serif" font-size="14.00">&quot;&quot;</text>
</g>
<!-- dev.d9fsm.sprep.wod.by/dataset/151&#45;&gt;&quot;&quot; -->
<g id="edge17" class="edge">
<title>dev.d9fsm.sprep.wod.by/dataset/151&#45;&gt;&quot;&quot;</title>
<path fill="none" stroke="black" d="M192.76,-436.05C219.9,-479.03 293.77,-588.88 379.37,-656 553.02,-792.17 612.38,-817.45 825.94,-873 905.52,-893.7 1002.94,-892.81 1054.53,-890.39"/>
<polygon fill="black" stroke="black" points="1054.71,-893.88 1064.51,-889.87 1054.35,-886.89 1054.71,-893.88"/>
<text text-anchor="middle" x="670.16" y="-870.8" font-family="Times,serif" font-size="14.00">temporalCoverage</text>
</g>
<!-- _&#45;&gt;&quot;&quot; -->
<g id="edge25" class="edge">
<title>_&#45;&gt;&quot;&quot;</title>
<path fill="none" stroke="black" d="M675.69,-581.72C689.22,-630.78 734.2,-769.09 825.94,-835 868.98,-865.92 890.98,-847.61 942.94,-858 981.49,-865.7 1025.66,-874.7 1055.56,-880.82"/>
<polygon fill="black" stroke="black" points="1055.01,-884.28 1065.51,-882.86 1056.42,-877.42 1055.01,-884.28"/>
<text text-anchor="middle" x="884.44" y="-861.8" font-family="Times,serif" font-size="14.00">description</text>
</g>
<!-- Organization -->
<g id="node15" class="node">
<title>Organization</title>
<ellipse fill="none" stroke="#558855" cx="1091.58" cy="-834" rx="70.69" ry="18"/>
<text text-anchor="middle" x="1091.58" y="-830.3" font-family="Times,serif" font-size="14.00">Organization</text>
</g>
<!-- _&#45;&gt;Organization -->
<g id="edge18" class="edge">
<title>_&#45;&gt;Organization</title>
<path fill="none" stroke="black" d="M677.63,-581.64C694.53,-624.97 744.42,-736.94 825.94,-789 856.39,-808.44 947.03,-820.84 1013.78,-827.6"/>
<polygon fill="black" stroke="black" points="1013.56,-831.09 1023.86,-828.59 1014.25,-824.13 1013.56,-831.09"/>
<text text-anchor="middle" x="884.44" y="-821.8" font-family="Times,serif" font-size="14.00">type</text>
</g>
<!-- &quot;Secretary The Honora...&quot; -->
<g id="node16" class="node">
<title>&quot;Secretary The Honora...&quot;</title>
<ellipse fill="none" stroke="black" stroke-width="0" cx="1091.58" cy="-780" rx="130.78" ry="18"/>
<text text-anchor="middle" x="1091.58" y="-776.3" font-family="Times,serif" font-size="14.00">&quot;Secretary The Honora...&quot;</text>
</g>
<!-- _&#45;&gt;&quot;Secretary The Honora...&quot; -->
<g id="edge19" class="edge">
<title>_&#45;&gt;&quot;Secretary The Honora...&quot;</title>
<path fill="none" stroke="black" d="M680.89,-580.63C702.23,-615.48 756.84,-696.06 825.94,-734 865.1,-755.5 912,-767.35 955.38,-773.76"/>
<polygon fill="black" stroke="black" points="955.05,-777.25 965.44,-775.16 956.02,-770.32 955.05,-777.25"/>
<text text-anchor="middle" x="884.44" y="-773.8" font-family="Times,serif" font-size="14.00">description</text>
</g>
<!-- &quot;Department of Enviro...&quot; -->
<g id="node17" class="node">
<title>&quot;Department of Enviro...&quot;</title>
<ellipse fill="none" stroke="black" stroke-width="0" cx="1091.58" cy="-726" rx="129.98" ry="18"/>
<text text-anchor="middle" x="1091.58" y="-722.3" font-family="Times,serif" font-size="14.00">&quot;Department of Enviro...&quot;</text>
</g>
<!-- _&#45;&gt;&quot;Department of Enviro...&quot; -->
<g id="edge20" class="edge">
<title>_&#45;&gt;&quot;Department of Enviro...&quot;</title>
<path fill="none" stroke="black" d="M685.26,-579.26C710.61,-605.64 766.78,-659.39 825.94,-685 867.11,-702.82 914.84,-713.04 958.33,-718.84"/>
<polygon fill="black" stroke="black" points="958.05,-722.33 968.41,-720.12 958.93,-715.39 958.05,-722.33"/>
<text text-anchor="middle" x="884.44" y="-718.8" font-family="Times,serif" font-size="14.00">name</text>
</g>
<!-- Person -->
<g id="node18" class="node">
<title>Person</title>
<ellipse fill="none" stroke="#558855" cx="1091.58" cy="-672" rx="42.49" ry="18"/>
<text text-anchor="middle" x="1091.58" y="-668.3" font-family="Times,serif" font-size="14.00">Person</text>
</g>
<!-- _&#45;&gt;Person -->
<g id="edge21" class="edge">
<title>_&#45;&gt;Person</title>
<path fill="none" stroke="black" d="M689.69,-576.72C717.76,-595.25 773.37,-629.2 825.94,-645 897.83,-666.6 985.1,-671.66 1039.25,-672.47"/>
<polygon fill="black" stroke="black" points="1039.26,-675.97 1049.3,-672.58 1039.33,-668.97 1039.26,-675.97"/>
<text text-anchor="middle" x="884.44" y="-669.8" font-family="Times,serif" font-size="14.00">type</text>
</g>
<!-- DataDownload -->
<g id="node19" class="node">
<title>DataDownload</title>
<ellipse fill="none" stroke="#558855" cx="1091.58" cy="-618" rx="78.79" ry="18"/>
<text text-anchor="middle" x="1091.58" y="-614.3" font-family="Times,serif" font-size="14.00">DataDownload</text>
</g>
<!-- _&#45;&gt;DataDownload -->
<g id="edge22" class="edge">
<title>_&#45;&gt;DataDownload</title>
<path fill="none" stroke="black" d="M692.59,-574.07C721.91,-587.25 776.56,-609.63 825.94,-618 886.25,-628.22 955.4,-627.81 1007.88,-625.06"/>
<polygon fill="black" stroke="black" points="1008.36,-628.54 1018.15,-624.48 1007.97,-621.55 1008.36,-628.54"/>
<text text-anchor="middle" x="884.44" y="-629.8" font-family="Times,serif" font-size="14.00">type</text>
</g>
<!-- _&#45;&gt;DataDownload -->
<g id="edge30" class="edge">
<title>_&#45;&gt;DataDownload</title>
<path fill="none" stroke="black" d="M696.76,-567.3C758.26,-575.21 916.3,-595.56 1012.44,-607.94"/>
<polygon fill="black" stroke="black" points="1012.05,-611.42 1022.41,-609.22 1012.94,-604.47 1012.05,-611.42"/>
<text text-anchor="middle" x="884.44" y="-600.8" font-family="Times,serif" font-size="14.00">type</text>
</g>
<!-- &quot;1349510&quot; -->
<g id="node20" class="node">
<title>&quot;1349510&quot;</title>
<ellipse fill="none" stroke="black" stroke-width="0" cx="1091.58" cy="-564" rx="60.39" ry="18"/>
<text text-anchor="middle" x="1091.58" y="-560.3" font-family="Times,serif" font-size="14.00">&quot;1349510&quot;</text>
</g>
<!-- _&#45;&gt;&quot;1349510&quot; -->
<g id="edge23" class="edge">
<title>_&#45;&gt;&quot;1349510&quot;</title>
<path fill="none" stroke="black" d="M697.39,-564C761.16,-564 925.97,-564 1020.74,-564"/>
<polygon fill="black" stroke="black" points="1020.81,-567.5 1030.81,-564 1020.81,-560.5 1020.81,-567.5"/>
<text text-anchor="middle" x="884.44" y="-567.8" font-family="Times,serif" font-size="14.00">contentSize</text>
</g>
<!-- &quot;http//dev.d9fsm.spre...&quot; -->
<g id="node21" class="node">
<title>&quot;http//dev.d9fsm.spre...&quot;</title>
<ellipse fill="none" stroke="black" stroke-width="0" cx="1091.58" cy="-510" rx="124.28" ry="18"/>
<text text-anchor="middle" x="1091.58" y="-506.3" font-family="Times,serif" font-size="14.00">&quot;http//dev.d9fsm.spre...&quot;</text>
</g>
<!-- _&#45;&gt;&quot;http//dev.d9fsm.spre...&quot; -->
<g id="edge24" class="edge">
<title>_&#45;&gt;&quot;http//dev.d9fsm.spre...&quot;</title>
<path fill="none" stroke="black" d="M696.76,-560.7C753.28,-553.43 891.33,-535.65 987.94,-523.21"/>
<polygon fill="black" stroke="black" points="988.57,-526.66 998.04,-521.91 987.68,-519.72 988.57,-526.66"/>
<text text-anchor="middle" x="884.44" y="-546.8" font-family="Times,serif" font-size="14.00">contentUrl</text>
</g>
<!-- _&#45;&gt;&quot;http//dev.d9fsm.spre...&quot; -->
<g id="edge29" class="edge">
<title>_&#45;&gt;&quot;http//dev.d9fsm.spre...&quot;</title>
<path fill="none" stroke="black" d="M697.07,-562.33C725.93,-559.47 773.11,-551.76 807.94,-531 818.22,-524.88 815.03,-515.89 825.94,-511 883.68,-485.16 955.86,-486.82 1010.25,-493.88"/>
<polygon fill="black" stroke="black" points="1009.8,-497.35 1020.19,-495.26 1010.76,-490.42 1009.8,-497.35"/>
<text text-anchor="middle" x="884.44" y="-514.8" font-family="Times,serif" font-size="14.00">url</text>
</g>
<!-- &quot;text/csv&quot; -->
<g id="node22" class="node">
<title>&quot;text/csv&quot;</title>
<ellipse fill="none" stroke="black" stroke-width="0" cx="1091.58" cy="-456" rx="55.79" ry="18"/>
<text text-anchor="middle" x="1091.58" y="-452.3" font-family="Times,serif" font-size="14.00">&quot;text/csv&quot;</text>
</g>
<!-- _&#45;&gt;&quot;text/csv&quot; -->
<g id="edge26" class="edge">
<title>_&#45;&gt;&quot;text/csv&quot;</title>
<path fill="none" stroke="black" d="M697.18,-565.02C727.7,-564.75 777.94,-559.54 807.94,-531 828.43,-511.52 803.76,-487.52 825.94,-470 885.9,-422.66 979.4,-430.84 1037.71,-442.43"/>
<polygon fill="black" stroke="black" points="1037.32,-445.92 1047.82,-444.55 1038.75,-439.07 1037.32,-445.92"/>
<text text-anchor="middle" x="884.44" y="-473.8" font-family="Times,serif" font-size="14.00">encodingFormat</text>
</g>
<!-- &quot;csv&quot; -->
<g id="node23" class="node">
<title>&quot;csv&quot;</title>
<ellipse fill="none" stroke="black" stroke-width="0" cx="1091.58" cy="-402" rx="34.39" ry="18"/>
<text text-anchor="middle" x="1091.58" y="-398.3" font-family="Times,serif" font-size="14.00">&quot;csv&quot;</text>
</g>
<!-- _&#45;&gt;&quot;csv&quot; -->
<g id="edge27" class="edge">
<title>_&#45;&gt;&quot;csv&quot;</title>
<path fill="none" stroke="black" d="M697.31,-565.68C728.44,-566.12 779.76,-561.66 807.94,-531 843.55,-492.27 786.8,-449.15 825.94,-414 887.92,-358.34 994.67,-375.43 1051.81,-390.2"/>
<polygon fill="black" stroke="black" points="1050.98,-393.6 1061.55,-392.81 1052.8,-386.84 1050.98,-393.6"/>
<text text-anchor="middle" x="884.44" y="-417.8" font-family="Times,serif" font-size="14.00">fileFormat</text>
</g>
<!-- &quot;Municipalities CSV S...&quot; -->
<g id="node24" class="node">
<title>&quot;Municipalities CSV S...&quot;</title>
<ellipse fill="none" stroke="black" stroke-width="0" cx="1091.58" cy="-348" rx="125.38" ry="18"/>
<text text-anchor="middle" x="1091.58" y="-344.3" font-family="Times,serif" font-size="14.00">&quot;Municipalities CSV S...&quot;</text>
</g>
<!-- _&#45;&gt;&quot;Municipalities CSV S...&quot; -->
<g id="edge28" class="edge">
<title>_&#45;&gt;&quot;Municipalities CSV S...&quot;</title>
<path fill="none" stroke="black" d="M697.02,-565.9C728.35,-566.63 780.37,-562.55 807.94,-531 833.67,-501.56 797.32,-382.63 825.94,-356 847.9,-335.57 916.23,-333.89 977.95,-337.15"/>
<polygon fill="black" stroke="black" points="978.01,-340.66 988.19,-337.74 978.41,-333.67 978.01,-340.66"/>
<text text-anchor="middle" x="884.44" y="-359.8" font-family="Times,serif" font-size="14.00">name</text>
</g>
<!-- &quot;GeoJSON file of FSM ...&quot; -->
<g id="node25" class="node">
<title>&quot;GeoJSON file of FSM ...&quot;</title>
<ellipse fill="none" stroke="black" stroke-width="0" cx="1091.58" cy="-294" rx="128.08" ry="18"/>
<text text-anchor="middle" x="1091.58" y="-290.3" font-family="Times,serif" font-size="14.00">&quot;GeoJSON file of FSM ...&quot;</text>
</g>
<!-- _&#45;&gt;&quot;GeoJSON file of FSM ...&quot; -->
<g id="edge31" class="edge">
<title>_&#45;&gt;&quot;GeoJSON file of FSM ...&quot;</title>
<path fill="none" stroke="black" d="M697.11,-565.98C728.55,-566.81 780.67,-562.81 807.94,-531 839.15,-494.6 792.03,-349.89 825.94,-316 874.49,-267.48 956.08,-267.95 1015.86,-276.85"/>
<polygon fill="black" stroke="black" points="1015.58,-280.35 1026.01,-278.47 1016.68,-273.43 1015.58,-280.35"/>
<text text-anchor="middle" x="884.44" y="-319.8" font-family="Times,serif" font-size="14.00">description</text>
</g>
<!-- &quot;geojson&quot; -->
<g id="node26" class="node">
<title>&quot;geojson&quot;</title>
<ellipse fill="none" stroke="black" stroke-width="0" cx="1091.58" cy="-240" rx="55.49" ry="18"/>
<text text-anchor="middle" x="1091.58" y="-236.3" font-family="Times,serif" font-size="14.00">&quot;geojson&quot;</text>
</g>
<!-- _&#45;&gt;&quot;geojson&quot; -->
<g id="edge32" class="edge">
<title>_&#45;&gt;&quot;geojson&quot;</title>
<path fill="none" stroke="black" d="M697.21,-566.07C728.75,-566.98 780.97,-563.06 807.94,-531 847.8,-483.63 781.83,-296.43 825.94,-253 853.5,-225.87 958.99,-228.77 1028.18,-233.95"/>
<polygon fill="black" stroke="black" points="1028.29,-237.47 1038.53,-234.77 1028.83,-230.49 1028.29,-237.47"/>
<text text-anchor="middle" x="884.44" y="-256.8" font-family="Times,serif" font-size="14.00">fileFormat</text>
</g>
<!-- &quot;Municipalities Map&quot; -->
<g id="node27" class="node">
<title>&quot;Municipalities Map&quot;</title>
<ellipse fill="none" stroke="black" stroke-width="0" cx="1091.58" cy="-186" rx="108.58" ry="18"/>
<text text-anchor="middle" x="1091.58" y="-182.3" font-family="Times,serif" font-size="14.00">&quot;Municipalities Map&quot;</text>
</g>
<!-- _&#45;&gt;&quot;Municipalities Map&quot; -->
<g id="edge33" class="edge">
<title>_&#45;&gt;&quot;Municipalities Map&quot;</title>
<path fill="none" stroke="black" d="M696.98,-566.1C728.53,-567.07 781.03,-563.27 807.94,-531 853.56,-476.3 776.55,-262.31 825.94,-211 874.2,-160.87 957.41,-161.12 1017.67,-169.79"/>
<polygon fill="black" stroke="black" points="1017.46,-173.3 1027.88,-171.37 1018.54,-166.39 1017.46,-173.3"/>
<text text-anchor="middle" x="884.44" y="-214.8" font-family="Times,serif" font-size="14.00">name</text>
</g>
<!-- &quot;http//www.pacgeo.org...&quot; -->
<g id="node28" class="node">
<title>&quot;http//www.pacgeo.org...&quot;</title>
<ellipse fill="none" stroke="black" stroke-width="0" cx="1091.58" cy="-132" rx="129.98" ry="18"/>
<text text-anchor="middle" x="1091.58" y="-128.3" font-family="Times,serif" font-size="14.00">&quot;http//www.pacgeo.org...&quot;</text>
</g>
<!-- _&#45;&gt;&quot;http//www.pacgeo.org...&quot; -->
<g id="edge34" class="edge">
<title>_&#45;&gt;&quot;http//www.pacgeo.org...&quot;</title>
<path fill="none" stroke="black" d="M697.03,-566.14C728.63,-567.16 781.18,-563.4 807.94,-531 835.22,-497.98 795.75,-176.37 825.94,-146 876.79,-94.84 964.61,-101.09 1025.04,-113.62"/>
<polygon fill="black" stroke="black" points="1024.36,-117.05 1034.87,-115.76 1025.85,-110.21 1024.36,-117.05"/>
<text text-anchor="middle" x="884.44" y="-149.8" font-family="Times,serif" font-size="14.00">url</text>
</g>
</g>
</svg>
