<?xml version="1.0" encoding="UTF-8" standalone="no"?>
<!DOCTYPE svg PUBLIC "-//W3C//DTD SVG 1.1//EN"
 "http://www.w3.org/Graphics/SVG/1.1/DTD/svg11.dtd">
<!-- Generated by graphviz version 2.44.0 (0)
 -->
<!-- Pages: 1 -->
<svg width="1205pt" height="969pt"
 viewBox="0.00 0.00 1205.32 969.00" xmlns="http://www.w3.org/2000/svg" xmlns:xlink="http://www.w3.org/1999/xlink">
<g id="graph0" class="graph" transform="scale(1 1) rotate(0) translate(4 965)">
<polygon fill="white" stroke="transparent" points="-4,4 -4,-965 1201.32,-965 1201.32,4 -4,4"/>
<!-- Dataset -->
<g id="node1" class="node">
<title>Dataset</title>
<ellipse fill="none" stroke="#558855" cx="660.66" cy="-938" rx="45.49" ry="18"/>
<text text-anchor="middle" x="660.66" y="-934.3" font-family="Times-Roman" font-size="14.00">Dataset</text>
</g>
<!-- dev.d9fsm.sprep.wod.by/dataset/151 -->
<g id="node2" class="node">
<title>dev.d9fsm.sprep.wod.by/dataset/151</title>
<ellipse fill="none" stroke="black" cx="179.38" cy="-418" rx="179.27" ry="18"/>
<text text-anchor="middle" x="179.38" y="-414.3" font-family="Times-Roman" font-size="14.00">dev.d9fsm.sprep.wod.by/dataset/151</text>
</g>
<!-- dev.d9fsm.sprep.wod.by/dataset/151&#45;&gt;Dataset -->
<g id="edge1" class="edge">
<title>dev.d9fsm.sprep.wod.by/dataset/151&#45;&gt;Dataset</title>
<path fill="none" stroke="black" d="M181.55,-436.25C187.25,-508.85 218.76,-779.04 376.77,-901 443.39,-952.42 546.2,-951.88 607.81,-945.71"/>
<polygon fill="black" stroke="black" points="608.51,-949.15 618.07,-944.59 607.75,-942.19 608.51,-949.15"/>
<text text-anchor="middle" x="442.77" y="-949.8" font-family="Times-Roman" font-size="14.00">type</text>
</g>
<!-- _ -->
<g id="node3" class="node">
<title>_</title>
<ellipse fill="none" stroke="#558855" cx="660.66" cy="-564" rx="27" ry="18"/>
<text text-anchor="middle" x="660.66" y="-560.3" font-family="Times-Roman" font-size="14.00">_</text>
</g>
<!-- dev.d9fsm.sprep.wod.by/dataset/151&#45;&gt;_ -->
<g id="edge2" class="edge">
<title>dev.d9fsm.sprep.wod.by/dataset/151&#45;&gt;_</title>
<path fill="none" stroke="black" d="M190.48,-436.07C215.45,-478.64 284.79,-584.61 376.77,-624 464.93,-661.76 579.04,-609.76 631.28,-580.93"/>
<polygon fill="black" stroke="black" points="633.01,-583.97 640,-576.01 629.57,-577.87 633.01,-583.97"/>
<text text-anchor="middle" x="442.77" y="-640.8" font-family="Times-Roman" font-size="14.00">accountablePerson</text>
</g>
<!-- dev.d9fsm.sprep.wod.by/dataset/151&#45;&gt;_ -->
<g id="edge6" class="edge">
<title>dev.d9fsm.sprep.wod.by/dataset/151&#45;&gt;_</title>
<path fill="none" stroke="black" d="M193.88,-436.06C222.62,-472.82 294.06,-555.45 376.77,-586 462.51,-617.67 572.56,-591.88 626.65,-575.28"/>
<polygon fill="black" stroke="black" points="627.91,-578.55 636.39,-572.2 625.8,-571.88 627.91,-578.55"/>
<text text-anchor="middle" x="442.77" y="-603.8" font-family="Times-Roman" font-size="14.00">distribution</text>
</g>
<!-- dev.d9fsm.sprep.wod.by/dataset/151&#45;&gt;_ -->
<g id="edge7" class="edge">
<title>dev.d9fsm.sprep.wod.by/dataset/151&#45;&gt;_</title>
<path fill="none" stroke="black" d="M199.68,-435.99C232.86,-465.64 304.2,-523.9 376.77,-548 421.43,-562.83 557.37,-564.43 623.19,-564.29"/>
<polygon fill="black" stroke="black" points="623.51,-567.79 633.5,-564.25 623.49,-560.79 623.51,-567.79"/>
<text text-anchor="middle" x="442.77" y="-565.8" font-family="Times-Roman" font-size="14.00">distribution</text>
</g>
<!-- dev.d9fsm.sprep.wod.by/dataset/151&#45;&gt;_ -->
<g id="edge13" class="edge">
<title>dev.d9fsm.sprep.wod.by/dataset/151&#45;&gt;_</title>
<path fill="none" stroke="black" d="M210.89,-435.78C248.57,-456.91 315.26,-491.61 376.77,-510 433.56,-526.98 450.51,-518.07 508.77,-529 549.14,-536.57 595.04,-547.57 625.51,-555.21"/>
<polygon fill="black" stroke="black" points="624.67,-558.6 635.22,-557.66 626.39,-551.82 624.67,-558.6"/>
<text text-anchor="middle" x="442.77" y="-532.8" font-family="Times-Roman" font-size="14.00">publisher</text>
</g>
<!-- &quot;09&#45;07&#45;2021T010741.0&quot; -->
<g id="node4" class="node">
<title>&quot;09&#45;07&#45;2021T010741.0&quot;</title>
<ellipse fill="none" stroke="black" stroke-width="0" cx="660.66" cy="-504" rx="122.38" ry="18"/>
<text text-anchor="middle" x="660.66" y="-500.3" font-family="Times-Roman" font-size="14.00">&quot;09&#45;07&#45;2021T010741.0&quot;</text>
</g>
<!-- dev.d9fsm.sprep.wod.by/dataset/151&#45;&gt;&quot;09&#45;07&#45;2021T010741.0&quot; -->
<g id="edge3" class="edge">
<title>dev.d9fsm.sprep.wod.by/dataset/151&#45;&gt;&quot;09&#45;07&#45;2021T010741.0&quot;</title>
<path fill="none" stroke="black" d="M234.03,-435.19C273.21,-447.14 327.81,-462.56 376.77,-472 430.46,-482.35 490.57,-489.73 541.53,-494.78"/>
<polygon fill="black" stroke="black" points="541.3,-498.27 551.59,-495.76 541.98,-491.3 541.3,-498.27"/>
<text text-anchor="middle" x="442.77" y="-494.8" font-family="Times-Roman" font-size="14.00">dateCreated</text>
</g>
<!-- dev.d9fsm.sprep.wod.by/dataset/151&#45;&gt;&quot;09&#45;07&#45;2021T010741.0&quot; -->
<g id="edge4" class="edge">
<title>dev.d9fsm.sprep.wod.by/dataset/151&#45;&gt;&quot;09&#45;07&#45;2021T010741.0&quot;</title>
<path fill="none" stroke="black" d="M314.79,-429.86C401.61,-437.93 500,-448.02 508.77,-453 520.36,-459.59 515.5,-469.87 526.77,-477 535.05,-482.24 544.15,-486.49 553.59,-489.93"/>
<polygon fill="black" stroke="black" points="552.53,-493.26 563.12,-493.11 554.74,-486.62 552.53,-493.26"/>
<text text-anchor="middle" x="442.77" y="-456.8" font-family="Times-Roman" font-size="14.00">dateModified</text>
</g>
<!-- &quot;The population was c...&quot; -->
<g id="node5" class="node">
<title>&quot;The population was c...&quot;</title>
<ellipse fill="none" stroke="black" stroke-width="0" cx="660.66" cy="-450" rx="124.28" ry="18"/>
<text text-anchor="middle" x="660.66" y="-446.3" font-family="Times-Roman" font-size="14.00">&quot;The population was c...&quot;</text>
</g>
<!-- dev.d9fsm.sprep.wod.by/dataset/151&#45;&gt;&quot;The population was c...&quot; -->
<g id="edge5" class="edge">
<title>dev.d9fsm.sprep.wod.by/dataset/151&#45;&gt;&quot;The population was c...&quot;</title>
<path fill="none" stroke="black" d="M346.99,-411.56C398.95,-411.42 456.36,-413.17 508.77,-419 516.91,-419.91 518.75,-421.3 526.77,-423 542.88,-426.43 560.12,-430 576.65,-433.38"/>
<polygon fill="black" stroke="black" points="576.35,-436.89 586.84,-435.45 577.74,-430.03 576.35,-436.89"/>
<text text-anchor="middle" x="442.77" y="-422.8" font-family="Times-Roman" font-size="14.00">description</text>
</g>
<!-- &quot;en&quot; -->
<g id="node6" class="node">
<title>&quot;en&quot;</title>
<ellipse fill="none" stroke="black" stroke-width="0" cx="660.66" cy="-396" rx="30.59" ry="18"/>
<text text-anchor="middle" x="660.66" y="-392.3" font-family="Times-Roman" font-size="14.00">&quot;en&quot;</text>
</g>
<!-- dev.d9fsm.sprep.wod.by/dataset/151&#45;&gt;&quot;en&quot; -->
<g id="edge8" class="edge">
<title>dev.d9fsm.sprep.wod.by/dataset/151&#45;&gt;&quot;en&quot;</title>
<path fill="none" stroke="black" d="M250.83,-401.43C288.05,-393.52 334.62,-384.94 376.77,-381 435.18,-375.55 450.17,-378.09 508.77,-381 546.75,-382.88 589.92,-387.42 620.32,-391.01"/>
<polygon fill="black" stroke="black" points="620.17,-394.52 630.51,-392.24 621,-387.57 620.17,-394.52"/>
<text text-anchor="middle" x="442.77" y="-384.8" font-family="Times-Roman" font-size="14.00">inLanguage</text>
</g>
<!-- &quot;municipalities&quot; -->
<g id="node7" class="node">
<title>&quot;municipalities&quot;</title>
<ellipse fill="none" stroke="black" stroke-width="0" cx="660.66" cy="-342" rx="81.79" ry="18"/>
<text text-anchor="middle" x="660.66" y="-338.3" font-family="Times-Roman" font-size="14.00">&quot;municipalities&quot;</text>
</g>
<!-- dev.d9fsm.sprep.wod.by/dataset/151&#45;&gt;&quot;municipalities&quot; -->
<g id="edge9" class="edge">
<title>dev.d9fsm.sprep.wod.by/dataset/151&#45;&gt;&quot;municipalities&quot;</title>
<path fill="none" stroke="black" d="M226.43,-400.49C265.75,-386.38 324.12,-367.39 376.77,-358 440.14,-346.7 512.64,-342.77 568.37,-341.63"/>
<polygon fill="black" stroke="black" points="568.64,-345.13 578.58,-341.45 568.52,-338.13 568.64,-345.13"/>
<text text-anchor="middle" x="442.77" y="-361.8" font-family="Times-Roman" font-size="14.00">keywords</text>
</g>
<!-- &quot;population&quot; -->
<g id="node8" class="node">
<title>&quot;population&quot;</title>
<ellipse fill="none" stroke="black" stroke-width="0" cx="660.66" cy="-288" rx="67.69" ry="18"/>
<text text-anchor="middle" x="660.66" y="-284.3" font-family="Times-Roman" font-size="14.00">&quot;population&quot;</text>
</g>
<!-- dev.d9fsm.sprep.wod.by/dataset/151&#45;&gt;&quot;population&quot; -->
<g id="edge10" class="edge">
<title>dev.d9fsm.sprep.wod.by/dataset/151&#45;&gt;&quot;population&quot;</title>
<path fill="none" stroke="black" d="M209.8,-400.21C247.19,-378.49 314.4,-342.37 376.77,-324 444.98,-303.91 525.69,-295.03 583.41,-291.1"/>
<polygon fill="black" stroke="black" points="583.8,-294.59 593.55,-290.45 583.35,-287.6 583.8,-294.59"/>
<text text-anchor="middle" x="442.77" y="-327.8" font-family="Times-Roman" font-size="14.00">keywords</text>
</g>
<!-- &quot;https//pacific&#45;data....&quot; -->
<g id="node9" class="node">
<title>&quot;https//pacific&#45;data....&quot;</title>
<ellipse fill="none" stroke="black" stroke-width="0" cx="660.66" cy="-234" rx="113.18" ry="18"/>
<text text-anchor="middle" x="660.66" y="-230.3" font-family="Times-Roman" font-size="14.00">&quot;https//pacific&#45;data....&quot;</text>
</g>
<!-- dev.d9fsm.sprep.wod.by/dataset/151&#45;&gt;&quot;https//pacific&#45;data....&quot; -->
<g id="edge11" class="edge">
<title>dev.d9fsm.sprep.wod.by/dataset/151&#45;&gt;&quot;https//pacific&#45;data....&quot;</title>
<path fill="none" stroke="black" d="M199.2,-400.06C232.22,-369.7 304.04,-308.63 376.77,-279 429.01,-257.72 490.5,-246.46 542.79,-240.52"/>
<polygon fill="black" stroke="black" points="543.21,-244 552.78,-239.44 542.46,-237.04 543.21,-244"/>
<text text-anchor="middle" x="442.77" y="-282.8" font-family="Times-Roman" font-size="14.00">license</text>
</g>
<!-- &quot;FSM Municipalities&quot; -->
<g id="node10" class="node">
<title>&quot;FSM Municipalities&quot;</title>
<ellipse fill="none" stroke="black" stroke-width="0" cx="660.66" cy="-180" rx="102.88" ry="18"/>
<text text-anchor="middle" x="660.66" y="-176.3" font-family="Times-Roman" font-size="14.00">&quot;FSM Municipalities&quot;</text>
</g>
<!-- dev.d9fsm.sprep.wod.by/dataset/151&#45;&gt;&quot;FSM Municipalities&quot; -->
<g id="edge12" class="edge">
<title>dev.d9fsm.sprep.wod.by/dataset/151&#45;&gt;&quot;FSM Municipalities&quot;</title>
<path fill="none" stroke="black" d="M192.66,-400.04C220.38,-361.07 292.07,-268.77 376.77,-226 429.45,-199.39 494.05,-187.57 548.21,-182.54"/>
<polygon fill="black" stroke="black" points="548.53,-186.02 558.19,-181.67 547.93,-179.05 548.53,-186.02"/>
<text text-anchor="middle" x="442.77" y="-229.8" font-family="Times-Roman" font-size="14.00">name</text>
</g>
<!-- &quot;POLYGON ((&#45;226.42089...&quot; -->
<g id="node11" class="node">
<title>&quot;POLYGON ((&#45;226.42089...&quot;</title>
<ellipse fill="none" stroke="black" stroke-width="0" cx="660.66" cy="-126" rx="133.78" ry="18"/>
<text text-anchor="middle" x="660.66" y="-122.3" font-family="Times-Roman" font-size="14.00">&quot;POLYGON ((&#45;226.42089...&quot;</text>
</g>
<!-- dev.d9fsm.sprep.wod.by/dataset/151&#45;&gt;&quot;POLYGON ((&#45;226.42089...&quot; -->
<g id="edge14" class="edge">
<title>dev.d9fsm.sprep.wod.by/dataset/151&#45;&gt;&quot;POLYGON ((&#45;226.42089...&quot;</title>
<path fill="none" stroke="black" d="M188.71,-399.74C211.31,-352.51 278.74,-226.03 376.77,-169 418.56,-144.69 469.46,-132.65 516.51,-127.06"/>
<polygon fill="black" stroke="black" points="516.93,-130.53 526.48,-125.96 516.16,-123.58 516.93,-130.53"/>
<text text-anchor="middle" x="442.77" y="-172.8" font-family="Times-Roman" font-size="14.00">spatial</text>
</g>
<!-- &quot;FSM&quot; -->
<g id="node12" class="node">
<title>&quot;FSM&quot;</title>
<ellipse fill="none" stroke="black" stroke-width="0" cx="660.66" cy="-72" rx="38.19" ry="18"/>
<text text-anchor="middle" x="660.66" y="-68.3" font-family="Times-Roman" font-size="14.00">&quot;FSM&quot;</text>
</g>
<!-- dev.d9fsm.sprep.wod.by/dataset/151&#45;&gt;&quot;FSM&quot; -->
<g id="edge15" class="edge">
<title>dev.d9fsm.sprep.wod.by/dataset/151&#45;&gt;&quot;FSM&quot;</title>
<path fill="none" stroke="black" d="M185.88,-399.86C203.43,-345.33 263.73,-182.19 376.77,-110 449.26,-63.7 553.5,-62.72 613.11,-66.88"/>
<polygon fill="black" stroke="black" points="613.11,-70.39 623.35,-67.68 613.65,-63.41 613.11,-70.39"/>
<text text-anchor="middle" x="442.77" y="-113.8" font-family="Times-Roman" font-size="14.00">spatialCoverage</text>
</g>
<!-- &quot;Culture and Heritage&quot; -->
<g id="node13" class="node">
<title>&quot;Culture and Heritage&quot;</title>
<ellipse fill="none" stroke="black" stroke-width="0" cx="660.66" cy="-18" rx="113.98" ry="18"/>
<text text-anchor="middle" x="660.66" y="-14.3" font-family="Times-Roman" font-size="14.00">&quot;Culture and Heritage&quot;</text>
</g>
<!-- dev.d9fsm.sprep.wod.by/dataset/151&#45;&gt;&quot;Culture and Heritage&quot; -->
<g id="edge16" class="edge">
<title>dev.d9fsm.sprep.wod.by/dataset/151&#45;&gt;&quot;Culture and Heritage&quot;</title>
<path fill="none" stroke="black" d="M183.85,-399.8C196.64,-338.23 247.29,-136.71 376.77,-49 429.54,-13.25 500.96,-5.66 558.83,-6.93"/>
<polygon fill="black" stroke="black" points="559,-10.43 569.11,-7.25 559.22,-3.44 559,-10.43"/>
<text text-anchor="middle" x="442.77" y="-52.8" font-family="Times-Roman" font-size="14.00">subjectOf</text>
</g>
<!-- &quot;&quot; -->
<g id="node14" class="node">
<title>&quot;&quot;</title>
<ellipse fill="none" stroke="black" stroke-width="0" cx="1069.93" cy="-888" rx="27" ry="18"/>
<text text-anchor="middle" x="1069.93" y="-884.3" font-family="Times-Roman" font-size="14.00">&quot;&quot;</text>
</g>
<!-- dev.d9fsm.sprep.wod.by/dataset/151&#45;&gt;&quot;&quot; -->
<g id="edge17" class="edge">
<title>dev.d9fsm.sprep.wod.by/dataset/151&#45;&gt;&quot;&quot;</title>
<path fill="none" stroke="black" d="M191.4,-436C218.39,-478.87 291.84,-588.51 376.77,-656 546.16,-790.61 603.47,-817.33 812.54,-873 888.97,-893.35 982.58,-892.7 1032.87,-890.38"/>
<polygon fill="black" stroke="black" points="1033.11,-893.87 1042.92,-889.87 1032.75,-886.88 1033.11,-893.87"/>
<text text-anchor="middle" x="660.66" y="-870.8" font-family="Times-Roman" font-size="14.00">temporalCoverage</text>
</g>
<!-- _&#45;&gt;&quot;&quot; -->
<g id="edge25" class="edge">
<title>_&#45;&gt;&quot;&quot;</title>
<path fill="none" stroke="black" d="M665.96,-581.67C678.85,-630.6 722,-768.61 812.54,-835 853.53,-865.05 874.78,-847.72 924.54,-858 961.84,-865.7 1004.54,-874.58 1033.77,-880.67"/>
<polygon fill="black" stroke="black" points="1033.39,-884.17 1043.9,-882.78 1034.82,-877.31 1033.39,-884.17"/>
<text text-anchor="middle" x="868.54" y="-861.8" font-family="Times-Roman" font-size="14.00">description</text>
</g>
<!-- Organization -->
<g id="node15" class="node">
<title>Organization</title>
<ellipse fill="none" stroke="#558855" cx="1069.93" cy="-834" rx="68.49" ry="18"/>
<text text-anchor="middle" x="1069.93" y="-830.3" font-family="Times-Roman" font-size="14.00">Organization</text>
</g>
<!-- _&#45;&gt;Organization -->
<g id="edge18" class="edge">
<title>_&#45;&gt;Organization</title>
<path fill="none" stroke="black" d="M667.85,-581.6C684.06,-624.86 732.13,-736.67 812.54,-789 841.94,-808.13 929.92,-820.6 994.65,-827.46"/>
<polygon fill="black" stroke="black" points="994.52,-830.97 1004.83,-828.51 995.24,-824 994.52,-830.97"/>
<text text-anchor="middle" x="868.54" y="-821.8" font-family="Times-Roman" font-size="14.00">type</text>
</g>
<!-- &quot;Secretary The Honora...&quot; -->
<g id="node16" class="node">
<title>&quot;Secretary The Honora...&quot;</title>
<ellipse fill="none" stroke="black" stroke-width="0" cx="1069.93" cy="-780" rx="126.18" ry="18"/>
<text text-anchor="middle" x="1069.93" y="-776.3" font-family="Times-Roman" font-size="14.00">&quot;Secretary The Honora...&quot;</text>
</g>
<!-- _&#45;&gt;&quot;Secretary The Honora...&quot; -->
<g id="edge19" class="edge">
<title>_&#45;&gt;&quot;Secretary The Honora...&quot;</title>
<path fill="none" stroke="black" d="M671.2,-580.87C691.94,-615.8 744.74,-695.97 812.54,-734 850.61,-755.35 896.41,-767.14 938.71,-773.55"/>
<polygon fill="black" stroke="black" points="938.42,-777.04 948.81,-774.99 939.41,-770.11 938.42,-777.04"/>
<text text-anchor="middle" x="868.54" y="-773.8" font-family="Times-Roman" font-size="14.00">description</text>
</g>
<!-- &quot;Department of Enviro...&quot; -->
<g id="node17" class="node">
<title>&quot;Department of Enviro...&quot;</title>
<ellipse fill="none" stroke="black" stroke-width="0" cx="1069.93" cy="-726" rx="125.38" ry="18"/>
<text text-anchor="middle" x="1069.93" y="-722.3" font-family="Times-Roman" font-size="14.00">&quot;Department of Enviro...&quot;</text>
</g>
<!-- _&#45;&gt;&quot;Department of Enviro...&quot; -->
<g id="edge20" class="edge">
<title>_&#45;&gt;&quot;Department of Enviro...&quot;</title>
<path fill="none" stroke="black" d="M675.33,-579.24C699.93,-605.59 754.53,-659.28 812.54,-685 852.51,-702.71 898.99,-712.89 941.31,-718.7"/>
<polygon fill="black" stroke="black" points="941.03,-722.19 951.4,-720.01 941.94,-715.25 941.03,-722.19"/>
<text text-anchor="middle" x="868.54" y="-718.8" font-family="Times-Roman" font-size="14.00">name</text>
</g>
<!-- Person -->
<g id="node18" class="node">
<title>Person</title>
<ellipse fill="none" stroke="#558855" cx="1069.93" cy="-672" rx="41.69" ry="18"/>
<text text-anchor="middle" x="1069.93" y="-668.3" font-family="Times-Roman" font-size="14.00">Person</text>
</g>
<!-- _&#45;&gt;Person -->
<g id="edge21" class="edge">
<title>_&#45;&gt;Person</title>
<path fill="none" stroke="black" d="M680.13,-577.01C707.58,-595.6 761.4,-629.25 812.54,-645 881.52,-666.25 965.32,-671.44 1017.91,-672.37"/>
<polygon fill="black" stroke="black" points="1017.95,-675.87 1028,-672.51 1018.05,-668.87 1017.95,-675.87"/>
<text text-anchor="middle" x="868.54" y="-669.8" font-family="Times-Roman" font-size="14.00">type</text>
</g>
<!-- DataDownload -->
<g id="node19" class="node">
<title>DataDownload</title>
<ellipse fill="none" stroke="#558855" cx="1069.93" cy="-618" rx="76.09" ry="18"/>
<text text-anchor="middle" x="1069.93" y="-614.3" font-family="Times-Roman" font-size="14.00">DataDownload</text>
</g>
<!-- _&#45;&gt;DataDownload -->
<g id="edge22" class="edge">
<title>_&#45;&gt;DataDownload</title>
<path fill="none" stroke="black" d="M683.01,-574.3C711.68,-587.5 764.57,-609.67 812.54,-618 870.81,-628.11 937.64,-627.73 988.47,-625.02"/>
<polygon fill="black" stroke="black" points="988.95,-628.5 998.74,-624.43 988.55,-621.51 988.95,-628.5"/>
<text text-anchor="middle" x="868.54" y="-629.8" font-family="Times-Roman" font-size="14.00">type</text>
</g>
<!-- _&#45;&gt;DataDownload -->
<g id="edge30" class="edge">
<title>_&#45;&gt;DataDownload</title>
<path fill="none" stroke="black" d="M687.44,-567.42C747.78,-575.42 900.07,-595.61 992.96,-607.93"/>
<polygon fill="black" stroke="black" points="992.77,-611.43 1003.15,-609.28 993.69,-604.49 992.77,-611.43"/>
<text text-anchor="middle" x="868.54" y="-600.8" font-family="Times-Roman" font-size="14.00">type</text>
</g>
<!-- &quot;1349510&quot; -->
<g id="node20" class="node">
<title>&quot;1349510&quot;</title>
<ellipse fill="none" stroke="black" stroke-width="0" cx="1069.93" cy="-564" rx="60.39" ry="18"/>
<text text-anchor="middle" x="1069.93" y="-560.3" font-family="Times-Roman" font-size="14.00">&quot;1349510&quot;</text>
</g>
<!-- _&#45;&gt;&quot;1349510&quot; -->
<g id="edge23" class="edge">
<title>_&#45;&gt;&quot;1349510&quot;</title>
<path fill="none" stroke="black" d="M687.75,-564C749.69,-564 907.24,-564 999.24,-564"/>
<polygon fill="black" stroke="black" points="999.3,-567.5 1009.3,-564 999.3,-560.5 999.3,-567.5"/>
<text text-anchor="middle" x="868.54" y="-567.8" font-family="Times-Roman" font-size="14.00">contentSize</text>
</g>
<!-- &quot;http//dev.d9fsm.spre...&quot; -->
<g id="node21" class="node">
<title>&quot;http//dev.d9fsm.spre...&quot;</title>
<ellipse fill="none" stroke="black" stroke-width="0" cx="1069.93" cy="-510" rx="122.68" ry="18"/>
<text text-anchor="middle" x="1069.93" y="-506.3" font-family="Times-Roman" font-size="14.00">&quot;http//dev.d9fsm.spre...&quot;</text>
</g>
<!-- _&#45;&gt;&quot;http//dev.d9fsm.spre...&quot; -->
<g id="edge24" class="edge">
<title>_&#45;&gt;&quot;http//dev.d9fsm.spre...&quot;</title>
<path fill="none" stroke="black" d="M687.44,-560.58C742.7,-553.26 875.05,-535.71 968.3,-523.34"/>
<polygon fill="black" stroke="black" points="968.88,-526.8 978.33,-522.01 967.96,-519.86 968.88,-526.8"/>
<text text-anchor="middle" x="868.54" y="-546.8" font-family="Times-Roman" font-size="14.00">contentUrl</text>
</g>
<!-- _&#45;&gt;&quot;http//dev.d9fsm.spre...&quot; -->
<g id="edge29" class="edge">
<title>_&#45;&gt;&quot;http//dev.d9fsm.spre...&quot;</title>
<path fill="none" stroke="black" d="M687.6,-562.08C715.71,-559.01 761.02,-551.13 794.54,-531 804.8,-524.84 801.63,-515.89 812.54,-511 867.5,-486.39 935.98,-487.51 988.33,-494.04"/>
<polygon fill="black" stroke="black" points="987.87,-497.51 998.24,-495.37 988.79,-490.57 987.87,-497.51"/>
<text text-anchor="middle" x="868.54" y="-514.8" font-family="Times-Roman" font-size="14.00">url</text>
</g>
<!-- &quot;text/csv&quot; -->
<g id="node22" class="node">
<title>&quot;text/csv&quot;</title>
<ellipse fill="none" stroke="black" stroke-width="0" cx="1069.93" cy="-456" rx="55.49" ry="18"/>
<text text-anchor="middle" x="1069.93" y="-452.3" font-family="Times-Roman" font-size="14.00">&quot;text/csv&quot;</text>
</g>
<!-- _&#45;&gt;&quot;text/csv&quot; -->
<g id="edge26" class="edge">
<title>_&#45;&gt;&quot;text/csv&quot;</title>
<path fill="none" stroke="black" d="M687.72,-564.75C717.44,-564.15 765.63,-558.55 794.54,-531 814.7,-511.79 790.7,-488.26 812.54,-471 870.13,-425.48 959.67,-432.3 1016.26,-442.97"/>
<polygon fill="black" stroke="black" points="1015.59,-446.41 1026.08,-444.92 1016.96,-439.54 1015.59,-446.41"/>
<text text-anchor="middle" x="868.54" y="-474.8" font-family="Times-Roman" font-size="14.00">encodingFormat</text>
</g>
<!-- &quot;csv&quot; -->
<g id="node23" class="node">
<title>&quot;csv&quot;</title>
<ellipse fill="none" stroke="black" stroke-width="0" cx="1069.93" cy="-402" rx="34.39" ry="18"/>
<text text-anchor="middle" x="1069.93" y="-398.3" font-family="Times-Roman" font-size="14.00">&quot;csv&quot;</text>
</g>
<!-- _&#45;&gt;&quot;csv&quot; -->
<g id="edge27" class="edge">
<title>_&#45;&gt;&quot;csv&quot;</title>
<path fill="none" stroke="black" d="M687.6,-565.42C717.9,-565.55 767.34,-560.72 794.54,-531 829.48,-492.84 774.17,-450.69 812.54,-416 871.85,-362.39 973.89,-377.02 1029.68,-390.59"/>
<polygon fill="black" stroke="black" points="1028.99,-394.03 1039.54,-393.1 1030.71,-387.24 1028.99,-394.03"/>
<text text-anchor="middle" x="868.54" y="-419.8" font-family="Times-Roman" font-size="14.00">fileFormat</text>
</g>
<!-- &quot;Municipalities CSV S...&quot; -->
<g id="node24" class="node">
<title>&quot;Municipalities CSV S...&quot;</title>
<ellipse fill="none" stroke="black" stroke-width="0" cx="1069.93" cy="-348" rx="120.48" ry="18"/>
<text text-anchor="middle" x="1069.93" y="-344.3" font-family="Times-Roman" font-size="14.00">&quot;Municipalities CSV S...&quot;</text>
</g>
<!-- _&#45;&gt;&quot;Municipalities CSV S...&quot; -->
<g id="edge28" class="edge">
<title>_&#45;&gt;&quot;Municipalities CSV S...&quot;</title>
<path fill="none" stroke="black" d="M687.59,-565.65C718.13,-566.04 768.02,-561.49 794.54,-531 819.76,-502 784.55,-385.33 812.54,-359 863.01,-311.54 946.77,-317.68 1004.75,-329.81"/>
<polygon fill="black" stroke="black" points="1004.03,-333.24 1014.55,-331.97 1005.53,-326.4 1004.03,-333.24"/>
<text text-anchor="middle" x="868.54" y="-362.8" font-family="Times-Roman" font-size="14.00">name</text>
</g>
<!-- &quot;GeoJSON file of FSM ...&quot; -->
<g id="node25" class="node">
<title>&quot;GeoJSON file of FSM ...&quot;</title>
<ellipse fill="none" stroke="black" stroke-width="0" cx="1069.93" cy="-294" rx="121.58" ry="18"/>
<text text-anchor="middle" x="1069.93" y="-290.3" font-family="Times-Roman" font-size="14.00">&quot;GeoJSON file of FSM ...&quot;</text>
</g>
<!-- _&#45;&gt;&quot;GeoJSON file of FSM ...&quot; -->
<g id="edge31" class="edge">
<title>_&#45;&gt;&quot;GeoJSON file of FSM ...&quot;</title>
<path fill="none" stroke="black" d="M687.73,-565.77C718.39,-566.27 768.42,-561.83 794.54,-531 827.54,-492.05 775.61,-337.23 812.54,-302 833.45,-282.06 899.02,-280.28 958.61,-283.37"/>
<polygon fill="black" stroke="black" points="958.7,-286.88 968.89,-283.95 959.1,-279.89 958.7,-286.88"/>
<text text-anchor="middle" x="868.54" y="-305.8" font-family="Times-Roman" font-size="14.00">description</text>
</g>
<!-- &quot;geojson&quot; -->
<g id="node26" class="node">
<title>&quot;geojson&quot;</title>
<ellipse fill="none" stroke="black" stroke-width="0" cx="1069.93" cy="-240" rx="54.69" ry="18"/>
<text text-anchor="middle" x="1069.93" y="-236.3" font-family="Times-Roman" font-size="14.00">&quot;geojson&quot;</text>
</g>
<!-- _&#45;&gt;&quot;geojson&quot; -->
<g id="edge32" class="edge">
<title>_&#45;&gt;&quot;geojson&quot;</title>
<path fill="none" stroke="black" d="M687.79,-565.82C718.51,-566.37 768.6,-561.98 794.54,-531 832.87,-485.24 770.81,-305.68 812.54,-263 864.72,-209.65 957.9,-216.11 1016.41,-227.05"/>
<polygon fill="black" stroke="black" points="1016.07,-230.55 1026.55,-229.06 1017.42,-223.69 1016.07,-230.55"/>
<text text-anchor="middle" x="868.54" y="-266.8" font-family="Times-Roman" font-size="14.00">fileFormat</text>
</g>
<!-- &quot;Municipalities Map&quot; -->
<g id="node27" class="node">
<title>&quot;Municipalities Map&quot;</title>
<ellipse fill="none" stroke="black" stroke-width="0" cx="1069.93" cy="-186" rx="102.88" ry="18"/>
<text text-anchor="middle" x="1069.93" y="-182.3" font-family="Times-Roman" font-size="14.00">&quot;Municipalities Map&quot;</text>
</g>
<!-- _&#45;&gt;&quot;Municipalities Map&quot; -->
<g id="edge33" class="edge">
<title>_&#45;&gt;&quot;Municipalities Map&quot;</title>
<path fill="none" stroke="black" d="M687.58,-565.87C718.35,-566.5 768.72,-562.23 794.54,-531 817.95,-502.7 786.63,-227.02 812.54,-201 861.85,-151.5 946.84,-156.98 1005.37,-168.67"/>
<polygon fill="black" stroke="black" points="1004.74,-172.12 1015.25,-170.76 1006.19,-165.27 1004.74,-172.12"/>
<text text-anchor="middle" x="868.54" y="-204.8" font-family="Times-Roman" font-size="14.00">name</text>
</g>
<!-- &quot;http//www.pacgeo.org...&quot; -->
<g id="node28" class="node">
<title>&quot;http//www.pacgeo.org...&quot;</title>
<ellipse fill="none" stroke="black" stroke-width="0" cx="1069.93" cy="-132" rx="127.28" ry="18"/>
<text text-anchor="middle" x="1069.93" y="-128.3" font-family="Times-Roman" font-size="14.00">&quot;http//www.pacgeo.org...&quot;</text>
</g>
<!-- _&#45;&gt;&quot;http//www.pacgeo.org...&quot; -->
<g id="edge34" class="edge">
<title>_&#45;&gt;&quot;http//www.pacgeo.org...&quot;</title>
<path fill="none" stroke="black" d="M687.62,-565.9C718.43,-566.57 768.85,-562.34 794.54,-531 822.05,-497.45 781.7,-171.5 812.54,-141 862.61,-91.48 948.63,-99.7 1007.09,-113.22"/>
<polygon fill="black" stroke="black" points="1006.41,-116.65 1016.95,-115.61 1008.06,-109.85 1006.41,-116.65"/>
<text text-anchor="middle" x="868.54" y="-144.8" font-family="Times-Roman" font-size="14.00">url</text>
</g>
</g>
</svg>
