<?xml version="1.0" encoding="UTF-8" standalone="no"?>
<!DOCTYPE svg PUBLIC "-//W3C//DTD SVG 1.1//EN"
 "http://www.w3.org/Graphics/SVG/1.1/DTD/svg11.dtd">
<!-- Generated by graphviz version 2.44.0 (0)
 -->
<!-- Pages: 1 -->
<svg width="2041pt" height="856pt"
 viewBox="0.00 0.00 2040.61 855.50" xmlns="http://www.w3.org/2000/svg" xmlns:xlink="http://www.w3.org/1999/xlink">
<g id="graph0" class="graph" transform="scale(1 1) rotate(0) translate(4 851.5)">
<polygon fill="white" stroke="transparent" points="-4,4 -4,-851.5 2036.61,-851.5 2036.61,4 -4,4"/>
<text text-anchor="middle" x="1016.31" y="-22.8" font-family="Times-Roman" font-size="14.00">Model:</text>
<text text-anchor="middle" x="1016.31" y="-7.8" font-family="Times-Roman" font-size="14.00">https://iode.org/</text>
<!-- Rhttp://www.foo.org/orgID -->
<g id="node1" class="node">
<title>Rhttp://www.foo.org/orgID</title>
<ellipse fill="none" stroke="blue" cx="689.35" cy="-774.5" rx="121.58" ry="18"/>
<text text-anchor="middle" x="689.35" y="-770.8" font-family="Times-Roman" font-size="14.00">http://www.foo.org/orgID</text>
</g>
<!-- Rschema:Organization -->
<g id="node2" class="node">
<title>Rschema:Organization</title>
<ellipse fill="none" stroke="blue" cx="1390.63" cy="-829.5" rx="106.68" ry="18"/>
<text text-anchor="middle" x="1390.63" y="-825.8" font-family="Times-Roman" font-size="14.00">schema:Organization</text>
</g>
<!-- Rhttp://www.foo.org/orgID&#45;&gt;Rschema:Organization -->
<g id="edge1" class="edge">
<title>Rhttp://www.foo.org/orgID&#45;&gt;Rschema:Organization</title>
<path fill="none" stroke="black" stroke-dasharray="1,5" d="M796.94,-782.88C928.85,-793.26 1152.11,-810.82 1283.71,-821.17"/>
<polygon fill="black" stroke="black" points="1283.56,-824.67 1293.81,-821.96 1284.11,-817.69 1283.56,-824.67"/>
<text text-anchor="middle" x="1052.63" y="-812.3" font-family="Times-Roman" font-size="14.00">rdfs:type</text>
</g>
<!-- LSome Institute -->
<g id="node3" class="node">
<title>LSome Institute</title>
<polygon fill="none" stroke="black" points="1331.63,-756.5 1331.63,-792.5 1449.63,-792.5 1449.63,-756.5 1331.63,-756.5"/>
<text text-anchor="middle" x="1390.63" y="-770.8" font-family="Times-Roman" font-size="14.00">Some Institute</text>
</g>
<!-- Rhttp://www.foo.org/orgID&#45;&gt;LSome Institute -->
<g id="edge2" class="edge">
<title>Rhttp://www.foo.org/orgID&#45;&gt;LSome Institute</title>
<path fill="none" stroke="black" stroke-dasharray="1,5" d="M810.96,-774.5C958.45,-774.5 1203.02,-774.5 1321.34,-774.5"/>
<polygon fill="black" stroke="black" points="1321.36,-778 1331.36,-774.5 1321.36,-771 1321.36,-778"/>
<text text-anchor="middle" x="1052.63" y="-778.3" font-family="Times-Roman" font-size="14.00">schema:legalName</text>
</g>
<!-- Rhttps://doi.org/10.5066/F7VX0DMQ -->
<g id="node4" class="node">
<title>Rhttps://doi.org/10.5066/F7VX0DMQ</title>
<ellipse fill="none" stroke="blue" cx="689.35" cy="-609.5" rx="169.77" ry="18"/>
<text text-anchor="middle" x="689.35" y="-605.8" font-family="Times-Roman" font-size="14.00">https://doi.org/10.5066/F7VX0DMQ</text>
</g>
<!-- Rschema:PropertyValue -->
<g id="node5" class="node">
<title>Rschema:PropertyValue</title>
<ellipse fill="none" stroke="blue" cx="1390.63" cy="-719.5" rx="111.28" ry="18"/>
<text text-anchor="middle" x="1390.63" y="-715.8" font-family="Times-Roman" font-size="14.00">schema:PropertyValue</text>
</g>
<!-- Rhttps://doi.org/10.5066/F7VX0DMQ&#45;&gt;Rschema:PropertyValue -->
<g id="edge3" class="edge">
<title>Rhttps://doi.org/10.5066/F7VX0DMQ&#45;&gt;Rschema:PropertyValue</title>
<path fill="none" stroke="black" stroke-dasharray="1,5" d="M767.8,-625.52C822.09,-636.53 896.41,-651.14 962.13,-662.5 1050.27,-677.73 1072.48,-680.58 1161.13,-692.5 1202.74,-698.09 1248.69,-703.64 1288.41,-708.25"/>
<polygon fill="black" stroke="black" points="1288.04,-711.72 1298.37,-709.39 1288.84,-704.77 1288.04,-711.72"/>
<text text-anchor="middle" x="1052.63" y="-693.3" font-family="Times-Roman" font-size="14.00">rdfs:type</text>
</g>
<!-- Lhttps://registry.identifiers.org/registry/doi -->
<g id="node6" class="node">
<title>Lhttps://registry.identifiers.org/registry/doi</title>
<polygon fill="none" stroke="black" points="1239.63,-646.5 1239.63,-682.5 1541.63,-682.5 1541.63,-646.5 1239.63,-646.5"/>
<text text-anchor="middle" x="1390.63" y="-660.8" font-family="Times-Roman" font-size="14.00">https://registry.identifiers.org/registry/doi</text>
</g>
<!-- Rhttps://doi.org/10.5066/F7VX0DMQ&#45;&gt;Lhttps://registry.identifiers.org/registry/doi -->
<g id="edge4" class="edge">
<title>Rhttps://doi.org/10.5066/F7VX0DMQ&#45;&gt;Lhttps://registry.identifiers.org/registry/doi</title>
<path fill="none" stroke="black" stroke-dasharray="1,5" d="M826.01,-620.17C941.42,-629.25 1107.38,-642.3 1229.33,-651.89"/>
<polygon fill="black" stroke="black" points="1229.26,-655.4 1239.51,-652.69 1229.81,-648.42 1229.26,-655.4"/>
<text text-anchor="middle" x="1052.63" y="-647.3" font-family="Times-Roman" font-size="14.00">schema:propertyID</text>
</g>
<!-- Lhttps://doi.org/10.5066/F7VX0DMQ -->
<g id="node7" class="node">
<title>Lhttps://doi.org/10.5066/F7VX0DMQ</title>
<polygon fill="none" stroke="black" points="1260.13,-591.5 1260.13,-627.5 1521.13,-627.5 1521.13,-591.5 1260.13,-591.5"/>
<text text-anchor="middle" x="1390.63" y="-605.8" font-family="Times-Roman" font-size="14.00">https://doi.org/10.5066/F7VX0DMQ</text>
</g>
<!-- Rhttps://doi.org/10.5066/F7VX0DMQ&#45;&gt;Lhttps://doi.org/10.5066/F7VX0DMQ -->
<g id="edge5" class="edge">
<title>Rhttps://doi.org/10.5066/F7VX0DMQ&#45;&gt;Lhttps://doi.org/10.5066/F7VX0DMQ</title>
<path fill="none" stroke="black" stroke-dasharray="1,5" d="M859.18,-609.5C978.84,-609.5 1137.48,-609.5 1250.01,-609.5"/>
<polygon fill="black" stroke="black" points="1250.07,-613 1260.07,-609.5 1250.07,-606 1250.07,-613"/>
<text text-anchor="middle" x="1052.63" y="-613.3" font-family="Times-Roman" font-size="14.00">schema:url</text>
</g>
<!-- Ldoi:10.5066/F7VX0DMQ -->
<g id="node8" class="node">
<title>Ldoi:10.5066/F7VX0DMQ</title>
<polygon fill="none" stroke="black" points="1298.13,-536.5 1298.13,-572.5 1483.13,-572.5 1483.13,-536.5 1298.13,-536.5"/>
<text text-anchor="middle" x="1390.63" y="-550.8" font-family="Times-Roman" font-size="14.00">doi:10.5066/F7VX0DMQ</text>
</g>
<!-- Rhttps://doi.org/10.5066/F7VX0DMQ&#45;&gt;Ldoi:10.5066/F7VX0DMQ -->
<g id="edge6" class="edge">
<title>Rhttps://doi.org/10.5066/F7VX0DMQ&#45;&gt;Ldoi:10.5066/F7VX0DMQ</title>
<path fill="none" stroke="black" stroke-dasharray="1,5" d="M826.01,-598.83C961.32,-588.19 1166.09,-572.08 1287.99,-562.49"/>
<polygon fill="black" stroke="black" points="1288.38,-565.97 1298.07,-561.7 1287.83,-559 1288.38,-565.97"/>
<text text-anchor="middle" x="1052.63" y="-590.3" font-family="Times-Roman" font-size="14.00">schema:value</text>
</g>
<!-- Rhttps://example.org/id/XYZ -->
<g id="node9" class="node">
<title>Rhttps://example.org/id/XYZ</title>
<ellipse fill="none" stroke="blue" cx="131.29" cy="-347.5" rx="131.08" ry="18"/>
<text text-anchor="middle" x="131.29" y="-343.8" font-family="Times-Roman" font-size="14.00">https://example.org/id/XYZ</text>
</g>
<!-- Rhttps://example.org/id/XYZ&#45;&gt;Rhttp://www.foo.org/orgID -->
<g id="edge9" class="edge">
<title>Rhttps://example.org/id/XYZ&#45;&gt;Rhttp://www.foo.org/orgID</title>
<path fill="none" stroke="black" stroke-dasharray="1,5" d="M148.72,-365.53C175.58,-394.78 230.9,-454.1 280.58,-501.5 346.42,-564.34 359.92,-584.44 434.58,-636.5 502.88,-684.13 589.33,-728.02 641.66,-752.99"/>
<polygon fill="black" stroke="black" points="640.17,-756.16 650.71,-757.28 643.17,-749.84 640.17,-756.16"/>
<text text-anchor="middle" x="348.58" y="-625.3" font-family="Times-Roman" font-size="14.00">schema:contributor</text>
</g>
<!-- Rhttps://example.org/id/XYZ&#45;&gt;Rhttps://doi.org/10.5066/F7VX0DMQ -->
<g id="edge11" class="edge">
<title>Rhttps://example.org/id/XYZ&#45;&gt;Rhttps://doi.org/10.5066/F7VX0DMQ</title>
<path fill="none" stroke="black" stroke-dasharray="1,5" d="M167.57,-364.83C197.56,-379.51 241.81,-401.06 280.58,-419.5 410.44,-481.28 564.44,-552.48 640.68,-587.59"/>
<polygon fill="black" stroke="black" points="639.48,-590.89 650.03,-591.89 642.41,-584.53 639.48,-590.89"/>
<text text-anchor="middle" x="348.58" y="-486.3" font-family="Times-Roman" font-size="14.00">schema:identifier</text>
</g>
<!-- Rschema:CreativeWork -->
<g id="node10" class="node">
<title>Rschema:CreativeWork</title>
<ellipse fill="none" stroke="blue" cx="689.35" cy="-429.5" rx="108.58" ry="18"/>
<text text-anchor="middle" x="689.35" y="-425.8" font-family="Times-Roman" font-size="14.00">schema:CreativeWork</text>
</g>
<!-- Rhttps://example.org/id/XYZ&#45;&gt;Rschema:CreativeWork -->
<g id="edge7" class="edge">
<title>Rhttps://example.org/id/XYZ&#45;&gt;Rschema:CreativeWork</title>
<path fill="none" stroke="black" stroke-dasharray="1,5" d="M197.4,-363.13C223.21,-369.02 253.2,-375.51 280.58,-380.5 382.26,-399.05 499.53,-412.3 582.13,-420.31"/>
<polygon fill="black" stroke="black" points="582,-423.81 592.29,-421.28 582.67,-416.84 582,-423.81"/>
<text text-anchor="middle" x="348.58" y="-404.3" font-family="Times-Roman" font-size="14.00">rdfs:type</text>
</g>
<!-- Rhttps://www.sample&#45;data&#45;repository.org/person/51317 -->
<g id="node11" class="node">
<title>Rhttps://www.sample&#45;data&#45;repository.org/person/51317</title>
<ellipse fill="none" stroke="blue" cx="689.35" cy="-375.5" rx="254.55" ry="18"/>
<text text-anchor="middle" x="689.35" y="-371.8" font-family="Times-Roman" font-size="14.00">https://www.sample&#45;data&#45;repository.org/person/51317</text>
</g>
<!-- Rhttps://example.org/id/XYZ&#45;&gt;Rhttps://www.sample&#45;data&#45;repository.org/person/51317 -->
<g id="edge8" class="edge">
<title>Rhttps://example.org/id/XYZ&#45;&gt;Rhttps://www.sample&#45;data&#45;repository.org/person/51317</title>
<path fill="none" stroke="black" stroke-dasharray="1,5" d="M254.66,-353.66C318.11,-356.86 397.52,-360.86 470.98,-364.55"/>
<polygon fill="black" stroke="black" points="471.14,-368.07 481.3,-365.07 471.49,-361.08 471.14,-368.07"/>
<text text-anchor="middle" x="348.58" y="-365.3" font-family="Times-Roman" font-size="14.00">schema:author</text>
</g>
<!-- LDescription of the creative work to aid in searching -->
<g id="node12" class="node">
<title>LDescription of the creative work to aid in searching</title>
<polygon fill="none" stroke="black" points="503.85,-302.5 503.85,-338.5 874.85,-338.5 874.85,-302.5 503.85,-302.5"/>
<text text-anchor="middle" x="689.35" y="-316.8" font-family="Times-Roman" font-size="14.00">Description of the creative work to aid in searching</text>
</g>
<!-- Rhttps://example.org/id/XYZ&#45;&gt;LDescription of the creative work to aid in searching -->
<g id="edge10" class="edge">
<title>Rhttps://example.org/id/XYZ&#45;&gt;LDescription of the creative work to aid in searching</title>
<path fill="none" stroke="black" stroke-dasharray="1,5" d="M227.9,-335.27C245.39,-333.39 263.52,-331.68 280.58,-330.5 349.87,-325.69 425.93,-323.1 493.4,-321.73"/>
<polygon fill="black" stroke="black" points="493.79,-325.22 503.72,-321.53 493.65,-318.22 493.79,-325.22"/>
<text text-anchor="middle" x="348.58" y="-334.3" font-family="Times-Roman" font-size="14.00">schema:description</text>
</g>
<!-- B_:b0 -->
<g id="node13" class="node">
<title>B_:b0</title>
<ellipse fill="none" stroke="green" cx="689.35" cy="-238.5" rx="18" ry="18"/>
</g>
<!-- Rhttps://example.org/id/XYZ&#45;&gt;B_:b0 -->
<g id="edge12" class="edge">
<title>Rhttps://example.org/id/XYZ&#45;&gt;B_:b0</title>
<path fill="none" stroke="black" stroke-dasharray="1,5" d="M183.7,-330.92C212.06,-322.2 248.02,-311.83 280.58,-304.5 422.41,-272.58 595.31,-249.83 661.14,-241.74"/>
<polygon fill="black" stroke="black" points="661.61,-245.21 671.12,-240.53 660.77,-238.26 661.61,-245.21"/>
<text text-anchor="middle" x="348.58" y="-308.3" font-family="Times-Roman" font-size="14.00">schema:keywords</text>
</g>
<!-- LName or title of the document -->
<g id="node14" class="node">
<title>LName or title of the document</title>
<polygon fill="none" stroke="black" points="576.35,-165.5 576.35,-201.5 802.35,-201.5 802.35,-165.5 576.35,-165.5"/>
<text text-anchor="middle" x="689.35" y="-179.8" font-family="Times-Roman" font-size="14.00">Name or title of the document</text>
</g>
<!-- Rhttps://example.org/id/XYZ&#45;&gt;LName or title of the document -->
<g id="edge13" class="edge">
<title>Rhttps://example.org/id/XYZ&#45;&gt;LName or title of the document</title>
<path fill="none" stroke="black" stroke-dasharray="1,5" d="M157.5,-329.74C186.2,-310.16 235.03,-278.75 280.58,-258.5 371.27,-218.17 482.58,-199.53 565.97,-190.91"/>
<polygon fill="black" stroke="black" points="566.4,-194.39 576,-189.91 565.7,-187.42 566.4,-194.39"/>
<text text-anchor="middle" x="348.58" y="-262.3" font-family="Times-Roman" font-size="14.00">schema:name</text>
</g>
<!-- Lhttps://www.sample&#45;data&#45;repository.org/creativework/report.pdf -->
<g id="node15" class="node">
<title>Lhttps://www.sample&#45;data&#45;repository.org/creativework/report.pdf</title>
<polygon fill="none" stroke="black" points="460.85,-110.5 460.85,-146.5 917.85,-146.5 917.85,-110.5 460.85,-110.5"/>
<text text-anchor="middle" x="689.35" y="-124.8" font-family="Times-Roman" font-size="14.00">https://www.sample&#45;data&#45;repository.org/creativework/report.pdf</text>
</g>
<!-- Rhttps://example.org/id/XYZ&#45;&gt;Lhttps://www.sample&#45;data&#45;repository.org/creativework/report.pdf -->
<g id="edge14" class="edge">
<title>Rhttps://example.org/id/XYZ&#45;&gt;Lhttps://www.sample&#45;data&#45;repository.org/creativework/report.pdf</title>
<path fill="none" stroke="black" stroke-dasharray="1,5" d="M144.98,-329.48C168.19,-297.88 220.66,-232.5 280.58,-197.5 331.64,-167.67 392.05,-149.89 450.51,-139.5"/>
<polygon fill="black" stroke="black" points="451.37,-142.91 460.64,-137.77 450.19,-136.01 451.37,-142.91"/>
<text text-anchor="middle" x="348.58" y="-201.3" font-family="Times-Roman" font-size="14.00">schema:url</text>
</g>
<!-- Rschema:Person -->
<g id="node16" class="node">
<title>Rschema:Person</title>
<ellipse fill="none" stroke="blue" cx="1390.63" cy="-499.5" rx="79.09" ry="18"/>
<text text-anchor="middle" x="1390.63" y="-495.8" font-family="Times-Roman" font-size="14.00">schema:Person</text>
</g>
<!-- Rhttps://www.sample&#45;data&#45;repository.org/person/51317&#45;&gt;Rschema:Person -->
<g id="edge15" class="edge">
<title>Rhttps://www.sample&#45;data&#45;repository.org/person/51317&#45;&gt;Rschema:Person</title>
<path fill="none" stroke="black" stroke-dasharray="1,5" d="M910.82,-384.52C922.55,-389.37 933.76,-395.3 944.13,-402.5 958.83,-412.7 947.76,-427.84 962.13,-438.5 1034.2,-491.95 1072.33,-459.68 1161.13,-472.5 1209.82,-479.53 1264.55,-486.05 1308.23,-490.91"/>
<polygon fill="black" stroke="black" points="1307.91,-494.4 1318.23,-492.02 1308.68,-487.44 1307.91,-494.4"/>
<text text-anchor="middle" x="1052.63" y="-474.3" font-family="Times-Roman" font-size="14.00">rdfs:type</text>
</g>
<!-- LPassow -->
<g id="node17" class="node">
<title>LPassow</title>
<polygon fill="none" stroke="black" points="1357.13,-426.5 1357.13,-462.5 1424.13,-462.5 1424.13,-426.5 1357.13,-426.5"/>
<text text-anchor="middle" x="1390.63" y="-440.8" font-family="Times-Roman" font-size="14.00">Passow</text>
</g>
<!-- Rhttps://www.sample&#45;data&#45;repository.org/person/51317&#45;&gt;LPassow -->
<g id="edge16" class="edge">
<title>Rhttps://www.sample&#45;data&#45;repository.org/person/51317&#45;&gt;LPassow</title>
<path fill="none" stroke="black" stroke-dasharray="1,5" d="M837.75,-390.17C878.08,-394.18 921.79,-398.51 962.13,-402.5 1102.83,-416.4 1269.59,-432.75 1346.65,-440.29"/>
<polygon fill="black" stroke="black" points="1346.62,-443.81 1356.91,-441.3 1347.3,-436.84 1346.62,-443.81"/>
<text text-anchor="middle" x="1052.63" y="-423.3" font-family="Times-Roman" font-size="14.00">schema:familyName</text>
</g>
<!-- LUta -->
<g id="node18" class="node">
<title>LUta</title>
<polygon fill="none" stroke="black" points="1363.63,-371.5 1363.63,-407.5 1417.63,-407.5 1417.63,-371.5 1363.63,-371.5"/>
<text text-anchor="middle" x="1390.63" y="-385.8" font-family="Times-Roman" font-size="14.00">Uta</text>
</g>
<!-- Rhttps://www.sample&#45;data&#45;repository.org/person/51317&#45;&gt;LUta -->
<g id="edge17" class="edge">
<title>Rhttps://www.sample&#45;data&#45;repository.org/person/51317&#45;&gt;LUta</title>
<path fill="none" stroke="black" stroke-dasharray="1,5" d="M934.93,-380.4C1090.28,-383.51 1276.14,-387.23 1353.3,-388.77"/>
<polygon fill="black" stroke="black" points="1353.38,-392.27 1363.45,-388.98 1353.52,-385.28 1353.38,-392.27"/>
<text text-anchor="middle" x="1052.63" y="-387.3" font-family="Times-Roman" font-size="14.00">schema:givenName</text>
</g>
<!-- LDr Uta Passow -->
<g id="node19" class="node">
<title>LDr Uta Passow</title>
<polygon fill="none" stroke="black" points="1332.63,-316.5 1332.63,-352.5 1448.63,-352.5 1448.63,-316.5 1332.63,-316.5"/>
<text text-anchor="middle" x="1390.63" y="-330.8" font-family="Times-Roman" font-size="14.00">Dr Uta Passow</text>
</g>
<!-- Rhttps://www.sample&#45;data&#45;repository.org/person/51317&#45;&gt;LDr Uta Passow -->
<g id="edge18" class="edge">
<title>Rhttps://www.sample&#45;data&#45;repository.org/person/51317&#45;&gt;LDr Uta Passow</title>
<path fill="none" stroke="black" stroke-dasharray="1,5" d="M886.07,-364.02C1032.02,-355.47 1222.67,-344.29 1322.31,-338.45"/>
<polygon fill="black" stroke="black" points="1322.76,-341.93 1332.54,-337.85 1322.35,-334.94 1322.76,-341.93"/>
<text text-anchor="middle" x="1052.63" y="-362.3" font-family="Times-Roman" font-size="14.00">schema:name</text>
</g>
<!-- Lhttps://www.sample&#45;data&#45;repository.org/person/51317 -->
<g id="node20" class="node">
<title>Lhttps://www.sample&#45;data&#45;repository.org/person/51317</title>
<polygon fill="none" stroke="black" points="1194.63,-261.5 1194.63,-297.5 1586.63,-297.5 1586.63,-261.5 1194.63,-261.5"/>
<text text-anchor="middle" x="1390.63" y="-275.8" font-family="Times-Roman" font-size="14.00">https://www.sample&#45;data&#45;repository.org/person/51317</text>
</g>
<!-- Rhttps://www.sample&#45;data&#45;repository.org/person/51317&#45;&gt;Lhttps://www.sample&#45;data&#45;repository.org/person/51317 -->
<g id="edge19" class="edge">
<title>Rhttps://www.sample&#45;data&#45;repository.org/person/51317&#45;&gt;Lhttps://www.sample&#45;data&#45;repository.org/person/51317</title>
<path fill="none" stroke="black" stroke-dasharray="1,5" d="M898.6,-365.19C914.38,-360.85 929.74,-355.38 944.13,-348.5 954.34,-343.62 951.95,-335.44 962.13,-330.5 1030.12,-297.48 1111.1,-282.59 1184.2,-276.66"/>
<polygon fill="black" stroke="black" points="1184.75,-280.13 1194.46,-275.88 1184.22,-273.15 1184.75,-280.13"/>
<text text-anchor="middle" x="1052.63" y="-334.3" font-family="Times-Roman" font-size="14.00">schema:url</text>
</g>
<!-- Rschema:DefinedTerm -->
<g id="node21" class="node">
<title>Rschema:DefinedTerm</title>
<ellipse fill="none" stroke="blue" cx="1390.63" cy="-224.5" rx="105.08" ry="18"/>
<text text-anchor="middle" x="1390.63" y="-220.8" font-family="Times-Roman" font-size="14.00">schema:DefinedTerm</text>
</g>
<!-- B_:b0&#45;&gt;Rschema:DefinedTerm -->
<g id="edge20" class="edge">
<title>B_:b0&#45;&gt;Rschema:DefinedTerm</title>
<path fill="none" stroke="black" stroke-dasharray="1,5" d="M707.64,-238.15C784.92,-236.61 1102.51,-230.25 1275.7,-226.78"/>
<polygon fill="black" stroke="black" points="1275.95,-230.28 1285.87,-226.58 1275.81,-223.28 1275.95,-230.28"/>
<text text-anchor="middle" x="1052.63" y="-236.3" font-family="Times-Roman" font-size="14.00">rdfs:type</text>
</g>
<!-- B_:b1 -->
<g id="node22" class="node">
<title>B_:b1</title>
<ellipse fill="none" stroke="green" cx="1390.63" cy="-170.5" rx="18" ry="18"/>
</g>
<!-- B_:b0&#45;&gt;B_:b1 -->
<g id="edge21" class="edge">
<title>B_:b0&#45;&gt;B_:b1</title>
<path fill="none" stroke="black" stroke-dasharray="1,5" d="M707.52,-236.68C750.43,-232.13 865.83,-219.97 962.13,-210.5 1113.22,-195.65 1294.48,-179.11 1362.28,-172.97"/>
<polygon fill="black" stroke="black" points="1362.88,-176.43 1372.52,-172.04 1362.25,-169.46 1362.88,-176.43"/>
<text text-anchor="middle" x="1052.63" y="-214.3" font-family="Times-Roman" font-size="14.00">schema:inDefinedTermSet</text>
</g>
<!-- LA code that identifies this DefinedTerm within a DefinedTermSet -->
<g id="node23" class="node">
<title>LA code that identifies this DefinedTerm within a DefinedTermSet</title>
<polygon fill="none" stroke="black" points="1161.13,-97.5 1161.13,-133.5 1620.13,-133.5 1620.13,-97.5 1161.13,-97.5"/>
<text text-anchor="middle" x="1390.63" y="-111.8" font-family="Times-Roman" font-size="14.00">A code that identifies this DefinedTerm within a DefinedTermSet</text>
</g>
<!-- B_:b0&#45;&gt;LA code that identifies this DefinedTerm within a DefinedTermSet -->
<g id="edge22" class="edge">
<title>B_:b0&#45;&gt;LA code that identifies this DefinedTerm within a DefinedTermSet</title>
<path fill="none" stroke="black" stroke-dasharray="1,5" d="M707.32,-241.69C751,-248.92 869.1,-262.15 944.13,-210.5 958.54,-200.58 947.97,-185.77 962.13,-175.5 1034.64,-122.9 1072.44,-156.06 1161.13,-143.5 1182.06,-140.54 1204.1,-137.6 1225.9,-134.81"/>
<polygon fill="black" stroke="black" points="1226.41,-138.27 1235.89,-133.54 1225.53,-131.33 1226.41,-138.27"/>
<text text-anchor="middle" x="1052.63" y="-179.3" font-family="Times-Roman" font-size="14.00">schema:termCode</text>
</g>
<!-- Rschema:DefinedTermSet -->
<g id="node24" class="node">
<title>Rschema:DefinedTermSet</title>
<ellipse fill="none" stroke="blue" cx="1912.37" cy="-253.5" rx="120.48" ry="18"/>
<text text-anchor="middle" x="1912.37" y="-249.8" font-family="Times-Roman" font-size="14.00">schema:DefinedTermSet</text>
</g>
<!-- B_:b1&#45;&gt;Rschema:DefinedTermSet -->
<g id="edge23" class="edge">
<title>B_:b1&#45;&gt;Rschema:DefinedTermSet</title>
<path fill="none" stroke="black" stroke-dasharray="1,5" d="M1408.67,-169.66C1447.61,-168.33 1545.5,-168.42 1620.13,-197.5 1629.33,-201.08 1629.01,-206.74 1638.13,-210.5 1685.18,-229.88 1740.09,-240.59 1788.3,-246.48"/>
<polygon fill="black" stroke="black" points="1788.14,-249.98 1798.48,-247.66 1788.95,-243.03 1788.14,-249.98"/>
<text text-anchor="middle" x="1706.13" y="-247.3" font-family="Times-Roman" font-size="14.00">rdfs:type</text>
</g>
<!-- LDescription of the set -->
<g id="node25" class="node">
<title>LDescription of the set</title>
<polygon fill="none" stroke="black" points="1829.37,-180.5 1829.37,-216.5 1995.37,-216.5 1995.37,-180.5 1829.37,-180.5"/>
<text text-anchor="middle" x="1912.37" y="-194.8" font-family="Times-Roman" font-size="14.00">Description of the set</text>
</g>
<!-- B_:b1&#45;&gt;LDescription of the set -->
<g id="edge24" class="edge">
<title>B_:b1&#45;&gt;LDescription of the set</title>
<path fill="none" stroke="black" stroke-dasharray="1,5" d="M1408.63,-171.42C1471.23,-174.79 1691.87,-186.67 1819.08,-193.53"/>
<polygon fill="black" stroke="black" points="1819.03,-197.03 1829.2,-194.07 1819.41,-190.04 1819.03,-197.03"/>
<text text-anchor="middle" x="1706.13" y="-195.3" font-family="Times-Roman" font-size="14.00">schema:description</text>
</g>
<!-- LName of the set -->
<g id="node26" class="node">
<title>LName of the set</title>
<polygon fill="none" stroke="black" points="1848.37,-125.5 1848.37,-161.5 1976.37,-161.5 1976.37,-125.5 1848.37,-125.5"/>
<text text-anchor="middle" x="1912.37" y="-139.8" font-family="Times-Roman" font-size="14.00">Name of the set</text>
</g>
<!-- B_:b1&#45;&gt;LName of the set -->
<g id="edge25" class="edge">
<title>B_:b1&#45;&gt;LName of the set</title>
<path fill="none" stroke="black" stroke-dasharray="1,5" d="M1408.63,-169.62C1474.48,-166.2 1715.24,-153.69 1838.13,-147.3"/>
<polygon fill="black" stroke="black" points="1838.41,-150.8 1848.21,-146.78 1838.04,-143.8 1838.41,-150.8"/>
<text text-anchor="middle" x="1706.13" y="-161.3" font-family="Times-Roman" font-size="14.00">schema:name</text>
</g>
<!-- Lurl for the set -->
<g id="node27" class="node">
<title>Lurl for the set</title>
<polygon fill="none" stroke="black" points="1856.37,-70.5 1856.37,-106.5 1968.37,-106.5 1968.37,-70.5 1856.37,-70.5"/>
<text text-anchor="middle" x="1912.37" y="-84.8" font-family="Times-Roman" font-size="14.00">url for the set</text>
</g>
<!-- B_:b1&#45;&gt;Lurl for the set -->
<g id="edge26" class="edge">
<title>B_:b1&#45;&gt;Lurl for the set</title>
<path fill="none" stroke="black" stroke-dasharray="1,5" d="M1408.74,-170.62C1447.41,-170.41 1544.12,-167.23 1620.13,-142.5 1628.83,-139.67 1629.48,-135.49 1638.13,-132.5 1706.84,-108.71 1789.8,-97.67 1846.15,-92.62"/>
<polygon fill="black" stroke="black" points="1846.69,-96.09 1856.35,-91.74 1846.09,-89.11 1846.69,-96.09"/>
<text text-anchor="middle" x="1706.13" y="-136.3" font-family="Times-Roman" font-size="14.00">schema:url</text>
</g>
</g>
</svg>
