<?xml version="1.0" encoding="UTF-8" standalone="no"?>
<!DOCTYPE svg PUBLIC "-//W3C//DTD SVG 1.1//EN"
 "http://www.w3.org/Graphics/SVG/1.1/DTD/svg11.dtd">
<!-- Generated by graphviz version 2.43.0 (0)
 -->
<!-- Title: %3 Pages: 1 -->
<svg width="1632pt" height="499pt"
 viewBox="0.00 0.00 1631.96 498.50" xmlns="http://www.w3.org/2000/svg" xmlns:xlink="http://www.w3.org/1999/xlink">
<g id="graph0" class="graph" transform="scale(1 1) rotate(0) translate(4 494.5)">
<title>%3</title>
<polygon fill="white" stroke="transparent" points="-4,4 -4,-494.5 1627.96,-494.5 1627.96,4 -4,4"/>
<text text-anchor="middle" x="811.98" y="-22.8" font-family="Times,serif" font-size="14.00">Model:</text>
<text text-anchor="middle" x="811.98" y="-7.8" font-family="Times,serif" font-size="14.00">https://iode.org/</text>
<!-- Rhttps://doi.org/10.5066/F7VX0DMQ -->
<g id="node1" class="node">
<title>Rhttps://doi.org/10.5066/F7VX0DMQ</title>
<ellipse fill="none" stroke="blue" cx="542.88" cy="-362.5" rx="141.88" ry="18"/>
<text text-anchor="middle" x="542.88" y="-358.8" font-family="Times,serif" font-size="14.00">https://doi.org/10.5066/F7VX0DMQ</text>
</g>
<!-- Rschema:PropertyValue -->
<g id="node2" class="node">
<title>Rschema:PropertyValue</title>
<ellipse fill="none" stroke="blue" cx="1096.38" cy="-472.5" rx="90.18" ry="18"/>
<text text-anchor="middle" x="1096.38" y="-468.8" font-family="Times,serif" font-size="14.00">schema:PropertyValue</text>
</g>
<!-- Rhttps://doi.org/10.5066/F7VX0DMQ&#45;&gt;Rschema:PropertyValue -->
<g id="edge1" class="edge">
<title>Rhttps://doi.org/10.5066/F7VX0DMQ&#45;&gt;Rschema:PropertyValue</title>
<path fill="none" stroke="black" stroke-dasharray="1,5" d="M601.2,-379.03C640.91,-390.16 695.12,-404.72 743.38,-415.5 816.12,-431.75 834.82,-433.51 908.38,-445.5 941.83,-450.95 978.74,-456.4 1010.87,-460.96"/>
<polygon fill="black" stroke="black" points="1010.73,-464.48 1021.12,-462.41 1011.71,-457.55 1010.73,-464.48"/>
<text text-anchor="middle" x="816.88" y="-445.3" font-family="Times,serif" font-size="14.00">rdfs:type</text>
</g>
<!-- Lhttps://registry.identifiers.org/registry/doi -->
<g id="node3" class="node">
<title>Lhttps://registry.identifiers.org/registry/doi</title>
<polygon fill="none" stroke="black" points="975.88,-399.5 975.88,-435.5 1216.88,-435.5 1216.88,-399.5 975.88,-399.5"/>
<text text-anchor="middle" x="1096.38" y="-413.8" font-family="Times,serif" font-size="14.00">https://registry.identifiers.org/registry/doi</text>
</g>
<!-- Rhttps://doi.org/10.5066/F7VX0DMQ&#45;&gt;Lhttps://registry.identifiers.org/registry/doi -->
<g id="edge2" class="edge">
<title>Rhttps://doi.org/10.5066/F7VX0DMQ&#45;&gt;Lhttps://registry.identifiers.org/registry/doi</title>
<path fill="none" stroke="black" stroke-dasharray="1,5" d="M654.82,-373.56C744.5,-382.51 870.92,-395.11 965.35,-404.53"/>
<polygon fill="black" stroke="black" points="965.24,-408.04 975.54,-405.55 965.93,-401.07 965.24,-408.04"/>
<text text-anchor="middle" x="816.88" y="-400.3" font-family="Times,serif" font-size="14.00">schema:propertyID</text>
</g>
<!-- Lhttps://doi.org/10.5066/F7VX0DMQ -->
<g id="node4" class="node">
<title>Lhttps://doi.org/10.5066/F7VX0DMQ</title>
<polygon fill="none" stroke="black" points="987.38,-344.5 987.38,-380.5 1205.38,-380.5 1205.38,-344.5 987.38,-344.5"/>
<text text-anchor="middle" x="1096.38" y="-358.8" font-family="Times,serif" font-size="14.00">https://doi.org/10.5066/F7VX0DMQ</text>
</g>
<!-- Rhttps://doi.org/10.5066/F7VX0DMQ&#45;&gt;Lhttps://doi.org/10.5066/F7VX0DMQ -->
<g id="edge3" class="edge">
<title>Rhttps://doi.org/10.5066/F7VX0DMQ&#45;&gt;Lhttps://doi.org/10.5066/F7VX0DMQ</title>
<path fill="none" stroke="black" stroke-dasharray="1,5" d="M684.83,-362.5C775.24,-362.5 891.28,-362.5 976.92,-362.5"/>
<polygon fill="black" stroke="black" points="976.95,-366 986.95,-362.5 976.95,-359 976.95,-366"/>
<text text-anchor="middle" x="816.88" y="-366.3" font-family="Times,serif" font-size="14.00">schema:url</text>
</g>
<!-- Ldoi:10.5066/F7VX0DMQ -->
<g id="node5" class="node">
<title>Ldoi:10.5066/F7VX0DMQ</title>
<polygon fill="none" stroke="black" points="1017.38,-289.5 1017.38,-325.5 1175.38,-325.5 1175.38,-289.5 1017.38,-289.5"/>
<text text-anchor="middle" x="1096.38" y="-303.8" font-family="Times,serif" font-size="14.00">doi:10.5066/F7VX0DMQ</text>
</g>
<!-- Rhttps://doi.org/10.5066/F7VX0DMQ&#45;&gt;Ldoi:10.5066/F7VX0DMQ -->
<g id="edge4" class="edge">
<title>Rhttps://doi.org/10.5066/F7VX0DMQ&#45;&gt;Ldoi:10.5066/F7VX0DMQ</title>
<path fill="none" stroke="black" stroke-dasharray="1,5" d="M654.82,-351.44C758.46,-341.1 911.16,-325.87 1006.86,-316.33"/>
<polygon fill="black" stroke="black" points="1007.49,-319.78 1017.09,-315.31 1006.79,-312.82 1007.49,-319.78"/>
<text text-anchor="middle" x="816.88" y="-345.3" font-family="Times,serif" font-size="14.00">schema:value</text>
</g>
<!-- Rhttps://example.org/id/XYZ -->
<g id="node6" class="node">
<title>Rhttps://example.org/id/XYZ</title>
<ellipse fill="none" stroke="blue" cx="109.19" cy="-233.5" rx="109.38" ry="18"/>
<text text-anchor="middle" x="109.19" y="-229.8" font-family="Times,serif" font-size="14.00">https://example.org/id/XYZ</text>
</g>
<!-- Rhttps://example.org/id/XYZ&#45;&gt;Rhttps://doi.org/10.5066/F7VX0DMQ -->
<g id="edge7" class="edge">
<title>Rhttps://example.org/id/XYZ&#45;&gt;Rhttps://doi.org/10.5066/F7VX0DMQ</title>
<path fill="none" stroke="black" stroke-dasharray="1,5" d="M140.05,-250.89C165.16,-265.02 202.32,-284.78 236.38,-298.5 289.73,-319.98 304.24,-323.01 360.38,-335.5 382.97,-340.52 407.34,-344.87 430.68,-348.52"/>
<polygon fill="black" stroke="black" points="430.19,-351.98 440.61,-350.04 431.25,-345.06 430.19,-351.98"/>
<text text-anchor="middle" x="289.38" y="-334.3" font-family="Times,serif" font-size="14.00">schema:identifier</text>
</g>
<!-- Rschema:CreativeWork -->
<g id="node7" class="node">
<title>Rschema:CreativeWork</title>
<ellipse fill="none" stroke="blue" cx="542.88" cy="-308.5" rx="89.88" ry="18"/>
<text text-anchor="middle" x="542.88" y="-304.8" font-family="Times,serif" font-size="14.00">schema:CreativeWork</text>
</g>
<!-- Rhttps://example.org/id/XYZ&#45;&gt;Rschema:CreativeWork -->
<g id="edge5" class="edge">
<title>Rhttps://example.org/id/XYZ&#45;&gt;Rschema:CreativeWork</title>
<path fill="none" stroke="black" stroke-dasharray="1,5" d="M170.97,-248.42C191.66,-253.25 214.96,-258.4 236.38,-262.5 310.49,-276.67 395.39,-289.16 456.86,-297.53"/>
<polygon fill="black" stroke="black" points="456.52,-301.02 466.9,-298.89 457.46,-294.08 456.52,-301.02"/>
<text text-anchor="middle" x="289.38" y="-283.3" font-family="Times,serif" font-size="14.00">rdfs:type</text>
</g>
<!-- LDescription of the creative work to aid in searching -->
<g id="node8" class="node">
<title>LDescription of the creative work to aid in searching</title>
<polygon fill="none" stroke="black" points="394.38,-235.5 394.38,-271.5 691.38,-271.5 691.38,-235.5 394.38,-235.5"/>
<text text-anchor="middle" x="542.88" y="-249.8" font-family="Times,serif" font-size="14.00">Description of the creative work to aid in searching</text>
</g>
<!-- Rhttps://example.org/id/XYZ&#45;&gt;LDescription of the creative work to aid in searching -->
<g id="edge6" class="edge">
<title>Rhttps://example.org/id/XYZ&#45;&gt;LDescription of the creative work to aid in searching</title>
<path fill="none" stroke="black" stroke-dasharray="1,5" d="M214.42,-238.33C265.26,-240.68 327.5,-243.57 384.01,-246.19"/>
<polygon fill="black" stroke="black" points="383.97,-249.69 394.12,-246.65 384.3,-242.7 383.97,-249.69"/>
<text text-anchor="middle" x="289.38" y="-247.3" font-family="Times,serif" font-size="14.00">schema:description</text>
</g>
<!-- B_:b0 -->
<g id="node9" class="node">
<title>B_:b0</title>
<ellipse fill="none" stroke="green" cx="542.88" cy="-198.5" rx="18" ry="18"/>
</g>
<!-- Rhttps://example.org/id/XYZ&#45;&gt;B_:b0 -->
<g id="edge8" class="edge">
<title>Rhttps://example.org/id/XYZ&#45;&gt;B_:b0</title>
<path fill="none" stroke="black" stroke-dasharray="1,5" d="M199.08,-223.17C211.59,-221.85 224.31,-220.58 236.38,-219.5 338.92,-210.29 461.15,-203 514.6,-199.99"/>
<polygon fill="black" stroke="black" points="514.85,-203.48 524.63,-199.43 514.46,-196.49 514.85,-203.48"/>
<text text-anchor="middle" x="289.38" y="-223.3" font-family="Times,serif" font-size="14.00">schema:keywords</text>
</g>
<!-- LName or title of the document -->
<g id="node10" class="node">
<title>LName or title of the document</title>
<polygon fill="none" stroke="black" points="451.88,-125.5 451.88,-161.5 633.88,-161.5 633.88,-125.5 451.88,-125.5"/>
<text text-anchor="middle" x="542.88" y="-139.8" font-family="Times,serif" font-size="14.00">Name or title of the document</text>
</g>
<!-- Rhttps://example.org/id/XYZ&#45;&gt;LName or title of the document -->
<g id="edge9" class="edge">
<title>Rhttps://example.org/id/XYZ&#45;&gt;LName or title of the document</title>
<path fill="none" stroke="black" stroke-dasharray="1,5" d="M153.77,-217.06C177.85,-208.47 208.46,-198.35 236.38,-191.5 304.03,-174.9 381.58,-162.8 441.62,-154.9"/>
<polygon fill="black" stroke="black" points="442.39,-158.33 451.86,-153.57 441.49,-151.38 442.39,-158.33"/>
<text text-anchor="middle" x="289.38" y="-195.3" font-family="Times,serif" font-size="14.00">schema:name</text>
</g>
<!-- Lhttps://www.sample&#45;data&#45;repository.org/creativework/report.pdf -->
<g id="node11" class="node">
<title>Lhttps://www.sample&#45;data&#45;repository.org/creativework/report.pdf</title>
<polygon fill="none" stroke="black" points="360.38,-70.5 360.38,-106.5 725.38,-106.5 725.38,-70.5 360.38,-70.5"/>
<text text-anchor="middle" x="542.88" y="-84.8" font-family="Times,serif" font-size="14.00">https://www.sample&#45;data&#45;repository.org/creativework/report.pdf</text>
</g>
<!-- Rhttps://example.org/id/XYZ&#45;&gt;Lhttps://www.sample&#45;data&#45;repository.org/creativework/report.pdf -->
<g id="edge10" class="edge">
<title>Rhttps://example.org/id/XYZ&#45;&gt;Lhttps://www.sample&#45;data&#45;repository.org/creativework/report.pdf</title>
<path fill="none" stroke="black" stroke-dasharray="1,5" d="M133.23,-215.87C157.7,-197.86 198.05,-170.09 236.38,-152.5 280.98,-132.03 332.25,-118.03 379.9,-108.49"/>
<polygon fill="black" stroke="black" points="380.86,-111.87 390.01,-106.52 379.52,-105 380.86,-111.87"/>
<text text-anchor="middle" x="289.38" y="-156.3" font-family="Times,serif" font-size="14.00">schema:url</text>
</g>
<!-- Rschema:DefinedTerm -->
<g id="node12" class="node">
<title>Rschema:DefinedTerm</title>
<ellipse fill="none" stroke="blue" cx="1096.38" cy="-252.5" rx="87.99" ry="18"/>
<text text-anchor="middle" x="1096.38" y="-248.8" font-family="Times,serif" font-size="14.00">schema:DefinedTerm</text>
</g>
<!-- B_:b0&#45;&gt;Rschema:DefinedTerm -->
<g id="edge11" class="edge">
<title>B_:b0&#45;&gt;Rschema:DefinedTerm</title>
<path fill="none" stroke="black" stroke-dasharray="1,5" d="M560.99,-200.18C627.62,-206.7 872.62,-230.69 1006.53,-243.8"/>
<polygon fill="black" stroke="black" points="1006.47,-247.31 1016.77,-244.8 1007.16,-240.34 1006.47,-247.31"/>
<text text-anchor="middle" x="816.88" y="-235.3" font-family="Times,serif" font-size="14.00">rdfs:type</text>
</g>
<!-- B_:b1 -->
<g id="node13" class="node">
<title>B_:b1</title>
<ellipse fill="none" stroke="green" cx="1096.38" cy="-198.5" rx="18" ry="18"/>
</g>
<!-- B_:b0&#45;&gt;B_:b1 -->
<g id="edge12" class="edge">
<title>B_:b0&#45;&gt;B_:b1</title>
<path fill="none" stroke="black" stroke-dasharray="1,5" d="M560.99,-198.5C640.03,-198.5 970.13,-198.5 1067.95,-198.5"/>
<polygon fill="black" stroke="black" points="1068.2,-202 1078.2,-198.5 1068.2,-195 1068.2,-202"/>
<text text-anchor="middle" x="816.88" y="-202.3" font-family="Times,serif" font-size="14.00">schema:inDefinedTermSet</text>
</g>
<!-- LA code that identifies this DefinedTerm within a DefinedTermSet -->
<g id="node14" class="node">
<title>LA code that identifies this DefinedTerm within a DefinedTermSet</title>
<polygon fill="none" stroke="black" points="908.38,-125.5 908.38,-161.5 1284.38,-161.5 1284.38,-125.5 908.38,-125.5"/>
<text text-anchor="middle" x="1096.38" y="-139.8" font-family="Times,serif" font-size="14.00">A code that identifies this DefinedTerm within a DefinedTermSet</text>
</g>
<!-- B_:b0&#45;&gt;LA code that identifies this DefinedTerm within a DefinedTermSet -->
<g id="edge13" class="edge">
<title>B_:b0&#45;&gt;LA code that identifies this DefinedTerm within a DefinedTermSet</title>
<path fill="none" stroke="black" stroke-dasharray="1,5" d="M560.99,-196.79C612.86,-191.62 772.87,-175.66 904.39,-162.55"/>
<polygon fill="black" stroke="black" points="905,-166 914.61,-161.53 904.31,-159.04 905,-166"/>
<text text-anchor="middle" x="816.88" y="-181.3" font-family="Times,serif" font-size="14.00">schema:termCode</text>
</g>
<!-- Rschema:DefinedTermSet -->
<g id="node15" class="node">
<title>Rschema:DefinedTermSet</title>
<ellipse fill="none" stroke="blue" cx="1525.17" cy="-281.5" rx="98.58" ry="18"/>
<text text-anchor="middle" x="1525.17" y="-277.8" font-family="Times,serif" font-size="14.00">schema:DefinedTermSet</text>
</g>
<!-- B_:b1&#45;&gt;Rschema:DefinedTermSet -->
<g id="edge14" class="edge">
<title>B_:b1&#45;&gt;Rschema:DefinedTermSet</title>
<path fill="none" stroke="black" stroke-dasharray="1,5" d="M1114.44,-198.69C1147.99,-199.54 1224.52,-203.92 1284.38,-225.5 1293.2,-228.68 1293.65,-233.07 1302.38,-236.5 1343.51,-252.66 1391.31,-263.31 1431.99,-270.17"/>
<polygon fill="black" stroke="black" points="1431.46,-273.63 1441.89,-271.79 1432.59,-266.72 1431.46,-273.63"/>
<text text-anchor="middle" x="1355.38" y="-268.3" font-family="Times,serif" font-size="14.00">rdfs:type</text>
</g>
<!-- LDescription of the set -->
<g id="node16" class="node">
<title>LDescription of the set</title>
<polygon fill="none" stroke="black" points="1458.17,-208.5 1458.17,-244.5 1592.17,-244.5 1592.17,-208.5 1458.17,-208.5"/>
<text text-anchor="middle" x="1525.17" y="-222.8" font-family="Times,serif" font-size="14.00">Description of the set</text>
</g>
<!-- B_:b1&#45;&gt;LDescription of the set -->
<g id="edge15" class="edge">
<title>B_:b1&#45;&gt;LDescription of the set</title>
<path fill="none" stroke="black" stroke-dasharray="1,5" d="M1114.37,-199.61C1169.44,-203.23 1345.31,-214.77 1447.88,-221.49"/>
<polygon fill="black" stroke="black" points="1447.67,-224.99 1457.88,-222.15 1448.13,-218 1447.67,-224.99"/>
<text text-anchor="middle" x="1355.38" y="-221.3" font-family="Times,serif" font-size="14.00">schema:description</text>
</g>
<!-- LName of the set -->
<g id="node17" class="node">
<title>LName of the set</title>
<polygon fill="none" stroke="black" points="1473.17,-153.5 1473.17,-189.5 1577.17,-189.5 1577.17,-153.5 1473.17,-153.5"/>
<text text-anchor="middle" x="1525.17" y="-167.8" font-family="Times,serif" font-size="14.00">Name of the set</text>
</g>
<!-- B_:b1&#45;&gt;LName of the set -->
<g id="edge16" class="edge">
<title>B_:b1&#45;&gt;LName of the set</title>
<path fill="none" stroke="black" stroke-dasharray="1,5" d="M1114.37,-197.42C1172.17,-193.77 1363.07,-181.69 1462.59,-175.4"/>
<polygon fill="black" stroke="black" points="1463.05,-178.87 1472.81,-174.75 1462.6,-171.89 1463.05,-178.87"/>
<text text-anchor="middle" x="1355.38" y="-188.3" font-family="Times,serif" font-size="14.00">schema:name</text>
</g>
<!-- Lurl for the set -->
<g id="node18" class="node">
<title>Lurl for the set</title>
<polygon fill="none" stroke="black" points="1480.17,-98.5 1480.17,-134.5 1570.17,-134.5 1570.17,-98.5 1480.17,-98.5"/>
<text text-anchor="middle" x="1525.17" y="-112.8" font-family="Times,serif" font-size="14.00">url for the set</text>
</g>
<!-- B_:b1&#45;&gt;Lurl for the set -->
<g id="edge17" class="edge">
<title>B_:b1&#45;&gt;Lurl for the set</title>
<path fill="none" stroke="black" stroke-dasharray="1,5" d="M1114.44,-198.2C1148,-197.12 1224.53,-192.25 1284.38,-170.5 1293.19,-167.3 1293.64,-162.89 1302.38,-159.5 1357.29,-138.2 1424.08,-127.1 1469.93,-121.55"/>
<polygon fill="black" stroke="black" points="1470.43,-125.02 1479.96,-120.39 1469.62,-118.06 1470.43,-125.02"/>
<text text-anchor="middle" x="1355.38" y="-163.3" font-family="Times,serif" font-size="14.00">schema:url</text>
</g>
</g>
</svg>
