<?xml version="1.0" encoding="UTF-8" standalone="no"?>
<!DOCTYPE svg PUBLIC "-//W3C//DTD SVG 1.1//EN"
 "http://www.w3.org/Graphics/SVG/1.1/DTD/svg11.dtd">
<!-- Generated by graphviz version 2.44.0 (0)
 -->
<!-- Pages: 1 -->
<svg width="1431pt" height="614pt"
 viewBox="0.00 0.00 1430.95 614.00" xmlns="http://www.w3.org/2000/svg" xmlns:xlink="http://www.w3.org/1999/xlink">
<g id="graph0" class="graph" transform="scale(1 1) rotate(0) translate(4 610)">
<polygon fill="white" stroke="transparent" points="-4,4 -4,-610 1426.95,-610 1426.95,4 -4,4"/>
<text text-anchor="middle" x="711.47" y="-22.8" font-family="Times-Roman" font-size="14.00">Model:</text>
<text text-anchor="middle" x="711.47" y="-7.8" font-family="Times-Roman" font-size="14.00">https://iode.org/</text>
<!-- Rhttps://example.org/id/XYZ -->
<g id="node1" class="node">
<title>Rhttps://example.org/id/XYZ</title>
<ellipse fill="none" stroke="blue" cx="131.29" cy="-319" rx="131.08" ry="18"/>
<text text-anchor="middle" x="131.29" y="-315.3" font-family="Times-Roman" font-size="14.00">https://example.org/id/XYZ</text>
</g>
<!-- Rschema:Dataset -->
<g id="node2" class="node">
<title>Rschema:Dataset</title>
<ellipse fill="none" stroke="blue" cx="611.76" cy="-477" rx="83.39" ry="18"/>
<text text-anchor="middle" x="611.76" y="-473.3" font-family="Times-Roman" font-size="14.00">schema:Dataset</text>
</g>
<!-- Rhttps://example.org/id/XYZ&#45;&gt;Rschema:Dataset -->
<g id="edge1" class="edge">
<title>Rhttps://example.org/id/XYZ&#45;&gt;Rschema:Dataset</title>
<path fill="none" stroke="black" stroke-dasharray="1,5" d="M155.63,-337.01C183.78,-357.92 233.25,-392.06 280.58,-412 358.93,-445.02 454.9,-461.5 523.14,-469.58"/>
<polygon fill="black" stroke="black" points="523.09,-473.1 533.42,-470.76 523.89,-466.14 523.09,-473.1"/>
<text text-anchor="middle" x="350.08" y="-454.8" font-family="Times-Roman" font-size="14.00">rdfs:type</text>
</g>
<!-- LDescription of the dataset to aid in searching -->
<g id="node3" class="node">
<title>LDescription of the dataset to aid in searching</title>
<polygon fill="none" stroke="black" points="447.26,-404 447.26,-440 776.26,-440 776.26,-404 447.26,-404"/>
<text text-anchor="middle" x="611.76" y="-418.3" font-family="Times-Roman" font-size="14.00">Description of the dataset to aid in searching</text>
</g>
<!-- Rhttps://example.org/id/XYZ&#45;&gt;LDescription of the dataset to aid in searching -->
<g id="edge2" class="edge">
<title>Rhttps://example.org/id/XYZ&#45;&gt;LDescription of the dataset to aid in searching</title>
<path fill="none" stroke="black" stroke-dasharray="1,5" d="M179.92,-335.84C208.78,-345.61 246.49,-357.6 280.58,-366 341.15,-380.93 408.94,-393.18 467.27,-402.38"/>
<polygon fill="black" stroke="black" points="466.87,-405.86 477.3,-403.95 467.95,-398.94 466.87,-405.86"/>
<text text-anchor="middle" x="350.08" y="-396.8" font-family="Times-Roman" font-size="14.00">schema:description</text>
</g>
<!-- B_:b0 -->
<g id="node4" class="node">
<title>B_:b0</title>
<ellipse fill="none" stroke="green" cx="611.76" cy="-272" rx="18" ry="18"/>
</g>
<!-- Rhttps://example.org/id/XYZ&#45;&gt;B_:b0 -->
<g id="edge3" class="edge">
<title>Rhttps://example.org/id/XYZ&#45;&gt;B_:b0</title>
<path fill="none" stroke="black" stroke-dasharray="1,5" d="M238.48,-308.57C349.87,-297.63 517.69,-281.14 583.19,-274.71"/>
<polygon fill="black" stroke="black" points="583.89,-278.16 593.5,-273.7 583.21,-271.19 583.89,-278.16"/>
<text text-anchor="middle" x="350.08" y="-306.8" font-family="Times-Roman" font-size="14.00">schema:distribution</text>
</g>
<!-- Rhttps://link.to/PID_like_re3_or_others -->
<g id="node5" class="node">
<title>Rhttps://link.to/PID_like_re3_or_others</title>
<ellipse fill="none" stroke="blue" cx="611.76" cy="-171" rx="174.37" ry="18"/>
<text text-anchor="middle" x="611.76" y="-167.3" font-family="Times-Roman" font-size="14.00">https://link.to/PID_like_re3_or_others</text>
</g>
<!-- Rhttps://example.org/id/XYZ&#45;&gt;Rhttps://link.to/PID_like_re3_or_others -->
<g id="edge4" class="edge">
<title>Rhttps://example.org/id/XYZ&#45;&gt;Rhttps://link.to/PID_like_re3_or_others</title>
<path fill="none" stroke="black" stroke-dasharray="1,5" d="M184.06,-302.45C212.52,-293.39 248.47,-282 280.58,-272 371.9,-243.56 477.65,-211.34 544.37,-191.09"/>
<polygon fill="black" stroke="black" points="545.78,-194.32 554.33,-188.07 543.74,-187.63 545.78,-194.32"/>
<text text-anchor="middle" x="350.08" y="-275.8" font-family="Times-Roman" font-size="14.00">schema:maintainer</text>
</g>
<!-- LName or title of the document -->
<g id="node6" class="node">
<title>LName or title of the document</title>
<polygon fill="none" stroke="black" points="498.76,-98 498.76,-134 724.76,-134 724.76,-98 498.76,-98"/>
<text text-anchor="middle" x="611.76" y="-112.3" font-family="Times-Roman" font-size="14.00">Name or title of the document</text>
</g>
<!-- Rhttps://example.org/id/XYZ&#45;&gt;LName or title of the document -->
<g id="edge5" class="edge">
<title>Rhttps://example.org/id/XYZ&#45;&gt;LName or title of the document</title>
<path fill="none" stroke="black" stroke-dasharray="1,5" d="M153.83,-300.88C181.79,-277.96 232.66,-238.21 280.58,-211 346.55,-173.54 364.7,-165.1 437.58,-144 453.84,-139.29 471.21,-135.31 488.43,-131.96"/>
<polygon fill="black" stroke="black" points="489.36,-135.34 498.54,-130.05 488.07,-128.46 489.36,-135.34"/>
<text text-anchor="middle" x="350.08" y="-214.8" font-family="Times-Roman" font-size="14.00">schema:name</text>
</g>
<!-- B_:b1 -->
<g id="node7" class="node">
<title>B_:b1</title>
<ellipse fill="none" stroke="green" cx="611.76" cy="-367" rx="18" ry="18"/>
</g>
<!-- Rhttps://example.org/id/XYZ&#45;&gt;B_:b1 -->
<g id="edge6" class="edge">
<title>Rhttps://example.org/id/XYZ&#45;&gt;B_:b1</title>
<path fill="none" stroke="black" stroke-dasharray="1,5" d="M237.88,-329.59C349.23,-340.76 517.44,-357.64 583.12,-364.23"/>
<polygon fill="black" stroke="black" points="583.16,-367.75 593.46,-365.26 583.86,-360.78 583.16,-367.75"/>
<text text-anchor="middle" x="350.08" y="-350.8" font-family="Times-Roman" font-size="14.00">schema:subjectOf</text>
</g>
<!-- Rschema:DataDownload -->
<g id="node10" class="node">
<title>Rschema:DataDownload</title>
<ellipse fill="none" stroke="blue" cx="1207.95" cy="-308" rx="114.28" ry="18"/>
<text text-anchor="middle" x="1207.95" y="-304.3" font-family="Times-Roman" font-size="14.00">schema:DataDownload</text>
</g>
<!-- B_:b0&#45;&gt;Rschema:DataDownload -->
<g id="edge9" class="edge">
<title>B_:b0&#45;&gt;Rschema:DataDownload</title>
<path fill="none" stroke="black" stroke-dasharray="1,5" d="M630.11,-272.87C682.28,-275.52 842.32,-283.77 974.95,-292 1013.6,-294.4 1055.86,-297.25 1093.6,-299.87"/>
<polygon fill="black" stroke="black" points="1093.38,-303.36 1103.6,-300.57 1093.87,-296.38 1093.38,-303.36"/>
<text text-anchor="middle" x="889.45" y="-295.8" font-family="Times-Roman" font-size="14.00">rdfs:type</text>
</g>
<!-- Lhttps://www.sample&#45;data&#45;repository.org/dataset/472032.tsv -->
<g id="node11" class="node">
<title>Lhttps://www.sample&#45;data&#45;repository.org/dataset/472032.tsv</title>
<polygon fill="none" stroke="black" points="992.95,-180 992.95,-216 1422.95,-216 1422.95,-180 992.95,-180"/>
<text text-anchor="middle" x="1207.95" y="-194.3" font-family="Times-Roman" font-size="14.00">https://www.sample&#45;data&#45;repository.org/dataset/472032.tsv</text>
</g>
<!-- B_:b0&#45;&gt;Lhttps://www.sample&#45;data&#45;repository.org/dataset/472032.tsv -->
<g id="edge10" class="edge">
<title>B_:b0&#45;&gt;Lhttps://www.sample&#45;data&#45;repository.org/dataset/472032.tsv</title>
<path fill="none" stroke="black" stroke-dasharray="1,5" d="M629.24,-267.58C662.17,-258.92 738.57,-239.73 803.95,-230 861.61,-221.42 924.29,-215.04 982.65,-210.33"/>
<polygon fill="black" stroke="black" points="983.04,-213.81 992.73,-209.53 982.49,-206.83 983.04,-213.81"/>
<text text-anchor="middle" x="889.45" y="-233.8" font-family="Times-Roman" font-size="14.00">schema:contentUrl</text>
</g>
<!-- Ltext/tab&#45;separated&#45;values -->
<g id="node12" class="node">
<title>Ltext/tab&#45;separated&#45;values</title>
<polygon fill="none" stroke="black" points="1110.45,-235 1110.45,-271 1305.45,-271 1305.45,-235 1110.45,-235"/>
<text text-anchor="middle" x="1207.95" y="-249.3" font-family="Times-Roman" font-size="14.00">text/tab&#45;separated&#45;values</text>
</g>
<!-- B_:b0&#45;&gt;Ltext/tab&#45;separated&#45;values -->
<g id="edge11" class="edge">
<title>B_:b0&#45;&gt;Ltext/tab&#45;separated&#45;values</title>
<path fill="none" stroke="black" stroke-dasharray="1,5" d="M629.86,-269.86C663.26,-265.8 739.51,-257.11 803.95,-254 904.31,-249.16 1018.89,-249.44 1100.15,-250.61"/>
<polygon fill="black" stroke="black" points="1100.34,-254.11 1110.39,-250.77 1100.45,-247.11 1100.34,-254.11"/>
<text text-anchor="middle" x="889.45" y="-257.8" font-family="Times-Roman" font-size="14.00">schema:encodingFormat</text>
</g>
<!-- Rschema:Organization -->
<g id="node8" class="node">
<title>Rschema:Organization</title>
<ellipse fill="none" stroke="blue" cx="1207.95" cy="-88" rx="106.68" ry="18"/>
<text text-anchor="middle" x="1207.95" y="-84.3" font-family="Times-Roman" font-size="14.00">schema:Organization</text>
</g>
<!-- Rhttps://link.to/PID_like_re3_or_others&#45;&gt;Rschema:Organization -->
<g id="edge7" class="edge">
<title>Rhttps://link.to/PID_like_re3_or_others&#45;&gt;Rschema:Organization</title>
<path fill="none" stroke="black" stroke-dasharray="1,5" d="M724.59,-157.27C745.2,-153.51 766.39,-148.82 785.95,-143 794.34,-140.5 795.5,-137.31 803.95,-135 899.23,-108.92 1011.07,-97.31 1092.73,-92.14"/>
<polygon fill="black" stroke="black" points="1093.27,-95.61 1103.03,-91.51 1092.84,-88.63 1093.27,-95.61"/>
<text text-anchor="middle" x="889.45" y="-138.8" font-family="Times-Roman" font-size="14.00">rdfs:type</text>
</g>
<!-- LOrganization or Person who maintains the creative work -->
<g id="node9" class="node">
<title>LOrganization or Person who maintains the creative work</title>
<polygon fill="none" stroke="black" points="1004.95,-125 1004.95,-161 1410.95,-161 1410.95,-125 1004.95,-125"/>
<text text-anchor="middle" x="1207.95" y="-139.3" font-family="Times-Roman" font-size="14.00">Organization or Person who maintains the creative work</text>
</g>
<!-- Rhttps://link.to/PID_like_re3_or_others&#45;&gt;LOrganization or Person who maintains the creative work -->
<g id="edge8" class="edge">
<title>Rhttps://link.to/PID_like_re3_or_others&#45;&gt;LOrganization or Person who maintains the creative work</title>
<path fill="none" stroke="black" stroke-dasharray="1,5" d="M767.19,-162.82C779.62,-162.19 791.99,-161.58 803.95,-161 865.82,-158 933.05,-154.92 994.54,-152.18"/>
<polygon fill="black" stroke="black" points="994.92,-155.67 1004.76,-151.73 994.61,-148.68 994.92,-155.67"/>
<text text-anchor="middle" x="889.45" y="-164.8" font-family="Times-Roman" font-size="14.00">schema:description</text>
</g>
<!-- B_:b1&#45;&gt;Rschema:DataDownload -->
<g id="edge12" class="edge">
<title>B_:b1&#45;&gt;Rschema:DataDownload</title>
<path fill="none" stroke="black" stroke-dasharray="1,5" d="M629.88,-364.9C663.32,-360.82 739.64,-351.65 803.95,-345 902.97,-334.76 1015.83,-324.52 1096.88,-317.42"/>
<polygon fill="black" stroke="black" points="1097.44,-320.88 1107.1,-316.52 1096.83,-313.91 1097.44,-320.88"/>
<text text-anchor="middle" x="889.45" y="-348.8" font-family="Times-Roman" font-size="14.00">rdfs:type</text>
</g>
<!-- L2019&#45;06&#45;12T14:44:15Z -->
<g id="node13" class="node">
<title>L2019&#45;06&#45;12T14:44:15Z</title>
<polygon fill="none" stroke="black" points="1117.95,-565 1117.95,-601 1297.95,-601 1297.95,-565 1117.95,-565"/>
<text text-anchor="middle" x="1207.95" y="-579.3" font-family="Times-Roman" font-size="14.00">2019&#45;06&#45;12T14:44:15Z</text>
</g>
<!-- B_:b1&#45;&gt;L2019&#45;06&#45;12T14:44:15Z -->
<g id="edge13" class="edge">
<title>B_:b1&#45;&gt;L2019&#45;06&#45;12T14:44:15Z</title>
<path fill="none" stroke="black" stroke-dasharray="1,5" d="M629.52,-363.86C664.3,-358.4 744.54,-351.58 785.95,-395 835.02,-446.47 752.64,-504.75 803.95,-554 845.92,-594.29 1002.74,-594.54 1107.92,-589.73"/>
<polygon fill="black" stroke="black" points="1108.11,-593.22 1117.93,-589.25 1107.78,-586.23 1108.11,-593.22"/>
<text text-anchor="middle" x="889.45" y="-594.8" font-family="Times-Roman" font-size="14.00">schema:dateModified</text>
</g>
<!-- LEML metadata describing the dataset -->
<g id="node14" class="node">
<title>LEML metadata describing the dataset</title>
<polygon fill="none" stroke="black" points="1069.95,-510 1069.95,-546 1345.95,-546 1345.95,-510 1069.95,-510"/>
<text text-anchor="middle" x="1207.95" y="-524.3" font-family="Times-Roman" font-size="14.00">EML metadata describing the dataset</text>
</g>
<!-- B_:b1&#45;&gt;LEML metadata describing the dataset -->
<g id="edge14" class="edge">
<title>B_:b1&#45;&gt;LEML metadata describing the dataset</title>
<path fill="none" stroke="black" stroke-dasharray="1,5" d="M629.8,-364.27C664.05,-359.81 741.75,-355.1 785.95,-395 808.83,-415.66 781.51,-440.85 803.95,-462 871.19,-525.39 974.42,-541.34 1059.57,-541.72"/>
<polygon fill="black" stroke="black" points="1059.61,-545.22 1069.6,-541.7 1059.59,-538.22 1059.61,-545.22"/>
<text text-anchor="middle" x="889.45" y="-538.8" font-family="Times-Roman" font-size="14.00">schema:description</text>
</g>
<!-- Lapplication/xml -->
<g id="node15" class="node">
<title>Lapplication/xml</title>
<polygon fill="none" stroke="black" points="1146.95,-455 1146.95,-491 1268.95,-491 1268.95,-455 1146.95,-455"/>
<text text-anchor="middle" x="1207.95" y="-469.3" font-family="Times-Roman" font-size="14.00">application/xml</text>
</g>
<!-- B_:b1&#45;&gt;Lapplication/xml -->
<g id="edge15" class="edge">
<title>B_:b1&#45;&gt;Lapplication/xml</title>
<path fill="none" stroke="black" stroke-dasharray="1,5" d="M629.81,-365.92C662.44,-364.64 735.01,-365.66 785.95,-395 796.89,-401.31 792.97,-410.74 803.95,-417 877.75,-459.13 908.78,-434.24 992.95,-446 1040.91,-452.7 1095.03,-459.53 1136.85,-464.64"/>
<polygon fill="black" stroke="black" points="1136.58,-468.13 1146.93,-465.86 1137.43,-461.18 1136.58,-468.13"/>
<text text-anchor="middle" x="889.45" y="-446.8" font-family="Times-Roman" font-size="14.00">schema:encodingFormat</text>
</g>
<!-- Lhttps://eml.ecoinformatics.org/eml&#45;2.2.0 -->
<g id="node16" class="node">
<title>Lhttps://eml.ecoinformatics.org/eml&#45;2.2.0</title>
<polygon fill="none" stroke="black" points="1059.95,-400 1059.95,-436 1355.95,-436 1355.95,-400 1059.95,-400"/>
<text text-anchor="middle" x="1207.95" y="-414.3" font-family="Times-Roman" font-size="14.00">https://eml.ecoinformatics.org/eml&#45;2.2.0</text>
</g>
<!-- B_:b1&#45;&gt;Lhttps://eml.ecoinformatics.org/eml&#45;2.2.0 -->
<g id="edge16" class="edge">
<title>B_:b1&#45;&gt;Lhttps://eml.ecoinformatics.org/eml&#45;2.2.0</title>
<path fill="none" stroke="black" stroke-dasharray="1,5" d="M629.9,-368.55C663.35,-371.57 739.71,-378.43 803.95,-384 884.79,-391 974.76,-398.61 1049.16,-404.85"/>
<polygon fill="black" stroke="black" points="1049.29,-408.38 1059.55,-405.73 1049.87,-401.4 1049.29,-408.38"/>
<text text-anchor="middle" x="889.45" y="-401.8" font-family="Times-Roman" font-size="14.00">schema:encodingFormat</text>
</g>
<!-- Leml&#45;metadata.xml -->
<g id="node17" class="node">
<title>Leml&#45;metadata.xml</title>
<polygon fill="none" stroke="black" points="1136.45,-345 1136.45,-381 1279.45,-381 1279.45,-345 1136.45,-345"/>
<text text-anchor="middle" x="1207.95" y="-359.3" font-family="Times-Roman" font-size="14.00">eml&#45;metadata.xml</text>
</g>
<!-- B_:b1&#45;&gt;Leml&#45;metadata.xml -->
<g id="edge17" class="edge">
<title>B_:b1&#45;&gt;Leml&#45;metadata.xml</title>
<path fill="none" stroke="black" stroke-dasharray="1,5" d="M629.9,-366.88C702.21,-366.4 985.03,-364.49 1126.07,-363.54"/>
<polygon fill="black" stroke="black" points="1126.41,-367.04 1136.38,-363.48 1126.36,-360.04 1126.41,-367.04"/>
<text text-anchor="middle" x="889.45" y="-368.8" font-family="Times-Roman" font-size="14.00">schema:name</text>
</g>
</g>
</svg>
