<?xml version="1.0" encoding="UTF-8" standalone="no"?>
<!DOCTYPE svg PUBLIC "-//W3C//DTD SVG 1.1//EN"
 "http://www.w3.org/Graphics/SVG/1.1/DTD/svg11.dtd">
<!-- Generated by graphviz version 2.43.0 (0)
 -->
<!-- Title: %3 Pages: 1 -->
<svg width="724pt" height="280pt"
 viewBox="0.00 0.00 724.38 279.50" xmlns="http://www.w3.org/2000/svg" xmlns:xlink="http://www.w3.org/1999/xlink">
<g id="graph0" class="graph" transform="scale(1 1) rotate(0) translate(4 275.5)">
<title>%3</title>
<polygon fill="white" stroke="transparent" points="-4,4 -4,-275.5 720.38,-275.5 720.38,4 -4,4"/>
<text text-anchor="middle" x="358.19" y="-22.8" font-family="Times,serif" font-size="14.00">Model:</text>
<text text-anchor="middle" x="358.19" y="-7.8" font-family="Times,serif" font-size="14.00">https://iode.org/</text>
<!-- Rhttps://example.org/id/XYZ -->
<g id="node1" class="node">
<title>Rhttps://example.org/id/XYZ</title>
<ellipse fill="none" stroke="blue" cx="109.19" cy="-170.5" rx="109.38" ry="18"/>
<text text-anchor="middle" x="109.19" y="-166.8" font-family="Times,serif" font-size="14.00">https://example.org/id/XYZ</text>
</g>
<!-- Rschema:Map -->
<g id="node2" class="node">
<title>Rschema:Map</title>
<ellipse fill="none" stroke="blue" cx="538.38" cy="-253.5" rx="56.59" ry="18"/>
<text text-anchor="middle" x="538.38" y="-249.8" font-family="Times,serif" font-size="14.00">schema:Map</text>
</g>
<!-- Rhttps://example.org/id/XYZ&#45;&gt;Rschema:Map -->
<g id="edge1" class="edge">
<title>Rhttps://example.org/id/XYZ&#45;&gt;Rschema:Map</title>
<path fill="none" stroke="black" stroke-dasharray="1,5" d="M165.89,-185.99C187.78,-191.84 213.17,-198.32 236.38,-203.5 318.49,-221.83 414.56,-236.66 475.68,-245.28"/>
<polygon fill="black" stroke="black" points="475.53,-248.79 485.92,-246.71 476.5,-241.86 475.53,-248.79"/>
<text text-anchor="middle" x="289.38" y="-226.3" font-family="Times,serif" font-size="14.00">rdfs:type</text>
</g>
<!-- LDescription of the map to aid in searching -->
<g id="node3" class="node">
<title>LDescription of the map to aid in searching</title>
<polygon fill="none" stroke="black" points="414.88,-180.5 414.88,-216.5 661.88,-216.5 661.88,-180.5 414.88,-180.5"/>
<text text-anchor="middle" x="538.38" y="-194.8" font-family="Times,serif" font-size="14.00">Description of the map to aid in searching</text>
</g>
<!-- Rhttps://example.org/id/XYZ&#45;&gt;LDescription of the map to aid in searching -->
<g id="edge2" class="edge">
<title>Rhttps://example.org/id/XYZ&#45;&gt;LDescription of the map to aid in searching</title>
<path fill="none" stroke="black" stroke-dasharray="1,5" d="M210.89,-177.1C268.6,-180.88 341.75,-185.68 404.17,-189.77"/>
<polygon fill="black" stroke="black" points="404.29,-193.28 414.49,-190.45 404.74,-186.3 404.29,-193.28"/>
<text text-anchor="middle" x="289.38" y="-188.3" font-family="Times,serif" font-size="14.00">schema:description</text>
</g>
<!-- LName or title of the document -->
<g id="node4" class="node">
<title>LName or title of the document</title>
<polygon fill="none" stroke="black" points="447.38,-125.5 447.38,-161.5 629.38,-161.5 629.38,-125.5 447.38,-125.5"/>
<text text-anchor="middle" x="538.38" y="-139.8" font-family="Times,serif" font-size="14.00">Name or title of the document</text>
</g>
<!-- Rhttps://example.org/id/XYZ&#45;&gt;LName or title of the document -->
<g id="edge3" class="edge">
<title>Rhttps://example.org/id/XYZ&#45;&gt;LName or title of the document</title>
<path fill="none" stroke="black" stroke-dasharray="1,5" d="M209.38,-163.32C218.51,-162.69 227.61,-162.07 236.38,-161.5 303.29,-157.11 378.6,-152.61 437.15,-149.21"/>
<polygon fill="black" stroke="black" points="437.36,-152.7 447.14,-148.63 436.96,-145.71 437.36,-152.7"/>
<text text-anchor="middle" x="289.38" y="-165.3" font-family="Times,serif" font-size="14.00">schema:name</text>
</g>
<!-- Lhttps://www.sample&#45;data&#45;repository.org/creativework/map.pdf -->
<g id="node5" class="node">
<title>Lhttps://www.sample&#45;data&#45;repository.org/creativework/map.pdf</title>
<polygon fill="none" stroke="black" points="360.38,-70.5 360.38,-106.5 716.38,-106.5 716.38,-70.5 360.38,-70.5"/>
<text text-anchor="middle" x="538.38" y="-84.8" font-family="Times,serif" font-size="14.00">https://www.sample&#45;data&#45;repository.org/creativework/map.pdf</text>
</g>
<!-- Rhttps://example.org/id/XYZ&#45;&gt;Lhttps://www.sample&#45;data&#45;repository.org/creativework/map.pdf -->
<g id="edge4" class="edge">
<title>Rhttps://example.org/id/XYZ&#45;&gt;Lhttps://www.sample&#45;data&#45;repository.org/creativework/map.pdf</title>
<path fill="none" stroke="black" stroke-dasharray="1,5" d="M162.05,-154.72C184.73,-148.19 211.73,-140.89 236.38,-135.5 285.69,-124.72 340.06,-115.45 388.87,-108.05"/>
<polygon fill="black" stroke="black" points="389.5,-111.5 398.87,-106.55 388.46,-104.58 389.5,-111.5"/>
<text text-anchor="middle" x="289.38" y="-139.3" font-family="Times,serif" font-size="14.00">schema:url</text>
</g>
</g>
</svg>
