<?xml version="1.0" encoding="UTF-8" standalone="no"?>
<!DOCTYPE svg PUBLIC "-//W3C//DTD SVG 1.1//EN"
 "http://www.w3.org/Graphics/SVG/1.1/DTD/svg11.dtd">
<!-- Generated by graphviz version 2.44.0 (0)
 -->
<!-- Pages: 1 -->
<svg width="3663pt" height="553pt"
 viewBox="0.00 0.00 3663.45 552.50" xmlns="http://www.w3.org/2000/svg" xmlns:xlink="http://www.w3.org/1999/xlink">
<g id="graph0" class="graph" transform="scale(1 1) rotate(0) translate(4 548.5)">
<polygon fill="white" stroke="transparent" points="-4,4 -4,-548.5 3659.45,-548.5 3659.45,4 -4,4"/>
<text text-anchor="middle" x="1827.72" y="-22.8" font-family="Times-Roman" font-size="14.00">Model:</text>
<text text-anchor="middle" x="1827.72" y="-7.8" font-family="Times-Roman" font-size="14.00">https://iode.org/</text>
<!-- Rfile:///home/fils/src/Projects/OIH/odis&#45;arch/schema/thematics/expinst/graphs/ID_for_this_metadata_record -->
<g id="node1" class="node">
<title>Rfile:///home/fils/src/Projects/OIH/odis&#45;arch/schema/thematics/expinst/graphs/ID_for_this_metadata_record</title>
<ellipse fill="none" stroke="blue" cx="1666.72" cy="-362.5" rx="482.81" ry="18"/>
<text text-anchor="middle" x="1666.72" y="-358.8" font-family="Times-Roman" font-size="14.00">file:///home/fils/src/Projects/OIH/odis&#45;arch/schema/thematics/expinst/graphs/ID_for_this_metadata_record</text>
</g>
<!-- Rschema:Person -->
<g id="node2" class="node">
<title>Rschema:Person</title>
<ellipse fill="none" stroke="blue" cx="2738.04" cy="-498.5" rx="79.09" ry="18"/>
<text text-anchor="middle" x="2738.04" y="-494.8" font-family="Times-Roman" font-size="14.00">schema:Person</text>
</g>
<!-- Rfile:///home/fils/src/Projects/OIH/odis&#45;arch/schema/thematics/expinst/graphs/ID_for_this_metadata_record&#45;&gt;Rschema:Person -->
<g id="edge1" class="edge">
<title>Rfile:///home/fils/src/Projects/OIH/odis&#45;arch/schema/thematics/expinst/graphs/ID_for_this_metadata_record&#45;&gt;Rschema:Person</title>
<path fill="none" stroke="black" stroke-dasharray="1,5" d="M1755.06,-380.2C1878.82,-404.6 2112.55,-448.19 2313.63,-471.5 2429.11,-484.89 2563.14,-492.03 2648.95,-495.54"/>
<polygon fill="black" stroke="black" points="2649.04,-499.05 2659.17,-495.95 2649.32,-492.05 2649.04,-499.05"/>
<text text-anchor="middle" x="2231.63" y="-470.3" font-family="Times-Roman" font-size="14.00">rdfs:type</text>
</g>
<!-- Rfile:///home/fils/src/Projects/OIH/odis&#45;arch/schema/thematics/expinst/graphs/ID_value_string -->
<g id="node3" class="node">
<title>Rfile:///home/fils/src/Projects/OIH/odis&#45;arch/schema/thematics/expinst/graphs/ID_value_string</title>
<ellipse fill="none" stroke="blue" cx="2738.04" cy="-444.5" rx="424.32" ry="18"/>
<text text-anchor="middle" x="2738.04" y="-440.8" font-family="Times-Roman" font-size="14.00">file:///home/fils/src/Projects/OIH/odis&#45;arch/schema/thematics/expinst/graphs/ID_value_string</text>
</g>
<!-- Rfile:///home/fils/src/Projects/OIH/odis&#45;arch/schema/thematics/expinst/graphs/ID_for_this_metadata_record&#45;&gt;Rfile:///home/fils/src/Projects/OIH/odis&#45;arch/schema/thematics/expinst/graphs/ID_value_string -->
<g id="edge2" class="edge">
<title>Rfile:///home/fils/src/Projects/OIH/odis&#45;arch/schema/thematics/expinst/graphs/ID_for_this_metadata_record&#45;&gt;Rfile:///home/fils/src/Projects/OIH/odis&#45;arch/schema/thematics/expinst/graphs/ID_value_string</title>
<path fill="none" stroke="black" stroke-dasharray="1,5" d="M1851.04,-379.15C1980.29,-390.64 2157.48,-405.88 2313.63,-417.5 2368.28,-421.57 2426.94,-425.55 2482.65,-429.16"/>
<polygon fill="black" stroke="black" points="2482.44,-432.65 2492.65,-429.8 2482.89,-425.67 2482.44,-432.65"/>
<text text-anchor="middle" x="2231.63" y="-418.3" font-family="Times-Roman" font-size="14.00">schema:identifier</text>
</g>
<!-- LProfessor -->
<g id="node4" class="node">
<title>LProfessor</title>
<polygon fill="none" stroke="black" points="2697.54,-371.5 2697.54,-407.5 2778.54,-407.5 2778.54,-371.5 2697.54,-371.5"/>
<text text-anchor="middle" x="2738.04" y="-385.8" font-family="Times-Roman" font-size="14.00">Professor</text>
</g>
<!-- Rfile:///home/fils/src/Projects/OIH/odis&#45;arch/schema/thematics/expinst/graphs/ID_for_this_metadata_record&#45;&gt;LProfessor -->
<g id="edge3" class="edge">
<title>Rfile:///home/fils/src/Projects/OIH/odis&#45;arch/schema/thematics/expinst/graphs/ID_for_this_metadata_record&#45;&gt;LProfessor</title>
<path fill="none" stroke="black" stroke-dasharray="1,5" d="M2067.03,-372.58C2303,-378.54 2576.6,-385.45 2687.03,-388.24"/>
<polygon fill="black" stroke="black" points="2687.12,-391.74 2697.2,-388.49 2687.29,-384.74 2687.12,-391.74"/>
<text text-anchor="middle" x="2231.63" y="-381.3" font-family="Times-Roman" font-size="14.00">schema:jobTitle</text>
</g>
<!-- LJane Doe -->
<g id="node5" class="node">
<title>LJane Doe</title>
<polygon fill="none" stroke="black" points="2699.04,-316.5 2699.04,-352.5 2777.04,-352.5 2777.04,-316.5 2699.04,-316.5"/>
<text text-anchor="middle" x="2738.04" y="-330.8" font-family="Times-Roman" font-size="14.00">Jane Doe</text>
</g>
<!-- Rfile:///home/fils/src/Projects/OIH/odis&#45;arch/schema/thematics/expinst/graphs/ID_for_this_metadata_record&#45;&gt;LJane Doe -->
<g id="edge4" class="edge">
<title>Rfile:///home/fils/src/Projects/OIH/odis&#45;arch/schema/thematics/expinst/graphs/ID_for_this_metadata_record&#45;&gt;LJane Doe</title>
<path fill="none" stroke="black" stroke-dasharray="1,5" d="M2062.48,-352.16C2300.56,-345.93 2578.46,-338.65 2688.57,-335.77"/>
<polygon fill="black" stroke="black" points="2688.79,-339.26 2698.7,-335.5 2688.61,-332.27 2688.79,-339.26"/>
<text text-anchor="middle" x="2231.63" y="-352.3" font-family="Times-Roman" font-size="14.00">schema:name</text>
</g>
<!-- L(425) 123&#45;4567 -->
<g id="node6" class="node">
<title>L(425) 123&#45;4567</title>
<polygon fill="none" stroke="black" points="2674.54,-261.5 2674.54,-297.5 2801.54,-297.5 2801.54,-261.5 2674.54,-261.5"/>
<text text-anchor="middle" x="2738.04" y="-275.8" font-family="Times-Roman" font-size="14.00">(425) 123&#45;4567</text>
</g>
<!-- Rfile:///home/fils/src/Projects/OIH/odis&#45;arch/schema/thematics/expinst/graphs/ID_for_this_metadata_record&#45;&gt;L(425) 123&#45;4567 -->
<g id="edge5" class="edge">
<title>Rfile:///home/fils/src/Projects/OIH/odis&#45;arch/schema/thematics/expinst/graphs/ID_for_this_metadata_record&#45;&gt;L(425) 123&#45;4567</title>
<path fill="none" stroke="black" stroke-dasharray="1,5" d="M2069.07,-352.54C2096.53,-348.02 2123.61,-342.42 2149.63,-335.5 2158.27,-333.2 2159.07,-329.11 2167.63,-326.5 2230.21,-307.38 2248.5,-313.88 2313.63,-307.5 2436.57,-295.45 2580.11,-287.17 2664.53,-282.89"/>
<polygon fill="black" stroke="black" points="2664.71,-286.39 2674.52,-282.39 2664.36,-279.4 2664.71,-286.39"/>
<text text-anchor="middle" x="2231.63" y="-330.3" font-family="Times-Roman" font-size="14.00">schema:telephone</text>
</g>
<!-- Lhttp://www.janedoe.com -->
<g id="node7" class="node">
<title>Lhttp://www.janedoe.com</title>
<polygon fill="none" stroke="black" points="2645.54,-206.5 2645.54,-242.5 2830.54,-242.5 2830.54,-206.5 2645.54,-206.5"/>
<text text-anchor="middle" x="2738.04" y="-220.8" font-family="Times-Roman" font-size="14.00">http://www.janedoe.com</text>
</g>
<!-- Rfile:///home/fils/src/Projects/OIH/odis&#45;arch/schema/thematics/expinst/graphs/ID_for_this_metadata_record&#45;&gt;Lhttp://www.janedoe.com -->
<g id="edge6" class="edge">
<title>Rfile:///home/fils/src/Projects/OIH/odis&#45;arch/schema/thematics/expinst/graphs/ID_for_this_metadata_record&#45;&gt;Lhttp://www.janedoe.com</title>
<path fill="none" stroke="black" stroke-dasharray="1,5" d="M1738.47,-380.35C1839.9,-401.51 2027.81,-423.74 2149.63,-335.5 2167.4,-322.62 2151.16,-304.03 2167.63,-289.5 2217.82,-245.21 2247.51,-262.97 2313.63,-252.5 2422.64,-235.23 2549.07,-228.58 2635.2,-226.04"/>
<polygon fill="black" stroke="black" points="2635.34,-229.54 2645.24,-225.76 2635.14,-222.54 2635.34,-229.54"/>
<text text-anchor="middle" x="2231.63" y="-293.3" font-family="Times-Roman" font-size="14.00">schema:url</text>
</g>
<!-- Rschema:PropertyValue -->
<g id="node8" class="node">
<title>Rschema:PropertyValue</title>
<ellipse fill="none" stroke="blue" cx="3494.95" cy="-526.5" rx="111.28" ry="18"/>
<text text-anchor="middle" x="3494.95" y="-522.8" font-family="Times-Roman" font-size="14.00">schema:PropertyValue</text>
</g>
<!-- Rfile:///home/fils/src/Projects/OIH/odis&#45;arch/schema/thematics/expinst/graphs/ID_value_string&#45;&gt;Rschema:PropertyValue -->
<g id="edge7" class="edge">
<title>Rfile:///home/fils/src/Projects/OIH/odis&#45;arch/schema/thematics/expinst/graphs/ID_value_string&#45;&gt;Rschema:PropertyValue</title>
<path fill="none" stroke="black" stroke-dasharray="1,5" d="M3097.98,-454.05C3120.04,-458.74 3141.69,-464.49 3162.45,-471.5 3171.56,-474.58 3171.46,-480.09 3180.45,-483.5 3242.13,-506.87 3314.9,-517.77 3374.8,-522.77"/>
<polygon fill="black" stroke="black" points="3374.82,-526.28 3385.06,-523.58 3375.37,-519.3 3374.82,-526.28"/>
<text text-anchor="middle" x="3248.45" y="-519.3" font-family="Times-Roman" font-size="14.00">rdfs:type</text>
</g>
<!-- LOptional description of the ID -->
<g id="node9" class="node">
<title>LOptional description of the ID</title>
<polygon fill="none" stroke="black" points="3384.45,-453.5 3384.45,-489.5 3605.45,-489.5 3605.45,-453.5 3384.45,-453.5"/>
<text text-anchor="middle" x="3494.95" y="-467.8" font-family="Times-Roman" font-size="14.00">Optional description of the ID</text>
</g>
<!-- Rfile:///home/fils/src/Projects/OIH/odis&#45;arch/schema/thematics/expinst/graphs/ID_value_string&#45;&gt;LOptional description of the ID -->
<g id="edge8" class="edge">
<title>Rfile:///home/fils/src/Projects/OIH/odis&#45;arch/schema/thematics/expinst/graphs/ID_value_string&#45;&gt;LOptional description of the ID</title>
<path fill="none" stroke="black" stroke-dasharray="1,5" d="M3063.02,-456.09C3173.5,-460.04 3290.22,-464.21 3374.28,-467.22"/>
<polygon fill="black" stroke="black" points="3374.25,-470.72 3384.37,-467.58 3374.5,-463.73 3374.25,-470.72"/>
<text text-anchor="middle" x="3248.45" y="-468.3" font-family="Times-Roman" font-size="14.00">schema:description</text>
</g>
<!-- LThis can be text or URL for an ID like ORCID -->
<g id="node10" class="node">
<title>LThis can be text or URL for an ID like ORCID</title>
<polygon fill="none" stroke="black" points="3334.45,-398.5 3334.45,-434.5 3655.45,-434.5 3655.45,-398.5 3334.45,-398.5"/>
<text text-anchor="middle" x="3494.95" y="-412.8" font-family="Times-Roman" font-size="14.00">This can be text or URL for an ID like ORCID</text>
</g>
<!-- Rfile:///home/fils/src/Projects/OIH/odis&#45;arch/schema/thematics/expinst/graphs/ID_value_string&#45;&gt;LThis can be text or URL for an ID like ORCID -->
<g id="edge9" class="edge">
<title>Rfile:///home/fils/src/Projects/OIH/odis&#45;arch/schema/thematics/expinst/graphs/ID_value_string&#45;&gt;LThis can be text or URL for an ID like ORCID</title>
<path fill="none" stroke="black" stroke-dasharray="1,5" d="M3058.09,-432.67C3149.55,-429.27 3245.7,-425.71 3324.35,-422.79"/>
<polygon fill="black" stroke="black" points="3324.48,-426.29 3334.34,-422.42 3324.22,-419.29 3324.48,-426.29"/>
<text text-anchor="middle" x="3248.45" y="-431.3" font-family="Times-Roman" font-size="14.00">schema:propertyID</text>
</g>
<!-- Lhttps://foo.org/linkToPropertyIDPage -->
<g id="node11" class="node">
<title>Lhttps://foo.org/linkToPropertyIDPage</title>
<polygon fill="none" stroke="black" points="3362.45,-343.5 3362.45,-379.5 3627.45,-379.5 3627.45,-343.5 3362.45,-343.5"/>
<text text-anchor="middle" x="3494.95" y="-357.8" font-family="Times-Roman" font-size="14.00">https://foo.org/linkToPropertyIDPage</text>
</g>
<!-- Rfile:///home/fils/src/Projects/OIH/odis&#45;arch/schema/thematics/expinst/graphs/ID_value_string&#45;&gt;Lhttps://foo.org/linkToPropertyIDPage -->
<g id="edge10" class="edge">
<title>Rfile:///home/fils/src/Projects/OIH/odis&#45;arch/schema/thematics/expinst/graphs/ID_value_string&#45;&gt;Lhttps://foo.org/linkToPropertyIDPage</title>
<path fill="none" stroke="black" stroke-dasharray="1,5" d="M3104.4,-435.33C3124.29,-430.47 3143.77,-424.58 3162.45,-417.5 3171.93,-413.91 3171.1,-407.42 3180.45,-403.5 3233.96,-381.06 3296.71,-369.99 3351.96,-364.72"/>
<polygon fill="black" stroke="black" points="3352.54,-368.18 3362.18,-363.81 3351.91,-361.21 3352.54,-368.18"/>
<text text-anchor="middle" x="3248.45" y="-407.3" font-family="Times-Roman" font-size="14.00">schema:url</text>
</g>
<!-- Rfile:///home/fils/src/Projects/OIH/odis&#45;arch/schema/thematics/expinst/graphs/personRevAttendee.json#course -->
<g id="node12" class="node">
<title>Rfile:///home/fils/src/Projects/OIH/odis&#45;arch/schema/thematics/expinst/graphs/personRevAttendee.json#course</title>
<ellipse fill="none" stroke="blue" cx="502.41" cy="-225.5" rx="502.31" ry="18"/>
<text text-anchor="middle" x="502.41" y="-221.8" font-family="Times-Roman" font-size="14.00">file:///home/fils/src/Projects/OIH/odis&#45;arch/schema/thematics/expinst/graphs/personRevAttendee.json#course</text>
</g>
<!-- Rfile:///home/fils/src/Projects/OIH/odis&#45;arch/schema/thematics/expinst/graphs/personRevAttendee.json#course&#45;&gt;Rfile:///home/fils/src/Projects/OIH/odis&#45;arch/schema/thematics/expinst/graphs/ID_for_this_metadata_record -->
<g id="edge12" class="edge">
<title>Rfile:///home/fils/src/Projects/OIH/odis&#45;arch/schema/thematics/expinst/graphs/personRevAttendee.json#course&#45;&gt;Rfile:///home/fils/src/Projects/OIH/odis&#45;arch/schema/thematics/expinst/graphs/ID_for_this_metadata_record</title>
<path fill="none" stroke="black" stroke-dasharray="1,5" d="M594.07,-243.25C724.1,-268 971.32,-312.43 1183.81,-335.5 1232.14,-340.75 1283.3,-345 1333.54,-348.44"/>
<polygon fill="black" stroke="black" points="1333.37,-351.94 1343.58,-349.12 1333.84,-344.96 1333.37,-351.94"/>
<text text-anchor="middle" x="1094.31" y="-336.3" font-family="Times-Roman" font-size="14.00">schema:attendee</text>
</g>
<!-- Rschema:CourseInstance -->
<g id="node13" class="node">
<title>Rschema:CourseInstance</title>
<ellipse fill="none" stroke="blue" cx="1666.72" cy="-308.5" rx="118.88" ry="18"/>
<text text-anchor="middle" x="1666.72" y="-304.8" font-family="Times-Roman" font-size="14.00">schema:CourseInstance</text>
</g>
<!-- Rfile:///home/fils/src/Projects/OIH/odis&#45;arch/schema/thematics/expinst/graphs/personRevAttendee.json#course&#45;&gt;Rschema:CourseInstance -->
<g id="edge11" class="edge">
<title>Rfile:///home/fils/src/Projects/OIH/odis&#45;arch/schema/thematics/expinst/graphs/personRevAttendee.json#course&#45;&gt;Rschema:CourseInstance</title>
<path fill="none" stroke="black" stroke-dasharray="1,5" d="M690.3,-242.21C826.94,-254.1 1016.79,-269.95 1183.81,-281.5 1305.93,-289.94 1445.59,-297.54 1543.02,-302.51"/>
<polygon fill="black" stroke="black" points="1543.04,-306.02 1553.2,-303.03 1543.39,-299.03 1543.04,-306.02"/>
<text text-anchor="middle" x="1094.31" y="-283.3" font-family="Times-Roman" font-size="14.00">rdfs:type</text>
</g>
<!-- LMOOC2 -->
<g id="node14" class="node">
<title>LMOOC2</title>
<polygon fill="none" stroke="black" points="1631.72,-235.5 1631.72,-271.5 1701.72,-271.5 1701.72,-235.5 1631.72,-235.5"/>
<text text-anchor="middle" x="1666.72" y="-249.8" font-family="Times-Roman" font-size="14.00">MOOC2</text>
</g>
<!-- Rfile:///home/fils/src/Projects/OIH/odis&#45;arch/schema/thematics/expinst/graphs/personRevAttendee.json#course&#45;&gt;LMOOC2 -->
<g id="edge13" class="edge">
<title>Rfile:///home/fils/src/Projects/OIH/odis&#45;arch/schema/thematics/expinst/graphs/personRevAttendee.json#course&#45;&gt;LMOOC2</title>
<path fill="none" stroke="black" stroke-dasharray="1,5" d="M919.74,-235.53C1187.57,-241.98 1506.32,-249.66 1621.48,-252.43"/>
<polygon fill="black" stroke="black" points="1621.58,-255.94 1631.66,-252.68 1621.75,-248.94 1621.58,-255.94"/>
<text text-anchor="middle" x="1094.31" y="-244.3" font-family="Times-Roman" font-size="14.00">schema:courseMode</text>
</g>
<!-- Lonline -->
<g id="node15" class="node">
<title>Lonline</title>
<polygon fill="none" stroke="black" points="1637.22,-180.5 1637.22,-216.5 1696.22,-216.5 1696.22,-180.5 1637.22,-180.5"/>
<text text-anchor="middle" x="1666.72" y="-194.8" font-family="Times-Roman" font-size="14.00">online</text>
</g>
<!-- Rfile:///home/fils/src/Projects/OIH/odis&#45;arch/schema/thematics/expinst/graphs/personRevAttendee.json#course&#45;&gt;Lonline -->
<g id="edge14" class="edge">
<title>Rfile:///home/fils/src/Projects/OIH/odis&#45;arch/schema/thematics/expinst/graphs/personRevAttendee.json#course&#45;&gt;Lonline</title>
<path fill="none" stroke="black" stroke-dasharray="1,5" d="M924.26,-215.72C1195.31,-209.43 1516.82,-201.96 1626.69,-199.41"/>
<polygon fill="black" stroke="black" points="1627.03,-202.9 1636.95,-199.17 1626.87,-195.9 1627.03,-202.9"/>
<text text-anchor="middle" x="1094.31" y="-216.3" font-family="Times-Roman" font-size="14.00">schema:courseMode</text>
</g>
<!-- L2019&#45;05&#45;21 -->
<g id="node16" class="node">
<title>L2019&#45;05&#45;21</title>
<polygon fill="none" stroke="black" points="1617.22,-125.5 1617.22,-161.5 1716.22,-161.5 1716.22,-125.5 1617.22,-125.5"/>
<text text-anchor="middle" x="1666.72" y="-139.8" font-family="Times-Roman" font-size="14.00">2019&#45;05&#45;21</text>
</g>
<!-- Rfile:///home/fils/src/Projects/OIH/odis&#45;arch/schema/thematics/expinst/graphs/personRevAttendee.json#course&#45;&gt;L2019&#45;05&#45;21 -->
<g id="edge15" class="edge">
<title>Rfile:///home/fils/src/Projects/OIH/odis&#45;arch/schema/thematics/expinst/graphs/personRevAttendee.json#course&#45;&gt;L2019&#45;05&#45;21</title>
<path fill="none" stroke="black" stroke-dasharray="1,5" d="M698.73,-208.9C834.69,-197.61 1020.23,-182.74 1183.81,-171.5 1336.37,-161.02 1516.28,-151.25 1607.04,-146.51"/>
<polygon fill="black" stroke="black" points="1607.33,-150 1617.13,-145.98 1606.96,-143.01 1607.33,-150"/>
<text text-anchor="middle" x="1094.31" y="-185.3" font-family="Times-Roman" font-size="14.00">schema:endDate</text>
</g>
<!-- L2019&#45;04&#45;15 -->
<g id="node17" class="node">
<title>L2019&#45;04&#45;15</title>
<polygon fill="none" stroke="black" points="1617.22,-70.5 1617.22,-106.5 1716.22,-106.5 1716.22,-70.5 1617.22,-70.5"/>
<text text-anchor="middle" x="1666.72" y="-84.8" font-family="Times-Roman" font-size="14.00">2019&#45;04&#45;15</text>
</g>
<!-- Rfile:///home/fils/src/Projects/OIH/odis&#45;arch/schema/thematics/expinst/graphs/personRevAttendee.json#course&#45;&gt;L2019&#45;04&#45;15 -->
<g id="edge16" class="edge">
<title>Rfile:///home/fils/src/Projects/OIH/odis&#45;arch/schema/thematics/expinst/graphs/personRevAttendee.json#course&#45;&gt;L2019&#45;04&#45;15</title>
<path fill="none" stroke="black" stroke-dasharray="1,5" d="M594.07,-207.75C724.1,-183 971.32,-138.57 1183.81,-115.5 1335.82,-99 1515.96,-92.3 1606.9,-89.82"/>
<polygon fill="black" stroke="black" points="1607.11,-93.31 1617.01,-89.55 1606.93,-86.32 1607.11,-93.31"/>
<text text-anchor="middle" x="1094.31" y="-137.3" font-family="Times-Roman" font-size="14.00">schema:startDate</text>
</g>
</g>
</svg>
