<?xml version="1.0" encoding="UTF-8" standalone="no"?>
<!DOCTYPE svg PUBLIC "-//W3C//DTD SVG 1.1//EN"
 "http://www.w3.org/Graphics/SVG/1.1/DTD/svg11.dtd">
<!-- Generated by graphviz version 5.0.0 (0)
 -->
<!-- Pages: 1 -->
<svg width="937pt" height="487pt"
 viewBox="0.00 0.00 937.14 487.00" xmlns="http://www.w3.org/2000/svg" xmlns:xlink="http://www.w3.org/1999/xlink">
<g id="graph0" class="graph" transform="scale(1 1) rotate(0) translate(4 483)">
<polygon fill="white" stroke="transparent" points="-4,4 -4,-483 933.14,-483 933.14,4 -4,4"/>
<!-- Dataset -->
<g id="node1" class="node">
<title>Dataset</title>
<ellipse fill="none" stroke="#558855" cx="505.37" cy="-327" rx="46.59" ry="18"/>
<text text-anchor="middle" x="505.37" y="-323.3" font-family="Times,serif" font-size="14.00">Dataset</text>
</g>
<!-- example.org/dataset/12345 -->
<g id="node2" class="node">
<title>example.org/dataset/12345</title>
<ellipse fill="none" stroke="black" cx="137.79" cy="-270" rx="137.58" ry="18"/>
<text text-anchor="middle" x="137.79" y="-266.3" font-family="Times,serif" font-size="14.00">example.org/dataset/12345</text>
</g>
<!-- example.org/dataset/12345&#45;&gt;Dataset -->
<g id="edge1" class="edge">
<title>example.org/dataset/12345&#45;&gt;Dataset</title>
<path fill="none" stroke="black" d="M227.29,-283.8C297.26,-294.71 392.61,-309.58 451.26,-318.72"/>
<polygon fill="black" stroke="black" points="450.99,-322.22 461.41,-320.3 452.07,-315.3 450.99,-322.22"/>
<text text-anchor="middle" x="367.08" y="-319.8" font-family="Times,serif" font-size="14.00">type</text>
</g>
<!-- _ -->
<g id="node3" class="node">
<title>_</title>
<ellipse fill="none" stroke="#558855" cx="505.37" cy="-251" rx="27" ry="18"/>
<text text-anchor="middle" x="505.37" y="-247.3" font-family="Times,serif" font-size="14.00">_</text>
</g>
<!-- example.org/dataset/12345&#45;&gt;_ -->
<g id="edge2" class="edge">
<title>example.org/dataset/12345&#45;&gt;_</title>
<path fill="none" stroke="black" d="M269.6,-275.39C322.84,-275.85 384.84,-274.16 440.58,-267 450.58,-265.71 461.27,-263.41 470.99,-260.95"/>
<polygon fill="black" stroke="black" points="471.94,-264.32 480.69,-258.35 470.13,-257.55 471.94,-264.32"/>
<text text-anchor="middle" x="367.08" y="-278.8" font-family="Times,serif" font-size="14.00">publishingPrinciples</text>
</g>
<!-- example.org/dataset/12345&#45;&gt;_ -->
<g id="edge3" class="edge">
<title>example.org/dataset/12345&#45;&gt;_</title>
<path fill="none" stroke="black" d="M222.91,-255.84C245.77,-252.6 270.56,-249.63 293.58,-248 358.75,-243.39 375.26,-246.47 440.58,-248 449.5,-248.21 459.12,-248.58 468.11,-249"/>
<polygon fill="black" stroke="black" points="468.15,-252.5 478.31,-249.5 468.49,-245.51 468.15,-252.5"/>
<text text-anchor="middle" x="367.08" y="-251.8" font-family="Times,serif" font-size="14.00">publishingPrinciples</text>
</g>
<!-- example.org/dataset/12345&#45;&gt;_ -->
<g id="edge4" class="edge">
<title>example.org/dataset/12345&#45;&gt;_</title>
<path fill="none" stroke="black" d="M185.48,-253.07C215.83,-242.98 256.5,-231.17 293.58,-226 358.28,-216.98 376.38,-213.87 440.58,-226 451.83,-228.13 463.63,-232.19 473.99,-236.43"/>
<polygon fill="black" stroke="black" points="472.84,-239.74 483.41,-240.49 475.61,-233.32 472.84,-239.74"/>
<text text-anchor="middle" x="367.08" y="-229.8" font-family="Times,serif" font-size="14.00">publishingPrinciples</text>
</g>
<!-- CreativeWork -->
<g id="node4" class="node">
<title>CreativeWork</title>
<ellipse fill="none" stroke="#558855" cx="799.16" cy="-422" rx="74.19" ry="18"/>
<text text-anchor="middle" x="799.16" y="-418.3" font-family="Times,serif" font-size="14.00">CreativeWork</text>
</g>
<!-- _&#45;&gt;CreativeWork -->
<g id="edge5" class="edge">
<title>_&#45;&gt;CreativeWork</title>
<path fill="none" stroke="black" d="M523.58,-264.57C533.64,-273.51 545.61,-286.1 552.17,-300 565.36,-327.97 546.93,-417.59 570.17,-438 620.59,-482.27 703.88,-461.07 754.61,-441.58"/>
<polygon fill="black" stroke="black" points="755.99,-444.8 764,-437.85 753.41,-438.29 755.99,-444.8"/>
<text text-anchor="middle" x="610.67" y="-467.8" font-family="Times,serif" font-size="14.00">type</text>
</g>
<!-- _&#45;&gt;CreativeWork -->
<g id="edge9" class="edge">
<title>_&#45;&gt;CreativeWork</title>
<path fill="none" stroke="black" d="M523.35,-264.68C533.32,-273.66 545.28,-286.26 552.17,-300 572.41,-340.37 536.95,-369.4 570.17,-400 580.94,-409.92 654.79,-415.71 715.57,-418.84"/>
<polygon fill="black" stroke="black" points="715.43,-422.33 725.59,-419.33 715.78,-415.34 715.43,-422.33"/>
<text text-anchor="middle" x="610.67" y="-417.8" font-family="Times,serif" font-size="14.00">type</text>
</g>
<!-- _&#45;&gt;CreativeWork -->
<g id="edge13" class="edge">
<title>_&#45;&gt;CreativeWork</title>
<path fill="none" stroke="black" d="M522.85,-264.95C532.63,-274.03 544.57,-286.64 552.17,-300 566.35,-324.94 549.36,-342.25 570.17,-362 596.99,-387.46 615.35,-371.81 651.17,-381 680.99,-388.65 714.03,-397.81 741.22,-405.52"/>
<polygon fill="black" stroke="black" points="740.38,-408.92 750.96,-408.3 742.3,-402.19 740.38,-408.92"/>
<text text-anchor="middle" x="610.67" y="-384.8" font-family="Times,serif" font-size="14.00">type</text>
</g>
<!-- &quot;This is the EOV spec...&quot; -->
<g id="node5" class="node">
<title>&quot;This is the EOV spec...&quot;</title>
<ellipse fill="none" stroke="black" stroke-width="0" cx="799.16" cy="-330" rx="124.28" ry="18"/>
<text text-anchor="middle" x="799.16" y="-326.3" font-family="Times,serif" font-size="14.00">&quot;This is the EOV spec...&quot;</text>
</g>
<!-- _&#45;&gt;&quot;This is the EOV spec...&quot; -->
<g id="edge6" class="edge">
<title>_&#45;&gt;&quot;This is the EOV spec...&quot;</title>
<path fill="none" stroke="black" d="M521.25,-266.06C530.43,-275.56 542.29,-288.22 552.17,-300 560.73,-310.22 558.32,-317.88 570.17,-324 613.08,-346.17 666.87,-348.57 711.43,-345.01"/>
<polygon fill="black" stroke="black" points="712.02,-348.47 721.66,-344.08 711.38,-341.5 712.02,-348.47"/>
<text text-anchor="middle" x="610.67" y="-347.8" font-family="Times,serif" font-size="14.00">description</text>
</g>
<!-- _&#45;&gt;&quot;This is the EOV spec...&quot; -->
<g id="edge10" class="edge">
<title>_&#45;&gt;&quot;This is the EOV spec...&quot;</title>
<path fill="none" stroke="black" d="M529.25,-259.43C541.33,-263.75 556.46,-268.93 570.17,-273 619.98,-287.79 676.67,-301.97 721.05,-312.49"/>
<polygon fill="black" stroke="black" points="720.36,-315.92 730.9,-314.81 721.97,-309.11 720.36,-315.92"/>
<text text-anchor="middle" x="610.67" y="-298.8" font-family="Times,serif" font-size="14.00">description</text>
</g>
<!-- &quot;Ocean Observations P...&quot; -->
<g id="node6" class="node">
<title>&quot;Ocean Observations P...&quot;</title>
<ellipse fill="none" stroke="black" stroke-width="0" cx="799.16" cy="-259" rx="128.88" ry="18"/>
<text text-anchor="middle" x="799.16" y="-255.3" font-family="Times,serif" font-size="14.00">&quot;Ocean Observations P...&quot;</text>
</g>
<!-- _&#45;&gt;&quot;Ocean Observations P...&quot; -->
<g id="edge7" class="edge">
<title>_&#45;&gt;&quot;Ocean Observations P...&quot;</title>
<path fill="none" stroke="black" d="M532.52,-251.72C562.29,-252.53 613.22,-253.93 662.56,-255.28"/>
<polygon fill="black" stroke="black" points="662.64,-258.79 672.73,-255.56 662.83,-251.79 662.64,-258.79"/>
<text text-anchor="middle" x="610.67" y="-257.8" font-family="Times,serif" font-size="14.00">name</text>
</g>
<!-- _&#45;&gt;&quot;Ocean Observations P...&quot; -->
<g id="edge11" class="edge">
<title>_&#45;&gt;&quot;Ocean Observations P...&quot;</title>
<path fill="none" stroke="black" d="M529.67,-242.76C541.62,-238.97 556.49,-234.89 570.17,-233 621.9,-225.84 680.43,-232.83 725.23,-241.36"/>
<polygon fill="black" stroke="black" points="724.66,-244.81 735.15,-243.31 726.02,-237.94 724.66,-244.81"/>
<text text-anchor="middle" x="610.67" y="-236.8" font-family="Times,serif" font-size="14.00">name</text>
</g>
<!-- &quot;http//www.goosocean....&quot; -->
<g id="node7" class="node">
<title>&quot;http//www.goosocean....&quot;</title>
<ellipse fill="none" stroke="black" stroke-width="0" cx="799.16" cy="-187" rx="129.98" ry="18"/>
<text text-anchor="middle" x="799.16" y="-183.3" font-family="Times,serif" font-size="14.00">&quot;http//www.goosocean....&quot;</text>
</g>
<!-- _&#45;&gt;&quot;http//www.goosocean....&quot; -->
<g id="edge8" class="edge">
<title>_&#45;&gt;&quot;http//www.goosocean....&quot;</title>
<path fill="none" stroke="black" d="M523.4,-237.29C535.66,-228.21 552.99,-216.93 570.17,-211 598.73,-201.14 630.4,-195.02 660.83,-191.28"/>
<polygon fill="black" stroke="black" points="661.55,-194.72 671.09,-190.1 660.76,-187.77 661.55,-194.72"/>
<text text-anchor="middle" x="610.67" y="-214.8" font-family="Times,serif" font-size="14.00">url</text>
</g>
<!-- _&#45;&gt;&quot;http//www.goosocean....&quot; -->
<g id="edge12" class="edge">
<title>_&#45;&gt;&quot;http//www.goosocean....&quot;</title>
<path fill="none" stroke="black" d="M514.63,-234.02C524.78,-215.34 543.93,-186.33 570.17,-174 622.25,-149.51 688.58,-156.98 736.25,-168.03"/>
<polygon fill="black" stroke="black" points="735.58,-171.47 746.13,-170.44 737.24,-164.67 735.58,-171.47"/>
<text text-anchor="middle" x="610.67" y="-177.8" font-family="Times,serif" font-size="14.00">url</text>
</g>
<!-- &quot;QA/QC &#160;&#45; EOV data an...&quot; -->
<g id="node8" class="node">
<title>&quot;QA/QC &#160;&#45; EOV data an...&quot;</title>
<ellipse fill="none" stroke="black" stroke-width="0" cx="799.16" cy="-126" rx="128.88" ry="18"/>
<text text-anchor="middle" x="799.16" y="-122.3" font-family="Times,serif" font-size="14.00">&quot;QA/QC &#160;&#45; EOV data an...&quot;</text>
</g>
<!-- _&#45;&gt;&quot;QA/QC &#160;&#45; EOV data an...&quot; -->
<g id="edge14" class="edge">
<title>_&#45;&gt;&quot;QA/QC &#160;&#45; EOV data an...&quot;</title>
<path fill="none" stroke="black" d="M510.73,-233.29C518.11,-207.49 535.74,-160.34 570.17,-139 609.79,-114.43 661.12,-109.69 705.03,-111.75"/>
<polygon fill="black" stroke="black" points="704.96,-115.25 715.15,-112.35 705.38,-108.26 704.96,-115.25"/>
<text text-anchor="middle" x="610.67" y="-142.8" font-family="Times,serif" font-size="14.00">description</text>
</g>
<!-- &quot;QA/QC guidance&quot; -->
<g id="node9" class="node">
<title>&quot;QA/QC guidance&quot;</title>
<ellipse fill="none" stroke="black" stroke-width="0" cx="799.16" cy="-72" rx="94.78" ry="18"/>
<text text-anchor="middle" x="799.16" y="-68.3" font-family="Times,serif" font-size="14.00">&quot;QA/QC guidance&quot;</text>
</g>
<!-- _&#45;&gt;&quot;QA/QC guidance&quot; -->
<g id="edge15" class="edge">
<title>_&#45;&gt;&quot;QA/QC guidance&quot;</title>
<path fill="none" stroke="black" d="M507.9,-232.93C511.78,-199.56 525.16,-128.62 570.17,-95 610.55,-64.83 666.81,-58.89 713.33,-60.59"/>
<polygon fill="black" stroke="black" points="713.25,-64.09 723.41,-61.08 713.59,-57.1 713.25,-64.09"/>
<text text-anchor="middle" x="610.67" y="-98.8" font-family="Times,serif" font-size="14.00">name</text>
</g>
<!-- &quot;http//example.org/id...&quot; -->
<g id="node10" class="node">
<title>&quot;http//example.org/id...&quot;</title>
<ellipse fill="none" stroke="black" stroke-width="0" cx="799.16" cy="-18" rx="122.68" ry="18"/>
<text text-anchor="middle" x="799.16" y="-14.3" font-family="Times,serif" font-size="14.00">&quot;http//example.org/id...&quot;</text>
</g>
<!-- _&#45;&gt;&quot;http//example.org/id...&quot; -->
<g id="edge16" class="edge">
<title>_&#45;&gt;&quot;http//example.org/id...&quot;</title>
<path fill="none" stroke="black" d="M505.98,-232.72C506.19,-192.02 512.94,-93.78 570.17,-46 602.97,-18.61 648.26,-9.25 689.84,-7.61"/>
<polygon fill="black" stroke="black" points="690.13,-11.11 700.04,-7.36 689.96,-4.11 690.13,-11.11"/>
<text text-anchor="middle" x="610.67" y="-49.8" font-family="Times,serif" font-size="14.00">url</text>
</g>
</g>
</svg>
