<?xml version="1.0" encoding="UTF-8" standalone="no"?>
<!DOCTYPE svg PUBLIC "-//W3C//DTD SVG 1.1//EN"
 "http://www.w3.org/Graphics/SVG/1.1/DTD/svg11.dtd">
<!-- Generated by graphviz version 2.44.0 (0)
 -->
<!-- Pages: 1 -->
<svg width="634pt" height="255pt"
 viewBox="0.00 0.00 633.98 255.00" xmlns="http://www.w3.org/2000/svg" xmlns:xlink="http://www.w3.org/1999/xlink">
<g id="graph0" class="graph" transform="scale(1 1) rotate(0) translate(4 251)">
<polygon fill="white" stroke="transparent" points="-4,4 -4,-251 629.98,-251 629.98,4 -4,4"/>
<text text-anchor="middle" x="312.99" y="-22.8" font-family="Times-Roman" font-size="14.00">Model:</text>
<text text-anchor="middle" x="312.99" y="-7.8" font-family="Times-Roman" font-size="14.00">https://iode.org/</text>
<!-- Rhttp://example.com/queen -->
<g id="node1" class="node">
<title>Rhttp://example.com/queen</title>
<ellipse fill="none" stroke="blue" cx="129.99" cy="-158.5" rx="129.98" ry="18"/>
<text text-anchor="middle" x="129.99" y="-154.8" font-family="Times-Roman" font-size="14.00">http://example.com/queen</text>
</g>
<!-- LDie Königin|Language: de -->
<g id="node2" class="node">
<title>LDie Königin|Language: de</title>
<polygon fill="none" stroke="black" points="514.98,-200.5 514.98,-246.5 625.98,-246.5 625.98,-200.5 514.98,-200.5"/>
<text text-anchor="middle" x="570.48" y="-231.3" font-family="Times-Roman" font-size="14.00">Die Königin</text>
<polyline fill="none" stroke="black" points="514.98,-223.5 625.98,-223.5 "/>
<text text-anchor="middle" x="570.48" y="-208.3" font-family="Times-Roman" font-size="14.00">Language: de</text>
</g>
<!-- Rhttp://example.com/queen&#45;&gt;LDie Königin|Language: de -->
<g id="edge1" class="edge">
<title>Rhttp://example.com/queen&#45;&gt;LDie Königin|Language: de</title>
<path fill="none" stroke="black" stroke-dasharray="1,5" d="M219.46,-171.61C303.8,-184.12 428.84,-202.65 504.4,-213.85"/>
<polygon fill="black" stroke="black" points="504.32,-217.38 514.73,-215.38 505.35,-210.46 504.32,-217.38"/>
<text text-anchor="middle" x="387.48" y="-216.3" font-family="Times-Roman" font-size="14.00">http://example.com/vocab/label</text>
</g>
<!-- LIhre Majestät|Language: de -->
<g id="node3" class="node">
<title>LIhre Majestät|Language: de</title>
<polygon fill="none" stroke="black" points="514.98,-135.5 514.98,-181.5 625.98,-181.5 625.98,-135.5 514.98,-135.5"/>
<text text-anchor="middle" x="570.48" y="-166.3" font-family="Times-Roman" font-size="14.00">Ihre Majestät</text>
<polyline fill="none" stroke="black" points="514.98,-158.5 625.98,-158.5 "/>
<text text-anchor="middle" x="570.48" y="-143.3" font-family="Times-Roman" font-size="14.00">Language: de</text>
</g>
<!-- Rhttp://example.com/queen&#45;&gt;LIhre Majestät|Language: de -->
<g id="edge2" class="edge">
<title>Rhttp://example.com/queen&#45;&gt;LIhre Majestät|Language: de</title>
<path fill="none" stroke="black" stroke-dasharray="1,5" d="M260.18,-158.5C340.46,-158.5 440.25,-158.5 504.39,-158.5"/>
<polygon fill="black" stroke="black" points="504.77,-162 514.77,-158.5 504.77,-155 504.77,-162"/>
<text text-anchor="middle" x="387.48" y="-162.3" font-family="Times-Roman" font-size="14.00">http://example.com/vocab/label</text>
</g>
<!-- LThe Queen|Language: en -->
<g id="node4" class="node">
<title>LThe Queen|Language: en</title>
<polygon fill="none" stroke="black" points="514.98,-70.5 514.98,-116.5 625.98,-116.5 625.98,-70.5 514.98,-70.5"/>
<text text-anchor="middle" x="570.48" y="-101.3" font-family="Times-Roman" font-size="14.00">The Queen</text>
<polyline fill="none" stroke="black" points="514.98,-93.5 625.98,-93.5 "/>
<text text-anchor="middle" x="570.48" y="-78.3" font-family="Times-Roman" font-size="14.00">Language: en</text>
</g>
<!-- Rhttp://example.com/queen&#45;&gt;LThe Queen|Language: en -->
<g id="edge3" class="edge">
<title>Rhttp://example.com/queen&#45;&gt;LThe Queen|Language: en</title>
<path fill="none" stroke="black" stroke-dasharray="1,5" d="M219.46,-145.39C303.8,-132.88 428.84,-114.35 504.4,-103.15"/>
<polygon fill="black" stroke="black" points="505.35,-106.54 514.73,-101.62 504.32,-99.62 505.35,-106.54"/>
<text text-anchor="middle" x="387.48" y="-139.3" font-family="Times-Roman" font-size="14.00">http://example.com/vocab/label</text>
</g>
</g>
</svg>
