<?xml version="1.0" encoding="UTF-8" standalone="no"?>
<!DOCTYPE svg PUBLIC "-//W3C//DTD SVG 1.1//EN"
 "http://www.w3.org/Graphics/SVG/1.1/DTD/svg11.dtd">
<!-- Generated by graphviz version 5.0.0 (0)
 -->
<!-- Pages: 1 -->
<svg width="1093pt" height="1247pt"
 viewBox="0.00 0.00 1093.23 1246.56" xmlns="http://www.w3.org/2000/svg" xmlns:xlink="http://www.w3.org/1999/xlink">
<g id="graph0" class="graph" transform="scale(1 1) rotate(0) translate(4 1242.56)">
<polygon fill="white" stroke="transparent" points="-4,4 -4,-1242.56 1089.23,-1242.56 1089.23,4 -4,4"/>
<!-- Course -->
<g id="node1" class="node">
<title>Course</title>
<ellipse fill="none" stroke="#558855" cx="947.44" cy="-1220.56" rx="43.59" ry="18"/>
<text text-anchor="middle" x="947.44" y="-1216.86" font-family="Times,serif" font-size="14.00">Course</text>
</g>
<!-- example.org/id/course/x -->
<g id="node2" class="node">
<title>example.org/id/course/x</title>
<ellipse fill="none" stroke="#558855" cx="485.72" cy="-1139.56" rx="122.38" ry="18"/>
<text text-anchor="middle" x="485.72" y="-1135.86" font-family="Times,serif" font-size="14.00">example.org/id/course/x</text>
</g>
<!-- example.org/id/course/x&#45;&gt;Course -->
<g id="edge1" class="edge">
<title>example.org/id/course/x&#45;&gt;Course</title>
<path fill="none" stroke="black" d="M555.12,-1154.4C587.37,-1161.2 626.42,-1169.15 661.66,-1175.56 743.25,-1190.39 838.52,-1204.87 895.59,-1213.24"/>
<polygon fill="black" stroke="black" points="895.38,-1216.75 905.79,-1214.74 896.4,-1209.83 895.38,-1216.75"/>
<text text-anchor="middle" x="726.66" y="-1200.36" font-family="Times,serif" font-size="14.00">type</text>
</g>
<!-- &quot;In this course ...&quot; -->
<g id="node3" class="node">
<title>&quot;In this course ...&quot;</title>
<ellipse fill="none" stroke="black" stroke-width="0" cx="947.44" cy="-1166.56" rx="94.78" ry="18"/>
<text text-anchor="middle" x="947.44" y="-1162.86" font-family="Times,serif" font-size="14.00">&quot;In this course ...&quot;</text>
</g>
<!-- example.org/id/course/x&#45;&gt;&quot;In this course ...&quot; -->
<g id="edge2" class="edge">
<title>example.org/id/course/x&#45;&gt;&quot;In this course ...&quot;</title>
<path fill="none" stroke="black" d="M599.48,-1146.18C675.01,-1150.61 773.57,-1156.4 846.33,-1160.68"/>
<polygon fill="black" stroke="black" points="846.23,-1164.18 856.42,-1161.27 846.64,-1157.19 846.23,-1164.18"/>
<text text-anchor="middle" x="726.66" y="-1160.36" font-family="Times,serif" font-size="14.00">description</text>
</g>
<!-- &quot;URL to the course&quot; -->
<g id="node4" class="node">
<title>&quot;URL to the course&quot;</title>
<ellipse fill="none" stroke="black" stroke-width="0" cx="947.44" cy="-1112.56" rx="103.98" ry="18"/>
<text text-anchor="middle" x="947.44" y="-1108.86" font-family="Times,serif" font-size="14.00">&quot;URL to the course&quot;</text>
</g>
<!-- example.org/id/course/x&#45;&gt;&quot;URL to the course&quot; -->
<g id="edge3" class="edge">
<title>example.org/id/course/x&#45;&gt;&quot;URL to the course&quot;</title>
<path fill="none" stroke="black" d="M599.48,-1132.93C672.34,-1128.65 766.64,-1123.12 838.53,-1118.89"/>
<polygon fill="black" stroke="black" points="838.74,-1122.39 848.52,-1118.31 838.33,-1115.4 838.74,-1122.39"/>
<text text-anchor="middle" x="726.66" y="-1132.36" font-family="Times,serif" font-size="14.00">url</text>
</g>
<!-- Person -->
<g id="node5" class="node">
<title>Person</title>
<ellipse fill="none" stroke="#558855" cx="485.72" cy="-977.56" rx="42.49" ry="18"/>
<text text-anchor="middle" x="485.72" y="-973.86" font-family="Times,serif" font-size="14.00">Person</text>
</g>
<!-- example.org/id/x -->
<g id="node6" class="node">
<title>example.org/id/x</title>
<ellipse fill="none" stroke="black" cx="88.39" cy="-621.56" rx="88.28" ry="18"/>
<text text-anchor="middle" x="88.39" y="-617.86" font-family="Times,serif" font-size="14.00">example.org/id/x</text>
</g>
<!-- example.org/id/x&#45;&gt;example.org/id/course/x -->
<g id="edge7" class="edge">
<title>example.org/id/x&#45;&gt;example.org/id/course/x</title>
<path fill="none" stroke="black" d="M90.63,-639.77C95.17,-694.13 115.1,-857.79 194.78,-960.56 256.2,-1039.76 363.31,-1092.52 428.73,-1119.16"/>
<polygon fill="black" stroke="black" points="427.49,-1122.43 438.07,-1122.9 430.09,-1115.93 427.49,-1122.43"/>
<text text-anchor="middle" x="252.28" y="-1060.36" font-family="Times,serif" font-size="14.00">knowsAbout</text>
</g>
<!-- example.org/id/x&#45;&gt;Person -->
<g id="edge4" class="edge">
<title>example.org/id/x&#45;&gt;Person</title>
<path fill="none" stroke="black" d="M94.47,-639.76C106.55,-680.66 140.14,-781.58 194.78,-849.56 241.29,-907.4 259.71,-920.97 327.78,-950.56 361.16,-965.06 401.7,-971.78 433.21,-974.9"/>
<polygon fill="black" stroke="black" points="433.26,-978.42 443.53,-975.82 433.89,-971.44 433.26,-978.42"/>
<text text-anchor="middle" x="252.28" y="-945.36" font-family="Times,serif" font-size="14.00">type</text>
</g>
<!-- orcid.org/0000&#45;0002&#45;2257&#45;9127 -->
<g id="node7" class="node">
<title>orcid.org/0000&#45;0002&#45;2257&#45;9127</title>
<ellipse fill="none" stroke="#558855" cx="485.72" cy="-923.56" rx="157.87" ry="18"/>
<text text-anchor="middle" x="485.72" y="-919.86" font-family="Times,serif" font-size="14.00">orcid.org/0000&#45;0002&#45;2257&#45;9127</text>
</g>
<!-- example.org/id/x&#45;&gt;orcid.org/0000&#45;0002&#45;2257&#45;9127 -->
<g id="edge5" class="edge">
<title>example.org/id/x&#45;&gt;orcid.org/0000&#45;0002&#45;2257&#45;9127</title>
<path fill="none" stroke="black" d="M101.02,-639.48C118.88,-666.03 155.15,-716.36 194.78,-750.56 271.45,-816.71 376.68,-872.36 437.01,-901.56"/>
<polygon fill="black" stroke="black" points="435.76,-904.84 446.29,-906.02 438.79,-898.53 435.76,-904.84"/>
<text text-anchor="middle" x="252.28" y="-834.36" font-family="Times,serif" font-size="14.00">identifier</text>
</g>
<!-- &quot;Professor&quot; -->
<g id="node8" class="node">
<title>&quot;Professor&quot;</title>
<ellipse fill="none" stroke="black" stroke-width="0" cx="485.72" cy="-735.56" rx="63.89" ry="18"/>
<text text-anchor="middle" x="485.72" y="-731.86" font-family="Times,serif" font-size="14.00">&quot;Professor&quot;</text>
</g>
<!-- example.org/id/x&#45;&gt;&quot;Professor&quot; -->
<g id="edge6" class="edge">
<title>example.org/id/x&#45;&gt;&quot;Professor&quot;</title>
<path fill="none" stroke="black" d="M105.69,-639.36C124.89,-659.03 158.76,-689.88 194.78,-704.56 265.03,-733.17 352.37,-738.91 412.73,-738.75"/>
<polygon fill="black" stroke="black" points="412.95,-742.24 422.92,-738.66 412.89,-735.24 412.95,-742.24"/>
<text text-anchor="middle" x="252.28" y="-735.36" font-family="Times,serif" font-size="14.00">jobTitle</text>
</g>
<!-- _ -->
<g id="node9" class="node">
<title>_</title>
<ellipse fill="none" stroke="#558855" cx="485.72" cy="-545.56" rx="27" ry="18"/>
<text text-anchor="middle" x="485.72" y="-541.86" font-family="Times,serif" font-size="14.00">_</text>
</g>
<!-- example.org/id/x&#45;&gt;_ -->
<g id="edge8" class="edge">
<title>example.org/id/x&#45;&gt;_</title>
<path fill="none" stroke="black" d="M114.88,-639C135.43,-651.94 165.61,-668.52 194.78,-675.56 244.47,-687.54 261.26,-691.61 309.78,-675.56 373.7,-654.41 433.27,-599.86 463.66,-568.56"/>
<polygon fill="black" stroke="black" points="466.38,-570.78 470.75,-561.13 461.31,-565.95 466.38,-570.78"/>
<text text-anchor="middle" x="252.28" y="-689.36" font-family="Times,serif" font-size="14.00">knowsAbout</text>
</g>
<!-- example.org/id/x&#45;&gt;_ -->
<g id="edge9" class="edge">
<title>example.org/id/x&#45;&gt;_</title>
<path fill="none" stroke="black" d="M145.92,-635.23C190.93,-643.84 255.22,-651.03 309.78,-637.56 366.73,-623.49 425.62,-587.2 458.47,-564.62"/>
<polygon fill="black" stroke="black" points="460.83,-567.25 467.02,-558.65 456.82,-561.51 460.83,-567.25"/>
<text text-anchor="middle" x="252.28" y="-648.36" font-family="Times,serif" font-size="14.00">knowsAbout</text>
</g>
<!-- example.org/id/x&#45;&gt;_ -->
<g id="edge10" class="edge">
<title>example.org/id/x&#45;&gt;_</title>
<path fill="none" stroke="black" d="M174.23,-617.07C215.44,-613.88 265.5,-608.51 309.78,-599.56 360.54,-589.3 417.54,-570.22 452.29,-557.71"/>
<polygon fill="black" stroke="black" points="453.7,-560.92 461.9,-554.21 451.3,-554.35 453.7,-560.92"/>
<text text-anchor="middle" x="252.28" y="-618.36" font-family="Times,serif" font-size="14.00">knowsLanguage</text>
</g>
<!-- example.org/id/x&#45;&gt;_ -->
<g id="edge12" class="edge">
<title>example.org/id/x&#45;&gt;_</title>
<path fill="none" stroke="black" d="M125.24,-605.02C145.29,-596.44 170.98,-586.52 194.78,-580.56 242.05,-568.71 381.8,-554.92 448.5,-548.78"/>
<polygon fill="black" stroke="black" points="448.91,-552.26 458.55,-547.87 448.27,-545.29 448.91,-552.26"/>
<text text-anchor="middle" x="252.28" y="-584.36" font-family="Times,serif" font-size="14.00">nationality</text>
</g>
<!-- example.org/id/x&#45;&gt;_ -->
<g id="edge13" class="edge">
<title>example.org/id/x&#45;&gt;_</title>
<path fill="none" stroke="black" d="M106.01,-603.8C125.24,-584.67 158.9,-555.39 194.78,-543.56 282.81,-514.53 394.2,-528.29 449.81,-538.31"/>
<polygon fill="black" stroke="black" points="449.37,-541.79 459.85,-540.19 450.66,-534.91 449.37,-541.79"/>
<text text-anchor="middle" x="252.28" y="-547.36" font-family="Times,serif" font-size="14.00">nationality</text>
</g>
<!-- example.org/id/x&#45;&gt;_ -->
<g id="edge16" class="edge">
<title>example.org/id/x&#45;&gt;_</title>
<path fill="none" stroke="black" d="M99.41,-603.26C115.43,-576.16 149.67,-526.4 194.78,-506.56 241.57,-485.97 258.98,-500.96 309.78,-506.56 359.61,-512.04 416,-526.07 450.96,-535.71"/>
<polygon fill="black" stroke="black" points="450.09,-539.1 460.66,-538.43 451.98,-532.36 450.09,-539.1"/>
<text text-anchor="middle" x="252.28" y="-510.36" font-family="Times,serif" font-size="14.00">workLocation</text>
</g>
<!-- &quot;Jane Doe&quot; -->
<g id="node10" class="node">
<title>&quot;Jane Doe&quot;</title>
<ellipse fill="none" stroke="black" stroke-width="0" cx="485.72" cy="-477.56" rx="60.39" ry="18"/>
<text text-anchor="middle" x="485.72" y="-473.86" font-family="Times,serif" font-size="14.00">&quot;Jane Doe&quot;</text>
</g>
<!-- example.org/id/x&#45;&gt;&quot;Jane Doe&quot; -->
<g id="edge11" class="edge">
<title>example.org/id/x&#45;&gt;&quot;Jane Doe&quot;</title>
<path fill="none" stroke="black" d="M96.08,-603.48C109.22,-570.97 141.82,-503.54 194.78,-476.56 269.56,-438.46 369.91,-450.41 430.81,-463.38"/>
<polygon fill="black" stroke="black" points="430.08,-466.8 440.6,-465.54 431.59,-459.97 430.08,-466.8"/>
<text text-anchor="middle" x="252.28" y="-480.36" font-family="Times,serif" font-size="14.00">name</text>
</g>
<!-- &quot;(425) 123&#45;4567&quot; -->
<g id="node11" class="node">
<title>&quot;(425) 123&#45;4567&quot;</title>
<ellipse fill="none" stroke="black" stroke-width="0" cx="485.72" cy="-423.56" rx="90.98" ry="18"/>
<text text-anchor="middle" x="485.72" y="-419.86" font-family="Times,serif" font-size="14.00">&quot;(425) 123&#45;4567&quot;</text>
</g>
<!-- example.org/id/x&#45;&gt;&quot;(425) 123&#45;4567&quot; -->
<g id="edge14" class="edge">
<title>example.org/id/x&#45;&gt;&quot;(425) 123&#45;4567&quot;</title>
<path fill="none" stroke="black" d="M93.2,-603.29C102.53,-563.72 130.63,-470.53 194.78,-431.56 262.15,-390.63 355.54,-396.76 417.93,-407.7"/>
<polygon fill="black" stroke="black" points="417.59,-411.2 428.06,-409.57 418.86,-404.32 417.59,-411.2"/>
<text text-anchor="middle" x="252.28" y="-435.36" font-family="Times,serif" font-size="14.00">telephone</text>
</g>
<!-- &quot;http//www.janedoe.co...&quot; -->
<g id="node12" class="node">
<title>&quot;http//www.janedoe.co...&quot;</title>
<ellipse fill="none" stroke="black" stroke-width="0" cx="485.72" cy="-369.56" rx="128.08" ry="18"/>
<text text-anchor="middle" x="485.72" y="-365.86" font-family="Times,serif" font-size="14.00">&quot;http//www.janedoe.co...&quot;</text>
</g>
<!-- example.org/id/x&#45;&gt;&quot;http//www.janedoe.co...&quot; -->
<g id="edge15" class="edge">
<title>example.org/id/x&#45;&gt;&quot;http//www.janedoe.co...&quot;</title>
<path fill="none" stroke="black" d="M91.02,-603.29C96.28,-556.7 117.24,-433.41 194.78,-380.56 258.1,-337.4 348.54,-341.65 411.51,-352.2"/>
<polygon fill="black" stroke="black" points="410.92,-355.65 421.37,-353.94 412.14,-348.76 410.92,-355.65"/>
<text text-anchor="middle" x="252.28" y="-384.36" font-family="Times,serif" font-size="14.00">url</text>
</g>
<!-- PropertyValue -->
<g id="node13" class="node">
<title>PropertyValue</title>
<ellipse fill="none" stroke="#558855" cx="947.44" cy="-1058.56" rx="77.19" ry="18"/>
<text text-anchor="middle" x="947.44" y="-1054.86" font-family="Times,serif" font-size="14.00">PropertyValue</text>
</g>
<!-- orcid.org/0000&#45;0002&#45;2257&#45;9127&#45;&gt;PropertyValue -->
<g id="edge17" class="edge">
<title>orcid.org/0000&#45;0002&#45;2257&#45;9127&#45;&gt;PropertyValue</title>
<path fill="none" stroke="black" d="M616.67,-933.79C626.45,-938.09 635.62,-943.58 643.66,-950.56 663.4,-967.7 642.01,-989.31 661.66,-1006.56 716.77,-1054.91 801.55,-1065.04 864.28,-1064.81"/>
<polygon fill="black" stroke="black" points="864.59,-1068.31 874.55,-1064.68 864.5,-1061.31 864.59,-1068.31"/>
<text text-anchor="middle" x="726.66" y="-1062.36" font-family="Times,serif" font-size="14.00">type</text>
</g>
<!-- &quot;Optional description...&quot; -->
<g id="node14" class="node">
<title>&quot;Optional description...&quot;</title>
<ellipse fill="none" stroke="black" stroke-width="0" cx="947.44" cy="-1004.56" rx="122.68" ry="18"/>
<text text-anchor="middle" x="947.44" y="-1000.86" font-family="Times,serif" font-size="14.00">&quot;Optional description...&quot;</text>
</g>
<!-- orcid.org/0000&#45;0002&#45;2257&#45;9127&#45;&gt;&quot;Optional description...&quot; -->
<g id="edge18" class="edge">
<title>orcid.org/0000&#45;0002&#45;2257&#45;9127&#45;&gt;&quot;Optional description...&quot;</title>
<path fill="none" stroke="black" d="M590.77,-937.03C608.63,-940.59 626.84,-945.04 643.66,-950.56 652.15,-953.34 653.14,-956.83 661.66,-959.56 715.84,-976.92 778.06,-987.74 830.49,-994.4"/>
<polygon fill="black" stroke="black" points="830.15,-997.88 840.5,-995.63 831,-990.94 830.15,-997.88"/>
<text text-anchor="middle" x="726.66" y="-991.36" font-family="Times,serif" font-size="14.00">description</text>
</g>
<!-- &quot;https//registry.iden...&quot; -->
<g id="node15" class="node">
<title>&quot;https//registry.iden...&quot;</title>
<ellipse fill="none" stroke="black" stroke-width="0" cx="947.44" cy="-950.56" rx="116.98" ry="18"/>
<text text-anchor="middle" x="947.44" y="-946.86" font-family="Times,serif" font-size="14.00">&quot;https//registry.iden...&quot;</text>
</g>
<!-- orcid.org/0000&#45;0002&#45;2257&#45;9127&#45;&gt;&quot;https//registry.iden...&quot; -->
<g id="edge19" class="edge">
<title>orcid.org/0000&#45;0002&#45;2257&#45;9127&#45;&gt;&quot;https//registry.iden...&quot;</title>
<path fill="none" stroke="black" d="M626.53,-931.77C690.84,-935.54 766.32,-939.98 827.81,-943.59"/>
<polygon fill="black" stroke="black" points="827.75,-947.09 837.94,-944.18 828.17,-940.1 827.75,-947.09"/>
<text text-anchor="middle" x="726.66" y="-944.36" font-family="Times,serif" font-size="14.00">propertyID</text>
</g>
<!-- &quot;https//orcid.org/000...&quot; -->
<g id="node16" class="node">
<title>&quot;https//orcid.org/000...&quot;</title>
<ellipse fill="none" stroke="black" stroke-width="0" cx="947.44" cy="-896.56" rx="120.78" ry="18"/>
<text text-anchor="middle" x="947.44" y="-892.86" font-family="Times,serif" font-size="14.00">&quot;https//orcid.org/000...&quot;</text>
</g>
<!-- orcid.org/0000&#45;0002&#45;2257&#45;9127&#45;&gt;&quot;https//orcid.org/000...&quot; -->
<g id="edge20" class="edge">
<title>orcid.org/0000&#45;0002&#45;2257&#45;9127&#45;&gt;&quot;https//orcid.org/000...&quot;</title>
<path fill="none" stroke="black" d="M626.53,-915.34C689.71,-911.63 763.68,-907.29 824.57,-903.71"/>
<polygon fill="black" stroke="black" points="824.83,-907.2 834.61,-903.12 824.42,-900.22 824.83,-907.2"/>
<text text-anchor="middle" x="726.66" y="-916.36" font-family="Times,serif" font-size="14.00">url</text>
</g>
<!-- DefinedTerm -->
<g id="node17" class="node">
<title>DefinedTerm</title>
<ellipse fill="none" stroke="#558855" cx="947.44" cy="-842.56" rx="70.39" ry="18"/>
<text text-anchor="middle" x="947.44" y="-838.86" font-family="Times,serif" font-size="14.00">DefinedTerm</text>
</g>
<!-- _&#45;&gt;DefinedTerm -->
<g id="edge21" class="edge">
<title>_&#45;&gt;DefinedTerm</title>
<path fill="none" stroke="black" d="M504.93,-558.37C538.54,-583.13 609.98,-641.07 643.66,-708.56 666.17,-753.67 624.57,-786.4 661.66,-820.56 721.99,-876.12 823.24,-869.07 887.35,-857.12"/>
<polygon fill="black" stroke="black" points="888.17,-860.52 897.31,-855.17 886.83,-853.65 888.17,-860.52"/>
<text text-anchor="middle" x="726.66" y="-868.36" font-family="Times,serif" font-size="14.00">type</text>
</g>
<!-- &quot;UN/LOCODE Code List ...&quot; -->
<g id="node18" class="node">
<title>&quot;UN/LOCODE Code List ...&quot;</title>
<ellipse fill="none" stroke="black" stroke-width="0" cx="947.44" cy="-788.56" rx="137.58" ry="18"/>
<text text-anchor="middle" x="947.44" y="-784.86" font-family="Times,serif" font-size="14.00">&quot;UN/LOCODE Code List ...&quot;</text>
</g>
<!-- _&#45;&gt;&quot;UN/LOCODE Code List ...&quot; -->
<g id="edge22" class="edge">
<title>_&#45;&gt;&quot;UN/LOCODE Code List ...&quot;</title>
<path fill="none" stroke="black" d="M503.92,-558.92C535.86,-584.6 604.61,-644.02 643.66,-708.56 656.75,-730.2 641.83,-746.84 661.66,-762.56 715.75,-805.42 795.07,-809.4 856.27,-804.08"/>
<polygon fill="black" stroke="black" points="856.7,-807.56 866.31,-803.11 856.03,-800.59 856.7,-807.56"/>
<text text-anchor="middle" x="726.66" y="-808.36" font-family="Times,serif" font-size="14.00">inDefinedTermSet</text>
</g>
<!-- &quot;Fiji&quot; -->
<g id="node19" class="node">
<title>&quot;Fiji&quot;</title>
<ellipse fill="none" stroke="black" stroke-width="0" cx="947.44" cy="-734.56" rx="34.39" ry="18"/>
<text text-anchor="middle" x="947.44" y="-730.86" font-family="Times,serif" font-size="14.00">&quot;Fiji&quot;</text>
</g>
<!-- _&#45;&gt;&quot;Fiji&quot; -->
<g id="edge23" class="edge">
<title>_&#45;&gt;&quot;Fiji&quot;</title>
<path fill="none" stroke="black" d="M497.43,-561.99C521.66,-597.57 584.67,-681.28 661.66,-715.56 741.35,-751.03 846.11,-746.7 903.78,-740.54"/>
<polygon fill="black" stroke="black" points="904.44,-743.98 913.98,-739.37 903.65,-737.03 904.44,-743.98"/>
<text text-anchor="middle" x="726.66" y="-747.36" font-family="Times,serif" font-size="14.00">name</text>
</g>
<!-- _&#45;&gt;&quot;Fiji&quot; -->
<g id="edge29" class="edge">
<title>_&#45;&gt;&quot;Fiji&quot;</title>
<path fill="none" stroke="black" d="M502.26,-559.82C531.29,-585.65 596.69,-640.13 661.66,-668.56 715.8,-692.25 736.78,-674.61 791.66,-696.56 800.36,-700.04 800.92,-704.15 809.66,-707.56 839.85,-719.33 875.88,-726.17 903.38,-730.02"/>
<polygon fill="black" stroke="black" points="903.1,-733.52 913.47,-731.36 904.02,-726.58 903.1,-733.52"/>
<text text-anchor="middle" x="726.66" y="-700.36" font-family="Times,serif" font-size="14.00">name</text>
</g>
<!-- &quot;FJ&quot; -->
<g id="node20" class="node">
<title>&quot;FJ&quot;</title>
<ellipse fill="none" stroke="black" stroke-width="0" cx="947.44" cy="-680.56" rx="29.5" ry="18"/>
<text text-anchor="middle" x="947.44" y="-676.86" font-family="Times,serif" font-size="14.00">&quot;FJ&quot;</text>
</g>
<!-- _&#45;&gt;&quot;FJ&quot; -->
<g id="edge24" class="edge">
<title>_&#45;&gt;&quot;FJ&quot;</title>
<path fill="none" stroke="black" d="M507.74,-556.31C540.07,-572.47 604.29,-603.09 661.66,-621.56 725.72,-642.17 743.75,-639.93 809.66,-653.56 843.39,-660.53 881.89,-668.1 909.44,-673.44"/>
<polygon fill="black" stroke="black" points="908.94,-676.91 919.42,-675.37 910.27,-670.03 908.94,-676.91"/>
<text text-anchor="middle" x="726.66" y="-653.36" font-family="Times,serif" font-size="14.00">termCode</text>
</g>
<!-- &quot;https//unece.org/tra...&quot; -->
<g id="node21" class="node">
<title>&quot;https//unece.org/tra...&quot;</title>
<ellipse fill="none" stroke="black" stroke-width="0" cx="947.44" cy="-626.56" rx="120.78" ry="18"/>
<text text-anchor="middle" x="947.44" y="-622.86" font-family="Times,serif" font-size="14.00">&quot;https//unece.org/tra...&quot;</text>
</g>
<!-- _&#45;&gt;&quot;https//unece.org/tra...&quot; -->
<g id="edge25" class="edge">
<title>_&#45;&gt;&quot;https//unece.org/tra...&quot;</title>
<path fill="none" stroke="black" d="M511.56,-551.05C545.41,-558.44 607.96,-571.79 661.66,-581.56 724.25,-592.93 794.88,-604.11 850.14,-612.47"/>
<polygon fill="black" stroke="black" points="849.87,-615.97 860.28,-614 850.91,-609.05 849.87,-615.97"/>
<text text-anchor="middle" x="726.66" y="-606.36" font-family="Times,serif" font-size="14.00">url</text>
</g>
<!-- URL -->
<g id="node22" class="node">
<title>URL</title>
<ellipse fill="none" stroke="#558855" cx="947.44" cy="-572.56" rx="31.4" ry="18"/>
<text text-anchor="middle" x="947.44" y="-568.86" font-family="Times,serif" font-size="14.00">URL</text>
</g>
<!-- _&#45;&gt;URL -->
<g id="edge26" class="edge">
<title>_&#45;&gt;URL</title>
<path fill="none" stroke="black" d="M512.75,-547.08C589.3,-551.58 814,-564.78 906.23,-570.19"/>
<polygon fill="black" stroke="black" points="906.1,-573.69 916.29,-570.78 906.51,-566.7 906.1,-573.69"/>
<text text-anchor="middle" x="726.66" y="-566.36" font-family="Times,serif" font-size="14.00">type</text>
</g>
<!-- &quot;https//www.wikidata....&quot; -->
<g id="node23" class="node">
<title>&quot;https//www.wikidata....&quot;</title>
<ellipse fill="none" stroke="black" stroke-width="0" cx="947.44" cy="-518.56" rx="126.18" ry="18"/>
<text text-anchor="middle" x="947.44" y="-514.86" font-family="Times,serif" font-size="14.00">&quot;https//www.wikidata....&quot;</text>
</g>
<!-- _&#45;&gt;&quot;https//www.wikidata....&quot; -->
<g id="edge27" class="edge">
<title>_&#45;&gt;&quot;https//www.wikidata....&quot;</title>
<path fill="none" stroke="black" d="M512.75,-544.03C570.86,-540.61 714.33,-532.19 820.43,-525.96"/>
<polygon fill="black" stroke="black" points="820.79,-529.44 830.57,-525.36 820.38,-522.45 820.79,-529.44"/>
<text text-anchor="middle" x="726.66" y="-538.36" font-family="Times,serif" font-size="14.00">url</text>
</g>
<!-- Country -->
<g id="node24" class="node">
<title>Country</title>
<ellipse fill="none" stroke="#558855" cx="947.44" cy="-464.56" rx="48.19" ry="18"/>
<text text-anchor="middle" x="947.44" y="-460.86" font-family="Times,serif" font-size="14.00">Country</text>
</g>
<!-- _&#45;&gt;Country -->
<g id="edge28" class="edge">
<title>_&#45;&gt;Country</title>
<path fill="none" stroke="black" d="M511.55,-539.85C545.38,-532.19 607.91,-518.38 661.66,-508.56 741.51,-493.95 834.54,-480.19 891.97,-472.06"/>
<polygon fill="black" stroke="black" points="892.51,-475.52 901.92,-470.66 891.53,-468.59 892.51,-475.52"/>
<text text-anchor="middle" x="726.66" y="-512.36" font-family="Times,serif" font-size="14.00">type</text>
</g>
<!-- Language -->
<g id="node25" class="node">
<title>Language</title>
<ellipse fill="none" stroke="#558855" cx="947.44" cy="-410.56" rx="55.79" ry="18"/>
<text text-anchor="middle" x="947.44" y="-406.86" font-family="Times,serif" font-size="14.00">Language</text>
</g>
<!-- _&#45;&gt;Language -->
<g id="edge30" class="edge">
<title>_&#45;&gt;Language</title>
<path fill="none" stroke="black" d="M513,-545.13C546.77,-543.27 605.6,-535.42 643.66,-504.56 657.55,-493.29 647.49,-479.48 661.66,-468.56 714.88,-427.52 743.8,-450.95 809.66,-437.56 835.82,-432.23 864.83,-426.48 889.38,-421.67"/>
<polygon fill="black" stroke="black" points="890.11,-425.09 899.25,-419.73 888.77,-418.22 890.11,-425.09"/>
<text text-anchor="middle" x="726.66" y="-472.36" font-family="Times,serif" font-size="14.00">type</text>
</g>
<!-- &quot;es&quot; -->
<g id="node26" class="node">
<title>&quot;es&quot;</title>
<ellipse fill="none" stroke="black" stroke-width="0" cx="947.44" cy="-356.56" rx="29.8" ry="18"/>
<text text-anchor="middle" x="947.44" y="-352.86" font-family="Times,serif" font-size="14.00">&quot;es&quot;</text>
</g>
<!-- _&#45;&gt;&quot;es&quot; -->
<g id="edge31" class="edge">
<title>_&#45;&gt;&quot;es&quot;</title>
<path fill="none" stroke="black" d="M512.77,-546.53C547.69,-546.33 609.26,-540.43 643.66,-504.56 669.78,-477.31 635.47,-448.75 661.66,-421.56 708.76,-372.64 743.43,-398.58 809.66,-383.56 842.94,-376 881.05,-368.58 908.58,-363.44"/>
<polygon fill="black" stroke="black" points="909.38,-366.85 918.58,-361.58 908.11,-359.96 909.38,-366.85"/>
<text text-anchor="middle" x="726.66" y="-425.36" font-family="Times,serif" font-size="14.00">alternateName</text>
</g>
<!-- &quot;Spanish&quot; -->
<g id="node27" class="node">
<title>&quot;Spanish&quot;</title>
<ellipse fill="none" stroke="black" stroke-width="0" cx="947.44" cy="-302.56" rx="56.59" ry="18"/>
<text text-anchor="middle" x="947.44" y="-298.86" font-family="Times,serif" font-size="14.00">&quot;Spanish&quot;</text>
</g>
<!-- _&#45;&gt;&quot;Spanish&quot; -->
<g id="edge32" class="edge">
<title>_&#45;&gt;&quot;Spanish&quot;</title>
<path fill="none" stroke="black" d="M512.91,-546.93C548.28,-547.22 610.68,-541.93 643.66,-504.56 684.29,-458.5 620.93,-413.52 661.66,-367.56 716.41,-305.76 816.69,-296.28 882.45,-297.56"/>
<polygon fill="black" stroke="black" points="882.6,-301.06 892.7,-297.85 882.8,-294.07 882.6,-301.06"/>
<text text-anchor="middle" x="726.66" y="-371.36" font-family="Times,serif" font-size="14.00">name</text>
</g>
<!-- Place -->
<g id="node28" class="node">
<title>Place</title>
<ellipse fill="none" stroke="#558855" cx="947.44" cy="-248.56" rx="36" ry="18"/>
<text text-anchor="middle" x="947.44" y="-244.86" font-family="Times,serif" font-size="14.00">Place</text>
</g>
<!-- _&#45;&gt;Place -->
<g id="edge33" class="edge">
<title>_&#45;&gt;Place</title>
<path fill="none" stroke="black" d="M512.87,-547.15C548.49,-547.74 611.51,-542.83 643.66,-504.56 675.06,-467.16 627.95,-320.89 661.66,-285.56 724.25,-219.94 841.64,-228.88 904.38,-239.56"/>
<polygon fill="black" stroke="black" points="903.87,-243.03 914.33,-241.35 905.11,-236.14 903.87,-243.03"/>
<text text-anchor="middle" x="726.66" y="-289.36" font-family="Times,serif" font-size="14.00">type</text>
</g>
<!-- &quot;54 Ocean Drive, 2352...&quot; -->
<g id="node29" class="node">
<title>&quot;54 Ocean Drive, 2352...&quot;</title>
<ellipse fill="none" stroke="black" stroke-width="0" cx="947.44" cy="-194.56" rx="129.18" ry="18"/>
<text text-anchor="middle" x="947.44" y="-190.86" font-family="Times,serif" font-size="14.00">&quot;54 Ocean Drive, 2352...&quot;</text>
</g>
<!-- _&#45;&gt;&quot;54 Ocean Drive, 2352...&quot; -->
<g id="edge34" class="edge">
<title>_&#45;&gt;&quot;54 Ocean Drive, 2352...&quot;</title>
<path fill="none" stroke="black" d="M512.68,-547.23C548.37,-547.96 611.8,-543.25 643.66,-504.56 684.55,-454.88 616.42,-261.31 661.66,-215.56 716.33,-160.25 810.92,-164.84 875.99,-176.68"/>
<polygon fill="black" stroke="black" points="875.69,-180.19 886.17,-178.64 877.01,-173.31 875.69,-180.19"/>
<text text-anchor="middle" x="726.66" y="-219.36" font-family="Times,serif" font-size="14.00">address</text>
</g>
<!-- &quot;Place name&quot; -->
<g id="node30" class="node">
<title>&quot;Place name&quot;</title>
<ellipse fill="none" stroke="black" stroke-width="0" cx="947.44" cy="-140.56" rx="72.59" ry="18"/>
<text text-anchor="middle" x="947.44" y="-136.86" font-family="Times,serif" font-size="14.00">&quot;Place name&quot;</text>
</g>
<!-- _&#45;&gt;&quot;Place name&quot; -->
<g id="edge35" class="edge">
<title>_&#45;&gt;&quot;Place name&quot;</title>
<path fill="none" stroke="black" d="M512.74,-547.28C548.51,-548.07 612.02,-543.44 643.66,-504.56 668.51,-474.01 633.59,-178.18 661.66,-150.56 690.19,-122.46 796.52,-125.9 870.84,-132.23"/>
<polygon fill="black" stroke="black" points="870.84,-135.74 881.11,-133.13 871.46,-128.77 870.84,-135.74"/>
<text text-anchor="middle" x="726.66" y="-154.36" font-family="Times,serif" font-size="14.00">name</text>
</g>
<!-- Text -->
<g id="node31" class="node">
<title>Text</title>
<ellipse fill="none" stroke="#558855" cx="947.44" cy="-86.56" rx="30.59" ry="18"/>
<text text-anchor="middle" x="947.44" y="-82.86" font-family="Times,serif" font-size="14.00">Text</text>
</g>
<!-- _&#45;&gt;Text -->
<g id="edge36" class="edge">
<title>_&#45;&gt;Text</title>
<path fill="none" stroke="black" d="M512.77,-547.31C548.57,-548.12 612.12,-543.52 643.66,-504.56 671.3,-470.4 631.14,-141.16 661.66,-109.56 726.15,-42.76 848.57,-61.35 909.74,-76.17"/>
<polygon fill="black" stroke="black" points="909.17,-79.63 919.72,-78.68 910.88,-72.84 909.17,-79.63"/>
<text text-anchor="middle" x="726.66" y="-113.36" font-family="Times,serif" font-size="14.00">type</text>
</g>
<!-- &quot;Invasive species in ...&quot; -->
<g id="node32" class="node">
<title>&quot;Invasive species in ...&quot;</title>
<ellipse fill="none" stroke="black" stroke-width="0" cx="947.44" cy="-32.56" rx="118.08" ry="18"/>
<text text-anchor="middle" x="947.44" y="-28.86" font-family="Times,serif" font-size="14.00">&quot;Invasive species in ...&quot;</text>
</g>
<!-- _&#45;&gt;&quot;Invasive species in ...&quot; -->
<g id="edge37" class="edge">
<title>_&#45;&gt;&quot;Invasive species in ...&quot;</title>
<path fill="none" stroke="black" d="M512.8,-547.34C548.65,-548.18 612.25,-543.62 643.66,-504.56 675.77,-464.6 625.4,-79.8 661.66,-43.56 719.41,14.17 821.05,2.04 885.99,-13.87"/>
<polygon fill="black" stroke="black" points="885.14,-17.26 895.69,-16.34 886.87,-10.48 885.14,-17.26"/>
<text text-anchor="middle" x="726.66" y="-47.36" font-family="Times,serif" font-size="14.00">description</text>
</g>
</g>
</svg>
