<?xml version="1.0" encoding="UTF-8" standalone="no"?>
<!DOCTYPE svg PUBLIC "-//W3C//DTD SVG 1.1//EN"
 "http://www.w3.org/Graphics/SVG/1.1/DTD/svg11.dtd">
<!-- Generated by graphviz version 5.0.0 (0)
 -->
<!-- Pages: 1 -->
<svg width="1065pt" height="206pt"
 viewBox="0.00 0.00 1065.43 206.00" xmlns="http://www.w3.org/2000/svg" xmlns:xlink="http://www.w3.org/1999/xlink">
<g id="graph0" class="graph" transform="scale(1 1) rotate(0) translate(4 202)">
<polygon fill="white" stroke="transparent" points="-4,4 -4,-202 1061.43,-202 1061.43,4 -4,4"/>
<!-- ResearchProject -->
<g id="node1" class="node">
<title>ResearchProject</title>
<ellipse fill="none" stroke="#558855" cx="512.11" cy="-153" rx="87.18" ry="18"/>
<text text-anchor="middle" x="512.11" y="-149.3" font-family="Times,serif" font-size="14.00">ResearchProject</text>
</g>
<!-- example.org/id/resproj/X -->
<g id="node2" class="node">
<title>example.org/id/resproj/X</title>
<ellipse fill="none" stroke="black" cx="125.44" cy="-126" rx="125.38" ry="18"/>
<text text-anchor="middle" x="125.44" y="-122.3" font-family="Times,serif" font-size="14.00">example.org/id/resproj/X</text>
</g>
<!-- example.org/id/resproj/X&#45;&gt;ResearchProject -->
<g id="edge1" class="edge">
<title>example.org/id/resproj/X&#45;&gt;ResearchProject</title>
<path fill="none" stroke="black" d="M238.48,-133.86C295.88,-137.89 364.92,-142.74 419.16,-146.55"/>
<polygon fill="black" stroke="black" points="419.23,-150.06 429.45,-147.27 419.72,-143.08 419.23,-150.06"/>
<text text-anchor="middle" x="301.88" y="-143.8" font-family="Times,serif" font-size="14.00">type</text>
</g>
<!-- grid.ac/institutes/grid.475727.4 -->
<g id="node3" class="node">
<title>grid.ac/institutes/grid.475727.4</title>
<ellipse fill="none" stroke="#558855" cx="512.11" cy="-99" rx="159.47" ry="18"/>
<text text-anchor="middle" x="512.11" y="-95.3" font-family="Times,serif" font-size="14.00">grid.ac/institutes/grid.475727.4</text>
</g>
<!-- example.org/id/resproj/X&#45;&gt;grid.ac/institutes/grid.475727.4 -->
<g id="edge2" class="edge">
<title>example.org/id/resproj/X&#45;&gt;grid.ac/institutes/grid.475727.4</title>
<path fill="none" stroke="black" d="M238.48,-118.14C278.42,-115.33 323.98,-112.13 366.28,-109.17"/>
<polygon fill="black" stroke="black" points="366.66,-112.65 376.39,-108.46 366.16,-105.67 366.66,-112.65"/>
<text text-anchor="middle" x="301.88" y="-118.8" font-family="Times,serif" font-size="14.00">identifier</text>
</g>
<!-- PropertyValue -->
<g id="node4" class="node">
<title>PropertyValue</title>
<ellipse fill="none" stroke="#558855" cx="922.89" cy="-180" rx="77.19" ry="18"/>
<text text-anchor="middle" x="922.89" y="-176.3" font-family="Times,serif" font-size="14.00">PropertyValue</text>
</g>
<!-- grid.ac/institutes/grid.475727.4&#45;&gt;PropertyValue -->
<g id="edge3" class="edge">
<title>grid.ac/institutes/grid.475727.4&#45;&gt;PropertyValue</title>
<path fill="none" stroke="black" d="M616.13,-112.74C634.7,-116.3 653.74,-120.68 671.35,-126 679.73,-128.53 681,-131.36 689.35,-134 740.52,-150.21 799.91,-161.84 845.86,-169.35"/>
<polygon fill="black" stroke="black" points="845.32,-172.81 855.75,-170.94 846.43,-165.9 845.32,-172.81"/>
<text text-anchor="middle" x="729.85" y="-156.8" font-family="Times,serif" font-size="14.00">type</text>
</g>
<!-- &quot;UN Department of Eco...&quot; -->
<g id="node5" class="node">
<title>&quot;UN Department of Eco...&quot;</title>
<ellipse fill="none" stroke="black" stroke-width="0" cx="922.89" cy="-126" rx="134.58" ry="18"/>
<text text-anchor="middle" x="922.89" y="-122.3" font-family="Times,serif" font-size="14.00">&quot;UN Department of Eco...&quot;</text>
</g>
<!-- grid.ac/institutes/grid.475727.4&#45;&gt;&quot;UN Department of Eco...&quot; -->
<g id="edge4" class="edge">
<title>grid.ac/institutes/grid.475727.4&#45;&gt;&quot;UN Department of Eco...&quot;</title>
<path fill="none" stroke="black" d="M650.08,-108.05C695.81,-111.07 746.61,-114.42 791.8,-117.41"/>
<polygon fill="black" stroke="black" points="791.75,-120.91 801.95,-118.08 792.21,-113.93 791.75,-120.91"/>
<text text-anchor="middle" x="729.85" y="-118.8" font-family="Times,serif" font-size="14.00">description</text>
</g>
<!-- &quot;https//registry.iden...&quot; -->
<g id="node6" class="node">
<title>&quot;https//registry.iden...&quot;</title>
<ellipse fill="none" stroke="black" stroke-width="0" cx="922.89" cy="-72" rx="116.98" ry="18"/>
<text text-anchor="middle" x="922.89" y="-68.3" font-family="Times,serif" font-size="14.00">&quot;https//registry.iden...&quot;</text>
</g>
<!-- grid.ac/institutes/grid.475727.4&#45;&gt;&quot;https//registry.iden...&quot; -->
<g id="edge5" class="edge">
<title>grid.ac/institutes/grid.475727.4&#45;&gt;&quot;https//registry.iden...&quot;</title>
<path fill="none" stroke="black" d="M650.08,-89.95C700.34,-86.63 756.71,-82.91 805.04,-79.72"/>
<polygon fill="black" stroke="black" points="805.48,-83.2 815.23,-79.05 805.02,-76.21 805.48,-83.2"/>
<text text-anchor="middle" x="729.85" y="-90.8" font-family="Times,serif" font-size="14.00">propertyID</text>
</g>
<!-- &quot;https//grid.ac/insti...&quot; -->
<g id="node7" class="node">
<title>&quot;https//grid.ac/insti...&quot;</title>
<ellipse fill="none" stroke="black" stroke-width="0" cx="922.89" cy="-18" rx="114.28" ry="18"/>
<text text-anchor="middle" x="922.89" y="-14.3" font-family="Times,serif" font-size="14.00">&quot;https//grid.ac/insti...&quot;</text>
</g>
<!-- grid.ac/institutes/grid.475727.4&#45;&gt;&quot;https//grid.ac/insti...&quot; -->
<g id="edge6" class="edge">
<title>grid.ac/institutes/grid.475727.4&#45;&gt;&quot;https//grid.ac/insti...&quot;</title>
<path fill="none" stroke="black" d="M589.42,-83.23C620.41,-76.88 656.58,-69.52 689.35,-63 739.12,-53.1 794.95,-42.29 839.43,-33.74"/>
<polygon fill="black" stroke="black" points="840.16,-37.17 849.32,-31.84 838.84,-30.29 840.16,-37.17"/>
<text text-anchor="middle" x="729.85" y="-66.8" font-family="Times,serif" font-size="14.00">url</text>
</g>
</g>
</svg>
