<?xml version="1.0" encoding="UTF-8" standalone="no"?>
<!DOCTYPE svg PUBLIC "-//W3C//DTD SVG 1.1//EN"
 "http://www.w3.org/Graphics/SVG/1.1/DTD/svg11.dtd">
<!-- Generated by graphviz version 2.43.0 (0)
 -->
<!-- Title: %3 Pages: 1 -->
<svg width="2194pt" height="597pt"
 viewBox="0.00 0.00 2193.52 597.00" xmlns="http://www.w3.org/2000/svg" xmlns:xlink="http://www.w3.org/1999/xlink">
<g id="graph0" class="graph" transform="scale(1 1) rotate(0) translate(4 593)">
<title>%3</title>
<polygon fill="white" stroke="transparent" points="-4,4 -4,-593 2189.52,-593 2189.52,4 -4,4"/>
<text text-anchor="middle" x="1092.76" y="-22.8" font-family="Times,serif" font-size="14.00">Model:</text>
<text text-anchor="middle" x="1092.76" y="-7.8" font-family="Times,serif" font-size="14.00">https://iode.org/</text>
<!-- Rhttps://samples.earth/id/do/bqs2dn2u6s73o70jdup0 -->
<g id="node1" class="node">
<title>Rhttps://samples.earth/id/do/bqs2dn2u6s73o70jdup0</title>
<ellipse fill="none" stroke="blue" cx="190.43" cy="-423.5" rx="190.37" ry="18"/>
<text text-anchor="middle" x="190.43" y="-419.8" font-family="Times,serif" font-size="14.00">https://samples.earth/id/do/bqs2dn2u6s73o70jdup0</text>
</g>
<!-- L\{&quot;geometries&quot;:[\{&quot;coordinates&quot;:[&#45;76,&#45;18],&quot;type&quot;:&quot;Point&quot;\}],&quot;type&quot;:&quot;GeometryCollection&quot;\}|Datatype: http://www.w3.org/1999/02/22&#45;rdf&#45;syntax&#45;ns#JSON -->
<g id="node2" class="node">
<title>L\{&quot;geometries&quot;:[\{&quot;coordinates&quot;:[&#45;76,&#45;18],&quot;type&quot;:&quot;Point&quot;\}],&quot;type&quot;:&quot;GeometryCollection&quot;\}|Datatype: http://www.w3.org/1999/02/22&#45;rdf&#45;syntax&#45;ns#JSON</title>
<polygon fill="none" stroke="black" points="700.87,-542.5 700.87,-588.5 1204.87,-588.5 1204.87,-542.5 700.87,-542.5"/>
<text text-anchor="middle" x="952.87" y="-573.3" font-family="Times,serif" font-size="14.00">{&quot;geometries&quot;:[{&quot;coordinates&quot;:[&#45;76,&#45;18],&quot;type&quot;:&quot;Point&quot;}],&quot;type&quot;:&quot;GeometryCollection&quot;}</text>
<polyline fill="none" stroke="black" points="700.87,-565.5 1204.87,-565.5 "/>
<text text-anchor="middle" x="952.87" y="-550.3" font-family="Times,serif" font-size="14.00">Datatype: http://www.w3.org/1999/02/22&#45;rdf&#45;syntax&#45;ns#JSON</text>
</g>
<!-- Rhttps://samples.earth/id/do/bqs2dn2u6s73o70jdup0&#45;&gt;L\{&quot;geometries&quot;:[\{&quot;coordinates&quot;:[&#45;76,&#45;18],&quot;type&quot;:&quot;Point&quot;\}],&quot;type&quot;:&quot;GeometryCollection&quot;\}|Datatype: http://www.w3.org/1999/02/22&#45;rdf&#45;syntax&#45;ns#JSON -->
<g id="edge1" class="edge">
<title>Rhttps://samples.earth/id/do/bqs2dn2u6s73o70jdup0&#45;&gt;L\{&quot;geometries&quot;:[\{&quot;coordinates&quot;:[&#45;76,&#45;18],&quot;type&quot;:&quot;Point&quot;\}],&quot;type&quot;:&quot;GeometryCollection&quot;\}|Datatype: http://www.w3.org/1999/02/22&#45;rdf&#45;syntax&#45;ns#JSON</title>
<path fill="none" stroke="black" stroke-dasharray="1,5" d="M227.95,-441.16C268.65,-460.02 336.92,-489.27 398.87,-504.5 492.65,-527.56 597.52,-541.91 690.53,-550.84"/>
<polygon fill="black" stroke="black" points="690.36,-554.34 700.64,-551.79 691.02,-547.37 690.36,-554.34"/>
<text text-anchor="middle" x="540.87" y="-552.3" font-family="Times,serif" font-size="14.00">http://example.com/vocab/json</text>
</g>
<!-- LA fake ID for testing -->
<g id="node3" class="node">
<title>LA fake ID for testing</title>
<polygon fill="none" stroke="black" points="887.87,-487.5 887.87,-523.5 1017.87,-523.5 1017.87,-487.5 887.87,-487.5"/>
<text text-anchor="middle" x="952.87" y="-501.8" font-family="Times,serif" font-size="14.00">A fake ID for testing</text>
</g>
<!-- Rhttps://samples.earth/id/do/bqs2dn2u6s73o70jdup0&#45;&gt;LA fake ID for testing -->
<g id="edge2" class="edge">
<title>Rhttps://samples.earth/id/do/bqs2dn2u6s73o70jdup0&#45;&gt;LA fake ID for testing</title>
<path fill="none" stroke="black" stroke-dasharray="1,5" d="M276.98,-439.56C314.31,-446.15 358.65,-453.41 398.87,-458.5 569.72,-480.14 771.56,-494.47 877.84,-501.15"/>
<polygon fill="black" stroke="black" points="877.62,-504.65 887.82,-501.78 878.06,-497.66 877.62,-504.65"/>
<text text-anchor="middle" x="540.87" y="-489.3" font-family="Times,serif" font-size="14.00">http://igsn.org/core/v1/description</text>
</g>
<!-- B_:b0 -->
<g id="node4" class="node">
<title>B_:b0</title>
<ellipse fill="none" stroke="green" cx="952.87" cy="-450.5" rx="18" ry="18"/>
</g>
<!-- Rhttps://samples.earth/id/do/bqs2dn2u6s73o70jdup0&#45;&gt;B_:b0 -->
<g id="edge3" class="edge">
<title>Rhttps://samples.earth/id/do/bqs2dn2u6s73o70jdup0&#45;&gt;B_:b0</title>
<path fill="none" stroke="black" stroke-dasharray="1,5" d="M369.24,-429.81C556.55,-436.46 836.37,-446.4 924.37,-449.52"/>
<polygon fill="black" stroke="black" points="924.46,-453.03 934.58,-449.89 924.71,-446.03 924.46,-453.03"/>
<text text-anchor="middle" x="540.87" y="-443.3" font-family="Times,serif" font-size="14.00">http://www.opengis.net/ont/geosparql#hasGeometry</text>
</g>
<!-- Rhttp://igsn.org/core/v1/Sample -->
<g id="node5" class="node">
<title>Rhttp://igsn.org/core/v1/Sample</title>
<ellipse fill="none" stroke="blue" cx="952.87" cy="-396.5" rx="118.08" ry="18"/>
<text text-anchor="middle" x="952.87" y="-392.8" font-family="Times,serif" font-size="14.00">http://igsn.org/core/v1/Sample</text>
</g>
<!-- Rhttps://samples.earth/id/do/bqs2dn2u6s73o70jdup0&#45;&gt;Rhttp://igsn.org/core/v1/Sample -->
<g id="edge4" class="edge">
<title>Rhttps://samples.earth/id/do/bqs2dn2u6s73o70jdup0&#45;&gt;Rhttp://igsn.org/core/v1/Sample</title>
<path fill="none" stroke="black" stroke-dasharray="1,5" d="M350.81,-413.78C367.04,-412.94 383.28,-412.16 398.87,-411.5 544.96,-405.29 712.87,-401.16 824.98,-398.84"/>
<polygon fill="black" stroke="black" points="825.39,-402.33 835.32,-398.62 825.25,-395.33 825.39,-402.33"/>
<text text-anchor="middle" x="540.87" y="-415.3" font-family="Times,serif" font-size="14.00">rdfs:type</text>
</g>
<!-- B_:b1 -->
<g id="node6" class="node">
<title>B_:b1</title>
<ellipse fill="none" stroke="green" cx="952.87" cy="-342.5" rx="18" ry="18"/>
</g>
<!-- Rhttps://samples.earth/id/do/bqs2dn2u6s73o70jdup0&#45;&gt;B_:b1 -->
<g id="edge5" class="edge">
<title>Rhttps://samples.earth/id/do/bqs2dn2u6s73o70jdup0&#45;&gt;B_:b1</title>
<path fill="none" stroke="black" stroke-dasharray="1,5" d="M264.03,-406.88C303.68,-398.38 353.75,-388.57 398.87,-382.5 599.32,-355.54 843.26,-345.89 924.26,-343.3"/>
<polygon fill="black" stroke="black" points="924.7,-346.78 934.59,-342.98 924.48,-339.79 924.7,-346.78"/>
<text text-anchor="middle" x="540.87" y="-386.3" font-family="Times,serif" font-size="14.00">schema:spatialCoverage</text>
</g>
<!-- B_:b3 -->
<g id="node7" class="node">
<title>B_:b3</title>
<ellipse fill="none" stroke="green" cx="952.87" cy="-198.5" rx="18" ry="18"/>
</g>
<!-- Rhttps://samples.earth/id/do/bqs2dn2u6s73o70jdup0&#45;&gt;B_:b3 -->
<g id="edge6" class="edge">
<title>Rhttps://samples.earth/id/do/bqs2dn2u6s73o70jdup0&#45;&gt;B_:b3</title>
<path fill="none" stroke="black" stroke-dasharray="1,5" d="M229,-405.69C270.05,-386.72 338.09,-356.7 398.87,-336.5 597.02,-270.65 844.25,-219.59 925.01,-203.68"/>
<polygon fill="black" stroke="black" points="925.72,-207.11 934.86,-201.76 924.37,-200.24 925.72,-207.11"/>
<text text-anchor="middle" x="540.87" y="-340.3" font-family="Times,serif" font-size="14.00">schema:subjectOf</text>
</g>
<!-- LPOINT(&#45;76 &#45;18)|Datatype: http://www.opengis.net/ont/geosparql#wktLiteral -->
<g id="node8" class="node">
<title>LPOINT(&#45;76 &#45;18)|Datatype: http://www.opengis.net/ont/geosparql#wktLiteral</title>
<polygon fill="none" stroke="black" points="1506.85,-506.5 1506.85,-552.5 1846.85,-552.5 1846.85,-506.5 1506.85,-506.5"/>
<text text-anchor="middle" x="1676.85" y="-537.3" font-family="Times,serif" font-size="14.00">POINT(&#45;76 &#45;18)</text>
<polyline fill="none" stroke="black" points="1506.85,-529.5 1846.85,-529.5 "/>
<text text-anchor="middle" x="1676.85" y="-514.3" font-family="Times,serif" font-size="14.00">Datatype: http://www.opengis.net/ont/geosparql#wktLiteral</text>
</g>
<!-- B_:b0&#45;&gt;LPOINT(&#45;76 &#45;18)|Datatype: http://www.opengis.net/ont/geosparql#wktLiteral -->
<g id="edge7" class="edge">
<title>B_:b0&#45;&gt;LPOINT(&#45;76 &#45;18)|Datatype: http://www.opengis.net/ont/geosparql#wktLiteral</title>
<path fill="none" stroke="black" stroke-dasharray="1,5" d="M971,-451.77C1011.73,-454.93 1117.5,-463.96 1204.87,-478.5 1212.95,-479.85 1214.78,-481.19 1222.87,-482.5 1312.58,-497.07 1413.06,-508.03 1496.55,-515.69"/>
<polygon fill="black" stroke="black" points="1496.37,-519.19 1506.64,-516.61 1497,-512.22 1496.37,-519.19"/>
<text text-anchor="middle" x="1349.87" y="-516.3" font-family="Times,serif" font-size="14.00">http://www.opengis.net/ont/geosparql#asWKT</text>
</g>
<!-- Rhttp://www.opengis.net/def/crs/OGC/1.3/CRS84 -->
<g id="node9" class="node">
<title>Rhttp://www.opengis.net/def/crs/OGC/1.3/CRS84</title>
<ellipse fill="none" stroke="blue" cx="1676.85" cy="-469.5" rx="181.97" ry="18"/>
<text text-anchor="middle" x="1676.85" y="-465.8" font-family="Times,serif" font-size="14.00">http://www.opengis.net/def/crs/OGC/1.3/CRS84</text>
</g>
<!-- B_:b0&#45;&gt;Rhttp://www.opengis.net/def/crs/OGC/1.3/CRS84 -->
<g id="edge8" class="edge">
<title>B_:b0&#45;&gt;Rhttp://www.opengis.net/def/crs/OGC/1.3/CRS84</title>
<path fill="none" stroke="black" stroke-dasharray="1,5" d="M971,-450.95C1040.46,-452.78 1306.13,-459.77 1490.68,-464.63"/>
<polygon fill="black" stroke="black" points="1490.7,-468.13 1500.79,-464.89 1490.88,-461.13 1490.7,-468.13"/>
<text text-anchor="middle" x="1349.87" y="-467.3" font-family="Times,serif" font-size="14.00">http://www.opengis.net/ont/geosparql#crs</text>
</g>
<!-- Rhttp://www.opengis.net/ont/sf#Point -->
<g id="node10" class="node">
<title>Rhttp://www.opengis.net/ont/sf#Point</title>
<ellipse fill="none" stroke="blue" cx="1676.85" cy="-415.5" rx="138.38" ry="18"/>
<text text-anchor="middle" x="1676.85" y="-411.8" font-family="Times,serif" font-size="14.00">http://www.opengis.net/ont/sf#Point</text>
</g>
<!-- B_:b0&#45;&gt;Rhttp://www.opengis.net/ont/sf#Point -->
<g id="edge9" class="edge">
<title>B_:b0&#45;&gt;Rhttp://www.opengis.net/ont/sf#Point</title>
<path fill="none" stroke="black" stroke-dasharray="1,5" d="M971,-449.67C1046.45,-446.01 1353.42,-431.13 1536.45,-422.26"/>
<polygon fill="black" stroke="black" points="1536.88,-425.74 1546.7,-421.76 1536.54,-418.75 1536.88,-425.74"/>
<text text-anchor="middle" x="1349.87" y="-440.3" font-family="Times,serif" font-size="14.00">rdfs:type</text>
</g>
<!-- Rschema:Place -->
<g id="node11" class="node">
<title>Rschema:Place</title>
<ellipse fill="none" stroke="blue" cx="1676.85" cy="-361.5" rx="59.29" ry="18"/>
<text text-anchor="middle" x="1676.85" y="-357.8" font-family="Times,serif" font-size="14.00">schema:Place</text>
</g>
<!-- B_:b1&#45;&gt;Rschema:Place -->
<g id="edge10" class="edge">
<title>B_:b1&#45;&gt;Rschema:Place</title>
<path fill="none" stroke="black" stroke-dasharray="1,5" d="M971,-342.95C1057.46,-345.23 1447.91,-355.5 1607.53,-359.7"/>
<polygon fill="black" stroke="black" points="1607.62,-363.21 1617.71,-359.97 1607.8,-356.21 1607.62,-363.21"/>
<text text-anchor="middle" x="1349.87" y="-359.3" font-family="Times,serif" font-size="14.00">rdfs:type</text>
</g>
<!-- B_:b2 -->
<g id="node12" class="node">
<title>B_:b2</title>
<ellipse fill="none" stroke="green" cx="1676.85" cy="-307.5" rx="18" ry="18"/>
</g>
<!-- B_:b1&#45;&gt;B_:b2 -->
<g id="edge11" class="edge">
<title>B_:b1&#45;&gt;B_:b2</title>
<path fill="none" stroke="black" stroke-dasharray="1,5" d="M971,-341.67C1066.26,-337.05 1530.55,-314.54 1648.54,-308.82"/>
<polygon fill="black" stroke="black" points="1648.74,-312.32 1658.56,-308.34 1648.4,-305.33 1648.74,-312.32"/>
<text text-anchor="middle" x="1349.87" y="-332.3" font-family="Times,serif" font-size="14.00">schema:geo</text>
</g>
<!-- Rschema:DigitalDocument -->
<g id="node16" class="node">
<title>Rschema:DigitalDocument</title>
<ellipse fill="none" stroke="blue" cx="1676.85" cy="-253.5" rx="101.28" ry="18"/>
<text text-anchor="middle" x="1676.85" y="-249.8" font-family="Times,serif" font-size="14.00">schema:DigitalDocument</text>
</g>
<!-- B_:b3&#45;&gt;Rschema:DigitalDocument -->
<g id="edge15" class="edge">
<title>B_:b3&#45;&gt;Rschema:DigitalDocument</title>
<path fill="none" stroke="black" stroke-dasharray="1,5" d="M971,-199.81C1051.81,-205.96 1398.18,-232.35 1573.43,-245.7"/>
<polygon fill="black" stroke="black" points="1573.2,-249.19 1583.44,-246.46 1573.74,-242.21 1573.2,-249.19"/>
<text text-anchor="middle" x="1349.87" y="-240.3" font-family="Times,serif" font-size="14.00">rdfs:type</text>
</g>
<!-- Lhttps://igsn.org/schema/spatial.schema.json -->
<g id="node17" class="node">
<title>Lhttps://igsn.org/schema/spatial.schema.json</title>
<polygon fill="none" stroke="black" points="1549.85,-180.5 1549.85,-216.5 1803.85,-216.5 1803.85,-180.5 1549.85,-180.5"/>
<text text-anchor="middle" x="1676.85" y="-194.8" font-family="Times,serif" font-size="14.00">https://igsn.org/schema/spatial.schema.json</text>
</g>
<!-- B_:b3&#45;&gt;Lhttps://igsn.org/schema/spatial.schema.json -->
<g id="edge16" class="edge">
<title>B_:b3&#45;&gt;Lhttps://igsn.org/schema/spatial.schema.json</title>
<path fill="none" stroke="black" stroke-dasharray="1,5" d="M971,-198.5C1046.87,-198.5 1356.84,-198.5 1539.49,-198.5"/>
<polygon fill="black" stroke="black" points="1539.71,-202 1549.71,-198.5 1539.71,-195 1539.71,-202"/>
<text text-anchor="middle" x="1349.87" y="-202.3" font-family="Times,serif" font-size="14.00">schema:conformsTo</text>
</g>
<!-- Lapplication/vnd.geo+json -->
<g id="node18" class="node">
<title>Lapplication/vnd.geo+json</title>
<polygon fill="none" stroke="black" points="1599.35,-125.5 1599.35,-161.5 1754.35,-161.5 1754.35,-125.5 1599.35,-125.5"/>
<text text-anchor="middle" x="1676.85" y="-139.8" font-family="Times,serif" font-size="14.00">application/vnd.geo+json</text>
</g>
<!-- B_:b3&#45;&gt;Lapplication/vnd.geo+json -->
<g id="edge17" class="edge">
<title>B_:b3&#45;&gt;Lapplication/vnd.geo+json</title>
<path fill="none" stroke="black" stroke-dasharray="1,5" d="M971,-197.19C1054.29,-190.85 1419.71,-163.01 1589.09,-150.11"/>
<polygon fill="black" stroke="black" points="1589.52,-153.59 1599.22,-149.34 1588.98,-146.61 1589.52,-153.59"/>
<text text-anchor="middle" x="1349.87" y="-181.3" font-family="Times,serif" font-size="14.00">schema:format</text>
</g>
<!-- Lhttps://samples.earth/id/do/bqs2dn2u6s73o70jdup0.geojson -->
<g id="node19" class="node">
<title>Lhttps://samples.earth/id/do/bqs2dn2u6s73o70jdup0.geojson</title>
<polygon fill="none" stroke="black" points="1507.35,-70.5 1507.35,-106.5 1846.35,-106.5 1846.35,-70.5 1507.35,-70.5"/>
<text text-anchor="middle" x="1676.85" y="-84.8" font-family="Times,serif" font-size="14.00">https://samples.earth/id/do/bqs2dn2u6s73o70jdup0.geojson</text>
</g>
<!-- B_:b3&#45;&gt;Lhttps://samples.earth/id/do/bqs2dn2u6s73o70jdup0.geojson -->
<g id="edge18" class="edge">
<title>B_:b3&#45;&gt;Lhttps://samples.earth/id/do/bqs2dn2u6s73o70jdup0.geojson</title>
<path fill="none" stroke="black" stroke-dasharray="1,5" d="M970.44,-194.33C1012.42,-183.9 1126.47,-156.39 1222.87,-140.5 1312.84,-125.67 1413.56,-113.66 1497.14,-104.93"/>
<polygon fill="black" stroke="black" points="1497.66,-108.4 1507.24,-103.88 1496.93,-101.43 1497.66,-108.4"/>
<text text-anchor="middle" x="1349.87" y="-144.3" font-family="Times,serif" font-size="14.00">schema:url</text>
</g>
<!-- Rschema:GeoCoordinates -->
<g id="node13" class="node">
<title>Rschema:GeoCoordinates</title>
<ellipse fill="none" stroke="blue" cx="2088.68" cy="-367.5" rx="96.68" ry="18"/>
<text text-anchor="middle" x="2088.68" y="-363.8" font-family="Times,serif" font-size="14.00">schema:GeoCoordinates</text>
</g>
<!-- B_:b2&#45;&gt;Rschema:GeoCoordinates -->
<g id="edge12" class="edge">
<title>B_:b2&#45;&gt;Rschema:GeoCoordinates</title>
<path fill="none" stroke="black" stroke-dasharray="1,5" d="M1694.94,-310C1746.49,-317.55 1903.02,-340.47 2002.2,-354.99"/>
<polygon fill="black" stroke="black" points="2001.81,-358.47 2012.21,-356.45 2002.82,-351.54 2001.81,-358.47"/>
<text text-anchor="middle" x="1925.33" y="-353.3" font-family="Times,serif" font-size="14.00">rdfs:type</text>
</g>
<!-- L&#45;18|Datatype: XMLSchema#integer -->
<g id="node14" class="node">
<title>L&#45;18|Datatype: XMLSchema#integer</title>
<polygon fill="none" stroke="black" points="1993.18,-284.5 1993.18,-330.5 2184.18,-330.5 2184.18,-284.5 1993.18,-284.5"/>
<text text-anchor="middle" x="2088.68" y="-315.3" font-family="Times,serif" font-size="14.00">&#45;18</text>
<polyline fill="none" stroke="black" points="1993.18,-307.5 2184.18,-307.5 "/>
<text text-anchor="middle" x="2088.68" y="-292.3" font-family="Times,serif" font-size="14.00">Datatype: XMLSchema#integer</text>
</g>
<!-- B_:b2&#45;&gt;L&#45;18|Datatype: XMLSchema#integer -->
<g id="edge13" class="edge">
<title>B_:b2&#45;&gt;L&#45;18|Datatype: XMLSchema#integer</title>
<path fill="none" stroke="black" stroke-dasharray="1,5" d="M1694.94,-307.5C1743.27,-307.5 1883.86,-307.5 1982.97,-307.5"/>
<polygon fill="black" stroke="black" points="1983.03,-311 1993.03,-307.5 1983.03,-304 1983.03,-311"/>
<text text-anchor="middle" x="1925.33" y="-311.3" font-family="Times,serif" font-size="14.00">schema:latitude</text>
</g>
<!-- L&#45;76|Datatype: XMLSchema#integer -->
<g id="node15" class="node">
<title>L&#45;76|Datatype: XMLSchema#integer</title>
<polygon fill="none" stroke="black" points="1993.18,-219.5 1993.18,-265.5 2184.18,-265.5 2184.18,-219.5 1993.18,-219.5"/>
<text text-anchor="middle" x="2088.68" y="-250.3" font-family="Times,serif" font-size="14.00">&#45;76</text>
<polyline fill="none" stroke="black" points="1993.18,-242.5 2184.18,-242.5 "/>
<text text-anchor="middle" x="2088.68" y="-227.3" font-family="Times,serif" font-size="14.00">Datatype: XMLSchema#integer</text>
</g>
<!-- B_:b2&#45;&gt;L&#45;76|Datatype: XMLSchema#integer -->
<g id="edge14" class="edge">
<title>B_:b2&#45;&gt;L&#45;76|Datatype: XMLSchema#integer</title>
<path fill="none" stroke="black" stroke-dasharray="1,5" d="M1694.83,-305.06C1726.9,-300.44 1798.58,-290 1858.83,-280.5 1899.37,-274.11 1943.89,-266.79 1982.8,-260.29"/>
<polygon fill="black" stroke="black" points="1983.81,-263.67 1993.09,-258.56 1982.65,-256.76 1983.81,-263.67"/>
<text text-anchor="middle" x="1925.33" y="-281.3" font-family="Times,serif" font-size="14.00">schema:longitude</text>
</g>
</g>
</svg>
