<?xml version="1.0" encoding="UTF-8" standalone="no"?>
<!DOCTYPE svg PUBLIC "-//W3C//DTD SVG 1.1//EN"
 "http://www.w3.org/Graphics/SVG/1.1/DTD/svg11.dtd">
<!-- Generated by graphviz version 2.43.0 (0)
 -->
<!-- Title: %3 Pages: 1 -->
<svg width="1218pt" height="1315pt"
 viewBox="0.00 0.00 1218.44 1314.91" xmlns="http://www.w3.org/2000/svg" xmlns:xlink="http://www.w3.org/1999/xlink">
<g id="graph0" class="graph" transform="scale(1 1) rotate(0) translate(4 1310.91)">
<title>%3</title>
<polygon fill="white" stroke="transparent" points="-4,4 -4,-1310.91 1214.44,-1310.91 1214.44,4 -4,4"/>
<text text-anchor="middle" x="605.22" y="-22.8" font-family="Times,serif" font-size="14.00">Model:</text>
<text text-anchor="middle" x="605.22" y="-7.8" font-family="Times,serif" font-size="14.00">https://iode.org/</text>
<!-- Rhttps://us&#45;central1&#45;top&#45;operand&#45;112611.cloudfunctions.net/function&#45;1 -->
<g id="node1" class="node">
<title>Rhttps://us&#45;central1&#45;top&#45;operand&#45;112611.cloudfunctions.net/function&#45;1</title>
<ellipse fill="none" stroke="blue" cx="657.19" cy="-673.44" rx="255.35" ry="18"/>
<text text-anchor="middle" x="657.19" y="-669.74" font-family="Times,serif" font-size="14.00">https://us&#45;central1&#45;top&#45;operand&#45;112611.cloudfunctions.net/function&#45;1</text>
</g>
<!-- Rschema:Action -->
<g id="node2" class="node">
<title>Rschema:Action</title>
<ellipse fill="none" stroke="blue" cx="954.08" cy="-629.43" rx="63.89" ry="18"/>
<text text-anchor="middle" x="954.08" y="-625.73" font-family="Times,serif" font-size="14.00">schema:Action</text>
</g>
<!-- Rhttps://us&#45;central1&#45;top&#45;operand&#45;112611.cloudfunctions.net/function&#45;1&#45;&gt;Rschema:Action -->
<g id="edge1" class="edge">
<title>Rhttps://us&#45;central1&#45;top&#45;operand&#45;112611.cloudfunctions.net/function&#45;1&#45;&gt;Rschema:Action</title>
<path fill="none" stroke="black" stroke-dasharray="1,5" d="M766.9,-657.18C807.34,-651.19 851.91,-644.58 887.41,-639.32"/>
<polygon fill="black" stroke="black" points="888.26,-642.73 897.64,-637.8 887.24,-635.81 888.26,-642.73"/>
<text text-anchor="middle" x="807.89" y="-636.27" font-family="Times,serif" font-size="14.00">rdfs:type</text>
</g>
<!-- B_:b0 -->
<g id="node3" class="node">
<title>B_:b0</title>
<ellipse fill="none" stroke="green" cx="364.17" cy="-618.38" rx="18" ry="18"/>
</g>
<!-- Rhttps://us&#45;central1&#45;top&#45;operand&#45;112611.cloudfunctions.net/function&#45;1&#45;&gt;B_:b0 -->
<g id="edge2" class="edge">
<title>Rhttps://us&#45;central1&#45;top&#45;operand&#45;112611.cloudfunctions.net/function&#45;1&#45;&gt;B_:b0</title>
<path fill="none" stroke="black" stroke-dasharray="1,5" d="M567.28,-656.55C507.18,-645.25 432.06,-631.14 392.15,-623.64"/>
<polygon fill="black" stroke="black" points="392.57,-620.16 382.09,-621.75 391.27,-627.04 392.57,-620.16"/>
<text text-anchor="middle" x="432.55" y="-642.45" font-family="Times,serif" font-size="14.00">schema:object</text>
</g>
<!-- B_:b1 -->
<g id="node4" class="node">
<title>B_:b1</title>
<ellipse fill="none" stroke="green" cx="806.82" cy="-358.68" rx="18" ry="18"/>
</g>
<!-- Rhttps://us&#45;central1&#45;top&#45;operand&#45;112611.cloudfunctions.net/function&#45;1&#45;&gt;B_:b1 -->
<g id="edge3" class="edge">
<title>Rhttps://us&#45;central1&#45;top&#45;operand&#45;112611.cloudfunctions.net/function&#45;1&#45;&gt;B_:b1</title>
<path fill="none" stroke="black" stroke-dasharray="1,5" d="M665.88,-655.16C691.28,-601.73 765.43,-445.75 794.72,-384.14"/>
<polygon fill="black" stroke="black" points="797.89,-385.62 799.02,-375.09 791.56,-382.62 797.89,-385.62"/>
<text text-anchor="middle" x="694.41" y="-519.01" font-family="Times,serif" font-size="14.00">schema:result</text>
</g>
<!-- B_:b2 -->
<g id="node5" class="node">
<title>B_:b2</title>
<ellipse fill="none" stroke="green" cx="777.81" cy="-997.85" rx="18" ry="18"/>
</g>
<!-- Rhttps://us&#45;central1&#45;top&#45;operand&#45;112611.cloudfunctions.net/function&#45;1&#45;&gt;B_:b2 -->
<g id="edge4" class="edge">
<title>Rhttps://us&#45;central1&#45;top&#45;operand&#45;112611.cloudfunctions.net/function&#45;1&#45;&gt;B_:b2</title>
<path fill="none" stroke="black" stroke-dasharray="1,5" d="M664.02,-691.81C684.27,-746.28 744.06,-907.08 767.86,-971.1"/>
<polygon fill="black" stroke="black" points="764.73,-972.71 771.49,-980.86 771.29,-970.27 764.73,-972.71"/>
<text text-anchor="middle" x="679.73" y="-840.06" font-family="Times,serif" font-size="14.00">schema:target</text>
</g>
<!-- Rschema:ImageObject -->
<g id="node6" class="node">
<title>Rschema:ImageObject</title>
<ellipse fill="none" stroke="blue" cx="85.79" cy="-731.1" rx="85.59" ry="18"/>
<text text-anchor="middle" x="85.79" y="-727.4" font-family="Times,serif" font-size="14.00">schema:ImageObject</text>
</g>
<!-- B_:b0&#45;&gt;Rschema:ImageObject -->
<g id="edge5" class="edge">
<title>B_:b0&#45;&gt;Rschema:ImageObject</title>
<path fill="none" stroke="black" stroke-dasharray="1,5" d="M347.17,-625.26C305.74,-642.04 198.28,-685.55 134.79,-711.26"/>
<polygon fill="black" stroke="black" points="133.33,-708.08 125.38,-715.07 135.96,-714.56 133.33,-708.08"/>
<text text-anchor="middle" x="212.03" y="-673.87" font-family="Times,serif" font-size="14.00">rdfs:type</text>
</g>
<!-- LA JPEG or PNG to analyze the RGB counts -->
<g id="node7" class="node">
<title>LA JPEG or PNG to analyze the RGB counts</title>
<polygon fill="none" stroke="black" points="23.46,-394.03 23.46,-430.03 279.46,-430.03 279.46,-394.03 23.46,-394.03"/>
<text text-anchor="middle" x="151.46" y="-408.33" font-family="Times,serif" font-size="14.00">A JPEG or PNG to analyze the RGB counts</text>
</g>
<!-- B_:b0&#45;&gt;LA JPEG or PNG to analyze the RGB counts -->
<g id="edge6" class="edge">
<title>B_:b0&#45;&gt;LA JPEG or PNG to analyze the RGB counts</title>
<path fill="none" stroke="black" stroke-dasharray="1,5" d="M351.18,-605.78C316.83,-572.46 223.1,-481.53 177.31,-437.12"/>
<polygon fill="black" stroke="black" points="179.74,-434.6 170.13,-430.15 174.87,-439.62 179.74,-434.6"/>
<text text-anchor="middle" x="207.67" y="-521.79" font-family="Times,serif" font-size="14.00">schema:description</text>
</g>
<!-- Rschema:DataDownload -->
<g id="node8" class="node">
<title>Rschema:DataDownload</title>
<ellipse fill="none" stroke="blue" cx="1117.5" cy="-285.45" rx="92.88" ry="18"/>
<text text-anchor="middle" x="1117.5" y="-281.75" font-family="Times,serif" font-size="14.00">schema:DataDownload</text>
</g>
<!-- B_:b1&#45;&gt;Rschema:DataDownload -->
<g id="edge7" class="edge">
<title>B_:b1&#45;&gt;Rschema:DataDownload</title>
<path fill="none" stroke="black" stroke-dasharray="1,5" d="M824.41,-354.53C866.71,-344.56 975.95,-318.82 1048.46,-301.73"/>
<polygon fill="black" stroke="black" points="1049.5,-305.08 1058.43,-299.38 1047.9,-298.26 1049.5,-305.08"/>
<text text-anchor="middle" x="916.88" y="-330.76" font-family="Times,serif" font-size="14.00">rdfs:type</text>
</g>
<!-- La simple text result for the RGB counts -->
<g id="node9" class="node">
<title>La simple text result for the RGB counts</title>
<polygon fill="none" stroke="black" points="518.87,-95.97 518.87,-131.97 749.87,-131.97 749.87,-95.97 518.87,-95.97"/>
<text text-anchor="middle" x="634.37" y="-110.27" font-family="Times,serif" font-size="14.00">a simple text result for the RGB counts</text>
</g>
<!-- B_:b1&#45;&gt;La simple text result for the RGB counts -->
<g id="edge8" class="edge">
<title>B_:b1&#45;&gt;La simple text result for the RGB counts</title>
<path fill="none" stroke="black" stroke-dasharray="1,5" d="M796.29,-343.74C767.88,-303.42 689.35,-191.98 653.12,-140.58"/>
<polygon fill="black" stroke="black" points="655.9,-138.44 647.28,-132.28 650.18,-142.48 655.9,-138.44"/>
<text text-anchor="middle" x="668.78" y="-241.81" font-family="Times,serif" font-size="14.00">schema:description</text>
</g>
<!-- Ltext/plain -->
<g id="node10" class="node">
<title>Ltext/plain</title>
<polygon fill="none" stroke="black" points="887.12,-70.5 887.12,-106.5 955.12,-106.5 955.12,-70.5 887.12,-70.5"/>
<text text-anchor="middle" x="921.12" y="-84.8" font-family="Times,serif" font-size="14.00">text/plain</text>
</g>
<!-- B_:b1&#45;&gt;Ltext/plain -->
<g id="edge9" class="edge">
<title>B_:b1&#45;&gt;Ltext/plain</title>
<path fill="none" stroke="black" stroke-dasharray="1,5" d="M813.97,-341.78C833.15,-296.44 885.88,-171.81 909.46,-116.07"/>
<polygon fill="black" stroke="black" points="912.7,-117.38 913.38,-106.81 906.26,-114.65 912.7,-117.38"/>
<text text-anchor="middle" x="796.26" y="-227.89" font-family="Times,serif" font-size="14.00">schema:encodingFormat</text>
</g>
<!-- Rschema:EntryPoint -->
<g id="node11" class="node">
<title>Rschema:EntryPoint</title>
<ellipse fill="none" stroke="blue" cx="1082.39" cy="-964.11" rx="77.99" ry="18"/>
<text text-anchor="middle" x="1082.39" y="-960.41" font-family="Times,serif" font-size="14.00">schema:EntryPoint</text>
</g>
<!-- B_:b2&#45;&gt;Rschema:EntryPoint -->
<g id="edge10" class="edge">
<title>B_:b2&#45;&gt;Rschema:EntryPoint</title>
<path fill="none" stroke="black" stroke-dasharray="1,5" d="M795.95,-995.84C835.56,-991.45 931.84,-980.78 1001.87,-973.03"/>
<polygon fill="black" stroke="black" points="1002.45,-976.48 1012,-971.9 1001.68,-969.53 1002.45,-976.48"/>
<text text-anchor="middle" x="879.59" y="-987.66" font-family="Times,serif" font-size="14.00">rdfs:type</text>
</g>
<!-- Limage/jpeg -->
<g id="node12" class="node">
<title>Limage/jpeg</title>
<polygon fill="none" stroke="black" points="463.32,-1087.42 463.32,-1123.42 540.32,-1123.42 540.32,-1087.42 463.32,-1087.42"/>
<text text-anchor="middle" x="501.82" y="-1101.72" font-family="Times,serif" font-size="14.00">image/jpeg</text>
</g>
<!-- B_:b2&#45;&gt;Limage/jpeg -->
<g id="edge11" class="edge">
<title>B_:b2&#45;&gt;Limage/jpeg</title>
<path fill="none" stroke="black" stroke-dasharray="1,5" d="M760.96,-1004.42C719.77,-1020.47 612.77,-1062.18 549.89,-1086.68"/>
<polygon fill="black" stroke="black" points="548.61,-1083.42 540.57,-1090.32 551.16,-1089.95 548.61,-1083.42"/>
<text text-anchor="middle" x="594.4" y="-1051.11" font-family="Times,serif" font-size="14.00">schema:contentType</text>
</g>
<!-- Limage/png -->
<g id="node13" class="node">
<title>Limage/png</title>
<polygon fill="none" stroke="black" points="1006.7,-1144.42 1006.7,-1180.42 1080.7,-1180.42 1080.7,-1144.42 1006.7,-1144.42"/>
<text text-anchor="middle" x="1043.7" y="-1158.72" font-family="Times,serif" font-size="14.00">image/png</text>
</g>
<!-- B_:b2&#45;&gt;Limage/png -->
<g id="edge12" class="edge">
<title>B_:b2&#45;&gt;Limage/png</title>
<path fill="none" stroke="black" stroke-dasharray="1,5" d="M793.25,-1007.41C834.16,-1032.73 946.21,-1102.09 1005.6,-1138.84"/>
<polygon fill="black" stroke="black" points="1003.96,-1141.95 1014.31,-1144.23 1007.65,-1135.99 1003.96,-1141.95"/>
<text text-anchor="middle" x="846.97" y="-1079.43" font-family="Times,serif" font-size="14.00">schema:contentType</text>
</g>
<!-- LPOST -->
<g id="node14" class="node">
<title>LPOST</title>
<polygon fill="none" stroke="black" points="833.76,-1270.41 833.76,-1306.41 887.76,-1306.41 887.76,-1270.41 833.76,-1270.41"/>
<text text-anchor="middle" x="860.76" y="-1284.71" font-family="Times,serif" font-size="14.00">POST</text>
</g>
<!-- B_:b2&#45;&gt;LPOST -->
<g id="edge13" class="edge">
<title>B_:b2&#45;&gt;LPOST</title>
<path fill="none" stroke="black" stroke-dasharray="1,5" d="M782.87,-1015.59C796.81,-1064.41 835.82,-1201.05 852.75,-1260.36"/>
<polygon fill="black" stroke="black" points="849.44,-1261.51 855.55,-1270.17 856.17,-1259.59 849.44,-1261.51"/>
<text text-anchor="middle" x="764.66" y="-1146.51" font-family="Times,serif" font-size="14.00">schema:httpMethod</text>
</g>
<!-- Lhttps://us&#45;central1&#45;top&#45;operand&#45;112611.cloudfunctions.net/function&#45;1 -->
<g id="node15" class="node">
<title>Lhttps://us&#45;central1&#45;top&#45;operand&#45;112611.cloudfunctions.net/function&#45;1</title>
<polygon fill="none" stroke="black" points="432.74,-1250.76 432.74,-1286.76 825.74,-1286.76 825.74,-1250.76 432.74,-1250.76"/>
<text text-anchor="middle" x="629.24" y="-1265.06" font-family="Times,serif" font-size="14.00">https://us&#45;central1&#45;top&#45;operand&#45;112611.cloudfunctions.net/function&#45;1</text>
</g>
<!-- B_:b2&#45;&gt;Lhttps://us&#45;central1&#45;top&#45;operand&#45;112611.cloudfunctions.net/function&#45;1 -->
<g id="edge14" class="edge">
<title>B_:b2&#45;&gt;Lhttps://us&#45;central1&#45;top&#45;operand&#45;112611.cloudfunctions.net/function&#45;1</title>
<path fill="none" stroke="black" stroke-dasharray="1,5" d="M768.96,-1013.98C744.33,-1058.89 674.81,-1185.67 644.12,-1241.64"/>
<polygon fill="black" stroke="black" points="640.94,-1240.16 639.2,-1250.61 647.07,-1243.53 640.94,-1240.16"/>
<text text-anchor="middle" x="647.96" y="-1136.3" font-family="Times,serif" font-size="14.00">schema:urlTemplate</text>
</g>
</g>
</svg>
