<?xml version="1.0" encoding="UTF-8" standalone="no"?>
<!DOCTYPE svg PUBLIC "-//W3C//DTD SVG 1.1//EN"
 "http://www.w3.org/Graphics/SVG/1.1/DTD/svg11.dtd">
<!-- Generated by graphviz version 2.43.0 (0)
 -->
<!-- Title: %3 Pages: 1 -->
<svg width="733pt" height="280pt"
 viewBox="0.00 0.00 733.38 279.50" xmlns="http://www.w3.org/2000/svg" xmlns:xlink="http://www.w3.org/1999/xlink">
<g id="graph0" class="graph" transform="scale(1 1) rotate(0) translate(4 275.5)">
<title>%3</title>
<polygon fill="white" stroke="transparent" points="-4,4 -4,-275.5 729.38,-275.5 729.38,4 -4,4"/>
<text text-anchor="middle" x="362.69" y="-22.8" font-family="Times,serif" font-size="14.00">Model:</text>
<text text-anchor="middle" x="362.69" y="-7.8" font-family="Times,serif" font-size="14.00">https://iode.org/</text>
<!-- Rhttps://example.org/id/XYZ -->
<g id="node1" class="node">
<title>Rhttps://example.org/id/XYZ</title>
<ellipse fill="none" stroke="blue" cx="109.19" cy="-170.5" rx="109.38" ry="18"/>
<text text-anchor="middle" x="109.19" y="-166.8" font-family="Times,serif" font-size="14.00">https://example.org/id/XYZ</text>
</g>
<!-- Rschema:CreativeWork -->
<g id="node2" class="node">
<title>Rschema:CreativeWork</title>
<ellipse fill="none" stroke="blue" cx="542.88" cy="-253.5" rx="89.88" ry="18"/>
<text text-anchor="middle" x="542.88" y="-249.8" font-family="Times,serif" font-size="14.00">schema:CreativeWork</text>
</g>
<!-- Rhttps://example.org/id/XYZ&#45;&gt;Rschema:CreativeWork -->
<g id="edge1" class="edge">
<title>Rhttps://example.org/id/XYZ&#45;&gt;Rschema:CreativeWork</title>
<path fill="none" stroke="black" stroke-dasharray="1,5" d="M165.89,-185.99C187.78,-191.84 213.17,-198.32 236.38,-203.5 310.41,-220.02 395.68,-233.53 457.28,-242.32"/>
<polygon fill="black" stroke="black" points="456.95,-245.8 467.34,-243.74 457.93,-238.87 456.95,-245.8"/>
<text text-anchor="middle" x="289.38" y="-226.3" font-family="Times,serif" font-size="14.00">rdfs:type</text>
</g>
<!-- LDescription of the creative work to aid in searching -->
<g id="node3" class="node">
<title>LDescription of the creative work to aid in searching</title>
<polygon fill="none" stroke="black" points="394.38,-180.5 394.38,-216.5 691.38,-216.5 691.38,-180.5 394.38,-180.5"/>
<text text-anchor="middle" x="542.88" y="-194.8" font-family="Times,serif" font-size="14.00">Description of the creative work to aid in searching</text>
</g>
<!-- Rhttps://example.org/id/XYZ&#45;&gt;LDescription of the creative work to aid in searching -->
<g id="edge2" class="edge">
<title>Rhttps://example.org/id/XYZ&#45;&gt;LDescription of the creative work to aid in searching</title>
<path fill="none" stroke="black" stroke-dasharray="1,5" d="M211.13,-177.05C262.49,-180.38 326.1,-184.5 383.78,-188.25"/>
<polygon fill="black" stroke="black" points="383.9,-191.76 394.1,-188.91 384.35,-184.77 383.9,-191.76"/>
<text text-anchor="middle" x="289.38" y="-188.3" font-family="Times,serif" font-size="14.00">schema:description</text>
</g>
<!-- LName or title of the document -->
<g id="node4" class="node">
<title>LName or title of the document</title>
<polygon fill="none" stroke="black" points="451.88,-125.5 451.88,-161.5 633.88,-161.5 633.88,-125.5 451.88,-125.5"/>
<text text-anchor="middle" x="542.88" y="-139.8" font-family="Times,serif" font-size="14.00">Name or title of the document</text>
</g>
<!-- Rhttps://example.org/id/XYZ&#45;&gt;LName or title of the document -->
<g id="edge3" class="edge">
<title>Rhttps://example.org/id/XYZ&#45;&gt;LName or title of the document</title>
<path fill="none" stroke="black" stroke-dasharray="1,5" d="M209.38,-163.31C218.51,-162.68 227.61,-162.07 236.38,-161.5 304.79,-157.05 381.85,-152.51 441.47,-149.1"/>
<polygon fill="black" stroke="black" points="441.85,-152.59 451.63,-148.52 441.45,-145.6 441.85,-152.59"/>
<text text-anchor="middle" x="289.38" y="-165.3" font-family="Times,serif" font-size="14.00">schema:name</text>
</g>
<!-- Lhttps://www.sample&#45;data&#45;repository.org/creativework/report.pdf -->
<g id="node5" class="node">
<title>Lhttps://www.sample&#45;data&#45;repository.org/creativework/report.pdf</title>
<polygon fill="none" stroke="black" points="360.38,-70.5 360.38,-106.5 725.38,-106.5 725.38,-70.5 360.38,-70.5"/>
<text text-anchor="middle" x="542.88" y="-84.8" font-family="Times,serif" font-size="14.00">https://www.sample&#45;data&#45;repository.org/creativework/report.pdf</text>
</g>
<!-- Rhttps://example.org/id/XYZ&#45;&gt;Lhttps://www.sample&#45;data&#45;repository.org/creativework/report.pdf -->
<g id="edge4" class="edge">
<title>Rhttps://example.org/id/XYZ&#45;&gt;Lhttps://www.sample&#45;data&#45;repository.org/creativework/report.pdf</title>
<path fill="none" stroke="black" stroke-dasharray="1,5" d="M162.05,-154.72C184.73,-148.19 211.73,-140.89 236.38,-135.5 286.04,-124.64 340.77,-115.39 390.03,-108.03"/>
<polygon fill="black" stroke="black" points="390.75,-111.46 400.13,-106.54 389.73,-104.54 390.75,-111.46"/>
<text text-anchor="middle" x="289.38" y="-139.3" font-family="Times,serif" font-size="14.00">schema:url</text>
</g>
</g>
</svg>
