<?xml version="1.0" encoding="UTF-8" standalone="no"?>
<!DOCTYPE svg PUBLIC "-//W3C//DTD SVG 1.1//EN"
 "http://www.w3.org/Graphics/SVG/1.1/DTD/svg11.dtd">
<!-- Generated by graphviz version 2.43.0 (0)
 -->
<!-- Title: %3 Pages: 1 -->
<svg width="1136pt" height="290pt"
 viewBox="0.00 0.00 1135.79 290.00" xmlns="http://www.w3.org/2000/svg" xmlns:xlink="http://www.w3.org/1999/xlink">
<g id="graph0" class="graph" transform="scale(1 1) rotate(0) translate(4 286)">
<title>%3</title>
<polygon fill="white" stroke="transparent" points="-4,4 -4,-286 1131.79,-286 1131.79,4 -4,4"/>
<text text-anchor="middle" x="563.9" y="-22.8" font-family="Times,serif" font-size="14.00">Model:</text>
<text text-anchor="middle" x="563.9" y="-7.8" font-family="Times,serif" font-size="14.00">https://iode.org/</text>
<!-- Rhttps://example.org/id/XYZ -->
<g id="node1" class="node">
<title>Rhttps://example.org/id/XYZ</title>
<ellipse fill="none" stroke="blue" cx="233.29" cy="-264" rx="109.38" ry="18"/>
<text text-anchor="middle" x="233.29" y="-260.3" font-family="Times,serif" font-size="14.00">https://example.org/id/XYZ</text>
</g>
<!-- Rschema:Dataset -->
<g id="node2" class="node">
<title>Rschema:Dataset</title>
<ellipse fill="none" stroke="blue" cx="66.29" cy="-176.5" rx="66.09" ry="18"/>
<text text-anchor="middle" x="66.29" y="-172.8" font-family="Times,serif" font-size="14.00">schema:Dataset</text>
</g>
<!-- Rhttps://example.org/id/XYZ&#45;&gt;Rschema:Dataset -->
<g id="edge1" class="edge">
<title>Rhttps://example.org/id/XYZ&#45;&gt;Rschema:Dataset</title>
<path fill="none" stroke="black" stroke-dasharray="1,5" d="M163.95,-249.98C146.28,-244.81 127.89,-237.71 112.29,-228 101.55,-221.31 91.77,-211.42 84.01,-202.16"/>
<polygon fill="black" stroke="black" points="86.71,-199.93 77.75,-194.28 81.23,-204.29 86.71,-199.93"/>
<text text-anchor="middle" x="136.79" y="-216.8" font-family="Times,serif" font-size="14.00">rdfs:type</text>
</g>
<!-- B_:b0 -->
<g id="node3" class="node">
<title>B_:b0</title>
<ellipse fill="none" stroke="green" cx="168.29" cy="-176.5" rx="18" ry="18"/>
</g>
<!-- Rhttps://example.org/id/XYZ&#45;&gt;B_:b0 -->
<g id="edge2" class="edge">
<title>Rhttps://example.org/id/XYZ&#45;&gt;B_:b0</title>
<path fill="none" stroke="black" stroke-dasharray="1,5" d="M189.94,-247.43C181.75,-242.49 174.22,-236.12 169.29,-228 165.06,-221.01 163.77,-212.42 163.85,-204.32"/>
<polygon fill="black" stroke="black" points="167.36,-204.36 164.61,-194.13 160.38,-203.84 167.36,-204.36"/>
<text text-anchor="middle" x="223.29" y="-216.8" font-family="Times,serif" font-size="14.00">schema:distribution</text>
</g>
<!-- LName or title of the document -->
<g id="node4" class="node">
<title>LName or title of the document</title>
<polygon fill="none" stroke="black" points="208.29,-158.5 208.29,-194.5 390.29,-194.5 390.29,-158.5 208.29,-158.5"/>
<text text-anchor="middle" x="299.29" y="-172.8" font-family="Times,serif" font-size="14.00">Name or title of the document</text>
</g>
<!-- Rhttps://example.org/id/XYZ&#45;&gt;LName or title of the document -->
<g id="edge3" class="edge">
<title>Rhttps://example.org/id/XYZ&#45;&gt;LName or title of the document</title>
<path fill="none" stroke="black" stroke-dasharray="1,5" d="M258.51,-246.37C265.23,-241.08 272.06,-234.81 277.29,-228 282.76,-220.88 287.17,-212.2 290.57,-204.05"/>
<polygon fill="black" stroke="black" points="293.92,-205.11 294.22,-194.52 287.38,-202.61 293.92,-205.11"/>
<text text-anchor="middle" x="324.29" y="-216.8" font-family="Times,serif" font-size="14.00">schema:name</text>
</g>
<!-- B_:b1 -->
<g id="node5" class="node">
<title>B_:b1</title>
<ellipse fill="none" stroke="green" cx="505.29" cy="-176.5" rx="18" ry="18"/>
</g>
<!-- Rhttps://example.org/id/XYZ&#45;&gt;B_:b1 -->
<g id="edge4" class="edge">
<title>Rhttps://example.org/id/XYZ&#45;&gt;B_:b1</title>
<path fill="none" stroke="black" stroke-dasharray="1,5" d="M291.89,-248.81C315.18,-242.85 342.14,-235.55 366.29,-228 406.24,-215.52 451.66,-198.46 479.4,-187.71"/>
<polygon fill="black" stroke="black" points="480.73,-190.95 488.77,-184.06 478.18,-184.43 480.73,-190.95"/>
<text text-anchor="middle" x="457.29" y="-216.8" font-family="Times,serif" font-size="14.00">schema:subjectOf</text>
</g>
<!-- Rschema:DataDownload -->
<g id="node6" class="node">
<title>Rschema:DataDownload</title>
<ellipse fill="none" stroke="blue" cx="122.29" cy="-88.5" rx="92.88" ry="18"/>
<text text-anchor="middle" x="122.29" y="-84.8" font-family="Times,serif" font-size="14.00">schema:DataDownload</text>
</g>
<!-- B_:b0&#45;&gt;Rschema:DataDownload -->
<g id="edge5" class="edge">
<title>B_:b0&#45;&gt;Rschema:DataDownload</title>
<path fill="none" stroke="black" stroke-dasharray="1,5" d="M160.07,-160.12C153.46,-147.76 144.02,-130.11 136.23,-115.55"/>
<polygon fill="black" stroke="black" points="139.2,-113.68 131.39,-106.51 133.02,-116.98 139.2,-113.68"/>
<text text-anchor="middle" x="172.79" y="-128.8" font-family="Times,serif" font-size="14.00">rdfs:type</text>
</g>
<!-- B_:b1&#45;&gt;Rschema:DataDownload -->
<g id="edge6" class="edge">
<title>B_:b1&#45;&gt;Rschema:DataDownload</title>
<path fill="none" stroke="black" stroke-dasharray="1,5" d="M487.44,-172.59C444.91,-165.63 338.54,-147.99 303.29,-140 261.42,-130.5 214.75,-117.42 179.3,-106.95"/>
<polygon fill="black" stroke="black" points="180.19,-103.57 169.61,-104.07 178.2,-110.28 180.19,-103.57"/>
<text text-anchor="middle" x="327.79" y="-128.8" font-family="Times,serif" font-size="14.00">rdfs:type</text>
</g>
<!-- L2019&#45;06&#45;12T14:44:15Z -->
<g id="node7" class="node">
<title>L2019&#45;06&#45;12T14:44:15Z</title>
<polygon fill="none" stroke="black" points="233.29,-70.5 233.29,-106.5 377.29,-106.5 377.29,-70.5 233.29,-70.5"/>
<text text-anchor="middle" x="305.29" y="-84.8" font-family="Times,serif" font-size="14.00">2019&#45;06&#45;12T14:44:15Z</text>
</g>
<!-- B_:b1&#45;&gt;L2019&#45;06&#45;12T14:44:15Z -->
<g id="edge7" class="edge">
<title>B_:b1&#45;&gt;L2019&#45;06&#45;12T14:44:15Z</title>
<path fill="none" stroke="black" stroke-dasharray="1,5" d="M487.6,-172.14C463.16,-167.11 418.04,-156.43 382.29,-140 366.21,-132.61 349.63,-122.16 336,-112.69"/>
<polygon fill="black" stroke="black" points="337.67,-109.58 327.5,-106.64 333.62,-115.29 337.67,-109.58"/>
<text text-anchor="middle" x="441.79" y="-128.8" font-family="Times,serif" font-size="14.00">schema:dateModified</text>
</g>
<!-- LEML metadata describing the dataset -->
<g id="node8" class="node">
<title>LEML metadata describing the dataset</title>
<polygon fill="none" stroke="black" points="395.29,-70.5 395.29,-106.5 615.29,-106.5 615.29,-70.5 395.29,-70.5"/>
<text text-anchor="middle" x="505.29" y="-84.8" font-family="Times,serif" font-size="14.00">EML metadata describing the dataset</text>
</g>
<!-- B_:b1&#45;&gt;LEML metadata describing the dataset -->
<g id="edge8" class="edge">
<title>B_:b1&#45;&gt;LEML metadata describing the dataset</title>
<path fill="none" stroke="black" stroke-dasharray="1,5" d="M505.29,-158.1C505.29,-146.25 505.29,-130.32 505.29,-116.79"/>
<polygon fill="black" stroke="black" points="508.79,-116.58 505.29,-106.58 501.79,-116.58 508.79,-116.58"/>
<text text-anchor="middle" x="558.29" y="-128.8" font-family="Times,serif" font-size="14.00">schema:description</text>
</g>
<!-- Lapplication/xml -->
<g id="node9" class="node">
<title>Lapplication/xml</title>
<polygon fill="none" stroke="black" points="633.29,-70.5 633.29,-106.5 735.29,-106.5 735.29,-70.5 633.29,-70.5"/>
<text text-anchor="middle" x="684.29" y="-84.8" font-family="Times,serif" font-size="14.00">application/xml</text>
</g>
<!-- B_:b1&#45;&gt;Lapplication/xml -->
<g id="edge9" class="edge">
<title>B_:b1&#45;&gt;Lapplication/xml</title>
<path fill="none" stroke="black" stroke-dasharray="1,5" d="M522.73,-171.7C545.01,-166.45 584.37,-155.78 615.29,-140 629.8,-132.6 644.54,-122.27 656.65,-112.88"/>
<polygon fill="black" stroke="black" points="658.93,-115.54 664.58,-106.57 654.58,-110.06 658.93,-115.54"/>
<text text-anchor="middle" x="706.79" y="-128.8" font-family="Times,serif" font-size="14.00">schema:encodingFormat</text>
</g>
<!-- Lhttps://eml.ecoinformatics.org/eml&#45;2.2.0 -->
<g id="node10" class="node">
<title>Lhttps://eml.ecoinformatics.org/eml&#45;2.2.0</title>
<polygon fill="none" stroke="black" points="753.79,-70.5 753.79,-106.5 992.79,-106.5 992.79,-70.5 753.79,-70.5"/>
<text text-anchor="middle" x="873.29" y="-84.8" font-family="Times,serif" font-size="14.00">https://eml.ecoinformatics.org/eml&#45;2.2.0</text>
</g>
<!-- B_:b1&#45;&gt;Lhttps://eml.ecoinformatics.org/eml&#45;2.2.0 -->
<g id="edge10" class="edge">
<title>B_:b1&#45;&gt;Lhttps://eml.ecoinformatics.org/eml&#45;2.2.0</title>
<path fill="none" stroke="black" stroke-dasharray="1,5" d="M523.34,-175.36C567.78,-174.56 685.64,-169.57 778.29,-140 799.36,-133.28 821.25,-121.98 838.71,-111.77"/>
<polygon fill="black" stroke="black" points="840.62,-114.7 847.4,-106.56 837.02,-108.69 840.62,-114.7"/>
<text text-anchor="middle" x="880.79" y="-128.8" font-family="Times,serif" font-size="14.00">schema:encodingFormat</text>
</g>
<!-- Leml&#45;metadata.xml -->
<g id="node11" class="node">
<title>Leml&#45;metadata.xml</title>
<polygon fill="none" stroke="black" points="1010.79,-70.5 1010.79,-106.5 1127.79,-106.5 1127.79,-70.5 1010.79,-70.5"/>
<text text-anchor="middle" x="1069.29" y="-84.8" font-family="Times,serif" font-size="14.00">eml&#45;metadata.xml</text>
</g>
<!-- B_:b1&#45;&gt;Leml&#45;metadata.xml -->
<g id="edge11" class="edge">
<title>B_:b1&#45;&gt;Leml&#45;metadata.xml</title>
<path fill="none" stroke="black" stroke-dasharray="1,5" d="M523.39,-174.85C596.34,-172.12 868.81,-160.73 952.29,-140 978.6,-133.47 1006.52,-121.63 1028.49,-111.05"/>
<polygon fill="black" stroke="black" points="1030.08,-114.16 1037.51,-106.61 1026.99,-107.88 1030.08,-114.16"/>
<text text-anchor="middle" x="1033.29" y="-128.8" font-family="Times,serif" font-size="14.00">schema:name</text>
</g>
</g>
</svg>
