<?xml version="1.0" encoding="UTF-8" standalone="no"?>
<!DOCTYPE svg PUBLIC "-//W3C//DTD SVG 1.1//EN"
 "http://www.w3.org/Graphics/SVG/1.1/DTD/svg11.dtd">
<!-- Generated by graphviz version 2.43.0 (0)
 -->
<!-- Title: %3 Pages: 1 -->
<svg width="550pt" height="584pt"
 viewBox="0.00 0.00 550.25 583.89" xmlns="http://www.w3.org/2000/svg" xmlns:xlink="http://www.w3.org/1999/xlink">
<g id="graph0" class="graph" transform="scale(1 1) rotate(0) translate(4 579.89)">
<title>%3</title>
<polygon fill="white" stroke="transparent" points="-4,4 -4,-579.89 546.25,-579.89 546.25,4 -4,4"/>
<text text-anchor="middle" x="271.12" y="-22.8" font-family="Times,serif" font-size="14.00">Model:</text>
<text text-anchor="middle" x="271.12" y="-7.8" font-family="Times,serif" font-size="14.00">https://iode.org/</text>
<!-- Rhttps://example.org/id/XYZ -->
<g id="node1" class="node">
<title>Rhttps://example.org/id/XYZ</title>
<ellipse fill="none" stroke="blue" cx="232.53" cy="-412.48" rx="109.38" ry="18"/>
<text text-anchor="middle" x="232.53" y="-408.78" font-family="Times,serif" font-size="14.00">https://example.org/id/XYZ</text>
</g>
<!-- Rschema:Dataset -->
<g id="node2" class="node">
<title>Rschema:Dataset</title>
<ellipse fill="none" stroke="blue" cx="343.35" cy="-527.56" rx="66.09" ry="18"/>
<text text-anchor="middle" x="343.35" y="-523.86" font-family="Times,serif" font-size="14.00">schema:Dataset</text>
</g>
<!-- Rhttps://example.org/id/XYZ&#45;&gt;Rschema:Dataset -->
<g id="edge1" class="edge">
<title>Rhttps://example.org/id/XYZ&#45;&gt;Rschema:Dataset</title>
<path fill="none" stroke="black" stroke-dasharray="1,5" d="M249.85,-430.46C268.58,-449.92 298.57,-481.06 319.52,-502.82"/>
<polygon fill="black" stroke="black" points="317.06,-505.31 326.52,-510.09 322.11,-500.46 317.06,-505.31"/>
<text text-anchor="middle" x="263.74" y="-474.13" font-family="Times,serif" font-size="14.00">rdfs:type</text>
</g>
<!-- B_:b0 -->
<g id="node3" class="node">
<title>B_:b0</title>
<ellipse fill="none" stroke="green" cx="71.91" cy="-418.44" rx="18" ry="18"/>
</g>
<!-- Rhttps://example.org/id/XYZ&#45;&gt;B_:b0 -->
<g id="edge2" class="edge">
<title>Rhttps://example.org/id/XYZ&#45;&gt;B_:b0</title>
<path fill="none" stroke="black" stroke-dasharray="1,5" d="M125.84,-416.44C116.55,-416.78 107.78,-417.11 100.13,-417.39"/>
<polygon fill="black" stroke="black" points="99.97,-413.89 90.11,-417.76 100.23,-420.89 99.97,-413.89"/>
<text text-anchor="middle" x="54" y="-420.9" font-family="Times,serif" font-size="14.00">schema:distribution</text>
</g>
<!-- LName or title of the document -->
<g id="node4" class="node">
<title>LName or title of the document</title>
<polygon fill="none" stroke="black" points="87.04,-539.39 87.04,-575.39 269.04,-575.39 269.04,-539.39 87.04,-539.39"/>
<text text-anchor="middle" x="178.04" y="-553.69" font-family="Times,serif" font-size="14.00">Name or title of the document</text>
</g>
<!-- Rhttps://example.org/id/XYZ&#45;&gt;LName or title of the document -->
<g id="edge3" class="edge">
<title>Rhttps://example.org/id/XYZ&#45;&gt;LName or title of the document</title>
<path fill="none" stroke="black" stroke-dasharray="1,5" d="M225.74,-430.54C216.4,-455.38 199.5,-500.32 188.53,-529.5"/>
<polygon fill="black" stroke="black" points="185.16,-528.51 184.92,-539.1 191.72,-530.97 185.16,-528.51"/>
<text text-anchor="middle" x="167.37" y="-488.53" font-family="Times,serif" font-size="14.00">schema:name</text>
</g>
<!-- B_:b1 -->
<g id="node5" class="node">
<title>B_:b1</title>
<ellipse fill="none" stroke="green" cx="266.88" cy="-244.1" rx="18" ry="18"/>
</g>
<!-- Rhttps://example.org/id/XYZ&#45;&gt;B_:b1 -->
<g id="edge4" class="edge">
<title>Rhttps://example.org/id/XYZ&#45;&gt;B_:b1</title>
<path fill="none" stroke="black" stroke-dasharray="1,5" d="M236.21,-394.46C242.22,-365.02 254.17,-306.39 261.25,-271.68"/>
<polygon fill="black" stroke="black" points="264.71,-272.24 263.28,-261.74 257.85,-270.84 264.71,-272.24"/>
<text text-anchor="middle" x="200.74" y="-331.92" font-family="Times,serif" font-size="14.00">schema:subjectOf</text>
</g>
<!-- Rschema:DataDownload -->
<g id="node6" class="node">
<title>Rschema:DataDownload</title>
<ellipse fill="none" stroke="blue" cx="116.53" cy="-284.64" rx="92.88" ry="18"/>
<text text-anchor="middle" x="116.53" y="-280.94" font-family="Times,serif" font-size="14.00">schema:DataDownload</text>
</g>
<!-- B_:b0&#45;&gt;Rschema:DataDownload -->
<g id="edge5" class="edge">
<title>B_:b0&#45;&gt;Rschema:DataDownload</title>
<path fill="none" stroke="black" stroke-dasharray="1,5" d="M77.65,-401.22C85.16,-378.69 98.42,-338.93 107.34,-312.19"/>
<polygon fill="black" stroke="black" points="110.68,-313.24 110.52,-302.64 104.04,-311.02 110.68,-313.24"/>
<text text-anchor="middle" x="69.61" y="-355.65" font-family="Times,serif" font-size="14.00">rdfs:type</text>
</g>
<!-- B_:b1&#45;&gt;Rschema:DataDownload -->
<g id="edge6" class="edge">
<title>B_:b1&#45;&gt;Rschema:DataDownload</title>
<path fill="none" stroke="black" stroke-dasharray="1,5" d="M249.34,-248.83C232.45,-253.38 205.85,-260.55 180.89,-267.29"/>
<polygon fill="black" stroke="black" points="179.8,-263.95 171.05,-269.94 181.62,-270.71 179.8,-263.95"/>
<text text-anchor="middle" x="185.71" y="-248.18" font-family="Times,serif" font-size="14.00">rdfs:type</text>
</g>
<!-- L2019&#45;06&#45;12T14:44:15Z -->
<g id="node7" class="node">
<title>L2019&#45;06&#45;12T14:44:15Z</title>
<polygon fill="none" stroke="black" points="59.33,-133.3 59.33,-169.3 203.33,-169.3 203.33,-133.3 59.33,-133.3"/>
<text text-anchor="middle" x="131.33" y="-147.6" font-family="Times,serif" font-size="14.00">2019&#45;06&#45;12T14:44:15Z</text>
</g>
<!-- B_:b1&#45;&gt;L2019&#45;06&#45;12T14:44:15Z -->
<g id="edge7" class="edge">
<title>B_:b1&#45;&gt;L2019&#45;06&#45;12T14:44:15Z</title>
<path fill="none" stroke="black" stroke-dasharray="1,5" d="M251.85,-233.81C231.3,-219.74 193.81,-194.08 166.08,-175.09"/>
<polygon fill="black" stroke="black" points="168.05,-172.2 157.82,-169.44 164.09,-177.97 168.05,-172.2"/>
<text text-anchor="middle" x="145.25" y="-205.37" font-family="Times,serif" font-size="14.00">schema:dateModified</text>
</g>
<!-- LEML metadata describing the dataset -->
<g id="node8" class="node">
<title>LEML metadata describing the dataset</title>
<polygon fill="none" stroke="black" points="296.77,-295.24 296.77,-331.24 516.77,-331.24 516.77,-295.24 296.77,-295.24"/>
<text text-anchor="middle" x="406.77" y="-309.54" font-family="Times,serif" font-size="14.00">EML metadata describing the dataset</text>
</g>
<!-- B_:b1&#45;&gt;LEML metadata describing the dataset -->
<g id="edge8" class="edge">
<title>B_:b1&#45;&gt;LEML metadata describing the dataset</title>
<path fill="none" stroke="black" stroke-dasharray="1,5" d="M283.2,-252.17C302.15,-261.54 334.24,-277.39 360.96,-290.6"/>
<polygon fill="black" stroke="black" points="359.65,-293.86 370.16,-295.15 362.75,-287.58 359.65,-293.86"/>
<text text-anchor="middle" x="273.65" y="-277.44" font-family="Times,serif" font-size="14.00">schema:description</text>
</g>
<!-- Lapplication/xml -->
<g id="node9" class="node">
<title>Lapplication/xml</title>
<polygon fill="none" stroke="black" points="178.18,-70.5 178.18,-106.5 280.18,-106.5 280.18,-70.5 178.18,-70.5"/>
<text text-anchor="middle" x="229.18" y="-84.8" font-family="Times,serif" font-size="14.00">application/xml</text>
</g>
<!-- B_:b1&#45;&gt;Lapplication/xml -->
<g id="edge9" class="edge">
<title>B_:b1&#45;&gt;Lapplication/xml</title>
<path fill="none" stroke="black" stroke-dasharray="1,5" d="M262.63,-226.55C256.16,-199.85 243.77,-148.73 236.02,-116.75"/>
<polygon fill="black" stroke="black" points="239.35,-115.6 233.59,-106.7 232.54,-117.25 239.35,-115.6"/>
<text text-anchor="middle" x="315.59" y="-155.34" font-family="Times,serif" font-size="14.00">schema:encodingFormat</text>
</g>
<!-- Lhttps://eml.ecoinformatics.org/eml&#45;2.2.0 -->
<g id="node10" class="node">
<title>Lhttps://eml.ecoinformatics.org/eml&#45;2.2.0</title>
<polygon fill="none" stroke="black" points="303.25,-183.6 303.25,-219.6 542.25,-219.6 542.25,-183.6 303.25,-183.6"/>
<text text-anchor="middle" x="422.75" y="-197.9" font-family="Times,serif" font-size="14.00">https://eml.ecoinformatics.org/eml&#45;2.2.0</text>
</g>
<!-- B_:b1&#45;&gt;Lhttps://eml.ecoinformatics.org/eml&#45;2.2.0 -->
<g id="edge10" class="edge">
<title>B_:b1&#45;&gt;Lhttps://eml.ecoinformatics.org/eml&#45;2.2.0</title>
<path fill="none" stroke="black" stroke-dasharray="1,5" d="M284.46,-239.31C299.85,-235.11 323.35,-228.7 346.62,-222.35"/>
<polygon fill="black" stroke="black" points="347.84,-225.65 356.56,-219.64 345.99,-218.9 347.84,-225.65"/>
<text text-anchor="middle" x="387.76" y="-233.34" font-family="Times,serif" font-size="14.00">schema:encodingFormat</text>
</g>
<!-- Leml&#45;metadata.xml -->
<g id="node11" class="node">
<title>Leml&#45;metadata.xml</title>
<polygon fill="none" stroke="black" points="289.68,-90.04 289.68,-126.04 406.68,-126.04 406.68,-90.04 289.68,-90.04"/>
<text text-anchor="middle" x="348.18" y="-104.34" font-family="Times,serif" font-size="14.00">eml&#45;metadata.xml</text>
</g>
<!-- B_:b1&#45;&gt;Leml&#45;metadata.xml -->
<g id="edge11" class="edge">
<title>B_:b1&#45;&gt;Leml&#45;metadata.xml</title>
<path fill="none" stroke="black" stroke-dasharray="1,5" d="M274.73,-227.87C281.17,-214.84 290.73,-196.18 300.05,-180.4 309.24,-164.84 320.36,-148 329.6,-134.49"/>
<polygon fill="black" stroke="black" points="332.57,-136.35 335.36,-126.13 326.8,-132.38 332.57,-136.35"/>
<text text-anchor="middle" x="264.91" y="-179.42" font-family="Times,serif" font-size="14.00">schema:name</text>
</g>
</g>
</svg>
