<?xml version="1.0" encoding="UTF-8" standalone="no"?>
<!DOCTYPE svg PUBLIC "-//W3C//DTD SVG 1.1//EN"
 "http://www.w3.org/Graphics/SVG/1.1/DTD/svg11.dtd">
<!-- Generated by graphviz version 2.43.0 (0)
 -->
<!-- Title: %3 Pages: 1 -->
<svg width="1139pt" height="536pt"
 viewBox="0.00 0.00 1139.38 535.50" xmlns="http://www.w3.org/2000/svg" xmlns:xlink="http://www.w3.org/1999/xlink">
<g id="graph0" class="graph" transform="scale(1 1) rotate(0) translate(4 531.5)">
<title>%3</title>
<polygon fill="white" stroke="transparent" points="-4,4 -4,-531.5 1135.38,-531.5 1135.38,4 -4,4"/>
<text text-anchor="middle" x="565.69" y="-22.8" font-family="Times,serif" font-size="14.00">Model:</text>
<text text-anchor="middle" x="565.69" y="-7.8" font-family="Times,serif" font-size="14.00">https://iode.org/</text>
<!-- Rhttps://example.org/id/XYZ -->
<g id="node1" class="node">
<title>Rhttps://example.org/id/XYZ</title>
<ellipse fill="none" stroke="blue" cx="109.19" cy="-399.5" rx="109.38" ry="18"/>
<text text-anchor="middle" x="109.19" y="-395.8" font-family="Times,serif" font-size="14.00">https://example.org/id/XYZ</text>
</g>
<!-- Rschema:Dataset -->
<g id="node2" class="node">
<title>Rschema:Dataset</title>
<ellipse fill="none" stroke="blue" cx="492.38" cy="-509.5" rx="66.09" ry="18"/>
<text text-anchor="middle" x="492.38" y="-505.8" font-family="Times,serif" font-size="14.00">schema:Dataset</text>
</g>
<!-- Rhttps://example.org/id/XYZ&#45;&gt;Rschema:Dataset -->
<g id="edge1" class="edge">
<title>Rhttps://example.org/id/XYZ&#45;&gt;Rschema:Dataset</title>
<path fill="none" stroke="black" stroke-dasharray="1,5" d="M145.15,-416.54C170.11,-428.19 204.74,-443.31 236.38,-453.5 299.18,-473.72 372.99,-489.05 425,-498.51"/>
<polygon fill="black" stroke="black" points="424.64,-502 435.1,-500.33 425.88,-495.11 424.64,-502"/>
<text text-anchor="middle" x="290.38" y="-485.3" font-family="Times,serif" font-size="14.00">rdfs:type</text>
</g>
<!-- LDescription of the dataset to aid in searching -->
<g id="node3" class="node">
<title>LDescription of the dataset to aid in searching</title>
<polygon fill="none" stroke="black" points="362.38,-436.5 362.38,-472.5 622.38,-472.5 622.38,-436.5 362.38,-436.5"/>
<text text-anchor="middle" x="492.38" y="-450.8" font-family="Times,serif" font-size="14.00">Description of the dataset to aid in searching</text>
</g>
<!-- Rhttps://example.org/id/XYZ&#45;&gt;LDescription of the dataset to aid in searching -->
<g id="edge2" class="edge">
<title>Rhttps://example.org/id/XYZ&#45;&gt;LDescription of the dataset to aid in searching</title>
<path fill="none" stroke="black" stroke-dasharray="1,5" d="M189.94,-411.62C205.35,-413.93 221.36,-416.31 236.38,-418.5 273.95,-423.98 314.65,-429.78 352.27,-435.1"/>
<polygon fill="black" stroke="black" points="351.89,-438.58 362.28,-436.51 352.86,-431.65 351.89,-438.58"/>
<text text-anchor="middle" x="290.38" y="-438.3" font-family="Times,serif" font-size="14.00">schema:description</text>
</g>
<!-- B_:b0 -->
<g id="node4" class="node">
<title>B_:b0</title>
<ellipse fill="none" stroke="green" cx="492.38" cy="-399.5" rx="18" ry="18"/>
</g>
<!-- Rhttps://example.org/id/XYZ&#45;&gt;B_:b0 -->
<g id="edge3" class="edge">
<title>Rhttps://example.org/id/XYZ&#45;&gt;B_:b0</title>
<path fill="none" stroke="black" stroke-dasharray="1,5" d="M218.4,-399.5C302.69,-399.5 413.58,-399.5 464.14,-399.5"/>
<polygon fill="black" stroke="black" points="464.27,-403 474.27,-399.5 464.26,-396 464.27,-403"/>
<text text-anchor="middle" x="290.38" y="-403.3" font-family="Times,serif" font-size="14.00">schema:distribution</text>
</g>
<!-- LName or title of the document -->
<g id="node5" class="node">
<title>LName or title of the document</title>
<polygon fill="none" stroke="black" points="401.38,-326.5 401.38,-362.5 583.38,-362.5 583.38,-326.5 401.38,-326.5"/>
<text text-anchor="middle" x="492.38" y="-340.8" font-family="Times,serif" font-size="14.00">Name or title of the document</text>
</g>
<!-- Rhttps://example.org/id/XYZ&#45;&gt;LName or title of the document -->
<g id="edge4" class="edge">
<title>Rhttps://example.org/id/XYZ&#45;&gt;LName or title of the document</title>
<path fill="none" stroke="black" stroke-dasharray="1,5" d="M189.94,-387.38C205.35,-385.07 221.36,-382.69 236.38,-380.5 287.39,-373.06 344.17,-365.02 391.18,-358.43"/>
<polygon fill="black" stroke="black" points="391.95,-361.86 401.37,-357 390.98,-354.92 391.95,-361.86"/>
<text text-anchor="middle" x="290.38" y="-384.3" font-family="Times,serif" font-size="14.00">schema:name</text>
</g>
<!-- B_:b1 -->
<g id="node6" class="node">
<title>B_:b1</title>
<ellipse fill="none" stroke="green" cx="492.38" cy="-253.5" rx="18" ry="18"/>
</g>
<!-- Rhttps://example.org/id/XYZ&#45;&gt;B_:b1 -->
<g id="edge5" class="edge">
<title>Rhttps://example.org/id/XYZ&#45;&gt;B_:b1</title>
<path fill="none" stroke="black" stroke-dasharray="1,5" d="M148.93,-382.66C173.8,-372 206.85,-358.08 236.38,-346.5 319.59,-313.88 419.46,-278.55 465.64,-262.43"/>
<polygon fill="black" stroke="black" points="466.88,-265.7 475.17,-259.11 464.57,-259.09 466.88,-265.7"/>
<text text-anchor="middle" x="290.38" y="-350.3" font-family="Times,serif" font-size="14.00">schema:subjectOf</text>
</g>
<!-- Rschema:DataDownload -->
<g id="node7" class="node">
<title>Rschema:DataDownload</title>
<ellipse fill="none" stroke="blue" cx="962.38" cy="-363.5" rx="92.88" ry="18"/>
<text text-anchor="middle" x="962.38" y="-359.8" font-family="Times,serif" font-size="14.00">schema:DataDownload</text>
</g>
<!-- B_:b0&#45;&gt;Rschema:DataDownload -->
<g id="edge6" class="edge">
<title>B_:b0&#45;&gt;Rschema:DataDownload</title>
<path fill="none" stroke="black" stroke-dasharray="1,5" d="M510.58,-398.06C538.02,-395.77 593.41,-391.17 640.38,-387.5 715.87,-381.6 801.38,-375.22 865.15,-370.52"/>
<polygon fill="black" stroke="black" points="865.48,-374.01 875.19,-369.78 864.96,-367.03 865.48,-374.01"/>
<text text-anchor="middle" x="707.88" y="-391.3" font-family="Times,serif" font-size="14.00">rdfs:type</text>
</g>
<!-- Lhttps://www.sample&#45;data&#45;repository.org/dataset/472032.tsv -->
<g id="node8" class="node">
<title>Lhttps://www.sample&#45;data&#45;repository.org/dataset/472032.tsv</title>
<polygon fill="none" stroke="black" points="793.38,-455.5 793.38,-491.5 1131.38,-491.5 1131.38,-455.5 793.38,-455.5"/>
<text text-anchor="middle" x="962.38" y="-469.8" font-family="Times,serif" font-size="14.00">https://www.sample&#45;data&#45;repository.org/dataset/472032.tsv</text>
</g>
<!-- B_:b0&#45;&gt;Lhttps://www.sample&#45;data&#45;repository.org/dataset/472032.tsv -->
<g id="edge7" class="edge">
<title>B_:b0&#45;&gt;Lhttps://www.sample&#45;data&#45;repository.org/dataset/472032.tsv</title>
<path fill="none" stroke="black" stroke-dasharray="1,5" d="M510.09,-402.93C534.7,-407.99 582.12,-417.81 622.38,-426.5 630.39,-428.23 632.31,-429.07 640.38,-430.5 690.98,-439.49 746.37,-447.55 796.68,-454.19"/>
<polygon fill="black" stroke="black" points="796.3,-457.67 806.67,-455.49 797.21,-450.73 796.3,-457.67"/>
<text text-anchor="middle" x="707.88" y="-455.3" font-family="Times,serif" font-size="14.00">schema:contentUrl</text>
</g>
<!-- Ltext/tab&#45;separated&#45;values -->
<g id="node9" class="node">
<title>Ltext/tab&#45;separated&#45;values</title>
<polygon fill="none" stroke="black" points="886.38,-400.5 886.38,-436.5 1038.38,-436.5 1038.38,-400.5 886.38,-400.5"/>
<text text-anchor="middle" x="962.38" y="-414.8" font-family="Times,serif" font-size="14.00">text/tab&#45;separated&#45;values</text>
</g>
<!-- B_:b0&#45;&gt;Ltext/tab&#45;separated&#45;values -->
<g id="edge8" class="edge">
<title>B_:b0&#45;&gt;Ltext/tab&#45;separated&#45;values</title>
<path fill="none" stroke="black" stroke-dasharray="1,5" d="M510.59,-400.2C569.02,-402.57 762.45,-410.42 876.06,-415.04"/>
<polygon fill="black" stroke="black" points="875.99,-418.54 886.13,-415.44 876.28,-411.54 875.99,-418.54"/>
<text text-anchor="middle" x="707.88" y="-415.3" font-family="Times,serif" font-size="14.00">schema:encodingFormat</text>
</g>
<!-- B_:b1&#45;&gt;Rschema:DataDownload -->
<g id="edge9" class="edge">
<title>B_:b1&#45;&gt;Rschema:DataDownload</title>
<path fill="none" stroke="black" stroke-dasharray="1,5" d="M509.4,-260.42C536.1,-271.71 591.6,-294.18 640.38,-307.5 717.7,-328.61 807.75,-343.5 872.76,-352.6"/>
<polygon fill="black" stroke="black" points="872.59,-356.11 882.97,-354.01 873.54,-349.17 872.59,-356.11"/>
<text text-anchor="middle" x="707.88" y="-340.3" font-family="Times,serif" font-size="14.00">rdfs:type</text>
</g>
<!-- L2019&#45;06&#45;12T14:44:15Z -->
<g id="node10" class="node">
<title>L2019&#45;06&#45;12T14:44:15Z</title>
<polygon fill="none" stroke="black" points="890.38,-125.5 890.38,-161.5 1034.38,-161.5 1034.38,-125.5 890.38,-125.5"/>
<text text-anchor="middle" x="962.38" y="-139.8" font-family="Times,serif" font-size="14.00">2019&#45;06&#45;12T14:44:15Z</text>
</g>
<!-- B_:b1&#45;&gt;L2019&#45;06&#45;12T14:44:15Z -->
<g id="edge10" class="edge">
<title>B_:b1&#45;&gt;L2019&#45;06&#45;12T14:44:15Z</title>
<path fill="none" stroke="black" stroke-dasharray="1,5" d="M509.43,-246.8C536.18,-235.83 591.75,-213.95 640.38,-200.5 720.51,-178.34 814.37,-162.84 879.82,-153.66"/>
<polygon fill="black" stroke="black" points="880.65,-157.08 890.08,-152.24 879.69,-150.14 880.65,-157.08"/>
<text text-anchor="middle" x="707.88" y="-204.3" font-family="Times,serif" font-size="14.00">schema:dateModified</text>
</g>
<!-- LEML metadata describing the dataset -->
<g id="node11" class="node">
<title>LEML metadata describing the dataset</title>
<polygon fill="none" stroke="black" points="852.38,-70.5 852.38,-106.5 1072.38,-106.5 1072.38,-70.5 852.38,-70.5"/>
<text text-anchor="middle" x="962.38" y="-84.8" font-family="Times,serif" font-size="14.00">EML metadata describing the dataset</text>
</g>
<!-- B_:b1&#45;&gt;LEML metadata describing the dataset -->
<g id="edge11" class="edge">
<title>B_:b1&#45;&gt;LEML metadata describing the dataset</title>
<path fill="none" stroke="black" stroke-dasharray="1,5" d="M506.55,-241.93C531.13,-220.96 586.37,-176.6 640.38,-152.5 703.8,-124.21 779.81,-108.34 841.95,-99.49"/>
<polygon fill="black" stroke="black" points="842.76,-102.91 852.19,-98.07 841.8,-95.97 842.76,-102.91"/>
<text text-anchor="middle" x="707.88" y="-156.3" font-family="Times,serif" font-size="14.00">schema:description</text>
</g>
<!-- Lapplication/xml -->
<g id="node12" class="node">
<title>Lapplication/xml</title>
<polygon fill="none" stroke="black" points="911.38,-290.5 911.38,-326.5 1013.38,-326.5 1013.38,-290.5 911.38,-290.5"/>
<text text-anchor="middle" x="962.38" y="-304.8" font-family="Times,serif" font-size="14.00">application/xml</text>
</g>
<!-- B_:b1&#45;&gt;Lapplication/xml -->
<g id="edge12" class="edge">
<title>B_:b1&#45;&gt;Lapplication/xml</title>
<path fill="none" stroke="black" stroke-dasharray="1,5" d="M510.57,-255.82C538,-259.49 593.37,-266.83 640.38,-272.5 731.28,-283.47 836.8,-295.09 901.31,-302.07"/>
<polygon fill="black" stroke="black" points="900.99,-305.55 911.31,-303.15 901.74,-298.6 900.99,-305.55"/>
<text text-anchor="middle" x="707.88" y="-292.3" font-family="Times,serif" font-size="14.00">schema:encodingFormat</text>
</g>
<!-- Lhttps://eml.ecoinformatics.org/eml&#45;2.2.0 -->
<g id="node13" class="node">
<title>Lhttps://eml.ecoinformatics.org/eml&#45;2.2.0</title>
<polygon fill="none" stroke="black" points="842.88,-235.5 842.88,-271.5 1081.88,-271.5 1081.88,-235.5 842.88,-235.5"/>
<text text-anchor="middle" x="962.38" y="-249.8" font-family="Times,serif" font-size="14.00">https://eml.ecoinformatics.org/eml&#45;2.2.0</text>
</g>
<!-- B_:b1&#45;&gt;Lhttps://eml.ecoinformatics.org/eml&#45;2.2.0 -->
<g id="edge13" class="edge">
<title>B_:b1&#45;&gt;Lhttps://eml.ecoinformatics.org/eml&#45;2.2.0</title>
<path fill="none" stroke="black" stroke-dasharray="1,5" d="M510.59,-253.5C562.06,-253.5 718.26,-253.5 832.41,-253.5"/>
<polygon fill="black" stroke="black" points="832.62,-257 842.62,-253.5 832.62,-250 832.62,-257"/>
<text text-anchor="middle" x="707.88" y="-257.3" font-family="Times,serif" font-size="14.00">schema:encodingFormat</text>
</g>
<!-- Leml&#45;metadata.xml -->
<g id="node14" class="node">
<title>Leml&#45;metadata.xml</title>
<polygon fill="none" stroke="black" points="903.88,-180.5 903.88,-216.5 1020.88,-216.5 1020.88,-180.5 903.88,-180.5"/>
<text text-anchor="middle" x="962.38" y="-194.8" font-family="Times,serif" font-size="14.00">eml&#45;metadata.xml</text>
</g>
<!-- B_:b1&#45;&gt;Leml&#45;metadata.xml -->
<g id="edge14" class="edge">
<title>B_:b1&#45;&gt;Leml&#45;metadata.xml</title>
<path fill="none" stroke="black" stroke-dasharray="1,5" d="M510.57,-251.18C538,-247.51 593.37,-240.17 640.38,-234.5 727.71,-223.96 828.54,-212.82 893.53,-205.77"/>
<polygon fill="black" stroke="black" points="894.08,-209.23 903.65,-204.68 893.33,-202.27 894.08,-209.23"/>
<text text-anchor="middle" x="707.88" y="-238.3" font-family="Times,serif" font-size="14.00">schema:name</text>
</g>
</g>
</svg>
