<?xml version="1.0" encoding="UTF-8" standalone="no"?>
<!DOCTYPE svg PUBLIC "-//W3C//DTD SVG 1.1//EN"
 "http://www.w3.org/Graphics/SVG/1.1/DTD/svg11.dtd">
<!-- Generated by graphviz version 2.43.0 (0)
 -->
<!-- Title: %3 Pages: 1 -->
<svg width="1171pt" height="622pt"
 viewBox="0.00 0.00 1170.55 622.00" xmlns="http://www.w3.org/2000/svg" xmlns:xlink="http://www.w3.org/1999/xlink">
<g id="graph0" class="graph" transform="scale(1 1) rotate(0) translate(4 618)">
<title>%3</title>
<polygon fill="white" stroke="transparent" points="-4,4 -4,-618 1166.55,-618 1166.55,4 -4,4"/>
<text text-anchor="middle" x="581.28" y="-22.8" font-family="Times,serif" font-size="14.00">Model:</text>
<text text-anchor="middle" x="581.28" y="-7.8" font-family="Times,serif" font-size="14.00">https://iode.org/</text>
<!-- Rhttps://example.org/id/XYZ -->
<g id="node1" class="node">
<title>Rhttps://example.org/id/XYZ</title>
<ellipse fill="none" stroke="blue" cx="109.19" cy="-319" rx="109.38" ry="18"/>
<text text-anchor="middle" x="109.19" y="-315.3" font-family="Times,serif" font-size="14.00">https://example.org/id/XYZ</text>
</g>
<!-- Rschema:Dataset -->
<g id="node2" class="node">
<title>Rschema:Dataset</title>
<ellipse fill="none" stroke="blue" cx="507.97" cy="-477" rx="66.09" ry="18"/>
<text text-anchor="middle" x="507.97" y="-473.3" font-family="Times,serif" font-size="14.00">schema:Dataset</text>
</g>
<!-- Rhttps://example.org/id/XYZ&#45;&gt;Rschema:Dataset -->
<g id="edge1" class="edge">
<title>Rhttps://example.org/id/XYZ&#45;&gt;Rschema:Dataset</title>
<path fill="none" stroke="black" stroke-dasharray="1,5" d="M130.73,-337C154.66,-357.18 196.08,-389.73 236.38,-410 300.21,-442.11 380.41,-459.47 436.87,-468.41"/>
<polygon fill="black" stroke="black" points="436.36,-471.87 446.78,-469.93 437.42,-464.95 436.36,-471.87"/>
<text text-anchor="middle" x="290.38" y="-452.8" font-family="Times,serif" font-size="14.00">rdfs:type</text>
</g>
<!-- LDescription of the dataset to aid in searching -->
<g id="node3" class="node">
<title>LDescription of the dataset to aid in searching</title>
<polygon fill="none" stroke="black" points="377.97,-404 377.97,-440 637.97,-440 637.97,-404 377.97,-404"/>
<text text-anchor="middle" x="507.97" y="-418.3" font-family="Times,serif" font-size="14.00">Description of the dataset to aid in searching</text>
</g>
<!-- Rhttps://example.org/id/XYZ&#45;&gt;LDescription of the dataset to aid in searching -->
<g id="edge2" class="edge">
<title>Rhttps://example.org/id/XYZ&#45;&gt;LDescription of the dataset to aid in searching</title>
<path fill="none" stroke="black" stroke-dasharray="1,5" d="M150.63,-335.68C175.15,-345.39 207.24,-357.38 236.38,-366 285.77,-380.61 341.33,-392.81 389.19,-402.06"/>
<polygon fill="black" stroke="black" points="388.8,-405.55 399.28,-403.99 390.11,-398.68 388.8,-405.55"/>
<text text-anchor="middle" x="290.38" y="-394.8" font-family="Times,serif" font-size="14.00">schema:description</text>
</g>
<!-- B_:b0 -->
<g id="node4" class="node">
<title>B_:b0</title>
<ellipse fill="none" stroke="green" cx="507.97" cy="-272" rx="18" ry="18"/>
</g>
<!-- Rhttps://example.org/id/XYZ&#45;&gt;B_:b0 -->
<g id="edge3" class="edge">
<title>Rhttps://example.org/id/XYZ&#45;&gt;B_:b0</title>
<path fill="none" stroke="black" stroke-dasharray="1,5" d="M198.25,-308.57C288.33,-297.9 422.92,-281.96 479.91,-275.2"/>
<polygon fill="black" stroke="black" points="480.42,-278.67 489.93,-274.02 479.59,-271.72 480.42,-278.67"/>
<text text-anchor="middle" x="290.38" y="-306.8" font-family="Times,serif" font-size="14.00">schema:distribution</text>
</g>
<!-- Rhttps://link.to/PID_like_re3_or_others -->
<g id="node5" class="node">
<title>Rhttps://link.to/PID_like_re3_or_others</title>
<ellipse fill="none" stroke="blue" cx="507.97" cy="-171" rx="145.67" ry="18"/>
<text text-anchor="middle" x="507.97" y="-167.3" font-family="Times,serif" font-size="14.00">https://link.to/PID_like_re3_or_others</text>
</g>
<!-- Rhttps://example.org/id/XYZ&#45;&gt;Rhttps://link.to/PID_like_re3_or_others -->
<g id="edge4" class="edge">
<title>Rhttps://example.org/id/XYZ&#45;&gt;Rhttps://link.to/PID_like_re3_or_others</title>
<path fill="none" stroke="black" stroke-dasharray="1,5" d="M154.17,-302.6C226.88,-275.48 372,-221.34 451.59,-191.66"/>
<polygon fill="black" stroke="black" points="452.81,-194.94 460.96,-188.16 450.37,-188.38 452.81,-194.94"/>
<text text-anchor="middle" x="290.38" y="-274.8" font-family="Times,serif" font-size="14.00">schema:maintainer</text>
</g>
<!-- LName or title of the document -->
<g id="node6" class="node">
<title>LName or title of the document</title>
<polygon fill="none" stroke="black" points="416.97,-98 416.97,-134 598.97,-134 598.97,-98 416.97,-98"/>
<text text-anchor="middle" x="507.97" y="-112.3" font-family="Times,serif" font-size="14.00">Name or title of the document</text>
</g>
<!-- Rhttps://example.org/id/XYZ&#45;&gt;LName or title of the document -->
<g id="edge5" class="edge">
<title>Rhttps://example.org/id/XYZ&#45;&gt;LName or title of the document</title>
<path fill="none" stroke="black" stroke-dasharray="1,5" d="M128.85,-301C152.64,-278.58 195.58,-239.86 236.38,-212 288.93,-176.12 302.45,-165.41 362.38,-144 376.5,-138.96 391.74,-134.75 406.85,-131.27"/>
<polygon fill="black" stroke="black" points="407.73,-134.66 416.74,-129.08 406.22,-127.82 407.73,-134.66"/>
<text text-anchor="middle" x="290.38" y="-215.8" font-family="Times,serif" font-size="14.00">schema:name</text>
</g>
<!-- B_:b1 -->
<g id="node7" class="node">
<title>B_:b1</title>
<ellipse fill="none" stroke="green" cx="507.97" cy="-367" rx="18" ry="18"/>
</g>
<!-- Rhttps://example.org/id/XYZ&#45;&gt;B_:b1 -->
<g id="edge6" class="edge">
<title>Rhttps://example.org/id/XYZ&#45;&gt;B_:b1</title>
<path fill="none" stroke="black" stroke-dasharray="1,5" d="M197.76,-329.59C287.8,-340.49 422.7,-356.81 479.84,-363.72"/>
<polygon fill="black" stroke="black" points="479.54,-367.21 489.89,-364.93 480.38,-360.26 479.54,-367.21"/>
<text text-anchor="middle" x="290.38" y="-350.8" font-family="Times,serif" font-size="14.00">schema:subjectOf</text>
</g>
<!-- Rschema:DataDownload -->
<g id="node10" class="node">
<title>Rschema:DataDownload</title>
<ellipse fill="none" stroke="blue" cx="993.55" cy="-308" rx="92.88" ry="18"/>
<text text-anchor="middle" x="993.55" y="-304.3" font-family="Times,serif" font-size="14.00">schema:DataDownload</text>
</g>
<!-- B_:b0&#45;&gt;Rschema:DataDownload -->
<g id="edge9" class="edge">
<title>B_:b0&#45;&gt;Rschema:DataDownload</title>
<path fill="none" stroke="black" stroke-dasharray="1,5" d="M526.09,-273.04C571.69,-275.83 699.94,-283.83 806.55,-292 836.47,-294.29 869.08,-297.02 898.52,-299.57"/>
<polygon fill="black" stroke="black" points="898.52,-303.08 908.79,-300.46 899.13,-296.11 898.52,-303.08"/>
<text text-anchor="middle" x="739.05" y="-295.8" font-family="Times,serif" font-size="14.00">rdfs:type</text>
</g>
<!-- Lhttps://www.sample&#45;data&#45;repository.org/dataset/472032.tsv -->
<g id="node11" class="node">
<title>Lhttps://www.sample&#45;data&#45;repository.org/dataset/472032.tsv</title>
<polygon fill="none" stroke="black" points="824.55,-180 824.55,-216 1162.55,-216 1162.55,-180 824.55,-180"/>
<text text-anchor="middle" x="993.55" y="-194.3" font-family="Times,serif" font-size="14.00">https://www.sample&#45;data&#45;repository.org/dataset/472032.tsv</text>
</g>
<!-- B_:b0&#45;&gt;Lhttps://www.sample&#45;data&#45;repository.org/dataset/472032.tsv -->
<g id="edge10" class="edge">
<title>B_:b0&#45;&gt;Lhttps://www.sample&#45;data&#45;repository.org/dataset/472032.tsv</title>
<path fill="none" stroke="black" stroke-dasharray="1,5" d="M525.41,-267.01C554.57,-258.35 617.37,-240.56 671.55,-231 717.56,-222.88 767.65,-216.55 814.28,-211.7"/>
<polygon fill="black" stroke="black" points="814.89,-215.16 824.49,-210.66 814.18,-208.19 814.89,-215.16"/>
<text text-anchor="middle" x="739.05" y="-234.8" font-family="Times,serif" font-size="14.00">schema:contentUrl</text>
</g>
<!-- Ltext/tab&#45;separated&#45;values -->
<g id="node12" class="node">
<title>Ltext/tab&#45;separated&#45;values</title>
<polygon fill="none" stroke="black" points="917.55,-235 917.55,-271 1069.55,-271 1069.55,-235 917.55,-235"/>
<text text-anchor="middle" x="993.55" y="-249.3" font-family="Times,serif" font-size="14.00">text/tab&#45;separated&#45;values</text>
</g>
<!-- B_:b0&#45;&gt;Ltext/tab&#45;separated&#45;values -->
<g id="edge11" class="edge">
<title>B_:b0&#45;&gt;Ltext/tab&#45;separated&#45;values</title>
<path fill="none" stroke="black" stroke-dasharray="1,5" d="M526.01,-269.5C555.55,-265.31 618.25,-257.03 671.55,-254 751.3,-249.47 842.38,-249.7 907.1,-250.78"/>
<polygon fill="black" stroke="black" points="907.19,-254.28 917.25,-250.96 907.31,-247.28 907.19,-254.28"/>
<text text-anchor="middle" x="739.05" y="-257.8" font-family="Times,serif" font-size="14.00">schema:encodingFormat</text>
</g>
<!-- Rschema:Organization -->
<g id="node8" class="node">
<title>Rschema:Organization</title>
<ellipse fill="none" stroke="blue" cx="993.55" cy="-88" rx="85.59" ry="18"/>
<text text-anchor="middle" x="993.55" y="-84.3" font-family="Times,serif" font-size="14.00">schema:Organization</text>
</g>
<!-- Rhttps://link.to/PID_like_re3_or_others&#45;&gt;Rschema:Organization -->
<g id="edge7" class="edge">
<title>Rhttps://link.to/PID_like_re3_or_others&#45;&gt;Rschema:Organization</title>
<path fill="none" stroke="black" stroke-dasharray="1,5" d="M598.84,-156.88C617.14,-153.09 636.12,-148.49 653.55,-143 661.91,-140.37 663.15,-137.43 671.55,-135 747.43,-113.03 836.51,-101.03 901.56,-94.66"/>
<polygon fill="black" stroke="black" points="902.16,-98.12 911.79,-93.69 901.5,-91.15 902.16,-98.12"/>
<text text-anchor="middle" x="739.05" y="-138.8" font-family="Times,serif" font-size="14.00">rdfs:type</text>
</g>
<!-- LOrganization or Person who maintains the creative work -->
<g id="node9" class="node">
<title>LOrganization or Person who maintains the creative work</title>
<polygon fill="none" stroke="black" points="831.05,-125 831.05,-161 1156.05,-161 1156.05,-125 831.05,-125"/>
<text text-anchor="middle" x="993.55" y="-139.3" font-family="Times,serif" font-size="14.00">Organization or Person who maintains the creative work</text>
</g>
<!-- Rhttps://link.to/PID_like_re3_or_others&#45;&gt;LOrganization or Person who maintains the creative work -->
<g id="edge8" class="edge">
<title>Rhttps://link.to/PID_like_re3_or_others&#45;&gt;LOrganization or Person who maintains the creative work</title>
<path fill="none" stroke="black" stroke-dasharray="1,5" d="M638.53,-162.97C649.7,-162.29 660.83,-161.63 671.55,-161 719.93,-158.16 772.42,-155.17 820.66,-152.47"/>
<polygon fill="black" stroke="black" points="821.1,-155.95 830.89,-151.89 820.71,-148.96 821.1,-155.95"/>
<text text-anchor="middle" x="739.05" y="-164.8" font-family="Times,serif" font-size="14.00">schema:description</text>
</g>
<!-- B_:b1&#45;&gt;Rschema:DataDownload -->
<g id="edge12" class="edge">
<title>B_:b1&#45;&gt;Rschema:DataDownload</title>
<path fill="none" stroke="black" stroke-dasharray="1,5" d="M526.04,-364.58C555.64,-360.4 618.42,-351.66 671.55,-345 749.36,-335.25 837.89,-325.12 902.25,-317.93"/>
<polygon fill="black" stroke="black" points="902.81,-321.39 912.36,-316.8 902.04,-314.43 902.81,-321.39"/>
<text text-anchor="middle" x="739.05" y="-348.8" font-family="Times,serif" font-size="14.00">rdfs:type</text>
</g>
<!-- L2019&#45;06&#45;12T14:44:15Z -->
<g id="node13" class="node">
<title>L2019&#45;06&#45;12T14:44:15Z</title>
<polygon fill="none" stroke="black" points="921.55,-565 921.55,-601 1065.55,-601 1065.55,-565 921.55,-565"/>
<text text-anchor="middle" x="993.55" y="-579.3" font-family="Times,serif" font-size="14.00">2019&#45;06&#45;12T14:44:15Z</text>
</g>
<!-- B_:b1&#45;&gt;L2019&#45;06&#45;12T14:44:15Z -->
<g id="edge13" class="edge">
<title>B_:b1&#45;&gt;L2019&#45;06&#45;12T14:44:15Z</title>
<path fill="none" stroke="black" stroke-dasharray="1,5" d="M526.24,-364.53C556.84,-361.25 620.45,-359.45 653.55,-395 699.02,-443.81 624.4,-496.82 671.55,-544 733.24,-605.72 838.36,-606.87 911.43,-598.25"/>
<polygon fill="black" stroke="black" points="912.03,-601.7 921.52,-596.97 911.16,-594.75 912.03,-601.7"/>
<text text-anchor="middle" x="739.05" y="-602.8" font-family="Times,serif" font-size="14.00">schema:dateModified</text>
</g>
<!-- LEML metadata describing the dataset -->
<g id="node14" class="node">
<title>LEML metadata describing the dataset</title>
<polygon fill="none" stroke="black" points="883.55,-510 883.55,-546 1103.55,-546 1103.55,-510 883.55,-510"/>
<text text-anchor="middle" x="993.55" y="-524.3" font-family="Times,serif" font-size="14.00">EML metadata describing the dataset</text>
</g>
<!-- B_:b1&#45;&gt;LEML metadata describing the dataset -->
<g id="edge14" class="edge">
<title>B_:b1&#45;&gt;LEML metadata describing the dataset</title>
<path fill="none" stroke="black" stroke-dasharray="1,5" d="M526.23,-364.98C556.24,-362.5 618.19,-362.07 653.55,-395 676.12,-416.01 649.61,-440.34 671.55,-462 723.93,-513.71 805.34,-530.01 873.06,-533.49"/>
<polygon fill="black" stroke="black" points="873.24,-537 883.38,-533.92 873.54,-530 873.24,-537"/>
<text text-anchor="middle" x="739.05" y="-528.8" font-family="Times,serif" font-size="14.00">schema:description</text>
</g>
<!-- Lapplication/xml -->
<g id="node15" class="node">
<title>Lapplication/xml</title>
<polygon fill="none" stroke="black" points="942.55,-455 942.55,-491 1044.55,-491 1044.55,-455 942.55,-455"/>
<text text-anchor="middle" x="993.55" y="-469.3" font-family="Times,serif" font-size="14.00">application/xml</text>
</g>
<!-- B_:b1&#45;&gt;Lapplication/xml -->
<g id="edge15" class="edge">
<title>B_:b1&#45;&gt;Lapplication/xml</title>
<path fill="none" stroke="black" stroke-dasharray="1,5" d="M526.27,-366.77C554.75,-367.14 612.44,-371.09 653.55,-395 664.18,-401.18 660.94,-409.81 671.55,-416 731.42,-450.9 756.34,-433.83 824.55,-446 860.24,-452.36 900.32,-458.83 932.38,-463.84"/>
<polygon fill="black" stroke="black" points="932.07,-467.33 942.49,-465.41 933.15,-460.42 932.07,-467.33"/>
<text text-anchor="middle" x="739.05" y="-446.8" font-family="Times,serif" font-size="14.00">schema:encodingFormat</text>
</g>
<!-- Lhttps://eml.ecoinformatics.org/eml&#45;2.2.0 -->
<g id="node16" class="node">
<title>Lhttps://eml.ecoinformatics.org/eml&#45;2.2.0</title>
<polygon fill="none" stroke="black" points="874.05,-400 874.05,-436 1113.05,-436 1113.05,-400 874.05,-400"/>
<text text-anchor="middle" x="993.55" y="-414.3" font-family="Times,serif" font-size="14.00">https://eml.ecoinformatics.org/eml&#45;2.2.0</text>
</g>
<!-- B_:b1&#45;&gt;Lhttps://eml.ecoinformatics.org/eml&#45;2.2.0 -->
<g id="edge16" class="edge">
<title>B_:b1&#45;&gt;Lhttps://eml.ecoinformatics.org/eml&#45;2.2.0</title>
<path fill="none" stroke="black" stroke-dasharray="1,5" d="M525.9,-368.79C578.81,-374.37 744.65,-391.86 863.57,-404.4"/>
<polygon fill="black" stroke="black" points="863.53,-407.91 873.84,-405.48 864.27,-400.95 863.53,-407.91"/>
<text text-anchor="middle" x="739.05" y="-400.8" font-family="Times,serif" font-size="14.00">schema:encodingFormat</text>
</g>
<!-- Leml&#45;metadata.xml -->
<g id="node17" class="node">
<title>Leml&#45;metadata.xml</title>
<polygon fill="none" stroke="black" points="935.05,-345 935.05,-381 1052.05,-381 1052.05,-345 935.05,-345"/>
<text text-anchor="middle" x="993.55" y="-359.3" font-family="Times,serif" font-size="14.00">eml&#45;metadata.xml</text>
</g>
<!-- B_:b1&#45;&gt;Leml&#45;metadata.xml -->
<g id="edge17" class="edge">
<title>B_:b1&#45;&gt;Leml&#45;metadata.xml</title>
<path fill="none" stroke="black" stroke-dasharray="1,5" d="M526.18,-366.86C589.4,-366.33 811.03,-364.5 924.5,-363.56"/>
<polygon fill="black" stroke="black" points="924.83,-367.06 934.8,-363.48 924.77,-360.06 924.83,-367.06"/>
<text text-anchor="middle" x="739.05" y="-368.8" font-family="Times,serif" font-size="14.00">schema:name</text>
</g>
</g>
</svg>
