<?xml version="1.0" encoding="UTF-8" standalone="no"?>
<!DOCTYPE svg PUBLIC "-//W3C//DTD SVG 1.1//EN"
 "http://www.w3.org/Graphics/SVG/1.1/DTD/svg11.dtd">
<!-- Generated by graphviz version 5.0.0 (0)
 -->
<!-- Pages: 1 -->
<svg width="1085pt" height="206pt"
 viewBox="0.00 0.00 1084.92 206.00" xmlns="http://www.w3.org/2000/svg" xmlns:xlink="http://www.w3.org/1999/xlink">
<g id="graph0" class="graph" transform="scale(1 1) rotate(0) translate(4 202)">
<polygon fill="white" stroke="transparent" points="-4,4 -4,-202 1080.92,-202 1080.92,4 -4,4"/>
<!-- PropertyValue -->
<g id="node1" class="node">
<title>PropertyValue</title>
<ellipse fill="none" stroke="#558855" cx="942.39" cy="-180" rx="77.19" ry="18"/>
<text text-anchor="middle" x="942.39" y="-176.3" font-family="Times,serif" font-size="14.00">PropertyValue</text>
</g>
<!-- grid.ac/institutes/grid.475727.4 -->
<g id="node2" class="node">
<title>grid.ac/institutes/grid.475727.4</title>
<ellipse fill="none" stroke="#558855" cx="531.61" cy="-99" rx="159.47" ry="18"/>
<text text-anchor="middle" x="531.61" y="-95.3" font-family="Times,serif" font-size="14.00">grid.ac/institutes/grid.475727.4</text>
</g>
<!-- grid.ac/institutes/grid.475727.4&#45;&gt;PropertyValue -->
<g id="edge1" class="edge">
<title>grid.ac/institutes/grid.475727.4&#45;&gt;PropertyValue</title>
<path fill="none" stroke="black" d="M611.13,-114.61C641.64,-120.67 676.87,-127.66 708.85,-134 763.94,-144.92 826.39,-157.27 872.69,-166.42"/>
<polygon fill="black" stroke="black" points="872.12,-169.88 882.61,-168.39 873.48,-163.01 872.12,-169.88"/>
<text text-anchor="middle" x="749.35" y="-152.8" font-family="Times,serif" font-size="14.00">type</text>
</g>
<!-- &quot;UN Department of Eco...&quot; -->
<g id="node3" class="node">
<title>&quot;UN Department of Eco...&quot;</title>
<ellipse fill="none" stroke="black" stroke-width="0" cx="942.39" cy="-126" rx="134.58" ry="18"/>
<text text-anchor="middle" x="942.39" y="-122.3" font-family="Times,serif" font-size="14.00">&quot;UN Department of Eco...&quot;</text>
</g>
<!-- grid.ac/institutes/grid.475727.4&#45;&gt;&quot;UN Department of Eco...&quot; -->
<g id="edge2" class="edge">
<title>grid.ac/institutes/grid.475727.4&#45;&gt;&quot;UN Department of Eco...&quot;</title>
<path fill="none" stroke="black" d="M669.58,-108.05C715.31,-111.07 766.11,-114.42 811.3,-117.41"/>
<polygon fill="black" stroke="black" points="811.24,-120.91 821.45,-118.08 811.71,-113.93 811.24,-120.91"/>
<text text-anchor="middle" x="749.35" y="-118.8" font-family="Times,serif" font-size="14.00">description</text>
</g>
<!-- &quot;https//registry.iden...&quot; -->
<g id="node4" class="node">
<title>&quot;https//registry.iden...&quot;</title>
<ellipse fill="none" stroke="black" stroke-width="0" cx="942.39" cy="-72" rx="116.98" ry="18"/>
<text text-anchor="middle" x="942.39" y="-68.3" font-family="Times,serif" font-size="14.00">&quot;https//registry.iden...&quot;</text>
</g>
<!-- grid.ac/institutes/grid.475727.4&#45;&gt;&quot;https//registry.iden...&quot; -->
<g id="edge3" class="edge">
<title>grid.ac/institutes/grid.475727.4&#45;&gt;&quot;https//registry.iden...&quot;</title>
<path fill="none" stroke="black" d="M669.58,-89.95C719.83,-86.63 776.21,-82.91 824.54,-79.72"/>
<polygon fill="black" stroke="black" points="824.98,-83.2 834.72,-79.05 824.51,-76.21 824.98,-83.2"/>
<text text-anchor="middle" x="749.35" y="-90.8" font-family="Times,serif" font-size="14.00">propertyID</text>
</g>
<!-- &quot;https//grid.ac/insti...&quot; -->
<g id="node5" class="node">
<title>&quot;https//grid.ac/insti...&quot;</title>
<ellipse fill="none" stroke="black" stroke-width="0" cx="942.39" cy="-18" rx="114.28" ry="18"/>
<text text-anchor="middle" x="942.39" y="-14.3" font-family="Times,serif" font-size="14.00">&quot;https//grid.ac/insti...&quot;</text>
</g>
<!-- grid.ac/institutes/grid.475727.4&#45;&gt;&quot;https//grid.ac/insti...&quot; -->
<g id="edge4" class="edge">
<title>grid.ac/institutes/grid.475727.4&#45;&gt;&quot;https//grid.ac/insti...&quot;</title>
<path fill="none" stroke="black" d="M637.94,-85.5C655.82,-81.94 674.03,-77.5 690.85,-72 699.35,-69.22 700.38,-65.88 708.85,-63 751.83,-48.4 800.99,-38.03 843,-30.94"/>
<polygon fill="black" stroke="black" points="843.66,-34.38 852.96,-29.3 842.52,-27.48 843.66,-34.38"/>
<text text-anchor="middle" x="749.35" y="-66.8" font-family="Times,serif" font-size="14.00">url</text>
</g>
<!-- Organization -->
<g id="node6" class="node">
<title>Organization</title>
<ellipse fill="none" stroke="#558855" cx="531.61" cy="-45" rx="70.69" ry="18"/>
<text text-anchor="middle" x="531.61" y="-41.3" font-family="Times,serif" font-size="14.00">Organization</text>
</g>
<!-- index.example.org/id/org/x -->
<g id="node7" class="node">
<title>index.example.org/id/org/x</title>
<ellipse fill="none" stroke="black" cx="135.19" cy="-64" rx="135.38" ry="18"/>
<text text-anchor="middle" x="135.19" y="-60.3" font-family="Times,serif" font-size="14.00">index.example.org/id/org/x</text>
</g>
<!-- index.example.org/id/org/x&#45;&gt;grid.ac/institutes/grid.475727.4 -->
<g id="edge6" class="edge">
<title>index.example.org/id/org/x&#45;&gt;grid.ac/institutes/grid.475727.4</title>
<path fill="none" stroke="black" d="M248.16,-73.94C294.09,-78.01 347.65,-82.76 395.71,-87.03"/>
<polygon fill="black" stroke="black" points="395.61,-90.53 405.88,-87.93 396.23,-83.56 395.61,-90.53"/>
<text text-anchor="middle" x="321.38" y="-85.8" font-family="Times,serif" font-size="14.00">identifier</text>
</g>
<!-- index.example.org/id/org/x&#45;&gt;Organization -->
<g id="edge5" class="edge">
<title>index.example.org/id/org/x&#45;&gt;Organization</title>
<path fill="none" stroke="black" d="M255.8,-55.82C266.81,-55.16 277.8,-54.54 288.38,-54 342.61,-51.21 403.71,-48.95 450.98,-47.39"/>
<polygon fill="black" stroke="black" points="451.27,-50.88 461.15,-47.06 451.04,-43.88 451.27,-50.88"/>
<text text-anchor="middle" x="321.38" y="-57.8" font-family="Times,serif" font-size="14.00">type</text>
</g>
</g>
</svg>
