<?xml version="1.0" encoding="UTF-8" standalone="no"?>
<!DOCTYPE svg PUBLIC "-//W3C//DTD SVG 1.1//EN"
 "http://www.w3.org/Graphics/SVG/1.1/DTD/svg11.dtd">
<!-- Generated by graphviz version 5.0.0 (0)
 -->
<!-- Pages: 1 -->
<svg width="922pt" height="368pt"
 viewBox="0.00 0.00 922.34 368.00" xmlns="http://www.w3.org/2000/svg" xmlns:xlink="http://www.w3.org/1999/xlink">
<g id="graph0" class="graph" transform="scale(1 1) rotate(0) translate(4 364)">
<polygon fill="white" stroke="transparent" points="-4,4 -4,-364 918.34,-364 918.34,4 -4,4"/>
<!-- Course -->
<g id="node1" class="node">
<title>Course</title>
<ellipse fill="none" stroke="#558855" cx="788.25" cy="-342" rx="43.59" ry="18"/>
<text text-anchor="middle" x="788.25" y="-338.3" font-family="Times,serif" font-size="14.00">Course</text>
</g>
<!-- example.org/id/course/x -->
<g id="node2" class="node">
<title>example.org/id/course/x</title>
<ellipse fill="none" stroke="#558855" cx="422.97" cy="-272" rx="122.38" ry="18"/>
<text text-anchor="middle" x="422.97" y="-268.3" font-family="Times,serif" font-size="14.00">example.org/id/course/x</text>
</g>
<!-- example.org/id/course/x&#45;&gt;Course -->
<g id="edge1" class="edge">
<title>example.org/id/course/x&#45;&gt;Course</title>
<path fill="none" stroke="black" d="M495.46,-286.57C517.19,-290.95 541.14,-295.72 563.16,-300 623.31,-311.69 692.65,-324.6 738.07,-332.98"/>
<polygon fill="black" stroke="black" points="737.49,-336.43 747.96,-334.8 738.76,-329.54 737.49,-336.43"/>
<text text-anchor="middle" x="603.66" y="-318.8" font-family="Times,serif" font-size="14.00">type</text>
</g>
<!-- &quot;In this course ...&quot; -->
<g id="node3" class="node">
<title>&quot;In this course ...&quot;</title>
<ellipse fill="none" stroke="black" stroke-width="0" cx="788.25" cy="-288" rx="94.78" ry="18"/>
<text text-anchor="middle" x="788.25" y="-284.3" font-family="Times,serif" font-size="14.00">&quot;In this course ...&quot;</text>
</g>
<!-- example.org/id/course/x&#45;&gt;&quot;In this course ...&quot; -->
<g id="edge2" class="edge">
<title>example.org/id/course/x&#45;&gt;&quot;In this course ...&quot;</title>
<path fill="none" stroke="black" d="M540.17,-277.12C586.87,-279.17 640.24,-281.53 685.4,-283.51"/>
<polygon fill="black" stroke="black" points="685.35,-287.02 695.5,-283.96 685.66,-280.02 685.35,-287.02"/>
<text text-anchor="middle" x="603.66" y="-284.8" font-family="Times,serif" font-size="14.00">description</text>
</g>
<!-- &quot;URL to the course&quot; -->
<g id="node4" class="node">
<title>&quot;URL to the course&quot;</title>
<ellipse fill="none" stroke="black" stroke-width="0" cx="788.25" cy="-234" rx="103.98" ry="18"/>
<text text-anchor="middle" x="788.25" y="-230.3" font-family="Times,serif" font-size="14.00">&quot;URL to the course&quot;</text>
</g>
<!-- example.org/id/course/x&#45;&gt;&quot;URL to the course&quot; -->
<g id="edge3" class="edge">
<title>example.org/id/course/x&#45;&gt;&quot;URL to the course&quot;</title>
<path fill="none" stroke="black" d="M523.24,-261.62C574.74,-256.23 637.45,-249.67 688.83,-244.29"/>
<polygon fill="black" stroke="black" points="689.37,-247.76 698.95,-243.24 688.64,-240.8 689.37,-247.76"/>
<text text-anchor="middle" x="603.66" y="-259.8" font-family="Times,serif" font-size="14.00">url</text>
</g>
<!-- Person -->
<g id="node5" class="node">
<title>Person</title>
<ellipse fill="none" stroke="#558855" cx="422.97" cy="-202" rx="42.49" ry="18"/>
<text text-anchor="middle" x="422.97" y="-198.3" font-family="Times,serif" font-size="14.00">Person</text>
</g>
<!-- example.org/id/x -->
<g id="node6" class="node">
<title>example.org/id/x</title>
<ellipse fill="none" stroke="black" cx="88.39" cy="-183" rx="88.28" ry="18"/>
<text text-anchor="middle" x="88.39" y="-179.3" font-family="Times,serif" font-size="14.00">example.org/id/x</text>
</g>
<!-- example.org/id/x&#45;&gt;example.org/id/course/x -->
<g id="edge5" class="edge">
<title>example.org/id/x&#45;&gt;example.org/id/course/x</title>
<path fill="none" stroke="black" d="M141.36,-197.41C158.38,-202.1 177.38,-207.31 194.78,-212 247.52,-226.22 307.23,-241.97 352.2,-253.77"/>
<polygon fill="black" stroke="black" points="351.58,-257.23 362.14,-256.38 353.35,-250.46 351.58,-257.23"/>
<text text-anchor="middle" x="238.78" y="-238.8" font-family="Times,serif" font-size="14.00">knowsAbout</text>
</g>
<!-- example.org/id/x&#45;&gt;Person -->
<g id="edge4" class="edge">
<title>example.org/id/x&#45;&gt;Person</title>
<path fill="none" stroke="black" d="M173.75,-187.82C235.81,-191.36 318.17,-196.07 370.64,-199.07"/>
<polygon fill="black" stroke="black" points="370.53,-202.57 380.72,-199.64 370.93,-195.58 370.53,-202.57"/>
<text text-anchor="middle" x="238.78" y="-196.8" font-family="Times,serif" font-size="14.00">type</text>
</g>
<!-- _ -->
<g id="node7" class="node">
<title>_</title>
<ellipse fill="none" stroke="#558855" cx="422.97" cy="-126" rx="27" ry="18"/>
<text text-anchor="middle" x="422.97" y="-122.3" font-family="Times,serif" font-size="14.00">_</text>
</g>
<!-- example.org/id/x&#45;&gt;_ -->
<g id="edge6" class="edge">
<title>example.org/id/x&#45;&gt;_</title>
<path fill="none" stroke="black" d="M156.69,-171.47C226.24,-159.55 332.1,-141.4 386.68,-132.05"/>
<polygon fill="black" stroke="black" points="387.31,-135.49 396.57,-130.35 386.13,-128.59 387.31,-135.49"/>
<text text-anchor="middle" x="238.78" y="-167.8" font-family="Times,serif" font-size="14.00">knowsAbout</text>
</g>
<!-- example.org/id/x&#45;&gt;_ -->
<g id="edge7" class="edge">
<title>example.org/id/x&#45;&gt;_</title>
<path fill="none" stroke="black" d="M116.79,-165.72C137.38,-153.77 166.74,-138.82 194.78,-132 260.8,-115.95 340.8,-118.77 386.1,-122.35"/>
<polygon fill="black" stroke="black" points="386.04,-125.85 396.3,-123.21 386.63,-118.88 386.04,-125.85"/>
<text text-anchor="middle" x="238.78" y="-135.8" font-family="Times,serif" font-size="14.00">knowsAbout</text>
</g>
<!-- URL -->
<g id="node8" class="node">
<title>URL</title>
<ellipse fill="none" stroke="#558855" cx="788.25" cy="-180" rx="31.4" ry="18"/>
<text text-anchor="middle" x="788.25" y="-176.3" font-family="Times,serif" font-size="14.00">URL</text>
</g>
<!-- _&#45;&gt;URL -->
<g id="edge8" class="edge">
<title>_&#45;&gt;URL</title>
<path fill="none" stroke="black" d="M449.52,-129.8C511.99,-139.08 672.83,-162.99 747.75,-174.13"/>
<polygon fill="black" stroke="black" points="747.33,-177.6 757.74,-175.61 748.36,-170.68 747.33,-177.6"/>
<text text-anchor="middle" x="603.66" y="-160.8" font-family="Times,serif" font-size="14.00">type</text>
</g>
<!-- &quot;https//www.wikidata....&quot; -->
<g id="node9" class="node">
<title>&quot;https//www.wikidata....&quot;</title>
<ellipse fill="none" stroke="black" stroke-width="0" cx="788.25" cy="-126" rx="126.18" ry="18"/>
<text text-anchor="middle" x="788.25" y="-122.3" font-family="Times,serif" font-size="14.00">&quot;https//www.wikidata....&quot;</text>
</g>
<!-- _&#45;&gt;&quot;https//www.wikidata....&quot; -->
<g id="edge9" class="edge">
<title>_&#45;&gt;&quot;https//www.wikidata....&quot;</title>
<path fill="none" stroke="black" d="M450.1,-126C492.05,-126 577.27,-126 651.53,-126"/>
<polygon fill="black" stroke="black" points="651.93,-129.5 661.93,-126 651.93,-122.5 651.93,-129.5"/>
<text text-anchor="middle" x="603.66" y="-129.8" font-family="Times,serif" font-size="14.00">url</text>
</g>
<!-- Text -->
<g id="node10" class="node">
<title>Text</title>
<ellipse fill="none" stroke="#558855" cx="788.25" cy="-72" rx="30.59" ry="18"/>
<text text-anchor="middle" x="788.25" y="-68.3" font-family="Times,serif" font-size="14.00">Text</text>
</g>
<!-- _&#45;&gt;Text -->
<g id="edge10" class="edge">
<title>_&#45;&gt;Text</title>
<path fill="none" stroke="black" d="M449.52,-122.2C512.22,-112.88 674.02,-88.83 748.58,-77.75"/>
<polygon fill="black" stroke="black" points="749.13,-81.21 758.5,-76.27 748.1,-74.28 749.13,-81.21"/>
<text text-anchor="middle" x="603.66" y="-107.8" font-family="Times,serif" font-size="14.00">type</text>
</g>
<!-- &quot;Invasive species in ...&quot; -->
<g id="node11" class="node">
<title>&quot;Invasive species in ...&quot;</title>
<ellipse fill="none" stroke="black" stroke-width="0" cx="788.25" cy="-18" rx="118.08" ry="18"/>
<text text-anchor="middle" x="788.25" y="-14.3" font-family="Times,serif" font-size="14.00">&quot;Invasive species in ...&quot;</text>
</g>
<!-- _&#45;&gt;&quot;Invasive species in ...&quot; -->
<g id="edge11" class="edge">
<title>_&#45;&gt;&quot;Invasive species in ...&quot;</title>
<path fill="none" stroke="black" d="M446.64,-117.1C488.61,-100.9 581.5,-66.29 662.16,-45 676.13,-41.32 691.06,-37.76 705.58,-34.51"/>
<polygon fill="black" stroke="black" points="706.53,-37.88 715.54,-32.31 705.02,-31.05 706.53,-37.88"/>
<text text-anchor="middle" x="603.66" y="-76.8" font-family="Times,serif" font-size="14.00">description</text>
</g>
</g>
</svg>
