<?xml version="1.0" encoding="UTF-8" standalone="no"?>
<!DOCTYPE svg PUBLIC "-//W3C//DTD SVG 1.1//EN"
 "http://www.w3.org/Graphics/SVG/1.1/DTD/svg11.dtd">
<!-- Generated by graphviz version 5.0.0 (0)
 -->
<!-- Pages: 1 -->
<svg width="677pt" height="152pt"
 viewBox="0.00 0.00 677.37 152.00" xmlns="http://www.w3.org/2000/svg" xmlns:xlink="http://www.w3.org/1999/xlink">
<g id="graph0" class="graph" transform="scale(1 1) rotate(0) translate(4 148)">
<polygon fill="white" stroke="transparent" points="-4,4 -4,-148 673.37,-148 673.37,4 -4,4"/>
<!-- Person -->
<g id="node1" class="node">
<title>Person</title>
<ellipse fill="none" stroke="#558855" cx="370.03" cy="-126" rx="42.49" ry="18"/>
<text text-anchor="middle" x="370.03" y="-122.3" font-family="Times,serif" font-size="14.00">Person</text>
</g>
<!-- example.org/id/x -->
<g id="node2" class="node">
<title>example.org/id/x</title>
<ellipse fill="none" stroke="black" cx="88.39" cy="-99" rx="88.28" ry="18"/>
<text text-anchor="middle" x="88.39" y="-95.3" font-family="Times,serif" font-size="14.00">example.org/id/x</text>
</g>
<!-- example.org/id/x&#45;&gt;Person -->
<g id="edge1" class="edge">
<title>example.org/id/x&#45;&gt;Person</title>
<path fill="none" stroke="black" d="M168.78,-106.66C216.86,-111.31 276.74,-117.09 318.44,-121.12"/>
<polygon fill="black" stroke="black" points="318.34,-124.62 328.63,-122.1 319.02,-117.65 318.34,-124.62"/>
<text text-anchor="middle" x="252.28" y="-123.8" font-family="Times,serif" font-size="14.00">type</text>
</g>
<!-- _ -->
<g id="node3" class="node">
<title>_</title>
<ellipse fill="none" stroke="#558855" cx="370.03" cy="-72" rx="27" ry="18"/>
<text text-anchor="middle" x="370.03" y="-68.3" font-family="Times,serif" font-size="14.00">_</text>
</g>
<!-- example.org/id/x&#45;&gt;_ -->
<g id="edge2" class="edge">
<title>example.org/id/x&#45;&gt;_</title>
<path fill="none" stroke="black" d="M168.78,-91.34C222.85,-86.11 291.85,-79.45 333.12,-75.47"/>
<polygon fill="black" stroke="black" points="333.62,-78.94 343.24,-74.49 332.95,-71.97 333.62,-78.94"/>
<text text-anchor="middle" x="252.28" y="-91.8" font-family="Times,serif" font-size="14.00">knowsLanguage</text>
</g>
<!-- Language -->
<g id="node4" class="node">
<title>Language</title>
<ellipse fill="none" stroke="#558855" cx="612.82" cy="-126" rx="55.79" ry="18"/>
<text text-anchor="middle" x="612.82" y="-122.3" font-family="Times,serif" font-size="14.00">Language</text>
</g>
<!-- _&#45;&gt;Language -->
<g id="edge3" class="edge">
<title>_&#45;&gt;Language</title>
<path fill="none" stroke="black" d="M394.2,-80.14C405.06,-83.78 418.24,-87.92 430.28,-91 470.47,-101.28 516.35,-110.1 551.93,-116.32"/>
<polygon fill="black" stroke="black" points="551.7,-119.83 562.15,-118.08 552.89,-112.93 551.7,-119.83"/>
<text text-anchor="middle" x="484.28" y="-116.8" font-family="Times,serif" font-size="14.00">type</text>
</g>
<!-- &quot;es&quot; -->
<g id="node5" class="node">
<title>&quot;es&quot;</title>
<ellipse fill="none" stroke="black" stroke-width="0" cx="612.82" cy="-72" rx="29.8" ry="18"/>
<text text-anchor="middle" x="612.82" y="-68.3" font-family="Times,serif" font-size="14.00">&quot;es&quot;</text>
</g>
<!-- _&#45;&gt;&quot;es&quot; -->
<g id="edge4" class="edge">
<title>_&#45;&gt;&quot;es&quot;</title>
<path fill="none" stroke="black" d="M397.26,-72C439.5,-72 522.87,-72 572.33,-72"/>
<polygon fill="black" stroke="black" points="572.64,-75.5 582.64,-72 572.64,-68.5 572.64,-75.5"/>
<text text-anchor="middle" x="484.28" y="-75.8" font-family="Times,serif" font-size="14.00">alternateName</text>
</g>
<!-- &quot;Spanish&quot; -->
<g id="node6" class="node">
<title>&quot;Spanish&quot;</title>
<ellipse fill="none" stroke="black" stroke-width="0" cx="612.82" cy="-18" rx="56.59" ry="18"/>
<text text-anchor="middle" x="612.82" y="-14.3" font-family="Times,serif" font-size="14.00">&quot;Spanish&quot;</text>
</g>
<!-- _&#45;&gt;&quot;Spanish&quot; -->
<g id="edge5" class="edge">
<title>_&#45;&gt;&quot;Spanish&quot;</title>
<path fill="none" stroke="black" d="M394.2,-63.86C405.06,-60.22 418.24,-56.08 430.28,-53 470.33,-42.76 516.03,-33.96 551.56,-27.75"/>
<polygon fill="black" stroke="black" points="552.51,-31.14 561.76,-25.99 551.31,-24.24 552.51,-31.14"/>
<text text-anchor="middle" x="484.28" y="-56.8" font-family="Times,serif" font-size="14.00">name</text>
</g>
</g>
</svg>
