<?xml version="1.0" encoding="UTF-8"?>
<svg width="1200pt" height="1200pt" version="1.1" viewBox="0 0 1200 1200" xmlns="http://www.w3.org/2000/svg">
 <g>
  <path d="m755.16 1069.7h-149.27v-5.7109c0-251.47-204.55-456.04-455.99-456.04h-5.6992v-149.23h5.6992c333.74 0 605.26 271.52 605.26 605.27zm-137.89-11.414h126.47c-3.0469-322.96-265.19-585.1-588.14-588.14v126.43c253.21 3.0352 458.64 208.48 461.68 461.71z"/>
  <path d="m1066.6 1069.7h-150.71v-5.7109c0-429.95-347.15-779.75-773.86-779.75h-5.6992v-152.56h5.6992c237.73 0 471.67 92.461 641.86 253.67 182.29 172.71 282.71 413.72 282.71 678.64zm-139.32-11.414h127.89c-3.0234-570.59-461.82-912.31-907.44-915.19v129.77c428.51 3.082 776.52 353.7 779.55 785.42z"/>
  <path d="m274.45 1061.8c-67.547 0-122.51-54.961-122.51-122.51 0-67.523 54.961-122.46 122.51-122.46s122.51 54.938 122.51 122.46c0 67.547-54.961 122.51-122.51 122.51zm0-233.55c-61.262 0-111.11 49.801-111.11 111.05 0 61.262 49.836 111.12 111.11 111.12 61.262 0 111.11-49.848 111.11-111.12-0.003906-61.234-49.852-111.05-111.11-111.05z"/>
 </g>
</svg>
