<svg height='100px' width='100px'  fill="#000000" xmlns="http://www.w3.org/2000/svg" xmlns:xlink="http://www.w3.org/1999/xlink" version="1.1" x="0px" y="0px" viewBox="0 0 64 64" style="enable-background:new 0 0 64 64;" xml:space="preserve"><path d="M23.707,3.293l-1.414,1.414L24.586,7H16V4c0-0.553-0.448-1-1-1H3C2.448,3,2,3.447,2,4v8c0,0.553,0.448,1,1,1h12  c0.552,0,1-0.447,1-1V9h8.586l-2.293,2.293l1.414,1.414l4-4C27.902,8.512,28,8.256,28,8s-0.098-0.512-0.293-0.707L23.707,3.293z   M14,11H4V5h10V11z"></path><path d="M61,3H29c-0.552,0-1,0.447-1,1v4v4c0,0.553,0.448,1,1,1h28c2.757,0,5-2.243,5-5V4C62,3.447,61.552,3,61,3z M60,8  c0,1.654-1.346,3-3,3H30V5h30V8z"></path><path d="M23.707,19.293l-1.414,1.414L24.586,23H16v-3c0-0.553-0.448-1-1-1H3c-0.552,0-1,0.447-1,1v8c0,0.553,0.448,1,1,1h12  c0.552,0,1-0.447,1-1v-3h8.586l-2.293,2.293l1.414,1.414l4-4C27.902,24.512,28,24.256,28,24s-0.098-0.512-0.293-0.707L23.707,19.293  z M14,27H4v-6h10V27z"></path><path d="M61,19H29c-0.552,0-1,0.447-1,1v4v4c0,0.553,0.448,1,1,1h28c2.757,0,5-2.243,5-5v-4C62,19.447,61.552,19,61,19z M60,24  c0,1.654-1.346,3-3,3H30v-6h30V24z"></path><path d="M23.707,35.293l-1.414,1.414L24.586,39H16v-3c0-0.553-0.448-1-1-1H3c-0.552,0-1,0.447-1,1v8c0,0.553,0.448,1,1,1h12  c0.552,0,1-0.447,1-1v-3h8.586l-2.293,2.293l1.414,1.414l4-4C27.902,40.512,28,40.256,28,40s-0.098-0.512-0.293-0.707L23.707,35.293  z M14,43H4v-6h10V43z"></path><path d="M61,35H29c-0.552,0-1,0.447-1,1v4v4c0,0.553,0.448,1,1,1h28c2.757,0,5-2.243,5-5v-4C62,35.447,61.552,35,61,35z M60,40  c0,1.654-1.346,3-3,3H30v-6h30V40z"></path><path d="M23.707,51.293l-1.414,1.414L24.586,55H16v-3c0-0.553-0.448-1-1-1H3c-0.552,0-1,0.447-1,1v8c0,0.553,0.448,1,1,1h12  c0.552,0,1-0.447,1-1v-3h8.586l-2.293,2.293l1.414,1.414l4-4C27.902,56.512,28,56.256,28,56s-0.098-0.512-0.293-0.707L23.707,51.293  z M14,59H4v-6h10V59z"></path><path d="M61,51H29c-0.552,0-1,0.447-1,1v4v4c0,0.553,0.448,1,1,1h28c2.757,0,5-2.243,5-5v-4C62,51.447,61.552,51,61,51z M60,56  c0,1.654-1.346,3-3,3H30v-6h30V56z"></path></svg>