<?xml version="1.0" encoding="UTF-8" standalone="no"?>
<!DOCTYPE svg PUBLIC "-//W3C//DTD SVG 1.1//EN"
 "http://www.w3.org/Graphics/SVG/1.1/DTD/svg11.dtd">
<!-- Generated by graphviz version 2.43.0 (0)
 -->
<!-- Title: %3 Pages: 1 -->
<svg width="262pt" height="280pt"
 viewBox="0.00 0.00 262.39 280.34" xmlns="http://www.w3.org/2000/svg" xmlns:xlink="http://www.w3.org/1999/xlink">
<g id="graph0" class="graph" transform="scale(1 1) rotate(0) translate(4 276.34)">
<title>%3</title>
<polygon fill="white" stroke="transparent" points="-4,4 -4,-276.34 258.39,-276.34 258.39,4 -4,4"/>
<text text-anchor="middle" x="127.19" y="-22.8" font-family="Times,serif" font-size="14.00">Model:</text>
<text text-anchor="middle" x="127.19" y="-7.8" font-family="Times,serif" font-size="14.00">https://iode.org/</text>
<!-- B_:b0 -->
<g id="node1" class="node">
<title>B_:b0</title>
<ellipse fill="none" stroke="green" cx="120.1" cy="-164.09" rx="18" ry="18"/>
</g>
<!-- Rschema:Person -->
<g id="node2" class="node">
<title>Rschema:Person</title>
<ellipse fill="none" stroke="blue" cx="177.44" cy="-94.95" rx="63.89" ry="18"/>
<text text-anchor="middle" x="177.44" y="-91.25" font-family="Times,serif" font-size="14.00">schema:Person</text>
</g>
<!-- B_:b0&#45;&gt;Rschema:Person -->
<g id="edge1" class="edge">
<title>B_:b0&#45;&gt;Rschema:Person</title>
<path fill="none" stroke="black" stroke-dasharray="1,5" d="M131.7,-150.1C138.78,-141.57 148.03,-130.41 156.36,-120.36"/>
<polygon fill="black" stroke="black" points="159.1,-122.54 162.79,-112.61 153.71,-118.07 159.1,-122.54"/>
<text text-anchor="middle" x="122.67" y="-135.25" font-family="Times,serif" font-size="14.00">rdfs:type</text>
</g>
<!-- LProfessor -->
<g id="node3" class="node">
<title>LProfessor</title>
<polygon fill="none" stroke="black" points="37.73,-70.5 37.73,-106.5 105.73,-106.5 105.73,-70.5 37.73,-70.5"/>
<text text-anchor="middle" x="71.73" y="-84.8" font-family="Times,serif" font-size="14.00">Professor</text>
</g>
<!-- B_:b0&#45;&gt;LProfessor -->
<g id="edge2" class="edge">
<title>B_:b0&#45;&gt;LProfessor</title>
<path fill="none" stroke="black" stroke-dasharray="1,5" d="M110.31,-148.79C104.17,-139.2 96.08,-126.55 88.89,-115.32"/>
<polygon fill="black" stroke="black" points="91.72,-113.24 83.38,-106.71 85.82,-117.01 91.72,-113.24"/>
<text text-anchor="middle" x="52.86" y="-131.57" font-family="Times,serif" font-size="14.00">schema:jobTitle</text>
</g>
<!-- LJane Doe -->
<g id="node4" class="node">
<title>LJane Doe</title>
<polygon fill="none" stroke="black" points="0,-169.69 0,-205.69 67,-205.69 67,-169.69 0,-169.69"/>
<text text-anchor="middle" x="33.5" y="-183.99" font-family="Times,serif" font-size="14.00">Jane Doe</text>
</g>
<!-- B_:b0&#45;&gt;LJane Doe -->
<g id="edge3" class="edge">
<title>B_:b0&#45;&gt;LJane Doe</title>
<path fill="none" stroke="black" stroke-dasharray="1,5" d="M102.58,-168.87C95.1,-170.9 86.01,-173.38 76.92,-175.86"/>
<polygon fill="black" stroke="black" points="75.85,-172.52 67.12,-178.53 77.69,-179.28 75.85,-172.52"/>
<text text-anchor="middle" x="46.97" y="-162.46" font-family="Times,serif" font-size="14.00">schema:name</text>
</g>
<!-- L(425) 123&#45;4567 -->
<g id="node5" class="node">
<title>L(425) 123&#45;4567</title>
<polygon fill="none" stroke="black" points="153.39,-178.66 153.39,-214.66 254.39,-214.66 254.39,-178.66 153.39,-178.66"/>
<text text-anchor="middle" x="203.89" y="-192.96" font-family="Times,serif" font-size="14.00">(425) 123&#45;4567</text>
</g>
<!-- B_:b0&#45;&gt;L(425) 123&#45;4567 -->
<g id="edge4" class="edge">
<title>B_:b0&#45;&gt;L(425) 123&#45;4567</title>
<path fill="none" stroke="black" stroke-dasharray="1,5" d="M137.06,-170.68C140.45,-172 144.18,-173.45 148.09,-174.97"/>
<polygon fill="black" stroke="black" points="146.89,-178.26 157.48,-178.62 149.43,-171.73 146.89,-178.26"/>
<text text-anchor="middle" x="196.36" y="-163.49" font-family="Times,serif" font-size="14.00">schema:telephone</text>
</g>
<!-- Lhttp://www.janedoe.com -->
<g id="node6" class="node">
<title>Lhttp://www.janedoe.com</title>
<polygon fill="none" stroke="black" points="40.37,-235.84 40.37,-271.84 191.37,-271.84 191.37,-235.84 40.37,-235.84"/>
<text text-anchor="middle" x="115.87" y="-250.14" font-family="Times,serif" font-size="14.00">http://www.janedoe.com</text>
</g>
<!-- B_:b0&#45;&gt;Lhttp://www.janedoe.com -->
<g id="edge5" class="edge">
<title>B_:b0&#45;&gt;Lhttp://www.janedoe.com</title>
<path fill="none" stroke="black" stroke-dasharray="1,5" d="M119.25,-182.25C118.66,-194.66 117.87,-211.35 117.21,-225.5"/>
<polygon fill="black" stroke="black" points="113.7,-225.55 116.72,-235.71 120.69,-225.88 113.7,-225.55"/>
<text text-anchor="middle" x="87.47" y="-213.03" font-family="Times,serif" font-size="14.00">schema:url</text>
</g>
</g>
</svg>
