<?xml version="1.0" encoding="UTF-8" standalone="no"?>
<!DOCTYPE svg PUBLIC "-//W3C//DTD SVG 1.1//EN"
 "http://www.w3.org/Graphics/SVG/1.1/DTD/svg11.dtd">
<!-- Generated by graphviz version 2.43.0 (0)
 -->
<!-- Title: %3 Pages: 1 -->
<svg width="329pt" height="335pt"
 viewBox="0.00 0.00 329.00 334.50" xmlns="http://www.w3.org/2000/svg" xmlns:xlink="http://www.w3.org/1999/xlink">
<g id="graph0" class="graph" transform="scale(1 1) rotate(0) translate(4 330.5)">
<title>%3</title>
<polygon fill="white" stroke="transparent" points="-4,4 -4,-330.5 325,-330.5 325,4 -4,4"/>
<text text-anchor="middle" x="160.5" y="-22.8" font-family="Times,serif" font-size="14.00">Model:</text>
<text text-anchor="middle" x="160.5" y="-7.8" font-family="Times,serif" font-size="14.00">https://iode.org/</text>
<!-- B_:b0 -->
<g id="node1" class="node">
<title>B_:b0</title>
<ellipse fill="none" stroke="green" cx="18" cy="-198.5" rx="18" ry="18"/>
</g>
<!-- Rschema:Person -->
<g id="node2" class="node">
<title>Rschema:Person</title>
<ellipse fill="none" stroke="blue" cx="245.5" cy="-308.5" rx="63.89" ry="18"/>
<text text-anchor="middle" x="245.5" y="-304.8" font-family="Times,serif" font-size="14.00">schema:Person</text>
</g>
<!-- B_:b0&#45;&gt;Rschema:Person -->
<g id="edge1" class="edge">
<title>B_:b0&#45;&gt;Rschema:Person</title>
<path fill="none" stroke="black" stroke-dasharray="1,5" d="M24.35,-215.52C29.65,-229.64 39.16,-249.18 54,-260.5 87.85,-286.33 133.99,-298.38 172.38,-303.95"/>
<polygon fill="black" stroke="black" points="172.1,-307.45 182.47,-305.3 173.02,-300.51 172.1,-307.45"/>
<text text-anchor="middle" x="103" y="-303.3" font-family="Times,serif" font-size="14.00">rdfs:type</text>
</g>
<!-- LProfessor -->
<g id="node3" class="node">
<title>LProfessor</title>
<polygon fill="none" stroke="black" points="211.5,-235.5 211.5,-271.5 279.5,-271.5 279.5,-235.5 211.5,-235.5"/>
<text text-anchor="middle" x="245.5" y="-249.8" font-family="Times,serif" font-size="14.00">Professor</text>
</g>
<!-- B_:b0&#45;&gt;LProfessor -->
<g id="edge2" class="edge">
<title>B_:b0&#45;&gt;LProfessor</title>
<path fill="none" stroke="black" stroke-dasharray="1,5" d="M33.51,-207.7C39.64,-211.22 46.97,-215 54,-217.5 102.9,-234.91 162.02,-244.41 201.3,-249.21"/>
<polygon fill="black" stroke="black" points="200.99,-252.7 211.33,-250.39 201.8,-245.75 200.99,-252.7"/>
<text text-anchor="middle" x="103" y="-245.3" font-family="Times,serif" font-size="14.00">schema:jobTitle</text>
</g>
<!-- LJane Doe -->
<g id="node4" class="node">
<title>LJane Doe</title>
<polygon fill="none" stroke="black" points="212,-180.5 212,-216.5 279,-216.5 279,-180.5 212,-180.5"/>
<text text-anchor="middle" x="245.5" y="-194.8" font-family="Times,serif" font-size="14.00">Jane Doe</text>
</g>
<!-- B_:b0&#45;&gt;LJane Doe -->
<g id="edge3" class="edge">
<title>B_:b0&#45;&gt;LJane Doe</title>
<path fill="none" stroke="black" stroke-dasharray="1,5" d="M36.32,-198.5C71.37,-198.5 151.6,-198.5 201.6,-198.5"/>
<polygon fill="black" stroke="black" points="201.78,-202 211.78,-198.5 201.78,-195 201.78,-202"/>
<text text-anchor="middle" x="103" y="-202.3" font-family="Times,serif" font-size="14.00">schema:name</text>
</g>
<!-- L(425) 123&#45;4567 -->
<g id="node5" class="node">
<title>L(425) 123&#45;4567</title>
<polygon fill="none" stroke="black" points="195,-125.5 195,-161.5 296,-161.5 296,-125.5 195,-125.5"/>
<text text-anchor="middle" x="245.5" y="-139.8" font-family="Times,serif" font-size="14.00">(425) 123&#45;4567</text>
</g>
<!-- B_:b0&#45;&gt;L(425) 123&#45;4567 -->
<g id="edge4" class="edge">
<title>B_:b0&#45;&gt;L(425) 123&#45;4567</title>
<path fill="none" stroke="black" stroke-dasharray="1,5" d="M33.51,-189.3C39.64,-185.78 46.97,-182 54,-179.5 96.5,-164.37 146.71,-155.21 184.91,-149.92"/>
<polygon fill="black" stroke="black" points="185.4,-153.39 194.85,-148.6 184.48,-146.45 185.4,-153.39"/>
<text text-anchor="middle" x="103" y="-183.3" font-family="Times,serif" font-size="14.00">schema:telephone</text>
</g>
<!-- Lhttp://www.janedoe.com -->
<g id="node6" class="node">
<title>Lhttp://www.janedoe.com</title>
<polygon fill="none" stroke="black" points="170,-70.5 170,-106.5 321,-106.5 321,-70.5 170,-70.5"/>
<text text-anchor="middle" x="245.5" y="-84.8" font-family="Times,serif" font-size="14.00">http://www.janedoe.com</text>
</g>
<!-- B_:b0&#45;&gt;Lhttp://www.janedoe.com -->
<g id="edge5" class="edge">
<title>B_:b0&#45;&gt;Lhttp://www.janedoe.com</title>
<path fill="none" stroke="black" stroke-dasharray="1,5" d="M24.16,-181.48C29.39,-167.1 38.89,-147.05 54,-135.5 84.18,-112.43 124.21,-100.54 159.79,-94.46"/>
<polygon fill="black" stroke="black" points="160.36,-97.92 169.69,-92.9 159.27,-91 160.36,-97.92"/>
<text text-anchor="middle" x="103" y="-139.3" font-family="Times,serif" font-size="14.00">schema:url</text>
</g>
</g>
</svg>
