<?xml version="1.0" encoding="UTF-8" standalone="no"?>
<!DOCTYPE svg PUBLIC "-//W3C//DTD SVG 1.1//EN"
 "http://www.w3.org/Graphics/SVG/1.1/DTD/svg11.dtd">
<!-- Generated by graphviz version 2.44.0 (0)
 -->
<!-- Pages: 1 -->
<svg width="1241pt" height="289pt"
 viewBox="0.00 0.00 1241.12 289.00" xmlns="http://www.w3.org/2000/svg" xmlns:xlink="http://www.w3.org/1999/xlink">
<g id="graph0" class="graph" transform="scale(1 1) rotate(0) translate(4 285)">
<polygon fill="white" stroke="transparent" points="-4,4 -4,-285 1237.12,-285 1237.12,4 -4,4"/>
<text text-anchor="middle" x="616.56" y="-22.8" font-family="Times-Roman" font-size="14.00">Model:</text>
<text text-anchor="middle" x="616.56" y="-7.8" font-family="Times-Roman" font-size="14.00">https://iode.org/</text>
<!-- Rhttps://example.org/id/XYZ -->
<g id="node1" class="node">
<title>Rhttps://example.org/id/XYZ</title>
<ellipse fill="none" stroke="blue" cx="131.29" cy="-143.5" rx="131.08" ry="18"/>
<text text-anchor="middle" x="131.29" y="-139.8" font-family="Times-Roman" font-size="14.00">https://example.org/id/XYZ</text>
</g>
<!-- B_:b0 -->
<g id="node2" class="node">
<title>B_:b0</title>
<ellipse fill="none" stroke="green" cx="547.77" cy="-197.5" rx="18" ry="18"/>
</g>
<!-- Rhttps://example.org/id/XYZ&#45;&gt;B_:b0 -->
<g id="edge1" class="edge">
<title>Rhttps://example.org/id/XYZ&#45;&gt;B_:b0</title>
<path fill="none" stroke="black" stroke-dasharray="1,5" d="M227.12,-155.85C321.63,-168.17 460.87,-186.31 519.34,-193.93"/>
<polygon fill="black" stroke="black" points="519.23,-197.44 529.6,-195.26 520.14,-190.5 519.23,-197.44"/>
<text text-anchor="middle" x="363.58" y="-186.3" font-family="Times-Roman" font-size="14.00">geosparql:hasGeometry</text>
</g>
<!-- Rschema:Dataset -->
<g id="node3" class="node">
<title>Rschema:Dataset</title>
<ellipse fill="none" stroke="blue" cx="547.77" cy="-143.5" rx="83.39" ry="18"/>
<text text-anchor="middle" x="547.77" y="-139.8" font-family="Times-Roman" font-size="14.00">schema:Dataset</text>
</g>
<!-- Rhttps://example.org/id/XYZ&#45;&gt;Rschema:Dataset -->
<g id="edge2" class="edge">
<title>Rhttps://example.org/id/XYZ&#45;&gt;Rschema:Dataset</title>
<path fill="none" stroke="black" stroke-dasharray="1,5" d="M262.58,-143.5C324.7,-143.5 397.56,-143.5 453.96,-143.5"/>
<polygon fill="black" stroke="black" points="454.29,-147 464.29,-143.5 454.29,-140 454.29,-147"/>
<text text-anchor="middle" x="363.58" y="-147.3" font-family="Times-Roman" font-size="14.00">rdfs:type</text>
</g>
<!-- LData set name -->
<g id="node4" class="node">
<title>LData set name</title>
<polygon fill="none" stroke="black" points="488.77,-70.5 488.77,-106.5 606.77,-106.5 606.77,-70.5 488.77,-70.5"/>
<text text-anchor="middle" x="547.77" y="-84.8" font-family="Times-Roman" font-size="14.00">Data set name</text>
</g>
<!-- Rhttps://example.org/id/XYZ&#45;&gt;LData set name -->
<g id="edge3" class="edge">
<title>Rhttps://example.org/id/XYZ&#45;&gt;LData set name</title>
<path fill="none" stroke="black" stroke-dasharray="1,5" d="M226.34,-131.02C303.02,-120.85 409.51,-106.71 478.28,-97.59"/>
<polygon fill="black" stroke="black" points="479.12,-101.01 488.57,-96.22 478.2,-94.07 479.12,-101.01"/>
<text text-anchor="middle" x="363.58" y="-127.3" font-family="Times-Roman" font-size="14.00">schema:name</text>
</g>
<!-- LPOINT(&#45;76 &#45;18)|Datatype: http://www.opengis.net/ont/geosparql#wktLiteral -->
<g id="node5" class="node">
<title>LPOINT(&#45;76 &#45;18)|Datatype: http://www.opengis.net/ont/geosparql#wktLiteral</title>
<polygon fill="none" stroke="black" points="795.04,-234.5 795.04,-280.5 1224.04,-280.5 1224.04,-234.5 795.04,-234.5"/>
<text text-anchor="middle" x="1009.54" y="-265.3" font-family="Times-Roman" font-size="14.00">POINT(&#45;76 &#45;18)</text>
<polyline fill="none" stroke="black" points="795.04,-257.5 1224.04,-257.5 "/>
<text text-anchor="middle" x="1009.54" y="-242.3" font-family="Times-Roman" font-size="14.00">Datatype: http://www.opengis.net/ont/geosparql#wktLiteral</text>
</g>
<!-- B_:b0&#45;&gt;LPOINT(&#45;76 &#45;18)|Datatype: http://www.opengis.net/ont/geosparql#wktLiteral -->
<g id="edge4" class="edge">
<title>B_:b0&#45;&gt;LPOINT(&#45;76 &#45;18)|Datatype: http://www.opengis.net/ont/geosparql#wktLiteral</title>
<path fill="none" stroke="black" stroke-dasharray="1,5" d="M565.72,-201.11C585.59,-205.25 619.55,-212.04 648.96,-216.5 692.71,-223.13 739.6,-229.22 784.59,-234.56"/>
<polygon fill="black" stroke="black" points="784.43,-238.06 794.77,-235.76 785.25,-231.11 784.43,-238.06"/>
<text text-anchor="middle" x="708.46" y="-235.3" font-family="Times-Roman" font-size="14.00">geosparql:asWKT</text>
</g>
<!-- Rhttp://www.opengis.net/def/crs/OGC/1.3/CRS84 -->
<g id="node6" class="node">
<title>Rhttp://www.opengis.net/def/crs/OGC/1.3/CRS84</title>
<ellipse fill="none" stroke="blue" cx="1009.54" cy="-197.5" rx="223.66" ry="18"/>
<text text-anchor="middle" x="1009.54" y="-193.8" font-family="Times-Roman" font-size="14.00">http://www.opengis.net/def/crs/OGC/1.3/CRS84</text>
</g>
<!-- B_:b0&#45;&gt;Rhttp://www.opengis.net/def/crs/OGC/1.3/CRS84 -->
<g id="edge5" class="edge">
<title>B_:b0&#45;&gt;Rhttp://www.opengis.net/def/crs/OGC/1.3/CRS84</title>
<path fill="none" stroke="black" stroke-dasharray="1,5" d="M565.95,-197.5C601.78,-197.5 688.4,-197.5 775.61,-197.5"/>
<polygon fill="black" stroke="black" points="775.69,-201 785.69,-197.5 775.69,-194 775.69,-201"/>
<text text-anchor="middle" x="708.46" y="-201.3" font-family="Times-Roman" font-size="14.00">geosparql:crs</text>
</g>
<!-- Rhttp://www.opengis.net/ont/sf#Point -->
<g id="node7" class="node">
<title>Rhttp://www.opengis.net/ont/sf#Point</title>
<ellipse fill="none" stroke="blue" cx="1009.54" cy="-143.5" rx="174.67" ry="18"/>
<text text-anchor="middle" x="1009.54" y="-139.8" font-family="Times-Roman" font-size="14.00">http://www.opengis.net/ont/sf#Point</text>
</g>
<!-- B_:b0&#45;&gt;Rhttp://www.opengis.net/ont/sf#Point -->
<g id="edge6" class="edge">
<title>B_:b0&#45;&gt;Rhttp://www.opengis.net/ont/sf#Point</title>
<path fill="none" stroke="black" stroke-dasharray="1,5" d="M565.71,-193.8C585.57,-189.58 619.52,-182.72 648.96,-178.5 717.47,-168.69 793.73,-160.83 858.33,-155.07"/>
<polygon fill="black" stroke="black" points="858.94,-158.53 868.59,-154.16 858.32,-151.56 858.94,-158.53"/>
<text text-anchor="middle" x="708.46" y="-182.3" font-family="Times-Roman" font-size="14.00">rdfs:type</text>
</g>
</g>
</svg>
