<?xml version="1.0" encoding="UTF-8" standalone="no"?>
<!DOCTYPE svg PUBLIC "-//W3C//DTD SVG 1.1//EN"
 "http://www.w3.org/Graphics/SVG/1.1/DTD/svg11.dtd">
<!-- Generated by graphviz version 2.44.0 (0)
 -->
<!-- Pages: 1 -->
<svg width="2731pt" height="597pt"
 viewBox="0.00 0.00 2730.60 597.00" xmlns="http://www.w3.org/2000/svg" xmlns:xlink="http://www.w3.org/1999/xlink">
<g id="graph0" class="graph" transform="scale(1 1) rotate(0) translate(4 593)">
<polygon fill="white" stroke="transparent" points="-4,4 -4,-593 2726.6,-593 2726.6,4 -4,4"/>
<text text-anchor="middle" x="1361.3" y="-22.8" font-family="Times-Roman" font-size="14.00">Model:</text>
<text text-anchor="middle" x="1361.3" y="-7.8" font-family="Times-Roman" font-size="14.00">https://iode.org/</text>
<!-- Rhttps://samples.earth/id/do/bqs2dn2u6s73o70jdup0 -->
<g id="node1" class="node">
<title>Rhttps://samples.earth/id/do/bqs2dn2u6s73o70jdup0</title>
<ellipse fill="none" stroke="blue" cx="246.98" cy="-423.5" rx="246.96" ry="18"/>
<text text-anchor="middle" x="246.98" y="-419.8" font-family="Times-Roman" font-size="14.00">https://samples.earth/id/do/bqs2dn2u6s73o70jdup0</text>
</g>
<!-- L\{&quot;geometries&quot;:[\{&quot;coordinates&quot;:[&#45;76,&#45;18],&quot;type&quot;:&quot;Point&quot;\}],&quot;type&quot;:&quot;GeometryCollection&quot;\}|Datatype: http://www.w3.org/1999/02/22&#45;rdf&#45;syntax&#45;ns#JSON -->
<g id="node2" class="node">
<title>L\{&quot;geometries&quot;:[\{&quot;coordinates&quot;:[&#45;76,&#45;18],&quot;type&quot;:&quot;Point&quot;\}],&quot;type&quot;:&quot;GeometryCollection&quot;\}|Datatype: http://www.w3.org/1999/02/22&#45;rdf&#45;syntax&#45;ns#JSON</title>
<polygon fill="none" stroke="black" points="896.96,-542.5 896.96,-588.5 1519.96,-588.5 1519.96,-542.5 896.96,-542.5"/>
<text text-anchor="middle" x="1208.46" y="-573.3" font-family="Times-Roman" font-size="14.00">{&quot;geometries&quot;:[{&quot;coordinates&quot;:[&#45;76,&#45;18],&quot;type&quot;:&quot;Point&quot;}],&quot;type&quot;:&quot;GeometryCollection&quot;}</text>
<polyline fill="none" stroke="black" points="896.96,-565.5 1519.96,-565.5 "/>
<text text-anchor="middle" x="1208.46" y="-550.3" font-family="Times-Roman" font-size="14.00">Datatype: http://www.w3.org/1999/02/22&#45;rdf&#45;syntax&#45;ns#JSON</text>
</g>
<!-- Rhttps://samples.earth/id/do/bqs2dn2u6s73o70jdup0&#45;&gt;L\{&quot;geometries&quot;:[\{&quot;coordinates&quot;:[&#45;76,&#45;18],&quot;type&quot;:&quot;Point&quot;\}],&quot;type&quot;:&quot;GeometryCollection&quot;\}|Datatype: http://www.w3.org/1999/02/22&#45;rdf&#45;syntax&#45;ns#JSON -->
<g id="edge1" class="edge">
<title>Rhttps://samples.earth/id/do/bqs2dn2u6s73o70jdup0&#45;&gt;L\{&quot;geometries&quot;:[\{&quot;coordinates&quot;:[&#45;76,&#45;18],&quot;type&quot;:&quot;Point&quot;\}],&quot;type&quot;:&quot;GeometryCollection&quot;\}|Datatype: http://www.w3.org/1999/02/22&#45;rdf&#45;syntax&#45;ns#JSON</title>
<path fill="none" stroke="black" stroke-dasharray="1,5" d="M293.91,-441.34C345.95,-460.76 433.71,-491.08 511.96,-506.5 633.11,-530.38 768.02,-544.6 886.53,-553.06"/>
<polygon fill="black" stroke="black" points="886.63,-556.58 896.85,-553.79 887.12,-549.6 886.63,-556.58"/>
<text text-anchor="middle" x="695.46" y="-555.3" font-family="Times-Roman" font-size="14.00">http://example.com/vocab/json</text>
</g>
<!-- LA fake ID for testing -->
<g id="node3" class="node">
<title>LA fake ID for testing</title>
<polygon fill="none" stroke="black" points="1130.46,-487.5 1130.46,-523.5 1286.46,-523.5 1286.46,-487.5 1130.46,-487.5"/>
<text text-anchor="middle" x="1208.46" y="-501.8" font-family="Times-Roman" font-size="14.00">A fake ID for testing</text>
</g>
<!-- Rhttps://samples.earth/id/do/bqs2dn2u6s73o70jdup0&#45;&gt;LA fake ID for testing -->
<g id="edge2" class="edge">
<title>Rhttps://samples.earth/id/do/bqs2dn2u6s73o70jdup0&#45;&gt;LA fake ID for testing</title>
<path fill="none" stroke="black" stroke-dasharray="1,5" d="M354.38,-439.73C402.43,-446.61 459.95,-454.24 511.96,-459.5 730.35,-481.59 988.45,-495.47 1120.33,-501.68"/>
<polygon fill="black" stroke="black" points="1120.23,-505.18 1130.38,-502.15 1120.55,-498.19 1120.23,-505.18"/>
<text text-anchor="middle" x="695.46" y="-491.3" font-family="Times-Roman" font-size="14.00">http://igsn.org/core/v1/description</text>
</g>
<!-- B_:b0 -->
<g id="node4" class="node">
<title>B_:b0</title>
<ellipse fill="none" stroke="green" cx="1208.46" cy="-450.5" rx="18" ry="18"/>
</g>
<!-- Rhttps://samples.earth/id/do/bqs2dn2u6s73o70jdup0&#45;&gt;B_:b0 -->
<g id="edge3" class="edge">
<title>Rhttps://samples.earth/id/do/bqs2dn2u6s73o70jdup0&#45;&gt;B_:b0</title>
<path fill="none" stroke="black" stroke-dasharray="1,5" d="M477.8,-429.97C719.6,-436.77 1078.92,-446.88 1180.08,-449.73"/>
<polygon fill="black" stroke="black" points="1180.25,-453.24 1190.35,-450.02 1180.45,-446.24 1180.25,-453.24"/>
<text text-anchor="middle" x="695.46" y="-444.3" font-family="Times-Roman" font-size="14.00">http://www.opengis.net/ont/geosparql#hasGeometry</text>
</g>
<!-- Rhttp://igsn.org/core/v1/Sample -->
<g id="node5" class="node">
<title>Rhttp://igsn.org/core/v1/Sample</title>
<ellipse fill="none" stroke="blue" cx="1208.46" cy="-396.5" rx="147.57" ry="18"/>
<text text-anchor="middle" x="1208.46" y="-392.8" font-family="Times-Roman" font-size="14.00">http://igsn.org/core/v1/Sample</text>
</g>
<!-- Rhttps://samples.earth/id/do/bqs2dn2u6s73o70jdup0&#45;&gt;Rhttp://igsn.org/core/v1/Sample -->
<g id="edge4" class="edge">
<title>Rhttps://samples.earth/id/do/bqs2dn2u6s73o70jdup0&#45;&gt;Rhttp://igsn.org/core/v1/Sample</title>
<path fill="none" stroke="black" stroke-dasharray="1,5" d="M454.03,-413.66C473.61,-412.87 493.16,-412.13 511.96,-411.5 697.47,-405.28 910.9,-401.13 1051.87,-398.79"/>
<polygon fill="black" stroke="black" points="1051.96,-402.29 1061.9,-398.63 1051.84,-395.29 1051.96,-402.29"/>
<text text-anchor="middle" x="695.46" y="-415.3" font-family="Times-Roman" font-size="14.00">rdfs:type</text>
</g>
<!-- B_:b1 -->
<g id="node6" class="node">
<title>B_:b1</title>
<ellipse fill="none" stroke="green" cx="1208.46" cy="-342.5" rx="18" ry="18"/>
</g>
<!-- Rhttps://samples.earth/id/do/bqs2dn2u6s73o70jdup0&#45;&gt;B_:b1 -->
<g id="edge5" class="edge">
<title>Rhttps://samples.earth/id/do/bqs2dn2u6s73o70jdup0&#45;&gt;B_:b1</title>
<path fill="none" stroke="black" stroke-dasharray="1,5" d="M340.84,-406.83C391.3,-398.34 454.88,-388.56 511.96,-382.5 771.1,-354.99 1086.72,-345.45 1180.16,-343.12"/>
<polygon fill="black" stroke="black" points="1180.29,-346.62 1190.2,-342.88 1180.12,-339.62 1180.29,-346.62"/>
<text text-anchor="middle" x="695.46" y="-386.3" font-family="Times-Roman" font-size="14.00">schema:spatialCoverage</text>
</g>
<!-- B_:b3 -->
<g id="node7" class="node">
<title>B_:b3</title>
<ellipse fill="none" stroke="green" cx="1208.46" cy="-198.5" rx="18" ry="18"/>
</g>
<!-- Rhttps://samples.earth/id/do/bqs2dn2u6s73o70jdup0&#45;&gt;B_:b3 -->
<g id="edge6" class="edge">
<title>Rhttps://samples.earth/id/do/bqs2dn2u6s73o70jdup0&#45;&gt;B_:b3</title>
<path fill="none" stroke="black" stroke-dasharray="1,5" d="M295.12,-405.76C347.5,-386.52 434.89,-355.85 511.96,-335.5 768.91,-267.66 1087.26,-216.79 1180.58,-202.53"/>
<polygon fill="black" stroke="black" points="1181.23,-205.97 1190.59,-201.01 1180.18,-199.05 1181.23,-205.97"/>
<text text-anchor="middle" x="695.46" y="-339.3" font-family="Times-Roman" font-size="14.00">schema:subjectOf</text>
</g>
<!-- LPOINT(&#45;76 &#45;18)|Datatype: http://www.opengis.net/ont/geosparql#wktLiteral -->
<g id="node8" class="node">
<title>LPOINT(&#45;76 &#45;18)|Datatype: http://www.opengis.net/ont/geosparql#wktLiteral</title>
<polygon fill="none" stroke="black" points="1884.04,-506.5 1884.04,-552.5 2313.04,-552.5 2313.04,-506.5 1884.04,-506.5"/>
<text text-anchor="middle" x="2098.54" y="-537.3" font-family="Times-Roman" font-size="14.00">POINT(&#45;76 &#45;18)</text>
<polyline fill="none" stroke="black" points="1884.04,-529.5 2313.04,-529.5 "/>
<text text-anchor="middle" x="2098.54" y="-514.3" font-family="Times-Roman" font-size="14.00">Datatype: http://www.opengis.net/ont/geosparql#wktLiteral</text>
</g>
<!-- B_:b0&#45;&gt;LPOINT(&#45;76 &#45;18)|Datatype: http://www.opengis.net/ont/geosparql#wktLiteral -->
<g id="edge7" class="edge">
<title>B_:b0&#45;&gt;LPOINT(&#45;76 &#45;18)|Datatype: http://www.opengis.net/ont/geosparql#wktLiteral</title>
<path fill="none" stroke="black" stroke-dasharray="1,5" d="M1226.72,-451.28C1273.91,-453.56 1408.98,-461.24 1519.96,-478.5 1528.05,-479.76 1529.85,-481.27 1537.96,-482.5 1647.9,-499.26 1770.98,-510.41 1873.65,-517.63"/>
<polygon fill="black" stroke="black" points="1873.62,-521.14 1883.84,-518.34 1874.1,-514.15 1873.62,-521.14"/>
<text text-anchor="middle" x="1697.46" y="-519.3" font-family="Times-Roman" font-size="14.00">http://www.opengis.net/ont/geosparql#asWKT</text>
</g>
<!-- Rhttp://www.opengis.net/def/crs/OGC/1.3/CRS84 -->
<g id="node9" class="node">
<title>Rhttp://www.opengis.net/def/crs/OGC/1.3/CRS84</title>
<ellipse fill="none" stroke="blue" cx="2098.54" cy="-469.5" rx="223.66" ry="18"/>
<text text-anchor="middle" x="2098.54" y="-465.8" font-family="Times-Roman" font-size="14.00">http://www.opengis.net/def/crs/OGC/1.3/CRS84</text>
</g>
<!-- B_:b0&#45;&gt;Rhttp://www.opengis.net/def/crs/OGC/1.3/CRS84 -->
<g id="edge8" class="edge">
<title>B_:b0&#45;&gt;Rhttp://www.opengis.net/def/crs/OGC/1.3/CRS84</title>
<path fill="none" stroke="black" stroke-dasharray="1,5" d="M1226.8,-450.87C1306.25,-452.57 1641.48,-459.74 1872.02,-464.68"/>
<polygon fill="black" stroke="black" points="1872.16,-468.18 1882.24,-464.89 1872.31,-461.18 1872.16,-468.18"/>
<text text-anchor="middle" x="1697.46" y="-467.3" font-family="Times-Roman" font-size="14.00">http://www.opengis.net/ont/geosparql#crs</text>
</g>
<!-- Rhttp://www.opengis.net/ont/sf#Point -->
<g id="node10" class="node">
<title>Rhttp://www.opengis.net/ont/sf#Point</title>
<ellipse fill="none" stroke="blue" cx="2098.54" cy="-415.5" rx="174.67" ry="18"/>
<text text-anchor="middle" x="2098.54" y="-411.8" font-family="Times-Roman" font-size="14.00">http://www.opengis.net/ont/sf#Point</text>
</g>
<!-- B_:b0&#45;&gt;Rhttp://www.opengis.net/ont/sf#Point -->
<g id="edge9" class="edge">
<title>B_:b0&#45;&gt;Rhttp://www.opengis.net/ont/sf#Point</title>
<path fill="none" stroke="black" stroke-dasharray="1,5" d="M1226.8,-449.82C1312.57,-446.44 1696.46,-431.31 1924.89,-422.3"/>
<polygon fill="black" stroke="black" points="1925.12,-425.8 1934.98,-421.91 1924.85,-418.8 1925.12,-425.8"/>
<text text-anchor="middle" x="1697.46" y="-440.3" font-family="Times-Roman" font-size="14.00">rdfs:type</text>
</g>
<!-- Rschema:Place -->
<g id="node11" class="node">
<title>Rschema:Place</title>
<ellipse fill="none" stroke="blue" cx="2098.54" cy="-361.5" rx="72.29" ry="18"/>
<text text-anchor="middle" x="2098.54" y="-357.8" font-family="Times-Roman" font-size="14.00">schema:Place</text>
</g>
<!-- B_:b1&#45;&gt;Rschema:Place -->
<g id="edge10" class="edge">
<title>B_:b1&#45;&gt;Rschema:Place</title>
<path fill="none" stroke="black" stroke-dasharray="1,5" d="M1226.8,-342.87C1325.52,-344.98 1819.15,-355.54 2016.15,-359.76"/>
<polygon fill="black" stroke="black" points="2016.37,-363.26 2026.44,-359.98 2016.52,-356.27 2016.37,-363.26"/>
<text text-anchor="middle" x="1697.46" y="-359.3" font-family="Times-Roman" font-size="14.00">rdfs:type</text>
</g>
<!-- B_:b2 -->
<g id="node12" class="node">
<title>B_:b2</title>
<ellipse fill="none" stroke="green" cx="2098.54" cy="-307.5" rx="18" ry="18"/>
</g>
<!-- B_:b1&#45;&gt;B_:b2 -->
<g id="edge11" class="edge">
<title>B_:b1&#45;&gt;B_:b2</title>
<path fill="none" stroke="black" stroke-dasharray="1,5" d="M1226.8,-341.82C1336.55,-337.49 1934.38,-313.93 2070.12,-308.58"/>
<polygon fill="black" stroke="black" points="2070.59,-312.06 2080.45,-308.17 2070.32,-305.07 2070.59,-312.06"/>
<text text-anchor="middle" x="1697.46" y="-332.3" font-family="Times-Roman" font-size="14.00">schema:geo</text>
</g>
<!-- Rschema:DigitalDocument -->
<g id="node16" class="node">
<title>Rschema:DigitalDocument</title>
<ellipse fill="none" stroke="blue" cx="2098.54" cy="-253.5" rx="124.28" ry="18"/>
<text text-anchor="middle" x="2098.54" y="-249.8" font-family="Times-Roman" font-size="14.00">schema:DigitalDocument</text>
</g>
<!-- B_:b3&#45;&gt;Rschema:DigitalDocument -->
<g id="edge15" class="edge">
<title>B_:b3&#45;&gt;Rschema:DigitalDocument</title>
<path fill="none" stroke="black" stroke-dasharray="1,5" d="M1226.8,-199.57C1319.04,-205.29 1756.07,-232.35 1973.74,-245.83"/>
<polygon fill="black" stroke="black" points="1973.74,-249.34 1983.93,-246.46 1974.17,-242.35 1973.74,-249.34"/>
<text text-anchor="middle" x="1697.46" y="-240.3" font-family="Times-Roman" font-size="14.00">rdfs:type</text>
</g>
<!-- Lhttps://igsn.org/schema/spatial.schema.json -->
<g id="node17" class="node">
<title>Lhttps://igsn.org/schema/spatial.schema.json</title>
<polygon fill="none" stroke="black" points="1937.04,-180.5 1937.04,-216.5 2260.04,-216.5 2260.04,-180.5 1937.04,-180.5"/>
<text text-anchor="middle" x="2098.54" y="-194.8" font-family="Times-Roman" font-size="14.00">https://igsn.org/schema/spatial.schema.json</text>
</g>
<!-- B_:b3&#45;&gt;Lhttps://igsn.org/schema/spatial.schema.json -->
<g id="edge16" class="edge">
<title>B_:b3&#45;&gt;Lhttps://igsn.org/schema/spatial.schema.json</title>
<path fill="none" stroke="black" stroke-dasharray="1,5" d="M1226.8,-198.5C1312.81,-198.5 1698.6,-198.5 1926.8,-198.5"/>
<polygon fill="black" stroke="black" points="1926.87,-202 1936.87,-198.5 1926.87,-195 1926.87,-202"/>
<text text-anchor="middle" x="1697.46" y="-202.3" font-family="Times-Roman" font-size="14.00">schema:conformsTo</text>
</g>
<!-- Lapplication/vnd.geo+json -->
<g id="node18" class="node">
<title>Lapplication/vnd.geo+json</title>
<polygon fill="none" stroke="black" points="2001.54,-125.5 2001.54,-161.5 2195.54,-161.5 2195.54,-125.5 2001.54,-125.5"/>
<text text-anchor="middle" x="2098.54" y="-139.8" font-family="Times-Roman" font-size="14.00">application/vnd.geo+json</text>
</g>
<!-- B_:b3&#45;&gt;Lapplication/vnd.geo+json -->
<g id="edge17" class="edge">
<title>B_:b3&#45;&gt;Lapplication/vnd.geo+json</title>
<path fill="none" stroke="black" stroke-dasharray="1,5" d="M1226.8,-197.43C1321.56,-191.56 1780.16,-163.16 1991.04,-150.1"/>
<polygon fill="black" stroke="black" points="1991.44,-153.58 2001.2,-149.47 1991,-146.59 1991.44,-153.58"/>
<text text-anchor="middle" x="1697.46" y="-181.3" font-family="Times-Roman" font-size="14.00">schema:format</text>
</g>
<!-- Lhttps://samples.earth/id/do/bqs2dn2u6s73o70jdup0.geojson -->
<g id="node19" class="node">
<title>Lhttps://samples.earth/id/do/bqs2dn2u6s73o70jdup0.geojson</title>
<polygon fill="none" stroke="black" points="1879.54,-70.5 1879.54,-106.5 2317.54,-106.5 2317.54,-70.5 1879.54,-70.5"/>
<text text-anchor="middle" x="2098.54" y="-84.8" font-family="Times-Roman" font-size="14.00">https://samples.earth/id/do/bqs2dn2u6s73o70jdup0.geojson</text>
</g>
<!-- B_:b3&#45;&gt;Lhttps://samples.earth/id/do/bqs2dn2u6s73o70jdup0.geojson -->
<g id="edge18" class="edge">
<title>B_:b3&#45;&gt;Lhttps://samples.earth/id/do/bqs2dn2u6s73o70jdup0.geojson</title>
<path fill="none" stroke="black" stroke-dasharray="1,5" d="M1226.13,-195.06C1274.27,-185.22 1417.71,-156.67 1537.96,-140.5 1646.63,-125.88 1767.73,-114.08 1869.4,-105.43"/>
<polygon fill="black" stroke="black" points="1869.82,-108.91 1879.49,-104.58 1869.23,-101.93 1869.82,-108.91"/>
<text text-anchor="middle" x="1697.46" y="-144.3" font-family="Times-Roman" font-size="14.00">schema:url</text>
</g>
<!-- Rschema:GeoCoordinates -->
<g id="node13" class="node">
<title>Rschema:GeoCoordinates</title>
<ellipse fill="none" stroke="blue" cx="2602.36" cy="-367.5" rx="120.48" ry="18"/>
<text text-anchor="middle" x="2602.36" y="-363.8" font-family="Times-Roman" font-size="14.00">schema:GeoCoordinates</text>
</g>
<!-- B_:b2&#45;&gt;Rschema:GeoCoordinates -->
<g id="edge12" class="edge">
<title>B_:b2&#45;&gt;Rschema:GeoCoordinates</title>
<path fill="none" stroke="black" stroke-dasharray="1,5" d="M2116.52,-309.53C2175.35,-316.56 2373.56,-340.26 2497.59,-355.09"/>
<polygon fill="black" stroke="black" points="2497.53,-358.61 2507.87,-356.32 2498.36,-351.66 2497.53,-358.61"/>
<text text-anchor="middle" x="2402.12" y="-353.3" font-family="Times-Roman" font-size="14.00">rdfs:type</text>
</g>
<!-- L&#45;18|Datatype: XMLSchema#integer -->
<g id="node14" class="node">
<title>L&#45;18|Datatype: XMLSchema#integer</title>
<polygon fill="none" stroke="black" points="2484.86,-284.5 2484.86,-330.5 2719.86,-330.5 2719.86,-284.5 2484.86,-284.5"/>
<text text-anchor="middle" x="2602.36" y="-315.3" font-family="Times-Roman" font-size="14.00">&#45;18</text>
<polyline fill="none" stroke="black" points="2484.86,-307.5 2719.86,-307.5 "/>
<text text-anchor="middle" x="2602.36" y="-292.3" font-family="Times-Roman" font-size="14.00">Datatype: XMLSchema#integer</text>
</g>
<!-- B_:b2&#45;&gt;L&#45;18|Datatype: XMLSchema#integer -->
<g id="edge13" class="edge">
<title>B_:b2&#45;&gt;L&#45;18|Datatype: XMLSchema#integer</title>
<path fill="none" stroke="black" stroke-dasharray="1,5" d="M2116.81,-307.5C2172.42,-307.5 2350.39,-307.5 2474.41,-307.5"/>
<polygon fill="black" stroke="black" points="2474.74,-311 2484.74,-307.5 2474.74,-304 2474.74,-311"/>
<text text-anchor="middle" x="2402.12" y="-311.3" font-family="Times-Roman" font-size="14.00">schema:latitude</text>
</g>
<!-- L&#45;76|Datatype: XMLSchema#integer -->
<g id="node15" class="node">
<title>L&#45;76|Datatype: XMLSchema#integer</title>
<polygon fill="none" stroke="black" points="2484.86,-219.5 2484.86,-265.5 2719.86,-265.5 2719.86,-219.5 2484.86,-219.5"/>
<text text-anchor="middle" x="2602.36" y="-250.3" font-family="Times-Roman" font-size="14.00">&#45;76</text>
<polyline fill="none" stroke="black" points="2484.86,-242.5 2719.86,-242.5 "/>
<text text-anchor="middle" x="2602.36" y="-227.3" font-family="Times-Roman" font-size="14.00">Datatype: XMLSchema#integer</text>
</g>
<!-- B_:b2&#45;&gt;L&#45;76|Datatype: XMLSchema#integer -->
<g id="edge14" class="edge">
<title>B_:b2&#45;&gt;L&#45;76|Datatype: XMLSchema#integer</title>
<path fill="none" stroke="black" stroke-dasharray="1,5" d="M2116.58,-305.52C2153.87,-301.16 2245.48,-290.36 2322.12,-280.5 2371.95,-274.09 2426.74,-266.7 2474.49,-260.16"/>
<polygon fill="black" stroke="black" points="2475.13,-263.61 2484.56,-258.78 2474.18,-256.67 2475.13,-263.61"/>
<text text-anchor="middle" x="2402.12" y="-281.3" font-family="Times-Roman" font-size="14.00">schema:longitude</text>
</g>
</g>
</svg>
