<?xml version="1.0" encoding="UTF-8" standalone="no"?>
<!DOCTYPE svg PUBLIC "-//W3C//DTD SVG 1.1//EN"
 "http://www.w3.org/Graphics/SVG/1.1/DTD/svg11.dtd">
<!-- Generated by graphviz version 2.44.0 (0)
 -->
<!-- Pages: 1 -->
<svg width="1817pt" height="355pt"
 viewBox="0.00 0.00 1816.56 354.50" xmlns="http://www.w3.org/2000/svg" xmlns:xlink="http://www.w3.org/1999/xlink">
<g id="graph0" class="graph" transform="scale(1 1) rotate(0) translate(4 350.5)">
<polygon fill="white" stroke="transparent" points="-4,4 -4,-350.5 1812.56,-350.5 1812.56,4 -4,4"/>
<text text-anchor="middle" x="904.28" y="-22.8" font-family="Times-Roman" font-size="14.00">Model:</text>
<text text-anchor="middle" x="904.28" y="-7.8" font-family="Times-Roman" font-size="14.00">https://iode.org/</text>
<!-- Rhttps://foo.org/url/to/metadata/representation -->
<g id="node1" class="node">
<title>Rhttps://foo.org/url/to/metadata/representation</title>
<ellipse fill="none" stroke="blue" cx="215.78" cy="-273.5" rx="215.56" ry="18"/>
<text text-anchor="middle" x="215.78" y="-269.8" font-family="Times-Roman" font-size="14.00">https://foo.org/url/to/metadata/representation</text>
</g>
<!-- Rschema:Course -->
<g id="node2" class="node">
<title>Rschema:Course</title>
<ellipse fill="none" stroke="blue" cx="1019.56" cy="-328.5" rx="80.69" ry="18"/>
<text text-anchor="middle" x="1019.56" y="-324.8" font-family="Times-Roman" font-size="14.00">schema:Course</text>
</g>
<!-- Rhttps://foo.org/url/to/metadata/representation&#45;&gt;Rschema:Course -->
<g id="edge1" class="edge">
<title>Rhttps://foo.org/url/to/metadata/representation&#45;&gt;Rschema:Course</title>
<path fill="none" stroke="black" stroke-dasharray="1,5" d="M368.26,-286.27C395.33,-288.43 423.27,-290.6 449.56,-292.5 619.97,-304.84 819.26,-316.91 931.02,-323.46"/>
<polygon fill="black" stroke="black" points="931.04,-326.97 941.22,-324.06 931.44,-319.98 931.04,-326.97"/>
<text text-anchor="middle" x="545.56" y="-308.3" font-family="Times-Roman" font-size="14.00">rdfs:type</text>
</g>
<!-- LIn this course you will get an introduction to the main tools and ideas in the data scientist&#39;s toolbox... -->
<g id="node3" class="node">
<title>LIn this course you will get an introduction to the main tools and ideas in the data scientist&#39;s toolbox...</title>
<polygon fill="none" stroke="black" points="659.56,-255.5 659.56,-291.5 1379.56,-291.5 1379.56,-255.5 659.56,-255.5"/>
<text text-anchor="middle" x="1019.56" y="-269.8" font-family="Times-Roman" font-size="14.00">In this course you will get an introduction to the main tools and ideas in the data scientist&#39;s toolbox...</text>
</g>
<!-- Rhttps://foo.org/url/to/metadata/representation&#45;&gt;LIn this course you will get an introduction to the main tools and ideas in the data scientist&#39;s toolbox... -->
<g id="edge2" class="edge">
<title>Rhttps://foo.org/url/to/metadata/representation&#45;&gt;LIn this course you will get an introduction to the main tools and ideas in the data scientist&#39;s toolbox...</title>
<path fill="none" stroke="black" stroke-dasharray="1,5" d="M431.64,-273.5C498.79,-273.5 574.88,-273.5 649.49,-273.5"/>
<polygon fill="black" stroke="black" points="649.53,-277 659.53,-273.5 649.53,-270 649.53,-277"/>
<text text-anchor="middle" x="545.56" y="-277.3" font-family="Times-Roman" font-size="14.00">schema:description</text>
</g>
<!-- B_:b0 -->
<g id="node4" class="node">
<title>B_:b0</title>
<ellipse fill="none" stroke="green" cx="1019.56" cy="-218.5" rx="18" ry="18"/>
</g>
<!-- Rhttps://foo.org/url/to/metadata/representation&#45;&gt;B_:b0 -->
<g id="edge3" class="edge">
<title>Rhttps://foo.org/url/to/metadata/representation&#45;&gt;B_:b0</title>
<path fill="none" stroke="black" stroke-dasharray="1,5" d="M368.26,-260.73C395.33,-258.57 423.27,-256.4 449.56,-254.5 657.89,-239.41 909.4,-224.74 991.34,-220.05"/>
<polygon fill="black" stroke="black" points="991.54,-223.54 1001.33,-219.48 991.15,-216.55 991.54,-223.54"/>
<text text-anchor="middle" x="545.56" y="-258.3" font-family="Times-Roman" font-size="14.00">schema:hasCourseInstance</text>
</g>
<!-- Rschema:CourseInstance -->
<g id="node5" class="node">
<title>Rschema:CourseInstance</title>
<ellipse fill="none" stroke="blue" cx="1683.56" cy="-328.5" rx="118.88" ry="18"/>
<text text-anchor="middle" x="1683.56" y="-324.8" font-family="Times-Roman" font-size="14.00">schema:CourseInstance</text>
</g>
<!-- B_:b0&#45;&gt;Rschema:CourseInstance -->
<g id="edge4" class="edge">
<title>B_:b0&#45;&gt;Rschema:CourseInstance</title>
<path fill="none" stroke="black" stroke-dasharray="1,5" d="M1037.27,-214.7C1091.69,-203.31 1266.79,-174.52 1379.56,-246.5 1393.32,-255.28 1384.24,-269.07 1397.56,-278.5 1442.92,-310.61 1502.29,-324.3 1555.1,-329.5"/>
<polygon fill="black" stroke="black" points="1554.95,-333.01 1565.22,-330.41 1555.57,-326.03 1554.95,-333.01"/>
<text text-anchor="middle" x="1469.06" y="-330.3" font-family="Times-Roman" font-size="14.00">rdfs:type</text>
</g>
<!-- LMOOC -->
<g id="node6" class="node">
<title>LMOOC</title>
<polygon fill="none" stroke="black" points="1653.06,-255.5 1653.06,-291.5 1714.06,-291.5 1714.06,-255.5 1653.06,-255.5"/>
<text text-anchor="middle" x="1683.56" y="-269.8" font-family="Times-Roman" font-size="14.00">MOOC</text>
</g>
<!-- B_:b0&#45;&gt;LMOOC -->
<g id="edge5" class="edge">
<title>B_:b0&#45;&gt;LMOOC</title>
<path fill="none" stroke="black" stroke-dasharray="1,5" d="M1037.76,-219.77C1089.47,-223.62 1248.11,-235.52 1379.56,-246.5 1473.95,-254.39 1584.79,-264.47 1642.71,-269.81"/>
<polygon fill="black" stroke="black" points="1642.62,-273.31 1652.9,-270.75 1643.26,-266.34 1642.62,-273.31"/>
<text text-anchor="middle" x="1469.06" y="-263.3" font-family="Times-Roman" font-size="14.00">schema:courseMode</text>
</g>
<!-- Lonline -->
<g id="node7" class="node">
<title>Lonline</title>
<polygon fill="none" stroke="black" points="1654.06,-200.5 1654.06,-236.5 1713.06,-236.5 1713.06,-200.5 1654.06,-200.5"/>
<text text-anchor="middle" x="1683.56" y="-214.8" font-family="Times-Roman" font-size="14.00">online</text>
</g>
<!-- B_:b0&#45;&gt;Lonline -->
<g id="edge6" class="edge">
<title>B_:b0&#45;&gt;Lonline</title>
<path fill="none" stroke="black" stroke-dasharray="1,5" d="M1037.59,-218.5C1124.31,-218.5 1517.65,-218.5 1643.62,-218.5"/>
<polygon fill="black" stroke="black" points="1643.94,-222 1653.94,-218.5 1643.94,-215 1643.94,-222"/>
<text text-anchor="middle" x="1469.06" y="-222.3" font-family="Times-Roman" font-size="14.00">schema:courseMode</text>
</g>
<!-- L2019&#45;03&#45;21|Datatype: XMLSchema#dateTime -->
<g id="node8" class="node">
<title>L2019&#45;03&#45;21|Datatype: XMLSchema#dateTime</title>
<polygon fill="none" stroke="black" points="1558.56,-135.5 1558.56,-181.5 1808.56,-181.5 1808.56,-135.5 1558.56,-135.5"/>
<text text-anchor="middle" x="1683.56" y="-166.3" font-family="Times-Roman" font-size="14.00">2019&#45;03&#45;21</text>
<polyline fill="none" stroke="black" points="1558.56,-158.5 1808.56,-158.5 "/>
<text text-anchor="middle" x="1683.56" y="-143.3" font-family="Times-Roman" font-size="14.00">Datatype: XMLSchema#dateTime</text>
</g>
<!-- B_:b0&#45;&gt;L2019&#45;03&#45;21|Datatype: XMLSchema#dateTime -->
<g id="edge7" class="edge">
<title>B_:b0&#45;&gt;L2019&#45;03&#45;21|Datatype: XMLSchema#dateTime</title>
<path fill="none" stroke="black" stroke-dasharray="1,5" d="M1037.59,-216.96C1108.05,-210.57 1380.89,-185.84 1548.31,-170.67"/>
<polygon fill="black" stroke="black" points="1548.79,-174.14 1558.44,-169.75 1548.16,-167.17 1548.79,-174.14"/>
<text text-anchor="middle" x="1469.06" y="-186.3" font-family="Times-Roman" font-size="14.00">schema:endDate</text>
</g>
<!-- L2019&#45;02&#45;15|Datatype: XMLSchema#dateTime -->
<g id="node9" class="node">
<title>L2019&#45;02&#45;15|Datatype: XMLSchema#dateTime</title>
<polygon fill="none" stroke="black" points="1558.56,-70.5 1558.56,-116.5 1808.56,-116.5 1808.56,-70.5 1558.56,-70.5"/>
<text text-anchor="middle" x="1683.56" y="-101.3" font-family="Times-Roman" font-size="14.00">2019&#45;02&#45;15</text>
<polyline fill="none" stroke="black" points="1558.56,-93.5 1808.56,-93.5 "/>
<text text-anchor="middle" x="1683.56" y="-78.3" font-family="Times-Roman" font-size="14.00">Datatype: XMLSchema#dateTime</text>
</g>
<!-- B_:b0&#45;&gt;L2019&#45;02&#45;15|Datatype: XMLSchema#dateTime -->
<g id="edge8" class="edge">
<title>B_:b0&#45;&gt;L2019&#45;02&#45;15|Datatype: XMLSchema#dateTime</title>
<path fill="none" stroke="black" stroke-dasharray="1,5" d="M1037.59,-215.28C1108.38,-201.92 1383.47,-149.98 1550.67,-118.4"/>
<polygon fill="black" stroke="black" points="1551.36,-121.84 1560.54,-116.54 1550.06,-114.96 1551.36,-121.84"/>
<text text-anchor="middle" x="1469.06" y="-148.3" font-family="Times-Roman" font-size="14.00">schema:startDate</text>
</g>
</g>
</svg>
