<?xml version="1.0" encoding="UTF-8" standalone="no"?>
<!DOCTYPE svg PUBLIC "-//W3C//DTD SVG 1.1//EN"
 "http://www.w3.org/Graphics/SVG/1.1/DTD/svg11.dtd">
<!-- Generated by graphviz version 2.44.0 (0)
 -->
<!-- Pages: 1 -->
<svg width="3936pt" height="595pt"
 viewBox="0.00 0.00 3935.93 595.00" xmlns="http://www.w3.org/2000/svg" xmlns:xlink="http://www.w3.org/1999/xlink">
<g id="graph0" class="graph" transform="scale(1 1) rotate(0) translate(4 591)">
<polygon fill="white" stroke="transparent" points="-4,4 -4,-591 3931.93,-591 3931.93,4 -4,4"/>
<text text-anchor="middle" x="1963.97" y="-22.8" font-family="Times-Roman" font-size="14.00">Model:</text>
<text text-anchor="middle" x="1963.97" y="-7.8" font-family="Times-Roman" font-size="14.00">https://iode.org/</text>
<!-- Rfile:///home/fils/src/Projects/OIH/odis&#45;arch/schema/thematics/training/graphs/ID_value_string -->
<g id="node1" class="node">
<title>Rfile:///home/fils/src/Projects/OIH/odis&#45;arch/schema/thematics/training/graphs/ID_value_string</title>
<ellipse fill="none" stroke="blue" cx="3008.57" cy="-409.5" rx="426.22" ry="18"/>
<text text-anchor="middle" x="3008.57" y="-405.8" font-family="Times-Roman" font-size="14.00">file:///home/fils/src/Projects/OIH/odis&#45;arch/schema/thematics/training/graphs/ID_value_string</text>
</g>
<!-- Rschema:PropertyValue -->
<g id="node2" class="node">
<title>Rschema:PropertyValue</title>
<ellipse fill="none" stroke="blue" cx="3767.43" cy="-491.5" rx="111.28" ry="18"/>
<text text-anchor="middle" x="3767.43" y="-487.8" font-family="Times-Roman" font-size="14.00">schema:PropertyValue</text>
</g>
<!-- Rfile:///home/fils/src/Projects/OIH/odis&#45;arch/schema/thematics/training/graphs/ID_value_string&#45;&gt;Rschema:PropertyValue -->
<g id="edge1" class="edge">
<title>Rfile:///home/fils/src/Projects/OIH/odis&#45;arch/schema/thematics/training/graphs/ID_value_string&#45;&gt;Rschema:PropertyValue</title>
<path fill="none" stroke="black" stroke-dasharray="1,5" d="M3164.56,-426.29C3314.04,-442.49 3535.99,-466.53 3664.44,-480.45"/>
<polygon fill="black" stroke="black" points="3664.35,-483.96 3674.67,-481.56 3665.1,-477 3664.35,-483.96"/>
<text text-anchor="middle" x="3520.93" y="-475.3" font-family="Times-Roman" font-size="14.00">rdfs:type</text>
</g>
<!-- LOptional description of the ID -->
<g id="node3" class="node">
<title>LOptional description of the ID</title>
<polygon fill="none" stroke="black" points="3656.93,-418.5 3656.93,-454.5 3877.93,-454.5 3877.93,-418.5 3656.93,-418.5"/>
<text text-anchor="middle" x="3767.43" y="-432.8" font-family="Times-Roman" font-size="14.00">Optional description of the ID</text>
</g>
<!-- Rfile:///home/fils/src/Projects/OIH/odis&#45;arch/schema/thematics/training/graphs/ID_value_string&#45;&gt;LOptional description of the ID -->
<g id="edge2" class="edge">
<title>Rfile:///home/fils/src/Projects/OIH/odis&#45;arch/schema/thematics/training/graphs/ID_value_string&#45;&gt;LOptional description of the ID</title>
<path fill="none" stroke="black" stroke-dasharray="1,5" d="M3334.67,-421.1C3445.39,-425.05 3562.34,-429.22 3646.55,-432.22"/>
<polygon fill="black" stroke="black" points="3646.54,-435.73 3656.66,-432.58 3646.79,-428.73 3646.54,-435.73"/>
<text text-anchor="middle" x="3520.93" y="-433.3" font-family="Times-Roman" font-size="14.00">schema:description</text>
</g>
<!-- LThis can be text or URL for an ID like ORCID -->
<g id="node4" class="node">
<title>LThis can be text or URL for an ID like ORCID</title>
<polygon fill="none" stroke="black" points="3606.93,-363.5 3606.93,-399.5 3927.93,-399.5 3927.93,-363.5 3606.93,-363.5"/>
<text text-anchor="middle" x="3767.43" y="-377.8" font-family="Times-Roman" font-size="14.00">This can be text or URL for an ID like ORCID</text>
</g>
<!-- Rfile:///home/fils/src/Projects/OIH/odis&#45;arch/schema/thematics/training/graphs/ID_value_string&#45;&gt;LThis can be text or URL for an ID like ORCID -->
<g id="edge3" class="edge">
<title>Rfile:///home/fils/src/Projects/OIH/odis&#45;arch/schema/thematics/training/graphs/ID_value_string&#45;&gt;LThis can be text or URL for an ID like ORCID</title>
<path fill="none" stroke="black" stroke-dasharray="1,5" d="M3329.72,-397.66C3421.49,-394.26 3517.93,-390.69 3596.78,-387.78"/>
<polygon fill="black" stroke="black" points="3596.93,-391.27 3606.79,-387.41 3596.67,-384.28 3596.93,-391.27"/>
<text text-anchor="middle" x="3520.93" y="-396.3" font-family="Times-Roman" font-size="14.00">schema:propertyID</text>
</g>
<!-- Lhttps://foo.org/linkToPropertyIDPage -->
<g id="node5" class="node">
<title>Lhttps://foo.org/linkToPropertyIDPage</title>
<polygon fill="none" stroke="black" points="3634.93,-308.5 3634.93,-344.5 3899.93,-344.5 3899.93,-308.5 3634.93,-308.5"/>
<text text-anchor="middle" x="3767.43" y="-322.8" font-family="Times-Roman" font-size="14.00">https://foo.org/linkToPropertyIDPage</text>
</g>
<!-- Rfile:///home/fils/src/Projects/OIH/odis&#45;arch/schema/thematics/training/graphs/ID_value_string&#45;&gt;Lhttps://foo.org/linkToPropertyIDPage -->
<g id="edge4" class="edge">
<title>Rfile:///home/fils/src/Projects/OIH/odis&#45;arch/schema/thematics/training/graphs/ID_value_string&#45;&gt;Lhttps://foo.org/linkToPropertyIDPage</title>
<path fill="none" stroke="black" stroke-dasharray="1,5" d="M3376.61,-400.4C3396.6,-395.52 3416.16,-389.61 3434.93,-382.5 3444.41,-378.91 3443.59,-372.42 3452.93,-368.5 3506.44,-346.06 3569.2,-334.99 3624.44,-329.72"/>
<polygon fill="black" stroke="black" points="3625.02,-333.18 3634.67,-328.81 3624.39,-326.21 3625.02,-333.18"/>
<text text-anchor="middle" x="3520.93" y="-372.3" font-family="Times-Roman" font-size="14.00">schema:url</text>
</g>
<!-- Rhttps://raw.githubusercontent.com/iodepo/odis&#45;arch/schema&#45;dev/schema/thematics/training/graphs/course1.json -->
<g id="node6" class="node">
<title>Rhttps://raw.githubusercontent.com/iodepo/odis&#45;arch/schema&#45;dev/schema/thematics/training/graphs/course1.json</title>
<ellipse fill="none" stroke="blue" cx="520.6" cy="-218.5" rx="520.71" ry="18"/>
<text text-anchor="middle" x="520.6" y="-214.8" font-family="Times-Roman" font-size="14.00">https://raw.githubusercontent.com/iodepo/odis&#45;arch/schema&#45;dev/schema/thematics/training/graphs/course1.json</text>
</g>
<!-- Rschema:Course -->
<g id="node7" class="node">
<title>Rschema:Course</title>
<ellipse fill="none" stroke="blue" cx="1629.21" cy="-199.5" rx="80.69" ry="18"/>
<text text-anchor="middle" x="1629.21" y="-195.8" font-family="Times-Roman" font-size="14.00">schema:Course</text>
</g>
<!-- Rhttps://raw.githubusercontent.com/iodepo/odis&#45;arch/schema&#45;dev/schema/thematics/training/graphs/course1.json&#45;&gt;Rschema:Course -->
<g id="edge5" class="edge">
<title>Rhttps://raw.githubusercontent.com/iodepo/odis&#45;arch/schema&#45;dev/schema/thematics/training/graphs/course1.json&#45;&gt;Rschema:Course</title>
<path fill="none" stroke="black" stroke-dasharray="1,5" d="M978.4,-209.92C1005.75,-209.43 1032.84,-208.95 1059.21,-208.5 1228.52,-205.59 1426.18,-202.54 1538.33,-200.84"/>
<polygon fill="black" stroke="black" points="1538.63,-204.34 1548.58,-200.69 1538.53,-197.34 1538.63,-204.34"/>
<text text-anchor="middle" x="1155.21" y="-212.3" font-family="Times-Roman" font-size="14.00">rdfs:type</text>
</g>
<!-- LIn this course you will get an introduction to the main tools and ideas in the data scientist&#39;s toolbox... -->
<g id="node8" class="node">
<title>LIn this course you will get an introduction to the main tools and ideas in the data scientist&#39;s toolbox...</title>
<polygon fill="none" stroke="black" points="1269.21,-126.5 1269.21,-162.5 1989.21,-162.5 1989.21,-126.5 1269.21,-126.5"/>
<text text-anchor="middle" x="1629.21" y="-140.8" font-family="Times-Roman" font-size="14.00">In this course you will get an introduction to the main tools and ideas in the data scientist&#39;s toolbox...</text>
</g>
<!-- Rhttps://raw.githubusercontent.com/iodepo/odis&#45;arch/schema&#45;dev/schema/thematics/training/graphs/course1.json&#45;&gt;LIn this course you will get an introduction to the main tools and ideas in the data scientist&#39;s toolbox... -->
<g id="edge6" class="edge">
<title>Rhttps://raw.githubusercontent.com/iodepo/odis&#45;arch/schema&#45;dev/schema/thematics/training/graphs/course1.json&#45;&gt;LIn this course you will get an introduction to the main tools and ideas in the data scientist&#39;s toolbox...</title>
<path fill="none" stroke="black" stroke-dasharray="1,5" d="M760.7,-202.51C933.45,-190.96 1167.33,-175.32 1348.72,-163.19"/>
<polygon fill="black" stroke="black" points="1349.21,-166.67 1358.95,-162.51 1348.74,-159.68 1349.21,-166.67"/>
<text text-anchor="middle" x="1155.21" y="-185.3" font-family="Times-Roman" font-size="14.00">schema:description</text>
</g>
<!-- B_:b0 -->
<g id="node9" class="node">
<title>B_:b0</title>
<ellipse fill="none" stroke="green" cx="1629.21" cy="-253.5" rx="18" ry="18"/>
</g>
<!-- Rhttps://raw.githubusercontent.com/iodepo/odis&#45;arch/schema&#45;dev/schema/thematics/training/graphs/course1.json&#45;&gt;B_:b0 -->
<g id="edge7" class="edge">
<title>Rhttps://raw.githubusercontent.com/iodepo/odis&#45;arch/schema&#45;dev/schema/thematics/training/graphs/course1.json&#45;&gt;B_:b0</title>
<path fill="none" stroke="black" stroke-dasharray="1,5" d="M905.53,-230.64C1175.45,-239.18 1504.87,-249.6 1600.8,-252.63"/>
<polygon fill="black" stroke="black" points="1600.97,-256.14 1611.07,-252.96 1601.19,-249.14 1600.97,-256.14"/>
<text text-anchor="middle" x="1155.21" y="-244.3" font-family="Times-Roman" font-size="14.00">schema:hasCourseInstance</text>
</g>
<!-- B_:b2 -->
<g id="node10" class="node">
<title>B_:b2</title>
<ellipse fill="none" stroke="green" cx="1629.21" cy="-424.5" rx="18" ry="18"/>
</g>
<!-- Rhttps://raw.githubusercontent.com/iodepo/odis&#45;arch/schema&#45;dev/schema/thematics/training/graphs/course1.json&#45;&gt;B_:b2 -->
<g id="edge8" class="edge">
<title>Rhttps://raw.githubusercontent.com/iodepo/odis&#45;arch/schema&#45;dev/schema/thematics/training/graphs/course1.json&#45;&gt;B_:b2</title>
<path fill="none" stroke="black" stroke-dasharray="1,5" d="M616.91,-236.24C855.03,-280.57 1466.53,-394.4 1601.56,-419.54"/>
<polygon fill="black" stroke="black" points="1600.99,-422.99 1611.46,-421.38 1602.27,-416.11 1600.99,-422.99"/>
<text text-anchor="middle" x="1155.21" y="-355.3" font-family="Times-Roman" font-size="14.00">schema:hasCourseInstance</text>
</g>
<!-- Rschema:CourseInstance -->
<g id="node11" class="node">
<title>Rschema:CourseInstance</title>
<ellipse fill="none" stroke="blue" cx="2293.21" cy="-383.5" rx="118.88" ry="18"/>
<text text-anchor="middle" x="2293.21" y="-379.8" font-family="Times-Roman" font-size="14.00">schema:CourseInstance</text>
</g>
<!-- B_:b0&#45;&gt;Rschema:CourseInstance -->
<g id="edge9" class="edge">
<title>B_:b0&#45;&gt;Rschema:CourseInstance</title>
<path fill="none" stroke="black" stroke-dasharray="1,5" d="M1647.12,-255.92C1736.24,-268.71 2147.46,-327.76 2150.21,-329.5 2162.4,-337.21 2156.29,-348.37 2168.21,-356.5 2175.27,-361.32 2183.04,-365.3 2191.15,-368.58"/>
<polygon fill="black" stroke="black" points="2190.2,-371.96 2200.79,-372.12 2192.61,-365.39 2190.2,-371.96"/>
<text text-anchor="middle" x="2078.71" y="-333.3" font-family="Times-Roman" font-size="14.00">rdfs:type</text>
</g>
<!-- B_:b1 -->
<g id="node12" class="node">
<title>B_:b1</title>
<ellipse fill="none" stroke="green" cx="2293.21" cy="-273.5" rx="18" ry="18"/>
</g>
<!-- B_:b0&#45;&gt;B_:b1 -->
<g id="edge10" class="edge">
<title>B_:b0&#45;&gt;B_:b1</title>
<path fill="none" stroke="black" stroke-dasharray="1,5" d="M1647.29,-252.72C1712.64,-249.92 1952.95,-241.17 2150.21,-254.5 2190.48,-257.22 2236.75,-264.13 2265.23,-268.82"/>
<polygon fill="black" stroke="black" points="2264.79,-272.29 2275.23,-270.49 2265.95,-265.39 2264.79,-272.29"/>
<text text-anchor="middle" x="2078.71" y="-258.3" font-family="Times-Roman" font-size="14.00">schema:attendee</text>
</g>
<!-- LMOOC1 -->
<g id="node13" class="node">
<title>LMOOC1</title>
<polygon fill="none" stroke="black" points="2258.21,-70.5 2258.21,-106.5 2328.21,-106.5 2328.21,-70.5 2258.21,-70.5"/>
<text text-anchor="middle" x="2293.21" y="-84.8" font-family="Times-Roman" font-size="14.00">MOOC1</text>
</g>
<!-- B_:b0&#45;&gt;LMOOC1 -->
<g id="edge11" class="edge">
<title>B_:b0&#45;&gt;LMOOC1</title>
<path fill="none" stroke="black" stroke-dasharray="1,5" d="M1646.75,-258.4C1702.92,-273.9 1888.42,-315.85 1989.21,-226.5 2020.06,-199.15 1977.59,-164.18 2007.21,-135.5 2071.69,-73.03 2185.37,-74.95 2247.9,-81.75"/>
<polygon fill="black" stroke="black" points="2247.51,-85.23 2257.85,-82.92 2248.33,-78.28 2247.51,-85.23"/>
<text text-anchor="middle" x="2078.71" y="-139.3" font-family="Times-Roman" font-size="14.00">schema:courseMode</text>
</g>
<!-- Lonline -->
<g id="node14" class="node">
<title>Lonline</title>
<polygon fill="none" stroke="black" points="2263.71,-310.5 2263.71,-346.5 2322.71,-346.5 2322.71,-310.5 2263.71,-310.5"/>
<text text-anchor="middle" x="2293.21" y="-324.8" font-family="Times-Roman" font-size="14.00">online</text>
</g>
<!-- B_:b0&#45;&gt;Lonline -->
<g id="edge12" class="edge">
<title>B_:b0&#45;&gt;Lonline</title>
<path fill="none" stroke="black" stroke-dasharray="1,5" d="M1647.41,-254C1726.05,-256.4 2051.66,-267.7 2150.21,-292.5 2158.7,-294.64 2159.9,-297.74 2168.21,-300.5 2196.25,-309.8 2228.88,-317.03 2253.62,-321.81"/>
<polygon fill="black" stroke="black" points="2253.23,-325.3 2263.71,-323.71 2254.53,-318.42 2253.23,-325.3"/>
<text text-anchor="middle" x="2078.71" y="-296.3" font-family="Times-Roman" font-size="14.00">schema:courseMode</text>
</g>
<!-- L2019&#45;03&#45;21|Datatype: XMLSchema#dateTime -->
<g id="node15" class="node">
<title>L2019&#45;03&#45;21|Datatype: XMLSchema#dateTime</title>
<polygon fill="none" stroke="black" points="2168.21,-190.5 2168.21,-236.5 2418.21,-236.5 2418.21,-190.5 2168.21,-190.5"/>
<text text-anchor="middle" x="2293.21" y="-221.3" font-family="Times-Roman" font-size="14.00">2019&#45;03&#45;21</text>
<polyline fill="none" stroke="black" points="2168.21,-213.5 2418.21,-213.5 "/>
<text text-anchor="middle" x="2293.21" y="-198.3" font-family="Times-Roman" font-size="14.00">Datatype: XMLSchema#dateTime</text>
</g>
<!-- B_:b0&#45;&gt;L2019&#45;03&#45;21|Datatype: XMLSchema#dateTime -->
<g id="edge13" class="edge">
<title>B_:b0&#45;&gt;L2019&#45;03&#45;21|Datatype: XMLSchema#dateTime</title>
<path fill="none" stroke="black" stroke-dasharray="1,5" d="M1647.49,-252.27C1700.95,-248.48 1868.39,-236.76 2007.21,-228.5 2056.38,-225.58 2110.35,-222.66 2157.97,-220.19"/>
<polygon fill="black" stroke="black" points="2158.23,-223.68 2168.03,-219.67 2157.87,-216.69 2158.23,-223.68"/>
<text text-anchor="middle" x="2078.71" y="-232.3" font-family="Times-Roman" font-size="14.00">schema:endDate</text>
</g>
<!-- L2019&#45;02&#45;15|Datatype: XMLSchema#dateTime -->
<g id="node16" class="node">
<title>L2019&#45;02&#45;15|Datatype: XMLSchema#dateTime</title>
<polygon fill="none" stroke="black" points="2168.21,-125.5 2168.21,-171.5 2418.21,-171.5 2418.21,-125.5 2168.21,-125.5"/>
<text text-anchor="middle" x="2293.21" y="-156.3" font-family="Times-Roman" font-size="14.00">2019&#45;02&#45;15</text>
<polyline fill="none" stroke="black" points="2168.21,-148.5 2418.21,-148.5 "/>
<text text-anchor="middle" x="2293.21" y="-133.3" font-family="Times-Roman" font-size="14.00">Datatype: XMLSchema#dateTime</text>
</g>
<!-- B_:b0&#45;&gt;L2019&#45;02&#45;15|Datatype: XMLSchema#dateTime -->
<g id="edge14" class="edge">
<title>B_:b0&#45;&gt;L2019&#45;02&#45;15|Datatype: XMLSchema#dateTime</title>
<path fill="none" stroke="black" stroke-dasharray="1,5" d="M1646.98,-256.91C1700.86,-266.94 1872.81,-291.75 1989.21,-226.5 2001.15,-219.81 1995.65,-208.83 2007.21,-201.5 2051.73,-173.26 2107.54,-159.25 2157.95,-152.56"/>
<polygon fill="black" stroke="black" points="2158.46,-156.03 2167.95,-151.32 2157.6,-149.08 2158.46,-156.03"/>
<text text-anchor="middle" x="2078.71" y="-205.3" font-family="Times-Roman" font-size="14.00">schema:startDate</text>
</g>
<!-- B_:b2&#45;&gt;Rschema:CourseInstance -->
<g id="edge21" class="edge">
<title>B_:b2&#45;&gt;Rschema:CourseInstance</title>
<path fill="none" stroke="black" stroke-dasharray="1,5" d="M1647.24,-423.45C1719.79,-418.95 2006.94,-401.17 2172.61,-390.91"/>
<polygon fill="black" stroke="black" points="2173.09,-394.38 2182.85,-390.27 2172.65,-387.4 2173.09,-394.38"/>
<text text-anchor="middle" x="2078.71" y="-403.3" font-family="Times-Roman" font-size="14.00">rdfs:type</text>
</g>
<!-- B_:b2&#45;&gt;Lonline -->
<g id="edge23" class="edge">
<title>B_:b2&#45;&gt;Lonline</title>
<path fill="none" stroke="black" stroke-dasharray="1,5" d="M1647.24,-422.03C1734.05,-409.44 2128.09,-352.3 2253.65,-334.09"/>
<polygon fill="black" stroke="black" points="2254.19,-337.55 2263.59,-332.65 2253.19,-330.62 2254.19,-337.55"/>
<text text-anchor="middle" x="2078.71" y="-371.3" font-family="Times-Roman" font-size="14.00">schema:courseMode</text>
</g>
<!-- LMOOC2 -->
<g id="node22" class="node">
<title>LMOOC2</title>
<polygon fill="none" stroke="black" points="2258.21,-485.5 2258.21,-521.5 2328.21,-521.5 2328.21,-485.5 2258.21,-485.5"/>
<text text-anchor="middle" x="2293.21" y="-499.8" font-family="Times-Roman" font-size="14.00">MOOC2</text>
</g>
<!-- B_:b2&#45;&gt;LMOOC2 -->
<g id="edge22" class="edge">
<title>B_:b2&#45;&gt;LMOOC2</title>
<path fill="none" stroke="black" stroke-dasharray="1,5" d="M1647.24,-426.53C1732.75,-436.74 2116.42,-482.52 2247.86,-498.21"/>
<polygon fill="black" stroke="black" points="2247.63,-501.71 2257.98,-499.42 2248.46,-494.75 2247.63,-501.71"/>
<text text-anchor="middle" x="2078.71" y="-489.3" font-family="Times-Roman" font-size="14.00">schema:courseMode</text>
</g>
<!-- L2019&#45;05&#45;21|Datatype: XMLSchema#dateTime -->
<g id="node23" class="node">
<title>L2019&#45;05&#45;21|Datatype: XMLSchema#dateTime</title>
<polygon fill="none" stroke="black" points="2168.21,-420.5 2168.21,-466.5 2418.21,-466.5 2418.21,-420.5 2168.21,-420.5"/>
<text text-anchor="middle" x="2293.21" y="-451.3" font-family="Times-Roman" font-size="14.00">2019&#45;05&#45;21</text>
<polyline fill="none" stroke="black" points="2168.21,-443.5 2418.21,-443.5 "/>
<text text-anchor="middle" x="2293.21" y="-428.3" font-family="Times-Roman" font-size="14.00">Datatype: XMLSchema#dateTime</text>
</g>
<!-- B_:b2&#45;&gt;L2019&#45;05&#45;21|Datatype: XMLSchema#dateTime -->
<g id="edge24" class="edge">
<title>B_:b2&#45;&gt;L2019&#45;05&#45;21|Datatype: XMLSchema#dateTime</title>
<path fill="none" stroke="black" stroke-dasharray="1,5" d="M1647.24,-424.99C1717.69,-427.01 1990.53,-434.84 2157.96,-439.65"/>
<polygon fill="black" stroke="black" points="2157.98,-443.15 2168.08,-439.94 2158.19,-436.15 2157.98,-443.15"/>
<text text-anchor="middle" x="2078.71" y="-442.3" font-family="Times-Roman" font-size="14.00">schema:endDate</text>
</g>
<!-- L2019&#45;04&#45;15|Datatype: XMLSchema#dateTime -->
<g id="node24" class="node">
<title>L2019&#45;04&#45;15|Datatype: XMLSchema#dateTime</title>
<polygon fill="none" stroke="black" points="2168.21,-540.5 2168.21,-586.5 2418.21,-586.5 2418.21,-540.5 2168.21,-540.5"/>
<text text-anchor="middle" x="2293.21" y="-571.3" font-family="Times-Roman" font-size="14.00">2019&#45;04&#45;15</text>
<polyline fill="none" stroke="black" points="2168.21,-563.5 2418.21,-563.5 "/>
<text text-anchor="middle" x="2293.21" y="-548.3" font-family="Times-Roman" font-size="14.00">Datatype: XMLSchema#dateTime</text>
</g>
<!-- B_:b2&#45;&gt;L2019&#45;04&#45;15|Datatype: XMLSchema#dateTime -->
<g id="edge25" class="edge">
<title>B_:b2&#45;&gt;L2019&#45;04&#45;15|Datatype: XMLSchema#dateTime</title>
<path fill="none" stroke="black" stroke-dasharray="1,5" d="M1647.11,-428.12C1700.15,-439.46 1868.05,-475.33 2007.21,-504.5 2060.64,-515.7 2119.74,-527.96 2170.2,-538.38"/>
<polygon fill="black" stroke="black" points="2169.67,-541.85 2180.17,-540.44 2171.09,-534.99 2169.67,-541.85"/>
<text text-anchor="middle" x="2078.71" y="-537.3" font-family="Times-Roman" font-size="14.00">schema:startDate</text>
</g>
<!-- B_:b1&#45;&gt;Rfile:///home/fils/src/Projects/OIH/odis&#45;arch/schema/thematics/training/graphs/ID_value_string -->
<g id="edge16" class="edge">
<title>B_:b1&#45;&gt;Rfile:///home/fils/src/Projects/OIH/odis&#45;arch/schema/thematics/training/graphs/ID_value_string</title>
<path fill="none" stroke="black" stroke-dasharray="1,5" d="M2311.59,-272.69C2337.75,-272.42 2387.44,-275.68 2418.21,-301.5 2434.08,-314.82 2420.56,-330.92 2436.21,-344.5 2486.86,-388.43 2516,-371.88 2582.21,-382.5 2617.02,-388.08 2653.61,-392.52 2690.1,-396.05"/>
<polygon fill="black" stroke="black" points="2690.11,-399.57 2700.39,-397.02 2690.77,-392.6 2690.11,-399.57"/>
<text text-anchor="middle" x="2500.21" y="-383.3" font-family="Times-Roman" font-size="14.00">schema:identifier</text>
</g>
<!-- Rschema:Person -->
<g id="node17" class="node">
<title>Rschema:Person</title>
<ellipse fill="none" stroke="blue" cx="3008.57" cy="-355.5" rx="79.09" ry="18"/>
<text text-anchor="middle" x="3008.57" y="-351.8" font-family="Times-Roman" font-size="14.00">schema:Person</text>
</g>
<!-- B_:b1&#45;&gt;Rschema:Person -->
<g id="edge15" class="edge">
<title>B_:b1&#45;&gt;Rschema:Person</title>
<path fill="none" stroke="black" stroke-dasharray="1,5" d="M2311.24,-276.93C2337.89,-282.27 2391.04,-292.87 2436.21,-301.5 2501.02,-313.88 2516.72,-320.4 2582.21,-328.5 2698.41,-342.88 2833.47,-349.8 2919.69,-352.99"/>
<polygon fill="black" stroke="black" points="2919.57,-356.48 2929.69,-353.35 2919.82,-349.49 2919.57,-356.48"/>
<text text-anchor="middle" x="2500.21" y="-329.3" font-family="Times-Roman" font-size="14.00">rdfs:type</text>
</g>
<!-- LProfessor -->
<g id="node18" class="node">
<title>LProfessor</title>
<polygon fill="none" stroke="black" points="2968.07,-282.5 2968.07,-318.5 3049.07,-318.5 3049.07,-282.5 2968.07,-282.5"/>
<text text-anchor="middle" x="3008.57" y="-296.8" font-family="Times-Roman" font-size="14.00">Professor</text>
</g>
<!-- B_:b1&#45;&gt;LProfessor -->
<g id="edge17" class="edge">
<title>B_:b1&#45;&gt;LProfessor</title>
<path fill="none" stroke="black" stroke-dasharray="1,5" d="M2311.49,-274.15C2400.96,-277.54 2812.94,-293.13 2957.37,-298.6"/>
<polygon fill="black" stroke="black" points="2957.58,-302.11 2967.7,-298.99 2957.84,-295.12 2957.58,-302.11"/>
<text text-anchor="middle" x="2500.21" y="-286.3" font-family="Times-Roman" font-size="14.00">schema:jobTitle</text>
</g>
<!-- LJane Doe -->
<g id="node19" class="node">
<title>LJane Doe</title>
<polygon fill="none" stroke="black" points="2969.57,-227.5 2969.57,-263.5 3047.57,-263.5 3047.57,-227.5 2969.57,-227.5"/>
<text text-anchor="middle" x="3008.57" y="-241.8" font-family="Times-Roman" font-size="14.00">Jane Doe</text>
</g>
<!-- B_:b1&#45;&gt;LJane Doe -->
<g id="edge18" class="edge">
<title>B_:b1&#45;&gt;LJane Doe</title>
<path fill="none" stroke="black" stroke-dasharray="1,5" d="M2311.22,-271.41C2337.84,-268.24 2390.96,-262.28 2436.21,-259.5 2629.71,-247.61 2860.66,-245.71 2959.18,-245.48"/>
<polygon fill="black" stroke="black" points="2959.42,-248.98 2969.41,-245.46 2959.41,-241.98 2959.42,-248.98"/>
<text text-anchor="middle" x="2500.21" y="-263.3" font-family="Times-Roman" font-size="14.00">schema:name</text>
</g>
<!-- L(425) 123&#45;4567 -->
<g id="node20" class="node">
<title>L(425) 123&#45;4567</title>
<polygon fill="none" stroke="black" points="2945.07,-172.5 2945.07,-208.5 3072.07,-208.5 3072.07,-172.5 2945.07,-172.5"/>
<text text-anchor="middle" x="3008.57" y="-186.8" font-family="Times-Roman" font-size="14.00">(425) 123&#45;4567</text>
</g>
<!-- B_:b1&#45;&gt;L(425) 123&#45;4567 -->
<g id="edge19" class="edge">
<title>B_:b1&#45;&gt;L(425) 123&#45;4567</title>
<path fill="none" stroke="black" stroke-dasharray="1,5" d="M2311.34,-272.01C2335.92,-269.37 2382.2,-262.58 2418.21,-246.5 2427.22,-242.48 2426.99,-237.01 2436.21,-233.5 2605.68,-168.95 2823.54,-174.53 2934.92,-183.09"/>
<polygon fill="black" stroke="black" points="2934.79,-186.59 2945.04,-183.9 2935.35,-179.61 2934.79,-186.59"/>
<text text-anchor="middle" x="2500.21" y="-237.3" font-family="Times-Roman" font-size="14.00">schema:telephone</text>
</g>
<!-- Lhttp://www.janedoe.com -->
<g id="node21" class="node">
<title>Lhttp://www.janedoe.com</title>
<polygon fill="none" stroke="black" points="2916.07,-117.5 2916.07,-153.5 3101.07,-153.5 3101.07,-117.5 2916.07,-117.5"/>
<text text-anchor="middle" x="3008.57" y="-131.8" font-family="Times-Roman" font-size="14.00">http://www.janedoe.com</text>
</g>
<!-- B_:b1&#45;&gt;Lhttp://www.janedoe.com -->
<g id="edge20" class="edge">
<title>B_:b1&#45;&gt;Lhttp://www.janedoe.com</title>
<path fill="none" stroke="black" stroke-dasharray="1,5" d="M2311.57,-274.94C2338.17,-276.13 2388.97,-274.26 2418.21,-246.5 2440.26,-225.57 2413.22,-200.4 2436.21,-180.5 2573.76,-61.4 2806.33,-89.49 2927.99,-115.26"/>
<polygon fill="black" stroke="black" points="2927.47,-118.72 2937.98,-117.42 2928.95,-111.88 2927.47,-118.72"/>
<text text-anchor="middle" x="2500.21" y="-184.3" font-family="Times-Roman" font-size="14.00">schema:url</text>
</g>
</g>
</svg>
