<?xml version="1.0" encoding="UTF-8" standalone="no"?>
<!DOCTYPE svg PUBLIC "-//W3C//DTD SVG 1.1//EN"
 "http://www.w3.org/Graphics/SVG/1.1/DTD/svg11.dtd">
<!-- Generated by graphviz version 2.43.0 (0)
 -->
<!-- Title: %3 Pages: 1 -->
<svg width="733pt" height="334pt"
 viewBox="0.00 0.00 732.56 334.00" xmlns="http://www.w3.org/2000/svg" xmlns:xlink="http://www.w3.org/1999/xlink">
<g id="graph0" class="graph" transform="scale(1 1) rotate(0) translate(4 330)">
<title>%3</title>
<polygon fill="white" stroke="transparent" points="-4,4 -4,-330 728.56,-330 728.56,4 -4,4"/>
<text text-anchor="middle" x="362.28" y="-22.8" font-family="Times,serif" font-size="14.00">Model:</text>
<text text-anchor="middle" x="362.28" y="-7.8" font-family="Times,serif" font-size="14.00">https://iode.org/</text>
<!-- B_:b0 -->
<g id="node1" class="node">
<title>B_:b0</title>
<ellipse fill="none" stroke="green" cx="18" cy="-225" rx="18" ry="18"/>
</g>
<!-- Rschema:Course -->
<g id="node2" class="node">
<title>Rschema:Course</title>
<ellipse fill="none" stroke="blue" cx="245.99" cy="-308" rx="64.99" ry="18"/>
<text text-anchor="middle" x="245.99" y="-304.3" font-family="Times,serif" font-size="14.00">schema:Course</text>
</g>
<!-- B_:b0&#45;&gt;Rschema:Course -->
<g id="edge1" class="edge">
<title>B_:b0&#45;&gt;Rschema:Course</title>
<path fill="none" stroke="black" stroke-dasharray="1,5" d="M29.07,-239.66C35.34,-247.71 44.09,-257.21 54,-263 90.16,-284.13 135.64,-295.35 173.14,-301.3"/>
<polygon fill="black" stroke="black" points="173.09,-304.83 183.5,-302.84 174.12,-297.9 173.09,-304.83"/>
<text text-anchor="middle" x="108.5" y="-301.8" font-family="Times,serif" font-size="14.00">rdfs:type</text>
</g>
<!-- LF300 -->
<g id="node3" class="node">
<title>LF300</title>
<polygon fill="none" stroke="black" points="218.99,-235 218.99,-271 272.99,-271 272.99,-235 218.99,-235"/>
<text text-anchor="middle" x="245.99" y="-249.3" font-family="Times,serif" font-size="14.00">F300</text>
</g>
<!-- B_:b0&#45;&gt;LF300 -->
<g id="edge2" class="edge">
<title>B_:b0&#45;&gt;LF300</title>
<path fill="none" stroke="black" stroke-dasharray="1,5" d="M36.06,-228.12C41.75,-229.11 48.14,-230.16 54,-231 107.76,-238.7 170.33,-245.5 208.8,-249.43"/>
<polygon fill="black" stroke="black" points="208.68,-252.94 218.99,-250.46 209.39,-245.97 208.68,-252.94"/>
<text text-anchor="middle" x="108.5" y="-247.8" font-family="Times,serif" font-size="14.00">schema:courseCode</text>
</g>
<!-- LPhysics -->
<g id="node4" class="node">
<title>LPhysics</title>
<polygon fill="none" stroke="black" points="216.99,-180 216.99,-216 274.99,-216 274.99,-180 216.99,-180"/>
<text text-anchor="middle" x="245.99" y="-194.3" font-family="Times,serif" font-size="14.00">Physics</text>
</g>
<!-- B_:b0&#45;&gt;LPhysics -->
<g id="edge3" class="edge">
<title>B_:b0&#45;&gt;LPhysics</title>
<path fill="none" stroke="black" stroke-dasharray="1,5" d="M35.62,-220.16C41.39,-218.62 47.94,-217.06 54,-216 106.48,-206.84 167.95,-202.1 206.68,-199.83"/>
<polygon fill="black" stroke="black" points="207.19,-203.31 216.98,-199.26 206.8,-196.32 207.19,-203.31"/>
<text text-anchor="middle" x="108.5" y="-219.8" font-family="Times,serif" font-size="14.00">schema:name</text>
</g>
<!-- B_:b1 -->
<g id="node5" class="node">
<title>B_:b1</title>
<ellipse fill="none" stroke="green" cx="245.99" cy="-143" rx="18" ry="18"/>
</g>
<!-- B_:b0&#45;&gt;B_:b1 -->
<g id="edge4" class="edge">
<title>B_:b0&#45;&gt;B_:b1</title>
<path fill="none" stroke="black" stroke-dasharray="1,5" d="M28.12,-209.53C34.29,-200.42 43.26,-189.46 54,-183 106.02,-151.73 178.77,-144.64 217.76,-143.2"/>
<polygon fill="black" stroke="black" points="217.91,-146.69 227.82,-142.92 217.72,-139.7 217.91,-146.69"/>
<text text-anchor="middle" x="108.5" y="-186.8" font-family="Times,serif" font-size="14.00">schema:provider</text>
</g>
<!-- Rschema:CollegeOrUniversity -->
<g id="node6" class="node">
<title>Rschema:CollegeOrUniversity</title>
<ellipse fill="none" stroke="blue" cx="573.78" cy="-198" rx="113.98" ry="18"/>
<text text-anchor="middle" x="573.78" y="-194.3" font-family="Times,serif" font-size="14.00">schema:CollegeOrUniversity</text>
</g>
<!-- B_:b1&#45;&gt;Rschema:CollegeOrUniversity -->
<g id="edge5" class="edge">
<title>B_:b1&#45;&gt;Rschema:CollegeOrUniversity</title>
<path fill="none" stroke="black" stroke-dasharray="1,5" d="M263.56,-147.25C280.06,-151.39 306.16,-157.68 328.99,-162 376.76,-171.05 430.17,-179.16 474.79,-185.38"/>
<polygon fill="black" stroke="black" points="474.37,-188.85 484.76,-186.76 475.33,-181.92 474.37,-188.85"/>
<text text-anchor="middle" x="366.99" y="-177.8" font-family="Times,serif" font-size="14.00">rdfs:type</text>
</g>
<!-- LUniversity of Bristol -->
<g id="node7" class="node">
<title>LUniversity of Bristol</title>
<polygon fill="none" stroke="black" points="509.28,-125 509.28,-161 638.28,-161 638.28,-125 509.28,-125"/>
<text text-anchor="middle" x="573.78" y="-139.3" font-family="Times,serif" font-size="14.00">University of Bristol</text>
</g>
<!-- B_:b1&#45;&gt;LUniversity of Bristol -->
<g id="edge6" class="edge">
<title>B_:b1&#45;&gt;LUniversity of Bristol</title>
<path fill="none" stroke="black" stroke-dasharray="1,5" d="M264.05,-143C307.09,-143 422.13,-143 498.98,-143"/>
<polygon fill="black" stroke="black" points="499.08,-146.5 509.08,-143 499.08,-139.5 499.08,-146.5"/>
<text text-anchor="middle" x="366.99" y="-146.8" font-family="Times,serif" font-size="14.00">schema:name</text>
</g>
<!-- Rfile:///provider/324/university&#45;of&#45;bristol -->
<g id="node8" class="node">
<title>Rfile:///provider/324/university&#45;of&#45;bristol</title>
<ellipse fill="none" stroke="blue" cx="573.78" cy="-88" rx="150.57" ry="18"/>
<text text-anchor="middle" x="573.78" y="-84.3" font-family="Times,serif" font-size="14.00">file:///provider/324/university&#45;of&#45;bristol</text>
</g>
<!-- B_:b1&#45;&gt;Rfile:///provider/324/university&#45;of&#45;bristol -->
<g id="edge7" class="edge">
<title>B_:b1&#45;&gt;Rfile:///provider/324/university&#45;of&#45;bristol</title>
<path fill="none" stroke="black" stroke-dasharray="1,5" d="M263.56,-138.75C280.06,-134.61 306.16,-128.32 328.99,-124 371.8,-115.89 419.14,-108.54 460.62,-102.62"/>
<polygon fill="black" stroke="black" points="461.35,-106.05 470.76,-101.19 460.36,-99.12 461.35,-106.05"/>
<text text-anchor="middle" x="366.99" y="-127.8" font-family="Times,serif" font-size="14.00">schema:url</text>
</g>
</g>
</svg>
