<?xml version="1.0" encoding="UTF-8" standalone="no"?>
<!DOCTYPE svg PUBLIC "-//W3C//DTD SVG 1.1//EN"
 "http://www.w3.org/Graphics/SVG/1.1/DTD/svg11.dtd">
<!-- Generated by graphviz version 2.44.0 (0)
 -->
<!-- Pages: 1 -->
<svg width="1902pt" height="355pt"
 viewBox="0.00 0.00 1901.56 355.00" xmlns="http://www.w3.org/2000/svg" xmlns:xlink="http://www.w3.org/1999/xlink">
<g id="graph0" class="graph" transform="scale(1 1) rotate(0) translate(4 351)">
<polygon fill="white" stroke="transparent" points="-4,4 -4,-351 1897.56,-351 1897.56,4 -4,4"/>
<text text-anchor="middle" x="946.78" y="-22.8" font-family="Times-Roman" font-size="14.00">Model:</text>
<text text-anchor="middle" x="946.78" y="-7.8" font-family="Times-Roman" font-size="14.00">https://iode.org/</text>
<!-- Rhttps://foo.org/url/to/metadata/representation -->
<g id="node1" class="node">
<title>Rhttps://foo.org/url/to/metadata/representation</title>
<ellipse fill="none" stroke="blue" cx="215.78" cy="-253.5" rx="215.56" ry="18"/>
<text text-anchor="middle" x="215.78" y="-249.8" font-family="Times-Roman" font-size="14.00">https://foo.org/url/to/metadata/representation</text>
</g>
<!-- Rschema:Course -->
<g id="node2" class="node">
<title>Rschema:Course</title>
<ellipse fill="none" stroke="blue" cx="1019.56" cy="-308.5" rx="80.69" ry="18"/>
<text text-anchor="middle" x="1019.56" y="-304.8" font-family="Times-Roman" font-size="14.00">schema:Course</text>
</g>
<!-- Rhttps://foo.org/url/to/metadata/representation&#45;&gt;Rschema:Course -->
<g id="edge1" class="edge">
<title>Rhttps://foo.org/url/to/metadata/representation&#45;&gt;Rschema:Course</title>
<path fill="none" stroke="black" stroke-dasharray="1,5" d="M368.26,-266.27C395.33,-268.43 423.27,-270.6 449.56,-272.5 619.97,-284.84 819.26,-296.91 931.02,-303.46"/>
<polygon fill="black" stroke="black" points="931.04,-306.97 941.22,-304.06 931.44,-299.98 931.04,-306.97"/>
<text text-anchor="middle" x="545.56" y="-288.3" font-family="Times-Roman" font-size="14.00">rdfs:type</text>
</g>
<!-- LIn this course you will get an introduction to the main tools and ideas in the data scientist&#39;s toolbox... -->
<g id="node3" class="node">
<title>LIn this course you will get an introduction to the main tools and ideas in the data scientist&#39;s toolbox...</title>
<polygon fill="none" stroke="black" points="659.56,-235.5 659.56,-271.5 1379.56,-271.5 1379.56,-235.5 659.56,-235.5"/>
<text text-anchor="middle" x="1019.56" y="-249.8" font-family="Times-Roman" font-size="14.00">In this course you will get an introduction to the main tools and ideas in the data scientist&#39;s toolbox...</text>
</g>
<!-- Rhttps://foo.org/url/to/metadata/representation&#45;&gt;LIn this course you will get an introduction to the main tools and ideas in the data scientist&#39;s toolbox... -->
<g id="edge2" class="edge">
<title>Rhttps://foo.org/url/to/metadata/representation&#45;&gt;LIn this course you will get an introduction to the main tools and ideas in the data scientist&#39;s toolbox...</title>
<path fill="none" stroke="black" stroke-dasharray="1,5" d="M431.64,-253.5C498.79,-253.5 574.88,-253.5 649.49,-253.5"/>
<polygon fill="black" stroke="black" points="649.53,-257 659.53,-253.5 649.53,-250 649.53,-257"/>
<text text-anchor="middle" x="545.56" y="-257.3" font-family="Times-Roman" font-size="14.00">schema:description</text>
</g>
<!-- B_:b0 -->
<g id="node4" class="node">
<title>B_:b0</title>
<ellipse fill="none" stroke="green" cx="1019.56" cy="-198.5" rx="18" ry="18"/>
</g>
<!-- Rhttps://foo.org/url/to/metadata/representation&#45;&gt;B_:b0 -->
<g id="edge3" class="edge">
<title>Rhttps://foo.org/url/to/metadata/representation&#45;&gt;B_:b0</title>
<path fill="none" stroke="black" stroke-dasharray="1,5" d="M368.26,-240.73C395.33,-238.57 423.27,-236.4 449.56,-234.5 657.89,-219.41 909.4,-204.74 991.34,-200.05"/>
<polygon fill="black" stroke="black" points="991.54,-203.54 1001.33,-199.48 991.15,-196.55 991.54,-203.54"/>
<text text-anchor="middle" x="545.56" y="-238.3" font-family="Times-Roman" font-size="14.00">schema:hasCourseInstance</text>
</g>
<!-- L2019&#45;02&#45;15|Datatype: XMLSchema#dateTime -->
<g id="node5" class="node">
<title>L2019&#45;02&#45;15|Datatype: XMLSchema#dateTime</title>
<polygon fill="none" stroke="black" points="1643.56,-300.5 1643.56,-346.5 1893.56,-346.5 1893.56,-300.5 1643.56,-300.5"/>
<text text-anchor="middle" x="1768.56" y="-331.3" font-family="Times-Roman" font-size="14.00">2019&#45;02&#45;15</text>
<polyline fill="none" stroke="black" points="1643.56,-323.5 1893.56,-323.5 "/>
<text text-anchor="middle" x="1768.56" y="-308.3" font-family="Times-Roman" font-size="14.00">Datatype: XMLSchema#dateTime</text>
</g>
<!-- B_:b0&#45;&gt;L2019&#45;02&#45;15|Datatype: XMLSchema#dateTime -->
<g id="edge4" class="edge">
<title>B_:b0&#45;&gt;L2019&#45;02&#45;15|Datatype: XMLSchema#dateTime</title>
<path fill="none" stroke="black" stroke-dasharray="1,5" d="M1037.48,-194.39C1092.54,-182.03 1269.38,-150.61 1379.56,-226.5 1394.95,-237.1 1382.61,-253.29 1397.56,-264.5 1464.43,-314.63 1557.38,-329.3 1633.38,-331.48"/>
<polygon fill="black" stroke="black" points="1633.44,-334.98 1643.51,-331.7 1633.59,-327.98 1633.44,-334.98"/>
<text text-anchor="middle" x="1511.56" y="-334.3" font-family="Times-Roman" font-size="14.00">http://purl.org/dc/terms/modified</text>
</g>
<!-- L2019&#45;03&#45;21|Datatype: XMLSchema#dateTime -->
<g id="node6" class="node">
<title>L2019&#45;03&#45;21|Datatype: XMLSchema#dateTime</title>
<polygon fill="none" stroke="black" points="1643.56,-235.5 1643.56,-281.5 1893.56,-281.5 1893.56,-235.5 1643.56,-235.5"/>
<text text-anchor="middle" x="1768.56" y="-266.3" font-family="Times-Roman" font-size="14.00">2019&#45;03&#45;21</text>
<polyline fill="none" stroke="black" points="1643.56,-258.5 1893.56,-258.5 "/>
<text text-anchor="middle" x="1768.56" y="-243.3" font-family="Times-Roman" font-size="14.00">Datatype: XMLSchema#dateTime</text>
</g>
<!-- B_:b0&#45;&gt;L2019&#45;03&#45;21|Datatype: XMLSchema#dateTime -->
<g id="edge5" class="edge">
<title>B_:b0&#45;&gt;L2019&#45;03&#45;21|Datatype: XMLSchema#dateTime</title>
<path fill="none" stroke="black" stroke-dasharray="1,5" d="M1037.75,-199.81C1089.45,-203.77 1248.08,-215.95 1379.56,-226.5 1463.86,-233.26 1558.43,-241.06 1633.11,-247.26"/>
<polygon fill="black" stroke="black" points="1633.25,-250.79 1643.51,-248.13 1633.83,-243.81 1633.25,-250.79"/>
<text text-anchor="middle" x="1511.56" y="-249.3" font-family="Times-Roman" font-size="14.00">http://purl.org/dc/terms/modified</text>
</g>
<!-- Rschema:CourseInstance -->
<g id="node7" class="node">
<title>Rschema:CourseInstance</title>
<ellipse fill="none" stroke="blue" cx="1768.56" cy="-198.5" rx="118.88" ry="18"/>
<text text-anchor="middle" x="1768.56" y="-194.8" font-family="Times-Roman" font-size="14.00">schema:CourseInstance</text>
</g>
<!-- B_:b0&#45;&gt;Rschema:CourseInstance -->
<g id="edge6" class="edge">
<title>B_:b0&#45;&gt;Rschema:CourseInstance</title>
<path fill="none" stroke="black" stroke-dasharray="1,5" d="M1037.57,-198.5C1116.58,-198.5 1451.87,-198.5 1639.35,-198.5"/>
<polygon fill="black" stroke="black" points="1639.55,-202 1649.55,-198.5 1639.55,-195 1639.55,-202"/>
<text text-anchor="middle" x="1511.56" y="-202.3" font-family="Times-Roman" font-size="14.00">rdfs:type</text>
</g>
<!-- LMOOC -->
<g id="node8" class="node">
<title>LMOOC</title>
<polygon fill="none" stroke="black" points="1738.06,-125.5 1738.06,-161.5 1799.06,-161.5 1799.06,-125.5 1738.06,-125.5"/>
<text text-anchor="middle" x="1768.56" y="-139.8" font-family="Times-Roman" font-size="14.00">MOOC</text>
</g>
<!-- B_:b0&#45;&gt;LMOOC -->
<g id="edge7" class="edge">
<title>B_:b0&#45;&gt;LMOOC</title>
<path fill="none" stroke="black" stroke-dasharray="1,5" d="M1037.57,-197.25C1131.65,-190.32 1589.14,-156.64 1727.71,-146.43"/>
<polygon fill="black" stroke="black" points="1728.16,-149.91 1737.88,-145.69 1727.65,-142.93 1728.16,-149.91"/>
<text text-anchor="middle" x="1511.56" y="-172.3" font-family="Times-Roman" font-size="14.00">schema:courseMode</text>
</g>
<!-- Lonline -->
<g id="node9" class="node">
<title>Lonline</title>
<polygon fill="none" stroke="black" points="1739.06,-70.5 1739.06,-106.5 1798.06,-106.5 1798.06,-70.5 1739.06,-70.5"/>
<text text-anchor="middle" x="1768.56" y="-84.8" font-family="Times-Roman" font-size="14.00">online</text>
</g>
<!-- B_:b0&#45;&gt;Lonline -->
<g id="edge8" class="edge">
<title>B_:b0&#45;&gt;Lonline</title>
<path fill="none" stroke="black" stroke-dasharray="1,5" d="M1037.43,-195.36C1090.36,-185.57 1257.99,-155.01 1397.56,-134.5 1517.93,-116.81 1660.98,-100.3 1728.54,-92.77"/>
<polygon fill="black" stroke="black" points="1729.16,-96.23 1738.72,-91.64 1728.39,-89.27 1729.16,-96.23"/>
<text text-anchor="middle" x="1511.56" y="-138.3" font-family="Times-Roman" font-size="14.00">schema:courseMode</text>
</g>
</g>
</svg>
