<?xml version="1.0" encoding="UTF-8" standalone="no"?>
<!DOCTYPE svg PUBLIC "-//W3C//DTD SVG 1.1//EN"
 "http://www.w3.org/Graphics/SVG/1.1/DTD/svg11.dtd">
<!-- Generated by graphviz version 2.44.0 (0)
 -->
<!-- Pages: 1 -->
<svg width="887pt" height="334pt"
 viewBox="0.00 0.00 886.65 334.00" xmlns="http://www.w3.org/2000/svg" xmlns:xlink="http://www.w3.org/1999/xlink">
<g id="graph0" class="graph" transform="scale(1 1) rotate(0) translate(4 330)">
<polygon fill="white" stroke="transparent" points="-4,4 -4,-330 882.65,-330 882.65,4 -4,4"/>
<text text-anchor="middle" x="439.33" y="-22.8" font-family="Times-Roman" font-size="14.00">Model:</text>
<text text-anchor="middle" x="439.33" y="-7.8" font-family="Times-Roman" font-size="14.00">https://iode.org/</text>
<!-- B_:b0 -->
<g id="node1" class="node">
<title>B_:b0</title>
<ellipse fill="none" stroke="green" cx="18" cy="-225" rx="18" ry="18"/>
</g>
<!-- Rschema:Course -->
<g id="node2" class="node">
<title>Rschema:Course</title>
<ellipse fill="none" stroke="blue" cx="293.59" cy="-308" rx="80.69" ry="18"/>
<text text-anchor="middle" x="293.59" y="-304.3" font-family="Times-Roman" font-size="14.00">schema:Course</text>
</g>
<!-- B_:b0&#45;&gt;Rschema:Course -->
<g id="edge1" class="edge">
<title>B_:b0&#45;&gt;Rschema:Course</title>
<path fill="none" stroke="black" stroke-dasharray="1,5" d="M28.59,-239.84C34.82,-248.25 43.68,-258.22 54,-264 99.27,-289.37 156.23,-300.52 203.14,-305.25"/>
<polygon fill="black" stroke="black" points="203.02,-308.75 213.3,-306.19 203.67,-301.78 203.02,-308.75"/>
<text text-anchor="middle" x="124.5" y="-306.8" font-family="Times-Roman" font-size="14.00">rdfs:type</text>
</g>
<!-- LF300 -->
<g id="node3" class="node">
<title>LF300</title>
<polygon fill="none" stroke="black" points="266.59,-235 266.59,-271 320.59,-271 320.59,-235 266.59,-235"/>
<text text-anchor="middle" x="293.59" y="-249.3" font-family="Times-Roman" font-size="14.00">F300</text>
</g>
<!-- B_:b0&#45;&gt;LF300 -->
<g id="edge2" class="edge">
<title>B_:b0&#45;&gt;LF300</title>
<path fill="none" stroke="black" stroke-dasharray="1,5" d="M36.05,-228.2C41.74,-229.19 48.13,-230.23 54,-231 125.36,-240.39 209.25,-247.14 256.13,-250.52"/>
<polygon fill="black" stroke="black" points="256.17,-254.04 266.39,-251.25 256.67,-247.05 256.17,-254.04"/>
<text text-anchor="middle" x="124.5" y="-248.8" font-family="Times-Roman" font-size="14.00">schema:courseCode</text>
</g>
<!-- LPhysics -->
<g id="node4" class="node">
<title>LPhysics</title>
<polygon fill="none" stroke="black" points="259.59,-180 259.59,-216 327.59,-216 327.59,-180 259.59,-180"/>
<text text-anchor="middle" x="293.59" y="-194.3" font-family="Times-Roman" font-size="14.00">Physics</text>
</g>
<!-- B_:b0&#45;&gt;LPhysics -->
<g id="edge3" class="edge">
<title>B_:b0&#45;&gt;LPhysics</title>
<path fill="none" stroke="black" stroke-dasharray="1,5" d="M35.61,-220.09C41.38,-218.55 47.93,-217 54,-216 121.78,-204.82 201.55,-200.57 249.54,-198.97"/>
<polygon fill="black" stroke="black" points="249.68,-202.46 259.57,-198.65 249.47,-195.47 249.68,-202.46"/>
<text text-anchor="middle" x="124.5" y="-219.8" font-family="Times-Roman" font-size="14.00">schema:name</text>
</g>
<!-- B_:b1 -->
<g id="node5" class="node">
<title>B_:b1</title>
<ellipse fill="none" stroke="green" cx="293.59" cy="-143" rx="18" ry="18"/>
</g>
<!-- B_:b0&#45;&gt;B_:b1 -->
<g id="edge4" class="edge">
<title>B_:b0&#45;&gt;B_:b1</title>
<path fill="none" stroke="black" stroke-dasharray="1,5" d="M27.67,-209.41C33.77,-199.94 42.84,-188.46 54,-182 122.26,-142.48 218.88,-139.96 265.44,-141.42"/>
<polygon fill="black" stroke="black" points="265.5,-144.93 275.63,-141.83 265.78,-137.93 265.5,-144.93"/>
<text text-anchor="middle" x="124.5" y="-185.8" font-family="Times-Roman" font-size="14.00">schema:provider</text>
</g>
<!-- Rschema:CollegeOrUniversity -->
<g id="node6" class="node">
<title>Rschema:CollegeOrUniversity</title>
<ellipse fill="none" stroke="blue" cx="693.42" cy="-198" rx="139.18" ry="18"/>
<text text-anchor="middle" x="693.42" y="-194.3" font-family="Times-Roman" font-size="14.00">schema:CollegeOrUniversity</text>
</g>
<!-- B_:b1&#45;&gt;Rschema:CollegeOrUniversity -->
<g id="edge5" class="edge">
<title>B_:b1&#45;&gt;Rschema:CollegeOrUniversity</title>
<path fill="none" stroke="black" stroke-dasharray="1,5" d="M311.45,-146.67C330.85,-150.8 363.71,-157.53 392.19,-162 451.75,-171.36 518.3,-179.56 573.58,-185.77"/>
<polygon fill="black" stroke="black" points="573.44,-189.28 583.76,-186.9 574.21,-182.32 573.44,-189.28"/>
<text text-anchor="middle" x="441.19" y="-177.8" font-family="Times-Roman" font-size="14.00">rdfs:type</text>
</g>
<!-- LUniversity of Bristol -->
<g id="node7" class="node">
<title>LUniversity of Bristol</title>
<polygon fill="none" stroke="black" points="616.42,-125 616.42,-161 770.42,-161 770.42,-125 616.42,-125"/>
<text text-anchor="middle" x="693.42" y="-139.3" font-family="Times-Roman" font-size="14.00">University of Bristol</text>
</g>
<!-- B_:b1&#45;&gt;LUniversity of Bristol -->
<g id="edge6" class="edge">
<title>B_:b1&#45;&gt;LUniversity of Bristol</title>
<path fill="none" stroke="black" stroke-dasharray="1,5" d="M311.69,-143C361.62,-143 509.8,-143 605.9,-143"/>
<polygon fill="black" stroke="black" points="606.19,-146.5 616.19,-143 606.19,-139.5 606.19,-146.5"/>
<text text-anchor="middle" x="441.19" y="-146.8" font-family="Times-Roman" font-size="14.00">schema:name</text>
</g>
<!-- Rfile:///provider/324/university&#45;of&#45;bristol -->
<g id="node8" class="node">
<title>Rfile:///provider/324/university&#45;of&#45;bristol</title>
<ellipse fill="none" stroke="blue" cx="693.42" cy="-88" rx="185.47" ry="18"/>
<text text-anchor="middle" x="693.42" y="-84.3" font-family="Times-Roman" font-size="14.00">file:///provider/324/university&#45;of&#45;bristol</text>
</g>
<!-- B_:b1&#45;&gt;Rfile:///provider/324/university&#45;of&#45;bristol -->
<g id="edge7" class="edge">
<title>B_:b1&#45;&gt;Rfile:///provider/324/university&#45;of&#45;bristol</title>
<path fill="none" stroke="black" stroke-dasharray="1,5" d="M311.45,-139.33C330.85,-135.2 363.71,-128.47 392.19,-124 445.42,-115.64 504.24,-108.19 555.61,-102.27"/>
<polygon fill="black" stroke="black" points="556.24,-105.72 565.78,-101.11 555.44,-98.77 556.24,-105.72"/>
<text text-anchor="middle" x="441.19" y="-127.8" font-family="Times-Roman" font-size="14.00">schema:url</text>
</g>
</g>
</svg>
