<?xml version="1.0" encoding="UTF-8" standalone="no"?>
<!DOCTYPE svg PUBLIC "-//W3C//DTD SVG 1.1//EN"
 "http://www.w3.org/Graphics/SVG/1.1/DTD/svg11.dtd">
<!-- Generated by graphviz version 2.44.0 (0)
 -->
<!-- Pages: 1 -->
<svg width="2426pt" height="553pt"
 viewBox="0.00 0.00 2426.21 553.00" xmlns="http://www.w3.org/2000/svg" xmlns:xlink="http://www.w3.org/1999/xlink">
<g id="graph0" class="graph" transform="scale(1 1) rotate(0) translate(4 549)">
<polygon fill="white" stroke="transparent" points="-4,4 -4,-549 2422.21,-549 2422.21,4 -4,4"/>
<text text-anchor="middle" x="1209.1" y="-22.8" font-family="Times-Roman" font-size="14.00">Model:</text>
<text text-anchor="middle" x="1209.1" y="-7.8" font-family="Times-Roman" font-size="14.00">https://iode.org/</text>
<!-- Rhttps://raw.githubusercontent.com/iodepo/odis&#45;arch/schema&#45;dev/schema/thematics/training/graphs/course1.json -->
<g id="node1" class="node">
<title>Rhttps://raw.githubusercontent.com/iodepo/odis&#45;arch/schema&#45;dev/schema/thematics/training/graphs/course1.json</title>
<ellipse fill="none" stroke="blue" cx="520.6" cy="-418.5" rx="520.71" ry="18"/>
<text text-anchor="middle" x="520.6" y="-414.8" font-family="Times-Roman" font-size="14.00">https://raw.githubusercontent.com/iodepo/odis&#45;arch/schema&#45;dev/schema/thematics/training/graphs/course1.json</text>
</g>
<!-- Rschema:Course -->
<g id="node2" class="node">
<title>Rschema:Course</title>
<ellipse fill="none" stroke="blue" cx="1629.21" cy="-493.5" rx="80.69" ry="18"/>
<text text-anchor="middle" x="1629.21" y="-489.8" font-family="Times-Roman" font-size="14.00">schema:Course</text>
</g>
<!-- Rhttps://raw.githubusercontent.com/iodepo/odis&#45;arch/schema&#45;dev/schema/thematics/training/graphs/course1.json&#45;&gt;Rschema:Course -->
<g id="edge1" class="edge">
<title>Rhttps://raw.githubusercontent.com/iodepo/odis&#45;arch/schema&#45;dev/schema/thematics/training/graphs/course1.json&#45;&gt;Rschema:Course</title>
<path fill="none" stroke="black" stroke-dasharray="1,5" d="M757.98,-434.52C1003.6,-451.17 1374.93,-476.33 1541.73,-487.64"/>
<polygon fill="black" stroke="black" points="1541.72,-491.15 1551.93,-488.33 1542.19,-484.16 1541.72,-491.15"/>
<text text-anchor="middle" x="1155.21" y="-470.3" font-family="Times-Roman" font-size="14.00">rdfs:type</text>
</g>
<!-- LIn this course you will get an introduction to the main tools and ideas in the data scientist&#39;s toolbox... -->
<g id="node3" class="node">
<title>LIn this course you will get an introduction to the main tools and ideas in the data scientist&#39;s toolbox...</title>
<polygon fill="none" stroke="black" points="1269.21,-420.5 1269.21,-456.5 1989.21,-456.5 1989.21,-420.5 1269.21,-420.5"/>
<text text-anchor="middle" x="1629.21" y="-434.8" font-family="Times-Roman" font-size="14.00">In this course you will get an introduction to the main tools and ideas in the data scientist&#39;s toolbox...</text>
</g>
<!-- Rhttps://raw.githubusercontent.com/iodepo/odis&#45;arch/schema&#45;dev/schema/thematics/training/graphs/course1.json&#45;&gt;LIn this course you will get an introduction to the main tools and ideas in the data scientist&#39;s toolbox... -->
<g id="edge2" class="edge">
<title>Rhttps://raw.githubusercontent.com/iodepo/odis&#45;arch/schema&#45;dev/schema/thematics/training/graphs/course1.json&#45;&gt;LIn this course you will get an introduction to the main tools and ideas in the data scientist&#39;s toolbox...</title>
<path fill="none" stroke="black" stroke-dasharray="1,5" d="M982.49,-426.83C1074.6,-428.49 1170.23,-430.22 1258.77,-431.82"/>
<polygon fill="black" stroke="black" points="1258.91,-435.33 1268.97,-432.01 1259.04,-428.33 1258.91,-435.33"/>
<text text-anchor="middle" x="1155.21" y="-434.3" font-family="Times-Roman" font-size="14.00">schema:description</text>
</g>
<!-- B_:b0 -->
<g id="node4" class="node">
<title>B_:b0</title>
<ellipse fill="none" stroke="green" cx="1629.21" cy="-231.5" rx="18" ry="18"/>
</g>
<!-- Rhttps://raw.githubusercontent.com/iodepo/odis&#45;arch/schema&#45;dev/schema/thematics/training/graphs/course1.json&#45;&gt;B_:b0 -->
<g id="edge3" class="edge">
<title>Rhttps://raw.githubusercontent.com/iodepo/odis&#45;arch/schema&#45;dev/schema/thematics/training/graphs/course1.json&#45;&gt;B_:b0</title>
<path fill="none" stroke="black" stroke-dasharray="1,5" d="M626.21,-400.82C870.15,-359.6 1466.23,-258.87 1600.88,-236.12"/>
<polygon fill="black" stroke="black" points="1601.84,-239.5 1611.12,-234.39 1600.68,-232.6 1601.84,-239.5"/>
<text text-anchor="middle" x="1155.21" y="-328.3" font-family="Times-Roman" font-size="14.00">schema:hasCourseInstance</text>
</g>
<!-- B_:b1 -->
<g id="node5" class="node">
<title>B_:b1</title>
<ellipse fill="none" stroke="green" cx="1629.21" cy="-383.5" rx="18" ry="18"/>
</g>
<!-- Rhttps://raw.githubusercontent.com/iodepo/odis&#45;arch/schema&#45;dev/schema/thematics/training/graphs/course1.json&#45;&gt;B_:b1 -->
<g id="edge4" class="edge">
<title>Rhttps://raw.githubusercontent.com/iodepo/odis&#45;arch/schema&#45;dev/schema/thematics/training/graphs/course1.json&#45;&gt;B_:b1</title>
<path fill="none" stroke="black" stroke-dasharray="1,5" d="M905.53,-406.36C1175.45,-397.82 1504.87,-387.4 1600.8,-384.37"/>
<polygon fill="black" stroke="black" points="1601.19,-387.86 1611.07,-384.04 1600.97,-380.86 1601.19,-387.86"/>
<text text-anchor="middle" x="1155.21" y="-404.3" font-family="Times-Roman" font-size="14.00">schema:hasCourseInstance</text>
</g>
<!-- Rschema:CourseInstance -->
<g id="node6" class="node">
<title>Rschema:CourseInstance</title>
<ellipse fill="none" stroke="blue" cx="2293.21" cy="-339.5" rx="118.88" ry="18"/>
<text text-anchor="middle" x="2293.21" y="-335.8" font-family="Times-Roman" font-size="14.00">schema:CourseInstance</text>
</g>
<!-- B_:b0&#45;&gt;Rschema:CourseInstance -->
<g id="edge5" class="edge">
<title>B_:b0&#45;&gt;Rschema:CourseInstance</title>
<path fill="none" stroke="black" stroke-dasharray="1,5" d="M1647.39,-233.1C1736.15,-241.38 2138.9,-279.25 2150.21,-285.5 2161.57,-291.78 2157.32,-301.43 2168.21,-308.5 2177.64,-314.62 2188.19,-319.53 2199.05,-323.48"/>
<polygon fill="black" stroke="black" points="2198.06,-326.84 2208.66,-326.7 2200.29,-320.2 2198.06,-326.84"/>
<text text-anchor="middle" x="2078.71" y="-289.3" font-family="Times-Roman" font-size="14.00">rdfs:type</text>
</g>
<!-- LMOOC1 -->
<g id="node7" class="node">
<title>LMOOC1</title>
<polygon fill="none" stroke="black" points="2258.21,-70.5 2258.21,-106.5 2328.21,-106.5 2328.21,-70.5 2258.21,-70.5"/>
<text text-anchor="middle" x="2293.21" y="-84.8" font-family="Times-Roman" font-size="14.00">MOOC1</text>
</g>
<!-- B_:b0&#45;&gt;LMOOC1 -->
<g id="edge6" class="edge">
<title>B_:b0&#45;&gt;LMOOC1</title>
<path fill="none" stroke="black" stroke-dasharray="1,5" d="M1647.1,-227.64C1700.1,-215.55 1867.89,-177.44 2007.21,-147.5 2092.31,-129.21 2191.94,-108.82 2248.01,-97.44"/>
<polygon fill="black" stroke="black" points="2248.85,-100.84 2257.95,-95.42 2247.46,-93.98 2248.85,-100.84"/>
<text text-anchor="middle" x="2078.71" y="-151.3" font-family="Times-Roman" font-size="14.00">schema:courseMode</text>
</g>
<!-- Lonline -->
<g id="node8" class="node">
<title>Lonline</title>
<polygon fill="none" stroke="black" points="2263.71,-262.5 2263.71,-298.5 2322.71,-298.5 2322.71,-262.5 2263.71,-262.5"/>
<text text-anchor="middle" x="2293.21" y="-276.8" font-family="Times-Roman" font-size="14.00">online</text>
</g>
<!-- B_:b0&#45;&gt;Lonline -->
<g id="edge7" class="edge">
<title>B_:b0&#45;&gt;Lonline</title>
<path fill="none" stroke="black" stroke-dasharray="1,5" d="M1647.34,-231.15C1712.88,-230.02 1953.77,-227.82 2150.21,-251.5 2185.58,-255.76 2225.27,-264.18 2253.68,-270.86"/>
<polygon fill="black" stroke="black" points="2253.06,-274.31 2263.6,-273.23 2254.69,-267.5 2253.06,-274.31"/>
<text text-anchor="middle" x="2078.71" y="-255.3" font-family="Times-Roman" font-size="14.00">schema:courseMode</text>
</g>
<!-- L2019&#45;03&#45;21|Datatype: XMLSchema#dateTime -->
<g id="node9" class="node">
<title>L2019&#45;03&#45;21|Datatype: XMLSchema#dateTime</title>
<polygon fill="none" stroke="black" points="2168.21,-190.5 2168.21,-236.5 2418.21,-236.5 2418.21,-190.5 2168.21,-190.5"/>
<text text-anchor="middle" x="2293.21" y="-221.3" font-family="Times-Roman" font-size="14.00">2019&#45;03&#45;21</text>
<polyline fill="none" stroke="black" points="2168.21,-213.5 2418.21,-213.5 "/>
<text text-anchor="middle" x="2293.21" y="-198.3" font-family="Times-Roman" font-size="14.00">Datatype: XMLSchema#dateTime</text>
</g>
<!-- B_:b0&#45;&gt;L2019&#45;03&#45;21|Datatype: XMLSchema#dateTime -->
<g id="edge8" class="edge">
<title>B_:b0&#45;&gt;L2019&#45;03&#45;21|Datatype: XMLSchema#dateTime</title>
<path fill="none" stroke="black" stroke-dasharray="1,5" d="M1647.48,-230.38C1700.93,-226.98 1868.33,-216.81 2007.21,-213.5 2056.39,-212.33 2110.36,-212.06 2157.98,-212.18"/>
<polygon fill="black" stroke="black" points="2158.03,-215.68 2168.04,-212.21 2158.05,-208.68 2158.03,-215.68"/>
<text text-anchor="middle" x="2078.71" y="-217.3" font-family="Times-Roman" font-size="14.00">schema:endDate</text>
</g>
<!-- L2019&#45;02&#45;15|Datatype: XMLSchema#dateTime -->
<g id="node10" class="node">
<title>L2019&#45;02&#45;15|Datatype: XMLSchema#dateTime</title>
<polygon fill="none" stroke="black" points="2168.21,-125.5 2168.21,-171.5 2418.21,-171.5 2418.21,-125.5 2168.21,-125.5"/>
<text text-anchor="middle" x="2293.21" y="-156.3" font-family="Times-Roman" font-size="14.00">2019&#45;02&#45;15</text>
<polyline fill="none" stroke="black" points="2168.21,-148.5 2418.21,-148.5 "/>
<text text-anchor="middle" x="2293.21" y="-133.3" font-family="Times-Roman" font-size="14.00">Datatype: XMLSchema#dateTime</text>
</g>
<!-- B_:b0&#45;&gt;L2019&#45;02&#45;15|Datatype: XMLSchema#dateTime -->
<g id="edge9" class="edge">
<title>B_:b0&#45;&gt;L2019&#45;02&#45;15|Datatype: XMLSchema#dateTime</title>
<path fill="none" stroke="black" stroke-dasharray="1,5" d="M1647.24,-229.36C1717.69,-220.53 1990.53,-186.32 2157.96,-165.33"/>
<polygon fill="black" stroke="black" points="2158.59,-168.78 2168.08,-164.06 2157.72,-161.83 2158.59,-168.78"/>
<text text-anchor="middle" x="2078.71" y="-187.3" font-family="Times-Roman" font-size="14.00">schema:startDate</text>
</g>
<!-- B_:b1&#45;&gt;Rschema:CourseInstance -->
<g id="edge10" class="edge">
<title>B_:b1&#45;&gt;Rschema:CourseInstance</title>
<path fill="none" stroke="black" stroke-dasharray="1,5" d="M1647.24,-382.37C1719.94,-377.54 2008.12,-358.38 2173.63,-347.38"/>
<polygon fill="black" stroke="black" points="2174.11,-350.86 2183.86,-346.7 2173.65,-343.87 2174.11,-350.86"/>
<text text-anchor="middle" x="2078.71" y="-361.3" font-family="Times-Roman" font-size="14.00">rdfs:type</text>
</g>
<!-- B_:b1&#45;&gt;Lonline -->
<g id="edge12" class="edge">
<title>B_:b1&#45;&gt;Lonline</title>
<path fill="none" stroke="black" stroke-dasharray="1,5" d="M1647.28,-381.01C1712.58,-371.47 1952.76,-336.18 2150.21,-304.5 2185.28,-298.87 2225.15,-292.1 2253.7,-287.19"/>
<polygon fill="black" stroke="black" points="2254.41,-290.62 2263.67,-285.47 2253.22,-283.72 2254.41,-290.62"/>
<text text-anchor="middle" x="2078.71" y="-330.3" font-family="Times-Roman" font-size="14.00">schema:courseMode</text>
</g>
<!-- LMOOC2 -->
<g id="node11" class="node">
<title>LMOOC2</title>
<polygon fill="none" stroke="black" points="2258.21,-508.5 2258.21,-544.5 2328.21,-544.5 2328.21,-508.5 2258.21,-508.5"/>
<text text-anchor="middle" x="2293.21" y="-522.8" font-family="Times-Roman" font-size="14.00">MOOC2</text>
</g>
<!-- B_:b1&#45;&gt;LMOOC2 -->
<g id="edge11" class="edge">
<title>B_:b1&#45;&gt;LMOOC2</title>
<path fill="none" stroke="black" stroke-dasharray="1,5" d="M1646.68,-379.13C1701.84,-365.54 1882.59,-329.66 1989.21,-411.5 2008.27,-426.14 1989.27,-446.49 2007.21,-462.5 2061.98,-511.39 2096.56,-483.47 2168.21,-499.5 2194.62,-505.41 2224.23,-511.86 2247.89,-516.98"/>
<polygon fill="black" stroke="black" points="2247.46,-520.47 2257.97,-519.16 2248.94,-513.62 2247.46,-520.47"/>
<text text-anchor="middle" x="2078.71" y="-499.3" font-family="Times-Roman" font-size="14.00">schema:courseMode</text>
</g>
<!-- L2019&#45;05&#45;21|Datatype: XMLSchema#dateTime -->
<g id="node12" class="node">
<title>L2019&#45;05&#45;21|Datatype: XMLSchema#dateTime</title>
<polygon fill="none" stroke="black" points="2168.21,-443.5 2168.21,-489.5 2418.21,-489.5 2418.21,-443.5 2168.21,-443.5"/>
<text text-anchor="middle" x="2293.21" y="-474.3" font-family="Times-Roman" font-size="14.00">2019&#45;05&#45;21</text>
<polyline fill="none" stroke="black" points="2168.21,-466.5 2418.21,-466.5 "/>
<text text-anchor="middle" x="2293.21" y="-451.3" font-family="Times-Roman" font-size="14.00">Datatype: XMLSchema#dateTime</text>
</g>
<!-- B_:b1&#45;&gt;L2019&#45;05&#45;21|Datatype: XMLSchema#dateTime -->
<g id="edge13" class="edge">
<title>B_:b1&#45;&gt;L2019&#45;05&#45;21|Datatype: XMLSchema#dateTime</title>
<path fill="none" stroke="black" stroke-dasharray="1,5" d="M1647.54,-383.67C1699.66,-384.43 1859.3,-388.61 1989.21,-411.5 1997.38,-412.94 1999.11,-414.67 2007.21,-416.5 2056.04,-427.54 2110.04,-437.56 2157.79,-445.68"/>
<polygon fill="black" stroke="black" points="2157.44,-449.17 2167.88,-447.39 2158.61,-442.27 2157.44,-449.17"/>
<text text-anchor="middle" x="2078.71" y="-447.3" font-family="Times-Roman" font-size="14.00">schema:endDate</text>
</g>
<!-- L2019&#45;04&#45;15|Datatype: XMLSchema#dateTime -->
<g id="node13" class="node">
<title>L2019&#45;04&#45;15|Datatype: XMLSchema#dateTime</title>
<polygon fill="none" stroke="black" points="2168.21,-378.5 2168.21,-424.5 2418.21,-424.5 2418.21,-378.5 2168.21,-378.5"/>
<text text-anchor="middle" x="2293.21" y="-409.3" font-family="Times-Roman" font-size="14.00">2019&#45;04&#45;15</text>
<polyline fill="none" stroke="black" points="2168.21,-401.5 2418.21,-401.5 "/>
<text text-anchor="middle" x="2293.21" y="-386.3" font-family="Times-Roman" font-size="14.00">Datatype: XMLSchema#dateTime</text>
</g>
<!-- B_:b1&#45;&gt;L2019&#45;04&#45;15|Datatype: XMLSchema#dateTime -->
<g id="edge14" class="edge">
<title>B_:b1&#45;&gt;L2019&#45;04&#45;15|Datatype: XMLSchema#dateTime</title>
<path fill="none" stroke="black" stroke-dasharray="1,5" d="M1647.24,-383.96C1717.69,-385.88 1990.53,-393.3 2157.96,-397.85"/>
<polygon fill="black" stroke="black" points="2157.99,-401.35 2168.08,-398.12 2158.18,-394.35 2157.99,-401.35"/>
<text text-anchor="middle" x="2078.71" y="-401.3" font-family="Times-Roman" font-size="14.00">schema:startDate</text>
</g>
</g>
</svg>
