<?xml version="1.0" encoding="UTF-8" standalone="no"?>
<!DOCTYPE svg PUBLIC "-//W3C//DTD SVG 1.1//EN"
 "http://www.w3.org/Graphics/SVG/1.1/DTD/svg11.dtd">
<!-- Generated by graphviz version 2.44.0 (0)
 -->
<!-- Pages: 1 -->
<svg width="1409pt" height="335pt"
 viewBox="0.00 0.00 1408.88 334.50" xmlns="http://www.w3.org/2000/svg" xmlns:xlink="http://www.w3.org/1999/xlink">
<g id="graph0" class="graph" transform="scale(1 1) rotate(0) translate(4 330.5)">
<polygon fill="white" stroke="transparent" points="-4,4 -4,-330.5 1404.88,-330.5 1404.88,4 -4,4"/>
<text text-anchor="middle" x="700.44" y="-22.8" font-family="Times-Roman" font-size="14.00">Model:</text>
<text text-anchor="middle" x="700.44" y="-7.8" font-family="Times-Roman" font-size="14.00">https://iode.org/</text>
<!-- B_:b0 -->
<g id="node1" class="node">
<title>B_:b0</title>
<ellipse fill="none" stroke="green" cx="18" cy="-253.5" rx="18" ry="18"/>
</g>
<!-- Rschema:Course -->
<g id="node2" class="node">
<title>Rschema:Course</title>
<ellipse fill="none" stroke="blue" cx="624" cy="-308.5" rx="80.69" ry="18"/>
<text text-anchor="middle" x="624" y="-304.8" font-family="Times-Roman" font-size="14.00">schema:Course</text>
</g>
<!-- B_:b0&#45;&gt;Rschema:Course -->
<g id="edge1" class="edge">
<title>B_:b0&#45;&gt;Rschema:Course</title>
<path fill="none" stroke="black" stroke-dasharray="1,5" d="M33.37,-263.14C39.47,-266.73 46.82,-270.43 54,-272.5 219.97,-320.27 424.02,-319.65 537.15,-314.41"/>
<polygon fill="black" stroke="black" points="537.32,-317.9 547.14,-313.92 536.98,-310.91 537.32,-317.9"/>
<text text-anchor="middle" x="150" y="-310.3" font-family="Times-Roman" font-size="14.00">rdfs:type</text>
</g>
<!-- LIn this course you will get an introduction to the main tools and ideas in the data scientist&#39;s toolbox... -->
<g id="node3" class="node">
<title>LIn this course you will get an introduction to the main tools and ideas in the data scientist&#39;s toolbox...</title>
<polygon fill="none" stroke="black" points="264,-235.5 264,-271.5 984,-271.5 984,-235.5 264,-235.5"/>
<text text-anchor="middle" x="624" y="-249.8" font-family="Times-Roman" font-size="14.00">In this course you will get an introduction to the main tools and ideas in the data scientist&#39;s toolbox...</text>
</g>
<!-- B_:b0&#45;&gt;LIn this course you will get an introduction to the main tools and ideas in the data scientist&#39;s toolbox... -->
<g id="edge2" class="edge">
<title>B_:b0&#45;&gt;LIn this course you will get an introduction to the main tools and ideas in the data scientist&#39;s toolbox...</title>
<path fill="none" stroke="black" stroke-dasharray="1,5" d="M36.1,-253.5C71.56,-253.5 157.83,-253.5 253.62,-253.5"/>
<polygon fill="black" stroke="black" points="253.82,-257 263.82,-253.5 253.82,-250 253.82,-257"/>
<text text-anchor="middle" x="150" y="-257.3" font-family="Times-Roman" font-size="14.00">schema:description</text>
</g>
<!-- B_:b1 -->
<g id="node4" class="node">
<title>B_:b1</title>
<ellipse fill="none" stroke="green" cx="624" cy="-198.5" rx="18" ry="18"/>
</g>
<!-- B_:b0&#45;&gt;B_:b1 -->
<g id="edge3" class="edge">
<title>B_:b0&#45;&gt;B_:b1</title>
<path fill="none" stroke="black" stroke-dasharray="1,5" d="M33.37,-243.86C39.47,-240.27 46.82,-236.57 54,-234.5 255.18,-176.59 512.33,-189.8 595.64,-196.14"/>
<polygon fill="black" stroke="black" points="595.54,-199.64 605.79,-196.94 596.1,-192.66 595.54,-199.64"/>
<text text-anchor="middle" x="150" y="-238.3" font-family="Times-Roman" font-size="14.00">schema:hasCourseInstance</text>
</g>
<!-- Rschema:CourseInstance -->
<g id="node5" class="node">
<title>Rschema:CourseInstance</title>
<ellipse fill="none" stroke="blue" cx="1281.94" cy="-308.5" rx="118.88" ry="18"/>
<text text-anchor="middle" x="1281.94" y="-304.8" font-family="Times-Roman" font-size="14.00">schema:CourseInstance</text>
</g>
<!-- B_:b1&#45;&gt;Rschema:CourseInstance -->
<g id="edge4" class="edge">
<title>B_:b1&#45;&gt;Rschema:CourseInstance</title>
<path fill="none" stroke="black" stroke-dasharray="1,5" d="M641.71,-194.7C696.13,-183.31 871.23,-154.52 984,-226.5 997.75,-235.28 988.7,-249.05 1002,-258.5 1045.42,-289.36 1102.02,-303.06 1152.87,-308.6"/>
<polygon fill="black" stroke="black" points="1152.66,-312.09 1162.96,-309.6 1153.35,-305.13 1152.66,-312.09"/>
<text text-anchor="middle" x="1073.5" y="-311.3" font-family="Times-Roman" font-size="14.00">rdfs:type</text>
</g>
<!-- LMOOC -->
<g id="node6" class="node">
<title>LMOOC</title>
<polygon fill="none" stroke="black" points="1251.44,-235.5 1251.44,-271.5 1312.44,-271.5 1312.44,-235.5 1251.44,-235.5"/>
<text text-anchor="middle" x="1281.94" y="-249.8" font-family="Times-Roman" font-size="14.00">MOOC</text>
</g>
<!-- B_:b1&#45;&gt;LMOOC -->
<g id="edge5" class="edge">
<title>B_:b1&#45;&gt;LMOOC</title>
<path fill="none" stroke="black" stroke-dasharray="1,5" d="M642.19,-199.76C693.91,-203.58 852.56,-215.4 984,-226.5 1076.02,-234.27 1183.99,-244.32 1240.99,-249.7"/>
<polygon fill="black" stroke="black" points="1240.74,-253.2 1251.03,-250.65 1241.4,-246.23 1240.74,-253.2"/>
<text text-anchor="middle" x="1073.5" y="-243.3" font-family="Times-Roman" font-size="14.00">schema:courseMode</text>
</g>
<!-- Lonline -->
<g id="node7" class="node">
<title>Lonline</title>
<polygon fill="none" stroke="black" points="1252.44,-180.5 1252.44,-216.5 1311.44,-216.5 1311.44,-180.5 1252.44,-180.5"/>
<text text-anchor="middle" x="1281.94" y="-194.8" font-family="Times-Roman" font-size="14.00">online</text>
</g>
<!-- B_:b1&#45;&gt;Lonline -->
<g id="edge6" class="edge">
<title>B_:b1&#45;&gt;Lonline</title>
<path fill="none" stroke="black" stroke-dasharray="1,5" d="M642.21,-198.5C728.73,-198.5 1116.98,-198.5 1242.01,-198.5"/>
<polygon fill="black" stroke="black" points="1242.26,-202 1252.26,-198.5 1242.26,-195 1242.26,-202"/>
<text text-anchor="middle" x="1073.5" y="-202.3" font-family="Times-Roman" font-size="14.00">schema:courseMode</text>
</g>
<!-- L2019&#45;03&#45;21 -->
<g id="node8" class="node">
<title>L2019&#45;03&#45;21</title>
<polygon fill="none" stroke="black" points="1232.44,-125.5 1232.44,-161.5 1331.44,-161.5 1331.44,-125.5 1232.44,-125.5"/>
<text text-anchor="middle" x="1281.94" y="-139.8" font-family="Times-Roman" font-size="14.00">2019&#45;03&#45;21</text>
</g>
<!-- B_:b1&#45;&gt;L2019&#45;03&#45;21 -->
<g id="edge7" class="edge">
<title>B_:b1&#45;&gt;L2019&#45;03&#45;21</title>
<path fill="none" stroke="black" stroke-dasharray="1,5" d="M642.21,-197.06C724.54,-190.15 1080.1,-160.34 1222.07,-148.44"/>
<polygon fill="black" stroke="black" points="1222.65,-151.9 1232.32,-147.58 1222.06,-144.92 1222.65,-151.9"/>
<text text-anchor="middle" x="1073.5" y="-169.3" font-family="Times-Roman" font-size="14.00">schema:endDate</text>
</g>
<!-- L2019&#45;02&#45;15 -->
<g id="node9" class="node">
<title>L2019&#45;02&#45;15</title>
<polygon fill="none" stroke="black" points="1232.44,-70.5 1232.44,-106.5 1331.44,-106.5 1331.44,-70.5 1232.44,-70.5"/>
<text text-anchor="middle" x="1281.94" y="-84.8" font-family="Times-Roman" font-size="14.00">2019&#45;02&#45;15</text>
</g>
<!-- B_:b1&#45;&gt;L2019&#45;02&#45;15 -->
<g id="edge8" class="edge">
<title>B_:b1&#45;&gt;L2019&#45;02&#45;15</title>
<path fill="none" stroke="black" stroke-dasharray="1,5" d="M641.87,-195.67C723.55,-181.97 1079.71,-122.25 1221.95,-98.39"/>
<polygon fill="black" stroke="black" points="1222.94,-101.78 1232.22,-96.67 1221.78,-94.87 1222.94,-101.78"/>
<text text-anchor="middle" x="1073.5" y="-137.3" font-family="Times-Roman" font-size="14.00">schema:startDate</text>
</g>
</g>
</svg>
