<?xml version="1.0" encoding="UTF-8" standalone="no"?>
<!DOCTYPE svg PUBLIC "-//W3C//DTD SVG 1.1//EN"
 "http://www.w3.org/Graphics/SVG/1.1/DTD/svg11.dtd">
<!-- Generated by graphviz version 2.44.0 (0)
 -->
<!-- Pages: 1 -->
<svg width="1665pt" height="610pt"
 viewBox="0.00 0.00 1664.53 609.50" xmlns="http://www.w3.org/2000/svg" xmlns:xlink="http://www.w3.org/1999/xlink">
<g id="graph0" class="graph" transform="scale(1 1) rotate(0) translate(4 605.5)">
<polygon fill="white" stroke="transparent" points="-4,4 -4,-605.5 1660.53,-605.5 1660.53,4 -4,4"/>
<text text-anchor="middle" x="828.26" y="-22.8" font-family="Times-Roman" font-size="14.00">Model:</text>
<text text-anchor="middle" x="828.26" y="-7.8" font-family="Times-Roman" font-size="14.00">https://iode.org/</text>
<!-- Rhttps://us&#45;central1&#45;top&#45;operand&#45;112611.cloudfunctions.net/function&#45;1 -->
<g id="node1" class="node">
<title>Rhttps://us&#45;central1&#45;top&#45;operand&#45;112611.cloudfunctions.net/function&#45;1</title>
<ellipse fill="none" stroke="blue" cx="327.57" cy="-477.5" rx="327.64" ry="18"/>
<text text-anchor="middle" x="327.57" y="-473.8" font-family="Times-Roman" font-size="14.00">https://us&#45;central1&#45;top&#45;operand&#45;112611.cloudfunctions.net/function&#45;1</text>
</g>
<!-- Rschema:Action -->
<g id="node2" class="node">
<title>Rschema:Action</title>
<ellipse fill="none" stroke="blue" cx="868.84" cy="-568.5" rx="76.89" ry="18"/>
<text text-anchor="middle" x="868.84" y="-564.8" font-family="Times-Roman" font-size="14.00">schema:Action</text>
</g>
<!-- Rhttps://us&#45;central1&#45;top&#45;operand&#45;112611.cloudfunctions.net/function&#45;1&#45;&gt;Rschema:Action -->
<g id="edge1" class="edge">
<title>Rhttps://us&#45;central1&#45;top&#45;operand&#45;112611.cloudfunctions.net/function&#45;1&#45;&gt;Rschema:Action</title>
<path fill="none" stroke="black" stroke-dasharray="1,5" d="M430,-494.62C536.71,-512.62 701.95,-540.51 795.95,-556.37"/>
<polygon fill="black" stroke="black" points="795.49,-559.84 805.94,-558.05 796.66,-552.94 795.49,-559.84"/>
<text text-anchor="middle" x="723.64" y="-554.3" font-family="Times-Roman" font-size="14.00">rdfs:type</text>
</g>
<!-- B_:b0 -->
<g id="node3" class="node">
<title>B_:b0</title>
<ellipse fill="none" stroke="green" cx="868.84" cy="-514.5" rx="18" ry="18"/>
</g>
<!-- Rhttps://us&#45;central1&#45;top&#45;operand&#45;112611.cloudfunctions.net/function&#45;1&#45;&gt;B_:b0 -->
<g id="edge2" class="edge">
<title>Rhttps://us&#45;central1&#45;top&#45;operand&#45;112611.cloudfunctions.net/function&#45;1&#45;&gt;B_:b0</title>
<path fill="none" stroke="black" stroke-dasharray="1,5" d="M533.21,-491.54C649.97,-499.55 784.03,-508.75 840.5,-512.62"/>
<polygon fill="black" stroke="black" points="840.52,-516.13 850.73,-513.33 841,-509.15 840.52,-516.13"/>
<text text-anchor="middle" x="723.64" y="-510.3" font-family="Times-Roman" font-size="14.00">schema:object</text>
</g>
<!-- B_:b1 -->
<g id="node4" class="node">
<title>B_:b1</title>
<ellipse fill="none" stroke="green" cx="868.84" cy="-432.5" rx="18" ry="18"/>
</g>
<!-- Rhttps://us&#45;central1&#45;top&#45;operand&#45;112611.cloudfunctions.net/function&#45;1&#45;&gt;B_:b1 -->
<g id="edge3" class="edge">
<title>Rhttps://us&#45;central1&#45;top&#45;operand&#45;112611.cloudfunctions.net/function&#45;1&#45;&gt;B_:b1</title>
<path fill="none" stroke="black" stroke-dasharray="1,5" d="M508.51,-462.48C630.48,-452.31 780.08,-439.82 840.55,-434.78"/>
<polygon fill="black" stroke="black" points="841.11,-438.24 850.78,-433.92 840.53,-431.27 841.11,-438.24"/>
<text text-anchor="middle" x="723.64" y="-451.3" font-family="Times-Roman" font-size="14.00">schema:result</text>
</g>
<!-- B_:b2 -->
<g id="node5" class="node">
<title>B_:b2</title>
<ellipse fill="none" stroke="green" cx="868.84" cy="-226.5" rx="18" ry="18"/>
</g>
<!-- Rhttps://us&#45;central1&#45;top&#45;operand&#45;112611.cloudfunctions.net/function&#45;1&#45;&gt;B_:b2 -->
<g id="edge4" class="edge">
<title>Rhttps://us&#45;central1&#45;top&#45;operand&#45;112611.cloudfunctions.net/function&#45;1&#45;&gt;B_:b2</title>
<path fill="none" stroke="black" stroke-dasharray="1,5" d="M367.35,-459.45C471.66,-410.9 756.12,-278.5 842.58,-238.26"/>
<polygon fill="black" stroke="black" points="844.3,-241.31 851.89,-233.92 841.35,-234.97 844.3,-241.31"/>
<text text-anchor="middle" x="723.64" y="-318.3" font-family="Times-Roman" font-size="14.00">schema:target</text>
</g>
<!-- Rschema:ImageObject -->
<g id="node6" class="node">
<title>Rschema:ImageObject</title>
<ellipse fill="none" stroke="blue" cx="1404.53" cy="-583.5" rx="106.68" ry="18"/>
<text text-anchor="middle" x="1404.53" y="-579.8" font-family="Times-Roman" font-size="14.00">schema:ImageObject</text>
</g>
<!-- B_:b0&#45;&gt;Rschema:ImageObject -->
<g id="edge5" class="edge">
<title>B_:b0&#45;&gt;Rschema:ImageObject</title>
<path fill="none" stroke="black" stroke-dasharray="1,5" d="M886.24,-519.74C904.8,-525.47 936.03,-534.49 963.53,-539.5 1074.61,-559.74 1203.29,-571.25 1292.68,-577.37"/>
<polygon fill="black" stroke="black" points="1292.63,-580.88 1302.84,-578.06 1293.1,-573.89 1292.63,-580.88"/>
<text text-anchor="middle" x="1049.03" y="-566.3" font-family="Times-Roman" font-size="14.00">rdfs:type</text>
</g>
<!-- LA JPEG or PNG to analyze the RGB counts -->
<g id="node7" class="node">
<title>LA JPEG or PNG to analyze the RGB counts</title>
<polygon fill="none" stroke="black" points="1252.53,-510.5 1252.53,-546.5 1556.53,-546.5 1556.53,-510.5 1252.53,-510.5"/>
<text text-anchor="middle" x="1404.53" y="-524.8" font-family="Times-Roman" font-size="14.00">A JPEG or PNG to analyze the RGB counts</text>
</g>
<!-- B_:b0&#45;&gt;LA JPEG or PNG to analyze the RGB counts -->
<g id="edge6" class="edge">
<title>B_:b0&#45;&gt;LA JPEG or PNG to analyze the RGB counts</title>
<path fill="none" stroke="black" stroke-dasharray="1,5" d="M886.99,-514.95C940.98,-516.37 1111.59,-520.84 1242.11,-524.27"/>
<polygon fill="black" stroke="black" points="1242.14,-527.77 1252.23,-524.53 1242.32,-520.77 1242.14,-527.77"/>
<text text-anchor="middle" x="1049.03" y="-524.3" font-family="Times-Roman" font-size="14.00">schema:description</text>
</g>
<!-- Rschema:DataDownload -->
<g id="node8" class="node">
<title>Rschema:DataDownload</title>
<ellipse fill="none" stroke="blue" cx="1404.53" cy="-473.5" rx="114.28" ry="18"/>
<text text-anchor="middle" x="1404.53" y="-469.8" font-family="Times-Roman" font-size="14.00">schema:DataDownload</text>
</g>
<!-- B_:b1&#45;&gt;Rschema:DataDownload -->
<g id="edge7" class="edge">
<title>B_:b1&#45;&gt;Rschema:DataDownload</title>
<path fill="none" stroke="black" stroke-dasharray="1,5" d="M886.68,-435.96C905.37,-439.67 936.47,-445.43 963.53,-448.5 1070.59,-460.64 1193.01,-466.99 1281.49,-470.25"/>
<polygon fill="black" stroke="black" points="1281.45,-473.75 1291.57,-470.61 1281.7,-466.75 1281.45,-473.75"/>
<text text-anchor="middle" x="1049.03" y="-466.3" font-family="Times-Roman" font-size="14.00">rdfs:type</text>
</g>
<!-- La simple text result for the RGB counts -->
<g id="node9" class="node">
<title>La simple text result for the RGB counts</title>
<polygon fill="none" stroke="black" points="1261.03,-400.5 1261.03,-436.5 1548.03,-436.5 1548.03,-400.5 1261.03,-400.5"/>
<text text-anchor="middle" x="1404.53" y="-414.8" font-family="Times-Roman" font-size="14.00">a simple text result for the RGB counts</text>
</g>
<!-- B_:b1&#45;&gt;La simple text result for the RGB counts -->
<g id="edge8" class="edge">
<title>B_:b1&#45;&gt;La simple text result for the RGB counts</title>
<path fill="none" stroke="black" stroke-dasharray="1,5" d="M886.99,-432.05C942.15,-430.6 1119.07,-425.96 1250.57,-422.51"/>
<polygon fill="black" stroke="black" points="1250.84,-426.01 1260.75,-422.25 1250.66,-419.01 1250.84,-426.01"/>
<text text-anchor="middle" x="1049.03" y="-433.3" font-family="Times-Roman" font-size="14.00">schema:description</text>
</g>
<!-- Ltext/plain -->
<g id="node10" class="node">
<title>Ltext/plain</title>
<polygon fill="none" stroke="black" points="1363.53,-345.5 1363.53,-381.5 1445.53,-381.5 1445.53,-345.5 1363.53,-345.5"/>
<text text-anchor="middle" x="1404.53" y="-359.8" font-family="Times-Roman" font-size="14.00">text/plain</text>
</g>
<!-- B_:b1&#45;&gt;Ltext/plain -->
<g id="edge9" class="edge">
<title>B_:b1&#45;&gt;Ltext/plain</title>
<path fill="none" stroke="black" stroke-dasharray="1,5" d="M886.22,-427.02C904.76,-421.04 935.98,-411.63 963.53,-406.5 1103.37,-380.47 1271.33,-369.59 1353.41,-365.57"/>
<polygon fill="black" stroke="black" points="1353.64,-369.06 1363.46,-365.09 1353.31,-362.07 1353.64,-369.06"/>
<text text-anchor="middle" x="1049.03" y="-410.3" font-family="Times-Roman" font-size="14.00">schema:encodingFormat</text>
</g>
<!-- Rschema:EntryPoint -->
<g id="node11" class="node">
<title>Rschema:EntryPoint</title>
<ellipse fill="none" stroke="blue" cx="1404.53" cy="-308.5" rx="95.58" ry="18"/>
<text text-anchor="middle" x="1404.53" y="-304.8" font-family="Times-Roman" font-size="14.00">schema:EntryPoint</text>
</g>
<!-- B_:b2&#45;&gt;Rschema:EntryPoint -->
<g id="edge10" class="edge">
<title>B_:b2&#45;&gt;Rschema:EntryPoint</title>
<path fill="none" stroke="black" stroke-dasharray="1,5" d="M885.82,-232.84C904.25,-239.91 935.62,-251.17 963.53,-257.5 1077.99,-283.45 1212.36,-296.58 1302.21,-302.96"/>
<polygon fill="black" stroke="black" points="1302.18,-306.47 1312.4,-303.67 1302.67,-299.48 1302.18,-306.47"/>
<text text-anchor="middle" x="1049.03" y="-289.3" font-family="Times-Roman" font-size="14.00">rdfs:type</text>
</g>
<!-- Limage/jpeg -->
<g id="node12" class="node">
<title>Limage/jpeg</title>
<polygon fill="none" stroke="black" points="1357.53,-235.5 1357.53,-271.5 1451.53,-271.5 1451.53,-235.5 1357.53,-235.5"/>
<text text-anchor="middle" x="1404.53" y="-249.8" font-family="Times-Roman" font-size="14.00">image/jpeg</text>
</g>
<!-- B_:b2&#45;&gt;Limage/jpeg -->
<g id="edge11" class="edge">
<title>B_:b2&#45;&gt;Limage/jpeg</title>
<path fill="none" stroke="black" stroke-dasharray="1,5" d="M886.99,-227.37C957.65,-230.94 1228.06,-244.62 1346.92,-250.64"/>
<polygon fill="black" stroke="black" points="1347.1,-254.15 1357.26,-251.16 1347.45,-247.16 1347.1,-254.15"/>
<text text-anchor="middle" x="1049.03" y="-242.3" font-family="Times-Roman" font-size="14.00">schema:contentType</text>
</g>
<!-- Limage/png -->
<g id="node13" class="node">
<title>Limage/png</title>
<polygon fill="none" stroke="black" points="1359.03,-180.5 1359.03,-216.5 1450.03,-216.5 1450.03,-180.5 1359.03,-180.5"/>
<text text-anchor="middle" x="1404.53" y="-194.8" font-family="Times-Roman" font-size="14.00">image/png</text>
</g>
<!-- B_:b2&#45;&gt;Limage/png -->
<g id="edge12" class="edge">
<title>B_:b2&#45;&gt;Limage/png</title>
<path fill="none" stroke="black" stroke-dasharray="1,5" d="M886.69,-223.38C905.39,-220.05 936.5,-214.94 963.53,-212.5 1101.81,-200.01 1265.42,-198.2 1348.76,-198.2"/>
<polygon fill="black" stroke="black" points="1348.76,-201.7 1358.77,-198.21 1348.77,-194.7 1348.76,-201.7"/>
<text text-anchor="middle" x="1049.03" y="-216.3" font-family="Times-Roman" font-size="14.00">schema:contentType</text>
</g>
<!-- LPOST -->
<g id="node14" class="node">
<title>LPOST</title>
<polygon fill="none" stroke="black" points="1377.53,-125.5 1377.53,-161.5 1431.53,-161.5 1431.53,-125.5 1377.53,-125.5"/>
<text text-anchor="middle" x="1404.53" y="-139.8" font-family="Times-Roman" font-size="14.00">POST</text>
</g>
<!-- B_:b2&#45;&gt;LPOST -->
<g id="edge13" class="edge">
<title>B_:b2&#45;&gt;LPOST</title>
<path fill="none" stroke="black" stroke-dasharray="1,5" d="M884.78,-217.45C902.77,-207.06 934.21,-190.42 963.53,-182.5 1109.19,-143.17 1290.85,-141.26 1367.13,-142.48"/>
<polygon fill="black" stroke="black" points="1367.12,-145.98 1377.18,-142.67 1367.25,-138.98 1367.12,-145.98"/>
<text text-anchor="middle" x="1049.03" y="-186.3" font-family="Times-Roman" font-size="14.00">schema:httpMethod</text>
</g>
<!-- Lhttps://us&#45;central1&#45;top&#45;operand&#45;112611.cloudfunctions.net/function&#45;1 -->
<g id="node15" class="node">
<title>Lhttps://us&#45;central1&#45;top&#45;operand&#45;112611.cloudfunctions.net/function&#45;1</title>
<polygon fill="none" stroke="black" points="1152.53,-70.5 1152.53,-106.5 1656.53,-106.5 1656.53,-70.5 1152.53,-70.5"/>
<text text-anchor="middle" x="1404.53" y="-84.8" font-family="Times-Roman" font-size="14.00">https://us&#45;central1&#45;top&#45;operand&#45;112611.cloudfunctions.net/function&#45;1</text>
</g>
<!-- B_:b2&#45;&gt;Lhttps://us&#45;central1&#45;top&#45;operand&#45;112611.cloudfunctions.net/function&#45;1 -->
<g id="edge14" class="edge">
<title>B_:b2&#45;&gt;Lhttps://us&#45;central1&#45;top&#45;operand&#45;112611.cloudfunctions.net/function&#45;1</title>
<path fill="none" stroke="black" stroke-dasharray="1,5" d="M879.59,-211.8C894.72,-190.38 926.03,-151.24 963.53,-133.5 1018.43,-107.53 1081.41,-93.31 1142.24,-86.06"/>
<polygon fill="black" stroke="black" points="1142.83,-89.52 1152.37,-84.92 1142.04,-82.56 1142.83,-89.52"/>
<text text-anchor="middle" x="1049.03" y="-137.3" font-family="Times-Roman" font-size="14.00">schema:urlTemplate</text>
</g>
</g>
</svg>
