<?xml version="1.0" encoding="UTF-8" standalone="no"?>
<!DOCTYPE svg PUBLIC "-//W3C//DTD SVG 1.1//EN"
 "http://www.w3.org/Graphics/SVG/1.1/DTD/svg11.dtd">
<!-- Generated by graphviz version 5.0.0 (0)
 -->
<!-- Pages: 1 -->
<svg width="1179pt" height="542pt"
 viewBox="0.00 0.00 1179.22 542.00" xmlns="http://www.w3.org/2000/svg" xmlns:xlink="http://www.w3.org/1999/xlink">
<g id="graph0" class="graph" transform="scale(1 1) rotate(0) translate(4 538)">
<polygon fill="white" stroke="transparent" points="-4,4 -4,-538 1175.22,-538 1175.22,4 -4,4"/>
<!-- Action -->
<g id="node1" class="node">
<title>Action</title>
<ellipse fill="none" stroke="#558855" cx="717.94" cy="-337" rx="40.09" ry="18"/>
<text text-anchor="middle" x="717.94" y="-333.3" font-family="Times,serif" font-size="14.00">Action</text>
</g>
<!-- us&#45;central1&#45;top&#45;operand&#45;112611.cloudfunctions.net/function&#45;1 -->
<g id="node2" class="node">
<title>us&#45;central1&#45;top&#45;operand&#45;112611.cloudfunctions.net/function&#45;1</title>
<ellipse fill="none" stroke="black" cx="298.32" cy="-280" rx="298.15" ry="18"/>
<text text-anchor="middle" x="298.32" y="-276.3" font-family="Times,serif" font-size="14.00">us&#45;central1&#45;top&#45;operand&#45;112611.cloudfunctions.net/function&#45;1</text>
</g>
<!-- us&#45;central1&#45;top&#45;operand&#45;112611.cloudfunctions.net/function&#45;1&#45;&gt;Action -->
<g id="edge1" class="edge">
<title>us&#45;central1&#45;top&#45;operand&#45;112611.cloudfunctions.net/function&#45;1&#45;&gt;Action</title>
<path fill="none" stroke="black" d="M419.84,-296.45C502.97,-307.79 608.98,-322.26 669.29,-330.5"/>
<polygon fill="black" stroke="black" points="668.9,-333.97 679.28,-331.86 669.85,-327.04 668.9,-333.97"/>
<text text-anchor="middle" x="637.15" y="-331.8" font-family="Times,serif" font-size="14.00">type</text>
</g>
<!-- _ -->
<g id="node3" class="node">
<title>_</title>
<ellipse fill="none" stroke="#558855" cx="717.94" cy="-261" rx="27" ry="18"/>
<text text-anchor="middle" x="717.94" y="-257.3" font-family="Times,serif" font-size="14.00">_</text>
</g>
<!-- us&#45;central1&#45;top&#45;operand&#45;112611.cloudfunctions.net/function&#45;1&#45;&gt;_ -->
<g id="edge2" class="edge">
<title>us&#45;central1&#45;top&#45;operand&#45;112611.cloudfunctions.net/function&#45;1&#45;&gt;_</title>
<path fill="none" stroke="black" d="M587.95,-284.34C612.26,-282.67 636.42,-280.28 659.65,-277 667.54,-275.89 675.88,-273.99 683.68,-271.88"/>
<polygon fill="black" stroke="black" points="684.91,-275.17 693.55,-269.04 682.97,-268.45 684.91,-275.17"/>
<text text-anchor="middle" x="637.15" y="-284.8" font-family="Times,serif" font-size="14.00">object</text>
</g>
<!-- us&#45;central1&#45;top&#45;operand&#45;112611.cloudfunctions.net/function&#45;1&#45;&gt;_ -->
<g id="edge3" class="edge">
<title>us&#45;central1&#45;top&#45;operand&#45;112611.cloudfunctions.net/function&#45;1&#45;&gt;_</title>
<path fill="none" stroke="black" d="M475.99,-265.5C521.16,-262.39 569.68,-259.57 614.65,-258 634.63,-257.3 639.65,-257.48 659.65,-258 666.54,-258.18 673.89,-258.48 680.95,-258.83"/>
<polygon fill="black" stroke="black" points="680.83,-262.33 691,-259.35 681.2,-255.34 680.83,-262.33"/>
<text text-anchor="middle" x="637.15" y="-261.8" font-family="Times,serif" font-size="14.00">result</text>
</g>
<!-- us&#45;central1&#45;top&#45;operand&#45;112611.cloudfunctions.net/function&#45;1&#45;&gt;_ -->
<g id="edge4" class="edge">
<title>us&#45;central1&#45;top&#45;operand&#45;112611.cloudfunctions.net/function&#45;1&#45;&gt;_</title>
<path fill="none" stroke="black" d="M400.52,-263.05C462.2,-253.59 542.73,-242.77 614.65,-238 634.6,-236.68 640.01,-234.21 659.65,-238 668.75,-239.76 678.23,-242.95 686.81,-246.41"/>
<polygon fill="black" stroke="black" points="685.47,-249.64 696.04,-250.37 688.23,-243.21 685.47,-249.64"/>
<text text-anchor="middle" x="637.15" y="-241.8" font-family="Times,serif" font-size="14.00">target</text>
</g>
<!-- DataDownload -->
<g id="node4" class="node">
<title>DataDownload</title>
<ellipse fill="none" stroke="#558855" cx="1041.23" cy="-504" rx="78.79" ry="18"/>
<text text-anchor="middle" x="1041.23" y="-500.3" font-family="Times,serif" font-size="14.00">DataDownload</text>
</g>
<!-- _&#45;&gt;DataDownload -->
<g id="edge5" class="edge">
<title>_&#45;&gt;DataDownload</title>
<path fill="none" stroke="black" d="M734.19,-275.41C742.77,-284.47 752.82,-296.9 758.24,-310 772.27,-343.87 750.36,-448.03 776.24,-474 826.55,-524.51 912.34,-524.96 972.43,-517.39"/>
<polygon fill="black" stroke="black" points="973.15,-520.83 982.58,-516.01 972.2,-513.89 973.15,-520.83"/>
<text text-anchor="middle" x="834.74" y="-522.8" font-family="Times,serif" font-size="14.00">type</text>
</g>
<!-- &quot;a simple text result...&quot; -->
<g id="node5" class="node">
<title>&quot;a simple text result...&quot;</title>
<ellipse fill="none" stroke="black" stroke-width="0" cx="1041.23" cy="-450" rx="118.88" ry="18"/>
<text text-anchor="middle" x="1041.23" y="-446.3" font-family="Times,serif" font-size="14.00">&quot;a simple text result...&quot;</text>
</g>
<!-- _&#45;&gt;&quot;a simple text result...&quot; -->
<g id="edge6" class="edge">
<title>_&#45;&gt;&quot;a simple text result...&quot;</title>
<path fill="none" stroke="black" d="M733.83,-275.56C742.28,-284.68 752.32,-297.12 758.24,-310 776.36,-349.45 745.24,-375.62 776.24,-406 815.83,-444.8 875.86,-456.99 928.68,-458.95"/>
<polygon fill="black" stroke="black" points="928.71,-462.45 938.79,-459.2 928.88,-455.45 928.71,-462.45"/>
<text text-anchor="middle" x="834.74" y="-458.8" font-family="Times,serif" font-size="14.00">description</text>
</g>
<!-- &quot;text/plain&quot; -->
<g id="node6" class="node">
<title>&quot;text/plain&quot;</title>
<ellipse fill="none" stroke="black" stroke-width="0" cx="1041.23" cy="-396" rx="63.89" ry="18"/>
<text text-anchor="middle" x="1041.23" y="-392.3" font-family="Times,serif" font-size="14.00">&quot;text/plain&quot;</text>
</g>
<!-- _&#45;&gt;&quot;text/plain&quot; -->
<g id="edge7" class="edge">
<title>_&#45;&gt;&quot;text/plain&quot;</title>
<path fill="none" stroke="black" d="M732.36,-276.39C740.29,-285.8 750.3,-298.25 758.24,-310 767.37,-323.52 763.06,-332.39 776.24,-342 831.77,-382.5 910.52,-394.3 967.54,-397"/>
<polygon fill="black" stroke="black" points="967.44,-400.5 977.57,-397.39 967.71,-393.5 967.44,-400.5"/>
<text text-anchor="middle" x="834.74" y="-390.8" font-family="Times,serif" font-size="14.00">encodingFormat</text>
</g>
<!-- ImageObject -->
<g id="node7" class="node">
<title>ImageObject</title>
<ellipse fill="none" stroke="#558855" cx="1041.23" cy="-342" rx="69.59" ry="18"/>
<text text-anchor="middle" x="1041.23" y="-338.3" font-family="Times,serif" font-size="14.00">ImageObject</text>
</g>
<!-- _&#45;&gt;ImageObject -->
<g id="edge8" class="edge">
<title>_&#45;&gt;ImageObject</title>
<path fill="none" stroke="black" d="M737.24,-273.71C748.12,-280.7 762.44,-288.95 776.24,-294 837.57,-316.47 910.91,-328.73 964.71,-335.21"/>
<polygon fill="black" stroke="black" points="964.52,-338.72 974.86,-336.4 965.33,-331.76 964.52,-338.72"/>
<text text-anchor="middle" x="834.74" y="-326.8" font-family="Times,serif" font-size="14.00">type</text>
</g>
<!-- &quot;A JPEG or PNG to ana...&quot; -->
<g id="node8" class="node">
<title>&quot;A JPEG or PNG to ana...&quot;</title>
<ellipse fill="none" stroke="black" stroke-width="0" cx="1041.23" cy="-288" rx="129.98" ry="18"/>
<text text-anchor="middle" x="1041.23" y="-284.3" font-family="Times,serif" font-size="14.00">&quot;A JPEG or PNG to ana...&quot;</text>
</g>
<!-- _&#45;&gt;&quot;A JPEG or PNG to ana...&quot; -->
<g id="edge9" class="edge">
<title>_&#45;&gt;&quot;A JPEG or PNG to ana...&quot;</title>
<path fill="none" stroke="black" d="M744.96,-263.19C782.82,-266.37 855.55,-272.48 919.35,-277.84"/>
<polygon fill="black" stroke="black" points="919.25,-281.35 929.5,-278.7 919.83,-274.37 919.25,-281.35"/>
<text text-anchor="middle" x="834.74" y="-278.8" font-family="Times,serif" font-size="14.00">description</text>
</g>
<!-- EntryPoint -->
<g id="node9" class="node">
<title>EntryPoint</title>
<ellipse fill="none" stroke="#558855" cx="1041.23" cy="-234" rx="61.19" ry="18"/>
<text text-anchor="middle" x="1041.23" y="-230.3" font-family="Times,serif" font-size="14.00">EntryPoint</text>
</g>
<!-- _&#45;&gt;EntryPoint -->
<g id="edge10" class="edge">
<title>_&#45;&gt;EntryPoint</title>
<path fill="none" stroke="black" d="M743,-254.04C753.17,-251.38 765.19,-248.61 776.24,-247 841.4,-237.52 916.46,-234.59 969.85,-233.83"/>
<polygon fill="black" stroke="black" points="969.93,-237.33 979.89,-233.72 969.85,-230.33 969.93,-237.33"/>
<text text-anchor="middle" x="834.74" y="-250.8" font-family="Times,serif" font-size="14.00">type</text>
</g>
<!-- &quot;image/jpeg&quot; -->
<g id="node10" class="node">
<title>&quot;image/jpeg&quot;</title>
<ellipse fill="none" stroke="black" stroke-width="0" cx="1041.23" cy="-180" rx="70.69" ry="18"/>
<text text-anchor="middle" x="1041.23" y="-176.3" font-family="Times,serif" font-size="14.00">&quot;image/jpeg&quot;</text>
</g>
<!-- _&#45;&gt;&quot;image/jpeg&quot; -->
<g id="edge11" class="edge">
<title>_&#45;&gt;&quot;image/jpeg&quot;</title>
<path fill="none" stroke="black" d="M733.6,-246.27C744.43,-236.31 760.05,-223.79 776.24,-217 834.68,-192.49 906.12,-183.62 959.95,-180.66"/>
<polygon fill="black" stroke="black" points="960.31,-184.15 970.13,-180.16 959.97,-177.16 960.31,-184.15"/>
<text text-anchor="middle" x="834.74" y="-220.8" font-family="Times,serif" font-size="14.00">contentType</text>
</g>
<!-- &quot;image/png&quot; -->
<g id="node11" class="node">
<title>&quot;image/png&quot;</title>
<ellipse fill="none" stroke="black" stroke-width="0" cx="1041.23" cy="-126" rx="68.49" ry="18"/>
<text text-anchor="middle" x="1041.23" y="-122.3" font-family="Times,serif" font-size="14.00">&quot;image/png&quot;</text>
</g>
<!-- _&#45;&gt;&quot;image/png&quot; -->
<g id="edge12" class="edge">
<title>_&#45;&gt;&quot;image/png&quot;</title>
<path fill="none" stroke="black" d="M724.84,-243.21C732.89,-221.89 749.46,-186.84 776.24,-169 831.63,-132.1 907.75,-123.04 964.02,-122.21"/>
<polygon fill="black" stroke="black" points="964.31,-125.71 974.29,-122.15 964.27,-118.71 964.31,-125.71"/>
<text text-anchor="middle" x="834.74" y="-172.8" font-family="Times,serif" font-size="14.00">contentType</text>
</g>
<!-- &quot;POST&quot; -->
<g id="node12" class="node">
<title>&quot;POST&quot;</title>
<ellipse fill="none" stroke="black" stroke-width="0" cx="1041.23" cy="-72" rx="45.49" ry="18"/>
<text text-anchor="middle" x="1041.23" y="-68.3" font-family="Times,serif" font-size="14.00">&quot;POST&quot;</text>
</g>
<!-- _&#45;&gt;&quot;POST&quot; -->
<g id="edge13" class="edge">
<title>_&#45;&gt;&quot;POST&quot;</title>
<path fill="none" stroke="black" d="M720.09,-242.96C723.18,-210.71 734.56,-143.4 776.24,-110 836.4,-61.79 929.98,-60.22 988.05,-65.01"/>
<polygon fill="black" stroke="black" points="987.84,-68.5 998.12,-65.93 988.48,-61.53 987.84,-68.5"/>
<text text-anchor="middle" x="834.74" y="-113.8" font-family="Times,serif" font-size="14.00">httpMethod</text>
</g>
<!-- &quot;https//us&#45;central1&#45;t...&quot; -->
<g id="node13" class="node">
<title>&quot;https//us&#45;central1&#45;t...&quot;</title>
<ellipse fill="none" stroke="black" stroke-width="0" cx="1041.23" cy="-18" rx="117.78" ry="18"/>
<text text-anchor="middle" x="1041.23" y="-14.3" font-family="Times,serif" font-size="14.00">&quot;https//us&#45;central1&#45;t...&quot;</text>
</g>
<!-- _&#45;&gt;&quot;https//us&#45;central1&#45;t...&quot; -->
<g id="edge14" class="edge">
<title>_&#45;&gt;&quot;https//us&#45;central1&#45;t...&quot;</title>
<path fill="none" stroke="black" d="M721.18,-243.08C727.37,-196.57 746.27,-73.79 776.24,-48 822.9,-7.85 892.64,-1.41 948.73,-4.44"/>
<polygon fill="black" stroke="black" points="948.83,-7.95 959.03,-5.11 949.28,-0.97 948.83,-7.95"/>
<text text-anchor="middle" x="834.74" y="-51.8" font-family="Times,serif" font-size="14.00">urlTemplate</text>
</g>
</g>
</svg>
