<?xml version="1.0" encoding="UTF-8" standalone="no"?>
<!DOCTYPE svg PUBLIC "-//W3C//DTD SVG 1.1//EN"
 "http://www.w3.org/Graphics/SVG/1.1/DTD/svg11.dtd">
<!-- Generated by graphviz version 5.0.0 (0)
 -->
<!-- Pages: 1 -->
<svg width="784pt" height="152pt"
 viewBox="0.00 0.00 784.44 152.00" xmlns="http://www.w3.org/2000/svg" xmlns:xlink="http://www.w3.org/1999/xlink">
<g id="graph0" class="graph" transform="scale(1 1) rotate(0) translate(4 148)">
<polygon fill="white" stroke="transparent" points="-4,4 -4,-148 780.44,-148 780.44,4 -4,4"/>
<!-- DefinedTerm -->
<g id="node1" class="node">
<title>DefinedTerm</title>
<ellipse fill="none" stroke="#558855" cx="690.64" cy="-45" rx="70.39" ry="18"/>
<text text-anchor="middle" x="690.64" y="-41.3" font-family="Times,serif" font-size="14.00">DefinedTerm</text>
</g>
<!-- openjurist.org/dictionary/Ballentine/term/calendar&#45;year -->
<g id="node2" class="node">
<title>openjurist.org/dictionary/Ballentine/term/calendar&#45;year</title>
<ellipse fill="none" stroke="black" cx="268.43" cy="-72" rx="268.35" ry="18"/>
<text text-anchor="middle" x="268.43" y="-68.3" font-family="Times,serif" font-size="14.00">openjurist.org/dictionary/Ballentine/term/calendar&#45;year</text>
</g>
<!-- openjurist.org/dictionary/Ballentine/term/calendar&#45;year&#45;&gt;DefinedTerm -->
<g id="edge1" class="edge">
<title>openjurist.org/dictionary/Ballentine/term/calendar&#45;year&#45;&gt;DefinedTerm</title>
<path fill="none" stroke="black" d="M462.93,-59.57C515.67,-56.18 569.8,-52.7 611.95,-49.99"/>
<polygon fill="black" stroke="black" points="612.36,-53.47 622.12,-49.34 611.91,-46.49 612.36,-53.47"/>
<text text-anchor="middle" x="570.85" y="-55.8" font-family="Times,serif" font-size="14.00">type</text>
</g>
<!-- openjurist.org/dictionary/Ballentine/term/schema -->
<g id="node3" class="node">
<title>openjurist.org/dictionary/Ballentine/term/schema</title>
<ellipse fill="none" stroke="black" cx="268.43" cy="-18" rx="239.66" ry="18"/>
<text text-anchor="middle" x="268.43" y="-14.3" font-family="Times,serif" font-size="14.00">openjurist.org/dictionary/Ballentine/term/schema</text>
</g>
<!-- openjurist.org/dictionary/Ballentine/term/schema&#45;&gt;DefinedTerm -->
<g id="edge2" class="edge">
<title>openjurist.org/dictionary/Ballentine/term/schema&#45;&gt;DefinedTerm</title>
<path fill="none" stroke="black" d="M482.99,-26.07C517.73,-27.96 553.31,-30.25 586.85,-33 596.72,-33.81 607.11,-34.83 617.33,-35.92"/>
<polygon fill="black" stroke="black" points="617.15,-39.42 627.47,-37.04 617.92,-32.47 617.15,-39.42"/>
<text text-anchor="middle" x="570.85" y="-36.8" font-family="Times,serif" font-size="14.00">type</text>
</g>
<!-- DefinedTermSet -->
<g id="node4" class="node">
<title>DefinedTermSet</title>
<ellipse fill="none" stroke="#558855" cx="690.64" cy="-126" rx="85.59" ry="18"/>
<text text-anchor="middle" x="690.64" y="-122.3" font-family="Times,serif" font-size="14.00">DefinedTermSet</text>
</g>
<!-- openjurist.org/dictionary/Ballentine -->
<g id="node5" class="node">
<title>openjurist.org/dictionary/Ballentine</title>
<ellipse fill="none" stroke="black" cx="268.43" cy="-126" rx="176.57" ry="18"/>
<text text-anchor="middle" x="268.43" y="-122.3" font-family="Times,serif" font-size="14.00">openjurist.org/dictionary/Ballentine</text>
</g>
<!-- openjurist.org/dictionary/Ballentine&#45;&gt;DefinedTermSet -->
<g id="edge3" class="edge">
<title>openjurist.org/dictionary/Ballentine&#45;&gt;DefinedTermSet</title>
<path fill="none" stroke="black" d="M445.51,-126C496.59,-126 550.43,-126 594.52,-126"/>
<polygon fill="black" stroke="black" points="594.64,-129.5 604.64,-126 594.64,-122.5 594.64,-129.5"/>
<text text-anchor="middle" x="570.85" y="-129.8" font-family="Times,serif" font-size="14.00">type</text>
</g>
</g>
</svg>
