<?xml version="1.0" encoding="UTF-8" standalone="no"?>
<!DOCTYPE svg PUBLIC "-//W3C//DTD SVG 1.1//EN"
 "http://www.w3.org/Graphics/SVG/1.1/DTD/svg11.dtd">
<!-- Generated by graphviz version 5.0.0 (0)
 -->
<!-- Pages: 1 -->
<svg width="650pt" height="206pt"
 viewBox="0.00 0.00 650.16 206.00" xmlns="http://www.w3.org/2000/svg" xmlns:xlink="http://www.w3.org/1999/xlink">
<g id="graph0" class="graph" transform="scale(1 1) rotate(0) translate(4 202)">
<polygon fill="white" stroke="transparent" points="-4,4 -4,-202 646.16,-202 646.16,4 -4,4"/>
<!-- assertion -->
<g id="node1" class="node">
<title>assertion</title>
<ellipse fill="none" stroke="#558855" cx="555.07" cy="-180" rx="53.89" ry="18"/>
<text text-anchor="middle" x="555.07" y="-176.3" font-family="Times,serif" font-size="14.00">assertion</text>
</g>
<!-- voc.gleaner.io/id/nanopub/XID -->
<g id="node2" class="node">
<title>voc.gleaner.io/id/nanopub/XID</title>
<ellipse fill="none" stroke="black" cx="149.49" cy="-99" rx="149.47" ry="18"/>
<text text-anchor="middle" x="149.49" y="-95.3" font-family="Times,serif" font-size="14.00">voc.gleaner.io/id/nanopub/XID</text>
</g>
<!-- voc.gleaner.io/id/nanopub/XID&#45;&gt;assertion -->
<g id="edge1" class="edge">
<title>voc.gleaner.io/id/nanopub/XID&#45;&gt;assertion</title>
<path fill="none" stroke="black" d="M217.57,-115.04C247.87,-122.09 284.15,-130.28 316.97,-137 378,-149.49 448.25,-162 496.35,-170.28"/>
<polygon fill="black" stroke="black" points="495.81,-173.74 506.26,-171.98 497,-166.84 495.81,-173.74"/>
<text text-anchor="middle" x="383.47" y="-164.8" font-family="Times,serif" font-size="14.00">hasAssertion</text>
</g>
<!-- provenance -->
<g id="node3" class="node">
<title>provenance</title>
<ellipse fill="none" stroke="#558855" cx="555.07" cy="-126" rx="64.19" ry="18"/>
<text text-anchor="middle" x="555.07" y="-122.3" font-family="Times,serif" font-size="14.00">provenance</text>
</g>
<!-- voc.gleaner.io/id/nanopub/XID&#45;&gt;provenance -->
<g id="edge2" class="edge">
<title>voc.gleaner.io/id/nanopub/XID&#45;&gt;provenance</title>
<path fill="none" stroke="black" d="M280.4,-107.69C347.32,-112.17 426.38,-117.46 482.27,-121.2"/>
<polygon fill="black" stroke="black" points="482.21,-124.7 492.43,-121.88 482.68,-117.72 482.21,-124.7"/>
<text text-anchor="middle" x="383.47" y="-121.8" font-family="Times,serif" font-size="14.00">hasProvenance</text>
</g>
<!-- pubInfo -->
<g id="node4" class="node">
<title>pubInfo</title>
<ellipse fill="none" stroke="#558855" cx="555.07" cy="-72" rx="46.29" ry="18"/>
<text text-anchor="middle" x="555.07" y="-68.3" font-family="Times,serif" font-size="14.00">pubInfo</text>
</g>
<!-- voc.gleaner.io/id/nanopub/XID&#45;&gt;pubInfo -->
<g id="edge3" class="edge">
<title>voc.gleaner.io/id/nanopub/XID&#45;&gt;pubInfo</title>
<path fill="none" stroke="black" d="M280.4,-90.31C354.37,-85.36 443.17,-79.42 499.12,-75.68"/>
<polygon fill="black" stroke="black" points="499.43,-79.16 509.17,-75 498.96,-72.18 499.43,-79.16"/>
<text text-anchor="middle" x="383.47" y="-90.8" font-family="Times,serif" font-size="14.00">hasPublicationInfo</text>
</g>
<!-- NanoPublication -->
<g id="node5" class="node">
<title>NanoPublication</title>
<ellipse fill="none" stroke="#558855" cx="555.07" cy="-18" rx="87.18" ry="18"/>
<text text-anchor="middle" x="555.07" y="-14.3" font-family="Times,serif" font-size="14.00">NanoPublication</text>
</g>
<!-- voc.gleaner.io/id/nanopub/XID&#45;&gt;NanoPublication -->
<g id="edge4" class="edge">
<title>voc.gleaner.io/id/nanopub/XID&#45;&gt;NanoPublication</title>
<path fill="none" stroke="black" d="M215.93,-82.79C246.54,-75.44 283.53,-66.87 316.97,-60 369.9,-49.12 429.83,-38.52 476.19,-30.69"/>
<polygon fill="black" stroke="black" points="476.89,-34.12 486.17,-29.01 475.73,-27.22 476.89,-34.12"/>
<text text-anchor="middle" x="383.47" y="-63.8" font-family="Times,serif" font-size="14.00">type</text>
</g>
</g>
</svg>
